M48
; DRILL file KiCad 10.0.6 date 2026-09-17T03:25:05
; FORMAT={-:-/ absolute / metric / decimal}
; #@! TF.CreationDate,2026-09-17T03:25:05+09:00
; #@! TF.GenerationSoftware,Kicad,Pcbnew,10.0.6
; #@! TF.FileFunction,Plated,1,4,PTH
FMAT,2
METRIC
; #@! TA.AperFunction,Plated,PTH,ViaDrill
T1C0.300
; #@! TA.AperFunction,Plated,PTH,ComponentDrill
T2C0.600
; #@! TA.AperFunction,Plated,PTH,ComponentDrill
T3C0.750
; #@! TA.AperFunction,Plated,PTH,ComponentDrill
T4C1.000
%
G90
G05
T1
X41.0Y-44.4
X41.0Y-47.6
X41.0Y-50.8
X41.0Y-54.0
X41.0Y-57.2
X41.0Y-60.4
X41.0Y-63.6
X41.0Y-70.0
X41.0Y-73.2
X41.0Y-76.4
X44.2Y-41.2
X44.2Y-47.6
X44.2Y-50.8
X44.2Y-54.0
X44.2Y-57.2
X44.2Y-60.4
X44.2Y-70.0
X44.2Y-76.4
X47.4Y-41.2
X47.4Y-44.4
X47.4Y-47.6
X47.4Y-50.8
X47.4Y-54.0
X47.4Y-57.2
X47.4Y-70.0
X47.4Y-73.2
X47.4Y-76.4
X50.6Y-41.2
X50.6Y-44.4
X50.6Y-47.6
X50.6Y-50.8
X50.6Y-54.0
X50.6Y-63.6
X50.6Y-70.0
X50.6Y-73.2
X50.6Y-76.4
X53.2Y-62.165
X53.8Y-41.2
X53.8Y-44.4
X53.8Y-73.2
X53.8Y-76.4
X53.995Y-55.807
X55.176Y-58.163
X57.0Y-41.2
X57.0Y-76.4
X58.569Y-55.372
X58.875Y-62.27
X58.875Y-63.14
X58.896Y-71.299
X59.141Y-64.391
X60.2Y-41.2
X60.2Y-70.0
X60.443Y-66.027
X60.855Y-45.4
X61.325Y-62.725
X61.325Y-64.075
X61.437Y-55.562
X62.198Y-70.224
X62.675Y-62.725
X62.675Y-64.075
X62.693Y-73.563
X63.4Y-41.2
X63.4Y-70.0
X63.961Y-65.278
X64.465Y-60.378
X66.538Y-52.946
X66.6Y-41.2
X66.6Y-44.4
X67.091Y-73.554
X67.229Y-62.139
X67.956Y-59.355
X69.744Y-55.556
X69.8Y-41.2
X69.8Y-47.6
X70.074Y-63.472
X70.519Y-57.105
X70.693Y-61.565
X70.697Y-63.015
X72.452Y-74.606
X72.875Y-61.39
X72.875Y-62.64
X72.911Y-49.232
X73.0Y-41.2
X73.0Y-47.6
X73.0Y-66.8
X73.254Y-53.211
X73.4Y-65.387
X74.125Y-61.39
X74.125Y-62.64
X74.314Y-55.516
X75.517Y-71.375
X75.856Y-53.033
X75.952Y-60.315
X76.2Y-41.2
X76.303Y-65.382
X76.864Y-58.434
X77.05Y-62.015
X77.282Y-55.303
X77.389Y-53.033
X78.499Y-57.537
X78.65Y-68.666
X79.262Y-45.706
X79.279Y-57.537
X79.4Y-41.2
X81.021Y-59.634
X82.1Y-69.76
X82.262Y-45.681
X82.6Y-41.2
X82.6Y-44.4
X82.6Y-76.4
X82.982Y-60.297
X83.355Y-61.693
X83.426Y-51.394
X83.462Y-48.096
X84.462Y-53.566
X84.73Y-60.12
X84.938Y-64.152
X85.282Y-52.85
X85.8Y-41.2
X85.8Y-76.4
X86.572Y-54.923
X89.0Y-41.2
X89.0Y-44.4
X89.0Y-47.6
X89.0Y-50.8
X89.0Y-66.8
X89.0Y-70.0
X89.0Y-73.2
X89.0Y-76.4
X89.156Y-58.4
X92.2Y-41.2
X92.2Y-44.4
X92.2Y-47.6
X92.2Y-54.0
X92.2Y-66.8
X92.2Y-70.0
X92.2Y-73.2
X92.2Y-76.4
X95.4Y-41.2
X95.4Y-44.4
X95.4Y-50.8
X95.4Y-54.0
X95.4Y-60.4
X95.4Y-66.8
X95.4Y-70.0
X95.4Y-73.2
X95.4Y-76.4
X97.447Y-51.805
X97.65Y-56.652
X98.6Y-41.2
X98.6Y-47.6
X98.6Y-54.0
X98.6Y-60.4
X98.6Y-66.8
X98.6Y-70.0
X98.6Y-73.2
X98.6Y-76.4
X101.8Y-41.2
X101.8Y-47.6
X101.8Y-54.0
X101.8Y-60.4
X101.8Y-66.8
X101.8Y-70.0
X101.8Y-73.2
X101.8Y-76.4
X101.854Y-63.685
X105.0Y-41.2
X105.0Y-47.6
X105.0Y-54.0
X105.0Y-66.8
X105.0Y-70.0
X105.0Y-73.2
X105.0Y-76.4
X105.486Y-59.818
X106.726Y-62.718
X106.902Y-56.898
X108.2Y-41.2
X108.2Y-47.6
X108.2Y-54.0
X108.2Y-60.4
X108.2Y-66.8
X108.2Y-70.0
X108.2Y-73.2
X108.2Y-76.4
X111.4Y-41.2
X111.4Y-44.4
X111.4Y-50.8
X111.4Y-54.0
X111.4Y-57.2
X111.4Y-63.6
X111.4Y-70.0
X111.4Y-73.2
X111.4Y-76.4
X114.6Y-41.2
X114.6Y-44.4
X114.6Y-47.6
X114.6Y-54.0
X114.6Y-57.2
X114.6Y-70.0
X114.6Y-73.2
X114.6Y-76.4
X117.8Y-41.2
X117.8Y-44.4
X117.8Y-47.6
X117.8Y-50.8
X117.8Y-54.0
X117.8Y-57.2
X117.8Y-60.4
X117.8Y-63.6
X117.8Y-66.8
X117.8Y-70.0
X117.8Y-76.4
X121.0Y-41.2
X121.0Y-44.4
X121.0Y-47.6
X121.0Y-50.8
X121.0Y-54.0
X121.0Y-57.2
X121.0Y-60.4
X121.0Y-63.6
X121.0Y-66.8
X121.0Y-70.0
X121.0Y-76.4
T3
X51.95Y-59.3
X51.95Y-61.3
X56.5Y-46.85
X58.5Y-46.85
X100.5Y-43.75
X102.5Y-43.75
X104.5Y-43.75
X106.5Y-43.75
X114.3Y-67.85
X115.7Y-60.45
X115.7Y-62.45
X116.3Y-67.85
T4
X41.77Y-65.595
X44.31Y-65.595
X46.85Y-65.595
X49.39Y-65.595
X51.93Y-65.595
X54.47Y-65.595
X57.01Y-65.595
X77.24Y-72.63
X79.78Y-72.63
X82.32Y-72.63
X84.86Y-72.63
T2
X76.692Y-46.53G85X76.692Y-45.43
G05
X85.332Y-46.53G85X85.332Y-45.43
G05
M30
