%TF.GenerationSoftware,KiCad,Pcbnew,10.0.6*%
%TF.CreationDate,2026-09-17T04:31:55+09:00*%
%TF.ProjectId,katanori61,6b617461-6e6f-4726-9936-312e6b696361,rev?*%
%TF.SameCoordinates,Original*%
%TF.FileFunction,Paste,Top*%
%TF.FilePolarity,Positive*%
%FSLAX46Y46*%
G04 Gerber Fmt 4.6, Leading zero omitted, Abs format (unit mm)*
G04 Created by KiCad (PCBNEW 10.0.6) date 2026-09-17 04:31:55*
%MOMM*%
%LPD*%
G01*
G04 APERTURE LIST*
G04 Aperture macros list*
%AMRoundRect*
0 Rectangle with rounded corners*
0 $1 Rounding radius*
0 $2 $3 $4 $5 $6 $7 $8 $9 X,Y pos of 4 corners*
0 Add a 4 corners polygon primitive as box body*
4,1,4,$2,$3,$4,$5,$6,$7,$8,$9,$2,$3,0*
0 Add four circle primitives for the rounded corners*
1,1,$1+$1,$2,$3*
1,1,$1+$1,$4,$5*
1,1,$1+$1,$6,$7*
1,1,$1+$1,$8,$9*
0 Add four rect primitives between the rounded corners*
20,1,$1+$1,$2,$3,$4,$5,0*
20,1,$1+$1,$4,$5,$6,$7,0*
20,1,$1+$1,$6,$7,$8,$9,0*
20,1,$1+$1,$8,$9,$2,$3,0*%
G04 Aperture macros list end*
%ADD10RoundRect,0.250000X-0.475000X0.250000X-0.475000X-0.250000X0.475000X-0.250000X0.475000X0.250000X0*%
%ADD11RoundRect,0.250000X-0.450000X0.262500X-0.450000X-0.262500X0.450000X-0.262500X0.450000X0.262500X0*%
%ADD12RoundRect,0.225000X-0.375000X0.225000X-0.375000X-0.225000X0.375000X-0.225000X0.375000X0.225000X0*%
%ADD13RoundRect,0.150000X-0.150000X0.587500X-0.150000X-0.587500X0.150000X-0.587500X0.150000X0.587500X0*%
%ADD14RoundRect,0.150000X-0.825000X-0.150000X0.825000X-0.150000X0.825000X0.150000X-0.825000X0.150000X0*%
%ADD15RoundRect,0.250000X-0.250000X-0.475000X0.250000X-0.475000X0.250000X0.475000X-0.250000X0.475000X0*%
%ADD16RoundRect,0.182500X0.182500X0.182500X-0.182500X0.182500X-0.182500X-0.182500X0.182500X-0.182500X0*%
%ADD17RoundRect,0.087500X0.325000X0.087500X-0.325000X0.087500X-0.325000X-0.087500X0.325000X-0.087500X0*%
%ADD18RoundRect,0.087500X0.087500X0.325000X-0.087500X0.325000X-0.087500X-0.325000X0.087500X-0.325000X0*%
%ADD19RoundRect,0.250000X0.300000X1.600000X-0.300000X1.600000X-0.300000X-1.600000X0.300000X-1.600000X0*%
%ADD20RoundRect,0.250000X-0.255000X-0.255000X0.255000X-0.255000X0.255000X0.255000X-0.255000X0.255000X0*%
%ADD21RoundRect,0.062500X-0.350000X-0.062500X0.350000X-0.062500X0.350000X0.062500X-0.350000X0.062500X0*%
%ADD22RoundRect,0.062500X-0.062500X-0.350000X0.062500X-0.350000X0.062500X0.350000X-0.062500X0.350000X0*%
%ADD23RoundRect,0.250000X0.312500X0.625000X-0.312500X0.625000X-0.312500X-0.625000X0.312500X-0.625000X0*%
%ADD24RoundRect,0.150000X-0.587500X-0.150000X0.587500X-0.150000X0.587500X0.150000X-0.587500X0.150000X0*%
%ADD25RoundRect,0.075000X-0.075000X0.650000X-0.075000X-0.650000X0.075000X-0.650000X0.075000X0.650000X0*%
%ADD26RoundRect,0.250000X-0.262500X-0.450000X0.262500X-0.450000X0.262500X0.450000X-0.262500X0.450000X0*%
%ADD27RoundRect,0.243750X-0.243750X-0.456250X0.243750X-0.456250X0.243750X0.456250X-0.243750X0.456250X0*%
%ADD28RoundRect,0.250000X-0.325000X-0.650000X0.325000X-0.650000X0.325000X0.650000X-0.325000X0.650000X0*%
%ADD29RoundRect,0.150000X0.150000X0.575000X-0.150000X0.575000X-0.150000X-0.575000X0.150000X-0.575000X0*%
%ADD30RoundRect,0.075000X0.075000X0.650000X-0.075000X0.650000X-0.075000X-0.650000X0.075000X-0.650000X0*%
%ADD31R,1.000000X2.200000*%
G04 APERTURE END LIST*
D10*
%TO.C,C31*%
X62080000Y-45400000D03*
X62080000Y-47300000D03*
%TD*%
D11*
%TO.C,R32*%
X57590000Y-50971500D03*
X57590000Y-52796500D03*
%TD*%
%TO.C,R31*%
X57590000Y-54480500D03*
X57590000Y-56305500D03*
%TD*%
D12*
%TO.C,D31*%
X55100000Y-55776000D03*
X55100000Y-59076000D03*
%TD*%
D13*
%TO.C,Q31*%
X56600000Y-60918500D03*
X54700000Y-60918500D03*
X55650000Y-62793500D03*
%TD*%
D10*
%TO.C,C32*%
X83727000Y-54775000D03*
X83727000Y-56675000D03*
%TD*%
D14*
%TO.C,U4*%
X103225000Y-61695000D03*
X103225000Y-62965000D03*
X103225000Y-64235000D03*
X103225000Y-65505000D03*
X108175000Y-65505000D03*
X108175000Y-64235000D03*
X108175000Y-62965000D03*
X108175000Y-61695000D03*
%TD*%
D15*
%TO.C,C42*%
X96550000Y-63600000D03*
X98450000Y-63600000D03*
%TD*%
D16*
%TO.C,U1*%
X62900000Y-64300000D03*
X62900000Y-63400000D03*
X62900000Y-62500000D03*
X62000000Y-64300000D03*
X62000000Y-63400000D03*
X62000000Y-62500000D03*
X61100000Y-64300000D03*
X61100000Y-63400000D03*
X61100000Y-62500000D03*
D17*
X63962500Y-64375000D03*
X63962500Y-63725000D03*
X63962500Y-63075000D03*
X63962500Y-62425000D03*
D18*
X62975000Y-61437500D03*
X62325000Y-61437500D03*
X61675000Y-61437500D03*
X61025000Y-61437500D03*
D17*
X60037500Y-62425000D03*
X60037500Y-63075000D03*
X60037500Y-63725000D03*
X60037500Y-64375000D03*
D18*
X61025000Y-65362500D03*
X61675000Y-65362500D03*
X62325000Y-65362500D03*
X62975000Y-65362500D03*
%TD*%
D19*
%TO.C,L1*%
X69000000Y-63400000D03*
X66000000Y-63400000D03*
%TD*%
D20*
%TO.C,U2*%
X72875000Y-61390000D03*
X72875000Y-62640000D03*
X74125000Y-61390000D03*
X74125000Y-62640000D03*
D21*
X71562500Y-61015000D03*
X71562500Y-61515000D03*
X71562500Y-62015000D03*
X71562500Y-62515000D03*
X71562500Y-63015000D03*
D22*
X72500000Y-63952500D03*
X73000000Y-63952500D03*
X73500000Y-63952500D03*
X74000000Y-63952500D03*
X74500000Y-63952500D03*
D21*
X75437500Y-63015000D03*
X75437500Y-62515000D03*
X75437500Y-62015000D03*
X75437500Y-61515000D03*
X75437500Y-61015000D03*
D22*
X74500000Y-60077500D03*
X74000000Y-60077500D03*
X73500000Y-60077500D03*
X73000000Y-60077500D03*
X72500000Y-60077500D03*
%TD*%
D23*
%TO.C,R41*%
X80962500Y-63400000D03*
X78037500Y-63400000D03*
%TD*%
D24*
%TO.C,Q2*%
X83062500Y-62450000D03*
X83062500Y-64350000D03*
X84937500Y-63400000D03*
%TD*%
D25*
%TO.C,U3*%
X80500000Y-56348000D03*
X80000000Y-56348000D03*
X79500000Y-56348000D03*
X79000000Y-56348000D03*
X78500000Y-56348000D03*
X78500000Y-60648000D03*
X79000000Y-60648000D03*
X79500000Y-60648000D03*
X80000000Y-60648000D03*
X80500000Y-60648000D03*
%TD*%
D26*
%TO.C,R44*%
X58132500Y-72400000D03*
X59957500Y-72400000D03*
%TD*%
%TO.C,R45*%
X61527500Y-72400000D03*
X63352500Y-72400000D03*
%TD*%
D27*
%TO.C,LED3*%
X65015500Y-72400000D03*
X66890500Y-72400000D03*
%TD*%
D26*
%TO.C,R14*%
X68436500Y-72400000D03*
X70261500Y-72400000D03*
%TD*%
%TO.C,R15*%
X71806500Y-73425000D03*
X73631500Y-73425000D03*
%TD*%
D27*
%TO.C,LED4*%
X72702500Y-71375000D03*
X74577500Y-71375000D03*
%TD*%
D26*
%TO.C,R8*%
X77589500Y-69760000D03*
X79414500Y-69760000D03*
%TD*%
%TO.C,R46*%
X83087500Y-69760000D03*
X84912500Y-69760000D03*
%TD*%
D15*
%TO.C,C2*%
X60233000Y-67900000D03*
X62133000Y-67900000D03*
%TD*%
D28*
%TO.C,C6*%
X63858000Y-67900000D03*
X66808000Y-67900000D03*
%TD*%
%TO.C,C9*%
X68509000Y-67900000D03*
X71459000Y-67900000D03*
%TD*%
D26*
%TO.C,R16*%
X75332500Y-66400000D03*
X77157500Y-66400000D03*
%TD*%
%TO.C,R17*%
X78842500Y-66400000D03*
X80667500Y-66400000D03*
%TD*%
D15*
%TO.C,C1*%
X60145000Y-58400000D03*
X62045000Y-58400000D03*
%TD*%
%TO.C,C4*%
X63559000Y-58400000D03*
X65459000Y-58400000D03*
%TD*%
%TO.C,C7*%
X67001000Y-58400000D03*
X68901000Y-58400000D03*
%TD*%
%TO.C,C8*%
X70552000Y-58285000D03*
X72452000Y-58285000D03*
%TD*%
%TO.C,C41*%
X73993000Y-58400000D03*
X75893000Y-58400000D03*
%TD*%
D26*
%TO.C,R42*%
X82832500Y-58525000D03*
X84657500Y-58525000D03*
%TD*%
%TO.C,R43*%
X86342500Y-58400000D03*
X88167500Y-58400000D03*
%TD*%
%TO.C,R1*%
X59702500Y-54400000D03*
X61527500Y-54400000D03*
%TD*%
%TO.C,R2*%
X63085500Y-54400000D03*
X64910500Y-54400000D03*
%TD*%
%TO.C,R3*%
X66474500Y-54400000D03*
X68299500Y-54400000D03*
%TD*%
%TO.C,R4*%
X69852500Y-54400000D03*
X71677500Y-54400000D03*
%TD*%
%TO.C,R13*%
X73366500Y-54400000D03*
X75191500Y-54400000D03*
%TD*%
%TO.C,R6*%
X76748500Y-54135000D03*
X78573500Y-54135000D03*
%TD*%
%TO.C,R7*%
X80129500Y-54267000D03*
X81954500Y-54267000D03*
%TD*%
D27*
%TO.C,LED2*%
X60196500Y-51250000D03*
X62071500Y-51250000D03*
%TD*%
D26*
%TO.C,R5*%
X63588500Y-50400000D03*
X65413500Y-50400000D03*
%TD*%
D27*
%TO.C,LED1*%
X66962500Y-50400000D03*
X68837500Y-50400000D03*
%TD*%
D26*
%TO.C,R20*%
X70497500Y-50400000D03*
X72322500Y-50400000D03*
%TD*%
D24*
%TO.C,Q1*%
X74117500Y-49450000D03*
X74117500Y-51350000D03*
X75992500Y-50400000D03*
%TD*%
D29*
%TO.C,J13*%
X84262000Y-46395000D03*
X83462000Y-46395000D03*
D30*
X82262000Y-46395000D03*
X81262000Y-46395000D03*
X80762000Y-46395000D03*
X79762000Y-46395000D03*
D29*
X78562000Y-46395000D03*
X77762000Y-46395000D03*
X77762000Y-46395000D03*
X78562000Y-46395000D03*
D30*
X79262000Y-46395000D03*
X80262000Y-46395000D03*
X81762000Y-46395000D03*
X82762000Y-46395000D03*
D29*
X83462000Y-46395000D03*
X84262000Y-46395000D03*
%TD*%
D31*
%TO.C,K31*%
X97650000Y-58250000D03*
X102730000Y-58250000D03*
X105270000Y-58250000D03*
X107810000Y-58250000D03*
X107810000Y-50250000D03*
X105270000Y-50250000D03*
X102730000Y-50250000D03*
X97650000Y-50250000D03*
%TD*%
M02*
