%TF.GenerationSoftware,KiCad,Pcbnew,10.0.6*%
%TF.CreationDate,2026-09-19T02:29:59+09:00*%
%TF.ProjectId,katanori61,6b617461-6e6f-4726-9936-312e6b696361,rev?*%
%TF.SameCoordinates,Original*%
%TF.FileFunction,Copper,L3,Inr*%
%TF.FilePolarity,Positive*%
%FSLAX46Y46*%
G04 Gerber Fmt 4.6, Leading zero omitted, Abs format (unit mm)*
G04 Created by KiCad (PCBNEW 10.0.6) date 2026-09-19 02:29:59*
%MOMM*%
%LPD*%
G01*
G04 APERTURE LIST*
G04 Aperture macros list*
%AMRoundRect*
0 Rectangle with rounded corners*
0 $1 Rounding radius*
0 $2 $3 $4 $5 $6 $7 $8 $9 X,Y pos of 4 corners*
0 Add a 4 corners polygon primitive as box body*
4,1,4,$2,$3,$4,$5,$6,$7,$8,$9,$2,$3,0*
0 Add four circle primitives for the rounded corners*
1,1,$1+$1,$2,$3*
1,1,$1+$1,$4,$5*
1,1,$1+$1,$6,$7*
1,1,$1+$1,$8,$9*
0 Add four rect primitives between the rounded corners*
20,1,$1+$1,$2,$3,$4,$5,0*
20,1,$1+$1,$4,$5,$6,$7,0*
20,1,$1+$1,$6,$7,$8,$9,0*
20,1,$1+$1,$8,$9,$2,$3,0*%
G04 Aperture macros list end*
%TA.AperFunction,ComponentPad*%
%ADD10RoundRect,0.250000X-0.350000X-0.625000X0.350000X-0.625000X0.350000X0.625000X-0.350000X0.625000X0*%
%TD*%
%TA.AperFunction,ComponentPad*%
%ADD11O,1.200000X1.750000*%
%TD*%
%TA.AperFunction,ComponentPad*%
%ADD12RoundRect,0.250000X-0.625000X0.350000X-0.625000X-0.350000X0.625000X-0.350000X0.625000X0.350000X0*%
%TD*%
%TA.AperFunction,ComponentPad*%
%ADD13O,1.750000X1.200000*%
%TD*%
%TA.AperFunction,ComponentPad*%
%ADD14R,1.700000X1.700000*%
%TD*%
%TA.AperFunction,ComponentPad*%
%ADD15C,1.700000*%
%TD*%
%TA.AperFunction,ComponentPad*%
%ADD16O,1.000000X2.100000*%
%TD*%
%TA.AperFunction,ComponentPad*%
%ADD17O,1.000000X1.600000*%
%TD*%
%TA.AperFunction,ViaPad*%
%ADD18C,0.600000*%
%TD*%
%TA.AperFunction,Conductor*%
%ADD19C,0.200000*%
%TD*%
%TA.AperFunction,Conductor*%
%ADD20C,0.600000*%
%TD*%
%TA.AperFunction,Conductor*%
%ADD21C,0.800000*%
%TD*%
%TA.AperFunction,Conductor*%
%ADD22C,0.400000*%
%TD*%
G04 APERTURE END LIST*
D10*
%TO.N,SPKP*%
%TO.C,J4*%
X114300000Y-67850000D03*
D11*
%TO.N,SPKM*%
X116300000Y-67850000D03*
%TD*%
D12*
%TO.N,SPKM*%
%TO.C,J5*%
X51950000Y-59300000D03*
D13*
%TO.N,SPKO*%
X51950000Y-61300000D03*
%TD*%
D10*
%TO.N,GND*%
%TO.C,J6*%
X56500000Y-46850000D03*
D11*
%TO.N,BTN*%
X58500000Y-46850000D03*
%TD*%
D10*
%TO.N,EN*%
%TO.C,J7*%
X100500000Y-43750000D03*
D11*
%TO.N,GND*%
X102500000Y-43750000D03*
%TO.N,EN*%
X104500000Y-43750000D03*
%TO.N,GND*%
X106500000Y-43750000D03*
%TD*%
D12*
%TO.N,GND*%
%TO.C,J10*%
X115700000Y-60450000D03*
D13*
%TO.N,BATRAW*%
X115700000Y-62450000D03*
%TD*%
D14*
%TO.N,V5*%
%TO.C,J1*%
X41770000Y-65595000D03*
D15*
%TO.N,GND*%
X44310000Y-65595000D03*
%TO.N,V33*%
X46850000Y-65595000D03*
%TO.N,SDA*%
X49390000Y-65595000D03*
%TO.N,SCL*%
X51930000Y-65595000D03*
%TO.N,BTN*%
X54470000Y-65595000D03*
%TO.N,IN*%
X57010000Y-65595000D03*
%TD*%
D14*
%TO.N,GND*%
%TO.C,J2*%
X77240000Y-72630000D03*
D15*
%TO.N,V33*%
X79780000Y-72630000D03*
%TO.N,SCL*%
X82320000Y-72630000D03*
%TO.N,SDA*%
X84860000Y-72630000D03*
%TD*%
D16*
%TO.N,GND*%
%TO.C,J13*%
X85332000Y-45480000D03*
D17*
X85332000Y-41300000D03*
D16*
X76692000Y-45480000D03*
D17*
X76692000Y-41300000D03*
%TD*%
D18*
%TO.N,GND*%
X61325000Y-62440000D03*
X61325000Y-63790000D03*
X62675000Y-62440000D03*
X62675000Y-63790000D03*
X72875000Y-61508000D03*
X72875000Y-62758000D03*
X74125000Y-61508000D03*
X74125000Y-62758000D03*
%TO.N,V5*%
X63858000Y-70338000D03*
%TO.N,BATRAW*%
X87495000Y-63400000D03*
%TO.N,VBUS*%
X78562000Y-48095000D03*
X72225000Y-58632000D03*
%TO.N,GND*%
X73500000Y-55732000D03*
X66808000Y-70348000D03*
X72534000Y-68800000D03*
X62675000Y-57175000D03*
X77350000Y-57060000D03*
X79499000Y-52895000D03*
X82000000Y-51525000D03*
X79900000Y-51525000D03*
%TO.N,BATG*%
X84268000Y-61692800D03*
X84008000Y-68808300D03*
%TO.N,COL*%
X55650000Y-60126000D03*
X89400800Y-55807000D03*
%TO.N,EN*%
X75912300Y-53705500D03*
X83486700Y-53815400D03*
X59160200Y-63201900D03*
%TO.N,GND*%
X85899400Y-69760000D03*
X58760000Y-52796200D03*
X63278000Y-47129800D03*
X53200100Y-62165500D03*
%TO.N,IN*%
X58741700Y-54481200D03*
%TO.N,LBI*%
X62053600Y-55565100D03*
X59156500Y-62141600D03*
%TO.N,PROG1*%
X76393300Y-67493000D03*
X77050000Y-62133000D03*
%TO.N,SCL*%
X93300900Y-63578500D03*
X89156200Y-58400000D03*
X79248300Y-57407500D03*
%TO.N,SDA*%
X94679800Y-65807700D03*
X78510100Y-55253300D03*
X84657500Y-59694900D03*
%TO.N,SPKM*%
X56685500Y-58750600D03*
%TO.N,SPKO*%
X94280300Y-45590000D03*
%TO.N,SPKP*%
X97465600Y-48130000D03*
%TO.N,V33*%
X99720100Y-61591800D03*
%TO.N,V5*%
X65612500Y-67867900D03*
X55100000Y-54853600D03*
X62080000Y-44348300D03*
X94180300Y-55750000D03*
%TO.N,VBUS*%
X83226600Y-47583700D03*
X70683000Y-62132500D03*
%TO.N,VSYS*%
X71463500Y-60214800D03*
X71893600Y-53688500D03*
X69000000Y-61095100D03*
%TO.N,GND*%
X41000000Y-73200000D03*
X41000000Y-70000000D03*
X41000000Y-60400000D03*
X41000000Y-57200000D03*
X41000000Y-54000000D03*
X41000000Y-50800000D03*
X41000000Y-47600000D03*
X41000000Y-44400000D03*
X44200000Y-76400000D03*
X44200000Y-57200000D03*
X44200000Y-54000000D03*
X44200000Y-50800000D03*
X44200000Y-47600000D03*
X44200000Y-41200000D03*
X47400000Y-76400000D03*
X47400000Y-73200000D03*
X47400000Y-54000000D03*
X47400000Y-50800000D03*
X47400000Y-47600000D03*
X47400000Y-44400000D03*
X47400000Y-41200000D03*
X50600000Y-76400000D03*
X50600000Y-73200000D03*
X50600000Y-66800000D03*
X50600000Y-50800000D03*
X50600000Y-47600000D03*
X50600000Y-44400000D03*
X50600000Y-41200000D03*
X53800000Y-76400000D03*
X53800000Y-57200000D03*
X53800000Y-47600000D03*
X53800000Y-44400000D03*
X53800000Y-41200000D03*
X57000000Y-76400000D03*
X57000000Y-63600000D03*
X57000000Y-44400000D03*
X57000000Y-41200000D03*
X60200000Y-76400000D03*
X60200000Y-47600000D03*
X60200000Y-41200000D03*
X63400000Y-76400000D03*
X63400000Y-41200000D03*
X66600000Y-76400000D03*
X66600000Y-47600000D03*
X66600000Y-44400000D03*
X66600000Y-41200000D03*
X69800000Y-76400000D03*
X69800000Y-54000000D03*
X69800000Y-47600000D03*
X69800000Y-44400000D03*
X69800000Y-41200000D03*
X73000000Y-76400000D03*
X73000000Y-47600000D03*
X73000000Y-44400000D03*
X73000000Y-41200000D03*
X76200000Y-76400000D03*
X79400000Y-76400000D03*
X79400000Y-44400000D03*
X79400000Y-41200000D03*
X82600000Y-76400000D03*
X82600000Y-44400000D03*
X82600000Y-41200000D03*
X85800000Y-76400000D03*
X85800000Y-66800000D03*
X85800000Y-60400000D03*
X89000000Y-76400000D03*
X89000000Y-70000000D03*
X92200000Y-76400000D03*
X92200000Y-73200000D03*
X92200000Y-60400000D03*
X92200000Y-44400000D03*
X95400000Y-76400000D03*
X95400000Y-73200000D03*
X95400000Y-54000000D03*
X98600000Y-76400000D03*
X98600000Y-73200000D03*
X98600000Y-60400000D03*
X98600000Y-57200000D03*
X98600000Y-54000000D03*
X101800000Y-76400000D03*
X101800000Y-73200000D03*
X101800000Y-60400000D03*
X101800000Y-57200000D03*
X101800000Y-54000000D03*
X101800000Y-41200000D03*
X105000000Y-76400000D03*
X105000000Y-73200000D03*
X105000000Y-60400000D03*
X105000000Y-57200000D03*
X105000000Y-54000000D03*
X105000000Y-47600000D03*
X105000000Y-41200000D03*
X108200000Y-76400000D03*
X108200000Y-73200000D03*
X108200000Y-60400000D03*
X108200000Y-57200000D03*
X108200000Y-50800000D03*
X108200000Y-47600000D03*
X108200000Y-41200000D03*
X111400000Y-76400000D03*
X111400000Y-73200000D03*
X111400000Y-63600000D03*
X111400000Y-54000000D03*
X111400000Y-50800000D03*
X111400000Y-44400000D03*
X111400000Y-41200000D03*
X114600000Y-76400000D03*
X114600000Y-73200000D03*
X114600000Y-57200000D03*
X114600000Y-54000000D03*
X114600000Y-47600000D03*
X114600000Y-44400000D03*
X114600000Y-41200000D03*
X117800000Y-76400000D03*
X117800000Y-70000000D03*
X117800000Y-66800000D03*
X117800000Y-63600000D03*
X117800000Y-60400000D03*
X117800000Y-57200000D03*
X117800000Y-54000000D03*
X117800000Y-50800000D03*
X117800000Y-47600000D03*
X117800000Y-44400000D03*
X117800000Y-41200000D03*
X121000000Y-70000000D03*
X121000000Y-66800000D03*
X121000000Y-63600000D03*
X121000000Y-60400000D03*
X121000000Y-57200000D03*
X121000000Y-54000000D03*
X121000000Y-50800000D03*
X121000000Y-47600000D03*
X121000000Y-44400000D03*
%TD*%
%TO.N,BTN*%
D19*
X54470000Y-65595000D02*
X52964200Y-64089200D01*
X52964200Y-64089200D02*
X46728800Y-64089200D01*
X46728800Y-64089200D02*
X45748300Y-65069700D01*
X45748300Y-65069700D02*
X45748300Y-65738700D01*
X45748300Y-65738700D02*
X44715600Y-66771400D01*
X44715600Y-66771400D02*
X40843300Y-66771400D01*
X40843300Y-66771400D02*
X40668300Y-66596400D01*
X40668300Y-66596400D02*
X40668300Y-64581600D01*
X40668300Y-64581600D02*
X58399900Y-46850000D01*
X58399900Y-46850000D02*
X58500000Y-46850000D01*
%TO.N,EN*%
X59160200Y-63201900D02*
X60342200Y-64383900D01*
X60342200Y-64383900D02*
X66500400Y-64383900D01*
X66500400Y-64383900D02*
X70702000Y-60182300D01*
X70702000Y-60182300D02*
X70702000Y-57720100D01*
X70702000Y-57720100D02*
X74716600Y-53705500D01*
X74716600Y-53705500D02*
X75912300Y-53705500D01*
X100500000Y-43750000D02*
X101351700Y-43750000D01*
X104500000Y-43750000D02*
X103373300Y-44876700D01*
X103373300Y-44876700D02*
X101733200Y-44876700D01*
X101733200Y-44876700D02*
X101351700Y-44495200D01*
X101351700Y-44495200D02*
X101351700Y-43750000D01*
%TO.N,GND*%
X85332000Y-41568000D02*
X85332000Y-42351700D01*
X85332000Y-41300000D02*
X85332000Y-41568000D01*
X102500000Y-43750000D02*
X100318000Y-41568000D01*
X100318000Y-41568000D02*
X85332000Y-41568000D01*
X56500000Y-46850000D02*
X57351700Y-46850000D01*
X63278000Y-47129800D02*
X63278000Y-44574700D01*
X63278000Y-44574700D02*
X62366800Y-43663500D01*
X62366800Y-43663500D02*
X59793000Y-43663500D01*
X59793000Y-43663500D02*
X57351700Y-46104800D01*
X57351700Y-46104800D02*
X57351700Y-46850000D01*
X63278000Y-47129800D02*
X63278000Y-48278200D01*
X63278000Y-48278200D02*
X58760000Y-52796200D01*
X77240000Y-72630000D02*
X77711900Y-72630000D01*
X77711900Y-72630000D02*
X80581900Y-69760000D01*
X80581900Y-69760000D02*
X85899400Y-69760000D01*
X77248700Y-55732000D02*
X77248700Y-56958700D01*
X77248700Y-56958700D02*
X77350000Y-57060000D01*
X79499000Y-52895000D02*
X77248700Y-55145300D01*
X77248700Y-55145300D02*
X77248700Y-55732000D01*
X73500000Y-55732000D02*
X77248700Y-55732000D01*
X107351700Y-43750000D02*
X115700000Y-52098300D01*
X115700000Y-52098300D02*
X115700000Y-60450000D01*
X106500000Y-43750000D02*
X107351700Y-43750000D01*
X102500000Y-43750000D02*
X103351700Y-43750000D01*
X106500000Y-43750000D02*
X105648300Y-43750000D01*
X105648300Y-43750000D02*
X105648300Y-43004800D01*
X105648300Y-43004800D02*
X105266800Y-42623300D01*
X105266800Y-42623300D02*
X103733200Y-42623300D01*
X103733200Y-42623300D02*
X103351700Y-43004800D01*
X103351700Y-43004800D02*
X103351700Y-43750000D01*
X77240000Y-72630000D02*
X69090000Y-72630000D01*
X69090000Y-72630000D02*
X66808000Y-70348000D01*
X85332000Y-42351700D02*
X85332000Y-45480000D01*
X76692000Y-42351700D02*
X85332000Y-42351700D01*
X76692000Y-42351700D02*
X76692000Y-45480000D01*
X76692000Y-41300000D02*
X76692000Y-42351700D01*
X61325000Y-63790000D02*
X61325000Y-62440000D01*
X62675000Y-62440000D02*
X61325000Y-62440000D01*
X62675000Y-63790000D02*
X62675000Y-62440000D01*
X73500000Y-61508000D02*
X73500000Y-55732000D01*
X73500000Y-61508000D02*
X72875000Y-61508000D01*
X74125000Y-61508000D02*
X73500000Y-61508000D01*
X74125000Y-61508000D02*
X74125000Y-62758000D01*
X74125000Y-62758000D02*
X72875000Y-62758000D01*
X62675000Y-57175000D02*
X62675000Y-62440000D01*
X82000000Y-51525000D02*
X79900000Y-51525000D01*
X79900000Y-51525000D02*
X79499000Y-51926000D01*
X79499000Y-51926000D02*
X79499000Y-52895000D01*
%TO.N,IN*%
X57010000Y-65595000D02*
X55021500Y-63606500D01*
X55021500Y-63606500D02*
X52395900Y-63606500D01*
X52395900Y-63606500D02*
X50790300Y-62000900D01*
X50790300Y-62000900D02*
X50790300Y-60568600D01*
X50790300Y-60568600D02*
X50994900Y-60364000D01*
X50994900Y-60364000D02*
X52858900Y-60364000D01*
X52858900Y-60364000D02*
X58741700Y-54481200D01*
%TO.N,LBI*%
X62053600Y-55565100D02*
X62053600Y-59244500D01*
X62053600Y-59244500D02*
X59156500Y-62141600D01*
%TO.N,PROG1*%
X77050000Y-62133000D02*
X76393300Y-62789700D01*
X76393300Y-62789700D02*
X76393300Y-67493000D01*
%TO.N,SCL*%
X93300900Y-63578500D02*
X94832800Y-62046600D01*
X94832800Y-62046600D02*
X94832800Y-55450700D01*
X94832800Y-55450700D02*
X94453000Y-55070900D01*
X94453000Y-55070900D02*
X92485300Y-55070900D01*
X92485300Y-55070900D02*
X89156200Y-58400000D01*
X82320000Y-72630000D02*
X83715100Y-71234900D01*
X83715100Y-71234900D02*
X85644500Y-71234900D01*
X85644500Y-71234900D02*
X93300900Y-63578500D01*
X51930000Y-65595000D02*
X60066700Y-73731700D01*
X60066700Y-73731700D02*
X78194300Y-73731700D01*
X78194300Y-73731700D02*
X78386100Y-73539900D01*
X78386100Y-73539900D02*
X78386100Y-72453100D01*
X78386100Y-72453100D02*
X79359600Y-71479600D01*
X79359600Y-71479600D02*
X81169600Y-71479600D01*
X81169600Y-71479600D02*
X82320000Y-72630000D01*
%TO.N,SDA*%
X84860000Y-72630000D02*
X87857500Y-72630000D01*
X87857500Y-72630000D02*
X94679800Y-65807700D01*
X84657500Y-59694900D02*
X89633200Y-54719200D01*
X89633200Y-54719200D02*
X94598600Y-54719200D01*
X94598600Y-54719200D02*
X95184500Y-55305100D01*
X95184500Y-55305100D02*
X95184500Y-65303000D01*
X95184500Y-65303000D02*
X94679800Y-65807700D01*
X82682900Y-61669600D02*
X78510100Y-57496800D01*
X78510100Y-57496800D02*
X78510100Y-55253300D01*
X49390000Y-65595000D02*
X50541300Y-64443700D01*
X50541300Y-64443700D02*
X52344100Y-64443700D01*
X52344100Y-64443700D02*
X53200000Y-65299600D01*
X53200000Y-65299600D02*
X53200000Y-65893400D01*
X53200000Y-65893400D02*
X54067000Y-66760400D01*
X54067000Y-66760400D02*
X74755500Y-66760400D01*
X74755500Y-66760400D02*
X76046900Y-68051800D01*
X76046900Y-68051800D02*
X76637800Y-68051800D01*
X76637800Y-68051800D02*
X82682900Y-62006700D01*
X82682900Y-62006700D02*
X82682900Y-61669600D01*
X82682900Y-61669600D02*
X84657500Y-59694900D01*
%TO.N,SPKM*%
D20*
X116300000Y-67850000D02*
X116300000Y-69176700D01*
X56685500Y-58750600D02*
X64673200Y-50762900D01*
X64673200Y-50762900D02*
X105027400Y-50762900D01*
X105027400Y-50762900D02*
X112732000Y-58467500D01*
X112732000Y-58467500D02*
X112732000Y-68433100D01*
X112732000Y-68433100D02*
X113475600Y-69176700D01*
X113475600Y-69176700D02*
X116300000Y-69176700D01*
%TO.N,SPKO*%
X94280300Y-45590000D02*
X90638800Y-49231500D01*
X90638800Y-49231500D02*
X65141500Y-49231500D01*
X65141500Y-49231500D02*
X53276700Y-61096300D01*
X53276700Y-61096300D02*
X53276700Y-61300000D01*
X51950000Y-61300000D02*
X53276700Y-61300000D01*
%TO.N,SPKP*%
X114300000Y-67850000D02*
X114300000Y-58972400D01*
X114300000Y-58972400D02*
X103457600Y-48130000D01*
X103457600Y-48130000D02*
X97465600Y-48130000D01*
%TO.N,V33*%
D19*
X79780000Y-72630000D02*
X80934300Y-73784300D01*
X80934300Y-73784300D02*
X87527600Y-73784300D01*
X87527600Y-73784300D02*
X99720100Y-61591800D01*
%TO.N,V5*%
D21*
X55100000Y-54853600D02*
X52511400Y-54853600D01*
X52511400Y-54853600D02*
X41770000Y-65595000D01*
X55100000Y-54853600D02*
X62080000Y-47873600D01*
X62080000Y-47873600D02*
X62080000Y-44348300D01*
X94180300Y-55750000D02*
X93644900Y-55750000D01*
X93644900Y-55750000D02*
X79742900Y-69652000D01*
X79742900Y-69652000D02*
X67396600Y-69652000D01*
X67396600Y-69652000D02*
X65612500Y-67867900D01*
%TO.N,VBUS*%
D19*
X72225000Y-58632000D02*
X72225000Y-60590500D01*
X72225000Y-60590500D02*
X70683000Y-62132500D01*
X78562000Y-48095000D02*
X79073300Y-47583700D01*
X79073300Y-47583700D02*
X83226600Y-47583700D01*
%TO.N,VSYS*%
D22*
X71893600Y-53688500D02*
X71893600Y-55308700D01*
X71893600Y-55308700D02*
X69000000Y-58202300D01*
X69000000Y-58202300D02*
X69000000Y-61095100D01*
%TO.N,V33*%
D19*
X79780000Y-72630000D02*
X79780000Y-72743300D01*
X79780000Y-72743300D02*
X78385900Y-74137400D01*
X78385900Y-74137400D02*
X55392400Y-74137400D01*
X55392400Y-74137400D02*
X46850000Y-65595000D01*
%TD*%
M02*
