M48
; DRILL file KiCad 10.0.6 date 2026-09-17T02:37:16
; FORMAT={-:-/ absolute / metric / decimal}
; #@! TF.CreationDate,2026-09-17T02:37:16+09:00
; #@! TF.GenerationSoftware,Kicad,Pcbnew,10.0.6
; #@! TF.FileFunction,Plated,1,4,PTH
FMAT,2
METRIC
; #@! TA.AperFunction,Plated,PTH,ViaDrill
T1C0.300
; #@! TA.AperFunction,Plated,PTH,ComponentDrill
T2C0.600
; #@! TA.AperFunction,Plated,PTH,ComponentDrill
T3C0.750
; #@! TA.AperFunction,Plated,PTH,ComponentDrill
T4C1.000
%
G90
G05
T1
X41.0Y-44.4
X41.0Y-47.6
X41.0Y-50.8
X41.0Y-54.0
X41.0Y-57.2
X41.0Y-60.4
X41.0Y-63.6
X41.0Y-70.0
X41.0Y-73.2
X41.0Y-76.4
X44.2Y-41.2
X44.2Y-47.6
X44.2Y-50.8
X44.2Y-54.0
X44.2Y-57.2
X44.2Y-60.4
X44.2Y-70.0
X44.2Y-76.4
X47.4Y-41.2
X47.4Y-44.4
X47.4Y-47.6
X47.4Y-50.8
X47.4Y-54.0
X47.4Y-57.2
X47.4Y-70.0
X47.4Y-73.2
X47.4Y-76.4
X50.6Y-41.2
X50.6Y-44.4
X50.6Y-47.6
X50.6Y-50.8
X50.6Y-54.0
X50.6Y-63.6
X50.6Y-70.0
X50.6Y-73.2
X50.6Y-76.4
X53.2Y-62.165
X53.8Y-41.2
X53.8Y-44.4
X53.8Y-73.2
X53.8Y-76.4
X53.995Y-55.807
X54.606Y-57.865
X57.0Y-41.2
X57.0Y-76.4
X58.57Y-56.054
X58.852Y-71.313
X59.158Y-65.19
X59.162Y-64.303
X59.373Y-62.654
X59.876Y-55.934
X60.2Y-41.2
X60.2Y-76.4
X60.636Y-68.1
X60.897Y-47.522
X60.924Y-56.063
X61.325Y-63.54
X61.325Y-64.89
X61.474Y-73.195
X62.675Y-63.54
X62.675Y-64.89
X63.314Y-71.303
X63.4Y-41.2
X63.4Y-76.4
X63.552Y-66.842
X63.809Y-62.288
X63.962Y-65.915
X64.311Y-49.1
X65.85Y-59.466
X66.6Y-41.2
X66.6Y-54.0
X66.6Y-76.4
X66.792Y-61.911
X67.457Y-65.877
X67.708Y-55.59
X68.693Y-57.508
X68.96Y-73.565
X69.426Y-66.219
X69.57Y-45.481
X69.8Y-41.2
X69.8Y-76.4
X70.037Y-64.114
X70.103Y-60.119
X70.336Y-53.213
X70.344Y-57.486
X71.349Y-61.898
X71.349Y-63.148
X71.706Y-53.768
X71.912Y-57.449
X72.251Y-66.067
X72.447Y-45.486
X72.455Y-49.029
X72.599Y-61.898
X72.599Y-63.148
X73.0Y-41.2
X73.0Y-76.4
X73.557Y-47.855
X73.557Y-59.946
X74.661Y-63.985
X74.675Y-71.248
X74.959Y-61.9
X75.13Y-49.232
X76.2Y-41.2
X76.2Y-76.4
X76.295Y-68.644
X76.509Y-52.336
X76.543Y-65.171
X77.791Y-55.812
X78.513Y-60.477
X79.364Y-57.92
X79.4Y-41.2
X79.4Y-44.4
X79.4Y-47.6
X79.4Y-76.4
X80.04Y-59.673
X80.142Y-57.918
X80.519Y-68.572
X80.774Y-50.188
X82.6Y-41.2
X82.6Y-44.4
X82.6Y-47.6
X82.6Y-76.4
X82.673Y-60.062
X82.7Y-53.938
X82.852Y-68.666
X83.451Y-62.95
X83.962Y-61.588
X84.551Y-60.061
X85.296Y-53.53
X85.323Y-63.9
X85.8Y-41.2
X85.8Y-44.4
X85.8Y-47.6
X85.8Y-76.4
X88.91Y-58.9
X89.0Y-41.2
X89.0Y-44.4
X89.0Y-50.8
X89.0Y-66.8
X89.0Y-70.0
X89.0Y-76.4
X92.2Y-41.2
X92.2Y-47.6
X92.2Y-50.8
X92.2Y-66.8
X92.2Y-70.0
X92.2Y-76.4
X95.4Y-41.2
X95.4Y-47.6
X95.4Y-54.0
X95.4Y-66.8
X95.4Y-70.0
X95.4Y-76.4
X96.752Y-48.898
X97.65Y-56.652
X98.6Y-41.2
X98.6Y-47.6
X98.6Y-54.0
X98.6Y-66.8
X98.6Y-70.0
X98.6Y-76.4
X101.8Y-41.2
X101.8Y-47.6
X101.8Y-54.0
X101.8Y-66.8
X101.8Y-73.2
X101.8Y-76.4
X105.0Y-41.2
X105.0Y-47.6
X105.0Y-54.0
X105.0Y-70.0
X105.0Y-73.2
X105.0Y-76.4
X105.486Y-59.818
X106.727Y-62.965
X108.2Y-41.2
X108.2Y-47.6
X108.2Y-54.0
X108.2Y-66.8
X108.2Y-70.0
X108.2Y-73.2
X108.2Y-76.4
X111.4Y-41.2
X111.4Y-44.4
X111.4Y-50.8
X111.4Y-54.0
X111.4Y-57.2
X111.4Y-70.0
X111.4Y-73.2
X111.4Y-76.4
X114.6Y-41.2
X114.6Y-44.4
X114.6Y-47.6
X114.6Y-54.0
X114.6Y-57.2
X114.6Y-70.0
X114.6Y-73.2
X114.6Y-76.4
X117.8Y-41.2
X117.8Y-44.4
X117.8Y-47.6
X117.8Y-50.8
X117.8Y-54.0
X117.8Y-57.2
X117.8Y-60.4
X117.8Y-63.6
X117.8Y-66.8
X117.8Y-70.0
X117.8Y-76.4
X121.0Y-41.2
X121.0Y-44.4
X121.0Y-47.6
X121.0Y-50.8
X121.0Y-54.0
X121.0Y-57.2
X121.0Y-60.4
X121.0Y-63.6
X121.0Y-66.8
X121.0Y-70.0
X121.0Y-76.4
T3
X51.95Y-59.3
X51.95Y-61.3
X56.5Y-46.85
X58.5Y-46.85
X100.5Y-43.75
X102.5Y-43.75
X104.5Y-43.75
X106.5Y-43.75
X114.3Y-67.85
X115.7Y-60.45
X115.7Y-62.45
X116.3Y-67.85
T4
X41.77Y-65.595
X44.31Y-65.595
X46.85Y-65.595
X49.39Y-65.595
X51.93Y-65.595
X54.47Y-65.595
X57.01Y-65.595
X77.24Y-72.63
X79.78Y-72.63
X82.32Y-72.63
X84.86Y-72.63
T2
X67.0Y-46.3G85X67.0Y-45.2
G05
X75.64Y-46.3G85X75.64Y-45.2
G05
M30
