%TF.GenerationSoftware,KiCad,Pcbnew,10.0.6*%
%TF.CreationDate,2026-09-16T22:19:06+09:00*%
%TF.ProjectId,katanori61,6b617461-6e6f-4726-9936-312e6b696361,rev?*%
%TF.SameCoordinates,Original*%
%TF.FileFunction,Copper,L2,Bot*%
%TF.FilePolarity,Positive*%
%FSLAX46Y46*%
G04 Gerber Fmt 4.6, Leading zero omitted, Abs format (unit mm)*
G04 Created by KiCad (PCBNEW 10.0.6) date 2026-09-16 22:19:06*
%MOMM*%
%LPD*%
G01*
G04 APERTURE LIST*
G04 Aperture macros list*
%AMRoundRect*
0 Rectangle with rounded corners*
0 $1 Rounding radius*
0 $2 $3 $4 $5 $6 $7 $8 $9 X,Y pos of 4 corners*
0 Add a 4 corners polygon primitive as box body*
4,1,4,$2,$3,$4,$5,$6,$7,$8,$9,$2,$3,0*
0 Add four circle primitives for the rounded corners*
1,1,$1+$1,$2,$3*
1,1,$1+$1,$4,$5*
1,1,$1+$1,$6,$7*
1,1,$1+$1,$8,$9*
0 Add four rect primitives between the rounded corners*
20,1,$1+$1,$2,$3,$4,$5,0*
20,1,$1+$1,$4,$5,$6,$7,0*
20,1,$1+$1,$6,$7,$8,$9,0*
20,1,$1+$1,$8,$9,$2,$3,0*%
G04 Aperture macros list end*
%TA.AperFunction,ComponentPad*%
%ADD10RoundRect,0.250000X-0.350000X-0.625000X0.350000X-0.625000X0.350000X0.625000X-0.350000X0.625000X0*%
%TD*%
%TA.AperFunction,ComponentPad*%
%ADD11O,1.200000X1.750000*%
%TD*%
%TA.AperFunction,ComponentPad*%
%ADD12RoundRect,0.250000X-0.625000X0.350000X-0.625000X-0.350000X0.625000X-0.350000X0.625000X0.350000X0*%
%TD*%
%TA.AperFunction,ComponentPad*%
%ADD13O,1.750000X1.200000*%
%TD*%
%TA.AperFunction,ComponentPad*%
%ADD14R,1.700000X1.700000*%
%TD*%
%TA.AperFunction,ComponentPad*%
%ADD15C,1.700000*%
%TD*%
%TA.AperFunction,ComponentPad*%
%ADD16O,2.100000X1.000000*%
%TD*%
%TA.AperFunction,ViaPad*%
%ADD17C,0.800000*%
%TD*%
%TA.AperFunction,ViaPad*%
%ADD18C,0.600000*%
%TD*%
%TA.AperFunction,Conductor*%
%ADD19C,0.200000*%
%TD*%
G04 APERTURE END LIST*
D10*
%TO.P,J4,1*%
%TO.N,SPKP*%
X114300000Y-67850000D03*
D11*
%TO.P,J4,2*%
%TO.N,SPKM*%
X116300000Y-67850000D03*
%TD*%
D12*
%TO.P,J5,1*%
%TO.N,SPKM*%
X51950000Y-59300000D03*
D13*
%TO.P,J5,2*%
%TO.N,SPKO*%
X51950000Y-61300000D03*
%TD*%
D10*
%TO.P,J6,1*%
%TO.N,GND*%
X56500000Y-46850000D03*
D11*
%TO.P,J6,2*%
%TO.N,BTN*%
X58500000Y-46850000D03*
%TD*%
D10*
%TO.P,J7,1*%
%TO.N,EN*%
X100500000Y-43750000D03*
D11*
%TO.P,J7,2*%
%TO.N,GND*%
X102500000Y-43750000D03*
%TO.P,J7,3*%
%TO.N,EN*%
X104500000Y-43750000D03*
%TO.P,J7,4*%
%TO.N,GND*%
X106500000Y-43750000D03*
%TD*%
D12*
%TO.P,J10,1*%
%TO.N,GND*%
X115700000Y-60450000D03*
D13*
%TO.P,J10,2*%
%TO.N,BATRAW*%
X115700000Y-62450000D03*
%TD*%
D14*
%TO.P,J1,1*%
%TO.N,V5*%
X41770000Y-65595000D03*
D15*
%TO.P,J1,2*%
%TO.N,GND*%
X44310000Y-65595000D03*
%TO.P,J1,3*%
%TO.N,V33*%
X46850000Y-65595000D03*
%TO.P,J1,4*%
%TO.N,SDA*%
X49390000Y-65595000D03*
%TO.P,J1,5*%
%TO.N,SCL*%
X51930000Y-65595000D03*
%TO.P,J1,6*%
%TO.N,BTN*%
X54470000Y-65595000D03*
%TO.P,J1,7*%
%TO.N,IN*%
X57010000Y-65595000D03*
%TD*%
D14*
%TO.P,J2,1*%
%TO.N,GND*%
X77240000Y-72630000D03*
D15*
%TO.P,J2,2*%
%TO.N,V33*%
X79780000Y-72630000D03*
%TO.P,J2,3*%
%TO.N,SCL*%
X82320000Y-72630000D03*
%TO.P,J2,4*%
%TO.N,SDA*%
X84860000Y-72630000D03*
%TD*%
D16*
%TO.P,J13,SH*%
%TO.N,GND*%
X116774000Y-55720000D03*
X116774000Y-47080000D03*
%TD*%
D17*
%TO.N,BATP*%
X74511800Y-48212100D03*
X65064800Y-69735900D03*
%TO.N,CC1*%
X94289100Y-65310000D03*
X117422900Y-52749800D03*
%TO.N,CC2*%
X98408900Y-61091600D03*
X114149200Y-49901700D03*
%TO.N,COL*%
X56504800Y-63004200D03*
X96619800Y-48898300D03*
%TO.N,EN*%
X94250400Y-59650000D03*
%TO.N,FB*%
X90862000Y-60902500D03*
X87348900Y-54643000D03*
X87077900Y-46151800D03*
%TO.N,GND*%
X70913800Y-44574700D03*
X67954800Y-47433700D03*
X71412500Y-66626200D03*
X62393100Y-48364800D03*
X96966400Y-53182500D03*
X67823000Y-60207700D03*
%TO.N,IN*%
X58845500Y-54481200D03*
%TO.N,LBI*%
X80961500Y-57271900D03*
X87772900Y-50834400D03*
%TO.N,LBO*%
X83617800Y-60390400D03*
X87780300Y-47401300D03*
%TO.N,N_LED4*%
X69753900Y-57275000D03*
X69904100Y-63257300D03*
%TO.N,PROG1*%
X71468800Y-51605900D03*
X68167500Y-63242800D03*
%TO.N,PROG3*%
X70824900Y-52314100D03*
X70417500Y-58692300D03*
%TO.N,SCL*%
X70220300Y-50016100D03*
X93745200Y-71860000D03*
X106620700Y-62748700D03*
%TO.N,SDA*%
X73176800Y-49700000D03*
X80723900Y-50297200D03*
X106642400Y-64235000D03*
%TO.N,SPKP*%
X105578900Y-59910600D03*
%TO.N,STAT2*%
X61261400Y-55486800D03*
X80950600Y-56275700D03*
%TO.N,THERM*%
X73760700Y-59694000D03*
X65938100Y-53497600D03*
%TO.N,V33*%
X74036400Y-51061000D03*
X89732600Y-72519200D03*
X99510300Y-63292700D03*
%TO.N,V5*%
X84485100Y-44498600D03*
X52946900Y-55074700D03*
X63365000Y-45540000D03*
X90274800Y-56791200D03*
X83063100Y-48242300D03*
%TO.N,VBUS*%
X72199000Y-55372100D03*
X64966400Y-52286500D03*
X72053400Y-63021000D03*
X62255700Y-60617200D03*
%TO.N,VLIPO*%
X76056500Y-46887800D03*
X69865600Y-48360900D03*
X69972600Y-53733900D03*
X72958200Y-72519800D03*
%TO.N,VPCC*%
X62224300Y-64127200D03*
X59718600Y-58792200D03*
%TO.N,VSYS*%
X81381100Y-51780600D03*
X66875600Y-48769600D03*
X80291200Y-61230100D03*
X90299100Y-57851200D03*
X79966500Y-55622200D03*
X87287500Y-52055300D03*
X75481500Y-44914300D03*
D18*
%TO.N,GND*%
X41000000Y-76400000D03*
X41000000Y-73200000D03*
X41000000Y-70000000D03*
X41000000Y-63600000D03*
X41000000Y-60400000D03*
X41000000Y-57200000D03*
X41000000Y-54000000D03*
X41000000Y-50800000D03*
X41000000Y-47600000D03*
X41000000Y-44400000D03*
X44200000Y-76400000D03*
X44200000Y-70000000D03*
X44200000Y-60400000D03*
X44200000Y-57200000D03*
X44200000Y-54000000D03*
X44200000Y-50800000D03*
X44200000Y-47600000D03*
X44200000Y-41200000D03*
X47400000Y-76400000D03*
X47400000Y-73200000D03*
X47400000Y-70000000D03*
X47400000Y-57200000D03*
X47400000Y-54000000D03*
X47400000Y-50800000D03*
X47400000Y-47600000D03*
X47400000Y-44400000D03*
X47400000Y-41200000D03*
X50600000Y-76400000D03*
X50600000Y-73200000D03*
X50600000Y-63600000D03*
X50600000Y-54000000D03*
X50600000Y-50800000D03*
X50600000Y-47600000D03*
X50600000Y-44400000D03*
X50600000Y-41200000D03*
X53800000Y-76400000D03*
X53800000Y-44400000D03*
X53800000Y-41200000D03*
X57000000Y-76400000D03*
X57000000Y-41200000D03*
X60200000Y-76400000D03*
X60200000Y-70000000D03*
X60200000Y-66800000D03*
X60200000Y-47600000D03*
X60200000Y-41200000D03*
X63400000Y-76400000D03*
X63400000Y-70000000D03*
X63400000Y-66800000D03*
X63400000Y-57200000D03*
X63400000Y-41200000D03*
X66600000Y-76400000D03*
X66600000Y-41200000D03*
X69800000Y-76400000D03*
X69800000Y-41200000D03*
X73000000Y-76400000D03*
X73000000Y-70000000D03*
X73000000Y-41200000D03*
X76200000Y-76400000D03*
X76200000Y-70000000D03*
X76200000Y-63600000D03*
X76200000Y-41200000D03*
X79400000Y-76400000D03*
X79400000Y-41200000D03*
X82600000Y-76400000D03*
X82600000Y-66800000D03*
X82600000Y-41200000D03*
X85800000Y-76400000D03*
X85800000Y-70000000D03*
X85800000Y-66800000D03*
X85800000Y-41200000D03*
X89000000Y-76400000D03*
X89000000Y-70000000D03*
X89000000Y-66800000D03*
X89000000Y-41200000D03*
X92200000Y-76400000D03*
X92200000Y-47600000D03*
X92200000Y-41200000D03*
X95400000Y-76400000D03*
X95400000Y-70000000D03*
X95400000Y-41200000D03*
X98600000Y-76400000D03*
X98600000Y-66800000D03*
X98600000Y-47600000D03*
X98600000Y-41200000D03*
X101800000Y-76400000D03*
X101800000Y-73200000D03*
X101800000Y-54000000D03*
X101800000Y-41200000D03*
X105000000Y-76400000D03*
X105000000Y-73200000D03*
X105000000Y-70000000D03*
X105000000Y-47600000D03*
X105000000Y-41200000D03*
X108200000Y-76400000D03*
X108200000Y-73200000D03*
X108200000Y-70000000D03*
X108200000Y-66800000D03*
X108200000Y-54000000D03*
X108200000Y-47600000D03*
X108200000Y-41200000D03*
X111400000Y-76400000D03*
X111400000Y-70000000D03*
X111400000Y-63600000D03*
X111400000Y-57200000D03*
X111400000Y-54000000D03*
X111400000Y-44400000D03*
X111400000Y-41200000D03*
X114600000Y-76400000D03*
X114600000Y-73200000D03*
X114600000Y-57200000D03*
X114600000Y-44400000D03*
X114600000Y-41200000D03*
X117800000Y-76400000D03*
X117800000Y-70000000D03*
X117800000Y-66800000D03*
X117800000Y-63600000D03*
X117800000Y-50800000D03*
X117800000Y-44400000D03*
X117800000Y-41200000D03*
X121000000Y-76400000D03*
X121000000Y-70000000D03*
X121000000Y-66800000D03*
X121000000Y-63600000D03*
X121000000Y-60400000D03*
X121000000Y-57200000D03*
X121000000Y-54000000D03*
X121000000Y-50800000D03*
X121000000Y-47600000D03*
X121000000Y-44400000D03*
X121000000Y-41200000D03*
%TD*%
%TO.N,BATP*%
D19*
X65064800Y-69735900D02*
X65064800Y-64765600D01*
X65064800Y-64765600D02*
X61551600Y-61252400D01*
X61551600Y-61252400D02*
X61551600Y-56118200D01*
X61551600Y-56118200D02*
X62992300Y-54677500D01*
X62992300Y-54677500D02*
X62992300Y-53305300D01*
X62992300Y-53305300D02*
X66778600Y-49519000D01*
X66778600Y-49519000D02*
X67785700Y-49519000D01*
X67785700Y-49519000D02*
X71112700Y-46192000D01*
X71112700Y-46192000D02*
X76340000Y-46192000D01*
X76340000Y-46192000D02*
X76738300Y-46590300D01*
X76738300Y-46590300D02*
X76738300Y-47159700D01*
X76738300Y-47159700D02*
X75685900Y-48212100D01*
X75685900Y-48212100D02*
X74511800Y-48212100D01*
%TO.N,BTN*%
X54470000Y-65595000D02*
X54470000Y-51085900D01*
X54470000Y-51085900D02*
X57648300Y-47907600D01*
X57648300Y-47907600D02*
X57648300Y-46850000D01*
X58500000Y-46850000D02*
X57648300Y-46850000D01*
%TO.N,CC1*%
X117422900Y-52749800D02*
X118186000Y-53512900D01*
X118186000Y-53512900D02*
X118186000Y-59816600D01*
X118186000Y-59816600D02*
X116651400Y-61351200D01*
X116651400Y-61351200D02*
X109148000Y-61351200D01*
X109148000Y-61351200D02*
X107045400Y-59248600D01*
X107045400Y-59248600D02*
X102056100Y-59248600D01*
X102056100Y-59248600D02*
X95994700Y-65310000D01*
X95994700Y-65310000D02*
X94289100Y-65310000D01*
%TO.N,CC2*%
X114149200Y-49901700D02*
X109598800Y-49901700D01*
X109598800Y-49901700D02*
X98408900Y-61091600D01*
%TO.N,COL*%
X96619800Y-48898300D02*
X91540900Y-43819400D01*
X91540900Y-43819400D02*
X68535600Y-43819400D01*
X68535600Y-43819400D02*
X56504800Y-55850200D01*
X56504800Y-55850200D02*
X56504800Y-63004200D01*
%TO.N,EN*%
X100500000Y-43750000D02*
X100500000Y-48294300D01*
X100500000Y-48294300D02*
X94250400Y-54543900D01*
X94250400Y-54543900D02*
X94250400Y-59650000D01*
X100500000Y-43750000D02*
X101351700Y-43750000D01*
X104500000Y-43750000D02*
X103373300Y-44876700D01*
X103373300Y-44876700D02*
X101733200Y-44876700D01*
X101733200Y-44876700D02*
X101351700Y-44495200D01*
X101351700Y-44495200D02*
X101351700Y-43750000D01*
%TO.N,FB*%
X87348900Y-54643000D02*
X88369400Y-55663500D01*
X88369400Y-55663500D02*
X88369400Y-58409900D01*
X88369400Y-58409900D02*
X90862000Y-60902500D01*
X87348900Y-54643000D02*
X88479900Y-53512000D01*
X88479900Y-53512000D02*
X88479900Y-47135400D01*
X88479900Y-47135400D02*
X87496300Y-46151800D01*
X87496300Y-46151800D02*
X87077900Y-46151800D01*
%TO.N,GND*%
X67954800Y-47433700D02*
X70813800Y-44574700D01*
X70813800Y-44574700D02*
X70913800Y-44574700D01*
X106074200Y-43750000D02*
X106074200Y-44074700D01*
X106074200Y-44074700D02*
X96966400Y-53182500D01*
X44310000Y-65595000D02*
X44310000Y-64675900D01*
X44310000Y-64675900D02*
X53982400Y-55003500D01*
X53982400Y-55003500D02*
X53982400Y-48515900D01*
X53982400Y-48515900D02*
X55648300Y-46850000D01*
X56500000Y-46850000D02*
X57626700Y-45723300D01*
X57626700Y-45723300D02*
X59751600Y-45723300D01*
X59751600Y-45723300D02*
X62393100Y-48364800D01*
X56500000Y-46850000D02*
X55648300Y-46850000D01*
X67823000Y-60207700D02*
X67823000Y-60209700D01*
X67823000Y-60209700D02*
X71412400Y-63799100D01*
X71412400Y-63799100D02*
X71412400Y-66626200D01*
X71412400Y-66626200D02*
X71412500Y-66626200D01*
X106074200Y-43750000D02*
X105648300Y-43750000D01*
X106500000Y-43750000D02*
X106074200Y-43750000D01*
X102500000Y-43750000D02*
X103351700Y-43750000D01*
X105648300Y-43750000D02*
X105648300Y-43004800D01*
X105648300Y-43004800D02*
X105266800Y-42623300D01*
X105266800Y-42623300D02*
X103733200Y-42623300D01*
X103733200Y-42623300D02*
X103351700Y-43004800D01*
X103351700Y-43004800D02*
X103351700Y-43750000D01*
X115472300Y-47080000D02*
X110681700Y-47080000D01*
X110681700Y-47080000D02*
X107351700Y-43750000D01*
X106500000Y-43750000D02*
X107351700Y-43750000D01*
X115472300Y-47080000D02*
X115472300Y-55720000D01*
X77240000Y-72630000D02*
X77240000Y-71528300D01*
X77240000Y-71528300D02*
X76314600Y-71528300D01*
X76314600Y-71528300D02*
X71412500Y-66626200D01*
X115700000Y-60450000D02*
X115700000Y-59598300D01*
X116123200Y-55720000D02*
X116123200Y-59175100D01*
X116123200Y-59175100D02*
X115700000Y-59598300D01*
X116123200Y-55720000D02*
X115472300Y-55720000D01*
X116774000Y-55720000D02*
X116123200Y-55720000D01*
X116774000Y-47080000D02*
X115472300Y-47080000D01*
%TO.N,IN*%
X58845500Y-54481200D02*
X58845500Y-63759500D01*
X58845500Y-63759500D02*
X57010000Y-65595000D01*
%TO.N,LBI*%
X87772900Y-50834400D02*
X87556300Y-50834400D01*
X87556300Y-50834400D02*
X84314000Y-54076700D01*
X84314000Y-54076700D02*
X84314000Y-60662200D01*
X84314000Y-60662200D02*
X83919100Y-61057100D01*
X83919100Y-61057100D02*
X83354100Y-61057100D01*
X83354100Y-61057100D02*
X80961500Y-58664500D01*
X80961500Y-58664500D02*
X80961500Y-57271900D01*
%TO.N,LBO*%
X87780300Y-47401300D02*
X83617800Y-51563800D01*
X83617800Y-51563800D02*
X83617800Y-60390400D01*
%TO.N,N_LED4*%
X69753900Y-57275000D02*
X67132900Y-59896000D01*
X67132900Y-59896000D02*
X67132900Y-60486100D01*
X67132900Y-60486100D02*
X69904100Y-63257300D01*
%TO.N,PROG1*%
X71468800Y-51605900D02*
X70551400Y-51605900D01*
X70551400Y-51605900D02*
X66429500Y-55727800D01*
X66429500Y-55727800D02*
X66429500Y-61504800D01*
X66429500Y-61504800D02*
X68167500Y-63242800D01*
%TO.N,PROG3*%
X70824900Y-52314100D02*
X70824900Y-58284900D01*
X70824900Y-58284900D02*
X70417500Y-58692300D01*
%TO.N,SCL*%
X82320000Y-72630000D02*
X81195200Y-73754800D01*
X81195200Y-73754800D02*
X79332300Y-73754800D01*
X79332300Y-73754800D02*
X78459600Y-72882100D01*
X78459600Y-72882100D02*
X78459600Y-70348900D01*
X78459600Y-70348900D02*
X71375900Y-63265200D01*
X71375900Y-63265200D02*
X71375900Y-54790900D01*
X71375900Y-54790900D02*
X72162600Y-54004200D01*
X72162600Y-54004200D02*
X72162600Y-51333500D01*
X72162600Y-51333500D02*
X70845200Y-50016100D01*
X70845200Y-50016100D02*
X70220300Y-50016100D01*
X106620700Y-62748700D02*
X97509400Y-71860000D01*
X97509400Y-71860000D02*
X93745200Y-71860000D01*
%TO.N,SDA*%
X79314700Y-51706400D02*
X80723900Y-50297200D01*
X84860000Y-72630000D02*
X79314700Y-67084700D01*
X79314700Y-67084700D02*
X79314700Y-51706400D01*
X79314700Y-51706400D02*
X77308300Y-49700000D01*
X77308300Y-49700000D02*
X73176800Y-49700000D01*
X49390000Y-65595000D02*
X57914100Y-74119100D01*
X57914100Y-74119100D02*
X83370900Y-74119100D01*
X83370900Y-74119100D02*
X84860000Y-72630000D01*
X106642400Y-64235000D02*
X97681000Y-73196400D01*
X97681000Y-73196400D02*
X85426400Y-73196400D01*
X85426400Y-73196400D02*
X84860000Y-72630000D01*
%TO.N,SPKM*%
X51950000Y-60151700D02*
X51204800Y-60151700D01*
X51204800Y-60151700D02*
X48268100Y-63088400D01*
X48268100Y-63088400D02*
X48268100Y-66054600D01*
X48268100Y-66054600D02*
X56736400Y-74522900D01*
X56736400Y-74522900D02*
X109520600Y-74522900D01*
X109520600Y-74522900D02*
X115448300Y-68595200D01*
X115448300Y-68595200D02*
X115448300Y-67850000D01*
X116300000Y-67850000D02*
X115448300Y-67850000D01*
X51950000Y-59300000D02*
X51950000Y-60151700D01*
%TO.N,SPKP*%
X113448300Y-67850000D02*
X113448300Y-67780000D01*
X113448300Y-67780000D02*
X105578900Y-59910600D01*
X114300000Y-67850000D02*
X113448300Y-67850000D01*
%TO.N,STAT2*%
X61261400Y-55486800D02*
X61261400Y-53453000D01*
X61261400Y-53453000D02*
X66668600Y-48045800D01*
X66668600Y-48045800D02*
X67407200Y-48045800D01*
X67407200Y-48045800D02*
X67496500Y-48135100D01*
X67496500Y-48135100D02*
X68175000Y-48135100D01*
X68175000Y-48135100D02*
X71083700Y-45226400D01*
X71083700Y-45226400D02*
X73876400Y-45226400D01*
X73876400Y-45226400D02*
X74853800Y-44249000D01*
X74853800Y-44249000D02*
X76138800Y-44249000D01*
X76138800Y-44249000D02*
X82045000Y-50155200D01*
X82045000Y-50155200D02*
X82045000Y-55181300D01*
X82045000Y-55181300D02*
X80950600Y-56275700D01*
%TO.N,THERM*%
X65938100Y-53497600D02*
X65938100Y-52737500D01*
X65938100Y-52737500D02*
X69663000Y-49012600D01*
X69663000Y-49012600D02*
X70923000Y-49012600D01*
X70923000Y-49012600D02*
X74105700Y-52195300D01*
X74105700Y-52195300D02*
X74105700Y-59349000D01*
X74105700Y-59349000D02*
X73760700Y-59694000D01*
%TO.N,V33*%
X74036400Y-51061000D02*
X74036400Y-51569300D01*
X74036400Y-51569300D02*
X78135500Y-55668400D01*
X78135500Y-55668400D02*
X78135500Y-68140400D01*
X78135500Y-68140400D02*
X79780000Y-69784900D01*
X79780000Y-69784900D02*
X79780000Y-72630000D01*
X99510300Y-63292700D02*
X98959100Y-63292700D01*
X98959100Y-63292700D02*
X89732600Y-72519200D01*
%TO.N,V5*%
X85645900Y-45659400D02*
X84485100Y-44498600D01*
X85645900Y-45659400D02*
X85817100Y-45488300D01*
X85817100Y-45488300D02*
X87380900Y-45488300D01*
X87380900Y-45488300D02*
X90274800Y-48382200D01*
X90274800Y-48382200D02*
X90274800Y-56791200D01*
X83063100Y-48242300D02*
X85645900Y-45659400D01*
X63365000Y-45540000D02*
X63169400Y-45344400D01*
X63169400Y-45344400D02*
X56098300Y-45344400D01*
X56098300Y-45344400D02*
X52946900Y-48495800D01*
X52946900Y-48495800D02*
X52946900Y-55074700D01*
X42871700Y-65595000D02*
X42871700Y-65149900D01*
X42871700Y-65149900D02*
X52946900Y-55074700D01*
X41770000Y-65595000D02*
X42871700Y-65595000D01*
%TO.N,VBUS*%
X62255700Y-60617200D02*
X64966400Y-57906500D01*
X64966400Y-57906500D02*
X64966400Y-52286500D01*
X64966400Y-52286500D02*
X64966500Y-52286500D01*
X64966500Y-52286500D02*
X64966500Y-53475900D01*
X64966500Y-53475900D02*
X65680100Y-54189500D01*
X65680100Y-54189500D02*
X66210400Y-54189500D01*
X66210400Y-54189500D02*
X69537400Y-50862500D01*
X69537400Y-50862500D02*
X69537400Y-49720300D01*
X69537400Y-49720300D02*
X69893400Y-49364300D01*
X69893400Y-49364300D02*
X70731100Y-49364300D01*
X70731100Y-49364300D02*
X72527500Y-51160700D01*
X72527500Y-51160700D02*
X72527500Y-55043600D01*
X72527500Y-55043600D02*
X72199000Y-55372100D01*
X72053400Y-63021000D02*
X72199000Y-62875400D01*
X72199000Y-62875400D02*
X72199000Y-55372100D01*
%TO.N,VLIPO*%
X76056500Y-46887800D02*
X71338700Y-46887800D01*
X71338700Y-46887800D02*
X69865600Y-48360900D01*
X69972600Y-53733900D02*
X66781200Y-56925300D01*
X66781200Y-56925300D02*
X66781200Y-60828400D01*
X66781200Y-60828400D02*
X69058600Y-63105800D01*
X69058600Y-63105800D02*
X69058600Y-68620200D01*
X69058600Y-68620200D02*
X72958200Y-72519800D01*
%TO.N,VPCC*%
X62224300Y-64127200D02*
X59718600Y-61621500D01*
X59718600Y-61621500D02*
X59718600Y-58792200D01*
%TO.N,VSYS*%
X66875600Y-48769600D02*
X68037800Y-48769600D01*
X68037800Y-48769600D02*
X71229300Y-45578100D01*
X71229300Y-45578100D02*
X74817700Y-45578100D01*
X74817700Y-45578100D02*
X75481500Y-44914300D01*
X79966500Y-55622200D02*
X79966500Y-53195200D01*
X79966500Y-53195200D02*
X81381100Y-51780600D01*
X80291200Y-61230100D02*
X80291200Y-55946900D01*
X80291200Y-55946900D02*
X79966500Y-55622200D01*
X86435500Y-59898900D02*
X86435500Y-52907300D01*
X86435500Y-52907300D02*
X87287500Y-52055300D01*
X80291200Y-61230100D02*
X80489000Y-61427900D01*
X80489000Y-61427900D02*
X84045600Y-61427900D01*
X84045600Y-61427900D02*
X85574500Y-59899000D01*
X85574500Y-59899000D02*
X85574500Y-59898900D01*
X85574500Y-59898900D02*
X86435500Y-59898900D01*
X75481500Y-44914300D02*
X76299600Y-44914300D01*
X76299600Y-44914300D02*
X81381100Y-49995800D01*
X81381100Y-49995800D02*
X81381100Y-51780600D01*
X86435500Y-59898900D02*
X88110700Y-61574100D01*
X88110700Y-61574100D02*
X91163700Y-61574100D01*
X91163700Y-61574100D02*
X91516100Y-61221700D01*
X91516100Y-61221700D02*
X91516100Y-59068200D01*
X91516100Y-59068200D02*
X90299100Y-57851200D01*
%TD*%
%TA.AperFunction,Conductor*%
%TO.N,GND*%
G36*
X107437658Y-62354300D02*
G01*
X107486181Y-62384274D01*
X113040104Y-67938197D01*
X113072197Y-67993780D01*
X113075093Y-68004587D01*
X113127820Y-68095913D01*
X113202387Y-68170480D01*
X113293713Y-68223207D01*
X113307591Y-68226925D01*
X113367251Y-68263287D01*
X113397782Y-68326133D01*
X113399500Y-68346700D01*
X113399500Y-68518102D01*
X113403516Y-68551547D01*
X113410122Y-68606561D01*
X113465639Y-68747343D01*
X113557077Y-68867922D01*
X113677656Y-68959360D01*
X113677657Y-68959360D01*
X113677658Y-68959361D01*
X113818436Y-69014877D01*
X113906898Y-69025500D01*
X114152246Y-69025500D01*
X114219285Y-69045185D01*
X114265040Y-69097989D01*
X114274984Y-69167147D01*
X114245959Y-69230703D01*
X114239927Y-69237180D01*
X111786357Y-71690750D01*
X109391026Y-74086081D01*
X109329703Y-74119566D01*
X109303345Y-74122400D01*
X84233355Y-74122400D01*
X84166316Y-74102715D01*
X84120561Y-74049911D01*
X84110617Y-73980753D01*
X84139642Y-73917197D01*
X84145665Y-73910726D01*
X84320720Y-73735671D01*
X84382039Y-73702189D01*
X84446716Y-73705424D01*
X84590591Y-73752171D01*
X84673429Y-73765291D01*
X84769449Y-73780500D01*
X84769454Y-73780500D01*
X84950551Y-73780500D01*
X85037259Y-73766765D01*
X85129409Y-73752171D01*
X85301639Y-73696211D01*
X85462994Y-73613996D01*
X85462994Y-73613995D01*
X85467335Y-73611784D01*
X85468058Y-73613203D01*
X85525864Y-73596900D01*
X97733725Y-73596900D01*
X97733727Y-73596900D01*
X97835588Y-73569607D01*
X97926913Y-73516880D01*
X106472661Y-64971130D01*
X106533982Y-64937647D01*
X106567315Y-64935710D01*
X106567315Y-64935500D01*
X106570946Y-64935500D01*
X106572495Y-64935410D01*
X106573405Y-64935499D01*
X106573407Y-64935500D01*
X106573409Y-64935500D01*
X106711395Y-64935500D01*
X106802441Y-64917389D01*
X106846728Y-64908580D01*
X106974211Y-64855775D01*
X107088942Y-64779114D01*
X107186514Y-64681542D01*
X107263175Y-64566811D01*
X107263475Y-64566088D01*
X107293834Y-64492793D01*
X107315980Y-64439328D01*
X107337424Y-64331522D01*
X107342900Y-64303995D01*
X107342900Y-64166004D01*
X107315981Y-64030677D01*
X107315980Y-64030676D01*
X107315980Y-64030672D01*
X107315978Y-64030667D01*
X107263178Y-63903195D01*
X107263171Y-63903182D01*
X107186514Y-63788458D01*
X107186511Y-63788454D01*
X107088945Y-63690888D01*
X107088941Y-63690885D01*
X106974217Y-63614228D01*
X106974212Y-63614226D01*
X106974211Y-63614225D01*
X106955467Y-63606461D01*
X106944495Y-63601916D01*
X106890092Y-63558074D01*
X106868028Y-63491780D01*
X106885308Y-63424080D01*
X106936446Y-63376470D01*
X106944489Y-63372797D01*
X106952511Y-63369475D01*
X107067242Y-63292814D01*
X107164814Y-63195242D01*
X107241475Y-63080511D01*
X107294280Y-62953028D01*
X107316269Y-62842484D01*
X107321200Y-62817695D01*
X107321200Y-62679704D01*
X107294281Y-62544377D01*
X107294280Y-62544376D01*
X107294280Y-62544372D01*
X107283938Y-62519405D01*
X107276470Y-62449940D01*
X107307744Y-62387460D01*
X107367833Y-62351807D01*
X107437658Y-62354300D01*
G37*
%TD.AperFunction*%
%TA.AperFunction,Conductor*%
G36*
X74084184Y-44239585D02*
G01*
X74129939Y-44292389D01*
X74139883Y-44361547D01*
X74110858Y-44425103D01*
X74104826Y-44431581D01*
X73746826Y-44789581D01*
X73685503Y-44823066D01*
X73659145Y-44825900D01*
X71030973Y-44825900D01*
X70929110Y-44853193D01*
X70837787Y-44905920D01*
X70837784Y-44905922D01*
X68045426Y-47698281D01*
X67984103Y-47731766D01*
X67957745Y-47734600D01*
X67702412Y-47734600D01*
X67640412Y-47717987D01*
X67592535Y-47690345D01*
X67561789Y-47672593D01*
X67495401Y-47654805D01*
X67459927Y-47645300D01*
X67459926Y-47645300D01*
X66728939Y-47645300D01*
X66728923Y-47645299D01*
X66721327Y-47645299D01*
X66615873Y-47645299D01*
X66547966Y-47663495D01*
X66514012Y-47672593D01*
X66422684Y-47725322D01*
X60940922Y-53207084D01*
X60940918Y-53207090D01*
X60906336Y-53266987D01*
X60888193Y-53298412D01*
X60888193Y-53298413D01*
X60868857Y-53370578D01*
X60860900Y-53400273D01*
X60860900Y-54846252D01*
X60841215Y-54913291D01*
X60819016Y-54938229D01*
X60819165Y-54938378D01*
X60816604Y-54940938D01*
X60815567Y-54942104D01*
X60814853Y-54942689D01*
X60717288Y-55040254D01*
X60717285Y-55040258D01*
X60640628Y-55154982D01*
X60640621Y-55154995D01*
X60587821Y-55282467D01*
X60587818Y-55282477D01*
X60560900Y-55417804D01*
X60560900Y-55417807D01*
X60560900Y-55555793D01*
X60560900Y-55555795D01*
X60560899Y-55555795D01*
X60587818Y-55691122D01*
X60587821Y-55691132D01*
X60640621Y-55818604D01*
X60640628Y-55818617D01*
X60717285Y-55933341D01*
X60717288Y-55933345D01*
X60814854Y-56030911D01*
X60814858Y-56030914D01*
X60929582Y-56107571D01*
X60929595Y-56107578D01*
X61033586Y-56150652D01*
X61057072Y-56160380D01*
X61057076Y-56160380D01*
X61062904Y-56162149D01*
X61062058Y-56164935D01*
X61112941Y-56191363D01*
X61147693Y-56251978D01*
X61151100Y-56280847D01*
X61151100Y-61199673D01*
X61151100Y-61305127D01*
X61154768Y-61318815D01*
X61178393Y-61406989D01*
X61187875Y-61423411D01*
X61231120Y-61498313D01*
X61231122Y-61498315D01*
X64627981Y-64895174D01*
X64661466Y-64956497D01*
X64664300Y-64982855D01*
X64664300Y-69095352D01*
X64644615Y-69162391D01*
X64622416Y-69187329D01*
X64622565Y-69187478D01*
X64620004Y-69190038D01*
X64618967Y-69191204D01*
X64618253Y-69191789D01*
X64520688Y-69289354D01*
X64520685Y-69289358D01*
X64444028Y-69404082D01*
X64444021Y-69404095D01*
X64391221Y-69531567D01*
X64391218Y-69531577D01*
X64364300Y-69666904D01*
X64364300Y-69666907D01*
X64364300Y-69804893D01*
X64364300Y-69804895D01*
X64364299Y-69804895D01*
X64391218Y-69940222D01*
X64391221Y-69940232D01*
X64444021Y-70067704D01*
X64444028Y-70067717D01*
X64520685Y-70182441D01*
X64520688Y-70182445D01*
X64618254Y-70280011D01*
X64618258Y-70280014D01*
X64732982Y-70356671D01*
X64732995Y-70356678D01*
X64841513Y-70401627D01*
X64860472Y-70409480D01*
X64860476Y-70409480D01*
X64860477Y-70409481D01*
X64995804Y-70436400D01*
X64995807Y-70436400D01*
X65133795Y-70436400D01*
X65258324Y-70411629D01*
X65269128Y-70409480D01*
X65396611Y-70356675D01*
X65511342Y-70280014D01*
X65608914Y-70182442D01*
X65685575Y-70067711D01*
X65738380Y-69940228D01*
X65765300Y-69804893D01*
X65765300Y-69666907D01*
X65765300Y-69666904D01*
X65738381Y-69531577D01*
X65738380Y-69531576D01*
X65738380Y-69531572D01*
X65738378Y-69531567D01*
X65685578Y-69404095D01*
X65685571Y-69404082D01*
X65608914Y-69289358D01*
X65608911Y-69289354D01*
X65511346Y-69191789D01*
X65510633Y-69191204D01*
X65510359Y-69190802D01*
X65507035Y-69187478D01*
X65507665Y-69186847D01*
X65471300Y-69133457D01*
X65465300Y-69095352D01*
X65465300Y-64712875D01*
X65465299Y-64712871D01*
X65458962Y-64689221D01*
X65456905Y-64681542D01*
X65438007Y-64611012D01*
X65385280Y-64519687D01*
X62370792Y-61505199D01*
X62337307Y-61443876D01*
X62342291Y-61374184D01*
X62384163Y-61318251D01*
X62434280Y-61295901D01*
X62460028Y-61290780D01*
X62587511Y-61237975D01*
X62702242Y-61161314D01*
X62799814Y-61063742D01*
X62876475Y-60949011D01*
X62929280Y-60821528D01*
X62941562Y-60759782D01*
X62956200Y-60686195D01*
X62956200Y-60548208D01*
X62956110Y-60547295D01*
X62956200Y-60546820D01*
X62956200Y-60542115D01*
X62957092Y-60542115D01*
X62969129Y-60478648D01*
X62991829Y-60447462D01*
X65202103Y-58237187D01*
X65202108Y-58237184D01*
X65212311Y-58226980D01*
X65212313Y-58226980D01*
X65286880Y-58152413D01*
X65339607Y-58061087D01*
X65341775Y-58052995D01*
X65345530Y-58038985D01*
X65361965Y-57977647D01*
X65366901Y-57959227D01*
X65366901Y-57853773D01*
X65366901Y-57846178D01*
X65366900Y-57846160D01*
X65366900Y-54681806D01*
X65386585Y-54614767D01*
X65439389Y-54569012D01*
X65508547Y-54559068D01*
X65522994Y-54562031D01*
X65525507Y-54562704D01*
X65525512Y-54562707D01*
X65627373Y-54590000D01*
X65627376Y-54590000D01*
X66263125Y-54590000D01*
X66263127Y-54590000D01*
X66364988Y-54562707D01*
X66456313Y-54509980D01*
X69773103Y-51193187D01*
X69773108Y-51193184D01*
X69783311Y-51182980D01*
X69783313Y-51182980D01*
X69857880Y-51108413D01*
X69910607Y-51017087D01*
X69912969Y-51008273D01*
X69937901Y-50915226D01*
X69937901Y-50825245D01*
X69957586Y-50758206D01*
X70010390Y-50712451D01*
X70079548Y-50702507D01*
X70086093Y-50703628D01*
X70151305Y-50716600D01*
X70151307Y-50716600D01*
X70289295Y-50716600D01*
X70389804Y-50696607D01*
X70424628Y-50689680D01*
X70552111Y-50636875D01*
X70644293Y-50575281D01*
X70671907Y-50556830D01*
X70672788Y-50558148D01*
X70729980Y-50533847D01*
X70798850Y-50545627D01*
X70832037Y-50569330D01*
X71096594Y-50833887D01*
X71130079Y-50895210D01*
X71125095Y-50964902D01*
X71083223Y-51020835D01*
X71077805Y-51024669D01*
X71022260Y-51061783D01*
X71022254Y-51061788D01*
X70924689Y-51159353D01*
X70924113Y-51160056D01*
X70923717Y-51160325D01*
X70920378Y-51163665D01*
X70919744Y-51163031D01*
X70866371Y-51199396D01*
X70828253Y-51205400D01*
X70498673Y-51205400D01*
X70396810Y-51232693D01*
X70305487Y-51285420D01*
X70305484Y-51285422D01*
X66109022Y-55481884D01*
X66109018Y-55481890D01*
X66056293Y-55573211D01*
X66056293Y-55573212D01*
X66053992Y-55581800D01*
X66029000Y-55675073D01*
X66029000Y-61452073D01*
X66029000Y-61557527D01*
X66039607Y-61597112D01*
X66056293Y-61659389D01*
X66082656Y-61705050D01*
X66109020Y-61750713D01*
X66109022Y-61750715D01*
X67431367Y-63073060D01*
X67464852Y-63134383D01*
X67466790Y-63167715D01*
X67467000Y-63167715D01*
X67467000Y-63171331D01*
X67467090Y-63172880D01*
X67467000Y-63173794D01*
X67467000Y-63173807D01*
X67467000Y-63311793D01*
X67467000Y-63311795D01*
X67466999Y-63311795D01*
X67493918Y-63447122D01*
X67493921Y-63447132D01*
X67546721Y-63574604D01*
X67546728Y-63574617D01*
X67623385Y-63689341D01*
X67623388Y-63689345D01*
X67720954Y-63786911D01*
X67720958Y-63786914D01*
X67835682Y-63863571D01*
X67835695Y-63863578D01*
X67957641Y-63914089D01*
X67963172Y-63916380D01*
X67963176Y-63916380D01*
X67963177Y-63916381D01*
X68098504Y-63943300D01*
X68098507Y-63943300D01*
X68236495Y-63943300D01*
X68327541Y-63925189D01*
X68371828Y-63916380D01*
X68486648Y-63868819D01*
X68556116Y-63861351D01*
X68618596Y-63892626D01*
X68654248Y-63952715D01*
X68658100Y-63983381D01*
X68658100Y-68567473D01*
X68658100Y-68672927D01*
X68665096Y-68699038D01*
X68685393Y-68774789D01*
X68711756Y-68820450D01*
X68738120Y-68866113D01*
X68738122Y-68866115D01*
X72222067Y-72350060D01*
X72255552Y-72411383D01*
X72257490Y-72444715D01*
X72257700Y-72444715D01*
X72257700Y-72448331D01*
X72257790Y-72449880D01*
X72257700Y-72450794D01*
X72257700Y-72450807D01*
X72257700Y-72588793D01*
X72257700Y-72588795D01*
X72257699Y-72588795D01*
X72284618Y-72724122D01*
X72284621Y-72724132D01*
X72337421Y-72851604D01*
X72337428Y-72851617D01*
X72414085Y-72966341D01*
X72414088Y-72966345D01*
X72511654Y-73063911D01*
X72511658Y-73063914D01*
X72626382Y-73140571D01*
X72626395Y-73140578D01*
X72753867Y-73193378D01*
X72753872Y-73193380D01*
X72753876Y-73193380D01*
X72753877Y-73193381D01*
X72889204Y-73220300D01*
X72889207Y-73220300D01*
X73027195Y-73220300D01*
X73118241Y-73202189D01*
X73162528Y-73193380D01*
X73290011Y-73140575D01*
X73404742Y-73063914D01*
X73502314Y-72966342D01*
X73578975Y-72851611D01*
X73631780Y-72724128D01*
X73648464Y-72640253D01*
X73658700Y-72588795D01*
X73658700Y-72450804D01*
X73631781Y-72315477D01*
X73631780Y-72315476D01*
X73631780Y-72315472D01*
X73631534Y-72314877D01*
X73578978Y-72187995D01*
X73578971Y-72187982D01*
X73502314Y-72073258D01*
X73502311Y-72073254D01*
X73404745Y-71975688D01*
X73404741Y-71975685D01*
X73290017Y-71899028D01*
X73290004Y-71899021D01*
X73162532Y-71846221D01*
X73162522Y-71846218D01*
X73027195Y-71819300D01*
X73027193Y-71819300D01*
X72889207Y-71819300D01*
X72889195Y-71819300D01*
X72888280Y-71819390D01*
X72887806Y-71819300D01*
X72883115Y-71819300D01*
X72883115Y-71818409D01*
X72819635Y-71806363D01*
X72788460Y-71783667D01*
X69495419Y-68490626D01*
X69461934Y-68429303D01*
X69459100Y-68402945D01*
X69459100Y-64016769D01*
X69478785Y-63949730D01*
X69531589Y-63903975D01*
X69600747Y-63894031D01*
X69630548Y-63902206D01*
X69699772Y-63930880D01*
X69699776Y-63930880D01*
X69699777Y-63930881D01*
X69835104Y-63957800D01*
X69835107Y-63957800D01*
X69973095Y-63957800D01*
X70064141Y-63939689D01*
X70108428Y-63930880D01*
X70235911Y-63878075D01*
X70350642Y-63801414D01*
X70448214Y-63703842D01*
X70524875Y-63589111D01*
X70577680Y-63461628D01*
X70596011Y-63369475D01*
X70604600Y-63326295D01*
X70604600Y-63188304D01*
X70577681Y-63052977D01*
X70577680Y-63052976D01*
X70577680Y-63052972D01*
X70565694Y-63024034D01*
X70524878Y-62925495D01*
X70524871Y-62925482D01*
X70448214Y-62810758D01*
X70448211Y-62810754D01*
X70350645Y-62713188D01*
X70350641Y-62713185D01*
X70235917Y-62636528D01*
X70235904Y-62636521D01*
X70108432Y-62583721D01*
X70108422Y-62583718D01*
X69973095Y-62556800D01*
X69973093Y-62556800D01*
X69835107Y-62556800D01*
X69835102Y-62556800D01*
X69834177Y-62556891D01*
X69833698Y-62556800D01*
X69829015Y-62556800D01*
X69829015Y-62555911D01*
X69765533Y-62543862D01*
X69734359Y-62521167D01*
X68657068Y-61443876D01*
X67569719Y-60356526D01*
X67536234Y-60295203D01*
X67533400Y-60268845D01*
X67533400Y-60113253D01*
X67553085Y-60046214D01*
X67569714Y-60025577D01*
X69584160Y-58011130D01*
X69645481Y-57977647D01*
X69678815Y-57975710D01*
X69678815Y-57975500D01*
X69682443Y-57975500D01*
X69683992Y-57975410D01*
X69684906Y-57975500D01*
X69684907Y-57975500D01*
X69822895Y-57975500D01*
X69828958Y-57974903D01*
X69829086Y-57976207D01*
X69891952Y-57981830D01*
X69947132Y-58024689D01*
X69970380Y-58090578D01*
X69954316Y-58158576D01*
X69934240Y-58184903D01*
X69873385Y-58245758D01*
X69796728Y-58360482D01*
X69796721Y-58360495D01*
X69743921Y-58487967D01*
X69743918Y-58487977D01*
X69717000Y-58623304D01*
X69717000Y-58623307D01*
X69717000Y-58761293D01*
X69717000Y-58761295D01*
X69716999Y-58761295D01*
X69743918Y-58896622D01*
X69743921Y-58896632D01*
X69796721Y-59024104D01*
X69796728Y-59024117D01*
X69873385Y-59138841D01*
X69873388Y-59138845D01*
X69970954Y-59236411D01*
X69970958Y-59236414D01*
X70085682Y-59313071D01*
X70085695Y-59313078D01*
X70212757Y-59365708D01*
X70213172Y-59365880D01*
X70213176Y-59365880D01*
X70213177Y-59365881D01*
X70348504Y-59392800D01*
X70348507Y-59392800D01*
X70486495Y-59392800D01*
X70578995Y-59374400D01*
X70621828Y-59365880D01*
X70749311Y-59313075D01*
X70782509Y-59290892D01*
X70849186Y-59270015D01*
X70916566Y-59288499D01*
X70963257Y-59340478D01*
X70975400Y-59393995D01*
X70975400Y-63212473D01*
X70975400Y-63317927D01*
X70984128Y-63350500D01*
X71002693Y-63419789D01*
X71012921Y-63437503D01*
X71055420Y-63511113D01*
X74545272Y-67000965D01*
X78022781Y-70478473D01*
X78056266Y-70539796D01*
X78059100Y-70566154D01*
X78059100Y-72934826D01*
X78086393Y-73036689D01*
X78102110Y-73063911D01*
X78139120Y-73128013D01*
X78139122Y-73128015D01*
X78518026Y-73506919D01*
X78551511Y-73568242D01*
X78546527Y-73637934D01*
X78504655Y-73693867D01*
X78439191Y-73718284D01*
X78430345Y-73718600D01*
X58131355Y-73718600D01*
X58064316Y-73698915D01*
X58043674Y-73682281D01*
X50495674Y-66134281D01*
X50462189Y-66072958D01*
X50465423Y-66008284D01*
X50512171Y-65864409D01*
X50529255Y-65756545D01*
X50537527Y-65704321D01*
X50567456Y-65641186D01*
X50626768Y-65604255D01*
X50696630Y-65605253D01*
X50754863Y-65643863D01*
X50782473Y-65704321D01*
X50807829Y-65864410D01*
X50863787Y-66036636D01*
X50863788Y-66036639D01*
X50946006Y-66197997D01*
X51041361Y-66329244D01*
X51041365Y-66329248D01*
X51052447Y-66344501D01*
X51180499Y-66472553D01*
X51195751Y-66483634D01*
X51195755Y-66483638D01*
X51314926Y-66570219D01*
X51327006Y-66578996D01*
X51403094Y-66617765D01*
X51488360Y-66661211D01*
X51488363Y-66661212D01*
X51561953Y-66685122D01*
X51660591Y-66717171D01*
X51743429Y-66730291D01*
X51839449Y-66745500D01*
X51839454Y-66745500D01*
X52020551Y-66745500D01*
X52107259Y-66731765D01*
X52199409Y-66717171D01*
X52371639Y-66661211D01*
X52532994Y-66578996D01*
X52679501Y-66472553D01*
X52807553Y-66344501D01*
X52913996Y-66197994D01*
X52996211Y-66036639D01*
X53052171Y-65864409D01*
X53069255Y-65756545D01*
X53077527Y-65704321D01*
X53107456Y-65641186D01*
X53166768Y-65604255D01*
X53236630Y-65605253D01*
X53294863Y-65643863D01*
X53322473Y-65704321D01*
X53347829Y-65864410D01*
X53403787Y-66036636D01*
X53403788Y-66036639D01*
X53486006Y-66197997D01*
X53592441Y-66344494D01*
X53592445Y-66344499D01*
X53720500Y-66472554D01*
X53720505Y-66472558D01*
X53848287Y-66565396D01*
X53867006Y-66578996D01*
X53943094Y-66617765D01*
X54028360Y-66661211D01*
X54028363Y-66661212D01*
X54101953Y-66685122D01*
X54200591Y-66717171D01*
X54283429Y-66730291D01*
X54379449Y-66745500D01*
X54379454Y-66745500D01*
X54560551Y-66745500D01*
X54647259Y-66731765D01*
X54739409Y-66717171D01*
X54911639Y-66661211D01*
X55072994Y-66578996D01*
X55219501Y-66472553D01*
X55347553Y-66344501D01*
X55453996Y-66197994D01*
X55536211Y-66036639D01*
X55592171Y-65864409D01*
X55609255Y-65756545D01*
X55617527Y-65704321D01*
X55647456Y-65641186D01*
X55706768Y-65604255D01*
X55776630Y-65605253D01*
X55834863Y-65643863D01*
X55862473Y-65704321D01*
X55887829Y-65864410D01*
X55943787Y-66036636D01*
X55943788Y-66036639D01*
X56026006Y-66197997D01*
X56132441Y-66344494D01*
X56132445Y-66344499D01*
X56260500Y-66472554D01*
X56260505Y-66472558D01*
X56388287Y-66565396D01*
X56407006Y-66578996D01*
X56483094Y-66617765D01*
X56568360Y-66661211D01*
X56568363Y-66661212D01*
X56641953Y-66685122D01*
X56740591Y-66717171D01*
X56823429Y-66730291D01*
X56919449Y-66745500D01*
X56919454Y-66745500D01*
X57100551Y-66745500D01*
X57187259Y-66731765D01*
X57279409Y-66717171D01*
X57451639Y-66661211D01*
X57612994Y-66578996D01*
X57759501Y-66472553D01*
X57887553Y-66344501D01*
X57993996Y-66197994D01*
X58076211Y-66036639D01*
X58132171Y-65864409D01*
X58149255Y-65756545D01*
X58160500Y-65685551D01*
X58160500Y-65504448D01*
X58138754Y-65367154D01*
X58132171Y-65325591D01*
X58085424Y-65181716D01*
X58083429Y-65111875D01*
X58115672Y-65055719D01*
X59165980Y-64005413D01*
X59218707Y-63914088D01*
X59246000Y-63812227D01*
X59246000Y-63706773D01*
X59246000Y-62014655D01*
X59265685Y-61947616D01*
X59318489Y-61901861D01*
X59387647Y-61891917D01*
X59451203Y-61920942D01*
X59457681Y-61926974D01*
X61488167Y-63957460D01*
X61521652Y-64018783D01*
X61523590Y-64052115D01*
X61523800Y-64052115D01*
X61523800Y-64055731D01*
X61523890Y-64057280D01*
X61523800Y-64058194D01*
X61523800Y-64058207D01*
X61523800Y-64196193D01*
X61523800Y-64196195D01*
X61523799Y-64196195D01*
X61550718Y-64331522D01*
X61550721Y-64331532D01*
X61603521Y-64459004D01*
X61603528Y-64459017D01*
X61680185Y-64573741D01*
X61680188Y-64573745D01*
X61777754Y-64671311D01*
X61777758Y-64671314D01*
X61892482Y-64747971D01*
X61892495Y-64747978D01*
X62019967Y-64800778D01*
X62019972Y-64800780D01*
X62019976Y-64800780D01*
X62019977Y-64800781D01*
X62155304Y-64827700D01*
X62155307Y-64827700D01*
X62293295Y-64827700D01*
X62387696Y-64808922D01*
X62428628Y-64800780D01*
X62556111Y-64747975D01*
X62670842Y-64671314D01*
X62768414Y-64573742D01*
X62845075Y-64459011D01*
X62897880Y-64331528D01*
X62920275Y-64218944D01*
X62924800Y-64196195D01*
X62924800Y-64058204D01*
X62897881Y-63922877D01*
X62897880Y-63922876D01*
X62897880Y-63922872D01*
X62873320Y-63863578D01*
X62845078Y-63795395D01*
X62845071Y-63795382D01*
X62768414Y-63680658D01*
X62768411Y-63680654D01*
X62670845Y-63583088D01*
X62670841Y-63583085D01*
X62556117Y-63506428D01*
X62556104Y-63506421D01*
X62428632Y-63453621D01*
X62428622Y-63453618D01*
X62293295Y-63426700D01*
X62293293Y-63426700D01*
X62155307Y-63426700D01*
X62155295Y-63426700D01*
X62154380Y-63426790D01*
X62153906Y-63426700D01*
X62149215Y-63426700D01*
X62149215Y-63425809D01*
X62085735Y-63413763D01*
X62054560Y-63391067D01*
X60155419Y-61491926D01*
X60121934Y-61430603D01*
X60119100Y-61404245D01*
X60119100Y-59432747D01*
X60138785Y-59365708D01*
X60160985Y-59340772D01*
X60160835Y-59340622D01*
X60163421Y-59338035D01*
X60164444Y-59336887D01*
X60165137Y-59336317D01*
X60165142Y-59336314D01*
X60262714Y-59238742D01*
X60339375Y-59124011D01*
X60392180Y-58996528D01*
X60412051Y-58896632D01*
X60419100Y-58861195D01*
X60419100Y-58723204D01*
X60392181Y-58587877D01*
X60392180Y-58587876D01*
X60392180Y-58587872D01*
X60382552Y-58564627D01*
X60339378Y-58460395D01*
X60339371Y-58460382D01*
X60262714Y-58345658D01*
X60262711Y-58345654D01*
X60165145Y-58248088D01*
X60165141Y-58248085D01*
X60050417Y-58171428D01*
X60050404Y-58171421D01*
X59922932Y-58118621D01*
X59922922Y-58118618D01*
X59787595Y-58091700D01*
X59787593Y-58091700D01*
X59649607Y-58091700D01*
X59649605Y-58091700D01*
X59514277Y-58118618D01*
X59514267Y-58118621D01*
X59417452Y-58158723D01*
X59347982Y-58166192D01*
X59285503Y-58134916D01*
X59249852Y-58074827D01*
X59246000Y-58044162D01*
X59246000Y-55121747D01*
X59265685Y-55054708D01*
X59287885Y-55029772D01*
X59287735Y-55029622D01*
X59290321Y-55027035D01*
X59291344Y-55025887D01*
X59292037Y-55025317D01*
X59292042Y-55025314D01*
X59389614Y-54927742D01*
X59466275Y-54813011D01*
X59519080Y-54685528D01*
X59530492Y-54628158D01*
X59546000Y-54550195D01*
X59546000Y-54412204D01*
X59519081Y-54276877D01*
X59519080Y-54276876D01*
X59519080Y-54276872D01*
X59485918Y-54196811D01*
X59466278Y-54149395D01*
X59466271Y-54149382D01*
X59389614Y-54034658D01*
X59389611Y-54034654D01*
X59292045Y-53937088D01*
X59292041Y-53937085D01*
X59233197Y-53897766D01*
X59188392Y-53844153D01*
X59179685Y-53774828D01*
X59209840Y-53711801D01*
X59214388Y-53707002D01*
X68665173Y-44256219D01*
X68726496Y-44222734D01*
X68752854Y-44219900D01*
X74017145Y-44219900D01*
X74084184Y-44239585D01*
G37*
%TD.AperFunction*%
%TA.AperFunction,Conductor*%
G36*
X104832636Y-59668785D02*
G01*
X104878391Y-59721589D01*
X104888335Y-59790747D01*
X104887215Y-59797290D01*
X104878400Y-59841607D01*
X104878400Y-59979593D01*
X104878400Y-59979595D01*
X104878399Y-59979595D01*
X104905318Y-60114922D01*
X104905321Y-60114932D01*
X104958121Y-60242404D01*
X104958128Y-60242417D01*
X105034785Y-60357141D01*
X105034788Y-60357145D01*
X105132354Y-60454711D01*
X105132358Y-60454714D01*
X105247082Y-60531371D01*
X105247095Y-60531378D01*
X105374567Y-60584178D01*
X105374572Y-60584180D01*
X105374576Y-60584180D01*
X105374577Y-60584181D01*
X105509904Y-60611100D01*
X105509907Y-60611100D01*
X105647887Y-60611100D01*
X105647893Y-60611100D01*
X105647898Y-60611098D01*
X105648800Y-60611010D01*
X105649275Y-60611100D01*
X105653985Y-60611100D01*
X105653985Y-60611993D01*
X105717447Y-60624027D01*
X105748639Y-60646732D01*
X106985125Y-61883218D01*
X107018610Y-61944541D01*
X107013626Y-62014233D01*
X106971754Y-62070166D01*
X106906290Y-62094583D01*
X106849992Y-62085460D01*
X106825032Y-62075121D01*
X106825022Y-62075118D01*
X106689695Y-62048200D01*
X106689693Y-62048200D01*
X106551707Y-62048200D01*
X106551705Y-62048200D01*
X106416377Y-62075118D01*
X106416367Y-62075121D01*
X106288895Y-62127921D01*
X106288882Y-62127928D01*
X106174158Y-62204585D01*
X106174154Y-62204588D01*
X106076588Y-62302154D01*
X106076585Y-62302158D01*
X105999928Y-62416882D01*
X105999921Y-62416895D01*
X105947121Y-62544367D01*
X105947118Y-62544377D01*
X105920200Y-62679704D01*
X105920200Y-62817700D01*
X105920290Y-62818615D01*
X105920200Y-62819089D01*
X105920200Y-62823785D01*
X105919309Y-62823785D01*
X105907265Y-62887260D01*
X105884567Y-62918438D01*
X97379826Y-71423181D01*
X97318503Y-71456666D01*
X97292145Y-71459500D01*
X94385747Y-71459500D01*
X94318708Y-71439815D01*
X94293772Y-71417614D01*
X94293622Y-71417765D01*
X94291035Y-71415178D01*
X94289887Y-71414156D01*
X94289310Y-71413453D01*
X94191745Y-71315888D01*
X94191741Y-71315885D01*
X94077017Y-71239228D01*
X94077004Y-71239221D01*
X93949532Y-71186421D01*
X93949522Y-71186418D01*
X93814195Y-71159500D01*
X93814193Y-71159500D01*
X93676207Y-71159500D01*
X93676205Y-71159500D01*
X93540877Y-71186418D01*
X93540867Y-71186421D01*
X93413395Y-71239221D01*
X93413382Y-71239228D01*
X93298658Y-71315885D01*
X93298654Y-71315888D01*
X93201088Y-71413454D01*
X93201085Y-71413458D01*
X93124428Y-71528182D01*
X93124421Y-71528195D01*
X93071621Y-71655667D01*
X93071618Y-71655677D01*
X93044700Y-71791004D01*
X93044700Y-71791007D01*
X93044700Y-71928993D01*
X93044700Y-71928995D01*
X93044699Y-71928995D01*
X93071618Y-72064322D01*
X93071621Y-72064332D01*
X93124421Y-72191804D01*
X93124428Y-72191817D01*
X93201085Y-72306541D01*
X93201088Y-72306545D01*
X93298654Y-72404111D01*
X93298658Y-72404114D01*
X93413382Y-72480771D01*
X93413395Y-72480778D01*
X93540867Y-72533578D01*
X93540872Y-72533580D01*
X93573894Y-72540148D01*
X93624840Y-72550283D01*
X93686751Y-72582668D01*
X93721326Y-72643384D01*
X93717586Y-72713153D01*
X93676719Y-72769825D01*
X93611701Y-72795406D01*
X93600649Y-72795900D01*
X90542879Y-72795900D01*
X90475840Y-72776215D01*
X90430085Y-72723411D01*
X90420141Y-72654253D01*
X90421262Y-72647708D01*
X90433100Y-72588195D01*
X90433100Y-72450208D01*
X90433010Y-72449295D01*
X90433100Y-72448820D01*
X90433100Y-72444115D01*
X90433992Y-72444115D01*
X90446029Y-72380648D01*
X90468729Y-72349462D01*
X98942418Y-63875773D01*
X99003739Y-63842290D01*
X99073431Y-63847274D01*
X99098988Y-63860354D01*
X99178489Y-63913475D01*
X99178491Y-63913476D01*
X99178495Y-63913478D01*
X99285499Y-63957800D01*
X99305972Y-63966280D01*
X99305976Y-63966280D01*
X99305977Y-63966281D01*
X99441304Y-63993200D01*
X99441307Y-63993200D01*
X99579295Y-63993200D01*
X99670341Y-63975089D01*
X99714628Y-63966280D01*
X99813224Y-63925440D01*
X99842104Y-63913478D01*
X99842104Y-63913477D01*
X99842111Y-63913475D01*
X99956842Y-63836814D01*
X100054414Y-63739242D01*
X100131075Y-63624511D01*
X100183880Y-63497028D01*
X100197869Y-63426700D01*
X100210800Y-63361695D01*
X100210800Y-63223704D01*
X100183881Y-63088377D01*
X100183880Y-63088376D01*
X100183880Y-63088372D01*
X100169215Y-63052967D01*
X100131078Y-62960895D01*
X100131071Y-62960882D01*
X100054414Y-62846158D01*
X100054411Y-62846154D01*
X99956845Y-62748588D01*
X99956841Y-62748585D01*
X99842117Y-62671928D01*
X99842104Y-62671921D01*
X99714632Y-62619121D01*
X99714622Y-62619118D01*
X99579295Y-62592200D01*
X99579293Y-62592200D01*
X99578254Y-62592200D01*
X99577728Y-62592045D01*
X99573233Y-62591603D01*
X99573316Y-62590750D01*
X99511215Y-62572515D01*
X99465460Y-62519711D01*
X99455516Y-62450553D01*
X99484541Y-62386997D01*
X99490573Y-62380519D01*
X100720915Y-61150178D01*
X102185674Y-59685419D01*
X102246997Y-59651934D01*
X102273355Y-59649100D01*
X104765597Y-59649100D01*
X104832636Y-59668785D01*
G37*
%TD.AperFunction*%
%TA.AperFunction,Conductor*%
G36*
X73133203Y-51789641D02*
G01*
X73139681Y-51795673D01*
X73668881Y-52324873D01*
X73702366Y-52386196D01*
X73705200Y-52412554D01*
X73705200Y-58889051D01*
X73685515Y-58956090D01*
X73632711Y-59001845D01*
X73605393Y-59010668D01*
X73556376Y-59020418D01*
X73556367Y-59020421D01*
X73428895Y-59073221D01*
X73428882Y-59073228D01*
X73314158Y-59149885D01*
X73314154Y-59149888D01*
X73216588Y-59247454D01*
X73216585Y-59247458D01*
X73139928Y-59362182D01*
X73139921Y-59362195D01*
X73087121Y-59489667D01*
X73087118Y-59489677D01*
X73060200Y-59625004D01*
X73060200Y-59625007D01*
X73060200Y-59762993D01*
X73060200Y-59762995D01*
X73060199Y-59762995D01*
X73087118Y-59898322D01*
X73087121Y-59898332D01*
X73139921Y-60025804D01*
X73139928Y-60025817D01*
X73216585Y-60140541D01*
X73216588Y-60140545D01*
X73314154Y-60238111D01*
X73314158Y-60238114D01*
X73428882Y-60314771D01*
X73428895Y-60314778D01*
X73556367Y-60367578D01*
X73556372Y-60367580D01*
X73556376Y-60367580D01*
X73556377Y-60367581D01*
X73691704Y-60394500D01*
X73691707Y-60394500D01*
X73829695Y-60394500D01*
X73920741Y-60376389D01*
X73965028Y-60367580D01*
X74092511Y-60314775D01*
X74207242Y-60238114D01*
X74304814Y-60140542D01*
X74381475Y-60025811D01*
X74434280Y-59898328D01*
X74450479Y-59816891D01*
X74461200Y-59762995D01*
X74461200Y-59625007D01*
X74461199Y-59625004D01*
X74456879Y-59603284D01*
X74463105Y-59533696D01*
X74471111Y-59517089D01*
X74478907Y-59503587D01*
X74481822Y-59492705D01*
X74481825Y-59492701D01*
X74481824Y-59492701D01*
X74494424Y-59445677D01*
X74506201Y-59401727D01*
X74506201Y-59296273D01*
X74506201Y-59288678D01*
X74506200Y-59288660D01*
X74506200Y-52904855D01*
X74525885Y-52837816D01*
X74578689Y-52792061D01*
X74647847Y-52782117D01*
X74711403Y-52811142D01*
X74717881Y-52817174D01*
X77698681Y-55797974D01*
X77732166Y-55859297D01*
X77735000Y-55885655D01*
X77735000Y-68087673D01*
X77735000Y-68193127D01*
X77743060Y-68223207D01*
X77762293Y-68294989D01*
X77780275Y-68326133D01*
X77815020Y-68386313D01*
X77815022Y-68386315D01*
X79343181Y-69914474D01*
X79376666Y-69975797D01*
X79379500Y-70002155D01*
X79379500Y-71466840D01*
X79359815Y-71533879D01*
X79311795Y-71577325D01*
X79177003Y-71646005D01*
X79056984Y-71733203D01*
X78991178Y-71756682D01*
X78923124Y-71740856D01*
X78874430Y-71690750D01*
X78860100Y-71632884D01*
X78860100Y-70411629D01*
X78860101Y-70411616D01*
X78860101Y-70296174D01*
X78855770Y-70280011D01*
X78832807Y-70194313D01*
X78783613Y-70109107D01*
X78780080Y-70102987D01*
X78705513Y-70028420D01*
X78705512Y-70028419D01*
X78701182Y-70024089D01*
X78701171Y-70024079D01*
X72452281Y-63775188D01*
X72418796Y-63713865D01*
X72423780Y-63644173D01*
X72465652Y-63588240D01*
X72471062Y-63584410D01*
X72499942Y-63565114D01*
X72597514Y-63467542D01*
X72674175Y-63352811D01*
X72726980Y-63225328D01*
X72738440Y-63167715D01*
X72753900Y-63089995D01*
X72753900Y-62952004D01*
X72726981Y-62816677D01*
X72726980Y-62816676D01*
X72726980Y-62816672D01*
X72684115Y-62713186D01*
X72674178Y-62689195D01*
X72674171Y-62689182D01*
X72620398Y-62608705D01*
X72599520Y-62542027D01*
X72599500Y-62539814D01*
X72599500Y-56012647D01*
X72619185Y-55945608D01*
X72641385Y-55920672D01*
X72641235Y-55920522D01*
X72643821Y-55917935D01*
X72644844Y-55916787D01*
X72645537Y-55916217D01*
X72645542Y-55916214D01*
X72743114Y-55818642D01*
X72819775Y-55703911D01*
X72872580Y-55576428D01*
X72883557Y-55521242D01*
X72899500Y-55441095D01*
X72899500Y-55303104D01*
X72893131Y-55271087D01*
X72898943Y-55206130D01*
X72898603Y-55206039D01*
X72899126Y-55204086D01*
X72899358Y-55201496D01*
X72900188Y-55199440D01*
X72900703Y-55198194D01*
X72900707Y-55198188D01*
X72928000Y-55096327D01*
X72928000Y-54990873D01*
X72928000Y-51883354D01*
X72947685Y-51816315D01*
X73000489Y-51770560D01*
X73069647Y-51760616D01*
X73133203Y-51789641D01*
G37*
%TD.AperFunction*%
%TA.AperFunction,Conductor*%
G36*
X64329768Y-52636738D02*
G01*
X64385701Y-52678610D01*
X64389536Y-52684029D01*
X64422285Y-52733041D01*
X64422288Y-52733045D01*
X64519853Y-52830610D01*
X64520556Y-52831187D01*
X64520825Y-52831582D01*
X64524165Y-52834922D01*
X64523531Y-52835555D01*
X64559896Y-52888929D01*
X64565900Y-52927047D01*
X64565900Y-57689244D01*
X64546215Y-57756283D01*
X64529581Y-57776925D01*
X62425438Y-59881067D01*
X62364115Y-59914552D01*
X62330785Y-59916489D01*
X62330785Y-59916700D01*
X62327163Y-59916700D01*
X62325615Y-59916790D01*
X62324700Y-59916700D01*
X62324693Y-59916700D01*
X62186707Y-59916700D01*
X62158343Y-59922342D01*
X62100291Y-59933889D01*
X62030699Y-59927661D01*
X61975522Y-59884797D01*
X61952278Y-59818907D01*
X61952100Y-59812271D01*
X61952100Y-56335455D01*
X61971785Y-56268416D01*
X61988419Y-56247774D01*
X62650190Y-55586003D01*
X63312780Y-54923413D01*
X63332641Y-54889012D01*
X63365507Y-54832087D01*
X63392800Y-54730227D01*
X63392800Y-53522554D01*
X63412485Y-53455515D01*
X63429115Y-53434877D01*
X64198753Y-52665238D01*
X64260076Y-52631754D01*
X64329768Y-52636738D01*
G37*
%TD.AperFunction*%
%TA.AperFunction,Conductor*%
G36*
X121666539Y-40320185D02*
G01*
X121712294Y-40372989D01*
X121723500Y-40424500D01*
X121723500Y-76975500D01*
X121703815Y-77042539D01*
X121651011Y-77088294D01*
X121599500Y-77099500D01*
X40424500Y-77099500D01*
X40357461Y-77079815D01*
X40311706Y-77027011D01*
X40300500Y-76975500D01*
X40300500Y-73793713D01*
X42649500Y-73793713D01*
X42649500Y-74006286D01*
X42682753Y-74216239D01*
X42748444Y-74418414D01*
X42844951Y-74607820D01*
X42969890Y-74779786D01*
X43120213Y-74930109D01*
X43292179Y-75055048D01*
X43292181Y-75055049D01*
X43292184Y-75055051D01*
X43481588Y-75151557D01*
X43683757Y-75217246D01*
X43893713Y-75250500D01*
X43893714Y-75250500D01*
X44106286Y-75250500D01*
X44106287Y-75250500D01*
X44316243Y-75217246D01*
X44518412Y-75151557D01*
X44707816Y-75055051D01*
X44729789Y-75039086D01*
X44879786Y-74930109D01*
X44879788Y-74930106D01*
X44879792Y-74930104D01*
X45030104Y-74779792D01*
X45030106Y-74779788D01*
X45030109Y-74779786D01*
X45155048Y-74607820D01*
X45155047Y-74607820D01*
X45155051Y-74607816D01*
X45251557Y-74418412D01*
X45317246Y-74216243D01*
X45350500Y-74006287D01*
X45350500Y-73793713D01*
X45317246Y-73583757D01*
X45251557Y-73381588D01*
X45155051Y-73192184D01*
X45155049Y-73192181D01*
X45155048Y-73192179D01*
X45030109Y-73020213D01*
X44879786Y-72869890D01*
X44707820Y-72744951D01*
X44518414Y-72648444D01*
X44518413Y-72648443D01*
X44518412Y-72648443D01*
X44316243Y-72582754D01*
X44316241Y-72582753D01*
X44316240Y-72582753D01*
X44154957Y-72557208D01*
X44106287Y-72549500D01*
X43893713Y-72549500D01*
X43845042Y-72557208D01*
X43683760Y-72582753D01*
X43481585Y-72648444D01*
X43292179Y-72744951D01*
X43120213Y-72869890D01*
X42969890Y-73020213D01*
X42844951Y-73192179D01*
X42748444Y-73381585D01*
X42682753Y-73583760D01*
X42649500Y-73793713D01*
X40300500Y-73793713D01*
X40300500Y-64700131D01*
X40619500Y-64700131D01*
X40619500Y-66489856D01*
X40619502Y-66489882D01*
X40622413Y-66514987D01*
X40622415Y-66514991D01*
X40667793Y-66617764D01*
X40667794Y-66617765D01*
X40747235Y-66697206D01*
X40850009Y-66742585D01*
X40875135Y-66745500D01*
X42664864Y-66745499D01*
X42664879Y-66745497D01*
X42664882Y-66745497D01*
X42689987Y-66742586D01*
X42689988Y-66742585D01*
X42689991Y-66742585D01*
X42792765Y-66697206D01*
X42872206Y-66617765D01*
X42917585Y-66514991D01*
X42920500Y-66489865D01*
X42920500Y-66091700D01*
X42940185Y-66024661D01*
X42992989Y-65978906D01*
X43012399Y-65971928D01*
X43026287Y-65968207D01*
X43117613Y-65915480D01*
X43192180Y-65840913D01*
X43244907Y-65749587D01*
X43272200Y-65647727D01*
X43272200Y-65367154D01*
X43291885Y-65300115D01*
X43308514Y-65279478D01*
X52777161Y-55810830D01*
X52838482Y-55777347D01*
X52871815Y-55775410D01*
X52871815Y-55775200D01*
X52875446Y-55775200D01*
X52876995Y-55775110D01*
X52877905Y-55775199D01*
X52877907Y-55775200D01*
X52877909Y-55775200D01*
X53015895Y-55775200D01*
X53106941Y-55757089D01*
X53151228Y-55748280D01*
X53278711Y-55695475D01*
X53393442Y-55618814D01*
X53491014Y-55521242D01*
X53567675Y-55406511D01*
X53572364Y-55395192D01*
X53604925Y-55316581D01*
X53620480Y-55279028D01*
X53633562Y-55213260D01*
X53647400Y-55143695D01*
X53647400Y-55005704D01*
X53620481Y-54870377D01*
X53620480Y-54870376D01*
X53620480Y-54870372D01*
X53618462Y-54865499D01*
X53567678Y-54742895D01*
X53567671Y-54742882D01*
X53491014Y-54628158D01*
X53491011Y-54628154D01*
X53393446Y-54530589D01*
X53392733Y-54530004D01*
X53392459Y-54529602D01*
X53389135Y-54526278D01*
X53389765Y-54525647D01*
X53353400Y-54472257D01*
X53347400Y-54434152D01*
X53347400Y-48713054D01*
X53367085Y-48646015D01*
X53383719Y-48625373D01*
X56227873Y-45781219D01*
X56289196Y-45747734D01*
X56315554Y-45744900D01*
X57757238Y-45744900D01*
X57824277Y-45764585D01*
X57870032Y-45817389D01*
X57879976Y-45886547D01*
X57850951Y-45950103D01*
X57844919Y-45956581D01*
X57800538Y-46000961D01*
X57800535Y-46000965D01*
X57701990Y-46148446D01*
X57701983Y-46148459D01*
X57634106Y-46312332D01*
X57634103Y-46312341D01*
X57622498Y-46370689D01*
X57590113Y-46432600D01*
X57532975Y-46466273D01*
X57493711Y-46476793D01*
X57493710Y-46476794D01*
X57402385Y-46529521D01*
X57327821Y-46604085D01*
X57275094Y-46695410D01*
X57275093Y-46695413D01*
X57247800Y-46797273D01*
X57247800Y-47690345D01*
X57228115Y-47757384D01*
X57211481Y-47778026D01*
X54149522Y-50839984D01*
X54149518Y-50839990D01*
X54096792Y-50931312D01*
X54096793Y-50931313D01*
X54069500Y-51033173D01*
X54069500Y-64431840D01*
X54049815Y-64498879D01*
X54001795Y-64542325D01*
X53867002Y-64611006D01*
X53720505Y-64717441D01*
X53720500Y-64717445D01*
X53592445Y-64845500D01*
X53592441Y-64845505D01*
X53486006Y-64992002D01*
X53403788Y-65153360D01*
X53403787Y-65153363D01*
X53347829Y-65325589D01*
X53322473Y-65485678D01*
X53292544Y-65548813D01*
X53233232Y-65585744D01*
X53163369Y-65584746D01*
X53105137Y-65546136D01*
X53077527Y-65485678D01*
X53058754Y-65367154D01*
X53052171Y-65325591D01*
X52996211Y-65153361D01*
X52996211Y-65153360D01*
X52947600Y-65057957D01*
X52913996Y-64992006D01*
X52865093Y-64924696D01*
X52807558Y-64845505D01*
X52807554Y-64845500D01*
X52679499Y-64717445D01*
X52679494Y-64717441D01*
X52532997Y-64611006D01*
X52532996Y-64611005D01*
X52532994Y-64611004D01*
X52471563Y-64579703D01*
X52371639Y-64528788D01*
X52371636Y-64528787D01*
X52199410Y-64472829D01*
X52020551Y-64444500D01*
X52020546Y-64444500D01*
X51839454Y-64444500D01*
X51839449Y-64444500D01*
X51660589Y-64472829D01*
X51488363Y-64528787D01*
X51488360Y-64528788D01*
X51327002Y-64611006D01*
X51180505Y-64717441D01*
X51180500Y-64717445D01*
X51052445Y-64845500D01*
X51052441Y-64845505D01*
X50946006Y-64992002D01*
X50863788Y-65153360D01*
X50863787Y-65153363D01*
X50807829Y-65325589D01*
X50782473Y-65485678D01*
X50752544Y-65548813D01*
X50693232Y-65585744D01*
X50623369Y-65584746D01*
X50565137Y-65546136D01*
X50537527Y-65485678D01*
X50518754Y-65367154D01*
X50512171Y-65325591D01*
X50456211Y-65153361D01*
X50456211Y-65153360D01*
X50407600Y-65057957D01*
X50373996Y-64992006D01*
X50325093Y-64924696D01*
X50267558Y-64845505D01*
X50267554Y-64845500D01*
X50139499Y-64717445D01*
X50139494Y-64717441D01*
X49992997Y-64611006D01*
X49992996Y-64611005D01*
X49992994Y-64611004D01*
X49931563Y-64579703D01*
X49831639Y-64528788D01*
X49831636Y-64528787D01*
X49659410Y-64472829D01*
X49480551Y-64444500D01*
X49480546Y-64444500D01*
X49299454Y-64444500D01*
X49299449Y-64444500D01*
X49120589Y-64472829D01*
X48948363Y-64528787D01*
X48948360Y-64528789D01*
X48848895Y-64579469D01*
X48780225Y-64592365D01*
X48715485Y-64566088D01*
X48675228Y-64508982D01*
X48668600Y-64468984D01*
X48668600Y-63305654D01*
X48688285Y-63238615D01*
X48704914Y-63217978D01*
X50570593Y-61352298D01*
X50631914Y-61318815D01*
X50701606Y-61323799D01*
X50757539Y-61365671D01*
X50779889Y-61415789D01*
X50809104Y-61562659D01*
X50809106Y-61562667D01*
X50876983Y-61726540D01*
X50876990Y-61726553D01*
X50975535Y-61874034D01*
X50975538Y-61874038D01*
X51100961Y-61999461D01*
X51100965Y-61999464D01*
X51248446Y-62098009D01*
X51248459Y-62098016D01*
X51371363Y-62148923D01*
X51412334Y-62165894D01*
X51412336Y-62165894D01*
X51412341Y-62165896D01*
X51586304Y-62200499D01*
X51586307Y-62200500D01*
X51586309Y-62200500D01*
X52313693Y-62200500D01*
X52313694Y-62200499D01*
X52379891Y-62187332D01*
X52487658Y-62165896D01*
X52487661Y-62165894D01*
X52487666Y-62165894D01*
X52651547Y-62098013D01*
X52799035Y-61999464D01*
X52924464Y-61874035D01*
X53023013Y-61726547D01*
X53090894Y-61562666D01*
X53090894Y-61562661D01*
X53090896Y-61562658D01*
X53117163Y-61430603D01*
X53125500Y-61388691D01*
X53125500Y-61211309D01*
X53125500Y-61211306D01*
X53125499Y-61211304D01*
X53090896Y-61037341D01*
X53090893Y-61037332D01*
X53085954Y-61025409D01*
X53055073Y-60950853D01*
X53023016Y-60873459D01*
X53023009Y-60873446D01*
X52924464Y-60725965D01*
X52924461Y-60725961D01*
X52799038Y-60600538D01*
X52799034Y-60600535D01*
X52651553Y-60501990D01*
X52651541Y-60501983D01*
X52519718Y-60447382D01*
X52499627Y-60439060D01*
X52445224Y-60395221D01*
X52423159Y-60328927D01*
X52440438Y-60261227D01*
X52491575Y-60213617D01*
X52547080Y-60200500D01*
X52618097Y-60200500D01*
X52618102Y-60200500D01*
X52706564Y-60189877D01*
X52847342Y-60134361D01*
X52967922Y-60042922D01*
X53059361Y-59922342D01*
X53114877Y-59781564D01*
X53125500Y-59693102D01*
X53125500Y-58906898D01*
X53114877Y-58818436D01*
X53059361Y-58677658D01*
X53059360Y-58677657D01*
X53059360Y-58677656D01*
X52967922Y-58557077D01*
X52847343Y-58465639D01*
X52706561Y-58410122D01*
X52660926Y-58404642D01*
X52618102Y-58399500D01*
X51281898Y-58399500D01*
X51242853Y-58404188D01*
X51193438Y-58410122D01*
X51052656Y-58465639D01*
X50932077Y-58557077D01*
X50840639Y-58677656D01*
X50785122Y-58818438D01*
X50779988Y-58861195D01*
X50774500Y-58906898D01*
X50774500Y-59693102D01*
X50777921Y-59721589D01*
X50785123Y-59781565D01*
X50818473Y-59866134D01*
X50824755Y-59935720D01*
X50792418Y-59997657D01*
X50790800Y-59999305D01*
X47947622Y-62842484D01*
X47947620Y-62842487D01*
X47894893Y-62933811D01*
X47874107Y-63011388D01*
X47867600Y-63035671D01*
X47867600Y-64686184D01*
X47847915Y-64753223D01*
X47795111Y-64798978D01*
X47725953Y-64808922D01*
X47662397Y-64779897D01*
X47655919Y-64773865D01*
X47599499Y-64717445D01*
X47599494Y-64717441D01*
X47452997Y-64611006D01*
X47452996Y-64611005D01*
X47452994Y-64611004D01*
X47391563Y-64579703D01*
X47291639Y-64528788D01*
X47291636Y-64528787D01*
X47119410Y-64472829D01*
X46940551Y-64444500D01*
X46940546Y-64444500D01*
X46759454Y-64444500D01*
X46759449Y-64444500D01*
X46580589Y-64472829D01*
X46408363Y-64528787D01*
X46408360Y-64528788D01*
X46247002Y-64611006D01*
X46100505Y-64717441D01*
X46100500Y-64717445D01*
X45972445Y-64845500D01*
X45972441Y-64845505D01*
X45866006Y-64992002D01*
X45783788Y-65153360D01*
X45783787Y-65153363D01*
X45727829Y-65325589D01*
X45699500Y-65504448D01*
X45699500Y-65685551D01*
X45727829Y-65864410D01*
X45783787Y-66036636D01*
X45783788Y-66036639D01*
X45866006Y-66197997D01*
X45972441Y-66344494D01*
X45972445Y-66344499D01*
X46100500Y-66472554D01*
X46100505Y-66472558D01*
X46228287Y-66565396D01*
X46247006Y-66578996D01*
X46323094Y-66617765D01*
X46408360Y-66661211D01*
X46408363Y-66661212D01*
X46481953Y-66685122D01*
X46580591Y-66717171D01*
X46663429Y-66730291D01*
X46759449Y-66745500D01*
X46759454Y-66745500D01*
X46940551Y-66745500D01*
X47027259Y-66731765D01*
X47119409Y-66717171D01*
X47291639Y-66661211D01*
X47452994Y-66578996D01*
X47599501Y-66472553D01*
X47727553Y-66344501D01*
X47753392Y-66308935D01*
X47808720Y-66266270D01*
X47878334Y-66260289D01*
X47940129Y-66292894D01*
X47941831Y-66294807D01*
X47941873Y-66294766D01*
X56411579Y-74764471D01*
X56411589Y-74764482D01*
X56415919Y-74768812D01*
X56415920Y-74768813D01*
X56490487Y-74843380D01*
X56581813Y-74896107D01*
X56683673Y-74923401D01*
X56683675Y-74923401D01*
X56796723Y-74923401D01*
X56796739Y-74923400D01*
X109573325Y-74923400D01*
X109573327Y-74923400D01*
X109675188Y-74896107D01*
X109766513Y-74843380D01*
X110816179Y-73793713D01*
X118003500Y-73793713D01*
X118003500Y-74006286D01*
X118036753Y-74216239D01*
X118102444Y-74418414D01*
X118198951Y-74607820D01*
X118323890Y-74779786D01*
X118474213Y-74930109D01*
X118646179Y-75055048D01*
X118646181Y-75055049D01*
X118646184Y-75055051D01*
X118835588Y-75151557D01*
X119037757Y-75217246D01*
X119247713Y-75250500D01*
X119247714Y-75250500D01*
X119460286Y-75250500D01*
X119460287Y-75250500D01*
X119670243Y-75217246D01*
X119872412Y-75151557D01*
X120061816Y-75055051D01*
X120083789Y-75039086D01*
X120233786Y-74930109D01*
X120233788Y-74930106D01*
X120233792Y-74930104D01*
X120384104Y-74779792D01*
X120384106Y-74779788D01*
X120384109Y-74779786D01*
X120509048Y-74607820D01*
X120509047Y-74607820D01*
X120509051Y-74607816D01*
X120605557Y-74418412D01*
X120671246Y-74216243D01*
X120704500Y-74006287D01*
X120704500Y-73793713D01*
X120671246Y-73583757D01*
X120605557Y-73381588D01*
X120509051Y-73192184D01*
X120509049Y-73192181D01*
X120509048Y-73192179D01*
X120384109Y-73020213D01*
X120233786Y-72869890D01*
X120061820Y-72744951D01*
X119872414Y-72648444D01*
X119872413Y-72648443D01*
X119872412Y-72648443D01*
X119670243Y-72582754D01*
X119670241Y-72582753D01*
X119670240Y-72582753D01*
X119508957Y-72557208D01*
X119460287Y-72549500D01*
X119247713Y-72549500D01*
X119199042Y-72557208D01*
X119037760Y-72582753D01*
X118835585Y-72648444D01*
X118646179Y-72744951D01*
X118474213Y-72869890D01*
X118323890Y-73020213D01*
X118198951Y-73192179D01*
X118102444Y-73381585D01*
X118036753Y-73583760D01*
X118003500Y-73793713D01*
X110816179Y-73793713D01*
X115684001Y-68925889D01*
X115684011Y-68925882D01*
X115689645Y-68920248D01*
X115698660Y-68915323D01*
X115716224Y-68902665D01*
X115716232Y-68902661D01*
X115717436Y-68905069D01*
X115750965Y-68886757D01*
X115820657Y-68891735D01*
X115846219Y-68904816D01*
X115873453Y-68923013D01*
X116037334Y-68990894D01*
X116037336Y-68990894D01*
X116037341Y-68990896D01*
X116211304Y-69025499D01*
X116211307Y-69025500D01*
X116211309Y-69025500D01*
X116388693Y-69025500D01*
X116388694Y-69025499D01*
X116446682Y-69013964D01*
X116562658Y-68990896D01*
X116562661Y-68990894D01*
X116562666Y-68990894D01*
X116726547Y-68923013D01*
X116874035Y-68824464D01*
X116999464Y-68699035D01*
X117098013Y-68551547D01*
X117165894Y-68387666D01*
X117166164Y-68386313D01*
X117198607Y-68223206D01*
X117200500Y-68213691D01*
X117200500Y-67486309D01*
X117200500Y-67486306D01*
X117200499Y-67486304D01*
X117165896Y-67312341D01*
X117165893Y-67312332D01*
X117098016Y-67148459D01*
X117098009Y-67148446D01*
X116999464Y-67000965D01*
X116999461Y-67000961D01*
X116874038Y-66875538D01*
X116874034Y-66875535D01*
X116726553Y-66776990D01*
X116726540Y-66776983D01*
X116562667Y-66709106D01*
X116562658Y-66709103D01*
X116388694Y-66674500D01*
X116388691Y-66674500D01*
X116211309Y-66674500D01*
X116211306Y-66674500D01*
X116037341Y-66709103D01*
X116037332Y-66709106D01*
X115873459Y-66776983D01*
X115873446Y-66776990D01*
X115725965Y-66875535D01*
X115725961Y-66875538D01*
X115600538Y-67000961D01*
X115600535Y-67000965D01*
X115501990Y-67148446D01*
X115501983Y-67148459D01*
X115439061Y-67300371D01*
X115395221Y-67354775D01*
X115328927Y-67376840D01*
X115261227Y-67359561D01*
X115213616Y-67308424D01*
X115200500Y-67252919D01*
X115200500Y-67181903D01*
X115200500Y-67181898D01*
X115189877Y-67093436D01*
X115134361Y-66952658D01*
X115134360Y-66952657D01*
X115134360Y-66952656D01*
X115042922Y-66832077D01*
X114922343Y-66740639D01*
X114781561Y-66685122D01*
X114735926Y-66679642D01*
X114693102Y-66674500D01*
X113906898Y-66674500D01*
X113867853Y-66679188D01*
X113818438Y-66685122D01*
X113677656Y-66740639D01*
X113557077Y-66832077D01*
X113465638Y-66952658D01*
X113456286Y-66976372D01*
X113413378Y-67031514D01*
X113347470Y-67054706D01*
X113279486Y-67038583D01*
X113253252Y-67018559D01*
X106315032Y-60080339D01*
X106281547Y-60019016D01*
X106279611Y-59985685D01*
X106279400Y-59985685D01*
X106279400Y-59982049D01*
X106279310Y-59980500D01*
X106279398Y-59979599D01*
X106279400Y-59979593D01*
X106279400Y-59841607D01*
X106270585Y-59797290D01*
X106276813Y-59727699D01*
X106319677Y-59672522D01*
X106385567Y-59649278D01*
X106392203Y-59649100D01*
X106828145Y-59649100D01*
X106895184Y-59668785D01*
X106915826Y-59685419D01*
X108827519Y-61597112D01*
X108827520Y-61597113D01*
X108902087Y-61671680D01*
X108993413Y-61724407D01*
X109095273Y-61751700D01*
X109200727Y-61751700D01*
X114576579Y-61751700D01*
X114643618Y-61771385D01*
X114689373Y-61824189D01*
X114699317Y-61893347D01*
X114679681Y-61944591D01*
X114626990Y-62023447D01*
X114626983Y-62023459D01*
X114559106Y-62187332D01*
X114559103Y-62187341D01*
X114524500Y-62361304D01*
X114524500Y-62538695D01*
X114559103Y-62712658D01*
X114559106Y-62712667D01*
X114626983Y-62876540D01*
X114626990Y-62876553D01*
X114725535Y-63024034D01*
X114725538Y-63024038D01*
X114850961Y-63149461D01*
X114850965Y-63149464D01*
X114998446Y-63248009D01*
X114998459Y-63248016D01*
X115106606Y-63292811D01*
X115162334Y-63315894D01*
X115162336Y-63315894D01*
X115162341Y-63315896D01*
X115336304Y-63350499D01*
X115336307Y-63350500D01*
X115336309Y-63350500D01*
X116063693Y-63350500D01*
X116063694Y-63350499D01*
X116121682Y-63338964D01*
X116237658Y-63315896D01*
X116237661Y-63315894D01*
X116237666Y-63315894D01*
X116401547Y-63248013D01*
X116549035Y-63149464D01*
X116674464Y-63024035D01*
X116773013Y-62876547D01*
X116840894Y-62712666D01*
X116845566Y-62689182D01*
X116866543Y-62583720D01*
X116875500Y-62538691D01*
X116875500Y-62361309D01*
X116875500Y-62361306D01*
X116875499Y-62361304D01*
X116840896Y-62187341D01*
X116840893Y-62187332D01*
X116773016Y-62023459D01*
X116773009Y-62023446D01*
X116704683Y-61921190D01*
X116683805Y-61854513D01*
X116702289Y-61787133D01*
X116754268Y-61740442D01*
X116775689Y-61732525D01*
X116805988Y-61724407D01*
X116897313Y-61671680D01*
X118506480Y-60062513D01*
X118559207Y-59971188D01*
X118586500Y-59869327D01*
X118586500Y-59763873D01*
X118586500Y-53460173D01*
X118559207Y-53358313D01*
X118506480Y-53266987D01*
X118431913Y-53192420D01*
X118159032Y-52919539D01*
X118125547Y-52858216D01*
X118123611Y-52824885D01*
X118123400Y-52824885D01*
X118123400Y-52821249D01*
X118123310Y-52819700D01*
X118123398Y-52818799D01*
X118123400Y-52818793D01*
X118123400Y-52680807D01*
X118123400Y-52680804D01*
X118096481Y-52545477D01*
X118096480Y-52545476D01*
X118096480Y-52545472D01*
X118070706Y-52483247D01*
X118043678Y-52417995D01*
X118043671Y-52417982D01*
X117967014Y-52303258D01*
X117967011Y-52303254D01*
X117869445Y-52205688D01*
X117869441Y-52205685D01*
X117754717Y-52129028D01*
X117754704Y-52129021D01*
X117627232Y-52076221D01*
X117627222Y-52076218D01*
X117491895Y-52049300D01*
X117491893Y-52049300D01*
X117353907Y-52049300D01*
X117353905Y-52049300D01*
X117218577Y-52076218D01*
X117218567Y-52076221D01*
X117091095Y-52129021D01*
X117091082Y-52129028D01*
X116976358Y-52205685D01*
X116976354Y-52205688D01*
X116878788Y-52303254D01*
X116878785Y-52303258D01*
X116802128Y-52417982D01*
X116802121Y-52417995D01*
X116749321Y-52545467D01*
X116749318Y-52545477D01*
X116722400Y-52680804D01*
X116722400Y-52680807D01*
X116722400Y-52818793D01*
X116722400Y-52818795D01*
X116722399Y-52818795D01*
X116749318Y-52954122D01*
X116749321Y-52954132D01*
X116802121Y-53081604D01*
X116802128Y-53081617D01*
X116878785Y-53196341D01*
X116878788Y-53196345D01*
X116976354Y-53293911D01*
X116976358Y-53293914D01*
X117091082Y-53370571D01*
X117091095Y-53370578D01*
X117218567Y-53423378D01*
X117218572Y-53423380D01*
X117218576Y-53423380D01*
X117218577Y-53423381D01*
X117353904Y-53450300D01*
X117353907Y-53450300D01*
X117491887Y-53450300D01*
X117491893Y-53450300D01*
X117491898Y-53450298D01*
X117492800Y-53450210D01*
X117493275Y-53450300D01*
X117497985Y-53450300D01*
X117497985Y-53451193D01*
X117561447Y-53463227D01*
X117592639Y-53485932D01*
X117656002Y-53549295D01*
X117689487Y-53610618D01*
X117684503Y-53680310D01*
X117642631Y-53736243D01*
X117577167Y-53760660D01*
X117534539Y-53753757D01*
X117533986Y-53755823D01*
X117526136Y-53753719D01*
X117526135Y-53753719D01*
X117379766Y-53714500D01*
X117228234Y-53714500D01*
X117081863Y-53753719D01*
X116950635Y-53829485D01*
X116950632Y-53829487D01*
X116843487Y-53936632D01*
X116843485Y-53936635D01*
X116767719Y-54067863D01*
X116734504Y-54191827D01*
X116728500Y-54214234D01*
X116728500Y-54365766D01*
X116748109Y-54438950D01*
X116767719Y-54512136D01*
X116796916Y-54562706D01*
X116843485Y-54643365D01*
X116950635Y-54750515D01*
X117019548Y-54790302D01*
X117081861Y-54826279D01*
X117081865Y-54826281D01*
X117228234Y-54865500D01*
X117228236Y-54865500D01*
X117379764Y-54865500D01*
X117379766Y-54865500D01*
X117526135Y-54826281D01*
X117599499Y-54783923D01*
X117667399Y-54767450D01*
X117733426Y-54790302D01*
X117776617Y-54845222D01*
X117785500Y-54891310D01*
X117785500Y-59599345D01*
X117765815Y-59666384D01*
X117749181Y-59687026D01*
X116521826Y-60914381D01*
X116460503Y-60947866D01*
X116434145Y-60950700D01*
X109365255Y-60950700D01*
X109298216Y-60931015D01*
X109277574Y-60914381D01*
X107291315Y-58928122D01*
X107291313Y-58928120D01*
X107236768Y-58896628D01*
X107199989Y-58875393D01*
X107146992Y-58861193D01*
X107098127Y-58848100D01*
X102108827Y-58848100D01*
X102003373Y-58848100D01*
X101901510Y-58875393D01*
X101810187Y-58928120D01*
X101810184Y-58928122D01*
X99268795Y-61469511D01*
X99207472Y-61502996D01*
X99137780Y-61498012D01*
X99081847Y-61456140D01*
X99057430Y-61390676D01*
X99066554Y-61334376D01*
X99073234Y-61318251D01*
X99082480Y-61295928D01*
X99094008Y-61237975D01*
X99109400Y-61160595D01*
X99109400Y-61022608D01*
X99109310Y-61021695D01*
X99109400Y-61021220D01*
X99109400Y-61016515D01*
X99110292Y-61016515D01*
X99122329Y-60953048D01*
X99145029Y-60921862D01*
X109728374Y-50338519D01*
X109789697Y-50305034D01*
X109816055Y-50302200D01*
X113508653Y-50302200D01*
X113575692Y-50321885D01*
X113600627Y-50344085D01*
X113600778Y-50343935D01*
X113603364Y-50346521D01*
X113604513Y-50347544D01*
X113605089Y-50348246D01*
X113702654Y-50445811D01*
X113702658Y-50445814D01*
X113817382Y-50522471D01*
X113817395Y-50522478D01*
X113908499Y-50560214D01*
X113944872Y-50575280D01*
X113944876Y-50575280D01*
X113944877Y-50575281D01*
X114080204Y-50602200D01*
X114080207Y-50602200D01*
X114218195Y-50602200D01*
X114309241Y-50584089D01*
X114353528Y-50575280D01*
X114481011Y-50522475D01*
X114595742Y-50445814D01*
X114693314Y-50348242D01*
X114769975Y-50233511D01*
X114822780Y-50106028D01*
X114837543Y-50031811D01*
X114849700Y-49970695D01*
X114849700Y-49832704D01*
X114822781Y-49697377D01*
X114822780Y-49697376D01*
X114822780Y-49697372D01*
X114822778Y-49697367D01*
X114769978Y-49569895D01*
X114769971Y-49569882D01*
X114693314Y-49455158D01*
X114693311Y-49455154D01*
X114595745Y-49357588D01*
X114595741Y-49357585D01*
X114481017Y-49280928D01*
X114481004Y-49280921D01*
X114353532Y-49228121D01*
X114353522Y-49228118D01*
X114218195Y-49201200D01*
X114218193Y-49201200D01*
X114080207Y-49201200D01*
X114080205Y-49201200D01*
X113944877Y-49228118D01*
X113944867Y-49228121D01*
X113817395Y-49280921D01*
X113817382Y-49280928D01*
X113702658Y-49357585D01*
X113702654Y-49357588D01*
X113605089Y-49455153D01*
X113604513Y-49455856D01*
X113604117Y-49456125D01*
X113600778Y-49459465D01*
X113600144Y-49458831D01*
X113546771Y-49495196D01*
X113508653Y-49501200D01*
X109546073Y-49501200D01*
X109444213Y-49528493D01*
X109444210Y-49528494D01*
X109352885Y-49581221D01*
X98578638Y-60355467D01*
X98517315Y-60388952D01*
X98483985Y-60390889D01*
X98483985Y-60391100D01*
X98480363Y-60391100D01*
X98478815Y-60391190D01*
X98477900Y-60391100D01*
X98477893Y-60391100D01*
X98339907Y-60391100D01*
X98339905Y-60391100D01*
X98204577Y-60418018D01*
X98204567Y-60418021D01*
X98077095Y-60470821D01*
X98077082Y-60470828D01*
X97962358Y-60547485D01*
X97962354Y-60547488D01*
X97864788Y-60645054D01*
X97864785Y-60645058D01*
X97788128Y-60759782D01*
X97788121Y-60759795D01*
X97735321Y-60887267D01*
X97735318Y-60887277D01*
X97708400Y-61022604D01*
X97708400Y-61022607D01*
X97708400Y-61160593D01*
X97708400Y-61160595D01*
X97708399Y-61160595D01*
X97735318Y-61295922D01*
X97735321Y-61295932D01*
X97788121Y-61423404D01*
X97788128Y-61423417D01*
X97864785Y-61538141D01*
X97864788Y-61538145D01*
X97962354Y-61635711D01*
X97962358Y-61635714D01*
X98077082Y-61712371D01*
X98077095Y-61712378D01*
X98172028Y-61751700D01*
X98204572Y-61765180D01*
X98204576Y-61765180D01*
X98204577Y-61765181D01*
X98339904Y-61792100D01*
X98339907Y-61792100D01*
X98477895Y-61792100D01*
X98573623Y-61773058D01*
X98613228Y-61765180D01*
X98651677Y-61749253D01*
X98721145Y-61741784D01*
X98783625Y-61773058D01*
X98819278Y-61833146D01*
X98816785Y-61902972D01*
X98786811Y-61951495D01*
X95865126Y-64873181D01*
X95803803Y-64906666D01*
X95777445Y-64909500D01*
X94929647Y-64909500D01*
X94862608Y-64889815D01*
X94837672Y-64867614D01*
X94837522Y-64867765D01*
X94834935Y-64865178D01*
X94833787Y-64864156D01*
X94833210Y-64863453D01*
X94735645Y-64765888D01*
X94735641Y-64765885D01*
X94620917Y-64689228D01*
X94620904Y-64689221D01*
X94493432Y-64636421D01*
X94493422Y-64636418D01*
X94358095Y-64609500D01*
X94358093Y-64609500D01*
X94220107Y-64609500D01*
X94220105Y-64609500D01*
X94084777Y-64636418D01*
X94084767Y-64636421D01*
X93957295Y-64689221D01*
X93957282Y-64689228D01*
X93842558Y-64765885D01*
X93842554Y-64765888D01*
X93744988Y-64863454D01*
X93744985Y-64863458D01*
X93668328Y-64978182D01*
X93668321Y-64978195D01*
X93615521Y-65105667D01*
X93615518Y-65105677D01*
X93588600Y-65241004D01*
X93588600Y-65241007D01*
X93588600Y-65378993D01*
X93588600Y-65378995D01*
X93588599Y-65378995D01*
X93615518Y-65514322D01*
X93615521Y-65514332D01*
X93668321Y-65641804D01*
X93668328Y-65641817D01*
X93744985Y-65756541D01*
X93744988Y-65756545D01*
X93842554Y-65854111D01*
X93842558Y-65854114D01*
X93957282Y-65930771D01*
X93957295Y-65930778D01*
X94073488Y-65978906D01*
X94084772Y-65983580D01*
X94084776Y-65983580D01*
X94084777Y-65983581D01*
X94220104Y-66010500D01*
X94220107Y-66010500D01*
X94358095Y-66010500D01*
X94449141Y-65992389D01*
X94493428Y-65983580D01*
X94620911Y-65930775D01*
X94735642Y-65854114D01*
X94833214Y-65756542D01*
X94833217Y-65756537D01*
X94833787Y-65755844D01*
X94834182Y-65755574D01*
X94837522Y-65752235D01*
X94838155Y-65752868D01*
X94891529Y-65716504D01*
X94929647Y-65710500D01*
X95675545Y-65710500D01*
X95742584Y-65730185D01*
X95788339Y-65782989D01*
X95798283Y-65852147D01*
X95769258Y-65915703D01*
X95763226Y-65922181D01*
X89902338Y-71783067D01*
X89841015Y-71816552D01*
X89807685Y-71818489D01*
X89807685Y-71818700D01*
X89804063Y-71818700D01*
X89802515Y-71818790D01*
X89801600Y-71818700D01*
X89801593Y-71818700D01*
X89663607Y-71818700D01*
X89663605Y-71818700D01*
X89528277Y-71845618D01*
X89528267Y-71845621D01*
X89400795Y-71898421D01*
X89400782Y-71898428D01*
X89286058Y-71975085D01*
X89286054Y-71975088D01*
X89188488Y-72072654D01*
X89188485Y-72072658D01*
X89111828Y-72187382D01*
X89111821Y-72187395D01*
X89059021Y-72314867D01*
X89059018Y-72314877D01*
X89032100Y-72450204D01*
X89032100Y-72450207D01*
X89032100Y-72588193D01*
X89032100Y-72588195D01*
X89032099Y-72588195D01*
X89043938Y-72647708D01*
X89037711Y-72717300D01*
X88994848Y-72772477D01*
X88928958Y-72795722D01*
X88922321Y-72795900D01*
X86134500Y-72795900D01*
X86067461Y-72776215D01*
X86021706Y-72723411D01*
X86010500Y-72671900D01*
X86010500Y-72539448D01*
X85994019Y-72435397D01*
X85982171Y-72360591D01*
X85926211Y-72188361D01*
X85926211Y-72188360D01*
X85876459Y-72090718D01*
X85843996Y-72027006D01*
X85830396Y-72008287D01*
X85737558Y-71880505D01*
X85737554Y-71880500D01*
X85609499Y-71752445D01*
X85609494Y-71752441D01*
X85462997Y-71646006D01*
X85462996Y-71646005D01*
X85462994Y-71646004D01*
X85411300Y-71619664D01*
X85301639Y-71563788D01*
X85301636Y-71563787D01*
X85129410Y-71507829D01*
X84950551Y-71479500D01*
X84950546Y-71479500D01*
X84769454Y-71479500D01*
X84769449Y-71479500D01*
X84590587Y-71507829D01*
X84446716Y-71554575D01*
X84376875Y-71556570D01*
X84320718Y-71524325D01*
X79751519Y-66955126D01*
X79718034Y-66893803D01*
X79715200Y-66867445D01*
X79715200Y-61919701D01*
X79734885Y-61852662D01*
X79787689Y-61806907D01*
X79856847Y-61796963D01*
X79908091Y-61816599D01*
X79955095Y-61848006D01*
X79959389Y-61850875D01*
X79959391Y-61850876D01*
X79959395Y-61850878D01*
X80085163Y-61902972D01*
X80086872Y-61903680D01*
X80086876Y-61903680D01*
X80086877Y-61903681D01*
X80222204Y-61930600D01*
X80222207Y-61930600D01*
X80360195Y-61930600D01*
X80451241Y-61912489D01*
X80495528Y-61903680D01*
X80623011Y-61850875D01*
X80625375Y-61849295D01*
X80626801Y-61848848D01*
X80628378Y-61848006D01*
X80628537Y-61848305D01*
X80692051Y-61828420D01*
X80694262Y-61828400D01*
X84098325Y-61828400D01*
X84098327Y-61828400D01*
X84200188Y-61801107D01*
X84291513Y-61748380D01*
X85704174Y-60335719D01*
X85765497Y-60302234D01*
X85791855Y-60299400D01*
X86218245Y-60299400D01*
X86285284Y-60319085D01*
X86305926Y-60335719D01*
X87785879Y-61815671D01*
X87785889Y-61815682D01*
X87790219Y-61820012D01*
X87790220Y-61820013D01*
X87864787Y-61894580D01*
X87927176Y-61930600D01*
X87956113Y-61947307D01*
X88057973Y-61974601D01*
X88057975Y-61974601D01*
X88171023Y-61974601D01*
X88171039Y-61974600D01*
X91216425Y-61974600D01*
X91216427Y-61974600D01*
X91318288Y-61947307D01*
X91409613Y-61894580D01*
X91836580Y-61467613D01*
X91889307Y-61376288D01*
X91916600Y-61274427D01*
X91916600Y-61168973D01*
X91916600Y-59718995D01*
X93549899Y-59718995D01*
X93576818Y-59854322D01*
X93576821Y-59854332D01*
X93629621Y-59981804D01*
X93629628Y-59981817D01*
X93706285Y-60096541D01*
X93706288Y-60096545D01*
X93803854Y-60194111D01*
X93803858Y-60194114D01*
X93918582Y-60270771D01*
X93918595Y-60270778D01*
X94024822Y-60314778D01*
X94046072Y-60323580D01*
X94046076Y-60323580D01*
X94046077Y-60323581D01*
X94181404Y-60350500D01*
X94181407Y-60350500D01*
X94319395Y-60350500D01*
X94427847Y-60328927D01*
X94454728Y-60323580D01*
X94582211Y-60270775D01*
X94696942Y-60194114D01*
X94794514Y-60096542D01*
X94871175Y-59981811D01*
X94923980Y-59854328D01*
X94941973Y-59763873D01*
X94950900Y-59718995D01*
X94950900Y-59581004D01*
X94923981Y-59445677D01*
X94923980Y-59445676D01*
X94923980Y-59445672D01*
X94918626Y-59432747D01*
X94871178Y-59318195D01*
X94871171Y-59318182D01*
X94794514Y-59203458D01*
X94794511Y-59203454D01*
X94696946Y-59105889D01*
X94696233Y-59105304D01*
X94695959Y-59104902D01*
X94692635Y-59101578D01*
X94693265Y-59100947D01*
X94656900Y-59047557D01*
X94650900Y-59009452D01*
X94650900Y-54761155D01*
X94670585Y-54694116D01*
X94687219Y-54673474D01*
X97751935Y-51608758D01*
X100820480Y-48540213D01*
X100873207Y-48448888D01*
X100877133Y-48434234D01*
X116728500Y-48434234D01*
X116728500Y-48585766D01*
X116746873Y-48654335D01*
X116767719Y-48732136D01*
X116781619Y-48756211D01*
X116843485Y-48863365D01*
X116950635Y-48970515D01*
X117081865Y-49046281D01*
X117228234Y-49085500D01*
X117228236Y-49085500D01*
X117379764Y-49085500D01*
X117379766Y-49085500D01*
X117526135Y-49046281D01*
X117657365Y-48970515D01*
X117764515Y-48863365D01*
X117840281Y-48732135D01*
X117879500Y-48585766D01*
X117879500Y-48434234D01*
X117840281Y-48287865D01*
X117839097Y-48285815D01*
X117818354Y-48249887D01*
X117764515Y-48156635D01*
X117657365Y-48049485D01*
X117562075Y-47994469D01*
X117526136Y-47973719D01*
X117452950Y-47954109D01*
X117379766Y-47934500D01*
X117228234Y-47934500D01*
X117081863Y-47973719D01*
X116950635Y-48049485D01*
X116950632Y-48049487D01*
X116843487Y-48156632D01*
X116843485Y-48156635D01*
X116767719Y-48287863D01*
X116749948Y-48354188D01*
X116728500Y-48434234D01*
X100877133Y-48434234D01*
X100900500Y-48347027D01*
X100900500Y-48241573D01*
X100900500Y-45031238D01*
X100920185Y-44964199D01*
X100972989Y-44918444D01*
X100979010Y-44915884D01*
X101042380Y-44890894D01*
X101066136Y-44881525D01*
X101135721Y-44875244D01*
X101197658Y-44907581D01*
X101199306Y-44909199D01*
X101412719Y-45122612D01*
X101412720Y-45122613D01*
X101487287Y-45197180D01*
X101578613Y-45249907D01*
X101680473Y-45277200D01*
X101680475Y-45277200D01*
X103426025Y-45277200D01*
X103426027Y-45277200D01*
X103527888Y-45249907D01*
X103619213Y-45197180D01*
X103958247Y-44858144D01*
X104019568Y-44824661D01*
X104089259Y-44829645D01*
X104093372Y-44831263D01*
X104237334Y-44890894D01*
X104237336Y-44890894D01*
X104237341Y-44890896D01*
X104411304Y-44925499D01*
X104411307Y-44925500D01*
X104411309Y-44925500D01*
X104588693Y-44925500D01*
X104588694Y-44925499D01*
X104646682Y-44913964D01*
X104762658Y-44890896D01*
X104762661Y-44890894D01*
X104762666Y-44890894D01*
X104908672Y-44830417D01*
X104926540Y-44823016D01*
X104926540Y-44823015D01*
X104926547Y-44823013D01*
X105074035Y-44724464D01*
X105199464Y-44599035D01*
X105298013Y-44451547D01*
X105365894Y-44287666D01*
X105372150Y-44256219D01*
X105400499Y-44113695D01*
X105400500Y-44113693D01*
X105400500Y-43386306D01*
X105400499Y-43386304D01*
X105365896Y-43212341D01*
X105365893Y-43212332D01*
X105364022Y-43207816D01*
X105315123Y-43089760D01*
X105298016Y-43048459D01*
X105298009Y-43048446D01*
X105199464Y-42900965D01*
X105199461Y-42900961D01*
X105074038Y-42775538D01*
X105074034Y-42775535D01*
X104926553Y-42676990D01*
X104926540Y-42676983D01*
X104762667Y-42609106D01*
X104762658Y-42609103D01*
X104588694Y-42574500D01*
X104588691Y-42574500D01*
X104411309Y-42574500D01*
X104411306Y-42574500D01*
X104237341Y-42609103D01*
X104237332Y-42609106D01*
X104073459Y-42676983D01*
X104073446Y-42676990D01*
X103925965Y-42775535D01*
X103925961Y-42775538D01*
X103800538Y-42900961D01*
X103800535Y-42900965D01*
X103701990Y-43048446D01*
X103701983Y-43048459D01*
X103634106Y-43212332D01*
X103634103Y-43212341D01*
X103599500Y-43386304D01*
X103599500Y-44032745D01*
X103579815Y-44099784D01*
X103563181Y-44120426D01*
X103243726Y-44439881D01*
X103182403Y-44473366D01*
X103156045Y-44476200D01*
X101950455Y-44476200D01*
X101883416Y-44456515D01*
X101862774Y-44439881D01*
X101788519Y-44365626D01*
X101755034Y-44304303D01*
X101752200Y-44277945D01*
X101752200Y-43697275D01*
X101752200Y-43697273D01*
X101724907Y-43595413D01*
X101672180Y-43504087D01*
X101597613Y-43429520D01*
X101522761Y-43386304D01*
X101506289Y-43376794D01*
X101506288Y-43376793D01*
X101506287Y-43376793D01*
X101492403Y-43373072D01*
X101432745Y-43336708D01*
X101402217Y-43273861D01*
X101400500Y-43253299D01*
X101400500Y-43081903D01*
X101400500Y-43081898D01*
X101389877Y-42993436D01*
X101334361Y-42852658D01*
X101334360Y-42852657D01*
X101334360Y-42852656D01*
X101242922Y-42732077D01*
X101122343Y-42640639D01*
X100981561Y-42585122D01*
X100935926Y-42579642D01*
X100893102Y-42574500D01*
X100106898Y-42574500D01*
X100067853Y-42579188D01*
X100018438Y-42585122D01*
X99877656Y-42640639D01*
X99757077Y-42732077D01*
X99665639Y-42852656D01*
X99610122Y-42993438D01*
X99604188Y-43042853D01*
X99599500Y-43081898D01*
X99599500Y-44418102D01*
X99603516Y-44451547D01*
X99610122Y-44506561D01*
X99665639Y-44647343D01*
X99757077Y-44767922D01*
X99877656Y-44859360D01*
X99877657Y-44859360D01*
X99877658Y-44859361D01*
X100018436Y-44914877D01*
X100018440Y-44914877D01*
X100020990Y-44915883D01*
X100076134Y-44958789D01*
X100099327Y-45024697D01*
X100099500Y-45031238D01*
X100099500Y-48077045D01*
X100079815Y-48144084D01*
X100063181Y-48164726D01*
X93929922Y-54297984D01*
X93929920Y-54297987D01*
X93877193Y-54389312D01*
X93865112Y-54434400D01*
X93865112Y-54434401D01*
X93865111Y-54434400D01*
X93849900Y-54491171D01*
X93849900Y-59009452D01*
X93830215Y-59076491D01*
X93808016Y-59101429D01*
X93808165Y-59101578D01*
X93805604Y-59104138D01*
X93804567Y-59105304D01*
X93803853Y-59105889D01*
X93706288Y-59203454D01*
X93706285Y-59203458D01*
X93629628Y-59318182D01*
X93629621Y-59318195D01*
X93576821Y-59445667D01*
X93576818Y-59445677D01*
X93549900Y-59581004D01*
X93549900Y-59581007D01*
X93549900Y-59718993D01*
X93549900Y-59718995D01*
X93549899Y-59718995D01*
X91916600Y-59718995D01*
X91916600Y-59015473D01*
X91911522Y-58996522D01*
X91908430Y-58984980D01*
X91889307Y-58913612D01*
X91836580Y-58822287D01*
X91035232Y-58020939D01*
X91001747Y-57959616D01*
X90999811Y-57926285D01*
X90999600Y-57926285D01*
X90999600Y-57922649D01*
X90999510Y-57921100D01*
X90999598Y-57920199D01*
X90999600Y-57920193D01*
X90999600Y-57782207D01*
X90999600Y-57782204D01*
X90972681Y-57646877D01*
X90972680Y-57646876D01*
X90972680Y-57646872D01*
X90954802Y-57603711D01*
X90919878Y-57519395D01*
X90919871Y-57519382D01*
X90843214Y-57404658D01*
X90843211Y-57404654D01*
X90833748Y-57395191D01*
X90800263Y-57333868D01*
X90805247Y-57264176D01*
X90818328Y-57238618D01*
X90818911Y-57237744D01*
X90818914Y-57237742D01*
X90895575Y-57123011D01*
X90948380Y-56995528D01*
X90975300Y-56860193D01*
X90975300Y-56722207D01*
X90975300Y-56722204D01*
X90948381Y-56586877D01*
X90948380Y-56586876D01*
X90948380Y-56586872D01*
X90904124Y-56480028D01*
X90895578Y-56459395D01*
X90895571Y-56459382D01*
X90818914Y-56344658D01*
X90818911Y-56344654D01*
X90721346Y-56247089D01*
X90720633Y-56246504D01*
X90720359Y-56246102D01*
X90717035Y-56242778D01*
X90717665Y-56242147D01*
X90681300Y-56188757D01*
X90675300Y-56150652D01*
X90675300Y-48444929D01*
X90675301Y-48444916D01*
X90675301Y-48329474D01*
X90670430Y-48311295D01*
X90648007Y-48227613D01*
X90635709Y-48206312D01*
X90595280Y-48136287D01*
X90520713Y-48061720D01*
X90520712Y-48061719D01*
X90516382Y-48057389D01*
X90516371Y-48057379D01*
X87626815Y-45167822D01*
X87626814Y-45167821D01*
X87626813Y-45167820D01*
X87581150Y-45141456D01*
X87535489Y-45115093D01*
X87462017Y-45095407D01*
X87433627Y-45087800D01*
X87433626Y-45087800D01*
X85818918Y-45087800D01*
X85764490Y-45087784D01*
X85764489Y-45087784D01*
X85764486Y-45087784D01*
X85764373Y-45087799D01*
X85735979Y-45095407D01*
X85666129Y-45093744D01*
X85616206Y-45063313D01*
X85221232Y-44668339D01*
X85187747Y-44607016D01*
X85185811Y-44573685D01*
X85185600Y-44573685D01*
X85185600Y-44570049D01*
X85185510Y-44568500D01*
X85185598Y-44567599D01*
X85185600Y-44567593D01*
X85185600Y-44429607D01*
X85185600Y-44429604D01*
X85173364Y-44368092D01*
X85179591Y-44298500D01*
X85222454Y-44243323D01*
X85288343Y-44220078D01*
X85294981Y-44219900D01*
X91323645Y-44219900D01*
X91390684Y-44239585D01*
X91411326Y-44256219D01*
X95883667Y-48728560D01*
X95917152Y-48789883D01*
X95919090Y-48823215D01*
X95919300Y-48823215D01*
X95919300Y-48826831D01*
X95919390Y-48828380D01*
X95919300Y-48829294D01*
X95919300Y-48829307D01*
X95919300Y-48967293D01*
X95919300Y-48967295D01*
X95919299Y-48967295D01*
X95946218Y-49102622D01*
X95946221Y-49102632D01*
X95999021Y-49230104D01*
X95999028Y-49230117D01*
X96075685Y-49344841D01*
X96075688Y-49344845D01*
X96173254Y-49442411D01*
X96173258Y-49442414D01*
X96287982Y-49519071D01*
X96287995Y-49519078D01*
X96410648Y-49569882D01*
X96415472Y-49571880D01*
X96415476Y-49571880D01*
X96415477Y-49571881D01*
X96550804Y-49598800D01*
X96550807Y-49598800D01*
X96688795Y-49598800D01*
X96779841Y-49580689D01*
X96824128Y-49571880D01*
X96951611Y-49519075D01*
X97066342Y-49442414D01*
X97163914Y-49344842D01*
X97240575Y-49230111D01*
X97293380Y-49102628D01*
X97319659Y-48970515D01*
X97320300Y-48967295D01*
X97320300Y-48829304D01*
X97293381Y-48693977D01*
X97293380Y-48693976D01*
X97293380Y-48693972D01*
X97278746Y-48658642D01*
X97240578Y-48566495D01*
X97240571Y-48566482D01*
X97163914Y-48451758D01*
X97163911Y-48451754D01*
X97066345Y-48354188D01*
X97066341Y-48354185D01*
X96951617Y-48277528D01*
X96951604Y-48277521D01*
X96824132Y-48224721D01*
X96824122Y-48224718D01*
X96688795Y-48197800D01*
X96688793Y-48197800D01*
X96550807Y-48197800D01*
X96550795Y-48197800D01*
X96549880Y-48197890D01*
X96549406Y-48197800D01*
X96544715Y-48197800D01*
X96544715Y-48196909D01*
X96481235Y-48184863D01*
X96450060Y-48162167D01*
X91786815Y-43498922D01*
X91786813Y-43498920D01*
X91741150Y-43472556D01*
X91695489Y-43446193D01*
X91633262Y-43429520D01*
X91593627Y-43418900D01*
X91593626Y-43418900D01*
X68595939Y-43418900D01*
X68595923Y-43418899D01*
X68588327Y-43418899D01*
X68482874Y-43418899D01*
X68381013Y-43446193D01*
X68381011Y-43446193D01*
X68381011Y-43446194D01*
X68289684Y-43498922D01*
X56184322Y-55604284D01*
X56184320Y-55604287D01*
X56134180Y-55691132D01*
X56131593Y-55695612D01*
X56121954Y-55731586D01*
X56121954Y-55731587D01*
X56121953Y-55731586D01*
X56104300Y-55797471D01*
X56104300Y-62363652D01*
X56084615Y-62430691D01*
X56062416Y-62455629D01*
X56062565Y-62455778D01*
X56060004Y-62458338D01*
X56058967Y-62459504D01*
X56058253Y-62460089D01*
X55960688Y-62557654D01*
X55960685Y-62557658D01*
X55884028Y-62672382D01*
X55884021Y-62672395D01*
X55831221Y-62799867D01*
X55831218Y-62799877D01*
X55804300Y-62935204D01*
X55804300Y-62935207D01*
X55804300Y-63073193D01*
X55804300Y-63073195D01*
X55804299Y-63073195D01*
X55831218Y-63208522D01*
X55831221Y-63208532D01*
X55884021Y-63336004D01*
X55884028Y-63336017D01*
X55960685Y-63450741D01*
X55960688Y-63450745D01*
X56058254Y-63548311D01*
X56058258Y-63548314D01*
X56172982Y-63624971D01*
X56172995Y-63624978D01*
X56300467Y-63677778D01*
X56300472Y-63677780D01*
X56300476Y-63677780D01*
X56300477Y-63677781D01*
X56435804Y-63704700D01*
X56435807Y-63704700D01*
X56573795Y-63704700D01*
X56694659Y-63680658D01*
X56709128Y-63677780D01*
X56836611Y-63624975D01*
X56951342Y-63548314D01*
X57048914Y-63450742D01*
X57125575Y-63336011D01*
X57129600Y-63326295D01*
X57143469Y-63292811D01*
X57178380Y-63208528D01*
X57190129Y-63149461D01*
X57205300Y-63073195D01*
X57205300Y-62935204D01*
X57178381Y-62799877D01*
X57178380Y-62799876D01*
X57178380Y-62799872D01*
X57157137Y-62748586D01*
X57125578Y-62672395D01*
X57125571Y-62672382D01*
X57048914Y-62557658D01*
X57048911Y-62557654D01*
X56951346Y-62460089D01*
X56950633Y-62459504D01*
X56950359Y-62459102D01*
X56947035Y-62455778D01*
X56947665Y-62455147D01*
X56911300Y-62401757D01*
X56905300Y-62363652D01*
X56905300Y-56067453D01*
X56924985Y-56000414D01*
X56941614Y-55979777D01*
X58071285Y-54850105D01*
X58132606Y-54816622D01*
X58202298Y-54821606D01*
X58258231Y-54863478D01*
X58262066Y-54868897D01*
X58301385Y-54927741D01*
X58301388Y-54927745D01*
X58398953Y-55025310D01*
X58399656Y-55025887D01*
X58399925Y-55026282D01*
X58403265Y-55029622D01*
X58402631Y-55030255D01*
X58438996Y-55083629D01*
X58445000Y-55121747D01*
X58445000Y-63542244D01*
X58425315Y-63609283D01*
X58408681Y-63629925D01*
X57549280Y-64489325D01*
X57487957Y-64522810D01*
X57423281Y-64519575D01*
X57279410Y-64472829D01*
X57100551Y-64444500D01*
X57100546Y-64444500D01*
X56919454Y-64444500D01*
X56919449Y-64444500D01*
X56740589Y-64472829D01*
X56568363Y-64528787D01*
X56568360Y-64528788D01*
X56407002Y-64611006D01*
X56260505Y-64717441D01*
X56260500Y-64717445D01*
X56132445Y-64845500D01*
X56132441Y-64845505D01*
X56026006Y-64992002D01*
X55943788Y-65153360D01*
X55943787Y-65153363D01*
X55887829Y-65325589D01*
X55862473Y-65485678D01*
X55832544Y-65548813D01*
X55773232Y-65585744D01*
X55703369Y-65584746D01*
X55645137Y-65546136D01*
X55617527Y-65485678D01*
X55598754Y-65367154D01*
X55592171Y-65325591D01*
X55536211Y-65153361D01*
X55536211Y-65153360D01*
X55487600Y-65057957D01*
X55453996Y-64992006D01*
X55405093Y-64924696D01*
X55347558Y-64845505D01*
X55347554Y-64845500D01*
X55219499Y-64717445D01*
X55219494Y-64717441D01*
X55072997Y-64611006D01*
X55072996Y-64611005D01*
X55072994Y-64611004D01*
X54938205Y-64542325D01*
X54887409Y-64494350D01*
X54870500Y-64431840D01*
X54870500Y-51303155D01*
X54890185Y-51236116D01*
X54906819Y-51215474D01*
X56424926Y-49697367D01*
X57968780Y-48153513D01*
X58021507Y-48062188D01*
X58023665Y-48054130D01*
X58060026Y-47994469D01*
X58122872Y-47963937D01*
X58190890Y-47971656D01*
X58237334Y-47990894D01*
X58237338Y-47990894D01*
X58237341Y-47990896D01*
X58411304Y-48025499D01*
X58411307Y-48025500D01*
X58411309Y-48025500D01*
X58588693Y-48025500D01*
X58588694Y-48025499D01*
X58646682Y-48013964D01*
X58762658Y-47990896D01*
X58762661Y-47990894D01*
X58762666Y-47990894D01*
X58926547Y-47923013D01*
X59074035Y-47824464D01*
X59199464Y-47699035D01*
X59298013Y-47551547D01*
X59303409Y-47538521D01*
X59334267Y-47464021D01*
X59365894Y-47387666D01*
X59371241Y-47360789D01*
X59400499Y-47213695D01*
X59400500Y-47213693D01*
X59400500Y-46486306D01*
X59400499Y-46486304D01*
X59365896Y-46312341D01*
X59365893Y-46312332D01*
X59298016Y-46148459D01*
X59298009Y-46148446D01*
X59199464Y-46000965D01*
X59199461Y-46000961D01*
X59155081Y-45956581D01*
X59121596Y-45895258D01*
X59126580Y-45825566D01*
X59168452Y-45769633D01*
X59233916Y-45745216D01*
X59242762Y-45744900D01*
X62608803Y-45744900D01*
X62675842Y-45764585D01*
X62721597Y-45817389D01*
X62723345Y-45821404D01*
X62744222Y-45871804D01*
X62744226Y-45871813D01*
X62744228Y-45871817D01*
X62820885Y-45986541D01*
X62820888Y-45986545D01*
X62918454Y-46084111D01*
X62918458Y-46084114D01*
X63033182Y-46160771D01*
X63033195Y-46160778D01*
X63160667Y-46213578D01*
X63160672Y-46213580D01*
X63160676Y-46213580D01*
X63160677Y-46213581D01*
X63296004Y-46240500D01*
X63296007Y-46240500D01*
X63433995Y-46240500D01*
X63533066Y-46220793D01*
X63569328Y-46213580D01*
X63696811Y-46160775D01*
X63811542Y-46084114D01*
X63909114Y-45986542D01*
X63985775Y-45871811D01*
X64038580Y-45744328D01*
X64055472Y-45659406D01*
X64065500Y-45608995D01*
X64065500Y-45471004D01*
X64038581Y-45335677D01*
X64038580Y-45335676D01*
X64038580Y-45335672D01*
X64003055Y-45249906D01*
X63985778Y-45208195D01*
X63985771Y-45208182D01*
X63909114Y-45093458D01*
X63909111Y-45093454D01*
X63811545Y-44995888D01*
X63811541Y-44995885D01*
X63696817Y-44919228D01*
X63696804Y-44919221D01*
X63569332Y-44866421D01*
X63569322Y-44866418D01*
X63433995Y-44839500D01*
X63433993Y-44839500D01*
X63296007Y-44839500D01*
X63296005Y-44839500D01*
X63160677Y-44866418D01*
X63160667Y-44866421D01*
X63033192Y-44919223D01*
X63033189Y-44919224D01*
X63033189Y-44919225D01*
X63027538Y-44923000D01*
X62960863Y-44943880D01*
X62958646Y-44943900D01*
X56158639Y-44943900D01*
X56158623Y-44943899D01*
X56151027Y-44943899D01*
X56045573Y-44943899D01*
X55977666Y-44962095D01*
X55943712Y-44971193D01*
X55852384Y-45023922D01*
X52626422Y-48249884D01*
X52626420Y-48249887D01*
X52573691Y-48341213D01*
X52549393Y-48431903D01*
X52549392Y-48431909D01*
X52546400Y-48443073D01*
X52546400Y-54434152D01*
X52526715Y-54501191D01*
X52504516Y-54526129D01*
X52504665Y-54526278D01*
X52502104Y-54528838D01*
X52501067Y-54530004D01*
X52500353Y-54530589D01*
X52402788Y-54628154D01*
X52402785Y-54628158D01*
X52326128Y-54742882D01*
X52326121Y-54742895D01*
X52273321Y-54870367D01*
X52273318Y-54870377D01*
X52246400Y-55005704D01*
X52246400Y-55143700D01*
X52246490Y-55144615D01*
X52246400Y-55145089D01*
X52246400Y-55149785D01*
X52245509Y-55149785D01*
X52233465Y-55213260D01*
X52210767Y-55244438D01*
X42965269Y-64489936D01*
X42903946Y-64523421D01*
X42834254Y-64518437D01*
X42802921Y-64498300D01*
X42802245Y-64499288D01*
X42792765Y-64492794D01*
X42689992Y-64447415D01*
X42664865Y-64444500D01*
X40875143Y-64444500D01*
X40875117Y-64444502D01*
X40850012Y-64447413D01*
X40850008Y-64447415D01*
X40747235Y-64492793D01*
X40667794Y-64572234D01*
X40622415Y-64675006D01*
X40622415Y-64675008D01*
X40619500Y-64700131D01*
X40300500Y-64700131D01*
X40300500Y-43299713D01*
X41483500Y-43299713D01*
X41483500Y-43512287D01*
X41516754Y-43722243D01*
X41558427Y-43850500D01*
X41582444Y-43924414D01*
X41678951Y-44113820D01*
X41803890Y-44285786D01*
X41954213Y-44436109D01*
X42126179Y-44561048D01*
X42126181Y-44561049D01*
X42126184Y-44561051D01*
X42315588Y-44657557D01*
X42517757Y-44723246D01*
X42727713Y-44756500D01*
X42727714Y-44756500D01*
X42940286Y-44756500D01*
X42940287Y-44756500D01*
X43150243Y-44723246D01*
X43352412Y-44657557D01*
X43541816Y-44561051D01*
X43563789Y-44545086D01*
X43713786Y-44436109D01*
X43713788Y-44436106D01*
X43713792Y-44436104D01*
X43864104Y-44285792D01*
X43864106Y-44285788D01*
X43864109Y-44285786D01*
X43989048Y-44113820D01*
X43989047Y-44113820D01*
X43989051Y-44113816D01*
X44085557Y-43924412D01*
X44151246Y-43722243D01*
X44184500Y-43512287D01*
X44184500Y-43299713D01*
X44151246Y-43089757D01*
X44085557Y-42887588D01*
X43989051Y-42698184D01*
X43989049Y-42698181D01*
X43989048Y-42698179D01*
X43864109Y-42526213D01*
X43731609Y-42393713D01*
X118003500Y-42393713D01*
X118003500Y-42606287D01*
X118008941Y-42640639D01*
X118030306Y-42775536D01*
X118036754Y-42816243D01*
X118094328Y-42993438D01*
X118102444Y-43018414D01*
X118198951Y-43207820D01*
X118323890Y-43379786D01*
X118474213Y-43530109D01*
X118646179Y-43655048D01*
X118646181Y-43655049D01*
X118646184Y-43655051D01*
X118835588Y-43751557D01*
X119037757Y-43817246D01*
X119247713Y-43850500D01*
X119247714Y-43850500D01*
X119460286Y-43850500D01*
X119460287Y-43850500D01*
X119670243Y-43817246D01*
X119872412Y-43751557D01*
X120061816Y-43655051D01*
X120083789Y-43639086D01*
X120233786Y-43530109D01*
X120233788Y-43530106D01*
X120233792Y-43530104D01*
X120384104Y-43379792D01*
X120384106Y-43379788D01*
X120384109Y-43379786D01*
X120505763Y-43212341D01*
X120509051Y-43207816D01*
X120605557Y-43018412D01*
X120671246Y-42816243D01*
X120704500Y-42606287D01*
X120704500Y-42393713D01*
X120671246Y-42183757D01*
X120605557Y-41981588D01*
X120509051Y-41792184D01*
X120509049Y-41792181D01*
X120509048Y-41792179D01*
X120384109Y-41620213D01*
X120233786Y-41469890D01*
X120061820Y-41344951D01*
X119872414Y-41248444D01*
X119872413Y-41248443D01*
X119872412Y-41248443D01*
X119670243Y-41182754D01*
X119670241Y-41182753D01*
X119670240Y-41182753D01*
X119508957Y-41157208D01*
X119460287Y-41149500D01*
X119247713Y-41149500D01*
X119199042Y-41157208D01*
X119037760Y-41182753D01*
X118835585Y-41248444D01*
X118646179Y-41344951D01*
X118474213Y-41469890D01*
X118323890Y-41620213D01*
X118198951Y-41792179D01*
X118102444Y-41981585D01*
X118036753Y-42183760D01*
X118026111Y-42250951D01*
X118003500Y-42393713D01*
X43731609Y-42393713D01*
X43713786Y-42375890D01*
X43541820Y-42250951D01*
X43352414Y-42154444D01*
X43352413Y-42154443D01*
X43352412Y-42154443D01*
X43150243Y-42088754D01*
X43150241Y-42088753D01*
X43150240Y-42088753D01*
X42988957Y-42063208D01*
X42940287Y-42055500D01*
X42727713Y-42055500D01*
X42679042Y-42063208D01*
X42517760Y-42088753D01*
X42315585Y-42154444D01*
X42126179Y-42250951D01*
X41954213Y-42375890D01*
X41803890Y-42526213D01*
X41678951Y-42698179D01*
X41582444Y-42887585D01*
X41516753Y-43089760D01*
X41497338Y-43212341D01*
X41483500Y-43299713D01*
X40300500Y-43299713D01*
X40300500Y-40724500D01*
X40320185Y-40657461D01*
X40372989Y-40611706D01*
X40424500Y-40600500D01*
X41733560Y-40600500D01*
X41733562Y-40600500D01*
X41809989Y-40580021D01*
X41878511Y-40540460D01*
X41934460Y-40484511D01*
X41974021Y-40415989D01*
X41980341Y-40392404D01*
X42016707Y-40332745D01*
X42079554Y-40302217D01*
X42100115Y-40300500D01*
X121599500Y-40300500D01*
X121666539Y-40320185D01*
G37*
%TD.AperFunction*%
%TD*%
M02*
