%TF.GenerationSoftware,KiCad,Pcbnew,10.0.6*%
%TF.CreationDate,2026-09-14T19:03:00+09:00*%
%TF.ProjectId,katanori61,6b617461-6e6f-4726-9936-312e6b696361,rev?*%
%TF.SameCoordinates,Original*%
%TF.FileFunction,Copper,L2,Bot*%
%TF.FilePolarity,Positive*%
%FSLAX46Y46*%
G04 Gerber Fmt 4.6, Leading zero omitted, Abs format (unit mm)*
G04 Created by KiCad (PCBNEW 10.0.6) date 2026-09-14 19:03:00*
%MOMM*%
%LPD*%
G01*
G04 APERTURE LIST*
G04 Aperture macros list*
%AMRoundRect*
0 Rectangle with rounded corners*
0 $1 Rounding radius*
0 $2 $3 $4 $5 $6 $7 $8 $9 X,Y pos of 4 corners*
0 Add a 4 corners polygon primitive as box body*
4,1,4,$2,$3,$4,$5,$6,$7,$8,$9,$2,$3,0*
0 Add four circle primitives for the rounded corners*
1,1,$1+$1,$2,$3*
1,1,$1+$1,$4,$5*
1,1,$1+$1,$6,$7*
1,1,$1+$1,$8,$9*
0 Add four rect primitives between the rounded corners*
20,1,$1+$1,$2,$3,$4,$5,0*
20,1,$1+$1,$4,$5,$6,$7,0*
20,1,$1+$1,$6,$7,$8,$9,0*
20,1,$1+$1,$8,$9,$2,$3,0*%
G04 Aperture macros list end*
%TA.AperFunction,ComponentPad*%
%ADD10RoundRect,0.250000X0.350000X0.625000X-0.350000X0.625000X-0.350000X-0.625000X0.350000X-0.625000X0*%
%TD*%
%TA.AperFunction,ComponentPad*%
%ADD11O,1.200000X1.750000*%
%TD*%
%TA.AperFunction,ComponentPad*%
%ADD12RoundRect,0.250000X-0.625000X0.350000X-0.625000X-0.350000X0.625000X-0.350000X0.625000X0.350000X0*%
%TD*%
%TA.AperFunction,ComponentPad*%
%ADD13O,1.750000X1.200000*%
%TD*%
%TA.AperFunction,ComponentPad*%
%ADD14RoundRect,0.250000X-0.350000X-0.625000X0.350000X-0.625000X0.350000X0.625000X-0.350000X0.625000X0*%
%TD*%
%TA.AperFunction,ComponentPad*%
%ADD15R,1.700000X1.700000*%
%TD*%
%TA.AperFunction,ComponentPad*%
%ADD16C,1.700000*%
%TD*%
%TA.AperFunction,ComponentPad*%
%ADD17O,2.100000X1.000000*%
%TD*%
%TA.AperFunction,ViaPad*%
%ADD18C,0.800000*%
%TD*%
%TA.AperFunction,ViaPad*%
%ADD19C,0.600000*%
%TD*%
%TA.AperFunction,Conductor*%
%ADD20C,0.200000*%
%TD*%
G04 APERTURE END LIST*
D10*
%TO.P,J4,1*%
%TO.N,SPKP*%
X116300000Y-69350000D03*
D11*
%TO.P,J4,2*%
%TO.N,SPKM*%
X114300000Y-69350000D03*
%TD*%
D12*
%TO.P,J5,1*%
%TO.N,SPKM*%
X51950000Y-59300000D03*
D13*
%TO.P,J5,2*%
%TO.N,SPKO*%
X51950000Y-61300000D03*
%TD*%
D14*
%TO.P,J7,1*%
%TO.N,EN*%
X100500000Y-43750000D03*
D11*
%TO.P,J7,2*%
%TO.N,GND*%
X102500000Y-43750000D03*
%TO.P,J7,3*%
%TO.N,EN*%
X104500000Y-43750000D03*
%TO.P,J7,4*%
%TO.N,GND*%
X106500000Y-43750000D03*
%TD*%
D12*
%TO.P,J10,1*%
%TO.N,GND*%
X43550000Y-50850000D03*
D13*
%TO.P,J10,2*%
%TO.N,BATP*%
X43550000Y-52850000D03*
%TD*%
D15*
%TO.P,J1,1*%
%TO.N,V5*%
X41770000Y-65595000D03*
D16*
%TO.P,J1,2*%
%TO.N,GND*%
X44310000Y-65595000D03*
%TO.P,J1,3*%
%TO.N,V33*%
X46850000Y-65595000D03*
%TO.P,J1,4*%
%TO.N,SDA*%
X49390000Y-65595000D03*
%TO.P,J1,5*%
%TO.N,SCL*%
X51930000Y-65595000D03*
%TO.P,J1,6*%
%TO.N,BTN*%
X54470000Y-65595000D03*
%TO.P,J1,7*%
%TO.N,IN*%
X57010000Y-65595000D03*
%TD*%
D15*
%TO.P,J2,1*%
%TO.N,GND*%
X77240000Y-72630000D03*
D16*
%TO.P,J2,2*%
%TO.N,V33*%
X79780000Y-72630000D03*
%TO.P,J2,3*%
%TO.N,SCL*%
X82320000Y-72630000D03*
%TO.P,J2,4*%
%TO.N,SDA*%
X84860000Y-72630000D03*
%TD*%
D17*
%TO.P,J13,SH*%
%TO.N,GND*%
X116774000Y-55720000D03*
X116774000Y-47080000D03*
%TD*%
D18*
%TO.N,BASE*%
X56332000Y-49300000D03*
X56600000Y-59627400D03*
%TO.N,BATP*%
X74544400Y-47474900D03*
X51496900Y-71860000D03*
%TO.N,CC1*%
X94289500Y-65308400D03*
X117382000Y-52749800D03*
%TO.N,CC2*%
X99922600Y-61090000D03*
X114149200Y-49901700D03*
%TO.N,COL*%
X56508000Y-62793900D03*
X96619800Y-48898300D03*
%TO.N,EN*%
X83695100Y-56529100D03*
X94250400Y-59330700D03*
X95658700Y-49013100D03*
%TO.N,FB*%
X88331100Y-60864900D03*
X87350100Y-54339400D03*
X86654600Y-46156600D03*
%TO.N,GND*%
X96762100Y-53253800D03*
X70194900Y-53738200D03*
%TO.N,IN*%
X56333500Y-53060000D03*
%TO.N,LBI*%
X77574200Y-60047700D03*
X88625100Y-50803300D03*
%TO.N,LBO*%
X79836500Y-60296300D03*
X89144800Y-47924200D03*
%TO.N,N_LED4*%
X74146200Y-58986400D03*
X70084700Y-63076700D03*
%TO.N,PROG1*%
X70942800Y-51766500D03*
X68170700Y-63242800D03*
%TO.N,SCL*%
X73578800Y-50663900D03*
X93745200Y-71860000D03*
X106635900Y-62965000D03*
%TO.N,SDA*%
X73579800Y-49700000D03*
X80747000Y-50107800D03*
X101638500Y-64662500D03*
%TO.N,SPKM*%
X58809800Y-65441400D03*
%TO.N,SPKO*%
X91481400Y-64999100D03*
X105881800Y-59914200D03*
%TO.N,SPKP*%
X104296400Y-59700000D03*
%TO.N,STAT1*%
X67875600Y-54822400D03*
X73410900Y-56023200D03*
%TO.N,STAT2*%
X66530900Y-55057700D03*
X79668100Y-56610900D03*
%TO.N,THERM*%
X65938100Y-53514700D03*
X73592600Y-59815600D03*
%TO.N,V33*%
X76634100Y-47012200D03*
X71682100Y-53475000D03*
X70237600Y-49424400D03*
X89732600Y-72519200D03*
X101681900Y-62944100D03*
%TO.N,V5*%
X54795600Y-56782500D03*
X58877200Y-45538400D03*
X89878700Y-56789500D03*
X83063100Y-48242300D03*
%TO.N,VBUS*%
X86012800Y-55833000D03*
X82089600Y-51773700D03*
X64508000Y-53708200D03*
X62234800Y-60617200D03*
X72052700Y-63021700D03*
%TO.N,VLIPO*%
X72596300Y-50896900D03*
X72963000Y-72194700D03*
%TO.N,VPCC*%
X59700000Y-64127200D03*
X61432300Y-57709600D03*
%TO.N,VSYS*%
X66081900Y-49854900D03*
X75376000Y-44808800D03*
X83157500Y-46134400D03*
X85947200Y-54803700D03*
X91186300Y-58394600D03*
D19*
%TO.N,GND*%
X41000000Y-76400000D03*
X41000000Y-73200000D03*
X41000000Y-70000000D03*
X41000000Y-63600000D03*
X41000000Y-60400000D03*
X41000000Y-57200000D03*
X41000000Y-54000000D03*
X41000000Y-50800000D03*
X41000000Y-47600000D03*
X44200000Y-76400000D03*
X44200000Y-70000000D03*
X44200000Y-60400000D03*
X44200000Y-57200000D03*
X44200000Y-47600000D03*
X47400000Y-76400000D03*
X47400000Y-73200000D03*
X47400000Y-70000000D03*
X47400000Y-54000000D03*
X47400000Y-47600000D03*
X47400000Y-44400000D03*
X47400000Y-41200000D03*
X50600000Y-76400000D03*
X50600000Y-73200000D03*
X50600000Y-63600000D03*
X50600000Y-54000000D03*
X50600000Y-47600000D03*
X50600000Y-41200000D03*
X53800000Y-76400000D03*
X53800000Y-73200000D03*
X53800000Y-54000000D03*
X53800000Y-47600000D03*
X53800000Y-44400000D03*
X53800000Y-41200000D03*
X57000000Y-76400000D03*
X57000000Y-73200000D03*
X57000000Y-41200000D03*
X60200000Y-76400000D03*
X60200000Y-73200000D03*
X60200000Y-50800000D03*
X60200000Y-41200000D03*
X63400000Y-76400000D03*
X63400000Y-73200000D03*
X63400000Y-66800000D03*
X63400000Y-63600000D03*
X63400000Y-41200000D03*
X66600000Y-76400000D03*
X66600000Y-73200000D03*
X66600000Y-66800000D03*
X66600000Y-41200000D03*
X69800000Y-76400000D03*
X69800000Y-66800000D03*
X69800000Y-41200000D03*
X73000000Y-76400000D03*
X73000000Y-66800000D03*
X73000000Y-41200000D03*
X76200000Y-76400000D03*
X76200000Y-41200000D03*
X79400000Y-76400000D03*
X79400000Y-66800000D03*
X79400000Y-63600000D03*
X79400000Y-41200000D03*
X82600000Y-76400000D03*
X82600000Y-66800000D03*
X82600000Y-41200000D03*
X85800000Y-76400000D03*
X85800000Y-44400000D03*
X85800000Y-41200000D03*
X89000000Y-76400000D03*
X89000000Y-66800000D03*
X89000000Y-44400000D03*
X89000000Y-41200000D03*
X92200000Y-76400000D03*
X92200000Y-47600000D03*
X92200000Y-44400000D03*
X92200000Y-41200000D03*
X95400000Y-76400000D03*
X95400000Y-50800000D03*
X95400000Y-47600000D03*
X95400000Y-44400000D03*
X95400000Y-41200000D03*
X98600000Y-76400000D03*
X98600000Y-73200000D03*
X98600000Y-54000000D03*
X98600000Y-47600000D03*
X98600000Y-41200000D03*
X101800000Y-76400000D03*
X101800000Y-73200000D03*
X101800000Y-54000000D03*
X101800000Y-41200000D03*
X105000000Y-76400000D03*
X105000000Y-73200000D03*
X105000000Y-66800000D03*
X105000000Y-54000000D03*
X105000000Y-47600000D03*
X105000000Y-41200000D03*
X108200000Y-76400000D03*
X108200000Y-73200000D03*
X108200000Y-66800000D03*
X108200000Y-47600000D03*
X108200000Y-41200000D03*
X111400000Y-76400000D03*
X111400000Y-66800000D03*
X111400000Y-57200000D03*
X111400000Y-54000000D03*
X111400000Y-41200000D03*
X114600000Y-76400000D03*
X114600000Y-73200000D03*
X114600000Y-63600000D03*
X114600000Y-60400000D03*
X114600000Y-44400000D03*
X114600000Y-41200000D03*
X117800000Y-76400000D03*
X117800000Y-73200000D03*
X117800000Y-70000000D03*
X117800000Y-66800000D03*
X117800000Y-63600000D03*
X117800000Y-60400000D03*
X117800000Y-50800000D03*
X121000000Y-76400000D03*
X121000000Y-73200000D03*
X121000000Y-70000000D03*
X121000000Y-66800000D03*
X121000000Y-63600000D03*
X121000000Y-60400000D03*
X121000000Y-57200000D03*
X121000000Y-54000000D03*
X121000000Y-50800000D03*
X121000000Y-47600000D03*
%TD*%
%TO.N,BASE*%
D20*
X56600000Y-59627400D02*
X57020500Y-59206900D01*
X57020500Y-59206900D02*
X57020500Y-49988500D01*
X57020500Y-49988500D02*
X56332000Y-49300000D01*
%TO.N,BATP*%
X51496900Y-71860000D02*
X53341600Y-71860000D01*
X53341600Y-71860000D02*
X61439100Y-63762500D01*
X61439100Y-63762500D02*
X61439100Y-58725900D01*
X61439100Y-58725900D02*
X63143500Y-57021500D01*
X63143500Y-57021500D02*
X63143500Y-54131900D01*
X63143500Y-54131900D02*
X66218700Y-51056700D01*
X66218700Y-51056700D02*
X66300600Y-51056700D01*
X66300600Y-51056700D02*
X67085300Y-50272000D01*
X67085300Y-50272000D02*
X67085300Y-50020300D01*
X67085300Y-50020300D02*
X69630700Y-47474900D01*
X69630700Y-47474900D02*
X74544400Y-47474900D01*
X43550000Y-52850000D02*
X43550000Y-53701700D01*
X51496900Y-71860000D02*
X48120000Y-68483100D01*
X48120000Y-68483100D02*
X48120000Y-58271700D01*
X48120000Y-58271700D02*
X43550000Y-53701700D01*
%TO.N,CC1*%
X117382000Y-52749800D02*
X118212000Y-53579800D01*
X118212000Y-53579800D02*
X118212000Y-56246900D01*
X118212000Y-56246900D02*
X115984600Y-58474300D01*
X115984600Y-58474300D02*
X104102900Y-58474300D01*
X104102900Y-58474300D02*
X97268800Y-65308400D01*
X97268800Y-65308400D02*
X94289500Y-65308400D01*
%TO.N,CC2*%
X114149200Y-49901700D02*
X111110900Y-49901700D01*
X111110900Y-49901700D02*
X99922600Y-61090000D01*
%TO.N,COL*%
X56508000Y-62793900D02*
X59024300Y-60277600D01*
X59024300Y-60277600D02*
X59024300Y-57753800D01*
X59024300Y-57753800D02*
X66243000Y-50535100D01*
X66243000Y-50535100D02*
X66323300Y-50535100D01*
X66323300Y-50535100D02*
X66733600Y-50124800D01*
X66733600Y-50124800D02*
X66733600Y-49874700D01*
X66733600Y-49874700D02*
X71126400Y-45481900D01*
X71126400Y-45481900D02*
X87637400Y-45481900D01*
X87637400Y-45481900D02*
X91829900Y-49674400D01*
X91829900Y-49674400D02*
X95943900Y-49674400D01*
X95943900Y-49674400D02*
X96619800Y-48998500D01*
X96619800Y-48998500D02*
X96619800Y-48898300D01*
%TO.N,EN*%
X83695100Y-56529100D02*
X83695100Y-58177900D01*
X83695100Y-58177900D02*
X87753600Y-62236400D01*
X87753600Y-62236400D02*
X91344700Y-62236400D01*
X91344700Y-62236400D02*
X94250400Y-59330700D01*
X96623600Y-47968600D02*
X97279600Y-48624600D01*
X97279600Y-48624600D02*
X97279600Y-51686100D01*
X97279600Y-51686100D02*
X94250400Y-54715300D01*
X94250400Y-54715300D02*
X94250400Y-59330700D01*
X99648300Y-43750000D02*
X96623600Y-46774700D01*
X96623600Y-46774700D02*
X96623600Y-47968600D01*
X96623600Y-47968600D02*
X95658700Y-48933500D01*
X95658700Y-48933500D02*
X95658700Y-49013100D01*
X100500000Y-43750000D02*
X99648300Y-43750000D01*
%TO.N,FB*%
X87350100Y-54339400D02*
X88376300Y-54339400D01*
X88376300Y-54339400D02*
X91869800Y-57832900D01*
X91869800Y-57832900D02*
X91869800Y-58706600D01*
X91869800Y-58706600D02*
X89711500Y-60864900D01*
X89711500Y-60864900D02*
X88331100Y-60864900D01*
X87350100Y-54339400D02*
X87350100Y-46852100D01*
X87350100Y-46852100D02*
X86654600Y-46156600D01*
%TO.N,GND*%
X70194900Y-53738200D02*
X74798000Y-58341300D01*
X74798000Y-58341300D02*
X74798000Y-69086300D01*
X74798000Y-69086300D02*
X77240000Y-71528300D01*
X77240000Y-72630000D02*
X77240000Y-71528300D01*
X102500000Y-43750000D02*
X102500000Y-47515900D01*
X102500000Y-47515900D02*
X96762100Y-53253800D01*
X102500000Y-43750000D02*
X103351700Y-43750000D01*
X106500000Y-43750000D02*
X105648300Y-43750000D01*
X105648300Y-43750000D02*
X105648300Y-43004800D01*
X105648300Y-43004800D02*
X105266800Y-42623300D01*
X105266800Y-42623300D02*
X103733200Y-42623300D01*
X103733200Y-42623300D02*
X103351700Y-43004800D01*
X103351700Y-43004800D02*
X103351700Y-43750000D01*
X43550000Y-50850000D02*
X43550000Y-51701700D01*
X44310000Y-65595000D02*
X42423300Y-63708300D01*
X42423300Y-63708300D02*
X42423300Y-52083200D01*
X42423300Y-52083200D02*
X42804800Y-51701700D01*
X42804800Y-51701700D02*
X43550000Y-51701700D01*
X115472300Y-47080000D02*
X110681700Y-47080000D01*
X110681700Y-47080000D02*
X107351700Y-43750000D01*
X106500000Y-43750000D02*
X107351700Y-43750000D01*
X115472300Y-47080000D02*
X115472300Y-55720000D01*
X116774000Y-55720000D02*
X115472300Y-55720000D01*
X116774000Y-47080000D02*
X115472300Y-47080000D01*
%TO.N,IN*%
X56333500Y-53060000D02*
X55832600Y-53560900D01*
X55832600Y-53560900D02*
X55832600Y-64417600D01*
X55832600Y-64417600D02*
X57010000Y-65595000D01*
%TO.N,LBI*%
X77574200Y-60047700D02*
X77574200Y-51861800D01*
X77574200Y-51861800D02*
X80370600Y-49065400D01*
X80370600Y-49065400D02*
X81201500Y-49065400D01*
X81201500Y-49065400D02*
X81789400Y-49653300D01*
X81789400Y-49653300D02*
X81789400Y-50718400D01*
X81789400Y-50718400D02*
X81424000Y-51083800D01*
X81424000Y-51083800D02*
X81424000Y-52311900D01*
X81424000Y-52311900D02*
X85475900Y-56363800D01*
X85475900Y-56363800D02*
X85475900Y-58964000D01*
X85475900Y-58964000D02*
X88044800Y-61532900D01*
X88044800Y-61532900D02*
X89587500Y-61532900D01*
X89587500Y-61532900D02*
X92223500Y-58896900D01*
X92223500Y-58896900D02*
X92223500Y-54401700D01*
X92223500Y-54401700D02*
X88625100Y-50803300D01*
%TO.N,LBO*%
X79836500Y-60296300D02*
X79836500Y-59456600D01*
X79836500Y-59456600D02*
X83436300Y-55856800D01*
X83436300Y-55856800D02*
X83975000Y-55856800D01*
X83975000Y-55856800D02*
X84745000Y-56626800D01*
X84745000Y-56626800D02*
X84745000Y-58730400D01*
X84745000Y-58730400D02*
X87899200Y-61884600D01*
X87899200Y-61884600D02*
X89733100Y-61884600D01*
X89733100Y-61884600D02*
X92575200Y-59042500D01*
X92575200Y-59042500D02*
X92575200Y-51354600D01*
X92575200Y-51354600D02*
X89144800Y-47924200D01*
%TO.N,N_LED4*%
X70084700Y-63076700D02*
X71651800Y-61509600D01*
X71651800Y-61509600D02*
X72881600Y-61509600D01*
X72881600Y-61509600D02*
X74319600Y-60071600D01*
X74319600Y-60071600D02*
X74319600Y-59159800D01*
X74319600Y-59159800D02*
X74146200Y-58986400D01*
%TO.N,PROG1*%
X68170700Y-63242800D02*
X67188600Y-62260700D01*
X67188600Y-62260700D02*
X67188600Y-51906200D01*
X67188600Y-51906200D02*
X68140400Y-50954400D01*
X68140400Y-50954400D02*
X68140400Y-50552700D01*
X68140400Y-50552700D02*
X69920500Y-48772600D01*
X69920500Y-48772600D02*
X70716500Y-48772600D01*
X70716500Y-48772600D02*
X70942700Y-48998800D01*
X70942700Y-48998800D02*
X70942800Y-48998800D01*
X70942800Y-48998800D02*
X70942800Y-51766500D01*
%TO.N,SCL*%
X82320000Y-72630000D02*
X76206300Y-66516300D01*
X76206300Y-66516300D02*
X76206300Y-53291400D01*
X76206300Y-53291400D02*
X73578800Y-50663900D01*
X93745200Y-71860000D02*
X95420300Y-71860000D01*
X95420300Y-71860000D02*
X102300900Y-64979400D01*
X102300900Y-64979400D02*
X102300900Y-64372900D01*
X102300900Y-64372900D02*
X101617800Y-63689800D01*
X101617800Y-63689800D02*
X101463600Y-63689800D01*
X101463600Y-63689800D02*
X100989400Y-63215600D01*
X100989400Y-63215600D02*
X100989400Y-62710200D01*
X100989400Y-62710200D02*
X101407300Y-62292300D01*
X101407300Y-62292300D02*
X105963200Y-62292300D01*
X105963200Y-62292300D02*
X106635900Y-62965000D01*
%TO.N,SDA*%
X79005600Y-60398800D02*
X78268400Y-61136000D01*
X78268400Y-61136000D02*
X77163600Y-61136000D01*
X77163600Y-61136000D02*
X76558000Y-60530400D01*
X76558000Y-60530400D02*
X76558000Y-52678200D01*
X76558000Y-52678200D02*
X73579800Y-49700000D01*
X80747000Y-50107800D02*
X79005600Y-51849200D01*
X79005600Y-51849200D02*
X79005600Y-60398800D01*
X88048400Y-69441600D02*
X79005600Y-60398800D01*
X88048400Y-69441600D02*
X96859400Y-69441600D01*
X96859400Y-69441600D02*
X101638500Y-64662500D01*
X84860000Y-72630000D02*
X88048400Y-69441600D01*
%TO.N,SPKM*%
X51950000Y-59300000D02*
X51950000Y-60151700D01*
X51950000Y-60151700D02*
X52695200Y-60151700D01*
X52695200Y-60151700D02*
X55460600Y-62917100D01*
X55460600Y-62917100D02*
X55460600Y-65027500D01*
X55460600Y-65027500D02*
X55571700Y-65138600D01*
X55571700Y-65138600D02*
X55571700Y-65725400D01*
X55571700Y-65725400D02*
X56591300Y-66745000D01*
X56591300Y-66745000D02*
X57506200Y-66745000D01*
X57506200Y-66745000D02*
X58809800Y-65441400D01*
%TO.N,SPKO*%
X105881800Y-59914200D02*
X104964900Y-58997300D01*
X104964900Y-58997300D02*
X104077300Y-58997300D01*
X104077300Y-58997300D02*
X97112800Y-65961800D01*
X97112800Y-65961800D02*
X92444100Y-65961800D01*
X92444100Y-65961800D02*
X91481400Y-64999100D01*
%TO.N,SPKP*%
X115448300Y-69350000D02*
X115448300Y-68604800D01*
X115448300Y-68604800D02*
X109659200Y-62815700D01*
X109659200Y-62815700D02*
X107412100Y-62815700D01*
X107412100Y-62815700D02*
X104296400Y-59700000D01*
X116300000Y-69350000D02*
X115448300Y-69350000D01*
%TO.N,STAT1*%
X73410900Y-56023200D02*
X73278100Y-56023200D01*
X73278100Y-56023200D02*
X70846600Y-53591700D01*
X70846600Y-53591700D02*
X70846600Y-53410700D01*
X70846600Y-53410700D02*
X70487100Y-53051200D01*
X70487100Y-53051200D02*
X69646800Y-53051200D01*
X69646800Y-53051200D02*
X67875600Y-54822400D01*
%TO.N,STAT2*%
X66530900Y-55057700D02*
X66836900Y-54751700D01*
X66836900Y-54751700D02*
X66836900Y-51760600D01*
X66836900Y-51760600D02*
X67788700Y-50808800D01*
X67788700Y-50808800D02*
X67788700Y-50397300D01*
X67788700Y-50397300D02*
X69798700Y-48387300D01*
X69798700Y-48387300D02*
X70828500Y-48387300D01*
X70828500Y-48387300D02*
X70949600Y-48508400D01*
X70949600Y-48508400D02*
X74967700Y-48508400D01*
X74967700Y-48508400D02*
X75566100Y-47910000D01*
X75566100Y-47910000D02*
X75566100Y-47085500D01*
X75566100Y-47085500D02*
X76291200Y-46360400D01*
X76291200Y-46360400D02*
X76935300Y-46360400D01*
X76935300Y-46360400D02*
X77285800Y-46710900D01*
X77285800Y-46710900D02*
X77285800Y-47282100D01*
X77285800Y-47282100D02*
X76909700Y-47658200D01*
X76909700Y-47658200D02*
X76909700Y-60384800D01*
X76909700Y-60384800D02*
X77259100Y-60734200D01*
X77259100Y-60734200D02*
X77824500Y-60734200D01*
X77824500Y-60734200D02*
X78591200Y-59967500D01*
X78591200Y-59967500D02*
X78591200Y-51342100D01*
X78591200Y-51342100D02*
X80516200Y-49417100D01*
X80516200Y-49417100D02*
X81055900Y-49417100D01*
X81055900Y-49417100D02*
X81437700Y-49798900D01*
X81437700Y-49798900D02*
X81437700Y-50338900D01*
X81437700Y-50338900D02*
X79668100Y-52108500D01*
X79668100Y-52108500D02*
X79668100Y-56610900D01*
%TO.N,THERM*%
X65938100Y-53514700D02*
X65868400Y-53584400D01*
X65868400Y-53584400D02*
X65868400Y-61912300D01*
X65868400Y-61912300D02*
X67870700Y-63914600D01*
X67870700Y-63914600D02*
X68468100Y-63914600D01*
X68468100Y-63914600D02*
X68988600Y-63394100D01*
X68988600Y-63394100D02*
X68988600Y-63220500D01*
X68988600Y-63220500D02*
X72393500Y-59815600D01*
X72393500Y-59815600D02*
X73592600Y-59815600D01*
%TO.N,V33*%
X76634100Y-47012200D02*
X76634000Y-47012200D01*
X76634000Y-47012200D02*
X76634000Y-47339400D01*
X76634000Y-47339400D02*
X75113300Y-48860100D01*
X75113300Y-48860100D02*
X73450300Y-48860100D01*
X73450300Y-48860100D02*
X71944600Y-50365800D01*
X71944600Y-50365800D02*
X71944600Y-51686500D01*
X71944600Y-51686500D02*
X70919100Y-52712000D01*
X71682100Y-53475000D02*
X71791200Y-53475000D01*
X71791200Y-53475000D02*
X75501400Y-57185200D01*
X75501400Y-57185200D02*
X75501400Y-68351400D01*
X75501400Y-68351400D02*
X79780000Y-72630000D01*
X70919100Y-52712000D02*
X70237600Y-52030500D01*
X70237600Y-52030500D02*
X70237600Y-49424400D01*
X71682100Y-53475000D02*
X70919100Y-52712000D01*
X89732600Y-72519200D02*
X95258400Y-72519200D01*
X95258400Y-72519200D02*
X102652600Y-65125000D01*
X102652600Y-65125000D02*
X102652600Y-63914800D01*
X102652600Y-63914800D02*
X101681900Y-62944100D01*
%TO.N,V5*%
X83063100Y-48242300D02*
X83063100Y-50988300D01*
X83063100Y-50988300D02*
X88864300Y-56789500D01*
X88864300Y-56789500D02*
X89878700Y-56789500D01*
X54795600Y-56782500D02*
X54795600Y-49620000D01*
X54795600Y-49620000D02*
X58877200Y-45538400D01*
%TO.N,VBUS*%
X64508000Y-53708200D02*
X64508000Y-53592200D01*
X64508000Y-53592200D02*
X67437000Y-50663200D01*
X67437000Y-50663200D02*
X67437000Y-50250000D01*
X67437000Y-50250000D02*
X69669600Y-48017400D01*
X69669600Y-48017400D02*
X70955900Y-48017400D01*
X70955900Y-48017400D02*
X71095200Y-48156700D01*
X71095200Y-48156700D02*
X74822100Y-48156700D01*
X74822100Y-48156700D02*
X75214400Y-47764400D01*
X75214400Y-47764400D02*
X75214400Y-46939900D01*
X75214400Y-46939900D02*
X76147100Y-46007200D01*
X76147100Y-46007200D02*
X78640600Y-46007200D01*
X78640600Y-46007200D02*
X82184700Y-49551300D01*
X82184700Y-49551300D02*
X82184700Y-51678600D01*
X82184700Y-51678600D02*
X82089600Y-51773700D01*
X82089600Y-51773700D02*
X82089600Y-51909800D01*
X82089600Y-51909800D02*
X86012800Y-55833000D01*
X62234800Y-60617200D02*
X65883900Y-64266300D01*
X65883900Y-64266300D02*
X70808100Y-64266300D01*
X70808100Y-64266300D02*
X72052700Y-63021700D01*
X62234800Y-60617200D02*
X64508000Y-58344000D01*
X64508000Y-58344000D02*
X64508000Y-53708200D01*
%TO.N,VLIPO*%
X72963000Y-72194700D02*
X74536600Y-73768300D01*
X74536600Y-73768300D02*
X80242800Y-73768300D01*
X80242800Y-73768300D02*
X80951300Y-73059800D01*
X80951300Y-73059800D02*
X80951300Y-71825600D01*
X80951300Y-71825600D02*
X75854600Y-66728900D01*
X75854600Y-66728900D02*
X75854600Y-54155200D01*
X75854600Y-54155200D02*
X72596300Y-50896900D01*
%TO.N,VPCC*%
X59700000Y-64127200D02*
X59700000Y-59441900D01*
X59700000Y-59441900D02*
X61432300Y-57709600D01*
%TO.N,VSYS*%
X66081900Y-49854900D02*
X71128000Y-44808800D01*
X71128000Y-44808800D02*
X75376000Y-44808800D01*
X85947200Y-54803700D02*
X85947200Y-54391400D01*
X85947200Y-54391400D02*
X82536400Y-50980600D01*
X82536400Y-50980600D02*
X82536400Y-49405700D01*
X82536400Y-49405700D02*
X82360200Y-49229500D01*
X82360200Y-49229500D02*
X82360200Y-46931700D01*
X82360200Y-46931700D02*
X83157500Y-46134400D01*
X91186300Y-58394600D02*
X89538100Y-58394600D01*
X89538100Y-58394600D02*
X85947200Y-54803700D01*
%TD*%
M02*
