M48
; DRILL file KiCad 10.0.6 date 2026-09-17T04:06:13
; FORMAT={-:-/ absolute / metric / decimal}
; #@! TF.CreationDate,2026-09-17T04:06:13+09:00
; #@! TF.GenerationSoftware,Kicad,Pcbnew,10.0.6
; #@! TF.FileFunction,Plated,1,4,PTH
FMAT,2
METRIC
; #@! TA.AperFunction,Plated,PTH,ViaDrill
T1C0.300
; #@! TA.AperFunction,Plated,PTH,ComponentDrill
T2C0.600
; #@! TA.AperFunction,Plated,PTH,ComponentDrill
T3C0.750
; #@! TA.AperFunction,Plated,PTH,ComponentDrill
T4C1.000
%
G90
G05
T1
X41.0Y-44.4
X41.0Y-47.6
X41.0Y-50.8
X41.0Y-54.0
X41.0Y-57.2
X41.0Y-60.4
X41.0Y-63.6
X41.0Y-70.0
X41.0Y-73.2
X41.0Y-76.4
X44.2Y-41.2
X44.2Y-47.6
X44.2Y-50.8
X44.2Y-54.0
X44.2Y-57.2
X44.2Y-60.4
X44.2Y-70.0
X44.2Y-76.4
X47.4Y-41.2
X47.4Y-44.4
X47.4Y-47.6
X47.4Y-50.8
X47.4Y-54.0
X47.4Y-57.2
X47.4Y-70.0
X47.4Y-73.2
X47.4Y-76.4
X50.6Y-41.2
X50.6Y-44.4
X50.6Y-47.6
X50.6Y-50.8
X50.6Y-54.0
X50.6Y-70.0
X50.6Y-73.2
X50.6Y-76.4
X53.2Y-62.165
X53.8Y-41.2
X53.8Y-44.4
X53.8Y-73.2
X53.8Y-76.4
X53.995Y-55.807
X55.816Y-54.806
X57.0Y-41.2
X57.0Y-76.4
X58.569Y-55.372
X58.896Y-71.299
X59.151Y-63.178
X59.157Y-64.377
X59.161Y-62.213
X60.2Y-41.2
X60.443Y-66.027
X60.902Y-45.4
X61.325Y-62.725
X61.325Y-64.075
X61.437Y-55.562
X62.159Y-69.616
X62.675Y-62.725
X62.675Y-64.075
X62.694Y-73.565
X63.4Y-41.2
X63.953Y-65.278
X66.373Y-52.547
X66.6Y-41.2
X66.6Y-44.4
X66.6Y-47.6
X67.091Y-73.554
X67.716Y-55.787
X67.956Y-59.355
X69.8Y-41.2
X69.8Y-44.4
X69.8Y-47.6
X69.928Y-61.23
X70.609Y-61.722
X70.688Y-62.726
X71.179Y-59.512
X71.562Y-63.63
X72.452Y-74.606
X72.875Y-61.39
X72.875Y-62.64
X72.911Y-49.232
X73.0Y-41.2
X73.0Y-44.4
X73.0Y-47.6
X73.375Y-66.113
X73.486Y-53.098
X74.002Y-65.565
X74.125Y-61.39
X74.125Y-62.64
X74.314Y-55.816
X75.54Y-71.375
X75.952Y-60.315
X76.193Y-56.596
X76.2Y-41.2
X76.303Y-65.382
X77.05Y-62.015
X77.389Y-53.035
X77.878Y-56.515
X78.003Y-57.405
X78.361Y-46.373
X78.65Y-68.666
X79.181Y-46.645
X79.4Y-41.2
X81.022Y-59.632
X82.051Y-46.382
X82.1Y-69.76
X82.279Y-56.34
X82.362Y-52.813
X82.6Y-41.2
X82.6Y-76.4
X83.253Y-46.38
X83.253Y-60.361
X83.268Y-61.693
X84.462Y-53.566
X84.938Y-64.152
X85.282Y-52.85
X85.8Y-41.2
X85.8Y-66.8
X85.8Y-76.4
X85.858Y-59.56
X86.572Y-54.923
X89.0Y-41.2
X89.0Y-44.4
X89.0Y-47.6
X89.0Y-63.6
X89.0Y-70.0
X89.0Y-73.2
X89.0Y-76.4
X89.156Y-58.4
X92.2Y-41.2
X92.2Y-44.4
X92.2Y-47.6
X92.2Y-54.0
X92.2Y-63.6
X92.2Y-70.0
X92.2Y-73.2
X92.2Y-76.4
X95.4Y-41.2
X95.4Y-44.4
X95.4Y-54.0
X95.4Y-70.0
X95.4Y-73.2
X95.4Y-76.4
X97.445Y-51.807
X97.65Y-56.652
X98.6Y-41.2
X98.6Y-47.6
X98.6Y-54.0
X98.6Y-70.0
X98.6Y-73.2
X98.6Y-76.4
X101.382Y-64.785
X101.8Y-41.2
X101.8Y-47.6
X101.8Y-54.0
X101.8Y-70.0
X101.8Y-73.2
X101.8Y-76.4
X105.0Y-41.2
X105.0Y-47.6
X105.0Y-54.0
X105.0Y-70.0
X105.0Y-73.2
X105.0Y-76.4
X105.486Y-59.818
X106.723Y-64.235
X106.725Y-62.966
X107.609Y-56.697
X108.2Y-41.2
X108.2Y-44.4
X108.2Y-47.6
X108.2Y-54.0
X108.2Y-66.8
X108.2Y-70.0
X108.2Y-73.2
X108.2Y-76.4
X111.4Y-41.2
X111.4Y-44.4
X111.4Y-47.6
X111.4Y-50.8
X111.4Y-54.0
X111.4Y-57.2
X111.4Y-63.6
X111.4Y-70.0
X111.4Y-73.2
X111.4Y-76.4
X114.6Y-41.2
X114.6Y-44.4
X114.6Y-47.6
X114.6Y-50.8
X114.6Y-54.0
X114.6Y-57.2
X114.6Y-70.0
X114.6Y-73.2
X114.6Y-76.4
X117.8Y-41.2
X117.8Y-44.4
X117.8Y-47.6
X117.8Y-50.8
X117.8Y-54.0
X117.8Y-57.2
X117.8Y-60.4
X117.8Y-63.6
X117.8Y-66.8
X117.8Y-70.0
X117.8Y-76.4
X121.0Y-41.2
X121.0Y-44.4
X121.0Y-47.6
X121.0Y-50.8
X121.0Y-54.0
X121.0Y-57.2
X121.0Y-60.4
X121.0Y-63.6
X121.0Y-66.8
X121.0Y-70.0
X121.0Y-76.4
T3
X51.95Y-59.3
X51.95Y-61.3
X56.5Y-46.85
X58.5Y-46.85
X100.5Y-43.75
X102.5Y-43.75
X104.5Y-43.75
X106.5Y-43.75
X114.3Y-67.85
X115.7Y-60.45
X115.7Y-62.45
X116.3Y-67.85
T4
X41.77Y-65.595
X44.31Y-65.595
X46.85Y-65.595
X49.39Y-65.595
X51.93Y-65.595
X54.47Y-65.595
X57.01Y-65.595
X77.24Y-72.63
X79.78Y-72.63
X82.32Y-72.63
X84.86Y-72.63
T2
X76.692Y-44.83G85X76.692Y-43.73
G05
X85.332Y-44.83G85X85.332Y-43.73
G05
M30
