%TF.GenerationSoftware,KiCad,Pcbnew,10.0.6*%
%TF.CreationDate,2026-09-16T06:23:10+09:00*%
%TF.ProjectId,katanori61,6b617461-6e6f-4726-9936-312e6b696361,rev?*%
%TF.SameCoordinates,Original*%
%TF.FileFunction,Copper,L2,Bot*%
%TF.FilePolarity,Positive*%
%FSLAX46Y46*%
G04 Gerber Fmt 4.6, Leading zero omitted, Abs format (unit mm)*
G04 Created by KiCad (PCBNEW 10.0.6) date 2026-09-16 06:23:10*
%MOMM*%
%LPD*%
G01*
G04 APERTURE LIST*
G04 Aperture macros list*
%AMRoundRect*
0 Rectangle with rounded corners*
0 $1 Rounding radius*
0 $2 $3 $4 $5 $6 $7 $8 $9 X,Y pos of 4 corners*
0 Add a 4 corners polygon primitive as box body*
4,1,4,$2,$3,$4,$5,$6,$7,$8,$9,$2,$3,0*
0 Add four circle primitives for the rounded corners*
1,1,$1+$1,$2,$3*
1,1,$1+$1,$4,$5*
1,1,$1+$1,$6,$7*
1,1,$1+$1,$8,$9*
0 Add four rect primitives between the rounded corners*
20,1,$1+$1,$2,$3,$4,$5,0*
20,1,$1+$1,$4,$5,$6,$7,0*
20,1,$1+$1,$6,$7,$8,$9,0*
20,1,$1+$1,$8,$9,$2,$3,0*%
G04 Aperture macros list end*
%TA.AperFunction,ComponentPad*%
%ADD10RoundRect,0.250000X0.350000X0.625000X-0.350000X0.625000X-0.350000X-0.625000X0.350000X-0.625000X0*%
%TD*%
%TA.AperFunction,ComponentPad*%
%ADD11O,1.200000X1.750000*%
%TD*%
%TA.AperFunction,ComponentPad*%
%ADD12RoundRect,0.250000X-0.625000X0.350000X-0.625000X-0.350000X0.625000X-0.350000X0.625000X0.350000X0*%
%TD*%
%TA.AperFunction,ComponentPad*%
%ADD13O,1.750000X1.200000*%
%TD*%
%TA.AperFunction,ComponentPad*%
%ADD14RoundRect,0.250000X-0.350000X-0.625000X0.350000X-0.625000X0.350000X0.625000X-0.350000X0.625000X0*%
%TD*%
%TA.AperFunction,ComponentPad*%
%ADD15R,1.700000X1.700000*%
%TD*%
%TA.AperFunction,ComponentPad*%
%ADD16C,1.700000*%
%TD*%
%TA.AperFunction,ComponentPad*%
%ADD17O,2.100000X1.000000*%
%TD*%
%TA.AperFunction,ViaPad*%
%ADD18C,0.800000*%
%TD*%
%TA.AperFunction,ViaPad*%
%ADD19C,0.600000*%
%TD*%
%TA.AperFunction,Conductor*%
%ADD20C,0.200000*%
%TD*%
G04 APERTURE END LIST*
D10*
%TO.P,J4,1*%
%TO.N,SPKP*%
X116300000Y-69350000D03*
D11*
%TO.P,J4,2*%
%TO.N,SPKM*%
X114300000Y-69350000D03*
%TD*%
D12*
%TO.P,J5,1*%
%TO.N,SPKM*%
X51950000Y-59300000D03*
D13*
%TO.P,J5,2*%
%TO.N,SPKO*%
X51950000Y-61300000D03*
%TD*%
D14*
%TO.P,J6,1*%
%TO.N,GND*%
X56500000Y-47950000D03*
D11*
%TO.P,J6,2*%
%TO.N,BTN*%
X58500000Y-47950000D03*
%TD*%
D14*
%TO.P,J7,1*%
%TO.N,EN*%
X100500000Y-43750000D03*
D11*
%TO.P,J7,2*%
%TO.N,GND*%
X102500000Y-43750000D03*
%TO.P,J7,3*%
%TO.N,EN*%
X104500000Y-43750000D03*
%TO.P,J7,4*%
%TO.N,GND*%
X106500000Y-43750000D03*
%TD*%
D12*
%TO.P,J10,1*%
%TO.N,GND*%
X43550000Y-50850000D03*
D13*
%TO.P,J10,2*%
%TO.N,BATP*%
X43550000Y-52850000D03*
%TD*%
D15*
%TO.P,J1,1*%
%TO.N,V5*%
X41770000Y-65595000D03*
D16*
%TO.P,J1,2*%
%TO.N,GND*%
X44310000Y-65595000D03*
%TO.P,J1,3*%
%TO.N,V33*%
X46850000Y-65595000D03*
%TO.P,J1,4*%
%TO.N,SDA*%
X49390000Y-65595000D03*
%TO.P,J1,5*%
%TO.N,SCL*%
X51930000Y-65595000D03*
%TO.P,J1,6*%
%TO.N,BTN*%
X54470000Y-65595000D03*
%TO.P,J1,7*%
%TO.N,IN*%
X57010000Y-65595000D03*
%TD*%
D15*
%TO.P,J2,1*%
%TO.N,GND*%
X77240000Y-72630000D03*
D16*
%TO.P,J2,2*%
%TO.N,V33*%
X79780000Y-72630000D03*
%TO.P,J2,3*%
%TO.N,SCL*%
X82320000Y-72630000D03*
%TO.P,J2,4*%
%TO.N,SDA*%
X84860000Y-72630000D03*
%TD*%
D17*
%TO.P,J13,SH*%
%TO.N,GND*%
X116774000Y-55720000D03*
X116774000Y-47080000D03*
%TD*%
D18*
%TO.N,BATP*%
X74640600Y-47217600D03*
X54073000Y-71860000D03*
%TO.N,CC1*%
X94011900Y-65308400D03*
X117382000Y-52749800D03*
%TO.N,CC2*%
X93868500Y-61090000D03*
X113775100Y-49901700D03*
%TO.N,COL*%
X58875300Y-62682500D03*
X96619800Y-48898300D03*
%TO.N,EN*%
X84325400Y-56845700D03*
X94250400Y-59650000D03*
X88945200Y-49013500D03*
%TO.N,FB*%
X88316500Y-60664400D03*
X87348900Y-54643000D03*
X86633600Y-46177600D03*
%TO.N,GND*%
X67853600Y-60252300D03*
%TO.N,IN*%
X60827800Y-52327500D03*
%TO.N,LBI*%
X79449300Y-59833000D03*
X88625100Y-50836300D03*
%TO.N,LBO*%
X82434500Y-60296300D03*
X89147500Y-47925300D03*
%TO.N,N_LED4*%
X69841500Y-57275000D03*
X69904100Y-63272600D03*
%TO.N,PROG1*%
X71790900Y-51712600D03*
X77268600Y-64246400D03*
%TO.N,PROG3*%
X71522700Y-52688200D03*
X72254700Y-58804400D03*
%TO.N,SCL*%
X73805900Y-51620600D03*
X93745200Y-71860000D03*
X106591200Y-62965000D03*
%TO.N,SDA*%
X72828100Y-50561600D03*
X106630000Y-64235000D03*
X80748900Y-50272300D03*
%TO.N,SPKO*%
X92994500Y-69695600D03*
X105901300Y-59914200D03*
%TO.N,SPKP*%
X104296000Y-59699600D03*
%TO.N,STAT1*%
X67816100Y-54907100D03*
X69119600Y-55212800D03*
%TO.N,STAT2*%
X66864300Y-54713600D03*
X79590300Y-56610900D03*
%TO.N,THERM*%
X73314200Y-59650600D03*
X65938100Y-53484200D03*
%TO.N,V33*%
X72899600Y-48314600D03*
X89732600Y-72519200D03*
X101681900Y-62942500D03*
%TO.N,V5*%
X55023400Y-57688300D03*
X58846400Y-44051700D03*
X89938600Y-56790000D03*
X83064700Y-48139500D03*
%TO.N,VBUS*%
X66098700Y-55791300D03*
X69078700Y-48035200D03*
X76924200Y-51417600D03*
X72052700Y-63021700D03*
%TO.N,VLIPO*%
X64187800Y-51673600D03*
X72963000Y-72194700D03*
%TO.N,VPCC*%
X62224300Y-64127200D03*
X61433500Y-57712400D03*
%TO.N,VSYS*%
X75668500Y-46142600D03*
X66148500Y-50071100D03*
X75627500Y-57085700D03*
X80074700Y-54359900D03*
X80076100Y-61430500D03*
X88097900Y-57674400D03*
X87286600Y-52054400D03*
D19*
%TO.N,GND*%
X41000000Y-76400000D03*
X41000000Y-73200000D03*
X41000000Y-70000000D03*
X41000000Y-63600000D03*
X41000000Y-60400000D03*
X41000000Y-57200000D03*
X41000000Y-54000000D03*
X41000000Y-50800000D03*
X44200000Y-76400000D03*
X44200000Y-70000000D03*
X44200000Y-60400000D03*
X44200000Y-57200000D03*
X47400000Y-76400000D03*
X47400000Y-73200000D03*
X47400000Y-70000000D03*
X47400000Y-63600000D03*
X47400000Y-54000000D03*
X50600000Y-76400000D03*
X50600000Y-73200000D03*
X50600000Y-57200000D03*
X50600000Y-54000000D03*
X50600000Y-47600000D03*
X50600000Y-41200000D03*
X53800000Y-76400000D03*
X53800000Y-73200000D03*
X53800000Y-57200000D03*
X53800000Y-54000000D03*
X53800000Y-47600000D03*
X53800000Y-44400000D03*
X53800000Y-41200000D03*
X57000000Y-76400000D03*
X57000000Y-73200000D03*
X57000000Y-41200000D03*
X60200000Y-76400000D03*
X60200000Y-73200000D03*
X60200000Y-47600000D03*
X60200000Y-41200000D03*
X63400000Y-76400000D03*
X63400000Y-73200000D03*
X63400000Y-66800000D03*
X63400000Y-47600000D03*
X63400000Y-41200000D03*
X66600000Y-76400000D03*
X66600000Y-73200000D03*
X66600000Y-57200000D03*
X66600000Y-41200000D03*
X69800000Y-76400000D03*
X69800000Y-41200000D03*
X73000000Y-76400000D03*
X73000000Y-41200000D03*
X76200000Y-76400000D03*
X76200000Y-66800000D03*
X76200000Y-41200000D03*
X79400000Y-76400000D03*
X79400000Y-66800000D03*
X79400000Y-41200000D03*
X82600000Y-76400000D03*
X82600000Y-50800000D03*
X82600000Y-41200000D03*
X85800000Y-76400000D03*
X85800000Y-44400000D03*
X85800000Y-41200000D03*
X89000000Y-76400000D03*
X89000000Y-66800000D03*
X89000000Y-44400000D03*
X89000000Y-41200000D03*
X92200000Y-76400000D03*
X92200000Y-44400000D03*
X92200000Y-41200000D03*
X95400000Y-76400000D03*
X95400000Y-44400000D03*
X95400000Y-41200000D03*
X98600000Y-76400000D03*
X98600000Y-70000000D03*
X98600000Y-44400000D03*
X98600000Y-41200000D03*
X101800000Y-76400000D03*
X101800000Y-73200000D03*
X101800000Y-66800000D03*
X101800000Y-47600000D03*
X101800000Y-41200000D03*
X105000000Y-76400000D03*
X105000000Y-73200000D03*
X105000000Y-70000000D03*
X105000000Y-47600000D03*
X105000000Y-41200000D03*
X108200000Y-76400000D03*
X108200000Y-73200000D03*
X108200000Y-70000000D03*
X108200000Y-66800000D03*
X108200000Y-47600000D03*
X108200000Y-41200000D03*
X111400000Y-76400000D03*
X111400000Y-70000000D03*
X111400000Y-66800000D03*
X111400000Y-57200000D03*
X111400000Y-41200000D03*
X114600000Y-76400000D03*
X114600000Y-73200000D03*
X114600000Y-63600000D03*
X114600000Y-60400000D03*
X114600000Y-44400000D03*
X114600000Y-41200000D03*
X117800000Y-76400000D03*
X117800000Y-73200000D03*
X117800000Y-70000000D03*
X117800000Y-66800000D03*
X117800000Y-63600000D03*
X117800000Y-60400000D03*
X117800000Y-50800000D03*
X121000000Y-76400000D03*
X121000000Y-73200000D03*
X121000000Y-70000000D03*
X121000000Y-66800000D03*
X121000000Y-63600000D03*
X121000000Y-60400000D03*
X121000000Y-57200000D03*
X121000000Y-54000000D03*
X121000000Y-50800000D03*
X121000000Y-47600000D03*
%TD*%
%TO.N,BATP*%
D20*
X74640600Y-47217600D02*
X74030800Y-46607800D01*
X74030800Y-46607800D02*
X68332100Y-46607800D01*
X68332100Y-46607800D02*
X59879900Y-55060000D01*
X59879900Y-55060000D02*
X59879900Y-66053100D01*
X59879900Y-66053100D02*
X54073000Y-71860000D01*
X43550000Y-53701700D02*
X50660000Y-60811700D01*
X50660000Y-60811700D02*
X50660000Y-68447000D01*
X50660000Y-68447000D02*
X54073000Y-71860000D01*
X43550000Y-52850000D02*
X43550000Y-53701700D01*
%TO.N,BTN*%
X54470000Y-65595000D02*
X56497900Y-63567100D01*
X56497900Y-63567100D02*
X56497900Y-49952100D01*
X56497900Y-49952100D02*
X57648300Y-48801700D01*
X57648300Y-48801700D02*
X57648300Y-47950000D01*
X58500000Y-47950000D02*
X57648300Y-47950000D01*
%TO.N,CC1*%
X117382000Y-52749800D02*
X118212000Y-53579800D01*
X118212000Y-53579800D02*
X118212000Y-56246900D01*
X118212000Y-56246900D02*
X115910500Y-58548400D01*
X115910500Y-58548400D02*
X100771900Y-58548400D01*
X100771900Y-58548400D02*
X94011900Y-65308400D01*
%TO.N,CC2*%
X113775100Y-49901700D02*
X105056800Y-49901700D01*
X105056800Y-49901700D02*
X93868500Y-61090000D01*
%TO.N,COL*%
X96619800Y-48898300D02*
X93199600Y-45478100D01*
X93199600Y-45478100D02*
X68964500Y-45478100D01*
X68964500Y-45478100D02*
X58875300Y-55567300D01*
X58875300Y-55567300D02*
X58875300Y-62682500D01*
%TO.N,EN*%
X94377300Y-52232600D02*
X89406400Y-47261800D01*
X89406400Y-47261800D02*
X88889100Y-47261800D01*
X88889100Y-47261800D02*
X88492400Y-47658500D01*
X88492400Y-47658500D02*
X88492400Y-48560700D01*
X88492400Y-48560700D02*
X88945200Y-49013500D01*
X94250400Y-59650000D02*
X94377300Y-59523100D01*
X94377300Y-59523100D02*
X94377300Y-52232700D01*
X94377300Y-52232700D02*
X94377300Y-52232600D01*
X101733200Y-44876700D02*
X94377300Y-52232600D01*
X101733200Y-44876700D02*
X101351700Y-44495200D01*
X101351700Y-44495200D02*
X101351700Y-43750000D01*
X104500000Y-43750000D02*
X103373300Y-44876700D01*
X103373300Y-44876700D02*
X101733200Y-44876700D01*
X94250400Y-59650000D02*
X92196500Y-61703900D01*
X92196500Y-61703900D02*
X87932600Y-61703900D01*
X87932600Y-61703900D02*
X84325400Y-58096700D01*
X84325400Y-58096700D02*
X84325400Y-56845700D01*
X100500000Y-43750000D02*
X101351700Y-43750000D01*
%TO.N,FB*%
X88316500Y-60664400D02*
X86471600Y-58819500D01*
X86471600Y-58819500D02*
X86471600Y-55520300D01*
X86471600Y-55520300D02*
X87348900Y-54643000D01*
X86633600Y-46177600D02*
X86633600Y-47726500D01*
X86633600Y-47726500D02*
X90619800Y-51712700D01*
X90619800Y-51712700D02*
X90619800Y-58361100D01*
X90619800Y-58361100D02*
X88316500Y-60664400D01*
%TO.N,GND*%
X67853600Y-60252300D02*
X71272400Y-63671100D01*
X71272400Y-63671100D02*
X71272400Y-65560700D01*
X71272400Y-65560700D02*
X77240000Y-71528300D01*
X77240000Y-72630000D02*
X77240000Y-71528300D01*
X102500000Y-43750000D02*
X103351700Y-43750000D01*
X106500000Y-43750000D02*
X105648300Y-43750000D01*
X105648300Y-43750000D02*
X105648300Y-43004800D01*
X105648300Y-43004800D02*
X105266800Y-42623300D01*
X105266800Y-42623300D02*
X103733200Y-42623300D01*
X103733200Y-42623300D02*
X103351700Y-43004800D01*
X103351700Y-43004800D02*
X103351700Y-43750000D01*
X43550000Y-50850000D02*
X43550000Y-51701700D01*
X44310000Y-65595000D02*
X42423300Y-63708300D01*
X42423300Y-63708300D02*
X42423300Y-52083200D01*
X42423300Y-52083200D02*
X42804800Y-51701700D01*
X42804800Y-51701700D02*
X43550000Y-51701700D01*
X115472300Y-47080000D02*
X110681700Y-47080000D01*
X110681700Y-47080000D02*
X107351700Y-43750000D01*
X106500000Y-43750000D02*
X107351700Y-43750000D01*
X115472300Y-47080000D02*
X115472300Y-55720000D01*
X116774000Y-55720000D02*
X115472300Y-55720000D01*
X116774000Y-47080000D02*
X115472300Y-47080000D01*
%TO.N,IN*%
X57010000Y-65595000D02*
X57010000Y-56145300D01*
X57010000Y-56145300D02*
X60827800Y-52327500D01*
%TO.N,LBI*%
X79449300Y-59833000D02*
X80247800Y-59034500D01*
X80247800Y-59034500D02*
X80247800Y-55672300D01*
X80247800Y-55672300D02*
X79393400Y-54817900D01*
X79393400Y-54817900D02*
X79393400Y-50198000D01*
X79393400Y-50198000D02*
X82110500Y-47480900D01*
X82110500Y-47480900D02*
X85269700Y-47480900D01*
X85269700Y-47480900D02*
X88625100Y-50836300D01*
%TO.N,LBO*%
X82434500Y-60296300D02*
X82434500Y-57812900D01*
X82434500Y-57812900D02*
X84075300Y-56172100D01*
X84075300Y-56172100D02*
X84574800Y-56172100D01*
X84574800Y-56172100D02*
X85909500Y-57506800D01*
X85909500Y-57506800D02*
X85909500Y-59183500D01*
X85909500Y-59183500D02*
X88078200Y-61352200D01*
X88078200Y-61352200D02*
X88556500Y-61352200D01*
X88556500Y-61352200D02*
X91017800Y-58890900D01*
X91017800Y-58890900D02*
X91017800Y-49795600D01*
X91017800Y-49795600D02*
X89147500Y-47925300D01*
%TO.N,N_LED4*%
X69904100Y-63272600D02*
X67163000Y-60531500D01*
X67163000Y-60531500D02*
X67163000Y-59953500D01*
X67163000Y-59953500D02*
X69841500Y-57275000D01*
%TO.N,PROG1*%
X71790900Y-51712600D02*
X72264400Y-52186100D01*
X72264400Y-52186100D02*
X72264400Y-55975400D01*
X72264400Y-55975400D02*
X77268600Y-60979600D01*
X77268600Y-60979600D02*
X77268600Y-64246400D01*
%TO.N,PROG3*%
X72254700Y-58804400D02*
X72254700Y-56887200D01*
X72254700Y-56887200D02*
X71522700Y-56155200D01*
X71522700Y-56155200D02*
X71522700Y-52688200D01*
%TO.N,SCL*%
X82320000Y-72630000D02*
X82320000Y-65197400D01*
X82320000Y-65197400D02*
X72616100Y-55493500D01*
X72616100Y-55493500D02*
X72616100Y-51616200D01*
X72616100Y-51616200D02*
X72176400Y-51176500D01*
X72176400Y-51176500D02*
X72176400Y-50250200D01*
X72176400Y-50250200D02*
X72520900Y-49905700D01*
X72520900Y-49905700D02*
X73094000Y-49905700D01*
X73094000Y-49905700D02*
X73805900Y-50617600D01*
X73805900Y-50617600D02*
X73805900Y-51620600D01*
X93745200Y-71860000D02*
X102640200Y-62965000D01*
X102640200Y-62965000D02*
X106591200Y-62965000D01*
%TO.N,SDA*%
X80381900Y-62110700D02*
X79730600Y-62110700D01*
X79730600Y-62110700D02*
X72967800Y-55347900D01*
X72967800Y-55347900D02*
X72967800Y-50701300D01*
X72967800Y-50701300D02*
X72828100Y-50561600D01*
X80381900Y-62110700D02*
X81031500Y-61461100D01*
X81031500Y-61461100D02*
X81031500Y-50554900D01*
X81031500Y-50554900D02*
X80748900Y-50272300D01*
X84860000Y-72630000D02*
X84860000Y-66588800D01*
X84860000Y-66588800D02*
X80381900Y-62110700D01*
X84860000Y-72630000D02*
X85441400Y-73211400D01*
X85441400Y-73211400D02*
X97653600Y-73211400D01*
X97653600Y-73211400D02*
X106630000Y-64235000D01*
%TO.N,SPKO*%
X105901300Y-59914200D02*
X105031400Y-59044300D01*
X105031400Y-59044300D02*
X103645800Y-59044300D01*
X103645800Y-59044300D02*
X92994500Y-69695600D01*
%TO.N,SPKP*%
X115448300Y-69350000D02*
X115448300Y-68604800D01*
X115448300Y-68604800D02*
X109659200Y-62815700D01*
X109659200Y-62815700D02*
X107412100Y-62815700D01*
X107412100Y-62815700D02*
X104296000Y-59699600D01*
X116300000Y-69350000D02*
X115448300Y-69350000D01*
%TO.N,STAT1*%
X69119600Y-55212800D02*
X68121800Y-55212800D01*
X68121800Y-55212800D02*
X67816100Y-54907100D01*
%TO.N,STAT2*%
X79590300Y-56610900D02*
X79590300Y-55904700D01*
X79590300Y-55904700D02*
X73239600Y-49554000D01*
X73239600Y-49554000D02*
X72023900Y-49554000D01*
X72023900Y-49554000D02*
X66864300Y-54713600D01*
%TO.N,THERM*%
X65938100Y-53484200D02*
X66212600Y-53758700D01*
X66212600Y-53758700D02*
X66212600Y-54983400D01*
X66212600Y-54983400D02*
X66594500Y-55365300D01*
X66594500Y-55365300D02*
X66652400Y-55365300D01*
X66652400Y-55365300D02*
X67151700Y-55864600D01*
X67151700Y-55864600D02*
X69889200Y-55864600D01*
X69889200Y-55864600D02*
X71498900Y-57474300D01*
X71498900Y-57474300D02*
X71498900Y-58973800D01*
X71498900Y-58973800D02*
X72175700Y-59650600D01*
X72175700Y-59650600D02*
X73314200Y-59650600D01*
%TO.N,V33*%
X72899600Y-48314600D02*
X76674100Y-52089100D01*
X76674100Y-52089100D02*
X77265900Y-52089100D01*
X77265900Y-52089100D02*
X77649700Y-51705300D01*
X77649700Y-51705300D02*
X77649700Y-51154400D01*
X77649700Y-51154400D02*
X74769600Y-48274300D01*
X74769600Y-48274300D02*
X74278200Y-48274300D01*
X74278200Y-48274300D02*
X73315100Y-47311200D01*
X73315100Y-47311200D02*
X68813000Y-47311200D01*
X68813000Y-47311200D02*
X67063900Y-49060300D01*
X67063900Y-49060300D02*
X67063900Y-50077300D01*
X67063900Y-50077300D02*
X64864800Y-52276400D01*
X64864800Y-52276400D02*
X64864800Y-62379200D01*
X64864800Y-62379200D02*
X76217300Y-73731700D01*
X76217300Y-73731700D02*
X78678300Y-73731700D01*
X78678300Y-73731700D02*
X79780000Y-72630000D01*
X101681900Y-62942500D02*
X92105200Y-72519200D01*
X92105200Y-72519200D02*
X89732600Y-72519200D01*
%TO.N,V5*%
X89938600Y-56790000D02*
X89938600Y-53758800D01*
X89938600Y-53758800D02*
X84319400Y-48139600D01*
X84319400Y-48139600D02*
X83064700Y-48139600D01*
X83064700Y-48139600D02*
X83064700Y-48139500D01*
X58846400Y-44051700D02*
X58053800Y-44051700D01*
X58053800Y-44051700D02*
X55023400Y-47082100D01*
X55023400Y-47082100D02*
X55023400Y-57688300D01*
%TO.N,VBUS*%
X76924200Y-51417600D02*
X73169500Y-47662900D01*
X73169500Y-47662900D02*
X69451000Y-47662900D01*
X69451000Y-47662900D02*
X69078700Y-48035200D01*
X66311000Y-55579100D02*
X65860900Y-55129000D01*
X65860900Y-55129000D02*
X65860900Y-55072500D01*
X65860900Y-55072500D02*
X65267200Y-54478800D01*
X65267200Y-54478800D02*
X65267200Y-52643100D01*
X65267200Y-52643100D02*
X65615900Y-52294400D01*
X65615900Y-52294400D02*
X65615900Y-52022600D01*
X65615900Y-52022600D02*
X67539400Y-50099100D01*
X67539400Y-50099100D02*
X67539400Y-49603800D01*
X67539400Y-49603800D02*
X67849300Y-49293900D01*
X67849300Y-49293900D02*
X67849300Y-49291900D01*
X67849300Y-49291900D02*
X69078700Y-48062500D01*
X69078700Y-48062500D02*
X69078700Y-48035200D01*
X66311000Y-55579100D02*
X66448900Y-55717000D01*
X66448900Y-55717000D02*
X66505400Y-55717000D01*
X66505400Y-55717000D02*
X67004700Y-56216300D01*
X67004700Y-56216300D02*
X69584100Y-56216300D01*
X69584100Y-56216300D02*
X69846600Y-56478800D01*
X69846600Y-56478800D02*
X69983600Y-56478800D01*
X69983600Y-56478800D02*
X71147200Y-57642400D01*
X71147200Y-57642400D02*
X71147200Y-59119400D01*
X71147200Y-59119400D02*
X71498900Y-59471100D01*
X71498900Y-59471100D02*
X71498900Y-62467900D01*
X71498900Y-62467900D02*
X72052700Y-63021700D01*
X66311000Y-55579100D02*
X66098700Y-55791300D01*
%TO.N,VLIPO*%
X64187800Y-51673600D02*
X64187800Y-63419500D01*
X64187800Y-63419500D02*
X72963000Y-72194700D01*
%TO.N,VPCC*%
X62224300Y-64127200D02*
X62224300Y-58503200D01*
X62224300Y-58503200D02*
X61433500Y-57712400D01*
%TO.N,VSYS*%
X75668500Y-46142600D02*
X75668500Y-47111500D01*
X75668500Y-47111500D02*
X74908200Y-47871800D01*
X74908200Y-47871800D02*
X74373100Y-47871800D01*
X74373100Y-47871800D02*
X73460800Y-46959500D01*
X73460800Y-46959500D02*
X68667400Y-46959500D01*
X68667400Y-46959500D02*
X66148500Y-49478400D01*
X66148500Y-49478400D02*
X66148500Y-50071100D01*
X80076100Y-61266100D02*
X79807900Y-61266100D01*
X79807900Y-61266100D02*
X75627500Y-57085700D01*
X80076100Y-61266100D02*
X80610700Y-60731500D01*
X80610700Y-60731500D02*
X80610700Y-54895900D01*
X80610700Y-54895900D02*
X80074700Y-54359900D01*
X80074700Y-54359900D02*
X80074700Y-50014000D01*
X80074700Y-50014000D02*
X80493600Y-49595100D01*
X80493600Y-49595100D02*
X84827300Y-49595100D01*
X84827300Y-49595100D02*
X87286600Y-52054400D01*
X88097900Y-57674400D02*
X88097900Y-52865700D01*
X88097900Y-52865700D02*
X87286600Y-52054400D01*
X80076100Y-61266100D02*
X80076100Y-61430500D01*
%TD*%
%TA.AperFunction,Conductor*%
%TO.N,GND*%
G36*
X65470503Y-56119956D02*
G01*
X65492402Y-56144778D01*
X65554585Y-56237841D01*
X65554588Y-56237845D01*
X65652156Y-56335413D01*
X65766882Y-56412071D01*
X65766895Y-56412078D01*
X65878218Y-56458189D01*
X65894372Y-56464880D01*
X65894376Y-56464880D01*
X65894377Y-56464881D01*
X66029704Y-56491800D01*
X66029707Y-56491800D01*
X66167695Y-56491800D01*
X66258741Y-56473689D01*
X66303028Y-56464880D01*
X66430400Y-56412121D01*
X66430504Y-56412078D01*
X66430504Y-56412077D01*
X66430511Y-56412075D01*
X66430516Y-56412071D01*
X66430519Y-56412070D01*
X66467928Y-56387074D01*
X66534605Y-56366195D01*
X66601986Y-56384679D01*
X66624501Y-56402494D01*
X66758787Y-56536780D01*
X66850112Y-56589507D01*
X66951973Y-56616800D01*
X69209681Y-56616800D01*
X69276720Y-56636485D01*
X69322475Y-56689289D01*
X69332419Y-56758447D01*
X69303394Y-56822003D01*
X69297402Y-56828437D01*
X69297385Y-56828458D01*
X69220728Y-56943182D01*
X69220721Y-56943195D01*
X69167921Y-57070667D01*
X69167918Y-57070677D01*
X69141000Y-57206004D01*
X69141000Y-57344000D01*
X69141090Y-57344915D01*
X69141000Y-57345389D01*
X69141000Y-57350085D01*
X69140109Y-57350085D01*
X69128065Y-57413560D01*
X69105367Y-57444738D01*
X66842522Y-59707584D01*
X66842520Y-59707587D01*
X66789793Y-59798911D01*
X66764640Y-59892786D01*
X66764639Y-59892788D01*
X66762500Y-59900767D01*
X66762500Y-59900773D01*
X66762500Y-60478773D01*
X66762500Y-60584227D01*
X66767018Y-60601089D01*
X66789793Y-60686089D01*
X66794591Y-60694399D01*
X66842520Y-60777413D01*
X66842522Y-60777415D01*
X69167967Y-63102860D01*
X69201452Y-63164183D01*
X69203390Y-63197515D01*
X69203600Y-63197515D01*
X69203600Y-63201131D01*
X69203690Y-63202680D01*
X69203600Y-63203594D01*
X69203600Y-63203607D01*
X69203600Y-63341593D01*
X69203600Y-63341595D01*
X69203599Y-63341595D01*
X69230518Y-63476922D01*
X69230521Y-63476932D01*
X69283321Y-63604404D01*
X69283328Y-63604417D01*
X69359985Y-63719141D01*
X69359988Y-63719145D01*
X69457554Y-63816711D01*
X69457558Y-63816714D01*
X69572282Y-63893371D01*
X69572295Y-63893378D01*
X69643489Y-63922867D01*
X69699772Y-63946180D01*
X69699776Y-63946180D01*
X69699777Y-63946181D01*
X69835104Y-63973100D01*
X69835107Y-63973100D01*
X69973095Y-63973100D01*
X70064141Y-63954989D01*
X70108428Y-63946180D01*
X70235911Y-63893375D01*
X70350642Y-63816714D01*
X70448214Y-63719142D01*
X70524875Y-63604411D01*
X70535493Y-63578778D01*
X70546451Y-63552321D01*
X70577680Y-63476928D01*
X70599281Y-63368334D01*
X70604600Y-63341595D01*
X70604600Y-63203604D01*
X70577681Y-63068277D01*
X70577680Y-63068276D01*
X70577680Y-63068272D01*
X70576657Y-63065803D01*
X70524878Y-62940795D01*
X70524871Y-62940782D01*
X70448214Y-62826058D01*
X70448211Y-62826054D01*
X70350645Y-62728488D01*
X70350641Y-62728485D01*
X70235917Y-62651828D01*
X70235904Y-62651821D01*
X70108432Y-62599021D01*
X70108422Y-62599018D01*
X69973095Y-62572100D01*
X69973093Y-62572100D01*
X69835107Y-62572100D01*
X69835095Y-62572100D01*
X69834180Y-62572190D01*
X69833706Y-62572100D01*
X69829015Y-62572100D01*
X69829015Y-62571209D01*
X69765535Y-62559163D01*
X69734360Y-62536467D01*
X67599819Y-60401926D01*
X67566334Y-60340603D01*
X67563500Y-60314245D01*
X67563500Y-60170754D01*
X67583185Y-60103715D01*
X67599814Y-60083078D01*
X69671761Y-58011130D01*
X69733082Y-57977647D01*
X69766415Y-57975710D01*
X69766415Y-57975500D01*
X69770046Y-57975500D01*
X69771595Y-57975410D01*
X69772505Y-57975499D01*
X69772507Y-57975500D01*
X69772509Y-57975500D01*
X69910495Y-57975500D01*
X70001541Y-57957389D01*
X70045828Y-57948580D01*
X70173311Y-57895775D01*
X70288042Y-57819114D01*
X70385614Y-57721542D01*
X70411553Y-57682720D01*
X70465165Y-57637915D01*
X70534490Y-57629208D01*
X70597518Y-57659362D01*
X70602337Y-57663930D01*
X70710381Y-57771974D01*
X70743866Y-57833297D01*
X70746700Y-57859655D01*
X70746700Y-59066673D01*
X70746700Y-59172127D01*
X70757839Y-59213700D01*
X70773993Y-59273989D01*
X70797148Y-59314093D01*
X70826720Y-59365313D01*
X70826722Y-59365315D01*
X71062081Y-59600674D01*
X71095566Y-59661997D01*
X71098400Y-59688355D01*
X71098400Y-62415173D01*
X71098400Y-62520627D01*
X71111953Y-62571209D01*
X71125693Y-62622489D01*
X71152056Y-62668150D01*
X71178420Y-62713813D01*
X71178422Y-62713815D01*
X71316567Y-62851960D01*
X71350052Y-62913283D01*
X71351990Y-62946615D01*
X71352200Y-62946615D01*
X71352200Y-62950231D01*
X71352290Y-62951780D01*
X71352200Y-62952694D01*
X71352200Y-62952707D01*
X71352200Y-63090693D01*
X71352200Y-63090695D01*
X71352199Y-63090695D01*
X71379118Y-63226022D01*
X71379121Y-63226032D01*
X71431921Y-63353504D01*
X71431928Y-63353517D01*
X71508585Y-63468241D01*
X71508588Y-63468245D01*
X71606154Y-63565811D01*
X71606158Y-63565814D01*
X71720882Y-63642471D01*
X71720895Y-63642478D01*
X71813071Y-63680658D01*
X71848372Y-63695280D01*
X71848376Y-63695280D01*
X71848377Y-63695281D01*
X71983704Y-63722200D01*
X71983707Y-63722200D01*
X72121695Y-63722200D01*
X72212741Y-63704089D01*
X72257028Y-63695280D01*
X72384511Y-63642475D01*
X72499242Y-63565814D01*
X72596814Y-63468242D01*
X72673475Y-63353511D01*
X72726280Y-63226028D01*
X72745572Y-63129041D01*
X72753200Y-63090695D01*
X72753200Y-62952704D01*
X72726281Y-62817377D01*
X72726280Y-62817376D01*
X72726280Y-62817372D01*
X72698992Y-62751493D01*
X72673478Y-62689895D01*
X72673471Y-62689882D01*
X72596814Y-62575158D01*
X72596811Y-62575154D01*
X72499245Y-62477588D01*
X72499241Y-62477585D01*
X72384517Y-62400928D01*
X72384504Y-62400921D01*
X72257032Y-62348121D01*
X72257022Y-62348118D01*
X72121695Y-62321200D01*
X72121693Y-62321200D01*
X72023400Y-62321200D01*
X71956361Y-62301515D01*
X71910606Y-62248711D01*
X71899400Y-62197200D01*
X71899400Y-60152793D01*
X71919085Y-60085754D01*
X71971889Y-60039999D01*
X72041047Y-60030055D01*
X72055477Y-60033015D01*
X72122973Y-60051101D01*
X72122974Y-60051101D01*
X72236023Y-60051101D01*
X72236039Y-60051100D01*
X72673653Y-60051100D01*
X72740692Y-60070785D01*
X72765627Y-60092985D01*
X72765778Y-60092835D01*
X72768364Y-60095421D01*
X72769513Y-60096444D01*
X72770089Y-60097146D01*
X72867654Y-60194711D01*
X72867658Y-60194714D01*
X72982382Y-60271371D01*
X72982395Y-60271378D01*
X73100676Y-60320371D01*
X73109872Y-60324180D01*
X73109876Y-60324180D01*
X73109877Y-60324181D01*
X73245204Y-60351100D01*
X73245207Y-60351100D01*
X73383195Y-60351100D01*
X73494663Y-60328927D01*
X73518528Y-60324180D01*
X73636692Y-60275235D01*
X73646004Y-60271378D01*
X73646004Y-60271377D01*
X73646011Y-60271375D01*
X73760742Y-60194714D01*
X73858314Y-60097142D01*
X73934975Y-59982411D01*
X73942643Y-59963900D01*
X73967482Y-59903932D01*
X73987780Y-59854928D01*
X74002374Y-59781561D01*
X74014700Y-59719595D01*
X74014700Y-59581604D01*
X73987781Y-59446277D01*
X73987780Y-59446276D01*
X73987780Y-59446272D01*
X73987534Y-59445677D01*
X73934978Y-59318795D01*
X73934971Y-59318782D01*
X73858314Y-59204058D01*
X73858311Y-59204054D01*
X73760745Y-59106488D01*
X73760741Y-59106485D01*
X73646017Y-59029828D01*
X73646004Y-59029821D01*
X73518532Y-58977021D01*
X73518522Y-58977018D01*
X73383195Y-58950100D01*
X73383193Y-58950100D01*
X73245207Y-58950100D01*
X73245205Y-58950100D01*
X73103898Y-58978208D01*
X73103365Y-58975531D01*
X73045222Y-58975998D01*
X72986142Y-58938697D01*
X72956608Y-58875376D01*
X72955200Y-58856744D01*
X72955200Y-58735404D01*
X72928281Y-58600077D01*
X72928280Y-58600076D01*
X72928280Y-58600072D01*
X72928278Y-58600067D01*
X72875478Y-58472595D01*
X72875471Y-58472582D01*
X72798814Y-58357858D01*
X72798811Y-58357854D01*
X72701246Y-58260289D01*
X72700533Y-58259704D01*
X72700259Y-58259302D01*
X72696935Y-58255978D01*
X72697565Y-58255347D01*
X72661200Y-58201957D01*
X72655200Y-58163852D01*
X72655200Y-57231954D01*
X72674885Y-57164915D01*
X72727689Y-57119160D01*
X72796847Y-57109216D01*
X72860403Y-57138241D01*
X72866881Y-57144273D01*
X76831781Y-61109173D01*
X76865266Y-61170496D01*
X76868100Y-61196854D01*
X76868100Y-63605852D01*
X76848415Y-63672891D01*
X76826216Y-63697829D01*
X76826365Y-63697978D01*
X76823804Y-63700538D01*
X76822767Y-63701704D01*
X76822053Y-63702289D01*
X76724488Y-63799854D01*
X76724485Y-63799858D01*
X76647828Y-63914582D01*
X76647821Y-63914595D01*
X76595021Y-64042067D01*
X76595018Y-64042077D01*
X76568100Y-64177404D01*
X76568100Y-64177407D01*
X76568100Y-64315393D01*
X76568100Y-64315395D01*
X76568099Y-64315395D01*
X76595018Y-64450722D01*
X76595021Y-64450732D01*
X76647821Y-64578204D01*
X76647828Y-64578217D01*
X76724485Y-64692941D01*
X76724488Y-64692945D01*
X76822054Y-64790511D01*
X76822058Y-64790514D01*
X76936782Y-64867171D01*
X76936795Y-64867178D01*
X77036752Y-64908581D01*
X77064272Y-64919980D01*
X77064276Y-64919980D01*
X77064277Y-64919981D01*
X77199604Y-64946900D01*
X77199607Y-64946900D01*
X77337595Y-64946900D01*
X77449219Y-64924696D01*
X77472928Y-64919980D01*
X77600411Y-64867175D01*
X77715142Y-64790514D01*
X77812714Y-64692942D01*
X77889375Y-64578211D01*
X77942180Y-64450728D01*
X77951328Y-64404739D01*
X77969100Y-64315395D01*
X77969100Y-64177404D01*
X77942181Y-64042077D01*
X77942180Y-64042076D01*
X77942180Y-64042072D01*
X77902461Y-63946181D01*
X77889378Y-63914595D01*
X77889371Y-63914582D01*
X77812714Y-63799858D01*
X77812711Y-63799854D01*
X77715146Y-63702289D01*
X77714433Y-63701704D01*
X77714159Y-63701302D01*
X77710835Y-63697978D01*
X77711465Y-63697347D01*
X77675100Y-63643957D01*
X77669100Y-63605852D01*
X77669100Y-61412255D01*
X77688785Y-61345216D01*
X77741589Y-61299461D01*
X77810747Y-61289517D01*
X77874303Y-61318542D01*
X77880781Y-61324574D01*
X81883181Y-65326974D01*
X81916666Y-65388297D01*
X81919500Y-65414655D01*
X81919500Y-71466840D01*
X81899815Y-71533879D01*
X81851795Y-71577325D01*
X81717002Y-71646006D01*
X81570505Y-71752441D01*
X81570500Y-71752445D01*
X81442445Y-71880500D01*
X81442441Y-71880505D01*
X81336006Y-72027002D01*
X81253788Y-72188360D01*
X81253787Y-72188363D01*
X81197829Y-72360589D01*
X81172473Y-72520678D01*
X81142544Y-72583813D01*
X81083232Y-72620744D01*
X81013369Y-72619746D01*
X80955137Y-72581136D01*
X80927527Y-72520678D01*
X80908259Y-72399032D01*
X80902171Y-72360591D01*
X80857613Y-72223452D01*
X80846212Y-72188363D01*
X80846211Y-72188360D01*
X80809273Y-72115866D01*
X80763996Y-72027006D01*
X80737380Y-71990372D01*
X80657558Y-71880505D01*
X80657554Y-71880500D01*
X80529499Y-71752445D01*
X80529494Y-71752441D01*
X80382997Y-71646006D01*
X80382996Y-71646005D01*
X80382994Y-71646004D01*
X80331300Y-71619664D01*
X80221639Y-71563788D01*
X80221636Y-71563787D01*
X80049410Y-71507829D01*
X79870551Y-71479500D01*
X79870546Y-71479500D01*
X79689454Y-71479500D01*
X79689449Y-71479500D01*
X79510589Y-71507829D01*
X79338363Y-71563787D01*
X79338360Y-71563788D01*
X79177002Y-71646006D01*
X79030505Y-71752441D01*
X79030500Y-71752445D01*
X78902445Y-71880500D01*
X78902441Y-71880505D01*
X78796006Y-72027002D01*
X78713788Y-72188360D01*
X78713787Y-72188363D01*
X78657829Y-72360589D01*
X78629500Y-72539448D01*
X78629500Y-72720551D01*
X78657829Y-72899412D01*
X78704575Y-73043283D01*
X78706570Y-73113124D01*
X78674326Y-73169279D01*
X78548724Y-73294882D01*
X78487404Y-73328366D01*
X78461045Y-73331200D01*
X76434555Y-73331200D01*
X76367516Y-73311515D01*
X76346874Y-73294881D01*
X65301619Y-62249626D01*
X65268134Y-62188303D01*
X65265300Y-62161945D01*
X65265300Y-56213669D01*
X65284985Y-56146630D01*
X65337789Y-56100875D01*
X65406947Y-56090931D01*
X65470503Y-56119956D01*
G37*
%TD.AperFunction*%
%TA.AperFunction,Conductor*%
G36*
X106017692Y-63385185D02*
G01*
X106042627Y-63407385D01*
X106042778Y-63407235D01*
X106045364Y-63409821D01*
X106046513Y-63410844D01*
X106047089Y-63411546D01*
X106144654Y-63509111D01*
X106144658Y-63509114D01*
X106151250Y-63513519D01*
X106196055Y-63567131D01*
X106204762Y-63636456D01*
X106174607Y-63699484D01*
X106170041Y-63704302D01*
X106085885Y-63788458D01*
X106009228Y-63903182D01*
X106009221Y-63903195D01*
X105956421Y-64030667D01*
X105956418Y-64030677D01*
X105929500Y-64166004D01*
X105929500Y-64304003D01*
X105929590Y-64304918D01*
X105929500Y-64305392D01*
X105929500Y-64310085D01*
X105928610Y-64310085D01*
X105916564Y-64373562D01*
X105893867Y-64404739D01*
X97524026Y-72774581D01*
X97462703Y-72808066D01*
X97436345Y-72810900D01*
X92679255Y-72810900D01*
X92612216Y-72791215D01*
X92566461Y-72738411D01*
X92556517Y-72669253D01*
X92585542Y-72605697D01*
X92591574Y-72599219D01*
X92670115Y-72520678D01*
X92967341Y-72223450D01*
X93028662Y-72189967D01*
X93098353Y-72194951D01*
X93154287Y-72236822D01*
X93158122Y-72242243D01*
X93201082Y-72306537D01*
X93201088Y-72306545D01*
X93298654Y-72404111D01*
X93298658Y-72404114D01*
X93413382Y-72480771D01*
X93413395Y-72480778D01*
X93523789Y-72526504D01*
X93540872Y-72533580D01*
X93540876Y-72533580D01*
X93540877Y-72533581D01*
X93676204Y-72560500D01*
X93676207Y-72560500D01*
X93814195Y-72560500D01*
X93905241Y-72542389D01*
X93949528Y-72533580D01*
X94077011Y-72480775D01*
X94191742Y-72404114D01*
X94289314Y-72306542D01*
X94365975Y-72191811D01*
X94367405Y-72188360D01*
X94411302Y-72082381D01*
X94418780Y-72064328D01*
X94436531Y-71975088D01*
X94445700Y-71928995D01*
X94445700Y-71791008D01*
X94445610Y-71790095D01*
X94445700Y-71789620D01*
X94445700Y-71784915D01*
X94446592Y-71784915D01*
X94458629Y-71721448D01*
X94481329Y-71690262D01*
X102769773Y-63401819D01*
X102831096Y-63368334D01*
X102857454Y-63365500D01*
X105950653Y-63365500D01*
X106017692Y-63385185D01*
G37*
%TD.AperFunction*%
%TA.AperFunction,Conductor*%
G36*
X115496539Y-40320185D02*
G01*
X115542294Y-40372989D01*
X115553500Y-40424500D01*
X115553500Y-46039562D01*
X115560491Y-46065653D01*
X115573979Y-46115990D01*
X115573982Y-46115995D01*
X115613535Y-46184504D01*
X115613539Y-46184509D01*
X115613540Y-46184511D01*
X115669489Y-46240460D01*
X115669491Y-46240461D01*
X115669495Y-46240464D01*
X115738004Y-46280017D01*
X115738011Y-46280021D01*
X115814438Y-46300500D01*
X115893562Y-46300500D01*
X121599500Y-46300500D01*
X121666539Y-46320185D01*
X121712294Y-46372989D01*
X121723500Y-46424500D01*
X121723500Y-76975500D01*
X121703815Y-77042539D01*
X121651011Y-77088294D01*
X121599500Y-77099500D01*
X40424500Y-77099500D01*
X40357461Y-77079815D01*
X40311706Y-77027011D01*
X40300500Y-76975500D01*
X40300500Y-73793713D01*
X42649500Y-73793713D01*
X42649500Y-74006287D01*
X42656769Y-74052180D01*
X42682753Y-74216239D01*
X42748444Y-74418414D01*
X42844951Y-74607820D01*
X42969890Y-74779786D01*
X43120213Y-74930109D01*
X43292179Y-75055048D01*
X43292181Y-75055049D01*
X43292184Y-75055051D01*
X43481588Y-75151557D01*
X43683757Y-75217246D01*
X43893713Y-75250500D01*
X43893714Y-75250500D01*
X44106286Y-75250500D01*
X44106287Y-75250500D01*
X44316243Y-75217246D01*
X44518412Y-75151557D01*
X44707816Y-75055051D01*
X44729789Y-75039086D01*
X44879786Y-74930109D01*
X44879788Y-74930106D01*
X44879792Y-74930104D01*
X45030104Y-74779792D01*
X45030106Y-74779788D01*
X45030109Y-74779786D01*
X45155048Y-74607820D01*
X45155047Y-74607820D01*
X45155051Y-74607816D01*
X45251557Y-74418412D01*
X45317246Y-74216243D01*
X45350500Y-74006287D01*
X45350500Y-73793713D01*
X45317246Y-73583757D01*
X45251557Y-73381588D01*
X45155051Y-73192184D01*
X45155049Y-73192181D01*
X45155048Y-73192179D01*
X45030109Y-73020213D01*
X44879786Y-72869890D01*
X44707820Y-72744951D01*
X44518414Y-72648444D01*
X44518413Y-72648443D01*
X44518412Y-72648443D01*
X44316243Y-72582754D01*
X44316241Y-72582753D01*
X44316240Y-72582753D01*
X44154957Y-72557208D01*
X44106287Y-72549500D01*
X43893713Y-72549500D01*
X43845042Y-72557208D01*
X43683760Y-72582753D01*
X43481585Y-72648444D01*
X43292179Y-72744951D01*
X43120213Y-72869890D01*
X42969890Y-73020213D01*
X42844951Y-73192179D01*
X42748444Y-73381585D01*
X42682753Y-73583760D01*
X42656080Y-73752170D01*
X42649500Y-73793713D01*
X40300500Y-73793713D01*
X40300500Y-64700131D01*
X40619500Y-64700131D01*
X40619500Y-66489856D01*
X40619502Y-66489882D01*
X40622413Y-66514987D01*
X40622415Y-66514991D01*
X40667793Y-66617764D01*
X40667794Y-66617765D01*
X40747235Y-66697206D01*
X40850009Y-66742585D01*
X40875135Y-66745500D01*
X42664864Y-66745499D01*
X42664879Y-66745497D01*
X42664882Y-66745497D01*
X42689987Y-66742586D01*
X42689988Y-66742585D01*
X42689991Y-66742585D01*
X42792765Y-66697206D01*
X42872206Y-66617765D01*
X42917585Y-66514991D01*
X42920500Y-66489865D01*
X42920499Y-64700136D01*
X42919665Y-64692941D01*
X42917586Y-64675012D01*
X42917585Y-64675010D01*
X42917585Y-64675009D01*
X42872206Y-64572235D01*
X42792765Y-64492794D01*
X42792763Y-64492793D01*
X42689992Y-64447415D01*
X42664865Y-64444500D01*
X40875143Y-64444500D01*
X40875117Y-64444502D01*
X40850012Y-64447413D01*
X40850008Y-64447415D01*
X40747235Y-64492793D01*
X40667794Y-64572234D01*
X40622415Y-64675006D01*
X40622415Y-64675008D01*
X40619500Y-64700131D01*
X40300500Y-64700131D01*
X40300500Y-52761304D01*
X42374500Y-52761304D01*
X42374500Y-52938695D01*
X42409103Y-53112658D01*
X42409106Y-53112667D01*
X42476983Y-53276540D01*
X42476990Y-53276553D01*
X42575535Y-53424034D01*
X42575538Y-53424038D01*
X42700961Y-53549461D01*
X42700965Y-53549464D01*
X42848446Y-53648009D01*
X42848459Y-53648016D01*
X42946266Y-53688528D01*
X43012334Y-53715894D01*
X43070690Y-53727501D01*
X43132599Y-53759884D01*
X43166273Y-53817025D01*
X43176793Y-53856289D01*
X43195318Y-53888374D01*
X43229520Y-53947613D01*
X43229522Y-53947615D01*
X50223181Y-60941274D01*
X50256666Y-61002597D01*
X50259500Y-61028955D01*
X50259500Y-64561267D01*
X50239815Y-64628306D01*
X50187011Y-64674061D01*
X50117853Y-64684005D01*
X50062615Y-64661586D01*
X49992993Y-64611003D01*
X49831639Y-64528788D01*
X49831636Y-64528787D01*
X49659410Y-64472829D01*
X49480551Y-64444500D01*
X49480546Y-64444500D01*
X49299454Y-64444500D01*
X49299449Y-64444500D01*
X49120589Y-64472829D01*
X48948363Y-64528787D01*
X48948360Y-64528788D01*
X48787002Y-64611006D01*
X48640505Y-64717441D01*
X48640500Y-64717445D01*
X48512445Y-64845500D01*
X48512441Y-64845505D01*
X48406006Y-64992002D01*
X48323788Y-65153360D01*
X48323787Y-65153363D01*
X48267829Y-65325589D01*
X48242473Y-65485678D01*
X48212544Y-65548813D01*
X48153232Y-65585744D01*
X48083369Y-65584746D01*
X48025137Y-65546136D01*
X47997527Y-65485678D01*
X47980376Y-65377395D01*
X47972171Y-65325591D01*
X47916211Y-65153361D01*
X47916211Y-65153360D01*
X47887740Y-65097484D01*
X47833996Y-64992006D01*
X47781667Y-64919981D01*
X47727558Y-64845505D01*
X47727554Y-64845500D01*
X47599499Y-64717445D01*
X47599494Y-64717441D01*
X47452997Y-64611006D01*
X47452996Y-64611005D01*
X47452994Y-64611004D01*
X47401300Y-64584664D01*
X47291639Y-64528788D01*
X47291636Y-64528787D01*
X47119410Y-64472829D01*
X46940551Y-64444500D01*
X46940546Y-64444500D01*
X46759454Y-64444500D01*
X46759449Y-64444500D01*
X46580589Y-64472829D01*
X46408363Y-64528787D01*
X46408360Y-64528788D01*
X46247002Y-64611006D01*
X46100505Y-64717441D01*
X46100500Y-64717445D01*
X45972445Y-64845500D01*
X45972441Y-64845505D01*
X45866006Y-64992002D01*
X45783788Y-65153360D01*
X45783787Y-65153363D01*
X45727829Y-65325589D01*
X45699500Y-65504448D01*
X45699500Y-65685551D01*
X45727829Y-65864410D01*
X45783787Y-66036636D01*
X45783788Y-66036639D01*
X45866006Y-66197997D01*
X45972441Y-66344494D01*
X45972445Y-66344499D01*
X46100500Y-66472554D01*
X46100505Y-66472558D01*
X46166849Y-66520759D01*
X46247006Y-66578996D01*
X46323094Y-66617765D01*
X46408360Y-66661211D01*
X46408363Y-66661212D01*
X46494476Y-66689191D01*
X46580591Y-66717171D01*
X46663429Y-66730291D01*
X46759449Y-66745500D01*
X46759454Y-66745500D01*
X46940551Y-66745500D01*
X47027259Y-66731765D01*
X47119409Y-66717171D01*
X47291639Y-66661211D01*
X47452994Y-66578996D01*
X47599501Y-66472553D01*
X47727553Y-66344501D01*
X47833996Y-66197994D01*
X47916211Y-66036639D01*
X47972171Y-65864409D01*
X47986422Y-65774425D01*
X47997527Y-65704321D01*
X48027456Y-65641186D01*
X48086768Y-65604255D01*
X48156630Y-65605253D01*
X48214863Y-65643863D01*
X48242473Y-65704321D01*
X48267829Y-65864410D01*
X48323787Y-66036636D01*
X48323788Y-66036639D01*
X48406006Y-66197997D01*
X48512441Y-66344494D01*
X48512445Y-66344499D01*
X48640500Y-66472554D01*
X48640505Y-66472558D01*
X48706849Y-66520759D01*
X48787006Y-66578996D01*
X48863094Y-66617765D01*
X48948360Y-66661211D01*
X48948363Y-66661212D01*
X49034476Y-66689191D01*
X49120591Y-66717171D01*
X49203429Y-66730291D01*
X49299449Y-66745500D01*
X49299454Y-66745500D01*
X49480551Y-66745500D01*
X49567259Y-66731765D01*
X49659409Y-66717171D01*
X49831639Y-66661211D01*
X49992994Y-66578996D01*
X50062615Y-66528414D01*
X50128421Y-66504934D01*
X50196475Y-66520759D01*
X50245170Y-66570865D01*
X50259500Y-66628732D01*
X50259500Y-68499726D01*
X50286793Y-68601589D01*
X50313156Y-68647250D01*
X50339520Y-68692913D01*
X50339522Y-68692915D01*
X53336867Y-71690260D01*
X53370352Y-71751583D01*
X53372290Y-71784915D01*
X53372500Y-71784915D01*
X53372500Y-71788531D01*
X53372590Y-71790080D01*
X53372500Y-71790994D01*
X53372500Y-71791007D01*
X53372500Y-71928993D01*
X53372500Y-71928995D01*
X53372499Y-71928995D01*
X53399418Y-72064322D01*
X53399421Y-72064332D01*
X53452221Y-72191804D01*
X53452228Y-72191817D01*
X53528885Y-72306541D01*
X53528888Y-72306545D01*
X53626454Y-72404111D01*
X53626458Y-72404114D01*
X53741182Y-72480771D01*
X53741195Y-72480778D01*
X53851589Y-72526504D01*
X53868672Y-72533580D01*
X53868676Y-72533580D01*
X53868677Y-72533581D01*
X54004004Y-72560500D01*
X54004007Y-72560500D01*
X54141995Y-72560500D01*
X54233041Y-72542389D01*
X54277328Y-72533580D01*
X54404811Y-72480775D01*
X54519542Y-72404114D01*
X54617114Y-72306542D01*
X54693775Y-72191811D01*
X54695205Y-72188360D01*
X54739102Y-72082381D01*
X54746580Y-72064328D01*
X54764331Y-71975088D01*
X54773500Y-71928995D01*
X54773500Y-71791008D01*
X54773410Y-71790095D01*
X54773500Y-71789620D01*
X54773500Y-71784915D01*
X54774392Y-71784915D01*
X54786429Y-71721448D01*
X54809129Y-71690262D01*
X60115603Y-66383787D01*
X60115608Y-66383784D01*
X60125811Y-66373580D01*
X60125813Y-66373580D01*
X60200380Y-66299013D01*
X60253107Y-66207687D01*
X60258302Y-66188300D01*
X60280401Y-66105827D01*
X60280401Y-66000373D01*
X60280401Y-65992778D01*
X60280400Y-65992760D01*
X60280400Y-57781395D01*
X60732999Y-57781395D01*
X60759918Y-57916722D01*
X60759921Y-57916732D01*
X60812721Y-58044204D01*
X60812728Y-58044217D01*
X60889385Y-58158941D01*
X60889388Y-58158945D01*
X60986954Y-58256511D01*
X60986958Y-58256514D01*
X61101682Y-58333171D01*
X61101695Y-58333178D01*
X61202422Y-58374900D01*
X61229172Y-58385980D01*
X61229176Y-58385980D01*
X61229177Y-58385981D01*
X61364504Y-58412900D01*
X61364507Y-58412900D01*
X61502487Y-58412900D01*
X61502493Y-58412900D01*
X61502498Y-58412898D01*
X61503400Y-58412810D01*
X61503875Y-58412900D01*
X61508585Y-58412900D01*
X61508585Y-58413793D01*
X61572047Y-58425827D01*
X61603239Y-58448532D01*
X61787481Y-58632774D01*
X61820966Y-58694097D01*
X61823800Y-58720455D01*
X61823800Y-63486652D01*
X61804115Y-63553691D01*
X61781916Y-63578629D01*
X61782065Y-63578778D01*
X61779504Y-63581338D01*
X61778467Y-63582504D01*
X61777753Y-63583089D01*
X61680188Y-63680654D01*
X61680185Y-63680658D01*
X61603528Y-63795382D01*
X61603521Y-63795395D01*
X61550721Y-63922867D01*
X61550718Y-63922877D01*
X61523800Y-64058204D01*
X61523800Y-64058207D01*
X61523800Y-64196193D01*
X61523800Y-64196195D01*
X61523799Y-64196195D01*
X61550718Y-64331522D01*
X61550721Y-64331532D01*
X61603521Y-64459004D01*
X61603528Y-64459017D01*
X61680185Y-64573741D01*
X61680188Y-64573745D01*
X61777754Y-64671311D01*
X61777758Y-64671314D01*
X61892482Y-64747971D01*
X61892495Y-64747978D01*
X62019967Y-64800778D01*
X62019972Y-64800780D01*
X62019976Y-64800780D01*
X62019977Y-64800781D01*
X62155304Y-64827700D01*
X62155307Y-64827700D01*
X62293295Y-64827700D01*
X62384341Y-64809589D01*
X62428628Y-64800780D01*
X62556111Y-64747975D01*
X62670842Y-64671314D01*
X62768414Y-64573742D01*
X62845075Y-64459011D01*
X62897880Y-64331528D01*
X62923034Y-64205072D01*
X62924800Y-64196195D01*
X62924800Y-64058204D01*
X62897881Y-63922877D01*
X62897880Y-63922876D01*
X62897880Y-63922872D01*
X62885662Y-63893375D01*
X62845078Y-63795395D01*
X62845071Y-63795382D01*
X62768414Y-63680658D01*
X62768411Y-63680654D01*
X62670846Y-63583089D01*
X62670133Y-63582504D01*
X62669859Y-63582102D01*
X62666535Y-63578778D01*
X62667165Y-63578147D01*
X62630800Y-63524757D01*
X62624800Y-63486652D01*
X62624800Y-58450476D01*
X62624799Y-58450469D01*
X62614981Y-58413827D01*
X62597507Y-58348612D01*
X62544780Y-58257287D01*
X62169632Y-57882139D01*
X62136147Y-57820816D01*
X62134211Y-57787485D01*
X62134000Y-57787485D01*
X62134000Y-57783849D01*
X62133910Y-57782300D01*
X62133998Y-57781399D01*
X62134000Y-57781393D01*
X62134000Y-57643407D01*
X62134000Y-57643404D01*
X62107081Y-57508077D01*
X62107080Y-57508076D01*
X62107080Y-57508072D01*
X62107078Y-57508067D01*
X62054278Y-57380595D01*
X62054271Y-57380582D01*
X61977614Y-57265858D01*
X61977611Y-57265854D01*
X61880045Y-57168288D01*
X61880041Y-57168285D01*
X61765317Y-57091628D01*
X61765304Y-57091621D01*
X61637832Y-57038821D01*
X61637822Y-57038818D01*
X61502495Y-57011900D01*
X61502493Y-57011900D01*
X61364507Y-57011900D01*
X61364505Y-57011900D01*
X61229177Y-57038818D01*
X61229167Y-57038821D01*
X61101695Y-57091621D01*
X61101682Y-57091628D01*
X60986958Y-57168285D01*
X60986954Y-57168288D01*
X60889388Y-57265854D01*
X60889385Y-57265858D01*
X60812728Y-57380582D01*
X60812721Y-57380595D01*
X60759921Y-57508067D01*
X60759918Y-57508077D01*
X60733000Y-57643404D01*
X60733000Y-57643407D01*
X60733000Y-57781393D01*
X60733000Y-57781395D01*
X60732999Y-57781395D01*
X60280400Y-57781395D01*
X60280400Y-55277254D01*
X60300085Y-55210215D01*
X60316714Y-55189578D01*
X63433693Y-52072598D01*
X63495014Y-52039115D01*
X63564706Y-52044099D01*
X63620639Y-52085971D01*
X63624474Y-52091390D01*
X63643685Y-52120141D01*
X63643688Y-52120145D01*
X63741253Y-52217710D01*
X63741956Y-52218287D01*
X63742225Y-52218682D01*
X63745565Y-52222022D01*
X63744931Y-52222655D01*
X63781296Y-52276029D01*
X63787300Y-52314147D01*
X63787300Y-63366773D01*
X63787300Y-63472227D01*
X63794879Y-63500513D01*
X63814593Y-63574089D01*
X63832932Y-63605852D01*
X63867320Y-63665413D01*
X63867322Y-63665415D01*
X72226867Y-72024960D01*
X72260352Y-72086283D01*
X72262290Y-72119615D01*
X72262500Y-72119615D01*
X72262500Y-72123231D01*
X72262590Y-72124780D01*
X72262500Y-72125694D01*
X72262500Y-72125707D01*
X72262500Y-72263693D01*
X72262500Y-72263695D01*
X72262499Y-72263695D01*
X72289418Y-72399022D01*
X72289421Y-72399032D01*
X72342221Y-72526504D01*
X72342228Y-72526517D01*
X72418885Y-72641241D01*
X72418888Y-72641245D01*
X72516454Y-72738811D01*
X72516458Y-72738814D01*
X72631182Y-72815471D01*
X72631195Y-72815478D01*
X72758667Y-72868278D01*
X72758672Y-72868280D01*
X72758676Y-72868280D01*
X72758677Y-72868281D01*
X72894004Y-72895200D01*
X72894007Y-72895200D01*
X73031995Y-72895200D01*
X73123041Y-72877089D01*
X73167328Y-72868280D01*
X73294811Y-72815475D01*
X73409542Y-72738814D01*
X73507114Y-72641242D01*
X73583775Y-72526511D01*
X73636580Y-72399028D01*
X73663500Y-72263693D01*
X73663500Y-72125707D01*
X73663500Y-72125704D01*
X73648541Y-72050505D01*
X73654768Y-71980914D01*
X73697630Y-71925736D01*
X73763520Y-71902491D01*
X73831517Y-71918558D01*
X73857839Y-71938632D01*
X75896819Y-73977612D01*
X75896820Y-73977613D01*
X75971387Y-74052180D01*
X76062713Y-74104907D01*
X76164573Y-74132200D01*
X76164575Y-74132200D01*
X78731025Y-74132200D01*
X78731027Y-74132200D01*
X78832888Y-74104907D01*
X78924213Y-74052180D01*
X79182678Y-73793713D01*
X111149500Y-73793713D01*
X111149500Y-74006287D01*
X111156769Y-74052180D01*
X111182753Y-74216239D01*
X111248444Y-74418414D01*
X111344951Y-74607820D01*
X111469890Y-74779786D01*
X111620213Y-74930109D01*
X111792179Y-75055048D01*
X111792181Y-75055049D01*
X111792184Y-75055051D01*
X111981588Y-75151557D01*
X112183757Y-75217246D01*
X112393713Y-75250500D01*
X112393714Y-75250500D01*
X112606286Y-75250500D01*
X112606287Y-75250500D01*
X112816243Y-75217246D01*
X113018412Y-75151557D01*
X113207816Y-75055051D01*
X113229789Y-75039086D01*
X113379786Y-74930109D01*
X113379788Y-74930106D01*
X113379792Y-74930104D01*
X113530104Y-74779792D01*
X113530106Y-74779788D01*
X113530109Y-74779786D01*
X113655048Y-74607820D01*
X113655047Y-74607820D01*
X113655051Y-74607816D01*
X113751557Y-74418412D01*
X113817246Y-74216243D01*
X113850500Y-74006287D01*
X113850500Y-73793713D01*
X113817246Y-73583757D01*
X113751557Y-73381588D01*
X113655051Y-73192184D01*
X113655049Y-73192181D01*
X113655048Y-73192179D01*
X113530109Y-73020213D01*
X113379786Y-72869890D01*
X113207820Y-72744951D01*
X113018414Y-72648444D01*
X113018413Y-72648443D01*
X113018412Y-72648443D01*
X112816243Y-72582754D01*
X112816241Y-72582753D01*
X112816240Y-72582753D01*
X112654957Y-72557208D01*
X112606287Y-72549500D01*
X112393713Y-72549500D01*
X112345042Y-72557208D01*
X112183760Y-72582753D01*
X111981585Y-72648444D01*
X111792179Y-72744951D01*
X111620213Y-72869890D01*
X111469890Y-73020213D01*
X111344951Y-73192179D01*
X111248444Y-73381585D01*
X111182753Y-73583760D01*
X111156080Y-73752170D01*
X111149500Y-73793713D01*
X79182678Y-73793713D01*
X79240720Y-73735671D01*
X79302040Y-73702189D01*
X79366716Y-73705424D01*
X79510591Y-73752171D01*
X79593429Y-73765291D01*
X79689449Y-73780500D01*
X79689454Y-73780500D01*
X79870551Y-73780500D01*
X79957259Y-73766765D01*
X80049409Y-73752171D01*
X80221639Y-73696211D01*
X80382994Y-73613996D01*
X80529501Y-73507553D01*
X80657553Y-73379501D01*
X80763996Y-73232994D01*
X80846211Y-73071639D01*
X80902171Y-72899409D01*
X80926635Y-72744951D01*
X80927527Y-72739321D01*
X80957456Y-72676186D01*
X81016768Y-72639255D01*
X81086630Y-72640253D01*
X81144863Y-72678863D01*
X81172473Y-72739321D01*
X81197829Y-72899410D01*
X81253787Y-73071636D01*
X81253788Y-73071639D01*
X81336006Y-73232997D01*
X81442441Y-73379494D01*
X81442445Y-73379499D01*
X81570500Y-73507554D01*
X81570505Y-73507558D01*
X81603982Y-73531880D01*
X81717006Y-73613996D01*
X81822484Y-73667740D01*
X81878360Y-73696211D01*
X81878363Y-73696212D01*
X81964476Y-73724191D01*
X82050591Y-73752171D01*
X82133429Y-73765291D01*
X82229449Y-73780500D01*
X82229454Y-73780500D01*
X82410551Y-73780500D01*
X82497259Y-73766765D01*
X82589409Y-73752171D01*
X82761639Y-73696211D01*
X82922994Y-73613996D01*
X83069501Y-73507553D01*
X83197553Y-73379501D01*
X83303996Y-73232994D01*
X83386211Y-73071639D01*
X83442171Y-72899409D01*
X83466635Y-72744951D01*
X83467527Y-72739321D01*
X83497456Y-72676186D01*
X83556768Y-72639255D01*
X83626630Y-72640253D01*
X83684863Y-72678863D01*
X83712473Y-72739321D01*
X83737829Y-72899410D01*
X83793787Y-73071636D01*
X83793788Y-73071639D01*
X83876006Y-73232997D01*
X83982441Y-73379494D01*
X83982445Y-73379499D01*
X84110500Y-73507554D01*
X84110505Y-73507558D01*
X84143982Y-73531880D01*
X84257006Y-73613996D01*
X84362484Y-73667740D01*
X84418360Y-73696211D01*
X84418363Y-73696212D01*
X84504476Y-73724191D01*
X84590591Y-73752171D01*
X84673429Y-73765291D01*
X84769449Y-73780500D01*
X84769454Y-73780500D01*
X84950551Y-73780500D01*
X85037259Y-73766765D01*
X85129409Y-73752171D01*
X85301639Y-73696211D01*
X85301639Y-73696210D01*
X85301644Y-73696209D01*
X85336680Y-73678357D01*
X85336681Y-73678356D01*
X85340181Y-73676573D01*
X85440583Y-73625414D01*
X85496878Y-73611900D01*
X97706325Y-73611900D01*
X97706327Y-73611900D01*
X97808188Y-73584607D01*
X97899513Y-73531880D01*
X106460260Y-64971130D01*
X106521581Y-64937647D01*
X106554915Y-64935710D01*
X106554915Y-64935500D01*
X106558543Y-64935500D01*
X106560092Y-64935410D01*
X106561006Y-64935500D01*
X106561007Y-64935500D01*
X106698995Y-64935500D01*
X106790041Y-64917389D01*
X106834328Y-64908580D01*
X106961811Y-64855775D01*
X107076542Y-64779114D01*
X107174114Y-64681542D01*
X107250775Y-64566811D01*
X107303580Y-64439328D01*
X107328232Y-64315395D01*
X107330500Y-64303995D01*
X107330500Y-64166004D01*
X107303581Y-64030677D01*
X107303580Y-64030676D01*
X107303580Y-64030672D01*
X107268583Y-63946181D01*
X107250778Y-63903195D01*
X107250771Y-63903182D01*
X107174114Y-63788458D01*
X107174111Y-63788454D01*
X107076543Y-63690886D01*
X107069947Y-63686479D01*
X107025143Y-63632865D01*
X107016437Y-63563540D01*
X107046593Y-63500513D01*
X107051140Y-63495715D01*
X107135314Y-63411542D01*
X107211975Y-63296811D01*
X107215137Y-63289174D01*
X107258975Y-63234770D01*
X107325268Y-63212702D01*
X107351249Y-63215651D01*
X107351317Y-63215139D01*
X107359371Y-63216199D01*
X107359373Y-63216200D01*
X107464827Y-63216200D01*
X109441945Y-63216200D01*
X109508984Y-63235885D01*
X109529626Y-63252519D01*
X111962658Y-65685551D01*
X114247699Y-67970591D01*
X114281184Y-68031914D01*
X114276200Y-68101606D01*
X114234328Y-68157539D01*
X114184210Y-68179889D01*
X114037340Y-68209104D01*
X114037332Y-68209106D01*
X113873459Y-68276983D01*
X113873446Y-68276990D01*
X113725965Y-68375535D01*
X113725961Y-68375538D01*
X113600538Y-68500961D01*
X113600535Y-68500965D01*
X113501990Y-68648446D01*
X113501983Y-68648459D01*
X113434106Y-68812332D01*
X113434103Y-68812341D01*
X113399500Y-68986304D01*
X113399500Y-69713695D01*
X113434103Y-69887658D01*
X113434106Y-69887667D01*
X113501983Y-70051540D01*
X113501990Y-70051553D01*
X113600535Y-70199034D01*
X113600538Y-70199038D01*
X113725961Y-70324461D01*
X113725965Y-70324464D01*
X113873446Y-70423009D01*
X113873459Y-70423016D01*
X113996363Y-70473923D01*
X114037334Y-70490894D01*
X114037336Y-70490894D01*
X114037341Y-70490896D01*
X114211304Y-70525499D01*
X114211307Y-70525500D01*
X114211309Y-70525500D01*
X114388693Y-70525500D01*
X114388694Y-70525499D01*
X114446682Y-70513964D01*
X114562658Y-70490896D01*
X114562661Y-70490894D01*
X114562666Y-70490894D01*
X114726547Y-70423013D01*
X114874035Y-70324464D01*
X114999464Y-70199035D01*
X115098013Y-70051547D01*
X115098014Y-70051544D01*
X115098016Y-70051541D01*
X115160939Y-69899628D01*
X115204779Y-69845224D01*
X115271073Y-69823159D01*
X115338773Y-69840438D01*
X115386383Y-69891575D01*
X115399500Y-69947080D01*
X115399500Y-70018102D01*
X115403516Y-70051541D01*
X115410122Y-70106561D01*
X115465639Y-70247343D01*
X115557077Y-70367922D01*
X115677656Y-70459360D01*
X115677657Y-70459360D01*
X115677658Y-70459361D01*
X115818436Y-70514877D01*
X115906898Y-70525500D01*
X115906903Y-70525500D01*
X116693097Y-70525500D01*
X116693102Y-70525500D01*
X116781564Y-70514877D01*
X116922342Y-70459361D01*
X117042922Y-70367922D01*
X117134361Y-70247342D01*
X117189877Y-70106564D01*
X117200500Y-70018102D01*
X117200500Y-68681898D01*
X117189877Y-68593436D01*
X117134361Y-68452658D01*
X117134360Y-68452657D01*
X117134360Y-68452656D01*
X117042922Y-68332077D01*
X116922343Y-68240639D01*
X116800060Y-68192417D01*
X116781564Y-68185123D01*
X116781563Y-68185122D01*
X116781561Y-68185122D01*
X116735926Y-68179642D01*
X116693102Y-68174500D01*
X115906898Y-68174500D01*
X115873713Y-68178485D01*
X115818436Y-68185122D01*
X115733862Y-68218474D01*
X115664275Y-68224755D01*
X115602339Y-68192417D01*
X115600692Y-68190800D01*
X112773185Y-65363293D01*
X109905113Y-62495220D01*
X109859450Y-62468856D01*
X109813789Y-62442493D01*
X109733155Y-62420888D01*
X109711927Y-62415200D01*
X109711926Y-62415200D01*
X107629355Y-62415200D01*
X107562316Y-62395515D01*
X107541674Y-62378881D01*
X105973520Y-60810727D01*
X105940035Y-60749404D01*
X105945019Y-60679712D01*
X105986891Y-60623779D01*
X106037007Y-60601429D01*
X106105628Y-60587780D01*
X106233111Y-60534975D01*
X106347842Y-60458314D01*
X106445414Y-60360742D01*
X106522075Y-60246011D01*
X106523027Y-60243714D01*
X106560687Y-60152793D01*
X106574880Y-60118528D01*
X106592479Y-60030055D01*
X106601800Y-59983195D01*
X106601800Y-59845204D01*
X106574881Y-59709877D01*
X106574880Y-59709876D01*
X106574880Y-59709872D01*
X106573932Y-59707584D01*
X106522078Y-59582395D01*
X106522071Y-59582382D01*
X106445414Y-59467658D01*
X106445411Y-59467654D01*
X106347845Y-59370088D01*
X106347841Y-59370085D01*
X106233117Y-59293428D01*
X106233104Y-59293421D01*
X106105632Y-59240621D01*
X106105622Y-59240618D01*
X105970295Y-59213700D01*
X105970293Y-59213700D01*
X105832307Y-59213700D01*
X105832295Y-59213700D01*
X105831380Y-59213790D01*
X105830906Y-59213700D01*
X105826215Y-59213700D01*
X105826215Y-59212809D01*
X105762735Y-59200763D01*
X105731560Y-59178067D01*
X105714074Y-59160581D01*
X105680589Y-59099258D01*
X105685573Y-59029566D01*
X105727445Y-58973633D01*
X105792909Y-58949216D01*
X105801755Y-58948900D01*
X115963225Y-58948900D01*
X115963227Y-58948900D01*
X116065088Y-58921607D01*
X116156413Y-58868880D01*
X118447703Y-56577587D01*
X118447708Y-56577584D01*
X118457911Y-56567380D01*
X118457913Y-56567380D01*
X118532480Y-56492813D01*
X118585207Y-56401487D01*
X118602911Y-56335414D01*
X118612501Y-56299626D01*
X118612501Y-56194173D01*
X118612501Y-56186578D01*
X118612500Y-56186560D01*
X118612500Y-53527075D01*
X118612500Y-53527073D01*
X118588692Y-53438220D01*
X118585207Y-53425212D01*
X118532480Y-53333887D01*
X118118132Y-52919539D01*
X118084647Y-52858216D01*
X118082711Y-52824885D01*
X118082500Y-52824885D01*
X118082500Y-52821249D01*
X118082410Y-52819700D01*
X118082498Y-52818799D01*
X118082500Y-52818793D01*
X118082500Y-52680807D01*
X118082500Y-52680804D01*
X118055581Y-52545477D01*
X118055580Y-52545476D01*
X118055580Y-52545472D01*
X118042682Y-52514333D01*
X118002778Y-52417995D01*
X118002771Y-52417982D01*
X117926114Y-52303258D01*
X117926111Y-52303254D01*
X117828545Y-52205688D01*
X117828541Y-52205685D01*
X117713817Y-52129028D01*
X117713804Y-52129021D01*
X117586332Y-52076221D01*
X117586322Y-52076218D01*
X117450995Y-52049300D01*
X117450993Y-52049300D01*
X117313007Y-52049300D01*
X117313005Y-52049300D01*
X117177677Y-52076218D01*
X117177667Y-52076221D01*
X117050195Y-52129021D01*
X117050182Y-52129028D01*
X116935458Y-52205685D01*
X116935454Y-52205688D01*
X116837888Y-52303254D01*
X116837885Y-52303258D01*
X116761228Y-52417982D01*
X116761221Y-52417995D01*
X116708421Y-52545467D01*
X116708418Y-52545477D01*
X116681500Y-52680804D01*
X116681500Y-52680807D01*
X116681500Y-52818793D01*
X116681500Y-52818795D01*
X116681499Y-52818795D01*
X116708418Y-52954122D01*
X116708421Y-52954132D01*
X116761221Y-53081604D01*
X116761228Y-53081617D01*
X116837885Y-53196341D01*
X116837888Y-53196345D01*
X116935454Y-53293911D01*
X116935458Y-53293914D01*
X117050182Y-53370571D01*
X117050195Y-53370578D01*
X117177667Y-53423378D01*
X117177672Y-53423380D01*
X117177676Y-53423380D01*
X117177677Y-53423381D01*
X117313004Y-53450300D01*
X117313007Y-53450300D01*
X117450987Y-53450300D01*
X117450993Y-53450300D01*
X117450998Y-53450298D01*
X117451900Y-53450210D01*
X117452375Y-53450300D01*
X117457085Y-53450300D01*
X117457085Y-53451193D01*
X117520547Y-53463227D01*
X117551739Y-53485932D01*
X117599684Y-53533877D01*
X117633169Y-53595200D01*
X117628185Y-53664892D01*
X117586313Y-53720825D01*
X117520849Y-53745242D01*
X117479910Y-53741333D01*
X117403371Y-53720825D01*
X117379766Y-53714500D01*
X117228234Y-53714500D01*
X117081863Y-53753719D01*
X116950635Y-53829485D01*
X116950632Y-53829487D01*
X116843487Y-53936632D01*
X116843485Y-53936635D01*
X116767719Y-54067863D01*
X116728500Y-54214234D01*
X116728500Y-54365765D01*
X116767719Y-54512136D01*
X116796499Y-54561984D01*
X116843485Y-54643365D01*
X116950635Y-54750515D01*
X117081865Y-54826281D01*
X117228234Y-54865500D01*
X117228236Y-54865500D01*
X117379764Y-54865500D01*
X117379766Y-54865500D01*
X117526135Y-54826281D01*
X117625501Y-54768911D01*
X117693399Y-54752439D01*
X117759426Y-54775291D01*
X117802617Y-54830212D01*
X117811500Y-54876299D01*
X117811500Y-56029645D01*
X117791815Y-56096684D01*
X117775181Y-56117326D01*
X115780926Y-58111581D01*
X115719603Y-58145066D01*
X115693245Y-58147900D01*
X100832239Y-58147900D01*
X100832223Y-58147899D01*
X100824627Y-58147899D01*
X100719173Y-58147899D01*
X100659637Y-58163852D01*
X100617312Y-58175193D01*
X100525984Y-58227922D01*
X100451418Y-58302489D01*
X94181638Y-64572267D01*
X94120315Y-64605752D01*
X94086985Y-64607689D01*
X94086985Y-64607900D01*
X94083363Y-64607900D01*
X94081815Y-64607990D01*
X94080900Y-64607900D01*
X94080893Y-64607900D01*
X93942907Y-64607900D01*
X93942905Y-64607900D01*
X93807577Y-64634818D01*
X93807567Y-64634821D01*
X93680095Y-64687621D01*
X93680082Y-64687628D01*
X93565358Y-64764285D01*
X93565354Y-64764288D01*
X93467788Y-64861854D01*
X93467785Y-64861858D01*
X93391128Y-64976582D01*
X93391121Y-64976595D01*
X93338321Y-65104067D01*
X93338318Y-65104077D01*
X93311400Y-65239404D01*
X93311400Y-65239407D01*
X93311400Y-65377393D01*
X93311400Y-65377395D01*
X93311399Y-65377395D01*
X93338318Y-65512722D01*
X93338321Y-65512732D01*
X93391121Y-65640204D01*
X93391128Y-65640217D01*
X93467785Y-65754941D01*
X93467788Y-65754945D01*
X93565354Y-65852511D01*
X93565358Y-65852514D01*
X93680082Y-65929171D01*
X93680095Y-65929178D01*
X93807567Y-65981978D01*
X93807572Y-65981980D01*
X93807576Y-65981980D01*
X93807577Y-65981981D01*
X93942904Y-66008900D01*
X93942907Y-66008900D01*
X94080895Y-66008900D01*
X94171941Y-65990789D01*
X94216228Y-65981980D01*
X94343711Y-65929175D01*
X94458442Y-65852514D01*
X94556014Y-65754942D01*
X94632675Y-65640211D01*
X94685480Y-65512728D01*
X94712400Y-65377393D01*
X94712400Y-65239407D01*
X94712399Y-65239406D01*
X94712310Y-65238495D01*
X94712400Y-65238020D01*
X94712400Y-65233315D01*
X94713292Y-65233315D01*
X94725329Y-65169848D01*
X94748029Y-65138662D01*
X100901473Y-58985219D01*
X100962796Y-58951734D01*
X100989154Y-58948900D01*
X102875445Y-58948900D01*
X102942484Y-58968585D01*
X102988239Y-59021389D01*
X102998183Y-59090547D01*
X102969158Y-59154103D01*
X102963126Y-59160581D01*
X93164238Y-68959467D01*
X93102915Y-68992952D01*
X93069585Y-68994889D01*
X93069585Y-68995100D01*
X93065963Y-68995100D01*
X93064415Y-68995190D01*
X93063500Y-68995100D01*
X93063493Y-68995100D01*
X92925507Y-68995100D01*
X92925505Y-68995100D01*
X92790177Y-69022018D01*
X92790167Y-69022021D01*
X92662695Y-69074821D01*
X92662682Y-69074828D01*
X92547958Y-69151485D01*
X92547954Y-69151488D01*
X92450388Y-69249054D01*
X92450385Y-69249058D01*
X92373728Y-69363782D01*
X92373721Y-69363795D01*
X92320921Y-69491267D01*
X92320918Y-69491277D01*
X92294000Y-69626604D01*
X92294000Y-69626607D01*
X92294000Y-69764593D01*
X92294000Y-69764595D01*
X92293999Y-69764595D01*
X92320918Y-69899922D01*
X92320921Y-69899932D01*
X92373721Y-70027404D01*
X92373728Y-70027417D01*
X92450385Y-70142141D01*
X92450388Y-70142145D01*
X92547954Y-70239711D01*
X92547958Y-70239714D01*
X92662682Y-70316371D01*
X92662695Y-70316378D01*
X92787135Y-70367922D01*
X92790172Y-70369180D01*
X92790176Y-70369180D01*
X92790177Y-70369181D01*
X92925504Y-70396100D01*
X92925507Y-70396100D01*
X93063495Y-70396100D01*
X93154541Y-70377989D01*
X93198828Y-70369180D01*
X93326311Y-70316375D01*
X93441042Y-70239714D01*
X93538614Y-70142142D01*
X93615275Y-70027411D01*
X93668080Y-69899928D01*
X93679913Y-69840438D01*
X93695000Y-69764595D01*
X93695000Y-69626608D01*
X93694910Y-69625695D01*
X93695000Y-69625220D01*
X93695000Y-69620515D01*
X93695892Y-69620515D01*
X93707929Y-69557048D01*
X93730629Y-69525862D01*
X103413610Y-59842882D01*
X103474931Y-59809399D01*
X103544623Y-59814383D01*
X103600556Y-59856255D01*
X103619386Y-59898479D01*
X103620651Y-59898096D01*
X103622421Y-59903932D01*
X103675221Y-60031404D01*
X103675228Y-60031417D01*
X103751885Y-60146141D01*
X103751888Y-60146145D01*
X103849454Y-60243711D01*
X103849458Y-60243714D01*
X103964182Y-60320371D01*
X103964195Y-60320378D01*
X104072631Y-60365293D01*
X104091672Y-60373180D01*
X104091676Y-60373180D01*
X104091677Y-60373181D01*
X104227004Y-60400100D01*
X104227007Y-60400100D01*
X104364987Y-60400100D01*
X104364993Y-60400100D01*
X104364998Y-60400098D01*
X104365900Y-60400010D01*
X104366375Y-60400100D01*
X104371085Y-60400100D01*
X104371085Y-60400993D01*
X104434547Y-60413027D01*
X104465739Y-60435732D01*
X106221392Y-62191385D01*
X106254877Y-62252708D01*
X106249893Y-62322400D01*
X106208021Y-62378333D01*
X106202603Y-62382168D01*
X106144654Y-62420888D01*
X106047089Y-62518453D01*
X106046513Y-62519156D01*
X106046117Y-62519425D01*
X106042778Y-62522765D01*
X106042144Y-62522131D01*
X105988771Y-62558496D01*
X105950653Y-62564500D01*
X102700539Y-62564500D01*
X102700523Y-62564499D01*
X102692927Y-62564499D01*
X102587473Y-62564499D01*
X102536543Y-62578146D01*
X102485611Y-62591793D01*
X102445068Y-62615201D01*
X102377168Y-62631673D01*
X102311141Y-62608820D01*
X102279967Y-62576704D01*
X102226014Y-62495957D01*
X102128445Y-62398388D01*
X102128441Y-62398385D01*
X102013717Y-62321728D01*
X102013704Y-62321721D01*
X101886232Y-62268921D01*
X101886222Y-62268918D01*
X101750895Y-62242000D01*
X101750893Y-62242000D01*
X101612907Y-62242000D01*
X101612905Y-62242000D01*
X101477577Y-62268918D01*
X101477567Y-62268921D01*
X101350095Y-62321721D01*
X101350082Y-62321728D01*
X101235358Y-62398385D01*
X101235354Y-62398388D01*
X101137788Y-62495954D01*
X101137785Y-62495958D01*
X101061128Y-62610682D01*
X101061121Y-62610695D01*
X101008321Y-62738167D01*
X101008318Y-62738177D01*
X100981400Y-62873504D01*
X100981400Y-63011500D01*
X100981490Y-63012415D01*
X100981400Y-63012889D01*
X100981400Y-63017585D01*
X100980509Y-63017585D01*
X100968465Y-63081060D01*
X100945767Y-63112238D01*
X91975626Y-72082381D01*
X91914303Y-72115866D01*
X91887945Y-72118700D01*
X90373147Y-72118700D01*
X90306108Y-72099015D01*
X90281172Y-72076814D01*
X90281022Y-72076965D01*
X90278435Y-72074378D01*
X90277287Y-72073356D01*
X90276710Y-72072653D01*
X90179145Y-71975088D01*
X90179141Y-71975085D01*
X90064417Y-71898428D01*
X90064404Y-71898421D01*
X89936932Y-71845621D01*
X89936922Y-71845618D01*
X89801595Y-71818700D01*
X89801593Y-71818700D01*
X89663607Y-71818700D01*
X89663605Y-71818700D01*
X89528277Y-71845618D01*
X89528267Y-71845621D01*
X89400795Y-71898421D01*
X89400782Y-71898428D01*
X89286058Y-71975085D01*
X89286054Y-71975088D01*
X89188488Y-72072654D01*
X89188485Y-72072658D01*
X89111828Y-72187382D01*
X89111821Y-72187395D01*
X89059021Y-72314867D01*
X89059018Y-72314877D01*
X89032100Y-72450204D01*
X89032100Y-72450207D01*
X89032100Y-72588193D01*
X89032100Y-72588195D01*
X89032099Y-72588195D01*
X89046922Y-72662708D01*
X89040695Y-72732300D01*
X88997832Y-72787477D01*
X88931943Y-72810722D01*
X88925305Y-72810900D01*
X86134500Y-72810900D01*
X86067461Y-72791215D01*
X86021706Y-72738411D01*
X86010500Y-72686900D01*
X86010500Y-72539448D01*
X85988259Y-72399032D01*
X85982171Y-72360591D01*
X85937613Y-72223452D01*
X85926212Y-72188363D01*
X85926211Y-72188360D01*
X85889273Y-72115866D01*
X85843996Y-72027006D01*
X85817380Y-71990372D01*
X85737558Y-71880505D01*
X85737554Y-71880500D01*
X85609499Y-71752445D01*
X85609494Y-71752441D01*
X85462997Y-71646006D01*
X85462996Y-71646005D01*
X85462994Y-71646004D01*
X85328205Y-71577325D01*
X85277409Y-71529350D01*
X85260500Y-71466840D01*
X85260500Y-66651529D01*
X85260501Y-66651516D01*
X85260501Y-66536075D01*
X85260501Y-66536073D01*
X85233207Y-66434212D01*
X85206843Y-66388550D01*
X85180480Y-66342887D01*
X85105913Y-66268320D01*
X85105912Y-66268319D01*
X85101582Y-66263989D01*
X85101571Y-66263979D01*
X81035973Y-62198381D01*
X81002488Y-62137058D01*
X81007472Y-62067366D01*
X81035973Y-62023019D01*
X81099993Y-61958999D01*
X81351980Y-61707013D01*
X81404707Y-61615688D01*
X81432000Y-61513827D01*
X81432000Y-61408373D01*
X81432000Y-50617629D01*
X81432001Y-50617616D01*
X81432001Y-50502176D01*
X81432001Y-50502173D01*
X81431103Y-50498824D01*
X81430952Y-50494214D01*
X81430940Y-50494117D01*
X81430949Y-50494115D01*
X81429260Y-50442540D01*
X81449400Y-50341293D01*
X81449400Y-50203307D01*
X81449400Y-50203304D01*
X81437562Y-50143792D01*
X81443789Y-50074200D01*
X81486652Y-50019023D01*
X81552542Y-49995778D01*
X81559179Y-49995600D01*
X84610045Y-49995600D01*
X84677084Y-50015285D01*
X84697726Y-50031919D01*
X86550467Y-51884660D01*
X86583952Y-51945983D01*
X86585890Y-51979315D01*
X86586100Y-51979315D01*
X86586100Y-51982931D01*
X86586190Y-51984480D01*
X86586100Y-51985394D01*
X86586100Y-51985407D01*
X86586100Y-52123393D01*
X86586100Y-52123395D01*
X86586099Y-52123395D01*
X86613018Y-52258722D01*
X86613021Y-52258732D01*
X86665821Y-52386204D01*
X86665828Y-52386217D01*
X86742485Y-52500941D01*
X86742488Y-52500945D01*
X86840054Y-52598511D01*
X86840058Y-52598514D01*
X86954782Y-52675171D01*
X86954795Y-52675178D01*
X87082267Y-52727978D01*
X87082272Y-52727980D01*
X87082276Y-52727980D01*
X87082277Y-52727981D01*
X87217604Y-52754900D01*
X87217607Y-52754900D01*
X87355587Y-52754900D01*
X87355593Y-52754900D01*
X87355598Y-52754898D01*
X87356500Y-52754810D01*
X87356975Y-52754900D01*
X87361685Y-52754900D01*
X87361685Y-52755793D01*
X87425147Y-52767827D01*
X87456339Y-52790532D01*
X87661081Y-52995274D01*
X87694566Y-53056597D01*
X87697400Y-53082955D01*
X87697400Y-53847003D01*
X87677715Y-53914042D01*
X87624911Y-53959797D01*
X87555753Y-53969741D01*
X87549209Y-53968620D01*
X87417896Y-53942500D01*
X87417893Y-53942500D01*
X87279907Y-53942500D01*
X87279905Y-53942500D01*
X87144577Y-53969418D01*
X87144567Y-53969421D01*
X87017095Y-54022221D01*
X87017082Y-54022228D01*
X86902358Y-54098885D01*
X86902354Y-54098888D01*
X86804788Y-54196454D01*
X86804785Y-54196458D01*
X86728128Y-54311182D01*
X86728121Y-54311195D01*
X86675321Y-54438667D01*
X86675318Y-54438677D01*
X86648400Y-54574004D01*
X86648400Y-54712003D01*
X86648490Y-54712918D01*
X86648400Y-54713392D01*
X86648400Y-54718085D01*
X86647510Y-54718085D01*
X86635464Y-54781562D01*
X86612767Y-54812739D01*
X86151122Y-55274384D01*
X86151118Y-55274390D01*
X86098392Y-55365713D01*
X86098391Y-55365714D01*
X86084376Y-55418025D01*
X86084376Y-55418026D01*
X86071100Y-55467573D01*
X86071100Y-56802645D01*
X86051415Y-56869684D01*
X85998611Y-56915439D01*
X85929453Y-56925383D01*
X85865897Y-56896358D01*
X85859419Y-56890326D01*
X84820715Y-55851622D01*
X84820713Y-55851620D01*
X84775050Y-55825256D01*
X84729389Y-55798893D01*
X84678457Y-55785246D01*
X84627527Y-55771600D01*
X84627526Y-55771600D01*
X84135639Y-55771600D01*
X84135623Y-55771599D01*
X84128027Y-55771599D01*
X84022573Y-55771599D01*
X83954666Y-55789795D01*
X83920712Y-55798893D01*
X83829384Y-55851622D01*
X82114022Y-57566984D01*
X82114020Y-57566987D01*
X82061293Y-57658311D01*
X82039327Y-57740292D01*
X82034000Y-57760171D01*
X82034000Y-59655752D01*
X82014315Y-59722791D01*
X81992116Y-59747729D01*
X81992265Y-59747878D01*
X81989704Y-59750438D01*
X81988667Y-59751604D01*
X81987953Y-59752189D01*
X81890388Y-59849754D01*
X81890385Y-59849758D01*
X81813728Y-59964482D01*
X81813721Y-59964495D01*
X81760921Y-60091967D01*
X81760918Y-60091977D01*
X81734000Y-60227304D01*
X81734000Y-60227307D01*
X81734000Y-60365293D01*
X81734000Y-60365295D01*
X81733999Y-60365295D01*
X81760918Y-60500622D01*
X81760921Y-60500632D01*
X81813721Y-60628104D01*
X81813728Y-60628117D01*
X81890385Y-60742841D01*
X81890388Y-60742845D01*
X81987954Y-60840411D01*
X81987958Y-60840414D01*
X82102682Y-60917071D01*
X82102695Y-60917078D01*
X82185673Y-60951448D01*
X82230172Y-60969880D01*
X82230176Y-60969880D01*
X82230177Y-60969881D01*
X82365504Y-60996800D01*
X82365507Y-60996800D01*
X82503495Y-60996800D01*
X82600052Y-60977593D01*
X82638828Y-60969880D01*
X82766311Y-60917075D01*
X82881042Y-60840414D01*
X82978614Y-60742842D01*
X83055275Y-60628111D01*
X83108080Y-60500628D01*
X83127899Y-60400993D01*
X83135000Y-60365295D01*
X83135000Y-60227304D01*
X83108081Y-60091977D01*
X83108080Y-60091976D01*
X83108080Y-60091972D01*
X83108078Y-60091967D01*
X83055278Y-59964495D01*
X83055271Y-59964482D01*
X82978614Y-59849758D01*
X82978611Y-59849754D01*
X82881046Y-59752189D01*
X82880333Y-59751604D01*
X82880059Y-59751202D01*
X82876735Y-59747878D01*
X82877365Y-59747247D01*
X82841000Y-59693857D01*
X82835000Y-59655752D01*
X82835000Y-58030153D01*
X82854685Y-57963114D01*
X82871315Y-57942476D01*
X83570410Y-57243380D01*
X83631733Y-57209896D01*
X83701425Y-57214880D01*
X83757358Y-57256752D01*
X83761193Y-57262172D01*
X83781282Y-57292237D01*
X83781288Y-57292245D01*
X83878853Y-57389810D01*
X83879556Y-57390387D01*
X83879825Y-57390782D01*
X83883165Y-57394122D01*
X83882531Y-57394755D01*
X83918896Y-57448129D01*
X83924900Y-57486247D01*
X83924900Y-58043973D01*
X83924900Y-58149427D01*
X83928765Y-58163852D01*
X83952193Y-58251289D01*
X83977529Y-58295171D01*
X84004920Y-58342613D01*
X87686687Y-62024380D01*
X87778012Y-62077107D01*
X87879873Y-62104400D01*
X87879875Y-62104400D01*
X92249225Y-62104400D01*
X92249227Y-62104400D01*
X92351088Y-62077107D01*
X92442413Y-62024380D01*
X93059677Y-61407114D01*
X93121000Y-61373630D01*
X93190691Y-61378614D01*
X93246625Y-61420485D01*
X93250460Y-61425905D01*
X93324385Y-61536541D01*
X93324388Y-61536545D01*
X93421954Y-61634111D01*
X93421958Y-61634114D01*
X93536682Y-61710771D01*
X93536695Y-61710778D01*
X93664167Y-61763578D01*
X93664172Y-61763580D01*
X93664176Y-61763580D01*
X93664177Y-61763581D01*
X93799504Y-61790500D01*
X93799507Y-61790500D01*
X93937495Y-61790500D01*
X94028541Y-61772389D01*
X94072828Y-61763580D01*
X94200311Y-61710775D01*
X94315042Y-61634114D01*
X94412614Y-61536542D01*
X94489275Y-61421811D01*
X94542080Y-61294328D01*
X94569000Y-61158993D01*
X94569000Y-61021007D01*
X94568999Y-61021006D01*
X94568910Y-61020095D01*
X94569000Y-61019620D01*
X94569000Y-61014915D01*
X94569892Y-61014915D01*
X94581929Y-60951448D01*
X94604629Y-60920262D01*
X105186373Y-50338519D01*
X105247696Y-50305034D01*
X105274054Y-50302200D01*
X113134553Y-50302200D01*
X113201592Y-50321885D01*
X113226527Y-50344085D01*
X113226678Y-50343935D01*
X113229264Y-50346521D01*
X113230413Y-50347544D01*
X113230989Y-50348246D01*
X113328554Y-50445811D01*
X113328558Y-50445814D01*
X113443282Y-50522471D01*
X113443295Y-50522478D01*
X113570767Y-50575278D01*
X113570772Y-50575280D01*
X113570776Y-50575280D01*
X113570777Y-50575281D01*
X113706104Y-50602200D01*
X113706107Y-50602200D01*
X113844095Y-50602200D01*
X113955332Y-50580073D01*
X113979428Y-50575280D01*
X114106911Y-50522475D01*
X114221642Y-50445814D01*
X114319214Y-50348242D01*
X114395875Y-50233511D01*
X114448680Y-50106028D01*
X114464478Y-50026609D01*
X114475600Y-49970695D01*
X114475600Y-49832704D01*
X114448681Y-49697377D01*
X114448680Y-49697376D01*
X114448680Y-49697372D01*
X114431455Y-49655787D01*
X114395878Y-49569895D01*
X114395871Y-49569882D01*
X114319214Y-49455158D01*
X114319211Y-49455154D01*
X114221645Y-49357588D01*
X114221641Y-49357585D01*
X114106917Y-49280928D01*
X114106904Y-49280921D01*
X113979432Y-49228121D01*
X113979422Y-49228118D01*
X113844095Y-49201200D01*
X113844093Y-49201200D01*
X113706107Y-49201200D01*
X113706105Y-49201200D01*
X113570777Y-49228118D01*
X113570767Y-49228121D01*
X113443295Y-49280921D01*
X113443282Y-49280928D01*
X113328558Y-49357585D01*
X113328554Y-49357588D01*
X113230989Y-49455153D01*
X113230413Y-49455856D01*
X113230017Y-49456125D01*
X113226678Y-49459465D01*
X113226044Y-49458831D01*
X113172671Y-49495196D01*
X113134553Y-49501200D01*
X105117139Y-49501200D01*
X105117123Y-49501199D01*
X105109527Y-49501199D01*
X105004073Y-49501199D01*
X104907837Y-49526986D01*
X104907836Y-49526985D01*
X104902213Y-49528492D01*
X104810884Y-49581222D01*
X104736318Y-49655789D01*
X95059222Y-59332883D01*
X94997899Y-59366368D01*
X94928207Y-59361384D01*
X94872274Y-59319512D01*
X94868439Y-59314093D01*
X94798698Y-59209719D01*
X94777820Y-59143042D01*
X94777800Y-59140828D01*
X94777800Y-52449854D01*
X94797485Y-52382815D01*
X94814119Y-52362173D01*
X98742058Y-48434234D01*
X116728500Y-48434234D01*
X116728500Y-48585766D01*
X116735912Y-48613427D01*
X116767719Y-48732136D01*
X116784466Y-48761142D01*
X116843485Y-48863365D01*
X116950635Y-48970515D01*
X117081865Y-49046281D01*
X117228234Y-49085500D01*
X117228236Y-49085500D01*
X117379764Y-49085500D01*
X117379766Y-49085500D01*
X117526135Y-49046281D01*
X117657365Y-48970515D01*
X117764515Y-48863365D01*
X117840281Y-48732135D01*
X117879500Y-48585766D01*
X117879500Y-48434234D01*
X117840281Y-48287865D01*
X117764515Y-48156635D01*
X117657365Y-48049485D01*
X117580788Y-48005273D01*
X117526136Y-47973719D01*
X117393343Y-47938138D01*
X117379766Y-47934500D01*
X117228234Y-47934500D01*
X117081863Y-47973719D01*
X116950635Y-48049485D01*
X116950632Y-48049487D01*
X116843487Y-48156632D01*
X116843485Y-48156635D01*
X116767719Y-48287863D01*
X116735871Y-48406726D01*
X116728500Y-48434234D01*
X98742058Y-48434234D01*
X101862773Y-45313519D01*
X101924096Y-45280034D01*
X101950454Y-45277200D01*
X103426025Y-45277200D01*
X103426027Y-45277200D01*
X103527888Y-45249907D01*
X103619213Y-45197180D01*
X103958247Y-44858144D01*
X104019568Y-44824661D01*
X104089259Y-44829645D01*
X104093372Y-44831263D01*
X104237334Y-44890894D01*
X104237336Y-44890894D01*
X104237341Y-44890896D01*
X104411304Y-44925499D01*
X104411307Y-44925500D01*
X104411309Y-44925500D01*
X104588693Y-44925500D01*
X104588694Y-44925499D01*
X104646682Y-44913964D01*
X104762658Y-44890896D01*
X104762661Y-44890894D01*
X104762666Y-44890894D01*
X104910536Y-44829645D01*
X104926540Y-44823016D01*
X104926540Y-44823015D01*
X104926547Y-44823013D01*
X105074035Y-44724464D01*
X105199464Y-44599035D01*
X105298013Y-44451547D01*
X105365894Y-44287666D01*
X105372187Y-44256032D01*
X105400499Y-44113695D01*
X105400500Y-44113693D01*
X105400500Y-43893713D01*
X111149500Y-43893713D01*
X111149500Y-44106287D01*
X111151782Y-44120693D01*
X111178226Y-44287658D01*
X111182754Y-44316243D01*
X111244593Y-44506564D01*
X111248444Y-44518414D01*
X111344951Y-44707820D01*
X111469890Y-44879786D01*
X111620213Y-45030109D01*
X111792179Y-45155048D01*
X111792181Y-45155049D01*
X111792184Y-45155051D01*
X111981588Y-45251557D01*
X112183757Y-45317246D01*
X112393713Y-45350500D01*
X112393714Y-45350500D01*
X112606286Y-45350500D01*
X112606287Y-45350500D01*
X112816243Y-45317246D01*
X113018412Y-45251557D01*
X113207816Y-45155051D01*
X113241328Y-45130703D01*
X113379786Y-45030109D01*
X113379788Y-45030106D01*
X113379792Y-45030104D01*
X113530104Y-44879792D01*
X113530106Y-44879788D01*
X113530109Y-44879786D01*
X113655048Y-44707820D01*
X113655047Y-44707820D01*
X113655051Y-44707816D01*
X113751557Y-44518412D01*
X113817246Y-44316243D01*
X113850500Y-44106287D01*
X113850500Y-43893713D01*
X113817246Y-43683757D01*
X113751557Y-43481588D01*
X113655051Y-43292184D01*
X113655049Y-43292181D01*
X113655048Y-43292179D01*
X113530109Y-43120213D01*
X113379786Y-42969890D01*
X113207820Y-42844951D01*
X113018414Y-42748444D01*
X113018413Y-42748443D01*
X113018412Y-42748443D01*
X112816243Y-42682754D01*
X112816241Y-42682753D01*
X112816240Y-42682753D01*
X112654957Y-42657208D01*
X112606287Y-42649500D01*
X112393713Y-42649500D01*
X112345042Y-42657208D01*
X112183760Y-42682753D01*
X111981585Y-42748444D01*
X111792179Y-42844951D01*
X111620213Y-42969890D01*
X111469890Y-43120213D01*
X111344951Y-43292179D01*
X111248444Y-43481585D01*
X111248443Y-43481587D01*
X111248443Y-43481588D01*
X111182754Y-43683757D01*
X111149500Y-43893713D01*
X105400500Y-43893713D01*
X105400500Y-43386306D01*
X105400499Y-43386304D01*
X105365896Y-43212341D01*
X105365893Y-43212332D01*
X105298016Y-43048459D01*
X105298009Y-43048446D01*
X105199464Y-42900965D01*
X105199461Y-42900961D01*
X105074038Y-42775538D01*
X105074034Y-42775535D01*
X104926553Y-42676990D01*
X104926540Y-42676983D01*
X104762667Y-42609106D01*
X104762658Y-42609103D01*
X104588694Y-42574500D01*
X104588691Y-42574500D01*
X104411309Y-42574500D01*
X104411306Y-42574500D01*
X104237341Y-42609103D01*
X104237332Y-42609106D01*
X104073459Y-42676983D01*
X104073446Y-42676990D01*
X103925965Y-42775535D01*
X103925961Y-42775538D01*
X103800538Y-42900961D01*
X103800535Y-42900965D01*
X103701990Y-43048446D01*
X103701983Y-43048459D01*
X103634106Y-43212332D01*
X103634103Y-43212341D01*
X103599500Y-43386304D01*
X103599500Y-44032745D01*
X103579815Y-44099784D01*
X103563181Y-44120426D01*
X103243726Y-44439881D01*
X103182403Y-44473366D01*
X103156045Y-44476200D01*
X101950455Y-44476200D01*
X101883416Y-44456515D01*
X101862774Y-44439881D01*
X101788519Y-44365626D01*
X101755034Y-44304303D01*
X101752200Y-44277945D01*
X101752200Y-43697275D01*
X101752200Y-43697273D01*
X101724907Y-43595413D01*
X101672180Y-43504087D01*
X101597613Y-43429520D01*
X101508587Y-43378121D01*
X101506289Y-43376794D01*
X101506288Y-43376793D01*
X101506287Y-43376793D01*
X101492403Y-43373072D01*
X101432745Y-43336708D01*
X101402217Y-43273861D01*
X101400500Y-43253299D01*
X101400500Y-43081903D01*
X101400500Y-43081898D01*
X101389877Y-42993436D01*
X101334361Y-42852658D01*
X101334360Y-42852657D01*
X101334360Y-42852656D01*
X101242922Y-42732077D01*
X101122343Y-42640639D01*
X100981561Y-42585122D01*
X100935926Y-42579642D01*
X100893102Y-42574500D01*
X100106898Y-42574500D01*
X100067853Y-42579188D01*
X100018438Y-42585122D01*
X99877656Y-42640639D01*
X99757077Y-42732077D01*
X99665639Y-42852656D01*
X99610122Y-42993438D01*
X99604188Y-43042853D01*
X99599500Y-43081898D01*
X99599500Y-44418102D01*
X99603516Y-44451547D01*
X99610122Y-44506561D01*
X99610122Y-44506563D01*
X99610123Y-44506564D01*
X99627722Y-44551192D01*
X99665639Y-44647343D01*
X99757077Y-44767922D01*
X99877656Y-44859360D01*
X99877657Y-44859360D01*
X99877658Y-44859361D01*
X100018436Y-44914877D01*
X100106898Y-44925500D01*
X100106903Y-44925500D01*
X100818645Y-44925500D01*
X100885684Y-44945185D01*
X100931439Y-44997989D01*
X100941383Y-45067147D01*
X100912358Y-45130703D01*
X100906326Y-45137181D01*
X97441051Y-48602454D01*
X97379728Y-48635939D01*
X97310036Y-48630955D01*
X97254103Y-48589083D01*
X97244098Y-48571509D01*
X97243445Y-48571859D01*
X97240571Y-48566482D01*
X97163914Y-48451758D01*
X97163911Y-48451754D01*
X97066345Y-48354188D01*
X97066341Y-48354185D01*
X96951617Y-48277528D01*
X96951604Y-48277521D01*
X96824132Y-48224721D01*
X96824122Y-48224718D01*
X96688795Y-48197800D01*
X96688793Y-48197800D01*
X96550807Y-48197800D01*
X96550795Y-48197800D01*
X96549880Y-48197890D01*
X96549406Y-48197800D01*
X96544715Y-48197800D01*
X96544715Y-48196909D01*
X96481235Y-48184863D01*
X96450060Y-48162167D01*
X93445515Y-45157622D01*
X93445513Y-45157620D01*
X93384878Y-45122612D01*
X93354189Y-45104893D01*
X93303257Y-45091246D01*
X93252327Y-45077600D01*
X68911773Y-45077600D01*
X68809910Y-45104893D01*
X68781741Y-45121158D01*
X68779223Y-45122612D01*
X68765209Y-45130703D01*
X68718588Y-45157619D01*
X68718585Y-45157621D01*
X61706238Y-52169968D01*
X61644915Y-52203453D01*
X61575223Y-52198469D01*
X61519290Y-52156597D01*
X61504960Y-52128281D01*
X61503711Y-52128799D01*
X61448578Y-51995695D01*
X61448571Y-51995682D01*
X61371914Y-51880958D01*
X61371911Y-51880954D01*
X61274345Y-51783388D01*
X61274341Y-51783385D01*
X61159617Y-51706728D01*
X61159604Y-51706721D01*
X61032132Y-51653921D01*
X61032122Y-51653918D01*
X60896795Y-51627000D01*
X60896793Y-51627000D01*
X60758807Y-51627000D01*
X60758805Y-51627000D01*
X60623477Y-51653918D01*
X60623467Y-51653921D01*
X60495995Y-51706721D01*
X60495982Y-51706728D01*
X60381258Y-51783385D01*
X60381254Y-51783388D01*
X60283688Y-51880954D01*
X60283685Y-51880958D01*
X60207028Y-51995682D01*
X60207021Y-51995695D01*
X60154221Y-52123167D01*
X60154218Y-52123177D01*
X60127300Y-52258504D01*
X60127300Y-52396503D01*
X60127390Y-52397418D01*
X60127300Y-52397892D01*
X60127300Y-52402585D01*
X60126410Y-52402585D01*
X60114364Y-52466062D01*
X60091667Y-52497239D01*
X57110081Y-55478826D01*
X57048758Y-55512311D01*
X56979066Y-55507327D01*
X56923133Y-55465455D01*
X56898716Y-55399991D01*
X56898400Y-55391145D01*
X56898400Y-50169355D01*
X56918085Y-50102316D01*
X56934719Y-50081674D01*
X57444513Y-49571880D01*
X57958247Y-49058145D01*
X58019568Y-49024662D01*
X58089260Y-49029646D01*
X58093372Y-49031263D01*
X58237334Y-49090894D01*
X58237341Y-49090895D01*
X58237341Y-49090896D01*
X58411304Y-49125499D01*
X58411307Y-49125500D01*
X58411309Y-49125500D01*
X58588693Y-49125500D01*
X58588694Y-49125499D01*
X58654735Y-49112363D01*
X58762658Y-49090896D01*
X58762661Y-49090894D01*
X58762666Y-49090894D01*
X58926547Y-49023013D01*
X59074035Y-48924464D01*
X59199464Y-48799035D01*
X59298013Y-48651547D01*
X59365894Y-48487666D01*
X59367073Y-48481742D01*
X59392445Y-48354185D01*
X59400500Y-48313691D01*
X59400500Y-47586309D01*
X59400500Y-47586306D01*
X59400499Y-47586304D01*
X59365896Y-47412341D01*
X59365893Y-47412332D01*
X59298014Y-47248455D01*
X59298009Y-47248446D01*
X59199464Y-47100965D01*
X59199461Y-47100961D01*
X59074038Y-46975538D01*
X59074034Y-46975535D01*
X58926553Y-46876990D01*
X58926540Y-46876983D01*
X58762667Y-46809106D01*
X58762658Y-46809103D01*
X58588694Y-46774500D01*
X58588691Y-46774500D01*
X58411309Y-46774500D01*
X58411306Y-46774500D01*
X58237341Y-46809103D01*
X58237332Y-46809106D01*
X58073459Y-46876983D01*
X58073446Y-46876990D01*
X57925965Y-46975535D01*
X57925961Y-46975538D01*
X57800538Y-47100961D01*
X57800535Y-47100965D01*
X57701990Y-47248446D01*
X57701986Y-47248455D01*
X57634106Y-47412332D01*
X57634103Y-47412341D01*
X57622498Y-47470689D01*
X57590113Y-47532600D01*
X57532975Y-47566273D01*
X57493711Y-47576793D01*
X57493710Y-47576794D01*
X57402385Y-47629521D01*
X57327821Y-47704085D01*
X57275094Y-47795410D01*
X57275093Y-47795413D01*
X57247800Y-47897273D01*
X57247800Y-48584445D01*
X57228115Y-48651484D01*
X57211481Y-48672126D01*
X56177422Y-49706184D01*
X56177420Y-49706187D01*
X56124693Y-49797510D01*
X56118385Y-49821054D01*
X56111077Y-49848330D01*
X56110904Y-49848974D01*
X56097400Y-49899369D01*
X56097400Y-63349844D01*
X56077715Y-63416883D01*
X56061081Y-63437525D01*
X55009280Y-64489325D01*
X54947957Y-64522810D01*
X54883281Y-64519575D01*
X54739410Y-64472829D01*
X54560551Y-64444500D01*
X54560546Y-64444500D01*
X54379454Y-64444500D01*
X54379449Y-64444500D01*
X54200589Y-64472829D01*
X54028363Y-64528787D01*
X54028360Y-64528788D01*
X53867002Y-64611006D01*
X53720505Y-64717441D01*
X53720500Y-64717445D01*
X53592445Y-64845500D01*
X53592441Y-64845505D01*
X53486006Y-64992002D01*
X53403788Y-65153360D01*
X53403787Y-65153363D01*
X53347829Y-65325589D01*
X53322473Y-65485678D01*
X53292544Y-65548813D01*
X53233232Y-65585744D01*
X53163369Y-65584746D01*
X53105137Y-65546136D01*
X53077527Y-65485678D01*
X53060376Y-65377395D01*
X53052171Y-65325591D01*
X52996211Y-65153361D01*
X52996211Y-65153360D01*
X52967740Y-65097484D01*
X52913996Y-64992006D01*
X52861667Y-64919981D01*
X52807558Y-64845505D01*
X52807554Y-64845500D01*
X52679499Y-64717445D01*
X52679494Y-64717441D01*
X52532997Y-64611006D01*
X52532996Y-64611005D01*
X52532994Y-64611004D01*
X52481300Y-64584664D01*
X52371639Y-64528788D01*
X52371636Y-64528787D01*
X52199410Y-64472829D01*
X52020551Y-64444500D01*
X52020546Y-64444500D01*
X51839454Y-64444500D01*
X51839449Y-64444500D01*
X51660589Y-64472829D01*
X51488363Y-64528787D01*
X51488360Y-64528788D01*
X51327006Y-64611003D01*
X51257385Y-64661586D01*
X51191578Y-64685065D01*
X51123524Y-64669239D01*
X51074830Y-64619133D01*
X51060500Y-64561267D01*
X51060500Y-62204415D01*
X51080185Y-62137376D01*
X51132989Y-62091621D01*
X51202147Y-62081677D01*
X51242084Y-62096998D01*
X51243078Y-62095140D01*
X51248459Y-62098016D01*
X51344518Y-62137804D01*
X51412334Y-62165894D01*
X51412336Y-62165894D01*
X51412341Y-62165896D01*
X51586304Y-62200499D01*
X51586307Y-62200500D01*
X51586309Y-62200500D01*
X52313693Y-62200500D01*
X52313694Y-62200499D01*
X52375009Y-62188303D01*
X52487658Y-62165896D01*
X52487661Y-62165894D01*
X52487666Y-62165894D01*
X52651547Y-62098013D01*
X52799035Y-61999464D01*
X52924464Y-61874035D01*
X53023013Y-61726547D01*
X53090894Y-61562666D01*
X53096091Y-61536542D01*
X53125499Y-61388695D01*
X53125500Y-61388693D01*
X53125500Y-61211306D01*
X53125499Y-61211304D01*
X53090896Y-61037341D01*
X53090893Y-61037332D01*
X53023016Y-60873459D01*
X53023009Y-60873446D01*
X52924464Y-60725965D01*
X52924461Y-60725961D01*
X52799038Y-60600538D01*
X52799034Y-60600535D01*
X52651553Y-60501990D01*
X52651541Y-60501983D01*
X52519718Y-60447382D01*
X52499627Y-60439060D01*
X52445224Y-60395221D01*
X52423159Y-60328927D01*
X52440438Y-60261227D01*
X52491575Y-60213617D01*
X52547080Y-60200500D01*
X52618097Y-60200500D01*
X52618102Y-60200500D01*
X52706564Y-60189877D01*
X52847342Y-60134361D01*
X52967922Y-60042922D01*
X53059361Y-59922342D01*
X53114877Y-59781564D01*
X53125500Y-59693102D01*
X53125500Y-58906898D01*
X53114877Y-58818436D01*
X53059361Y-58677658D01*
X53059360Y-58677657D01*
X53059360Y-58677656D01*
X52967922Y-58557077D01*
X52847343Y-58465639D01*
X52715959Y-58413828D01*
X52706564Y-58410123D01*
X52706563Y-58410122D01*
X52706561Y-58410122D01*
X52660926Y-58404642D01*
X52618102Y-58399500D01*
X51281898Y-58399500D01*
X51242853Y-58404188D01*
X51193438Y-58410122D01*
X51052656Y-58465639D01*
X50932077Y-58557077D01*
X50840639Y-58677656D01*
X50785122Y-58818438D01*
X50780523Y-58856744D01*
X50774500Y-58906898D01*
X50774500Y-59693102D01*
X50777720Y-59719915D01*
X50785122Y-59781561D01*
X50840639Y-59922343D01*
X50932077Y-60042922D01*
X51052656Y-60134360D01*
X51052657Y-60134360D01*
X51052658Y-60134361D01*
X51193436Y-60189877D01*
X51281898Y-60200500D01*
X51281903Y-60200500D01*
X51352920Y-60200500D01*
X51419959Y-60220185D01*
X51465714Y-60272989D01*
X51475658Y-60342147D01*
X51446633Y-60405703D01*
X51400372Y-60439060D01*
X51384134Y-60445786D01*
X51248458Y-60501983D01*
X51248446Y-60501990D01*
X51134183Y-60578339D01*
X51067505Y-60599217D01*
X51000125Y-60580732D01*
X50977611Y-60562918D01*
X48171988Y-57757295D01*
X54322899Y-57757295D01*
X54349818Y-57892622D01*
X54349821Y-57892632D01*
X54402621Y-58020104D01*
X54402628Y-58020117D01*
X54479285Y-58134841D01*
X54479288Y-58134845D01*
X54576854Y-58232411D01*
X54576858Y-58232414D01*
X54691582Y-58309071D01*
X54691595Y-58309078D01*
X54787035Y-58348610D01*
X54819072Y-58361880D01*
X54819076Y-58361880D01*
X54819077Y-58361881D01*
X54954404Y-58388800D01*
X54954407Y-58388800D01*
X55092395Y-58388800D01*
X55183441Y-58370689D01*
X55227728Y-58361880D01*
X55355211Y-58309075D01*
X55469942Y-58232414D01*
X55567514Y-58134842D01*
X55644175Y-58020111D01*
X55696980Y-57892628D01*
X55708782Y-57833297D01*
X55723900Y-57757295D01*
X55723900Y-57619304D01*
X55696981Y-57483977D01*
X55696980Y-57483976D01*
X55696980Y-57483972D01*
X55691225Y-57470077D01*
X55644178Y-57356495D01*
X55644171Y-57356482D01*
X55567514Y-57241758D01*
X55567511Y-57241754D01*
X55469946Y-57144189D01*
X55469233Y-57143604D01*
X55468959Y-57143202D01*
X55465635Y-57139878D01*
X55466265Y-57139247D01*
X55429900Y-57085857D01*
X55423900Y-57047752D01*
X55423900Y-47299354D01*
X55443585Y-47232315D01*
X55460219Y-47211673D01*
X56793292Y-45878600D01*
X58150288Y-44521603D01*
X58211609Y-44488120D01*
X58281301Y-44493104D01*
X58325648Y-44521605D01*
X58399854Y-44595811D01*
X58399858Y-44595814D01*
X58514582Y-44672471D01*
X58514595Y-44672478D01*
X58640095Y-44724461D01*
X58642072Y-44725280D01*
X58642076Y-44725280D01*
X58642077Y-44725281D01*
X58777404Y-44752200D01*
X58777407Y-44752200D01*
X58915395Y-44752200D01*
X59006441Y-44734089D01*
X59050728Y-44725280D01*
X59178211Y-44672475D01*
X59292942Y-44595814D01*
X59390514Y-44498242D01*
X59467175Y-44383511D01*
X59519980Y-44256028D01*
X59546900Y-44120693D01*
X59546900Y-43982707D01*
X59546900Y-43982704D01*
X59519981Y-43847377D01*
X59519980Y-43847376D01*
X59519980Y-43847372D01*
X59502755Y-43805787D01*
X59467178Y-43719895D01*
X59467171Y-43719882D01*
X59390514Y-43605158D01*
X59390511Y-43605154D01*
X59292945Y-43507588D01*
X59292941Y-43507585D01*
X59178217Y-43430928D01*
X59178204Y-43430921D01*
X59050732Y-43378121D01*
X59050722Y-43378118D01*
X58915395Y-43351200D01*
X58915393Y-43351200D01*
X58777407Y-43351200D01*
X58777405Y-43351200D01*
X58642077Y-43378118D01*
X58642067Y-43378121D01*
X58514595Y-43430921D01*
X58514582Y-43430928D01*
X58399858Y-43507585D01*
X58399854Y-43507588D01*
X58302289Y-43605153D01*
X58301713Y-43605856D01*
X58301317Y-43606125D01*
X58297978Y-43609465D01*
X58297344Y-43608831D01*
X58243971Y-43645196D01*
X58205853Y-43651200D01*
X58001073Y-43651200D01*
X57899211Y-43678493D01*
X57890092Y-43683757D01*
X57890093Y-43683758D01*
X57807887Y-43731220D01*
X57807884Y-43731222D01*
X54702922Y-46836184D01*
X54702920Y-46836187D01*
X54650193Y-46927510D01*
X54646493Y-46941320D01*
X54626512Y-47015891D01*
X54624706Y-47022632D01*
X54622900Y-47029371D01*
X54622900Y-57047752D01*
X54603215Y-57114791D01*
X54581016Y-57139729D01*
X54581165Y-57139878D01*
X54578604Y-57142438D01*
X54577567Y-57143604D01*
X54576853Y-57144189D01*
X54479288Y-57241754D01*
X54479285Y-57241758D01*
X54402628Y-57356482D01*
X54402621Y-57356495D01*
X54349821Y-57483967D01*
X54349818Y-57483977D01*
X54322900Y-57619304D01*
X54322900Y-57619307D01*
X54322900Y-57757293D01*
X54322900Y-57757295D01*
X54322899Y-57757295D01*
X48171988Y-57757295D01*
X44245185Y-53830492D01*
X44211700Y-53769169D01*
X44216684Y-53699477D01*
X44258556Y-53643544D01*
X44263975Y-53639709D01*
X44292698Y-53620516D01*
X44399035Y-53549464D01*
X44524464Y-53424035D01*
X44623013Y-53276547D01*
X44690894Y-53112666D01*
X44697072Y-53081611D01*
X44714245Y-52995274D01*
X44725500Y-52938691D01*
X44725500Y-52761309D01*
X44725500Y-52761306D01*
X44725499Y-52761304D01*
X44690896Y-52587341D01*
X44690893Y-52587332D01*
X44687233Y-52578497D01*
X44650412Y-52489600D01*
X44623016Y-52423459D01*
X44623009Y-52423446D01*
X44524464Y-52275965D01*
X44524461Y-52275961D01*
X44399038Y-52150538D01*
X44399034Y-52150535D01*
X44251553Y-52051990D01*
X44251540Y-52051983D01*
X44087667Y-51984106D01*
X44087658Y-51984103D01*
X43913694Y-51949500D01*
X43913691Y-51949500D01*
X43186309Y-51949500D01*
X43186306Y-51949500D01*
X43012341Y-51984103D01*
X43012332Y-51984106D01*
X42848459Y-52051983D01*
X42848446Y-52051990D01*
X42700965Y-52150535D01*
X42700961Y-52150538D01*
X42575538Y-52275961D01*
X42575535Y-52275965D01*
X42476990Y-52423446D01*
X42476983Y-52423459D01*
X42409106Y-52587332D01*
X42409103Y-52587341D01*
X42374500Y-52761304D01*
X40300500Y-52761304D01*
X40300500Y-47924500D01*
X40320185Y-47857461D01*
X40372989Y-47811706D01*
X40424500Y-47800500D01*
X47639560Y-47800500D01*
X47639562Y-47800500D01*
X47715989Y-47780021D01*
X47784511Y-47740460D01*
X47840460Y-47684511D01*
X47880021Y-47615989D01*
X47900500Y-47539562D01*
X47900500Y-43893713D01*
X48649500Y-43893713D01*
X48649500Y-44106287D01*
X48651782Y-44120693D01*
X48678226Y-44287658D01*
X48682754Y-44316243D01*
X48744593Y-44506564D01*
X48748444Y-44518414D01*
X48844951Y-44707820D01*
X48969890Y-44879786D01*
X49120213Y-45030109D01*
X49292179Y-45155048D01*
X49292181Y-45155049D01*
X49292184Y-45155051D01*
X49481588Y-45251557D01*
X49683757Y-45317246D01*
X49893713Y-45350500D01*
X49893714Y-45350500D01*
X50106286Y-45350500D01*
X50106287Y-45350500D01*
X50316243Y-45317246D01*
X50518412Y-45251557D01*
X50707816Y-45155051D01*
X50741328Y-45130703D01*
X50879786Y-45030109D01*
X50879788Y-45030106D01*
X50879792Y-45030104D01*
X51030104Y-44879792D01*
X51030106Y-44879788D01*
X51030109Y-44879786D01*
X51155048Y-44707820D01*
X51155047Y-44707820D01*
X51155051Y-44707816D01*
X51251557Y-44518412D01*
X51317246Y-44316243D01*
X51350500Y-44106287D01*
X51350500Y-43893713D01*
X51317246Y-43683757D01*
X51251557Y-43481588D01*
X51155051Y-43292184D01*
X51155049Y-43292181D01*
X51155048Y-43292179D01*
X51030109Y-43120213D01*
X50879786Y-42969890D01*
X50707820Y-42844951D01*
X50518414Y-42748444D01*
X50518413Y-42748443D01*
X50518412Y-42748443D01*
X50316243Y-42682754D01*
X50316241Y-42682753D01*
X50316240Y-42682753D01*
X50154957Y-42657208D01*
X50106287Y-42649500D01*
X49893713Y-42649500D01*
X49845042Y-42657208D01*
X49683760Y-42682753D01*
X49481585Y-42748444D01*
X49292179Y-42844951D01*
X49120213Y-42969890D01*
X48969890Y-43120213D01*
X48844951Y-43292179D01*
X48748444Y-43481585D01*
X48748443Y-43481587D01*
X48748443Y-43481588D01*
X48682754Y-43683757D01*
X48649500Y-43893713D01*
X47900500Y-43893713D01*
X47900500Y-40424500D01*
X47920185Y-40357461D01*
X47972989Y-40311706D01*
X48024500Y-40300500D01*
X115429500Y-40300500D01*
X115496539Y-40320185D01*
G37*
%TD.AperFunction*%
%TD*%
M02*
