M48
; DRILL file KiCad 10.0.6 date 2026-09-14T19:03:00
; FORMAT={-:-/ absolute / metric / decimal}
; #@! TF.CreationDate,2026-09-14T19:03:00+09:00
; #@! TF.GenerationSoftware,Kicad,Pcbnew,10.0.6
; #@! TF.FileFunction,Plated,1,2,PTH
FMAT,2
METRIC
; #@! TA.AperFunction,Plated,PTH,ViaDrill
T1C0.300
; #@! TA.AperFunction,Plated,PTH,ViaDrill
T2C0.400
; #@! TA.AperFunction,Plated,PTH,ComponentDrill
T3C0.600
; #@! TA.AperFunction,Plated,PTH,ComponentDrill
T4C0.750
; #@! TA.AperFunction,Plated,PTH,ComponentDrill
T5C1.000
%
G90
G05
T1
X41.0Y-47.6
X41.0Y-50.8
X41.0Y-54.0
X41.0Y-57.2
X41.0Y-60.4
X41.0Y-63.6
X41.0Y-70.0
X41.0Y-73.2
X41.0Y-76.4
X44.2Y-47.6
X44.2Y-57.2
X44.2Y-60.4
X44.2Y-70.0
X44.2Y-76.4
X47.4Y-41.2
X47.4Y-44.4
X47.4Y-47.6
X47.4Y-54.0
X47.4Y-70.0
X47.4Y-73.2
X47.4Y-76.4
X50.6Y-41.2
X50.6Y-47.6
X50.6Y-54.0
X50.6Y-63.6
X50.6Y-73.2
X50.6Y-76.4
X53.8Y-41.2
X53.8Y-44.4
X53.8Y-47.6
X53.8Y-54.0
X53.8Y-73.2
X53.8Y-76.4
X57.0Y-41.2
X57.0Y-73.2
X57.0Y-76.4
X60.2Y-41.2
X60.2Y-50.8
X60.2Y-73.2
X60.2Y-76.4
X63.4Y-41.2
X63.4Y-63.6
X63.4Y-66.8
X63.4Y-73.2
X63.4Y-76.4
X66.6Y-41.2
X66.6Y-66.8
X66.6Y-73.2
X66.6Y-76.4
X69.8Y-41.2
X69.8Y-66.8
X69.8Y-76.4
X73.0Y-41.2
X73.0Y-66.8
X73.0Y-76.4
X76.2Y-41.2
X76.2Y-76.4
X79.4Y-41.2
X79.4Y-63.6
X79.4Y-66.8
X79.4Y-76.4
X82.6Y-41.2
X82.6Y-66.8
X82.6Y-76.4
X85.8Y-41.2
X85.8Y-44.4
X85.8Y-76.4
X89.0Y-41.2
X89.0Y-44.4
X89.0Y-66.8
X89.0Y-76.4
X92.2Y-41.2
X92.2Y-44.4
X92.2Y-47.6
X92.2Y-76.4
X95.4Y-41.2
X95.4Y-44.4
X95.4Y-47.6
X95.4Y-50.8
X95.4Y-76.4
X98.6Y-41.2
X98.6Y-47.6
X98.6Y-54.0
X98.6Y-73.2
X98.6Y-76.4
X101.8Y-41.2
X101.8Y-54.0
X101.8Y-73.2
X101.8Y-76.4
X105.0Y-41.2
X105.0Y-47.6
X105.0Y-54.0
X105.0Y-66.8
X105.0Y-73.2
X105.0Y-76.4
X108.2Y-41.2
X108.2Y-47.6
X108.2Y-66.8
X108.2Y-73.2
X108.2Y-76.4
X111.4Y-41.2
X111.4Y-54.0
X111.4Y-57.2
X111.4Y-66.8
X111.4Y-76.4
X114.6Y-41.2
X114.6Y-44.4
X114.6Y-60.4
X114.6Y-63.6
X114.6Y-73.2
X114.6Y-76.4
X117.8Y-50.8
X117.8Y-60.4
X117.8Y-63.6
X117.8Y-66.8
X117.8Y-70.0
X117.8Y-73.2
X117.8Y-76.4
X121.0Y-47.6
X121.0Y-50.8
X121.0Y-54.0
X121.0Y-57.2
X121.0Y-60.4
X121.0Y-63.6
X121.0Y-66.8
X121.0Y-70.0
X121.0Y-73.2
X121.0Y-76.4
T2
X51.497Y-71.86
X54.796Y-56.782
X56.332Y-49.3
X56.334Y-53.06
X56.508Y-62.794
X56.6Y-59.627
X58.81Y-65.441
X58.877Y-45.538
X59.7Y-64.127
X61.432Y-57.71
X62.235Y-60.617
X64.508Y-53.708
X65.938Y-53.515
X66.082Y-49.855
X66.531Y-55.058
X67.876Y-54.822
X68.171Y-63.243
X70.085Y-63.077
X70.195Y-53.738
X70.238Y-49.424
X70.943Y-51.767
X71.682Y-53.475
X72.053Y-63.022
X72.596Y-50.897
X72.963Y-72.195
X73.411Y-56.023
X73.579Y-50.664
X73.58Y-49.7
X73.593Y-59.816
X74.146Y-58.986
X74.544Y-47.475
X75.376Y-44.809
X76.634Y-47.012
X77.574Y-60.048
X79.668Y-56.611
X79.837Y-60.296
X80.747Y-50.108
X82.09Y-51.774
X83.063Y-48.242
X83.157Y-46.134
X83.695Y-56.529
X85.947Y-54.804
X86.013Y-55.833
X86.655Y-46.157
X87.35Y-54.339
X88.331Y-60.865
X88.625Y-50.803
X89.145Y-47.924
X89.733Y-72.519
X89.879Y-56.789
X91.186Y-58.395
X91.481Y-64.999
X93.745Y-71.86
X94.25Y-59.331
X94.289Y-65.308
X95.659Y-49.013
X96.62Y-48.898
X96.762Y-53.254
X99.923Y-61.09
X101.638Y-64.662
X101.682Y-62.944
X104.296Y-59.7
X105.882Y-59.914
X106.636Y-62.965
X114.149Y-49.902
X117.382Y-52.75
T4
X43.55Y-50.85
X43.55Y-52.85
X51.95Y-59.3
X51.95Y-61.3
X100.5Y-43.75
X102.5Y-43.75
X104.5Y-43.75
X106.5Y-43.75
X114.3Y-69.35
X116.3Y-69.35
T5
X41.77Y-65.595
X44.31Y-65.595
X46.85Y-65.595
X49.39Y-65.595
X51.93Y-65.595
X54.47Y-65.595
X57.01Y-65.595
X77.24Y-72.63
X79.78Y-72.63
X82.32Y-72.63
X84.86Y-72.63
T3
X116.224Y-47.08G85X117.324Y-47.08
G05
X116.224Y-55.72G85X117.324Y-55.72
G05
M30
