%TF.GenerationSoftware,KiCad,Pcbnew,10.0.6*%
%TF.CreationDate,2026-09-17T04:15:04+09:00*%
%TF.ProjectId,katanori61,6b617461-6e6f-4726-9936-312e6b696361,rev?*%
%TF.SameCoordinates,Original*%
%TF.FileFunction,Copper,L3,Inr*%
%TF.FilePolarity,Positive*%
%FSLAX46Y46*%
G04 Gerber Fmt 4.6, Leading zero omitted, Abs format (unit mm)*
G04 Created by KiCad (PCBNEW 10.0.6) date 2026-09-17 04:15:04*
%MOMM*%
%LPD*%
G01*
G04 APERTURE LIST*
G04 Aperture macros list*
%AMRoundRect*
0 Rectangle with rounded corners*
0 $1 Rounding radius*
0 $2 $3 $4 $5 $6 $7 $8 $9 X,Y pos of 4 corners*
0 Add a 4 corners polygon primitive as box body*
4,1,4,$2,$3,$4,$5,$6,$7,$8,$9,$2,$3,0*
0 Add four circle primitives for the rounded corners*
1,1,$1+$1,$2,$3*
1,1,$1+$1,$4,$5*
1,1,$1+$1,$6,$7*
1,1,$1+$1,$8,$9*
0 Add four rect primitives between the rounded corners*
20,1,$1+$1,$2,$3,$4,$5,0*
20,1,$1+$1,$4,$5,$6,$7,0*
20,1,$1+$1,$6,$7,$8,$9,0*
20,1,$1+$1,$8,$9,$2,$3,0*%
G04 Aperture macros list end*
%TA.AperFunction,ComponentPad*%
%ADD10RoundRect,0.250000X-0.350000X-0.625000X0.350000X-0.625000X0.350000X0.625000X-0.350000X0.625000X0*%
%TD*%
%TA.AperFunction,ComponentPad*%
%ADD11O,1.200000X1.750000*%
%TD*%
%TA.AperFunction,ComponentPad*%
%ADD12RoundRect,0.250000X-0.625000X0.350000X-0.625000X-0.350000X0.625000X-0.350000X0.625000X0.350000X0*%
%TD*%
%TA.AperFunction,ComponentPad*%
%ADD13O,1.750000X1.200000*%
%TD*%
%TA.AperFunction,ComponentPad*%
%ADD14R,1.700000X1.700000*%
%TD*%
%TA.AperFunction,ComponentPad*%
%ADD15C,1.700000*%
%TD*%
%TA.AperFunction,ComponentPad*%
%ADD16O,1.000000X2.100000*%
%TD*%
%TA.AperFunction,ViaPad*%
%ADD17C,0.600000*%
%TD*%
%TA.AperFunction,Conductor*%
%ADD18C,0.200000*%
%TD*%
%TA.AperFunction,Conductor*%
%ADD19C,0.400000*%
%TD*%
G04 APERTURE END LIST*
D10*
%TO.N,SPKP*%
%TO.C,J4*%
X114300000Y-67850000D03*
D11*
%TO.N,SPKM*%
X116300000Y-67850000D03*
%TD*%
D12*
%TO.N,SPKM*%
%TO.C,J5*%
X51950000Y-59300000D03*
D13*
%TO.N,SPKO*%
X51950000Y-61300000D03*
%TD*%
D10*
%TO.N,GND*%
%TO.C,J6*%
X56500000Y-46850000D03*
D11*
%TO.N,BTN*%
X58500000Y-46850000D03*
%TD*%
D10*
%TO.N,EN*%
%TO.C,J7*%
X100500000Y-43750000D03*
D11*
%TO.N,GND*%
X102500000Y-43750000D03*
%TO.N,EN*%
X104500000Y-43750000D03*
%TO.N,GND*%
X106500000Y-43750000D03*
%TD*%
D12*
%TO.N,GND*%
%TO.C,J10*%
X115700000Y-60450000D03*
D13*
%TO.N,BATRAW*%
X115700000Y-62450000D03*
%TD*%
D14*
%TO.N,V5*%
%TO.C,J1*%
X41770000Y-65595000D03*
D15*
%TO.N,GND*%
X44310000Y-65595000D03*
%TO.N,V33*%
X46850000Y-65595000D03*
%TO.N,SDA*%
X49390000Y-65595000D03*
%TO.N,SCL*%
X51930000Y-65595000D03*
%TO.N,BTN*%
X54470000Y-65595000D03*
%TO.N,IN*%
X57010000Y-65595000D03*
%TD*%
D14*
%TO.N,GND*%
%TO.C,J2*%
X77240000Y-72630000D03*
D15*
%TO.N,V33*%
X79780000Y-72630000D03*
%TO.N,SCL*%
X82320000Y-72630000D03*
%TO.N,SDA*%
X84860000Y-72630000D03*
%TD*%
D16*
%TO.N,GND*%
%TO.C,J13*%
X85332000Y-44280000D03*
X76692000Y-44280000D03*
%TD*%
D17*
%TO.N,GND*%
X61325000Y-62725000D03*
X61325000Y-64075000D03*
X62675000Y-62725000D03*
X62675000Y-64075000D03*
X72875000Y-61390000D03*
X72875000Y-62640000D03*
X74125000Y-61390000D03*
X74125000Y-62640000D03*
%TO.N,BATG*%
X82083600Y-69520300D03*
X84273200Y-62450000D03*
%TO.N,BATRAW*%
X84939100Y-64151700D03*
%TO.N,CC1*%
X58895700Y-71308300D03*
X82043400Y-43999700D03*
%TO.N,CC2*%
X62293300Y-71308300D03*
X79462200Y-44018100D03*
%TO.N,COL*%
X56071700Y-57902300D03*
X97444900Y-51806800D03*
%TO.N,EN*%
X58635800Y-63725000D03*
X84201200Y-53550300D03*
%TO.N,FB*%
X67938400Y-55554700D03*
X60455700Y-66026700D03*
%TO.N,GND*%
X76851100Y-58546700D03*
X53200100Y-62165500D03*
X79401100Y-59455700D03*
%TO.N,IN*%
X58568900Y-55372400D03*
%TO.N,LBI*%
X61526300Y-55564600D03*
X59161200Y-62425000D03*
%TO.N,LBO*%
X72910600Y-49231600D03*
X59157000Y-64375000D03*
%TO.N,PROG1*%
X77050000Y-62015000D03*
X76303100Y-65381800D03*
%TO.N,SCL*%
X89156200Y-58400000D03*
X106725900Y-62965000D03*
X78498900Y-57537200D03*
%TO.N,SDA*%
X84947100Y-59687400D03*
X101854300Y-63684800D03*
X79321800Y-57579700D03*
%TO.N,SPKM*%
X69665600Y-60302300D03*
%TO.N,SPKO*%
X106922900Y-56898300D03*
%TO.N,SPKP*%
X105486500Y-59818200D03*
%TO.N,THERM*%
X70898300Y-63543800D03*
X74609200Y-73163400D03*
%TO.N,V33*%
X82832500Y-59703300D03*
%TO.N,V5*%
X66472000Y-52546700D03*
X64855400Y-64246300D03*
X53994600Y-55807000D03*
X62235500Y-44392800D03*
X96817900Y-59701700D03*
%TO.N,VBUS*%
X70174200Y-63980000D03*
X74073100Y-65095700D03*
X75806500Y-53224700D03*
X75539800Y-71375000D03*
X66020600Y-71410900D03*
X83253200Y-46380500D03*
%TO.N,VLIPO*%
X66797200Y-59604800D03*
X75951700Y-60314800D03*
%TO.N,VPCC*%
X75474000Y-57191300D03*
X71086000Y-60021400D03*
%TO.N,VSYS*%
X71813200Y-60429600D03*
X63369300Y-60122100D03*
X69000000Y-61039800D03*
X73364800Y-52756700D03*
%TO.N,GND*%
X41000000Y-76400000D03*
X41000000Y-73200000D03*
X41000000Y-70000000D03*
X41000000Y-63600000D03*
X41000000Y-60400000D03*
X41000000Y-57200000D03*
X41000000Y-54000000D03*
X41000000Y-50800000D03*
X41000000Y-47600000D03*
X41000000Y-44400000D03*
X44200000Y-76400000D03*
X44200000Y-70000000D03*
X44200000Y-60400000D03*
X44200000Y-57200000D03*
X44200000Y-54000000D03*
X44200000Y-50800000D03*
X44200000Y-47600000D03*
X44200000Y-41200000D03*
X47400000Y-76400000D03*
X47400000Y-73200000D03*
X47400000Y-70000000D03*
X47400000Y-57200000D03*
X47400000Y-54000000D03*
X47400000Y-50800000D03*
X47400000Y-47600000D03*
X47400000Y-44400000D03*
X47400000Y-41200000D03*
X50600000Y-76400000D03*
X50600000Y-73200000D03*
X50600000Y-70000000D03*
X50600000Y-63600000D03*
X50600000Y-54000000D03*
X50600000Y-50800000D03*
X50600000Y-47600000D03*
X50600000Y-44400000D03*
X50600000Y-41200000D03*
X53800000Y-76400000D03*
X53800000Y-73200000D03*
X53800000Y-44400000D03*
X53800000Y-41200000D03*
X57000000Y-76400000D03*
X57000000Y-41200000D03*
X60200000Y-76400000D03*
X60200000Y-47600000D03*
X60200000Y-41200000D03*
X63400000Y-76400000D03*
X63400000Y-41200000D03*
X66600000Y-76400000D03*
X66600000Y-47600000D03*
X66600000Y-44400000D03*
X66600000Y-41200000D03*
X69800000Y-76400000D03*
X69800000Y-70000000D03*
X69800000Y-44400000D03*
X69800000Y-41200000D03*
X73000000Y-76400000D03*
X73000000Y-41200000D03*
X76200000Y-76400000D03*
X76200000Y-41200000D03*
X79400000Y-76400000D03*
X79400000Y-47600000D03*
X79400000Y-41200000D03*
X82600000Y-76400000D03*
X82600000Y-50800000D03*
X82600000Y-41200000D03*
X85800000Y-76400000D03*
X85800000Y-66800000D03*
X85800000Y-54000000D03*
X85800000Y-47600000D03*
X85800000Y-41200000D03*
X89000000Y-76400000D03*
X89000000Y-73200000D03*
X89000000Y-70000000D03*
X89000000Y-66800000D03*
X89000000Y-54000000D03*
X89000000Y-50800000D03*
X89000000Y-44400000D03*
X89000000Y-41200000D03*
X92200000Y-76400000D03*
X92200000Y-73200000D03*
X92200000Y-70000000D03*
X92200000Y-66800000D03*
X92200000Y-63600000D03*
X92200000Y-54000000D03*
X92200000Y-50800000D03*
X92200000Y-47600000D03*
X92200000Y-41200000D03*
X95400000Y-76400000D03*
X95400000Y-73200000D03*
X95400000Y-70000000D03*
X95400000Y-66800000D03*
X95400000Y-54000000D03*
X95400000Y-50800000D03*
X95400000Y-47600000D03*
X95400000Y-41200000D03*
X98600000Y-76400000D03*
X98600000Y-73200000D03*
X98600000Y-70000000D03*
X98600000Y-66800000D03*
X98600000Y-54000000D03*
X98600000Y-47600000D03*
X98600000Y-41200000D03*
X101800000Y-76400000D03*
X101800000Y-73200000D03*
X101800000Y-70000000D03*
X101800000Y-66800000D03*
X101800000Y-54000000D03*
X101800000Y-47600000D03*
X101800000Y-41200000D03*
X105000000Y-76400000D03*
X105000000Y-73200000D03*
X105000000Y-70000000D03*
X105000000Y-66800000D03*
X105000000Y-54000000D03*
X105000000Y-47600000D03*
X105000000Y-41200000D03*
X108200000Y-76400000D03*
X108200000Y-73200000D03*
X108200000Y-70000000D03*
X108200000Y-66800000D03*
X108200000Y-54000000D03*
X108200000Y-47600000D03*
X108200000Y-41200000D03*
X111400000Y-76400000D03*
X111400000Y-73200000D03*
X111400000Y-70000000D03*
X111400000Y-57200000D03*
X111400000Y-54000000D03*
X111400000Y-50800000D03*
X111400000Y-44400000D03*
X111400000Y-41200000D03*
X114600000Y-76400000D03*
X114600000Y-73200000D03*
X114600000Y-70000000D03*
X114600000Y-57200000D03*
X114600000Y-54000000D03*
X114600000Y-47600000D03*
X114600000Y-44400000D03*
X114600000Y-41200000D03*
X117800000Y-76400000D03*
X117800000Y-70000000D03*
X117800000Y-66800000D03*
X117800000Y-63600000D03*
X117800000Y-60400000D03*
X117800000Y-57200000D03*
X117800000Y-54000000D03*
X117800000Y-50800000D03*
X117800000Y-47600000D03*
X117800000Y-44400000D03*
X117800000Y-41200000D03*
X121000000Y-76400000D03*
X121000000Y-70000000D03*
X121000000Y-66800000D03*
X121000000Y-63600000D03*
X121000000Y-60400000D03*
X121000000Y-57200000D03*
X121000000Y-54000000D03*
X121000000Y-50800000D03*
X121000000Y-47600000D03*
X121000000Y-44400000D03*
X121000000Y-41200000D03*
%TD*%
%TO.N,BTN*%
D18*
X54470000Y-65595000D02*
X54470000Y-57702400D01*
X54470000Y-57702400D02*
X58500000Y-53672400D01*
X58500000Y-53672400D02*
X58500000Y-46850000D01*
%TO.N,CC1*%
X82043400Y-43999700D02*
X80557200Y-42513500D01*
X80557200Y-42513500D02*
X76013400Y-42513500D01*
X76013400Y-42513500D02*
X73513400Y-45013500D01*
X73513400Y-45013500D02*
X73513400Y-50765300D01*
X73513400Y-50765300D02*
X67700700Y-56578000D01*
X67700700Y-56578000D02*
X67700700Y-63263500D01*
X67700700Y-63263500D02*
X59655900Y-71308300D01*
X59655900Y-71308300D02*
X58895700Y-71308300D01*
%TO.N,CC2*%
X79462200Y-44018100D02*
X79462200Y-43462400D01*
X79462200Y-43462400D02*
X78865000Y-42865200D01*
X78865000Y-42865200D02*
X76159000Y-42865200D01*
X76159000Y-42865200D02*
X75616400Y-43407800D01*
X75616400Y-43407800D02*
X75616400Y-49159600D01*
X75616400Y-49159600D02*
X68052400Y-56723600D01*
X68052400Y-56723600D02*
X68052400Y-63419100D01*
X68052400Y-63419100D02*
X62293300Y-69178200D01*
X62293300Y-69178200D02*
X62293300Y-71308300D01*
%TO.N,EN*%
X58635800Y-63725000D02*
X58302600Y-64058200D01*
X58302600Y-64058200D02*
X58302600Y-71561000D01*
X58302600Y-71561000D02*
X58607600Y-71866000D01*
X58607600Y-71866000D02*
X62538700Y-71866000D01*
X62538700Y-71866000D02*
X62888200Y-71516500D01*
X62888200Y-71516500D02*
X62888200Y-69080600D01*
X62888200Y-69080600D02*
X68404100Y-63564700D01*
X68404100Y-63564700D02*
X68404100Y-56869200D01*
X68404100Y-56869200D02*
X73100000Y-52173300D01*
X73100000Y-52173300D02*
X73601000Y-52173300D01*
X73601000Y-52173300D02*
X75274400Y-53846700D01*
X75274400Y-53846700D02*
X83904800Y-53846700D01*
X83904800Y-53846700D02*
X84201200Y-53550300D01*
X100500000Y-43750000D02*
X94001500Y-43750000D01*
X94001500Y-43750000D02*
X84201200Y-53550300D01*
%TO.N,FB*%
X67938400Y-55554700D02*
X67349000Y-56144100D01*
X67349000Y-56144100D02*
X67349000Y-63076700D01*
X67349000Y-63076700D02*
X64399000Y-66026700D01*
X64399000Y-66026700D02*
X60455700Y-66026700D01*
%TO.N,GND*%
X85332000Y-44280000D02*
X85332000Y-42978300D01*
X102500000Y-43750000D02*
X101648300Y-43750000D01*
X101648300Y-43750000D02*
X101648300Y-43004800D01*
X101648300Y-43004800D02*
X101266600Y-42623100D01*
X101266600Y-42623100D02*
X85687200Y-42623100D01*
X85687200Y-42623100D02*
X85332000Y-42978300D01*
X76851100Y-59455700D02*
X76851100Y-58546700D01*
X74125000Y-61390000D02*
X75657300Y-61390000D01*
X75657300Y-61390000D02*
X76851100Y-60196200D01*
X76851100Y-60196200D02*
X76851100Y-59455700D01*
X76851100Y-59455700D02*
X79401100Y-59455700D01*
X53200100Y-62165500D02*
X53200100Y-57553300D01*
X53200100Y-57553300D02*
X56500000Y-54253400D01*
X56500000Y-54253400D02*
X56500000Y-46850000D01*
X102500000Y-43750000D02*
X103351700Y-43750000D01*
X106500000Y-43750000D02*
X105648300Y-43750000D01*
X105648300Y-43750000D02*
X105648300Y-43004800D01*
X105648300Y-43004800D02*
X105266800Y-42623300D01*
X105266800Y-42623300D02*
X103733200Y-42623300D01*
X103733200Y-42623300D02*
X103351700Y-43004800D01*
X103351700Y-43004800D02*
X103351700Y-43750000D01*
X106500000Y-43750000D02*
X107351700Y-43750000D01*
X115700000Y-60450000D02*
X115700000Y-52098300D01*
X115700000Y-52098300D02*
X107351700Y-43750000D01*
X44310000Y-65595000D02*
X47739500Y-62165500D01*
X47739500Y-62165500D02*
X53200100Y-62165500D01*
X77240000Y-72630000D02*
X77240000Y-67469800D01*
X77240000Y-67469800D02*
X74125000Y-64354800D01*
X74125000Y-64354800D02*
X74125000Y-62640000D01*
X85332000Y-44280000D02*
X85332000Y-45581700D01*
X76692000Y-44280000D02*
X76692000Y-45581700D01*
X76692000Y-45581700D02*
X85332000Y-45581700D01*
X61325000Y-64075000D02*
X61325000Y-62725000D01*
X62675000Y-62725000D02*
X61325000Y-62725000D01*
X62675000Y-64075000D02*
X62675000Y-62725000D01*
X74125000Y-62640000D02*
X74125000Y-61390000D01*
X72875000Y-62640000D02*
X72875000Y-61390000D01*
X74125000Y-61390000D02*
X72875000Y-61390000D01*
%TO.N,IN*%
X58568900Y-55372400D02*
X57010000Y-56931300D01*
X57010000Y-56931300D02*
X57010000Y-65595000D01*
%TO.N,LBI*%
X61526300Y-55564600D02*
X59161200Y-57929700D01*
X59161200Y-57929700D02*
X59161200Y-62425000D01*
%TO.N,LBO*%
X72910600Y-49231600D02*
X65412200Y-56730000D01*
X65412200Y-56730000D02*
X65412200Y-64516200D01*
X65412200Y-64516200D02*
X65118300Y-64810100D01*
X65118300Y-64810100D02*
X59592100Y-64810100D01*
X59592100Y-64810100D02*
X59157000Y-64375000D01*
%TO.N,PROG1*%
X77050000Y-62015000D02*
X77050000Y-64634900D01*
X77050000Y-64634900D02*
X76303100Y-65381800D01*
%TO.N,SCL*%
X51930000Y-65595000D02*
X51930000Y-65719300D01*
X51930000Y-65719300D02*
X58428400Y-72217700D01*
X58428400Y-72217700D02*
X62684400Y-72217700D01*
X62684400Y-72217700D02*
X63508500Y-71393600D01*
X63508500Y-71393600D02*
X63508500Y-69635200D01*
X63508500Y-69635200D02*
X74629800Y-58513900D01*
X74629800Y-58513900D02*
X74931600Y-58513900D01*
X74931600Y-58513900D02*
X75908300Y-57537200D01*
X75908300Y-57537200D02*
X78498900Y-57537200D01*
X83450200Y-58400000D02*
X83450200Y-71499800D01*
X83450200Y-71499800D02*
X82320000Y-72630000D01*
X78498900Y-57537200D02*
X79361700Y-58400000D01*
X79361700Y-58400000D02*
X83450200Y-58400000D01*
X89156200Y-58400000D02*
X83450200Y-58400000D01*
X106725900Y-62965000D02*
X93721200Y-62965000D01*
X93721200Y-62965000D02*
X89156200Y-58400000D01*
%TO.N,SDA*%
X84860000Y-72630000D02*
X82395500Y-75094500D01*
X82395500Y-75094500D02*
X58889500Y-75094500D01*
X58889500Y-75094500D02*
X49390000Y-65595000D01*
X91374800Y-66115100D02*
X93805200Y-63684800D01*
X93805200Y-63684800D02*
X101854300Y-63684800D01*
X84860000Y-72630000D02*
X91374800Y-66115100D01*
X84947100Y-59687400D02*
X91374800Y-66115100D01*
%TO.N,SPKM*%
X115448300Y-67850000D02*
X115448300Y-67104800D01*
X115448300Y-67104800D02*
X104983100Y-56639600D01*
X104983100Y-56639600D02*
X75245600Y-56639600D01*
X75245600Y-56639600D02*
X74906200Y-56979000D01*
X74906200Y-56979000D02*
X74906200Y-56979100D01*
X74906200Y-56979100D02*
X72988800Y-56979100D01*
X72988800Y-56979100D02*
X69665600Y-60302300D01*
X116300000Y-67850000D02*
X115448300Y-67850000D01*
%TO.N,SPKP*%
X114300000Y-67850000D02*
X113448300Y-67850000D01*
X105486500Y-59818200D02*
X113448300Y-67780000D01*
X113448300Y-67780000D02*
X113448300Y-67850000D01*
%TO.N,THERM*%
X70898300Y-63543800D02*
X70898300Y-69452500D01*
X70898300Y-69452500D02*
X74609200Y-73163400D01*
%TO.N,V33*%
X79780000Y-72630000D02*
X78673600Y-73736400D01*
X78673600Y-73736400D02*
X58504500Y-73736400D01*
X58504500Y-73736400D02*
X50660000Y-65891900D01*
X50660000Y-65891900D02*
X50660000Y-65294300D01*
X50660000Y-65294300D02*
X49825600Y-64459900D01*
X49825600Y-64459900D02*
X47985100Y-64459900D01*
X47985100Y-64459900D02*
X46850000Y-65595000D01*
X82832500Y-59703300D02*
X82832500Y-69577500D01*
X82832500Y-69577500D02*
X79780000Y-72630000D01*
%TO.N,V5*%
D19*
X53994600Y-55807000D02*
X53994600Y-47351500D01*
X53994600Y-47351500D02*
X56953300Y-44392800D01*
X56953300Y-44392800D02*
X62235500Y-44392800D01*
X66472000Y-52546700D02*
X64855400Y-54163300D01*
X64855400Y-54163300D02*
X64855400Y-64246300D01*
X66472000Y-52546700D02*
X62235500Y-48310200D01*
X62235500Y-48310200D02*
X62235500Y-44392800D01*
X41770000Y-65595000D02*
X42971700Y-65595000D01*
X42971700Y-65595000D02*
X42971700Y-65219500D01*
X42971700Y-65219500D02*
X52384200Y-55807000D01*
X52384200Y-55807000D02*
X53994600Y-55807000D01*
%TO.N,VBUS*%
D18*
X83253200Y-46380500D02*
X76409000Y-53224700D01*
X76409000Y-53224700D02*
X75806500Y-53224700D01*
X70174200Y-63980000D02*
X70174200Y-63466800D01*
X70174200Y-63466800D02*
X70679300Y-62961700D01*
X70679300Y-62961700D02*
X71939100Y-62961700D01*
X71939100Y-62961700D02*
X74073100Y-65095700D01*
X66020600Y-71410900D02*
X66020600Y-68133600D01*
X66020600Y-68133600D02*
X70174200Y-63980000D01*
X75539800Y-71375000D02*
X74073100Y-69908300D01*
X74073100Y-69908300D02*
X74073100Y-65095700D01*
%TO.N,VPCC*%
X75474000Y-57191300D02*
X74627000Y-58038300D01*
X74627000Y-58038300D02*
X73069100Y-58038300D01*
X73069100Y-58038300D02*
X71086000Y-60021400D01*
%TO.N,VSYS*%
D19*
X69000000Y-61039800D02*
X69000000Y-57121500D01*
X69000000Y-57121500D02*
X73364800Y-52756700D01*
X71813200Y-60429600D02*
X71203000Y-61039800D01*
X71203000Y-61039800D02*
X69000000Y-61039800D01*
%TD*%
M02*
