%TF.GenerationSoftware,KiCad,Pcbnew,10.0.6*%
%TF.CreationDate,2026-09-17T14:01:53+09:00*%
%TF.ProjectId,katanori61,6b617461-6e6f-4726-9936-312e6b696361,rev?*%
%TF.SameCoordinates,Original*%
%TF.FileFunction,Copper,L3,Inr*%
%TF.FilePolarity,Positive*%
%FSLAX46Y46*%
G04 Gerber Fmt 4.6, Leading zero omitted, Abs format (unit mm)*
G04 Created by KiCad (PCBNEW 10.0.6) date 2026-09-17 14:01:53*
%MOMM*%
%LPD*%
G01*
G04 APERTURE LIST*
G04 Aperture macros list*
%AMRoundRect*
0 Rectangle with rounded corners*
0 $1 Rounding radius*
0 $2 $3 $4 $5 $6 $7 $8 $9 X,Y pos of 4 corners*
0 Add a 4 corners polygon primitive as box body*
4,1,4,$2,$3,$4,$5,$6,$7,$8,$9,$2,$3,0*
0 Add four circle primitives for the rounded corners*
1,1,$1+$1,$2,$3*
1,1,$1+$1,$4,$5*
1,1,$1+$1,$6,$7*
1,1,$1+$1,$8,$9*
0 Add four rect primitives between the rounded corners*
20,1,$1+$1,$2,$3,$4,$5,0*
20,1,$1+$1,$4,$5,$6,$7,0*
20,1,$1+$1,$6,$7,$8,$9,0*
20,1,$1+$1,$8,$9,$2,$3,0*%
G04 Aperture macros list end*
%TA.AperFunction,ComponentPad*%
%ADD10RoundRect,0.250000X-0.350000X-0.625000X0.350000X-0.625000X0.350000X0.625000X-0.350000X0.625000X0*%
%TD*%
%TA.AperFunction,ComponentPad*%
%ADD11O,1.200000X1.750000*%
%TD*%
%TA.AperFunction,ComponentPad*%
%ADD12RoundRect,0.250000X-0.625000X0.350000X-0.625000X-0.350000X0.625000X-0.350000X0.625000X0.350000X0*%
%TD*%
%TA.AperFunction,ComponentPad*%
%ADD13O,1.750000X1.200000*%
%TD*%
%TA.AperFunction,ComponentPad*%
%ADD14R,1.700000X1.700000*%
%TD*%
%TA.AperFunction,ComponentPad*%
%ADD15C,1.700000*%
%TD*%
%TA.AperFunction,ComponentPad*%
%ADD16O,1.000000X2.100000*%
%TD*%
%TA.AperFunction,ComponentPad*%
%ADD17O,1.000000X1.600000*%
%TD*%
%TA.AperFunction,ViaPad*%
%ADD18C,0.600000*%
%TD*%
%TA.AperFunction,Conductor*%
%ADD19C,0.200000*%
%TD*%
%TA.AperFunction,Conductor*%
%ADD20C,0.800000*%
%TD*%
%TA.AperFunction,Conductor*%
%ADD21C,0.400000*%
%TD*%
G04 APERTURE END LIST*
D10*
%TO.N,SPKP*%
%TO.C,J4*%
X114300000Y-67850000D03*
D11*
%TO.N,SPKM*%
X116300000Y-67850000D03*
%TD*%
D12*
%TO.N,SPKM*%
%TO.C,J5*%
X51950000Y-59300000D03*
D13*
%TO.N,SPKO*%
X51950000Y-61300000D03*
%TD*%
D10*
%TO.N,GND*%
%TO.C,J6*%
X56500000Y-46850000D03*
D11*
%TO.N,BTN*%
X58500000Y-46850000D03*
%TD*%
D10*
%TO.N,EN*%
%TO.C,J7*%
X100500000Y-43750000D03*
D11*
%TO.N,GND*%
X102500000Y-43750000D03*
%TO.N,EN*%
X104500000Y-43750000D03*
%TO.N,GND*%
X106500000Y-43750000D03*
%TD*%
D12*
%TO.N,GND*%
%TO.C,J10*%
X115700000Y-60450000D03*
D13*
%TO.N,BATRAW*%
X115700000Y-62450000D03*
%TD*%
D14*
%TO.N,V5*%
%TO.C,J1*%
X41770000Y-65595000D03*
D15*
%TO.N,GND*%
X44310000Y-65595000D03*
%TO.N,V33*%
X46850000Y-65595000D03*
%TO.N,SDA*%
X49390000Y-65595000D03*
%TO.N,SCL*%
X51930000Y-65595000D03*
%TO.N,BTN*%
X54470000Y-65595000D03*
%TO.N,IN*%
X57010000Y-65595000D03*
%TD*%
D14*
%TO.N,GND*%
%TO.C,J2*%
X77240000Y-72630000D03*
D15*
%TO.N,V33*%
X79780000Y-72630000D03*
%TO.N,SCL*%
X82320000Y-72630000D03*
%TO.N,SDA*%
X84860000Y-72630000D03*
%TD*%
D16*
%TO.N,GND*%
%TO.C,J13*%
X85332000Y-45480000D03*
D17*
X85332000Y-41300000D03*
D16*
X76692000Y-45480000D03*
D17*
X76692000Y-41300000D03*
%TD*%
D18*
%TO.N,GND*%
X61325000Y-62440000D03*
X61325000Y-63790000D03*
X62675000Y-62440000D03*
X62675000Y-63790000D03*
X72875000Y-61390000D03*
X72875000Y-62640000D03*
X74125000Y-61390000D03*
X74125000Y-62640000D03*
%TO.N,V5*%
X63858000Y-70338000D03*
%TO.N,BATRAW*%
X87495000Y-63400000D03*
%TO.N,BASE*%
X56435600Y-50942000D03*
X57302200Y-59929700D03*
%TO.N,CC1*%
X58131500Y-69485800D03*
X82047200Y-45203500D03*
%TO.N,CC2*%
X61430700Y-73565100D03*
X79262000Y-45216000D03*
%TO.N,COL*%
X57076600Y-62384700D03*
X89400800Y-55807000D03*
%TO.N,EN*%
X83150400Y-53800400D03*
X75868400Y-55183700D03*
X59172500Y-62926300D03*
%TO.N,GND*%
X60897500Y-47300000D03*
X84132400Y-55493400D03*
X53200100Y-62165500D03*
X109614700Y-61591800D03*
X80050600Y-59296800D03*
%TO.N,IN*%
X56458500Y-53731100D03*
%TO.N,LBI*%
X62300200Y-55576800D03*
X59162800Y-61929500D03*
%TO.N,LBO*%
X72910600Y-49231600D03*
X59158000Y-64090000D03*
%TO.N,PROG1*%
X78326100Y-67568600D03*
X77050000Y-62015000D03*
%TO.N,SCL*%
X78889700Y-57540100D03*
X89156200Y-58624500D03*
X106725900Y-62965000D03*
%TO.N,SDA*%
X87804900Y-60456600D03*
X101854300Y-63684800D03*
%TO.N,SPKO*%
X94263100Y-45590000D03*
%TO.N,SPKP*%
X97391300Y-48130000D03*
%TO.N,STAT1*%
X72851800Y-65972000D03*
X78650300Y-68647700D03*
%TO.N,STAT2*%
X70037700Y-71224400D03*
X72772200Y-64844500D03*
%TO.N,THERM*%
X72191300Y-74593300D03*
X71562500Y-63613500D03*
%TO.N,V33*%
X84024100Y-59709000D03*
%TO.N,V5*%
X60232800Y-70186700D03*
X67797700Y-66877700D03*
X63590300Y-51575100D03*
X53945100Y-55776400D03*
X94180300Y-55750000D03*
%TO.N,VBUS*%
X70210100Y-59465400D03*
X70488600Y-64358500D03*
X76849200Y-53359500D03*
X75539800Y-71375000D03*
X67091400Y-73554000D03*
X82913600Y-47589900D03*
%TO.N,VLIPO*%
X77980400Y-60584800D03*
X67273200Y-59602900D03*
%TO.N,VPCC*%
X76951600Y-57889800D03*
X70693500Y-61719800D03*
%TO.N,VSYS*%
X68874500Y-60914300D03*
X71904000Y-54400000D03*
%TO.N,GND*%
X41000000Y-76400000D03*
X41000000Y-73200000D03*
X41000000Y-70000000D03*
X41000000Y-63600000D03*
X41000000Y-60400000D03*
X41000000Y-57200000D03*
X41000000Y-54000000D03*
X41000000Y-50800000D03*
X41000000Y-47600000D03*
X41000000Y-44400000D03*
X44200000Y-76400000D03*
X44200000Y-60400000D03*
X44200000Y-57200000D03*
X44200000Y-54000000D03*
X44200000Y-50800000D03*
X44200000Y-47600000D03*
X44200000Y-41200000D03*
X47400000Y-76400000D03*
X47400000Y-73200000D03*
X47400000Y-57200000D03*
X47400000Y-54000000D03*
X47400000Y-50800000D03*
X47400000Y-47600000D03*
X47400000Y-44400000D03*
X47400000Y-41200000D03*
X50600000Y-76400000D03*
X50600000Y-63600000D03*
X50600000Y-54000000D03*
X50600000Y-50800000D03*
X50600000Y-47600000D03*
X50600000Y-44400000D03*
X50600000Y-41200000D03*
X53800000Y-57200000D03*
X53800000Y-54000000D03*
X53800000Y-50800000D03*
X53800000Y-47600000D03*
X53800000Y-44400000D03*
X53800000Y-41200000D03*
X57000000Y-44400000D03*
X57000000Y-41200000D03*
X60200000Y-44400000D03*
X60200000Y-41200000D03*
X63400000Y-41200000D03*
X66600000Y-47600000D03*
X66600000Y-44400000D03*
X66600000Y-41200000D03*
X69800000Y-54000000D03*
X69800000Y-44400000D03*
X69800000Y-41200000D03*
X73000000Y-44400000D03*
X73000000Y-41200000D03*
X79400000Y-41200000D03*
X82600000Y-50800000D03*
X82600000Y-41200000D03*
X89000000Y-73200000D03*
X89000000Y-70000000D03*
X89000000Y-41200000D03*
X92200000Y-73200000D03*
X92200000Y-70000000D03*
X92200000Y-60400000D03*
X92200000Y-57200000D03*
X92200000Y-54000000D03*
X92200000Y-44400000D03*
X92200000Y-41200000D03*
X95400000Y-73200000D03*
X95400000Y-70000000D03*
X95400000Y-60400000D03*
X95400000Y-57200000D03*
X95400000Y-54000000D03*
X95400000Y-41200000D03*
X98600000Y-73200000D03*
X98600000Y-70000000D03*
X98600000Y-60400000D03*
X98600000Y-57200000D03*
X98600000Y-50800000D03*
X98600000Y-47600000D03*
X98600000Y-41200000D03*
X101800000Y-73200000D03*
X101800000Y-70000000D03*
X101800000Y-60400000D03*
X101800000Y-54000000D03*
X101800000Y-50800000D03*
X101800000Y-47600000D03*
X101800000Y-41200000D03*
X105000000Y-73200000D03*
X105000000Y-70000000D03*
X105000000Y-57200000D03*
X105000000Y-41200000D03*
X108200000Y-73200000D03*
X108200000Y-70000000D03*
X108200000Y-60400000D03*
X108200000Y-54000000D03*
X108200000Y-50800000D03*
X108200000Y-47600000D03*
X108200000Y-44400000D03*
X108200000Y-41200000D03*
X111400000Y-76400000D03*
X111400000Y-70000000D03*
X111400000Y-63600000D03*
X111400000Y-57200000D03*
X111400000Y-54000000D03*
X111400000Y-50800000D03*
X111400000Y-47600000D03*
X111400000Y-44400000D03*
X111400000Y-41200000D03*
X114600000Y-76400000D03*
X114600000Y-73200000D03*
X114600000Y-57200000D03*
X114600000Y-54000000D03*
X114600000Y-50800000D03*
X114600000Y-47600000D03*
X114600000Y-44400000D03*
X114600000Y-41200000D03*
X117800000Y-76400000D03*
X117800000Y-70000000D03*
X117800000Y-66800000D03*
X117800000Y-63600000D03*
X117800000Y-60400000D03*
X117800000Y-57200000D03*
X117800000Y-54000000D03*
X117800000Y-50800000D03*
X117800000Y-47600000D03*
X117800000Y-44400000D03*
X117800000Y-41200000D03*
X121000000Y-76400000D03*
X121000000Y-70000000D03*
X121000000Y-66800000D03*
X121000000Y-63600000D03*
X121000000Y-60400000D03*
X121000000Y-57200000D03*
X121000000Y-54000000D03*
X121000000Y-50800000D03*
X121000000Y-47600000D03*
X121000000Y-44400000D03*
X121000000Y-41200000D03*
%TD*%
%TO.N,BASE*%
D19*
X57302200Y-59929700D02*
X57302200Y-51808600D01*
X57302200Y-51808600D02*
X56435600Y-50942000D01*
%TO.N,BTN*%
X54470000Y-65595000D02*
X55740700Y-64324300D01*
X55740700Y-64324300D02*
X55740700Y-49815100D01*
X55740700Y-49815100D02*
X57648300Y-47907500D01*
X57648300Y-47907500D02*
X57648300Y-46850000D01*
X58500000Y-46850000D02*
X57648300Y-46850000D01*
%TO.N,CC1*%
X82047200Y-45203500D02*
X83465500Y-46621800D01*
X83465500Y-46621800D02*
X83465500Y-48386800D01*
X83465500Y-48386800D02*
X74955500Y-56896800D01*
X74955500Y-56896800D02*
X74173800Y-56896800D01*
X74173800Y-56896800D02*
X61584800Y-69485800D01*
X61584800Y-69485800D02*
X58131500Y-69485800D01*
%TO.N,CC2*%
X79262000Y-45216000D02*
X79262000Y-45453200D01*
X79262000Y-45453200D02*
X76740000Y-47975200D01*
X76740000Y-47975200D02*
X68155200Y-47975200D01*
X68155200Y-47975200D02*
X58111700Y-58018700D01*
X58111700Y-58018700D02*
X58111700Y-68689400D01*
X58111700Y-68689400D02*
X57553300Y-69247800D01*
X57553300Y-69247800D02*
X57553300Y-69687700D01*
X57553300Y-69687700D02*
X61430700Y-73565100D01*
%TO.N,EN*%
X75868400Y-55183700D02*
X75389600Y-55183700D01*
X75389600Y-55183700D02*
X65897300Y-64676000D01*
X65897300Y-64676000D02*
X58952400Y-64676000D01*
X58952400Y-64676000D02*
X58595400Y-64319000D01*
X58595400Y-64319000D02*
X58595400Y-63503400D01*
X58595400Y-63503400D02*
X59172500Y-62926300D01*
X99648300Y-43750000D02*
X87353000Y-56045300D01*
X87353000Y-56045300D02*
X83847500Y-56045300D01*
X83847500Y-56045300D02*
X83150400Y-55348200D01*
X83150400Y-55348200D02*
X83150400Y-53800400D01*
X100500000Y-43750000D02*
X99648300Y-43750000D01*
X100500000Y-43750000D02*
X101351700Y-43750000D01*
X104500000Y-43750000D02*
X103373300Y-42623300D01*
X103373300Y-42623300D02*
X101733200Y-42623300D01*
X101733200Y-42623300D02*
X101351700Y-43004800D01*
X101351700Y-43004800D02*
X101351700Y-43750000D01*
%TO.N,GND*%
X56500000Y-46850000D02*
X55648300Y-46850000D01*
X55648300Y-46850000D02*
X55116800Y-47381500D01*
X55116800Y-47381500D02*
X55116800Y-60248800D01*
X55116800Y-60248800D02*
X53200100Y-62165500D01*
X85332000Y-45480000D02*
X85332000Y-54293800D01*
X85332000Y-54293800D02*
X84132400Y-55493400D01*
X74125000Y-61390000D02*
X77957400Y-61390000D01*
X77957400Y-61390000D02*
X80050600Y-59296800D01*
X56500000Y-46850000D02*
X57626700Y-45723300D01*
X57626700Y-45723300D02*
X59320800Y-45723300D01*
X59320800Y-45723300D02*
X60897500Y-47300000D01*
X105355200Y-44876700D02*
X105355200Y-55048700D01*
X105355200Y-55048700D02*
X110756500Y-60450000D01*
X105648300Y-43750000D02*
X105648300Y-44583600D01*
X105648300Y-44583600D02*
X105355200Y-44876700D01*
X105355200Y-44876700D02*
X103733200Y-44876700D01*
X103733200Y-44876700D02*
X103351700Y-44495200D01*
X103351700Y-44495200D02*
X103351700Y-43750000D01*
X110756500Y-60450000D02*
X109614700Y-61591800D01*
X115700000Y-60450000D02*
X110756500Y-60450000D01*
X102500000Y-43750000D02*
X103351700Y-43750000D01*
X106500000Y-43750000D02*
X105648300Y-43750000D01*
X44310000Y-65595000D02*
X47739500Y-62165500D01*
X47739500Y-62165500D02*
X53200100Y-62165500D01*
X77240000Y-72630000D02*
X77240000Y-67276900D01*
X77240000Y-67276900D02*
X74125000Y-64161900D01*
X74125000Y-64161900D02*
X74125000Y-62640000D01*
X85332000Y-42351700D02*
X85332000Y-45480000D01*
X76692000Y-42351700D02*
X85332000Y-42351700D01*
X85332000Y-41300000D02*
X85332000Y-42351700D01*
X76692000Y-42351700D02*
X76692000Y-45480000D01*
X76692000Y-41300000D02*
X76692000Y-42351700D01*
X61325000Y-63790000D02*
X61325000Y-62440000D01*
X62675000Y-62440000D02*
X61325000Y-62440000D01*
X62675000Y-63790000D02*
X62675000Y-62440000D01*
X72875000Y-62640000D02*
X72875000Y-61390000D01*
X74125000Y-61390000D02*
X72875000Y-61390000D01*
X74125000Y-62640000D02*
X74125000Y-61390000D01*
%TO.N,IN*%
X57010000Y-65595000D02*
X56458500Y-65043500D01*
X56458500Y-65043500D02*
X56458500Y-53731100D01*
%TO.N,LBI*%
X62300200Y-55576800D02*
X59162800Y-58714200D01*
X59162800Y-58714200D02*
X59162800Y-61929500D01*
%TO.N,LBO*%
X72910600Y-49231600D02*
X59771500Y-62370700D01*
X59771500Y-62370700D02*
X59771500Y-63476500D01*
X59771500Y-63476500D02*
X59158000Y-64090000D01*
%TO.N,PROG1*%
X77050000Y-62015000D02*
X77050000Y-66292500D01*
X77050000Y-66292500D02*
X78326100Y-67568600D01*
%TO.N,SCL*%
X78889700Y-57540100D02*
X78671000Y-57321400D01*
X78671000Y-57321400D02*
X74270500Y-57321400D01*
X74270500Y-57321400D02*
X61995800Y-69596100D01*
X61995800Y-69596100D02*
X61995800Y-73844200D01*
X61995800Y-73844200D02*
X61702000Y-74138000D01*
X61702000Y-74138000D02*
X60473000Y-74138000D01*
X60473000Y-74138000D02*
X51930000Y-65595000D01*
X89156200Y-58624500D02*
X88856900Y-58624500D01*
X88856900Y-58624500D02*
X82320000Y-65161400D01*
X82320000Y-65161400D02*
X82320000Y-72630000D01*
X89156200Y-58624500D02*
X102385400Y-58624500D01*
X102385400Y-58624500D02*
X106725900Y-62965000D01*
%TO.N,SDA*%
X91181600Y-63833300D02*
X87804900Y-60456600D01*
X84860000Y-72630000D02*
X91181600Y-66308400D01*
X91181600Y-66308400D02*
X91181600Y-63833300D01*
X91181600Y-63833300D02*
X101705800Y-63833300D01*
X101705800Y-63833300D02*
X101854300Y-63684800D01*
%TO.N,SPKM*%
X51950000Y-59300000D02*
X49016800Y-59300000D01*
X49016800Y-59300000D02*
X43139700Y-65177100D01*
X43139700Y-65177100D02*
X43139700Y-65989700D01*
X43139700Y-65989700D02*
X53060900Y-75910900D01*
X53060900Y-75910900D02*
X108132600Y-75910900D01*
X108132600Y-75910900D02*
X115448300Y-68595200D01*
X115448300Y-68595200D02*
X115448300Y-67850000D01*
X116300000Y-67850000D02*
X115448300Y-67850000D01*
%TO.N,SPKP*%
X114300000Y-67850000D02*
X113448300Y-67850000D01*
X97391300Y-48130000D02*
X97391300Y-51793000D01*
X97391300Y-51793000D02*
X113448300Y-67850000D01*
%TO.N,STAT2*%
X70037700Y-71224400D02*
X70840300Y-70421800D01*
X70840300Y-70421800D02*
X70840300Y-66776400D01*
X70840300Y-66776400D02*
X72772200Y-64844500D01*
%TO.N,THERM*%
X71562500Y-63613500D02*
X72345800Y-63613500D01*
X72345800Y-63613500D02*
X73424800Y-64692500D01*
X73424800Y-64692500D02*
X73424800Y-73359800D01*
X73424800Y-73359800D02*
X72191300Y-74593300D01*
%TO.N,V33*%
X79780000Y-72630000D02*
X76854200Y-75555800D01*
X76854200Y-75555800D02*
X56810800Y-75555800D01*
X56810800Y-75555800D02*
X46850000Y-65595000D01*
X79780000Y-72630000D02*
X79780000Y-63953100D01*
X79780000Y-63953100D02*
X84024100Y-59709000D01*
%TO.N,V5*%
D20*
X67797700Y-66877700D02*
X67797700Y-65826800D01*
X67797700Y-65826800D02*
X71954100Y-61670400D01*
X71954100Y-61670400D02*
X71954100Y-61106500D01*
X71954100Y-61106500D02*
X74277500Y-58783100D01*
X74277500Y-58783100D02*
X77624500Y-58783100D01*
X77624500Y-58783100D02*
X77963100Y-58444500D01*
X77963100Y-58444500D02*
X88114300Y-58444500D01*
X88114300Y-58444500D02*
X90808800Y-55750000D01*
X90808800Y-55750000D02*
X94180300Y-55750000D01*
X53945100Y-55776400D02*
X51588600Y-55776400D01*
X51588600Y-55776400D02*
X41770000Y-65595000D01*
%TO.N,VBUS*%
D19*
X82913600Y-47589900D02*
X82618800Y-47589900D01*
X82618800Y-47589900D02*
X76849200Y-53359500D01*
X75539800Y-71375000D02*
X75539800Y-72026800D01*
X75539800Y-72026800D02*
X72397200Y-75169400D01*
X72397200Y-75169400D02*
X68706800Y-75169400D01*
X68706800Y-75169400D02*
X67091400Y-73554000D01*
X76849200Y-53359500D02*
X76316000Y-53359500D01*
X76316000Y-53359500D02*
X70210100Y-59465400D01*
X67091400Y-73554000D02*
X67091400Y-70030000D01*
X67091400Y-70030000D02*
X70488600Y-66632800D01*
X70488600Y-66632800D02*
X70488600Y-64358500D01*
%TO.N,VPCC*%
X76951600Y-57889800D02*
X74247700Y-57889800D01*
X74247700Y-57889800D02*
X70693500Y-61444000D01*
X70693500Y-61444000D02*
X70693500Y-61719800D01*
%TO.N,VSYS*%
D21*
X71904000Y-54400000D02*
X68874500Y-57429500D01*
X68874500Y-57429500D02*
X68874500Y-60914300D01*
%TD*%
M02*
