M48
; DRILL file KiCad 10.0.6 date 2026-09-19T16:50:12
; FORMAT={-:-/ absolute / metric / decimal}
; #@! TF.CreationDate,2026-09-19T16:50:12+09:00
; #@! TF.GenerationSoftware,Kicad,Pcbnew,10.0.6
; #@! TF.FileFunction,Plated,1,4,PTH
FMAT,2
METRIC
; #@! TA.AperFunction,Plated,PTH,ViaDrill
T1C0.300
; #@! TA.AperFunction,Plated,PTH,ComponentDrill
T2C0.600
; #@! TA.AperFunction,Plated,PTH,ComponentDrill
T3C0.750
; #@! TA.AperFunction,Plated,PTH,ComponentDrill
T4C1.000
%
G90
G05
T1
X41.0Y-44.4
X41.0Y-47.6
X41.0Y-50.8
X41.0Y-54.0
X41.0Y-57.2
X41.0Y-60.4
X41.0Y-70.0
X41.0Y-73.2
X44.2Y-41.2
X44.2Y-47.6
X44.2Y-50.8
X44.2Y-54.0
X44.2Y-57.2
X44.2Y-60.4
X44.2Y-76.4
X47.4Y-41.2
X47.4Y-44.4
X47.4Y-47.6
X47.4Y-50.8
X47.4Y-54.0
X47.4Y-57.2
X47.4Y-73.2
X47.4Y-76.4
X50.6Y-41.2
X50.6Y-44.4
X50.6Y-47.6
X50.6Y-50.8
X50.6Y-54.0
X50.6Y-73.2
X50.6Y-76.4
X53.8Y-41.2
X53.8Y-44.4
X53.8Y-73.2
X53.8Y-76.4
X53.933Y-60.638
X53.948Y-55.495
X54.709Y-63.671
X56.405Y-62.513
X56.413Y-52.915
X56.425Y-54.481
X57.0Y-41.2
X57.0Y-76.4
X59.156Y-62.14
X59.16Y-63.202
X60.2Y-41.2
X60.2Y-47.6
X60.2Y-50.8
X60.2Y-76.4
X61.325Y-62.44
X61.325Y-63.79
X61.952Y-51.527
X62.054Y-55.565
X62.675Y-57.175
X62.675Y-62.44
X62.675Y-63.79
X63.4Y-41.2
X63.4Y-76.4
X63.858Y-70.338
X64.861Y-52.659
X66.6Y-41.2
X66.6Y-76.4
X66.808Y-70.348
X69.0Y-61.095
X69.8Y-41.2
X69.8Y-76.4
X70.681Y-62.133
X70.846Y-60.578
X71.644Y-53.9
X72.225Y-58.632
X72.534Y-68.8
X72.875Y-61.508
X72.875Y-62.758
X73.0Y-41.2
X73.0Y-44.4
X73.0Y-76.4
X73.5Y-55.732
X74.125Y-61.508
X74.125Y-62.758
X75.912Y-53.706
X76.2Y-76.4
X76.393Y-67.493
X77.05Y-62.133
X77.35Y-57.06
X78.445Y-55.435
X78.562Y-48.095
X79.231Y-57.425
X79.4Y-41.2
X79.4Y-44.4
X79.4Y-70.0
X79.4Y-76.4
X79.499Y-52.895
X79.9Y-51.525
X79.937Y-58.664
X82.0Y-51.525
X82.6Y-41.2
X82.6Y-44.4
X82.6Y-76.4
X82.624Y-60.67
X83.227Y-47.584
X83.487Y-53.815
X84.657Y-59.693
X85.8Y-60.4
X85.8Y-76.4
X85.898Y-69.76
X87.495Y-63.4
X89.0Y-41.2
X89.0Y-60.4
X89.0Y-66.8
X89.0Y-76.4
X89.156Y-58.4
X89.401Y-55.807
X92.2Y-41.2
X92.2Y-44.4
X92.2Y-50.8
X92.2Y-76.4
X94.18Y-55.75
X94.28Y-45.59
X95.4Y-41.2
X95.4Y-54.0
X95.4Y-57.2
X95.4Y-60.4
X95.4Y-76.4
X96.432Y-67.038
X97.466Y-48.13
X97.742Y-66.545
X98.6Y-41.2
X98.6Y-44.4
X98.6Y-50.8
X98.6Y-54.0
X98.6Y-57.2
X98.6Y-60.4
X98.6Y-76.4
X101.8Y-41.2
X101.8Y-47.6
X101.8Y-54.0
X101.8Y-57.2
X101.8Y-60.4
X101.8Y-73.2
X101.8Y-76.4
X105.0Y-41.2
X105.0Y-47.6
X105.0Y-50.8
X105.0Y-57.2
X105.0Y-60.4
X105.0Y-66.8
X105.0Y-73.2
X105.0Y-76.4
X108.2Y-41.2
X108.2Y-44.4
X108.2Y-50.8
X108.2Y-63.6
X108.2Y-66.8
X108.2Y-76.4
X111.4Y-41.2
X111.4Y-44.4
X111.4Y-47.6
X111.4Y-57.2
X111.4Y-63.6
X111.4Y-76.4
X114.6Y-41.2
X114.6Y-44.4
X114.6Y-47.6
X114.6Y-50.8
X114.6Y-57.2
X114.6Y-73.2
X114.6Y-76.4
X117.8Y-41.2
X117.8Y-44.4
X117.8Y-47.6
X117.8Y-50.8
X117.8Y-54.0
X117.8Y-57.2
X117.8Y-60.4
X117.8Y-63.6
X117.8Y-66.8
X117.8Y-70.0
X117.8Y-76.4
X121.0Y-44.4
X121.0Y-47.6
X121.0Y-50.8
X121.0Y-54.0
X121.0Y-57.2
X121.0Y-60.4
X121.0Y-63.6
X121.0Y-66.8
X121.0Y-70.0
T3
X51.95Y-59.0
X51.95Y-61.0
X56.5Y-46.85
X58.5Y-46.85
X102.5Y-43.75
X104.5Y-43.75
X114.3Y-67.85
X115.7Y-60.45
X115.7Y-62.45
X116.3Y-67.85
T4
X41.77Y-65.295
X44.31Y-65.295
X46.85Y-65.295
X49.39Y-65.295
X51.93Y-65.295
X54.47Y-65.295
X57.01Y-65.295
X62.45Y-45.0
X62.45Y-47.0
X64.5Y-48.0
X66.5Y-48.0
X68.55Y-45.0
X68.55Y-47.0
X77.24Y-72.63
X79.78Y-72.63
X82.32Y-72.63
X84.86Y-72.63
T2
X76.692Y-41.6G85X76.692Y-41.0
G05
X76.692Y-46.03G85X76.692Y-44.93
G05
X85.332Y-41.6G85X85.332Y-41.0
G05
X85.332Y-46.03G85X85.332Y-44.93
G05
M30
