%TF.GenerationSoftware,KiCad,Pcbnew,10.0.6*%
%TF.CreationDate,2026-09-20T15:51:54+09:00*%
%TF.ProjectId,katanori61,6b617461-6e6f-4726-9936-312e6b696361,rev?*%
%TF.SameCoordinates,Original*%
%TF.FileFunction,Paste,Top*%
%TF.FilePolarity,Positive*%
%FSLAX46Y46*%
G04 Gerber Fmt 4.6, Leading zero omitted, Abs format (unit mm)*
G04 Created by KiCad (PCBNEW 10.0.6) date 2026-09-20 15:51:54*
%MOMM*%
%LPD*%
G01*
G04 APERTURE LIST*
G04 Aperture macros list*
%AMRoundRect*
0 Rectangle with rounded corners*
0 $1 Rounding radius*
0 $2 $3 $4 $5 $6 $7 $8 $9 X,Y pos of 4 corners*
0 Add a 4 corners polygon primitive as box body*
4,1,4,$2,$3,$4,$5,$6,$7,$8,$9,$2,$3,0*
0 Add four circle primitives for the rounded corners*
1,1,$1+$1,$2,$3*
1,1,$1+$1,$4,$5*
1,1,$1+$1,$6,$7*
1,1,$1+$1,$8,$9*
0 Add four rect primitives between the rounded corners*
20,1,$1+$1,$2,$3,$4,$5,0*
20,1,$1+$1,$4,$5,$6,$7,0*
20,1,$1+$1,$6,$7,$8,$9,0*
20,1,$1+$1,$8,$9,$2,$3,0*%
G04 Aperture macros list end*
%ADD10RoundRect,0.150000X-0.825000X-0.150000X0.825000X-0.150000X0.825000X0.150000X-0.825000X0.150000X0*%
%ADD11RoundRect,0.250000X-0.475000X0.250000X-0.475000X-0.250000X0.475000X-0.250000X0.475000X0.250000X0*%
%ADD12RoundRect,0.182500X0.182500X0.182500X-0.182500X0.182500X-0.182500X-0.182500X0.182500X-0.182500X0*%
%ADD13RoundRect,0.087500X0.325000X0.087500X-0.325000X0.087500X-0.325000X-0.087500X0.325000X-0.087500X0*%
%ADD14RoundRect,0.087500X0.087500X0.325000X-0.087500X0.325000X-0.087500X-0.325000X0.087500X-0.325000X0*%
%ADD15RoundRect,0.250000X0.300000X1.600000X-0.300000X1.600000X-0.300000X-1.600000X0.300000X-1.600000X0*%
%ADD16RoundRect,0.250000X-0.255000X-0.255000X0.255000X-0.255000X0.255000X0.255000X-0.255000X0.255000X0*%
%ADD17RoundRect,0.062500X-0.350000X-0.062500X0.350000X-0.062500X0.350000X0.062500X-0.350000X0.062500X0*%
%ADD18RoundRect,0.062500X-0.062500X-0.350000X0.062500X-0.350000X0.062500X0.350000X-0.062500X0.350000X0*%
%ADD19RoundRect,0.250000X0.312500X0.625000X-0.312500X0.625000X-0.312500X-0.625000X0.312500X-0.625000X0*%
%ADD20RoundRect,0.150000X-0.587500X-0.150000X0.587500X-0.150000X0.587500X0.150000X-0.587500X0.150000X0*%
%ADD21RoundRect,0.075000X-0.075000X0.650000X-0.075000X-0.650000X0.075000X-0.650000X0.075000X0.650000X0*%
%ADD22RoundRect,0.250000X-0.450000X0.262500X-0.450000X-0.262500X0.450000X-0.262500X0.450000X0.262500X0*%
%ADD23RoundRect,0.250000X0.262500X0.450000X-0.262500X0.450000X-0.262500X-0.450000X0.262500X-0.450000X0*%
%ADD24RoundRect,0.250000X-0.262500X-0.450000X0.262500X-0.450000X0.262500X0.450000X-0.262500X0.450000X0*%
%ADD25RoundRect,0.250000X-0.250000X-0.475000X0.250000X-0.475000X0.250000X0.475000X-0.250000X0.475000X0*%
%ADD26RoundRect,0.250000X-0.325000X-0.650000X0.325000X-0.650000X0.325000X0.650000X-0.325000X0.650000X0*%
%ADD27RoundRect,0.250000X0.475000X-0.250000X0.475000X0.250000X-0.475000X0.250000X-0.475000X-0.250000X0*%
%ADD28RoundRect,0.250000X0.250000X0.475000X-0.250000X0.475000X-0.250000X-0.475000X0.250000X-0.475000X0*%
%ADD29RoundRect,0.200000X-0.200000X-0.275000X0.200000X-0.275000X0.200000X0.275000X-0.200000X0.275000X0*%
%ADD30RoundRect,0.200000X0.200000X0.275000X-0.200000X0.275000X-0.200000X-0.275000X0.200000X-0.275000X0*%
%ADD31RoundRect,0.150000X0.150000X-0.587500X0.150000X0.587500X-0.150000X0.587500X-0.150000X-0.587500X0*%
%ADD32RoundRect,0.225000X0.225000X0.375000X-0.225000X0.375000X-0.225000X-0.375000X0.225000X-0.375000X0*%
%ADD33RoundRect,0.150000X0.150000X0.575000X-0.150000X0.575000X-0.150000X-0.575000X0.150000X-0.575000X0*%
%ADD34RoundRect,0.075000X0.075000X0.650000X-0.075000X0.650000X-0.075000X-0.650000X0.075000X-0.650000X0*%
%ADD35R,2.200000X1.000000*%
G04 APERTURE END LIST*
D10*
%TO.C,U4*%
X101225000Y-61695000D03*
X101225000Y-62965000D03*
X101225000Y-64235000D03*
X101225000Y-65505000D03*
X106175000Y-65505000D03*
X106175000Y-64235000D03*
X106175000Y-62965000D03*
X106175000Y-61695000D03*
%TD*%
D11*
%TO.C,C42*%
X98800000Y-62950000D03*
X98800000Y-64850000D03*
%TD*%
D12*
%TO.C,U1*%
X62900000Y-64000000D03*
X62900000Y-63100000D03*
X62900000Y-62200000D03*
X62000000Y-64000000D03*
X62000000Y-63100000D03*
X62000000Y-62200000D03*
X61100000Y-64000000D03*
X61100000Y-63100000D03*
X61100000Y-62200000D03*
D13*
X63962500Y-64075000D03*
X63962500Y-63425000D03*
X63962500Y-62775000D03*
X63962500Y-62125000D03*
D14*
X62975000Y-61137500D03*
X62325000Y-61137500D03*
X61675000Y-61137500D03*
X61025000Y-61137500D03*
D13*
X60037500Y-62125000D03*
X60037500Y-62775000D03*
X60037500Y-63425000D03*
X60037500Y-64075000D03*
D14*
X61025000Y-65062500D03*
X61675000Y-65062500D03*
X62325000Y-65062500D03*
X62975000Y-65062500D03*
%TD*%
D15*
%TO.C,L1*%
X69000000Y-63400000D03*
X66000000Y-63400000D03*
%TD*%
D16*
%TO.C,U2*%
X72875000Y-61475000D03*
X72875000Y-62725000D03*
X74125000Y-61475000D03*
X74125000Y-62725000D03*
D17*
X71562500Y-61100000D03*
X71562500Y-61600000D03*
X71562500Y-62100000D03*
X71562500Y-62600000D03*
X71562500Y-63100000D03*
D18*
X72500000Y-64037500D03*
X73000000Y-64037500D03*
X73500000Y-64037500D03*
X74000000Y-64037500D03*
X74500000Y-64037500D03*
D17*
X75437500Y-63100000D03*
X75437500Y-62600000D03*
X75437500Y-62100000D03*
X75437500Y-61600000D03*
X75437500Y-61100000D03*
D18*
X74500000Y-60162500D03*
X74000000Y-60162500D03*
X73500000Y-60162500D03*
X73000000Y-60162500D03*
X72500000Y-60162500D03*
%TD*%
D19*
%TO.C,R41*%
X81962500Y-63400000D03*
X79037500Y-63400000D03*
%TD*%
D20*
%TO.C,Q2*%
X84062500Y-62450000D03*
X84062500Y-64350000D03*
X85937500Y-63400000D03*
%TD*%
D21*
%TO.C,U3*%
X81500000Y-56250000D03*
X81000000Y-56250000D03*
X80500000Y-56250000D03*
X80000000Y-56250000D03*
X79500000Y-56250000D03*
X79500000Y-60550000D03*
X80000000Y-60550000D03*
X80500000Y-60550000D03*
X81000000Y-60550000D03*
X81500000Y-60550000D03*
%TD*%
D22*
%TO.C,R45*%
X79900000Y-48687500D03*
X79900000Y-50512500D03*
%TD*%
%TO.C,R44*%
X82750000Y-48687500D03*
X82750000Y-50512500D03*
%TD*%
D23*
%TO.C,R15*%
X73662500Y-66700000D03*
X71837500Y-66700000D03*
%TD*%
D24*
%TO.C,R46*%
X83087500Y-69300000D03*
X84912500Y-69300000D03*
%TD*%
D25*
%TO.C,C2*%
X60850000Y-69000000D03*
X62750000Y-69000000D03*
%TD*%
D26*
%TO.C,C6*%
X64325000Y-69000000D03*
X67275000Y-69000000D03*
%TD*%
%TO.C,C9*%
X68925000Y-69000000D03*
X71875000Y-69000000D03*
%TD*%
D23*
%TO.C,R4*%
X61512500Y-66700000D03*
X59687500Y-66700000D03*
%TD*%
%TO.C,R3*%
X65612500Y-66700000D03*
X63787500Y-66700000D03*
%TD*%
D24*
%TO.C,R16*%
X75337500Y-66700000D03*
X77162500Y-66700000D03*
%TD*%
%TO.C,R17*%
X78837500Y-66700000D03*
X80662500Y-66700000D03*
%TD*%
D25*
%TO.C,C1*%
X60850000Y-58400000D03*
X62750000Y-58400000D03*
%TD*%
%TO.C,C4*%
X64350000Y-58400000D03*
X66250000Y-58400000D03*
%TD*%
%TO.C,C7*%
X75450000Y-58300000D03*
X77350000Y-58300000D03*
%TD*%
D27*
%TO.C,C8*%
X73500000Y-58650000D03*
X73500000Y-56750000D03*
%TD*%
D28*
%TO.C,C41*%
X81750000Y-53900000D03*
X79850000Y-53900000D03*
%TD*%
D24*
%TO.C,R42*%
X56087500Y-62200000D03*
X57912500Y-62200000D03*
%TD*%
%TO.C,R43*%
X56087500Y-59500000D03*
X57912500Y-59500000D03*
%TD*%
%TO.C,R13*%
X73087500Y-53900000D03*
X74912500Y-53900000D03*
%TD*%
D11*
%TO.C,C32*%
X71200000Y-45050000D03*
X71200000Y-46950000D03*
%TD*%
D29*
%TO.C,R6*%
X68275000Y-57300000D03*
X69925000Y-57300000D03*
%TD*%
D30*
%TO.C,R7*%
X69925000Y-59600000D03*
X68275000Y-59600000D03*
%TD*%
D31*
%TO.C,Q31*%
X86950000Y-60027500D03*
X88850000Y-60027500D03*
X87900000Y-58152500D03*
%TD*%
D32*
%TO.C,D31*%
X94450000Y-58600000D03*
X91150000Y-58600000D03*
%TD*%
D25*
%TO.C,C31*%
X95950000Y-58600000D03*
X97850000Y-58600000D03*
%TD*%
D24*
%TO.C,R31*%
X83287500Y-60300000D03*
X85112500Y-60300000D03*
%TD*%
D23*
%TO.C,R32*%
X85112500Y-57500000D03*
X83287500Y-57500000D03*
%TD*%
D33*
%TO.C,J13*%
X84262000Y-46395000D03*
X83462000Y-46395000D03*
D34*
X82262000Y-46395000D03*
X81262000Y-46395000D03*
X80762000Y-46395000D03*
X79762000Y-46395000D03*
D33*
X78562000Y-46395000D03*
X77762000Y-46395000D03*
X77762000Y-46395000D03*
X78562000Y-46395000D03*
D34*
X79262000Y-46395000D03*
X80262000Y-46395000D03*
X81762000Y-46395000D03*
X82762000Y-46395000D03*
D33*
X83462000Y-46395000D03*
X84262000Y-46395000D03*
%TD*%
D35*
%TO.C,K31*%
X95830000Y-55750000D03*
X95830000Y-50670000D03*
X95830000Y-48130000D03*
X95830000Y-45590000D03*
X87830000Y-45590000D03*
X87830000Y-48130000D03*
X87830000Y-50670000D03*
X87830000Y-55750000D03*
%TD*%
M02*
