%TF.GenerationSoftware,KiCad,Pcbnew,10.0.6*%
%TF.CreationDate,2026-09-17T15:51:15+09:00*%
%TF.ProjectId,katanori61,6b617461-6e6f-4726-9936-312e6b696361,rev?*%
%TF.SameCoordinates,Original*%
%TF.FileFunction,Copper,L4,Bot*%
%TF.FilePolarity,Positive*%
%FSLAX46Y46*%
G04 Gerber Fmt 4.6, Leading zero omitted, Abs format (unit mm)*
G04 Created by KiCad (PCBNEW 10.0.6) date 2026-09-17 15:51:15*
%MOMM*%
%LPD*%
G01*
G04 APERTURE LIST*
G04 Aperture macros list*
%AMRoundRect*
0 Rectangle with rounded corners*
0 $1 Rounding radius*
0 $2 $3 $4 $5 $6 $7 $8 $9 X,Y pos of 4 corners*
0 Add a 4 corners polygon primitive as box body*
4,1,4,$2,$3,$4,$5,$6,$7,$8,$9,$2,$3,0*
0 Add four circle primitives for the rounded corners*
1,1,$1+$1,$2,$3*
1,1,$1+$1,$4,$5*
1,1,$1+$1,$6,$7*
1,1,$1+$1,$8,$9*
0 Add four rect primitives between the rounded corners*
20,1,$1+$1,$2,$3,$4,$5,0*
20,1,$1+$1,$4,$5,$6,$7,0*
20,1,$1+$1,$6,$7,$8,$9,0*
20,1,$1+$1,$8,$9,$2,$3,0*%
G04 Aperture macros list end*
%TA.AperFunction,ComponentPad*%
%ADD10RoundRect,0.250000X-0.350000X-0.625000X0.350000X-0.625000X0.350000X0.625000X-0.350000X0.625000X0*%
%TD*%
%TA.AperFunction,ComponentPad*%
%ADD11O,1.200000X1.750000*%
%TD*%
%TA.AperFunction,ComponentPad*%
%ADD12RoundRect,0.250000X-0.625000X0.350000X-0.625000X-0.350000X0.625000X-0.350000X0.625000X0.350000X0*%
%TD*%
%TA.AperFunction,ComponentPad*%
%ADD13O,1.750000X1.200000*%
%TD*%
%TA.AperFunction,ComponentPad*%
%ADD14R,1.700000X1.700000*%
%TD*%
%TA.AperFunction,ComponentPad*%
%ADD15C,1.700000*%
%TD*%
%TA.AperFunction,ComponentPad*%
%ADD16O,1.000000X2.100000*%
%TD*%
%TA.AperFunction,ComponentPad*%
%ADD17O,1.000000X1.600000*%
%TD*%
%TA.AperFunction,ViaPad*%
%ADD18C,0.600000*%
%TD*%
%TA.AperFunction,Conductor*%
%ADD19C,0.800000*%
%TD*%
%TA.AperFunction,Conductor*%
%ADD20C,0.600000*%
%TD*%
%TA.AperFunction,Conductor*%
%ADD21C,0.200000*%
%TD*%
%TA.AperFunction,Conductor*%
%ADD22C,0.400000*%
%TD*%
G04 APERTURE END LIST*
D10*
%TO.P,J4,1*%
%TO.N,SPKP*%
X114300000Y-67850000D03*
D11*
%TO.P,J4,2*%
%TO.N,SPKM*%
X116300000Y-67850000D03*
%TD*%
D12*
%TO.P,J5,1*%
%TO.N,SPKM*%
X51950000Y-59300000D03*
D13*
%TO.P,J5,2*%
%TO.N,SPKO*%
X51950000Y-61300000D03*
%TD*%
D10*
%TO.P,J6,1*%
%TO.N,GND*%
X56500000Y-46850000D03*
D11*
%TO.P,J6,2*%
%TO.N,BTN*%
X58500000Y-46850000D03*
%TD*%
D10*
%TO.P,J7,1*%
%TO.N,EN*%
X100500000Y-43750000D03*
D11*
%TO.P,J7,2*%
%TO.N,GND*%
X102500000Y-43750000D03*
%TO.P,J7,3*%
%TO.N,EN*%
X104500000Y-43750000D03*
%TO.P,J7,4*%
%TO.N,GND*%
X106500000Y-43750000D03*
%TD*%
D12*
%TO.P,J10,1*%
%TO.N,GND*%
X115700000Y-60450000D03*
D13*
%TO.P,J10,2*%
%TO.N,BATRAW*%
X115700000Y-62450000D03*
%TD*%
D14*
%TO.P,J1,1*%
%TO.N,V5*%
X41770000Y-65595000D03*
D15*
%TO.P,J1,2*%
%TO.N,GND*%
X44310000Y-65595000D03*
%TO.P,J1,3*%
%TO.N,V33*%
X46850000Y-65595000D03*
%TO.P,J1,4*%
%TO.N,SDA*%
X49390000Y-65595000D03*
%TO.P,J1,5*%
%TO.N,SCL*%
X51930000Y-65595000D03*
%TO.P,J1,6*%
%TO.N,BTN*%
X54470000Y-65595000D03*
%TO.P,J1,7*%
%TO.N,IN*%
X57010000Y-65595000D03*
%TD*%
D14*
%TO.P,J2,1*%
%TO.N,GND*%
X77240000Y-72630000D03*
D15*
%TO.P,J2,2*%
%TO.N,V33*%
X79780000Y-72630000D03*
%TO.P,J2,3*%
%TO.N,SCL*%
X82320000Y-72630000D03*
%TO.P,J2,4*%
%TO.N,SDA*%
X84860000Y-72630000D03*
%TD*%
D16*
%TO.P,J13,SH*%
%TO.N,GND*%
X85332000Y-45480000D03*
D17*
X85332000Y-41300000D03*
D16*
X76692000Y-45480000D03*
D17*
X76692000Y-41300000D03*
%TD*%
D18*
%TO.N,GND*%
X61325000Y-62440000D03*
X61325000Y-63790000D03*
X62675000Y-62440000D03*
X62675000Y-63790000D03*
X72875000Y-61390000D03*
X72875000Y-62640000D03*
X74125000Y-61390000D03*
X74125000Y-62640000D03*
%TO.N,V5*%
X63858000Y-70338000D03*
%TO.N,BATRAW*%
X87495000Y-63400000D03*
%TO.N,VBUS*%
X78562000Y-48095000D03*
X70552000Y-56585000D03*
%TO.N,BASE*%
X56435600Y-50971200D03*
X57302200Y-59929700D03*
%TO.N,CC1*%
X59393700Y-71237700D03*
X82262000Y-47580000D03*
%TO.N,CC2*%
X61201500Y-73563500D03*
X79262000Y-48538000D03*
%TO.N,COL*%
X59091100Y-64023100D03*
X89400800Y-55807000D03*
%TO.N,EN*%
X83135400Y-53815400D03*
X59172500Y-63127100D03*
%TO.N,GND*%
X65460200Y-59586900D03*
X60897500Y-47621100D03*
X84179400Y-55093200D03*
X80051200Y-59294600D03*
%TO.N,IN*%
X56458500Y-53731100D03*
%TO.N,LBI*%
X62757500Y-55585000D03*
X59161200Y-62130400D03*
%TO.N,LBO*%
X56642900Y-63761700D03*
X68784500Y-53360100D03*
X72911800Y-49232800D03*
%TO.N,PROG1*%
X76393300Y-67508600D03*
X77050000Y-62015000D03*
%TO.N,SCL*%
X78845700Y-57361000D03*
X89155800Y-58400000D03*
%TO.N,SDA*%
X81898200Y-57517400D03*
X99727400Y-63684800D03*
%TO.N,SPKM*%
X87760900Y-70773800D03*
%TO.N,SPKO*%
X83627700Y-47984800D03*
X94280300Y-45590000D03*
%TO.N,SPKP*%
X97465600Y-48130000D03*
%TO.N,STAT1*%
X73375200Y-65801400D03*
X78650300Y-68665700D03*
%TO.N,THERM*%
X74602900Y-73160600D03*
X71562500Y-63613500D03*
%TO.N,V33*%
X84080500Y-59691800D03*
%TO.N,V5*%
X63590300Y-51575100D03*
X59181100Y-68910000D03*
X53948300Y-55776400D03*
%TO.N,VBUS*%
X70480600Y-59833900D03*
X82439400Y-48392700D03*
X74001100Y-64905200D03*
X75539800Y-71375000D03*
X66149900Y-73498900D03*
X70591000Y-62822300D03*
%TO.N,VLIPO*%
X75495000Y-60356500D03*
X67937500Y-59336100D03*
%TO.N,VPCC*%
X77558400Y-55172800D03*
X70346000Y-62002500D03*
%TO.N,VSYS*%
X70517100Y-55006600D03*
X69000000Y-61094000D03*
%TO.N,GND*%
X41000000Y-76400000D03*
X41000000Y-73200000D03*
X41000000Y-70000000D03*
X41000000Y-63600000D03*
X41000000Y-60400000D03*
X41000000Y-57200000D03*
X41000000Y-54000000D03*
X41000000Y-50800000D03*
X41000000Y-47600000D03*
X41000000Y-44400000D03*
X44200000Y-76400000D03*
X44200000Y-60400000D03*
X44200000Y-57200000D03*
X44200000Y-54000000D03*
X44200000Y-50800000D03*
X44200000Y-47600000D03*
X44200000Y-41200000D03*
X47400000Y-76400000D03*
X47400000Y-73200000D03*
X47400000Y-57200000D03*
X47400000Y-54000000D03*
X47400000Y-50800000D03*
X47400000Y-47600000D03*
X47400000Y-44400000D03*
X47400000Y-41200000D03*
X50600000Y-76400000D03*
X50600000Y-73200000D03*
X50600000Y-54000000D03*
X50600000Y-50800000D03*
X50600000Y-47600000D03*
X50600000Y-44400000D03*
X50600000Y-41200000D03*
X53800000Y-76400000D03*
X53800000Y-73200000D03*
X53800000Y-54000000D03*
X53800000Y-50800000D03*
X53800000Y-47600000D03*
X53800000Y-44400000D03*
X53800000Y-41200000D03*
X57000000Y-76400000D03*
X57000000Y-44400000D03*
X57000000Y-41200000D03*
X60200000Y-76400000D03*
X60200000Y-44400000D03*
X60200000Y-41200000D03*
X63400000Y-76400000D03*
X63400000Y-41200000D03*
X66600000Y-76400000D03*
X66600000Y-44400000D03*
X66600000Y-41200000D03*
X69800000Y-76400000D03*
X69800000Y-66800000D03*
X69800000Y-44400000D03*
X69800000Y-41200000D03*
X73000000Y-76400000D03*
X73000000Y-44400000D03*
X73000000Y-41200000D03*
X76200000Y-76400000D03*
X79400000Y-76400000D03*
X79400000Y-44400000D03*
X79400000Y-41200000D03*
X82600000Y-76400000D03*
X82600000Y-66800000D03*
X82600000Y-44400000D03*
X82600000Y-41200000D03*
X85800000Y-76400000D03*
X85800000Y-54000000D03*
X89000000Y-76400000D03*
X89000000Y-73200000D03*
X89000000Y-66800000D03*
X89000000Y-41200000D03*
X92200000Y-76400000D03*
X92200000Y-73200000D03*
X92200000Y-63600000D03*
X92200000Y-57200000D03*
X92200000Y-44400000D03*
X92200000Y-41200000D03*
X95400000Y-76400000D03*
X95400000Y-73200000D03*
X95400000Y-66800000D03*
X95400000Y-57200000D03*
X95400000Y-54000000D03*
X95400000Y-41200000D03*
X98600000Y-76400000D03*
X98600000Y-73200000D03*
X98600000Y-66800000D03*
X98600000Y-60400000D03*
X98600000Y-57200000D03*
X98600000Y-54000000D03*
X98600000Y-50800000D03*
X98600000Y-41200000D03*
X101800000Y-76400000D03*
X101800000Y-73200000D03*
X101800000Y-66800000D03*
X101800000Y-60400000D03*
X101800000Y-57200000D03*
X101800000Y-54000000D03*
X101800000Y-50800000D03*
X101800000Y-41200000D03*
X105000000Y-76400000D03*
X105000000Y-73200000D03*
X105000000Y-66800000D03*
X105000000Y-57200000D03*
X105000000Y-54000000D03*
X105000000Y-47600000D03*
X105000000Y-41200000D03*
X108200000Y-76400000D03*
X108200000Y-73200000D03*
X108200000Y-66800000D03*
X108200000Y-60400000D03*
X108200000Y-57200000D03*
X108200000Y-41200000D03*
X111400000Y-76400000D03*
X111400000Y-73200000D03*
X111400000Y-60400000D03*
X111400000Y-50800000D03*
X111400000Y-47600000D03*
X111400000Y-44400000D03*
X111400000Y-41200000D03*
X114600000Y-76400000D03*
X114600000Y-73200000D03*
X114600000Y-54000000D03*
X114600000Y-50800000D03*
X114600000Y-47600000D03*
X114600000Y-44400000D03*
X114600000Y-41200000D03*
X117800000Y-76400000D03*
X117800000Y-70000000D03*
X117800000Y-66800000D03*
X117800000Y-63600000D03*
X117800000Y-60400000D03*
X117800000Y-57200000D03*
X117800000Y-54000000D03*
X117800000Y-50800000D03*
X117800000Y-47600000D03*
X117800000Y-44400000D03*
X117800000Y-41200000D03*
X121000000Y-76400000D03*
X121000000Y-70000000D03*
X121000000Y-66800000D03*
X121000000Y-63600000D03*
X121000000Y-60400000D03*
X121000000Y-57200000D03*
X121000000Y-54000000D03*
X121000000Y-50800000D03*
X121000000Y-47600000D03*
X121000000Y-44400000D03*
X121000000Y-41200000D03*
%TD*%
%TO.N,V5*%
D19*
X63858000Y-70338000D02*
X43500000Y-70338000D01*
X43500000Y-70338000D02*
X41770000Y-68608000D01*
X41770000Y-68608000D02*
X41770000Y-65595000D01*
%TO.N,BATRAW*%
D20*
X115700000Y-62450000D02*
X115700000Y-63900000D01*
X115700000Y-63900000D02*
X112000000Y-67600000D01*
X112000000Y-67600000D02*
X112000000Y-70900000D01*
X112000000Y-70900000D02*
X94995000Y-70900000D01*
X94995000Y-70900000D02*
X87495000Y-63400000D01*
%TO.N,VBUS*%
X78562000Y-48095000D02*
X70552000Y-56105000D01*
X70552000Y-56105000D02*
X70552000Y-56585000D01*
%TO.N,LBI*%
D21*
X62757500Y-55585000D02*
X62757500Y-58534100D01*
X62757500Y-58534100D02*
X59161200Y-62130400D01*
%TO.N,LBO*%
X72911800Y-49232800D02*
X68784500Y-53360100D01*
%TO.N,SPKM*%
D20*
X53276700Y-59300000D02*
X63412600Y-69435900D01*
X63412600Y-69435900D02*
X76167400Y-69435900D01*
X76167400Y-69435900D02*
X77505300Y-70773800D01*
X77505300Y-70773800D02*
X87760900Y-70773800D01*
X51950000Y-59300000D02*
X53276700Y-59300000D01*
%TO.N,SPKO*%
X94280300Y-45590000D02*
X91885500Y-47984800D01*
X91885500Y-47984800D02*
X83627700Y-47984800D01*
%TO.N,STAT1*%
D21*
X78650300Y-68665700D02*
X75786000Y-65801400D01*
X75786000Y-65801400D02*
X73375200Y-65801400D01*
%TO.N,V5*%
D19*
X63590300Y-51575100D02*
X59389000Y-55776400D01*
X59389000Y-55776400D02*
X53948300Y-55776400D01*
%TO.N,VBUS*%
D21*
X70480600Y-59833900D02*
X69780400Y-60534100D01*
X69780400Y-60534100D02*
X69780400Y-62236200D01*
X69780400Y-62236200D02*
X70366500Y-62822300D01*
X70366500Y-62822300D02*
X70591000Y-62822300D01*
X70552000Y-56585000D02*
X70480600Y-56656400D01*
X70480600Y-56656400D02*
X70480600Y-59833900D01*
X78562000Y-48095000D02*
X78709100Y-47947900D01*
X78709100Y-47947900D02*
X79628300Y-47947900D01*
X79628300Y-47947900D02*
X80073100Y-48392700D01*
X80073100Y-48392700D02*
X82439400Y-48392700D01*
%TO.N,VPCC*%
X77558400Y-55172800D02*
X70728700Y-62002500D01*
X70728700Y-62002500D02*
X70346000Y-62002500D01*
%TO.N,VSYS*%
D22*
X69000000Y-61094000D02*
X69000000Y-56523700D01*
X69000000Y-56523700D02*
X70517100Y-55006600D01*
%TD*%
%TA.AperFunction,Conductor*%
%TO.N,GND*%
G36*
X121666539Y-40320185D02*
G01*
X121712294Y-40372989D01*
X121723500Y-40424500D01*
X121723500Y-76975500D01*
X121703815Y-77042539D01*
X121651011Y-77088294D01*
X121599500Y-77099500D01*
X40424500Y-77099500D01*
X40357461Y-77079815D01*
X40311706Y-77027011D01*
X40300500Y-76975500D01*
X40300500Y-73793713D01*
X42649500Y-73793713D01*
X42649500Y-74006286D01*
X42682753Y-74216239D01*
X42748444Y-74418414D01*
X42844951Y-74607820D01*
X42969890Y-74779786D01*
X43120213Y-74930109D01*
X43292179Y-75055048D01*
X43292181Y-75055049D01*
X43292184Y-75055051D01*
X43481588Y-75151557D01*
X43683757Y-75217246D01*
X43893713Y-75250500D01*
X43893714Y-75250500D01*
X44106286Y-75250500D01*
X44106287Y-75250500D01*
X44316243Y-75217246D01*
X44518412Y-75151557D01*
X44707816Y-75055051D01*
X44729789Y-75039086D01*
X44879786Y-74930109D01*
X44879788Y-74930106D01*
X44879792Y-74930104D01*
X45030104Y-74779792D01*
X45030106Y-74779788D01*
X45030109Y-74779786D01*
X45155048Y-74607820D01*
X45155047Y-74607820D01*
X45155051Y-74607816D01*
X45251557Y-74418412D01*
X45317246Y-74216243D01*
X45350500Y-74006287D01*
X45350500Y-73793713D01*
X45317246Y-73583757D01*
X45284977Y-73484443D01*
X60601000Y-73484443D01*
X60601000Y-73642557D01*
X60632764Y-73761100D01*
X60641923Y-73795283D01*
X60641926Y-73795290D01*
X60720975Y-73932209D01*
X60720979Y-73932214D01*
X60720980Y-73932216D01*
X60832784Y-74044020D01*
X60832786Y-74044021D01*
X60832790Y-74044024D01*
X60857824Y-74058477D01*
X60969716Y-74123077D01*
X61122443Y-74164000D01*
X61122445Y-74164000D01*
X61280555Y-74164000D01*
X61280557Y-74164000D01*
X61433284Y-74123077D01*
X61570216Y-74044020D01*
X61682020Y-73932216D01*
X61761077Y-73795284D01*
X61802000Y-73642557D01*
X61802000Y-73484443D01*
X61784691Y-73419843D01*
X65549400Y-73419843D01*
X65549400Y-73577957D01*
X65587508Y-73720176D01*
X65590323Y-73730683D01*
X65590326Y-73730690D01*
X65669375Y-73867609D01*
X65669379Y-73867614D01*
X65669380Y-73867616D01*
X65781184Y-73979420D01*
X65781186Y-73979421D01*
X65781190Y-73979424D01*
X65893082Y-74044024D01*
X65918116Y-74058477D01*
X66070843Y-74099400D01*
X66070845Y-74099400D01*
X66228955Y-74099400D01*
X66228957Y-74099400D01*
X66381684Y-74058477D01*
X66518616Y-73979420D01*
X66630420Y-73867616D01*
X66673088Y-73793713D01*
X118003500Y-73793713D01*
X118003500Y-74006286D01*
X118036753Y-74216239D01*
X118102444Y-74418414D01*
X118198951Y-74607820D01*
X118323890Y-74779786D01*
X118474213Y-74930109D01*
X118646179Y-75055048D01*
X118646181Y-75055049D01*
X118646184Y-75055051D01*
X118835588Y-75151557D01*
X119037757Y-75217246D01*
X119247713Y-75250500D01*
X119247714Y-75250500D01*
X119460286Y-75250500D01*
X119460287Y-75250500D01*
X119670243Y-75217246D01*
X119872412Y-75151557D01*
X120061816Y-75055051D01*
X120083789Y-75039086D01*
X120233786Y-74930109D01*
X120233788Y-74930106D01*
X120233792Y-74930104D01*
X120384104Y-74779792D01*
X120384106Y-74779788D01*
X120384109Y-74779786D01*
X120509048Y-74607820D01*
X120509047Y-74607820D01*
X120509051Y-74607816D01*
X120605557Y-74418412D01*
X120671246Y-74216243D01*
X120704500Y-74006287D01*
X120704500Y-73793713D01*
X120671246Y-73583757D01*
X120605557Y-73381588D01*
X120509051Y-73192184D01*
X120509049Y-73192181D01*
X120509048Y-73192179D01*
X120384109Y-73020213D01*
X120233786Y-72869890D01*
X120061820Y-72744951D01*
X119872414Y-72648444D01*
X119872413Y-72648443D01*
X119872412Y-72648443D01*
X119670243Y-72582754D01*
X119670241Y-72582753D01*
X119670240Y-72582753D01*
X119508957Y-72557208D01*
X119460287Y-72549500D01*
X119247713Y-72549500D01*
X119199042Y-72557208D01*
X119037760Y-72582753D01*
X118835585Y-72648444D01*
X118646179Y-72744951D01*
X118474213Y-72869890D01*
X118323890Y-73020213D01*
X118198951Y-73192179D01*
X118102444Y-73381585D01*
X118102443Y-73381587D01*
X118102443Y-73381588D01*
X118082226Y-73443809D01*
X118036753Y-73583760D01*
X118003500Y-73793713D01*
X66673088Y-73793713D01*
X66709477Y-73730684D01*
X66750400Y-73577957D01*
X66750400Y-73419843D01*
X66709477Y-73267116D01*
X66667720Y-73194790D01*
X66633441Y-73135415D01*
X66630424Y-73130190D01*
X66630418Y-73130182D01*
X66581779Y-73081543D01*
X74002400Y-73081543D01*
X74002400Y-73239657D01*
X74040430Y-73381585D01*
X74043323Y-73392383D01*
X74043326Y-73392390D01*
X74122375Y-73529309D01*
X74122379Y-73529314D01*
X74122380Y-73529316D01*
X74234184Y-73641120D01*
X74234186Y-73641121D01*
X74234190Y-73641124D01*
X74329605Y-73696211D01*
X74371116Y-73720177D01*
X74523843Y-73761100D01*
X74523845Y-73761100D01*
X74681955Y-73761100D01*
X74681957Y-73761100D01*
X74834684Y-73720177D01*
X74971616Y-73641120D01*
X75083420Y-73529316D01*
X75162477Y-73392384D01*
X75203400Y-73239657D01*
X75203400Y-73081543D01*
X75162477Y-72928816D01*
X75083420Y-72791884D01*
X74971616Y-72680080D01*
X74971614Y-72680079D01*
X74971609Y-72680075D01*
X74834690Y-72601026D01*
X74834686Y-72601024D01*
X74834684Y-72601023D01*
X74681957Y-72560100D01*
X74523843Y-72560100D01*
X74371116Y-72601023D01*
X74371109Y-72601026D01*
X74234190Y-72680075D01*
X74234182Y-72680081D01*
X74122381Y-72791882D01*
X74122375Y-72791890D01*
X74043326Y-72928809D01*
X74043323Y-72928816D01*
X74002400Y-73081543D01*
X66581779Y-73081543D01*
X66518617Y-73018381D01*
X66518609Y-73018375D01*
X66381690Y-72939326D01*
X66381686Y-72939324D01*
X66381684Y-72939323D01*
X66228957Y-72898400D01*
X66070843Y-72898400D01*
X65918116Y-72939323D01*
X65918109Y-72939326D01*
X65781190Y-73018375D01*
X65781182Y-73018381D01*
X65669381Y-73130182D01*
X65669375Y-73130190D01*
X65590326Y-73267109D01*
X65590323Y-73267116D01*
X65549400Y-73419843D01*
X61784691Y-73419843D01*
X61761077Y-73331716D01*
X61723781Y-73267116D01*
X61682024Y-73194790D01*
X61682018Y-73194782D01*
X61570217Y-73082981D01*
X61570209Y-73082975D01*
X61433290Y-73003926D01*
X61433286Y-73003924D01*
X61433284Y-73003923D01*
X61280557Y-72963000D01*
X61122443Y-72963000D01*
X60969716Y-73003923D01*
X60969709Y-73003926D01*
X60832790Y-73082975D01*
X60832782Y-73082981D01*
X60720981Y-73194782D01*
X60720975Y-73194790D01*
X60641926Y-73331709D01*
X60641924Y-73331714D01*
X60641923Y-73331716D01*
X60601000Y-73484443D01*
X45284977Y-73484443D01*
X45251557Y-73381588D01*
X45155051Y-73192184D01*
X45155049Y-73192181D01*
X45155048Y-73192179D01*
X45030109Y-73020213D01*
X44879786Y-72869890D01*
X44707820Y-72744951D01*
X44518414Y-72648444D01*
X44518413Y-72648443D01*
X44518412Y-72648443D01*
X44316243Y-72582754D01*
X44316241Y-72582753D01*
X44316240Y-72582753D01*
X44154957Y-72557208D01*
X44106287Y-72549500D01*
X43893713Y-72549500D01*
X43845042Y-72557208D01*
X43683760Y-72582753D01*
X43481585Y-72648444D01*
X43292179Y-72744951D01*
X43120213Y-72869890D01*
X42969890Y-73020213D01*
X42844951Y-73192179D01*
X42748444Y-73381585D01*
X42748443Y-73381587D01*
X42748443Y-73381588D01*
X42728226Y-73443809D01*
X42682753Y-73583760D01*
X42649500Y-73793713D01*
X40300500Y-73793713D01*
X40300500Y-64700131D01*
X40619500Y-64700131D01*
X40619500Y-66489856D01*
X40619502Y-66489882D01*
X40622413Y-66514987D01*
X40622415Y-66514991D01*
X40667793Y-66617764D01*
X40667794Y-66617765D01*
X40747235Y-66697206D01*
X40850009Y-66742585D01*
X40875135Y-66745500D01*
X40945500Y-66745499D01*
X41012538Y-66765183D01*
X41058294Y-66817986D01*
X41069500Y-66869499D01*
X41069500Y-68539006D01*
X41069500Y-68676994D01*
X41069500Y-68676996D01*
X41069499Y-68676996D01*
X41096418Y-68812322D01*
X41096421Y-68812332D01*
X41149222Y-68939807D01*
X41225887Y-69054545D01*
X41225888Y-69054546D01*
X42955886Y-70784542D01*
X43024199Y-70852855D01*
X43053459Y-70882115D01*
X43168184Y-70958772D01*
X43168185Y-70958772D01*
X43168189Y-70958775D01*
X43217157Y-70979058D01*
X43295671Y-71011580D01*
X43305709Y-71013576D01*
X43310380Y-71014506D01*
X43310393Y-71014508D01*
X43310407Y-71014511D01*
X43358647Y-71024106D01*
X43431004Y-71038500D01*
X43431007Y-71038500D01*
X58669200Y-71038500D01*
X58736239Y-71058185D01*
X58781994Y-71110989D01*
X58793200Y-71162500D01*
X58793200Y-71316757D01*
X58831469Y-71459577D01*
X58834123Y-71469483D01*
X58834126Y-71469490D01*
X58913175Y-71606409D01*
X58913179Y-71606414D01*
X58913180Y-71606416D01*
X59024984Y-71718220D01*
X59024986Y-71718221D01*
X59024990Y-71718224D01*
X59097864Y-71760297D01*
X59161916Y-71797277D01*
X59314643Y-71838200D01*
X59314645Y-71838200D01*
X59472755Y-71838200D01*
X59472757Y-71838200D01*
X59625484Y-71797277D01*
X59762416Y-71718220D01*
X59874220Y-71606416D01*
X59953277Y-71469484D01*
X59994200Y-71316757D01*
X59994200Y-71162500D01*
X60013885Y-71095461D01*
X60066689Y-71049706D01*
X60118200Y-71038500D01*
X63926995Y-71038500D01*
X64018041Y-71020389D01*
X64062328Y-71011580D01*
X64189811Y-70958775D01*
X64304542Y-70882114D01*
X64402114Y-70784542D01*
X64478775Y-70669811D01*
X64531580Y-70542328D01*
X64558500Y-70406993D01*
X64558500Y-70269007D01*
X64558500Y-70269004D01*
X64541709Y-70184592D01*
X64547936Y-70115000D01*
X64590799Y-70059823D01*
X64656689Y-70036578D01*
X64663326Y-70036400D01*
X75867303Y-70036400D01*
X75934342Y-70056085D01*
X75954984Y-70072719D01*
X77020439Y-71138174D01*
X77020449Y-71138185D01*
X77024779Y-71142515D01*
X77024780Y-71142516D01*
X77136584Y-71254320D01*
X77136586Y-71254321D01*
X77136590Y-71254324D01*
X77244727Y-71316756D01*
X77273516Y-71333377D01*
X77385319Y-71363334D01*
X77426242Y-71374300D01*
X77426243Y-71374300D01*
X77426244Y-71374300D01*
X77431304Y-71375656D01*
X77490963Y-71412023D01*
X77521491Y-71474871D01*
X77513194Y-71544246D01*
X77490000Y-71578514D01*
X77490000Y-72196988D01*
X77432993Y-72164075D01*
X77305826Y-72130000D01*
X77174174Y-72130000D01*
X77047007Y-72164075D01*
X76990000Y-72196988D01*
X76990000Y-71580000D01*
X76370297Y-71580000D01*
X76311961Y-71591604D01*
X76309665Y-71592555D01*
X76304259Y-71593135D01*
X76299986Y-71593986D01*
X76299909Y-71593603D01*
X76240195Y-71600021D01*
X76177718Y-71568743D01*
X76142068Y-71508652D01*
X76139280Y-71461800D01*
X76140300Y-71454055D01*
X76140300Y-71295945D01*
X76140300Y-71295943D01*
X76099377Y-71143216D01*
X76050285Y-71058185D01*
X76020324Y-71006290D01*
X76020318Y-71006282D01*
X75908517Y-70894481D01*
X75908509Y-70894475D01*
X75771590Y-70815426D01*
X75771586Y-70815424D01*
X75771584Y-70815423D01*
X75618857Y-70774500D01*
X75460743Y-70774500D01*
X75308016Y-70815423D01*
X75308009Y-70815426D01*
X75171090Y-70894475D01*
X75171082Y-70894481D01*
X75059281Y-71006282D01*
X75059275Y-71006290D01*
X74980226Y-71143209D01*
X74980223Y-71143216D01*
X74939300Y-71295943D01*
X74939300Y-71454057D01*
X74980125Y-71606416D01*
X74980223Y-71606783D01*
X74980226Y-71606790D01*
X75059275Y-71743709D01*
X75059279Y-71743714D01*
X75059280Y-71743716D01*
X75171084Y-71855520D01*
X75171086Y-71855521D01*
X75171090Y-71855524D01*
X75308009Y-71934573D01*
X75308016Y-71934577D01*
X75460743Y-71975500D01*
X75460745Y-71975500D01*
X75618855Y-71975500D01*
X75618857Y-71975500D01*
X75771584Y-71934577D01*
X75908516Y-71855520D01*
X75978319Y-71785717D01*
X76039642Y-71752232D01*
X76109334Y-71757216D01*
X76165267Y-71799088D01*
X76189684Y-71864552D01*
X76190000Y-71873398D01*
X76190000Y-72380000D01*
X76806988Y-72380000D01*
X76774075Y-72437007D01*
X76740000Y-72564174D01*
X76740000Y-72695826D01*
X76774075Y-72822993D01*
X76806988Y-72880000D01*
X76190000Y-72880000D01*
X76190000Y-73499702D01*
X76201602Y-73558033D01*
X76201603Y-73558034D01*
X76245808Y-73624191D01*
X76311965Y-73668396D01*
X76311966Y-73668397D01*
X76370297Y-73679999D01*
X76370301Y-73680000D01*
X76990000Y-73680000D01*
X76990000Y-73063012D01*
X77047007Y-73095925D01*
X77174174Y-73130000D01*
X77305826Y-73130000D01*
X77432993Y-73095925D01*
X77490000Y-73063012D01*
X77490000Y-73680000D01*
X78109699Y-73680000D01*
X78109702Y-73679999D01*
X78168033Y-73668397D01*
X78168034Y-73668396D01*
X78234191Y-73624191D01*
X78278396Y-73558034D01*
X78278397Y-73558033D01*
X78289999Y-73499702D01*
X78290000Y-73499699D01*
X78290000Y-72880000D01*
X77673012Y-72880000D01*
X77705925Y-72822993D01*
X77740000Y-72695826D01*
X77740000Y-72564174D01*
X77705925Y-72437007D01*
X77673012Y-72380000D01*
X78290000Y-72380000D01*
X78290000Y-71760301D01*
X78289999Y-71760297D01*
X78278397Y-71701966D01*
X78278396Y-71701965D01*
X78234191Y-71635807D01*
X78182700Y-71601402D01*
X78137894Y-71547790D01*
X78129187Y-71478465D01*
X78159341Y-71415438D01*
X78218784Y-71378718D01*
X78251590Y-71374300D01*
X79193757Y-71374300D01*
X79260796Y-71393985D01*
X79306551Y-71446789D01*
X79316495Y-71515947D01*
X79287470Y-71579503D01*
X79250052Y-71608785D01*
X79177002Y-71646006D01*
X79030505Y-71752441D01*
X79030500Y-71752445D01*
X78902445Y-71880500D01*
X78902441Y-71880505D01*
X78796006Y-72027002D01*
X78713788Y-72188360D01*
X78713787Y-72188363D01*
X78657829Y-72360589D01*
X78629500Y-72539448D01*
X78629500Y-72720551D01*
X78657829Y-72899410D01*
X78713787Y-73071636D01*
X78713788Y-73071639D01*
X78796006Y-73232997D01*
X78902441Y-73379494D01*
X78902445Y-73379499D01*
X79030500Y-73507554D01*
X79030505Y-73507558D01*
X79127401Y-73577956D01*
X79177006Y-73613996D01*
X79282484Y-73667740D01*
X79338360Y-73696211D01*
X79338363Y-73696212D01*
X79412110Y-73720173D01*
X79510591Y-73752171D01*
X79593429Y-73765291D01*
X79689449Y-73780500D01*
X79689454Y-73780500D01*
X79870551Y-73780500D01*
X79957259Y-73766765D01*
X80049409Y-73752171D01*
X80221639Y-73696211D01*
X80382994Y-73613996D01*
X80529501Y-73507553D01*
X80657553Y-73379501D01*
X80763996Y-73232994D01*
X80846211Y-73071639D01*
X80902171Y-72899409D01*
X80926635Y-72744951D01*
X80927527Y-72739321D01*
X80957456Y-72676186D01*
X81016768Y-72639255D01*
X81086630Y-72640253D01*
X81144863Y-72678863D01*
X81172473Y-72739321D01*
X81197829Y-72899410D01*
X81253787Y-73071636D01*
X81253788Y-73071639D01*
X81336006Y-73232997D01*
X81442441Y-73379494D01*
X81442445Y-73379499D01*
X81570500Y-73507554D01*
X81570505Y-73507558D01*
X81667401Y-73577956D01*
X81717006Y-73613996D01*
X81822484Y-73667740D01*
X81878360Y-73696211D01*
X81878363Y-73696212D01*
X81952110Y-73720173D01*
X82050591Y-73752171D01*
X82133429Y-73765291D01*
X82229449Y-73780500D01*
X82229454Y-73780500D01*
X82410551Y-73780500D01*
X82497259Y-73766765D01*
X82589409Y-73752171D01*
X82761639Y-73696211D01*
X82922994Y-73613996D01*
X83069501Y-73507553D01*
X83197553Y-73379501D01*
X83303996Y-73232994D01*
X83386211Y-73071639D01*
X83442171Y-72899409D01*
X83466635Y-72744951D01*
X83467527Y-72739321D01*
X83497456Y-72676186D01*
X83556768Y-72639255D01*
X83626630Y-72640253D01*
X83684863Y-72678863D01*
X83712473Y-72739321D01*
X83737829Y-72899410D01*
X83793787Y-73071636D01*
X83793788Y-73071639D01*
X83876006Y-73232997D01*
X83982441Y-73379494D01*
X83982445Y-73379499D01*
X84110500Y-73507554D01*
X84110505Y-73507558D01*
X84207401Y-73577956D01*
X84257006Y-73613996D01*
X84362484Y-73667740D01*
X84418360Y-73696211D01*
X84418363Y-73696212D01*
X84492110Y-73720173D01*
X84590591Y-73752171D01*
X84673429Y-73765291D01*
X84769449Y-73780500D01*
X84769454Y-73780500D01*
X84950551Y-73780500D01*
X85037259Y-73766765D01*
X85129409Y-73752171D01*
X85301639Y-73696211D01*
X85301639Y-73696210D01*
X85301644Y-73696209D01*
X85336680Y-73678357D01*
X85336681Y-73678356D01*
X85462994Y-73613996D01*
X85609501Y-73507553D01*
X85737553Y-73379501D01*
X85843996Y-73232994D01*
X85926211Y-73071639D01*
X85982171Y-72899409D01*
X86006635Y-72744951D01*
X86010500Y-72720551D01*
X86010500Y-72539448D01*
X85985245Y-72380000D01*
X85982171Y-72360591D01*
X85926211Y-72188361D01*
X85926211Y-72188360D01*
X85896474Y-72130000D01*
X85843996Y-72027006D01*
X85776840Y-71934573D01*
X85737558Y-71880505D01*
X85737554Y-71880500D01*
X85609499Y-71752445D01*
X85609494Y-71752441D01*
X85462997Y-71646006D01*
X85462996Y-71646005D01*
X85462994Y-71646004D01*
X85389947Y-71608784D01*
X85339152Y-71560810D01*
X85322357Y-71492989D01*
X85344895Y-71426854D01*
X85399610Y-71383403D01*
X85446243Y-71374300D01*
X87839955Y-71374300D01*
X87839957Y-71374300D01*
X87992684Y-71333377D01*
X88129616Y-71254320D01*
X88241420Y-71142516D01*
X88320477Y-71005584D01*
X88361400Y-70852857D01*
X88361400Y-70694743D01*
X88320477Y-70542016D01*
X88320473Y-70542009D01*
X88241424Y-70405090D01*
X88241418Y-70405082D01*
X88129617Y-70293281D01*
X88129609Y-70293275D01*
X87992690Y-70214226D01*
X87992686Y-70214224D01*
X87992684Y-70214223D01*
X87839957Y-70173300D01*
X87839956Y-70173300D01*
X77805397Y-70173300D01*
X77738358Y-70153615D01*
X77717716Y-70136981D01*
X76654990Y-69074255D01*
X76654988Y-69074252D01*
X76536117Y-68955381D01*
X76536116Y-68955380D01*
X76449304Y-68905260D01*
X76449304Y-68905259D01*
X76449300Y-68905258D01*
X76399185Y-68876323D01*
X76246457Y-68835399D01*
X76088343Y-68835399D01*
X76080747Y-68835399D01*
X76080731Y-68835400D01*
X63712697Y-68835400D01*
X63645658Y-68815715D01*
X63625016Y-68799081D01*
X60548278Y-65722343D01*
X72774700Y-65722343D01*
X72774700Y-65880457D01*
X72780475Y-65902007D01*
X72815623Y-66033183D01*
X72815626Y-66033190D01*
X72894675Y-66170109D01*
X72894679Y-66170114D01*
X72894680Y-66170116D01*
X73006484Y-66281920D01*
X73006486Y-66281921D01*
X73006490Y-66281924D01*
X73114866Y-66344494D01*
X73143416Y-66360977D01*
X73296143Y-66401900D01*
X73296145Y-66401900D01*
X73454255Y-66401900D01*
X73454257Y-66401900D01*
X73606984Y-66360977D01*
X73743916Y-66281920D01*
X73787617Y-66238219D01*
X73848940Y-66204734D01*
X73875298Y-66201900D01*
X75568745Y-66201900D01*
X75635784Y-66221585D01*
X75656426Y-66238219D01*
X76177665Y-66759458D01*
X76211150Y-66820781D01*
X76206166Y-66890473D01*
X76164294Y-66946406D01*
X76151984Y-66954526D01*
X76024587Y-67028077D01*
X76024582Y-67028081D01*
X75912781Y-67139882D01*
X75912775Y-67139890D01*
X75833726Y-67276809D01*
X75833723Y-67276816D01*
X75792800Y-67429543D01*
X75792800Y-67587657D01*
X75819815Y-67688476D01*
X75833723Y-67740383D01*
X75833726Y-67740390D01*
X75912775Y-67877309D01*
X75912779Y-67877314D01*
X75912780Y-67877316D01*
X76024584Y-67989120D01*
X76024586Y-67989121D01*
X76024590Y-67989124D01*
X76122264Y-68045515D01*
X76161516Y-68068177D01*
X76314243Y-68109100D01*
X76314245Y-68109100D01*
X76472355Y-68109100D01*
X76472357Y-68109100D01*
X76625084Y-68068177D01*
X76762016Y-67989120D01*
X76873820Y-67877316D01*
X76947375Y-67749912D01*
X76997938Y-67701700D01*
X77066545Y-67688476D01*
X77131410Y-67714443D01*
X77142441Y-67724234D01*
X78013481Y-68595274D01*
X78046966Y-68656597D01*
X78049800Y-68682955D01*
X78049800Y-68744757D01*
X78074088Y-68835399D01*
X78090723Y-68897483D01*
X78090726Y-68897490D01*
X78169775Y-69034409D01*
X78169779Y-69034414D01*
X78169780Y-69034416D01*
X78281584Y-69146220D01*
X78281586Y-69146221D01*
X78281590Y-69146224D01*
X78418509Y-69225273D01*
X78418516Y-69225277D01*
X78571243Y-69266200D01*
X78571245Y-69266200D01*
X78729355Y-69266200D01*
X78729357Y-69266200D01*
X78882084Y-69225277D01*
X79019016Y-69146220D01*
X79130820Y-69034416D01*
X79209877Y-68897484D01*
X79250800Y-68744757D01*
X79250800Y-68586643D01*
X79209877Y-68433916D01*
X79209873Y-68433909D01*
X79130824Y-68296990D01*
X79130818Y-68296982D01*
X79019017Y-68185181D01*
X79019009Y-68185175D01*
X78882090Y-68106126D01*
X78882086Y-68106124D01*
X78882084Y-68106123D01*
X78729357Y-68065200D01*
X78729356Y-68065200D01*
X78667555Y-68065200D01*
X78600516Y-68045515D01*
X78579874Y-68028881D01*
X76031915Y-65480922D01*
X76031913Y-65480920D01*
X75986250Y-65454556D01*
X75940589Y-65428193D01*
X75842858Y-65402007D01*
X75838727Y-65400900D01*
X75838726Y-65400900D01*
X74623080Y-65400900D01*
X74556041Y-65381215D01*
X74510286Y-65328411D01*
X74500342Y-65259253D01*
X74515692Y-65214901D01*
X74524282Y-65200023D01*
X74560677Y-65136984D01*
X74601600Y-64984257D01*
X74601600Y-64826143D01*
X74560677Y-64673416D01*
X74524644Y-64611004D01*
X74481624Y-64536490D01*
X74481618Y-64536482D01*
X74369817Y-64424681D01*
X74369809Y-64424675D01*
X74232890Y-64345626D01*
X74232886Y-64345624D01*
X74232884Y-64345623D01*
X74080157Y-64304700D01*
X73922043Y-64304700D01*
X73769316Y-64345623D01*
X73769309Y-64345626D01*
X73632390Y-64424675D01*
X73632382Y-64424681D01*
X73520581Y-64536482D01*
X73520575Y-64536490D01*
X73441526Y-64673409D01*
X73441523Y-64673416D01*
X73400600Y-64826143D01*
X73400600Y-64984257D01*
X73416824Y-65044809D01*
X73415162Y-65114656D01*
X73376000Y-65172519D01*
X73311772Y-65200023D01*
X73297050Y-65200900D01*
X73296143Y-65200900D01*
X73143416Y-65241823D01*
X73143409Y-65241826D01*
X73006490Y-65320875D01*
X73006482Y-65320881D01*
X72894681Y-65432682D01*
X72894675Y-65432690D01*
X72815626Y-65569609D01*
X72815623Y-65569616D01*
X72774700Y-65722343D01*
X60548278Y-65722343D01*
X59482366Y-64656431D01*
X59448881Y-64595108D01*
X59453865Y-64525416D01*
X59482362Y-64481073D01*
X59571620Y-64391816D01*
X59650677Y-64254884D01*
X59691600Y-64102157D01*
X59691600Y-63944043D01*
X59650677Y-63791316D01*
X59590947Y-63687860D01*
X59574475Y-63619962D01*
X59597328Y-63553935D01*
X59610649Y-63538186D01*
X59653020Y-63495816D01*
X59732077Y-63358884D01*
X59773000Y-63206157D01*
X59773000Y-63048043D01*
X59732077Y-62895316D01*
X59721237Y-62876540D01*
X59653024Y-62758390D01*
X59653018Y-62758382D01*
X59605417Y-62710781D01*
X59571932Y-62649458D01*
X59576916Y-62579766D01*
X59605417Y-62535419D01*
X59641720Y-62499116D01*
X59720777Y-62362184D01*
X59761700Y-62209457D01*
X59761700Y-62147655D01*
X59781385Y-62080616D01*
X59798019Y-62059974D01*
X62600950Y-59257043D01*
X67337000Y-59257043D01*
X67337000Y-59415157D01*
X67350407Y-59465190D01*
X67377923Y-59567883D01*
X67377926Y-59567890D01*
X67456975Y-59704809D01*
X67456979Y-59704814D01*
X67456980Y-59704816D01*
X67568784Y-59816620D01*
X67568786Y-59816621D01*
X67568790Y-59816624D01*
X67671591Y-59875975D01*
X67705716Y-59895677D01*
X67858443Y-59936600D01*
X67858445Y-59936600D01*
X68016555Y-59936600D01*
X68016557Y-59936600D01*
X68169284Y-59895677D01*
X68232860Y-59858972D01*
X68313255Y-59812557D01*
X68315008Y-59815594D01*
X68365108Y-59796191D01*
X68433561Y-59810188D01*
X68483580Y-59858972D01*
X68499500Y-59919755D01*
X68499500Y-60726664D01*
X68482888Y-60788663D01*
X68440423Y-60862215D01*
X68440423Y-60862216D01*
X68399500Y-61014943D01*
X68399500Y-61173057D01*
X68427620Y-61278000D01*
X68440423Y-61325783D01*
X68440426Y-61325790D01*
X68519475Y-61462709D01*
X68519479Y-61462714D01*
X68519480Y-61462716D01*
X68631284Y-61574520D01*
X68631286Y-61574521D01*
X68631290Y-61574524D01*
X68761814Y-61649881D01*
X68768216Y-61653577D01*
X68920943Y-61694500D01*
X68920945Y-61694500D01*
X69079054Y-61694500D01*
X69079057Y-61694500D01*
X69223808Y-61655714D01*
X69293656Y-61657377D01*
X69351519Y-61696539D01*
X69379023Y-61760768D01*
X69379900Y-61775489D01*
X69379900Y-62288926D01*
X69407193Y-62390789D01*
X69428393Y-62427508D01*
X69459920Y-62482113D01*
X69459921Y-62482114D01*
X69459922Y-62482115D01*
X70019238Y-63041430D01*
X70038944Y-63067112D01*
X70110475Y-63191009D01*
X70110479Y-63191014D01*
X70110480Y-63191016D01*
X70222284Y-63302820D01*
X70222286Y-63302821D01*
X70222290Y-63302824D01*
X70319394Y-63358886D01*
X70359216Y-63381877D01*
X70511943Y-63422800D01*
X70511945Y-63422800D01*
X70670054Y-63422800D01*
X70670057Y-63422800D01*
X70809359Y-63385474D01*
X70879204Y-63387137D01*
X70937066Y-63426299D01*
X70964571Y-63490527D01*
X70962018Y-63526249D01*
X70963061Y-63526387D01*
X70962000Y-63534441D01*
X70962000Y-63534443D01*
X70962000Y-63692557D01*
X70988463Y-63791316D01*
X71002923Y-63845283D01*
X71002926Y-63845290D01*
X71081975Y-63982209D01*
X71081979Y-63982214D01*
X71081980Y-63982216D01*
X71193784Y-64094020D01*
X71193786Y-64094021D01*
X71193790Y-64094024D01*
X71259197Y-64131786D01*
X71330716Y-64173077D01*
X71483443Y-64214000D01*
X71483445Y-64214000D01*
X71641555Y-64214000D01*
X71641557Y-64214000D01*
X71794284Y-64173077D01*
X71931216Y-64094020D01*
X72043020Y-63982216D01*
X72122077Y-63845284D01*
X72163000Y-63692557D01*
X72163000Y-63534443D01*
X72148159Y-63479054D01*
X86894498Y-63479054D01*
X86928947Y-63607620D01*
X86935423Y-63631785D01*
X86961305Y-63676613D01*
X87011674Y-63763855D01*
X87014479Y-63768714D01*
X87014481Y-63768717D01*
X87133349Y-63887585D01*
X87133354Y-63887589D01*
X94626284Y-71380520D01*
X94626286Y-71380521D01*
X94626290Y-71380524D01*
X94753653Y-71454056D01*
X94763216Y-71459577D01*
X94915943Y-71500501D01*
X94915945Y-71500501D01*
X95081654Y-71500501D01*
X95081670Y-71500500D01*
X112079055Y-71500500D01*
X112079057Y-71500500D01*
X112231784Y-71459577D01*
X112368716Y-71380520D01*
X112480520Y-71268716D01*
X112559577Y-71131784D01*
X112600500Y-70979057D01*
X112600500Y-67900096D01*
X112620185Y-67833057D01*
X112636815Y-67812419D01*
X113187819Y-67261414D01*
X113249142Y-67227930D01*
X113318834Y-67232914D01*
X113374767Y-67274786D01*
X113399184Y-67340250D01*
X113399500Y-67349096D01*
X113399500Y-68518102D01*
X113403516Y-68551541D01*
X113410122Y-68606561D01*
X113465639Y-68747343D01*
X113557077Y-68867922D01*
X113677656Y-68959360D01*
X113677657Y-68959360D01*
X113677658Y-68959361D01*
X113818436Y-69014877D01*
X113906898Y-69025500D01*
X113906903Y-69025500D01*
X114693097Y-69025500D01*
X114693102Y-69025500D01*
X114781564Y-69014877D01*
X114922342Y-68959361D01*
X115042922Y-68867922D01*
X115134361Y-68747342D01*
X115189877Y-68606564D01*
X115200500Y-68518102D01*
X115200500Y-68447080D01*
X115220185Y-68380041D01*
X115272989Y-68334286D01*
X115342147Y-68324342D01*
X115405703Y-68353367D01*
X115439061Y-68399628D01*
X115501983Y-68551541D01*
X115501990Y-68551553D01*
X115600535Y-68699034D01*
X115600538Y-68699038D01*
X115725961Y-68824461D01*
X115725965Y-68824464D01*
X115873446Y-68923009D01*
X115873459Y-68923016D01*
X115996363Y-68973923D01*
X116037334Y-68990894D01*
X116037336Y-68990894D01*
X116037341Y-68990896D01*
X116211304Y-69025499D01*
X116211307Y-69025500D01*
X116211309Y-69025500D01*
X116388693Y-69025500D01*
X116388694Y-69025499D01*
X116446682Y-69013964D01*
X116562658Y-68990896D01*
X116562661Y-68990894D01*
X116562666Y-68990894D01*
X116726547Y-68923013D01*
X116874035Y-68824464D01*
X116999464Y-68699035D01*
X117098013Y-68551547D01*
X117165894Y-68387666D01*
X117172559Y-68354162D01*
X117200499Y-68213695D01*
X117200500Y-68213693D01*
X117200500Y-67486306D01*
X117200499Y-67486304D01*
X117165896Y-67312341D01*
X117165893Y-67312333D01*
X117132325Y-67231290D01*
X117098016Y-67148459D01*
X117098009Y-67148446D01*
X116999464Y-67000965D01*
X116999461Y-67000961D01*
X116874038Y-66875538D01*
X116874034Y-66875535D01*
X116726553Y-66776990D01*
X116726540Y-66776983D01*
X116562667Y-66709106D01*
X116562658Y-66709103D01*
X116388694Y-66674500D01*
X116388691Y-66674500D01*
X116211309Y-66674500D01*
X116211306Y-66674500D01*
X116037341Y-66709103D01*
X116037332Y-66709106D01*
X115873459Y-66776983D01*
X115873446Y-66776990D01*
X115725965Y-66875535D01*
X115725961Y-66875538D01*
X115600538Y-67000961D01*
X115600535Y-67000965D01*
X115501990Y-67148446D01*
X115501983Y-67148459D01*
X115439061Y-67300371D01*
X115395221Y-67354775D01*
X115328927Y-67376840D01*
X115261227Y-67359561D01*
X115213616Y-67308424D01*
X115200500Y-67252919D01*
X115200500Y-67181903D01*
X115200500Y-67181898D01*
X115189877Y-67093436D01*
X115134361Y-66952658D01*
X115134360Y-66952657D01*
X115134360Y-66952656D01*
X115042922Y-66832077D01*
X114922343Y-66740639D01*
X114781561Y-66685122D01*
X114735926Y-66679642D01*
X114693102Y-66674500D01*
X114074096Y-66674500D01*
X114007057Y-66654815D01*
X113961302Y-66602011D01*
X113951358Y-66532853D01*
X113980383Y-66469297D01*
X113986415Y-66462819D01*
X115021041Y-65428193D01*
X116058506Y-64390728D01*
X116058511Y-64390724D01*
X116068714Y-64380520D01*
X116068716Y-64380520D01*
X116180520Y-64268716D01*
X116240215Y-64165320D01*
X116259577Y-64131785D01*
X116300500Y-63979057D01*
X116300500Y-63820943D01*
X116300500Y-63372721D01*
X116320185Y-63305682D01*
X116372989Y-63259927D01*
X116377035Y-63258165D01*
X116401547Y-63248013D01*
X116549035Y-63149464D01*
X116674464Y-63024035D01*
X116773013Y-62876547D01*
X116840894Y-62712666D01*
X116847843Y-62677735D01*
X116875499Y-62538695D01*
X116875500Y-62538693D01*
X116875500Y-62361306D01*
X116875499Y-62361304D01*
X116840896Y-62187341D01*
X116840893Y-62187332D01*
X116773016Y-62023459D01*
X116773009Y-62023446D01*
X116674464Y-61875965D01*
X116674461Y-61875961D01*
X116549038Y-61750538D01*
X116549034Y-61750535D01*
X116401553Y-61651990D01*
X116401540Y-61651983D01*
X116237667Y-61584106D01*
X116237658Y-61584103D01*
X116063694Y-61549500D01*
X116063691Y-61549500D01*
X115336309Y-61549500D01*
X115336306Y-61549500D01*
X115162341Y-61584103D01*
X115162332Y-61584106D01*
X114998459Y-61651983D01*
X114998446Y-61651990D01*
X114850965Y-61750535D01*
X114850961Y-61750538D01*
X114725538Y-61875961D01*
X114725535Y-61875965D01*
X114626990Y-62023446D01*
X114626983Y-62023459D01*
X114559106Y-62187332D01*
X114559103Y-62187341D01*
X114524500Y-62361304D01*
X114524500Y-62538695D01*
X114559103Y-62712658D01*
X114559106Y-62712667D01*
X114626983Y-62876540D01*
X114626990Y-62876553D01*
X114725535Y-63024034D01*
X114725538Y-63024038D01*
X114850961Y-63149461D01*
X114850965Y-63149464D01*
X114998449Y-63248011D01*
X114998453Y-63248013D01*
X115022949Y-63258159D01*
X115077354Y-63301998D01*
X115099421Y-63368292D01*
X115099500Y-63372721D01*
X115099500Y-63599902D01*
X115079815Y-63666941D01*
X115063181Y-63687583D01*
X111519481Y-67231282D01*
X111519475Y-67231290D01*
X111472686Y-67312333D01*
X111472686Y-67312334D01*
X111440423Y-67368215D01*
X111399499Y-67520943D01*
X111399499Y-67520945D01*
X111399499Y-67689046D01*
X111399500Y-67689059D01*
X111399500Y-70175500D01*
X111379815Y-70242539D01*
X111327011Y-70288294D01*
X111275500Y-70299500D01*
X95295098Y-70299500D01*
X95228059Y-70279815D01*
X95207417Y-70263181D01*
X91945197Y-67000961D01*
X88549978Y-63605743D01*
X99126900Y-63605743D01*
X99126900Y-63763857D01*
X99148719Y-63845284D01*
X99167823Y-63916583D01*
X99167826Y-63916590D01*
X99246875Y-64053509D01*
X99246879Y-64053514D01*
X99246880Y-64053516D01*
X99358684Y-64165320D01*
X99358686Y-64165321D01*
X99358690Y-64165324D01*
X99442999Y-64213999D01*
X99495616Y-64244377D01*
X99648343Y-64285300D01*
X99648345Y-64285300D01*
X99806455Y-64285300D01*
X99806457Y-64285300D01*
X99959184Y-64244377D01*
X100096116Y-64165320D01*
X100207920Y-64053516D01*
X100286977Y-63916584D01*
X100327900Y-63763857D01*
X100327900Y-63605743D01*
X100286977Y-63453016D01*
X100269532Y-63422800D01*
X100207924Y-63316090D01*
X100207918Y-63316082D01*
X100096117Y-63204281D01*
X100096109Y-63204275D01*
X99959190Y-63125226D01*
X99959186Y-63125224D01*
X99959184Y-63125223D01*
X99806457Y-63084300D01*
X99648343Y-63084300D01*
X99495616Y-63125223D01*
X99495609Y-63125226D01*
X99358690Y-63204275D01*
X99358682Y-63204281D01*
X99246881Y-63316082D01*
X99246875Y-63316090D01*
X99167826Y-63453009D01*
X99167823Y-63453016D01*
X99126900Y-63605743D01*
X88549978Y-63605743D01*
X87982589Y-63038354D01*
X87982588Y-63038352D01*
X87863717Y-62919481D01*
X87863712Y-62919477D01*
X87744216Y-62850487D01*
X87744215Y-62850486D01*
X87736848Y-62846232D01*
X87726785Y-62840423D01*
X87574057Y-62799499D01*
X87415943Y-62799499D01*
X87263215Y-62840423D01*
X87245780Y-62850489D01*
X87126287Y-62919477D01*
X87126282Y-62919481D01*
X87014481Y-63031282D01*
X87014477Y-63031287D01*
X86975435Y-63098912D01*
X86975435Y-63098913D01*
X86935423Y-63168214D01*
X86935423Y-63168215D01*
X86894499Y-63320943D01*
X86894499Y-63320945D01*
X86894499Y-63479054D01*
X86894498Y-63479054D01*
X72148159Y-63479054D01*
X72122077Y-63381716D01*
X72108896Y-63358886D01*
X72043022Y-63244787D01*
X72043018Y-63244782D01*
X71931217Y-63132981D01*
X71931209Y-63132975D01*
X71794290Y-63053926D01*
X71794286Y-63053924D01*
X71794284Y-63053923D01*
X71641557Y-63013000D01*
X71483443Y-63013000D01*
X71352661Y-63048043D01*
X71344144Y-63050325D01*
X71274294Y-63048662D01*
X71216432Y-63009499D01*
X71188928Y-62945271D01*
X71191484Y-62909550D01*
X71190439Y-62909413D01*
X71191500Y-62901355D01*
X71191500Y-62743245D01*
X71191500Y-62743243D01*
X71150577Y-62590516D01*
X71125292Y-62546720D01*
X71071524Y-62453590D01*
X71071521Y-62453586D01*
X71071520Y-62453584D01*
X71045444Y-62427508D01*
X71011960Y-62366184D01*
X71016946Y-62296493D01*
X71045446Y-62252147D01*
X71361650Y-61935943D01*
X76449500Y-61935943D01*
X76449500Y-62094057D01*
X76480422Y-62209457D01*
X76490423Y-62246783D01*
X76490426Y-62246790D01*
X76569475Y-62383709D01*
X76569479Y-62383714D01*
X76569480Y-62383716D01*
X76681284Y-62495520D01*
X76681286Y-62495521D01*
X76681290Y-62495524D01*
X76818209Y-62574573D01*
X76818216Y-62574577D01*
X76970943Y-62615500D01*
X76970945Y-62615500D01*
X77129055Y-62615500D01*
X77129057Y-62615500D01*
X77281784Y-62574577D01*
X77418716Y-62495520D01*
X77530520Y-62383716D01*
X77609577Y-62246784D01*
X77650500Y-62094057D01*
X77650500Y-61935943D01*
X77609577Y-61783216D01*
X77597146Y-61761684D01*
X77530524Y-61646290D01*
X77530518Y-61646282D01*
X77418717Y-61534481D01*
X77418709Y-61534475D01*
X77281790Y-61455426D01*
X77281786Y-61455424D01*
X77281784Y-61455423D01*
X77129057Y-61414500D01*
X76970943Y-61414500D01*
X76818216Y-61455423D01*
X76818209Y-61455426D01*
X76681290Y-61534475D01*
X76681282Y-61534481D01*
X76569481Y-61646282D01*
X76569475Y-61646290D01*
X76490426Y-61783209D01*
X76490423Y-61783216D01*
X76449500Y-61935943D01*
X71361650Y-61935943D01*
X73020150Y-60277443D01*
X74894500Y-60277443D01*
X74894500Y-60435557D01*
X74935423Y-60588282D01*
X74935423Y-60588283D01*
X74935426Y-60588290D01*
X75014475Y-60725209D01*
X75014479Y-60725214D01*
X75014480Y-60725216D01*
X75126284Y-60837020D01*
X75126286Y-60837021D01*
X75126290Y-60837024D01*
X75208706Y-60884606D01*
X75263216Y-60916077D01*
X75415943Y-60957000D01*
X75415945Y-60957000D01*
X75574055Y-60957000D01*
X75574057Y-60957000D01*
X75726784Y-60916077D01*
X75863716Y-60837020D01*
X75975520Y-60725216D01*
X76054577Y-60588284D01*
X76095500Y-60435557D01*
X76095500Y-60277443D01*
X76054577Y-60124716D01*
X76020495Y-60065683D01*
X75975524Y-59987790D01*
X75975518Y-59987782D01*
X75863717Y-59875981D01*
X75863709Y-59875975D01*
X75726790Y-59796926D01*
X75726786Y-59796924D01*
X75726784Y-59796923D01*
X75574057Y-59756000D01*
X75415943Y-59756000D01*
X75263216Y-59796923D01*
X75263209Y-59796926D01*
X75126290Y-59875975D01*
X75126282Y-59875981D01*
X75014481Y-59987782D01*
X75014475Y-59987790D01*
X74935426Y-60124709D01*
X74935423Y-60124716D01*
X74894500Y-60277443D01*
X73020150Y-60277443D01*
X73684850Y-59612743D01*
X83480000Y-59612743D01*
X83480000Y-59770857D01*
X83520591Y-59922343D01*
X83520923Y-59923583D01*
X83520926Y-59923590D01*
X83599975Y-60060509D01*
X83599979Y-60060514D01*
X83599980Y-60060516D01*
X83711784Y-60172320D01*
X83711786Y-60172321D01*
X83711790Y-60172324D01*
X83764260Y-60202617D01*
X83848716Y-60251377D01*
X84001443Y-60292300D01*
X84001445Y-60292300D01*
X84159555Y-60292300D01*
X84159557Y-60292300D01*
X84312284Y-60251377D01*
X84449216Y-60172320D01*
X84561020Y-60060516D01*
X84569520Y-60045793D01*
X114625000Y-60045793D01*
X114625000Y-60200000D01*
X115419670Y-60200000D01*
X115399925Y-60219745D01*
X115350556Y-60305255D01*
X115325000Y-60400630D01*
X115325000Y-60499370D01*
X115350556Y-60594745D01*
X115399925Y-60680255D01*
X115419670Y-60700000D01*
X114625001Y-60700000D01*
X114625001Y-60854196D01*
X114627851Y-60884606D01*
X114672653Y-61012645D01*
X114753207Y-61121792D01*
X114862354Y-61202346D01*
X114990397Y-61247149D01*
X115020792Y-61249999D01*
X115449999Y-61249999D01*
X115450000Y-61249998D01*
X115450000Y-60730330D01*
X115469745Y-60750075D01*
X115555255Y-60799444D01*
X115650630Y-60825000D01*
X115749370Y-60825000D01*
X115844745Y-60799444D01*
X115930255Y-60750075D01*
X115950000Y-60730330D01*
X115950000Y-61249999D01*
X116379196Y-61249999D01*
X116409606Y-61247148D01*
X116537645Y-61202346D01*
X116646792Y-61121792D01*
X116727346Y-61012645D01*
X116772149Y-60884604D01*
X116772149Y-60884600D01*
X116775000Y-60854206D01*
X116775000Y-60700000D01*
X115980330Y-60700000D01*
X116000075Y-60680255D01*
X116049444Y-60594745D01*
X116075000Y-60499370D01*
X116075000Y-60400630D01*
X116049444Y-60305255D01*
X116000075Y-60219745D01*
X115980330Y-60200000D01*
X116774999Y-60200000D01*
X116774999Y-60045803D01*
X116772148Y-60015393D01*
X116727346Y-59887354D01*
X116646792Y-59778207D01*
X116537645Y-59697653D01*
X116409602Y-59652850D01*
X116379207Y-59650000D01*
X115950000Y-59650000D01*
X115950000Y-60169670D01*
X115930255Y-60149925D01*
X115844745Y-60100556D01*
X115749370Y-60075000D01*
X115650630Y-60075000D01*
X115555255Y-60100556D01*
X115469745Y-60149925D01*
X115450000Y-60169670D01*
X115450000Y-59650000D01*
X115020803Y-59650000D01*
X114990393Y-59652851D01*
X114862354Y-59697653D01*
X114753207Y-59778207D01*
X114672653Y-59887354D01*
X114627850Y-60015395D01*
X114627850Y-60015399D01*
X114625000Y-60045793D01*
X84569520Y-60045793D01*
X84640077Y-59923584D01*
X84681000Y-59770857D01*
X84681000Y-59612743D01*
X84640077Y-59460016D01*
X84640073Y-59460009D01*
X84561024Y-59323090D01*
X84561018Y-59323082D01*
X84449217Y-59211281D01*
X84449209Y-59211275D01*
X84312290Y-59132226D01*
X84312286Y-59132224D01*
X84312284Y-59132223D01*
X84159557Y-59091300D01*
X84001443Y-59091300D01*
X83848716Y-59132223D01*
X83848709Y-59132226D01*
X83711790Y-59211275D01*
X83711782Y-59211281D01*
X83599981Y-59323082D01*
X83599975Y-59323090D01*
X83520926Y-59460009D01*
X83520923Y-59460016D01*
X83480000Y-59612743D01*
X73684850Y-59612743D01*
X74976650Y-58320943D01*
X88555300Y-58320943D01*
X88555300Y-58479057D01*
X88584177Y-58586825D01*
X88596223Y-58631783D01*
X88596226Y-58631790D01*
X88675275Y-58768709D01*
X88675279Y-58768714D01*
X88675280Y-58768716D01*
X88787084Y-58880520D01*
X88787086Y-58880521D01*
X88787090Y-58880524D01*
X88875014Y-58931286D01*
X88924016Y-58959577D01*
X89076743Y-59000500D01*
X89076745Y-59000500D01*
X89234855Y-59000500D01*
X89234857Y-59000500D01*
X89387584Y-58959577D01*
X89524516Y-58880520D01*
X89636320Y-58768716D01*
X89715377Y-58631784D01*
X89756300Y-58479057D01*
X89756300Y-58320943D01*
X89715377Y-58168216D01*
X89715373Y-58168209D01*
X89636324Y-58031290D01*
X89636318Y-58031282D01*
X89524517Y-57919481D01*
X89524509Y-57919475D01*
X89387590Y-57840426D01*
X89387586Y-57840424D01*
X89387584Y-57840423D01*
X89234857Y-57799500D01*
X89076743Y-57799500D01*
X88924016Y-57840423D01*
X88924009Y-57840426D01*
X88787090Y-57919475D01*
X88787082Y-57919481D01*
X88675281Y-58031282D01*
X88675275Y-58031290D01*
X88596226Y-58168209D01*
X88596223Y-58168216D01*
X88555300Y-58320943D01*
X74976650Y-58320943D01*
X76015650Y-57281943D01*
X78245200Y-57281943D01*
X78245200Y-57440056D01*
X78286123Y-57592783D01*
X78286126Y-57592790D01*
X78365175Y-57729709D01*
X78365179Y-57729714D01*
X78365180Y-57729716D01*
X78476984Y-57841520D01*
X78476986Y-57841521D01*
X78476990Y-57841524D01*
X78554215Y-57886109D01*
X78613916Y-57920577D01*
X78766643Y-57961500D01*
X78766645Y-57961500D01*
X78924755Y-57961500D01*
X78924757Y-57961500D01*
X79077484Y-57920577D01*
X79214416Y-57841520D01*
X79326220Y-57729716D01*
X79405277Y-57592784D01*
X79446200Y-57440057D01*
X79446200Y-57438343D01*
X81297700Y-57438343D01*
X81297700Y-57596456D01*
X81338623Y-57749183D01*
X81338626Y-57749190D01*
X81417675Y-57886109D01*
X81417679Y-57886114D01*
X81417680Y-57886116D01*
X81529484Y-57997920D01*
X81529486Y-57997921D01*
X81529490Y-57997924D01*
X81587283Y-58031290D01*
X81666416Y-58076977D01*
X81819143Y-58117900D01*
X81819145Y-58117900D01*
X81977255Y-58117900D01*
X81977257Y-58117900D01*
X82129984Y-58076977D01*
X82266916Y-57997920D01*
X82378720Y-57886116D01*
X82457777Y-57749184D01*
X82498700Y-57596457D01*
X82498700Y-57438343D01*
X82457777Y-57285616D01*
X82455656Y-57281943D01*
X82378724Y-57148690D01*
X82378718Y-57148682D01*
X82266917Y-57036881D01*
X82266909Y-57036875D01*
X82129990Y-56957826D01*
X82129986Y-56957824D01*
X82129984Y-56957823D01*
X81977257Y-56916900D01*
X81819143Y-56916900D01*
X81666416Y-56957823D01*
X81666409Y-56957826D01*
X81529490Y-57036875D01*
X81529482Y-57036881D01*
X81417681Y-57148682D01*
X81417675Y-57148690D01*
X81338626Y-57285609D01*
X81338623Y-57285616D01*
X81297700Y-57438343D01*
X79446200Y-57438343D01*
X79446200Y-57281943D01*
X79405277Y-57129216D01*
X79405273Y-57129209D01*
X79326224Y-56992290D01*
X79326218Y-56992282D01*
X79214417Y-56880481D01*
X79214409Y-56880475D01*
X79077490Y-56801426D01*
X79077486Y-56801424D01*
X79077484Y-56801423D01*
X78924757Y-56760500D01*
X78766643Y-56760500D01*
X78613916Y-56801423D01*
X78613909Y-56801426D01*
X78476990Y-56880475D01*
X78476982Y-56880481D01*
X78365181Y-56992282D01*
X78365175Y-56992290D01*
X78286126Y-57129209D01*
X78286123Y-57129216D01*
X78245200Y-57281943D01*
X76015650Y-57281943D01*
X77487974Y-55809619D01*
X77549297Y-55776134D01*
X77575655Y-55773300D01*
X77637455Y-55773300D01*
X77637457Y-55773300D01*
X77790184Y-55732377D01*
X77797864Y-55727943D01*
X88800300Y-55727943D01*
X88800300Y-55886057D01*
X88839871Y-56033736D01*
X88841223Y-56038783D01*
X88841226Y-56038790D01*
X88920275Y-56175709D01*
X88920279Y-56175714D01*
X88920280Y-56175716D01*
X89032084Y-56287520D01*
X89032086Y-56287521D01*
X89032090Y-56287524D01*
X89106549Y-56330512D01*
X89169016Y-56366577D01*
X89321743Y-56407500D01*
X89321745Y-56407500D01*
X89479855Y-56407500D01*
X89479857Y-56407500D01*
X89632584Y-56366577D01*
X89769516Y-56287520D01*
X89881320Y-56175716D01*
X89960377Y-56038784D01*
X90001300Y-55886057D01*
X90001300Y-55727943D01*
X89960377Y-55575216D01*
X89940921Y-55541517D01*
X89881324Y-55438290D01*
X89881318Y-55438282D01*
X89769517Y-55326481D01*
X89769509Y-55326475D01*
X89632590Y-55247426D01*
X89632586Y-55247424D01*
X89632584Y-55247423D01*
X89479857Y-55206500D01*
X89321743Y-55206500D01*
X89169016Y-55247423D01*
X89169009Y-55247426D01*
X89032090Y-55326475D01*
X89032082Y-55326481D01*
X88920281Y-55438282D01*
X88920275Y-55438290D01*
X88841226Y-55575209D01*
X88841223Y-55575216D01*
X88800300Y-55727943D01*
X77797864Y-55727943D01*
X77927116Y-55653320D01*
X78038920Y-55541516D01*
X78117977Y-55404584D01*
X78158900Y-55251857D01*
X78158900Y-55093743D01*
X78117977Y-54941016D01*
X78087913Y-54888943D01*
X78038924Y-54804090D01*
X78038918Y-54804082D01*
X77927117Y-54692281D01*
X77927109Y-54692275D01*
X77790190Y-54613226D01*
X77790186Y-54613224D01*
X77790184Y-54613223D01*
X77637457Y-54572300D01*
X77479343Y-54572300D01*
X77326616Y-54613223D01*
X77326609Y-54613226D01*
X77189690Y-54692275D01*
X77189682Y-54692281D01*
X77077881Y-54804082D01*
X77077875Y-54804090D01*
X76998826Y-54941009D01*
X76998823Y-54941016D01*
X76957900Y-55093743D01*
X76957900Y-55155544D01*
X76938215Y-55222583D01*
X76921581Y-55243225D01*
X70736419Y-61428386D01*
X70675096Y-61461871D01*
X70605404Y-61456887D01*
X70586744Y-61448095D01*
X70577791Y-61442926D01*
X70577786Y-61442924D01*
X70577784Y-61442923D01*
X70425057Y-61402000D01*
X70304900Y-61402000D01*
X70237861Y-61382315D01*
X70192106Y-61329511D01*
X70180900Y-61278000D01*
X70180900Y-60751355D01*
X70200585Y-60684316D01*
X70217219Y-60663674D01*
X70410174Y-60470719D01*
X70471497Y-60437234D01*
X70497855Y-60434400D01*
X70559655Y-60434400D01*
X70559657Y-60434400D01*
X70712384Y-60393477D01*
X70849316Y-60314420D01*
X70961120Y-60202616D01*
X71040177Y-60065684D01*
X71081100Y-59912957D01*
X71081100Y-59754843D01*
X71040177Y-59602116D01*
X71016430Y-59560984D01*
X70961124Y-59465190D01*
X70961118Y-59465182D01*
X70917419Y-59421483D01*
X70883934Y-59360160D01*
X70881100Y-59333802D01*
X70881100Y-57156498D01*
X70900785Y-57089459D01*
X70917419Y-57068817D01*
X70949361Y-57036875D01*
X71032520Y-56953716D01*
X71111577Y-56816784D01*
X71152500Y-56664057D01*
X71152500Y-56505943D01*
X71152500Y-56405097D01*
X71172185Y-56338058D01*
X71188819Y-56317416D01*
X73769892Y-53736343D01*
X82534900Y-53736343D01*
X82534900Y-53894457D01*
X82541658Y-53919676D01*
X82575823Y-54047183D01*
X82575826Y-54047190D01*
X82654875Y-54184109D01*
X82654879Y-54184114D01*
X82654880Y-54184116D01*
X82766684Y-54295920D01*
X82766686Y-54295921D01*
X82766690Y-54295924D01*
X82828482Y-54331599D01*
X82903616Y-54374977D01*
X83056343Y-54415900D01*
X83056345Y-54415900D01*
X83214455Y-54415900D01*
X83214457Y-54415900D01*
X83367184Y-54374977D01*
X83504116Y-54295920D01*
X83615920Y-54184116D01*
X83694977Y-54047184D01*
X83735900Y-53894457D01*
X83735900Y-53736343D01*
X83694977Y-53583616D01*
X83646303Y-53499309D01*
X83615924Y-53446690D01*
X83615918Y-53446682D01*
X83504117Y-53334881D01*
X83504109Y-53334875D01*
X83367190Y-53255826D01*
X83367186Y-53255824D01*
X83367184Y-53255823D01*
X83214457Y-53214900D01*
X83056343Y-53214900D01*
X82903616Y-53255823D01*
X82903609Y-53255826D01*
X82766690Y-53334875D01*
X82766682Y-53334881D01*
X82654881Y-53446682D01*
X82654875Y-53446690D01*
X82575826Y-53583609D01*
X82575823Y-53583616D01*
X82534900Y-53736343D01*
X73769892Y-53736343D01*
X73865700Y-53640535D01*
X76166326Y-51339909D01*
X78602820Y-48903414D01*
X78664141Y-48869931D01*
X78733833Y-48874915D01*
X78778180Y-48903416D01*
X78781479Y-48906715D01*
X78781480Y-48906716D01*
X78893284Y-49018520D01*
X78893286Y-49018521D01*
X78893290Y-49018524D01*
X79030209Y-49097573D01*
X79030216Y-49097577D01*
X79182943Y-49138500D01*
X79182945Y-49138500D01*
X79341055Y-49138500D01*
X79341057Y-49138500D01*
X79493784Y-49097577D01*
X79630716Y-49018520D01*
X79742520Y-48906716D01*
X79788929Y-48826331D01*
X79839493Y-48778118D01*
X79908100Y-48764894D01*
X79928401Y-48768556D01*
X80020373Y-48793200D01*
X81939302Y-48793200D01*
X82006341Y-48812885D01*
X82026983Y-48829519D01*
X82070684Y-48873220D01*
X82070686Y-48873221D01*
X82070690Y-48873224D01*
X82128701Y-48906716D01*
X82207616Y-48952277D01*
X82360343Y-48993200D01*
X82360345Y-48993200D01*
X82518455Y-48993200D01*
X82518457Y-48993200D01*
X82671184Y-48952277D01*
X82808116Y-48873220D01*
X82919920Y-48761416D01*
X82998977Y-48624484D01*
X83031971Y-48501348D01*
X83068335Y-48441689D01*
X83131182Y-48411160D01*
X83200557Y-48419455D01*
X83239426Y-48445762D01*
X83258984Y-48465320D01*
X83258986Y-48465321D01*
X83258990Y-48465324D01*
X83395909Y-48544373D01*
X83395916Y-48544377D01*
X83548643Y-48585300D01*
X83706757Y-48585300D01*
X91798831Y-48585300D01*
X91798847Y-48585301D01*
X91806443Y-48585301D01*
X91964554Y-48585301D01*
X91964557Y-48585301D01*
X92117285Y-48544377D01*
X92168515Y-48514799D01*
X92254216Y-48465320D01*
X92366020Y-48353516D01*
X92366020Y-48353514D01*
X92376224Y-48343311D01*
X92376227Y-48343306D01*
X92668590Y-48050943D01*
X96865100Y-48050943D01*
X96865100Y-48209056D01*
X96906023Y-48361783D01*
X96906026Y-48361790D01*
X96985075Y-48498709D01*
X96985079Y-48498714D01*
X96985080Y-48498716D01*
X97096884Y-48610520D01*
X97096886Y-48610521D01*
X97096890Y-48610524D01*
X97134608Y-48632300D01*
X97233816Y-48689577D01*
X97386543Y-48730500D01*
X97386545Y-48730500D01*
X97544655Y-48730500D01*
X97544657Y-48730500D01*
X97697384Y-48689577D01*
X97834316Y-48610520D01*
X97946120Y-48498716D01*
X98025177Y-48361784D01*
X98066100Y-48209057D01*
X98066100Y-48050943D01*
X98025177Y-47898216D01*
X98013128Y-47877346D01*
X97946124Y-47761290D01*
X97946118Y-47761282D01*
X97834317Y-47649481D01*
X97834309Y-47649475D01*
X97697390Y-47570426D01*
X97697386Y-47570424D01*
X97697384Y-47570423D01*
X97544657Y-47529500D01*
X97386543Y-47529500D01*
X97233816Y-47570423D01*
X97233809Y-47570426D01*
X97096890Y-47649475D01*
X97096882Y-47649481D01*
X96985081Y-47761282D01*
X96985075Y-47761290D01*
X96906026Y-47898209D01*
X96906023Y-47898216D01*
X96865100Y-48050943D01*
X92668590Y-48050943D01*
X94760820Y-45958716D01*
X94839877Y-45821784D01*
X94880801Y-45669057D01*
X94880801Y-45510942D01*
X94839877Y-45358215D01*
X94760820Y-45221284D01*
X94649016Y-45109480D01*
X94512085Y-45030423D01*
X94359358Y-44989499D01*
X94201243Y-44989499D01*
X94124879Y-45009961D01*
X94048514Y-45030423D01*
X94048509Y-45030426D01*
X93911590Y-45109475D01*
X93911582Y-45109481D01*
X91673084Y-47347981D01*
X91611761Y-47381466D01*
X91585403Y-47384300D01*
X83548643Y-47384300D01*
X83395916Y-47425223D01*
X83395909Y-47425226D01*
X83258990Y-47504275D01*
X83258982Y-47504281D01*
X83147181Y-47616082D01*
X83147177Y-47616087D01*
X83093887Y-47708390D01*
X83043320Y-47756605D01*
X82974713Y-47769829D01*
X82909848Y-47743861D01*
X82869320Y-47686947D01*
X82862500Y-47646390D01*
X82862500Y-47500945D01*
X82862500Y-47500943D01*
X82821577Y-47348216D01*
X82750439Y-47225000D01*
X82742524Y-47211290D01*
X82742518Y-47211282D01*
X82630717Y-47099481D01*
X82630709Y-47099475D01*
X82493790Y-47020426D01*
X82493786Y-47020424D01*
X82493784Y-47020423D01*
X82341057Y-46979500D01*
X82182943Y-46979500D01*
X82030216Y-47020423D01*
X82030209Y-47020426D01*
X81893290Y-47099475D01*
X81893282Y-47099481D01*
X81781481Y-47211282D01*
X81781475Y-47211290D01*
X81702426Y-47348209D01*
X81702423Y-47348216D01*
X81661500Y-47500943D01*
X81661500Y-47659056D01*
X81702423Y-47811783D01*
X81705534Y-47819294D01*
X81702664Y-47820482D01*
X81715671Y-47874103D01*
X81692818Y-47940129D01*
X81637895Y-47983319D01*
X81591812Y-47992200D01*
X80290355Y-47992200D01*
X80223316Y-47972515D01*
X80202674Y-47955881D01*
X79874215Y-47627422D01*
X79874213Y-47627420D01*
X79828550Y-47601056D01*
X79782889Y-47574693D01*
X79726559Y-47559600D01*
X79681027Y-47547400D01*
X79681026Y-47547400D01*
X78847365Y-47547400D01*
X78799914Y-47537962D01*
X78793786Y-47535423D01*
X78742876Y-47521781D01*
X78641058Y-47494499D01*
X78482943Y-47494499D01*
X78406579Y-47514961D01*
X78330214Y-47535423D01*
X78330209Y-47535426D01*
X78193290Y-47614475D01*
X78193282Y-47614481D01*
X71171431Y-54636333D01*
X71110108Y-54669818D01*
X71040416Y-54664834D01*
X70996069Y-54636333D01*
X70885817Y-54526081D01*
X70885809Y-54526075D01*
X70748890Y-54447026D01*
X70748886Y-54447024D01*
X70748884Y-54447023D01*
X70596157Y-54406100D01*
X70438043Y-54406100D01*
X70285316Y-54447023D01*
X70285309Y-54447026D01*
X70148390Y-54526075D01*
X70148382Y-54526081D01*
X70036581Y-54637882D01*
X70036575Y-54637890D01*
X69957526Y-54774809D01*
X69957522Y-54774818D01*
X69935540Y-54856852D01*
X69903447Y-54912437D01*
X68692686Y-56123200D01*
X68599502Y-56216383D01*
X68599500Y-56216386D01*
X68533608Y-56330512D01*
X68499500Y-56457808D01*
X68499500Y-58752444D01*
X68479815Y-58819483D01*
X68427011Y-58865238D01*
X68357853Y-58875182D01*
X68314739Y-58857071D01*
X68313255Y-58859643D01*
X68169290Y-58776526D01*
X68169286Y-58776524D01*
X68169284Y-58776523D01*
X68016557Y-58735600D01*
X67858443Y-58735600D01*
X67705716Y-58776523D01*
X67705709Y-58776526D01*
X67568790Y-58855575D01*
X67568782Y-58855581D01*
X67456981Y-58967382D01*
X67456975Y-58967390D01*
X67377926Y-59104309D01*
X67377923Y-59104316D01*
X67337000Y-59257043D01*
X62600950Y-59257043D01*
X62696758Y-59161235D01*
X62857494Y-59000499D01*
X63077980Y-58780013D01*
X63130707Y-58688688D01*
X63158000Y-58586827D01*
X63158000Y-58481373D01*
X63158000Y-56085098D01*
X63177685Y-56018059D01*
X63194319Y-55997417D01*
X63211014Y-55980722D01*
X63238020Y-55953716D01*
X63317077Y-55816784D01*
X63358000Y-55664057D01*
X63358000Y-55505943D01*
X63317077Y-55353216D01*
X63317073Y-55353209D01*
X63238024Y-55216290D01*
X63238018Y-55216282D01*
X63126217Y-55104481D01*
X63126209Y-55104475D01*
X62989290Y-55025426D01*
X62989286Y-55025424D01*
X62989284Y-55025423D01*
X62836557Y-54984500D01*
X62678443Y-54984500D01*
X62525716Y-55025423D01*
X62525709Y-55025426D01*
X62388790Y-55104475D01*
X62388782Y-55104481D01*
X62276981Y-55216282D01*
X62276975Y-55216290D01*
X62197926Y-55353209D01*
X62197923Y-55353216D01*
X62157000Y-55505943D01*
X62157000Y-55664057D01*
X62186272Y-55773299D01*
X62197923Y-55816783D01*
X62197926Y-55816790D01*
X62276975Y-55953709D01*
X62276981Y-55953717D01*
X62320681Y-55997417D01*
X62354166Y-56058740D01*
X62357000Y-56085098D01*
X62357000Y-58316845D01*
X62337315Y-58383884D01*
X62320681Y-58404526D01*
X59231626Y-61493581D01*
X59170303Y-61527066D01*
X59143945Y-61529900D01*
X59082143Y-61529900D01*
X58929416Y-61570823D01*
X58929409Y-61570826D01*
X58792490Y-61649875D01*
X58792482Y-61649881D01*
X58680681Y-61761682D01*
X58680675Y-61761690D01*
X58601626Y-61898609D01*
X58601623Y-61898616D01*
X58560700Y-62051343D01*
X58560700Y-62209457D01*
X58594790Y-62336680D01*
X58601623Y-62362183D01*
X58601626Y-62362190D01*
X58680675Y-62499109D01*
X58680681Y-62499117D01*
X58728283Y-62546720D01*
X58761767Y-62608043D01*
X58756782Y-62677735D01*
X58728283Y-62722080D01*
X58691981Y-62758382D01*
X58691975Y-62758390D01*
X58612926Y-62895309D01*
X58612923Y-62895316D01*
X58572000Y-63048043D01*
X58572000Y-63206157D01*
X58602758Y-63320945D01*
X58612923Y-63358883D01*
X58612924Y-63358886D01*
X58672651Y-63462337D01*
X58689124Y-63530238D01*
X58666271Y-63596264D01*
X58652945Y-63612018D01*
X58633130Y-63631833D01*
X58571807Y-63665318D01*
X58502115Y-63660334D01*
X58457768Y-63631833D01*
X54676578Y-59850643D01*
X56701700Y-59850643D01*
X56701700Y-60008757D01*
X56735356Y-60134361D01*
X56742623Y-60161483D01*
X56742626Y-60161490D01*
X56821675Y-60298409D01*
X56821679Y-60298414D01*
X56821680Y-60298416D01*
X56933484Y-60410220D01*
X56933486Y-60410221D01*
X56933490Y-60410224D01*
X57038272Y-60470719D01*
X57070416Y-60489277D01*
X57223143Y-60530200D01*
X57223145Y-60530200D01*
X57381255Y-60530200D01*
X57381257Y-60530200D01*
X57533984Y-60489277D01*
X57670916Y-60410220D01*
X57782720Y-60298416D01*
X57861777Y-60161484D01*
X57902700Y-60008757D01*
X57902700Y-59850643D01*
X57861777Y-59697916D01*
X57835759Y-59652851D01*
X57782724Y-59560990D01*
X57782718Y-59560982D01*
X57670917Y-59449181D01*
X57670909Y-59449175D01*
X57533990Y-59370126D01*
X57533986Y-59370124D01*
X57533984Y-59370123D01*
X57381257Y-59329200D01*
X57223143Y-59329200D01*
X57070416Y-59370123D01*
X57070409Y-59370126D01*
X56933490Y-59449175D01*
X56933482Y-59449181D01*
X56821681Y-59560982D01*
X56821675Y-59560990D01*
X56742626Y-59697909D01*
X56742623Y-59697916D01*
X56701700Y-59850643D01*
X54676578Y-59850643D01*
X53764290Y-58938355D01*
X53764288Y-58938352D01*
X53645417Y-58819481D01*
X53645409Y-58819475D01*
X53543241Y-58760489D01*
X53543238Y-58760488D01*
X53508487Y-58740424D01*
X53508486Y-58740423D01*
X53508485Y-58740423D01*
X53355757Y-58699499D01*
X53197643Y-58699499D01*
X53190047Y-58699499D01*
X53190031Y-58699500D01*
X53137514Y-58699500D01*
X53070475Y-58679815D01*
X53038710Y-58650425D01*
X52967922Y-58557077D01*
X52847343Y-58465639D01*
X52706561Y-58410122D01*
X52660926Y-58404642D01*
X52618102Y-58399500D01*
X51281898Y-58399500D01*
X51242853Y-58404188D01*
X51193438Y-58410122D01*
X51052656Y-58465639D01*
X50932077Y-58557077D01*
X50840639Y-58677656D01*
X50785122Y-58818438D01*
X50780662Y-58855581D01*
X50774500Y-58906898D01*
X50774500Y-59693102D01*
X50775906Y-59704809D01*
X50785122Y-59781561D01*
X50840639Y-59922343D01*
X50932077Y-60042922D01*
X51052656Y-60134360D01*
X51052657Y-60134360D01*
X51052658Y-60134361D01*
X51193436Y-60189877D01*
X51281898Y-60200500D01*
X51281903Y-60200500D01*
X51352920Y-60200500D01*
X51419959Y-60220185D01*
X51465714Y-60272989D01*
X51475658Y-60342147D01*
X51446633Y-60405703D01*
X51400372Y-60439060D01*
X51384134Y-60445786D01*
X51248458Y-60501983D01*
X51248446Y-60501990D01*
X51100965Y-60600535D01*
X51100961Y-60600538D01*
X50975538Y-60725961D01*
X50975535Y-60725965D01*
X50876990Y-60873446D01*
X50876983Y-60873459D01*
X50809106Y-61037332D01*
X50809103Y-61037341D01*
X50774500Y-61211304D01*
X50774500Y-61388695D01*
X50809103Y-61562658D01*
X50809106Y-61562667D01*
X50876983Y-61726540D01*
X50876990Y-61726553D01*
X50975535Y-61874034D01*
X50975538Y-61874038D01*
X51100961Y-61999461D01*
X51100965Y-61999464D01*
X51248446Y-62098009D01*
X51248459Y-62098016D01*
X51368301Y-62147655D01*
X51412334Y-62165894D01*
X51412336Y-62165894D01*
X51412341Y-62165896D01*
X51586304Y-62200499D01*
X51586307Y-62200500D01*
X51586309Y-62200500D01*
X52313693Y-62200500D01*
X52313694Y-62200499D01*
X52399291Y-62183473D01*
X52487658Y-62165896D01*
X52487661Y-62165894D01*
X52487666Y-62165894D01*
X52651547Y-62098013D01*
X52799035Y-61999464D01*
X52924464Y-61874035D01*
X53023013Y-61726547D01*
X53090894Y-61562666D01*
X53096501Y-61534481D01*
X53125499Y-61388695D01*
X53125500Y-61388693D01*
X53125500Y-61211306D01*
X53125499Y-61211304D01*
X53090896Y-61037341D01*
X53090893Y-61037332D01*
X53023016Y-60873459D01*
X53023009Y-60873446D01*
X52924464Y-60725965D01*
X52924461Y-60725961D01*
X52799038Y-60600538D01*
X52799034Y-60600535D01*
X52651553Y-60501990D01*
X52651541Y-60501983D01*
X52519718Y-60447382D01*
X52499627Y-60439060D01*
X52445224Y-60395221D01*
X52423159Y-60328927D01*
X52440438Y-60261227D01*
X52491575Y-60213617D01*
X52547080Y-60200500D01*
X52618097Y-60200500D01*
X52618102Y-60200500D01*
X52706564Y-60189877D01*
X52847342Y-60134361D01*
X52967922Y-60042922D01*
X52969312Y-60041088D01*
X52971007Y-60039836D01*
X52973916Y-60036927D01*
X52974352Y-60037363D01*
X53025500Y-59999566D01*
X53095221Y-59995012D01*
X53155797Y-60028332D01*
X56253733Y-63126268D01*
X56287218Y-63187591D01*
X56282234Y-63257283D01*
X56253734Y-63301630D01*
X56162378Y-63392986D01*
X56162375Y-63392990D01*
X56083326Y-63529909D01*
X56083323Y-63529916D01*
X56042400Y-63682643D01*
X56042400Y-63840757D01*
X56079458Y-63979057D01*
X56083323Y-63993483D01*
X56083326Y-63993490D01*
X56162375Y-64130409D01*
X56162379Y-64130414D01*
X56162380Y-64130416D01*
X56274184Y-64242220D01*
X56274186Y-64242221D01*
X56274190Y-64242224D01*
X56411109Y-64321273D01*
X56411116Y-64321277D01*
X56469050Y-64336800D01*
X56528708Y-64373163D01*
X56559238Y-64436010D01*
X56550944Y-64505386D01*
X56506459Y-64559264D01*
X56493251Y-64567058D01*
X56407004Y-64611004D01*
X56260505Y-64717441D01*
X56260500Y-64717445D01*
X56132445Y-64845500D01*
X56132441Y-64845505D01*
X56026006Y-64992002D01*
X55943788Y-65153360D01*
X55943787Y-65153363D01*
X55887829Y-65325589D01*
X55862473Y-65485678D01*
X55832544Y-65548813D01*
X55773232Y-65585744D01*
X55703369Y-65584746D01*
X55645137Y-65546136D01*
X55617527Y-65485678D01*
X55600981Y-65381215D01*
X55592171Y-65325591D01*
X55536211Y-65153361D01*
X55536211Y-65153360D01*
X55480899Y-65044806D01*
X55453996Y-64992006D01*
X55440396Y-64973287D01*
X55347558Y-64845505D01*
X55347554Y-64845500D01*
X55219499Y-64717445D01*
X55219494Y-64717441D01*
X55072997Y-64611006D01*
X55072996Y-64611005D01*
X55072994Y-64611004D01*
X54996906Y-64572235D01*
X54911639Y-64528788D01*
X54911636Y-64528787D01*
X54739410Y-64472829D01*
X54560551Y-64444500D01*
X54560546Y-64444500D01*
X54379454Y-64444500D01*
X54379449Y-64444500D01*
X54200589Y-64472829D01*
X54028363Y-64528787D01*
X54028360Y-64528788D01*
X53867002Y-64611006D01*
X53720505Y-64717441D01*
X53720500Y-64717445D01*
X53592445Y-64845500D01*
X53592441Y-64845505D01*
X53486006Y-64992002D01*
X53403788Y-65153360D01*
X53403787Y-65153363D01*
X53347829Y-65325589D01*
X53322473Y-65485678D01*
X53292544Y-65548813D01*
X53233232Y-65585744D01*
X53163369Y-65584746D01*
X53105137Y-65546136D01*
X53077527Y-65485678D01*
X53060981Y-65381215D01*
X53052171Y-65325591D01*
X52996211Y-65153361D01*
X52996211Y-65153360D01*
X52940899Y-65044806D01*
X52913996Y-64992006D01*
X52900396Y-64973287D01*
X52807558Y-64845505D01*
X52807554Y-64845500D01*
X52679499Y-64717445D01*
X52679494Y-64717441D01*
X52532997Y-64611006D01*
X52532996Y-64611005D01*
X52532994Y-64611004D01*
X52456906Y-64572235D01*
X52371639Y-64528788D01*
X52371636Y-64528787D01*
X52199410Y-64472829D01*
X52020551Y-64444500D01*
X52020546Y-64444500D01*
X51839454Y-64444500D01*
X51839449Y-64444500D01*
X51660589Y-64472829D01*
X51488363Y-64528787D01*
X51488360Y-64528788D01*
X51327002Y-64611006D01*
X51180505Y-64717441D01*
X51180500Y-64717445D01*
X51052445Y-64845500D01*
X51052441Y-64845505D01*
X50946006Y-64992002D01*
X50863788Y-65153360D01*
X50863787Y-65153363D01*
X50807829Y-65325589D01*
X50782473Y-65485678D01*
X50752544Y-65548813D01*
X50693232Y-65585744D01*
X50623369Y-65584746D01*
X50565137Y-65546136D01*
X50537527Y-65485678D01*
X50520981Y-65381215D01*
X50512171Y-65325591D01*
X50456211Y-65153361D01*
X50456211Y-65153360D01*
X50400899Y-65044806D01*
X50373996Y-64992006D01*
X50360396Y-64973287D01*
X50267558Y-64845505D01*
X50267554Y-64845500D01*
X50139499Y-64717445D01*
X50139494Y-64717441D01*
X49992997Y-64611006D01*
X49992996Y-64611005D01*
X49992994Y-64611004D01*
X49916906Y-64572235D01*
X49831639Y-64528788D01*
X49831636Y-64528787D01*
X49659410Y-64472829D01*
X49480551Y-64444500D01*
X49480546Y-64444500D01*
X49299454Y-64444500D01*
X49299449Y-64444500D01*
X49120589Y-64472829D01*
X48948363Y-64528787D01*
X48948360Y-64528788D01*
X48787002Y-64611006D01*
X48640505Y-64717441D01*
X48640500Y-64717445D01*
X48512445Y-64845500D01*
X48512441Y-64845505D01*
X48406006Y-64992002D01*
X48323788Y-65153360D01*
X48323787Y-65153363D01*
X48267829Y-65325589D01*
X48242473Y-65485678D01*
X48212544Y-65548813D01*
X48153232Y-65585744D01*
X48083369Y-65584746D01*
X48025137Y-65546136D01*
X47997527Y-65485678D01*
X47980981Y-65381215D01*
X47972171Y-65325591D01*
X47916211Y-65153361D01*
X47916211Y-65153360D01*
X47860899Y-65044806D01*
X47833996Y-64992006D01*
X47820396Y-64973287D01*
X47727558Y-64845505D01*
X47727554Y-64845500D01*
X47599499Y-64717445D01*
X47599494Y-64717441D01*
X47452997Y-64611006D01*
X47452996Y-64611005D01*
X47452994Y-64611004D01*
X47376906Y-64572235D01*
X47291639Y-64528788D01*
X47291636Y-64528787D01*
X47119410Y-64472829D01*
X46940551Y-64444500D01*
X46940546Y-64444500D01*
X46759454Y-64444500D01*
X46759449Y-64444500D01*
X46580589Y-64472829D01*
X46408363Y-64528787D01*
X46408360Y-64528788D01*
X46247002Y-64611006D01*
X46100505Y-64717441D01*
X46100500Y-64717445D01*
X45972445Y-64845500D01*
X45972441Y-64845505D01*
X45866006Y-64992002D01*
X45783788Y-65153360D01*
X45783787Y-65153363D01*
X45727829Y-65325589D01*
X45699500Y-65504448D01*
X45699500Y-65685551D01*
X45727829Y-65864410D01*
X45783787Y-66036636D01*
X45783788Y-66036639D01*
X45839664Y-66146300D01*
X45851799Y-66170116D01*
X45866006Y-66197997D01*
X45972441Y-66344494D01*
X45972445Y-66344499D01*
X46100500Y-66472554D01*
X46100505Y-66472558D01*
X46173372Y-66525498D01*
X46247006Y-66578996D01*
X46323094Y-66617765D01*
X46408360Y-66661211D01*
X46408363Y-66661212D01*
X46481953Y-66685122D01*
X46580591Y-66717171D01*
X46663429Y-66730291D01*
X46759449Y-66745500D01*
X46759454Y-66745500D01*
X46940551Y-66745500D01*
X47027259Y-66731765D01*
X47119409Y-66717171D01*
X47291639Y-66661211D01*
X47452994Y-66578996D01*
X47599501Y-66472553D01*
X47727553Y-66344501D01*
X47833996Y-66197994D01*
X47916211Y-66036639D01*
X47972171Y-65864409D01*
X47994672Y-65722343D01*
X47997527Y-65704321D01*
X48027456Y-65641186D01*
X48086768Y-65604255D01*
X48156630Y-65605253D01*
X48214863Y-65643863D01*
X48242473Y-65704321D01*
X48267829Y-65864410D01*
X48323787Y-66036636D01*
X48323788Y-66036639D01*
X48379664Y-66146300D01*
X48391799Y-66170116D01*
X48406006Y-66197997D01*
X48512441Y-66344494D01*
X48512445Y-66344499D01*
X48640500Y-66472554D01*
X48640505Y-66472558D01*
X48713372Y-66525498D01*
X48787006Y-66578996D01*
X48863094Y-66617765D01*
X48948360Y-66661211D01*
X48948363Y-66661212D01*
X49021953Y-66685122D01*
X49120591Y-66717171D01*
X49203429Y-66730291D01*
X49299449Y-66745500D01*
X49299454Y-66745500D01*
X49480551Y-66745500D01*
X49567259Y-66731765D01*
X49659409Y-66717171D01*
X49831639Y-66661211D01*
X49992994Y-66578996D01*
X50139501Y-66472553D01*
X50267553Y-66344501D01*
X50373996Y-66197994D01*
X50456211Y-66036639D01*
X50512171Y-65864409D01*
X50534672Y-65722343D01*
X50537527Y-65704321D01*
X50567456Y-65641186D01*
X50626768Y-65604255D01*
X50696630Y-65605253D01*
X50754863Y-65643863D01*
X50782473Y-65704321D01*
X50807829Y-65864410D01*
X50863787Y-66036636D01*
X50863788Y-66036639D01*
X50919664Y-66146300D01*
X50931799Y-66170116D01*
X50946006Y-66197997D01*
X51052441Y-66344494D01*
X51052445Y-66344499D01*
X51180500Y-66472554D01*
X51180505Y-66472558D01*
X51253372Y-66525498D01*
X51327006Y-66578996D01*
X51403094Y-66617765D01*
X51488360Y-66661211D01*
X51488363Y-66661212D01*
X51561953Y-66685122D01*
X51660591Y-66717171D01*
X51743429Y-66730291D01*
X51839449Y-66745500D01*
X51839454Y-66745500D01*
X52020551Y-66745500D01*
X52107259Y-66731765D01*
X52199409Y-66717171D01*
X52371639Y-66661211D01*
X52532994Y-66578996D01*
X52679501Y-66472553D01*
X52807553Y-66344501D01*
X52913996Y-66197994D01*
X52996211Y-66036639D01*
X53052171Y-65864409D01*
X53074672Y-65722343D01*
X53077527Y-65704321D01*
X53107456Y-65641186D01*
X53166768Y-65604255D01*
X53236630Y-65605253D01*
X53294863Y-65643863D01*
X53322473Y-65704321D01*
X53347829Y-65864410D01*
X53403787Y-66036636D01*
X53403788Y-66036639D01*
X53459664Y-66146300D01*
X53471799Y-66170116D01*
X53486006Y-66197997D01*
X53592441Y-66344494D01*
X53592445Y-66344499D01*
X53720500Y-66472554D01*
X53720505Y-66472558D01*
X53793372Y-66525498D01*
X53867006Y-66578996D01*
X53943094Y-66617765D01*
X54028360Y-66661211D01*
X54028363Y-66661212D01*
X54101953Y-66685122D01*
X54200591Y-66717171D01*
X54283429Y-66730291D01*
X54379449Y-66745500D01*
X54379454Y-66745500D01*
X54560551Y-66745500D01*
X54647259Y-66731765D01*
X54739409Y-66717171D01*
X54911639Y-66661211D01*
X55072994Y-66578996D01*
X55219501Y-66472553D01*
X55347553Y-66344501D01*
X55453996Y-66197994D01*
X55536211Y-66036639D01*
X55592171Y-65864409D01*
X55614672Y-65722343D01*
X55617527Y-65704321D01*
X55647456Y-65641186D01*
X55706768Y-65604255D01*
X55776630Y-65605253D01*
X55834863Y-65643863D01*
X55862473Y-65704321D01*
X55887829Y-65864410D01*
X55943787Y-66036636D01*
X55943788Y-66036639D01*
X55999664Y-66146300D01*
X56011799Y-66170116D01*
X56026006Y-66197997D01*
X56132441Y-66344494D01*
X56132445Y-66344499D01*
X56260500Y-66472554D01*
X56260505Y-66472558D01*
X56333372Y-66525498D01*
X56407006Y-66578996D01*
X56483094Y-66617765D01*
X56568360Y-66661211D01*
X56568363Y-66661212D01*
X56641953Y-66685122D01*
X56740591Y-66717171D01*
X56823429Y-66730291D01*
X56919449Y-66745500D01*
X56919454Y-66745500D01*
X57100551Y-66745500D01*
X57187259Y-66731765D01*
X57279409Y-66717171D01*
X57451639Y-66661211D01*
X57612994Y-66578996D01*
X57759501Y-66472553D01*
X57887553Y-66344501D01*
X57993996Y-66197994D01*
X58076211Y-66036639D01*
X58132171Y-65864409D01*
X58154672Y-65722343D01*
X58160500Y-65685551D01*
X58160500Y-65504449D01*
X58140981Y-65381215D01*
X58132171Y-65325591D01*
X58132169Y-65325586D01*
X58131483Y-65321252D01*
X58140437Y-65251958D01*
X58185433Y-65198506D01*
X58252184Y-65177866D01*
X58319498Y-65196590D01*
X58341637Y-65214172D01*
X62553284Y-69425819D01*
X62586769Y-69487142D01*
X62581785Y-69556834D01*
X62539913Y-69612767D01*
X62474449Y-69637184D01*
X62465603Y-69637500D01*
X59584808Y-69637500D01*
X59517769Y-69617815D01*
X59472014Y-69565011D01*
X59462070Y-69495853D01*
X59491095Y-69432297D01*
X59522807Y-69406113D01*
X59549816Y-69390520D01*
X59661620Y-69278716D01*
X59740677Y-69141784D01*
X59781600Y-68989057D01*
X59781600Y-68830943D01*
X59740677Y-68678216D01*
X59739973Y-68676996D01*
X59661624Y-68541290D01*
X59661618Y-68541282D01*
X59549817Y-68429481D01*
X59549809Y-68429475D01*
X59412890Y-68350426D01*
X59412886Y-68350424D01*
X59412884Y-68350423D01*
X59260157Y-68309500D01*
X59102043Y-68309500D01*
X58949316Y-68350423D01*
X58949309Y-68350426D01*
X58812390Y-68429475D01*
X58812382Y-68429481D01*
X58700581Y-68541282D01*
X58700575Y-68541290D01*
X58621526Y-68678209D01*
X58621523Y-68678216D01*
X58580600Y-68830943D01*
X58580600Y-68989057D01*
X58598148Y-69054545D01*
X58621523Y-69141783D01*
X58621526Y-69141790D01*
X58700575Y-69278709D01*
X58700579Y-69278714D01*
X58700580Y-69278716D01*
X58812384Y-69390520D01*
X58839391Y-69406112D01*
X58887607Y-69456679D01*
X58900831Y-69525286D01*
X58874863Y-69590151D01*
X58817950Y-69630680D01*
X58777392Y-69637500D01*
X43841518Y-69637500D01*
X43774479Y-69617815D01*
X43753837Y-69601181D01*
X42506819Y-68354162D01*
X42473334Y-68292839D01*
X42470500Y-68266481D01*
X42470500Y-66869499D01*
X42490185Y-66802460D01*
X42542989Y-66756705D01*
X42594500Y-66745499D01*
X42664856Y-66745499D01*
X42664864Y-66745499D01*
X42664879Y-66745497D01*
X42664882Y-66745497D01*
X42689987Y-66742586D01*
X42689988Y-66742585D01*
X42689991Y-66742585D01*
X42792765Y-66697206D01*
X42872206Y-66617765D01*
X42917585Y-66514991D01*
X42920500Y-66489865D01*
X42920499Y-65491579D01*
X43260000Y-65491579D01*
X43260000Y-65698420D01*
X43300348Y-65901266D01*
X43300350Y-65901274D01*
X43379500Y-66092359D01*
X43411377Y-66140067D01*
X43411378Y-66140067D01*
X43827037Y-65724408D01*
X43844075Y-65787993D01*
X43909901Y-65902007D01*
X44002993Y-65995099D01*
X44117007Y-66060925D01*
X44180590Y-66077962D01*
X43764931Y-66493620D01*
X43764932Y-66493621D01*
X43812633Y-66525495D01*
X43812639Y-66525498D01*
X44003725Y-66604649D01*
X44003733Y-66604651D01*
X44206579Y-66644999D01*
X44206583Y-66645000D01*
X44413417Y-66645000D01*
X44413420Y-66644999D01*
X44616266Y-66604651D01*
X44616274Y-66604649D01*
X44807366Y-66525495D01*
X44855066Y-66493621D01*
X44855067Y-66493620D01*
X44439409Y-66077962D01*
X44502993Y-66060925D01*
X44617007Y-65995099D01*
X44710099Y-65902007D01*
X44775925Y-65787993D01*
X44792962Y-65724409D01*
X45208620Y-66140067D01*
X45208621Y-66140066D01*
X45240495Y-66092366D01*
X45319649Y-65901274D01*
X45319651Y-65901266D01*
X45359999Y-65698420D01*
X45360000Y-65698417D01*
X45360000Y-65491583D01*
X45359999Y-65491579D01*
X45319651Y-65288733D01*
X45319649Y-65288725D01*
X45240498Y-65097639D01*
X45240495Y-65097633D01*
X45208621Y-65049932D01*
X45208620Y-65049931D01*
X44792962Y-65465590D01*
X44775925Y-65402007D01*
X44710099Y-65287993D01*
X44617007Y-65194901D01*
X44502993Y-65129075D01*
X44439409Y-65112037D01*
X44855067Y-64696378D01*
X44855067Y-64696377D01*
X44807359Y-64664500D01*
X44616274Y-64585350D01*
X44616266Y-64585348D01*
X44413420Y-64545000D01*
X44206579Y-64545000D01*
X44003733Y-64585348D01*
X44003725Y-64585350D01*
X43812641Y-64664500D01*
X43812631Y-64664505D01*
X43764932Y-64696377D01*
X43764932Y-64696378D01*
X44180591Y-65112037D01*
X44117007Y-65129075D01*
X44002993Y-65194901D01*
X43909901Y-65287993D01*
X43844075Y-65402007D01*
X43827037Y-65465591D01*
X43411378Y-65049932D01*
X43411377Y-65049932D01*
X43379505Y-65097631D01*
X43379500Y-65097641D01*
X43300350Y-65288725D01*
X43300348Y-65288733D01*
X43260000Y-65491579D01*
X42920499Y-65491579D01*
X42920499Y-64700136D01*
X42920063Y-64696377D01*
X42917586Y-64675012D01*
X42917585Y-64675010D01*
X42917585Y-64675009D01*
X42872206Y-64572235D01*
X42792765Y-64492794D01*
X42766208Y-64481068D01*
X42689992Y-64447415D01*
X42664865Y-64444500D01*
X40875143Y-64444500D01*
X40875117Y-64444502D01*
X40850012Y-64447413D01*
X40850008Y-64447415D01*
X40747235Y-64492793D01*
X40667794Y-64572234D01*
X40622415Y-64675006D01*
X40622415Y-64675008D01*
X40619500Y-64700131D01*
X40300500Y-64700131D01*
X40300500Y-55845395D01*
X53247799Y-55845395D01*
X53274718Y-55980722D01*
X53274721Y-55980732D01*
X53327521Y-56108204D01*
X53327528Y-56108217D01*
X53404185Y-56222941D01*
X53404188Y-56222945D01*
X53501754Y-56320511D01*
X53501758Y-56320514D01*
X53616482Y-56397171D01*
X53616495Y-56397178D01*
X53743967Y-56449978D01*
X53743972Y-56449980D01*
X53743976Y-56449980D01*
X53743977Y-56449981D01*
X53879304Y-56476900D01*
X53879307Y-56476900D01*
X59457996Y-56476900D01*
X59551954Y-56458210D01*
X59593328Y-56449980D01*
X59657069Y-56423577D01*
X59720807Y-56397177D01*
X59720808Y-56397176D01*
X59720811Y-56397175D01*
X59835543Y-56320514D01*
X61971948Y-54184109D01*
X62875014Y-53281043D01*
X68184000Y-53281043D01*
X68184000Y-53439157D01*
X68186019Y-53446690D01*
X68224923Y-53591883D01*
X68224926Y-53591890D01*
X68303975Y-53728809D01*
X68303979Y-53728814D01*
X68303980Y-53728816D01*
X68415784Y-53840620D01*
X68415786Y-53840621D01*
X68415790Y-53840624D01*
X68509033Y-53894457D01*
X68552716Y-53919677D01*
X68705443Y-53960600D01*
X68705445Y-53960600D01*
X68863555Y-53960600D01*
X68863557Y-53960600D01*
X69016284Y-53919677D01*
X69153216Y-53840620D01*
X69265020Y-53728816D01*
X69344077Y-53591884D01*
X69385000Y-53439157D01*
X69385000Y-53377354D01*
X69404685Y-53310315D01*
X69421319Y-53289673D01*
X72841373Y-49869619D01*
X72902696Y-49836134D01*
X72929054Y-49833300D01*
X72990855Y-49833300D01*
X72990857Y-49833300D01*
X73143584Y-49792377D01*
X73280516Y-49713320D01*
X73392320Y-49601516D01*
X73471377Y-49464584D01*
X73512300Y-49311857D01*
X73512300Y-49153743D01*
X73471377Y-49001016D01*
X73471373Y-49001009D01*
X73392324Y-48864090D01*
X73392318Y-48864082D01*
X73280517Y-48752281D01*
X73280509Y-48752275D01*
X73143590Y-48673226D01*
X73143586Y-48673224D01*
X73143584Y-48673223D01*
X72990857Y-48632300D01*
X72832743Y-48632300D01*
X72680016Y-48673223D01*
X72680009Y-48673226D01*
X72543090Y-48752275D01*
X72543082Y-48752281D01*
X72431281Y-48864082D01*
X72431275Y-48864090D01*
X72352226Y-49001009D01*
X72352223Y-49001016D01*
X72311300Y-49153743D01*
X72311300Y-49215545D01*
X72291615Y-49282584D01*
X72274981Y-49303226D01*
X68854926Y-52723281D01*
X68793603Y-52756766D01*
X68767245Y-52759600D01*
X68705443Y-52759600D01*
X68552716Y-52800523D01*
X68552709Y-52800526D01*
X68415790Y-52879575D01*
X68415782Y-52879581D01*
X68303981Y-52991382D01*
X68303975Y-52991390D01*
X68224926Y-53128309D01*
X68224923Y-53128316D01*
X68184000Y-53281043D01*
X62875014Y-53281043D01*
X62970822Y-53185235D01*
X64134410Y-52021646D01*
X64134409Y-52021646D01*
X64134413Y-52021643D01*
X64211074Y-51906912D01*
X64263880Y-51779429D01*
X64290799Y-51644094D01*
X64290799Y-51506106D01*
X64263880Y-51370772D01*
X64211074Y-51243289D01*
X64211072Y-51243286D01*
X64211070Y-51243282D01*
X64134413Y-51128556D01*
X64036843Y-51030986D01*
X63922117Y-50954329D01*
X63922107Y-50954324D01*
X63794628Y-50901520D01*
X63794620Y-50901518D01*
X63659298Y-50874601D01*
X63659294Y-50874601D01*
X63521306Y-50874601D01*
X63453638Y-50888060D01*
X63385969Y-50901520D01*
X63258489Y-50954325D01*
X63258485Y-50954327D01*
X63143761Y-51030983D01*
X63143753Y-51030989D01*
X59135162Y-55039581D01*
X59073839Y-55073066D01*
X59047481Y-55075900D01*
X53879305Y-55075900D01*
X53743977Y-55102818D01*
X53743967Y-55102821D01*
X53616495Y-55155621D01*
X53616482Y-55155628D01*
X53501758Y-55232285D01*
X53501754Y-55232288D01*
X53404188Y-55329854D01*
X53404185Y-55329858D01*
X53327528Y-55444582D01*
X53327521Y-55444595D01*
X53274721Y-55572067D01*
X53274718Y-55572077D01*
X53247800Y-55707404D01*
X53247800Y-55707407D01*
X53247800Y-55845393D01*
X53247800Y-55845395D01*
X53247799Y-55845395D01*
X40300500Y-55845395D01*
X40300500Y-53652043D01*
X55858000Y-53652043D01*
X55858000Y-53810157D01*
X55887346Y-53919676D01*
X55898923Y-53962883D01*
X55898926Y-53962890D01*
X55977975Y-54099809D01*
X55977979Y-54099814D01*
X55977980Y-54099816D01*
X56089784Y-54211620D01*
X56089786Y-54211621D01*
X56089790Y-54211624D01*
X56226709Y-54290673D01*
X56226716Y-54290677D01*
X56379443Y-54331600D01*
X56379445Y-54331600D01*
X56537555Y-54331600D01*
X56537557Y-54331600D01*
X56690284Y-54290677D01*
X56827216Y-54211620D01*
X56939020Y-54099816D01*
X57018077Y-53962884D01*
X57059000Y-53810157D01*
X57059000Y-53652043D01*
X57018077Y-53499316D01*
X56983344Y-53439156D01*
X56939024Y-53362390D01*
X56939018Y-53362382D01*
X56827217Y-53250581D01*
X56827209Y-53250575D01*
X56690290Y-53171526D01*
X56690286Y-53171524D01*
X56690284Y-53171523D01*
X56537557Y-53130600D01*
X56379443Y-53130600D01*
X56226716Y-53171523D01*
X56226709Y-53171526D01*
X56089790Y-53250575D01*
X56089782Y-53250581D01*
X55977981Y-53362382D01*
X55977975Y-53362390D01*
X55898926Y-53499309D01*
X55898923Y-53499316D01*
X55858000Y-53652043D01*
X40300500Y-53652043D01*
X40300500Y-50892143D01*
X55835100Y-50892143D01*
X55835100Y-51050257D01*
X55856081Y-51128557D01*
X55876023Y-51202983D01*
X55876026Y-51202990D01*
X55955075Y-51339909D01*
X55955079Y-51339914D01*
X55955080Y-51339916D01*
X56066884Y-51451720D01*
X56066886Y-51451721D01*
X56066890Y-51451724D01*
X56161082Y-51506105D01*
X56203816Y-51530777D01*
X56356543Y-51571700D01*
X56356545Y-51571700D01*
X56514655Y-51571700D01*
X56514657Y-51571700D01*
X56667384Y-51530777D01*
X56804316Y-51451720D01*
X56916120Y-51339916D01*
X56995177Y-51202984D01*
X57036100Y-51050257D01*
X57036100Y-50892143D01*
X56995177Y-50739416D01*
X56995173Y-50739409D01*
X56916124Y-50602490D01*
X56916118Y-50602482D01*
X56804317Y-50490681D01*
X56804309Y-50490675D01*
X56667390Y-50411626D01*
X56667386Y-50411624D01*
X56667384Y-50411623D01*
X56514657Y-50370700D01*
X56356543Y-50370700D01*
X56203816Y-50411623D01*
X56203809Y-50411626D01*
X56066890Y-50490675D01*
X56066882Y-50490681D01*
X55955081Y-50602482D01*
X55955075Y-50602490D01*
X55876026Y-50739409D01*
X55876023Y-50739416D01*
X55835100Y-50892143D01*
X40300500Y-50892143D01*
X40300500Y-46170793D01*
X55700000Y-46170793D01*
X55700000Y-46600000D01*
X56219670Y-46600000D01*
X56199925Y-46619745D01*
X56150556Y-46705255D01*
X56125000Y-46800630D01*
X56125000Y-46899370D01*
X56150556Y-46994745D01*
X56199925Y-47080255D01*
X56219670Y-47100000D01*
X55700001Y-47100000D01*
X55700001Y-47529196D01*
X55702851Y-47559606D01*
X55747653Y-47687645D01*
X55828207Y-47796792D01*
X55937354Y-47877346D01*
X56065397Y-47922149D01*
X56095792Y-47924999D01*
X56249999Y-47924999D01*
X56250000Y-47924998D01*
X56250000Y-47130330D01*
X56269745Y-47150075D01*
X56355255Y-47199444D01*
X56450630Y-47225000D01*
X56549370Y-47225000D01*
X56644745Y-47199444D01*
X56730255Y-47150075D01*
X56750000Y-47130330D01*
X56750000Y-47924999D01*
X56904196Y-47924999D01*
X56934606Y-47922148D01*
X57062645Y-47877346D01*
X57171792Y-47796792D01*
X57252346Y-47687645D01*
X57297149Y-47559604D01*
X57297149Y-47559600D01*
X57300000Y-47529206D01*
X57300000Y-47100000D01*
X56780330Y-47100000D01*
X56800075Y-47080255D01*
X56849444Y-46994745D01*
X56875000Y-46899370D01*
X56875000Y-46800630D01*
X56849444Y-46705255D01*
X56800075Y-46619745D01*
X56780330Y-46600000D01*
X57299999Y-46600000D01*
X57299999Y-46486304D01*
X57599500Y-46486304D01*
X57599500Y-47213695D01*
X57634103Y-47387658D01*
X57634106Y-47387667D01*
X57701983Y-47551540D01*
X57701990Y-47551553D01*
X57800535Y-47699034D01*
X57800538Y-47699038D01*
X57925961Y-47824461D01*
X57925965Y-47824464D01*
X58073446Y-47923009D01*
X58073459Y-47923016D01*
X58135506Y-47948716D01*
X58237334Y-47990894D01*
X58237336Y-47990894D01*
X58237341Y-47990896D01*
X58411304Y-48025499D01*
X58411307Y-48025500D01*
X58411309Y-48025500D01*
X58588693Y-48025500D01*
X58588694Y-48025499D01*
X58646682Y-48013964D01*
X58762658Y-47990896D01*
X58762661Y-47990894D01*
X58762666Y-47990894D01*
X58902535Y-47932958D01*
X58926540Y-47923016D01*
X58926540Y-47923015D01*
X58926547Y-47923013D01*
X59074035Y-47824464D01*
X59199464Y-47699035D01*
X59298013Y-47551547D01*
X59365894Y-47387666D01*
X59367128Y-47381466D01*
X59400499Y-47213695D01*
X59400500Y-47213693D01*
X59400500Y-46486306D01*
X59400499Y-46486304D01*
X59365896Y-46312341D01*
X59365893Y-46312332D01*
X59298016Y-46148459D01*
X59298009Y-46148446D01*
X59199464Y-46000965D01*
X59199461Y-46000961D01*
X59074038Y-45875538D01*
X59074034Y-45875535D01*
X58926553Y-45776990D01*
X58926540Y-45776983D01*
X58762667Y-45709106D01*
X58762658Y-45709103D01*
X58588694Y-45674500D01*
X58588691Y-45674500D01*
X58411309Y-45674500D01*
X58411306Y-45674500D01*
X58237341Y-45709103D01*
X58237332Y-45709106D01*
X58073459Y-45776983D01*
X58073446Y-45776990D01*
X57925965Y-45875535D01*
X57925961Y-45875538D01*
X57800538Y-46000961D01*
X57800535Y-46000965D01*
X57701990Y-46148446D01*
X57701983Y-46148459D01*
X57634106Y-46312332D01*
X57634103Y-46312341D01*
X57599500Y-46486304D01*
X57299999Y-46486304D01*
X57299999Y-46170803D01*
X57297148Y-46140393D01*
X57252346Y-46012354D01*
X57171792Y-45903207D01*
X57062645Y-45822653D01*
X56934602Y-45777850D01*
X56904207Y-45775000D01*
X56750000Y-45775000D01*
X56750000Y-46569670D01*
X56730255Y-46549925D01*
X56644745Y-46500556D01*
X56549370Y-46475000D01*
X56450630Y-46475000D01*
X56355255Y-46500556D01*
X56269745Y-46549925D01*
X56250000Y-46569670D01*
X56250000Y-45775000D01*
X56095804Y-45775000D01*
X56065393Y-45777851D01*
X55937354Y-45822653D01*
X55828207Y-45903207D01*
X55747653Y-46012354D01*
X55702850Y-46140395D01*
X55702850Y-46140399D01*
X55700000Y-46170793D01*
X40300500Y-46170793D01*
X40300500Y-44874234D01*
X77546500Y-44874234D01*
X77546500Y-45025765D01*
X77585719Y-45172136D01*
X77614095Y-45221284D01*
X77661485Y-45303365D01*
X77768635Y-45410515D01*
X77899865Y-45486281D01*
X78046234Y-45525500D01*
X78046236Y-45525500D01*
X78197764Y-45525500D01*
X78197766Y-45525500D01*
X78344135Y-45486281D01*
X78475365Y-45410515D01*
X78582515Y-45303365D01*
X78658281Y-45172135D01*
X78697500Y-45025766D01*
X78697500Y-44874234D01*
X83326500Y-44874234D01*
X83326500Y-45025765D01*
X83365719Y-45172136D01*
X83394095Y-45221284D01*
X83441485Y-45303365D01*
X83548635Y-45410515D01*
X83679865Y-45486281D01*
X83826234Y-45525500D01*
X83826236Y-45525500D01*
X83977764Y-45525500D01*
X83977766Y-45525500D01*
X84124135Y-45486281D01*
X84255365Y-45410515D01*
X84362515Y-45303365D01*
X84438281Y-45172135D01*
X84477500Y-45025766D01*
X84477500Y-44874234D01*
X84438281Y-44727865D01*
X84436317Y-44724464D01*
X84391791Y-44647343D01*
X84362515Y-44596635D01*
X84255365Y-44489485D01*
X84189643Y-44451540D01*
X84124136Y-44413719D01*
X84050950Y-44394109D01*
X83977766Y-44374500D01*
X83826234Y-44374500D01*
X83679863Y-44413719D01*
X83548635Y-44489485D01*
X83548632Y-44489487D01*
X83441487Y-44596632D01*
X83441485Y-44596635D01*
X83365719Y-44727863D01*
X83326500Y-44874234D01*
X78697500Y-44874234D01*
X78658281Y-44727865D01*
X78656317Y-44724464D01*
X78611791Y-44647343D01*
X78582515Y-44596635D01*
X78475365Y-44489485D01*
X78409643Y-44451540D01*
X78344136Y-44413719D01*
X78270950Y-44394109D01*
X78197766Y-44374500D01*
X78046234Y-44374500D01*
X77899863Y-44413719D01*
X77768635Y-44489485D01*
X77768632Y-44489487D01*
X77661487Y-44596632D01*
X77661485Y-44596635D01*
X77585719Y-44727863D01*
X77546500Y-44874234D01*
X40300500Y-44874234D01*
X40300500Y-43299713D01*
X41483500Y-43299713D01*
X41483500Y-43512287D01*
X41516754Y-43722243D01*
X41558427Y-43850500D01*
X41582444Y-43924414D01*
X41678951Y-44113820D01*
X41803890Y-44285786D01*
X41954213Y-44436109D01*
X42126179Y-44561048D01*
X42126181Y-44561049D01*
X42126184Y-44561051D01*
X42315588Y-44657557D01*
X42517757Y-44723246D01*
X42727713Y-44756500D01*
X42727714Y-44756500D01*
X42940286Y-44756500D01*
X42940287Y-44756500D01*
X43150243Y-44723246D01*
X43352412Y-44657557D01*
X43541816Y-44561051D01*
X43577715Y-44534969D01*
X43713786Y-44436109D01*
X43713788Y-44436106D01*
X43713792Y-44436104D01*
X43864104Y-44285792D01*
X43864106Y-44285788D01*
X43864109Y-44285786D01*
X43989048Y-44113820D01*
X43989047Y-44113820D01*
X43989051Y-44113816D01*
X44085557Y-43924412D01*
X44151246Y-43722243D01*
X44184500Y-43512287D01*
X44184500Y-43299713D01*
X44170662Y-43212341D01*
X44152487Y-43097590D01*
X44151246Y-43089758D01*
X44148692Y-43081898D01*
X99599500Y-43081898D01*
X99599500Y-44418102D01*
X99603516Y-44451547D01*
X99610122Y-44506561D01*
X99665639Y-44647343D01*
X99757077Y-44767922D01*
X99877656Y-44859360D01*
X99877657Y-44859360D01*
X99877658Y-44859361D01*
X100018436Y-44914877D01*
X100106898Y-44925500D01*
X100106903Y-44925500D01*
X100893097Y-44925500D01*
X100893102Y-44925500D01*
X100981564Y-44914877D01*
X101122342Y-44859361D01*
X101242922Y-44767922D01*
X101334361Y-44647342D01*
X101389877Y-44506564D01*
X101400500Y-44418102D01*
X101400500Y-43396202D01*
X101700000Y-43396202D01*
X101700000Y-43500000D01*
X102219670Y-43500000D01*
X102199925Y-43519745D01*
X102150556Y-43605255D01*
X102125000Y-43700630D01*
X102125000Y-43799370D01*
X102150556Y-43894745D01*
X102199925Y-43980255D01*
X102219670Y-44000000D01*
X101700000Y-44000000D01*
X101700000Y-44103797D01*
X101730741Y-44258343D01*
X101730743Y-44258351D01*
X101791047Y-44403939D01*
X101791052Y-44403948D01*
X101878598Y-44534969D01*
X101878601Y-44534973D01*
X101990026Y-44646398D01*
X101990034Y-44646404D01*
X102121047Y-44733944D01*
X102121065Y-44733954D01*
X102249999Y-44787360D01*
X102250000Y-44787360D01*
X102250000Y-44030330D01*
X102269745Y-44050075D01*
X102355255Y-44099444D01*
X102450630Y-44125000D01*
X102549370Y-44125000D01*
X102644745Y-44099444D01*
X102730255Y-44050075D01*
X102750000Y-44030330D01*
X102750000Y-44787360D01*
X102878934Y-44733954D01*
X102878952Y-44733944D01*
X103009965Y-44646404D01*
X103009973Y-44646398D01*
X103121398Y-44534973D01*
X103121401Y-44534969D01*
X103208947Y-44403948D01*
X103208952Y-44403939D01*
X103269256Y-44258351D01*
X103269258Y-44258343D01*
X103299999Y-44103797D01*
X103300000Y-44103794D01*
X103300000Y-44000000D01*
X102780330Y-44000000D01*
X102800075Y-43980255D01*
X102849444Y-43894745D01*
X102875000Y-43799370D01*
X102875000Y-43700630D01*
X102849444Y-43605255D01*
X102800075Y-43519745D01*
X102780330Y-43500000D01*
X103300000Y-43500000D01*
X103300000Y-43396210D01*
X103299998Y-43396198D01*
X103298030Y-43386304D01*
X103599500Y-43386304D01*
X103599500Y-44113695D01*
X103634103Y-44287658D01*
X103634106Y-44287667D01*
X103701983Y-44451540D01*
X103701990Y-44451553D01*
X103800535Y-44599034D01*
X103800538Y-44599038D01*
X103925961Y-44724461D01*
X103925965Y-44724464D01*
X104073446Y-44823009D01*
X104073459Y-44823016D01*
X104196363Y-44873923D01*
X104237334Y-44890894D01*
X104237336Y-44890894D01*
X104237341Y-44890896D01*
X104411304Y-44925499D01*
X104411307Y-44925500D01*
X104411309Y-44925500D01*
X104588693Y-44925500D01*
X104588694Y-44925499D01*
X104646682Y-44913964D01*
X104762658Y-44890896D01*
X104762661Y-44890894D01*
X104762666Y-44890894D01*
X104926547Y-44823013D01*
X105074035Y-44724464D01*
X105199464Y-44599035D01*
X105298013Y-44451547D01*
X105365894Y-44287666D01*
X105400500Y-44113691D01*
X105400500Y-43396202D01*
X105700000Y-43396202D01*
X105700000Y-43500000D01*
X106219670Y-43500000D01*
X106199925Y-43519745D01*
X106150556Y-43605255D01*
X106125000Y-43700630D01*
X106125000Y-43799370D01*
X106150556Y-43894745D01*
X106199925Y-43980255D01*
X106219670Y-44000000D01*
X105700000Y-44000000D01*
X105700000Y-44103797D01*
X105730741Y-44258343D01*
X105730743Y-44258351D01*
X105791047Y-44403939D01*
X105791052Y-44403948D01*
X105878598Y-44534969D01*
X105878601Y-44534973D01*
X105990026Y-44646398D01*
X105990034Y-44646404D01*
X106121047Y-44733944D01*
X106121065Y-44733954D01*
X106249999Y-44787360D01*
X106250000Y-44787360D01*
X106250000Y-44030330D01*
X106269745Y-44050075D01*
X106355255Y-44099444D01*
X106450630Y-44125000D01*
X106549370Y-44125000D01*
X106644745Y-44099444D01*
X106730255Y-44050075D01*
X106750000Y-44030330D01*
X106750000Y-44787360D01*
X106878934Y-44733954D01*
X106878952Y-44733944D01*
X107009965Y-44646404D01*
X107009973Y-44646398D01*
X107121398Y-44534973D01*
X107121401Y-44534969D01*
X107208947Y-44403948D01*
X107208952Y-44403939D01*
X107269256Y-44258351D01*
X107269258Y-44258343D01*
X107299999Y-44103797D01*
X107300000Y-44103794D01*
X107300000Y-44000000D01*
X106780330Y-44000000D01*
X106800075Y-43980255D01*
X106849444Y-43894745D01*
X106875000Y-43799370D01*
X106875000Y-43700630D01*
X106849444Y-43605255D01*
X106800075Y-43519745D01*
X106780330Y-43500000D01*
X107300000Y-43500000D01*
X107300000Y-43396206D01*
X107299999Y-43396202D01*
X107269258Y-43241656D01*
X107269256Y-43241648D01*
X107208952Y-43096060D01*
X107208947Y-43096051D01*
X107121401Y-42965030D01*
X107121398Y-42965026D01*
X107009973Y-42853601D01*
X107009969Y-42853598D01*
X106878948Y-42766052D01*
X106878938Y-42766047D01*
X106750000Y-42712639D01*
X106750000Y-43469670D01*
X106730255Y-43449925D01*
X106644745Y-43400556D01*
X106549370Y-43375000D01*
X106450630Y-43375000D01*
X106355255Y-43400556D01*
X106269745Y-43449925D01*
X106250000Y-43469670D01*
X106250000Y-42712639D01*
X106249999Y-42712639D01*
X106121061Y-42766047D01*
X106121051Y-42766052D01*
X105990030Y-42853598D01*
X105990026Y-42853601D01*
X105878601Y-42965026D01*
X105878598Y-42965030D01*
X105791052Y-43096051D01*
X105791047Y-43096060D01*
X105730743Y-43241648D01*
X105730741Y-43241656D01*
X105700000Y-43396202D01*
X105400500Y-43396202D01*
X105400500Y-43386309D01*
X105400500Y-43386306D01*
X105400499Y-43386304D01*
X105365896Y-43212341D01*
X105365893Y-43212332D01*
X105364022Y-43207816D01*
X105318366Y-43097590D01*
X105298016Y-43048459D01*
X105298009Y-43048446D01*
X105199464Y-42900965D01*
X105199461Y-42900961D01*
X105074038Y-42775538D01*
X105074034Y-42775535D01*
X104926553Y-42676990D01*
X104926540Y-42676983D01*
X104762667Y-42609106D01*
X104762658Y-42609103D01*
X104588694Y-42574500D01*
X104588691Y-42574500D01*
X104411309Y-42574500D01*
X104411306Y-42574500D01*
X104237341Y-42609103D01*
X104237332Y-42609106D01*
X104073459Y-42676983D01*
X104073446Y-42676990D01*
X103925965Y-42775535D01*
X103925961Y-42775538D01*
X103800538Y-42900961D01*
X103800535Y-42900965D01*
X103701990Y-43048446D01*
X103701983Y-43048459D01*
X103634106Y-43212332D01*
X103634103Y-43212341D01*
X103599500Y-43386304D01*
X103298030Y-43386304D01*
X103269258Y-43241656D01*
X103269256Y-43241648D01*
X103208952Y-43096060D01*
X103208947Y-43096051D01*
X103121401Y-42965030D01*
X103121398Y-42965026D01*
X103009973Y-42853601D01*
X103009969Y-42853598D01*
X102878948Y-42766052D01*
X102878938Y-42766047D01*
X102750000Y-42712639D01*
X102750000Y-43469670D01*
X102730255Y-43449925D01*
X102644745Y-43400556D01*
X102549370Y-43375000D01*
X102450630Y-43375000D01*
X102355255Y-43400556D01*
X102269745Y-43449925D01*
X102250000Y-43469670D01*
X102250000Y-42712639D01*
X102249999Y-42712639D01*
X102121061Y-42766047D01*
X102121051Y-42766052D01*
X101990030Y-42853598D01*
X101990026Y-42853601D01*
X101878601Y-42965026D01*
X101878598Y-42965030D01*
X101791052Y-43096051D01*
X101791047Y-43096060D01*
X101730743Y-43241648D01*
X101730741Y-43241656D01*
X101700000Y-43396202D01*
X101400500Y-43396202D01*
X101400500Y-43081898D01*
X101389877Y-42993436D01*
X101334361Y-42852658D01*
X101334360Y-42852657D01*
X101334360Y-42852656D01*
X101242922Y-42732077D01*
X101122343Y-42640639D01*
X100981561Y-42585122D01*
X100935926Y-42579642D01*
X100893102Y-42574500D01*
X100106898Y-42574500D01*
X100067853Y-42579188D01*
X100018438Y-42585122D01*
X99877656Y-42640639D01*
X99757077Y-42732077D01*
X99665639Y-42852656D01*
X99610122Y-42993438D01*
X99604188Y-43042853D01*
X99599500Y-43081898D01*
X44148692Y-43081898D01*
X44128064Y-43018412D01*
X44085557Y-42887588D01*
X43989051Y-42698184D01*
X43989049Y-42698181D01*
X43989048Y-42698179D01*
X43864109Y-42526213D01*
X43731609Y-42393713D01*
X118003500Y-42393713D01*
X118003500Y-42606287D01*
X118008941Y-42640639D01*
X118030306Y-42775536D01*
X118036754Y-42816243D01*
X118094328Y-42993438D01*
X118102444Y-43018414D01*
X118198951Y-43207820D01*
X118323890Y-43379786D01*
X118474213Y-43530109D01*
X118646179Y-43655048D01*
X118646181Y-43655049D01*
X118646184Y-43655051D01*
X118835588Y-43751557D01*
X119037757Y-43817246D01*
X119247713Y-43850500D01*
X119247714Y-43850500D01*
X119460286Y-43850500D01*
X119460287Y-43850500D01*
X119670243Y-43817246D01*
X119872412Y-43751557D01*
X120061816Y-43655051D01*
X120130355Y-43605255D01*
X120233786Y-43530109D01*
X120233788Y-43530106D01*
X120233792Y-43530104D01*
X120384104Y-43379792D01*
X120384106Y-43379788D01*
X120384109Y-43379786D01*
X120505763Y-43212341D01*
X120509051Y-43207816D01*
X120605557Y-43018412D01*
X120671246Y-42816243D01*
X120704500Y-42606287D01*
X120704500Y-42393713D01*
X120671246Y-42183757D01*
X120605557Y-41981588D01*
X120509051Y-41792184D01*
X120509049Y-41792181D01*
X120509048Y-41792179D01*
X120384109Y-41620213D01*
X120233786Y-41469890D01*
X120061820Y-41344951D01*
X119872414Y-41248444D01*
X119872413Y-41248443D01*
X119872412Y-41248443D01*
X119670243Y-41182754D01*
X119670241Y-41182753D01*
X119670240Y-41182753D01*
X119508957Y-41157208D01*
X119460287Y-41149500D01*
X119247713Y-41149500D01*
X119199042Y-41157208D01*
X119037760Y-41182753D01*
X118835585Y-41248444D01*
X118646179Y-41344951D01*
X118474213Y-41469890D01*
X118323890Y-41620213D01*
X118198951Y-41792179D01*
X118102444Y-41981585D01*
X118036753Y-42183760D01*
X118026111Y-42250951D01*
X118003500Y-42393713D01*
X43731609Y-42393713D01*
X43713786Y-42375890D01*
X43541820Y-42250951D01*
X43352414Y-42154444D01*
X43352413Y-42154443D01*
X43352412Y-42154443D01*
X43150243Y-42088754D01*
X43150241Y-42088753D01*
X43150240Y-42088753D01*
X42988957Y-42063208D01*
X42940287Y-42055500D01*
X42727713Y-42055500D01*
X42679042Y-42063208D01*
X42517760Y-42088753D01*
X42315585Y-42154444D01*
X42126179Y-42250951D01*
X41954213Y-42375890D01*
X41803890Y-42526213D01*
X41678951Y-42698179D01*
X41582444Y-42887585D01*
X41516753Y-43089760D01*
X41497338Y-43212341D01*
X41483500Y-43299713D01*
X40300500Y-43299713D01*
X40300500Y-40724500D01*
X40320185Y-40657461D01*
X40372989Y-40611706D01*
X40424500Y-40600500D01*
X41733560Y-40600500D01*
X41733562Y-40600500D01*
X41809989Y-40580021D01*
X41878511Y-40540460D01*
X41934460Y-40484511D01*
X41974021Y-40415989D01*
X41980341Y-40392404D01*
X42016707Y-40332745D01*
X42079554Y-40302217D01*
X42100115Y-40300500D01*
X121599500Y-40300500D01*
X121666539Y-40320185D01*
G37*
%TD.AperFunction*%
%TD*%
M02*
