%TF.GenerationSoftware,KiCad,Pcbnew,10.0.6*%
%TF.CreationDate,2026-09-14T19:03:00+09:00*%
%TF.ProjectId,katanori61,6b617461-6e6f-4726-9936-312e6b696361,rev?*%
%TF.SameCoordinates,Original*%
%TF.FileFunction,Soldermask,Top*%
%TF.FilePolarity,Negative*%
%FSLAX46Y46*%
G04 Gerber Fmt 4.6, Leading zero omitted, Abs format (unit mm)*
G04 Created by KiCad (PCBNEW 10.0.6) date 2026-09-14 19:03:00*
%MOMM*%
%LPD*%
G01*
G04 APERTURE LIST*
G04 Aperture macros list*
%AMRoundRect*
0 Rectangle with rounded corners*
0 $1 Rounding radius*
0 $2 $3 $4 $5 $6 $7 $8 $9 X,Y pos of 4 corners*
0 Add a 4 corners polygon primitive as box body*
4,1,4,$2,$3,$4,$5,$6,$7,$8,$9,$2,$3,0*
0 Add four circle primitives for the rounded corners*
1,1,$1+$1,$2,$3*
1,1,$1+$1,$4,$5*
1,1,$1+$1,$6,$7*
1,1,$1+$1,$8,$9*
0 Add four rect primitives between the rounded corners*
20,1,$1+$1,$2,$3,$4,$5,0*
20,1,$1+$1,$4,$5,$6,$7,0*
20,1,$1+$1,$6,$7,$8,$9,0*
20,1,$1+$1,$8,$9,$2,$3,0*%
G04 Aperture macros list end*
%ADD10C,2.200000*%
%ADD11RoundRect,0.250000X-0.450000X0.262500X-0.450000X-0.262500X0.450000X-0.262500X0.450000X0.262500X0*%
%ADD12RoundRect,0.250000X-0.250000X-0.475000X0.250000X-0.475000X0.250000X0.475000X-0.250000X0.475000X0*%
%ADD13RoundRect,0.062500X-0.350000X-0.062500X0.350000X-0.062500X0.350000X0.062500X-0.350000X0.062500X0*%
%ADD14RoundRect,0.062500X-0.062500X-0.350000X0.062500X-0.350000X0.062500X0.350000X-0.062500X0.350000X0*%
%ADD15R,2.500000X2.500000*%
%ADD16RoundRect,0.250000X0.450000X-0.262500X0.450000X0.262500X-0.450000X0.262500X-0.450000X-0.262500X0*%
%ADD17RoundRect,0.250000X-0.262500X-0.450000X0.262500X-0.450000X0.262500X0.450000X-0.262500X0.450000X0*%
%ADD18RoundRect,0.243750X-0.243750X-0.456250X0.243750X-0.456250X0.243750X0.456250X-0.243750X0.456250X0*%
%ADD19RoundRect,0.250000X-0.312500X-0.625000X0.312500X-0.625000X0.312500X0.625000X-0.312500X0.625000X0*%
%ADD20RoundRect,0.075000X-0.650000X-0.075000X0.650000X-0.075000X0.650000X0.075000X-0.650000X0.075000X0*%
%ADD21RoundRect,0.087500X-0.325000X-0.087500X0.325000X-0.087500X0.325000X0.087500X-0.325000X0.087500X0*%
%ADD22RoundRect,0.087500X-0.087500X-0.325000X0.087500X-0.325000X0.087500X0.325000X-0.087500X0.325000X0*%
%ADD23R,2.700000X2.700000*%
%ADD24RoundRect,0.250000X-0.300000X-1.600000X0.300000X-1.600000X0.300000X1.600000X-0.300000X1.600000X0*%
%ADD25RoundRect,0.250000X0.475000X-0.250000X0.475000X0.250000X-0.475000X0.250000X-0.475000X-0.250000X0*%
%ADD26RoundRect,0.250000X0.650000X-0.325000X0.650000X0.325000X-0.650000X0.325000X-0.650000X-0.325000X0*%
%ADD27RoundRect,0.150000X-0.587500X-0.150000X0.587500X-0.150000X0.587500X0.150000X-0.587500X0.150000X0*%
%ADD28RoundRect,0.250000X-0.475000X0.250000X-0.475000X-0.250000X0.475000X-0.250000X0.475000X0.250000X0*%
%ADD29RoundRect,0.225000X-0.375000X0.225000X-0.375000X-0.225000X0.375000X-0.225000X0.375000X0.225000X0*%
%ADD30RoundRect,0.150000X-0.150000X0.587500X-0.150000X-0.587500X0.150000X-0.587500X0.150000X0.587500X0*%
%ADD31RoundRect,0.150000X-0.825000X-0.150000X0.825000X-0.150000X0.825000X0.150000X-0.825000X0.150000X0*%
%ADD32RoundRect,0.250000X0.350000X0.625000X-0.350000X0.625000X-0.350000X-0.625000X0.350000X-0.625000X0*%
%ADD33O,1.200000X1.750000*%
%ADD34RoundRect,0.250000X-0.625000X0.350000X-0.625000X-0.350000X0.625000X-0.350000X0.625000X0.350000X0*%
%ADD35O,1.750000X1.200000*%
%ADD36RoundRect,0.250000X-0.350000X-0.625000X0.350000X-0.625000X0.350000X0.625000X-0.350000X0.625000X0*%
%ADD37R,1.700000X1.700000*%
%ADD38C,1.700000*%
%ADD39C,0.650000*%
%ADD40RoundRect,0.150000X0.575000X-0.150000X0.575000X0.150000X-0.575000X0.150000X-0.575000X-0.150000X0*%
%ADD41RoundRect,0.075000X0.650000X-0.075000X0.650000X0.075000X-0.650000X0.075000X-0.650000X-0.075000X0*%
%ADD42O,2.100000X1.000000*%
%ADD43R,1.000000X2.200000*%
G04 APERTURE END LIST*
D10*
%TO.C,*%
X44000000Y-73900000D03*
%TD*%
%TO.C,*%
X112500000Y-73900000D03*
%TD*%
%TO.C,*%
X50000000Y-44000000D03*
%TD*%
%TO.C,*%
X112500000Y-44000000D03*
%TD*%
D11*
%TO.C,R44*%
X92745000Y-65479500D03*
X92745000Y-67304500D03*
%TD*%
%TO.C,R45*%
X92745000Y-61969500D03*
X92745000Y-63794500D03*
%TD*%
D12*
%TO.C,C8*%
X68364000Y-45894000D03*
X70264000Y-45894000D03*
%TD*%
%TO.C,C7*%
X72535000Y-45894000D03*
X74435000Y-45894000D03*
%TD*%
D13*
%TO.C,U2*%
X65938500Y-50798000D03*
X65938500Y-51298000D03*
X65938500Y-51798000D03*
X65938500Y-52298000D03*
X65938500Y-52798000D03*
D14*
X66876000Y-53735500D03*
X67376000Y-53735500D03*
X67876000Y-53735500D03*
X68376000Y-53735500D03*
X68876000Y-53735500D03*
D13*
X69813500Y-52798000D03*
X69813500Y-52298000D03*
X69813500Y-51798000D03*
X69813500Y-51298000D03*
X69813500Y-50798000D03*
D14*
X68876000Y-49860500D03*
X68376000Y-49860500D03*
X67876000Y-49860500D03*
X67376000Y-49860500D03*
X66876000Y-49860500D03*
D15*
X67876000Y-51798000D03*
%TD*%
D16*
%TO.C,R6*%
X60971000Y-60616500D03*
X60971000Y-58791500D03*
%TD*%
%TO.C,R7*%
X60971000Y-64127500D03*
X60971000Y-62302500D03*
%TD*%
D17*
%TO.C,R16*%
X65272500Y-62641000D03*
X67097500Y-62641000D03*
%TD*%
%TO.C,R17*%
X68922500Y-59974000D03*
X70747500Y-59974000D03*
%TD*%
%TO.C,R15*%
X72700500Y-60923000D03*
X74525500Y-60923000D03*
%TD*%
D18*
%TO.C,LED4*%
X69164500Y-62024000D03*
X71039500Y-62024000D03*
%TD*%
D17*
%TO.C,R8*%
X72350500Y-57275000D03*
X74175500Y-57275000D03*
%TD*%
D18*
%TO.C,LED3*%
X76557500Y-52670000D03*
X78432500Y-52670000D03*
%TD*%
D17*
%TO.C,R14*%
X76696500Y-56611000D03*
X78521500Y-56611000D03*
%TD*%
D19*
%TO.C,R41*%
X68893500Y-72195000D03*
X71818500Y-72195000D03*
%TD*%
D20*
%TO.C,U3*%
X71518000Y-48200000D03*
X71518000Y-48700000D03*
X71518000Y-49200000D03*
X71518000Y-49700000D03*
X71518000Y-50200000D03*
X75818000Y-50200000D03*
X75818000Y-49700000D03*
X75818000Y-49200000D03*
X75818000Y-48700000D03*
X75818000Y-48200000D03*
%TD*%
D12*
%TO.C,C41*%
X72735000Y-53475000D03*
X74635000Y-53475000D03*
%TD*%
D17*
%TO.C,R42*%
X77829500Y-50225000D03*
X79654500Y-50225000D03*
%TD*%
%TO.C,R43*%
X90821500Y-72195000D03*
X92646500Y-72195000D03*
%TD*%
D21*
%TO.C,U1*%
X84035500Y-48139000D03*
X84035500Y-48789000D03*
X84035500Y-49439000D03*
X84035500Y-50089000D03*
D22*
X85023000Y-51076500D03*
X85673000Y-51076500D03*
X86323000Y-51076500D03*
X86973000Y-51076500D03*
D21*
X87960500Y-50089000D03*
X87960500Y-49439000D03*
X87960500Y-48789000D03*
X87960500Y-48139000D03*
D22*
X86973000Y-47151500D03*
X86323000Y-47151500D03*
X85673000Y-47151500D03*
X85023000Y-47151500D03*
D23*
X85998000Y-49114000D03*
%TD*%
D24*
%TO.C,L1*%
X77747000Y-47016000D03*
X80747000Y-47016000D03*
%TD*%
D12*
%TO.C,C1*%
X76285000Y-54647000D03*
X78185000Y-54647000D03*
%TD*%
%TO.C,C4*%
X80074000Y-53062000D03*
X81974000Y-53062000D03*
%TD*%
D25*
%TO.C,C2*%
X84509000Y-55432000D03*
X84509000Y-53532000D03*
%TD*%
D26*
%TO.C,C6*%
X91734000Y-57030000D03*
X91734000Y-54080000D03*
%TD*%
%TO.C,C9*%
X94862000Y-57030000D03*
X94862000Y-54080000D03*
%TD*%
D16*
%TO.C,R3*%
X88605000Y-56467500D03*
X88605000Y-54642500D03*
%TD*%
%TO.C,R4*%
X89603000Y-60761500D03*
X89603000Y-58936500D03*
%TD*%
D17*
%TO.C,R1*%
X75748500Y-58782000D03*
X77573500Y-58782000D03*
%TD*%
%TO.C,R2*%
X79260500Y-58552000D03*
X81085500Y-58552000D03*
%TD*%
%TO.C,R13*%
X91341500Y-59650000D03*
X93166500Y-59650000D03*
%TD*%
D27*
%TO.C,Q1*%
X81142500Y-60296000D03*
X81142500Y-62196000D03*
X83017500Y-61246000D03*
%TD*%
D17*
%TO.C,R20*%
X83000500Y-64047000D03*
X84825500Y-64047000D03*
%TD*%
D18*
%TO.C,LED1*%
X86625500Y-63070000D03*
X88500500Y-63070000D03*
%TD*%
D17*
%TO.C,R5*%
X82656500Y-58568000D03*
X84481500Y-58568000D03*
%TD*%
D18*
%TO.C,LED2*%
X86033500Y-59313000D03*
X87908500Y-59313000D03*
%TD*%
D28*
%TO.C,C31*%
X57590000Y-45400000D03*
X57590000Y-47300000D03*
%TD*%
D11*
%TO.C,R32*%
X57590000Y-49237500D03*
X57590000Y-51062500D03*
%TD*%
%TO.C,R31*%
X57590000Y-53037500D03*
X57590000Y-54862500D03*
%TD*%
D29*
%TO.C,D31*%
X55100000Y-55776000D03*
X55100000Y-59076000D03*
%TD*%
D30*
%TO.C,Q31*%
X56600000Y-60918500D03*
X54700000Y-60918500D03*
X55650000Y-62793500D03*
%TD*%
D28*
%TO.C,C32*%
X82400000Y-54817000D03*
X82400000Y-56717000D03*
%TD*%
D31*
%TO.C,U4*%
X103225000Y-61695000D03*
X103225000Y-62965000D03*
X103225000Y-64235000D03*
X103225000Y-65505000D03*
X108175000Y-65505000D03*
X108175000Y-64235000D03*
X108175000Y-62965000D03*
X108175000Y-61695000D03*
%TD*%
D12*
%TO.C,C42*%
X96550000Y-63600000D03*
X98450000Y-63600000D03*
%TD*%
D32*
%TO.C,J4*%
X116300000Y-69350000D03*
D33*
X114300000Y-69350000D03*
%TD*%
D34*
%TO.C,J5*%
X51950000Y-59300000D03*
D35*
X51950000Y-61300000D03*
%TD*%
D36*
%TO.C,J7*%
X100500000Y-43750000D03*
D33*
X102500000Y-43750000D03*
X104500000Y-43750000D03*
X106500000Y-43750000D03*
%TD*%
D34*
%TO.C,J10*%
X43550000Y-50850000D03*
D35*
X43550000Y-52850000D03*
%TD*%
D37*
%TO.C,J1*%
X41770000Y-65595000D03*
D38*
X44310000Y-65595000D03*
X46850000Y-65595000D03*
X49390000Y-65595000D03*
X51930000Y-65595000D03*
X54470000Y-65595000D03*
X57010000Y-65595000D03*
%TD*%
D37*
%TO.C,J2*%
X77240000Y-72630000D03*
D38*
X79780000Y-72630000D03*
X82320000Y-72630000D03*
X84860000Y-72630000D03*
%TD*%
D39*
%TO.C,J13*%
X117304000Y-54290000D03*
X117304000Y-48510000D03*
D40*
X115859000Y-54650000D03*
X115859000Y-53850000D03*
D41*
X115859000Y-52650000D03*
X115859000Y-51650000D03*
X115859000Y-51150000D03*
X115859000Y-50150000D03*
D40*
X115859000Y-48950000D03*
X115859000Y-48150000D03*
X115859000Y-48150000D03*
X115859000Y-48950000D03*
D41*
X115859000Y-49650000D03*
X115859000Y-50650000D03*
X115859000Y-52150000D03*
X115859000Y-53150000D03*
D40*
X115859000Y-53850000D03*
X115859000Y-54650000D03*
D42*
X116774000Y-55720000D03*
X116774000Y-47080000D03*
%TD*%
D43*
%TO.C,K31*%
X97650000Y-58250000D03*
X102730000Y-58250000D03*
X105270000Y-58250000D03*
X107810000Y-58250000D03*
X107810000Y-50250000D03*
X105270000Y-50250000D03*
X102730000Y-50250000D03*
X97650000Y-50250000D03*
%TD*%
M02*
