%TF.GenerationSoftware,KiCad,Pcbnew,10.0.6*%
%TF.CreationDate,2026-09-16T19:27:12+09:00*%
%TF.ProjectId,katanori61,6b617461-6e6f-4726-9936-312e6b696361,rev?*%
%TF.SameCoordinates,Original*%
%TF.FileFunction,Legend,Bot*%
%TF.FilePolarity,Positive*%
%FSLAX46Y46*%
G04 Gerber Fmt 4.6, Leading zero omitted, Abs format (unit mm)*
G04 Created by KiCad (PCBNEW 10.0.6) date 2026-09-16 19:27:12*
%MOMM*%
%LPD*%
G01*
G04 APERTURE LIST*
%ADD10C,0.150000*%
%ADD11C,0.120000*%
G04 APERTURE END LIST*
D10*
X117983332Y-64231533D02*
X116916666Y-64231533D01*
X115983332Y-64231533D02*
X114916666Y-64231533D01*
X115449999Y-64764866D02*
X115449999Y-63698200D01*
X118950000Y-65279819D02*
X118950000Y-65994104D01*
X118950000Y-65994104D02*
X118997619Y-66136961D01*
X118997619Y-66136961D02*
X119092857Y-66232200D01*
X119092857Y-66232200D02*
X119235714Y-66279819D01*
X119235714Y-66279819D02*
X119330952Y-66279819D01*
X117950000Y-66279819D02*
X118521428Y-66279819D01*
X118235714Y-66279819D02*
X118235714Y-65279819D01*
X118235714Y-65279819D02*
X118330952Y-65422676D01*
X118330952Y-65422676D02*
X118426190Y-65517914D01*
X118426190Y-65517914D02*
X118521428Y-65565533D01*
X117330952Y-65279819D02*
X117235714Y-65279819D01*
X117235714Y-65279819D02*
X117140476Y-65327438D01*
X117140476Y-65327438D02*
X117092857Y-65375057D01*
X117092857Y-65375057D02*
X117045238Y-65470295D01*
X117045238Y-65470295D02*
X116997619Y-65660771D01*
X116997619Y-65660771D02*
X116997619Y-65898866D01*
X116997619Y-65898866D02*
X117045238Y-66089342D01*
X117045238Y-66089342D02*
X117092857Y-66184580D01*
X117092857Y-66184580D02*
X117140476Y-66232200D01*
X117140476Y-66232200D02*
X117235714Y-66279819D01*
X117235714Y-66279819D02*
X117330952Y-66279819D01*
X117330952Y-66279819D02*
X117426190Y-66232200D01*
X117426190Y-66232200D02*
X117473809Y-66184580D01*
X117473809Y-66184580D02*
X117521428Y-66089342D01*
X117521428Y-66089342D02*
X117569047Y-65898866D01*
X117569047Y-65898866D02*
X117569047Y-65660771D01*
X117569047Y-65660771D02*
X117521428Y-65470295D01*
X117521428Y-65470295D02*
X117473809Y-65375057D01*
X117473809Y-65375057D02*
X117426190Y-65327438D01*
X117426190Y-65327438D02*
X117330952Y-65279819D01*
X115473809Y-65756009D02*
X115330952Y-65803628D01*
X115330952Y-65803628D02*
X115283333Y-65851247D01*
X115283333Y-65851247D02*
X115235714Y-65946485D01*
X115235714Y-65946485D02*
X115235714Y-66089342D01*
X115235714Y-66089342D02*
X115283333Y-66184580D01*
X115283333Y-66184580D02*
X115330952Y-66232200D01*
X115330952Y-66232200D02*
X115426190Y-66279819D01*
X115426190Y-66279819D02*
X115807142Y-66279819D01*
X115807142Y-66279819D02*
X115807142Y-65279819D01*
X115807142Y-65279819D02*
X115473809Y-65279819D01*
X115473809Y-65279819D02*
X115378571Y-65327438D01*
X115378571Y-65327438D02*
X115330952Y-65375057D01*
X115330952Y-65375057D02*
X115283333Y-65470295D01*
X115283333Y-65470295D02*
X115283333Y-65565533D01*
X115283333Y-65565533D02*
X115330952Y-65660771D01*
X115330952Y-65660771D02*
X115378571Y-65708390D01*
X115378571Y-65708390D02*
X115473809Y-65756009D01*
X115473809Y-65756009D02*
X115807142Y-65756009D01*
X114854761Y-65994104D02*
X114378571Y-65994104D01*
X114949999Y-66279819D02*
X114616666Y-65279819D01*
X114616666Y-65279819D02*
X114283333Y-66279819D01*
X114092856Y-65279819D02*
X113521428Y-65279819D01*
X113807142Y-66279819D02*
X113807142Y-65279819D01*
%TO.C,J10*%
D11*
X119810000Y-57515000D02*
X119810000Y-58765000D01*
X119510000Y-59125000D02*
X118900000Y-59125000D01*
X119510000Y-60425000D02*
X118900000Y-60425000D01*
X118900000Y-58425000D02*
X118900000Y-61925000D01*
X118900000Y-61925000D02*
X114000000Y-61925000D01*
X118560000Y-57515000D02*
X119810000Y-57515000D01*
X118050000Y-57615000D02*
X118050000Y-57815000D01*
X117750000Y-57615000D02*
X118050000Y-57615000D01*
X117750000Y-57715000D02*
X118050000Y-57715000D01*
X117750000Y-57815000D02*
X117750000Y-57615000D01*
X116950000Y-57815000D02*
X116950000Y-58425000D01*
X116950000Y-58425000D02*
X118900000Y-58425000D01*
X116550000Y-61425000D02*
X116350000Y-61425000D01*
X116550000Y-61925000D02*
X116550000Y-61425000D01*
X116450000Y-61925000D02*
X116450000Y-61425000D01*
X116350000Y-61425000D02*
X116350000Y-61925000D01*
X115950000Y-58425000D02*
X115950000Y-57815000D01*
X114000000Y-58425000D02*
X115950000Y-58425000D01*
X114000000Y-61925000D02*
X114000000Y-58425000D01*
X113390000Y-59125000D02*
X114000000Y-59125000D01*
X113390000Y-60425000D02*
X114000000Y-60425000D01*
X113390000Y-57815000D02*
X119510000Y-57815000D01*
X119510000Y-62535000D01*
X113390000Y-62535000D01*
X113390000Y-57815000D01*
%TD*%
M02*
