%TF.GenerationSoftware,KiCad,Pcbnew,10.0.6*%
%TF.CreationDate,2026-09-14T19:10:56+09:00*%
%TF.ProjectId,katanori61,6b617461-6e6f-4726-9936-312e6b696361,rev?*%
%TF.SameCoordinates,Original*%
%TF.FileFunction,Copper,L1,Top*%
%TF.FilePolarity,Positive*%
%FSLAX46Y46*%
G04 Gerber Fmt 4.6, Leading zero omitted, Abs format (unit mm)*
G04 Created by KiCad (PCBNEW 10.0.6) date 2026-09-14 19:10:56*
%MOMM*%
%LPD*%
G01*
G04 APERTURE LIST*
G04 Aperture macros list*
%AMRoundRect*
0 Rectangle with rounded corners*
0 $1 Rounding radius*
0 $2 $3 $4 $5 $6 $7 $8 $9 X,Y pos of 4 corners*
0 Add a 4 corners polygon primitive as box body*
4,1,4,$2,$3,$4,$5,$6,$7,$8,$9,$2,$3,0*
0 Add four circle primitives for the rounded corners*
1,1,$1+$1,$2,$3*
1,1,$1+$1,$4,$5*
1,1,$1+$1,$6,$7*
1,1,$1+$1,$8,$9*
0 Add four rect primitives between the rounded corners*
20,1,$1+$1,$2,$3,$4,$5,0*
20,1,$1+$1,$4,$5,$6,$7,0*
20,1,$1+$1,$6,$7,$8,$9,0*
20,1,$1+$1,$8,$9,$2,$3,0*%
G04 Aperture macros list end*
%TA.AperFunction,SMDPad,CuDef*%
%ADD10RoundRect,0.250000X-0.450000X0.262500X-0.450000X-0.262500X0.450000X-0.262500X0.450000X0.262500X0*%
%TD*%
%TA.AperFunction,SMDPad,CuDef*%
%ADD11RoundRect,0.250000X-0.250000X-0.475000X0.250000X-0.475000X0.250000X0.475000X-0.250000X0.475000X0*%
%TD*%
%TA.AperFunction,SMDPad,CuDef*%
%ADD12RoundRect,0.062500X-0.350000X-0.062500X0.350000X-0.062500X0.350000X0.062500X-0.350000X0.062500X0*%
%TD*%
%TA.AperFunction,SMDPad,CuDef*%
%ADD13RoundRect,0.062500X-0.062500X-0.350000X0.062500X-0.350000X0.062500X0.350000X-0.062500X0.350000X0*%
%TD*%
%TA.AperFunction,HeatsinkPad*%
%ADD14R,2.500000X2.500000*%
%TD*%
%TA.AperFunction,SMDPad,CuDef*%
%ADD15RoundRect,0.250000X0.450000X-0.262500X0.450000X0.262500X-0.450000X0.262500X-0.450000X-0.262500X0*%
%TD*%
%TA.AperFunction,SMDPad,CuDef*%
%ADD16RoundRect,0.250000X-0.262500X-0.450000X0.262500X-0.450000X0.262500X0.450000X-0.262500X0.450000X0*%
%TD*%
%TA.AperFunction,SMDPad,CuDef*%
%ADD17RoundRect,0.243750X-0.243750X-0.456250X0.243750X-0.456250X0.243750X0.456250X-0.243750X0.456250X0*%
%TD*%
%TA.AperFunction,SMDPad,CuDef*%
%ADD18RoundRect,0.250000X-0.312500X-0.625000X0.312500X-0.625000X0.312500X0.625000X-0.312500X0.625000X0*%
%TD*%
%TA.AperFunction,SMDPad,CuDef*%
%ADD19RoundRect,0.075000X-0.650000X-0.075000X0.650000X-0.075000X0.650000X0.075000X-0.650000X0.075000X0*%
%TD*%
%TA.AperFunction,SMDPad,CuDef*%
%ADD20RoundRect,0.087500X-0.325000X-0.087500X0.325000X-0.087500X0.325000X0.087500X-0.325000X0.087500X0*%
%TD*%
%TA.AperFunction,SMDPad,CuDef*%
%ADD21RoundRect,0.087500X-0.087500X-0.325000X0.087500X-0.325000X0.087500X0.325000X-0.087500X0.325000X0*%
%TD*%
%TA.AperFunction,HeatsinkPad*%
%ADD22R,2.700000X2.700000*%
%TD*%
%TA.AperFunction,SMDPad,CuDef*%
%ADD23RoundRect,0.250000X-0.300000X-1.600000X0.300000X-1.600000X0.300000X1.600000X-0.300000X1.600000X0*%
%TD*%
%TA.AperFunction,SMDPad,CuDef*%
%ADD24RoundRect,0.250000X0.475000X-0.250000X0.475000X0.250000X-0.475000X0.250000X-0.475000X-0.250000X0*%
%TD*%
%TA.AperFunction,SMDPad,CuDef*%
%ADD25RoundRect,0.250000X0.650000X-0.325000X0.650000X0.325000X-0.650000X0.325000X-0.650000X-0.325000X0*%
%TD*%
%TA.AperFunction,SMDPad,CuDef*%
%ADD26RoundRect,0.150000X-0.587500X-0.150000X0.587500X-0.150000X0.587500X0.150000X-0.587500X0.150000X0*%
%TD*%
%TA.AperFunction,SMDPad,CuDef*%
%ADD27RoundRect,0.250000X-0.475000X0.250000X-0.475000X-0.250000X0.475000X-0.250000X0.475000X0.250000X0*%
%TD*%
%TA.AperFunction,SMDPad,CuDef*%
%ADD28RoundRect,0.225000X-0.375000X0.225000X-0.375000X-0.225000X0.375000X-0.225000X0.375000X0.225000X0*%
%TD*%
%TA.AperFunction,SMDPad,CuDef*%
%ADD29RoundRect,0.150000X-0.150000X0.587500X-0.150000X-0.587500X0.150000X-0.587500X0.150000X0.587500X0*%
%TD*%
%TA.AperFunction,SMDPad,CuDef*%
%ADD30RoundRect,0.150000X-0.825000X-0.150000X0.825000X-0.150000X0.825000X0.150000X-0.825000X0.150000X0*%
%TD*%
%TA.AperFunction,ComponentPad*%
%ADD31RoundRect,0.250000X0.350000X0.625000X-0.350000X0.625000X-0.350000X-0.625000X0.350000X-0.625000X0*%
%TD*%
%TA.AperFunction,ComponentPad*%
%ADD32O,1.200000X1.750000*%
%TD*%
%TA.AperFunction,ComponentPad*%
%ADD33RoundRect,0.250000X-0.625000X0.350000X-0.625000X-0.350000X0.625000X-0.350000X0.625000X0.350000X0*%
%TD*%
%TA.AperFunction,ComponentPad*%
%ADD34O,1.750000X1.200000*%
%TD*%
%TA.AperFunction,ComponentPad*%
%ADD35RoundRect,0.250000X-0.350000X-0.625000X0.350000X-0.625000X0.350000X0.625000X-0.350000X0.625000X0*%
%TD*%
%TA.AperFunction,ComponentPad*%
%ADD36R,1.700000X1.700000*%
%TD*%
%TA.AperFunction,ComponentPad*%
%ADD37C,1.700000*%
%TD*%
%TA.AperFunction,SMDPad,CuDef*%
%ADD38RoundRect,0.150000X0.575000X-0.150000X0.575000X0.150000X-0.575000X0.150000X-0.575000X-0.150000X0*%
%TD*%
%TA.AperFunction,SMDPad,CuDef*%
%ADD39RoundRect,0.075000X0.650000X-0.075000X0.650000X0.075000X-0.650000X0.075000X-0.650000X-0.075000X0*%
%TD*%
%TA.AperFunction,ComponentPad*%
%ADD40O,2.100000X1.000000*%
%TD*%
%TA.AperFunction,SMDPad,CuDef*%
%ADD41R,1.000000X2.200000*%
%TD*%
%TA.AperFunction,ViaPad*%
%ADD42C,0.800000*%
%TD*%
%TA.AperFunction,ViaPad*%
%ADD43C,0.600000*%
%TD*%
%TA.AperFunction,Conductor*%
%ADD44C,0.200000*%
%TD*%
%TA.AperFunction,Conductor*%
%ADD45C,0.150000*%
%TD*%
%TA.AperFunction,Conductor*%
%ADD46C,0.120000*%
%TD*%
G04 APERTURE END LIST*
D10*
%TO.P,R44,1*%
%TO.N,CC1*%
X92745000Y-65479500D03*
%TO.P,R44,2*%
%TO.N,GND*%
X92745000Y-67304500D03*
%TD*%
%TO.P,R45,1*%
%TO.N,CC2*%
X92745000Y-61969500D03*
%TO.P,R45,2*%
%TO.N,GND*%
X92745000Y-63794500D03*
%TD*%
D11*
%TO.P,C8,1*%
%TO.N,VBUS*%
X68364000Y-45894000D03*
%TO.P,C8,2*%
%TO.N,GND*%
X70264000Y-45894000D03*
%TD*%
%TO.P,C7,1*%
%TO.N,VLIPO*%
X72535000Y-45894000D03*
%TO.P,C7,2*%
%TO.N,GND*%
X74435000Y-45894000D03*
%TD*%
D12*
%TO.P,U2,1*%
%TO.N,VSYS*%
X65938500Y-50798000D03*
%TO.P,U2,2*%
%TO.N,VPCC*%
X65938500Y-51298000D03*
%TO.P,U2,3*%
%TO.N,VBUS*%
X65938500Y-51798000D03*
%TO.P,U2,4*%
X65938500Y-52298000D03*
%TO.P,U2,5*%
%TO.N,THERM*%
X65938500Y-52798000D03*
D13*
%TO.P,U2,6*%
%TO.N,unconnected-(U2-~{PG}-Pad6)*%
X66876000Y-53735500D03*
%TO.P,U2,7*%
%TO.N,STAT2*%
X67376000Y-53735500D03*
%TO.P,U2,8*%
%TO.N,STAT1*%
X67876000Y-53735500D03*
%TO.P,U2,9*%
%TO.N,VBUS*%
X68376000Y-53735500D03*
%TO.P,U2,10*%
%TO.N,GND*%
X68876000Y-53735500D03*
D12*
%TO.P,U2,11*%
X69813500Y-52798000D03*
%TO.P,U2,12*%
%TO.N,PROG3*%
X69813500Y-52298000D03*
%TO.P,U2,13*%
%TO.N,PROG1*%
X69813500Y-51798000D03*
%TO.P,U2,14*%
%TO.N,VLIPO*%
X69813500Y-51298000D03*
%TO.P,U2,15*%
X69813500Y-50798000D03*
D13*
%TO.P,U2,16*%
X68876000Y-49860500D03*
%TO.P,U2,17*%
%TO.N,VBUS*%
X68376000Y-49860500D03*
%TO.P,U2,18*%
X67876000Y-49860500D03*
%TO.P,U2,19*%
X67376000Y-49860500D03*
%TO.P,U2,20*%
%TO.N,VSYS*%
X66876000Y-49860500D03*
D14*
%TO.P,U2,21*%
%TO.N,GND*%
X67876000Y-51798000D03*
%TD*%
D15*
%TO.P,R6,1*%
%TO.N,VBUS*%
X60971000Y-60616500D03*
%TO.P,R6,2*%
%TO.N,VPCC*%
X60971000Y-58791500D03*
%TD*%
%TO.P,R7,1*%
%TO.N,VPCC*%
X60971000Y-64127500D03*
%TO.P,R7,2*%
%TO.N,GND*%
X60971000Y-62302500D03*
%TD*%
D16*
%TO.P,R16,1*%
%TO.N,GND*%
X65272500Y-62641000D03*
%TO.P,R16,2*%
%TO.N,PROG1*%
X67097500Y-62641000D03*
%TD*%
%TO.P,R17,1*%
%TO.N,GND*%
X68922500Y-59974000D03*
%TO.P,R17,2*%
%TO.N,PROG3*%
X70747500Y-59974000D03*
%TD*%
%TO.P,R15,1*%
%TO.N,GND*%
X72700500Y-60923000D03*
%TO.P,R15,2*%
%TO.N,THERM*%
X74525500Y-60923000D03*
%TD*%
D17*
%TO.P,LED4,1*%
%TO.N,N_LED4*%
X69164500Y-62024000D03*
%TO.P,LED4,2*%
%TO.N,VBUS*%
X71039500Y-62024000D03*
%TD*%
D16*
%TO.P,R8,1*%
%TO.N,N_LED4*%
X72350500Y-57275000D03*
%TO.P,R8,2*%
%TO.N,STAT1*%
X74175500Y-57275000D03*
%TD*%
D17*
%TO.P,LED3,1*%
%TO.N,N_LED3*%
X76557500Y-52670000D03*
%TO.P,LED3,2*%
%TO.N,VBUS*%
X78432500Y-52670000D03*
%TD*%
D16*
%TO.P,R14,1*%
%TO.N,N_LED3*%
X76696500Y-56611000D03*
%TO.P,R14,2*%
%TO.N,STAT2*%
X78521500Y-56611000D03*
%TD*%
D18*
%TO.P,R41,1*%
%TO.N,BATP*%
X68893500Y-72195000D03*
%TO.P,R41,2*%
%TO.N,VLIPO*%
X71818500Y-72195000D03*
%TD*%
D19*
%TO.P,U3,1*%
%TO.N,V33*%
X71518000Y-48200000D03*
%TO.P,U3,2*%
%TO.N,GND*%
X71518000Y-48700000D03*
%TO.P,U3,3*%
%TO.N,unconnected-(U3-~{Alert}-Pad3)*%
X71518000Y-49200000D03*
%TO.P,U3,4*%
%TO.N,SDA*%
X71518000Y-49700000D03*
%TO.P,U3,5*%
%TO.N,SCL*%
X71518000Y-50200000D03*
%TO.P,U3,6*%
%TO.N,V33*%
X75818000Y-50200000D03*
%TO.P,U3,7*%
%TO.N,GND*%
X75818000Y-49700000D03*
%TO.P,U3,8*%
%TO.N,VLIPO*%
X75818000Y-49200000D03*
%TO.P,U3,9*%
X75818000Y-48700000D03*
%TO.P,U3,10*%
%TO.N,BATP*%
X75818000Y-48200000D03*
%TD*%
D11*
%TO.P,C41,1*%
%TO.N,V33*%
X72735000Y-53475000D03*
%TO.P,C41,2*%
%TO.N,GND*%
X74635000Y-53475000D03*
%TD*%
D16*
%TO.P,R42,1*%
%TO.N,V33*%
X77829500Y-50225000D03*
%TO.P,R42,2*%
%TO.N,SDA*%
X79654500Y-50225000D03*
%TD*%
%TO.P,R43,1*%
%TO.N,V33*%
X90821500Y-72195000D03*
%TO.P,R43,2*%
%TO.N,SCL*%
X92646500Y-72195000D03*
%TD*%
D20*
%TO.P,U1,1*%
%TO.N,V5*%
X84035500Y-48139000D03*
%TO.P,U1,2*%
%TO.N,unconnected-(U1-NC-Pad2)*%
X84035500Y-48789000D03*
%TO.P,U1,3*%
%TO.N,SW*%
X84035500Y-49439000D03*
%TO.P,U1,4*%
X84035500Y-50089000D03*
D21*
%TO.P,U1,5*%
%TO.N,GND*%
X85023000Y-51076500D03*
%TO.P,U1,6*%
X85673000Y-51076500D03*
%TO.P,U1,7*%
X86323000Y-51076500D03*
%TO.P,U1,8*%
%TO.N,VSYS*%
X86973000Y-51076500D03*
D20*
%TO.P,U1,9*%
%TO.N,LBI*%
X87960500Y-50089000D03*
%TO.P,U1,10*%
%TO.N,GND*%
X87960500Y-49439000D03*
%TO.P,U1,11*%
%TO.N,EN*%
X87960500Y-48789000D03*
%TO.P,U1,12*%
%TO.N,LBO*%
X87960500Y-48139000D03*
D21*
%TO.P,U1,13*%
%TO.N,GND*%
X86973000Y-47151500D03*
%TO.P,U1,14*%
%TO.N,FB*%
X86323000Y-47151500D03*
%TO.P,U1,15*%
%TO.N,V5*%
X85673000Y-47151500D03*
%TO.P,U1,16*%
X85023000Y-47151500D03*
D22*
%TO.P,U1,17*%
%TO.N,GND*%
X85998000Y-49114000D03*
%TD*%
D23*
%TO.P,L1,1*%
%TO.N,VSYS*%
X77747000Y-47016000D03*
%TO.P,L1,2*%
%TO.N,SW*%
X80747000Y-47016000D03*
%TD*%
D11*
%TO.P,C1,1*%
%TO.N,VSYS*%
X76285000Y-54647000D03*
%TO.P,C1,2*%
%TO.N,GND*%
X78185000Y-54647000D03*
%TD*%
%TO.P,C4,1*%
%TO.N,VSYS*%
X80074000Y-53062000D03*
%TO.P,C4,2*%
%TO.N,GND*%
X81974000Y-53062000D03*
%TD*%
D24*
%TO.P,C2,1*%
%TO.N,V5*%
X84509000Y-55432000D03*
%TO.P,C2,2*%
%TO.N,GND*%
X84509000Y-53532000D03*
%TD*%
D25*
%TO.P,C6,1*%
%TO.N,V5*%
X91734000Y-57030000D03*
%TO.P,C6,2*%
%TO.N,GND*%
X91734000Y-54080000D03*
%TD*%
%TO.P,C9,1*%
%TO.N,V5*%
X94862000Y-57030000D03*
%TO.P,C9,2*%
%TO.N,GND*%
X94862000Y-54080000D03*
%TD*%
D15*
%TO.P,R3,1*%
%TO.N,V5*%
X88605000Y-56467500D03*
%TO.P,R3,2*%
%TO.N,FB*%
X88605000Y-54642500D03*
%TD*%
%TO.P,R4,1*%
%TO.N,FB*%
X89603000Y-60761500D03*
%TO.P,R4,2*%
%TO.N,GND*%
X89603000Y-58936500D03*
%TD*%
D16*
%TO.P,R1,1*%
%TO.N,VSYS*%
X75748500Y-58782000D03*
%TO.P,R1,2*%
%TO.N,LBI*%
X77573500Y-58782000D03*
%TD*%
%TO.P,R2,1*%
%TO.N,LBI*%
X79260500Y-58552000D03*
%TO.P,R2,2*%
%TO.N,GND*%
X81085500Y-58552000D03*
%TD*%
%TO.P,R13,1*%
%TO.N,VSYS*%
X91341500Y-59650000D03*
%TO.P,R13,2*%
%TO.N,EN*%
X93166500Y-59650000D03*
%TD*%
D26*
%TO.P,Q1,1*%
%TO.N,LBO*%
X81142500Y-60296000D03*
%TO.P,Q1,2*%
%TO.N,VSYS*%
X81142500Y-62196000D03*
%TO.P,Q1,3*%
%TO.N,N_Q1C*%
X83017500Y-61246000D03*
%TD*%
D16*
%TO.P,R20,1*%
%TO.N,N_Q1C*%
X83000500Y-64047000D03*
%TO.P,R20,2*%
%TO.N,N_LED1*%
X84825500Y-64047000D03*
%TD*%
D17*
%TO.P,LED1,1*%
%TO.N,GND*%
X86625500Y-63070000D03*
%TO.P,LED1,2*%
%TO.N,N_LED1*%
X88500500Y-63070000D03*
%TD*%
D16*
%TO.P,R5,1*%
%TO.N,V5*%
X82656500Y-58568000D03*
%TO.P,R5,2*%
%TO.N,N_LED2*%
X84481500Y-58568000D03*
%TD*%
D17*
%TO.P,LED2,1*%
%TO.N,GND*%
X86033500Y-59313000D03*
%TO.P,LED2,2*%
%TO.N,N_LED2*%
X87908500Y-59313000D03*
%TD*%
D27*
%TO.P,C31,1*%
%TO.N,V5*%
X57590000Y-43300000D03*
%TO.P,C31,2*%
%TO.N,GND*%
X57590000Y-45200000D03*
%TD*%
D10*
%TO.P,R32,1*%
%TO.N,BASE*%
X62050000Y-48817500D03*
%TO.P,R32,2*%
%TO.N,GND*%
X62050000Y-50642500D03*
%TD*%
%TO.P,R31,1*%
%TO.N,IN*%
X62100000Y-52327500D03*
%TO.P,R31,2*%
%TO.N,BASE*%
X62100000Y-54152500D03*
%TD*%
D28*
%TO.P,D31,1*%
%TO.N,V5*%
X55023000Y-58700000D03*
%TO.P,D31,2*%
%TO.N,COL*%
X55023000Y-62000000D03*
%TD*%
D29*
%TO.P,Q31,1*%
%TO.N,BASE*%
X58973000Y-60807500D03*
%TO.P,Q31,2*%
%TO.N,GND*%
X57073000Y-60807500D03*
%TO.P,Q31,3*%
%TO.N,COL*%
X58023000Y-62682500D03*
%TD*%
D27*
%TO.P,C32,1*%
%TO.N,EN*%
X82400000Y-54817000D03*
%TO.P,C32,2*%
%TO.N,GND*%
X82400000Y-56717000D03*
%TD*%
D30*
%TO.P,U4,1*%
%TO.N,V33*%
X103225000Y-61695000D03*
%TO.P,U4,2*%
X103225000Y-62965000D03*
%TO.P,U4,3*%
%TO.N,unconnected-(U4-OUT-Pad3)*%
X103225000Y-64235000D03*
%TO.P,U4,4*%
%TO.N,GND*%
X103225000Y-65505000D03*
%TO.P,U4,5*%
%TO.N,unconnected-(U4-PGO-Pad5)*%
X108175000Y-65505000D03*
%TO.P,U4,6*%
%TO.N,SDA*%
X108175000Y-64235000D03*
%TO.P,U4,7*%
%TO.N,SCL*%
X108175000Y-62965000D03*
%TO.P,U4,8*%
%TO.N,GND*%
X108175000Y-61695000D03*
%TD*%
D11*
%TO.P,C42,1*%
%TO.N,V33*%
X96550000Y-63600000D03*
%TO.P,C42,2*%
%TO.N,GND*%
X98450000Y-63600000D03*
%TD*%
D31*
%TO.P,J4,1*%
%TO.N,SPKP*%
X116300000Y-69350000D03*
D32*
%TO.P,J4,2*%
%TO.N,SPKM*%
X114300000Y-69350000D03*
%TD*%
D33*
%TO.P,J5,1*%
%TO.N,SPKM*%
X51950000Y-59300000D03*
D34*
%TO.P,J5,2*%
%TO.N,SPKO*%
X51950000Y-61300000D03*
%TD*%
D35*
%TO.P,J6,1*%
%TO.N,GND*%
X56500000Y-47950000D03*
D32*
%TO.P,J6,2*%
%TO.N,BTN*%
X58500000Y-47950000D03*
%TD*%
D35*
%TO.P,J7,1*%
%TO.N,EN*%
X100500000Y-43750000D03*
D32*
%TO.P,J7,2*%
%TO.N,GND*%
X102500000Y-43750000D03*
%TO.P,J7,3*%
%TO.N,EN*%
X104500000Y-43750000D03*
%TO.P,J7,4*%
%TO.N,GND*%
X106500000Y-43750000D03*
%TD*%
D33*
%TO.P,J10,1*%
%TO.N,GND*%
X43550000Y-50850000D03*
D34*
%TO.P,J10,2*%
%TO.N,BATP*%
X43550000Y-52850000D03*
%TD*%
D36*
%TO.P,J1,1*%
%TO.N,V5*%
X41770000Y-65595000D03*
D37*
%TO.P,J1,2*%
%TO.N,GND*%
X44310000Y-65595000D03*
%TO.P,J1,3*%
%TO.N,V33*%
X46850000Y-65595000D03*
%TO.P,J1,4*%
%TO.N,SDA*%
X49390000Y-65595000D03*
%TO.P,J1,5*%
%TO.N,SCL*%
X51930000Y-65595000D03*
%TO.P,J1,6*%
%TO.N,BTN*%
X54470000Y-65595000D03*
%TO.P,J1,7*%
%TO.N,IN*%
X57010000Y-65595000D03*
%TD*%
D36*
%TO.P,J2,1*%
%TO.N,GND*%
X77240000Y-72630000D03*
D37*
%TO.P,J2,2*%
%TO.N,V33*%
X79780000Y-72630000D03*
%TO.P,J2,3*%
%TO.N,SCL*%
X82320000Y-72630000D03*
%TO.P,J2,4*%
%TO.N,SDA*%
X84860000Y-72630000D03*
%TD*%
D38*
%TO.P,J13,A1*%
%TO.N,GND*%
X115859000Y-54650000D03*
%TO.P,J13,A4*%
%TO.N,VBUS*%
X115859000Y-53850000D03*
D39*
%TO.P,J13,A5*%
%TO.N,CC1*%
X115859000Y-52650000D03*
%TO.P,J13,A6*%
%TO.N,unconnected-(J13-D+-PadA6)*%
X115859000Y-51650000D03*
%TO.P,J13,A7*%
%TO.N,unconnected-(J13-D--PadA7)*%
X115859000Y-51150000D03*
%TO.P,J13,A8*%
%TO.N,unconnected-(J13-SBU1-PadA8)*%
X115859000Y-50150000D03*
D38*
%TO.P,J13,A9*%
%TO.N,VBUS*%
X115859000Y-48950000D03*
%TO.P,J13,A12*%
%TO.N,GND*%
X115859000Y-48150000D03*
%TO.P,J13,B1*%
X115859000Y-48150000D03*
%TO.P,J13,B4*%
%TO.N,VBUS*%
X115859000Y-48950000D03*
D39*
%TO.P,J13,B5*%
%TO.N,CC2*%
X115859000Y-49650000D03*
%TO.P,J13,B6*%
%TO.N,unconnected-(J13-D+-PadB6)*%
X115859000Y-50650000D03*
%TO.P,J13,B7*%
%TO.N,unconnected-(J13-D--PadB7)*%
X115859000Y-52150000D03*
%TO.P,J13,B8*%
%TO.N,unconnected-(J13-SBU2-PadB8)*%
X115859000Y-53150000D03*
D38*
%TO.P,J13,B9*%
%TO.N,VBUS*%
X115859000Y-53850000D03*
%TO.P,J13,B12*%
%TO.N,GND*%
X115859000Y-54650000D03*
D40*
%TO.P,J13,SH*%
X116774000Y-55720000D03*
X116774000Y-47080000D03*
%TD*%
D41*
%TO.P,K31,1*%
%TO.N,V5*%
X97650000Y-58250000D03*
%TO.P,K31,3*%
%TO.N,unconnected-(K31-Pad3)*%
X102730000Y-58250000D03*
%TO.P,K31,4*%
%TO.N,SPKP*%
X105270000Y-58250000D03*
%TO.P,K31,5*%
%TO.N,SPKO*%
X107810000Y-58250000D03*
%TO.P,K31,8*%
%TO.N,unconnected-(K31-Pad8)*%
X107810000Y-50250000D03*
%TO.P,K31,9*%
%TO.N,unconnected-(K31-Pad9)*%
X105270000Y-50250000D03*
%TO.P,K31,10*%
%TO.N,unconnected-(K31-Pad10)*%
X102730000Y-50250000D03*
%TO.P,K31,12*%
%TO.N,COL*%
X97650000Y-50250000D03*
%TD*%
D42*
%TO.N,BATP*%
X74640600Y-47217600D03*
X54073000Y-71860000D03*
%TO.N,CC1*%
X94011900Y-65308400D03*
X117382000Y-52749800D03*
%TO.N,CC2*%
X93868500Y-61090000D03*
X113775100Y-49901700D03*
%TO.N,COL*%
X58875300Y-62682500D03*
X96619800Y-48898300D03*
%TO.N,EN*%
X84325400Y-56845700D03*
X94250400Y-59650000D03*
X88945200Y-49013500D03*
%TO.N,FB*%
X88316500Y-60664400D03*
X87348900Y-54643000D03*
X86633600Y-46177600D03*
%TO.N,GND*%
X67853600Y-60252300D03*
%TO.N,IN*%
X60827800Y-52327500D03*
%TO.N,LBI*%
X79449300Y-59833000D03*
X88625100Y-50836300D03*
%TO.N,LBO*%
X82434500Y-60296300D03*
X89147500Y-47925300D03*
%TO.N,N_LED4*%
X69841500Y-57275000D03*
X69904100Y-63272600D03*
%TO.N,PROG1*%
X71790900Y-51712600D03*
X77268600Y-64246400D03*
%TO.N,PROG3*%
X71522700Y-52688200D03*
X72254700Y-58804400D03*
%TO.N,SCL*%
X73805900Y-51620600D03*
X93745200Y-71860000D03*
X106591200Y-62965000D03*
%TO.N,SDA*%
X72828100Y-50561600D03*
X106630000Y-64235000D03*
X80748900Y-50272300D03*
%TO.N,SPKO*%
X92994500Y-69695600D03*
X105901300Y-59914200D03*
%TO.N,SPKP*%
X104296000Y-59699600D03*
%TO.N,STAT1*%
X67816100Y-54907100D03*
X69119600Y-55212800D03*
%TO.N,STAT2*%
X66864300Y-54713600D03*
X79590300Y-56610900D03*
%TO.N,THERM*%
X73314200Y-59650600D03*
X65938100Y-53484200D03*
%TO.N,V33*%
X72899600Y-48314600D03*
X89732600Y-72519200D03*
X101681900Y-62942500D03*
%TO.N,V5*%
X55023400Y-57688300D03*
X58846400Y-44051700D03*
X89938600Y-56790000D03*
X83064700Y-48139500D03*
%TO.N,VBUS*%
X66098700Y-55791300D03*
X69078700Y-48035200D03*
X76924200Y-51417600D03*
X72052700Y-63021700D03*
%TO.N,VLIPO*%
X64187800Y-51673600D03*
X72963000Y-72194700D03*
%TO.N,VPCC*%
X62224300Y-64127200D03*
X61433500Y-57712400D03*
%TO.N,VSYS*%
X75668500Y-46142600D03*
X66148500Y-50071100D03*
X75627500Y-57085700D03*
X80074700Y-54359900D03*
X80076100Y-61430500D03*
X88097900Y-57674400D03*
X87286600Y-52054400D03*
D43*
%TO.N,GND*%
X41000000Y-76400000D03*
X41000000Y-73200000D03*
X41000000Y-70000000D03*
X41000000Y-63600000D03*
X41000000Y-60400000D03*
X41000000Y-57200000D03*
X41000000Y-54000000D03*
X41000000Y-50800000D03*
X41000000Y-47600000D03*
X44200000Y-76400000D03*
X44200000Y-70000000D03*
X44200000Y-60400000D03*
X44200000Y-57200000D03*
X44200000Y-47600000D03*
X47400000Y-76400000D03*
X47400000Y-73200000D03*
X47400000Y-70000000D03*
X47400000Y-63600000D03*
X47400000Y-54000000D03*
X47400000Y-47600000D03*
X47400000Y-44400000D03*
X47400000Y-41200000D03*
X50600000Y-76400000D03*
X50600000Y-73200000D03*
X50600000Y-57200000D03*
X50600000Y-54000000D03*
X50600000Y-47600000D03*
X50600000Y-41200000D03*
X53800000Y-76400000D03*
X53800000Y-73200000D03*
X53800000Y-57200000D03*
X53800000Y-54000000D03*
X53800000Y-47600000D03*
X53800000Y-44400000D03*
X53800000Y-41200000D03*
X57000000Y-76400000D03*
X57000000Y-73200000D03*
X57000000Y-41200000D03*
X60200000Y-76400000D03*
X60200000Y-73200000D03*
X60200000Y-47600000D03*
X60200000Y-41200000D03*
X63400000Y-76400000D03*
X63400000Y-73200000D03*
X63400000Y-66800000D03*
X63400000Y-47600000D03*
X63400000Y-41200000D03*
X66600000Y-76400000D03*
X66600000Y-73200000D03*
X66600000Y-57200000D03*
X66600000Y-41200000D03*
X69800000Y-76400000D03*
X69800000Y-41200000D03*
X73000000Y-76400000D03*
X73000000Y-41200000D03*
X76200000Y-76400000D03*
X76200000Y-66800000D03*
X76200000Y-41200000D03*
X79400000Y-76400000D03*
X79400000Y-66800000D03*
X79400000Y-41200000D03*
X82600000Y-76400000D03*
X82600000Y-50800000D03*
X82600000Y-41200000D03*
X85800000Y-76400000D03*
X85800000Y-44400000D03*
X85800000Y-41200000D03*
X89000000Y-76400000D03*
X89000000Y-66800000D03*
X89000000Y-44400000D03*
X89000000Y-41200000D03*
X92200000Y-76400000D03*
X92200000Y-44400000D03*
X92200000Y-41200000D03*
X95400000Y-76400000D03*
X95400000Y-44400000D03*
X95400000Y-41200000D03*
X98600000Y-76400000D03*
X98600000Y-70000000D03*
X98600000Y-44400000D03*
X98600000Y-41200000D03*
X101800000Y-76400000D03*
X101800000Y-73200000D03*
X101800000Y-66800000D03*
X101800000Y-47600000D03*
X101800000Y-41200000D03*
X105000000Y-76400000D03*
X105000000Y-73200000D03*
X105000000Y-70000000D03*
X105000000Y-47600000D03*
X105000000Y-41200000D03*
X108200000Y-76400000D03*
X108200000Y-73200000D03*
X108200000Y-70000000D03*
X108200000Y-66800000D03*
X108200000Y-47600000D03*
X108200000Y-41200000D03*
X111400000Y-76400000D03*
X111400000Y-70000000D03*
X111400000Y-66800000D03*
X111400000Y-57200000D03*
X111400000Y-41200000D03*
X114600000Y-76400000D03*
X114600000Y-73200000D03*
X114600000Y-63600000D03*
X114600000Y-60400000D03*
X114600000Y-44400000D03*
X114600000Y-41200000D03*
X117800000Y-76400000D03*
X117800000Y-73200000D03*
X117800000Y-70000000D03*
X117800000Y-66800000D03*
X117800000Y-63600000D03*
X117800000Y-60400000D03*
X117800000Y-50800000D03*
X121000000Y-76400000D03*
X121000000Y-73200000D03*
X121000000Y-70000000D03*
X121000000Y-66800000D03*
X121000000Y-63600000D03*
X121000000Y-60400000D03*
X121000000Y-57200000D03*
X121000000Y-54000000D03*
X121000000Y-50800000D03*
X121000000Y-47600000D03*
%TD*%
%TO.N,BASE*%
D44*
X62100000Y-54152500D02*
X62100000Y-53388300D01*
X62100000Y-53388300D02*
X62673200Y-53388300D01*
X62673200Y-53388300D02*
X63086800Y-52974700D01*
X63086800Y-52974700D02*
X63086800Y-48902600D01*
X63086800Y-48902600D02*
X63001700Y-48817500D01*
X62100000Y-54152500D02*
X62100000Y-54916700D01*
X58973400Y-60807500D02*
X59525100Y-60807500D01*
X59629800Y-60151100D02*
X59525100Y-60255800D01*
X59525100Y-60255800D02*
X59525100Y-60807500D01*
D45*
X60021000Y-59975900D02*
X59845800Y-60151100D01*
X59845800Y-60151100D02*
X59629800Y-60151100D01*
D44*
X60021000Y-59625900D02*
X60021000Y-59975900D01*
D45*
X60021000Y-57403300D02*
X60021000Y-59625900D01*
D44*
X62100000Y-54916700D02*
X60021000Y-56995700D01*
X60021000Y-56995700D02*
X60021000Y-57403300D01*
X63000200Y-48817500D02*
X63001700Y-48817500D01*
X62913400Y-48817500D02*
X63000200Y-48817500D01*
X62050000Y-48817500D02*
X62913400Y-48817500D01*
%TO.N,BATP*%
X74840600Y-48200000D02*
X74840600Y-47417600D01*
X74840600Y-47417600D02*
X74640600Y-47217600D01*
X75817300Y-48200000D02*
X74840600Y-48200000D01*
X68079700Y-72194700D02*
X67745000Y-71860000D01*
X67745000Y-71860000D02*
X54073000Y-71860000D01*
X68893900Y-72194700D02*
X68079700Y-72194700D01*
%TO.N,CC1*%
X93696700Y-65480000D02*
X93868300Y-65308400D01*
X93868300Y-65308400D02*
X94011900Y-65308400D01*
D45*
X116810700Y-52650000D02*
X116910500Y-52749800D01*
X116910500Y-52749800D02*
X117382000Y-52749800D01*
D44*
X92745000Y-65480000D02*
X93696700Y-65480000D01*
D45*
X115859000Y-52650000D02*
X116810700Y-52650000D01*
%TO.N,CC2*%
D44*
X114567400Y-49749800D02*
X114415500Y-49901700D01*
X114415500Y-49901700D02*
X113775100Y-49901700D01*
X93868500Y-61090000D02*
X93696700Y-61261800D01*
X93696700Y-61261800D02*
X93696700Y-61970000D01*
X92745000Y-61970000D02*
X93696700Y-61970000D01*
D45*
X115859000Y-49650000D02*
X114907300Y-49650000D01*
X114567400Y-49749800D02*
X114807500Y-49749800D01*
X114807500Y-49749800D02*
X114907300Y-49650000D01*
%TO.N,COL*%
D44*
X58575100Y-62682500D02*
X58875300Y-62682500D01*
X58023400Y-62682500D02*
X58575100Y-62682500D01*
X58023400Y-62682500D02*
X57471700Y-62682500D01*
X55023400Y-62000000D02*
X56789200Y-62000000D01*
X56789200Y-62000000D02*
X57471700Y-62682500D01*
X96619800Y-48898300D02*
X97650000Y-48898300D01*
X97650000Y-50250000D02*
X97650000Y-48898300D01*
%TO.N,EN*%
D45*
X88600100Y-48789500D02*
X88824100Y-49013500D01*
X88824100Y-49013500D02*
X88945200Y-49013500D01*
D44*
X82399600Y-55569100D02*
X83048800Y-55569100D01*
X83048800Y-55569100D02*
X84325400Y-56845700D01*
X93931100Y-59650000D02*
X94250400Y-59650000D01*
X82399600Y-54817400D02*
X82399600Y-55569100D01*
X93166900Y-59650000D02*
X93931100Y-59650000D01*
D45*
X87960900Y-48789500D02*
X88600100Y-48789500D01*
%TO.N,FB*%
D44*
X87653700Y-54643000D02*
X87348900Y-54643000D01*
X86633600Y-46177600D02*
X86323400Y-46487800D01*
X88316500Y-60664400D02*
X88555000Y-60664400D01*
X88555000Y-60664400D02*
X88652600Y-60762000D01*
X89604300Y-60762000D02*
X88652600Y-60762000D01*
X88605400Y-54643000D02*
X87653700Y-54643000D01*
X86323400Y-47152000D02*
X86323400Y-46487800D01*
%TO.N,GND*%
X76794000Y-49700000D02*
X76794000Y-47895900D01*
X76794000Y-47895900D02*
X75915100Y-47017000D01*
X75915100Y-47017000D02*
X75546100Y-47017000D01*
X75546100Y-47017000D02*
X75148300Y-46619200D01*
X75148300Y-46619200D02*
X74963800Y-46619200D01*
X74963800Y-46619200D02*
X74910500Y-46565900D01*
X74910500Y-46565900D02*
X74370800Y-46565900D01*
X74370800Y-46565900D02*
X74367500Y-46569200D01*
X74367500Y-46569200D02*
X74367400Y-46569200D01*
X74367400Y-46569200D02*
X74140400Y-46342200D01*
X74140400Y-46342200D02*
X73741500Y-46342200D01*
X73741500Y-46342200D02*
X73683100Y-46283800D01*
X73683100Y-46283800D02*
X73683100Y-45894000D01*
X75817300Y-49700000D02*
X74840600Y-49700000D01*
X74840600Y-49700000D02*
X73551300Y-48410700D01*
X73551300Y-48410700D02*
X73551300Y-48044700D01*
X73551300Y-48044700D02*
X73169500Y-47662900D01*
X73169500Y-47662900D02*
X70781600Y-47662900D01*
X70781600Y-47662900D02*
X70540600Y-47903900D01*
X70540600Y-47903900D02*
X70540600Y-48700000D01*
X73376200Y-54451700D02*
X74975700Y-56051200D01*
X74975700Y-56051200D02*
X74975700Y-58049300D01*
X74975700Y-58049300D02*
X74601200Y-58423800D01*
X74601200Y-58423800D02*
X73558700Y-58423800D01*
X73558700Y-58423800D02*
X72632100Y-59350400D01*
X72632100Y-59350400D02*
X72632100Y-59903500D01*
X72632100Y-59903500D02*
X72699900Y-59971300D01*
X71517300Y-48700000D02*
X70540600Y-48700000D01*
X71015300Y-45791000D02*
X69789900Y-44565600D01*
X69789900Y-44565600D02*
X59849800Y-44565600D01*
X59849800Y-44565600D02*
X58463700Y-45951700D01*
X58463700Y-45951700D02*
X57590000Y-45951700D01*
X72699900Y-60923000D02*
X73674400Y-61897500D01*
X73674400Y-61897500D02*
X78306400Y-61897500D01*
X78306400Y-61897500D02*
X80101000Y-60102900D01*
X80101000Y-60102900D02*
X80101000Y-59845000D01*
X80101000Y-59845000D02*
X80610500Y-59335500D01*
X80610500Y-59335500D02*
X81848400Y-59335500D01*
X72699900Y-60923000D02*
X72699900Y-59971300D01*
X56500000Y-46823300D02*
X56718400Y-46823300D01*
X56718400Y-46823300D02*
X57590000Y-45951700D01*
X71015300Y-45791000D02*
X71015300Y-45894000D01*
X73871100Y-45894000D02*
X73871100Y-45649300D01*
X73871100Y-45649300D02*
X73139100Y-44917300D01*
X73139100Y-44917300D02*
X71889000Y-44917300D01*
X71889000Y-44917300D02*
X71015300Y-45791000D01*
X102500000Y-43750000D02*
X101648300Y-43750000D01*
X101648300Y-43750000D02*
X101648300Y-44495200D01*
X101648300Y-44495200D02*
X98991500Y-47152000D01*
X98991500Y-47152000D02*
X86973400Y-47152000D01*
X73871100Y-45894000D02*
X73683100Y-45894000D01*
X74059000Y-45894000D02*
X73871100Y-45894000D01*
X73376200Y-54451700D02*
X73883100Y-53944800D01*
X73883100Y-53944800D02*
X73883100Y-53475000D01*
X70477300Y-52798200D02*
X70477300Y-52884300D01*
X70477300Y-52884300D02*
X72044700Y-54451700D01*
X72044700Y-54451700D02*
X73376200Y-54451700D01*
X89604300Y-58937000D02*
X89604300Y-59701200D01*
X90566900Y-62118300D02*
X90566900Y-60090700D01*
X90566900Y-60090700D02*
X90177400Y-59701200D01*
X90177400Y-59701200D02*
X89604300Y-59701200D01*
X90566900Y-62118300D02*
X86625100Y-62118300D01*
X92745000Y-63030800D02*
X91479400Y-63030800D01*
X91479400Y-63030800D02*
X90566900Y-62118300D01*
X86031300Y-59312700D02*
X86031300Y-60264400D01*
X82399600Y-56717400D02*
X82399600Y-55965700D01*
X82399600Y-55965700D02*
X81647900Y-55965700D01*
X81647900Y-55965700D02*
X81323500Y-55641300D01*
X81323500Y-55641300D02*
X79179000Y-55641300D01*
X79179000Y-55641300D02*
X78184800Y-54647100D01*
X56292500Y-50850000D02*
X56500000Y-50642500D01*
X43550000Y-50850000D02*
X56292500Y-50850000D01*
X56292500Y-50850000D02*
X56292500Y-60578300D01*
X56292500Y-60578300D02*
X56521700Y-60807500D01*
X67853600Y-60252300D02*
X68527000Y-60925700D01*
X68527000Y-60925700D02*
X71933000Y-60925700D01*
X71933000Y-60925700D02*
X71935700Y-60923000D01*
X72699900Y-60923000D02*
X71935700Y-60923000D01*
X67853600Y-60252300D02*
X66036900Y-62069000D01*
X66036900Y-62069000D02*
X66036900Y-62640600D01*
X115478600Y-55720000D02*
X109503600Y-61695000D01*
X109503600Y-61695000D02*
X108175000Y-61695000D01*
X116774000Y-55720000D02*
X116123200Y-55720000D01*
X115478600Y-55720000D02*
X115472300Y-55720000D01*
X116123200Y-55720000D02*
X115478600Y-55720000D01*
X69813100Y-52798200D02*
X70477300Y-52798200D01*
X74634800Y-53475000D02*
X73883100Y-53475000D01*
X69813100Y-52798200D02*
X68875600Y-53735700D01*
X57590000Y-45200000D02*
X57590000Y-45951700D01*
X74434800Y-45894000D02*
X74167900Y-45894000D01*
X74059000Y-45894000D02*
X74167900Y-45894000D01*
X86031300Y-60264400D02*
X86031300Y-61524500D01*
X86031300Y-61524500D02*
X86625100Y-62118300D01*
X81848400Y-59335500D02*
X82049700Y-59536800D01*
X82049700Y-59536800D02*
X85180100Y-59536800D01*
X85180100Y-59536800D02*
X85292100Y-59424800D01*
X85292100Y-59424800D02*
X85292100Y-59312700D01*
X81848400Y-58551900D02*
X81848400Y-59335500D01*
X75817300Y-49700000D02*
X76794000Y-49700000D01*
X65272700Y-62640600D02*
X66036900Y-62640600D01*
X92745000Y-63795000D02*
X92745000Y-63030800D01*
X114882300Y-54650000D02*
X96583400Y-54650000D01*
X96583400Y-54650000D02*
X96013900Y-54080500D01*
X94862200Y-54080500D02*
X96013900Y-54080500D01*
X115472300Y-55720000D02*
X114882300Y-55130000D01*
X114882300Y-55130000D02*
X114882300Y-54650000D01*
X56500000Y-50642500D02*
X56500000Y-47950000D01*
X56500000Y-50642500D02*
X61098300Y-50642500D01*
X68158300Y-59974000D02*
X67880000Y-60252300D01*
X67880000Y-60252300D02*
X67853600Y-60252300D01*
X98131100Y-64785200D02*
X96820800Y-64785200D01*
X96820800Y-64785200D02*
X96296000Y-65310000D01*
X96296000Y-65310000D02*
X95400400Y-65310000D01*
X95400400Y-65310000D02*
X95306000Y-65404300D01*
X60971200Y-62302200D02*
X60971200Y-63066400D01*
X57073400Y-60807500D02*
X56521700Y-60807500D01*
X55873600Y-61299800D02*
X56029400Y-61299800D01*
X56029400Y-61299800D02*
X56521700Y-60807500D01*
D45*
X54173200Y-63129200D02*
X54173200Y-61395100D01*
X54173200Y-61395100D02*
X54268500Y-61299800D01*
X54268500Y-61299800D02*
X55873600Y-61299800D01*
D44*
X60971200Y-63066400D02*
X60207000Y-63066400D01*
X60207000Y-63066400D02*
X59589700Y-63683700D01*
X59589700Y-63683700D02*
X54727700Y-63683700D01*
X54727700Y-63683700D02*
X54173200Y-63129200D01*
X61447100Y-62302200D02*
X60971200Y-62302200D01*
X61447100Y-62302200D02*
X61922900Y-62302200D01*
X93696700Y-63795000D02*
X95306000Y-65404300D01*
X84509600Y-53062100D02*
X84509600Y-52255000D01*
X84509600Y-52255000D02*
X85023400Y-51741200D01*
X65272700Y-62640600D02*
X62261300Y-62640600D01*
X62261300Y-62640600D02*
X61922900Y-62302200D01*
X95306000Y-65404300D02*
X93696700Y-67013700D01*
X93696700Y-67013700D02*
X93696700Y-67305000D01*
X62050000Y-50642500D02*
X61098300Y-50642500D01*
X56500000Y-47950000D02*
X56500000Y-46823300D01*
X86031300Y-59312700D02*
X85292100Y-59312700D01*
X82399600Y-57469100D02*
X82167000Y-57469100D01*
X82167000Y-57469100D02*
X81848400Y-57787700D01*
X81848400Y-57787700D02*
X81848400Y-58551900D01*
X86625100Y-63070000D02*
X86625100Y-62118300D01*
X81084200Y-58551900D02*
X81848400Y-58551900D01*
X82399600Y-56717400D02*
X82399600Y-57469100D01*
X94862200Y-54080500D02*
X91733800Y-54080500D01*
X84509600Y-53532000D02*
X84509600Y-53062100D01*
X84509600Y-53062100D02*
X82726400Y-53062100D01*
X81974700Y-53062100D02*
X82726400Y-53062100D01*
X68922500Y-59974000D02*
X68158300Y-59974000D01*
X70263600Y-45894000D02*
X71015300Y-45894000D01*
X92745000Y-63795000D02*
X93696700Y-63795000D01*
X92745000Y-67305000D02*
X93696700Y-67305000D01*
D45*
X98131100Y-64785200D02*
X98450000Y-64785200D01*
X98450000Y-64785200D02*
X99169800Y-65505000D01*
X99169800Y-65505000D02*
X102023300Y-65505000D01*
D44*
X98450000Y-64576700D02*
X98450000Y-64785200D01*
D45*
X108175000Y-61695000D02*
X106973300Y-61695000D01*
X105875900Y-62414800D02*
X106253500Y-62414800D01*
X106253500Y-62414800D02*
X106973300Y-61695000D01*
D44*
X104399600Y-63500000D02*
X104790700Y-63500000D01*
X104790700Y-63500000D02*
X105875900Y-62414800D01*
D45*
X104039600Y-63624600D02*
X104164200Y-63500000D01*
X104164200Y-63500000D02*
X104399600Y-63500000D01*
D44*
X98450000Y-63600000D02*
X104015000Y-63600000D01*
X104015000Y-63600000D02*
X104039600Y-63624600D01*
X98450000Y-63600000D02*
X98450000Y-64576700D01*
D45*
X103225000Y-65505000D02*
X102023300Y-65505000D01*
D44*
X115859000Y-48150000D02*
X114882300Y-48150000D01*
X116774000Y-47080000D02*
X115472300Y-47080000D01*
X115472300Y-47080000D02*
X114882300Y-47670000D01*
X114882300Y-47670000D02*
X114882300Y-48150000D01*
X115859000Y-54650000D02*
X114882300Y-54650000D01*
X85023400Y-51077000D02*
X85023400Y-51741200D01*
X86323400Y-49439500D02*
X87960900Y-49439500D01*
X85998400Y-49114500D02*
X86323400Y-49439500D01*
X86323400Y-49439500D02*
X86323400Y-50412800D01*
X86323400Y-51077000D02*
X86323400Y-50412800D01*
X86323400Y-50412800D02*
X85673400Y-50412800D01*
X85998400Y-49114500D02*
X86973400Y-48139500D01*
X86973400Y-48139500D02*
X86973400Y-47152000D01*
X85023400Y-51077000D02*
X85023400Y-50412800D01*
X85673400Y-51077000D02*
X85673400Y-50412800D01*
X85673400Y-50412800D02*
X85023400Y-50412800D01*
D45*
X69813100Y-52798200D02*
X69173900Y-52798200D01*
X68750800Y-52673400D02*
X69049100Y-52673400D01*
X69049100Y-52673400D02*
X69173900Y-52798200D01*
D44*
X67875600Y-51798200D02*
X68750800Y-52673400D01*
%TO.N,IN*%
X61148300Y-52327500D02*
X60827800Y-52327500D01*
X62100000Y-52327500D02*
X61148300Y-52327500D01*
%TO.N,LBI*%
X78495000Y-58782100D02*
X79223500Y-58782100D01*
X79223500Y-58782100D02*
X79449300Y-59007900D01*
X79449300Y-59007900D02*
X79449300Y-59833000D01*
X77956300Y-58782100D02*
X78495000Y-58782100D01*
X78495000Y-58551900D02*
X78495000Y-58782100D01*
X77574200Y-58782100D02*
X77956300Y-58782100D01*
X88625100Y-50089500D02*
X88625100Y-50836300D01*
X79259200Y-58551900D02*
X78495000Y-58551900D01*
X87960900Y-50089500D02*
X88625100Y-50089500D01*
%TO.N,LBO*%
X88625100Y-48139500D02*
X88839300Y-47925300D01*
X88839300Y-47925300D02*
X89147500Y-47925300D01*
X81142500Y-60296300D02*
X82434500Y-60296300D01*
X87960900Y-48139500D02*
X88625100Y-48139500D01*
%TO.N,N_LED1*%
X88500100Y-63070000D02*
X87760900Y-63070000D01*
X87760900Y-63070000D02*
X87760900Y-63532000D01*
X87760900Y-63532000D02*
X87246600Y-64046300D01*
X87246600Y-64046300D02*
X84825300Y-64046300D01*
%TO.N,N_LED2*%
X87167100Y-59312700D02*
X87167100Y-58828800D01*
X87167100Y-58828800D02*
X86654500Y-58316200D01*
X86654500Y-58316200D02*
X85403300Y-58316200D01*
X85403300Y-58316200D02*
X85247600Y-58471900D01*
X85247600Y-58471900D02*
X85247600Y-58567400D01*
X87906300Y-59312700D02*
X87167100Y-59312700D01*
X84483400Y-58567400D02*
X85247600Y-58567400D01*
%TO.N,N_LED3*%
X76557200Y-52670100D02*
X76557200Y-53621800D01*
X77035000Y-53671900D02*
X76984900Y-53621800D01*
X76984900Y-53621800D02*
X76557200Y-53621800D01*
D45*
X76860000Y-55623800D02*
X77035000Y-55448800D01*
X77035000Y-55448800D02*
X77035000Y-53671900D01*
D46*
X76610300Y-55798800D02*
X76785300Y-55623800D01*
X76785300Y-55623800D02*
X76860000Y-55623800D01*
D44*
X76696500Y-56610900D02*
X76610300Y-56524700D01*
X76610300Y-56524700D02*
X76610300Y-55798800D01*
%TO.N,N_LED4*%
X72350100Y-57275000D02*
X69841500Y-57275000D01*
X69904100Y-62024000D02*
X69904100Y-63272600D01*
X69164900Y-62024000D02*
X69904100Y-62024000D01*
%TO.N,N_Q1C*%
X83017500Y-61246300D02*
X83017500Y-61798000D01*
X83000300Y-64046300D02*
X83000300Y-61815200D01*
X83000300Y-61815200D02*
X83017500Y-61798000D01*
%TO.N,PROG1*%
X67861900Y-62640600D02*
X69467700Y-64246400D01*
X69467700Y-64246400D02*
X77268600Y-64246400D01*
X69813100Y-51798200D02*
X70477300Y-51798200D01*
X71790900Y-51712600D02*
X70562900Y-51712600D01*
X70562900Y-51712600D02*
X70477300Y-51798200D01*
X67097700Y-62640600D02*
X67861900Y-62640600D01*
%TO.N,PROG3*%
X71522700Y-52688200D02*
X71132700Y-52298200D01*
X71132700Y-52298200D02*
X69813100Y-52298200D01*
X71511700Y-59974000D02*
X71511700Y-59547400D01*
X71511700Y-59547400D02*
X72254700Y-58804400D01*
X70747500Y-59974000D02*
X71511700Y-59974000D01*
%TO.N,SCL*%
X73805900Y-51620600D02*
X72937900Y-51620600D01*
X72937900Y-51620600D02*
X71517300Y-50200000D01*
X82320000Y-72630000D02*
X79829400Y-70139400D01*
X79829400Y-70139400D02*
X56474400Y-70139400D01*
X56474400Y-70139400D02*
X51930000Y-65595000D01*
X82320000Y-72630000D02*
X83737500Y-71212500D01*
X83737500Y-71212500D02*
X93097700Y-71212500D01*
X93097700Y-71212500D02*
X93745200Y-71860000D01*
D45*
X106973300Y-62965000D02*
X106591200Y-62965000D01*
D44*
X93745200Y-71860000D02*
X93410500Y-72194700D01*
X92646300Y-72194700D02*
X93410500Y-72194700D01*
D45*
X108175000Y-62965000D02*
X106973300Y-62965000D01*
%TO.N,SDA*%
D44*
X72494000Y-49700000D02*
X72494000Y-50227500D01*
X72494000Y-50227500D02*
X72828100Y-50561600D01*
X71517300Y-49700000D02*
X72494000Y-49700000D01*
X79654800Y-50225000D02*
X80419000Y-50225000D01*
X84860000Y-72630000D02*
X83756800Y-73733200D01*
X83756800Y-73733200D02*
X81817000Y-73733200D01*
X81817000Y-73733200D02*
X81050000Y-72966200D01*
X81050000Y-72966200D02*
X81050000Y-72318600D01*
X81050000Y-72318600D02*
X79397500Y-70666100D01*
X79397500Y-70666100D02*
X54461100Y-70666100D01*
X54461100Y-70666100D02*
X49390000Y-65595000D01*
X106630000Y-64235000D02*
X108175000Y-64235000D01*
X80748900Y-50272300D02*
X80466300Y-50272300D01*
X80466300Y-50272300D02*
X80419000Y-50225000D01*
%TO.N,SPKM*%
X114300000Y-69350000D02*
X113448300Y-69350000D01*
X113448300Y-69350000D02*
X113096600Y-68998300D01*
X113096600Y-68998300D02*
X63506200Y-68998300D01*
X63506200Y-68998300D02*
X58693900Y-64186000D01*
X58693900Y-64186000D02*
X54670400Y-64186000D01*
X54670400Y-64186000D02*
X53095900Y-62611500D01*
X53095900Y-62611500D02*
X53095900Y-60552400D01*
X53095900Y-60552400D02*
X52695200Y-60151700D01*
X52695200Y-60151700D02*
X51950000Y-60151700D01*
X51950000Y-59300000D02*
X51950000Y-60151700D01*
%TO.N,SPKO*%
X107810000Y-59601700D02*
X107497500Y-59914200D01*
X107497500Y-59914200D02*
X105901300Y-59914200D01*
X51950000Y-61300000D02*
X51950000Y-63699100D01*
X51950000Y-63699100D02*
X53323900Y-65073000D01*
X53323900Y-65073000D02*
X53323900Y-66109700D01*
X53323900Y-66109700D02*
X56909800Y-69695600D01*
X56909800Y-69695600D02*
X92994500Y-69695600D01*
X107810000Y-58250000D02*
X107810000Y-59601700D01*
%TO.N,SPKP*%
X105270000Y-59601700D02*
X104393900Y-59601700D01*
X104393900Y-59601700D02*
X104296000Y-59699600D01*
X105270000Y-58250000D02*
X105270000Y-59601700D01*
%TO.N,STAT1*%
X73410900Y-57275000D02*
X73410900Y-56726700D01*
X73410900Y-56726700D02*
X71897000Y-55212800D01*
X71897000Y-55212800D02*
X69119600Y-55212800D01*
X67875600Y-53735700D02*
X67875600Y-54847600D01*
X67875600Y-54847600D02*
X67816100Y-54907100D01*
X74175100Y-57275000D02*
X73410900Y-57275000D01*
%TO.N,STAT2*%
X67375600Y-54399900D02*
X67061900Y-54713600D01*
X67061900Y-54713600D02*
X66864300Y-54713600D01*
X79285700Y-56610900D02*
X79590300Y-56610900D01*
X67375600Y-53735700D02*
X67375600Y-54399900D01*
X78521500Y-56610900D02*
X79285700Y-56610900D01*
%TO.N,SW*%
D45*
X80747300Y-49214700D02*
X80972100Y-49439500D01*
X80972100Y-49439500D02*
X83396700Y-49439500D01*
X84035900Y-49439500D02*
X83396700Y-49439500D01*
D44*
X80747300Y-47016000D02*
X80747300Y-49214700D01*
X84035900Y-49439500D02*
X84035900Y-50089500D01*
%TO.N,THERM*%
X73760700Y-60923000D02*
X73760700Y-60097100D01*
X73760700Y-60097100D02*
X73314200Y-59650600D01*
X65938100Y-52798200D02*
X65938100Y-53484200D01*
X74524900Y-60923000D02*
X73760700Y-60923000D01*
%TO.N,V33*%
X72899600Y-48314600D02*
X72955200Y-48314600D01*
X72955200Y-48314600D02*
X74840600Y-50200000D01*
X72899600Y-48314600D02*
X72785000Y-48200000D01*
X72785000Y-48200000D02*
X71517300Y-48200000D01*
X73486500Y-53475000D02*
X73486500Y-52861600D01*
X73486500Y-52861600D02*
X74840600Y-51507500D01*
X74840600Y-51507500D02*
X74840600Y-50200000D01*
X72734800Y-53475000D02*
X73486500Y-53475000D01*
X74929000Y-50200000D02*
X74840600Y-50200000D01*
X75817300Y-50200000D02*
X74929000Y-50200000D01*
X79780000Y-72630000D02*
X81286000Y-74136000D01*
X81286000Y-74136000D02*
X88115800Y-74136000D01*
X88115800Y-74136000D02*
X89732600Y-72519200D01*
X77829800Y-50225000D02*
X76819000Y-50225000D01*
X76819000Y-50225000D02*
X76794000Y-50200000D01*
X46850000Y-65595000D02*
X52323000Y-71068000D01*
X52323000Y-71068000D02*
X78218000Y-71068000D01*
X78218000Y-71068000D02*
X79780000Y-72630000D01*
X96550000Y-63600000D02*
X97301700Y-63600000D01*
X97699800Y-62624800D02*
X97301700Y-63022900D01*
X97301700Y-63022900D02*
X97301700Y-63600000D01*
D45*
X101681900Y-62624800D02*
X97699800Y-62624800D01*
D44*
X101681900Y-62942500D02*
X101681900Y-62624800D01*
X89732600Y-72519200D02*
X90057100Y-72194700D01*
X90821300Y-72194700D02*
X90057100Y-72194700D01*
X101681900Y-62942500D02*
X101975800Y-62942500D01*
X101975800Y-62942500D02*
X101998300Y-62965000D01*
X103225000Y-62965000D02*
X101998300Y-62965000D01*
X103225000Y-61695000D02*
X104451700Y-61695000D01*
X103225000Y-62965000D02*
X104451700Y-62965000D01*
X104451700Y-62965000D02*
X104451700Y-61695000D01*
X75817300Y-50200000D02*
X76794000Y-50200000D01*
%TO.N,V5*%
X83371700Y-48139500D02*
X83064700Y-48139500D01*
X88605400Y-56468000D02*
X89616600Y-56468000D01*
X89616600Y-56468000D02*
X89938600Y-56790000D01*
X90582100Y-57030500D02*
X90582100Y-57001000D01*
X90582100Y-57001000D02*
X90640500Y-56942600D01*
X90640500Y-56942600D02*
X92757100Y-56942600D01*
X92757100Y-56942600D02*
X92798300Y-56901400D01*
X92798300Y-56901400D02*
X92798300Y-56901300D01*
X92798300Y-56901300D02*
X92687000Y-56790000D01*
X92687000Y-56790000D02*
X89938600Y-56790000D01*
X58846400Y-44051700D02*
X82587300Y-44051700D01*
X82587300Y-44051700D02*
X85023400Y-46487800D01*
X41770000Y-65595000D02*
X42871700Y-65595000D01*
X42871700Y-65595000D02*
X42871700Y-65457300D01*
X42871700Y-65457300D02*
X49880700Y-58448300D01*
X49880700Y-58448300D02*
X54260400Y-58448300D01*
X54260400Y-58448300D02*
X54260500Y-58448400D01*
X54260500Y-58448400D02*
X54263300Y-58448400D01*
X54263300Y-58448400D02*
X55023400Y-57688300D01*
X85673400Y-46487800D02*
X85023400Y-46487800D01*
X88605400Y-56468000D02*
X87653700Y-56468000D01*
X90582100Y-57030500D02*
X88375600Y-57030500D01*
X88375600Y-57030500D02*
X88367800Y-57022700D01*
X88367800Y-57022700D02*
X87828100Y-57022700D01*
X87828100Y-57022700D02*
X87820300Y-57030500D01*
X87820300Y-57030500D02*
X86793000Y-57030500D01*
X86793000Y-57030500D02*
X86326100Y-57497400D01*
X86326100Y-57497400D02*
X83919400Y-57497400D01*
X83919400Y-57497400D02*
X83422600Y-57994200D01*
X83422600Y-57994200D02*
X83422600Y-58567400D01*
X87653700Y-56468000D02*
X87369400Y-56183700D01*
X87369400Y-56183700D02*
X84509600Y-56183700D01*
X55023400Y-58700000D02*
X55023400Y-57688300D01*
X57590000Y-44051700D02*
X58846400Y-44051700D01*
X57590000Y-43300000D02*
X57590000Y-44051700D01*
X82658400Y-58567400D02*
X83422600Y-58567400D01*
X91733800Y-57030500D02*
X90582100Y-57030500D01*
X94862200Y-57030500D02*
X91733800Y-57030500D01*
X84509600Y-55432000D02*
X84509600Y-56183700D01*
X94862200Y-57030500D02*
X96013900Y-57030500D01*
X97650000Y-58250000D02*
X97650000Y-56898300D01*
X96013900Y-57030500D02*
X96146100Y-56898300D01*
X96146100Y-56898300D02*
X97650000Y-56898300D01*
X84035900Y-48139500D02*
X83371700Y-48139500D01*
X85023400Y-47152000D02*
X85023400Y-46487800D01*
X85673400Y-47152000D02*
X85673400Y-46487800D01*
X85023400Y-47152000D02*
X84867100Y-47152000D01*
X84867100Y-47152000D02*
X84035900Y-47983200D01*
X84035900Y-47983200D02*
X84035900Y-48139500D01*
%TO.N,VBUS*%
X77693000Y-52670100D02*
X77693000Y-52186400D01*
X77693000Y-52186400D02*
X76924200Y-51417600D01*
X68375600Y-53735700D02*
X68375600Y-54399900D01*
X66125600Y-55637800D02*
X66125600Y-55764400D01*
X66125600Y-55764400D02*
X66098700Y-55791300D01*
X68375600Y-54399900D02*
X68467900Y-54492200D01*
X68467900Y-54492200D02*
X68467900Y-55202900D01*
X68467900Y-55202900D02*
X68033000Y-55637800D01*
X68033000Y-55637800D02*
X66125600Y-55637800D01*
X68363600Y-48035200D02*
X68363600Y-46870700D01*
X68363600Y-49196500D02*
X68363600Y-48035200D01*
X68363600Y-48035200D02*
X69078700Y-48035200D01*
X66125600Y-55637800D02*
X65920700Y-55432900D01*
X113114900Y-53242900D02*
X87032900Y-53242900D01*
X87032900Y-53242900D02*
X85992100Y-54283700D01*
X85992100Y-54283700D02*
X83563600Y-54283700D01*
X83563600Y-54283700D02*
X83318700Y-54038800D01*
X83318700Y-54038800D02*
X81520700Y-54038800D01*
X81520700Y-54038800D02*
X80535600Y-55023900D01*
X80535600Y-55023900D02*
X79743200Y-55023900D01*
X79743200Y-55023900D02*
X79171400Y-54452100D01*
X79171400Y-54452100D02*
X79171400Y-52670100D01*
X113472200Y-53550200D02*
X113164900Y-53242900D01*
X113164900Y-53242900D02*
X113114900Y-53242900D01*
X113114900Y-53242900D02*
X113114900Y-49607100D01*
X113114900Y-49607100D02*
X113472200Y-49249800D01*
X78432200Y-52670100D02*
X79171400Y-52670100D01*
X65938100Y-52298200D02*
X65273900Y-52298200D01*
X65273900Y-52298200D02*
X65273900Y-54786100D01*
X65273900Y-54786100D02*
X65920700Y-55432900D01*
X65920700Y-55432900D02*
X61500600Y-59853000D01*
X61500600Y-59853000D02*
X60971200Y-59853000D01*
X65938100Y-51798200D02*
X65938100Y-52298200D01*
X68363600Y-49196500D02*
X68375600Y-49196500D01*
X67875600Y-49196500D02*
X68363600Y-49196500D01*
X68363600Y-45894000D02*
X68363600Y-46870700D01*
X60971200Y-60617200D02*
X60971200Y-59853000D01*
X71039900Y-62024000D02*
X71779100Y-62024000D01*
D45*
X113472200Y-49249800D02*
X114607500Y-49249800D01*
X114607500Y-49249800D02*
X114907300Y-48950000D01*
D44*
X67375600Y-49284800D02*
X67375600Y-49198000D01*
X67875600Y-49196500D02*
X67375600Y-49196500D01*
X67375600Y-49198000D02*
X67375600Y-49196500D01*
X67375600Y-49860700D02*
X67375600Y-49284800D01*
X78432200Y-52670100D02*
X77693000Y-52670100D01*
X72052700Y-63021700D02*
X71779100Y-62748100D01*
X71779100Y-62748100D02*
X71779100Y-62024000D01*
D45*
X115859000Y-48950000D02*
X114907300Y-48950000D01*
X113472200Y-53550200D02*
X114607500Y-53550200D01*
X114607500Y-53550200D02*
X114907300Y-53850000D01*
X115859000Y-53850000D02*
X114907300Y-53850000D01*
D44*
X68375600Y-49860700D02*
X68375600Y-49196500D01*
X67875600Y-49860700D02*
X67875600Y-49196500D01*
%TO.N,VLIPO*%
X69167500Y-49196500D02*
X68875600Y-49196500D01*
X70145200Y-50798200D02*
X70145200Y-50174200D01*
X70145200Y-50174200D02*
X69167500Y-49196500D01*
X70170000Y-47407700D02*
X70170000Y-48194000D01*
X70170000Y-48194000D02*
X69167500Y-49196500D01*
X70170000Y-47407700D02*
X69213700Y-46451400D01*
X69213700Y-46451400D02*
X69213700Y-45103300D01*
X69213700Y-45103300D02*
X69027700Y-44917300D01*
X69027700Y-44917300D02*
X67759300Y-44917300D01*
X67759300Y-44917300D02*
X64187800Y-48488800D01*
X64187800Y-48488800D02*
X64187800Y-51673600D01*
X73286500Y-47145900D02*
X70431800Y-47145900D01*
X70431800Y-47145900D02*
X70170000Y-47407700D01*
X74840600Y-48700000D02*
X73286500Y-47145900D01*
X73286500Y-45894000D02*
X73286500Y-47145900D01*
X72534800Y-45894000D02*
X73286500Y-45894000D01*
X72633100Y-72194700D02*
X72963000Y-72194700D01*
X68875600Y-49860700D02*
X68875600Y-49196500D01*
X70477300Y-51298200D02*
X70477300Y-50798200D01*
X71818900Y-72194700D02*
X72633100Y-72194700D01*
X75817300Y-48700000D02*
X74840600Y-48700000D01*
X74840600Y-49200000D02*
X74840600Y-48700000D01*
X75817300Y-49200000D02*
X74840600Y-49200000D01*
X70145200Y-50798200D02*
X70477300Y-50798200D01*
X69813100Y-50798200D02*
X70145200Y-50798200D01*
X69813100Y-51298200D02*
X70477300Y-51298200D01*
%TO.N,VPCC*%
X61432300Y-57711200D02*
X64839500Y-54304000D01*
X64839500Y-54304000D02*
X64839500Y-51732600D01*
X64839500Y-51732600D02*
X65273900Y-51298200D01*
X61432300Y-57711200D02*
X61433500Y-57712400D01*
X61432300Y-57711200D02*
X61288000Y-57711200D01*
X61288000Y-57711200D02*
X60971200Y-58028000D01*
X65938100Y-51298200D02*
X65273900Y-51298200D01*
X60971200Y-64127200D02*
X62224300Y-64127200D01*
X60971200Y-58792200D02*
X60971200Y-58028000D01*
%TO.N,VSYS*%
X75749200Y-57085700D02*
X75749200Y-55891500D01*
X75749200Y-55891500D02*
X76016900Y-55623800D01*
X76016900Y-55623800D02*
X76284800Y-55623800D01*
X75749200Y-58782100D02*
X75749200Y-57085700D01*
X75749200Y-57085700D02*
X75627500Y-57085700D01*
X77747300Y-44914300D02*
X76896800Y-44914300D01*
X76896800Y-44914300D02*
X75668500Y-46142600D01*
X77747300Y-47016000D02*
X77747300Y-44914300D01*
X65938100Y-50798200D02*
X66148500Y-50587800D01*
X66148500Y-50587800D02*
X66148500Y-50071100D01*
X66148500Y-50071100D02*
X66665200Y-50071100D01*
X66665200Y-50071100D02*
X66875600Y-49860700D01*
X77747300Y-47017200D02*
X77747300Y-47016000D01*
X77747300Y-47017200D02*
X77747300Y-49117700D01*
X80074700Y-53062100D02*
X80074700Y-54359900D01*
X80074700Y-52085400D02*
X79945800Y-52085400D01*
X79945800Y-52085400D02*
X78683900Y-50823500D01*
X78683900Y-50823500D02*
X78683900Y-49453000D01*
X78683900Y-49453000D02*
X78348600Y-49117700D01*
X78348600Y-49117700D02*
X77747300Y-49117700D01*
X80074700Y-53062100D02*
X80074700Y-52085400D01*
X81142500Y-61644600D02*
X80928400Y-61430500D01*
X80928400Y-61430500D02*
X80076100Y-61430500D01*
X81142500Y-62196300D02*
X81142500Y-61644600D01*
X91341900Y-59650000D02*
X91341900Y-58698300D01*
X88097900Y-57674400D02*
X90318000Y-57674400D01*
X90318000Y-57674400D02*
X91341900Y-58698300D01*
X87286600Y-52054400D02*
X86973400Y-51741200D01*
X86973400Y-51077000D02*
X86973400Y-51741200D01*
X76284800Y-54647100D02*
X76284800Y-55623800D01*
%TD*%
M02*
