%TF.GenerationSoftware,KiCad,Pcbnew,10.0.6*%
%TF.CreationDate,2026-09-19T00:09:35+09:00*%
%TF.ProjectId,katanori61,6b617461-6e6f-4726-9936-312e6b696361,rev?*%
%TF.SameCoordinates,Original*%
%TF.FileFunction,Copper,L2,Inr*%
%TF.FilePolarity,Positive*%
%FSLAX46Y46*%
G04 Gerber Fmt 4.6, Leading zero omitted, Abs format (unit mm)*
G04 Created by KiCad (PCBNEW 10.0.6) date 2026-09-19 00:09:35*
%MOMM*%
%LPD*%
G01*
G04 APERTURE LIST*
G04 Aperture macros list*
%AMRoundRect*
0 Rectangle with rounded corners*
0 $1 Rounding radius*
0 $2 $3 $4 $5 $6 $7 $8 $9 X,Y pos of 4 corners*
0 Add a 4 corners polygon primitive as box body*
4,1,4,$2,$3,$4,$5,$6,$7,$8,$9,$2,$3,0*
0 Add four circle primitives for the rounded corners*
1,1,$1+$1,$2,$3*
1,1,$1+$1,$4,$5*
1,1,$1+$1,$6,$7*
1,1,$1+$1,$8,$9*
0 Add four rect primitives between the rounded corners*
20,1,$1+$1,$2,$3,$4,$5,0*
20,1,$1+$1,$4,$5,$6,$7,0*
20,1,$1+$1,$6,$7,$8,$9,0*
20,1,$1+$1,$8,$9,$2,$3,0*%
G04 Aperture macros list end*
%TA.AperFunction,ComponentPad*%
%ADD10RoundRect,0.250000X-0.350000X-0.625000X0.350000X-0.625000X0.350000X0.625000X-0.350000X0.625000X0*%
%TD*%
%TA.AperFunction,ComponentPad*%
%ADD11O,1.200000X1.750000*%
%TD*%
%TA.AperFunction,ComponentPad*%
%ADD12RoundRect,0.250000X-0.625000X0.350000X-0.625000X-0.350000X0.625000X-0.350000X0.625000X0.350000X0*%
%TD*%
%TA.AperFunction,ComponentPad*%
%ADD13O,1.750000X1.200000*%
%TD*%
%TA.AperFunction,ComponentPad*%
%ADD14R,1.700000X1.700000*%
%TD*%
%TA.AperFunction,ComponentPad*%
%ADD15C,1.700000*%
%TD*%
%TA.AperFunction,ComponentPad*%
%ADD16O,1.000000X2.100000*%
%TD*%
%TA.AperFunction,ComponentPad*%
%ADD17O,1.000000X1.600000*%
%TD*%
%TA.AperFunction,ViaPad*%
%ADD18C,0.600000*%
%TD*%
G04 APERTURE END LIST*
D10*
%TO.N,SPKP*%
%TO.C,J4*%
X114300000Y-67850000D03*
D11*
%TO.N,SPKM*%
X116300000Y-67850000D03*
%TD*%
D12*
%TO.N,SPKM*%
%TO.C,J5*%
X51950000Y-59300000D03*
D13*
%TO.N,SPKO*%
X51950000Y-61300000D03*
%TD*%
D10*
%TO.N,GND*%
%TO.C,J6*%
X56500000Y-46850000D03*
D11*
%TO.N,BTN*%
X58500000Y-46850000D03*
%TD*%
D10*
%TO.N,EN*%
%TO.C,J7*%
X100500000Y-43750000D03*
D11*
%TO.N,GND*%
X102500000Y-43750000D03*
%TO.N,EN*%
X104500000Y-43750000D03*
%TO.N,GND*%
X106500000Y-43750000D03*
%TD*%
D12*
%TO.N,GND*%
%TO.C,J10*%
X115700000Y-60450000D03*
D13*
%TO.N,BATRAW*%
X115700000Y-62450000D03*
%TD*%
D14*
%TO.N,V5*%
%TO.C,J1*%
X41770000Y-65595000D03*
D15*
%TO.N,GND*%
X44310000Y-65595000D03*
%TO.N,V33*%
X46850000Y-65595000D03*
%TO.N,SDA*%
X49390000Y-65595000D03*
%TO.N,SCL*%
X51930000Y-65595000D03*
%TO.N,BTN*%
X54470000Y-65595000D03*
%TO.N,IN*%
X57010000Y-65595000D03*
%TD*%
D14*
%TO.N,GND*%
%TO.C,J2*%
X77240000Y-72630000D03*
D15*
%TO.N,V33*%
X79780000Y-72630000D03*
%TO.N,SCL*%
X82320000Y-72630000D03*
%TO.N,SDA*%
X84860000Y-72630000D03*
%TD*%
D16*
%TO.N,GND*%
%TO.C,J13*%
X85332000Y-45480000D03*
D17*
X85332000Y-41300000D03*
D16*
X76692000Y-45480000D03*
D17*
X76692000Y-41300000D03*
%TD*%
D18*
%TO.N,GND*%
X61325000Y-62440000D03*
X61325000Y-63790000D03*
X62675000Y-62440000D03*
X62675000Y-63790000D03*
X72875000Y-61450000D03*
X72875000Y-62700000D03*
X74125000Y-61450000D03*
X74125000Y-62700000D03*
%TO.N,V5*%
X63858000Y-70338000D03*
%TO.N,BATRAW*%
X87495000Y-63400000D03*
%TO.N,VBUS*%
X78562000Y-48095000D03*
X72450000Y-58575000D03*
%TO.N,GND*%
X73500000Y-55450000D03*
X66808000Y-70348000D03*
X72534000Y-68800000D03*
X62469000Y-57175000D03*
%TO.N,CC1*%
X58131500Y-69486300D03*
X82054300Y-47579400D03*
%TO.N,CC2*%
X78576200Y-55126800D03*
X61631800Y-73564000D03*
X79262000Y-48538000D03*
%TO.N,COL*%
X56435100Y-62672500D03*
X89400800Y-55807000D03*
%TO.N,EN*%
X75901000Y-53305700D03*
X59173300Y-63127100D03*
%TO.N,GND*%
X85899400Y-69760000D03*
X83924600Y-55807100D03*
X53200100Y-62165500D03*
%TO.N,LBI*%
X62557400Y-55551800D03*
X59373300Y-61573700D03*
%TO.N,LBO*%
X71030900Y-53284200D03*
X59162000Y-64090000D03*
%TO.N,N_Q1C*%
X71662500Y-51565700D03*
X75993200Y-49570600D03*
%TO.N,PROG1*%
X76393300Y-67494500D03*
X77050000Y-62075000D03*
%TO.N,SCL*%
X79553700Y-68365700D03*
X89156200Y-58400000D03*
X79253300Y-57365000D03*
%TO.N,SDA*%
X81968800Y-53861300D03*
X92128900Y-62517300D03*
X99726100Y-63683300D03*
%TO.N,SPKO*%
X94280300Y-45590000D03*
%TO.N,SPKP*%
X97465600Y-48130000D03*
%TO.N,STAT1*%
X73375200Y-64884500D03*
X78650300Y-68665700D03*
%TO.N,THERM*%
X72451600Y-74605600D03*
X71562500Y-63667100D03*
%TO.N,V33*%
X78699200Y-59299000D03*
X81557900Y-58014600D03*
X99730900Y-61474400D03*
%TO.N,V5*%
X65612500Y-67867900D03*
X64061700Y-51569100D03*
X59181100Y-68910000D03*
X53948300Y-55776400D03*
X94180300Y-55750000D03*
%TO.N,VBUS*%
X74000000Y-65415100D03*
X83255800Y-47577900D03*
X75538200Y-71375000D03*
X66149900Y-73498900D03*
X70898300Y-64143700D03*
%TO.N,VLIPO*%
X75084000Y-59706900D03*
X67565600Y-57109500D03*
%TO.N,VPCC*%
X77033300Y-54997700D03*
X70324600Y-62128900D03*
%TO.N,VSYS*%
X71661700Y-53900000D03*
X69570000Y-60217200D03*
%TO.N,GND*%
X41000000Y-73200000D03*
X41000000Y-70000000D03*
X41000000Y-60400000D03*
X41000000Y-57200000D03*
X41000000Y-54000000D03*
X41000000Y-50800000D03*
X41000000Y-47600000D03*
X41000000Y-44400000D03*
X44200000Y-76400000D03*
X44200000Y-57200000D03*
X44200000Y-54000000D03*
X44200000Y-50800000D03*
X44200000Y-47600000D03*
X44200000Y-41200000D03*
X47400000Y-76400000D03*
X47400000Y-73200000D03*
X47400000Y-54000000D03*
X47400000Y-50800000D03*
X47400000Y-47600000D03*
X47400000Y-44400000D03*
X47400000Y-41200000D03*
X50600000Y-76400000D03*
X50600000Y-73200000D03*
X50600000Y-50800000D03*
X50600000Y-47600000D03*
X50600000Y-44400000D03*
X50600000Y-41200000D03*
X53800000Y-76400000D03*
X53800000Y-73200000D03*
X53800000Y-54000000D03*
X53800000Y-47600000D03*
X53800000Y-44400000D03*
X53800000Y-41200000D03*
X57000000Y-76400000D03*
X57000000Y-44400000D03*
X57000000Y-41200000D03*
X60200000Y-47600000D03*
X60200000Y-44400000D03*
X60200000Y-41200000D03*
X63400000Y-41200000D03*
X66600000Y-47600000D03*
X66600000Y-44400000D03*
X66600000Y-41200000D03*
X69800000Y-44400000D03*
X69800000Y-41200000D03*
X73000000Y-66800000D03*
X73000000Y-47600000D03*
X73000000Y-44400000D03*
X73000000Y-41200000D03*
X79400000Y-44400000D03*
X79400000Y-41200000D03*
X82600000Y-76400000D03*
X82600000Y-60400000D03*
X82600000Y-44400000D03*
X82600000Y-41200000D03*
X85800000Y-76400000D03*
X85800000Y-50800000D03*
X89000000Y-76400000D03*
X89000000Y-73200000D03*
X89000000Y-70000000D03*
X89000000Y-41200000D03*
X92200000Y-76400000D03*
X92200000Y-73200000D03*
X92200000Y-70000000D03*
X92200000Y-60400000D03*
X92200000Y-54000000D03*
X92200000Y-44400000D03*
X95400000Y-76400000D03*
X95400000Y-73200000D03*
X95400000Y-66800000D03*
X95400000Y-60400000D03*
X95400000Y-57200000D03*
X95400000Y-54000000D03*
X98600000Y-76400000D03*
X98600000Y-73200000D03*
X98600000Y-66800000D03*
X98600000Y-60400000D03*
X98600000Y-57200000D03*
X98600000Y-54000000D03*
X98600000Y-50800000D03*
X101800000Y-76400000D03*
X101800000Y-73200000D03*
X101800000Y-66800000D03*
X101800000Y-60400000D03*
X101800000Y-57200000D03*
X101800000Y-54000000D03*
X101800000Y-50800000D03*
X105000000Y-76400000D03*
X105000000Y-73200000D03*
X105000000Y-66800000D03*
X105000000Y-57200000D03*
X105000000Y-54000000D03*
X105000000Y-47600000D03*
X108200000Y-76400000D03*
X108200000Y-73200000D03*
X108200000Y-66800000D03*
X108200000Y-60400000D03*
X108200000Y-57200000D03*
X108200000Y-41200000D03*
X111400000Y-76400000D03*
X111400000Y-73200000D03*
X111400000Y-60400000D03*
X111400000Y-50800000D03*
X111400000Y-44400000D03*
X111400000Y-41200000D03*
X114600000Y-76400000D03*
X114600000Y-73200000D03*
X114600000Y-70000000D03*
X114600000Y-54000000D03*
X114600000Y-47600000D03*
X114600000Y-44400000D03*
X114600000Y-41200000D03*
X117800000Y-76400000D03*
X117800000Y-70000000D03*
X117800000Y-66800000D03*
X117800000Y-50800000D03*
X117800000Y-47600000D03*
X117800000Y-44400000D03*
X117800000Y-41200000D03*
X121000000Y-70000000D03*
X121000000Y-66800000D03*
X121000000Y-63600000D03*
X121000000Y-60400000D03*
X121000000Y-57200000D03*
X121000000Y-54000000D03*
X121000000Y-50800000D03*
X121000000Y-47600000D03*
X121000000Y-44400000D03*
%TD*%
%TA.AperFunction,Conductor*%
%TO.N,GND*%
G36*
X118466501Y-40300506D02*
G01*
X118476438Y-40300504D01*
X118476442Y-40300506D01*
X118520800Y-40300500D01*
X118527261Y-40300668D01*
X118852010Y-40317650D01*
X118864895Y-40319003D01*
X119173683Y-40367879D01*
X119182853Y-40369331D01*
X119195552Y-40372029D01*
X119506495Y-40455319D01*
X119518832Y-40459326D01*
X119819386Y-40574674D01*
X119831228Y-40579946D01*
X119911891Y-40621041D01*
X120118064Y-40726080D01*
X120129306Y-40732570D01*
X120399283Y-40907882D01*
X120409785Y-40915512D01*
X120659954Y-41118089D01*
X120669601Y-41126775D01*
X120897224Y-41354398D01*
X120905910Y-41364045D01*
X121108487Y-41614214D01*
X121116117Y-41624716D01*
X121291429Y-41894693D01*
X121297919Y-41905935D01*
X121444050Y-42192766D01*
X121449330Y-42204626D01*
X121564671Y-42505162D01*
X121568681Y-42517508D01*
X121651970Y-42828448D01*
X121654668Y-42841146D01*
X121704994Y-43159091D01*
X121706350Y-43172002D01*
X121723330Y-43496723D01*
X121723499Y-43503212D01*
X121723493Y-43557498D01*
X121723500Y-43557585D01*
X121723500Y-73842905D01*
X121723493Y-73842997D01*
X121723499Y-73896782D01*
X121723330Y-73903272D01*
X121706347Y-74227993D01*
X121704991Y-74240904D01*
X121654663Y-74558851D01*
X121651965Y-74571548D01*
X121568676Y-74882482D01*
X121564666Y-74894829D01*
X121449319Y-75195373D01*
X121444039Y-75207232D01*
X121297913Y-75494053D01*
X121291423Y-75505295D01*
X121116107Y-75775275D01*
X121108477Y-75785777D01*
X120905901Y-76035946D01*
X120897215Y-76045593D01*
X120669593Y-76273215D01*
X120659946Y-76281901D01*
X120409777Y-76484477D01*
X120399275Y-76492107D01*
X120129295Y-76667423D01*
X120118053Y-76673913D01*
X119831232Y-76820039D01*
X119819373Y-76825319D01*
X119518829Y-76940666D01*
X119506482Y-76944676D01*
X119195548Y-77027965D01*
X119182851Y-77030663D01*
X118864904Y-77080991D01*
X118851993Y-77082347D01*
X118527272Y-77099330D01*
X118520782Y-77099499D01*
X118482799Y-77099494D01*
X118476440Y-77099494D01*
X118476439Y-77099494D01*
X118466499Y-77099493D01*
X118466413Y-77099500D01*
X43557585Y-77099500D01*
X43557498Y-77099493D01*
X43547558Y-77099494D01*
X43541210Y-77099494D01*
X43503212Y-77099499D01*
X43496723Y-77099330D01*
X43172002Y-77082350D01*
X43159091Y-77080994D01*
X42841146Y-77030668D01*
X42828448Y-77027970D01*
X42517508Y-76944681D01*
X42505162Y-76940671D01*
X42204626Y-76825330D01*
X42192766Y-76820050D01*
X41905935Y-76673919D01*
X41894693Y-76667429D01*
X41624716Y-76492117D01*
X41614214Y-76484487D01*
X41364045Y-76281910D01*
X41354398Y-76273224D01*
X41126775Y-76045601D01*
X41118089Y-76035954D01*
X40915512Y-75785785D01*
X40907882Y-75775283D01*
X40732570Y-75505306D01*
X40726080Y-75494064D01*
X40601992Y-75250500D01*
X40579946Y-75207228D01*
X40574674Y-75195386D01*
X40459325Y-74894829D01*
X40455318Y-74882491D01*
X40443235Y-74837383D01*
X40372028Y-74571548D01*
X40369331Y-74558853D01*
X40347102Y-74418414D01*
X40319003Y-74240895D01*
X40317650Y-74228010D01*
X40300668Y-73903261D01*
X40300500Y-73896801D01*
X40300500Y-73896782D01*
X40300506Y-73852442D01*
X40300500Y-73852423D01*
X40300500Y-73793713D01*
X42649500Y-73793713D01*
X42649500Y-74006286D01*
X42674558Y-74164500D01*
X42682754Y-74216243D01*
X42688681Y-74234485D01*
X42748444Y-74418414D01*
X42844951Y-74607820D01*
X42969890Y-74779786D01*
X43120213Y-74930109D01*
X43292179Y-75055048D01*
X43292181Y-75055049D01*
X43292184Y-75055051D01*
X43481588Y-75151557D01*
X43683757Y-75217246D01*
X43893713Y-75250500D01*
X43893714Y-75250500D01*
X44106286Y-75250500D01*
X44106287Y-75250500D01*
X44316243Y-75217246D01*
X44518412Y-75151557D01*
X44707816Y-75055051D01*
X44818949Y-74974309D01*
X44879786Y-74930109D01*
X44879788Y-74930106D01*
X44879792Y-74930104D01*
X45030104Y-74779792D01*
X45030106Y-74779788D01*
X45030109Y-74779786D01*
X45155048Y-74607820D01*
X45155047Y-74607820D01*
X45155051Y-74607816D01*
X45196462Y-74526543D01*
X71851100Y-74526543D01*
X71851100Y-74684657D01*
X71888591Y-74824573D01*
X71892023Y-74837383D01*
X71892026Y-74837390D01*
X71971075Y-74974309D01*
X71971079Y-74974314D01*
X71971080Y-74974316D01*
X72082884Y-75086120D01*
X72082886Y-75086121D01*
X72082890Y-75086124D01*
X72196222Y-75151555D01*
X72219816Y-75165177D01*
X72372543Y-75206100D01*
X72372545Y-75206100D01*
X72530655Y-75206100D01*
X72530657Y-75206100D01*
X72683384Y-75165177D01*
X72820316Y-75086120D01*
X72932120Y-74974316D01*
X73011177Y-74837384D01*
X73052100Y-74684657D01*
X73052100Y-74526543D01*
X73011177Y-74373816D01*
X73011173Y-74373809D01*
X72932124Y-74236890D01*
X72932118Y-74236882D01*
X72820317Y-74125081D01*
X72820309Y-74125075D01*
X72683390Y-74046026D01*
X72683386Y-74046024D01*
X72683384Y-74046023D01*
X72530657Y-74005100D01*
X72372543Y-74005100D01*
X72219816Y-74046023D01*
X72219809Y-74046026D01*
X72082890Y-74125075D01*
X72082882Y-74125081D01*
X71971081Y-74236882D01*
X71971075Y-74236890D01*
X71892026Y-74373809D01*
X71892023Y-74373816D01*
X71851100Y-74526543D01*
X45196462Y-74526543D01*
X45251557Y-74418412D01*
X45317246Y-74216243D01*
X45350500Y-74006287D01*
X45350500Y-73793713D01*
X45317246Y-73583757D01*
X45285139Y-73484943D01*
X61031300Y-73484943D01*
X61031300Y-73643057D01*
X61054780Y-73730683D01*
X61072223Y-73795783D01*
X61072226Y-73795790D01*
X61151275Y-73932709D01*
X61151279Y-73932714D01*
X61151280Y-73932716D01*
X61263084Y-74044520D01*
X61263086Y-74044521D01*
X61263090Y-74044524D01*
X61400009Y-74123573D01*
X61400016Y-74123577D01*
X61552743Y-74164500D01*
X61552745Y-74164500D01*
X61710855Y-74164500D01*
X61710857Y-74164500D01*
X61863584Y-74123577D01*
X62000516Y-74044520D01*
X62112320Y-73932716D01*
X62191377Y-73795784D01*
X62232300Y-73643057D01*
X62232300Y-73484943D01*
X62214857Y-73419843D01*
X65549400Y-73419843D01*
X65549400Y-73577957D01*
X65581087Y-73696212D01*
X65590323Y-73730683D01*
X65590326Y-73730690D01*
X65669375Y-73867609D01*
X65669379Y-73867614D01*
X65669380Y-73867616D01*
X65781184Y-73979420D01*
X65781186Y-73979421D01*
X65781190Y-73979424D01*
X65893948Y-74044524D01*
X65918116Y-74058477D01*
X66070843Y-74099400D01*
X66070845Y-74099400D01*
X66228955Y-74099400D01*
X66228957Y-74099400D01*
X66381684Y-74058477D01*
X66518616Y-73979420D01*
X66630420Y-73867616D01*
X66673088Y-73793713D01*
X118003500Y-73793713D01*
X118003500Y-74006286D01*
X118028558Y-74164500D01*
X118036754Y-74216243D01*
X118042681Y-74234485D01*
X118102444Y-74418414D01*
X118198951Y-74607820D01*
X118323890Y-74779786D01*
X118474213Y-74930109D01*
X118646179Y-75055048D01*
X118646181Y-75055049D01*
X118646184Y-75055051D01*
X118835588Y-75151557D01*
X119037757Y-75217246D01*
X119247713Y-75250500D01*
X119247714Y-75250500D01*
X119460286Y-75250500D01*
X119460287Y-75250500D01*
X119670243Y-75217246D01*
X119872412Y-75151557D01*
X120061816Y-75055051D01*
X120172949Y-74974309D01*
X120233786Y-74930109D01*
X120233788Y-74930106D01*
X120233792Y-74930104D01*
X120384104Y-74779792D01*
X120384106Y-74779788D01*
X120384109Y-74779786D01*
X120509048Y-74607820D01*
X120509047Y-74607820D01*
X120509051Y-74607816D01*
X120605557Y-74418412D01*
X120671246Y-74216243D01*
X120704500Y-74006287D01*
X120704500Y-73793713D01*
X120671246Y-73583757D01*
X120605557Y-73381588D01*
X120509051Y-73192184D01*
X120509049Y-73192181D01*
X120509048Y-73192179D01*
X120384109Y-73020213D01*
X120233786Y-72869890D01*
X120061820Y-72744951D01*
X119872414Y-72648444D01*
X119872413Y-72648443D01*
X119872412Y-72648443D01*
X119670243Y-72582754D01*
X119670241Y-72582753D01*
X119670240Y-72582753D01*
X119508957Y-72557208D01*
X119460287Y-72549500D01*
X119247713Y-72549500D01*
X119199042Y-72557208D01*
X119037760Y-72582753D01*
X118835585Y-72648444D01*
X118646179Y-72744951D01*
X118474213Y-72869890D01*
X118323890Y-73020213D01*
X118198951Y-73192179D01*
X118102444Y-73381585D01*
X118102443Y-73381587D01*
X118102443Y-73381588D01*
X118082226Y-73443809D01*
X118036753Y-73583760D01*
X118003500Y-73793713D01*
X66673088Y-73793713D01*
X66709477Y-73730684D01*
X66750400Y-73577957D01*
X66750400Y-73419843D01*
X66709477Y-73267116D01*
X66668004Y-73195282D01*
X66630424Y-73130190D01*
X66630418Y-73130182D01*
X66518617Y-73018381D01*
X66518609Y-73018375D01*
X66381691Y-72939326D01*
X66381685Y-72939324D01*
X66381684Y-72939323D01*
X66228957Y-72898400D01*
X66070843Y-72898400D01*
X65918116Y-72939323D01*
X65918109Y-72939326D01*
X65781190Y-73018375D01*
X65781182Y-73018381D01*
X65669381Y-73130182D01*
X65669375Y-73130190D01*
X65590326Y-73267109D01*
X65590323Y-73267116D01*
X65549400Y-73419843D01*
X62214857Y-73419843D01*
X62191377Y-73332216D01*
X62153788Y-73267109D01*
X62112324Y-73195290D01*
X62112318Y-73195282D01*
X62000517Y-73083481D01*
X62000509Y-73083475D01*
X61863590Y-73004426D01*
X61863586Y-73004424D01*
X61863584Y-73004423D01*
X61710857Y-72963500D01*
X61552743Y-72963500D01*
X61400016Y-73004423D01*
X61400009Y-73004426D01*
X61263090Y-73083475D01*
X61263082Y-73083481D01*
X61151281Y-73195282D01*
X61151275Y-73195290D01*
X61072226Y-73332209D01*
X61072224Y-73332214D01*
X61072223Y-73332216D01*
X61031300Y-73484943D01*
X45285139Y-73484943D01*
X45251557Y-73381588D01*
X45251555Y-73381585D01*
X45251555Y-73381583D01*
X45175846Y-73232997D01*
X45155051Y-73192184D01*
X45155049Y-73192181D01*
X45155048Y-73192179D01*
X45030109Y-73020213D01*
X44879786Y-72869890D01*
X44707820Y-72744951D01*
X44518415Y-72648444D01*
X44518413Y-72648443D01*
X44413241Y-72614270D01*
X44316243Y-72582754D01*
X44316241Y-72582753D01*
X44316240Y-72582753D01*
X44154957Y-72557208D01*
X44106287Y-72549500D01*
X43893713Y-72549500D01*
X43845042Y-72557208D01*
X43683760Y-72582753D01*
X43481585Y-72648444D01*
X43292179Y-72744951D01*
X43120213Y-72869890D01*
X42969890Y-73020213D01*
X42844951Y-73192179D01*
X42748444Y-73381585D01*
X42748443Y-73381587D01*
X42748443Y-73381588D01*
X42728226Y-73443809D01*
X42682753Y-73583760D01*
X42649500Y-73793713D01*
X40300500Y-73793713D01*
X40300500Y-71295943D01*
X74937700Y-71295943D01*
X74937700Y-71454057D01*
X74977006Y-71600747D01*
X74978623Y-71606783D01*
X74978626Y-71606790D01*
X75057675Y-71743709D01*
X75057679Y-71743714D01*
X75057680Y-71743716D01*
X75169484Y-71855520D01*
X75169486Y-71855521D01*
X75169490Y-71855524D01*
X75306409Y-71934573D01*
X75306416Y-71934577D01*
X75459143Y-71975500D01*
X75459145Y-71975500D01*
X75617255Y-71975500D01*
X75617257Y-71975500D01*
X75769984Y-71934577D01*
X75906916Y-71855520D01*
X75978319Y-71784117D01*
X76039642Y-71750632D01*
X76109334Y-71755616D01*
X76165267Y-71797488D01*
X76189684Y-71862952D01*
X76190000Y-71871798D01*
X76190000Y-72380000D01*
X76806988Y-72380000D01*
X76774075Y-72437007D01*
X76740000Y-72564174D01*
X76740000Y-72695826D01*
X76774075Y-72822993D01*
X76806988Y-72880000D01*
X76190000Y-72880000D01*
X76190000Y-73499702D01*
X76201602Y-73558033D01*
X76201603Y-73558034D01*
X76245808Y-73624191D01*
X76311965Y-73668396D01*
X76311966Y-73668397D01*
X76370297Y-73679999D01*
X76370301Y-73680000D01*
X76990000Y-73680000D01*
X76990000Y-73063012D01*
X77047007Y-73095925D01*
X77174174Y-73130000D01*
X77305826Y-73130000D01*
X77432993Y-73095925D01*
X77490000Y-73063012D01*
X77490000Y-73680000D01*
X78109699Y-73680000D01*
X78109702Y-73679999D01*
X78168033Y-73668397D01*
X78168034Y-73668396D01*
X78234191Y-73624191D01*
X78278396Y-73558034D01*
X78278397Y-73558033D01*
X78289999Y-73499702D01*
X78290000Y-73499699D01*
X78290000Y-72880000D01*
X77673012Y-72880000D01*
X77705925Y-72822993D01*
X77740000Y-72695826D01*
X77740000Y-72564174D01*
X77733375Y-72539448D01*
X78629500Y-72539448D01*
X78629500Y-72720551D01*
X78657829Y-72899410D01*
X78713787Y-73071636D01*
X78713788Y-73071639D01*
X78796006Y-73232997D01*
X78902441Y-73379494D01*
X78902445Y-73379499D01*
X79030500Y-73507554D01*
X79030505Y-73507558D01*
X79127401Y-73577956D01*
X79177006Y-73613996D01*
X79282484Y-73667740D01*
X79338360Y-73696211D01*
X79338363Y-73696212D01*
X79424476Y-73724191D01*
X79510591Y-73752171D01*
X79593429Y-73765291D01*
X79689449Y-73780500D01*
X79689454Y-73780500D01*
X79870551Y-73780500D01*
X79957259Y-73766765D01*
X80049409Y-73752171D01*
X80221639Y-73696211D01*
X80382994Y-73613996D01*
X80529501Y-73507553D01*
X80657553Y-73379501D01*
X80763996Y-73232994D01*
X80846211Y-73071639D01*
X80902171Y-72899409D01*
X80926635Y-72744951D01*
X80927527Y-72739321D01*
X80957456Y-72676186D01*
X81016768Y-72639255D01*
X81086630Y-72640253D01*
X81144863Y-72678863D01*
X81172473Y-72739321D01*
X81197829Y-72899410D01*
X81253787Y-73071636D01*
X81253788Y-73071639D01*
X81336006Y-73232997D01*
X81442441Y-73379494D01*
X81442445Y-73379499D01*
X81570500Y-73507554D01*
X81570505Y-73507558D01*
X81667401Y-73577956D01*
X81717006Y-73613996D01*
X81822484Y-73667740D01*
X81878360Y-73696211D01*
X81878363Y-73696212D01*
X81964476Y-73724191D01*
X82050591Y-73752171D01*
X82133429Y-73765291D01*
X82229449Y-73780500D01*
X82229454Y-73780500D01*
X82410551Y-73780500D01*
X82497259Y-73766765D01*
X82589409Y-73752171D01*
X82761639Y-73696211D01*
X82922994Y-73613996D01*
X83069501Y-73507553D01*
X83197553Y-73379501D01*
X83303996Y-73232994D01*
X83386211Y-73071639D01*
X83442171Y-72899409D01*
X83466635Y-72744951D01*
X83467527Y-72739321D01*
X83497456Y-72676186D01*
X83556768Y-72639255D01*
X83626630Y-72640253D01*
X83684863Y-72678863D01*
X83712473Y-72739321D01*
X83737829Y-72899410D01*
X83793787Y-73071636D01*
X83793788Y-73071639D01*
X83876006Y-73232997D01*
X83982441Y-73379494D01*
X83982445Y-73379499D01*
X84110500Y-73507554D01*
X84110505Y-73507558D01*
X84207401Y-73577956D01*
X84257006Y-73613996D01*
X84362484Y-73667740D01*
X84418360Y-73696211D01*
X84418363Y-73696212D01*
X84504476Y-73724191D01*
X84590591Y-73752171D01*
X84673429Y-73765291D01*
X84769449Y-73780500D01*
X84769454Y-73780500D01*
X84950551Y-73780500D01*
X85037259Y-73766765D01*
X85129409Y-73752171D01*
X85301639Y-73696211D01*
X85301639Y-73696210D01*
X85301644Y-73696209D01*
X85336680Y-73678357D01*
X85336681Y-73678356D01*
X85462994Y-73613996D01*
X85609501Y-73507553D01*
X85737553Y-73379501D01*
X85843996Y-73232994D01*
X85926211Y-73071639D01*
X85982171Y-72899409D01*
X86006635Y-72744951D01*
X86010500Y-72720551D01*
X86010500Y-72539448D01*
X85985245Y-72380000D01*
X85982171Y-72360591D01*
X85926211Y-72188361D01*
X85926211Y-72188360D01*
X85896474Y-72130000D01*
X85843996Y-72027006D01*
X85776840Y-71934573D01*
X85737558Y-71880505D01*
X85737554Y-71880500D01*
X85609499Y-71752445D01*
X85609494Y-71752441D01*
X85462997Y-71646006D01*
X85462996Y-71646005D01*
X85462994Y-71646004D01*
X85374173Y-71600747D01*
X85301639Y-71563788D01*
X85301636Y-71563787D01*
X85129410Y-71507829D01*
X84950551Y-71479500D01*
X84950546Y-71479500D01*
X84769454Y-71479500D01*
X84769449Y-71479500D01*
X84590589Y-71507829D01*
X84418363Y-71563787D01*
X84418360Y-71563788D01*
X84257002Y-71646006D01*
X84110505Y-71752441D01*
X84110500Y-71752445D01*
X83982445Y-71880500D01*
X83982441Y-71880505D01*
X83876006Y-72027002D01*
X83793788Y-72188360D01*
X83793787Y-72188363D01*
X83737829Y-72360589D01*
X83712473Y-72520678D01*
X83682544Y-72583813D01*
X83623232Y-72620744D01*
X83553369Y-72619746D01*
X83495137Y-72581136D01*
X83467527Y-72520678D01*
X83445245Y-72380000D01*
X83442171Y-72360591D01*
X83386211Y-72188361D01*
X83386211Y-72188360D01*
X83356474Y-72130000D01*
X83303996Y-72027006D01*
X83236840Y-71934573D01*
X83197558Y-71880505D01*
X83197554Y-71880500D01*
X83069499Y-71752445D01*
X83069494Y-71752441D01*
X82922997Y-71646006D01*
X82922996Y-71646005D01*
X82922994Y-71646004D01*
X82834173Y-71600747D01*
X82761639Y-71563788D01*
X82761636Y-71563787D01*
X82589410Y-71507829D01*
X82410551Y-71479500D01*
X82410546Y-71479500D01*
X82229454Y-71479500D01*
X82229449Y-71479500D01*
X82050589Y-71507829D01*
X81878363Y-71563787D01*
X81878360Y-71563788D01*
X81717002Y-71646006D01*
X81570505Y-71752441D01*
X81570500Y-71752445D01*
X81442445Y-71880500D01*
X81442441Y-71880505D01*
X81336006Y-72027002D01*
X81253788Y-72188360D01*
X81253787Y-72188363D01*
X81197829Y-72360589D01*
X81172473Y-72520678D01*
X81142544Y-72583813D01*
X81083232Y-72620744D01*
X81013369Y-72619746D01*
X80955137Y-72581136D01*
X80927527Y-72520678D01*
X80905245Y-72380000D01*
X80902171Y-72360591D01*
X80846211Y-72188361D01*
X80846211Y-72188360D01*
X80816474Y-72130000D01*
X80763996Y-72027006D01*
X80696840Y-71934573D01*
X80657558Y-71880505D01*
X80657554Y-71880500D01*
X80529499Y-71752445D01*
X80529494Y-71752441D01*
X80382997Y-71646006D01*
X80382996Y-71646005D01*
X80382994Y-71646004D01*
X80294173Y-71600747D01*
X80221639Y-71563788D01*
X80221636Y-71563787D01*
X80049410Y-71507829D01*
X79870551Y-71479500D01*
X79870546Y-71479500D01*
X79689454Y-71479500D01*
X79689449Y-71479500D01*
X79510589Y-71507829D01*
X79338363Y-71563787D01*
X79338360Y-71563788D01*
X79177002Y-71646006D01*
X79030505Y-71752441D01*
X79030500Y-71752445D01*
X78902445Y-71880500D01*
X78902441Y-71880505D01*
X78796006Y-72027002D01*
X78713788Y-72188360D01*
X78713787Y-72188363D01*
X78657829Y-72360589D01*
X78629500Y-72539448D01*
X77733375Y-72539448D01*
X77705925Y-72437007D01*
X77673012Y-72380000D01*
X78290000Y-72380000D01*
X78290000Y-71760301D01*
X78289999Y-71760297D01*
X78278397Y-71701966D01*
X78278396Y-71701965D01*
X78234191Y-71635808D01*
X78168034Y-71591603D01*
X78168033Y-71591602D01*
X78109702Y-71580000D01*
X77490000Y-71580000D01*
X77490000Y-72196988D01*
X77432993Y-72164075D01*
X77305826Y-72130000D01*
X77174174Y-72130000D01*
X77047007Y-72164075D01*
X76990000Y-72196988D01*
X76990000Y-71580000D01*
X76370297Y-71580000D01*
X76311961Y-71591604D01*
X76307912Y-71593281D01*
X76238442Y-71600747D01*
X76175965Y-71569469D01*
X76140315Y-71509378D01*
X76140647Y-71462509D01*
X76137639Y-71462113D01*
X76138700Y-71454055D01*
X76138700Y-71295945D01*
X76138700Y-71295943D01*
X76097777Y-71143216D01*
X76097773Y-71143209D01*
X76018724Y-71006290D01*
X76018718Y-71006282D01*
X75906917Y-70894481D01*
X75906909Y-70894475D01*
X75769990Y-70815426D01*
X75769986Y-70815424D01*
X75769984Y-70815423D01*
X75617257Y-70774500D01*
X75459143Y-70774500D01*
X75306416Y-70815423D01*
X75306409Y-70815426D01*
X75169490Y-70894475D01*
X75169482Y-70894481D01*
X75057681Y-71006282D01*
X75057675Y-71006290D01*
X74978626Y-71143209D01*
X74978623Y-71143216D01*
X74937700Y-71295943D01*
X40300500Y-71295943D01*
X40300500Y-70258943D01*
X63257500Y-70258943D01*
X63257500Y-70417056D01*
X63298423Y-70569783D01*
X63298426Y-70569790D01*
X63377475Y-70706709D01*
X63377479Y-70706714D01*
X63377480Y-70706716D01*
X63489284Y-70818520D01*
X63489286Y-70818521D01*
X63489290Y-70818524D01*
X63626209Y-70897573D01*
X63626216Y-70897577D01*
X63778943Y-70938500D01*
X63778945Y-70938500D01*
X63937055Y-70938500D01*
X63937057Y-70938500D01*
X64089784Y-70897577D01*
X64226716Y-70818520D01*
X64338520Y-70706716D01*
X64417577Y-70569784D01*
X64458500Y-70417057D01*
X64458500Y-70258943D01*
X64417577Y-70106216D01*
X64382740Y-70045876D01*
X64338524Y-69969290D01*
X64338518Y-69969282D01*
X64226717Y-69857481D01*
X64226709Y-69857475D01*
X64089790Y-69778426D01*
X64089786Y-69778424D01*
X64089784Y-69778423D01*
X63937057Y-69737500D01*
X63778943Y-69737500D01*
X63626216Y-69778423D01*
X63626209Y-69778426D01*
X63489290Y-69857475D01*
X63489282Y-69857481D01*
X63377481Y-69969282D01*
X63377475Y-69969290D01*
X63298426Y-70106209D01*
X63298423Y-70106216D01*
X63257500Y-70258943D01*
X40300500Y-70258943D01*
X40300500Y-69407243D01*
X57531000Y-69407243D01*
X57531000Y-69565356D01*
X57571923Y-69718083D01*
X57571926Y-69718090D01*
X57650975Y-69855009D01*
X57650979Y-69855014D01*
X57650980Y-69855016D01*
X57762784Y-69966820D01*
X57762786Y-69966821D01*
X57762790Y-69966824D01*
X57899709Y-70045873D01*
X57899716Y-70045877D01*
X58052443Y-70086800D01*
X58052445Y-70086800D01*
X58210555Y-70086800D01*
X58210557Y-70086800D01*
X58363284Y-70045877D01*
X58500216Y-69966820D01*
X58612020Y-69855016D01*
X58691077Y-69718084D01*
X58732000Y-69565357D01*
X58732000Y-69558884D01*
X58751685Y-69491845D01*
X58804489Y-69446090D01*
X58873647Y-69436146D01*
X58917999Y-69451497D01*
X58949309Y-69469573D01*
X58949316Y-69469577D01*
X59102043Y-69510500D01*
X59102045Y-69510500D01*
X59260155Y-69510500D01*
X59260157Y-69510500D01*
X59412884Y-69469577D01*
X59549816Y-69390520D01*
X59661620Y-69278716D01*
X59740677Y-69141784D01*
X59781600Y-68989057D01*
X59781600Y-68830943D01*
X59740677Y-68678216D01*
X59699309Y-68606564D01*
X59687808Y-68586643D01*
X78049800Y-68586643D01*
X78049800Y-68744757D01*
X78087593Y-68885800D01*
X78090723Y-68897483D01*
X78090726Y-68897490D01*
X78169775Y-69034409D01*
X78169779Y-69034414D01*
X78169780Y-69034416D01*
X78281584Y-69146220D01*
X78281586Y-69146221D01*
X78281590Y-69146224D01*
X78418509Y-69225273D01*
X78418516Y-69225277D01*
X78571243Y-69266200D01*
X78571245Y-69266200D01*
X78729355Y-69266200D01*
X78729357Y-69266200D01*
X78882084Y-69225277D01*
X79019016Y-69146220D01*
X79130820Y-69034416D01*
X79164178Y-68976636D01*
X79214743Y-68928422D01*
X79283350Y-68915198D01*
X79319020Y-68924077D01*
X79321909Y-68925273D01*
X79321916Y-68925277D01*
X79474643Y-68966200D01*
X79474645Y-68966200D01*
X79632755Y-68966200D01*
X79632757Y-68966200D01*
X79785484Y-68925277D01*
X79922416Y-68846220D01*
X80034220Y-68734416D01*
X80113277Y-68597484D01*
X80154200Y-68444757D01*
X80154200Y-68286643D01*
X80113277Y-68133916D01*
X80097233Y-68106126D01*
X80034224Y-67996990D01*
X80034218Y-67996982D01*
X79922417Y-67885181D01*
X79922409Y-67885175D01*
X79785490Y-67806126D01*
X79785486Y-67806124D01*
X79785484Y-67806123D01*
X79632757Y-67765200D01*
X79474643Y-67765200D01*
X79321916Y-67806123D01*
X79321909Y-67806126D01*
X79184990Y-67885175D01*
X79184982Y-67885181D01*
X79073179Y-67996984D01*
X79039821Y-68054763D01*
X78989253Y-68102978D01*
X78920646Y-68116200D01*
X78884984Y-68107324D01*
X78882087Y-68106124D01*
X78882084Y-68106123D01*
X78729357Y-68065200D01*
X78571243Y-68065200D01*
X78418516Y-68106123D01*
X78418509Y-68106126D01*
X78281590Y-68185175D01*
X78281582Y-68185181D01*
X78169781Y-68296982D01*
X78169775Y-68296990D01*
X78090726Y-68433909D01*
X78090723Y-68433916D01*
X78049800Y-68586643D01*
X59687808Y-68586643D01*
X59661624Y-68541290D01*
X59661618Y-68541282D01*
X59549817Y-68429481D01*
X59549809Y-68429475D01*
X59412890Y-68350426D01*
X59412886Y-68350424D01*
X59412884Y-68350423D01*
X59260157Y-68309500D01*
X59102043Y-68309500D01*
X58949316Y-68350423D01*
X58949309Y-68350426D01*
X58812390Y-68429475D01*
X58812382Y-68429481D01*
X58700581Y-68541282D01*
X58700575Y-68541290D01*
X58621526Y-68678209D01*
X58621523Y-68678216D01*
X58580600Y-68830943D01*
X58580600Y-68837415D01*
X58560915Y-68904454D01*
X58508111Y-68950209D01*
X58438953Y-68960153D01*
X58394603Y-68944804D01*
X58363286Y-68926724D01*
X58363285Y-68926723D01*
X58363284Y-68926723D01*
X58210557Y-68885800D01*
X58052443Y-68885800D01*
X57899716Y-68926723D01*
X57899709Y-68926726D01*
X57762790Y-69005775D01*
X57762782Y-69005781D01*
X57650981Y-69117582D01*
X57650975Y-69117590D01*
X57571926Y-69254509D01*
X57571923Y-69254516D01*
X57531000Y-69407243D01*
X40300500Y-69407243D01*
X40300500Y-67788843D01*
X65012000Y-67788843D01*
X65012000Y-67946957D01*
X65040887Y-68054763D01*
X65052923Y-68099683D01*
X65052926Y-68099690D01*
X65131975Y-68236609D01*
X65131979Y-68236614D01*
X65131980Y-68236616D01*
X65243784Y-68348420D01*
X65243786Y-68348421D01*
X65243790Y-68348424D01*
X65380709Y-68427473D01*
X65380716Y-68427477D01*
X65533443Y-68468400D01*
X65533445Y-68468400D01*
X65691555Y-68468400D01*
X65691557Y-68468400D01*
X65844284Y-68427477D01*
X65981216Y-68348420D01*
X66093020Y-68236616D01*
X66172077Y-68099684D01*
X66213000Y-67946957D01*
X66213000Y-67788843D01*
X66172077Y-67636116D01*
X66135959Y-67573557D01*
X66093024Y-67499190D01*
X66093018Y-67499182D01*
X66009279Y-67415443D01*
X75792800Y-67415443D01*
X75792800Y-67573556D01*
X75833723Y-67726283D01*
X75833726Y-67726290D01*
X75912775Y-67863209D01*
X75912779Y-67863214D01*
X75912780Y-67863216D01*
X76024584Y-67975020D01*
X76024586Y-67975021D01*
X76024590Y-67975024D01*
X76161509Y-68054073D01*
X76161516Y-68054077D01*
X76314243Y-68095000D01*
X76314245Y-68095000D01*
X76472355Y-68095000D01*
X76472357Y-68095000D01*
X76625084Y-68054077D01*
X76762016Y-67975020D01*
X76873820Y-67863216D01*
X76952877Y-67726284D01*
X76993800Y-67573557D01*
X76993800Y-67415443D01*
X76952877Y-67262716D01*
X76947221Y-67252919D01*
X76939873Y-67240191D01*
X76906218Y-67181898D01*
X113399500Y-67181898D01*
X113399500Y-68518102D01*
X113403516Y-68551541D01*
X113410122Y-68606561D01*
X113465639Y-68747343D01*
X113557077Y-68867922D01*
X113677656Y-68959360D01*
X113677657Y-68959360D01*
X113677658Y-68959361D01*
X113818436Y-69014877D01*
X113906898Y-69025500D01*
X113906903Y-69025500D01*
X114693097Y-69025500D01*
X114693102Y-69025500D01*
X114781564Y-69014877D01*
X114922342Y-68959361D01*
X115042922Y-68867922D01*
X115134361Y-68747342D01*
X115189877Y-68606564D01*
X115200500Y-68518102D01*
X115200500Y-68447080D01*
X115220185Y-68380041D01*
X115272989Y-68334286D01*
X115342147Y-68324342D01*
X115405703Y-68353367D01*
X115439061Y-68399628D01*
X115501983Y-68551541D01*
X115501990Y-68551553D01*
X115600535Y-68699034D01*
X115600538Y-68699038D01*
X115725961Y-68824461D01*
X115725965Y-68824464D01*
X115873446Y-68923009D01*
X115873459Y-68923016D01*
X115963118Y-68960153D01*
X116037334Y-68990894D01*
X116037336Y-68990894D01*
X116037341Y-68990896D01*
X116211304Y-69025499D01*
X116211307Y-69025500D01*
X116211309Y-69025500D01*
X116388693Y-69025500D01*
X116388694Y-69025499D01*
X116446682Y-69013964D01*
X116562658Y-68990896D01*
X116562661Y-68990894D01*
X116562666Y-68990894D01*
X116726547Y-68923013D01*
X116874035Y-68824464D01*
X116999464Y-68699035D01*
X117098013Y-68551547D01*
X117165894Y-68387666D01*
X117185989Y-68286645D01*
X117200499Y-68213695D01*
X117200500Y-68213693D01*
X117200500Y-67486306D01*
X117200499Y-67486304D01*
X117165896Y-67312341D01*
X117165893Y-67312332D01*
X117164232Y-67308323D01*
X117136012Y-67240191D01*
X117098016Y-67148459D01*
X117098009Y-67148446D01*
X116999464Y-67000965D01*
X116999461Y-67000961D01*
X116874038Y-66875538D01*
X116874034Y-66875535D01*
X116726553Y-66776990D01*
X116726540Y-66776983D01*
X116562667Y-66709106D01*
X116562658Y-66709103D01*
X116388694Y-66674500D01*
X116388691Y-66674500D01*
X116211309Y-66674500D01*
X116211306Y-66674500D01*
X116037341Y-66709103D01*
X116037332Y-66709106D01*
X115873459Y-66776983D01*
X115873446Y-66776990D01*
X115725965Y-66875535D01*
X115725961Y-66875538D01*
X115600538Y-67000961D01*
X115600535Y-67000965D01*
X115501990Y-67148446D01*
X115501983Y-67148459D01*
X115439061Y-67300371D01*
X115395221Y-67354775D01*
X115328927Y-67376840D01*
X115261227Y-67359561D01*
X115213616Y-67308424D01*
X115200500Y-67252919D01*
X115200500Y-67181903D01*
X115200500Y-67181898D01*
X115189877Y-67093436D01*
X115134361Y-66952658D01*
X115134360Y-66952657D01*
X115134360Y-66952656D01*
X115042922Y-66832077D01*
X114922343Y-66740639D01*
X114781561Y-66685122D01*
X114735926Y-66679642D01*
X114693102Y-66674500D01*
X113906898Y-66674500D01*
X113867853Y-66679188D01*
X113818438Y-66685122D01*
X113677656Y-66740639D01*
X113557077Y-66832077D01*
X113465639Y-66952656D01*
X113410122Y-67093438D01*
X113404188Y-67142853D01*
X113399500Y-67181898D01*
X76906218Y-67181898D01*
X76873824Y-67125790D01*
X76873818Y-67125782D01*
X76762017Y-67013981D01*
X76762009Y-67013975D01*
X76625090Y-66934926D01*
X76625086Y-66934924D01*
X76625084Y-66934923D01*
X76472357Y-66894000D01*
X76314243Y-66894000D01*
X76161516Y-66934923D01*
X76161509Y-66934926D01*
X76024590Y-67013975D01*
X76024582Y-67013981D01*
X75912781Y-67125782D01*
X75912775Y-67125790D01*
X75833726Y-67262709D01*
X75833723Y-67262716D01*
X75792800Y-67415443D01*
X66009279Y-67415443D01*
X65981217Y-67387381D01*
X65981209Y-67387375D01*
X65844290Y-67308326D01*
X65844286Y-67308324D01*
X65844284Y-67308323D01*
X65691557Y-67267400D01*
X65533443Y-67267400D01*
X65380716Y-67308323D01*
X65380709Y-67308326D01*
X65243790Y-67387375D01*
X65243782Y-67387381D01*
X65131981Y-67499182D01*
X65131975Y-67499190D01*
X65052926Y-67636109D01*
X65052923Y-67636116D01*
X65012000Y-67788843D01*
X40300500Y-67788843D01*
X40300500Y-64700131D01*
X40619500Y-64700131D01*
X40619500Y-66489856D01*
X40619502Y-66489882D01*
X40622413Y-66514987D01*
X40622415Y-66514991D01*
X40667793Y-66617764D01*
X40667794Y-66617765D01*
X40747235Y-66697206D01*
X40850009Y-66742585D01*
X40875135Y-66745500D01*
X42664864Y-66745499D01*
X42664879Y-66745497D01*
X42664882Y-66745497D01*
X42689987Y-66742586D01*
X42689988Y-66742585D01*
X42689991Y-66742585D01*
X42792765Y-66697206D01*
X42872206Y-66617765D01*
X42917585Y-66514991D01*
X42920500Y-66489865D01*
X42920499Y-65491579D01*
X43260000Y-65491579D01*
X43260000Y-65698420D01*
X43300348Y-65901266D01*
X43300350Y-65901274D01*
X43379500Y-66092359D01*
X43411377Y-66140067D01*
X43411378Y-66140067D01*
X43827037Y-65724408D01*
X43844075Y-65787993D01*
X43909901Y-65902007D01*
X44002993Y-65995099D01*
X44117007Y-66060925D01*
X44180590Y-66077962D01*
X43764931Y-66493620D01*
X43764932Y-66493621D01*
X43812633Y-66525495D01*
X43812639Y-66525498D01*
X44003725Y-66604649D01*
X44003733Y-66604651D01*
X44206579Y-66644999D01*
X44206583Y-66645000D01*
X44413417Y-66645000D01*
X44413420Y-66644999D01*
X44616266Y-66604651D01*
X44616274Y-66604649D01*
X44807366Y-66525495D01*
X44855066Y-66493621D01*
X44855067Y-66493620D01*
X44439409Y-66077962D01*
X44502993Y-66060925D01*
X44617007Y-65995099D01*
X44710099Y-65902007D01*
X44775925Y-65787993D01*
X44792962Y-65724409D01*
X45208620Y-66140067D01*
X45208621Y-66140066D01*
X45240495Y-66092366D01*
X45319649Y-65901274D01*
X45319651Y-65901266D01*
X45359999Y-65698420D01*
X45360000Y-65698417D01*
X45360000Y-65504448D01*
X45699500Y-65504448D01*
X45699500Y-65685551D01*
X45727829Y-65864410D01*
X45783787Y-66036636D01*
X45783788Y-66036639D01*
X45866006Y-66197997D01*
X45972441Y-66344494D01*
X45972445Y-66344499D01*
X46100500Y-66472554D01*
X46100505Y-66472558D01*
X46173372Y-66525498D01*
X46247006Y-66578996D01*
X46323094Y-66617765D01*
X46408360Y-66661211D01*
X46408363Y-66661212D01*
X46481953Y-66685122D01*
X46580591Y-66717171D01*
X46663429Y-66730291D01*
X46759449Y-66745500D01*
X46759454Y-66745500D01*
X46940551Y-66745500D01*
X47027259Y-66731765D01*
X47119409Y-66717171D01*
X47291639Y-66661211D01*
X47452994Y-66578996D01*
X47599501Y-66472553D01*
X47727553Y-66344501D01*
X47833996Y-66197994D01*
X47916211Y-66036639D01*
X47972171Y-65864409D01*
X47986422Y-65774425D01*
X47997527Y-65704321D01*
X48027456Y-65641186D01*
X48086768Y-65604255D01*
X48156630Y-65605253D01*
X48214863Y-65643863D01*
X48242473Y-65704321D01*
X48267829Y-65864410D01*
X48323787Y-66036636D01*
X48323788Y-66036639D01*
X48406006Y-66197997D01*
X48512441Y-66344494D01*
X48512445Y-66344499D01*
X48640500Y-66472554D01*
X48640505Y-66472558D01*
X48713372Y-66525498D01*
X48787006Y-66578996D01*
X48863094Y-66617765D01*
X48948360Y-66661211D01*
X48948363Y-66661212D01*
X49021953Y-66685122D01*
X49120591Y-66717171D01*
X49203429Y-66730291D01*
X49299449Y-66745500D01*
X49299454Y-66745500D01*
X49480551Y-66745500D01*
X49567259Y-66731765D01*
X49659409Y-66717171D01*
X49831639Y-66661211D01*
X49992994Y-66578996D01*
X50139501Y-66472553D01*
X50267553Y-66344501D01*
X50373996Y-66197994D01*
X50456211Y-66036639D01*
X50512171Y-65864409D01*
X50526422Y-65774425D01*
X50537527Y-65704321D01*
X50567456Y-65641186D01*
X50626768Y-65604255D01*
X50696630Y-65605253D01*
X50754863Y-65643863D01*
X50782473Y-65704321D01*
X50807829Y-65864410D01*
X50863787Y-66036636D01*
X50863788Y-66036639D01*
X50946006Y-66197997D01*
X51052441Y-66344494D01*
X51052445Y-66344499D01*
X51180500Y-66472554D01*
X51180505Y-66472558D01*
X51253372Y-66525498D01*
X51327006Y-66578996D01*
X51403094Y-66617765D01*
X51488360Y-66661211D01*
X51488363Y-66661212D01*
X51561953Y-66685122D01*
X51660591Y-66717171D01*
X51743429Y-66730291D01*
X51839449Y-66745500D01*
X51839454Y-66745500D01*
X52020551Y-66745500D01*
X52107259Y-66731765D01*
X52199409Y-66717171D01*
X52371639Y-66661211D01*
X52532994Y-66578996D01*
X52679501Y-66472553D01*
X52807553Y-66344501D01*
X52913996Y-66197994D01*
X52996211Y-66036639D01*
X53052171Y-65864409D01*
X53066422Y-65774425D01*
X53077527Y-65704321D01*
X53107456Y-65641186D01*
X53166768Y-65604255D01*
X53236630Y-65605253D01*
X53294863Y-65643863D01*
X53322473Y-65704321D01*
X53347829Y-65864410D01*
X53403787Y-66036636D01*
X53403788Y-66036639D01*
X53486006Y-66197997D01*
X53592441Y-66344494D01*
X53592445Y-66344499D01*
X53720500Y-66472554D01*
X53720505Y-66472558D01*
X53793372Y-66525498D01*
X53867006Y-66578996D01*
X53943094Y-66617765D01*
X54028360Y-66661211D01*
X54028363Y-66661212D01*
X54101953Y-66685122D01*
X54200591Y-66717171D01*
X54283429Y-66730291D01*
X54379449Y-66745500D01*
X54379454Y-66745500D01*
X54560551Y-66745500D01*
X54647259Y-66731765D01*
X54739409Y-66717171D01*
X54911639Y-66661211D01*
X55072994Y-66578996D01*
X55219501Y-66472553D01*
X55347553Y-66344501D01*
X55453996Y-66197994D01*
X55536211Y-66036639D01*
X55592171Y-65864409D01*
X55606422Y-65774425D01*
X55617527Y-65704321D01*
X55647456Y-65641186D01*
X55706768Y-65604255D01*
X55776630Y-65605253D01*
X55834863Y-65643863D01*
X55862473Y-65704321D01*
X55887829Y-65864410D01*
X55943787Y-66036636D01*
X55943788Y-66036639D01*
X56026006Y-66197997D01*
X56132441Y-66344494D01*
X56132445Y-66344499D01*
X56260500Y-66472554D01*
X56260505Y-66472558D01*
X56333372Y-66525498D01*
X56407006Y-66578996D01*
X56483094Y-66617765D01*
X56568360Y-66661211D01*
X56568363Y-66661212D01*
X56641953Y-66685122D01*
X56740591Y-66717171D01*
X56823429Y-66730291D01*
X56919449Y-66745500D01*
X56919454Y-66745500D01*
X57100551Y-66745500D01*
X57187259Y-66731765D01*
X57279409Y-66717171D01*
X57451639Y-66661211D01*
X57612994Y-66578996D01*
X57759501Y-66472553D01*
X57887553Y-66344501D01*
X57993996Y-66197994D01*
X58076211Y-66036639D01*
X58132171Y-65864409D01*
X58146765Y-65772259D01*
X58160500Y-65685551D01*
X58160500Y-65504448D01*
X58144019Y-65400397D01*
X58132171Y-65325591D01*
X58076211Y-65153361D01*
X58076211Y-65153360D01*
X58021702Y-65046382D01*
X57993996Y-64992006D01*
X57952270Y-64934575D01*
X57887558Y-64845505D01*
X57887554Y-64845500D01*
X57847497Y-64805443D01*
X72774700Y-64805443D01*
X72774700Y-64963557D01*
X72810626Y-65097633D01*
X72815623Y-65116283D01*
X72815626Y-65116290D01*
X72894675Y-65253209D01*
X72894679Y-65253214D01*
X72894680Y-65253216D01*
X73006484Y-65365020D01*
X73006486Y-65365021D01*
X73006490Y-65365024D01*
X73143409Y-65444073D01*
X73143416Y-65444077D01*
X73296143Y-65485000D01*
X73301898Y-65485000D01*
X73368937Y-65504685D01*
X73414692Y-65557489D01*
X73421670Y-65576900D01*
X73426521Y-65595000D01*
X73440423Y-65646885D01*
X73440426Y-65646890D01*
X73519475Y-65783809D01*
X73519479Y-65783814D01*
X73519480Y-65783816D01*
X73631284Y-65895620D01*
X73631286Y-65895621D01*
X73631290Y-65895624D01*
X73722969Y-65948554D01*
X73768216Y-65974677D01*
X73920943Y-66015600D01*
X73920945Y-66015600D01*
X74079055Y-66015600D01*
X74079057Y-66015600D01*
X74231784Y-65974677D01*
X74368716Y-65895620D01*
X74480520Y-65783816D01*
X74559577Y-65646884D01*
X74600500Y-65494157D01*
X74600500Y-65336043D01*
X74559577Y-65183316D01*
X74520880Y-65116290D01*
X74480524Y-65046390D01*
X74480518Y-65046382D01*
X74368717Y-64934581D01*
X74368709Y-64934575D01*
X74231790Y-64855526D01*
X74231786Y-64855524D01*
X74231784Y-64855523D01*
X74079057Y-64814600D01*
X74079056Y-64814600D01*
X74073302Y-64814600D01*
X74006263Y-64794915D01*
X73960508Y-64742111D01*
X73953529Y-64722699D01*
X73934777Y-64652716D01*
X73895884Y-64585350D01*
X73855724Y-64515790D01*
X73855718Y-64515782D01*
X73743917Y-64403981D01*
X73743909Y-64403975D01*
X73606990Y-64324926D01*
X73606986Y-64324924D01*
X73606984Y-64324923D01*
X73454257Y-64284000D01*
X73296143Y-64284000D01*
X73143416Y-64324923D01*
X73143409Y-64324926D01*
X73006490Y-64403975D01*
X73006482Y-64403981D01*
X72894681Y-64515782D01*
X72894675Y-64515790D01*
X72815626Y-64652709D01*
X72815624Y-64652714D01*
X72815623Y-64652716D01*
X72774700Y-64805443D01*
X57847497Y-64805443D01*
X57759499Y-64717445D01*
X57759494Y-64717441D01*
X57612997Y-64611006D01*
X57612996Y-64611005D01*
X57612994Y-64611004D01*
X57536906Y-64572235D01*
X57451639Y-64528788D01*
X57451636Y-64528787D01*
X57279410Y-64472829D01*
X57100551Y-64444500D01*
X57100546Y-64444500D01*
X56919454Y-64444500D01*
X56919449Y-64444500D01*
X56740589Y-64472829D01*
X56568363Y-64528787D01*
X56568360Y-64528788D01*
X56407002Y-64611006D01*
X56260505Y-64717441D01*
X56260500Y-64717445D01*
X56132445Y-64845500D01*
X56132441Y-64845505D01*
X56026006Y-64992002D01*
X55943788Y-65153360D01*
X55943787Y-65153363D01*
X55887829Y-65325589D01*
X55862473Y-65485678D01*
X55832544Y-65548813D01*
X55773232Y-65585744D01*
X55703369Y-65584746D01*
X55645137Y-65546136D01*
X55617527Y-65485678D01*
X55603740Y-65398639D01*
X55592171Y-65325591D01*
X55536211Y-65153361D01*
X55536211Y-65153360D01*
X55481702Y-65046382D01*
X55453996Y-64992006D01*
X55412270Y-64934575D01*
X55347558Y-64845505D01*
X55347554Y-64845500D01*
X55219499Y-64717445D01*
X55219494Y-64717441D01*
X55072997Y-64611006D01*
X55072996Y-64611005D01*
X55072994Y-64611004D01*
X54996906Y-64572235D01*
X54911639Y-64528788D01*
X54911636Y-64528787D01*
X54739410Y-64472829D01*
X54560551Y-64444500D01*
X54560546Y-64444500D01*
X54379454Y-64444500D01*
X54379449Y-64444500D01*
X54200589Y-64472829D01*
X54028363Y-64528787D01*
X54028360Y-64528788D01*
X53867002Y-64611006D01*
X53720505Y-64717441D01*
X53720500Y-64717445D01*
X53592445Y-64845500D01*
X53592441Y-64845505D01*
X53486006Y-64992002D01*
X53403788Y-65153360D01*
X53403787Y-65153363D01*
X53347829Y-65325589D01*
X53322473Y-65485678D01*
X53292544Y-65548813D01*
X53233232Y-65585744D01*
X53163369Y-65584746D01*
X53105137Y-65546136D01*
X53077527Y-65485678D01*
X53063740Y-65398639D01*
X53052171Y-65325591D01*
X52996211Y-65153361D01*
X52996211Y-65153360D01*
X52941702Y-65046382D01*
X52913996Y-64992006D01*
X52872270Y-64934575D01*
X52807558Y-64845505D01*
X52807554Y-64845500D01*
X52679499Y-64717445D01*
X52679494Y-64717441D01*
X52532997Y-64611006D01*
X52532996Y-64611005D01*
X52532994Y-64611004D01*
X52456906Y-64572235D01*
X52371639Y-64528788D01*
X52371636Y-64528787D01*
X52199410Y-64472829D01*
X52020551Y-64444500D01*
X52020546Y-64444500D01*
X51839454Y-64444500D01*
X51839449Y-64444500D01*
X51660589Y-64472829D01*
X51488363Y-64528787D01*
X51488360Y-64528788D01*
X51327002Y-64611006D01*
X51180505Y-64717441D01*
X51180500Y-64717445D01*
X51052445Y-64845500D01*
X51052441Y-64845505D01*
X50946006Y-64992002D01*
X50863788Y-65153360D01*
X50863787Y-65153363D01*
X50807829Y-65325589D01*
X50782473Y-65485678D01*
X50752544Y-65548813D01*
X50693232Y-65585744D01*
X50623369Y-65584746D01*
X50565137Y-65546136D01*
X50537527Y-65485678D01*
X50523740Y-65398639D01*
X50512171Y-65325591D01*
X50456211Y-65153361D01*
X50456211Y-65153360D01*
X50401702Y-65046382D01*
X50373996Y-64992006D01*
X50332270Y-64934575D01*
X50267558Y-64845505D01*
X50267554Y-64845500D01*
X50139499Y-64717445D01*
X50139494Y-64717441D01*
X49992997Y-64611006D01*
X49992996Y-64611005D01*
X49992994Y-64611004D01*
X49916906Y-64572235D01*
X49831639Y-64528788D01*
X49831636Y-64528787D01*
X49659410Y-64472829D01*
X49480551Y-64444500D01*
X49480546Y-64444500D01*
X49299454Y-64444500D01*
X49299449Y-64444500D01*
X49120589Y-64472829D01*
X48948363Y-64528787D01*
X48948360Y-64528788D01*
X48787002Y-64611006D01*
X48640505Y-64717441D01*
X48640500Y-64717445D01*
X48512445Y-64845500D01*
X48512441Y-64845505D01*
X48406006Y-64992002D01*
X48323788Y-65153360D01*
X48323787Y-65153363D01*
X48267829Y-65325589D01*
X48242473Y-65485678D01*
X48212544Y-65548813D01*
X48153232Y-65585744D01*
X48083369Y-65584746D01*
X48025137Y-65546136D01*
X47997527Y-65485678D01*
X47983740Y-65398639D01*
X47972171Y-65325591D01*
X47916211Y-65153361D01*
X47916211Y-65153360D01*
X47861702Y-65046382D01*
X47833996Y-64992006D01*
X47792270Y-64934575D01*
X47727558Y-64845505D01*
X47727554Y-64845500D01*
X47599499Y-64717445D01*
X47599494Y-64717441D01*
X47452997Y-64611006D01*
X47452996Y-64611005D01*
X47452994Y-64611004D01*
X47376906Y-64572235D01*
X47291639Y-64528788D01*
X47291636Y-64528787D01*
X47119410Y-64472829D01*
X46940551Y-64444500D01*
X46940546Y-64444500D01*
X46759454Y-64444500D01*
X46759449Y-64444500D01*
X46580589Y-64472829D01*
X46408363Y-64528787D01*
X46408360Y-64528788D01*
X46247002Y-64611006D01*
X46100505Y-64717441D01*
X46100500Y-64717445D01*
X45972445Y-64845500D01*
X45972441Y-64845505D01*
X45866006Y-64992002D01*
X45783788Y-65153360D01*
X45783787Y-65153363D01*
X45727829Y-65325589D01*
X45699500Y-65504448D01*
X45360000Y-65504448D01*
X45360000Y-65491583D01*
X45359999Y-65491579D01*
X45319651Y-65288733D01*
X45319649Y-65288725D01*
X45240498Y-65097639D01*
X45240495Y-65097633D01*
X45208621Y-65049932D01*
X45208620Y-65049931D01*
X44792962Y-65465590D01*
X44775925Y-65402007D01*
X44710099Y-65287993D01*
X44617007Y-65194901D01*
X44502993Y-65129075D01*
X44439409Y-65112037D01*
X44855067Y-64696378D01*
X44855067Y-64696377D01*
X44807359Y-64664500D01*
X44616274Y-64585350D01*
X44616266Y-64585348D01*
X44413420Y-64545000D01*
X44206579Y-64545000D01*
X44003733Y-64585348D01*
X44003725Y-64585350D01*
X43812641Y-64664500D01*
X43812631Y-64664505D01*
X43764932Y-64696377D01*
X43764932Y-64696378D01*
X44180591Y-65112037D01*
X44117007Y-65129075D01*
X44002993Y-65194901D01*
X43909901Y-65287993D01*
X43844075Y-65402007D01*
X43827037Y-65465591D01*
X43411378Y-65049932D01*
X43411377Y-65049932D01*
X43379505Y-65097631D01*
X43379500Y-65097641D01*
X43300350Y-65288725D01*
X43300348Y-65288733D01*
X43260000Y-65491579D01*
X42920499Y-65491579D01*
X42920499Y-64700136D01*
X42919382Y-64690500D01*
X42917586Y-64675012D01*
X42917585Y-64675010D01*
X42917585Y-64675009D01*
X42872206Y-64572235D01*
X42792765Y-64492794D01*
X42792763Y-64492793D01*
X42689992Y-64447415D01*
X42664865Y-64444500D01*
X40875143Y-64444500D01*
X40875117Y-64444502D01*
X40850012Y-64447413D01*
X40850008Y-64447415D01*
X40747235Y-64492793D01*
X40667794Y-64572234D01*
X40622415Y-64675006D01*
X40622415Y-64675008D01*
X40619500Y-64700131D01*
X40300500Y-64700131D01*
X40300500Y-64010943D01*
X58561500Y-64010943D01*
X58561500Y-64169057D01*
X58596545Y-64299845D01*
X58602423Y-64321783D01*
X58602426Y-64321790D01*
X58681475Y-64458709D01*
X58681479Y-64458714D01*
X58681480Y-64458716D01*
X58793284Y-64570520D01*
X58793286Y-64570521D01*
X58793290Y-64570524D01*
X58886296Y-64624220D01*
X58930216Y-64649577D01*
X59082943Y-64690500D01*
X59082945Y-64690500D01*
X59241055Y-64690500D01*
X59241057Y-64690500D01*
X59393784Y-64649577D01*
X59530716Y-64570520D01*
X59642520Y-64458716D01*
X59721577Y-64321784D01*
X59762500Y-64169057D01*
X59762500Y-64064643D01*
X70297800Y-64064643D01*
X70297800Y-64222757D01*
X70334442Y-64359505D01*
X70338723Y-64375483D01*
X70338726Y-64375490D01*
X70417775Y-64512409D01*
X70417779Y-64512414D01*
X70417780Y-64512416D01*
X70529584Y-64624220D01*
X70529586Y-64624221D01*
X70529590Y-64624224D01*
X70661088Y-64700143D01*
X70666516Y-64703277D01*
X70819243Y-64744200D01*
X70819245Y-64744200D01*
X70977355Y-64744200D01*
X70977357Y-64744200D01*
X71130084Y-64703277D01*
X71153205Y-64689927D01*
X71153208Y-64689927D01*
X71267009Y-64624224D01*
X71267008Y-64624224D01*
X71267016Y-64624220D01*
X71378820Y-64512416D01*
X71457877Y-64375484D01*
X71459602Y-64369044D01*
X71462159Y-64359505D01*
X71498524Y-64299845D01*
X71561372Y-64269317D01*
X71581933Y-64267600D01*
X71641555Y-64267600D01*
X71641557Y-64267600D01*
X71794284Y-64226677D01*
X71931216Y-64147620D01*
X72043020Y-64035816D01*
X72122077Y-63898884D01*
X72163000Y-63746157D01*
X72163000Y-63588043D01*
X72122077Y-63435316D01*
X72077953Y-63358890D01*
X72056045Y-63320943D01*
X86894500Y-63320943D01*
X86894500Y-63479057D01*
X86928949Y-63607620D01*
X86935423Y-63631783D01*
X86935426Y-63631790D01*
X87014475Y-63768709D01*
X87014479Y-63768714D01*
X87014480Y-63768716D01*
X87126284Y-63880520D01*
X87126286Y-63880521D01*
X87126290Y-63880524D01*
X87263209Y-63959573D01*
X87263216Y-63959577D01*
X87415943Y-64000500D01*
X87415945Y-64000500D01*
X87574055Y-64000500D01*
X87574057Y-64000500D01*
X87726784Y-63959577D01*
X87863716Y-63880520D01*
X87975520Y-63768716D01*
X88054577Y-63631784D01*
X88061957Y-63604243D01*
X99125600Y-63604243D01*
X99125600Y-63762357D01*
X99165673Y-63911909D01*
X99166523Y-63915083D01*
X99166526Y-63915090D01*
X99245575Y-64052009D01*
X99245579Y-64052014D01*
X99245580Y-64052016D01*
X99357384Y-64163820D01*
X99357386Y-64163821D01*
X99357390Y-64163824D01*
X99494309Y-64242873D01*
X99494316Y-64242877D01*
X99647043Y-64283800D01*
X99647045Y-64283800D01*
X99805155Y-64283800D01*
X99805157Y-64283800D01*
X99957884Y-64242877D01*
X100094816Y-64163820D01*
X100206620Y-64052016D01*
X100285677Y-63915084D01*
X100326600Y-63762357D01*
X100326600Y-63604243D01*
X100285677Y-63451516D01*
X100276324Y-63435316D01*
X100206624Y-63314590D01*
X100206618Y-63314582D01*
X100094817Y-63202781D01*
X100094809Y-63202775D01*
X99957890Y-63123726D01*
X99957886Y-63123724D01*
X99957884Y-63123723D01*
X99805157Y-63082800D01*
X99647043Y-63082800D01*
X99494316Y-63123723D01*
X99494309Y-63123726D01*
X99357390Y-63202775D01*
X99357382Y-63202781D01*
X99245581Y-63314582D01*
X99245575Y-63314590D01*
X99166526Y-63451509D01*
X99166523Y-63451516D01*
X99125600Y-63604243D01*
X88061957Y-63604243D01*
X88095500Y-63479057D01*
X88095500Y-63320943D01*
X88054577Y-63168216D01*
X88001843Y-63076877D01*
X87975524Y-63031290D01*
X87975518Y-63031282D01*
X87863717Y-62919481D01*
X87863709Y-62919475D01*
X87726790Y-62840426D01*
X87726786Y-62840424D01*
X87726784Y-62840423D01*
X87574057Y-62799500D01*
X87415943Y-62799500D01*
X87263216Y-62840423D01*
X87263209Y-62840426D01*
X87126290Y-62919475D01*
X87126282Y-62919481D01*
X87014481Y-63031282D01*
X87014475Y-63031290D01*
X86935426Y-63168209D01*
X86935423Y-63168216D01*
X86894500Y-63320943D01*
X72056045Y-63320943D01*
X72043022Y-63298387D01*
X72043018Y-63298382D01*
X71931217Y-63186581D01*
X71931209Y-63186575D01*
X71794290Y-63107526D01*
X71794286Y-63107524D01*
X71794284Y-63107523D01*
X71641557Y-63066600D01*
X71483443Y-63066600D01*
X71330716Y-63107523D01*
X71330709Y-63107526D01*
X71193790Y-63186575D01*
X71193782Y-63186581D01*
X71081981Y-63298382D01*
X71081975Y-63298390D01*
X71002926Y-63435309D01*
X71002921Y-63435320D01*
X70998641Y-63451295D01*
X70962276Y-63510955D01*
X70899428Y-63541483D01*
X70878867Y-63543200D01*
X70819243Y-63543200D01*
X70666516Y-63584123D01*
X70666509Y-63584126D01*
X70529590Y-63663175D01*
X70529582Y-63663181D01*
X70417781Y-63774982D01*
X70417775Y-63774990D01*
X70338726Y-63911909D01*
X70338723Y-63911916D01*
X70297800Y-64064643D01*
X59762500Y-64064643D01*
X59762500Y-64010943D01*
X59721577Y-63858216D01*
X59673527Y-63774990D01*
X59642524Y-63721290D01*
X59642521Y-63721286D01*
X59642520Y-63721284D01*
X59623117Y-63701881D01*
X59589632Y-63640558D01*
X59594616Y-63570866D01*
X59623117Y-63526519D01*
X59634418Y-63515218D01*
X59653820Y-63495816D01*
X59732877Y-63358884D01*
X59773800Y-63206157D01*
X59773800Y-63048043D01*
X59732877Y-62895316D01*
X59701185Y-62840423D01*
X59653824Y-62758390D01*
X59653818Y-62758382D01*
X59542017Y-62646581D01*
X59542009Y-62646575D01*
X59405090Y-62567526D01*
X59405086Y-62567524D01*
X59405084Y-62567523D01*
X59252357Y-62526600D01*
X59094243Y-62526600D01*
X58941516Y-62567523D01*
X58941509Y-62567526D01*
X58804590Y-62646575D01*
X58804582Y-62646581D01*
X58692781Y-62758382D01*
X58692775Y-62758390D01*
X58613726Y-62895309D01*
X58613723Y-62895316D01*
X58572800Y-63048043D01*
X58572800Y-63206157D01*
X58611477Y-63350499D01*
X58613723Y-63358883D01*
X58613726Y-63358890D01*
X58692775Y-63495809D01*
X58692781Y-63495817D01*
X58712182Y-63515218D01*
X58745667Y-63576541D01*
X58740683Y-63646233D01*
X58712185Y-63690578D01*
X58681479Y-63721285D01*
X58681475Y-63721290D01*
X58602426Y-63858209D01*
X58602423Y-63858216D01*
X58561500Y-64010943D01*
X40300500Y-64010943D01*
X40300500Y-62593443D01*
X55834600Y-62593443D01*
X55834600Y-62751557D01*
X55870629Y-62886017D01*
X55875523Y-62904283D01*
X55875526Y-62904290D01*
X55954575Y-63041209D01*
X55954579Y-63041214D01*
X55954580Y-63041216D01*
X56066384Y-63153020D01*
X56066386Y-63153021D01*
X56066390Y-63153024D01*
X56203309Y-63232073D01*
X56203316Y-63232077D01*
X56356043Y-63273000D01*
X56356045Y-63273000D01*
X56514155Y-63273000D01*
X56514157Y-63273000D01*
X56666884Y-63232077D01*
X56803816Y-63153020D01*
X56915620Y-63041216D01*
X56994677Y-62904284D01*
X57035600Y-62751557D01*
X57035600Y-62593443D01*
X56994677Y-62440716D01*
X56963844Y-62387311D01*
X56915624Y-62303790D01*
X56915618Y-62303782D01*
X56803817Y-62191981D01*
X56803809Y-62191975D01*
X56666890Y-62112926D01*
X56666886Y-62112924D01*
X56666884Y-62112923D01*
X56514157Y-62072000D01*
X56356043Y-62072000D01*
X56203316Y-62112923D01*
X56203309Y-62112926D01*
X56066390Y-62191975D01*
X56066382Y-62191981D01*
X55954581Y-62303782D01*
X55954575Y-62303790D01*
X55875526Y-62440709D01*
X55875523Y-62440716D01*
X55834600Y-62593443D01*
X40300500Y-62593443D01*
X40300500Y-58906898D01*
X50774500Y-58906898D01*
X50774500Y-59693102D01*
X50779733Y-59736677D01*
X50785122Y-59781561D01*
X50785122Y-59781563D01*
X50785123Y-59781564D01*
X50802722Y-59826192D01*
X50840639Y-59922343D01*
X50932077Y-60042922D01*
X51052656Y-60134360D01*
X51052657Y-60134360D01*
X51052658Y-60134361D01*
X51193436Y-60189877D01*
X51281898Y-60200500D01*
X51281903Y-60200500D01*
X51352920Y-60200500D01*
X51419959Y-60220185D01*
X51465714Y-60272989D01*
X51475658Y-60342147D01*
X51446633Y-60405703D01*
X51400372Y-60439060D01*
X51384134Y-60445786D01*
X51248458Y-60501983D01*
X51248446Y-60501990D01*
X51100965Y-60600535D01*
X51100961Y-60600538D01*
X50975538Y-60725961D01*
X50975535Y-60725965D01*
X50876990Y-60873446D01*
X50876983Y-60873459D01*
X50809106Y-61037332D01*
X50809103Y-61037341D01*
X50774500Y-61211304D01*
X50774500Y-61388695D01*
X50809103Y-61562658D01*
X50809106Y-61562667D01*
X50876983Y-61726540D01*
X50876990Y-61726553D01*
X50975535Y-61874034D01*
X50975538Y-61874038D01*
X51100961Y-61999461D01*
X51100965Y-61999464D01*
X51248446Y-62098009D01*
X51248459Y-62098016D01*
X51370539Y-62148582D01*
X51412334Y-62165894D01*
X51412336Y-62165894D01*
X51412341Y-62165896D01*
X51586304Y-62200499D01*
X51586307Y-62200500D01*
X51586309Y-62200500D01*
X52313693Y-62200500D01*
X52313694Y-62200499D01*
X52379891Y-62187332D01*
X52487658Y-62165896D01*
X52487661Y-62165894D01*
X52487666Y-62165894D01*
X52651547Y-62098013D01*
X52799035Y-61999464D01*
X52924464Y-61874035D01*
X53023013Y-61726547D01*
X53090894Y-61562666D01*
X53101969Y-61506991D01*
X53104425Y-61494643D01*
X58772800Y-61494643D01*
X58772800Y-61652757D01*
X58801585Y-61760182D01*
X58813723Y-61805483D01*
X58813726Y-61805490D01*
X58892775Y-61942409D01*
X58892779Y-61942414D01*
X58892780Y-61942416D01*
X59004584Y-62054220D01*
X59004586Y-62054221D01*
X59004590Y-62054224D01*
X59141509Y-62133273D01*
X59141516Y-62133277D01*
X59294243Y-62174200D01*
X59294245Y-62174200D01*
X59452355Y-62174200D01*
X59452357Y-62174200D01*
X59605084Y-62133277D01*
X59742016Y-62054220D01*
X59746393Y-62049843D01*
X69724100Y-62049843D01*
X69724100Y-62207957D01*
X69750581Y-62306783D01*
X69765023Y-62360683D01*
X69765026Y-62360690D01*
X69844075Y-62497609D01*
X69844079Y-62497614D01*
X69844080Y-62497616D01*
X69955884Y-62609420D01*
X69955886Y-62609421D01*
X69955890Y-62609424D01*
X70020249Y-62646581D01*
X70092816Y-62688477D01*
X70245543Y-62729400D01*
X70245545Y-62729400D01*
X70403655Y-62729400D01*
X70403657Y-62729400D01*
X70556384Y-62688477D01*
X70693316Y-62609420D01*
X70805120Y-62497616D01*
X70884177Y-62360684D01*
X70925100Y-62207957D01*
X70925100Y-62049843D01*
X70910658Y-61995943D01*
X76449500Y-61995943D01*
X76449500Y-62154057D01*
X76484725Y-62285516D01*
X76490423Y-62306783D01*
X76490426Y-62306790D01*
X76569475Y-62443709D01*
X76569479Y-62443714D01*
X76569480Y-62443716D01*
X76681284Y-62555520D01*
X76681286Y-62555521D01*
X76681290Y-62555524D01*
X76752016Y-62596357D01*
X76818216Y-62634577D01*
X76970943Y-62675500D01*
X76970945Y-62675500D01*
X77129055Y-62675500D01*
X77129057Y-62675500D01*
X77281784Y-62634577D01*
X77418716Y-62555520D01*
X77530520Y-62443716D01*
X77533680Y-62438243D01*
X91528400Y-62438243D01*
X91528400Y-62596357D01*
X91564049Y-62729399D01*
X91569323Y-62749083D01*
X91569326Y-62749090D01*
X91648375Y-62886009D01*
X91648379Y-62886014D01*
X91648380Y-62886016D01*
X91760184Y-62997820D01*
X91760186Y-62997821D01*
X91760190Y-62997824D01*
X91897109Y-63076873D01*
X91897116Y-63076877D01*
X92049843Y-63117800D01*
X92049845Y-63117800D01*
X92207955Y-63117800D01*
X92207957Y-63117800D01*
X92360684Y-63076877D01*
X92497616Y-62997820D01*
X92609420Y-62886016D01*
X92688477Y-62749084D01*
X92729400Y-62596357D01*
X92729400Y-62438243D01*
X92708784Y-62361304D01*
X114524500Y-62361304D01*
X114524500Y-62538695D01*
X114559103Y-62712658D01*
X114559106Y-62712667D01*
X114626983Y-62876540D01*
X114626990Y-62876553D01*
X114725535Y-63024034D01*
X114725538Y-63024038D01*
X114850961Y-63149461D01*
X114850965Y-63149464D01*
X114998446Y-63248009D01*
X114998459Y-63248016D01*
X115120056Y-63298382D01*
X115162334Y-63315894D01*
X115162336Y-63315894D01*
X115162341Y-63315896D01*
X115336304Y-63350499D01*
X115336307Y-63350500D01*
X115336309Y-63350500D01*
X116063693Y-63350500D01*
X116063694Y-63350499D01*
X116121682Y-63338964D01*
X116237658Y-63315896D01*
X116237661Y-63315894D01*
X116237666Y-63315894D01*
X116401547Y-63248013D01*
X116549035Y-63149464D01*
X116674464Y-63024035D01*
X116773013Y-62876547D01*
X116840894Y-62712666D01*
X116845707Y-62688473D01*
X116875499Y-62538695D01*
X116875500Y-62538693D01*
X116875500Y-62361306D01*
X116875499Y-62361304D01*
X116840896Y-62187341D01*
X116840893Y-62187332D01*
X116773016Y-62023459D01*
X116773009Y-62023446D01*
X116674464Y-61875965D01*
X116674461Y-61875961D01*
X116549038Y-61750538D01*
X116549034Y-61750535D01*
X116401553Y-61651990D01*
X116401540Y-61651983D01*
X116237667Y-61584106D01*
X116237658Y-61584103D01*
X116063694Y-61549500D01*
X116063691Y-61549500D01*
X115336309Y-61549500D01*
X115336306Y-61549500D01*
X115162341Y-61584103D01*
X115162332Y-61584106D01*
X114998459Y-61651983D01*
X114998446Y-61651990D01*
X114850965Y-61750535D01*
X114850961Y-61750538D01*
X114725538Y-61875961D01*
X114725535Y-61875965D01*
X114626990Y-62023446D01*
X114626983Y-62023459D01*
X114559106Y-62187332D01*
X114559103Y-62187341D01*
X114524500Y-62361304D01*
X92708784Y-62361304D01*
X92688477Y-62285516D01*
X92643698Y-62207955D01*
X92609424Y-62148590D01*
X92609418Y-62148582D01*
X92497617Y-62036781D01*
X92497609Y-62036775D01*
X92360690Y-61957726D01*
X92360686Y-61957724D01*
X92360684Y-61957723D01*
X92207957Y-61916800D01*
X92049843Y-61916800D01*
X91897116Y-61957723D01*
X91897109Y-61957726D01*
X91760190Y-62036775D01*
X91760182Y-62036781D01*
X91648381Y-62148582D01*
X91648375Y-62148590D01*
X91569326Y-62285509D01*
X91569323Y-62285516D01*
X91528400Y-62438243D01*
X77533680Y-62438243D01*
X77609577Y-62306784D01*
X77650500Y-62154057D01*
X77650500Y-61995943D01*
X77609577Y-61843216D01*
X77587792Y-61805483D01*
X77530524Y-61706290D01*
X77530518Y-61706282D01*
X77418717Y-61594481D01*
X77418709Y-61594475D01*
X77281790Y-61515426D01*
X77281786Y-61515424D01*
X77281784Y-61515423D01*
X77129057Y-61474500D01*
X76970943Y-61474500D01*
X76818216Y-61515423D01*
X76818209Y-61515426D01*
X76681290Y-61594475D01*
X76681282Y-61594481D01*
X76569481Y-61706282D01*
X76569475Y-61706290D01*
X76490426Y-61843209D01*
X76490423Y-61843216D01*
X76449500Y-61995943D01*
X70910658Y-61995943D01*
X70884177Y-61897116D01*
X70853001Y-61843117D01*
X70805124Y-61760190D01*
X70805118Y-61760182D01*
X70693317Y-61648381D01*
X70693309Y-61648375D01*
X70556390Y-61569326D01*
X70556386Y-61569324D01*
X70556384Y-61569323D01*
X70403657Y-61528400D01*
X70245543Y-61528400D01*
X70092816Y-61569323D01*
X70092809Y-61569326D01*
X69955890Y-61648375D01*
X69955882Y-61648381D01*
X69844081Y-61760182D01*
X69844075Y-61760190D01*
X69765026Y-61897109D01*
X69765024Y-61897114D01*
X69765023Y-61897116D01*
X69724100Y-62049843D01*
X59746393Y-62049843D01*
X59853820Y-61942416D01*
X59932877Y-61805484D01*
X59973800Y-61652757D01*
X59973800Y-61494643D01*
X59947193Y-61395343D01*
X99130400Y-61395343D01*
X99130400Y-61553457D01*
X99157008Y-61652757D01*
X99171323Y-61706183D01*
X99171326Y-61706190D01*
X99250375Y-61843109D01*
X99250379Y-61843114D01*
X99250380Y-61843116D01*
X99362184Y-61954920D01*
X99362186Y-61954921D01*
X99362190Y-61954924D01*
X99480888Y-62023453D01*
X99499116Y-62033977D01*
X99651843Y-62074900D01*
X99651845Y-62074900D01*
X99809955Y-62074900D01*
X99809957Y-62074900D01*
X99962684Y-62033977D01*
X100099616Y-61954920D01*
X100211420Y-61843116D01*
X100290477Y-61706184D01*
X100331400Y-61553457D01*
X100331400Y-61395343D01*
X100290477Y-61242616D01*
X100268754Y-61204990D01*
X100211424Y-61105690D01*
X100211418Y-61105682D01*
X100099617Y-60993881D01*
X100099609Y-60993875D01*
X99962690Y-60914826D01*
X99962686Y-60914824D01*
X99962684Y-60914823D01*
X99809957Y-60873900D01*
X99651843Y-60873900D01*
X99499116Y-60914823D01*
X99499109Y-60914826D01*
X99362190Y-60993875D01*
X99362182Y-60993881D01*
X99250381Y-61105682D01*
X99250375Y-61105690D01*
X99171326Y-61242609D01*
X99171323Y-61242616D01*
X99130400Y-61395343D01*
X59947193Y-61395343D01*
X59932877Y-61341916D01*
X59932873Y-61341909D01*
X59853824Y-61204990D01*
X59853818Y-61204982D01*
X59742017Y-61093181D01*
X59742009Y-61093175D01*
X59605090Y-61014126D01*
X59605086Y-61014124D01*
X59605084Y-61014123D01*
X59452357Y-60973200D01*
X59294243Y-60973200D01*
X59141516Y-61014123D01*
X59141509Y-61014126D01*
X59004590Y-61093175D01*
X59004582Y-61093181D01*
X58892781Y-61204982D01*
X58892775Y-61204990D01*
X58813726Y-61341909D01*
X58813723Y-61341916D01*
X58772800Y-61494643D01*
X53104425Y-61494643D01*
X53110854Y-61462324D01*
X53110854Y-61462323D01*
X53125499Y-61388695D01*
X53125500Y-61388693D01*
X53125500Y-61211306D01*
X53125499Y-61211304D01*
X53090896Y-61037341D01*
X53090893Y-61037332D01*
X53023016Y-60873459D01*
X53023009Y-60873446D01*
X52924464Y-60725965D01*
X52924461Y-60725961D01*
X52799038Y-60600538D01*
X52799034Y-60600535D01*
X52651553Y-60501990D01*
X52651541Y-60501983D01*
X52519718Y-60447382D01*
X52499627Y-60439060D01*
X52445224Y-60395221D01*
X52423159Y-60328927D01*
X52440438Y-60261227D01*
X52491575Y-60213617D01*
X52547080Y-60200500D01*
X52618097Y-60200500D01*
X52618102Y-60200500D01*
X52706564Y-60189877D01*
X52837752Y-60138143D01*
X68969500Y-60138143D01*
X68969500Y-60296257D01*
X69006437Y-60434106D01*
X69010423Y-60448983D01*
X69010426Y-60448990D01*
X69089475Y-60585909D01*
X69089479Y-60585914D01*
X69089480Y-60585916D01*
X69201284Y-60697720D01*
X69201286Y-60697721D01*
X69201290Y-60697724D01*
X69250199Y-60725961D01*
X69338216Y-60776777D01*
X69490943Y-60817700D01*
X69490945Y-60817700D01*
X69649055Y-60817700D01*
X69649057Y-60817700D01*
X69801784Y-60776777D01*
X69938716Y-60697720D01*
X70050520Y-60585916D01*
X70129577Y-60448984D01*
X70170500Y-60296257D01*
X70170500Y-60138143D01*
X70129577Y-59985416D01*
X70079974Y-59899500D01*
X70050524Y-59848490D01*
X70050518Y-59848482D01*
X69938717Y-59736681D01*
X69938712Y-59736677D01*
X69922131Y-59727104D01*
X69922130Y-59727104D01*
X69801784Y-59657623D01*
X69783971Y-59652850D01*
X69690643Y-59627843D01*
X74483500Y-59627843D01*
X74483500Y-59785957D01*
X74520045Y-59922343D01*
X74524423Y-59938683D01*
X74524426Y-59938690D01*
X74603475Y-60075609D01*
X74603479Y-60075614D01*
X74603480Y-60075616D01*
X74715284Y-60187420D01*
X74715286Y-60187421D01*
X74715290Y-60187424D01*
X74772035Y-60220185D01*
X74852216Y-60266477D01*
X75004943Y-60307400D01*
X75004945Y-60307400D01*
X75163055Y-60307400D01*
X75163057Y-60307400D01*
X75315784Y-60266477D01*
X75452716Y-60187420D01*
X75564520Y-60075616D01*
X75581738Y-60045793D01*
X114625000Y-60045793D01*
X114625000Y-60200000D01*
X115419670Y-60200000D01*
X115399925Y-60219745D01*
X115350556Y-60305255D01*
X115325000Y-60400630D01*
X115325000Y-60499370D01*
X115350556Y-60594745D01*
X115399925Y-60680255D01*
X115419670Y-60700000D01*
X114625001Y-60700000D01*
X114625001Y-60854196D01*
X114627851Y-60884606D01*
X114672653Y-61012645D01*
X114753207Y-61121792D01*
X114862354Y-61202346D01*
X114990397Y-61247149D01*
X115020792Y-61249999D01*
X115449999Y-61249999D01*
X115450000Y-61249998D01*
X115450000Y-60730330D01*
X115469745Y-60750075D01*
X115555255Y-60799444D01*
X115650630Y-60825000D01*
X115749370Y-60825000D01*
X115844745Y-60799444D01*
X115930255Y-60750075D01*
X115950000Y-60730330D01*
X115950000Y-61249999D01*
X116379196Y-61249999D01*
X116409606Y-61247148D01*
X116537645Y-61202346D01*
X116646792Y-61121792D01*
X116727346Y-61012645D01*
X116772149Y-60884604D01*
X116772149Y-60884600D01*
X116775000Y-60854206D01*
X116775000Y-60700000D01*
X115980330Y-60700000D01*
X116000075Y-60680255D01*
X116049444Y-60594745D01*
X116075000Y-60499370D01*
X116075000Y-60400630D01*
X116049444Y-60305255D01*
X116000075Y-60219745D01*
X115980330Y-60200000D01*
X116774999Y-60200000D01*
X116774999Y-60045803D01*
X116772148Y-60015393D01*
X116727346Y-59887354D01*
X116646792Y-59778207D01*
X116537645Y-59697653D01*
X116409602Y-59652850D01*
X116379207Y-59650000D01*
X115950000Y-59650000D01*
X115950000Y-60169670D01*
X115930255Y-60149925D01*
X115844745Y-60100556D01*
X115749370Y-60075000D01*
X115650630Y-60075000D01*
X115555255Y-60100556D01*
X115469745Y-60149925D01*
X115450000Y-60169670D01*
X115450000Y-59650000D01*
X115020803Y-59650000D01*
X114990393Y-59652851D01*
X114862354Y-59697653D01*
X114753207Y-59778207D01*
X114672653Y-59887354D01*
X114627850Y-60015395D01*
X114627850Y-60015399D01*
X114625000Y-60045793D01*
X75581738Y-60045793D01*
X75643577Y-59938684D01*
X75684500Y-59785957D01*
X75684500Y-59627843D01*
X75643577Y-59475116D01*
X75643573Y-59475109D01*
X75564524Y-59338190D01*
X75564518Y-59338182D01*
X75452717Y-59226381D01*
X75452709Y-59226375D01*
X75441568Y-59219943D01*
X78098700Y-59219943D01*
X78098700Y-59378056D01*
X78139623Y-59530783D01*
X78139626Y-59530790D01*
X78218675Y-59667709D01*
X78218679Y-59667714D01*
X78218680Y-59667716D01*
X78330484Y-59779520D01*
X78330486Y-59779521D01*
X78330490Y-59779524D01*
X78467409Y-59858573D01*
X78467416Y-59858577D01*
X78620143Y-59899500D01*
X78620145Y-59899500D01*
X78778255Y-59899500D01*
X78778257Y-59899500D01*
X78930984Y-59858577D01*
X79067916Y-59779520D01*
X79179720Y-59667716D01*
X79258777Y-59530784D01*
X79299700Y-59378057D01*
X79299700Y-59219943D01*
X79258777Y-59067216D01*
X79220259Y-59000500D01*
X79179724Y-58930290D01*
X79179718Y-58930282D01*
X79067917Y-58818481D01*
X79067909Y-58818475D01*
X78930990Y-58739426D01*
X78930986Y-58739424D01*
X78930984Y-58739423D01*
X78778257Y-58698500D01*
X78620143Y-58698500D01*
X78467416Y-58739423D01*
X78467409Y-58739426D01*
X78330490Y-58818475D01*
X78330482Y-58818481D01*
X78218681Y-58930282D01*
X78218675Y-58930290D01*
X78139626Y-59067209D01*
X78139623Y-59067216D01*
X78098700Y-59219943D01*
X75441568Y-59219943D01*
X75315790Y-59147326D01*
X75315786Y-59147324D01*
X75315784Y-59147323D01*
X75163057Y-59106400D01*
X75004943Y-59106400D01*
X74852216Y-59147323D01*
X74852209Y-59147326D01*
X74715290Y-59226375D01*
X74715282Y-59226381D01*
X74603481Y-59338182D01*
X74603475Y-59338190D01*
X74524426Y-59475109D01*
X74524423Y-59475116D01*
X74483500Y-59627843D01*
X69690643Y-59627843D01*
X69649057Y-59616700D01*
X69490943Y-59616700D01*
X69338216Y-59657623D01*
X69338209Y-59657626D01*
X69201290Y-59736675D01*
X69201282Y-59736681D01*
X69089481Y-59848482D01*
X69089475Y-59848490D01*
X69010426Y-59985409D01*
X69010423Y-59985416D01*
X68969500Y-60138143D01*
X52837752Y-60138143D01*
X52847342Y-60134361D01*
X52967922Y-60042922D01*
X53059361Y-59922342D01*
X53114877Y-59781564D01*
X53125500Y-59693102D01*
X53125500Y-58906898D01*
X53114877Y-58818436D01*
X53059361Y-58677658D01*
X53059360Y-58677657D01*
X53059360Y-58677656D01*
X52972217Y-58562741D01*
X52972216Y-58562740D01*
X52967922Y-58557078D01*
X52887304Y-58495943D01*
X71849500Y-58495943D01*
X71849500Y-58654057D01*
X71861409Y-58698500D01*
X71890423Y-58806783D01*
X71890426Y-58806790D01*
X71969475Y-58943709D01*
X71969479Y-58943714D01*
X71969480Y-58943716D01*
X72081284Y-59055520D01*
X72081286Y-59055521D01*
X72081290Y-59055524D01*
X72218209Y-59134573D01*
X72218216Y-59134577D01*
X72370943Y-59175500D01*
X72370945Y-59175500D01*
X72529055Y-59175500D01*
X72529057Y-59175500D01*
X72681784Y-59134577D01*
X72818716Y-59055520D01*
X72930520Y-58943716D01*
X73009577Y-58806784D01*
X73050500Y-58654057D01*
X73050500Y-58495943D01*
X73009577Y-58343216D01*
X72956230Y-58250815D01*
X72930524Y-58206290D01*
X72930518Y-58206282D01*
X72818717Y-58094481D01*
X72818709Y-58094475D01*
X72681790Y-58015426D01*
X72681786Y-58015424D01*
X72681784Y-58015423D01*
X72529057Y-57974500D01*
X72370943Y-57974500D01*
X72218216Y-58015423D01*
X72218209Y-58015426D01*
X72081290Y-58094475D01*
X72081282Y-58094481D01*
X71969481Y-58206282D01*
X71969475Y-58206290D01*
X71890426Y-58343209D01*
X71890423Y-58343216D01*
X71849500Y-58495943D01*
X52887304Y-58495943D01*
X52847343Y-58465639D01*
X52706561Y-58410122D01*
X52660926Y-58404642D01*
X52618102Y-58399500D01*
X51281898Y-58399500D01*
X51242853Y-58404188D01*
X51193438Y-58410122D01*
X51052656Y-58465639D01*
X50932077Y-58557077D01*
X50840639Y-58677656D01*
X50785122Y-58818438D01*
X50779188Y-58867853D01*
X50774500Y-58906898D01*
X40300500Y-58906898D01*
X40300500Y-57030443D01*
X66965100Y-57030443D01*
X66965100Y-57188557D01*
X66991195Y-57285943D01*
X67006023Y-57341283D01*
X67006026Y-57341290D01*
X67085075Y-57478209D01*
X67085079Y-57478214D01*
X67085080Y-57478216D01*
X67196884Y-57590020D01*
X67196886Y-57590021D01*
X67196890Y-57590024D01*
X67333809Y-57669073D01*
X67333816Y-57669077D01*
X67486543Y-57710000D01*
X67486545Y-57710000D01*
X67644655Y-57710000D01*
X67644657Y-57710000D01*
X67797384Y-57669077D01*
X67934316Y-57590020D01*
X68046120Y-57478216D01*
X68125177Y-57341284D01*
X68140006Y-57285943D01*
X78652800Y-57285943D01*
X78652800Y-57444057D01*
X78655739Y-57455023D01*
X78693723Y-57596783D01*
X78693726Y-57596790D01*
X78772775Y-57733709D01*
X78772779Y-57733714D01*
X78772780Y-57733716D01*
X78884584Y-57845520D01*
X78884586Y-57845521D01*
X78884590Y-57845524D01*
X79012679Y-57919475D01*
X79021516Y-57924577D01*
X79174243Y-57965500D01*
X79174245Y-57965500D01*
X79332355Y-57965500D01*
X79332357Y-57965500D01*
X79444158Y-57935543D01*
X80957400Y-57935543D01*
X80957400Y-58093657D01*
X80987579Y-58206284D01*
X80998323Y-58246383D01*
X80998326Y-58246390D01*
X81077375Y-58383309D01*
X81077379Y-58383314D01*
X81077380Y-58383316D01*
X81189184Y-58495120D01*
X81189186Y-58495121D01*
X81189190Y-58495124D01*
X81296499Y-58557078D01*
X81326116Y-58574177D01*
X81478843Y-58615100D01*
X81478845Y-58615100D01*
X81636955Y-58615100D01*
X81636957Y-58615100D01*
X81789684Y-58574177D01*
X81926616Y-58495120D01*
X82038420Y-58383316D01*
X82074431Y-58320943D01*
X88555700Y-58320943D01*
X88555700Y-58479057D01*
X88592153Y-58615099D01*
X88596623Y-58631783D01*
X88596626Y-58631790D01*
X88675675Y-58768709D01*
X88675679Y-58768714D01*
X88675680Y-58768716D01*
X88787484Y-58880520D01*
X88787486Y-58880521D01*
X88787490Y-58880524D01*
X88896945Y-58943717D01*
X88924416Y-58959577D01*
X89077143Y-59000500D01*
X89077145Y-59000500D01*
X89235255Y-59000500D01*
X89235257Y-59000500D01*
X89387984Y-58959577D01*
X89524916Y-58880520D01*
X89636720Y-58768716D01*
X89715777Y-58631784D01*
X89756700Y-58479057D01*
X89756700Y-58320943D01*
X89715777Y-58168216D01*
X89715773Y-58168209D01*
X89636724Y-58031290D01*
X89636718Y-58031282D01*
X89524917Y-57919481D01*
X89524909Y-57919475D01*
X89387990Y-57840426D01*
X89387986Y-57840424D01*
X89387984Y-57840423D01*
X89235257Y-57799500D01*
X89077143Y-57799500D01*
X88924416Y-57840423D01*
X88924409Y-57840426D01*
X88787490Y-57919475D01*
X88787482Y-57919481D01*
X88675681Y-58031282D01*
X88675675Y-58031290D01*
X88596626Y-58168209D01*
X88596623Y-58168216D01*
X88555700Y-58320943D01*
X82074431Y-58320943D01*
X82117477Y-58246384D01*
X82158400Y-58093657D01*
X82158400Y-57935543D01*
X82117477Y-57782816D01*
X82089130Y-57733717D01*
X82038424Y-57645890D01*
X82038418Y-57645882D01*
X81926617Y-57534081D01*
X81926609Y-57534075D01*
X81789690Y-57455026D01*
X81789686Y-57455024D01*
X81789684Y-57455023D01*
X81636957Y-57414100D01*
X81478843Y-57414100D01*
X81326116Y-57455023D01*
X81326109Y-57455026D01*
X81189190Y-57534075D01*
X81189182Y-57534081D01*
X81077381Y-57645882D01*
X81077375Y-57645890D01*
X80998326Y-57782809D01*
X80998323Y-57782816D01*
X80957400Y-57935543D01*
X79444158Y-57935543D01*
X79485084Y-57924577D01*
X79622016Y-57845520D01*
X79733820Y-57733716D01*
X79812877Y-57596784D01*
X79853800Y-57444057D01*
X79853800Y-57285943D01*
X79812877Y-57133216D01*
X79753542Y-57030443D01*
X79733824Y-56996290D01*
X79733818Y-56996282D01*
X79622017Y-56884481D01*
X79622009Y-56884475D01*
X79485090Y-56805426D01*
X79485086Y-56805424D01*
X79485084Y-56805423D01*
X79332357Y-56764500D01*
X79174243Y-56764500D01*
X79021516Y-56805423D01*
X79021509Y-56805426D01*
X78884590Y-56884475D01*
X78884582Y-56884481D01*
X78772781Y-56996282D01*
X78772775Y-56996290D01*
X78693726Y-57133209D01*
X78693723Y-57133216D01*
X78652800Y-57285943D01*
X68140006Y-57285943D01*
X68166100Y-57188557D01*
X68166100Y-57030443D01*
X68125177Y-56877716D01*
X68083439Y-56805423D01*
X68046124Y-56740790D01*
X68046118Y-56740782D01*
X67934317Y-56628981D01*
X67934309Y-56628975D01*
X67797390Y-56549926D01*
X67797386Y-56549924D01*
X67797384Y-56549923D01*
X67644657Y-56509000D01*
X67486543Y-56509000D01*
X67333816Y-56549923D01*
X67333809Y-56549926D01*
X67196890Y-56628975D01*
X67196882Y-56628981D01*
X67085081Y-56740782D01*
X67085075Y-56740790D01*
X67006026Y-56877709D01*
X67006023Y-56877716D01*
X66965100Y-57030443D01*
X40300500Y-57030443D01*
X40300500Y-55697343D01*
X53347800Y-55697343D01*
X53347800Y-55855457D01*
X53365233Y-55920516D01*
X53388723Y-56008183D01*
X53388726Y-56008190D01*
X53467775Y-56145109D01*
X53467779Y-56145114D01*
X53467780Y-56145116D01*
X53579584Y-56256920D01*
X53579586Y-56256921D01*
X53579590Y-56256924D01*
X53670789Y-56309577D01*
X53716516Y-56335977D01*
X53869243Y-56376900D01*
X53869245Y-56376900D01*
X54027355Y-56376900D01*
X54027357Y-56376900D01*
X54180084Y-56335977D01*
X54317016Y-56256920D01*
X54428820Y-56145116D01*
X54507877Y-56008184D01*
X54548800Y-55855457D01*
X54548800Y-55697343D01*
X54507877Y-55544616D01*
X54497483Y-55526614D01*
X54497483Y-55526612D01*
X54466382Y-55472743D01*
X61956900Y-55472743D01*
X61956900Y-55630857D01*
X61974716Y-55697345D01*
X61997823Y-55783583D01*
X61997826Y-55783590D01*
X62076875Y-55920509D01*
X62076879Y-55920514D01*
X62076880Y-55920516D01*
X62188684Y-56032320D01*
X62188686Y-56032321D01*
X62188690Y-56032324D01*
X62199890Y-56038790D01*
X62325616Y-56111377D01*
X62478343Y-56152300D01*
X62478345Y-56152300D01*
X62636455Y-56152300D01*
X62636457Y-56152300D01*
X62789184Y-56111377D01*
X62926116Y-56032320D01*
X63037920Y-55920516D01*
X63116977Y-55783584D01*
X63131886Y-55727943D01*
X88800300Y-55727943D01*
X88800300Y-55886057D01*
X88839491Y-56032318D01*
X88841223Y-56038783D01*
X88841226Y-56038790D01*
X88920275Y-56175709D01*
X88920279Y-56175714D01*
X88920280Y-56175716D01*
X89032084Y-56287520D01*
X89032086Y-56287521D01*
X89032090Y-56287524D01*
X89169009Y-56366573D01*
X89169016Y-56366577D01*
X89321743Y-56407500D01*
X89321745Y-56407500D01*
X89479855Y-56407500D01*
X89479857Y-56407500D01*
X89632584Y-56366577D01*
X89769516Y-56287520D01*
X89881320Y-56175716D01*
X89960377Y-56038784D01*
X90001300Y-55886057D01*
X90001300Y-55727943D01*
X89986027Y-55670943D01*
X93579800Y-55670943D01*
X93579800Y-55829057D01*
X93604307Y-55920516D01*
X93620723Y-55981783D01*
X93620726Y-55981790D01*
X93699775Y-56118709D01*
X93699779Y-56118714D01*
X93699780Y-56118716D01*
X93811584Y-56230520D01*
X93811586Y-56230521D01*
X93811590Y-56230524D01*
X93948509Y-56309573D01*
X93948516Y-56309577D01*
X94101243Y-56350500D01*
X94101245Y-56350500D01*
X94259355Y-56350500D01*
X94259357Y-56350500D01*
X94412084Y-56309577D01*
X94549016Y-56230520D01*
X94660820Y-56118716D01*
X94739877Y-55981784D01*
X94780800Y-55829057D01*
X94780800Y-55670943D01*
X94739877Y-55518216D01*
X94716786Y-55478220D01*
X94660824Y-55381290D01*
X94660818Y-55381282D01*
X94549017Y-55269481D01*
X94549009Y-55269475D01*
X94412090Y-55190426D01*
X94412086Y-55190424D01*
X94412084Y-55190423D01*
X94259357Y-55149500D01*
X94101243Y-55149500D01*
X93948516Y-55190423D01*
X93948509Y-55190426D01*
X93811590Y-55269475D01*
X93811582Y-55269481D01*
X93699781Y-55381282D01*
X93699775Y-55381290D01*
X93620726Y-55518209D01*
X93620723Y-55518216D01*
X93579800Y-55670943D01*
X89986027Y-55670943D01*
X89960377Y-55575216D01*
X89950020Y-55557277D01*
X89881324Y-55438290D01*
X89881318Y-55438282D01*
X89769517Y-55326481D01*
X89769509Y-55326475D01*
X89632590Y-55247426D01*
X89632586Y-55247424D01*
X89632584Y-55247423D01*
X89479857Y-55206500D01*
X89321743Y-55206500D01*
X89169016Y-55247423D01*
X89169009Y-55247426D01*
X89032090Y-55326475D01*
X89032082Y-55326481D01*
X88920281Y-55438282D01*
X88920275Y-55438290D01*
X88841226Y-55575209D01*
X88841223Y-55575216D01*
X88800300Y-55727943D01*
X63131886Y-55727943D01*
X63157900Y-55630857D01*
X63157900Y-55472743D01*
X63116977Y-55320016D01*
X63087801Y-55269481D01*
X63037924Y-55183090D01*
X63037918Y-55183082D01*
X62926117Y-55071281D01*
X62926112Y-55071277D01*
X62833666Y-55017904D01*
X62833665Y-55017904D01*
X62789184Y-54992223D01*
X62636457Y-54951300D01*
X62478343Y-54951300D01*
X62325616Y-54992223D01*
X62325609Y-54992226D01*
X62188690Y-55071275D01*
X62188682Y-55071281D01*
X62076881Y-55183082D01*
X62076875Y-55183090D01*
X61997826Y-55320009D01*
X61997823Y-55320016D01*
X61956900Y-55472743D01*
X54466382Y-55472743D01*
X54428824Y-55407690D01*
X54428818Y-55407682D01*
X54317017Y-55295881D01*
X54317009Y-55295875D01*
X54180090Y-55216826D01*
X54180086Y-55216824D01*
X54180084Y-55216823D01*
X54027357Y-55175900D01*
X53869243Y-55175900D01*
X53716516Y-55216823D01*
X53716509Y-55216826D01*
X53579590Y-55295875D01*
X53579582Y-55295881D01*
X53467781Y-55407682D01*
X53467775Y-55407690D01*
X53388726Y-55544609D01*
X53388723Y-55544616D01*
X53347800Y-55697343D01*
X40300500Y-55697343D01*
X40300500Y-54918643D01*
X76432800Y-54918643D01*
X76432800Y-55076757D01*
X76470332Y-55216826D01*
X76473723Y-55229483D01*
X76473726Y-55229490D01*
X76552775Y-55366409D01*
X76552779Y-55366414D01*
X76552780Y-55366416D01*
X76664584Y-55478220D01*
X76664586Y-55478221D01*
X76664590Y-55478224D01*
X76779586Y-55544616D01*
X76801516Y-55557277D01*
X76954243Y-55598200D01*
X76954245Y-55598200D01*
X77112355Y-55598200D01*
X77112357Y-55598200D01*
X77265084Y-55557277D01*
X77402016Y-55478220D01*
X77513820Y-55366416D01*
X77592877Y-55229484D01*
X77633800Y-55076757D01*
X77633800Y-55047743D01*
X77975700Y-55047743D01*
X77975700Y-55205857D01*
X78008020Y-55326475D01*
X78016623Y-55358583D01*
X78016626Y-55358590D01*
X78095675Y-55495509D01*
X78095679Y-55495514D01*
X78095680Y-55495516D01*
X78207484Y-55607320D01*
X78207486Y-55607321D01*
X78207490Y-55607324D01*
X78317683Y-55670943D01*
X78344416Y-55686377D01*
X78497143Y-55727300D01*
X78497145Y-55727300D01*
X78655255Y-55727300D01*
X78655257Y-55727300D01*
X78807984Y-55686377D01*
X78944916Y-55607320D01*
X79056720Y-55495516D01*
X79135777Y-55358584D01*
X79176700Y-55205857D01*
X79176700Y-55047743D01*
X79135777Y-54895016D01*
X79061238Y-54765909D01*
X79056724Y-54758090D01*
X79056718Y-54758082D01*
X78944917Y-54646281D01*
X78944909Y-54646275D01*
X78807990Y-54567226D01*
X78807986Y-54567224D01*
X78807984Y-54567223D01*
X78655257Y-54526300D01*
X78497143Y-54526300D01*
X78344416Y-54567223D01*
X78344409Y-54567226D01*
X78207490Y-54646275D01*
X78207482Y-54646281D01*
X78095681Y-54758082D01*
X78095675Y-54758090D01*
X78016626Y-54895009D01*
X78016623Y-54895016D01*
X77975700Y-55047743D01*
X77633800Y-55047743D01*
X77633800Y-54918643D01*
X77592877Y-54765916D01*
X77588354Y-54758082D01*
X77513824Y-54628990D01*
X77513818Y-54628982D01*
X77402017Y-54517181D01*
X77402009Y-54517175D01*
X77265090Y-54438126D01*
X77265086Y-54438124D01*
X77265084Y-54438123D01*
X77112357Y-54397200D01*
X76954243Y-54397200D01*
X76801516Y-54438123D01*
X76801509Y-54438126D01*
X76664590Y-54517175D01*
X76664582Y-54517181D01*
X76552781Y-54628982D01*
X76552775Y-54628990D01*
X76473726Y-54765909D01*
X76473723Y-54765916D01*
X76432800Y-54918643D01*
X40300500Y-54918643D01*
X40300500Y-53205143D01*
X70430400Y-53205143D01*
X70430400Y-53363257D01*
X70465053Y-53492582D01*
X70471323Y-53515983D01*
X70471326Y-53515990D01*
X70550375Y-53652909D01*
X70550379Y-53652914D01*
X70550380Y-53652916D01*
X70662184Y-53764720D01*
X70662186Y-53764721D01*
X70662190Y-53764724D01*
X70699423Y-53786220D01*
X70799116Y-53843777D01*
X70951843Y-53884700D01*
X70951855Y-53884700D01*
X70956841Y-53885357D01*
X71020739Y-53913621D01*
X71059213Y-53971944D01*
X71060436Y-53976204D01*
X71061200Y-53979055D01*
X71061200Y-53979057D01*
X71091755Y-54093090D01*
X71102123Y-54131783D01*
X71102126Y-54131790D01*
X71181175Y-54268709D01*
X71181179Y-54268714D01*
X71181180Y-54268716D01*
X71292984Y-54380520D01*
X71292986Y-54380521D01*
X71292990Y-54380524D01*
X71362878Y-54420873D01*
X71429916Y-54459577D01*
X71582643Y-54500500D01*
X71582645Y-54500500D01*
X71740755Y-54500500D01*
X71740757Y-54500500D01*
X71893484Y-54459577D01*
X72030416Y-54380520D01*
X72142220Y-54268716D01*
X72221277Y-54131784D01*
X72262200Y-53979057D01*
X72262200Y-53820943D01*
X72221277Y-53668216D01*
X72198930Y-53629509D01*
X72142224Y-53531290D01*
X72142218Y-53531282D01*
X72030417Y-53419481D01*
X72030409Y-53419475D01*
X71893490Y-53340426D01*
X71893486Y-53340424D01*
X71893484Y-53340423D01*
X71740757Y-53299500D01*
X71734685Y-53299500D01*
X71721050Y-53295993D01*
X71697220Y-53281794D01*
X71671854Y-53270572D01*
X71667625Y-53264161D01*
X71661027Y-53260230D01*
X71648656Y-53235401D01*
X71642879Y-53226643D01*
X75300500Y-53226643D01*
X75300500Y-53384757D01*
X75339764Y-53531290D01*
X75341423Y-53537483D01*
X75341426Y-53537490D01*
X75420475Y-53674409D01*
X75420479Y-53674414D01*
X75420480Y-53674416D01*
X75532284Y-53786220D01*
X75532286Y-53786221D01*
X75532290Y-53786224D01*
X75669209Y-53865273D01*
X75669216Y-53865277D01*
X75821943Y-53906200D01*
X75821945Y-53906200D01*
X75980055Y-53906200D01*
X75980057Y-53906200D01*
X76132784Y-53865277D01*
X76269716Y-53786220D01*
X76273693Y-53782243D01*
X81368300Y-53782243D01*
X81368300Y-53940357D01*
X81378670Y-53979056D01*
X81409223Y-54093083D01*
X81409226Y-54093090D01*
X81488275Y-54230009D01*
X81488279Y-54230014D01*
X81488280Y-54230016D01*
X81600084Y-54341820D01*
X81600086Y-54341821D01*
X81600090Y-54341824D01*
X81696006Y-54397200D01*
X81737016Y-54420877D01*
X81889743Y-54461800D01*
X81889745Y-54461800D01*
X82047855Y-54461800D01*
X82047857Y-54461800D01*
X82200584Y-54420877D01*
X82337516Y-54341820D01*
X82449320Y-54230016D01*
X82528377Y-54093084D01*
X82569300Y-53940357D01*
X82569300Y-53782243D01*
X82528377Y-53629516D01*
X82528373Y-53629509D01*
X82449324Y-53492590D01*
X82449318Y-53492582D01*
X82337517Y-53380781D01*
X82337509Y-53380775D01*
X82200590Y-53301726D01*
X82200586Y-53301724D01*
X82200584Y-53301723D01*
X82047857Y-53260800D01*
X81889743Y-53260800D01*
X81737016Y-53301723D01*
X81737009Y-53301726D01*
X81600090Y-53380775D01*
X81600082Y-53380781D01*
X81488281Y-53492582D01*
X81488275Y-53492590D01*
X81409226Y-53629509D01*
X81409223Y-53629516D01*
X81368300Y-53782243D01*
X76273693Y-53782243D01*
X76381520Y-53674416D01*
X76460577Y-53537484D01*
X76501500Y-53384757D01*
X76501500Y-53226643D01*
X76460577Y-53073916D01*
X76448160Y-53052409D01*
X76381524Y-52936990D01*
X76381518Y-52936982D01*
X76269717Y-52825181D01*
X76269709Y-52825175D01*
X76132790Y-52746126D01*
X76132786Y-52746124D01*
X76132784Y-52746123D01*
X75980057Y-52705200D01*
X75821943Y-52705200D01*
X75669216Y-52746123D01*
X75669209Y-52746126D01*
X75532290Y-52825175D01*
X75532282Y-52825181D01*
X75420481Y-52936982D01*
X75420475Y-52936990D01*
X75341426Y-53073909D01*
X75341424Y-53073913D01*
X75341423Y-53073916D01*
X75300500Y-53226643D01*
X71642879Y-53226643D01*
X71633384Y-53212247D01*
X71632163Y-53207995D01*
X71631400Y-53205147D01*
X71631400Y-53205143D01*
X71590477Y-53052416D01*
X71590473Y-53052409D01*
X71511424Y-52915490D01*
X71511418Y-52915482D01*
X71399617Y-52803681D01*
X71399609Y-52803675D01*
X71262690Y-52724626D01*
X71262686Y-52724624D01*
X71262684Y-52724623D01*
X71109957Y-52683700D01*
X70951843Y-52683700D01*
X70799116Y-52724623D01*
X70799109Y-52724626D01*
X70662190Y-52803675D01*
X70662182Y-52803681D01*
X70550381Y-52915482D01*
X70550375Y-52915490D01*
X70471326Y-53052409D01*
X70471323Y-53052416D01*
X70430400Y-53205143D01*
X40300500Y-53205143D01*
X40300500Y-51490043D01*
X63461200Y-51490043D01*
X63461200Y-51648156D01*
X63502123Y-51800883D01*
X63502126Y-51800890D01*
X63581175Y-51937809D01*
X63581179Y-51937814D01*
X63581180Y-51937816D01*
X63692984Y-52049620D01*
X63692986Y-52049621D01*
X63692990Y-52049624D01*
X63824020Y-52125273D01*
X63829916Y-52128677D01*
X63982643Y-52169600D01*
X63982645Y-52169600D01*
X64140755Y-52169600D01*
X64140757Y-52169600D01*
X64293484Y-52128677D01*
X64430416Y-52049620D01*
X64542220Y-51937816D01*
X64621277Y-51800884D01*
X64662200Y-51648157D01*
X64662200Y-51490043D01*
X64661289Y-51486643D01*
X71062000Y-51486643D01*
X71062000Y-51644757D01*
X71062911Y-51648155D01*
X71102923Y-51797483D01*
X71102926Y-51797490D01*
X71181975Y-51934409D01*
X71181979Y-51934414D01*
X71181980Y-51934416D01*
X71293784Y-52046220D01*
X71293786Y-52046221D01*
X71293790Y-52046224D01*
X71430709Y-52125273D01*
X71430716Y-52125277D01*
X71583443Y-52166200D01*
X71583445Y-52166200D01*
X71741555Y-52166200D01*
X71741557Y-52166200D01*
X71894284Y-52125277D01*
X72031216Y-52046220D01*
X72143020Y-51934416D01*
X72222077Y-51797484D01*
X72263000Y-51644757D01*
X72263000Y-51486643D01*
X72222077Y-51333916D01*
X72222073Y-51333909D01*
X72143024Y-51196990D01*
X72143018Y-51196982D01*
X72031217Y-51085181D01*
X72031209Y-51085175D01*
X71894290Y-51006126D01*
X71894286Y-51006124D01*
X71894284Y-51006123D01*
X71741557Y-50965200D01*
X71583443Y-50965200D01*
X71430716Y-51006123D01*
X71430709Y-51006126D01*
X71293790Y-51085175D01*
X71293782Y-51085181D01*
X71181981Y-51196982D01*
X71181975Y-51196990D01*
X71102926Y-51333909D01*
X71102923Y-51333916D01*
X71062000Y-51486643D01*
X64661289Y-51486643D01*
X64621277Y-51337316D01*
X64619310Y-51333909D01*
X64542224Y-51200390D01*
X64542218Y-51200382D01*
X64430417Y-51088581D01*
X64430409Y-51088575D01*
X64293490Y-51009526D01*
X64293486Y-51009524D01*
X64293484Y-51009523D01*
X64140757Y-50968600D01*
X63982643Y-50968600D01*
X63829916Y-51009523D01*
X63829909Y-51009526D01*
X63692990Y-51088575D01*
X63692982Y-51088581D01*
X63581181Y-51200382D01*
X63581175Y-51200390D01*
X63502126Y-51337309D01*
X63502123Y-51337316D01*
X63461200Y-51490043D01*
X40300500Y-51490043D01*
X40300500Y-49491543D01*
X75392700Y-49491543D01*
X75392700Y-49649656D01*
X75433623Y-49802383D01*
X75433626Y-49802390D01*
X75512675Y-49939309D01*
X75512679Y-49939314D01*
X75512680Y-49939316D01*
X75624484Y-50051120D01*
X75624486Y-50051121D01*
X75624490Y-50051124D01*
X75761409Y-50130173D01*
X75761416Y-50130177D01*
X75914143Y-50171100D01*
X75914145Y-50171100D01*
X76072255Y-50171100D01*
X76072257Y-50171100D01*
X76224984Y-50130177D01*
X76361916Y-50051120D01*
X76473720Y-49939316D01*
X76552777Y-49802384D01*
X76593700Y-49649657D01*
X76593700Y-49491543D01*
X76552777Y-49338816D01*
X76552773Y-49338809D01*
X76473724Y-49201890D01*
X76473718Y-49201882D01*
X76361917Y-49090081D01*
X76361909Y-49090075D01*
X76224990Y-49011026D01*
X76224986Y-49011024D01*
X76224984Y-49011023D01*
X76072257Y-48970100D01*
X75914143Y-48970100D01*
X75761416Y-49011023D01*
X75761409Y-49011026D01*
X75624490Y-49090075D01*
X75624482Y-49090081D01*
X75512681Y-49201882D01*
X75512675Y-49201890D01*
X75433626Y-49338809D01*
X75433623Y-49338816D01*
X75392700Y-49491543D01*
X40300500Y-49491543D01*
X40300500Y-46170793D01*
X55700000Y-46170793D01*
X55700000Y-46600000D01*
X56219670Y-46600000D01*
X56199925Y-46619745D01*
X56150556Y-46705255D01*
X56125000Y-46800630D01*
X56125000Y-46899370D01*
X56150556Y-46994745D01*
X56199925Y-47080255D01*
X56219670Y-47100000D01*
X55700001Y-47100000D01*
X55700001Y-47529196D01*
X55702851Y-47559606D01*
X55747653Y-47687645D01*
X55828207Y-47796792D01*
X55937354Y-47877346D01*
X56065397Y-47922149D01*
X56095792Y-47924999D01*
X56249999Y-47924999D01*
X56250000Y-47924998D01*
X56250000Y-47130330D01*
X56269745Y-47150075D01*
X56355255Y-47199444D01*
X56450630Y-47225000D01*
X56549370Y-47225000D01*
X56644745Y-47199444D01*
X56730255Y-47150075D01*
X56750000Y-47130330D01*
X56750000Y-47924999D01*
X56904196Y-47924999D01*
X56934606Y-47922148D01*
X57062645Y-47877346D01*
X57171792Y-47796792D01*
X57252346Y-47687645D01*
X57297149Y-47559604D01*
X57297149Y-47559600D01*
X57300000Y-47529206D01*
X57300000Y-47100000D01*
X56780330Y-47100000D01*
X56800075Y-47080255D01*
X56849444Y-46994745D01*
X56875000Y-46899370D01*
X56875000Y-46800630D01*
X56849444Y-46705255D01*
X56800075Y-46619745D01*
X56780330Y-46600000D01*
X57299999Y-46600000D01*
X57299999Y-46486304D01*
X57599500Y-46486304D01*
X57599500Y-47213695D01*
X57634103Y-47387658D01*
X57634106Y-47387667D01*
X57701983Y-47551540D01*
X57701990Y-47551553D01*
X57800535Y-47699034D01*
X57800538Y-47699038D01*
X57925961Y-47824461D01*
X57925965Y-47824464D01*
X58073446Y-47923009D01*
X58073459Y-47923016D01*
X58151003Y-47955135D01*
X58237334Y-47990894D01*
X58237336Y-47990894D01*
X58237341Y-47990896D01*
X58411304Y-48025499D01*
X58411307Y-48025500D01*
X58411309Y-48025500D01*
X58588693Y-48025500D01*
X58588694Y-48025499D01*
X58636733Y-48015943D01*
X77961500Y-48015943D01*
X77961500Y-48174057D01*
X77963066Y-48179899D01*
X78002423Y-48326783D01*
X78002426Y-48326790D01*
X78081475Y-48463709D01*
X78081479Y-48463714D01*
X78081480Y-48463716D01*
X78193284Y-48575520D01*
X78193286Y-48575521D01*
X78193290Y-48575524D01*
X78330209Y-48654573D01*
X78330216Y-48654577D01*
X78482943Y-48695500D01*
X78482945Y-48695500D01*
X78588800Y-48695500D01*
X78655839Y-48715185D01*
X78697487Y-48763249D01*
X78698359Y-48762746D01*
X78700970Y-48767269D01*
X78701594Y-48767989D01*
X78702231Y-48769452D01*
X78781475Y-48906709D01*
X78781479Y-48906714D01*
X78781480Y-48906716D01*
X78893284Y-49018520D01*
X78893286Y-49018521D01*
X78893290Y-49018524D01*
X79017222Y-49090075D01*
X79030216Y-49097577D01*
X79182943Y-49138500D01*
X79182945Y-49138500D01*
X79341055Y-49138500D01*
X79341057Y-49138500D01*
X79493784Y-49097577D01*
X79630716Y-49018520D01*
X79742520Y-48906716D01*
X79821577Y-48769784D01*
X79862500Y-48617057D01*
X79862500Y-48458943D01*
X79821577Y-48306216D01*
X79765483Y-48209057D01*
X79742524Y-48169290D01*
X79742518Y-48169282D01*
X79630717Y-48057481D01*
X79630709Y-48057475D01*
X79493790Y-47978426D01*
X79493786Y-47978424D01*
X79493784Y-47978423D01*
X79341057Y-47937500D01*
X79235201Y-47937500D01*
X79168162Y-47917815D01*
X79126513Y-47869750D01*
X79125641Y-47870254D01*
X79123027Y-47865726D01*
X79122407Y-47865011D01*
X79121771Y-47863551D01*
X79042524Y-47726290D01*
X79042518Y-47726282D01*
X78930717Y-47614481D01*
X78930712Y-47614477D01*
X78904951Y-47599604D01*
X78904950Y-47599604D01*
X78793784Y-47535423D01*
X78662863Y-47500343D01*
X81453800Y-47500343D01*
X81453800Y-47658457D01*
X81481353Y-47761284D01*
X81494723Y-47811183D01*
X81494726Y-47811190D01*
X81573775Y-47948109D01*
X81573779Y-47948114D01*
X81573780Y-47948116D01*
X81685584Y-48059920D01*
X81685586Y-48059921D01*
X81685590Y-48059924D01*
X81819911Y-48137473D01*
X81822516Y-48138977D01*
X81975243Y-48179900D01*
X81975245Y-48179900D01*
X82133355Y-48179900D01*
X82133357Y-48179900D01*
X82286084Y-48138977D01*
X82423016Y-48059920D01*
X82534820Y-47948116D01*
X82548095Y-47925123D01*
X82598661Y-47876906D01*
X82667268Y-47863682D01*
X82732133Y-47889649D01*
X82762871Y-47925123D01*
X82775277Y-47946612D01*
X82775279Y-47946615D01*
X82775280Y-47946616D01*
X82887084Y-48058420D01*
X82887086Y-48058421D01*
X82887090Y-48058424D01*
X83024009Y-48137473D01*
X83024016Y-48137477D01*
X83176743Y-48178400D01*
X83176745Y-48178400D01*
X83334855Y-48178400D01*
X83334857Y-48178400D01*
X83487584Y-48137477D01*
X83624516Y-48058420D01*
X83631993Y-48050943D01*
X96865100Y-48050943D01*
X96865100Y-48209057D01*
X96896647Y-48326790D01*
X96906023Y-48361783D01*
X96906026Y-48361790D01*
X96985075Y-48498709D01*
X96985079Y-48498714D01*
X96985080Y-48498716D01*
X97096884Y-48610520D01*
X97096886Y-48610521D01*
X97096890Y-48610524D01*
X97226120Y-48685134D01*
X97233816Y-48689577D01*
X97386543Y-48730500D01*
X97386545Y-48730500D01*
X97544655Y-48730500D01*
X97544657Y-48730500D01*
X97697384Y-48689577D01*
X97834316Y-48610520D01*
X97946120Y-48498716D01*
X98025177Y-48361784D01*
X98066100Y-48209057D01*
X98066100Y-48050943D01*
X98025177Y-47898216D01*
X98005239Y-47863682D01*
X97946124Y-47761290D01*
X97946118Y-47761282D01*
X97834317Y-47649481D01*
X97834309Y-47649475D01*
X97697390Y-47570426D01*
X97697386Y-47570424D01*
X97697384Y-47570423D01*
X97544657Y-47529500D01*
X97386543Y-47529500D01*
X97233816Y-47570423D01*
X97233809Y-47570426D01*
X97096890Y-47649475D01*
X97096882Y-47649481D01*
X96985081Y-47761282D01*
X96985075Y-47761290D01*
X96906026Y-47898209D01*
X96906023Y-47898216D01*
X96865100Y-48050943D01*
X83631993Y-48050943D01*
X83736320Y-47946616D01*
X83815377Y-47809684D01*
X83856300Y-47656957D01*
X83856300Y-47498843D01*
X83815377Y-47346116D01*
X83815373Y-47346109D01*
X83736324Y-47209190D01*
X83736321Y-47209186D01*
X83736320Y-47209184D01*
X83624516Y-47097380D01*
X83624514Y-47097379D01*
X83624509Y-47097375D01*
X83487590Y-47018326D01*
X83487586Y-47018324D01*
X83487584Y-47018323D01*
X83334857Y-46977400D01*
X83176743Y-46977400D01*
X83024016Y-47018323D01*
X83024009Y-47018326D01*
X82887090Y-47097375D01*
X82887082Y-47097381D01*
X82775281Y-47209182D01*
X82775279Y-47209185D01*
X82762002Y-47232181D01*
X82711433Y-47280395D01*
X82642826Y-47293616D01*
X82577962Y-47267647D01*
X82547229Y-47232177D01*
X82534820Y-47210684D01*
X82423016Y-47098880D01*
X82423014Y-47098879D01*
X82423009Y-47098875D01*
X82286090Y-47019826D01*
X82286086Y-47019824D01*
X82286084Y-47019823D01*
X82133357Y-46978900D01*
X81975243Y-46978900D01*
X81822516Y-47019823D01*
X81822509Y-47019826D01*
X81685590Y-47098875D01*
X81685582Y-47098881D01*
X81573781Y-47210682D01*
X81573775Y-47210690D01*
X81494726Y-47347609D01*
X81494723Y-47347616D01*
X81453800Y-47500343D01*
X78662863Y-47500343D01*
X78641057Y-47494500D01*
X78482943Y-47494500D01*
X78330216Y-47535423D01*
X78330209Y-47535426D01*
X78193290Y-47614475D01*
X78193282Y-47614481D01*
X78081481Y-47726282D01*
X78081475Y-47726290D01*
X78002426Y-47863209D01*
X78002423Y-47863216D01*
X77961500Y-48015943D01*
X58636733Y-48015943D01*
X58646682Y-48013964D01*
X58762658Y-47990896D01*
X58762661Y-47990894D01*
X58762666Y-47990894D01*
X58921453Y-47925123D01*
X58926540Y-47923016D01*
X58926540Y-47923015D01*
X58926547Y-47923013D01*
X58941696Y-47912890D01*
X58953934Y-47904714D01*
X59012282Y-47865726D01*
X59074035Y-47824464D01*
X59199464Y-47699035D01*
X59298013Y-47551547D01*
X59365894Y-47387666D01*
X59373861Y-47347616D01*
X59400499Y-47213695D01*
X59400500Y-47213693D01*
X59400500Y-46486306D01*
X59400499Y-46486304D01*
X59365896Y-46312341D01*
X59365893Y-46312332D01*
X59298016Y-46148459D01*
X59298009Y-46148446D01*
X59199464Y-46000965D01*
X59199461Y-46000961D01*
X59074038Y-45875538D01*
X59074034Y-45875535D01*
X58926553Y-45776990D01*
X58926540Y-45776983D01*
X58762667Y-45709106D01*
X58762658Y-45709103D01*
X58588694Y-45674500D01*
X58588691Y-45674500D01*
X58411309Y-45674500D01*
X58411306Y-45674500D01*
X58237341Y-45709103D01*
X58237332Y-45709106D01*
X58073459Y-45776983D01*
X58073446Y-45776990D01*
X57925965Y-45875535D01*
X57925961Y-45875538D01*
X57800538Y-46000961D01*
X57800535Y-46000965D01*
X57701990Y-46148446D01*
X57701983Y-46148459D01*
X57634106Y-46312332D01*
X57634103Y-46312341D01*
X57599500Y-46486304D01*
X57299999Y-46486304D01*
X57299999Y-46170803D01*
X57297148Y-46140393D01*
X57252346Y-46012354D01*
X57171792Y-45903207D01*
X57062645Y-45822653D01*
X56934602Y-45777850D01*
X56904207Y-45775000D01*
X56750000Y-45775000D01*
X56750000Y-46569670D01*
X56730255Y-46549925D01*
X56644745Y-46500556D01*
X56549370Y-46475000D01*
X56450630Y-46475000D01*
X56355255Y-46500556D01*
X56269745Y-46549925D01*
X56250000Y-46569670D01*
X56250000Y-45775000D01*
X56095804Y-45775000D01*
X56065393Y-45777851D01*
X55937354Y-45822653D01*
X55828207Y-45903207D01*
X55747653Y-46012354D01*
X55702850Y-46140395D01*
X55702850Y-46140399D01*
X55700000Y-46170793D01*
X40300500Y-46170793D01*
X40300500Y-44874234D01*
X77546500Y-44874234D01*
X77546500Y-45025765D01*
X77585719Y-45172136D01*
X77614094Y-45221282D01*
X77661485Y-45303365D01*
X77768635Y-45410515D01*
X77899865Y-45486281D01*
X78046234Y-45525500D01*
X78046236Y-45525500D01*
X78197764Y-45525500D01*
X78197766Y-45525500D01*
X78344135Y-45486281D01*
X78475365Y-45410515D01*
X78582515Y-45303365D01*
X78658281Y-45172135D01*
X78697500Y-45025766D01*
X78697500Y-44874234D01*
X83326500Y-44874234D01*
X83326500Y-45025765D01*
X83365719Y-45172136D01*
X83394094Y-45221282D01*
X83441485Y-45303365D01*
X83548635Y-45410515D01*
X83679865Y-45486281D01*
X83826234Y-45525500D01*
X83826236Y-45525500D01*
X83977764Y-45525500D01*
X83977766Y-45525500D01*
X84032094Y-45510943D01*
X93679800Y-45510943D01*
X93679800Y-45669057D01*
X93708188Y-45775000D01*
X93720723Y-45821783D01*
X93720726Y-45821790D01*
X93799775Y-45958709D01*
X93799779Y-45958714D01*
X93799780Y-45958716D01*
X93911584Y-46070520D01*
X93911586Y-46070521D01*
X93911590Y-46070524D01*
X94048509Y-46149573D01*
X94048516Y-46149577D01*
X94201243Y-46190500D01*
X94201245Y-46190500D01*
X94359355Y-46190500D01*
X94359357Y-46190500D01*
X94512084Y-46149577D01*
X94649016Y-46070520D01*
X94760820Y-45958716D01*
X94839877Y-45821784D01*
X94880800Y-45669057D01*
X94880800Y-45510943D01*
X94839877Y-45358216D01*
X94808209Y-45303365D01*
X94760824Y-45221290D01*
X94760818Y-45221282D01*
X94649017Y-45109481D01*
X94649009Y-45109475D01*
X94512090Y-45030426D01*
X94512086Y-45030424D01*
X94512084Y-45030423D01*
X94359357Y-44989500D01*
X94201243Y-44989500D01*
X94048516Y-45030423D01*
X94048509Y-45030426D01*
X93911590Y-45109475D01*
X93911582Y-45109481D01*
X93799781Y-45221282D01*
X93799775Y-45221290D01*
X93720726Y-45358209D01*
X93720723Y-45358216D01*
X93679800Y-45510943D01*
X84032094Y-45510943D01*
X84124135Y-45486281D01*
X84255365Y-45410515D01*
X84362515Y-45303365D01*
X84438281Y-45172135D01*
X84477500Y-45025766D01*
X84477500Y-44874234D01*
X84438281Y-44727865D01*
X84436317Y-44724464D01*
X84391791Y-44647343D01*
X84362515Y-44596635D01*
X84255365Y-44489485D01*
X84189643Y-44451540D01*
X84124136Y-44413719D01*
X84050950Y-44394109D01*
X83977766Y-44374500D01*
X83826234Y-44374500D01*
X83679863Y-44413719D01*
X83548635Y-44489485D01*
X83548632Y-44489487D01*
X83441487Y-44596632D01*
X83441485Y-44596635D01*
X83365719Y-44727863D01*
X83326500Y-44874234D01*
X78697500Y-44874234D01*
X78658281Y-44727865D01*
X78656317Y-44724464D01*
X78611791Y-44647343D01*
X78582515Y-44596635D01*
X78475365Y-44489485D01*
X78409643Y-44451540D01*
X78344136Y-44413719D01*
X78270950Y-44394109D01*
X78197766Y-44374500D01*
X78046234Y-44374500D01*
X77899863Y-44413719D01*
X77768635Y-44489485D01*
X77768632Y-44489487D01*
X77661487Y-44596632D01*
X77661485Y-44596635D01*
X77585719Y-44727863D01*
X77546500Y-44874234D01*
X40300500Y-44874234D01*
X40300500Y-43557585D01*
X40300506Y-43557500D01*
X40300504Y-43547563D01*
X40300506Y-43547560D01*
X40300500Y-43503203D01*
X40300669Y-43496727D01*
X40310973Y-43299713D01*
X41483500Y-43299713D01*
X41483500Y-43512287D01*
X41516754Y-43722243D01*
X41558427Y-43850500D01*
X41582444Y-43924414D01*
X41678951Y-44113820D01*
X41803890Y-44285786D01*
X41954213Y-44436109D01*
X42126179Y-44561048D01*
X42126181Y-44561049D01*
X42126184Y-44561051D01*
X42315588Y-44657557D01*
X42517757Y-44723246D01*
X42727713Y-44756500D01*
X42727714Y-44756500D01*
X42940286Y-44756500D01*
X42940287Y-44756500D01*
X43150243Y-44723246D01*
X43352412Y-44657557D01*
X43541816Y-44561051D01*
X43577715Y-44534969D01*
X43713786Y-44436109D01*
X43713788Y-44436106D01*
X43713792Y-44436104D01*
X43864104Y-44285792D01*
X43864106Y-44285788D01*
X43864109Y-44285786D01*
X43989048Y-44113820D01*
X43989047Y-44113820D01*
X43989051Y-44113816D01*
X44085557Y-43924412D01*
X44151246Y-43722243D01*
X44184500Y-43512287D01*
X44184500Y-43299713D01*
X44182703Y-43288365D01*
X44152487Y-43097590D01*
X44151246Y-43089758D01*
X44148692Y-43081898D01*
X99599500Y-43081898D01*
X99599500Y-44418102D01*
X99603516Y-44451547D01*
X99610122Y-44506561D01*
X99665639Y-44647343D01*
X99757077Y-44767922D01*
X99877656Y-44859360D01*
X99877657Y-44859360D01*
X99877658Y-44859361D01*
X100018436Y-44914877D01*
X100106898Y-44925500D01*
X100106903Y-44925500D01*
X100893097Y-44925500D01*
X100893102Y-44925500D01*
X100981564Y-44914877D01*
X101122342Y-44859361D01*
X101242922Y-44767922D01*
X101334361Y-44647342D01*
X101389877Y-44506564D01*
X101400500Y-44418102D01*
X101400500Y-43396202D01*
X101700000Y-43396202D01*
X101700000Y-43500000D01*
X102219670Y-43500000D01*
X102199925Y-43519745D01*
X102150556Y-43605255D01*
X102125000Y-43700630D01*
X102125000Y-43799370D01*
X102150556Y-43894745D01*
X102199925Y-43980255D01*
X102219670Y-44000000D01*
X101700000Y-44000000D01*
X101700000Y-44103797D01*
X101730741Y-44258343D01*
X101730743Y-44258351D01*
X101791047Y-44403939D01*
X101791052Y-44403948D01*
X101878598Y-44534969D01*
X101878601Y-44534973D01*
X101990026Y-44646398D01*
X101990034Y-44646404D01*
X102121047Y-44733944D01*
X102121065Y-44733954D01*
X102249999Y-44787360D01*
X102250000Y-44787360D01*
X102250000Y-44030330D01*
X102269745Y-44050075D01*
X102355255Y-44099444D01*
X102450630Y-44125000D01*
X102549370Y-44125000D01*
X102644745Y-44099444D01*
X102730255Y-44050075D01*
X102750000Y-44030330D01*
X102750000Y-44787360D01*
X102878934Y-44733954D01*
X102878952Y-44733944D01*
X103009965Y-44646404D01*
X103009973Y-44646398D01*
X103121398Y-44534973D01*
X103121401Y-44534969D01*
X103208947Y-44403948D01*
X103208952Y-44403939D01*
X103269256Y-44258351D01*
X103269258Y-44258343D01*
X103299999Y-44103797D01*
X103300000Y-44103794D01*
X103300000Y-44000000D01*
X102780330Y-44000000D01*
X102800075Y-43980255D01*
X102849444Y-43894745D01*
X102875000Y-43799370D01*
X102875000Y-43700630D01*
X102849444Y-43605255D01*
X102800075Y-43519745D01*
X102780330Y-43500000D01*
X103300000Y-43500000D01*
X103300000Y-43396210D01*
X103299998Y-43396198D01*
X103298030Y-43386304D01*
X103599500Y-43386304D01*
X103599500Y-44113695D01*
X103634103Y-44287658D01*
X103634106Y-44287667D01*
X103701983Y-44451540D01*
X103701990Y-44451553D01*
X103800535Y-44599034D01*
X103800538Y-44599038D01*
X103925961Y-44724461D01*
X103925965Y-44724464D01*
X104073446Y-44823009D01*
X104073459Y-44823016D01*
X104196363Y-44873923D01*
X104237334Y-44890894D01*
X104237336Y-44890894D01*
X104237341Y-44890896D01*
X104411304Y-44925499D01*
X104411307Y-44925500D01*
X104411309Y-44925500D01*
X104588693Y-44925500D01*
X104588694Y-44925499D01*
X104646682Y-44913964D01*
X104762658Y-44890896D01*
X104762661Y-44890894D01*
X104762666Y-44890894D01*
X104926547Y-44823013D01*
X105074035Y-44724464D01*
X105199464Y-44599035D01*
X105298013Y-44451547D01*
X105365894Y-44287666D01*
X105400500Y-44113691D01*
X105400500Y-43396202D01*
X105700000Y-43396202D01*
X105700000Y-43500000D01*
X106219670Y-43500000D01*
X106199925Y-43519745D01*
X106150556Y-43605255D01*
X106125000Y-43700630D01*
X106125000Y-43799370D01*
X106150556Y-43894745D01*
X106199925Y-43980255D01*
X106219670Y-44000000D01*
X105700000Y-44000000D01*
X105700000Y-44103797D01*
X105730741Y-44258343D01*
X105730743Y-44258351D01*
X105791047Y-44403939D01*
X105791052Y-44403948D01*
X105878598Y-44534969D01*
X105878601Y-44534973D01*
X105990026Y-44646398D01*
X105990034Y-44646404D01*
X106121047Y-44733944D01*
X106121065Y-44733954D01*
X106249999Y-44787360D01*
X106250000Y-44787360D01*
X106250000Y-44030330D01*
X106269745Y-44050075D01*
X106355255Y-44099444D01*
X106450630Y-44125000D01*
X106549370Y-44125000D01*
X106644745Y-44099444D01*
X106730255Y-44050075D01*
X106750000Y-44030330D01*
X106750000Y-44787360D01*
X106878934Y-44733954D01*
X106878952Y-44733944D01*
X107009965Y-44646404D01*
X107009973Y-44646398D01*
X107121398Y-44534973D01*
X107121401Y-44534969D01*
X107208947Y-44403948D01*
X107208952Y-44403939D01*
X107269256Y-44258351D01*
X107269258Y-44258343D01*
X107299999Y-44103797D01*
X107300000Y-44103794D01*
X107300000Y-44000000D01*
X106780330Y-44000000D01*
X106800075Y-43980255D01*
X106849444Y-43894745D01*
X106875000Y-43799370D01*
X106875000Y-43700630D01*
X106849444Y-43605255D01*
X106800075Y-43519745D01*
X106780330Y-43500000D01*
X107300000Y-43500000D01*
X107300000Y-43396206D01*
X107299999Y-43396202D01*
X107269258Y-43241656D01*
X107269256Y-43241648D01*
X107208952Y-43096060D01*
X107208947Y-43096051D01*
X107121401Y-42965030D01*
X107121398Y-42965026D01*
X107009973Y-42853601D01*
X107009969Y-42853598D01*
X106878948Y-42766052D01*
X106878938Y-42766047D01*
X106750000Y-42712639D01*
X106750000Y-43469670D01*
X106730255Y-43449925D01*
X106644745Y-43400556D01*
X106549370Y-43375000D01*
X106450630Y-43375000D01*
X106355255Y-43400556D01*
X106269745Y-43449925D01*
X106250000Y-43469670D01*
X106250000Y-42712639D01*
X106249999Y-42712639D01*
X106121061Y-42766047D01*
X106121051Y-42766052D01*
X105990030Y-42853598D01*
X105990026Y-42853601D01*
X105878601Y-42965026D01*
X105878598Y-42965030D01*
X105791052Y-43096051D01*
X105791047Y-43096060D01*
X105730743Y-43241648D01*
X105730741Y-43241656D01*
X105700000Y-43396202D01*
X105400500Y-43396202D01*
X105400500Y-43386309D01*
X105400500Y-43386306D01*
X105400499Y-43386304D01*
X105365896Y-43212341D01*
X105365893Y-43212332D01*
X105364022Y-43207816D01*
X105318366Y-43097590D01*
X105298016Y-43048459D01*
X105298009Y-43048446D01*
X105199464Y-42900965D01*
X105199461Y-42900961D01*
X105074038Y-42775538D01*
X105074034Y-42775535D01*
X104926553Y-42676990D01*
X104926540Y-42676983D01*
X104762667Y-42609106D01*
X104762658Y-42609103D01*
X104588694Y-42574500D01*
X104588691Y-42574500D01*
X104411309Y-42574500D01*
X104411306Y-42574500D01*
X104237341Y-42609103D01*
X104237332Y-42609106D01*
X104073459Y-42676983D01*
X104073446Y-42676990D01*
X103925965Y-42775535D01*
X103925961Y-42775538D01*
X103800538Y-42900961D01*
X103800535Y-42900965D01*
X103701990Y-43048446D01*
X103701983Y-43048459D01*
X103634106Y-43212332D01*
X103634103Y-43212341D01*
X103599500Y-43386304D01*
X103298030Y-43386304D01*
X103269258Y-43241656D01*
X103269256Y-43241648D01*
X103208952Y-43096060D01*
X103208947Y-43096051D01*
X103121401Y-42965030D01*
X103121398Y-42965026D01*
X103009973Y-42853601D01*
X103009969Y-42853598D01*
X102878948Y-42766052D01*
X102878938Y-42766047D01*
X102750000Y-42712639D01*
X102750000Y-43469670D01*
X102730255Y-43449925D01*
X102644745Y-43400556D01*
X102549370Y-43375000D01*
X102450630Y-43375000D01*
X102355255Y-43400556D01*
X102269745Y-43449925D01*
X102250000Y-43469670D01*
X102250000Y-42712639D01*
X102249999Y-42712639D01*
X102121061Y-42766047D01*
X102121051Y-42766052D01*
X101990030Y-42853598D01*
X101990026Y-42853601D01*
X101878601Y-42965026D01*
X101878598Y-42965030D01*
X101791052Y-43096051D01*
X101791047Y-43096060D01*
X101730743Y-43241648D01*
X101730741Y-43241656D01*
X101700000Y-43396202D01*
X101400500Y-43396202D01*
X101400500Y-43081898D01*
X101389877Y-42993436D01*
X101334361Y-42852658D01*
X101334360Y-42852657D01*
X101334360Y-42852656D01*
X101242922Y-42732077D01*
X101122343Y-42640639D01*
X100981561Y-42585122D01*
X100935926Y-42579642D01*
X100893102Y-42574500D01*
X100106898Y-42574500D01*
X100067853Y-42579188D01*
X100018438Y-42585122D01*
X99877656Y-42640639D01*
X99757077Y-42732077D01*
X99665639Y-42852656D01*
X99610122Y-42993438D01*
X99604188Y-43042853D01*
X99599500Y-43081898D01*
X44148692Y-43081898D01*
X44128064Y-43018412D01*
X44085557Y-42887588D01*
X43989051Y-42698184D01*
X43989049Y-42698181D01*
X43989048Y-42698179D01*
X43864109Y-42526213D01*
X43731609Y-42393713D01*
X118003500Y-42393713D01*
X118003500Y-42606287D01*
X118008941Y-42640639D01*
X118030306Y-42775536D01*
X118036754Y-42816243D01*
X118094328Y-42993438D01*
X118102444Y-43018414D01*
X118198951Y-43207820D01*
X118323890Y-43379786D01*
X118474213Y-43530109D01*
X118646179Y-43655048D01*
X118646181Y-43655049D01*
X118646184Y-43655051D01*
X118835588Y-43751557D01*
X119037757Y-43817246D01*
X119247713Y-43850500D01*
X119247714Y-43850500D01*
X119460286Y-43850500D01*
X119460287Y-43850500D01*
X119670243Y-43817246D01*
X119872412Y-43751557D01*
X120061816Y-43655051D01*
X120195965Y-43557587D01*
X120233786Y-43530109D01*
X120233788Y-43530106D01*
X120233792Y-43530104D01*
X120384104Y-43379792D01*
X120384106Y-43379788D01*
X120384109Y-43379786D01*
X120505763Y-43212341D01*
X120509051Y-43207816D01*
X120605557Y-43018412D01*
X120671246Y-42816243D01*
X120704500Y-42606287D01*
X120704500Y-42393713D01*
X120671246Y-42183757D01*
X120605557Y-41981588D01*
X120509051Y-41792184D01*
X120509049Y-41792181D01*
X120509048Y-41792179D01*
X120384109Y-41620213D01*
X120233786Y-41469890D01*
X120061820Y-41344951D01*
X119872414Y-41248444D01*
X119872413Y-41248443D01*
X119872412Y-41248443D01*
X119670243Y-41182754D01*
X119670241Y-41182753D01*
X119670240Y-41182753D01*
X119508957Y-41157208D01*
X119460287Y-41149500D01*
X119247713Y-41149500D01*
X119199042Y-41157208D01*
X119037760Y-41182753D01*
X118835585Y-41248444D01*
X118646179Y-41344951D01*
X118474213Y-41469890D01*
X118323890Y-41620213D01*
X118198951Y-41792179D01*
X118102444Y-41981585D01*
X118036753Y-42183760D01*
X118026111Y-42250951D01*
X118003500Y-42393713D01*
X43731609Y-42393713D01*
X43713786Y-42375890D01*
X43541820Y-42250951D01*
X43352414Y-42154444D01*
X43352413Y-42154443D01*
X43352412Y-42154443D01*
X43150243Y-42088754D01*
X43150241Y-42088753D01*
X43150240Y-42088753D01*
X42988957Y-42063208D01*
X42940287Y-42055500D01*
X42727713Y-42055500D01*
X42679042Y-42063208D01*
X42517760Y-42088753D01*
X42315585Y-42154444D01*
X42126179Y-42250951D01*
X41954213Y-42375890D01*
X41803890Y-42526213D01*
X41678951Y-42698179D01*
X41582444Y-42887585D01*
X41516753Y-43089760D01*
X41485297Y-43288365D01*
X41483500Y-43299713D01*
X40310973Y-43299713D01*
X40317653Y-43171991D01*
X40319006Y-43159108D01*
X40369337Y-42841140D01*
X40372034Y-42828451D01*
X40375305Y-42816243D01*
X40455325Y-42517508D01*
X40459329Y-42505179D01*
X40574685Y-42204612D01*
X40579953Y-42192780D01*
X40726092Y-41905935D01*
X40732570Y-41894713D01*
X40907897Y-41624716D01*
X40915515Y-41614230D01*
X41118107Y-41364042D01*
X41126774Y-41354416D01*
X41354416Y-41126774D01*
X41364042Y-41118107D01*
X41614230Y-40915515D01*
X41624716Y-40907897D01*
X41894713Y-40732570D01*
X41905936Y-40726091D01*
X42192780Y-40579953D01*
X42204612Y-40574685D01*
X42505179Y-40459329D01*
X42517508Y-40455325D01*
X42828459Y-40372032D01*
X42841140Y-40369337D01*
X43159108Y-40319006D01*
X43171993Y-40317653D01*
X43496742Y-40300668D01*
X43503203Y-40300500D01*
X43547560Y-40300506D01*
X43547563Y-40300504D01*
X43557500Y-40300506D01*
X43557587Y-40300500D01*
X118466415Y-40300500D01*
X118466501Y-40300506D01*
G37*
%TD.AperFunction*%
%TD*%
M02*
