%TF.GenerationSoftware,KiCad,Pcbnew,10.0.6*%
%TF.CreationDate,2026-09-17T15:51:15+09:00*%
%TF.ProjectId,katanori61,6b617461-6e6f-4726-9936-312e6b696361,rev?*%
%TF.SameCoordinates,Original*%
%TF.FileFunction,Legend,Top*%
%TF.FilePolarity,Positive*%
%FSLAX46Y46*%
G04 Gerber Fmt 4.6, Leading zero omitted, Abs format (unit mm)*
G04 Created by KiCad (PCBNEW 10.0.6) date 2026-09-17 15:51:15*
%MOMM*%
%LPD*%
G01*
G04 APERTURE LIST*
%ADD10C,0.150000*%
G04 APERTURE END LIST*
D10*
X47009047Y-67819819D02*
X47009047Y-68534104D01*
X47009047Y-68534104D02*
X46961428Y-68676961D01*
X46961428Y-68676961D02*
X46866190Y-68772200D01*
X46866190Y-68772200D02*
X46723333Y-68819819D01*
X46723333Y-68819819D02*
X46628095Y-68819819D01*
X48009047Y-68819819D02*
X47437619Y-68819819D01*
X47723333Y-68819819D02*
X47723333Y-67819819D01*
X47723333Y-67819819D02*
X47628095Y-67962676D01*
X47628095Y-67962676D02*
X47532857Y-68057914D01*
X47532857Y-68057914D02*
X47437619Y-68105533D01*
X49104286Y-67819819D02*
X49770952Y-68819819D01*
X49770952Y-67819819D02*
X49104286Y-68819819D01*
X50151905Y-68819819D02*
X50151905Y-67819819D01*
X50580476Y-68534104D02*
X51056666Y-68534104D01*
X50485238Y-68819819D02*
X50818571Y-67819819D01*
X50818571Y-67819819D02*
X51151904Y-68819819D01*
X51675714Y-67819819D02*
X51866190Y-67819819D01*
X51866190Y-67819819D02*
X51961428Y-67867438D01*
X51961428Y-67867438D02*
X52056666Y-67962676D01*
X52056666Y-67962676D02*
X52104285Y-68153152D01*
X52104285Y-68153152D02*
X52104285Y-68486485D01*
X52104285Y-68486485D02*
X52056666Y-68676961D01*
X52056666Y-68676961D02*
X51961428Y-68772200D01*
X51961428Y-68772200D02*
X51866190Y-68819819D01*
X51866190Y-68819819D02*
X51675714Y-68819819D01*
X51675714Y-68819819D02*
X51580476Y-68772200D01*
X51580476Y-68772200D02*
X51485238Y-68676961D01*
X51485238Y-68676961D02*
X51437619Y-68486485D01*
X51437619Y-68486485D02*
X51437619Y-68153152D01*
X51437619Y-68153152D02*
X51485238Y-67962676D01*
X51485238Y-67962676D02*
X51580476Y-67867438D01*
X51580476Y-67867438D02*
X51675714Y-67819819D01*
X78454761Y-74854819D02*
X78454761Y-75569104D01*
X78454761Y-75569104D02*
X78407142Y-75711961D01*
X78407142Y-75711961D02*
X78311904Y-75807200D01*
X78311904Y-75807200D02*
X78169047Y-75854819D01*
X78169047Y-75854819D02*
X78073809Y-75854819D01*
X78883333Y-74950057D02*
X78930952Y-74902438D01*
X78930952Y-74902438D02*
X79026190Y-74854819D01*
X79026190Y-74854819D02*
X79264285Y-74854819D01*
X79264285Y-74854819D02*
X79359523Y-74902438D01*
X79359523Y-74902438D02*
X79407142Y-74950057D01*
X79407142Y-74950057D02*
X79454761Y-75045295D01*
X79454761Y-75045295D02*
X79454761Y-75140533D01*
X79454761Y-75140533D02*
X79407142Y-75283390D01*
X79407142Y-75283390D02*
X78835714Y-75854819D01*
X78835714Y-75854819D02*
X79454761Y-75854819D01*
X80835714Y-74854819D02*
X81026190Y-74854819D01*
X81026190Y-74854819D02*
X81121428Y-74902438D01*
X81121428Y-74902438D02*
X81216666Y-74997676D01*
X81216666Y-74997676D02*
X81264285Y-75188152D01*
X81264285Y-75188152D02*
X81264285Y-75521485D01*
X81264285Y-75521485D02*
X81216666Y-75711961D01*
X81216666Y-75711961D02*
X81121428Y-75807200D01*
X81121428Y-75807200D02*
X81026190Y-75854819D01*
X81026190Y-75854819D02*
X80835714Y-75854819D01*
X80835714Y-75854819D02*
X80740476Y-75807200D01*
X80740476Y-75807200D02*
X80645238Y-75711961D01*
X80645238Y-75711961D02*
X80597619Y-75521485D01*
X80597619Y-75521485D02*
X80597619Y-75188152D01*
X80597619Y-75188152D02*
X80645238Y-74997676D01*
X80645238Y-74997676D02*
X80740476Y-74902438D01*
X80740476Y-74902438D02*
X80835714Y-74854819D01*
X82169047Y-75854819D02*
X81692857Y-75854819D01*
X81692857Y-75854819D02*
X81692857Y-74854819D01*
X82502381Y-75331009D02*
X82835714Y-75331009D01*
X82978571Y-75854819D02*
X82502381Y-75854819D01*
X82502381Y-75854819D02*
X82502381Y-74854819D01*
X82502381Y-74854819D02*
X82978571Y-74854819D01*
X83407143Y-75854819D02*
X83407143Y-74854819D01*
X83407143Y-74854819D02*
X83645238Y-74854819D01*
X83645238Y-74854819D02*
X83788095Y-74902438D01*
X83788095Y-74902438D02*
X83883333Y-74997676D01*
X83883333Y-74997676D02*
X83930952Y-75092914D01*
X83930952Y-75092914D02*
X83978571Y-75283390D01*
X83978571Y-75283390D02*
X83978571Y-75426247D01*
X83978571Y-75426247D02*
X83930952Y-75616723D01*
X83930952Y-75616723D02*
X83883333Y-75711961D01*
X83883333Y-75711961D02*
X83788095Y-75807200D01*
X83788095Y-75807200D02*
X83645238Y-75854819D01*
X83645238Y-75854819D02*
X83407143Y-75854819D01*
X111966666Y-71604819D02*
X111966666Y-72319104D01*
X111966666Y-72319104D02*
X111919047Y-72461961D01*
X111919047Y-72461961D02*
X111823809Y-72557200D01*
X111823809Y-72557200D02*
X111680952Y-72604819D01*
X111680952Y-72604819D02*
X111585714Y-72604819D01*
X112871428Y-71938152D02*
X112871428Y-72604819D01*
X112633333Y-71557200D02*
X112395238Y-72271485D01*
X112395238Y-72271485D02*
X113014285Y-72271485D01*
X114109524Y-72557200D02*
X114252381Y-72604819D01*
X114252381Y-72604819D02*
X114490476Y-72604819D01*
X114490476Y-72604819D02*
X114585714Y-72557200D01*
X114585714Y-72557200D02*
X114633333Y-72509580D01*
X114633333Y-72509580D02*
X114680952Y-72414342D01*
X114680952Y-72414342D02*
X114680952Y-72319104D01*
X114680952Y-72319104D02*
X114633333Y-72223866D01*
X114633333Y-72223866D02*
X114585714Y-72176247D01*
X114585714Y-72176247D02*
X114490476Y-72128628D01*
X114490476Y-72128628D02*
X114300000Y-72081009D01*
X114300000Y-72081009D02*
X114204762Y-72033390D01*
X114204762Y-72033390D02*
X114157143Y-71985771D01*
X114157143Y-71985771D02*
X114109524Y-71890533D01*
X114109524Y-71890533D02*
X114109524Y-71795295D01*
X114109524Y-71795295D02*
X114157143Y-71700057D01*
X114157143Y-71700057D02*
X114204762Y-71652438D01*
X114204762Y-71652438D02*
X114300000Y-71604819D01*
X114300000Y-71604819D02*
X114538095Y-71604819D01*
X114538095Y-71604819D02*
X114680952Y-71652438D01*
X115109524Y-72604819D02*
X115109524Y-71604819D01*
X115109524Y-71604819D02*
X115490476Y-71604819D01*
X115490476Y-71604819D02*
X115585714Y-71652438D01*
X115585714Y-71652438D02*
X115633333Y-71700057D01*
X115633333Y-71700057D02*
X115680952Y-71795295D01*
X115680952Y-71795295D02*
X115680952Y-71938152D01*
X115680952Y-71938152D02*
X115633333Y-72033390D01*
X115633333Y-72033390D02*
X115585714Y-72081009D01*
X115585714Y-72081009D02*
X115490476Y-72128628D01*
X115490476Y-72128628D02*
X115109524Y-72128628D01*
X116109524Y-72604819D02*
X116109524Y-71604819D01*
X116680952Y-72604819D02*
X116252381Y-72033390D01*
X116680952Y-71604819D02*
X116109524Y-72176247D01*
X117871429Y-72604819D02*
X117871429Y-71604819D01*
X118347619Y-72604819D02*
X118347619Y-71604819D01*
X118347619Y-71604819D02*
X118919047Y-72604819D01*
X118919047Y-72604819D02*
X118919047Y-71604819D01*
X45499999Y-55304819D02*
X45499999Y-56019104D01*
X45499999Y-56019104D02*
X45452380Y-56161961D01*
X45452380Y-56161961D02*
X45357142Y-56257200D01*
X45357142Y-56257200D02*
X45214285Y-56304819D01*
X45214285Y-56304819D02*
X45119047Y-56304819D01*
X46452380Y-55304819D02*
X45976190Y-55304819D01*
X45976190Y-55304819D02*
X45928571Y-55781009D01*
X45928571Y-55781009D02*
X45976190Y-55733390D01*
X45976190Y-55733390D02*
X46071428Y-55685771D01*
X46071428Y-55685771D02*
X46309523Y-55685771D01*
X46309523Y-55685771D02*
X46404761Y-55733390D01*
X46404761Y-55733390D02*
X46452380Y-55781009D01*
X46452380Y-55781009D02*
X46499999Y-55876247D01*
X46499999Y-55876247D02*
X46499999Y-56114342D01*
X46499999Y-56114342D02*
X46452380Y-56209580D01*
X46452380Y-56209580D02*
X46404761Y-56257200D01*
X46404761Y-56257200D02*
X46309523Y-56304819D01*
X46309523Y-56304819D02*
X46071428Y-56304819D01*
X46071428Y-56304819D02*
X45976190Y-56257200D01*
X45976190Y-56257200D02*
X45928571Y-56209580D01*
X47642857Y-56257200D02*
X47785714Y-56304819D01*
X47785714Y-56304819D02*
X48023809Y-56304819D01*
X48023809Y-56304819D02*
X48119047Y-56257200D01*
X48119047Y-56257200D02*
X48166666Y-56209580D01*
X48166666Y-56209580D02*
X48214285Y-56114342D01*
X48214285Y-56114342D02*
X48214285Y-56019104D01*
X48214285Y-56019104D02*
X48166666Y-55923866D01*
X48166666Y-55923866D02*
X48119047Y-55876247D01*
X48119047Y-55876247D02*
X48023809Y-55828628D01*
X48023809Y-55828628D02*
X47833333Y-55781009D01*
X47833333Y-55781009D02*
X47738095Y-55733390D01*
X47738095Y-55733390D02*
X47690476Y-55685771D01*
X47690476Y-55685771D02*
X47642857Y-55590533D01*
X47642857Y-55590533D02*
X47642857Y-55495295D01*
X47642857Y-55495295D02*
X47690476Y-55400057D01*
X47690476Y-55400057D02*
X47738095Y-55352438D01*
X47738095Y-55352438D02*
X47833333Y-55304819D01*
X47833333Y-55304819D02*
X48071428Y-55304819D01*
X48071428Y-55304819D02*
X48214285Y-55352438D01*
X48642857Y-56304819D02*
X48642857Y-55304819D01*
X48642857Y-55304819D02*
X49023809Y-55304819D01*
X49023809Y-55304819D02*
X49119047Y-55352438D01*
X49119047Y-55352438D02*
X49166666Y-55400057D01*
X49166666Y-55400057D02*
X49214285Y-55495295D01*
X49214285Y-55495295D02*
X49214285Y-55638152D01*
X49214285Y-55638152D02*
X49166666Y-55733390D01*
X49166666Y-55733390D02*
X49119047Y-55781009D01*
X49119047Y-55781009D02*
X49023809Y-55828628D01*
X49023809Y-55828628D02*
X48642857Y-55828628D01*
X49642857Y-56304819D02*
X49642857Y-55304819D01*
X50214285Y-56304819D02*
X49785714Y-55733390D01*
X50214285Y-55304819D02*
X49642857Y-55876247D01*
X51595238Y-55304819D02*
X51785714Y-55304819D01*
X51785714Y-55304819D02*
X51880952Y-55352438D01*
X51880952Y-55352438D02*
X51976190Y-55447676D01*
X51976190Y-55447676D02*
X52023809Y-55638152D01*
X52023809Y-55638152D02*
X52023809Y-55971485D01*
X52023809Y-55971485D02*
X51976190Y-56161961D01*
X51976190Y-56161961D02*
X51880952Y-56257200D01*
X51880952Y-56257200D02*
X51785714Y-56304819D01*
X51785714Y-56304819D02*
X51595238Y-56304819D01*
X51595238Y-56304819D02*
X51500000Y-56257200D01*
X51500000Y-56257200D02*
X51404762Y-56161961D01*
X51404762Y-56161961D02*
X51357143Y-55971485D01*
X51357143Y-55971485D02*
X51357143Y-55638152D01*
X51357143Y-55638152D02*
X51404762Y-55447676D01*
X51404762Y-55447676D02*
X51500000Y-55352438D01*
X51500000Y-55352438D02*
X51595238Y-55304819D01*
X52452381Y-55304819D02*
X52452381Y-56114342D01*
X52452381Y-56114342D02*
X52500000Y-56209580D01*
X52500000Y-56209580D02*
X52547619Y-56257200D01*
X52547619Y-56257200D02*
X52642857Y-56304819D01*
X52642857Y-56304819D02*
X52833333Y-56304819D01*
X52833333Y-56304819D02*
X52928571Y-56257200D01*
X52928571Y-56257200D02*
X52976190Y-56209580D01*
X52976190Y-56209580D02*
X53023809Y-56114342D01*
X53023809Y-56114342D02*
X53023809Y-55304819D01*
X53357143Y-55304819D02*
X53928571Y-55304819D01*
X53642857Y-56304819D02*
X53642857Y-55304819D01*
X47737029Y-46854819D02*
X47737029Y-47569104D01*
X47737029Y-47569104D02*
X47689410Y-47711961D01*
X47689410Y-47711961D02*
X47594172Y-47807200D01*
X47594172Y-47807200D02*
X47451315Y-47854819D01*
X47451315Y-47854819D02*
X47356077Y-47854819D01*
X48641791Y-46854819D02*
X48451315Y-46854819D01*
X48451315Y-46854819D02*
X48356077Y-46902438D01*
X48356077Y-46902438D02*
X48308458Y-46950057D01*
X48308458Y-46950057D02*
X48213220Y-47092914D01*
X48213220Y-47092914D02*
X48165601Y-47283390D01*
X48165601Y-47283390D02*
X48165601Y-47664342D01*
X48165601Y-47664342D02*
X48213220Y-47759580D01*
X48213220Y-47759580D02*
X48260839Y-47807200D01*
X48260839Y-47807200D02*
X48356077Y-47854819D01*
X48356077Y-47854819D02*
X48546553Y-47854819D01*
X48546553Y-47854819D02*
X48641791Y-47807200D01*
X48641791Y-47807200D02*
X48689410Y-47759580D01*
X48689410Y-47759580D02*
X48737029Y-47664342D01*
X48737029Y-47664342D02*
X48737029Y-47426247D01*
X48737029Y-47426247D02*
X48689410Y-47331009D01*
X48689410Y-47331009D02*
X48641791Y-47283390D01*
X48641791Y-47283390D02*
X48546553Y-47235771D01*
X48546553Y-47235771D02*
X48356077Y-47235771D01*
X48356077Y-47235771D02*
X48260839Y-47283390D01*
X48260839Y-47283390D02*
X48213220Y-47331009D01*
X48213220Y-47331009D02*
X48165601Y-47426247D01*
X50260839Y-47331009D02*
X50403696Y-47378628D01*
X50403696Y-47378628D02*
X50451315Y-47426247D01*
X50451315Y-47426247D02*
X50498934Y-47521485D01*
X50498934Y-47521485D02*
X50498934Y-47664342D01*
X50498934Y-47664342D02*
X50451315Y-47759580D01*
X50451315Y-47759580D02*
X50403696Y-47807200D01*
X50403696Y-47807200D02*
X50308458Y-47854819D01*
X50308458Y-47854819D02*
X49927506Y-47854819D01*
X49927506Y-47854819D02*
X49927506Y-46854819D01*
X49927506Y-46854819D02*
X50260839Y-46854819D01*
X50260839Y-46854819D02*
X50356077Y-46902438D01*
X50356077Y-46902438D02*
X50403696Y-46950057D01*
X50403696Y-46950057D02*
X50451315Y-47045295D01*
X50451315Y-47045295D02*
X50451315Y-47140533D01*
X50451315Y-47140533D02*
X50403696Y-47235771D01*
X50403696Y-47235771D02*
X50356077Y-47283390D01*
X50356077Y-47283390D02*
X50260839Y-47331009D01*
X50260839Y-47331009D02*
X49927506Y-47331009D01*
X50784649Y-46854819D02*
X51356077Y-46854819D01*
X51070363Y-47854819D02*
X51070363Y-46854819D01*
X51689411Y-47854819D02*
X51689411Y-46854819D01*
X51689411Y-46854819D02*
X52260839Y-47854819D01*
X52260839Y-47854819D02*
X52260839Y-46854819D01*
X52689411Y-46950057D02*
X52737030Y-46902438D01*
X52737030Y-46902438D02*
X52832268Y-46854819D01*
X52832268Y-46854819D02*
X53070363Y-46854819D01*
X53070363Y-46854819D02*
X53165601Y-46902438D01*
X53165601Y-46902438D02*
X53213220Y-46950057D01*
X53213220Y-46950057D02*
X53260839Y-47045295D01*
X53260839Y-47045295D02*
X53260839Y-47140533D01*
X53260839Y-47140533D02*
X53213220Y-47283390D01*
X53213220Y-47283390D02*
X52641792Y-47854819D01*
X52641792Y-47854819D02*
X53260839Y-47854819D01*
X99071428Y-47504819D02*
X99071428Y-48219104D01*
X99071428Y-48219104D02*
X99023809Y-48361961D01*
X99023809Y-48361961D02*
X98928571Y-48457200D01*
X98928571Y-48457200D02*
X98785714Y-48504819D01*
X98785714Y-48504819D02*
X98690476Y-48504819D01*
X99452381Y-47504819D02*
X100119047Y-47504819D01*
X100119047Y-47504819D02*
X99690476Y-48504819D01*
X101833333Y-48504819D02*
X101500000Y-48028628D01*
X101261905Y-48504819D02*
X101261905Y-47504819D01*
X101261905Y-47504819D02*
X101642857Y-47504819D01*
X101642857Y-47504819D02*
X101738095Y-47552438D01*
X101738095Y-47552438D02*
X101785714Y-47600057D01*
X101785714Y-47600057D02*
X101833333Y-47695295D01*
X101833333Y-47695295D02*
X101833333Y-47838152D01*
X101833333Y-47838152D02*
X101785714Y-47933390D01*
X101785714Y-47933390D02*
X101738095Y-47981009D01*
X101738095Y-47981009D02*
X101642857Y-48028628D01*
X101642857Y-48028628D02*
X101261905Y-48028628D01*
X102261905Y-47981009D02*
X102595238Y-47981009D01*
X102738095Y-48504819D02*
X102261905Y-48504819D01*
X102261905Y-48504819D02*
X102261905Y-47504819D01*
X102261905Y-47504819D02*
X102738095Y-47504819D01*
X103166667Y-47981009D02*
X103500000Y-47981009D01*
X103642857Y-48504819D02*
X103166667Y-48504819D01*
X103166667Y-48504819D02*
X103166667Y-47504819D01*
X103166667Y-47504819D02*
X103642857Y-47504819D01*
X104071429Y-48504819D02*
X104071429Y-47504819D01*
X104071429Y-47504819D02*
X104309524Y-47504819D01*
X104309524Y-47504819D02*
X104452381Y-47552438D01*
X104452381Y-47552438D02*
X104547619Y-47647676D01*
X104547619Y-47647676D02*
X104595238Y-47742914D01*
X104595238Y-47742914D02*
X104642857Y-47933390D01*
X104642857Y-47933390D02*
X104642857Y-48076247D01*
X104642857Y-48076247D02*
X104595238Y-48266723D01*
X104595238Y-48266723D02*
X104547619Y-48361961D01*
X104547619Y-48361961D02*
X104452381Y-48457200D01*
X104452381Y-48457200D02*
X104309524Y-48504819D01*
X104309524Y-48504819D02*
X104071429Y-48504819D01*
X105785714Y-47457200D02*
X104928572Y-48742914D01*
X105976191Y-47504819D02*
X106547619Y-47504819D01*
X106261905Y-48504819D02*
X106261905Y-47504819D01*
X107404762Y-47552438D02*
X107309524Y-47504819D01*
X107309524Y-47504819D02*
X107166667Y-47504819D01*
X107166667Y-47504819D02*
X107023810Y-47552438D01*
X107023810Y-47552438D02*
X106928572Y-47647676D01*
X106928572Y-47647676D02*
X106880953Y-47742914D01*
X106880953Y-47742914D02*
X106833334Y-47933390D01*
X106833334Y-47933390D02*
X106833334Y-48076247D01*
X106833334Y-48076247D02*
X106880953Y-48266723D01*
X106880953Y-48266723D02*
X106928572Y-48361961D01*
X106928572Y-48361961D02*
X107023810Y-48457200D01*
X107023810Y-48457200D02*
X107166667Y-48504819D01*
X107166667Y-48504819D02*
X107261905Y-48504819D01*
X107261905Y-48504819D02*
X107404762Y-48457200D01*
X107404762Y-48457200D02*
X107452381Y-48409580D01*
X107452381Y-48409580D02*
X107452381Y-48076247D01*
X107452381Y-48076247D02*
X107261905Y-48076247D01*
X108357143Y-48504819D02*
X107880953Y-48504819D01*
X107880953Y-48504819D02*
X107880953Y-47504819D01*
%TO.C,C31*%
X62815000Y-46088748D02*
X62815000Y-46611252D01*
X61345000Y-46088748D02*
X61345000Y-46611252D01*
%TO.C,R32*%
X58325000Y-51656936D02*
X58325000Y-52111064D01*
X56855000Y-51656936D02*
X56855000Y-52111064D01*
%TO.C,R31*%
X58325000Y-55165936D02*
X58325000Y-55620064D01*
X56855000Y-55165936D02*
X56855000Y-55620064D01*
%TO.C,D31*%
X56100000Y-55066000D02*
X54100000Y-55066000D01*
X56100000Y-55066000D02*
X56100000Y-59076000D01*
X54100000Y-55066000D02*
X54100000Y-59076000D01*
%TO.C,Q31*%
X57210000Y-61096000D02*
X57210000Y-62616000D01*
X57160000Y-61096000D02*
X57210000Y-61096000D01*
X55260000Y-61096000D02*
X56040000Y-61096000D01*
X54090000Y-61096000D02*
X54140000Y-61096000D01*
X57210000Y-62616000D02*
X56210000Y-62616000D01*
X55090000Y-62616000D02*
X54090000Y-62616000D01*
X54090000Y-62616000D02*
X54090000Y-61096000D01*
X56030000Y-60556000D02*
X55700000Y-60796000D01*
X55700000Y-60316000D01*
X56030000Y-60556000D01*
G36*
X56030000Y-60556000D02*
G01*
X55700000Y-60796000D01*
X55700000Y-60316000D01*
X56030000Y-60556000D01*
G37*
%TO.C,C32*%
X83662000Y-55463748D02*
X83662000Y-55986252D01*
X82192000Y-55463748D02*
X82192000Y-55986252D01*
%TO.C,U4*%
X103640000Y-61040000D02*
X107760000Y-61040000D01*
X103640000Y-61135000D02*
X103640000Y-61040000D01*
X103640000Y-66160000D02*
X103640000Y-66065000D01*
X107760000Y-61040000D02*
X107760000Y-61135000D01*
X107760000Y-66065000D02*
X107760000Y-66160000D01*
X107760000Y-66160000D02*
X103640000Y-66160000D01*
X103100000Y-61130000D02*
X102860000Y-60800000D01*
X103340000Y-60800000D01*
X103100000Y-61130000D01*
G36*
X103100000Y-61130000D02*
G01*
X102860000Y-60800000D01*
X103340000Y-60800000D01*
X103100000Y-61130000D01*
G37*
%TO.C,C42*%
X97238748Y-62865000D02*
X97761252Y-62865000D01*
X97238748Y-64335000D02*
X97761252Y-64335000D01*
%TO.C,U1*%
X64110000Y-65225000D02*
X63410000Y-65225000D01*
X64110000Y-64525000D02*
X64110000Y-65225000D01*
X64110000Y-61005000D02*
X64110000Y-61705000D01*
X63410000Y-61005000D02*
X64110000Y-61005000D01*
X60590000Y-65225000D02*
X59890000Y-65225000D01*
X59890000Y-65225000D02*
X59890000Y-64525000D01*
X59890000Y-61705000D02*
X59890000Y-61005000D01*
X59890000Y-61005000D02*
X60590000Y-61005000D01*
X64640000Y-64095000D02*
X64970000Y-63855000D01*
X64970000Y-64335000D01*
X64640000Y-64095000D01*
G36*
X64970000Y-64335000D02*
G01*
X64640000Y-64095000D01*
X64970000Y-63855000D01*
X64970000Y-64335000D01*
G37*
%TO.C,L1*%
X69610000Y-65510000D02*
X65390000Y-65510000D01*
X65390000Y-61290000D02*
X69610000Y-61290000D01*
%TO.C,U2*%
X71390000Y-59905000D02*
X72115000Y-59905000D01*
X71390000Y-60630000D02*
X71390000Y-59905000D01*
X71390000Y-64125000D02*
X71390000Y-63400000D01*
X72115000Y-64125000D02*
X71390000Y-64125000D01*
X74885000Y-59905000D02*
X75610000Y-59905000D01*
X75610000Y-59905000D02*
X75610000Y-60630000D01*
X75610000Y-63400000D02*
X75610000Y-64125000D01*
X75610000Y-64125000D02*
X74885000Y-64125000D01*
X70890000Y-61015000D02*
X70560000Y-61255000D01*
X70560000Y-60775000D01*
X70890000Y-61015000D01*
G36*
X70890000Y-61015000D02*
G01*
X70560000Y-61255000D01*
X70560000Y-60775000D01*
X70890000Y-61015000D01*
G37*
%TO.C,R41*%
X81227064Y-64310000D02*
X79772936Y-64310000D01*
X81227064Y-62490000D02*
X79772936Y-62490000D01*
%TO.C,Q2*%
X84240000Y-61840000D02*
X85760000Y-61840000D01*
X84240000Y-61890000D02*
X84240000Y-61840000D01*
X84240000Y-63790000D02*
X84240000Y-63010000D01*
X84240000Y-64960000D02*
X84240000Y-64910000D01*
X85760000Y-61840000D02*
X85760000Y-62840000D01*
X85760000Y-63960000D02*
X85760000Y-64960000D01*
X85760000Y-64960000D02*
X84240000Y-64960000D01*
X83700000Y-63020000D02*
X83940000Y-63350000D01*
X83460000Y-63350000D01*
X83700000Y-63020000D01*
G36*
X83940000Y-63350000D02*
G01*
X83460000Y-63350000D01*
X83700000Y-63020000D01*
X83940000Y-63350000D01*
G37*
%TO.C,U3*%
X81657000Y-56723000D02*
X81657000Y-59943000D01*
X81457000Y-56723000D02*
X81657000Y-56723000D01*
X78437000Y-56723000D02*
X78637000Y-56723000D01*
X81657000Y-59943000D02*
X81457000Y-59943000D01*
X78637000Y-59943000D02*
X78437000Y-59943000D01*
X78437000Y-59943000D02*
X78437000Y-56723000D01*
X81457000Y-56173000D02*
X81787000Y-55933000D01*
X81787000Y-56413000D01*
X81457000Y-56173000D01*
G36*
X81787000Y-56413000D02*
G01*
X81457000Y-56173000D01*
X81787000Y-55933000D01*
X81787000Y-56413000D01*
G37*
%TO.C,R44*%
X58817936Y-71665000D02*
X59272064Y-71665000D01*
X58817936Y-73135000D02*
X59272064Y-73135000D01*
%TO.C,R45*%
X62212936Y-71665000D02*
X62667064Y-71665000D01*
X62212936Y-73135000D02*
X62667064Y-73135000D01*
%TO.C,LED3*%
X64268000Y-71440000D02*
X64268000Y-73360000D01*
X64268000Y-73360000D02*
X66953000Y-73360000D01*
X66953000Y-71440000D02*
X64268000Y-71440000D01*
%TO.C,R14*%
X69121936Y-71665000D02*
X69576064Y-71665000D01*
X69121936Y-73135000D02*
X69576064Y-73135000D01*
%TO.C,R15*%
X72491936Y-72690000D02*
X72946064Y-72690000D01*
X72491936Y-74160000D02*
X72946064Y-74160000D01*
%TO.C,LED4*%
X71955000Y-70415000D02*
X71955000Y-72335000D01*
X71955000Y-72335000D02*
X74640000Y-72335000D01*
X74640000Y-70415000D02*
X71955000Y-70415000D01*
%TO.C,R8*%
X78274936Y-69025000D02*
X78729064Y-69025000D01*
X78274936Y-70495000D02*
X78729064Y-70495000D01*
%TO.C,R46*%
X83772936Y-69025000D02*
X84227064Y-69025000D01*
X83772936Y-70495000D02*
X84227064Y-70495000D01*
%TO.C,C2*%
X60921748Y-68175000D02*
X61444252Y-68175000D01*
X60921748Y-69645000D02*
X61444252Y-69645000D01*
%TO.C,C6*%
X64621748Y-68038000D02*
X66044252Y-68038000D01*
X64621748Y-69858000D02*
X66044252Y-69858000D01*
%TO.C,C9*%
X69272748Y-67890000D02*
X70695252Y-67890000D01*
X69272748Y-69710000D02*
X70695252Y-69710000D01*
%TO.C,R4*%
X60847064Y-67565000D02*
X60392936Y-67565000D01*
X60847064Y-66095000D02*
X60392936Y-66095000D01*
%TO.C,R3*%
X64927064Y-67432000D02*
X64472936Y-67432000D01*
X64927064Y-65962000D02*
X64472936Y-65962000D01*
%TO.C,R16*%
X76017936Y-65665000D02*
X76472064Y-65665000D01*
X76017936Y-67135000D02*
X76472064Y-67135000D01*
%TO.C,R17*%
X79527936Y-65665000D02*
X79982064Y-65665000D01*
X79527936Y-67135000D02*
X79982064Y-67135000D01*
%TO.C,C1*%
X60833748Y-57665000D02*
X61356252Y-57665000D01*
X60833748Y-59135000D02*
X61356252Y-59135000D01*
%TO.C,C4*%
X64247748Y-57665000D02*
X64770252Y-57665000D01*
X64247748Y-59135000D02*
X64770252Y-59135000D01*
%TO.C,C7*%
X67689748Y-57665000D02*
X68212252Y-57665000D01*
X67689748Y-59135000D02*
X68212252Y-59135000D01*
%TO.C,C8*%
X71240748Y-57550000D02*
X71763252Y-57550000D01*
X71240748Y-59020000D02*
X71763252Y-59020000D01*
%TO.C,C41*%
X74681748Y-57665000D02*
X75204252Y-57665000D01*
X74681748Y-59135000D02*
X75204252Y-59135000D01*
%TO.C,R42*%
X83517936Y-57790000D02*
X83972064Y-57790000D01*
X83517936Y-59260000D02*
X83972064Y-59260000D01*
%TO.C,R43*%
X87027936Y-57665000D02*
X87482064Y-57665000D01*
X87027936Y-59135000D02*
X87482064Y-59135000D01*
%TO.C,R1*%
X61617936Y-53665000D02*
X62072064Y-53665000D01*
X61617936Y-55135000D02*
X62072064Y-55135000D01*
%TO.C,R2*%
X64917742Y-53877500D02*
X65392258Y-53877500D01*
X64917742Y-54922500D02*
X65392258Y-54922500D01*
%TO.C,R13*%
X73617936Y-53665000D02*
X74072064Y-53665000D01*
X73617936Y-55135000D02*
X74072064Y-55135000D01*
%TO.C,R6*%
X76784742Y-53722500D02*
X77259258Y-53722500D01*
X76784742Y-54767500D02*
X77259258Y-54767500D01*
%TO.C,R7*%
X79895742Y-53799500D02*
X80370258Y-53799500D01*
X79895742Y-54844500D02*
X80370258Y-54844500D01*
%TO.C,LED2*%
X59449000Y-50290000D02*
X59449000Y-52210000D01*
X59449000Y-52210000D02*
X62134000Y-52210000D01*
X62134000Y-50290000D02*
X59449000Y-50290000D01*
%TO.C,R5*%
X64273936Y-49665000D02*
X64728064Y-49665000D01*
X64273936Y-51135000D02*
X64728064Y-51135000D01*
%TO.C,LED1*%
X66215000Y-49440000D02*
X66215000Y-51360000D01*
X66215000Y-51360000D02*
X68900000Y-51360000D01*
X68900000Y-49440000D02*
X66215000Y-49440000D01*
%TO.C,R20*%
X71182936Y-49665000D02*
X71637064Y-49665000D01*
X71182936Y-51135000D02*
X71637064Y-51135000D01*
%TO.C,Q1*%
X74295000Y-48840000D02*
X75815000Y-48840000D01*
X74295000Y-48890000D02*
X74295000Y-48840000D01*
X74295000Y-50790000D02*
X74295000Y-50010000D01*
X74295000Y-51960000D02*
X74295000Y-51910000D01*
X75815000Y-48840000D02*
X75815000Y-49840000D01*
X75815000Y-50960000D02*
X75815000Y-51960000D01*
X75815000Y-51960000D02*
X74295000Y-51960000D01*
X73755000Y-50020000D02*
X73995000Y-50350000D01*
X73515000Y-50350000D01*
X73755000Y-50020000D01*
G36*
X73995000Y-50350000D02*
G01*
X73515000Y-50350000D01*
X73755000Y-50020000D01*
X73995000Y-50350000D01*
G37*
%TO.C,J4*%
X111940000Y-65740000D02*
X111940000Y-66990000D01*
X112240000Y-67350000D02*
X112850000Y-67350000D01*
X112240000Y-68650000D02*
X112850000Y-68650000D01*
X112850000Y-66650000D02*
X112850000Y-70150000D01*
X112850000Y-70150000D02*
X117750000Y-70150000D01*
X113190000Y-65740000D02*
X111940000Y-65740000D01*
X113700000Y-65840000D02*
X113700000Y-66040000D01*
X114000000Y-65840000D02*
X113700000Y-65840000D01*
X114000000Y-65940000D02*
X113700000Y-65940000D01*
X114000000Y-66040000D02*
X114000000Y-65840000D01*
X114800000Y-66040000D02*
X114800000Y-66650000D01*
X114800000Y-66650000D02*
X112850000Y-66650000D01*
X115200000Y-69650000D02*
X115400000Y-69650000D01*
X115200000Y-70150000D02*
X115200000Y-69650000D01*
X115300000Y-70150000D02*
X115300000Y-69650000D01*
X115400000Y-69650000D02*
X115400000Y-70150000D01*
X115800000Y-66650000D02*
X115800000Y-66040000D01*
X117750000Y-66650000D02*
X115800000Y-66650000D01*
X117750000Y-70150000D02*
X117750000Y-66650000D01*
X118360000Y-67350000D02*
X117750000Y-67350000D01*
X118360000Y-68650000D02*
X117750000Y-68650000D01*
X112240000Y-66040000D02*
X118360000Y-66040000D01*
X118360000Y-70760000D01*
X112240000Y-70760000D01*
X112240000Y-66040000D01*
%TO.C,J5*%
X53410000Y-57240000D02*
X45590000Y-57240000D01*
X51810000Y-57240000D02*
X51810000Y-58160000D01*
X45590000Y-57240000D02*
X45590000Y-63360000D01*
X53410000Y-58160000D02*
X53410000Y-57240000D01*
X51810000Y-58160000D02*
X53410000Y-58160000D01*
X51810000Y-58440000D02*
X51810000Y-58160000D01*
X51810000Y-58440000D02*
X53025000Y-58440000D01*
X47850000Y-58500000D02*
X45590000Y-58500000D01*
X47850000Y-59000000D02*
X45590000Y-59000000D01*
X49950000Y-59800000D02*
X49950000Y-60800000D01*
X45590000Y-59800000D02*
X49950000Y-59800000D01*
X49950000Y-60800000D02*
X45590000Y-60800000D01*
X53410000Y-62440000D02*
X51810000Y-62440000D01*
X51810000Y-62440000D02*
X51810000Y-62160000D01*
X53410000Y-63360000D02*
X53410000Y-62440000D01*
X51810000Y-63360000D02*
X51810000Y-62440000D01*
X45590000Y-63360000D02*
X53410000Y-63360000D01*
X47850000Y-58000000D02*
X49450000Y-58000000D01*
X49450000Y-59000000D01*
X47850000Y-59000000D01*
X47850000Y-58000000D01*
X47850000Y-61600000D02*
X49450000Y-61600000D01*
X49450000Y-62600000D01*
X47850000Y-62600000D01*
X47850000Y-61600000D01*
%TO.C,J6*%
X54140000Y-44740000D02*
X54140000Y-45990000D01*
X54440000Y-46350000D02*
X55050000Y-46350000D01*
X54440000Y-47650000D02*
X55050000Y-47650000D01*
X55050000Y-45650000D02*
X55050000Y-49150000D01*
X55050000Y-49150000D02*
X59950000Y-49150000D01*
X55390000Y-44740000D02*
X54140000Y-44740000D01*
X55900000Y-44840000D02*
X55900000Y-45040000D01*
X56200000Y-44840000D02*
X55900000Y-44840000D01*
X56200000Y-44940000D02*
X55900000Y-44940000D01*
X56200000Y-45040000D02*
X56200000Y-44840000D01*
X57000000Y-45040000D02*
X57000000Y-45650000D01*
X57000000Y-45650000D02*
X55050000Y-45650000D01*
X57400000Y-48650000D02*
X57600000Y-48650000D01*
X57400000Y-49150000D02*
X57400000Y-48650000D01*
X57500000Y-49150000D02*
X57500000Y-48650000D01*
X57600000Y-48650000D02*
X57600000Y-49150000D01*
X58000000Y-45650000D02*
X58000000Y-45040000D01*
X59950000Y-45650000D02*
X58000000Y-45650000D01*
X59950000Y-49150000D02*
X59950000Y-45650000D01*
X60560000Y-46350000D02*
X59950000Y-46350000D01*
X60560000Y-47650000D02*
X59950000Y-47650000D01*
X54440000Y-45040000D02*
X60560000Y-45040000D01*
X60560000Y-49760000D01*
X54440000Y-49760000D01*
X54440000Y-45040000D01*
%TO.C,J7*%
X98140000Y-41640000D02*
X98140000Y-42890000D01*
X98440000Y-43250000D02*
X99050000Y-43250000D01*
X98440000Y-44550000D02*
X99050000Y-44550000D01*
X99050000Y-42550000D02*
X99050000Y-46050000D01*
X99050000Y-46050000D02*
X107950000Y-46050000D01*
X99390000Y-41640000D02*
X98140000Y-41640000D01*
X99900000Y-41740000D02*
X99900000Y-41940000D01*
X100200000Y-41740000D02*
X99900000Y-41740000D01*
X100200000Y-41840000D02*
X99900000Y-41840000D01*
X100200000Y-41940000D02*
X100200000Y-41740000D01*
X101000000Y-41940000D02*
X101000000Y-42550000D01*
X101000000Y-42550000D02*
X99050000Y-42550000D01*
X101400000Y-45550000D02*
X101600000Y-45550000D01*
X101400000Y-46050000D02*
X101400000Y-45550000D01*
X101500000Y-46050000D02*
X101500000Y-45550000D01*
X101600000Y-45550000D02*
X101600000Y-46050000D01*
X103400000Y-45550000D02*
X103600000Y-45550000D01*
X103400000Y-46050000D02*
X103400000Y-45550000D01*
X103500000Y-46050000D02*
X103500000Y-45550000D01*
X103600000Y-45550000D02*
X103600000Y-46050000D01*
X105400000Y-45550000D02*
X105600000Y-45550000D01*
X105400000Y-46050000D02*
X105400000Y-45550000D01*
X105500000Y-46050000D02*
X105500000Y-45550000D01*
X105600000Y-45550000D02*
X105600000Y-46050000D01*
X106000000Y-42550000D02*
X106000000Y-41940000D01*
X107950000Y-42550000D02*
X106000000Y-42550000D01*
X107950000Y-46050000D02*
X107950000Y-42550000D01*
X108560000Y-43250000D02*
X107950000Y-43250000D01*
X108560000Y-44550000D02*
X107950000Y-44550000D01*
X98440000Y-41940000D02*
X108560000Y-41940000D01*
X108560000Y-46660000D01*
X98440000Y-46660000D01*
X98440000Y-41940000D01*
%TO.C,J1*%
X40390000Y-66975000D02*
X40390000Y-65595000D01*
X41770000Y-66975000D02*
X40390000Y-66975000D01*
X43040000Y-66975000D02*
X58390000Y-66975000D01*
X43040000Y-66975000D02*
X43040000Y-64215000D01*
X58390000Y-66975000D02*
X58390000Y-64215000D01*
X43040000Y-64215000D02*
X58390000Y-64215000D01*
%TO.C,J2*%
X75860000Y-74010000D02*
X75860000Y-72630000D01*
X77240000Y-74010000D02*
X75860000Y-74010000D01*
X78510000Y-74010000D02*
X86240000Y-74010000D01*
X78510000Y-74010000D02*
X78510000Y-71250000D01*
X86240000Y-74010000D02*
X86240000Y-71250000D01*
X78510000Y-71250000D02*
X86240000Y-71250000D01*
%TO.C,J13*%
X85712000Y-44250000D02*
X85712000Y-42250000D01*
X85712000Y-40350000D02*
X85712000Y-38450000D01*
X85712000Y-38450000D02*
X76312000Y-38450000D01*
X76312000Y-44250000D02*
X76312000Y-42250000D01*
X76312000Y-40350000D02*
X76312000Y-38450000D01*
%TO.C,K31*%
X96932000Y-56600000D02*
X95732000Y-56600000D01*
X95732000Y-57000000D02*
X88032000Y-57000000D01*
X95732000Y-56600000D02*
X95732000Y-57000000D01*
X95732000Y-54900000D02*
X96932000Y-54900000D01*
X95732000Y-54900000D02*
X95732000Y-51600000D01*
X95732000Y-49900000D02*
X95732000Y-48900000D01*
X95732000Y-47300000D02*
X95732000Y-46400000D01*
X95732000Y-44700000D02*
X95732000Y-41900000D01*
X95732000Y-41900000D02*
X88032000Y-41900000D01*
X88032000Y-57000000D02*
X88032000Y-56600000D01*
X88032000Y-54900000D02*
X88032000Y-51600000D01*
X88032000Y-48900000D02*
X88032000Y-49900000D01*
X88032000Y-46400000D02*
X88032000Y-47300000D01*
X88032000Y-41900000D02*
X88032000Y-44700000D01*
%TD*%
M02*
