M48
; DRILL file KiCad 10.0.6 date 2026-09-16T22:19:07
; FORMAT={-:-/ absolute / metric / decimal}
; #@! TF.CreationDate,2026-09-16T22:19:07+09:00
; #@! TF.GenerationSoftware,Kicad,Pcbnew,10.0.6
; #@! TF.FileFunction,Plated,1,2,PTH
FMAT,2
METRIC
; #@! TA.AperFunction,Plated,PTH,ViaDrill
T1C0.300
; #@! TA.AperFunction,Plated,PTH,ViaDrill
T2C0.400
; #@! TA.AperFunction,Plated,PTH,ComponentDrill
T3C0.600
; #@! TA.AperFunction,Plated,PTH,ComponentDrill
T4C0.750
; #@! TA.AperFunction,Plated,PTH,ComponentDrill
T5C1.000
%
G90
G05
T1
X41.0Y-44.4
X41.0Y-47.6
X41.0Y-50.8
X41.0Y-54.0
X41.0Y-57.2
X41.0Y-60.4
X41.0Y-63.6
X41.0Y-70.0
X41.0Y-73.2
X41.0Y-76.4
X44.2Y-41.2
X44.2Y-47.6
X44.2Y-50.8
X44.2Y-54.0
X44.2Y-57.2
X44.2Y-60.4
X44.2Y-70.0
X44.2Y-76.4
X47.4Y-41.2
X47.4Y-44.4
X47.4Y-47.6
X47.4Y-50.8
X47.4Y-54.0
X47.4Y-57.2
X47.4Y-70.0
X47.4Y-73.2
X47.4Y-76.4
X50.6Y-41.2
X50.6Y-44.4
X50.6Y-47.6
X50.6Y-50.8
X50.6Y-54.0
X50.6Y-63.6
X50.6Y-73.2
X50.6Y-76.4
X53.8Y-41.2
X53.8Y-44.4
X53.8Y-76.4
X57.0Y-41.2
X57.0Y-76.4
X60.2Y-41.2
X60.2Y-47.6
X60.2Y-66.8
X60.2Y-70.0
X60.2Y-76.4
X63.4Y-41.2
X63.4Y-57.2
X63.4Y-66.8
X63.4Y-70.0
X63.4Y-76.4
X66.6Y-41.2
X66.6Y-76.4
X69.8Y-41.2
X69.8Y-76.4
X73.0Y-41.2
X73.0Y-70.0
X73.0Y-76.4
X76.2Y-41.2
X76.2Y-63.6
X76.2Y-70.0
X76.2Y-76.4
X79.4Y-41.2
X79.4Y-76.4
X82.6Y-41.2
X82.6Y-66.8
X82.6Y-76.4
X85.8Y-41.2
X85.8Y-66.8
X85.8Y-70.0
X85.8Y-76.4
X89.0Y-41.2
X89.0Y-66.8
X89.0Y-70.0
X89.0Y-76.4
X92.2Y-41.2
X92.2Y-47.6
X92.2Y-76.4
X95.4Y-41.2
X95.4Y-70.0
X95.4Y-76.4
X98.6Y-41.2
X98.6Y-47.6
X98.6Y-66.8
X98.6Y-76.4
X101.8Y-41.2
X101.8Y-54.0
X101.8Y-73.2
X101.8Y-76.4
X105.0Y-41.2
X105.0Y-47.6
X105.0Y-70.0
X105.0Y-73.2
X105.0Y-76.4
X108.2Y-41.2
X108.2Y-47.6
X108.2Y-54.0
X108.2Y-66.8
X108.2Y-70.0
X108.2Y-73.2
X108.2Y-76.4
X111.4Y-41.2
X111.4Y-44.4
X111.4Y-54.0
X111.4Y-57.2
X111.4Y-63.6
X111.4Y-70.0
X111.4Y-76.4
X114.6Y-41.2
X114.6Y-44.4
X114.6Y-57.2
X114.6Y-73.2
X114.6Y-76.4
X117.8Y-41.2
X117.8Y-44.4
X117.8Y-50.8
X117.8Y-63.6
X117.8Y-66.8
X117.8Y-70.0
X117.8Y-76.4
X121.0Y-41.2
X121.0Y-44.4
X121.0Y-47.6
X121.0Y-50.8
X121.0Y-54.0
X121.0Y-57.2
X121.0Y-60.4
X121.0Y-63.6
X121.0Y-66.8
X121.0Y-70.0
X121.0Y-76.4
T2
X52.947Y-55.075
X56.505Y-63.004
X58.845Y-54.481
X59.719Y-58.792
X61.261Y-55.487
X62.224Y-64.127
X62.256Y-60.617
X62.393Y-48.365
X63.365Y-45.54
X64.966Y-52.286
X65.065Y-69.736
X65.938Y-53.498
X66.876Y-48.77
X67.823Y-60.208
X67.955Y-47.434
X68.168Y-63.243
X69.754Y-57.275
X69.866Y-48.361
X69.904Y-63.257
X69.973Y-53.734
X70.22Y-50.016
X70.417Y-58.692
X70.825Y-52.314
X70.914Y-44.575
X71.412Y-66.626
X71.469Y-51.606
X72.053Y-63.021
X72.199Y-55.372
X72.958Y-72.52
X73.177Y-49.7
X73.761Y-59.694
X74.036Y-51.061
X74.512Y-48.212
X75.481Y-44.914
X76.056Y-46.888
X79.966Y-55.622
X80.291Y-61.23
X80.724Y-50.297
X80.951Y-56.276
X80.962Y-57.272
X81.381Y-51.781
X83.063Y-48.242
X83.618Y-60.39
X84.485Y-44.499
X87.078Y-46.152
X87.287Y-52.055
X87.349Y-54.643
X87.773Y-50.834
X87.78Y-47.401
X89.733Y-72.519
X90.275Y-56.791
X90.299Y-57.851
X90.862Y-60.902
X93.745Y-71.86
X94.25Y-59.65
X94.289Y-65.31
X96.62Y-48.898
X96.966Y-53.182
X98.409Y-61.092
X99.51Y-63.293
X105.579Y-59.911
X106.621Y-62.749
X106.642Y-64.235
X114.149Y-49.902
X117.423Y-52.75
T4
X51.95Y-59.3
X51.95Y-61.3
X56.5Y-46.85
X58.5Y-46.85
X100.5Y-43.75
X102.5Y-43.75
X104.5Y-43.75
X106.5Y-43.75
X114.3Y-67.85
X115.7Y-60.45
X115.7Y-62.45
X116.3Y-67.85
T5
X41.77Y-65.595
X44.31Y-65.595
X46.85Y-65.595
X49.39Y-65.595
X51.93Y-65.595
X54.47Y-65.595
X57.01Y-65.595
X77.24Y-72.63
X79.78Y-72.63
X82.32Y-72.63
X84.86Y-72.63
T3
X116.224Y-47.08G85X117.324Y-47.08
G05
X116.224Y-55.72G85X117.324Y-55.72
G05
M30
