%TF.GenerationSoftware,KiCad,Pcbnew,10.0.6*%
%TF.CreationDate,2026-09-20T15:51:54+09:00*%
%TF.ProjectId,katanori61,6b617461-6e6f-4726-9936-312e6b696361,rev?*%
%TF.SameCoordinates,Original*%
%TF.FileFunction,Legend,Bot*%
%TF.FilePolarity,Positive*%
%FSLAX46Y46*%
G04 Gerber Fmt 4.6, Leading zero omitted, Abs format (unit mm)*
G04 Created by KiCad (PCBNEW 10.0.6) date 2026-09-20 15:51:54*
%MOMM*%
%LPD*%
G01*
G04 APERTURE LIST*
%ADD10C,0.150000*%
%ADD11C,1.575000*%
G04 APERTURE END LIST*
D10*
X120998683Y-60556533D02*
X119932017Y-60556533D01*
X120998683Y-62556533D02*
X119932017Y-62556533D01*
X120465350Y-63089866D02*
X120465350Y-62023200D01*
X118750000Y-56454819D02*
X118750000Y-57169104D01*
X118750000Y-57169104D02*
X118797619Y-57311961D01*
X118797619Y-57311961D02*
X118892857Y-57407200D01*
X118892857Y-57407200D02*
X119035714Y-57454819D01*
X119035714Y-57454819D02*
X119130952Y-57454819D01*
X117750000Y-57454819D02*
X118321428Y-57454819D01*
X118035714Y-57454819D02*
X118035714Y-56454819D01*
X118035714Y-56454819D02*
X118130952Y-56597676D01*
X118130952Y-56597676D02*
X118226190Y-56692914D01*
X118226190Y-56692914D02*
X118321428Y-56740533D01*
X117130952Y-56454819D02*
X117035714Y-56454819D01*
X117035714Y-56454819D02*
X116940476Y-56502438D01*
X116940476Y-56502438D02*
X116892857Y-56550057D01*
X116892857Y-56550057D02*
X116845238Y-56645295D01*
X116845238Y-56645295D02*
X116797619Y-56835771D01*
X116797619Y-56835771D02*
X116797619Y-57073866D01*
X116797619Y-57073866D02*
X116845238Y-57264342D01*
X116845238Y-57264342D02*
X116892857Y-57359580D01*
X116892857Y-57359580D02*
X116940476Y-57407200D01*
X116940476Y-57407200D02*
X117035714Y-57454819D01*
X117035714Y-57454819D02*
X117130952Y-57454819D01*
X117130952Y-57454819D02*
X117226190Y-57407200D01*
X117226190Y-57407200D02*
X117273809Y-57359580D01*
X117273809Y-57359580D02*
X117321428Y-57264342D01*
X117321428Y-57264342D02*
X117369047Y-57073866D01*
X117369047Y-57073866D02*
X117369047Y-56835771D01*
X117369047Y-56835771D02*
X117321428Y-56645295D01*
X117321428Y-56645295D02*
X117273809Y-56550057D01*
X117273809Y-56550057D02*
X117226190Y-56502438D01*
X117226190Y-56502438D02*
X117130952Y-56454819D01*
X115273809Y-56931009D02*
X115130952Y-56978628D01*
X115130952Y-56978628D02*
X115083333Y-57026247D01*
X115083333Y-57026247D02*
X115035714Y-57121485D01*
X115035714Y-57121485D02*
X115035714Y-57264342D01*
X115035714Y-57264342D02*
X115083333Y-57359580D01*
X115083333Y-57359580D02*
X115130952Y-57407200D01*
X115130952Y-57407200D02*
X115226190Y-57454819D01*
X115226190Y-57454819D02*
X115607142Y-57454819D01*
X115607142Y-57454819D02*
X115607142Y-56454819D01*
X115607142Y-56454819D02*
X115273809Y-56454819D01*
X115273809Y-56454819D02*
X115178571Y-56502438D01*
X115178571Y-56502438D02*
X115130952Y-56550057D01*
X115130952Y-56550057D02*
X115083333Y-56645295D01*
X115083333Y-56645295D02*
X115083333Y-56740533D01*
X115083333Y-56740533D02*
X115130952Y-56835771D01*
X115130952Y-56835771D02*
X115178571Y-56883390D01*
X115178571Y-56883390D02*
X115273809Y-56931009D01*
X115273809Y-56931009D02*
X115607142Y-56931009D01*
X114654761Y-57169104D02*
X114178571Y-57169104D01*
X114749999Y-57454819D02*
X114416666Y-56454819D01*
X114416666Y-56454819D02*
X114083333Y-57454819D01*
X113892856Y-56454819D02*
X113321428Y-56454819D01*
X113607142Y-57454819D02*
X113607142Y-56454819D01*
X59825000Y-60325000D02*
X64175000Y-60325000D01*
X64775000Y-60925000D02*
X64775000Y-65275000D01*
X64175000Y-65875000D02*
X59825000Y-65875000D01*
X59225000Y-65275000D02*
X59225000Y-60925000D01*
X64175000Y-60325000D02*
G75*
G02*
X64775000Y-60925000I-900J-600900D01*
G01*
X64775000Y-65275000D02*
G75*
G02*
X64175000Y-65875000I-600900J900D01*
G01*
X59825000Y-65875000D02*
G75*
G02*
X59225000Y-65275000I900J600900D01*
G01*
X59225000Y-60925000D02*
G75*
G02*
X59825000Y-60325000I600900J-900D01*
G01*
X71350000Y-59350000D02*
X75650000Y-59350000D01*
X76250000Y-59950000D02*
X76250000Y-64250000D01*
X75650000Y-64850000D02*
X71350000Y-64850000D01*
X70750000Y-64250000D02*
X70750000Y-59950000D01*
X75650000Y-59350000D02*
G75*
G02*
X76250000Y-59950000I-900J-600900D01*
G01*
X76250000Y-64250000D02*
G75*
G02*
X75650000Y-64850000I-600900J900D01*
G01*
X71350000Y-64850000D02*
G75*
G02*
X70750000Y-64250000I900J600900D01*
G01*
X70750000Y-59950000D02*
G75*
G02*
X71350000Y-59350000I600900J-900D01*
G01*
X86930000Y-44690000D02*
X96730000Y-44690000D01*
X97330000Y-45290000D02*
X97330000Y-56050000D01*
X96730000Y-56650000D02*
X86930000Y-56650000D01*
X86330000Y-56050000D02*
X86330000Y-45290000D01*
X96730000Y-44690000D02*
G75*
G02*
X97330000Y-45290000I-900J-600900D01*
G01*
X97330000Y-56050000D02*
G75*
G02*
X96730000Y-56650000I-600900J900D01*
G01*
X86930000Y-56650000D02*
G75*
G02*
X86330000Y-56050000I900J600900D01*
G01*
X86330000Y-45290000D02*
G75*
G02*
X86930000Y-44690000I600900J-900D01*
G01*
X100450000Y-60995000D02*
X106950000Y-60995000D01*
X107550000Y-61595000D02*
X107550000Y-65605000D01*
X106950000Y-66205000D02*
X100450000Y-66205000D01*
X99850000Y-65605000D02*
X99850000Y-61595000D01*
X106950000Y-60995000D02*
G75*
G02*
X107550000Y-61595000I-900J-600900D01*
G01*
X107550000Y-65605000D02*
G75*
G02*
X106950000Y-66205000I-600900J900D01*
G01*
X100450000Y-66205000D02*
G75*
G02*
X99850000Y-65605000I900J600900D01*
G01*
X99850000Y-61595000D02*
G75*
G02*
X100450000Y-60995000I600900J-900D01*
G01*
X79550000Y-55125000D02*
X81450000Y-55125000D01*
X82050000Y-55725000D02*
X82050000Y-61075000D01*
X81450000Y-61675000D02*
X79550000Y-61675000D01*
X78950000Y-61075000D02*
X78950000Y-55725000D01*
X81450000Y-55125000D02*
G75*
G02*
X82050000Y-55725000I-900J-600900D01*
G01*
X82050000Y-61075000D02*
G75*
G02*
X81450000Y-61675000I-600900J900D01*
G01*
X79550000Y-61675000D02*
G75*
G02*
X78950000Y-61075000I900J600900D01*
G01*
X78950000Y-55725000D02*
G75*
G02*
X79550000Y-55125000I600900J-900D01*
G01*
X78675000Y-62125000D02*
X82325000Y-62125000D01*
X82925000Y-62725000D02*
X82925000Y-64075000D01*
X82325000Y-64675000D02*
X78675000Y-64675000D01*
X78075000Y-64075000D02*
X78075000Y-62725000D01*
X82325000Y-62125000D02*
G75*
G02*
X82925000Y-62725000I-900J-600900D01*
G01*
X82925000Y-64075000D02*
G75*
G02*
X82325000Y-64675000I-600900J900D01*
G01*
X78675000Y-64675000D02*
G75*
G02*
X78075000Y-64075000I900J600900D01*
G01*
X78075000Y-62725000D02*
G75*
G02*
X78675000Y-62125000I600900J-900D01*
G01*
X41120000Y-64045000D02*
X57660000Y-64045000D01*
X58260000Y-64645000D02*
X58260000Y-65945000D01*
X57660000Y-66545000D02*
X41120000Y-66545000D01*
X40520000Y-65945000D02*
X40520000Y-64645000D01*
X57660000Y-64045000D02*
G75*
G02*
X58260000Y-64645000I-900J-600900D01*
G01*
X58260000Y-65945000D02*
G75*
G02*
X57660000Y-66545000I-600900J900D01*
G01*
X41120000Y-66545000D02*
G75*
G02*
X40520000Y-65945000I900J600900D01*
G01*
X40520000Y-64645000D02*
G75*
G02*
X41120000Y-64045000I600900J-900D01*
G01*
X76590000Y-71380000D02*
X85510000Y-71380000D01*
X86110000Y-71980000D02*
X86110000Y-73280000D01*
X85510000Y-73880000D02*
X76590000Y-73880000D01*
X75990000Y-73280000D02*
X75990000Y-71980000D01*
X85510000Y-71380000D02*
G75*
G02*
X86110000Y-71980000I-900J-600900D01*
G01*
X86110000Y-73280000D02*
G75*
G02*
X85510000Y-73880000I-600900J900D01*
G01*
X76590000Y-73880000D02*
G75*
G02*
X75990000Y-73280000I900J600900D01*
G01*
X75990000Y-71980000D02*
G75*
G02*
X76590000Y-71380000I600900J-900D01*
G01*
X61850000Y-43800000D02*
X69150000Y-43800000D01*
X69750000Y-44400000D02*
X69750000Y-48600000D01*
X69150000Y-49200000D02*
X61850000Y-49200000D01*
X61250000Y-48600000D02*
X61250000Y-44400000D01*
X69150000Y-43800000D02*
G75*
G02*
X69750000Y-44400000I-900J-600900D01*
G01*
X69750000Y-48600000D02*
G75*
G02*
X69150000Y-49200000I-600900J900D01*
G01*
X61850000Y-49200000D02*
G75*
G02*
X61250000Y-48600000I900J600900D01*
G01*
X61250000Y-44400000D02*
G75*
G02*
X61850000Y-43800000I600900J-900D01*
G01*
X110006000Y-58677000D02*
X112298000Y-54708000D01*
X104810000Y-55677000D02*
X107102000Y-51708000D01*
X107102000Y-51708000D02*
G75*
G02*
X112298000Y-54708000I2598000J-1500000D01*
G01*
X96284000Y-60600000D02*
G75*
G02*
X104810000Y-55677000I7417040J-3000890D01*
G01*
X96284000Y-60600000D02*
X91700000Y-60600000D01*
X96284000Y-66600000D02*
X91700000Y-66600000D01*
X91700000Y-66600000D02*
G75*
G02*
X91700000Y-60600000I0J3000000D01*
G01*
X104810000Y-71523000D02*
G75*
G02*
X96284000Y-66600000I-1108960J7923890D01*
G01*
X104810000Y-71523000D02*
X107102000Y-75492000D01*
X110006000Y-68523000D02*
X112298000Y-72492000D01*
X112298000Y-72492000D02*
G75*
G02*
X107102000Y-75492000I-2598000J-1500000D01*
G01*
X110006000Y-58677000D02*
G75*
G02*
X110006000Y-68523000I-6306460J-4923000D01*
G01*
X81400000Y-62525000D02*
X82525000Y-62525000D01*
X82525000Y-62525000D02*
X82525000Y-64275000D01*
X82525000Y-64275000D02*
X81400000Y-64275000D01*
X81400000Y-64275000D02*
X81400000Y-62525000D01*
X78475000Y-62525000D02*
X79600000Y-62525000D01*
X79600000Y-62525000D02*
X79600000Y-64275000D01*
X79600000Y-64275000D02*
X78475000Y-64275000D01*
X78475000Y-64275000D02*
X78475000Y-62525000D01*
X80350000Y-59825000D02*
X80650000Y-59825000D01*
X80650000Y-59825000D02*
X80650000Y-61275000D01*
X80650000Y-61275000D02*
X80350000Y-61275000D01*
X80350000Y-61275000D02*
X80350000Y-59825000D01*
X81350000Y-59825000D02*
X81650000Y-59825000D01*
X81650000Y-59825000D02*
X81650000Y-61275000D01*
X81650000Y-61275000D02*
X81350000Y-61275000D01*
X81350000Y-61275000D02*
X81350000Y-59825000D01*
X81580000Y-62600000D02*
X81500000Y-61400000D01*
X81500000Y-61400000D02*
X81500000Y-61035000D01*
X79420000Y-62600000D02*
X80500000Y-61400000D01*
X80500000Y-61400000D02*
X80500000Y-61035000D01*
X67547618Y-57179819D02*
X66976190Y-57179819D01*
X67261904Y-58179819D02*
X67261904Y-57179819D01*
X66642856Y-58179819D02*
X66642856Y-57179819D01*
X66642856Y-57179819D02*
X66261904Y-57179819D01*
X66261904Y-57179819D02*
X66166666Y-57227438D01*
X66166666Y-57227438D02*
X66119047Y-57275057D01*
X66119047Y-57275057D02*
X66071428Y-57370295D01*
X66071428Y-57370295D02*
X66071428Y-57513152D01*
X66071428Y-57513152D02*
X66119047Y-57608390D01*
X66119047Y-57608390D02*
X66166666Y-57656009D01*
X66166666Y-57656009D02*
X66261904Y-57703628D01*
X66261904Y-57703628D02*
X66642856Y-57703628D01*
X65690475Y-58132200D02*
X65547618Y-58179819D01*
X65547618Y-58179819D02*
X65309523Y-58179819D01*
X65309523Y-58179819D02*
X65214285Y-58132200D01*
X65214285Y-58132200D02*
X65166666Y-58084580D01*
X65166666Y-58084580D02*
X65119047Y-57989342D01*
X65119047Y-57989342D02*
X65119047Y-57894104D01*
X65119047Y-57894104D02*
X65166666Y-57798866D01*
X65166666Y-57798866D02*
X65214285Y-57751247D01*
X65214285Y-57751247D02*
X65309523Y-57703628D01*
X65309523Y-57703628D02*
X65499999Y-57656009D01*
X65499999Y-57656009D02*
X65595237Y-57608390D01*
X65595237Y-57608390D02*
X65642856Y-57560771D01*
X65642856Y-57560771D02*
X65690475Y-57465533D01*
X65690475Y-57465533D02*
X65690475Y-57370295D01*
X65690475Y-57370295D02*
X65642856Y-57275057D01*
X65642856Y-57275057D02*
X65595237Y-57227438D01*
X65595237Y-57227438D02*
X65499999Y-57179819D01*
X65499999Y-57179819D02*
X65261904Y-57179819D01*
X65261904Y-57179819D02*
X65119047Y-57227438D01*
X64261904Y-57179819D02*
X64452380Y-57179819D01*
X64452380Y-57179819D02*
X64547618Y-57227438D01*
X64547618Y-57227438D02*
X64595237Y-57275057D01*
X64595237Y-57275057D02*
X64690475Y-57417914D01*
X64690475Y-57417914D02*
X64738094Y-57608390D01*
X64738094Y-57608390D02*
X64738094Y-57989342D01*
X64738094Y-57989342D02*
X64690475Y-58084580D01*
X64690475Y-58084580D02*
X64642856Y-58132200D01*
X64642856Y-58132200D02*
X64547618Y-58179819D01*
X64547618Y-58179819D02*
X64357142Y-58179819D01*
X64357142Y-58179819D02*
X64261904Y-58132200D01*
X64261904Y-58132200D02*
X64214285Y-58084580D01*
X64214285Y-58084580D02*
X64166666Y-57989342D01*
X64166666Y-57989342D02*
X64166666Y-57751247D01*
X64166666Y-57751247D02*
X64214285Y-57656009D01*
X64214285Y-57656009D02*
X64261904Y-57608390D01*
X64261904Y-57608390D02*
X64357142Y-57560771D01*
X64357142Y-57560771D02*
X64547618Y-57560771D01*
X64547618Y-57560771D02*
X64642856Y-57608390D01*
X64642856Y-57608390D02*
X64690475Y-57656009D01*
X64690475Y-57656009D02*
X64738094Y-57751247D01*
X63214285Y-58179819D02*
X63785713Y-58179819D01*
X63499999Y-58179819D02*
X63499999Y-57179819D01*
X63499999Y-57179819D02*
X63595237Y-57322676D01*
X63595237Y-57322676D02*
X63690475Y-57417914D01*
X63690475Y-57417914D02*
X63785713Y-57465533D01*
X62595237Y-57179819D02*
X62499999Y-57179819D01*
X62499999Y-57179819D02*
X62404761Y-57227438D01*
X62404761Y-57227438D02*
X62357142Y-57275057D01*
X62357142Y-57275057D02*
X62309523Y-57370295D01*
X62309523Y-57370295D02*
X62261904Y-57560771D01*
X62261904Y-57560771D02*
X62261904Y-57798866D01*
X62261904Y-57798866D02*
X62309523Y-57989342D01*
X62309523Y-57989342D02*
X62357142Y-58084580D01*
X62357142Y-58084580D02*
X62404761Y-58132200D01*
X62404761Y-58132200D02*
X62499999Y-58179819D01*
X62499999Y-58179819D02*
X62595237Y-58179819D01*
X62595237Y-58179819D02*
X62690475Y-58132200D01*
X62690475Y-58132200D02*
X62738094Y-58084580D01*
X62738094Y-58084580D02*
X62785713Y-57989342D01*
X62785713Y-57989342D02*
X62833332Y-57798866D01*
X62833332Y-57798866D02*
X62833332Y-57560771D01*
X62833332Y-57560771D02*
X62785713Y-57370295D01*
X62785713Y-57370295D02*
X62738094Y-57275057D01*
X62738094Y-57275057D02*
X62690475Y-57227438D01*
X62690475Y-57227438D02*
X62595237Y-57179819D01*
X61785713Y-58179819D02*
X61595237Y-58179819D01*
X61595237Y-58179819D02*
X61499999Y-58132200D01*
X61499999Y-58132200D02*
X61452380Y-58084580D01*
X61452380Y-58084580D02*
X61357142Y-57941723D01*
X61357142Y-57941723D02*
X61309523Y-57751247D01*
X61309523Y-57751247D02*
X61309523Y-57370295D01*
X61309523Y-57370295D02*
X61357142Y-57275057D01*
X61357142Y-57275057D02*
X61404761Y-57227438D01*
X61404761Y-57227438D02*
X61499999Y-57179819D01*
X61499999Y-57179819D02*
X61690475Y-57179819D01*
X61690475Y-57179819D02*
X61785713Y-57227438D01*
X61785713Y-57227438D02*
X61833332Y-57275057D01*
X61833332Y-57275057D02*
X61880951Y-57370295D01*
X61880951Y-57370295D02*
X61880951Y-57608390D01*
X61880951Y-57608390D02*
X61833332Y-57703628D01*
X61833332Y-57703628D02*
X61785713Y-57751247D01*
X61785713Y-57751247D02*
X61690475Y-57798866D01*
X61690475Y-57798866D02*
X61499999Y-57798866D01*
X61499999Y-57798866D02*
X61404761Y-57751247D01*
X61404761Y-57751247D02*
X61357142Y-57703628D01*
X61357142Y-57703628D02*
X61309523Y-57608390D01*
X60690475Y-57179819D02*
X60595237Y-57179819D01*
X60595237Y-57179819D02*
X60499999Y-57227438D01*
X60499999Y-57227438D02*
X60452380Y-57275057D01*
X60452380Y-57275057D02*
X60404761Y-57370295D01*
X60404761Y-57370295D02*
X60357142Y-57560771D01*
X60357142Y-57560771D02*
X60357142Y-57798866D01*
X60357142Y-57798866D02*
X60404761Y-57989342D01*
X60404761Y-57989342D02*
X60452380Y-58084580D01*
X60452380Y-58084580D02*
X60499999Y-58132200D01*
X60499999Y-58132200D02*
X60595237Y-58179819D01*
X60595237Y-58179819D02*
X60690475Y-58179819D01*
X60690475Y-58179819D02*
X60785713Y-58132200D01*
X60785713Y-58132200D02*
X60833332Y-58084580D01*
X60833332Y-58084580D02*
X60880951Y-57989342D01*
X60880951Y-57989342D02*
X60928570Y-57798866D01*
X60928570Y-57798866D02*
X60928570Y-57560771D01*
X60928570Y-57560771D02*
X60880951Y-57370295D01*
X60880951Y-57370295D02*
X60833332Y-57275057D01*
X60833332Y-57275057D02*
X60785713Y-57227438D01*
X60785713Y-57227438D02*
X60690475Y-57179819D01*
X59357142Y-58179819D02*
X59690475Y-57703628D01*
X59928570Y-58179819D02*
X59928570Y-57179819D01*
X59928570Y-57179819D02*
X59547618Y-57179819D01*
X59547618Y-57179819D02*
X59452380Y-57227438D01*
X59452380Y-57227438D02*
X59404761Y-57275057D01*
X59404761Y-57275057D02*
X59357142Y-57370295D01*
X59357142Y-57370295D02*
X59357142Y-57513152D01*
X59357142Y-57513152D02*
X59404761Y-57608390D01*
X59404761Y-57608390D02*
X59452380Y-57656009D01*
X59452380Y-57656009D02*
X59547618Y-57703628D01*
X59547618Y-57703628D02*
X59928570Y-57703628D01*
X58976189Y-58132200D02*
X58833332Y-58179819D01*
X58833332Y-58179819D02*
X58595237Y-58179819D01*
X58595237Y-58179819D02*
X58499999Y-58132200D01*
X58499999Y-58132200D02*
X58452380Y-58084580D01*
X58452380Y-58084580D02*
X58404761Y-57989342D01*
X58404761Y-57989342D02*
X58404761Y-57894104D01*
X58404761Y-57894104D02*
X58452380Y-57798866D01*
X58452380Y-57798866D02*
X58499999Y-57751247D01*
X58499999Y-57751247D02*
X58595237Y-57703628D01*
X58595237Y-57703628D02*
X58785713Y-57656009D01*
X58785713Y-57656009D02*
X58880951Y-57608390D01*
X58880951Y-57608390D02*
X58928570Y-57560771D01*
X58928570Y-57560771D02*
X58976189Y-57465533D01*
X58976189Y-57465533D02*
X58976189Y-57370295D01*
X58976189Y-57370295D02*
X58928570Y-57275057D01*
X58928570Y-57275057D02*
X58880951Y-57227438D01*
X58880951Y-57227438D02*
X58785713Y-57179819D01*
X58785713Y-57179819D02*
X58547618Y-57179819D01*
X58547618Y-57179819D02*
X58404761Y-57227438D01*
X58023808Y-57894104D02*
X57547618Y-57894104D01*
X58119046Y-58179819D02*
X57785713Y-57179819D01*
X57785713Y-57179819D02*
X57452380Y-58179819D01*
X56547618Y-58179819D02*
X56880951Y-57703628D01*
X57119046Y-58179819D02*
X57119046Y-57179819D01*
X57119046Y-57179819D02*
X56738094Y-57179819D01*
X56738094Y-57179819D02*
X56642856Y-57227438D01*
X56642856Y-57227438D02*
X56595237Y-57275057D01*
X56595237Y-57275057D02*
X56547618Y-57370295D01*
X56547618Y-57370295D02*
X56547618Y-57513152D01*
X56547618Y-57513152D02*
X56595237Y-57608390D01*
X56595237Y-57608390D02*
X56642856Y-57656009D01*
X56642856Y-57656009D02*
X56738094Y-57703628D01*
X56738094Y-57703628D02*
X57119046Y-57703628D01*
X64976190Y-58679819D02*
X65452380Y-58679819D01*
X65452380Y-58679819D02*
X65499999Y-59156009D01*
X65499999Y-59156009D02*
X65452380Y-59108390D01*
X65452380Y-59108390D02*
X65357142Y-59060771D01*
X65357142Y-59060771D02*
X65119047Y-59060771D01*
X65119047Y-59060771D02*
X65023809Y-59108390D01*
X65023809Y-59108390D02*
X64976190Y-59156009D01*
X64976190Y-59156009D02*
X64928571Y-59251247D01*
X64928571Y-59251247D02*
X64928571Y-59489342D01*
X64928571Y-59489342D02*
X64976190Y-59584580D01*
X64976190Y-59584580D02*
X65023809Y-59632200D01*
X65023809Y-59632200D02*
X65119047Y-59679819D01*
X65119047Y-59679819D02*
X65357142Y-59679819D01*
X65357142Y-59679819D02*
X65452380Y-59632200D01*
X65452380Y-59632200D02*
X65499999Y-59584580D01*
X64642856Y-58679819D02*
X64309523Y-59679819D01*
X64309523Y-59679819D02*
X63976190Y-58679819D01*
X62547618Y-59156009D02*
X62404761Y-59203628D01*
X62404761Y-59203628D02*
X62357142Y-59251247D01*
X62357142Y-59251247D02*
X62309523Y-59346485D01*
X62309523Y-59346485D02*
X62309523Y-59489342D01*
X62309523Y-59489342D02*
X62357142Y-59584580D01*
X62357142Y-59584580D02*
X62404761Y-59632200D01*
X62404761Y-59632200D02*
X62499999Y-59679819D01*
X62499999Y-59679819D02*
X62880951Y-59679819D01*
X62880951Y-59679819D02*
X62880951Y-58679819D01*
X62880951Y-58679819D02*
X62547618Y-58679819D01*
X62547618Y-58679819D02*
X62452380Y-58727438D01*
X62452380Y-58727438D02*
X62404761Y-58775057D01*
X62404761Y-58775057D02*
X62357142Y-58870295D01*
X62357142Y-58870295D02*
X62357142Y-58965533D01*
X62357142Y-58965533D02*
X62404761Y-59060771D01*
X62404761Y-59060771D02*
X62452380Y-59108390D01*
X62452380Y-59108390D02*
X62547618Y-59156009D01*
X62547618Y-59156009D02*
X62880951Y-59156009D01*
X61690475Y-58679819D02*
X61499999Y-58679819D01*
X61499999Y-58679819D02*
X61404761Y-58727438D01*
X61404761Y-58727438D02*
X61309523Y-58822676D01*
X61309523Y-58822676D02*
X61261904Y-59013152D01*
X61261904Y-59013152D02*
X61261904Y-59346485D01*
X61261904Y-59346485D02*
X61309523Y-59536961D01*
X61309523Y-59536961D02*
X61404761Y-59632200D01*
X61404761Y-59632200D02*
X61499999Y-59679819D01*
X61499999Y-59679819D02*
X61690475Y-59679819D01*
X61690475Y-59679819D02*
X61785713Y-59632200D01*
X61785713Y-59632200D02*
X61880951Y-59536961D01*
X61880951Y-59536961D02*
X61928570Y-59346485D01*
X61928570Y-59346485D02*
X61928570Y-59013152D01*
X61928570Y-59013152D02*
X61880951Y-58822676D01*
X61880951Y-58822676D02*
X61785713Y-58727438D01*
X61785713Y-58727438D02*
X61690475Y-58679819D01*
X60642856Y-58679819D02*
X60452380Y-58679819D01*
X60452380Y-58679819D02*
X60357142Y-58727438D01*
X60357142Y-58727438D02*
X60261904Y-58822676D01*
X60261904Y-58822676D02*
X60214285Y-59013152D01*
X60214285Y-59013152D02*
X60214285Y-59346485D01*
X60214285Y-59346485D02*
X60261904Y-59536961D01*
X60261904Y-59536961D02*
X60357142Y-59632200D01*
X60357142Y-59632200D02*
X60452380Y-59679819D01*
X60452380Y-59679819D02*
X60642856Y-59679819D01*
X60642856Y-59679819D02*
X60738094Y-59632200D01*
X60738094Y-59632200D02*
X60833332Y-59536961D01*
X60833332Y-59536961D02*
X60880951Y-59346485D01*
X60880951Y-59346485D02*
X60880951Y-59013152D01*
X60880951Y-59013152D02*
X60833332Y-58822676D01*
X60833332Y-58822676D02*
X60738094Y-58727438D01*
X60738094Y-58727438D02*
X60642856Y-58679819D01*
X59833332Y-59632200D02*
X59690475Y-59679819D01*
X59690475Y-59679819D02*
X59452380Y-59679819D01*
X59452380Y-59679819D02*
X59357142Y-59632200D01*
X59357142Y-59632200D02*
X59309523Y-59584580D01*
X59309523Y-59584580D02*
X59261904Y-59489342D01*
X59261904Y-59489342D02*
X59261904Y-59394104D01*
X59261904Y-59394104D02*
X59309523Y-59298866D01*
X59309523Y-59298866D02*
X59357142Y-59251247D01*
X59357142Y-59251247D02*
X59452380Y-59203628D01*
X59452380Y-59203628D02*
X59642856Y-59156009D01*
X59642856Y-59156009D02*
X59738094Y-59108390D01*
X59738094Y-59108390D02*
X59785713Y-59060771D01*
X59785713Y-59060771D02*
X59833332Y-58965533D01*
X59833332Y-58965533D02*
X59833332Y-58870295D01*
X59833332Y-58870295D02*
X59785713Y-58775057D01*
X59785713Y-58775057D02*
X59738094Y-58727438D01*
X59738094Y-58727438D02*
X59642856Y-58679819D01*
X59642856Y-58679819D02*
X59404761Y-58679819D01*
X59404761Y-58679819D02*
X59261904Y-58727438D01*
X58976189Y-58679819D02*
X58404761Y-58679819D01*
X58690475Y-59679819D02*
X58690475Y-58679819D01*
X81047618Y-66404819D02*
X81047618Y-65404819D01*
X81047618Y-65404819D02*
X80714285Y-66119104D01*
X80714285Y-66119104D02*
X80380952Y-65404819D01*
X80380952Y-65404819D02*
X80380952Y-66404819D01*
X79333333Y-66309580D02*
X79380952Y-66357200D01*
X79380952Y-66357200D02*
X79523809Y-66404819D01*
X79523809Y-66404819D02*
X79619047Y-66404819D01*
X79619047Y-66404819D02*
X79761904Y-66357200D01*
X79761904Y-66357200D02*
X79857142Y-66261961D01*
X79857142Y-66261961D02*
X79904761Y-66166723D01*
X79904761Y-66166723D02*
X79952380Y-65976247D01*
X79952380Y-65976247D02*
X79952380Y-65833390D01*
X79952380Y-65833390D02*
X79904761Y-65642914D01*
X79904761Y-65642914D02*
X79857142Y-65547676D01*
X79857142Y-65547676D02*
X79761904Y-65452438D01*
X79761904Y-65452438D02*
X79619047Y-65404819D01*
X79619047Y-65404819D02*
X79523809Y-65404819D01*
X79523809Y-65404819D02*
X79380952Y-65452438D01*
X79380952Y-65452438D02*
X79333333Y-65500057D01*
X78904761Y-66404819D02*
X78904761Y-65404819D01*
X78904761Y-65404819D02*
X78523809Y-65404819D01*
X78523809Y-65404819D02*
X78428571Y-65452438D01*
X78428571Y-65452438D02*
X78380952Y-65500057D01*
X78380952Y-65500057D02*
X78333333Y-65595295D01*
X78333333Y-65595295D02*
X78333333Y-65738152D01*
X78333333Y-65738152D02*
X78380952Y-65833390D01*
X78380952Y-65833390D02*
X78428571Y-65881009D01*
X78428571Y-65881009D02*
X78523809Y-65928628D01*
X78523809Y-65928628D02*
X78904761Y-65928628D01*
X77999999Y-65404819D02*
X77333333Y-65404819D01*
X77333333Y-65404819D02*
X77761904Y-66404819D01*
X77047618Y-65404819D02*
X76428571Y-65404819D01*
X76428571Y-65404819D02*
X76761904Y-65785771D01*
X76761904Y-65785771D02*
X76619047Y-65785771D01*
X76619047Y-65785771D02*
X76523809Y-65833390D01*
X76523809Y-65833390D02*
X76476190Y-65881009D01*
X76476190Y-65881009D02*
X76428571Y-65976247D01*
X76428571Y-65976247D02*
X76428571Y-66214342D01*
X76428571Y-66214342D02*
X76476190Y-66309580D01*
X76476190Y-66309580D02*
X76523809Y-66357200D01*
X76523809Y-66357200D02*
X76619047Y-66404819D01*
X76619047Y-66404819D02*
X76904761Y-66404819D01*
X76904761Y-66404819D02*
X76999999Y-66357200D01*
X76999999Y-66357200D02*
X77047618Y-66309580D01*
X75857142Y-65833390D02*
X75952380Y-65785771D01*
X75952380Y-65785771D02*
X75999999Y-65738152D01*
X75999999Y-65738152D02*
X76047618Y-65642914D01*
X76047618Y-65642914D02*
X76047618Y-65595295D01*
X76047618Y-65595295D02*
X75999999Y-65500057D01*
X75999999Y-65500057D02*
X75952380Y-65452438D01*
X75952380Y-65452438D02*
X75857142Y-65404819D01*
X75857142Y-65404819D02*
X75666666Y-65404819D01*
X75666666Y-65404819D02*
X75571428Y-65452438D01*
X75571428Y-65452438D02*
X75523809Y-65500057D01*
X75523809Y-65500057D02*
X75476190Y-65595295D01*
X75476190Y-65595295D02*
X75476190Y-65642914D01*
X75476190Y-65642914D02*
X75523809Y-65738152D01*
X75523809Y-65738152D02*
X75571428Y-65785771D01*
X75571428Y-65785771D02*
X75666666Y-65833390D01*
X75666666Y-65833390D02*
X75857142Y-65833390D01*
X75857142Y-65833390D02*
X75952380Y-65881009D01*
X75952380Y-65881009D02*
X75999999Y-65928628D01*
X75999999Y-65928628D02*
X76047618Y-66023866D01*
X76047618Y-66023866D02*
X76047618Y-66214342D01*
X76047618Y-66214342D02*
X75999999Y-66309580D01*
X75999999Y-66309580D02*
X75952380Y-66357200D01*
X75952380Y-66357200D02*
X75857142Y-66404819D01*
X75857142Y-66404819D02*
X75666666Y-66404819D01*
X75666666Y-66404819D02*
X75571428Y-66357200D01*
X75571428Y-66357200D02*
X75523809Y-66309580D01*
X75523809Y-66309580D02*
X75476190Y-66214342D01*
X75476190Y-66214342D02*
X75476190Y-66023866D01*
X75476190Y-66023866D02*
X75523809Y-65928628D01*
X75523809Y-65928628D02*
X75571428Y-65881009D01*
X75571428Y-65881009D02*
X75666666Y-65833390D01*
X75142856Y-65404819D02*
X74476190Y-65404819D01*
X74476190Y-65404819D02*
X74904761Y-66404819D01*
X73571428Y-66404819D02*
X74142856Y-66404819D01*
X73857142Y-66404819D02*
X73857142Y-65404819D01*
X73857142Y-65404819D02*
X73952380Y-65547676D01*
X73952380Y-65547676D02*
X74047618Y-65642914D01*
X74047618Y-65642914D02*
X74142856Y-65690533D01*
X73142856Y-66023866D02*
X72380952Y-66023866D01*
X71952380Y-65500057D02*
X71904761Y-65452438D01*
X71904761Y-65452438D02*
X71809523Y-65404819D01*
X71809523Y-65404819D02*
X71571428Y-65404819D01*
X71571428Y-65404819D02*
X71476190Y-65452438D01*
X71476190Y-65452438D02*
X71428571Y-65500057D01*
X71428571Y-65500057D02*
X71380952Y-65595295D01*
X71380952Y-65595295D02*
X71380952Y-65690533D01*
X71380952Y-65690533D02*
X71428571Y-65833390D01*
X71428571Y-65833390D02*
X71999999Y-66404819D01*
X71999999Y-66404819D02*
X71380952Y-66404819D01*
X70380952Y-66309580D02*
X70428571Y-66357200D01*
X70428571Y-66357200D02*
X70571428Y-66404819D01*
X70571428Y-66404819D02*
X70666666Y-66404819D01*
X70666666Y-66404819D02*
X70809523Y-66357200D01*
X70809523Y-66357200D02*
X70904761Y-66261961D01*
X70904761Y-66261961D02*
X70952380Y-66166723D01*
X70952380Y-66166723D02*
X70999999Y-65976247D01*
X70999999Y-65976247D02*
X70999999Y-65833390D01*
X70999999Y-65833390D02*
X70952380Y-65642914D01*
X70952380Y-65642914D02*
X70904761Y-65547676D01*
X70904761Y-65547676D02*
X70809523Y-65452438D01*
X70809523Y-65452438D02*
X70666666Y-65404819D01*
X70666666Y-65404819D02*
X70571428Y-65404819D01*
X70571428Y-65404819D02*
X70428571Y-65452438D01*
X70428571Y-65452438D02*
X70380952Y-65500057D01*
X69380952Y-66309580D02*
X69428571Y-66357200D01*
X69428571Y-66357200D02*
X69571428Y-66404819D01*
X69571428Y-66404819D02*
X69666666Y-66404819D01*
X69666666Y-66404819D02*
X69809523Y-66357200D01*
X69809523Y-66357200D02*
X69904761Y-66261961D01*
X69904761Y-66261961D02*
X69952380Y-66166723D01*
X69952380Y-66166723D02*
X69999999Y-65976247D01*
X69999999Y-65976247D02*
X69999999Y-65833390D01*
X69999999Y-65833390D02*
X69952380Y-65642914D01*
X69952380Y-65642914D02*
X69904761Y-65547676D01*
X69904761Y-65547676D02*
X69809523Y-65452438D01*
X69809523Y-65452438D02*
X69666666Y-65404819D01*
X69666666Y-65404819D02*
X69571428Y-65404819D01*
X69571428Y-65404819D02*
X69428571Y-65452438D01*
X69428571Y-65452438D02*
X69380952Y-65500057D01*
X68952380Y-66404819D02*
X68952380Y-65404819D01*
X67761905Y-65357200D02*
X68619047Y-66642914D01*
X67428571Y-66404819D02*
X67428571Y-65404819D01*
X67428571Y-65404819D02*
X67095238Y-66119104D01*
X67095238Y-66119104D02*
X66761905Y-65404819D01*
X66761905Y-65404819D02*
X66761905Y-66404819D01*
X65809524Y-66404819D02*
X66285714Y-66404819D01*
X66285714Y-66404819D02*
X66285714Y-65404819D01*
X78238095Y-67904819D02*
X78714285Y-67904819D01*
X78714285Y-67904819D02*
X78714285Y-66904819D01*
X77904761Y-67904819D02*
X77904761Y-66904819D01*
X77428571Y-67904819D02*
X77428571Y-66904819D01*
X77428571Y-66904819D02*
X77047619Y-66904819D01*
X77047619Y-66904819D02*
X76952381Y-66952438D01*
X76952381Y-66952438D02*
X76904762Y-67000057D01*
X76904762Y-67000057D02*
X76857143Y-67095295D01*
X76857143Y-67095295D02*
X76857143Y-67238152D01*
X76857143Y-67238152D02*
X76904762Y-67333390D01*
X76904762Y-67333390D02*
X76952381Y-67381009D01*
X76952381Y-67381009D02*
X77047619Y-67428628D01*
X77047619Y-67428628D02*
X77428571Y-67428628D01*
X76238095Y-66904819D02*
X76047619Y-66904819D01*
X76047619Y-66904819D02*
X75952381Y-66952438D01*
X75952381Y-66952438D02*
X75857143Y-67047676D01*
X75857143Y-67047676D02*
X75809524Y-67238152D01*
X75809524Y-67238152D02*
X75809524Y-67571485D01*
X75809524Y-67571485D02*
X75857143Y-67761961D01*
X75857143Y-67761961D02*
X75952381Y-67857200D01*
X75952381Y-67857200D02*
X76047619Y-67904819D01*
X76047619Y-67904819D02*
X76238095Y-67904819D01*
X76238095Y-67904819D02*
X76333333Y-67857200D01*
X76333333Y-67857200D02*
X76428571Y-67761961D01*
X76428571Y-67761961D02*
X76476190Y-67571485D01*
X76476190Y-67571485D02*
X76476190Y-67238152D01*
X76476190Y-67238152D02*
X76428571Y-67047676D01*
X76428571Y-67047676D02*
X76333333Y-66952438D01*
X76333333Y-66952438D02*
X76238095Y-66904819D01*
X74047619Y-67809580D02*
X74095238Y-67857200D01*
X74095238Y-67857200D02*
X74238095Y-67904819D01*
X74238095Y-67904819D02*
X74333333Y-67904819D01*
X74333333Y-67904819D02*
X74476190Y-67857200D01*
X74476190Y-67857200D02*
X74571428Y-67761961D01*
X74571428Y-67761961D02*
X74619047Y-67666723D01*
X74619047Y-67666723D02*
X74666666Y-67476247D01*
X74666666Y-67476247D02*
X74666666Y-67333390D01*
X74666666Y-67333390D02*
X74619047Y-67142914D01*
X74619047Y-67142914D02*
X74571428Y-67047676D01*
X74571428Y-67047676D02*
X74476190Y-66952438D01*
X74476190Y-66952438D02*
X74333333Y-66904819D01*
X74333333Y-66904819D02*
X74238095Y-66904819D01*
X74238095Y-66904819D02*
X74095238Y-66952438D01*
X74095238Y-66952438D02*
X74047619Y-67000057D01*
X73619047Y-67904819D02*
X73619047Y-66904819D01*
X73619047Y-67381009D02*
X73047619Y-67381009D01*
X73047619Y-67904819D02*
X73047619Y-66904819D01*
X72619047Y-67619104D02*
X72142857Y-67619104D01*
X72714285Y-67904819D02*
X72380952Y-66904819D01*
X72380952Y-66904819D02*
X72047619Y-67904819D01*
X71142857Y-67904819D02*
X71476190Y-67428628D01*
X71714285Y-67904819D02*
X71714285Y-66904819D01*
X71714285Y-66904819D02*
X71333333Y-66904819D01*
X71333333Y-66904819D02*
X71238095Y-66952438D01*
X71238095Y-66952438D02*
X71190476Y-67000057D01*
X71190476Y-67000057D02*
X71142857Y-67095295D01*
X71142857Y-67095295D02*
X71142857Y-67238152D01*
X71142857Y-67238152D02*
X71190476Y-67333390D01*
X71190476Y-67333390D02*
X71238095Y-67381009D01*
X71238095Y-67381009D02*
X71333333Y-67428628D01*
X71333333Y-67428628D02*
X71714285Y-67428628D01*
X70190476Y-66952438D02*
X70285714Y-66904819D01*
X70285714Y-66904819D02*
X70428571Y-66904819D01*
X70428571Y-66904819D02*
X70571428Y-66952438D01*
X70571428Y-66952438D02*
X70666666Y-67047676D01*
X70666666Y-67047676D02*
X70714285Y-67142914D01*
X70714285Y-67142914D02*
X70761904Y-67333390D01*
X70761904Y-67333390D02*
X70761904Y-67476247D01*
X70761904Y-67476247D02*
X70714285Y-67666723D01*
X70714285Y-67666723D02*
X70666666Y-67761961D01*
X70666666Y-67761961D02*
X70571428Y-67857200D01*
X70571428Y-67857200D02*
X70428571Y-67904819D01*
X70428571Y-67904819D02*
X70333333Y-67904819D01*
X70333333Y-67904819D02*
X70190476Y-67857200D01*
X70190476Y-67857200D02*
X70142857Y-67809580D01*
X70142857Y-67809580D02*
X70142857Y-67476247D01*
X70142857Y-67476247D02*
X70333333Y-67476247D01*
X69714285Y-67381009D02*
X69380952Y-67381009D01*
X69238095Y-67904819D02*
X69714285Y-67904819D01*
X69714285Y-67904819D02*
X69714285Y-66904819D01*
X69714285Y-66904819D02*
X69238095Y-66904819D01*
X68238095Y-67904819D02*
X68571428Y-67428628D01*
X68809523Y-67904819D02*
X68809523Y-66904819D01*
X68809523Y-66904819D02*
X68428571Y-66904819D01*
X68428571Y-66904819D02*
X68333333Y-66952438D01*
X68333333Y-66952438D02*
X68285714Y-67000057D01*
X68285714Y-67000057D02*
X68238095Y-67095295D01*
X68238095Y-67095295D02*
X68238095Y-67238152D01*
X68238095Y-67238152D02*
X68285714Y-67333390D01*
X68285714Y-67333390D02*
X68333333Y-67381009D01*
X68333333Y-67381009D02*
X68428571Y-67428628D01*
X68428571Y-67428628D02*
X68809523Y-67428628D01*
X95901428Y-41592438D02*
X95996666Y-41544819D01*
X95996666Y-41544819D02*
X96139523Y-41544819D01*
X96139523Y-41544819D02*
X96282380Y-41592438D01*
X96282380Y-41592438D02*
X96377618Y-41687676D01*
X96377618Y-41687676D02*
X96425237Y-41782914D01*
X96425237Y-41782914D02*
X96472856Y-41973390D01*
X96472856Y-41973390D02*
X96472856Y-42116247D01*
X96472856Y-42116247D02*
X96425237Y-42306723D01*
X96425237Y-42306723D02*
X96377618Y-42401961D01*
X96377618Y-42401961D02*
X96282380Y-42497200D01*
X96282380Y-42497200D02*
X96139523Y-42544819D01*
X96139523Y-42544819D02*
X96044285Y-42544819D01*
X96044285Y-42544819D02*
X95901428Y-42497200D01*
X95901428Y-42497200D02*
X95853809Y-42449580D01*
X95853809Y-42449580D02*
X95853809Y-42116247D01*
X95853809Y-42116247D02*
X96044285Y-42116247D01*
X94996666Y-41544819D02*
X95187142Y-41544819D01*
X95187142Y-41544819D02*
X95282380Y-41592438D01*
X95282380Y-41592438D02*
X95329999Y-41640057D01*
X95329999Y-41640057D02*
X95425237Y-41782914D01*
X95425237Y-41782914D02*
X95472856Y-41973390D01*
X95472856Y-41973390D02*
X95472856Y-42354342D01*
X95472856Y-42354342D02*
X95425237Y-42449580D01*
X95425237Y-42449580D02*
X95377618Y-42497200D01*
X95377618Y-42497200D02*
X95282380Y-42544819D01*
X95282380Y-42544819D02*
X95091904Y-42544819D01*
X95091904Y-42544819D02*
X94996666Y-42497200D01*
X94996666Y-42497200D02*
X94949047Y-42449580D01*
X94949047Y-42449580D02*
X94901428Y-42354342D01*
X94901428Y-42354342D02*
X94901428Y-42116247D01*
X94901428Y-42116247D02*
X94949047Y-42021009D01*
X94949047Y-42021009D02*
X94996666Y-41973390D01*
X94996666Y-41973390D02*
X95091904Y-41925771D01*
X95091904Y-41925771D02*
X95282380Y-41925771D01*
X95282380Y-41925771D02*
X95377618Y-41973390D01*
X95377618Y-41973390D02*
X95425237Y-42021009D01*
X95425237Y-42021009D02*
X95472856Y-42116247D01*
X94520475Y-42497200D02*
X94377618Y-42544819D01*
X94377618Y-42544819D02*
X94139523Y-42544819D01*
X94139523Y-42544819D02*
X94044285Y-42497200D01*
X94044285Y-42497200D02*
X93996666Y-42449580D01*
X93996666Y-42449580D02*
X93949047Y-42354342D01*
X93949047Y-42354342D02*
X93949047Y-42259104D01*
X93949047Y-42259104D02*
X93996666Y-42163866D01*
X93996666Y-42163866D02*
X94044285Y-42116247D01*
X94044285Y-42116247D02*
X94139523Y-42068628D01*
X94139523Y-42068628D02*
X94329999Y-42021009D01*
X94329999Y-42021009D02*
X94425237Y-41973390D01*
X94425237Y-41973390D02*
X94472856Y-41925771D01*
X94472856Y-41925771D02*
X94520475Y-41830533D01*
X94520475Y-41830533D02*
X94520475Y-41735295D01*
X94520475Y-41735295D02*
X94472856Y-41640057D01*
X94472856Y-41640057D02*
X94425237Y-41592438D01*
X94425237Y-41592438D02*
X94329999Y-41544819D01*
X94329999Y-41544819D02*
X94091904Y-41544819D01*
X94091904Y-41544819D02*
X93949047Y-41592438D01*
X93520475Y-42163866D02*
X92758571Y-42163866D01*
X92329999Y-41640057D02*
X92282380Y-41592438D01*
X92282380Y-41592438D02*
X92187142Y-41544819D01*
X92187142Y-41544819D02*
X91949047Y-41544819D01*
X91949047Y-41544819D02*
X91853809Y-41592438D01*
X91853809Y-41592438D02*
X91806190Y-41640057D01*
X91806190Y-41640057D02*
X91758571Y-41735295D01*
X91758571Y-41735295D02*
X91758571Y-41830533D01*
X91758571Y-41830533D02*
X91806190Y-41973390D01*
X91806190Y-41973390D02*
X92377618Y-42544819D01*
X92377618Y-42544819D02*
X91758571Y-42544819D01*
X90996666Y-42021009D02*
X91329999Y-42021009D01*
X91329999Y-42544819D02*
X91329999Y-41544819D01*
X91329999Y-41544819D02*
X90853809Y-41544819D01*
X89710951Y-42544819D02*
X89710951Y-41544819D01*
X89710951Y-41544819D02*
X89472856Y-41544819D01*
X89472856Y-41544819D02*
X89329999Y-41592438D01*
X89329999Y-41592438D02*
X89234761Y-41687676D01*
X89234761Y-41687676D02*
X89187142Y-41782914D01*
X89187142Y-41782914D02*
X89139523Y-41973390D01*
X89139523Y-41973390D02*
X89139523Y-42116247D01*
X89139523Y-42116247D02*
X89187142Y-42306723D01*
X89187142Y-42306723D02*
X89234761Y-42401961D01*
X89234761Y-42401961D02*
X89329999Y-42497200D01*
X89329999Y-42497200D02*
X89472856Y-42544819D01*
X89472856Y-42544819D02*
X89710951Y-42544819D01*
X88139523Y-42449580D02*
X88187142Y-42497200D01*
X88187142Y-42497200D02*
X88329999Y-42544819D01*
X88329999Y-42544819D02*
X88425237Y-42544819D01*
X88425237Y-42544819D02*
X88568094Y-42497200D01*
X88568094Y-42497200D02*
X88663332Y-42401961D01*
X88663332Y-42401961D02*
X88710951Y-42306723D01*
X88710951Y-42306723D02*
X88758570Y-42116247D01*
X88758570Y-42116247D02*
X88758570Y-41973390D01*
X88758570Y-41973390D02*
X88710951Y-41782914D01*
X88710951Y-41782914D02*
X88663332Y-41687676D01*
X88663332Y-41687676D02*
X88568094Y-41592438D01*
X88568094Y-41592438D02*
X88425237Y-41544819D01*
X88425237Y-41544819D02*
X88329999Y-41544819D01*
X88329999Y-41544819D02*
X88187142Y-41592438D01*
X88187142Y-41592438D02*
X88139523Y-41640057D01*
X87234761Y-41544819D02*
X87710951Y-41544819D01*
X87710951Y-41544819D02*
X87758570Y-42021009D01*
X87758570Y-42021009D02*
X87710951Y-41973390D01*
X87710951Y-41973390D02*
X87615713Y-41925771D01*
X87615713Y-41925771D02*
X87377618Y-41925771D01*
X87377618Y-41925771D02*
X87282380Y-41973390D01*
X87282380Y-41973390D02*
X87234761Y-42021009D01*
X87234761Y-42021009D02*
X87187142Y-42116247D01*
X87187142Y-42116247D02*
X87187142Y-42354342D01*
X87187142Y-42354342D02*
X87234761Y-42449580D01*
X87234761Y-42449580D02*
X87282380Y-42497200D01*
X87282380Y-42497200D02*
X87377618Y-42544819D01*
X87377618Y-42544819D02*
X87615713Y-42544819D01*
X87615713Y-42544819D02*
X87710951Y-42497200D01*
X87710951Y-42497200D02*
X87758570Y-42449580D01*
X96115714Y-44044819D02*
X96115714Y-43044819D01*
X96115714Y-43044819D02*
X95782381Y-43759104D01*
X95782381Y-43759104D02*
X95449048Y-43044819D01*
X95449048Y-43044819D02*
X95449048Y-44044819D01*
X94972857Y-43044819D02*
X94972857Y-43854342D01*
X94972857Y-43854342D02*
X94925238Y-43949580D01*
X94925238Y-43949580D02*
X94877619Y-43997200D01*
X94877619Y-43997200D02*
X94782381Y-44044819D01*
X94782381Y-44044819D02*
X94591905Y-44044819D01*
X94591905Y-44044819D02*
X94496667Y-43997200D01*
X94496667Y-43997200D02*
X94449048Y-43949580D01*
X94449048Y-43949580D02*
X94401429Y-43854342D01*
X94401429Y-43854342D02*
X94401429Y-43044819D01*
X94068095Y-43044819D02*
X93496667Y-43044819D01*
X93782381Y-44044819D02*
X93782381Y-43044819D01*
X93163333Y-43521009D02*
X92830000Y-43521009D01*
X92687143Y-44044819D02*
X93163333Y-44044819D01*
X93163333Y-44044819D02*
X93163333Y-43044819D01*
X93163333Y-43044819D02*
X92687143Y-43044819D01*
X90925238Y-44044819D02*
X91258571Y-43568628D01*
X91496666Y-44044819D02*
X91496666Y-43044819D01*
X91496666Y-43044819D02*
X91115714Y-43044819D01*
X91115714Y-43044819D02*
X91020476Y-43092438D01*
X91020476Y-43092438D02*
X90972857Y-43140057D01*
X90972857Y-43140057D02*
X90925238Y-43235295D01*
X90925238Y-43235295D02*
X90925238Y-43378152D01*
X90925238Y-43378152D02*
X90972857Y-43473390D01*
X90972857Y-43473390D02*
X91020476Y-43521009D01*
X91020476Y-43521009D02*
X91115714Y-43568628D01*
X91115714Y-43568628D02*
X91496666Y-43568628D01*
X90496666Y-43521009D02*
X90163333Y-43521009D01*
X90020476Y-44044819D02*
X90496666Y-44044819D01*
X90496666Y-44044819D02*
X90496666Y-43044819D01*
X90496666Y-43044819D02*
X90020476Y-43044819D01*
X89115714Y-44044819D02*
X89591904Y-44044819D01*
X89591904Y-44044819D02*
X89591904Y-43044819D01*
X88829999Y-43759104D02*
X88353809Y-43759104D01*
X88925237Y-44044819D02*
X88591904Y-43044819D01*
X88591904Y-43044819D02*
X88258571Y-44044819D01*
X87734761Y-43568628D02*
X87734761Y-44044819D01*
X88068094Y-43044819D02*
X87734761Y-43568628D01*
X87734761Y-43568628D02*
X87401428Y-43044819D01*
X103547618Y-73019104D02*
X103071428Y-73019104D01*
X103642856Y-73304819D02*
X103309523Y-72304819D01*
X103309523Y-72304819D02*
X102976190Y-73304819D01*
X102690475Y-73257200D02*
X102547618Y-73304819D01*
X102547618Y-73304819D02*
X102309523Y-73304819D01*
X102309523Y-73304819D02*
X102214285Y-73257200D01*
X102214285Y-73257200D02*
X102166666Y-73209580D01*
X102166666Y-73209580D02*
X102119047Y-73114342D01*
X102119047Y-73114342D02*
X102119047Y-73019104D01*
X102119047Y-73019104D02*
X102166666Y-72923866D01*
X102166666Y-72923866D02*
X102214285Y-72876247D01*
X102214285Y-72876247D02*
X102309523Y-72828628D01*
X102309523Y-72828628D02*
X102499999Y-72781009D01*
X102499999Y-72781009D02*
X102595237Y-72733390D01*
X102595237Y-72733390D02*
X102642856Y-72685771D01*
X102642856Y-72685771D02*
X102690475Y-72590533D01*
X102690475Y-72590533D02*
X102690475Y-72495295D01*
X102690475Y-72495295D02*
X102642856Y-72400057D01*
X102642856Y-72400057D02*
X102595237Y-72352438D01*
X102595237Y-72352438D02*
X102499999Y-72304819D01*
X102499999Y-72304819D02*
X102261904Y-72304819D01*
X102261904Y-72304819D02*
X102119047Y-72352438D01*
X101214285Y-72304819D02*
X101690475Y-72304819D01*
X101690475Y-72304819D02*
X101738094Y-72781009D01*
X101738094Y-72781009D02*
X101690475Y-72733390D01*
X101690475Y-72733390D02*
X101595237Y-72685771D01*
X101595237Y-72685771D02*
X101357142Y-72685771D01*
X101357142Y-72685771D02*
X101261904Y-72733390D01*
X101261904Y-72733390D02*
X101214285Y-72781009D01*
X101214285Y-72781009D02*
X101166666Y-72876247D01*
X101166666Y-72876247D02*
X101166666Y-73114342D01*
X101166666Y-73114342D02*
X101214285Y-73209580D01*
X101214285Y-73209580D02*
X101261904Y-73257200D01*
X101261904Y-73257200D02*
X101357142Y-73304819D01*
X101357142Y-73304819D02*
X101595237Y-73304819D01*
X101595237Y-73304819D02*
X101690475Y-73257200D01*
X101690475Y-73257200D02*
X101738094Y-73209580D01*
X100309523Y-72304819D02*
X100499999Y-72304819D01*
X100499999Y-72304819D02*
X100595237Y-72352438D01*
X100595237Y-72352438D02*
X100642856Y-72400057D01*
X100642856Y-72400057D02*
X100738094Y-72542914D01*
X100738094Y-72542914D02*
X100785713Y-72733390D01*
X100785713Y-72733390D02*
X100785713Y-73114342D01*
X100785713Y-73114342D02*
X100738094Y-73209580D01*
X100738094Y-73209580D02*
X100690475Y-73257200D01*
X100690475Y-73257200D02*
X100595237Y-73304819D01*
X100595237Y-73304819D02*
X100404761Y-73304819D01*
X100404761Y-73304819D02*
X100309523Y-73257200D01*
X100309523Y-73257200D02*
X100261904Y-73209580D01*
X100261904Y-73209580D02*
X100214285Y-73114342D01*
X100214285Y-73114342D02*
X100214285Y-72876247D01*
X100214285Y-72876247D02*
X100261904Y-72781009D01*
X100261904Y-72781009D02*
X100309523Y-72733390D01*
X100309523Y-72733390D02*
X100404761Y-72685771D01*
X100404761Y-72685771D02*
X100595237Y-72685771D01*
X100595237Y-72685771D02*
X100690475Y-72733390D01*
X100690475Y-72733390D02*
X100738094Y-72781009D01*
X100738094Y-72781009D02*
X100785713Y-72876247D01*
X99595237Y-72304819D02*
X99499999Y-72304819D01*
X99499999Y-72304819D02*
X99404761Y-72352438D01*
X99404761Y-72352438D02*
X99357142Y-72400057D01*
X99357142Y-72400057D02*
X99309523Y-72495295D01*
X99309523Y-72495295D02*
X99261904Y-72685771D01*
X99261904Y-72685771D02*
X99261904Y-72923866D01*
X99261904Y-72923866D02*
X99309523Y-73114342D01*
X99309523Y-73114342D02*
X99357142Y-73209580D01*
X99357142Y-73209580D02*
X99404761Y-73257200D01*
X99404761Y-73257200D02*
X99499999Y-73304819D01*
X99499999Y-73304819D02*
X99595237Y-73304819D01*
X99595237Y-73304819D02*
X99690475Y-73257200D01*
X99690475Y-73257200D02*
X99738094Y-73209580D01*
X99738094Y-73209580D02*
X99785713Y-73114342D01*
X99785713Y-73114342D02*
X99833332Y-72923866D01*
X99833332Y-72923866D02*
X99833332Y-72685771D01*
X99833332Y-72685771D02*
X99785713Y-72495295D01*
X99785713Y-72495295D02*
X99738094Y-72400057D01*
X99738094Y-72400057D02*
X99690475Y-72352438D01*
X99690475Y-72352438D02*
X99595237Y-72304819D01*
X98642856Y-72304819D02*
X98547618Y-72304819D01*
X98547618Y-72304819D02*
X98452380Y-72352438D01*
X98452380Y-72352438D02*
X98404761Y-72400057D01*
X98404761Y-72400057D02*
X98357142Y-72495295D01*
X98357142Y-72495295D02*
X98309523Y-72685771D01*
X98309523Y-72685771D02*
X98309523Y-72923866D01*
X98309523Y-72923866D02*
X98357142Y-73114342D01*
X98357142Y-73114342D02*
X98404761Y-73209580D01*
X98404761Y-73209580D02*
X98452380Y-73257200D01*
X98452380Y-73257200D02*
X98547618Y-73304819D01*
X98547618Y-73304819D02*
X98642856Y-73304819D01*
X98642856Y-73304819D02*
X98738094Y-73257200D01*
X98738094Y-73257200D02*
X98785713Y-73209580D01*
X98785713Y-73209580D02*
X98833332Y-73114342D01*
X98833332Y-73114342D02*
X98880951Y-72923866D01*
X98880951Y-72923866D02*
X98880951Y-72685771D01*
X98880951Y-72685771D02*
X98833332Y-72495295D01*
X98833332Y-72495295D02*
X98785713Y-72400057D01*
X98785713Y-72400057D02*
X98738094Y-72352438D01*
X98738094Y-72352438D02*
X98642856Y-72304819D01*
X97880951Y-72923866D02*
X97119047Y-72923866D01*
X96690475Y-73019104D02*
X96214285Y-73019104D01*
X96785713Y-73304819D02*
X96452380Y-72304819D01*
X96452380Y-72304819D02*
X96119047Y-73304819D01*
X95833332Y-73257200D02*
X95690475Y-73304819D01*
X95690475Y-73304819D02*
X95452380Y-73304819D01*
X95452380Y-73304819D02*
X95357142Y-73257200D01*
X95357142Y-73257200D02*
X95309523Y-73209580D01*
X95309523Y-73209580D02*
X95261904Y-73114342D01*
X95261904Y-73114342D02*
X95261904Y-73019104D01*
X95261904Y-73019104D02*
X95309523Y-72923866D01*
X95309523Y-72923866D02*
X95357142Y-72876247D01*
X95357142Y-72876247D02*
X95452380Y-72828628D01*
X95452380Y-72828628D02*
X95642856Y-72781009D01*
X95642856Y-72781009D02*
X95738094Y-72733390D01*
X95738094Y-72733390D02*
X95785713Y-72685771D01*
X95785713Y-72685771D02*
X95833332Y-72590533D01*
X95833332Y-72590533D02*
X95833332Y-72495295D01*
X95833332Y-72495295D02*
X95785713Y-72400057D01*
X95785713Y-72400057D02*
X95738094Y-72352438D01*
X95738094Y-72352438D02*
X95642856Y-72304819D01*
X95642856Y-72304819D02*
X95404761Y-72304819D01*
X95404761Y-72304819D02*
X95261904Y-72352438D01*
X94642856Y-72304819D02*
X94452380Y-72304819D01*
X94452380Y-72304819D02*
X94357142Y-72352438D01*
X94357142Y-72352438D02*
X94261904Y-72447676D01*
X94261904Y-72447676D02*
X94214285Y-72638152D01*
X94214285Y-72638152D02*
X94214285Y-72971485D01*
X94214285Y-72971485D02*
X94261904Y-73161961D01*
X94261904Y-73161961D02*
X94357142Y-73257200D01*
X94357142Y-73257200D02*
X94452380Y-73304819D01*
X94452380Y-73304819D02*
X94642856Y-73304819D01*
X94642856Y-73304819D02*
X94738094Y-73257200D01*
X94738094Y-73257200D02*
X94833332Y-73161961D01*
X94833332Y-73161961D02*
X94880951Y-72971485D01*
X94880951Y-72971485D02*
X94880951Y-72638152D01*
X94880951Y-72638152D02*
X94833332Y-72447676D01*
X94833332Y-72447676D02*
X94738094Y-72352438D01*
X94738094Y-72352438D02*
X94642856Y-72304819D01*
X93928570Y-72304819D02*
X93357142Y-72304819D01*
X93642856Y-73304819D02*
X93642856Y-72304819D01*
X103952380Y-74519104D02*
X103476190Y-74519104D01*
X104047618Y-74804819D02*
X103714285Y-73804819D01*
X103714285Y-73804819D02*
X103380952Y-74804819D01*
X103047618Y-74804819D02*
X103047618Y-73804819D01*
X103047618Y-73804819D02*
X102476190Y-74804819D01*
X102476190Y-74804819D02*
X102476190Y-73804819D01*
X101476190Y-73852438D02*
X101571428Y-73804819D01*
X101571428Y-73804819D02*
X101714285Y-73804819D01*
X101714285Y-73804819D02*
X101857142Y-73852438D01*
X101857142Y-73852438D02*
X101952380Y-73947676D01*
X101952380Y-73947676D02*
X101999999Y-74042914D01*
X101999999Y-74042914D02*
X102047618Y-74233390D01*
X102047618Y-74233390D02*
X102047618Y-74376247D01*
X102047618Y-74376247D02*
X101999999Y-74566723D01*
X101999999Y-74566723D02*
X101952380Y-74661961D01*
X101952380Y-74661961D02*
X101857142Y-74757200D01*
X101857142Y-74757200D02*
X101714285Y-74804819D01*
X101714285Y-74804819D02*
X101619047Y-74804819D01*
X101619047Y-74804819D02*
X101476190Y-74757200D01*
X101476190Y-74757200D02*
X101428571Y-74709580D01*
X101428571Y-74709580D02*
X101428571Y-74376247D01*
X101428571Y-74376247D02*
X101619047Y-74376247D01*
X100523809Y-74804819D02*
X100999999Y-74804819D01*
X100999999Y-74804819D02*
X100999999Y-73804819D01*
X100190475Y-74281009D02*
X99857142Y-74281009D01*
X99714285Y-74804819D02*
X100190475Y-74804819D01*
X100190475Y-74804819D02*
X100190475Y-73804819D01*
X100190475Y-73804819D02*
X99714285Y-73804819D01*
X98571427Y-74757200D02*
X98428570Y-74804819D01*
X98428570Y-74804819D02*
X98190475Y-74804819D01*
X98190475Y-74804819D02*
X98095237Y-74757200D01*
X98095237Y-74757200D02*
X98047618Y-74709580D01*
X98047618Y-74709580D02*
X97999999Y-74614342D01*
X97999999Y-74614342D02*
X97999999Y-74519104D01*
X97999999Y-74519104D02*
X98047618Y-74423866D01*
X98047618Y-74423866D02*
X98095237Y-74376247D01*
X98095237Y-74376247D02*
X98190475Y-74328628D01*
X98190475Y-74328628D02*
X98380951Y-74281009D01*
X98380951Y-74281009D02*
X98476189Y-74233390D01*
X98476189Y-74233390D02*
X98523808Y-74185771D01*
X98523808Y-74185771D02*
X98571427Y-74090533D01*
X98571427Y-74090533D02*
X98571427Y-73995295D01*
X98571427Y-73995295D02*
X98523808Y-73900057D01*
X98523808Y-73900057D02*
X98476189Y-73852438D01*
X98476189Y-73852438D02*
X98380951Y-73804819D01*
X98380951Y-73804819D02*
X98142856Y-73804819D01*
X98142856Y-73804819D02*
X97999999Y-73852438D01*
X97571427Y-74281009D02*
X97238094Y-74281009D01*
X97095237Y-74804819D02*
X97571427Y-74804819D01*
X97571427Y-74804819D02*
X97571427Y-73804819D01*
X97571427Y-73804819D02*
X97095237Y-73804819D01*
X96666665Y-74804819D02*
X96666665Y-73804819D01*
X96666665Y-73804819D02*
X96095237Y-74804819D01*
X96095237Y-74804819D02*
X96095237Y-73804819D01*
X95666665Y-74757200D02*
X95523808Y-74804819D01*
X95523808Y-74804819D02*
X95285713Y-74804819D01*
X95285713Y-74804819D02*
X95190475Y-74757200D01*
X95190475Y-74757200D02*
X95142856Y-74709580D01*
X95142856Y-74709580D02*
X95095237Y-74614342D01*
X95095237Y-74614342D02*
X95095237Y-74519104D01*
X95095237Y-74519104D02*
X95142856Y-74423866D01*
X95142856Y-74423866D02*
X95190475Y-74376247D01*
X95190475Y-74376247D02*
X95285713Y-74328628D01*
X95285713Y-74328628D02*
X95476189Y-74281009D01*
X95476189Y-74281009D02*
X95571427Y-74233390D01*
X95571427Y-74233390D02*
X95619046Y-74185771D01*
X95619046Y-74185771D02*
X95666665Y-74090533D01*
X95666665Y-74090533D02*
X95666665Y-73995295D01*
X95666665Y-73995295D02*
X95619046Y-73900057D01*
X95619046Y-73900057D02*
X95571427Y-73852438D01*
X95571427Y-73852438D02*
X95476189Y-73804819D01*
X95476189Y-73804819D02*
X95238094Y-73804819D01*
X95238094Y-73804819D02*
X95095237Y-73852438D01*
X94476189Y-73804819D02*
X94285713Y-73804819D01*
X94285713Y-73804819D02*
X94190475Y-73852438D01*
X94190475Y-73852438D02*
X94095237Y-73947676D01*
X94095237Y-73947676D02*
X94047618Y-74138152D01*
X94047618Y-74138152D02*
X94047618Y-74471485D01*
X94047618Y-74471485D02*
X94095237Y-74661961D01*
X94095237Y-74661961D02*
X94190475Y-74757200D01*
X94190475Y-74757200D02*
X94285713Y-74804819D01*
X94285713Y-74804819D02*
X94476189Y-74804819D01*
X94476189Y-74804819D02*
X94571427Y-74757200D01*
X94571427Y-74757200D02*
X94666665Y-74661961D01*
X94666665Y-74661961D02*
X94714284Y-74471485D01*
X94714284Y-74471485D02*
X94714284Y-74138152D01*
X94714284Y-74138152D02*
X94666665Y-73947676D01*
X94666665Y-73947676D02*
X94571427Y-73852438D01*
X94571427Y-73852438D02*
X94476189Y-73804819D01*
X93047618Y-74804819D02*
X93380951Y-74328628D01*
X93619046Y-74804819D02*
X93619046Y-73804819D01*
X93619046Y-73804819D02*
X93238094Y-73804819D01*
X93238094Y-73804819D02*
X93142856Y-73852438D01*
X93142856Y-73852438D02*
X93095237Y-73900057D01*
X93095237Y-73900057D02*
X93047618Y-73995295D01*
X93047618Y-73995295D02*
X93047618Y-74138152D01*
X93047618Y-74138152D02*
X93095237Y-74233390D01*
X93095237Y-74233390D02*
X93142856Y-74281009D01*
X93142856Y-74281009D02*
X93238094Y-74328628D01*
X93238094Y-74328628D02*
X93619046Y-74328628D01*
X84523808Y-52979819D02*
X84523808Y-51979819D01*
X84047618Y-52979819D02*
X84047618Y-51979819D01*
X84047618Y-51979819D02*
X83476190Y-52979819D01*
X83476190Y-52979819D02*
X83476190Y-51979819D01*
X83047618Y-52694104D02*
X82571428Y-52694104D01*
X83142856Y-52979819D02*
X82809523Y-51979819D01*
X82809523Y-51979819D02*
X82476190Y-52979819D01*
X82190475Y-52075057D02*
X82142856Y-52027438D01*
X82142856Y-52027438D02*
X82047618Y-51979819D01*
X82047618Y-51979819D02*
X81809523Y-51979819D01*
X81809523Y-51979819D02*
X81714285Y-52027438D01*
X81714285Y-52027438D02*
X81666666Y-52075057D01*
X81666666Y-52075057D02*
X81619047Y-52170295D01*
X81619047Y-52170295D02*
X81619047Y-52265533D01*
X81619047Y-52265533D02*
X81666666Y-52408390D01*
X81666666Y-52408390D02*
X82238094Y-52979819D01*
X82238094Y-52979819D02*
X81619047Y-52979819D01*
X81238094Y-52075057D02*
X81190475Y-52027438D01*
X81190475Y-52027438D02*
X81095237Y-51979819D01*
X81095237Y-51979819D02*
X80857142Y-51979819D01*
X80857142Y-51979819D02*
X80761904Y-52027438D01*
X80761904Y-52027438D02*
X80714285Y-52075057D01*
X80714285Y-52075057D02*
X80666666Y-52170295D01*
X80666666Y-52170295D02*
X80666666Y-52265533D01*
X80666666Y-52265533D02*
X80714285Y-52408390D01*
X80714285Y-52408390D02*
X81285713Y-52979819D01*
X81285713Y-52979819D02*
X80666666Y-52979819D01*
X79809523Y-51979819D02*
X79999999Y-51979819D01*
X79999999Y-51979819D02*
X80095237Y-52027438D01*
X80095237Y-52027438D02*
X80142856Y-52075057D01*
X80142856Y-52075057D02*
X80238094Y-52217914D01*
X80238094Y-52217914D02*
X80285713Y-52408390D01*
X80285713Y-52408390D02*
X80285713Y-52789342D01*
X80285713Y-52789342D02*
X80238094Y-52884580D01*
X80238094Y-52884580D02*
X80190475Y-52932200D01*
X80190475Y-52932200D02*
X80095237Y-52979819D01*
X80095237Y-52979819D02*
X79904761Y-52979819D01*
X79904761Y-52979819D02*
X79809523Y-52932200D01*
X79809523Y-52932200D02*
X79761904Y-52884580D01*
X79761904Y-52884580D02*
X79714285Y-52789342D01*
X79714285Y-52789342D02*
X79714285Y-52551247D01*
X79714285Y-52551247D02*
X79761904Y-52456009D01*
X79761904Y-52456009D02*
X79809523Y-52408390D01*
X79809523Y-52408390D02*
X79904761Y-52360771D01*
X79904761Y-52360771D02*
X80095237Y-52360771D01*
X80095237Y-52360771D02*
X80190475Y-52408390D01*
X80190475Y-52408390D02*
X80238094Y-52456009D01*
X80238094Y-52456009D02*
X80285713Y-52551247D01*
X79333332Y-52694104D02*
X78857142Y-52694104D01*
X79428570Y-52979819D02*
X79095237Y-51979819D01*
X79095237Y-51979819D02*
X78761904Y-52979819D01*
X78428570Y-52979819D02*
X78428570Y-51979819D01*
X77952380Y-52979819D02*
X77952380Y-51979819D01*
X77952380Y-51979819D02*
X77714285Y-51979819D01*
X77714285Y-51979819D02*
X77571428Y-52027438D01*
X77571428Y-52027438D02*
X77476190Y-52122676D01*
X77476190Y-52122676D02*
X77428571Y-52217914D01*
X77428571Y-52217914D02*
X77380952Y-52408390D01*
X77380952Y-52408390D02*
X77380952Y-52551247D01*
X77380952Y-52551247D02*
X77428571Y-52741723D01*
X77428571Y-52741723D02*
X77476190Y-52836961D01*
X77476190Y-52836961D02*
X77571428Y-52932200D01*
X77571428Y-52932200D02*
X77714285Y-52979819D01*
X77714285Y-52979819D02*
X77952380Y-52979819D01*
X76428571Y-52027438D02*
X76523809Y-51979819D01*
X76523809Y-51979819D02*
X76666666Y-51979819D01*
X76666666Y-51979819D02*
X76809523Y-52027438D01*
X76809523Y-52027438D02*
X76904761Y-52122676D01*
X76904761Y-52122676D02*
X76952380Y-52217914D01*
X76952380Y-52217914D02*
X76999999Y-52408390D01*
X76999999Y-52408390D02*
X76999999Y-52551247D01*
X76999999Y-52551247D02*
X76952380Y-52741723D01*
X76952380Y-52741723D02*
X76904761Y-52836961D01*
X76904761Y-52836961D02*
X76809523Y-52932200D01*
X76809523Y-52932200D02*
X76666666Y-52979819D01*
X76666666Y-52979819D02*
X76571428Y-52979819D01*
X76571428Y-52979819D02*
X76428571Y-52932200D01*
X76428571Y-52932200D02*
X76380952Y-52884580D01*
X76380952Y-52884580D02*
X76380952Y-52551247D01*
X76380952Y-52551247D02*
X76571428Y-52551247D01*
X75999999Y-52932200D02*
X75857142Y-52979819D01*
X75857142Y-52979819D02*
X75619047Y-52979819D01*
X75619047Y-52979819D02*
X75523809Y-52932200D01*
X75523809Y-52932200D02*
X75476190Y-52884580D01*
X75476190Y-52884580D02*
X75428571Y-52789342D01*
X75428571Y-52789342D02*
X75428571Y-52694104D01*
X75428571Y-52694104D02*
X75476190Y-52598866D01*
X75476190Y-52598866D02*
X75523809Y-52551247D01*
X75523809Y-52551247D02*
X75619047Y-52503628D01*
X75619047Y-52503628D02*
X75809523Y-52456009D01*
X75809523Y-52456009D02*
X75904761Y-52408390D01*
X75904761Y-52408390D02*
X75952380Y-52360771D01*
X75952380Y-52360771D02*
X75999999Y-52265533D01*
X75999999Y-52265533D02*
X75999999Y-52170295D01*
X75999999Y-52170295D02*
X75952380Y-52075057D01*
X75952380Y-52075057D02*
X75904761Y-52027438D01*
X75904761Y-52027438D02*
X75809523Y-51979819D01*
X75809523Y-51979819D02*
X75571428Y-51979819D01*
X75571428Y-51979819D02*
X75428571Y-52027438D01*
X74428571Y-52979819D02*
X74761904Y-52503628D01*
X74999999Y-52979819D02*
X74999999Y-51979819D01*
X74999999Y-51979819D02*
X74619047Y-51979819D01*
X74619047Y-51979819D02*
X74523809Y-52027438D01*
X74523809Y-52027438D02*
X74476190Y-52075057D01*
X74476190Y-52075057D02*
X74428571Y-52170295D01*
X74428571Y-52170295D02*
X74428571Y-52313152D01*
X74428571Y-52313152D02*
X74476190Y-52408390D01*
X74476190Y-52408390D02*
X74523809Y-52456009D01*
X74523809Y-52456009D02*
X74619047Y-52503628D01*
X74619047Y-52503628D02*
X74999999Y-52503628D01*
X83880952Y-53956009D02*
X83738095Y-54003628D01*
X83738095Y-54003628D02*
X83690476Y-54051247D01*
X83690476Y-54051247D02*
X83642857Y-54146485D01*
X83642857Y-54146485D02*
X83642857Y-54289342D01*
X83642857Y-54289342D02*
X83690476Y-54384580D01*
X83690476Y-54384580D02*
X83738095Y-54432200D01*
X83738095Y-54432200D02*
X83833333Y-54479819D01*
X83833333Y-54479819D02*
X84214285Y-54479819D01*
X84214285Y-54479819D02*
X84214285Y-53479819D01*
X84214285Y-53479819D02*
X83880952Y-53479819D01*
X83880952Y-53479819D02*
X83785714Y-53527438D01*
X83785714Y-53527438D02*
X83738095Y-53575057D01*
X83738095Y-53575057D02*
X83690476Y-53670295D01*
X83690476Y-53670295D02*
X83690476Y-53765533D01*
X83690476Y-53765533D02*
X83738095Y-53860771D01*
X83738095Y-53860771D02*
X83785714Y-53908390D01*
X83785714Y-53908390D02*
X83880952Y-53956009D01*
X83880952Y-53956009D02*
X84214285Y-53956009D01*
X83261904Y-54194104D02*
X82785714Y-54194104D01*
X83357142Y-54479819D02*
X83023809Y-53479819D01*
X83023809Y-53479819D02*
X82690476Y-54479819D01*
X82499999Y-53479819D02*
X81928571Y-53479819D01*
X82214285Y-54479819D02*
X82214285Y-53479819D01*
X80833332Y-54479819D02*
X80833332Y-53479819D01*
X80833332Y-53479819D02*
X80499999Y-54194104D01*
X80499999Y-54194104D02*
X80166666Y-53479819D01*
X80166666Y-53479819D02*
X80166666Y-54479819D01*
X79499999Y-53479819D02*
X79309523Y-53479819D01*
X79309523Y-53479819D02*
X79214285Y-53527438D01*
X79214285Y-53527438D02*
X79119047Y-53622676D01*
X79119047Y-53622676D02*
X79071428Y-53813152D01*
X79071428Y-53813152D02*
X79071428Y-54146485D01*
X79071428Y-54146485D02*
X79119047Y-54336961D01*
X79119047Y-54336961D02*
X79214285Y-54432200D01*
X79214285Y-54432200D02*
X79309523Y-54479819D01*
X79309523Y-54479819D02*
X79499999Y-54479819D01*
X79499999Y-54479819D02*
X79595237Y-54432200D01*
X79595237Y-54432200D02*
X79690475Y-54336961D01*
X79690475Y-54336961D02*
X79738094Y-54146485D01*
X79738094Y-54146485D02*
X79738094Y-53813152D01*
X79738094Y-53813152D02*
X79690475Y-53622676D01*
X79690475Y-53622676D02*
X79595237Y-53527438D01*
X79595237Y-53527438D02*
X79499999Y-53479819D01*
X78642856Y-54479819D02*
X78642856Y-53479819D01*
X78642856Y-53479819D02*
X78071428Y-54479819D01*
X78071428Y-54479819D02*
X78071428Y-53479819D01*
X77595237Y-54479819D02*
X77595237Y-53479819D01*
X77261904Y-53479819D02*
X76690476Y-53479819D01*
X76976190Y-54479819D02*
X76976190Y-53479819D01*
X76166666Y-53479819D02*
X75976190Y-53479819D01*
X75976190Y-53479819D02*
X75880952Y-53527438D01*
X75880952Y-53527438D02*
X75785714Y-53622676D01*
X75785714Y-53622676D02*
X75738095Y-53813152D01*
X75738095Y-53813152D02*
X75738095Y-54146485D01*
X75738095Y-54146485D02*
X75785714Y-54336961D01*
X75785714Y-54336961D02*
X75880952Y-54432200D01*
X75880952Y-54432200D02*
X75976190Y-54479819D01*
X75976190Y-54479819D02*
X76166666Y-54479819D01*
X76166666Y-54479819D02*
X76261904Y-54432200D01*
X76261904Y-54432200D02*
X76357142Y-54336961D01*
X76357142Y-54336961D02*
X76404761Y-54146485D01*
X76404761Y-54146485D02*
X76404761Y-53813152D01*
X76404761Y-53813152D02*
X76357142Y-53622676D01*
X76357142Y-53622676D02*
X76261904Y-53527438D01*
X76261904Y-53527438D02*
X76166666Y-53479819D01*
X74738095Y-54479819D02*
X75071428Y-54003628D01*
X75309523Y-54479819D02*
X75309523Y-53479819D01*
X75309523Y-53479819D02*
X74928571Y-53479819D01*
X74928571Y-53479819D02*
X74833333Y-53527438D01*
X74833333Y-53527438D02*
X74785714Y-53575057D01*
X74785714Y-53575057D02*
X74738095Y-53670295D01*
X74738095Y-53670295D02*
X74738095Y-53813152D01*
X74738095Y-53813152D02*
X74785714Y-53908390D01*
X74785714Y-53908390D02*
X74833333Y-53956009D01*
X74833333Y-53956009D02*
X74928571Y-54003628D01*
X74928571Y-54003628D02*
X75309523Y-54003628D01*
X93309523Y-58257200D02*
X93166666Y-58304819D01*
X93166666Y-58304819D02*
X92928571Y-58304819D01*
X92928571Y-58304819D02*
X92833333Y-58257200D01*
X92833333Y-58257200D02*
X92785714Y-58209580D01*
X92785714Y-58209580D02*
X92738095Y-58114342D01*
X92738095Y-58114342D02*
X92738095Y-58019104D01*
X92738095Y-58019104D02*
X92785714Y-57923866D01*
X92785714Y-57923866D02*
X92833333Y-57876247D01*
X92833333Y-57876247D02*
X92928571Y-57828628D01*
X92928571Y-57828628D02*
X93119047Y-57781009D01*
X93119047Y-57781009D02*
X93214285Y-57733390D01*
X93214285Y-57733390D02*
X93261904Y-57685771D01*
X93261904Y-57685771D02*
X93309523Y-57590533D01*
X93309523Y-57590533D02*
X93309523Y-57495295D01*
X93309523Y-57495295D02*
X93261904Y-57400057D01*
X93261904Y-57400057D02*
X93214285Y-57352438D01*
X93214285Y-57352438D02*
X93119047Y-57304819D01*
X93119047Y-57304819D02*
X92880952Y-57304819D01*
X92880952Y-57304819D02*
X92738095Y-57352438D01*
X92309523Y-58304819D02*
X92309523Y-57304819D01*
X92309523Y-57781009D02*
X91738095Y-57781009D01*
X91738095Y-58304819D02*
X91738095Y-57304819D01*
X91261904Y-57304819D02*
X91261904Y-58114342D01*
X91261904Y-58114342D02*
X91214285Y-58209580D01*
X91214285Y-58209580D02*
X91166666Y-58257200D01*
X91166666Y-58257200D02*
X91071428Y-58304819D01*
X91071428Y-58304819D02*
X90880952Y-58304819D01*
X90880952Y-58304819D02*
X90785714Y-58257200D01*
X90785714Y-58257200D02*
X90738095Y-58209580D01*
X90738095Y-58209580D02*
X90690476Y-58114342D01*
X90690476Y-58114342D02*
X90690476Y-57304819D01*
X90214285Y-58304819D02*
X90214285Y-57304819D01*
X90214285Y-57304819D02*
X89642857Y-58304819D01*
X89642857Y-58304819D02*
X89642857Y-57304819D01*
X89309523Y-57304819D02*
X88738095Y-57304819D01*
X89023809Y-58304819D02*
X89023809Y-57304819D01*
X87119047Y-58304819D02*
X87690475Y-58304819D01*
X87404761Y-58304819D02*
X87404761Y-57304819D01*
X87404761Y-57304819D02*
X87499999Y-57447676D01*
X87499999Y-57447676D02*
X87595237Y-57542914D01*
X87595237Y-57542914D02*
X87690475Y-57590533D01*
X86499999Y-57304819D02*
X86404761Y-57304819D01*
X86404761Y-57304819D02*
X86309523Y-57352438D01*
X86309523Y-57352438D02*
X86261904Y-57400057D01*
X86261904Y-57400057D02*
X86214285Y-57495295D01*
X86214285Y-57495295D02*
X86166666Y-57685771D01*
X86166666Y-57685771D02*
X86166666Y-57923866D01*
X86166666Y-57923866D02*
X86214285Y-58114342D01*
X86214285Y-58114342D02*
X86261904Y-58209580D01*
X86261904Y-58209580D02*
X86309523Y-58257200D01*
X86309523Y-58257200D02*
X86404761Y-58304819D01*
X86404761Y-58304819D02*
X86499999Y-58304819D01*
X86499999Y-58304819D02*
X86595237Y-58257200D01*
X86595237Y-58257200D02*
X86642856Y-58209580D01*
X86642856Y-58209580D02*
X86690475Y-58114342D01*
X86690475Y-58114342D02*
X86738094Y-57923866D01*
X86738094Y-57923866D02*
X86738094Y-57685771D01*
X86738094Y-57685771D02*
X86690475Y-57495295D01*
X86690475Y-57495295D02*
X86642856Y-57400057D01*
X86642856Y-57400057D02*
X86595237Y-57352438D01*
X86595237Y-57352438D02*
X86499999Y-57304819D01*
X85738094Y-58304819D02*
X85738094Y-57638152D01*
X85738094Y-57733390D02*
X85690475Y-57685771D01*
X85690475Y-57685771D02*
X85595237Y-57638152D01*
X85595237Y-57638152D02*
X85452380Y-57638152D01*
X85452380Y-57638152D02*
X85357142Y-57685771D01*
X85357142Y-57685771D02*
X85309523Y-57781009D01*
X85309523Y-57781009D02*
X85309523Y-58304819D01*
X85309523Y-57781009D02*
X85261904Y-57685771D01*
X85261904Y-57685771D02*
X85166666Y-57638152D01*
X85166666Y-57638152D02*
X85023809Y-57638152D01*
X85023809Y-57638152D02*
X84928570Y-57685771D01*
X84928570Y-57685771D02*
X84880951Y-57781009D01*
X84880951Y-57781009D02*
X84880951Y-58304819D01*
X84452380Y-58304819D02*
X84214285Y-58304819D01*
X84214285Y-58304819D02*
X84214285Y-58114342D01*
X84214285Y-58114342D02*
X84309523Y-58066723D01*
X84309523Y-58066723D02*
X84404761Y-57971485D01*
X84404761Y-57971485D02*
X84452380Y-57828628D01*
X84452380Y-57828628D02*
X84452380Y-57590533D01*
X84452380Y-57590533D02*
X84404761Y-57447676D01*
X84404761Y-57447676D02*
X84309523Y-57352438D01*
X84309523Y-57352438D02*
X84166666Y-57304819D01*
X84166666Y-57304819D02*
X83976190Y-57304819D01*
X83976190Y-57304819D02*
X83833333Y-57352438D01*
X83833333Y-57352438D02*
X83738095Y-57447676D01*
X83738095Y-57447676D02*
X83690476Y-57590533D01*
X83690476Y-57590533D02*
X83690476Y-57828628D01*
X83690476Y-57828628D02*
X83738095Y-57971485D01*
X83738095Y-57971485D02*
X83833333Y-58066723D01*
X83833333Y-58066723D02*
X83928571Y-58114342D01*
X83928571Y-58114342D02*
X83928571Y-58304819D01*
X83928571Y-58304819D02*
X83690476Y-58304819D01*
X93571428Y-59804819D02*
X93571428Y-58804819D01*
X93000000Y-59804819D02*
X93428571Y-59233390D01*
X93000000Y-58804819D02*
X93571428Y-59376247D01*
X92571428Y-59281009D02*
X92238095Y-59281009D01*
X92095238Y-59804819D02*
X92571428Y-59804819D01*
X92571428Y-59804819D02*
X92571428Y-58804819D01*
X92571428Y-58804819D02*
X92095238Y-58804819D01*
X91190476Y-59804819D02*
X91666666Y-59804819D01*
X91666666Y-59804819D02*
X91666666Y-58804819D01*
X90999999Y-58804819D02*
X90666666Y-59804819D01*
X90666666Y-59804819D02*
X90333333Y-58804819D01*
X89999999Y-59804819D02*
X89999999Y-58804819D01*
X89523809Y-59804819D02*
X89523809Y-58804819D01*
X89523809Y-58804819D02*
X88952381Y-59804819D01*
X88952381Y-59804819D02*
X88952381Y-58804819D01*
X87761904Y-59757200D02*
X87619047Y-59804819D01*
X87619047Y-59804819D02*
X87380952Y-59804819D01*
X87380952Y-59804819D02*
X87285714Y-59757200D01*
X87285714Y-59757200D02*
X87238095Y-59709580D01*
X87238095Y-59709580D02*
X87190476Y-59614342D01*
X87190476Y-59614342D02*
X87190476Y-59519104D01*
X87190476Y-59519104D02*
X87238095Y-59423866D01*
X87238095Y-59423866D02*
X87285714Y-59376247D01*
X87285714Y-59376247D02*
X87380952Y-59328628D01*
X87380952Y-59328628D02*
X87571428Y-59281009D01*
X87571428Y-59281009D02*
X87666666Y-59233390D01*
X87666666Y-59233390D02*
X87714285Y-59185771D01*
X87714285Y-59185771D02*
X87761904Y-59090533D01*
X87761904Y-59090533D02*
X87761904Y-58995295D01*
X87761904Y-58995295D02*
X87714285Y-58900057D01*
X87714285Y-58900057D02*
X87666666Y-58852438D01*
X87666666Y-58852438D02*
X87571428Y-58804819D01*
X87571428Y-58804819D02*
X87333333Y-58804819D01*
X87333333Y-58804819D02*
X87190476Y-58852438D01*
X86761904Y-59281009D02*
X86428571Y-59281009D01*
X86285714Y-59804819D02*
X86761904Y-59804819D01*
X86761904Y-59804819D02*
X86761904Y-58804819D01*
X86761904Y-58804819D02*
X86285714Y-58804819D01*
X85857142Y-59804819D02*
X85857142Y-58804819D01*
X85857142Y-58804819D02*
X85285714Y-59804819D01*
X85285714Y-59804819D02*
X85285714Y-58804819D01*
X84857142Y-59757200D02*
X84714285Y-59804819D01*
X84714285Y-59804819D02*
X84476190Y-59804819D01*
X84476190Y-59804819D02*
X84380952Y-59757200D01*
X84380952Y-59757200D02*
X84333333Y-59709580D01*
X84333333Y-59709580D02*
X84285714Y-59614342D01*
X84285714Y-59614342D02*
X84285714Y-59519104D01*
X84285714Y-59519104D02*
X84333333Y-59423866D01*
X84333333Y-59423866D02*
X84380952Y-59376247D01*
X84380952Y-59376247D02*
X84476190Y-59328628D01*
X84476190Y-59328628D02*
X84666666Y-59281009D01*
X84666666Y-59281009D02*
X84761904Y-59233390D01*
X84761904Y-59233390D02*
X84809523Y-59185771D01*
X84809523Y-59185771D02*
X84857142Y-59090533D01*
X84857142Y-59090533D02*
X84857142Y-58995295D01*
X84857142Y-58995295D02*
X84809523Y-58900057D01*
X84809523Y-58900057D02*
X84761904Y-58852438D01*
X84761904Y-58852438D02*
X84666666Y-58804819D01*
X84666666Y-58804819D02*
X84428571Y-58804819D01*
X84428571Y-58804819D02*
X84285714Y-58852438D01*
X83857142Y-59281009D02*
X83523809Y-59281009D01*
X83380952Y-59804819D02*
X83857142Y-59804819D01*
X83857142Y-59804819D02*
X83857142Y-58804819D01*
X83857142Y-58804819D02*
X83380952Y-58804819D01*
X53366190Y-68099819D02*
X53937618Y-68099819D01*
X53651904Y-68099819D02*
X53651904Y-67099819D01*
X53651904Y-67099819D02*
X53747142Y-67242676D01*
X53747142Y-67242676D02*
X53842380Y-67337914D01*
X53842380Y-67337914D02*
X53937618Y-67385533D01*
X53032856Y-68099819D02*
X52509047Y-67433152D01*
X53032856Y-67433152D02*
X52509047Y-68099819D01*
X52223332Y-67099819D02*
X51556666Y-67099819D01*
X51556666Y-67099819D02*
X51985237Y-68099819D01*
X50461427Y-67195057D02*
X50413808Y-67147438D01*
X50413808Y-67147438D02*
X50318570Y-67099819D01*
X50318570Y-67099819D02*
X50080475Y-67099819D01*
X50080475Y-67099819D02*
X49985237Y-67147438D01*
X49985237Y-67147438D02*
X49937618Y-67195057D01*
X49937618Y-67195057D02*
X49889999Y-67290295D01*
X49889999Y-67290295D02*
X49889999Y-67385533D01*
X49889999Y-67385533D02*
X49937618Y-67528390D01*
X49937618Y-67528390D02*
X50509046Y-68099819D01*
X50509046Y-68099819D02*
X49889999Y-68099819D01*
X49461427Y-68004580D02*
X49413808Y-68052200D01*
X49413808Y-68052200D02*
X49461427Y-68099819D01*
X49461427Y-68099819D02*
X49509046Y-68052200D01*
X49509046Y-68052200D02*
X49461427Y-68004580D01*
X49461427Y-68004580D02*
X49461427Y-68099819D01*
X48509047Y-67099819D02*
X48985237Y-67099819D01*
X48985237Y-67099819D02*
X49032856Y-67576009D01*
X49032856Y-67576009D02*
X48985237Y-67528390D01*
X48985237Y-67528390D02*
X48889999Y-67480771D01*
X48889999Y-67480771D02*
X48651904Y-67480771D01*
X48651904Y-67480771D02*
X48556666Y-67528390D01*
X48556666Y-67528390D02*
X48509047Y-67576009D01*
X48509047Y-67576009D02*
X48461428Y-67671247D01*
X48461428Y-67671247D02*
X48461428Y-67909342D01*
X48461428Y-67909342D02*
X48509047Y-68004580D01*
X48509047Y-68004580D02*
X48556666Y-68052200D01*
X48556666Y-68052200D02*
X48651904Y-68099819D01*
X48651904Y-68099819D02*
X48889999Y-68099819D01*
X48889999Y-68099819D02*
X48985237Y-68052200D01*
X48985237Y-68052200D02*
X49032856Y-68004580D01*
X47604285Y-67433152D02*
X47604285Y-68099819D01*
X47842380Y-67052200D02*
X48080475Y-67766485D01*
X48080475Y-67766485D02*
X47461428Y-67766485D01*
X47080475Y-68099819D02*
X47080475Y-67433152D01*
X47080475Y-67528390D02*
X47032856Y-67480771D01*
X47032856Y-67480771D02*
X46937618Y-67433152D01*
X46937618Y-67433152D02*
X46794761Y-67433152D01*
X46794761Y-67433152D02*
X46699523Y-67480771D01*
X46699523Y-67480771D02*
X46651904Y-67576009D01*
X46651904Y-67576009D02*
X46651904Y-68099819D01*
X46651904Y-67576009D02*
X46604285Y-67480771D01*
X46604285Y-67480771D02*
X46509047Y-67433152D01*
X46509047Y-67433152D02*
X46366190Y-67433152D01*
X46366190Y-67433152D02*
X46270951Y-67480771D01*
X46270951Y-67480771D02*
X46223332Y-67576009D01*
X46223332Y-67576009D02*
X46223332Y-68099819D01*
X45747142Y-68099819D02*
X45747142Y-67433152D01*
X45747142Y-67528390D02*
X45699523Y-67480771D01*
X45699523Y-67480771D02*
X45604285Y-67433152D01*
X45604285Y-67433152D02*
X45461428Y-67433152D01*
X45461428Y-67433152D02*
X45366190Y-67480771D01*
X45366190Y-67480771D02*
X45318571Y-67576009D01*
X45318571Y-67576009D02*
X45318571Y-68099819D01*
X45318571Y-67576009D02*
X45270952Y-67480771D01*
X45270952Y-67480771D02*
X45175714Y-67433152D01*
X45175714Y-67433152D02*
X45032857Y-67433152D01*
X45032857Y-67433152D02*
X44937618Y-67480771D01*
X44937618Y-67480771D02*
X44889999Y-67576009D01*
X44889999Y-67576009D02*
X44889999Y-68099819D01*
X53461427Y-68599819D02*
X52794761Y-69599819D01*
X52794761Y-68599819D02*
X53461427Y-69599819D01*
X52413808Y-69599819D02*
X52413808Y-68599819D01*
X51985237Y-69314104D02*
X51509047Y-69314104D01*
X52080475Y-69599819D02*
X51747142Y-68599819D01*
X51747142Y-68599819D02*
X51413809Y-69599819D01*
X50889999Y-68599819D02*
X50699523Y-68599819D01*
X50699523Y-68599819D02*
X50604285Y-68647438D01*
X50604285Y-68647438D02*
X50509047Y-68742676D01*
X50509047Y-68742676D02*
X50461428Y-68933152D01*
X50461428Y-68933152D02*
X50461428Y-69266485D01*
X50461428Y-69266485D02*
X50509047Y-69456961D01*
X50509047Y-69456961D02*
X50604285Y-69552200D01*
X50604285Y-69552200D02*
X50699523Y-69599819D01*
X50699523Y-69599819D02*
X50889999Y-69599819D01*
X50889999Y-69599819D02*
X50985237Y-69552200D01*
X50985237Y-69552200D02*
X51080475Y-69456961D01*
X51080475Y-69456961D02*
X51128094Y-69266485D01*
X51128094Y-69266485D02*
X51128094Y-68933152D01*
X51128094Y-68933152D02*
X51080475Y-68742676D01*
X51080475Y-68742676D02*
X50985237Y-68647438D01*
X50985237Y-68647438D02*
X50889999Y-68599819D01*
X48699523Y-69599819D02*
X49032856Y-69123628D01*
X49270951Y-69599819D02*
X49270951Y-68599819D01*
X49270951Y-68599819D02*
X48889999Y-68599819D01*
X48889999Y-68599819D02*
X48794761Y-68647438D01*
X48794761Y-68647438D02*
X48747142Y-68695057D01*
X48747142Y-68695057D02*
X48699523Y-68790295D01*
X48699523Y-68790295D02*
X48699523Y-68933152D01*
X48699523Y-68933152D02*
X48747142Y-69028390D01*
X48747142Y-69028390D02*
X48794761Y-69076009D01*
X48794761Y-69076009D02*
X48889999Y-69123628D01*
X48889999Y-69123628D02*
X49270951Y-69123628D01*
X48270951Y-69599819D02*
X48270951Y-68599819D01*
X47842380Y-69552200D02*
X47699523Y-69599819D01*
X47699523Y-69599819D02*
X47461428Y-69599819D01*
X47461428Y-69599819D02*
X47366190Y-69552200D01*
X47366190Y-69552200D02*
X47318571Y-69504580D01*
X47318571Y-69504580D02*
X47270952Y-69409342D01*
X47270952Y-69409342D02*
X47270952Y-69314104D01*
X47270952Y-69314104D02*
X47318571Y-69218866D01*
X47318571Y-69218866D02*
X47366190Y-69171247D01*
X47366190Y-69171247D02*
X47461428Y-69123628D01*
X47461428Y-69123628D02*
X47651904Y-69076009D01*
X47651904Y-69076009D02*
X47747142Y-69028390D01*
X47747142Y-69028390D02*
X47794761Y-68980771D01*
X47794761Y-68980771D02*
X47842380Y-68885533D01*
X47842380Y-68885533D02*
X47842380Y-68790295D01*
X47842380Y-68790295D02*
X47794761Y-68695057D01*
X47794761Y-68695057D02*
X47747142Y-68647438D01*
X47747142Y-68647438D02*
X47651904Y-68599819D01*
X47651904Y-68599819D02*
X47413809Y-68599819D01*
X47413809Y-68599819D02*
X47270952Y-68647438D01*
X46842380Y-69076009D02*
X46509047Y-69076009D01*
X46366190Y-69599819D02*
X46842380Y-69599819D01*
X46842380Y-69599819D02*
X46842380Y-68599819D01*
X46842380Y-68599819D02*
X46366190Y-68599819D01*
X45366190Y-69599819D02*
X45699523Y-69123628D01*
X45937618Y-69599819D02*
X45937618Y-68599819D01*
X45937618Y-68599819D02*
X45556666Y-68599819D01*
X45556666Y-68599819D02*
X45461428Y-68647438D01*
X45461428Y-68647438D02*
X45413809Y-68695057D01*
X45413809Y-68695057D02*
X45366190Y-68790295D01*
X45366190Y-68790295D02*
X45366190Y-68933152D01*
X45366190Y-68933152D02*
X45413809Y-69028390D01*
X45413809Y-69028390D02*
X45461428Y-69076009D01*
X45461428Y-69076009D02*
X45556666Y-69123628D01*
X45556666Y-69123628D02*
X45937618Y-69123628D01*
X74616190Y-72334819D02*
X75187618Y-72334819D01*
X74901904Y-72334819D02*
X74901904Y-71334819D01*
X74901904Y-71334819D02*
X74997142Y-71477676D01*
X74997142Y-71477676D02*
X75092380Y-71572914D01*
X75092380Y-71572914D02*
X75187618Y-71620533D01*
X74282856Y-72334819D02*
X73759047Y-71668152D01*
X74282856Y-71668152D02*
X73759047Y-72334819D01*
X72949523Y-71668152D02*
X72949523Y-72334819D01*
X73187618Y-71287200D02*
X73425713Y-72001485D01*
X73425713Y-72001485D02*
X72806666Y-72001485D01*
X71711427Y-71430057D02*
X71663808Y-71382438D01*
X71663808Y-71382438D02*
X71568570Y-71334819D01*
X71568570Y-71334819D02*
X71330475Y-71334819D01*
X71330475Y-71334819D02*
X71235237Y-71382438D01*
X71235237Y-71382438D02*
X71187618Y-71430057D01*
X71187618Y-71430057D02*
X71139999Y-71525295D01*
X71139999Y-71525295D02*
X71139999Y-71620533D01*
X71139999Y-71620533D02*
X71187618Y-71763390D01*
X71187618Y-71763390D02*
X71759046Y-72334819D01*
X71759046Y-72334819D02*
X71139999Y-72334819D01*
X70711427Y-72239580D02*
X70663808Y-72287200D01*
X70663808Y-72287200D02*
X70711427Y-72334819D01*
X70711427Y-72334819D02*
X70759046Y-72287200D01*
X70759046Y-72287200D02*
X70711427Y-72239580D01*
X70711427Y-72239580D02*
X70711427Y-72334819D01*
X69759047Y-71334819D02*
X70235237Y-71334819D01*
X70235237Y-71334819D02*
X70282856Y-71811009D01*
X70282856Y-71811009D02*
X70235237Y-71763390D01*
X70235237Y-71763390D02*
X70139999Y-71715771D01*
X70139999Y-71715771D02*
X69901904Y-71715771D01*
X69901904Y-71715771D02*
X69806666Y-71763390D01*
X69806666Y-71763390D02*
X69759047Y-71811009D01*
X69759047Y-71811009D02*
X69711428Y-71906247D01*
X69711428Y-71906247D02*
X69711428Y-72144342D01*
X69711428Y-72144342D02*
X69759047Y-72239580D01*
X69759047Y-72239580D02*
X69806666Y-72287200D01*
X69806666Y-72287200D02*
X69901904Y-72334819D01*
X69901904Y-72334819D02*
X70139999Y-72334819D01*
X70139999Y-72334819D02*
X70235237Y-72287200D01*
X70235237Y-72287200D02*
X70282856Y-72239580D01*
X68854285Y-71668152D02*
X68854285Y-72334819D01*
X69092380Y-71287200D02*
X69330475Y-72001485D01*
X69330475Y-72001485D02*
X68711428Y-72001485D01*
X68330475Y-72334819D02*
X68330475Y-71668152D01*
X68330475Y-71763390D02*
X68282856Y-71715771D01*
X68282856Y-71715771D02*
X68187618Y-71668152D01*
X68187618Y-71668152D02*
X68044761Y-71668152D01*
X68044761Y-71668152D02*
X67949523Y-71715771D01*
X67949523Y-71715771D02*
X67901904Y-71811009D01*
X67901904Y-71811009D02*
X67901904Y-72334819D01*
X67901904Y-71811009D02*
X67854285Y-71715771D01*
X67854285Y-71715771D02*
X67759047Y-71668152D01*
X67759047Y-71668152D02*
X67616190Y-71668152D01*
X67616190Y-71668152D02*
X67520951Y-71715771D01*
X67520951Y-71715771D02*
X67473332Y-71811009D01*
X67473332Y-71811009D02*
X67473332Y-72334819D01*
X66997142Y-72334819D02*
X66997142Y-71668152D01*
X66997142Y-71763390D02*
X66949523Y-71715771D01*
X66949523Y-71715771D02*
X66854285Y-71668152D01*
X66854285Y-71668152D02*
X66711428Y-71668152D01*
X66711428Y-71668152D02*
X66616190Y-71715771D01*
X66616190Y-71715771D02*
X66568571Y-71811009D01*
X66568571Y-71811009D02*
X66568571Y-72334819D01*
X66568571Y-71811009D02*
X66520952Y-71715771D01*
X66520952Y-71715771D02*
X66425714Y-71668152D01*
X66425714Y-71668152D02*
X66282857Y-71668152D01*
X66282857Y-71668152D02*
X66187618Y-71715771D01*
X66187618Y-71715771D02*
X66139999Y-71811009D01*
X66139999Y-71811009D02*
X66139999Y-72334819D01*
X73687618Y-72834819D02*
X73497142Y-72834819D01*
X73497142Y-72834819D02*
X73401904Y-72882438D01*
X73401904Y-72882438D02*
X73306666Y-72977676D01*
X73306666Y-72977676D02*
X73259047Y-73168152D01*
X73259047Y-73168152D02*
X73259047Y-73501485D01*
X73259047Y-73501485D02*
X73306666Y-73691961D01*
X73306666Y-73691961D02*
X73401904Y-73787200D01*
X73401904Y-73787200D02*
X73497142Y-73834819D01*
X73497142Y-73834819D02*
X73687618Y-73834819D01*
X73687618Y-73834819D02*
X73782856Y-73787200D01*
X73782856Y-73787200D02*
X73878094Y-73691961D01*
X73878094Y-73691961D02*
X73925713Y-73501485D01*
X73925713Y-73501485D02*
X73925713Y-73168152D01*
X73925713Y-73168152D02*
X73878094Y-72977676D01*
X73878094Y-72977676D02*
X73782856Y-72882438D01*
X73782856Y-72882438D02*
X73687618Y-72834819D01*
X72354285Y-73834819D02*
X72830475Y-73834819D01*
X72830475Y-73834819D02*
X72830475Y-72834819D01*
X72020951Y-73311009D02*
X71687618Y-73311009D01*
X71544761Y-73834819D02*
X72020951Y-73834819D01*
X72020951Y-73834819D02*
X72020951Y-72834819D01*
X72020951Y-72834819D02*
X71544761Y-72834819D01*
X71116189Y-73834819D02*
X71116189Y-72834819D01*
X71116189Y-72834819D02*
X70878094Y-72834819D01*
X70878094Y-72834819D02*
X70735237Y-72882438D01*
X70735237Y-72882438D02*
X70639999Y-72977676D01*
X70639999Y-72977676D02*
X70592380Y-73072914D01*
X70592380Y-73072914D02*
X70544761Y-73263390D01*
X70544761Y-73263390D02*
X70544761Y-73406247D01*
X70544761Y-73406247D02*
X70592380Y-73596723D01*
X70592380Y-73596723D02*
X70639999Y-73691961D01*
X70639999Y-73691961D02*
X70735237Y-73787200D01*
X70735237Y-73787200D02*
X70878094Y-73834819D01*
X70878094Y-73834819D02*
X71116189Y-73834819D01*
X69354284Y-73834819D02*
X69354284Y-72834819D01*
X68925713Y-72930057D02*
X68878094Y-72882438D01*
X68878094Y-72882438D02*
X68782856Y-72834819D01*
X68782856Y-72834819D02*
X68544761Y-72834819D01*
X68544761Y-72834819D02*
X68449523Y-72882438D01*
X68449523Y-72882438D02*
X68401904Y-72930057D01*
X68401904Y-72930057D02*
X68354285Y-73025295D01*
X68354285Y-73025295D02*
X68354285Y-73120533D01*
X68354285Y-73120533D02*
X68401904Y-73263390D01*
X68401904Y-73263390D02*
X68973332Y-73834819D01*
X68973332Y-73834819D02*
X68354285Y-73834819D01*
X67354285Y-73739580D02*
X67401904Y-73787200D01*
X67401904Y-73787200D02*
X67544761Y-73834819D01*
X67544761Y-73834819D02*
X67639999Y-73834819D01*
X67639999Y-73834819D02*
X67782856Y-73787200D01*
X67782856Y-73787200D02*
X67878094Y-73691961D01*
X67878094Y-73691961D02*
X67925713Y-73596723D01*
X67925713Y-73596723D02*
X67973332Y-73406247D01*
X67973332Y-73406247D02*
X67973332Y-73263390D01*
X67973332Y-73263390D02*
X67925713Y-73072914D01*
X67925713Y-73072914D02*
X67878094Y-72977676D01*
X67878094Y-72977676D02*
X67782856Y-72882438D01*
X67782856Y-72882438D02*
X67639999Y-72834819D01*
X67639999Y-72834819D02*
X67544761Y-72834819D01*
X67544761Y-72834819D02*
X67401904Y-72882438D01*
X67401904Y-72882438D02*
X67354285Y-72930057D01*
X70904761Y-49754819D02*
X70238095Y-50754819D01*
X70238095Y-49754819D02*
X70904761Y-50754819D01*
X69857142Y-50754819D02*
X69857142Y-49754819D01*
X69285714Y-50754819D02*
X69714285Y-50183390D01*
X69285714Y-49754819D02*
X69857142Y-50326247D01*
X68523809Y-50231009D02*
X68380952Y-50278628D01*
X68380952Y-50278628D02*
X68333333Y-50326247D01*
X68333333Y-50326247D02*
X68285714Y-50421485D01*
X68285714Y-50421485D02*
X68285714Y-50564342D01*
X68285714Y-50564342D02*
X68333333Y-50659580D01*
X68333333Y-50659580D02*
X68380952Y-50707200D01*
X68380952Y-50707200D02*
X68476190Y-50754819D01*
X68476190Y-50754819D02*
X68857142Y-50754819D01*
X68857142Y-50754819D02*
X68857142Y-49754819D01*
X68857142Y-49754819D02*
X68523809Y-49754819D01*
X68523809Y-49754819D02*
X68428571Y-49802438D01*
X68428571Y-49802438D02*
X68380952Y-49850057D01*
X68380952Y-49850057D02*
X68333333Y-49945295D01*
X68333333Y-49945295D02*
X68333333Y-50040533D01*
X68333333Y-50040533D02*
X68380952Y-50135771D01*
X68380952Y-50135771D02*
X68428571Y-50183390D01*
X68428571Y-50183390D02*
X68523809Y-50231009D01*
X68523809Y-50231009D02*
X68857142Y-50231009D01*
X67380952Y-49754819D02*
X67857142Y-49754819D01*
X67857142Y-49754819D02*
X67904761Y-50231009D01*
X67904761Y-50231009D02*
X67857142Y-50183390D01*
X67857142Y-50183390D02*
X67761904Y-50135771D01*
X67761904Y-50135771D02*
X67523809Y-50135771D01*
X67523809Y-50135771D02*
X67428571Y-50183390D01*
X67428571Y-50183390D02*
X67380952Y-50231009D01*
X67380952Y-50231009D02*
X67333333Y-50326247D01*
X67333333Y-50326247D02*
X67333333Y-50564342D01*
X67333333Y-50564342D02*
X67380952Y-50659580D01*
X67380952Y-50659580D02*
X67428571Y-50707200D01*
X67428571Y-50707200D02*
X67523809Y-50754819D01*
X67523809Y-50754819D02*
X67761904Y-50754819D01*
X67761904Y-50754819D02*
X67857142Y-50707200D01*
X67857142Y-50707200D02*
X67904761Y-50659580D01*
X66761904Y-50183390D02*
X66857142Y-50135771D01*
X66857142Y-50135771D02*
X66904761Y-50088152D01*
X66904761Y-50088152D02*
X66952380Y-49992914D01*
X66952380Y-49992914D02*
X66952380Y-49945295D01*
X66952380Y-49945295D02*
X66904761Y-49850057D01*
X66904761Y-49850057D02*
X66857142Y-49802438D01*
X66857142Y-49802438D02*
X66761904Y-49754819D01*
X66761904Y-49754819D02*
X66571428Y-49754819D01*
X66571428Y-49754819D02*
X66476190Y-49802438D01*
X66476190Y-49802438D02*
X66428571Y-49850057D01*
X66428571Y-49850057D02*
X66380952Y-49945295D01*
X66380952Y-49945295D02*
X66380952Y-49992914D01*
X66380952Y-49992914D02*
X66428571Y-50088152D01*
X66428571Y-50088152D02*
X66476190Y-50135771D01*
X66476190Y-50135771D02*
X66571428Y-50183390D01*
X66571428Y-50183390D02*
X66761904Y-50183390D01*
X66761904Y-50183390D02*
X66857142Y-50231009D01*
X66857142Y-50231009D02*
X66904761Y-50278628D01*
X66904761Y-50278628D02*
X66952380Y-50373866D01*
X66952380Y-50373866D02*
X66952380Y-50564342D01*
X66952380Y-50564342D02*
X66904761Y-50659580D01*
X66904761Y-50659580D02*
X66857142Y-50707200D01*
X66857142Y-50707200D02*
X66761904Y-50754819D01*
X66761904Y-50754819D02*
X66571428Y-50754819D01*
X66571428Y-50754819D02*
X66476190Y-50707200D01*
X66476190Y-50707200D02*
X66428571Y-50659580D01*
X66428571Y-50659580D02*
X66380952Y-50564342D01*
X66380952Y-50564342D02*
X66380952Y-50373866D01*
X66380952Y-50373866D02*
X66428571Y-50278628D01*
X66428571Y-50278628D02*
X66476190Y-50231009D01*
X66476190Y-50231009D02*
X66571428Y-50183390D01*
X65476190Y-49754819D02*
X65952380Y-49754819D01*
X65952380Y-49754819D02*
X65999999Y-50231009D01*
X65999999Y-50231009D02*
X65952380Y-50183390D01*
X65952380Y-50183390D02*
X65857142Y-50135771D01*
X65857142Y-50135771D02*
X65619047Y-50135771D01*
X65619047Y-50135771D02*
X65523809Y-50183390D01*
X65523809Y-50183390D02*
X65476190Y-50231009D01*
X65476190Y-50231009D02*
X65428571Y-50326247D01*
X65428571Y-50326247D02*
X65428571Y-50564342D01*
X65428571Y-50564342D02*
X65476190Y-50659580D01*
X65476190Y-50659580D02*
X65523809Y-50707200D01*
X65523809Y-50707200D02*
X65619047Y-50754819D01*
X65619047Y-50754819D02*
X65857142Y-50754819D01*
X65857142Y-50754819D02*
X65952380Y-50707200D01*
X65952380Y-50707200D02*
X65999999Y-50659580D01*
X64857142Y-50183390D02*
X64952380Y-50135771D01*
X64952380Y-50135771D02*
X64999999Y-50088152D01*
X64999999Y-50088152D02*
X65047618Y-49992914D01*
X65047618Y-49992914D02*
X65047618Y-49945295D01*
X65047618Y-49945295D02*
X64999999Y-49850057D01*
X64999999Y-49850057D02*
X64952380Y-49802438D01*
X64952380Y-49802438D02*
X64857142Y-49754819D01*
X64857142Y-49754819D02*
X64666666Y-49754819D01*
X64666666Y-49754819D02*
X64571428Y-49802438D01*
X64571428Y-49802438D02*
X64523809Y-49850057D01*
X64523809Y-49850057D02*
X64476190Y-49945295D01*
X64476190Y-49945295D02*
X64476190Y-49992914D01*
X64476190Y-49992914D02*
X64523809Y-50088152D01*
X64523809Y-50088152D02*
X64571428Y-50135771D01*
X64571428Y-50135771D02*
X64666666Y-50183390D01*
X64666666Y-50183390D02*
X64857142Y-50183390D01*
X64857142Y-50183390D02*
X64952380Y-50231009D01*
X64952380Y-50231009D02*
X64999999Y-50278628D01*
X64999999Y-50278628D02*
X65047618Y-50373866D01*
X65047618Y-50373866D02*
X65047618Y-50564342D01*
X65047618Y-50564342D02*
X64999999Y-50659580D01*
X64999999Y-50659580D02*
X64952380Y-50707200D01*
X64952380Y-50707200D02*
X64857142Y-50754819D01*
X64857142Y-50754819D02*
X64666666Y-50754819D01*
X64666666Y-50754819D02*
X64571428Y-50707200D01*
X64571428Y-50707200D02*
X64523809Y-50659580D01*
X64523809Y-50659580D02*
X64476190Y-50564342D01*
X64476190Y-50564342D02*
X64476190Y-50373866D01*
X64476190Y-50373866D02*
X64523809Y-50278628D01*
X64523809Y-50278628D02*
X64571428Y-50231009D01*
X64571428Y-50231009D02*
X64666666Y-50183390D01*
X64047618Y-50373866D02*
X63285714Y-50373866D01*
X62904761Y-49754819D02*
X62238095Y-49754819D01*
X62238095Y-49754819D02*
X62904761Y-50754819D01*
X62904761Y-50754819D02*
X62238095Y-50754819D01*
X61857142Y-50373866D02*
X61095238Y-50373866D01*
X60619047Y-50231009D02*
X60285714Y-50231009D01*
X60142857Y-50754819D02*
X60619047Y-50754819D01*
X60619047Y-50754819D02*
X60619047Y-49754819D01*
X60619047Y-49754819D02*
X60142857Y-49754819D01*
X70880951Y-52254819D02*
X70880951Y-51254819D01*
X70880951Y-51254819D02*
X70499999Y-51254819D01*
X70499999Y-51254819D02*
X70404761Y-51302438D01*
X70404761Y-51302438D02*
X70357142Y-51350057D01*
X70357142Y-51350057D02*
X70309523Y-51445295D01*
X70309523Y-51445295D02*
X70309523Y-51588152D01*
X70309523Y-51588152D02*
X70357142Y-51683390D01*
X70357142Y-51683390D02*
X70404761Y-51731009D01*
X70404761Y-51731009D02*
X70499999Y-51778628D01*
X70499999Y-51778628D02*
X70880951Y-51778628D01*
X69690475Y-51254819D02*
X69499999Y-51254819D01*
X69499999Y-51254819D02*
X69404761Y-51302438D01*
X69404761Y-51302438D02*
X69309523Y-51397676D01*
X69309523Y-51397676D02*
X69261904Y-51588152D01*
X69261904Y-51588152D02*
X69261904Y-51921485D01*
X69261904Y-51921485D02*
X69309523Y-52111961D01*
X69309523Y-52111961D02*
X69404761Y-52207200D01*
X69404761Y-52207200D02*
X69499999Y-52254819D01*
X69499999Y-52254819D02*
X69690475Y-52254819D01*
X69690475Y-52254819D02*
X69785713Y-52207200D01*
X69785713Y-52207200D02*
X69880951Y-52111961D01*
X69880951Y-52111961D02*
X69928570Y-51921485D01*
X69928570Y-51921485D02*
X69928570Y-51588152D01*
X69928570Y-51588152D02*
X69880951Y-51397676D01*
X69880951Y-51397676D02*
X69785713Y-51302438D01*
X69785713Y-51302438D02*
X69690475Y-51254819D01*
X68928570Y-51254819D02*
X68690475Y-52254819D01*
X68690475Y-52254819D02*
X68499999Y-51540533D01*
X68499999Y-51540533D02*
X68309523Y-52254819D01*
X68309523Y-52254819D02*
X68071428Y-51254819D01*
X67690475Y-51731009D02*
X67357142Y-51731009D01*
X67214285Y-52254819D02*
X67690475Y-52254819D01*
X67690475Y-52254819D02*
X67690475Y-51254819D01*
X67690475Y-51254819D02*
X67214285Y-51254819D01*
X66214285Y-52254819D02*
X66547618Y-51778628D01*
X66785713Y-52254819D02*
X66785713Y-51254819D01*
X66785713Y-51254819D02*
X66404761Y-51254819D01*
X66404761Y-51254819D02*
X66309523Y-51302438D01*
X66309523Y-51302438D02*
X66261904Y-51350057D01*
X66261904Y-51350057D02*
X66214285Y-51445295D01*
X66214285Y-51445295D02*
X66214285Y-51588152D01*
X66214285Y-51588152D02*
X66261904Y-51683390D01*
X66261904Y-51683390D02*
X66309523Y-51731009D01*
X66309523Y-51731009D02*
X66404761Y-51778628D01*
X66404761Y-51778628D02*
X66785713Y-51778628D01*
X65071427Y-52207200D02*
X64928570Y-52254819D01*
X64928570Y-52254819D02*
X64690475Y-52254819D01*
X64690475Y-52254819D02*
X64595237Y-52207200D01*
X64595237Y-52207200D02*
X64547618Y-52159580D01*
X64547618Y-52159580D02*
X64499999Y-52064342D01*
X64499999Y-52064342D02*
X64499999Y-51969104D01*
X64499999Y-51969104D02*
X64547618Y-51873866D01*
X64547618Y-51873866D02*
X64595237Y-51826247D01*
X64595237Y-51826247D02*
X64690475Y-51778628D01*
X64690475Y-51778628D02*
X64880951Y-51731009D01*
X64880951Y-51731009D02*
X64976189Y-51683390D01*
X64976189Y-51683390D02*
X65023808Y-51635771D01*
X65023808Y-51635771D02*
X65071427Y-51540533D01*
X65071427Y-51540533D02*
X65071427Y-51445295D01*
X65071427Y-51445295D02*
X65023808Y-51350057D01*
X65023808Y-51350057D02*
X64976189Y-51302438D01*
X64976189Y-51302438D02*
X64880951Y-51254819D01*
X64880951Y-51254819D02*
X64642856Y-51254819D01*
X64642856Y-51254819D02*
X64499999Y-51302438D01*
X64166665Y-51254819D02*
X63928570Y-52254819D01*
X63928570Y-52254819D02*
X63738094Y-51540533D01*
X63738094Y-51540533D02*
X63547618Y-52254819D01*
X63547618Y-52254819D02*
X63309523Y-51254819D01*
X62928570Y-52254819D02*
X62928570Y-51254819D01*
X62595237Y-51254819D02*
X62023809Y-51254819D01*
X62309523Y-52254819D02*
X62309523Y-51254819D01*
X61119047Y-52159580D02*
X61166666Y-52207200D01*
X61166666Y-52207200D02*
X61309523Y-52254819D01*
X61309523Y-52254819D02*
X61404761Y-52254819D01*
X61404761Y-52254819D02*
X61547618Y-52207200D01*
X61547618Y-52207200D02*
X61642856Y-52111961D01*
X61642856Y-52111961D02*
X61690475Y-52016723D01*
X61690475Y-52016723D02*
X61738094Y-51826247D01*
X61738094Y-51826247D02*
X61738094Y-51683390D01*
X61738094Y-51683390D02*
X61690475Y-51492914D01*
X61690475Y-51492914D02*
X61642856Y-51397676D01*
X61642856Y-51397676D02*
X61547618Y-51302438D01*
X61547618Y-51302438D02*
X61404761Y-51254819D01*
X61404761Y-51254819D02*
X61309523Y-51254819D01*
X61309523Y-51254819D02*
X61166666Y-51302438D01*
X61166666Y-51302438D02*
X61119047Y-51350057D01*
X60690475Y-52254819D02*
X60690475Y-51254819D01*
X60690475Y-51731009D02*
X60119047Y-51731009D01*
X60119047Y-52254819D02*
X60119047Y-51254819D01*
X54647619Y-45954819D02*
X54647619Y-44954819D01*
X54076191Y-45954819D02*
X54504762Y-45383390D01*
X54076191Y-44954819D02*
X54647619Y-45526247D01*
X53219048Y-45954819D02*
X53219048Y-45431009D01*
X53219048Y-45431009D02*
X53266667Y-45335771D01*
X53266667Y-45335771D02*
X53361905Y-45288152D01*
X53361905Y-45288152D02*
X53552381Y-45288152D01*
X53552381Y-45288152D02*
X53647619Y-45335771D01*
X53219048Y-45907200D02*
X53314286Y-45954819D01*
X53314286Y-45954819D02*
X53552381Y-45954819D01*
X53552381Y-45954819D02*
X53647619Y-45907200D01*
X53647619Y-45907200D02*
X53695238Y-45811961D01*
X53695238Y-45811961D02*
X53695238Y-45716723D01*
X53695238Y-45716723D02*
X53647619Y-45621485D01*
X53647619Y-45621485D02*
X53552381Y-45573866D01*
X53552381Y-45573866D02*
X53314286Y-45573866D01*
X53314286Y-45573866D02*
X53219048Y-45526247D01*
X52885714Y-45288152D02*
X52504762Y-45288152D01*
X52742857Y-44954819D02*
X52742857Y-45811961D01*
X52742857Y-45811961D02*
X52695238Y-45907200D01*
X52695238Y-45907200D02*
X52600000Y-45954819D01*
X52600000Y-45954819D02*
X52504762Y-45954819D01*
X51742857Y-45954819D02*
X51742857Y-45431009D01*
X51742857Y-45431009D02*
X51790476Y-45335771D01*
X51790476Y-45335771D02*
X51885714Y-45288152D01*
X51885714Y-45288152D02*
X52076190Y-45288152D01*
X52076190Y-45288152D02*
X52171428Y-45335771D01*
X51742857Y-45907200D02*
X51838095Y-45954819D01*
X51838095Y-45954819D02*
X52076190Y-45954819D01*
X52076190Y-45954819D02*
X52171428Y-45907200D01*
X52171428Y-45907200D02*
X52219047Y-45811961D01*
X52219047Y-45811961D02*
X52219047Y-45716723D01*
X52219047Y-45716723D02*
X52171428Y-45621485D01*
X52171428Y-45621485D02*
X52076190Y-45573866D01*
X52076190Y-45573866D02*
X51838095Y-45573866D01*
X51838095Y-45573866D02*
X51742857Y-45526247D01*
X51266666Y-45288152D02*
X51266666Y-45954819D01*
X51266666Y-45383390D02*
X51219047Y-45335771D01*
X51219047Y-45335771D02*
X51123809Y-45288152D01*
X51123809Y-45288152D02*
X50980952Y-45288152D01*
X50980952Y-45288152D02*
X50885714Y-45335771D01*
X50885714Y-45335771D02*
X50838095Y-45431009D01*
X50838095Y-45431009D02*
X50838095Y-45954819D01*
X50219047Y-45954819D02*
X50314285Y-45907200D01*
X50314285Y-45907200D02*
X50361904Y-45859580D01*
X50361904Y-45859580D02*
X50409523Y-45764342D01*
X50409523Y-45764342D02*
X50409523Y-45478628D01*
X50409523Y-45478628D02*
X50361904Y-45383390D01*
X50361904Y-45383390D02*
X50314285Y-45335771D01*
X50314285Y-45335771D02*
X50219047Y-45288152D01*
X50219047Y-45288152D02*
X50076190Y-45288152D01*
X50076190Y-45288152D02*
X49980952Y-45335771D01*
X49980952Y-45335771D02*
X49933333Y-45383390D01*
X49933333Y-45383390D02*
X49885714Y-45478628D01*
X49885714Y-45478628D02*
X49885714Y-45764342D01*
X49885714Y-45764342D02*
X49933333Y-45859580D01*
X49933333Y-45859580D02*
X49980952Y-45907200D01*
X49980952Y-45907200D02*
X50076190Y-45954819D01*
X50076190Y-45954819D02*
X50219047Y-45954819D01*
X49457142Y-45954819D02*
X49457142Y-45288152D01*
X49457142Y-45478628D02*
X49409523Y-45383390D01*
X49409523Y-45383390D02*
X49361904Y-45335771D01*
X49361904Y-45335771D02*
X49266666Y-45288152D01*
X49266666Y-45288152D02*
X49171428Y-45288152D01*
X48838094Y-45954819D02*
X48838094Y-45288152D01*
X48838094Y-44954819D02*
X48885713Y-45002438D01*
X48885713Y-45002438D02*
X48838094Y-45050057D01*
X48838094Y-45050057D02*
X48790475Y-45002438D01*
X48790475Y-45002438D02*
X48838094Y-44954819D01*
X48838094Y-44954819D02*
X48838094Y-45050057D01*
X47695237Y-45288152D02*
X47457142Y-45954819D01*
X47457142Y-45954819D02*
X47219047Y-45288152D01*
X46457142Y-45907200D02*
X46552380Y-45954819D01*
X46552380Y-45954819D02*
X46742856Y-45954819D01*
X46742856Y-45954819D02*
X46838094Y-45907200D01*
X46838094Y-45907200D02*
X46885713Y-45811961D01*
X46885713Y-45811961D02*
X46885713Y-45431009D01*
X46885713Y-45431009D02*
X46838094Y-45335771D01*
X46838094Y-45335771D02*
X46742856Y-45288152D01*
X46742856Y-45288152D02*
X46552380Y-45288152D01*
X46552380Y-45288152D02*
X46457142Y-45335771D01*
X46457142Y-45335771D02*
X46409523Y-45431009D01*
X46409523Y-45431009D02*
X46409523Y-45526247D01*
X46409523Y-45526247D02*
X46885713Y-45621485D01*
X45980951Y-45954819D02*
X45980951Y-45288152D01*
X45980951Y-45478628D02*
X45933332Y-45383390D01*
X45933332Y-45383390D02*
X45885713Y-45335771D01*
X45885713Y-45335771D02*
X45790475Y-45288152D01*
X45790475Y-45288152D02*
X45695237Y-45288152D01*
X44933332Y-44954819D02*
X45123808Y-44954819D01*
X45123808Y-44954819D02*
X45219046Y-45002438D01*
X45219046Y-45002438D02*
X45266665Y-45050057D01*
X45266665Y-45050057D02*
X45361903Y-45192914D01*
X45361903Y-45192914D02*
X45409522Y-45383390D01*
X45409522Y-45383390D02*
X45409522Y-45764342D01*
X45409522Y-45764342D02*
X45361903Y-45859580D01*
X45361903Y-45859580D02*
X45314284Y-45907200D01*
X45314284Y-45907200D02*
X45219046Y-45954819D01*
X45219046Y-45954819D02*
X45028570Y-45954819D01*
X45028570Y-45954819D02*
X44933332Y-45907200D01*
X44933332Y-45907200D02*
X44885713Y-45859580D01*
X44885713Y-45859580D02*
X44838094Y-45764342D01*
X44838094Y-45764342D02*
X44838094Y-45526247D01*
X44838094Y-45526247D02*
X44885713Y-45431009D01*
X44885713Y-45431009D02*
X44933332Y-45383390D01*
X44933332Y-45383390D02*
X45028570Y-45335771D01*
X45028570Y-45335771D02*
X45219046Y-45335771D01*
X45219046Y-45335771D02*
X45314284Y-45383390D01*
X45314284Y-45383390D02*
X45361903Y-45431009D01*
X45361903Y-45431009D02*
X45409522Y-45526247D01*
X44409522Y-45859580D02*
X44361903Y-45907200D01*
X44361903Y-45907200D02*
X44409522Y-45954819D01*
X44409522Y-45954819D02*
X44457141Y-45907200D01*
X44457141Y-45907200D02*
X44409522Y-45859580D01*
X44409522Y-45859580D02*
X44409522Y-45954819D01*
X43409523Y-45954819D02*
X43980951Y-45954819D01*
X43695237Y-45954819D02*
X43695237Y-44954819D01*
X43695237Y-44954819D02*
X43790475Y-45097676D01*
X43790475Y-45097676D02*
X43885713Y-45192914D01*
X43885713Y-45192914D02*
X43980951Y-45240533D01*
X42980951Y-45288152D02*
X42980951Y-45954819D01*
X42980951Y-45383390D02*
X42933332Y-45335771D01*
X42933332Y-45335771D02*
X42838094Y-45288152D01*
X42838094Y-45288152D02*
X42695237Y-45288152D01*
X42695237Y-45288152D02*
X42599999Y-45335771D01*
X42599999Y-45335771D02*
X42552380Y-45431009D01*
X42552380Y-45431009D02*
X42552380Y-45954819D01*
X53457142Y-46550057D02*
X53409523Y-46502438D01*
X53409523Y-46502438D02*
X53314285Y-46454819D01*
X53314285Y-46454819D02*
X53076190Y-46454819D01*
X53076190Y-46454819D02*
X52980952Y-46502438D01*
X52980952Y-46502438D02*
X52933333Y-46550057D01*
X52933333Y-46550057D02*
X52885714Y-46645295D01*
X52885714Y-46645295D02*
X52885714Y-46740533D01*
X52885714Y-46740533D02*
X52933333Y-46883390D01*
X52933333Y-46883390D02*
X53504761Y-47454819D01*
X53504761Y-47454819D02*
X52885714Y-47454819D01*
X52266666Y-46454819D02*
X52171428Y-46454819D01*
X52171428Y-46454819D02*
X52076190Y-46502438D01*
X52076190Y-46502438D02*
X52028571Y-46550057D01*
X52028571Y-46550057D02*
X51980952Y-46645295D01*
X51980952Y-46645295D02*
X51933333Y-46835771D01*
X51933333Y-46835771D02*
X51933333Y-47073866D01*
X51933333Y-47073866D02*
X51980952Y-47264342D01*
X51980952Y-47264342D02*
X52028571Y-47359580D01*
X52028571Y-47359580D02*
X52076190Y-47407200D01*
X52076190Y-47407200D02*
X52171428Y-47454819D01*
X52171428Y-47454819D02*
X52266666Y-47454819D01*
X52266666Y-47454819D02*
X52361904Y-47407200D01*
X52361904Y-47407200D02*
X52409523Y-47359580D01*
X52409523Y-47359580D02*
X52457142Y-47264342D01*
X52457142Y-47264342D02*
X52504761Y-47073866D01*
X52504761Y-47073866D02*
X52504761Y-46835771D01*
X52504761Y-46835771D02*
X52457142Y-46645295D01*
X52457142Y-46645295D02*
X52409523Y-46550057D01*
X52409523Y-46550057D02*
X52361904Y-46502438D01*
X52361904Y-46502438D02*
X52266666Y-46454819D01*
X51552380Y-46550057D02*
X51504761Y-46502438D01*
X51504761Y-46502438D02*
X51409523Y-46454819D01*
X51409523Y-46454819D02*
X51171428Y-46454819D01*
X51171428Y-46454819D02*
X51076190Y-46502438D01*
X51076190Y-46502438D02*
X51028571Y-46550057D01*
X51028571Y-46550057D02*
X50980952Y-46645295D01*
X50980952Y-46645295D02*
X50980952Y-46740533D01*
X50980952Y-46740533D02*
X51028571Y-46883390D01*
X51028571Y-46883390D02*
X51599999Y-47454819D01*
X51599999Y-47454819D02*
X50980952Y-47454819D01*
X50123809Y-46454819D02*
X50314285Y-46454819D01*
X50314285Y-46454819D02*
X50409523Y-46502438D01*
X50409523Y-46502438D02*
X50457142Y-46550057D01*
X50457142Y-46550057D02*
X50552380Y-46692914D01*
X50552380Y-46692914D02*
X50599999Y-46883390D01*
X50599999Y-46883390D02*
X50599999Y-47264342D01*
X50599999Y-47264342D02*
X50552380Y-47359580D01*
X50552380Y-47359580D02*
X50504761Y-47407200D01*
X50504761Y-47407200D02*
X50409523Y-47454819D01*
X50409523Y-47454819D02*
X50219047Y-47454819D01*
X50219047Y-47454819D02*
X50123809Y-47407200D01*
X50123809Y-47407200D02*
X50076190Y-47359580D01*
X50076190Y-47359580D02*
X50028571Y-47264342D01*
X50028571Y-47264342D02*
X50028571Y-47026247D01*
X50028571Y-47026247D02*
X50076190Y-46931009D01*
X50076190Y-46931009D02*
X50123809Y-46883390D01*
X50123809Y-46883390D02*
X50219047Y-46835771D01*
X50219047Y-46835771D02*
X50409523Y-46835771D01*
X50409523Y-46835771D02*
X50504761Y-46883390D01*
X50504761Y-46883390D02*
X50552380Y-46931009D01*
X50552380Y-46931009D02*
X50599999Y-47026247D01*
X49599999Y-47073866D02*
X48838095Y-47073866D01*
X48171428Y-46454819D02*
X48076190Y-46454819D01*
X48076190Y-46454819D02*
X47980952Y-46502438D01*
X47980952Y-46502438D02*
X47933333Y-46550057D01*
X47933333Y-46550057D02*
X47885714Y-46645295D01*
X47885714Y-46645295D02*
X47838095Y-46835771D01*
X47838095Y-46835771D02*
X47838095Y-47073866D01*
X47838095Y-47073866D02*
X47885714Y-47264342D01*
X47885714Y-47264342D02*
X47933333Y-47359580D01*
X47933333Y-47359580D02*
X47980952Y-47407200D01*
X47980952Y-47407200D02*
X48076190Y-47454819D01*
X48076190Y-47454819D02*
X48171428Y-47454819D01*
X48171428Y-47454819D02*
X48266666Y-47407200D01*
X48266666Y-47407200D02*
X48314285Y-47359580D01*
X48314285Y-47359580D02*
X48361904Y-47264342D01*
X48361904Y-47264342D02*
X48409523Y-47073866D01*
X48409523Y-47073866D02*
X48409523Y-46835771D01*
X48409523Y-46835771D02*
X48361904Y-46645295D01*
X48361904Y-46645295D02*
X48314285Y-46550057D01*
X48314285Y-46550057D02*
X48266666Y-46502438D01*
X48266666Y-46502438D02*
X48171428Y-46454819D01*
X47361904Y-47454819D02*
X47171428Y-47454819D01*
X47171428Y-47454819D02*
X47076190Y-47407200D01*
X47076190Y-47407200D02*
X47028571Y-47359580D01*
X47028571Y-47359580D02*
X46933333Y-47216723D01*
X46933333Y-47216723D02*
X46885714Y-47026247D01*
X46885714Y-47026247D02*
X46885714Y-46645295D01*
X46885714Y-46645295D02*
X46933333Y-46550057D01*
X46933333Y-46550057D02*
X46980952Y-46502438D01*
X46980952Y-46502438D02*
X47076190Y-46454819D01*
X47076190Y-46454819D02*
X47266666Y-46454819D01*
X47266666Y-46454819D02*
X47361904Y-46502438D01*
X47361904Y-46502438D02*
X47409523Y-46550057D01*
X47409523Y-46550057D02*
X47457142Y-46645295D01*
X47457142Y-46645295D02*
X47457142Y-46883390D01*
X47457142Y-46883390D02*
X47409523Y-46978628D01*
X47409523Y-46978628D02*
X47361904Y-47026247D01*
X47361904Y-47026247D02*
X47266666Y-47073866D01*
X47266666Y-47073866D02*
X47076190Y-47073866D01*
X47076190Y-47073866D02*
X46980952Y-47026247D01*
X46980952Y-47026247D02*
X46933333Y-46978628D01*
X46933333Y-46978628D02*
X46885714Y-46883390D01*
X46457142Y-47073866D02*
X45695238Y-47073866D01*
X45266666Y-46550057D02*
X45219047Y-46502438D01*
X45219047Y-46502438D02*
X45123809Y-46454819D01*
X45123809Y-46454819D02*
X44885714Y-46454819D01*
X44885714Y-46454819D02*
X44790476Y-46502438D01*
X44790476Y-46502438D02*
X44742857Y-46550057D01*
X44742857Y-46550057D02*
X44695238Y-46645295D01*
X44695238Y-46645295D02*
X44695238Y-46740533D01*
X44695238Y-46740533D02*
X44742857Y-46883390D01*
X44742857Y-46883390D02*
X45314285Y-47454819D01*
X45314285Y-47454819D02*
X44695238Y-47454819D01*
X44076190Y-46454819D02*
X43980952Y-46454819D01*
X43980952Y-46454819D02*
X43885714Y-46502438D01*
X43885714Y-46502438D02*
X43838095Y-46550057D01*
X43838095Y-46550057D02*
X43790476Y-46645295D01*
X43790476Y-46645295D02*
X43742857Y-46835771D01*
X43742857Y-46835771D02*
X43742857Y-47073866D01*
X43742857Y-47073866D02*
X43790476Y-47264342D01*
X43790476Y-47264342D02*
X43838095Y-47359580D01*
X43838095Y-47359580D02*
X43885714Y-47407200D01*
X43885714Y-47407200D02*
X43980952Y-47454819D01*
X43980952Y-47454819D02*
X44076190Y-47454819D01*
X44076190Y-47454819D02*
X44171428Y-47407200D01*
X44171428Y-47407200D02*
X44219047Y-47359580D01*
X44219047Y-47359580D02*
X44266666Y-47264342D01*
X44266666Y-47264342D02*
X44314285Y-47073866D01*
X44314285Y-47073866D02*
X44314285Y-46835771D01*
X44314285Y-46835771D02*
X44266666Y-46645295D01*
X44266666Y-46645295D02*
X44219047Y-46550057D01*
X44219047Y-46550057D02*
X44171428Y-46502438D01*
X44171428Y-46502438D02*
X44076190Y-46454819D01*
D11*
X46762500Y-49900000D02*
G75*
G02*
X45187500Y-49900000I-787500J0D01*
G01*
X45187500Y-49900000D02*
G75*
G02*
X46762500Y-49900000I787500J0D01*
G01*
X52012500Y-49900000D02*
G75*
G02*
X50437500Y-49900000I-787500J0D01*
G01*
X50437500Y-49900000D02*
G75*
G02*
X52012500Y-49900000I787500J0D01*
G01*
D10*
X47288000Y-52080000D02*
X49913000Y-52080000D01*
X49913000Y-52595000D01*
X47288000Y-52595000D01*
X47288000Y-52080000D01*
G36*
X47288000Y-52080000D02*
G01*
X49913000Y-52080000D01*
X49913000Y-52595000D01*
X47288000Y-52595000D01*
X47288000Y-52080000D01*
G37*
%TO.C,J10*%
X113590000Y-58090000D02*
X114840000Y-58090000D01*
X115200000Y-58390000D02*
X115200000Y-59000000D01*
X116500000Y-58390000D02*
X116500000Y-59000000D01*
X114500000Y-59000000D02*
X118000000Y-59000000D01*
X118000000Y-59000000D02*
X118000000Y-63900000D01*
X113590000Y-59340000D02*
X113590000Y-58090000D01*
X113690000Y-59850000D02*
X113890000Y-59850000D01*
X113690000Y-60150000D02*
X113690000Y-59850000D01*
X113790000Y-60150000D02*
X113790000Y-59850000D01*
X113890000Y-60150000D02*
X113690000Y-60150000D01*
X113890000Y-60950000D02*
X114500000Y-60950000D01*
X114500000Y-60950000D02*
X114500000Y-59000000D01*
X117500000Y-61350000D02*
X117500000Y-61550000D01*
X118000000Y-61350000D02*
X117500000Y-61350000D01*
X118000000Y-61450000D02*
X117500000Y-61450000D01*
X117500000Y-61550000D02*
X118000000Y-61550000D01*
X114500000Y-61950000D02*
X113890000Y-61950000D01*
X114500000Y-63900000D02*
X114500000Y-61950000D01*
X118000000Y-63900000D02*
X114500000Y-63900000D01*
X115200000Y-64510000D02*
X115200000Y-63900000D01*
X116500000Y-64510000D02*
X116500000Y-63900000D01*
X113890000Y-58390000D02*
X118610000Y-58390000D01*
X118610000Y-64510000D01*
X113890000Y-64510000D01*
X113890000Y-58390000D01*
%TD*%
M02*
