%TF.GenerationSoftware,KiCad,Pcbnew,10.0.6*%
%TF.CreationDate,2026-09-19T22:53:03+09:00*%
%TF.ProjectId,katanori61,6b617461-6e6f-4726-9936-312e6b696361,rev?*%
%TF.SameCoordinates,Original*%
%TF.FileFunction,Copper,L3,Inr*%
%TF.FilePolarity,Positive*%
%FSLAX46Y46*%
G04 Gerber Fmt 4.6, Leading zero omitted, Abs format (unit mm)*
G04 Created by KiCad (PCBNEW 10.0.6) date 2026-09-19 22:53:03*
%MOMM*%
%LPD*%
G01*
G04 APERTURE LIST*
G04 Aperture macros list*
%AMRoundRect*
0 Rectangle with rounded corners*
0 $1 Rounding radius*
0 $2 $3 $4 $5 $6 $7 $8 $9 X,Y pos of 4 corners*
0 Add a 4 corners polygon primitive as box body*
4,1,4,$2,$3,$4,$5,$6,$7,$8,$9,$2,$3,0*
0 Add four circle primitives for the rounded corners*
1,1,$1+$1,$2,$3*
1,1,$1+$1,$4,$5*
1,1,$1+$1,$6,$7*
1,1,$1+$1,$8,$9*
0 Add four rect primitives between the rounded corners*
20,1,$1+$1,$2,$3,$4,$5,0*
20,1,$1+$1,$4,$5,$6,$7,0*
20,1,$1+$1,$6,$7,$8,$9,0*
20,1,$1+$1,$8,$9,$2,$3,0*%
G04 Aperture macros list end*
%TA.AperFunction,ComponentPad*%
%ADD10C,1.600000*%
%TD*%
%TA.AperFunction,ComponentPad*%
%ADD11RoundRect,0.250000X-0.350000X-0.625000X0.350000X-0.625000X0.350000X0.625000X-0.350000X0.625000X0*%
%TD*%
%TA.AperFunction,ComponentPad*%
%ADD12O,1.200000X1.750000*%
%TD*%
%TA.AperFunction,ComponentPad*%
%ADD13RoundRect,0.250000X-0.625000X0.350000X-0.625000X-0.350000X0.625000X-0.350000X0.625000X0.350000X0*%
%TD*%
%TA.AperFunction,ComponentPad*%
%ADD14O,1.750000X1.200000*%
%TD*%
%TA.AperFunction,ComponentPad*%
%ADD15R,1.700000X1.700000*%
%TD*%
%TA.AperFunction,ComponentPad*%
%ADD16C,1.700000*%
%TD*%
%TA.AperFunction,ComponentPad*%
%ADD17O,1.000000X2.100000*%
%TD*%
%TA.AperFunction,ComponentPad*%
%ADD18O,1.000000X1.600000*%
%TD*%
%TA.AperFunction,ViaPad*%
%ADD19C,0.600000*%
%TD*%
%TA.AperFunction,Conductor*%
%ADD20C,0.200000*%
%TD*%
%TA.AperFunction,Conductor*%
%ADD21C,0.600000*%
%TD*%
%TA.AperFunction,Conductor*%
%ADD22C,0.800000*%
%TD*%
%TA.AperFunction,Conductor*%
%ADD23C,0.400000*%
%TD*%
G04 APERTURE END LIST*
D10*
%TO.N,GND*%
%TO.C,SW2*%
X62450000Y-45000000D03*
%TO.N,unconnected-(SW2-COM_A-Pad2)*%
X62450000Y-47000000D03*
%TO.N,EN*%
X68550000Y-45000000D03*
%TO.N,unconnected-(SW2-B4-Pad4)*%
X68550000Y-47000000D03*
%TO.N,unconnected-(SW2-B5-Pad5)*%
X64500000Y-48000000D03*
%TO.N,unconnected-(SW2-B6-Pad6)*%
X66500000Y-48000000D03*
%TD*%
D11*
%TO.N,SPKP*%
%TO.C,J4*%
X114300000Y-67850000D03*
D12*
%TO.N,SPKM*%
X116300000Y-67850000D03*
%TD*%
D13*
%TO.N,SPKM*%
%TO.C,J5*%
X51950000Y-59000000D03*
D14*
%TO.N,SPKO*%
X51950000Y-61000000D03*
%TD*%
D11*
%TO.N,GND*%
%TO.C,J6*%
X56500000Y-43750000D03*
D12*
%TO.N,BTN*%
X58500000Y-43750000D03*
%TD*%
D11*
%TO.N,EN*%
%TO.C,J7*%
X102700000Y-43750000D03*
D12*
%TO.N,GND*%
X104700000Y-43750000D03*
%TD*%
D13*
%TO.N,GND*%
%TO.C,J10*%
X115700000Y-60450000D03*
D14*
%TO.N,BATRAW*%
X115700000Y-62450000D03*
%TD*%
D15*
%TO.N,V5*%
%TO.C,J1*%
X41770000Y-65295000D03*
D16*
%TO.N,GND*%
X44310000Y-65295000D03*
%TO.N,V33*%
X46850000Y-65295000D03*
%TO.N,SDA*%
X49390000Y-65295000D03*
%TO.N,SCL*%
X51930000Y-65295000D03*
%TO.N,BTN*%
X54470000Y-65295000D03*
%TO.N,IN*%
X57010000Y-65295000D03*
%TD*%
D15*
%TO.N,GND*%
%TO.C,J2*%
X77240000Y-72630000D03*
D16*
%TO.N,V33*%
X79780000Y-72630000D03*
%TO.N,SCL*%
X82320000Y-72630000D03*
%TO.N,SDA*%
X84860000Y-72630000D03*
%TD*%
D17*
%TO.N,GND*%
%TO.C,J13*%
X85332000Y-45480000D03*
D18*
X85332000Y-41300000D03*
D17*
X76692000Y-45480000D03*
D18*
X76692000Y-41300000D03*
%TD*%
D19*
%TO.N,GND*%
X61325000Y-62425000D03*
X61325000Y-63775000D03*
X62675000Y-62425000D03*
X62675000Y-63775000D03*
X72875000Y-61475000D03*
X72875000Y-62725000D03*
X74125000Y-61475000D03*
X74125000Y-62725000D03*
%TO.N,V5*%
X64325000Y-70390000D03*
%TO.N,BATRAW*%
X87495000Y-63400000D03*
%TO.N,VBUS*%
X78562000Y-48095000D03*
X72225000Y-58650000D03*
%TO.N,GND*%
X73500000Y-55750000D03*
X67275000Y-70400000D03*
X72950000Y-69000000D03*
X62750000Y-57175000D03*
X77350000Y-57075000D03*
X79850000Y-52675000D03*
X82000000Y-51525000D03*
X79900000Y-51525000D03*
%TO.N,BATG*%
X83968600Y-68825300D03*
X85255500Y-62450000D03*
%TO.N,EN*%
X75881900Y-53900000D03*
X59158800Y-63664500D03*
%TO.N,GND*%
X80445500Y-58800800D03*
X66250000Y-55649800D03*
X85881900Y-69800000D03*
X97742200Y-66544600D03*
X89609500Y-60027500D03*
X109656700Y-62306500D03*
%TO.N,IN*%
X84051700Y-61021400D03*
%TO.N,LBI*%
X59373300Y-61559300D03*
X62068600Y-55565100D03*
%TO.N,PROG1*%
X77162500Y-67875400D03*
X77050000Y-62100000D03*
%TO.N,SCL*%
X78789000Y-69099000D03*
X79341300Y-58483600D03*
X57000800Y-58849800D03*
%TO.N,SDA*%
X70962500Y-54938700D03*
X57148300Y-62996200D03*
X109681200Y-64331500D03*
%TO.N,SPKO*%
X94278300Y-45590000D03*
%TO.N,SPKP*%
X97464900Y-48130000D03*
%TO.N,V33*%
X87317400Y-54388300D03*
X55121100Y-61900900D03*
X97736200Y-61591800D03*
%TO.N,V5*%
X93448300Y-58600000D03*
%TO.N,VBUS*%
X83462000Y-47583100D03*
X74000000Y-65000700D03*
X70680800Y-62100000D03*
%TO.N,VSYS*%
X71152400Y-59440100D03*
X71643700Y-53900000D03*
X69000000Y-61095100D03*
%TO.N,GND*%
X41000000Y-73200000D03*
X41000000Y-70000000D03*
X41000000Y-60400000D03*
X41000000Y-57200000D03*
X41000000Y-54000000D03*
X41000000Y-50800000D03*
X41000000Y-47600000D03*
X41000000Y-44400000D03*
X44200000Y-76400000D03*
X44200000Y-50800000D03*
X44200000Y-47600000D03*
X44200000Y-41200000D03*
X47400000Y-76400000D03*
X47400000Y-73200000D03*
X47400000Y-60400000D03*
X47400000Y-57200000D03*
X47400000Y-54000000D03*
X47400000Y-47600000D03*
X47400000Y-44400000D03*
X47400000Y-41200000D03*
X50600000Y-76400000D03*
X50600000Y-73200000D03*
X50600000Y-44400000D03*
X50600000Y-41200000D03*
X53800000Y-76400000D03*
X53800000Y-73200000D03*
X53800000Y-63600000D03*
X53800000Y-54000000D03*
X53800000Y-50800000D03*
X53800000Y-41200000D03*
X57000000Y-76400000D03*
X57000000Y-73200000D03*
X57000000Y-50800000D03*
X57000000Y-47600000D03*
X57000000Y-41200000D03*
X60200000Y-76400000D03*
X60200000Y-73200000D03*
X60200000Y-47600000D03*
X60200000Y-44400000D03*
X60200000Y-41200000D03*
X63400000Y-76400000D03*
X63400000Y-41200000D03*
X66600000Y-76400000D03*
X66600000Y-41200000D03*
X69800000Y-76400000D03*
X69800000Y-41200000D03*
X73000000Y-76400000D03*
X73000000Y-41200000D03*
X76200000Y-76400000D03*
X79400000Y-76400000D03*
X79400000Y-44400000D03*
X79400000Y-41200000D03*
X82600000Y-76400000D03*
X82600000Y-44400000D03*
X82600000Y-41200000D03*
X85800000Y-76400000D03*
X89000000Y-76400000D03*
X89000000Y-70000000D03*
X89000000Y-41200000D03*
X92200000Y-76400000D03*
X92200000Y-70000000D03*
X92200000Y-54000000D03*
X92200000Y-50800000D03*
X92200000Y-41200000D03*
X95400000Y-76400000D03*
X95400000Y-54000000D03*
X95400000Y-41200000D03*
X98600000Y-76400000D03*
X98600000Y-54000000D03*
X98600000Y-50800000D03*
X98600000Y-41200000D03*
X101800000Y-76400000D03*
X101800000Y-66800000D03*
X101800000Y-57200000D03*
X101800000Y-54000000D03*
X101800000Y-47600000D03*
X101800000Y-41200000D03*
X105000000Y-76400000D03*
X105000000Y-66800000D03*
X105000000Y-60400000D03*
X105000000Y-57200000D03*
X105000000Y-50800000D03*
X105000000Y-47600000D03*
X105000000Y-41200000D03*
X108200000Y-76400000D03*
X108200000Y-66800000D03*
X108200000Y-60400000D03*
X108200000Y-50800000D03*
X108200000Y-41200000D03*
X111400000Y-76400000D03*
X111400000Y-70000000D03*
X111400000Y-63600000D03*
X111400000Y-57200000D03*
X111400000Y-44400000D03*
X111400000Y-41200000D03*
X114600000Y-76400000D03*
X114600000Y-73200000D03*
X114600000Y-70000000D03*
X114600000Y-57200000D03*
X114600000Y-47600000D03*
X114600000Y-44400000D03*
X114600000Y-41200000D03*
X117800000Y-76400000D03*
X117800000Y-70000000D03*
X117800000Y-66800000D03*
X117800000Y-50800000D03*
X117800000Y-47600000D03*
X117800000Y-44400000D03*
X117800000Y-41200000D03*
X121000000Y-70000000D03*
X121000000Y-66800000D03*
X121000000Y-63600000D03*
X121000000Y-60400000D03*
X121000000Y-57200000D03*
X121000000Y-54000000D03*
X121000000Y-50800000D03*
X121000000Y-47600000D03*
X121000000Y-44400000D03*
%TD*%
%TO.N,BTN*%
D20*
X58500000Y-43750000D02*
X57648300Y-43750000D01*
X57648300Y-43750000D02*
X57648300Y-44601700D01*
X57648300Y-44601700D02*
X50759800Y-51490200D01*
X50759800Y-51490200D02*
X50759800Y-65733300D01*
X50759800Y-65733300D02*
X51458300Y-66431800D01*
X51458300Y-66431800D02*
X53333200Y-66431800D01*
X53333200Y-66431800D02*
X54470000Y-65295000D01*
%TO.N,EN*%
X75881900Y-53900000D02*
X75291400Y-53309500D01*
X75291400Y-53309500D02*
X65325200Y-53309500D01*
X65325200Y-53309500D02*
X59983800Y-58650900D01*
X59983800Y-58650900D02*
X59983800Y-62839600D01*
X59983800Y-62839600D02*
X59983700Y-62839600D01*
X59983700Y-62839600D02*
X59158800Y-63664500D01*
X102700000Y-43750000D02*
X97161000Y-43750000D01*
X97161000Y-43750000D02*
X87011000Y-53900000D01*
X87011000Y-53900000D02*
X75881900Y-53900000D01*
%TO.N,GND*%
X56500000Y-43750000D02*
X55648300Y-43750000D01*
X44310000Y-65295000D02*
X44310000Y-55088300D01*
X44310000Y-55088300D02*
X55648300Y-43750000D01*
X76692000Y-43943000D02*
X76692000Y-45480000D01*
X76692000Y-41300000D02*
X76692000Y-43943000D01*
X76692000Y-43943000D02*
X63507000Y-43943000D01*
X63507000Y-43943000D02*
X62450000Y-45000000D01*
X74125000Y-62725000D02*
X74579700Y-63179700D01*
X74579700Y-63179700D02*
X74579700Y-67370300D01*
X74579700Y-67370300D02*
X72950000Y-69000000D01*
X97742200Y-66544600D02*
X89137300Y-66544600D01*
X89137300Y-66544600D02*
X85881900Y-69800000D01*
X56500000Y-43750000D02*
X57626700Y-42623300D01*
X57626700Y-42623300D02*
X60073300Y-42623300D01*
X60073300Y-42623300D02*
X62450000Y-45000000D01*
X62750000Y-57175000D02*
X64724800Y-57175000D01*
X64724800Y-57175000D02*
X66250000Y-55649800D01*
X89609500Y-60027500D02*
X88382800Y-58800800D01*
X88382800Y-58800800D02*
X80445500Y-58800800D01*
X67275000Y-70400000D02*
X67275000Y-68375000D01*
X67275000Y-68375000D02*
X62675000Y-63775000D01*
X74125000Y-57075000D02*
X74125000Y-61475000D01*
X73500000Y-55750000D02*
X74125000Y-56375000D01*
X74125000Y-56375000D02*
X74125000Y-57075000D01*
X74125000Y-57075000D02*
X77350000Y-57075000D01*
X104700000Y-43750000D02*
X105551700Y-43750000D01*
X105551700Y-43750000D02*
X115700000Y-53898300D01*
X115700000Y-53898300D02*
X115700000Y-60450000D01*
X78341700Y-72630000D02*
X78341700Y-72767700D01*
X78341700Y-72767700D02*
X79308300Y-73734300D01*
X79308300Y-73734300D02*
X80249400Y-73734300D01*
X80249400Y-73734300D02*
X81050000Y-72933700D01*
X81050000Y-72933700D02*
X81050000Y-72299300D01*
X81050000Y-72299300D02*
X83549300Y-69800000D01*
X83549300Y-69800000D02*
X85881900Y-69800000D01*
X77240000Y-72630000D02*
X78341700Y-72630000D01*
X85332000Y-41300000D02*
X85332000Y-45480000D01*
X61325000Y-63775000D02*
X61325000Y-62425000D01*
X62675000Y-63775000D02*
X61325000Y-63775000D01*
X62675000Y-63775000D02*
X62675000Y-62425000D01*
X77350000Y-57075000D02*
X78719700Y-57075000D01*
X78719700Y-57075000D02*
X80445500Y-58800800D01*
X72875000Y-62725000D02*
X72875000Y-61475000D01*
X74125000Y-61475000D02*
X72875000Y-61475000D01*
X74125000Y-62725000D02*
X74125000Y-61475000D01*
X67275000Y-70400000D02*
X68675000Y-69000000D01*
X68675000Y-69000000D02*
X72950000Y-69000000D01*
X62750000Y-57175000D02*
X62675000Y-57250000D01*
X62675000Y-57250000D02*
X62675000Y-62425000D01*
X82000000Y-51525000D02*
X79900000Y-51525000D01*
X79900000Y-51525000D02*
X79900000Y-52625000D01*
X79900000Y-52625000D02*
X79850000Y-52675000D01*
%TO.N,LBI*%
X62068600Y-55565100D02*
X59373300Y-58260400D01*
X59373300Y-58260400D02*
X59373300Y-61559300D01*
%TO.N,PROG1*%
X77050000Y-62100000D02*
X77162500Y-62212500D01*
X77162500Y-62212500D02*
X77162500Y-67875400D01*
%TO.N,SCL*%
X57000800Y-58849800D02*
X56752200Y-58849800D01*
X56752200Y-58849800D02*
X51930000Y-63672000D01*
X51930000Y-63672000D02*
X51930000Y-65295000D01*
X79341300Y-58483600D02*
X79341300Y-68546700D01*
X79341300Y-68546700D02*
X78789000Y-69099000D01*
%TO.N,SDA*%
X56291300Y-63853200D02*
X55740000Y-64404500D01*
X55740000Y-64404500D02*
X55740000Y-65626100D01*
X57148300Y-62996200D02*
X56291300Y-63853200D01*
X70962500Y-54938700D02*
X64193300Y-54938700D01*
X64193300Y-54938700D02*
X60532600Y-58599400D01*
X60532600Y-58599400D02*
X60532600Y-63103600D01*
X60532600Y-63103600D02*
X59374200Y-64262000D01*
X59374200Y-64262000D02*
X58862800Y-64262000D01*
X58862800Y-64262000D02*
X58607000Y-64006200D01*
X58607000Y-64006200D02*
X58607000Y-63082400D01*
X58607000Y-63082400D02*
X56872400Y-61347800D01*
X56872400Y-61347800D02*
X54874000Y-61347800D01*
X54874000Y-61347800D02*
X54513700Y-61708100D01*
X54513700Y-61708100D02*
X54513700Y-62075600D01*
X54513700Y-62075600D02*
X56291300Y-63853200D01*
X55740000Y-65626100D02*
X64232800Y-74118900D01*
X64232800Y-74118900D02*
X83371100Y-74118900D01*
X83371100Y-74118900D02*
X84860000Y-72630000D01*
X55740000Y-65626100D02*
X54581100Y-66785000D01*
X54581100Y-66785000D02*
X50880000Y-66785000D01*
X50880000Y-66785000D02*
X49390000Y-65295000D01*
X84860000Y-72630000D02*
X106592100Y-72630000D01*
X106592100Y-72630000D02*
X109681200Y-69540900D01*
X109681200Y-69540900D02*
X109681200Y-64331500D01*
%TO.N,SPKM*%
D21*
X116300000Y-67850000D02*
X116300000Y-66523300D01*
X51950000Y-59000000D02*
X51950000Y-57948300D01*
X51950000Y-57948300D02*
X60509700Y-49388600D01*
X60509700Y-49388600D02*
X86924100Y-49388600D01*
X86924100Y-49388600D02*
X93889400Y-42423300D01*
X93889400Y-42423300D02*
X105542300Y-42423300D01*
X105542300Y-42423300D02*
X117026700Y-53907700D01*
X117026700Y-53907700D02*
X117026700Y-65796600D01*
X117026700Y-65796600D02*
X116300000Y-66523300D01*
%TO.N,SPKO*%
X53276700Y-61000000D02*
X63521600Y-50755100D01*
X63521600Y-50755100D02*
X89113300Y-50755100D01*
X89113300Y-50755100D02*
X89113300Y-50755000D01*
X89113300Y-50755000D02*
X94278300Y-45590000D01*
X51950000Y-61000000D02*
X53276700Y-61000000D01*
%TO.N,SPKP*%
X97464900Y-48130000D02*
X100408100Y-48130000D01*
X100408100Y-48130000D02*
X114300000Y-62021900D01*
X114300000Y-62021900D02*
X114300000Y-67850000D01*
%TO.N,V33*%
D20*
X79780000Y-71491900D02*
X73652500Y-71491900D01*
X73652500Y-71491900D02*
X73225800Y-71918600D01*
X73225800Y-71918600D02*
X64918600Y-71918600D01*
X64918600Y-71918600D02*
X58146500Y-65146500D01*
X58146500Y-65146500D02*
X58146500Y-63162300D01*
X58146500Y-63162300D02*
X56885100Y-61900900D01*
X56885100Y-61900900D02*
X55121100Y-61900900D01*
X79780000Y-71491900D02*
X85277500Y-65994400D01*
X85277500Y-65994400D02*
X93333600Y-65994400D01*
X93333600Y-65994400D02*
X97736200Y-61591800D01*
X79780000Y-72630000D02*
X79780000Y-71491900D01*
X97736200Y-61591800D02*
X90532700Y-54388300D01*
X90532700Y-54388300D02*
X87317400Y-54388300D01*
%TO.N,V5*%
D22*
X93448300Y-58600000D02*
X90659700Y-61388600D01*
X90659700Y-61388600D02*
X88215400Y-61388600D01*
X88215400Y-61388600D02*
X79653300Y-69950700D01*
X79653300Y-69950700D02*
X72717000Y-69950700D01*
X72717000Y-69950700D02*
X71404300Y-71263400D01*
X71404300Y-71263400D02*
X65198400Y-71263400D01*
X65198400Y-71263400D02*
X64325000Y-70390000D01*
%TO.N,VBUS*%
D20*
X70680800Y-62100000D02*
X72225000Y-60555800D01*
X72225000Y-60555800D02*
X72225000Y-58650000D01*
X74000000Y-65000700D02*
X73581500Y-65000700D01*
X73581500Y-65000700D02*
X70680800Y-62100000D01*
X83462000Y-47583100D02*
X79073900Y-47583100D01*
X79073900Y-47583100D02*
X78562000Y-48095000D01*
%TO.N,VSYS*%
D23*
X70903700Y-59191400D02*
X71152400Y-59440100D01*
X71643700Y-53900000D02*
X71643700Y-55558600D01*
X71643700Y-55558600D02*
X70903700Y-56298600D01*
X70903700Y-56298600D02*
X70903700Y-59191400D01*
X70903700Y-59191400D02*
X69000000Y-61095100D01*
%TD*%
M02*
