M48
; DRILL file KiCad 10.0.6 date 2026-09-17T04:15:05
; FORMAT={-:-/ absolute / metric / decimal}
; #@! TF.CreationDate,2026-09-17T04:15:05+09:00
; #@! TF.GenerationSoftware,Kicad,Pcbnew,10.0.6
; #@! TF.FileFunction,Plated,1,4,PTH
FMAT,2
METRIC
; #@! TA.AperFunction,Plated,PTH,ViaDrill
T1C0.300
; #@! TA.AperFunction,Plated,PTH,ComponentDrill
T2C0.600
; #@! TA.AperFunction,Plated,PTH,ComponentDrill
T3C0.750
; #@! TA.AperFunction,Plated,PTH,ComponentDrill
T4C1.000
%
G90
G05
T1
X41.0Y-44.4
X41.0Y-47.6
X41.0Y-50.8
X41.0Y-54.0
X41.0Y-57.2
X41.0Y-60.4
X41.0Y-63.6
X41.0Y-70.0
X41.0Y-73.2
X41.0Y-76.4
X44.2Y-41.2
X44.2Y-47.6
X44.2Y-50.8
X44.2Y-54.0
X44.2Y-57.2
X44.2Y-60.4
X44.2Y-70.0
X44.2Y-76.4
X47.4Y-41.2
X47.4Y-44.4
X47.4Y-47.6
X47.4Y-50.8
X47.4Y-54.0
X47.4Y-57.2
X47.4Y-70.0
X47.4Y-73.2
X47.4Y-76.4
X50.6Y-41.2
X50.6Y-44.4
X50.6Y-47.6
X50.6Y-50.8
X50.6Y-54.0
X50.6Y-63.6
X50.6Y-70.0
X50.6Y-73.2
X50.6Y-76.4
X53.2Y-62.165
X53.8Y-41.2
X53.8Y-44.4
X53.8Y-73.2
X53.8Y-76.4
X53.995Y-55.807
X56.072Y-57.902
X57.0Y-41.2
X57.0Y-76.4
X58.569Y-55.372
X58.636Y-63.725
X58.896Y-71.308
X59.157Y-64.375
X59.161Y-62.425
X60.2Y-41.2
X60.2Y-47.6
X60.2Y-76.4
X60.456Y-66.027
X61.325Y-62.725
X61.325Y-64.075
X61.526Y-55.565
X62.235Y-44.393
X62.293Y-71.308
X62.675Y-62.725
X62.675Y-64.075
X63.369Y-60.122
X63.4Y-41.2
X63.4Y-76.4
X64.855Y-64.246
X66.021Y-71.411
X66.472Y-52.547
X66.6Y-41.2
X66.6Y-44.4
X66.6Y-47.6
X66.6Y-76.4
X66.797Y-59.605
X67.938Y-55.555
X69.0Y-61.04
X69.666Y-60.302
X69.8Y-41.2
X69.8Y-44.4
X69.8Y-70.0
X69.8Y-76.4
X70.174Y-63.98
X70.898Y-63.544
X71.086Y-60.021
X71.813Y-60.43
X72.875Y-61.39
X72.875Y-62.64
X72.911Y-49.232
X73.0Y-41.2
X73.0Y-76.4
X73.365Y-52.757
X74.073Y-65.096
X74.125Y-61.39
X74.125Y-62.64
X74.609Y-73.163
X75.474Y-57.191
X75.54Y-71.375
X75.806Y-53.225
X75.952Y-60.315
X76.2Y-41.2
X76.2Y-76.4
X76.303Y-65.382
X76.851Y-58.547
X77.05Y-62.015
X78.499Y-57.537
X79.322Y-57.58
X79.4Y-41.2
X79.4Y-47.6
X79.4Y-76.4
X79.401Y-59.456
X79.462Y-44.018
X82.043Y-44.0
X82.084Y-69.52
X82.6Y-41.2
X82.6Y-50.8
X82.6Y-76.4
X82.832Y-59.703
X83.253Y-46.38
X84.201Y-53.55
X84.273Y-62.45
X84.939Y-64.152
X84.947Y-59.687
X85.8Y-41.2
X85.8Y-47.6
X85.8Y-54.0
X85.8Y-66.8
X85.8Y-76.4
X89.0Y-41.2
X89.0Y-44.4
X89.0Y-50.8
X89.0Y-54.0
X89.0Y-66.8
X89.0Y-70.0
X89.0Y-73.2
X89.0Y-76.4
X89.156Y-58.4
X92.2Y-41.2
X92.2Y-47.6
X92.2Y-50.8
X92.2Y-54.0
X92.2Y-63.6
X92.2Y-66.8
X92.2Y-70.0
X92.2Y-73.2
X92.2Y-76.4
X95.4Y-41.2
X95.4Y-47.6
X95.4Y-50.8
X95.4Y-54.0
X95.4Y-66.8
X95.4Y-70.0
X95.4Y-73.2
X95.4Y-76.4
X96.818Y-59.702
X97.445Y-51.807
X98.6Y-41.2
X98.6Y-47.6
X98.6Y-54.0
X98.6Y-66.8
X98.6Y-70.0
X98.6Y-73.2
X98.6Y-76.4
X101.8Y-41.2
X101.8Y-47.6
X101.8Y-54.0
X101.8Y-66.8
X101.8Y-70.0
X101.8Y-73.2
X101.8Y-76.4
X101.854Y-63.685
X105.0Y-41.2
X105.0Y-47.6
X105.0Y-54.0
X105.0Y-66.8
X105.0Y-70.0
X105.0Y-73.2
X105.0Y-76.4
X105.486Y-59.818
X106.726Y-62.965
X106.923Y-56.898
X108.2Y-41.2
X108.2Y-47.6
X108.2Y-54.0
X108.2Y-66.8
X108.2Y-70.0
X108.2Y-73.2
X108.2Y-76.4
X111.4Y-41.2
X111.4Y-44.4
X111.4Y-50.8
X111.4Y-54.0
X111.4Y-57.2
X111.4Y-70.0
X111.4Y-73.2
X111.4Y-76.4
X114.6Y-41.2
X114.6Y-44.4
X114.6Y-47.6
X114.6Y-54.0
X114.6Y-57.2
X114.6Y-70.0
X114.6Y-73.2
X114.6Y-76.4
X117.8Y-41.2
X117.8Y-44.4
X117.8Y-47.6
X117.8Y-50.8
X117.8Y-54.0
X117.8Y-57.2
X117.8Y-60.4
X117.8Y-63.6
X117.8Y-66.8
X117.8Y-70.0
X117.8Y-76.4
X121.0Y-41.2
X121.0Y-44.4
X121.0Y-47.6
X121.0Y-50.8
X121.0Y-54.0
X121.0Y-57.2
X121.0Y-60.4
X121.0Y-63.6
X121.0Y-66.8
X121.0Y-70.0
X121.0Y-76.4
T3
X51.95Y-59.3
X51.95Y-61.3
X56.5Y-46.85
X58.5Y-46.85
X100.5Y-43.75
X102.5Y-43.75
X104.5Y-43.75
X106.5Y-43.75
X114.3Y-67.85
X115.7Y-60.45
X115.7Y-62.45
X116.3Y-67.85
T4
X41.77Y-65.595
X44.31Y-65.595
X46.85Y-65.595
X49.39Y-65.595
X51.93Y-65.595
X54.47Y-65.595
X57.01Y-65.595
X77.24Y-72.63
X79.78Y-72.63
X82.32Y-72.63
X84.86Y-72.63
T2
X76.692Y-44.83G85X76.692Y-43.73
G05
X85.332Y-44.83G85X85.332Y-43.73
G05
M30
