%TF.GenerationSoftware,KiCad,Pcbnew,10.0.6*%
%TF.CreationDate,2026-09-17T03:25:05+09:00*%
%TF.ProjectId,katanori61,6b617461-6e6f-4726-9936-312e6b696361,rev?*%
%TF.SameCoordinates,Original*%
%TF.FileFunction,Copper,L2,Inr*%
%TF.FilePolarity,Positive*%
%FSLAX46Y46*%
G04 Gerber Fmt 4.6, Leading zero omitted, Abs format (unit mm)*
G04 Created by KiCad (PCBNEW 10.0.6) date 2026-09-17 03:25:05*
%MOMM*%
%LPD*%
G01*
G04 APERTURE LIST*
G04 Aperture macros list*
%AMRoundRect*
0 Rectangle with rounded corners*
0 $1 Rounding radius*
0 $2 $3 $4 $5 $6 $7 $8 $9 X,Y pos of 4 corners*
0 Add a 4 corners polygon primitive as box body*
4,1,4,$2,$3,$4,$5,$6,$7,$8,$9,$2,$3,0*
0 Add four circle primitives for the rounded corners*
1,1,$1+$1,$2,$3*
1,1,$1+$1,$4,$5*
1,1,$1+$1,$6,$7*
1,1,$1+$1,$8,$9*
0 Add four rect primitives between the rounded corners*
20,1,$1+$1,$2,$3,$4,$5,0*
20,1,$1+$1,$4,$5,$6,$7,0*
20,1,$1+$1,$6,$7,$8,$9,0*
20,1,$1+$1,$8,$9,$2,$3,0*%
G04 Aperture macros list end*
%TA.AperFunction,ComponentPad*%
%ADD10RoundRect,0.250000X-0.350000X-0.625000X0.350000X-0.625000X0.350000X0.625000X-0.350000X0.625000X0*%
%TD*%
%TA.AperFunction,ComponentPad*%
%ADD11O,1.200000X1.750000*%
%TD*%
%TA.AperFunction,ComponentPad*%
%ADD12RoundRect,0.250000X-0.625000X0.350000X-0.625000X-0.350000X0.625000X-0.350000X0.625000X0.350000X0*%
%TD*%
%TA.AperFunction,ComponentPad*%
%ADD13O,1.750000X1.200000*%
%TD*%
%TA.AperFunction,ComponentPad*%
%ADD14R,1.700000X1.700000*%
%TD*%
%TA.AperFunction,ComponentPad*%
%ADD15C,1.700000*%
%TD*%
%TA.AperFunction,ComponentPad*%
%ADD16O,1.000000X2.100000*%
%TD*%
%TA.AperFunction,ViaPad*%
%ADD17C,0.600000*%
%TD*%
G04 APERTURE END LIST*
D10*
%TO.N,SPKP*%
%TO.C,J4*%
X114300000Y-67850000D03*
D11*
%TO.N,SPKM*%
X116300000Y-67850000D03*
%TD*%
D12*
%TO.N,SPKM*%
%TO.C,J5*%
X51950000Y-59300000D03*
D13*
%TO.N,SPKO*%
X51950000Y-61300000D03*
%TD*%
D10*
%TO.N,GND*%
%TO.C,J6*%
X56500000Y-46850000D03*
D11*
%TO.N,BTN*%
X58500000Y-46850000D03*
%TD*%
D10*
%TO.N,EN*%
%TO.C,J7*%
X100500000Y-43750000D03*
D11*
%TO.N,GND*%
X102500000Y-43750000D03*
%TO.N,EN*%
X104500000Y-43750000D03*
%TO.N,GND*%
X106500000Y-43750000D03*
%TD*%
D12*
%TO.N,GND*%
%TO.C,J10*%
X115700000Y-60450000D03*
D13*
%TO.N,BATRAW*%
X115700000Y-62450000D03*
%TD*%
D14*
%TO.N,V5*%
%TO.C,J1*%
X41770000Y-65595000D03*
D15*
%TO.N,GND*%
X44310000Y-65595000D03*
%TO.N,V33*%
X46850000Y-65595000D03*
%TO.N,SDA*%
X49390000Y-65595000D03*
%TO.N,SCL*%
X51930000Y-65595000D03*
%TO.N,BTN*%
X54470000Y-65595000D03*
%TO.N,IN*%
X57010000Y-65595000D03*
%TD*%
D14*
%TO.N,GND*%
%TO.C,J2*%
X77240000Y-72630000D03*
D15*
%TO.N,V33*%
X79780000Y-72630000D03*
%TO.N,SCL*%
X82320000Y-72630000D03*
%TO.N,SDA*%
X84860000Y-72630000D03*
%TD*%
D16*
%TO.N,GND*%
%TO.C,J13*%
X85332000Y-45980000D03*
X76692000Y-45980000D03*
%TD*%
D17*
%TO.N,GND*%
X61325000Y-62725000D03*
X61325000Y-64075000D03*
X62675000Y-62725000D03*
X62675000Y-64075000D03*
X72875000Y-61390000D03*
X72875000Y-62640000D03*
X74125000Y-61390000D03*
X74125000Y-62640000D03*
%TO.N,BATG*%
X82100300Y-69760000D03*
X83355500Y-61692800D03*
%TO.N,BATRAW*%
X84937500Y-64151700D03*
%TO.N,CC1*%
X82262000Y-45681100D03*
X58895700Y-71299100D03*
%TO.N,CC2*%
X79262000Y-45706100D03*
X62692600Y-73563500D03*
%TO.N,COL*%
X55175900Y-58163100D03*
X97446500Y-51805200D03*
%TO.N,EN*%
X74314400Y-55516200D03*
X84462100Y-53566000D03*
X58874900Y-63140400D03*
%TO.N,FB*%
X69743600Y-55555600D03*
X60443200Y-66026700D03*
%TO.N,GND*%
X76863700Y-58433900D03*
X85281800Y-52849800D03*
X62198300Y-70223900D03*
X53200100Y-62165500D03*
X81021100Y-59633700D03*
%TO.N,IN*%
X58568900Y-55372400D03*
%TO.N,LBI*%
X61437100Y-55562300D03*
X58874900Y-62270100D03*
%TO.N,LBO*%
X72910600Y-49231600D03*
X59141200Y-64390800D03*
%TO.N,PROG1*%
X77050000Y-62015000D03*
X76303100Y-65381800D03*
%TO.N,SCL*%
X89156200Y-58400000D03*
X106725900Y-62717600D03*
X78498900Y-57537200D03*
%TO.N,SDA*%
X84729800Y-60119800D03*
X101854300Y-63684800D03*
X79279200Y-57537100D03*
%TO.N,SPKO*%
X67229300Y-62138900D03*
X106902300Y-56898300D03*
%TO.N,SPKP*%
X105486500Y-59818200D03*
%TO.N,STAT1*%
X73400100Y-65386800D03*
X78650300Y-68665700D03*
%TO.N,THERM*%
X70697200Y-63015000D03*
X72451600Y-74605600D03*
%TO.N,V33*%
X82982400Y-60297100D03*
%TO.N,V5*%
X66537800Y-52945700D03*
X86571500Y-54923200D03*
X83426500Y-51394100D03*
X63960900Y-65277700D03*
X53994600Y-55807000D03*
X60854800Y-45400000D03*
X97650000Y-56651700D03*
%TO.N,VBUS*%
X70073600Y-63472400D03*
X75856500Y-53033300D03*
X70519400Y-57104700D03*
X67091400Y-73554000D03*
X83462000Y-48095700D03*
X77388600Y-53033300D03*
X75516700Y-71375000D03*
%TO.N,VLIPO*%
X67956000Y-59354600D03*
X75951700Y-60314800D03*
%TO.N,VPCC*%
X70692600Y-61565000D03*
X77281700Y-55302700D03*
%TO.N,VSYS*%
X64464600Y-60378000D03*
X73253600Y-53210600D03*
%TO.N,GND*%
X41000000Y-76400000D03*
X41000000Y-73200000D03*
X41000000Y-70000000D03*
X41000000Y-63600000D03*
X41000000Y-60400000D03*
X41000000Y-57200000D03*
X41000000Y-54000000D03*
X41000000Y-50800000D03*
X41000000Y-47600000D03*
X41000000Y-44400000D03*
X44200000Y-76400000D03*
X44200000Y-70000000D03*
X44200000Y-60400000D03*
X44200000Y-57200000D03*
X44200000Y-54000000D03*
X44200000Y-50800000D03*
X44200000Y-47600000D03*
X44200000Y-41200000D03*
X47400000Y-76400000D03*
X47400000Y-73200000D03*
X47400000Y-70000000D03*
X47400000Y-57200000D03*
X47400000Y-54000000D03*
X47400000Y-50800000D03*
X47400000Y-47600000D03*
X47400000Y-44400000D03*
X47400000Y-41200000D03*
X50600000Y-76400000D03*
X50600000Y-73200000D03*
X50600000Y-70000000D03*
X50600000Y-63600000D03*
X50600000Y-54000000D03*
X50600000Y-50800000D03*
X50600000Y-47600000D03*
X50600000Y-44400000D03*
X50600000Y-41200000D03*
X53800000Y-76400000D03*
X53800000Y-73200000D03*
X53800000Y-44400000D03*
X53800000Y-41200000D03*
X57000000Y-76400000D03*
X57000000Y-41200000D03*
X60200000Y-70000000D03*
X60200000Y-41200000D03*
X63400000Y-70000000D03*
X63400000Y-41200000D03*
X66600000Y-44400000D03*
X66600000Y-41200000D03*
X69800000Y-47600000D03*
X69800000Y-41200000D03*
X73000000Y-66800000D03*
X73000000Y-47600000D03*
X73000000Y-41200000D03*
X76200000Y-41200000D03*
X79400000Y-41200000D03*
X82600000Y-76400000D03*
X82600000Y-44400000D03*
X82600000Y-41200000D03*
X85800000Y-76400000D03*
X85800000Y-41200000D03*
X89000000Y-76400000D03*
X89000000Y-73200000D03*
X89000000Y-70000000D03*
X89000000Y-66800000D03*
X89000000Y-50800000D03*
X89000000Y-47600000D03*
X89000000Y-44400000D03*
X89000000Y-41200000D03*
X92200000Y-76400000D03*
X92200000Y-73200000D03*
X92200000Y-70000000D03*
X92200000Y-66800000D03*
X92200000Y-54000000D03*
X92200000Y-47600000D03*
X92200000Y-44400000D03*
X92200000Y-41200000D03*
X95400000Y-76400000D03*
X95400000Y-73200000D03*
X95400000Y-70000000D03*
X95400000Y-66800000D03*
X95400000Y-60400000D03*
X95400000Y-54000000D03*
X95400000Y-50800000D03*
X95400000Y-44400000D03*
X95400000Y-41200000D03*
X98600000Y-76400000D03*
X98600000Y-73200000D03*
X98600000Y-70000000D03*
X98600000Y-66800000D03*
X98600000Y-60400000D03*
X98600000Y-54000000D03*
X98600000Y-47600000D03*
X98600000Y-41200000D03*
X101800000Y-76400000D03*
X101800000Y-73200000D03*
X101800000Y-70000000D03*
X101800000Y-66800000D03*
X101800000Y-60400000D03*
X101800000Y-54000000D03*
X101800000Y-47600000D03*
X101800000Y-41200000D03*
X105000000Y-76400000D03*
X105000000Y-73200000D03*
X105000000Y-70000000D03*
X105000000Y-66800000D03*
X105000000Y-54000000D03*
X105000000Y-47600000D03*
X105000000Y-41200000D03*
X108200000Y-76400000D03*
X108200000Y-73200000D03*
X108200000Y-70000000D03*
X108200000Y-66800000D03*
X108200000Y-60400000D03*
X108200000Y-54000000D03*
X108200000Y-47600000D03*
X108200000Y-41200000D03*
X111400000Y-76400000D03*
X111400000Y-73200000D03*
X111400000Y-70000000D03*
X111400000Y-63600000D03*
X111400000Y-57200000D03*
X111400000Y-54000000D03*
X111400000Y-50800000D03*
X111400000Y-44400000D03*
X111400000Y-41200000D03*
X114600000Y-76400000D03*
X114600000Y-73200000D03*
X114600000Y-70000000D03*
X114600000Y-57200000D03*
X114600000Y-54000000D03*
X114600000Y-47600000D03*
X114600000Y-44400000D03*
X114600000Y-41200000D03*
X117800000Y-76400000D03*
X117800000Y-70000000D03*
X117800000Y-66800000D03*
X117800000Y-63600000D03*
X117800000Y-60400000D03*
X117800000Y-57200000D03*
X117800000Y-54000000D03*
X117800000Y-50800000D03*
X117800000Y-47600000D03*
X117800000Y-44400000D03*
X117800000Y-41200000D03*
X121000000Y-76400000D03*
X121000000Y-70000000D03*
X121000000Y-66800000D03*
X121000000Y-63600000D03*
X121000000Y-60400000D03*
X121000000Y-57200000D03*
X121000000Y-54000000D03*
X121000000Y-50800000D03*
X121000000Y-47600000D03*
X121000000Y-44400000D03*
X121000000Y-41200000D03*
%TD*%
%TA.AperFunction,Conductor*%
%TO.N,GND*%
G36*
X121666539Y-40320185D02*
G01*
X121712294Y-40372989D01*
X121723500Y-40424500D01*
X121723500Y-76975500D01*
X121703815Y-77042539D01*
X121651011Y-77088294D01*
X121599500Y-77099500D01*
X40424500Y-77099500D01*
X40357461Y-77079815D01*
X40311706Y-77027011D01*
X40300500Y-76975500D01*
X40300500Y-73793713D01*
X42649500Y-73793713D01*
X42649500Y-74006286D01*
X42682753Y-74216239D01*
X42748444Y-74418414D01*
X42844951Y-74607820D01*
X42969890Y-74779786D01*
X43120213Y-74930109D01*
X43292179Y-75055048D01*
X43292181Y-75055049D01*
X43292184Y-75055051D01*
X43481588Y-75151557D01*
X43683757Y-75217246D01*
X43893713Y-75250500D01*
X43893714Y-75250500D01*
X44106286Y-75250500D01*
X44106287Y-75250500D01*
X44316243Y-75217246D01*
X44518412Y-75151557D01*
X44707816Y-75055051D01*
X44818949Y-74974309D01*
X44879786Y-74930109D01*
X44879788Y-74930106D01*
X44879792Y-74930104D01*
X45030104Y-74779792D01*
X45030106Y-74779788D01*
X45030109Y-74779786D01*
X45155048Y-74607820D01*
X45155047Y-74607820D01*
X45155051Y-74607816D01*
X45196462Y-74526543D01*
X71851100Y-74526543D01*
X71851100Y-74684657D01*
X71876592Y-74779792D01*
X71892023Y-74837383D01*
X71892026Y-74837390D01*
X71971075Y-74974309D01*
X71971079Y-74974314D01*
X71971080Y-74974316D01*
X72082884Y-75086120D01*
X72082886Y-75086121D01*
X72082890Y-75086124D01*
X72196222Y-75151555D01*
X72219816Y-75165177D01*
X72372543Y-75206100D01*
X72372545Y-75206100D01*
X72530655Y-75206100D01*
X72530657Y-75206100D01*
X72683384Y-75165177D01*
X72820316Y-75086120D01*
X72932120Y-74974316D01*
X73011177Y-74837384D01*
X73052100Y-74684657D01*
X73052100Y-74526543D01*
X73011177Y-74373816D01*
X73011173Y-74373809D01*
X72932124Y-74236890D01*
X72932118Y-74236882D01*
X72820317Y-74125081D01*
X72820309Y-74125075D01*
X72683390Y-74046026D01*
X72683386Y-74046024D01*
X72683384Y-74046023D01*
X72530657Y-74005100D01*
X72372543Y-74005100D01*
X72219816Y-74046023D01*
X72219809Y-74046026D01*
X72082890Y-74125075D01*
X72082882Y-74125081D01*
X71971081Y-74236882D01*
X71971075Y-74236890D01*
X71892026Y-74373809D01*
X71892023Y-74373816D01*
X71851100Y-74526543D01*
X45196462Y-74526543D01*
X45251557Y-74418412D01*
X45317246Y-74216243D01*
X45350500Y-74006287D01*
X45350500Y-73793713D01*
X45317246Y-73583757D01*
X45284977Y-73484443D01*
X62092100Y-73484443D01*
X62092100Y-73642557D01*
X62130478Y-73785784D01*
X62133023Y-73795283D01*
X62133026Y-73795290D01*
X62212075Y-73932209D01*
X62212079Y-73932214D01*
X62212080Y-73932216D01*
X62323884Y-74044020D01*
X62323886Y-74044021D01*
X62323890Y-74044024D01*
X62444361Y-74113577D01*
X62460816Y-74123077D01*
X62613543Y-74164000D01*
X62613545Y-74164000D01*
X62771655Y-74164000D01*
X62771657Y-74164000D01*
X62924384Y-74123077D01*
X63061316Y-74044020D01*
X63173120Y-73932216D01*
X63252177Y-73795284D01*
X63293100Y-73642557D01*
X63293100Y-73484443D01*
X63290554Y-73474943D01*
X66490900Y-73474943D01*
X66490900Y-73633057D01*
X66522817Y-73752171D01*
X66531823Y-73785783D01*
X66531826Y-73785790D01*
X66610875Y-73922709D01*
X66610879Y-73922714D01*
X66610880Y-73922716D01*
X66722684Y-74034520D01*
X66722686Y-74034521D01*
X66722690Y-74034524D01*
X66859609Y-74113573D01*
X66859616Y-74113577D01*
X67012343Y-74154500D01*
X67012345Y-74154500D01*
X67170455Y-74154500D01*
X67170457Y-74154500D01*
X67323184Y-74113577D01*
X67460116Y-74034520D01*
X67571920Y-73922716D01*
X67646399Y-73793713D01*
X118003500Y-73793713D01*
X118003500Y-74006286D01*
X118036753Y-74216239D01*
X118102444Y-74418414D01*
X118198951Y-74607820D01*
X118323890Y-74779786D01*
X118474213Y-74930109D01*
X118646179Y-75055048D01*
X118646181Y-75055049D01*
X118646184Y-75055051D01*
X118835588Y-75151557D01*
X119037757Y-75217246D01*
X119247713Y-75250500D01*
X119247714Y-75250500D01*
X119460286Y-75250500D01*
X119460287Y-75250500D01*
X119670243Y-75217246D01*
X119872412Y-75151557D01*
X120061816Y-75055051D01*
X120172949Y-74974309D01*
X120233786Y-74930109D01*
X120233788Y-74930106D01*
X120233792Y-74930104D01*
X120384104Y-74779792D01*
X120384106Y-74779788D01*
X120384109Y-74779786D01*
X120509048Y-74607820D01*
X120509047Y-74607820D01*
X120509051Y-74607816D01*
X120605557Y-74418412D01*
X120671246Y-74216243D01*
X120704500Y-74006287D01*
X120704500Y-73793713D01*
X120671246Y-73583757D01*
X120605557Y-73381588D01*
X120509051Y-73192184D01*
X120509049Y-73192181D01*
X120509048Y-73192179D01*
X120384109Y-73020213D01*
X120233786Y-72869890D01*
X120061820Y-72744951D01*
X119872414Y-72648444D01*
X119872413Y-72648443D01*
X119872412Y-72648443D01*
X119670243Y-72582754D01*
X119670241Y-72582753D01*
X119670240Y-72582753D01*
X119508957Y-72557208D01*
X119460287Y-72549500D01*
X119247713Y-72549500D01*
X119199042Y-72557208D01*
X119037760Y-72582753D01*
X118835585Y-72648444D01*
X118646179Y-72744951D01*
X118474213Y-72869890D01*
X118323890Y-73020213D01*
X118198951Y-73192179D01*
X118102444Y-73381585D01*
X118036753Y-73583760D01*
X118003500Y-73793713D01*
X67646399Y-73793713D01*
X67650977Y-73785784D01*
X67691900Y-73633057D01*
X67691900Y-73474943D01*
X67650977Y-73322216D01*
X67599465Y-73232994D01*
X67571924Y-73185290D01*
X67571918Y-73185282D01*
X67460117Y-73073481D01*
X67460109Y-73073475D01*
X67323190Y-72994426D01*
X67323186Y-72994424D01*
X67323184Y-72994423D01*
X67170457Y-72953500D01*
X67012343Y-72953500D01*
X66859616Y-72994423D01*
X66859609Y-72994426D01*
X66722690Y-73073475D01*
X66722682Y-73073481D01*
X66610881Y-73185282D01*
X66610875Y-73185290D01*
X66531826Y-73322209D01*
X66531823Y-73322216D01*
X66490900Y-73474943D01*
X63290554Y-73474943D01*
X63252177Y-73331716D01*
X63195182Y-73232997D01*
X63173124Y-73194790D01*
X63173118Y-73194782D01*
X63061317Y-73082981D01*
X63061309Y-73082975D01*
X62924390Y-73003926D01*
X62924386Y-73003924D01*
X62924384Y-73003923D01*
X62771657Y-72963000D01*
X62613543Y-72963000D01*
X62460816Y-73003923D01*
X62460809Y-73003926D01*
X62323890Y-73082975D01*
X62323882Y-73082981D01*
X62212081Y-73194782D01*
X62212075Y-73194790D01*
X62133026Y-73331709D01*
X62133023Y-73331716D01*
X62092100Y-73484443D01*
X45284977Y-73484443D01*
X45251557Y-73381588D01*
X45155051Y-73192184D01*
X45155049Y-73192181D01*
X45155048Y-73192179D01*
X45030109Y-73020213D01*
X44879786Y-72869890D01*
X44707820Y-72744951D01*
X44518415Y-72648444D01*
X44518413Y-72648443D01*
X44413241Y-72614270D01*
X44316243Y-72582754D01*
X44316241Y-72582753D01*
X44316240Y-72582753D01*
X44154957Y-72557208D01*
X44106287Y-72549500D01*
X43893713Y-72549500D01*
X43845042Y-72557208D01*
X43683760Y-72582753D01*
X43481585Y-72648444D01*
X43292179Y-72744951D01*
X43120213Y-72869890D01*
X42969890Y-73020213D01*
X42844951Y-73192179D01*
X42748444Y-73381585D01*
X42682753Y-73583760D01*
X42649500Y-73793713D01*
X40300500Y-73793713D01*
X40300500Y-72539448D01*
X78629500Y-72539448D01*
X78629500Y-72720551D01*
X78657829Y-72899410D01*
X78713787Y-73071636D01*
X78713788Y-73071639D01*
X78796006Y-73232997D01*
X78902441Y-73379494D01*
X78902445Y-73379499D01*
X79030500Y-73507554D01*
X79030505Y-73507558D01*
X79135385Y-73583757D01*
X79177006Y-73613996D01*
X79282484Y-73667740D01*
X79338360Y-73696211D01*
X79338363Y-73696212D01*
X79424476Y-73724191D01*
X79510591Y-73752171D01*
X79593429Y-73765291D01*
X79689449Y-73780500D01*
X79689454Y-73780500D01*
X79870551Y-73780500D01*
X79957259Y-73766765D01*
X80049409Y-73752171D01*
X80221639Y-73696211D01*
X80382994Y-73613996D01*
X80529501Y-73507553D01*
X80657553Y-73379501D01*
X80763996Y-73232994D01*
X80846211Y-73071639D01*
X80902171Y-72899409D01*
X80926635Y-72744951D01*
X80927527Y-72739321D01*
X80957456Y-72676186D01*
X81016768Y-72639255D01*
X81086630Y-72640253D01*
X81144863Y-72678863D01*
X81172473Y-72739321D01*
X81197829Y-72899410D01*
X81253787Y-73071636D01*
X81253788Y-73071639D01*
X81336006Y-73232997D01*
X81442441Y-73379494D01*
X81442445Y-73379499D01*
X81570500Y-73507554D01*
X81570505Y-73507558D01*
X81675385Y-73583757D01*
X81717006Y-73613996D01*
X81822484Y-73667740D01*
X81878360Y-73696211D01*
X81878363Y-73696212D01*
X81964476Y-73724191D01*
X82050591Y-73752171D01*
X82133429Y-73765291D01*
X82229449Y-73780500D01*
X82229454Y-73780500D01*
X82410551Y-73780500D01*
X82497259Y-73766765D01*
X82589409Y-73752171D01*
X82761639Y-73696211D01*
X82922994Y-73613996D01*
X83069501Y-73507553D01*
X83197553Y-73379501D01*
X83303996Y-73232994D01*
X83386211Y-73071639D01*
X83442171Y-72899409D01*
X83466635Y-72744951D01*
X83467527Y-72739321D01*
X83497456Y-72676186D01*
X83556768Y-72639255D01*
X83626630Y-72640253D01*
X83684863Y-72678863D01*
X83712473Y-72739321D01*
X83737829Y-72899410D01*
X83793787Y-73071636D01*
X83793788Y-73071639D01*
X83876006Y-73232997D01*
X83982441Y-73379494D01*
X83982445Y-73379499D01*
X84110500Y-73507554D01*
X84110505Y-73507558D01*
X84215385Y-73583757D01*
X84257006Y-73613996D01*
X84362484Y-73667740D01*
X84418360Y-73696211D01*
X84418363Y-73696212D01*
X84504476Y-73724191D01*
X84590591Y-73752171D01*
X84673429Y-73765291D01*
X84769449Y-73780500D01*
X84769454Y-73780500D01*
X84950551Y-73780500D01*
X85037259Y-73766765D01*
X85129409Y-73752171D01*
X85301639Y-73696211D01*
X85301639Y-73696210D01*
X85301644Y-73696209D01*
X85336680Y-73678357D01*
X85336681Y-73678356D01*
X85462994Y-73613996D01*
X85609501Y-73507553D01*
X85737553Y-73379501D01*
X85843996Y-73232994D01*
X85926211Y-73071639D01*
X85982171Y-72899409D01*
X86006635Y-72744951D01*
X86010500Y-72720551D01*
X86010500Y-72539448D01*
X85994019Y-72435397D01*
X85982171Y-72360591D01*
X85926211Y-72188361D01*
X85926211Y-72188360D01*
X85897740Y-72132484D01*
X85843996Y-72027006D01*
X85751430Y-71899599D01*
X85737558Y-71880505D01*
X85737554Y-71880500D01*
X85609499Y-71752445D01*
X85609494Y-71752441D01*
X85462997Y-71646006D01*
X85462996Y-71646005D01*
X85462994Y-71646004D01*
X85386019Y-71606783D01*
X85301639Y-71563788D01*
X85301636Y-71563787D01*
X85129410Y-71507829D01*
X84950551Y-71479500D01*
X84950546Y-71479500D01*
X84769454Y-71479500D01*
X84769449Y-71479500D01*
X84590589Y-71507829D01*
X84418363Y-71563787D01*
X84418360Y-71563788D01*
X84257002Y-71646006D01*
X84110505Y-71752441D01*
X84110500Y-71752445D01*
X83982445Y-71880500D01*
X83982441Y-71880505D01*
X83876006Y-72027002D01*
X83793788Y-72188360D01*
X83793787Y-72188363D01*
X83737829Y-72360589D01*
X83712473Y-72520678D01*
X83682544Y-72583813D01*
X83623232Y-72620744D01*
X83553369Y-72619746D01*
X83495137Y-72581136D01*
X83467527Y-72520678D01*
X83453740Y-72433639D01*
X83442171Y-72360591D01*
X83386211Y-72188361D01*
X83386211Y-72188360D01*
X83357740Y-72132484D01*
X83303996Y-72027006D01*
X83211430Y-71899599D01*
X83197558Y-71880505D01*
X83197554Y-71880500D01*
X83069499Y-71752445D01*
X83069494Y-71752441D01*
X82922997Y-71646006D01*
X82922996Y-71646005D01*
X82922994Y-71646004D01*
X82846019Y-71606783D01*
X82761639Y-71563788D01*
X82761636Y-71563787D01*
X82589410Y-71507829D01*
X82410551Y-71479500D01*
X82410546Y-71479500D01*
X82229454Y-71479500D01*
X82229449Y-71479500D01*
X82050589Y-71507829D01*
X81878363Y-71563787D01*
X81878360Y-71563788D01*
X81717002Y-71646006D01*
X81570505Y-71752441D01*
X81570500Y-71752445D01*
X81442445Y-71880500D01*
X81442441Y-71880505D01*
X81336006Y-72027002D01*
X81253788Y-72188360D01*
X81253787Y-72188363D01*
X81197829Y-72360589D01*
X81172473Y-72520678D01*
X81142544Y-72583813D01*
X81083232Y-72620744D01*
X81013369Y-72619746D01*
X80955137Y-72581136D01*
X80927527Y-72520678D01*
X80913740Y-72433639D01*
X80902171Y-72360591D01*
X80846211Y-72188361D01*
X80846211Y-72188360D01*
X80817740Y-72132484D01*
X80763996Y-72027006D01*
X80671430Y-71899599D01*
X80657558Y-71880505D01*
X80657554Y-71880500D01*
X80529499Y-71752445D01*
X80529494Y-71752441D01*
X80382997Y-71646006D01*
X80382996Y-71646005D01*
X80382994Y-71646004D01*
X80306019Y-71606783D01*
X80221639Y-71563788D01*
X80221636Y-71563787D01*
X80049410Y-71507829D01*
X79870551Y-71479500D01*
X79870546Y-71479500D01*
X79689454Y-71479500D01*
X79689449Y-71479500D01*
X79510589Y-71507829D01*
X79338363Y-71563787D01*
X79338360Y-71563788D01*
X79177002Y-71646006D01*
X79030505Y-71752441D01*
X79030500Y-71752445D01*
X78902445Y-71880500D01*
X78902441Y-71880505D01*
X78796006Y-72027002D01*
X78713788Y-72188360D01*
X78713787Y-72188363D01*
X78657829Y-72360589D01*
X78629500Y-72539448D01*
X40300500Y-72539448D01*
X40300500Y-71220043D01*
X58295200Y-71220043D01*
X58295200Y-71378157D01*
X58329946Y-71507829D01*
X58336123Y-71530883D01*
X58336126Y-71530890D01*
X58415175Y-71667809D01*
X58415179Y-71667814D01*
X58415180Y-71667816D01*
X58526984Y-71779620D01*
X58526986Y-71779621D01*
X58526990Y-71779624D01*
X58658444Y-71855518D01*
X58663916Y-71858677D01*
X58816643Y-71899600D01*
X58816645Y-71899600D01*
X58974755Y-71899600D01*
X58974757Y-71899600D01*
X59127484Y-71858677D01*
X59264416Y-71779620D01*
X59376220Y-71667816D01*
X59455277Y-71530884D01*
X59496200Y-71378157D01*
X59496200Y-71295943D01*
X74916200Y-71295943D01*
X74916200Y-71454057D01*
X74945603Y-71563788D01*
X74957123Y-71606783D01*
X74957126Y-71606790D01*
X75036175Y-71743709D01*
X75036179Y-71743714D01*
X75036180Y-71743716D01*
X75147984Y-71855520D01*
X75147986Y-71855521D01*
X75147990Y-71855524D01*
X75284909Y-71934573D01*
X75284916Y-71934577D01*
X75437643Y-71975500D01*
X75437645Y-71975500D01*
X75595755Y-71975500D01*
X75595757Y-71975500D01*
X75748484Y-71934577D01*
X75885416Y-71855520D01*
X75997220Y-71743716D01*
X76076277Y-71606784D01*
X76117200Y-71454057D01*
X76117200Y-71295943D01*
X76076277Y-71143216D01*
X76032457Y-71067316D01*
X75997224Y-71006290D01*
X75997218Y-71006282D01*
X75885417Y-70894481D01*
X75885409Y-70894475D01*
X75748490Y-70815426D01*
X75748486Y-70815424D01*
X75748484Y-70815423D01*
X75595757Y-70774500D01*
X75437643Y-70774500D01*
X75284916Y-70815423D01*
X75284909Y-70815426D01*
X75147990Y-70894475D01*
X75147982Y-70894481D01*
X75036181Y-71006282D01*
X75036175Y-71006290D01*
X74957126Y-71143209D01*
X74957123Y-71143216D01*
X74916200Y-71295943D01*
X59496200Y-71295943D01*
X59496200Y-71220043D01*
X59455277Y-71067316D01*
X59420044Y-71006290D01*
X59376224Y-70930390D01*
X59376218Y-70930382D01*
X59264417Y-70818581D01*
X59264409Y-70818575D01*
X59127490Y-70739526D01*
X59127486Y-70739524D01*
X59127484Y-70739523D01*
X58974757Y-70698600D01*
X58816643Y-70698600D01*
X58663916Y-70739523D01*
X58663909Y-70739526D01*
X58526990Y-70818575D01*
X58526982Y-70818581D01*
X58415181Y-70930382D01*
X58415175Y-70930390D01*
X58336126Y-71067309D01*
X58336123Y-71067316D01*
X58295200Y-71220043D01*
X40300500Y-71220043D01*
X40300500Y-69680943D01*
X81499800Y-69680943D01*
X81499800Y-69839056D01*
X81540723Y-69991783D01*
X81540726Y-69991790D01*
X81619775Y-70128709D01*
X81619779Y-70128714D01*
X81619780Y-70128716D01*
X81731584Y-70240520D01*
X81731586Y-70240521D01*
X81731590Y-70240524D01*
X81868509Y-70319573D01*
X81868516Y-70319577D01*
X82021243Y-70360500D01*
X82021245Y-70360500D01*
X82179355Y-70360500D01*
X82179357Y-70360500D01*
X82332084Y-70319577D01*
X82469016Y-70240520D01*
X82580820Y-70128716D01*
X82659877Y-69991784D01*
X82700800Y-69839057D01*
X82700800Y-69680943D01*
X82659877Y-69528216D01*
X82659873Y-69528209D01*
X82580824Y-69391290D01*
X82580818Y-69391282D01*
X82469017Y-69279481D01*
X82469009Y-69279475D01*
X82332090Y-69200426D01*
X82332086Y-69200424D01*
X82332084Y-69200423D01*
X82179357Y-69159500D01*
X82021243Y-69159500D01*
X81868516Y-69200423D01*
X81868509Y-69200426D01*
X81731590Y-69279475D01*
X81731582Y-69279481D01*
X81619781Y-69391282D01*
X81619775Y-69391290D01*
X81540726Y-69528209D01*
X81540723Y-69528216D01*
X81499800Y-69680943D01*
X40300500Y-69680943D01*
X40300500Y-68586643D01*
X78049800Y-68586643D01*
X78049800Y-68744757D01*
X78071158Y-68824464D01*
X78090723Y-68897483D01*
X78090726Y-68897490D01*
X78169775Y-69034409D01*
X78169779Y-69034414D01*
X78169780Y-69034416D01*
X78281584Y-69146220D01*
X78281586Y-69146221D01*
X78281590Y-69146224D01*
X78375467Y-69200423D01*
X78418516Y-69225277D01*
X78571243Y-69266200D01*
X78571245Y-69266200D01*
X78729355Y-69266200D01*
X78729357Y-69266200D01*
X78882084Y-69225277D01*
X79019016Y-69146220D01*
X79130820Y-69034416D01*
X79209877Y-68897484D01*
X79250800Y-68744757D01*
X79250800Y-68586643D01*
X79209877Y-68433916D01*
X79190081Y-68399628D01*
X79130824Y-68296990D01*
X79130818Y-68296982D01*
X79019017Y-68185181D01*
X79019009Y-68185175D01*
X78882090Y-68106126D01*
X78882086Y-68106124D01*
X78882084Y-68106123D01*
X78729357Y-68065200D01*
X78571243Y-68065200D01*
X78418516Y-68106123D01*
X78418509Y-68106126D01*
X78281590Y-68185175D01*
X78281582Y-68185181D01*
X78169781Y-68296982D01*
X78169775Y-68296990D01*
X78090726Y-68433909D01*
X78090723Y-68433916D01*
X78049800Y-68586643D01*
X40300500Y-68586643D01*
X40300500Y-67181898D01*
X113399500Y-67181898D01*
X113399500Y-68518102D01*
X113403516Y-68551541D01*
X113410122Y-68606561D01*
X113465639Y-68747343D01*
X113557077Y-68867922D01*
X113677656Y-68959360D01*
X113677657Y-68959360D01*
X113677658Y-68959361D01*
X113818436Y-69014877D01*
X113906898Y-69025500D01*
X113906903Y-69025500D01*
X114693097Y-69025500D01*
X114693102Y-69025500D01*
X114781564Y-69014877D01*
X114922342Y-68959361D01*
X115042922Y-68867922D01*
X115134361Y-68747342D01*
X115189877Y-68606564D01*
X115200500Y-68518102D01*
X115200500Y-68447080D01*
X115220185Y-68380041D01*
X115272989Y-68334286D01*
X115342147Y-68324342D01*
X115405703Y-68353367D01*
X115439061Y-68399628D01*
X115501983Y-68551541D01*
X115501990Y-68551553D01*
X115600535Y-68699034D01*
X115600538Y-68699038D01*
X115725961Y-68824461D01*
X115725965Y-68824464D01*
X115873446Y-68923009D01*
X115873459Y-68923016D01*
X115996363Y-68973923D01*
X116037334Y-68990894D01*
X116037336Y-68990894D01*
X116037341Y-68990896D01*
X116211304Y-69025499D01*
X116211307Y-69025500D01*
X116211309Y-69025500D01*
X116388693Y-69025500D01*
X116388694Y-69025499D01*
X116446682Y-69013964D01*
X116562658Y-68990896D01*
X116562661Y-68990894D01*
X116562666Y-68990894D01*
X116726547Y-68923013D01*
X116874035Y-68824464D01*
X116999464Y-68699035D01*
X117098013Y-68551547D01*
X117165894Y-68387666D01*
X117200500Y-68213691D01*
X117200500Y-67486309D01*
X117200500Y-67486306D01*
X117200499Y-67486304D01*
X117165896Y-67312341D01*
X117165893Y-67312332D01*
X117098016Y-67148459D01*
X117098009Y-67148446D01*
X116999464Y-67000965D01*
X116999461Y-67000961D01*
X116874038Y-66875538D01*
X116874034Y-66875535D01*
X116726553Y-66776990D01*
X116726540Y-66776983D01*
X116562667Y-66709106D01*
X116562658Y-66709103D01*
X116388694Y-66674500D01*
X116388691Y-66674500D01*
X116211309Y-66674500D01*
X116211306Y-66674500D01*
X116037341Y-66709103D01*
X116037332Y-66709106D01*
X115873459Y-66776983D01*
X115873446Y-66776990D01*
X115725965Y-66875535D01*
X115725961Y-66875538D01*
X115600538Y-67000961D01*
X115600535Y-67000965D01*
X115501990Y-67148446D01*
X115501983Y-67148459D01*
X115439061Y-67300371D01*
X115395221Y-67354775D01*
X115328927Y-67376840D01*
X115261227Y-67359561D01*
X115213616Y-67308424D01*
X115200500Y-67252919D01*
X115200500Y-67181903D01*
X115200500Y-67181898D01*
X115189877Y-67093436D01*
X115134361Y-66952658D01*
X115134360Y-66952657D01*
X115134360Y-66952656D01*
X115042922Y-66832077D01*
X114922343Y-66740639D01*
X114781561Y-66685122D01*
X114735926Y-66679642D01*
X114693102Y-66674500D01*
X113906898Y-66674500D01*
X113867853Y-66679188D01*
X113818438Y-66685122D01*
X113677656Y-66740639D01*
X113557077Y-66832077D01*
X113465639Y-66952656D01*
X113410122Y-67093438D01*
X113404188Y-67142853D01*
X113399500Y-67181898D01*
X40300500Y-67181898D01*
X40300500Y-64700131D01*
X40619500Y-64700131D01*
X40619500Y-66489856D01*
X40619502Y-66489882D01*
X40622413Y-66514987D01*
X40622415Y-66514991D01*
X40667793Y-66617764D01*
X40667794Y-66617765D01*
X40747235Y-66697206D01*
X40850009Y-66742585D01*
X40875135Y-66745500D01*
X42664864Y-66745499D01*
X42664879Y-66745497D01*
X42664882Y-66745497D01*
X42689987Y-66742586D01*
X42689988Y-66742585D01*
X42689991Y-66742585D01*
X42792765Y-66697206D01*
X42872206Y-66617765D01*
X42917585Y-66514991D01*
X42920500Y-66489865D01*
X42920499Y-65504448D01*
X45699500Y-65504448D01*
X45699500Y-65685551D01*
X45727829Y-65864410D01*
X45783787Y-66036636D01*
X45783788Y-66036639D01*
X45866006Y-66197997D01*
X45972441Y-66344494D01*
X45972445Y-66344499D01*
X46100500Y-66472554D01*
X46100505Y-66472558D01*
X46228287Y-66565396D01*
X46247006Y-66578996D01*
X46323094Y-66617765D01*
X46408360Y-66661211D01*
X46408363Y-66661212D01*
X46481953Y-66685122D01*
X46580591Y-66717171D01*
X46663429Y-66730291D01*
X46759449Y-66745500D01*
X46759454Y-66745500D01*
X46940551Y-66745500D01*
X47027259Y-66731765D01*
X47119409Y-66717171D01*
X47291639Y-66661211D01*
X47452994Y-66578996D01*
X47599501Y-66472553D01*
X47727553Y-66344501D01*
X47833996Y-66197994D01*
X47916211Y-66036639D01*
X47972171Y-65864409D01*
X47990211Y-65750509D01*
X47997527Y-65704321D01*
X48027456Y-65641186D01*
X48086768Y-65604255D01*
X48156630Y-65605253D01*
X48214863Y-65643863D01*
X48242473Y-65704321D01*
X48267829Y-65864410D01*
X48323787Y-66036636D01*
X48323788Y-66036639D01*
X48406006Y-66197997D01*
X48512441Y-66344494D01*
X48512445Y-66344499D01*
X48640500Y-66472554D01*
X48640505Y-66472558D01*
X48768287Y-66565396D01*
X48787006Y-66578996D01*
X48863094Y-66617765D01*
X48948360Y-66661211D01*
X48948363Y-66661212D01*
X49021953Y-66685122D01*
X49120591Y-66717171D01*
X49203429Y-66730291D01*
X49299449Y-66745500D01*
X49299454Y-66745500D01*
X49480551Y-66745500D01*
X49567259Y-66731765D01*
X49659409Y-66717171D01*
X49831639Y-66661211D01*
X49992994Y-66578996D01*
X50139501Y-66472553D01*
X50267553Y-66344501D01*
X50373996Y-66197994D01*
X50456211Y-66036639D01*
X50512171Y-65864409D01*
X50530211Y-65750509D01*
X50537527Y-65704321D01*
X50567456Y-65641186D01*
X50626768Y-65604255D01*
X50696630Y-65605253D01*
X50754863Y-65643863D01*
X50782473Y-65704321D01*
X50807829Y-65864410D01*
X50863787Y-66036636D01*
X50863788Y-66036639D01*
X50946006Y-66197997D01*
X51052441Y-66344494D01*
X51052445Y-66344499D01*
X51180500Y-66472554D01*
X51180505Y-66472558D01*
X51308287Y-66565396D01*
X51327006Y-66578996D01*
X51403094Y-66617765D01*
X51488360Y-66661211D01*
X51488363Y-66661212D01*
X51561953Y-66685122D01*
X51660591Y-66717171D01*
X51743429Y-66730291D01*
X51839449Y-66745500D01*
X51839454Y-66745500D01*
X52020551Y-66745500D01*
X52107259Y-66731765D01*
X52199409Y-66717171D01*
X52371639Y-66661211D01*
X52532994Y-66578996D01*
X52679501Y-66472553D01*
X52807553Y-66344501D01*
X52913996Y-66197994D01*
X52996211Y-66036639D01*
X53052171Y-65864409D01*
X53070211Y-65750509D01*
X53077527Y-65704321D01*
X53107456Y-65641186D01*
X53166768Y-65604255D01*
X53236630Y-65605253D01*
X53294863Y-65643863D01*
X53322473Y-65704321D01*
X53347829Y-65864410D01*
X53403787Y-66036636D01*
X53403788Y-66036639D01*
X53486006Y-66197997D01*
X53592441Y-66344494D01*
X53592445Y-66344499D01*
X53720500Y-66472554D01*
X53720505Y-66472558D01*
X53848287Y-66565396D01*
X53867006Y-66578996D01*
X53943094Y-66617765D01*
X54028360Y-66661211D01*
X54028363Y-66661212D01*
X54101953Y-66685122D01*
X54200591Y-66717171D01*
X54283429Y-66730291D01*
X54379449Y-66745500D01*
X54379454Y-66745500D01*
X54560551Y-66745500D01*
X54647259Y-66731765D01*
X54739409Y-66717171D01*
X54911639Y-66661211D01*
X55072994Y-66578996D01*
X55219501Y-66472553D01*
X55347553Y-66344501D01*
X55453996Y-66197994D01*
X55536211Y-66036639D01*
X55592171Y-65864409D01*
X55610211Y-65750509D01*
X55617527Y-65704321D01*
X55647456Y-65641186D01*
X55706768Y-65604255D01*
X55776630Y-65605253D01*
X55834863Y-65643863D01*
X55862473Y-65704321D01*
X55887829Y-65864410D01*
X55943787Y-66036636D01*
X55943788Y-66036639D01*
X56026006Y-66197997D01*
X56132441Y-66344494D01*
X56132445Y-66344499D01*
X56260500Y-66472554D01*
X56260505Y-66472558D01*
X56388287Y-66565396D01*
X56407006Y-66578996D01*
X56483094Y-66617765D01*
X56568360Y-66661211D01*
X56568363Y-66661212D01*
X56641953Y-66685122D01*
X56740591Y-66717171D01*
X56823429Y-66730291D01*
X56919449Y-66745500D01*
X56919454Y-66745500D01*
X57100551Y-66745500D01*
X57187259Y-66731765D01*
X57279409Y-66717171D01*
X57451639Y-66661211D01*
X57612994Y-66578996D01*
X57759501Y-66472553D01*
X57887553Y-66344501D01*
X57993996Y-66197994D01*
X58076211Y-66036639D01*
X58092242Y-65987300D01*
X58105127Y-65947643D01*
X59842700Y-65947643D01*
X59842700Y-66105756D01*
X59883623Y-66258483D01*
X59883626Y-66258490D01*
X59962675Y-66395409D01*
X59962679Y-66395414D01*
X59962680Y-66395416D01*
X60074484Y-66507220D01*
X60074486Y-66507221D01*
X60074490Y-66507224D01*
X60198805Y-66578996D01*
X60211416Y-66586277D01*
X60364143Y-66627200D01*
X60364145Y-66627200D01*
X60522255Y-66627200D01*
X60522257Y-66627200D01*
X60674984Y-66586277D01*
X60811916Y-66507220D01*
X60923720Y-66395416D01*
X61002777Y-66258484D01*
X61043700Y-66105757D01*
X61043700Y-65947643D01*
X61002777Y-65794916D01*
X60980026Y-65755509D01*
X60923724Y-65657990D01*
X60923718Y-65657982D01*
X60811917Y-65546181D01*
X60811909Y-65546175D01*
X60674990Y-65467126D01*
X60674986Y-65467124D01*
X60674984Y-65467123D01*
X60522257Y-65426200D01*
X60364143Y-65426200D01*
X60211416Y-65467123D01*
X60211409Y-65467126D01*
X60074490Y-65546175D01*
X60074482Y-65546181D01*
X59962681Y-65657982D01*
X59962675Y-65657990D01*
X59883626Y-65794909D01*
X59883623Y-65794916D01*
X59842700Y-65947643D01*
X58105127Y-65947643D01*
X58120218Y-65901199D01*
X58120218Y-65901198D01*
X58127690Y-65878199D01*
X58132171Y-65864409D01*
X58150211Y-65750509D01*
X58160500Y-65685551D01*
X58160500Y-65504448D01*
X58132170Y-65325587D01*
X58100734Y-65228833D01*
X58090925Y-65198643D01*
X63360400Y-65198643D01*
X63360400Y-65356757D01*
X63389973Y-65467123D01*
X63401323Y-65509483D01*
X63401326Y-65509490D01*
X63480375Y-65646409D01*
X63480379Y-65646414D01*
X63480380Y-65646416D01*
X63592184Y-65758220D01*
X63592186Y-65758221D01*
X63592190Y-65758224D01*
X63729109Y-65837273D01*
X63729116Y-65837277D01*
X63881843Y-65878200D01*
X63881845Y-65878200D01*
X64039955Y-65878200D01*
X64039957Y-65878200D01*
X64192684Y-65837277D01*
X64329616Y-65758220D01*
X64441420Y-65646416D01*
X64520477Y-65509484D01*
X64561400Y-65356757D01*
X64561400Y-65307743D01*
X72799600Y-65307743D01*
X72799600Y-65465857D01*
X72839184Y-65613584D01*
X72840523Y-65618583D01*
X72840526Y-65618590D01*
X72919575Y-65755509D01*
X72919579Y-65755514D01*
X72919580Y-65755516D01*
X73031384Y-65867320D01*
X73031386Y-65867321D01*
X73031390Y-65867324D01*
X73159649Y-65941373D01*
X73168316Y-65946377D01*
X73321043Y-65987300D01*
X73321045Y-65987300D01*
X73479155Y-65987300D01*
X73479157Y-65987300D01*
X73631884Y-65946377D01*
X73768816Y-65867320D01*
X73880620Y-65755516D01*
X73959677Y-65618584D01*
X74000600Y-65465857D01*
X74000600Y-65307743D01*
X73999260Y-65302743D01*
X75702600Y-65302743D01*
X75702600Y-65460857D01*
X75741024Y-65604255D01*
X75743523Y-65613583D01*
X75743526Y-65613590D01*
X75822575Y-65750509D01*
X75822579Y-65750514D01*
X75822580Y-65750516D01*
X75934384Y-65862320D01*
X75934386Y-65862321D01*
X75934390Y-65862324D01*
X76001723Y-65901198D01*
X76071316Y-65941377D01*
X76224043Y-65982300D01*
X76224045Y-65982300D01*
X76382155Y-65982300D01*
X76382157Y-65982300D01*
X76534884Y-65941377D01*
X76671816Y-65862320D01*
X76783620Y-65750516D01*
X76862677Y-65613584D01*
X76903600Y-65460857D01*
X76903600Y-65302743D01*
X76862677Y-65150016D01*
X76862673Y-65150009D01*
X76783624Y-65013090D01*
X76783618Y-65013082D01*
X76671817Y-64901281D01*
X76671809Y-64901275D01*
X76534890Y-64822226D01*
X76534886Y-64822224D01*
X76534884Y-64822223D01*
X76382157Y-64781300D01*
X76224043Y-64781300D01*
X76071316Y-64822223D01*
X76071309Y-64822226D01*
X75934390Y-64901275D01*
X75934382Y-64901281D01*
X75822581Y-65013082D01*
X75822575Y-65013090D01*
X75743526Y-65150009D01*
X75743523Y-65150016D01*
X75702600Y-65302743D01*
X73999260Y-65302743D01*
X73959677Y-65155016D01*
X73958723Y-65153363D01*
X73880624Y-65018090D01*
X73880618Y-65018082D01*
X73768817Y-64906281D01*
X73768809Y-64906275D01*
X73631890Y-64827226D01*
X73631886Y-64827224D01*
X73631884Y-64827223D01*
X73479157Y-64786300D01*
X73321043Y-64786300D01*
X73168316Y-64827223D01*
X73168309Y-64827226D01*
X73031390Y-64906275D01*
X73031382Y-64906281D01*
X72919581Y-65018082D01*
X72919575Y-65018090D01*
X72840526Y-65155009D01*
X72840523Y-65155016D01*
X72799600Y-65307743D01*
X64561400Y-65307743D01*
X64561400Y-65198643D01*
X64520477Y-65045916D01*
X64501522Y-65013084D01*
X64441424Y-64908990D01*
X64441418Y-64908982D01*
X64329617Y-64797181D01*
X64329609Y-64797175D01*
X64192690Y-64718126D01*
X64192686Y-64718124D01*
X64192684Y-64718123D01*
X64039957Y-64677200D01*
X63881843Y-64677200D01*
X63729116Y-64718123D01*
X63729109Y-64718126D01*
X63592190Y-64797175D01*
X63592182Y-64797181D01*
X63480381Y-64908982D01*
X63480375Y-64908990D01*
X63401326Y-65045909D01*
X63401323Y-65045916D01*
X63360400Y-65198643D01*
X58090925Y-65198643D01*
X58076212Y-65153363D01*
X58076211Y-65153360D01*
X58047740Y-65097484D01*
X57993996Y-64992006D01*
X57933682Y-64908990D01*
X57887558Y-64845505D01*
X57887554Y-64845500D01*
X57759499Y-64717445D01*
X57759494Y-64717441D01*
X57612997Y-64611006D01*
X57612996Y-64611005D01*
X57612994Y-64611004D01*
X57536906Y-64572235D01*
X57451639Y-64528788D01*
X57451636Y-64528787D01*
X57279410Y-64472829D01*
X57100551Y-64444500D01*
X57100546Y-64444500D01*
X56919454Y-64444500D01*
X56919449Y-64444500D01*
X56740589Y-64472829D01*
X56568363Y-64528787D01*
X56568360Y-64528788D01*
X56407002Y-64611006D01*
X56260505Y-64717441D01*
X56260500Y-64717445D01*
X56132445Y-64845500D01*
X56132441Y-64845505D01*
X56026006Y-64992002D01*
X55943788Y-65153360D01*
X55943787Y-65153363D01*
X55887829Y-65325589D01*
X55862473Y-65485678D01*
X55832544Y-65548813D01*
X55773232Y-65585744D01*
X55703369Y-65584746D01*
X55645137Y-65546136D01*
X55617527Y-65485678D01*
X55597107Y-65356756D01*
X55592171Y-65325591D01*
X55560733Y-65228833D01*
X55536212Y-65153363D01*
X55536211Y-65153360D01*
X55507740Y-65097484D01*
X55453996Y-64992006D01*
X55393682Y-64908990D01*
X55347558Y-64845505D01*
X55347554Y-64845500D01*
X55219499Y-64717445D01*
X55219494Y-64717441D01*
X55072997Y-64611006D01*
X55072996Y-64611005D01*
X55072994Y-64611004D01*
X54996906Y-64572235D01*
X54911639Y-64528788D01*
X54911636Y-64528787D01*
X54739410Y-64472829D01*
X54560551Y-64444500D01*
X54560546Y-64444500D01*
X54379454Y-64444500D01*
X54379449Y-64444500D01*
X54200589Y-64472829D01*
X54028363Y-64528787D01*
X54028360Y-64528788D01*
X53867002Y-64611006D01*
X53720505Y-64717441D01*
X53720500Y-64717445D01*
X53592445Y-64845500D01*
X53592441Y-64845505D01*
X53486006Y-64992002D01*
X53403788Y-65153360D01*
X53403787Y-65153363D01*
X53347829Y-65325589D01*
X53322473Y-65485678D01*
X53292544Y-65548813D01*
X53233232Y-65585744D01*
X53163369Y-65584746D01*
X53105137Y-65546136D01*
X53077527Y-65485678D01*
X53057107Y-65356756D01*
X53052171Y-65325591D01*
X53020733Y-65228833D01*
X52996212Y-65153363D01*
X52996211Y-65153360D01*
X52967740Y-65097484D01*
X52913996Y-64992006D01*
X52853682Y-64908990D01*
X52807558Y-64845505D01*
X52807554Y-64845500D01*
X52679499Y-64717445D01*
X52679494Y-64717441D01*
X52532997Y-64611006D01*
X52532996Y-64611005D01*
X52532994Y-64611004D01*
X52456906Y-64572235D01*
X52371639Y-64528788D01*
X52371636Y-64528787D01*
X52199410Y-64472829D01*
X52020551Y-64444500D01*
X52020546Y-64444500D01*
X51839454Y-64444500D01*
X51839449Y-64444500D01*
X51660589Y-64472829D01*
X51488363Y-64528787D01*
X51488360Y-64528788D01*
X51327002Y-64611006D01*
X51180505Y-64717441D01*
X51180500Y-64717445D01*
X51052445Y-64845500D01*
X51052441Y-64845505D01*
X50946006Y-64992002D01*
X50863788Y-65153360D01*
X50863787Y-65153363D01*
X50807829Y-65325589D01*
X50782473Y-65485678D01*
X50752544Y-65548813D01*
X50693232Y-65585744D01*
X50623369Y-65584746D01*
X50565137Y-65546136D01*
X50537527Y-65485678D01*
X50517107Y-65356756D01*
X50512171Y-65325591D01*
X50480733Y-65228833D01*
X50456212Y-65153363D01*
X50456211Y-65153360D01*
X50427740Y-65097484D01*
X50373996Y-64992006D01*
X50313682Y-64908990D01*
X50267558Y-64845505D01*
X50267554Y-64845500D01*
X50139499Y-64717445D01*
X50139494Y-64717441D01*
X49992997Y-64611006D01*
X49992996Y-64611005D01*
X49992994Y-64611004D01*
X49916906Y-64572235D01*
X49831639Y-64528788D01*
X49831636Y-64528787D01*
X49659410Y-64472829D01*
X49480551Y-64444500D01*
X49480546Y-64444500D01*
X49299454Y-64444500D01*
X49299449Y-64444500D01*
X49120589Y-64472829D01*
X48948363Y-64528787D01*
X48948360Y-64528788D01*
X48787002Y-64611006D01*
X48640505Y-64717441D01*
X48640500Y-64717445D01*
X48512445Y-64845500D01*
X48512441Y-64845505D01*
X48406006Y-64992002D01*
X48323788Y-65153360D01*
X48323787Y-65153363D01*
X48267829Y-65325589D01*
X48242473Y-65485678D01*
X48212544Y-65548813D01*
X48153232Y-65585744D01*
X48083369Y-65584746D01*
X48025137Y-65546136D01*
X47997527Y-65485678D01*
X47977107Y-65356756D01*
X47972171Y-65325591D01*
X47940733Y-65228833D01*
X47916212Y-65153363D01*
X47916211Y-65153360D01*
X47887740Y-65097484D01*
X47833996Y-64992006D01*
X47773682Y-64908990D01*
X47727558Y-64845505D01*
X47727554Y-64845500D01*
X47599499Y-64717445D01*
X47599494Y-64717441D01*
X47452997Y-64611006D01*
X47452996Y-64611005D01*
X47452994Y-64611004D01*
X47376906Y-64572235D01*
X47291639Y-64528788D01*
X47291636Y-64528787D01*
X47119410Y-64472829D01*
X46940551Y-64444500D01*
X46940546Y-64444500D01*
X46759454Y-64444500D01*
X46759449Y-64444500D01*
X46580589Y-64472829D01*
X46408363Y-64528787D01*
X46408360Y-64528788D01*
X46247002Y-64611006D01*
X46100505Y-64717441D01*
X46100500Y-64717445D01*
X45972445Y-64845500D01*
X45972441Y-64845505D01*
X45866006Y-64992002D01*
X45783788Y-65153360D01*
X45783787Y-65153363D01*
X45727829Y-65325589D01*
X45699500Y-65504448D01*
X42920499Y-65504448D01*
X42920499Y-64700136D01*
X42920497Y-64700117D01*
X42917586Y-64675012D01*
X42917585Y-64675010D01*
X42917585Y-64675009D01*
X42872206Y-64572235D01*
X42792765Y-64492794D01*
X42792763Y-64492793D01*
X42689992Y-64447415D01*
X42664865Y-64444500D01*
X40875143Y-64444500D01*
X40875117Y-64444502D01*
X40850012Y-64447413D01*
X40850008Y-64447415D01*
X40747235Y-64492793D01*
X40667794Y-64572234D01*
X40622415Y-64675006D01*
X40622415Y-64675008D01*
X40619500Y-64700131D01*
X40300500Y-64700131D01*
X40300500Y-58906898D01*
X50774500Y-58906898D01*
X50774500Y-59693102D01*
X50779834Y-59737523D01*
X50785122Y-59781561D01*
X50840639Y-59922343D01*
X50932077Y-60042922D01*
X51052656Y-60134360D01*
X51052657Y-60134360D01*
X51052658Y-60134361D01*
X51193436Y-60189877D01*
X51281898Y-60200500D01*
X51281903Y-60200500D01*
X51352920Y-60200500D01*
X51419959Y-60220185D01*
X51465714Y-60272989D01*
X51475658Y-60342147D01*
X51446633Y-60405703D01*
X51400372Y-60439060D01*
X51384134Y-60445786D01*
X51248458Y-60501983D01*
X51248446Y-60501990D01*
X51100965Y-60600535D01*
X51100961Y-60600538D01*
X50975538Y-60725961D01*
X50975535Y-60725965D01*
X50876990Y-60873446D01*
X50876983Y-60873459D01*
X50809106Y-61037332D01*
X50809103Y-61037341D01*
X50774500Y-61211304D01*
X50774500Y-61388695D01*
X50809103Y-61562658D01*
X50809106Y-61562667D01*
X50876983Y-61726540D01*
X50876990Y-61726553D01*
X50975535Y-61874034D01*
X50975538Y-61874038D01*
X51100961Y-61999461D01*
X51100965Y-61999464D01*
X51248446Y-62098009D01*
X51248459Y-62098016D01*
X51371363Y-62148923D01*
X51412334Y-62165894D01*
X51412336Y-62165894D01*
X51412341Y-62165896D01*
X51586304Y-62200499D01*
X51586307Y-62200500D01*
X51586309Y-62200500D01*
X52313693Y-62200500D01*
X52313694Y-62200499D01*
X52361234Y-62191043D01*
X58274400Y-62191043D01*
X58274400Y-62349157D01*
X58313618Y-62495518D01*
X58315323Y-62501883D01*
X58315323Y-62501884D01*
X58396940Y-62643251D01*
X58413412Y-62711151D01*
X58396940Y-62767249D01*
X58315323Y-62908615D01*
X58315323Y-62908616D01*
X58274400Y-63061343D01*
X58274400Y-63219457D01*
X58300832Y-63318100D01*
X58315323Y-63372183D01*
X58315326Y-63372190D01*
X58394375Y-63509109D01*
X58394379Y-63509114D01*
X58394380Y-63509116D01*
X58506184Y-63620920D01*
X58506186Y-63620921D01*
X58506190Y-63620924D01*
X58593239Y-63671181D01*
X58643116Y-63699977D01*
X58703551Y-63716170D01*
X58763210Y-63752533D01*
X58793740Y-63815380D01*
X58785446Y-63884755D01*
X58759139Y-63923625D01*
X58660678Y-64022086D01*
X58660675Y-64022090D01*
X58581626Y-64159009D01*
X58581623Y-64159016D01*
X58540700Y-64311743D01*
X58540700Y-64469857D01*
X58556491Y-64528788D01*
X58581623Y-64622583D01*
X58581626Y-64622590D01*
X58660675Y-64759509D01*
X58660679Y-64759514D01*
X58660680Y-64759516D01*
X58772484Y-64871320D01*
X58772486Y-64871321D01*
X58772490Y-64871324D01*
X58909409Y-64950373D01*
X58909416Y-64950377D01*
X59062143Y-64991300D01*
X59062145Y-64991300D01*
X59220255Y-64991300D01*
X59220257Y-64991300D01*
X59372984Y-64950377D01*
X59509916Y-64871320D01*
X59621720Y-64759516D01*
X59700777Y-64622584D01*
X59741700Y-64469857D01*
X59741700Y-64311743D01*
X59700777Y-64159016D01*
X59700773Y-64159009D01*
X59621724Y-64022090D01*
X59621718Y-64022082D01*
X59509917Y-63910281D01*
X59509909Y-63910275D01*
X59372990Y-63831226D01*
X59372986Y-63831224D01*
X59372984Y-63831223D01*
X59312547Y-63815029D01*
X59252888Y-63778665D01*
X59222359Y-63715818D01*
X59230654Y-63646443D01*
X59256956Y-63607579D01*
X59355420Y-63509116D01*
X59422261Y-63393343D01*
X69473100Y-63393343D01*
X69473100Y-63551457D01*
X69505179Y-63671175D01*
X69514023Y-63704183D01*
X69514026Y-63704190D01*
X69593075Y-63841109D01*
X69593079Y-63841114D01*
X69593080Y-63841116D01*
X69704884Y-63952920D01*
X69704886Y-63952921D01*
X69704890Y-63952924D01*
X69824684Y-64022086D01*
X69841816Y-64031977D01*
X69994543Y-64072900D01*
X69994545Y-64072900D01*
X70152655Y-64072900D01*
X70152657Y-64072900D01*
X70153616Y-64072643D01*
X84337000Y-64072643D01*
X84337000Y-64230757D01*
X84351615Y-64285299D01*
X84377923Y-64383483D01*
X84377926Y-64383490D01*
X84456975Y-64520409D01*
X84456979Y-64520414D01*
X84456980Y-64520416D01*
X84568784Y-64632220D01*
X84568786Y-64632221D01*
X84568790Y-64632224D01*
X84646692Y-64677200D01*
X84705716Y-64711277D01*
X84858443Y-64752200D01*
X84858445Y-64752200D01*
X85016555Y-64752200D01*
X85016557Y-64752200D01*
X85169284Y-64711277D01*
X85306216Y-64632220D01*
X85418020Y-64520416D01*
X85497077Y-64383484D01*
X85538000Y-64230757D01*
X85538000Y-64072643D01*
X85497077Y-63919916D01*
X85451583Y-63841117D01*
X85418024Y-63782990D01*
X85418018Y-63782982D01*
X85306217Y-63671181D01*
X85306209Y-63671175D01*
X85192876Y-63605743D01*
X101253800Y-63605743D01*
X101253800Y-63763857D01*
X101286195Y-63884755D01*
X101294723Y-63916583D01*
X101294726Y-63916590D01*
X101373775Y-64053509D01*
X101373779Y-64053514D01*
X101373780Y-64053516D01*
X101485584Y-64165320D01*
X101485586Y-64165321D01*
X101485590Y-64165324D01*
X101598925Y-64230757D01*
X101622516Y-64244377D01*
X101775243Y-64285300D01*
X101775245Y-64285300D01*
X101933355Y-64285300D01*
X101933357Y-64285300D01*
X102086084Y-64244377D01*
X102223016Y-64165320D01*
X102334820Y-64053516D01*
X102413877Y-63916584D01*
X102454800Y-63763857D01*
X102454800Y-63605743D01*
X102413877Y-63453016D01*
X102367209Y-63372184D01*
X102334824Y-63316090D01*
X102334818Y-63316082D01*
X102223017Y-63204281D01*
X102223009Y-63204275D01*
X102086090Y-63125226D01*
X102086086Y-63125224D01*
X102086084Y-63125223D01*
X101933357Y-63084300D01*
X101775243Y-63084300D01*
X101622516Y-63125223D01*
X101622509Y-63125226D01*
X101485590Y-63204275D01*
X101485582Y-63204281D01*
X101373781Y-63316082D01*
X101373775Y-63316090D01*
X101294726Y-63453009D01*
X101294723Y-63453016D01*
X101253800Y-63605743D01*
X85192876Y-63605743D01*
X85169290Y-63592126D01*
X85169286Y-63592124D01*
X85169284Y-63592123D01*
X85016557Y-63551200D01*
X84858443Y-63551200D01*
X84705716Y-63592123D01*
X84705709Y-63592126D01*
X84568790Y-63671175D01*
X84568782Y-63671181D01*
X84456981Y-63782982D01*
X84456975Y-63782990D01*
X84377926Y-63919909D01*
X84377923Y-63919916D01*
X84337000Y-64072643D01*
X70153616Y-64072643D01*
X70305384Y-64031977D01*
X70435027Y-63957128D01*
X70435028Y-63957128D01*
X70442309Y-63952924D01*
X70442316Y-63952920D01*
X70554120Y-63841116D01*
X70633177Y-63704184D01*
X70633179Y-63704173D01*
X70636286Y-63696677D01*
X70638336Y-63697526D01*
X70668677Y-63647747D01*
X70731523Y-63617217D01*
X70752088Y-63615500D01*
X70776255Y-63615500D01*
X70776257Y-63615500D01*
X70928984Y-63574577D01*
X71065916Y-63495520D01*
X71177720Y-63383716D01*
X71256777Y-63246784D01*
X71297700Y-63094057D01*
X71297700Y-62935943D01*
X71256777Y-62783216D01*
X71231480Y-62739400D01*
X71177724Y-62646290D01*
X71177718Y-62646282D01*
X71169979Y-62638543D01*
X106125400Y-62638543D01*
X106125400Y-62796657D01*
X106156528Y-62912826D01*
X106166323Y-62949383D01*
X106166326Y-62949390D01*
X106245375Y-63086309D01*
X106245379Y-63086314D01*
X106245380Y-63086316D01*
X106357184Y-63198120D01*
X106357186Y-63198121D01*
X106357190Y-63198124D01*
X106443595Y-63248009D01*
X106494116Y-63277177D01*
X106646843Y-63318100D01*
X106646845Y-63318100D01*
X106804955Y-63318100D01*
X106804957Y-63318100D01*
X106957684Y-63277177D01*
X107094616Y-63198120D01*
X107206420Y-63086316D01*
X107285477Y-62949384D01*
X107326400Y-62796657D01*
X107326400Y-62638543D01*
X107285477Y-62485816D01*
X107213591Y-62361304D01*
X114524500Y-62361304D01*
X114524500Y-62538695D01*
X114559103Y-62712658D01*
X114559106Y-62712667D01*
X114626983Y-62876540D01*
X114626990Y-62876553D01*
X114725535Y-63024034D01*
X114725538Y-63024038D01*
X114850961Y-63149461D01*
X114850965Y-63149464D01*
X114998446Y-63248009D01*
X114998459Y-63248016D01*
X115121363Y-63298923D01*
X115162334Y-63315894D01*
X115162336Y-63315894D01*
X115162341Y-63315896D01*
X115336304Y-63350499D01*
X115336307Y-63350500D01*
X115336309Y-63350500D01*
X116063693Y-63350500D01*
X116063694Y-63350499D01*
X116121682Y-63338964D01*
X116237658Y-63315896D01*
X116237661Y-63315894D01*
X116237666Y-63315894D01*
X116401547Y-63248013D01*
X116549035Y-63149464D01*
X116674464Y-63024035D01*
X116773013Y-62876547D01*
X116840894Y-62712666D01*
X116841196Y-62711151D01*
X116875499Y-62538695D01*
X116875500Y-62538693D01*
X116875500Y-62361306D01*
X116875499Y-62361304D01*
X116840896Y-62187341D01*
X116840893Y-62187332D01*
X116773016Y-62023459D01*
X116773009Y-62023446D01*
X116674464Y-61875965D01*
X116674461Y-61875961D01*
X116549038Y-61750538D01*
X116549034Y-61750535D01*
X116401553Y-61651990D01*
X116401540Y-61651983D01*
X116237667Y-61584106D01*
X116237658Y-61584103D01*
X116063694Y-61549500D01*
X116063691Y-61549500D01*
X115336309Y-61549500D01*
X115336306Y-61549500D01*
X115162341Y-61584103D01*
X115162332Y-61584106D01*
X114998459Y-61651983D01*
X114998446Y-61651990D01*
X114850965Y-61750535D01*
X114850961Y-61750538D01*
X114725538Y-61875961D01*
X114725535Y-61875965D01*
X114626990Y-62023446D01*
X114626983Y-62023459D01*
X114559106Y-62187332D01*
X114559103Y-62187341D01*
X114524500Y-62361304D01*
X107213591Y-62361304D01*
X107206577Y-62349156D01*
X107206422Y-62348887D01*
X107206418Y-62348882D01*
X107094617Y-62237081D01*
X107094609Y-62237075D01*
X106957690Y-62158026D01*
X106957686Y-62158024D01*
X106957684Y-62158023D01*
X106804957Y-62117100D01*
X106646843Y-62117100D01*
X106494116Y-62158023D01*
X106494109Y-62158026D01*
X106357190Y-62237075D01*
X106357182Y-62237081D01*
X106245381Y-62348882D01*
X106245375Y-62348890D01*
X106166326Y-62485809D01*
X106166323Y-62485816D01*
X106125400Y-62638543D01*
X71169979Y-62638543D01*
X71065917Y-62534481D01*
X71065909Y-62534475D01*
X70928990Y-62455426D01*
X70928986Y-62455424D01*
X70928984Y-62455423D01*
X70776257Y-62414500D01*
X70618143Y-62414500D01*
X70465416Y-62455423D01*
X70465409Y-62455426D01*
X70328490Y-62534475D01*
X70328482Y-62534481D01*
X70216681Y-62646282D01*
X70216675Y-62646290D01*
X70137626Y-62783209D01*
X70134514Y-62790723D01*
X70132463Y-62789873D01*
X70102123Y-62839653D01*
X70039277Y-62870183D01*
X70018712Y-62871900D01*
X69994543Y-62871900D01*
X69841816Y-62912823D01*
X69841809Y-62912826D01*
X69704890Y-62991875D01*
X69704882Y-62991881D01*
X69593081Y-63103682D01*
X69593075Y-63103690D01*
X69514026Y-63240609D01*
X69514023Y-63240616D01*
X69473100Y-63393343D01*
X59422261Y-63393343D01*
X59434477Y-63372184D01*
X59475400Y-63219457D01*
X59475400Y-63061343D01*
X59434477Y-62908616D01*
X59355420Y-62771684D01*
X59355419Y-62771683D01*
X59352860Y-62767250D01*
X59336387Y-62699349D01*
X59352860Y-62643250D01*
X59392508Y-62574577D01*
X59434477Y-62501884D01*
X59475400Y-62349157D01*
X59475400Y-62191043D01*
X59440245Y-62059843D01*
X66628800Y-62059843D01*
X66628800Y-62217957D01*
X66663955Y-62349155D01*
X66669723Y-62370683D01*
X66669726Y-62370690D01*
X66748775Y-62507609D01*
X66748779Y-62507614D01*
X66748780Y-62507616D01*
X66860584Y-62619420D01*
X66860586Y-62619421D01*
X66860590Y-62619424D01*
X66997509Y-62698473D01*
X66997516Y-62698477D01*
X67150243Y-62739400D01*
X67150245Y-62739400D01*
X67308355Y-62739400D01*
X67308357Y-62739400D01*
X67461084Y-62698477D01*
X67598016Y-62619420D01*
X67709820Y-62507616D01*
X67788877Y-62370684D01*
X67829800Y-62217957D01*
X67829800Y-62059843D01*
X67788877Y-61907116D01*
X67725181Y-61796790D01*
X67709824Y-61770190D01*
X67709818Y-61770182D01*
X67598017Y-61658381D01*
X67598012Y-61658377D01*
X67471271Y-61585204D01*
X67471270Y-61585204D01*
X67461084Y-61579323D01*
X67308357Y-61538400D01*
X67150243Y-61538400D01*
X66997516Y-61579323D01*
X66997509Y-61579326D01*
X66860590Y-61658375D01*
X66860582Y-61658381D01*
X66748781Y-61770182D01*
X66748775Y-61770190D01*
X66669726Y-61907109D01*
X66669723Y-61907116D01*
X66628800Y-62059843D01*
X59440245Y-62059843D01*
X59434477Y-62038316D01*
X59375374Y-61935945D01*
X59355424Y-61901390D01*
X59355418Y-61901382D01*
X59243617Y-61789581D01*
X59243609Y-61789575D01*
X59106690Y-61710526D01*
X59106686Y-61710524D01*
X59106684Y-61710523D01*
X58953957Y-61669600D01*
X58795843Y-61669600D01*
X58643116Y-61710523D01*
X58643109Y-61710526D01*
X58506190Y-61789575D01*
X58506182Y-61789581D01*
X58394381Y-61901382D01*
X58394375Y-61901390D01*
X58315326Y-62038309D01*
X58315323Y-62038316D01*
X58274400Y-62191043D01*
X52361234Y-62191043D01*
X52379891Y-62187332D01*
X52487658Y-62165896D01*
X52487661Y-62165894D01*
X52487666Y-62165894D01*
X52651547Y-62098013D01*
X52799035Y-61999464D01*
X52924464Y-61874035D01*
X53023013Y-61726547D01*
X53090894Y-61562666D01*
X53096501Y-61534481D01*
X53106156Y-61485943D01*
X70092100Y-61485943D01*
X70092100Y-61644057D01*
X70131092Y-61789575D01*
X70133023Y-61796783D01*
X70133026Y-61796790D01*
X70212075Y-61933709D01*
X70212079Y-61933714D01*
X70212080Y-61933716D01*
X70323884Y-62045520D01*
X70323886Y-62045521D01*
X70323890Y-62045524D01*
X70447865Y-62117100D01*
X70460816Y-62124577D01*
X70613543Y-62165500D01*
X70613545Y-62165500D01*
X70771655Y-62165500D01*
X70771657Y-62165500D01*
X70924384Y-62124577D01*
X71061316Y-62045520D01*
X71170893Y-61935943D01*
X76449500Y-61935943D01*
X76449500Y-62094057D01*
X76487822Y-62237075D01*
X76490423Y-62246783D01*
X76490426Y-62246790D01*
X76569475Y-62383709D01*
X76569479Y-62383714D01*
X76569480Y-62383716D01*
X76681284Y-62495520D01*
X76681286Y-62495521D01*
X76681290Y-62495524D01*
X76756066Y-62538695D01*
X76818216Y-62574577D01*
X76970943Y-62615500D01*
X76970945Y-62615500D01*
X77129055Y-62615500D01*
X77129057Y-62615500D01*
X77281784Y-62574577D01*
X77317024Y-62554231D01*
X77371070Y-62523029D01*
X77418709Y-62495524D01*
X77418708Y-62495524D01*
X77418716Y-62495520D01*
X77530520Y-62383716D01*
X77609577Y-62246784D01*
X77650500Y-62094057D01*
X77650500Y-61935943D01*
X77609577Y-61783216D01*
X77590711Y-61750538D01*
X77530524Y-61646290D01*
X77530518Y-61646282D01*
X77497979Y-61613743D01*
X82755000Y-61613743D01*
X82755000Y-61771857D01*
X82791243Y-61907116D01*
X82795923Y-61924583D01*
X82795926Y-61924590D01*
X82874975Y-62061509D01*
X82874979Y-62061514D01*
X82874980Y-62061516D01*
X82986784Y-62173320D01*
X82986786Y-62173321D01*
X82986790Y-62173324D01*
X83114039Y-62246790D01*
X83123716Y-62252377D01*
X83276443Y-62293300D01*
X83276445Y-62293300D01*
X83434555Y-62293300D01*
X83434557Y-62293300D01*
X83587284Y-62252377D01*
X83724216Y-62173320D01*
X83836020Y-62061516D01*
X83915077Y-61924584D01*
X83956000Y-61771857D01*
X83956000Y-61613743D01*
X83915077Y-61461016D01*
X83873321Y-61388691D01*
X83836024Y-61324090D01*
X83836018Y-61324082D01*
X83724217Y-61212281D01*
X83724209Y-61212275D01*
X83587290Y-61133226D01*
X83587286Y-61133224D01*
X83587284Y-61133223D01*
X83434557Y-61092300D01*
X83276443Y-61092300D01*
X83123716Y-61133223D01*
X83116770Y-61137232D01*
X83116766Y-61137234D01*
X82986790Y-61212275D01*
X82986782Y-61212281D01*
X82874981Y-61324082D01*
X82874975Y-61324090D01*
X82795926Y-61461009D01*
X82795923Y-61461016D01*
X82755000Y-61613743D01*
X77497979Y-61613743D01*
X77418717Y-61534481D01*
X77418709Y-61534475D01*
X77281790Y-61455426D01*
X77281786Y-61455424D01*
X77281784Y-61455423D01*
X77129057Y-61414500D01*
X76970943Y-61414500D01*
X76818216Y-61455423D01*
X76818209Y-61455426D01*
X76681290Y-61534475D01*
X76681282Y-61534481D01*
X76569481Y-61646282D01*
X76569475Y-61646290D01*
X76490426Y-61783209D01*
X76490423Y-61783216D01*
X76449500Y-61935943D01*
X71170893Y-61935943D01*
X71173120Y-61933716D01*
X71252177Y-61796784D01*
X71293100Y-61644057D01*
X71293100Y-61485943D01*
X71252177Y-61333216D01*
X71182356Y-61212281D01*
X71173124Y-61196290D01*
X71173118Y-61196282D01*
X71061317Y-61084481D01*
X71061309Y-61084475D01*
X70924390Y-61005426D01*
X70924386Y-61005424D01*
X70924384Y-61005423D01*
X70771657Y-60964500D01*
X70613543Y-60964500D01*
X70460816Y-61005423D01*
X70460809Y-61005426D01*
X70323890Y-61084475D01*
X70323882Y-61084481D01*
X70212081Y-61196282D01*
X70212075Y-61196290D01*
X70133026Y-61333209D01*
X70133023Y-61333216D01*
X70092100Y-61485943D01*
X53106156Y-61485943D01*
X53125499Y-61388695D01*
X53125500Y-61388693D01*
X53125500Y-61211306D01*
X53125499Y-61211304D01*
X53090896Y-61037341D01*
X53090893Y-61037332D01*
X53023016Y-60873459D01*
X53023009Y-60873446D01*
X52924464Y-60725965D01*
X52924461Y-60725961D01*
X52799038Y-60600538D01*
X52799034Y-60600535D01*
X52651553Y-60501990D01*
X52651541Y-60501983D01*
X52519718Y-60447382D01*
X52499627Y-60439060D01*
X52497629Y-60437450D01*
X52495092Y-60437075D01*
X52470586Y-60415659D01*
X52445224Y-60395221D01*
X52444413Y-60392784D01*
X52442482Y-60391097D01*
X52433444Y-60359828D01*
X52423159Y-60328927D01*
X52423793Y-60326440D01*
X52423081Y-60323975D01*
X52430546Y-60298943D01*
X63864100Y-60298943D01*
X63864100Y-60457057D01*
X63888091Y-60546590D01*
X63905023Y-60609783D01*
X63905026Y-60609790D01*
X63984075Y-60746709D01*
X63984079Y-60746714D01*
X63984080Y-60746716D01*
X64095884Y-60858520D01*
X64095886Y-60858521D01*
X64095890Y-60858524D01*
X64232809Y-60937573D01*
X64232816Y-60937577D01*
X64385543Y-60978500D01*
X64385545Y-60978500D01*
X64543655Y-60978500D01*
X64543657Y-60978500D01*
X64696384Y-60937577D01*
X64833316Y-60858520D01*
X64945120Y-60746716D01*
X65024177Y-60609784D01*
X65065100Y-60457057D01*
X65065100Y-60298943D01*
X65048166Y-60235743D01*
X75351200Y-60235743D01*
X75351200Y-60393857D01*
X75387381Y-60528884D01*
X75392123Y-60546583D01*
X75392126Y-60546590D01*
X75471175Y-60683509D01*
X75471179Y-60683514D01*
X75471180Y-60683516D01*
X75582984Y-60795320D01*
X75582986Y-60795321D01*
X75582990Y-60795324D01*
X75718326Y-60873459D01*
X75719916Y-60874377D01*
X75872643Y-60915300D01*
X75872645Y-60915300D01*
X76030755Y-60915300D01*
X76030757Y-60915300D01*
X76183484Y-60874377D01*
X76320416Y-60795320D01*
X76432220Y-60683516D01*
X76511277Y-60546584D01*
X76552200Y-60393857D01*
X76552200Y-60235743D01*
X76547457Y-60218043D01*
X82381900Y-60218043D01*
X82381900Y-60376157D01*
X82412007Y-60488516D01*
X82422823Y-60528883D01*
X82422826Y-60528890D01*
X82501875Y-60665809D01*
X82501879Y-60665814D01*
X82501880Y-60665816D01*
X82613684Y-60777620D01*
X82613686Y-60777621D01*
X82613690Y-60777624D01*
X82743667Y-60852665D01*
X82750616Y-60856677D01*
X82903343Y-60897600D01*
X82903345Y-60897600D01*
X83052894Y-60897600D01*
X83061457Y-60897600D01*
X83214184Y-60856677D01*
X83351116Y-60777620D01*
X83462920Y-60665816D01*
X83541977Y-60528884D01*
X83582900Y-60376157D01*
X83582900Y-60218043D01*
X83541977Y-60065316D01*
X83527790Y-60040743D01*
X84129300Y-60040743D01*
X84129300Y-60198857D01*
X84167695Y-60342147D01*
X84170223Y-60351583D01*
X84170226Y-60351590D01*
X84249275Y-60488509D01*
X84249279Y-60488514D01*
X84249280Y-60488516D01*
X84361084Y-60600320D01*
X84361086Y-60600321D01*
X84361090Y-60600324D01*
X84474515Y-60665809D01*
X84498016Y-60679377D01*
X84650743Y-60720300D01*
X84650745Y-60720300D01*
X84808855Y-60720300D01*
X84808857Y-60720300D01*
X84961584Y-60679377D01*
X85098516Y-60600320D01*
X85210320Y-60488516D01*
X85289377Y-60351584D01*
X85330300Y-60198857D01*
X85330300Y-60040743D01*
X85289377Y-59888016D01*
X85210320Y-59751084D01*
X85198379Y-59739143D01*
X104886000Y-59739143D01*
X104886000Y-59897257D01*
X104924448Y-60040745D01*
X104926923Y-60049983D01*
X104926926Y-60049990D01*
X105005975Y-60186909D01*
X105005979Y-60186914D01*
X105005980Y-60186916D01*
X105117784Y-60298720D01*
X105117786Y-60298721D01*
X105117790Y-60298724D01*
X105251908Y-60376156D01*
X105254716Y-60377777D01*
X105407443Y-60418700D01*
X105407445Y-60418700D01*
X105565555Y-60418700D01*
X105565557Y-60418700D01*
X105718284Y-60377777D01*
X105855216Y-60298720D01*
X105967020Y-60186916D01*
X106046077Y-60049984D01*
X106087000Y-59897257D01*
X106087000Y-59739143D01*
X106046077Y-59586416D01*
X106007328Y-59519300D01*
X105967024Y-59449490D01*
X105967018Y-59449482D01*
X105855217Y-59337681D01*
X105855209Y-59337675D01*
X105718290Y-59258626D01*
X105718286Y-59258624D01*
X105718284Y-59258623D01*
X105565557Y-59217700D01*
X105407443Y-59217700D01*
X105254716Y-59258623D01*
X105254709Y-59258626D01*
X105117790Y-59337675D01*
X105117782Y-59337681D01*
X105005981Y-59449482D01*
X105005975Y-59449490D01*
X104926926Y-59586409D01*
X104926923Y-59586416D01*
X104886000Y-59739143D01*
X85198379Y-59739143D01*
X85098516Y-59639280D01*
X85098514Y-59639279D01*
X85098509Y-59639275D01*
X84961590Y-59560226D01*
X84961586Y-59560224D01*
X84961584Y-59560223D01*
X84808857Y-59519300D01*
X84650743Y-59519300D01*
X84498016Y-59560223D01*
X84498009Y-59560226D01*
X84361090Y-59639275D01*
X84361082Y-59639281D01*
X84249281Y-59751082D01*
X84249275Y-59751090D01*
X84170226Y-59888009D01*
X84170223Y-59888016D01*
X84129300Y-60040743D01*
X83527790Y-60040743D01*
X83509626Y-60009282D01*
X83462924Y-59928390D01*
X83462918Y-59928382D01*
X83351117Y-59816581D01*
X83351109Y-59816575D01*
X83214190Y-59737526D01*
X83214186Y-59737524D01*
X83214184Y-59737523D01*
X83061457Y-59696600D01*
X82903343Y-59696600D01*
X82750616Y-59737523D01*
X82750609Y-59737526D01*
X82613690Y-59816575D01*
X82613682Y-59816581D01*
X82501881Y-59928382D01*
X82501875Y-59928390D01*
X82422826Y-60065309D01*
X82422823Y-60065316D01*
X82381900Y-60218043D01*
X76547457Y-60218043D01*
X76511277Y-60083016D01*
X76468712Y-60009290D01*
X76432224Y-59946090D01*
X76432218Y-59946082D01*
X76320417Y-59834281D01*
X76320409Y-59834275D01*
X76183490Y-59755226D01*
X76183486Y-59755224D01*
X76183484Y-59755223D01*
X76030757Y-59714300D01*
X75872643Y-59714300D01*
X75719916Y-59755223D01*
X75719909Y-59755226D01*
X75582990Y-59834275D01*
X75582982Y-59834281D01*
X75471181Y-59946082D01*
X75471175Y-59946090D01*
X75392126Y-60083009D01*
X75392124Y-60083014D01*
X75392123Y-60083016D01*
X75351200Y-60235743D01*
X65048166Y-60235743D01*
X65024177Y-60146216D01*
X64977466Y-60065309D01*
X64945124Y-60009290D01*
X64945118Y-60009282D01*
X64833317Y-59897481D01*
X64833309Y-59897475D01*
X64696390Y-59818426D01*
X64696386Y-59818424D01*
X64696384Y-59818423D01*
X64543657Y-59777500D01*
X64385543Y-59777500D01*
X64232816Y-59818423D01*
X64232809Y-59818426D01*
X64095890Y-59897475D01*
X64095882Y-59897481D01*
X63984081Y-60009282D01*
X63984075Y-60009290D01*
X63905026Y-60146209D01*
X63905024Y-60146214D01*
X63905023Y-60146216D01*
X63864100Y-60298943D01*
X52430546Y-60298943D01*
X52432387Y-60292769D01*
X52440438Y-60261227D01*
X52442315Y-60259478D01*
X52443049Y-60257020D01*
X52467749Y-60235799D01*
X52491575Y-60213617D01*
X52494699Y-60212645D01*
X52496046Y-60211489D01*
X52503779Y-60209823D01*
X52529953Y-60201689D01*
X52538479Y-60200500D01*
X52618102Y-60200500D01*
X52706564Y-60189877D01*
X52847342Y-60134361D01*
X52967922Y-60042922D01*
X53059361Y-59922342D01*
X53114877Y-59781564D01*
X53125500Y-59693102D01*
X53125500Y-59275543D01*
X67355500Y-59275543D01*
X67355500Y-59433657D01*
X67359743Y-59449490D01*
X67396423Y-59586383D01*
X67396426Y-59586390D01*
X67475475Y-59723309D01*
X67475479Y-59723314D01*
X67475480Y-59723316D01*
X67587284Y-59835120D01*
X67587286Y-59835121D01*
X67587290Y-59835124D01*
X67695297Y-59897481D01*
X67724216Y-59914177D01*
X67876943Y-59955100D01*
X67876945Y-59955100D01*
X68035055Y-59955100D01*
X68035057Y-59955100D01*
X68187784Y-59914177D01*
X68324716Y-59835120D01*
X68436520Y-59723316D01*
X68515577Y-59586384D01*
X68556500Y-59433657D01*
X68556500Y-59275543D01*
X68515577Y-59122816D01*
X68515573Y-59122809D01*
X68436524Y-58985890D01*
X68436518Y-58985882D01*
X68324717Y-58874081D01*
X68324709Y-58874075D01*
X68187790Y-58795026D01*
X68187786Y-58795024D01*
X68187784Y-58795023D01*
X68035057Y-58754100D01*
X67876943Y-58754100D01*
X67724216Y-58795023D01*
X67724209Y-58795026D01*
X67587290Y-58874075D01*
X67587282Y-58874081D01*
X67475481Y-58985882D01*
X67475475Y-58985890D01*
X67396426Y-59122809D01*
X67396423Y-59122816D01*
X67355500Y-59275543D01*
X53125500Y-59275543D01*
X53125500Y-58906898D01*
X53114877Y-58818436D01*
X53059361Y-58677658D01*
X53059360Y-58677657D01*
X53059360Y-58677656D01*
X52967922Y-58557077D01*
X52847343Y-58465639D01*
X52706561Y-58410122D01*
X52660926Y-58404642D01*
X52618102Y-58399500D01*
X51281898Y-58399500D01*
X51242853Y-58404188D01*
X51193438Y-58410122D01*
X51052656Y-58465639D01*
X50932077Y-58557077D01*
X50840639Y-58677656D01*
X50785122Y-58818438D01*
X50779188Y-58867853D01*
X50774500Y-58906898D01*
X40300500Y-58906898D01*
X40300500Y-58084043D01*
X54575400Y-58084043D01*
X54575400Y-58242157D01*
X54585734Y-58280722D01*
X54616323Y-58394883D01*
X54616326Y-58394890D01*
X54695375Y-58531809D01*
X54695379Y-58531814D01*
X54695380Y-58531816D01*
X54807184Y-58643620D01*
X54807186Y-58643621D01*
X54807190Y-58643624D01*
X54866140Y-58677658D01*
X54944116Y-58722677D01*
X55096843Y-58763600D01*
X55096845Y-58763600D01*
X55254955Y-58763600D01*
X55254957Y-58763600D01*
X55407684Y-58722677D01*
X55544616Y-58643620D01*
X55656420Y-58531816D01*
X55735477Y-58394884D01*
X55755289Y-58320943D01*
X88555700Y-58320943D01*
X88555700Y-58479057D01*
X88576606Y-58557077D01*
X88596623Y-58631783D01*
X88596626Y-58631790D01*
X88675675Y-58768709D01*
X88675679Y-58768714D01*
X88675680Y-58768716D01*
X88787484Y-58880520D01*
X88787486Y-58880521D01*
X88787490Y-58880524D01*
X88924409Y-58959573D01*
X88924416Y-58959577D01*
X89077143Y-59000500D01*
X89077145Y-59000500D01*
X89235255Y-59000500D01*
X89235257Y-59000500D01*
X89387984Y-58959577D01*
X89524916Y-58880520D01*
X89636720Y-58768716D01*
X89715777Y-58631784D01*
X89756700Y-58479057D01*
X89756700Y-58320943D01*
X89715777Y-58168216D01*
X89698101Y-58137600D01*
X89636724Y-58031290D01*
X89636718Y-58031282D01*
X89524917Y-57919481D01*
X89524909Y-57919475D01*
X89387990Y-57840426D01*
X89387986Y-57840424D01*
X89387984Y-57840423D01*
X89235257Y-57799500D01*
X89077143Y-57799500D01*
X88924416Y-57840423D01*
X88924409Y-57840426D01*
X88787490Y-57919475D01*
X88787482Y-57919481D01*
X88675681Y-58031282D01*
X88675675Y-58031290D01*
X88596626Y-58168209D01*
X88596623Y-58168216D01*
X88555700Y-58320943D01*
X55755289Y-58320943D01*
X55776400Y-58242157D01*
X55776400Y-58084043D01*
X55735477Y-57931316D01*
X55720813Y-57905917D01*
X55656424Y-57794390D01*
X55656418Y-57794382D01*
X55544617Y-57682581D01*
X55544609Y-57682575D01*
X55407690Y-57603526D01*
X55407686Y-57603524D01*
X55407684Y-57603523D01*
X55254957Y-57562600D01*
X55096843Y-57562600D01*
X54944116Y-57603523D01*
X54944109Y-57603526D01*
X54807190Y-57682575D01*
X54807182Y-57682581D01*
X54695381Y-57794382D01*
X54695375Y-57794390D01*
X54616326Y-57931309D01*
X54616323Y-57931316D01*
X54575400Y-58084043D01*
X40300500Y-58084043D01*
X40300500Y-57025643D01*
X69918900Y-57025643D01*
X69918900Y-57183757D01*
X69951499Y-57305416D01*
X69959823Y-57336483D01*
X69959826Y-57336490D01*
X70038875Y-57473409D01*
X70038879Y-57473414D01*
X70038880Y-57473416D01*
X70150684Y-57585220D01*
X70150686Y-57585221D01*
X70150690Y-57585224D01*
X70204440Y-57616256D01*
X70287616Y-57664277D01*
X70440343Y-57705200D01*
X70440345Y-57705200D01*
X70598455Y-57705200D01*
X70598457Y-57705200D01*
X70751184Y-57664277D01*
X70888116Y-57585220D01*
X70999920Y-57473416D01*
X71008738Y-57458143D01*
X77898400Y-57458143D01*
X77898400Y-57616257D01*
X77916172Y-57682581D01*
X77939323Y-57768983D01*
X77939326Y-57768990D01*
X78018375Y-57905909D01*
X78018379Y-57905914D01*
X78018380Y-57905916D01*
X78130184Y-58017720D01*
X78130186Y-58017721D01*
X78130190Y-58017724D01*
X78170662Y-58041090D01*
X78267116Y-58096777D01*
X78419843Y-58137700D01*
X78419845Y-58137700D01*
X78577955Y-58137700D01*
X78577957Y-58137700D01*
X78730684Y-58096777D01*
X78827138Y-58041089D01*
X78895036Y-58024617D01*
X78951135Y-58041089D01*
X79047416Y-58096677D01*
X79200143Y-58137600D01*
X79200145Y-58137600D01*
X79358255Y-58137600D01*
X79358257Y-58137600D01*
X79510984Y-58096677D01*
X79647916Y-58017620D01*
X79759720Y-57905816D01*
X79838777Y-57768884D01*
X79879700Y-57616157D01*
X79879700Y-57458043D01*
X79838777Y-57305316D01*
X79784484Y-57211277D01*
X79759724Y-57168390D01*
X79759718Y-57168382D01*
X79647917Y-57056581D01*
X79647909Y-57056575D01*
X79510990Y-56977526D01*
X79510986Y-56977524D01*
X79510984Y-56977523D01*
X79358257Y-56936600D01*
X79200143Y-56936600D01*
X79047416Y-56977523D01*
X79047415Y-56977523D01*
X78950962Y-57033210D01*
X78883062Y-57049682D01*
X78826964Y-57033209D01*
X78730690Y-56977626D01*
X78730686Y-56977624D01*
X78730684Y-56977623D01*
X78577957Y-56936700D01*
X78419843Y-56936700D01*
X78267116Y-56977623D01*
X78267109Y-56977626D01*
X78130190Y-57056675D01*
X78130182Y-57056681D01*
X78018381Y-57168482D01*
X78018375Y-57168490D01*
X77939326Y-57305409D01*
X77939323Y-57305416D01*
X77898400Y-57458143D01*
X71008738Y-57458143D01*
X71078977Y-57336484D01*
X71119900Y-57183757D01*
X71119900Y-57025643D01*
X71078977Y-56872916D01*
X71078973Y-56872909D01*
X70999924Y-56735990D01*
X70999918Y-56735982D01*
X70888117Y-56624181D01*
X70888109Y-56624175D01*
X70798852Y-56572643D01*
X97049500Y-56572643D01*
X97049500Y-56730757D01*
X97087592Y-56872916D01*
X97090423Y-56883483D01*
X97090426Y-56883490D01*
X97169475Y-57020409D01*
X97169479Y-57020414D01*
X97169480Y-57020416D01*
X97281284Y-57132220D01*
X97281286Y-57132221D01*
X97281290Y-57132224D01*
X97418209Y-57211273D01*
X97418216Y-57211277D01*
X97570943Y-57252200D01*
X97570945Y-57252200D01*
X97729055Y-57252200D01*
X97729057Y-57252200D01*
X97881784Y-57211277D01*
X98018716Y-57132220D01*
X98130520Y-57020416D01*
X98209577Y-56883484D01*
X98226790Y-56819243D01*
X106301800Y-56819243D01*
X106301800Y-56977357D01*
X106328785Y-57078064D01*
X106342723Y-57130083D01*
X106342726Y-57130090D01*
X106421775Y-57267009D01*
X106421779Y-57267014D01*
X106421780Y-57267016D01*
X106533584Y-57378820D01*
X106533586Y-57378821D01*
X106533590Y-57378824D01*
X106670509Y-57457873D01*
X106670516Y-57457877D01*
X106823243Y-57498800D01*
X106823245Y-57498800D01*
X106981355Y-57498800D01*
X106981357Y-57498800D01*
X107134084Y-57457877D01*
X107271016Y-57378820D01*
X107382820Y-57267016D01*
X107461877Y-57130084D01*
X107502800Y-56977357D01*
X107502800Y-56819243D01*
X107461877Y-56666516D01*
X107407680Y-56572643D01*
X107382824Y-56529590D01*
X107382818Y-56529582D01*
X107271017Y-56417781D01*
X107271009Y-56417775D01*
X107134090Y-56338726D01*
X107134086Y-56338724D01*
X107134084Y-56338723D01*
X106981357Y-56297800D01*
X106823243Y-56297800D01*
X106670516Y-56338723D01*
X106670509Y-56338726D01*
X106533590Y-56417775D01*
X106533582Y-56417781D01*
X106421781Y-56529582D01*
X106421775Y-56529590D01*
X106342726Y-56666509D01*
X106342723Y-56666516D01*
X106301800Y-56819243D01*
X98226790Y-56819243D01*
X98250500Y-56730757D01*
X98250500Y-56572643D01*
X98209577Y-56419916D01*
X98178782Y-56366577D01*
X98130524Y-56282990D01*
X98130518Y-56282982D01*
X98018717Y-56171181D01*
X98018709Y-56171175D01*
X97881790Y-56092126D01*
X97881786Y-56092124D01*
X97881784Y-56092123D01*
X97729057Y-56051200D01*
X97570943Y-56051200D01*
X97418216Y-56092123D01*
X97418209Y-56092126D01*
X97281290Y-56171175D01*
X97281282Y-56171181D01*
X97169481Y-56282982D01*
X97169475Y-56282990D01*
X97090426Y-56419909D01*
X97090423Y-56419916D01*
X97049500Y-56572643D01*
X70798852Y-56572643D01*
X70751190Y-56545126D01*
X70751186Y-56545124D01*
X70751184Y-56545123D01*
X70598457Y-56504200D01*
X70440343Y-56504200D01*
X70287616Y-56545123D01*
X70287609Y-56545126D01*
X70150690Y-56624175D01*
X70150682Y-56624181D01*
X70038881Y-56735982D01*
X70038875Y-56735990D01*
X69959826Y-56872909D01*
X69959823Y-56872916D01*
X69918900Y-57025643D01*
X40300500Y-57025643D01*
X40300500Y-55727943D01*
X53394100Y-55727943D01*
X53394100Y-55886057D01*
X53434311Y-56036124D01*
X53435023Y-56038783D01*
X53435026Y-56038790D01*
X53514075Y-56175709D01*
X53514079Y-56175714D01*
X53514080Y-56175716D01*
X53625884Y-56287520D01*
X53625886Y-56287521D01*
X53625890Y-56287524D01*
X53714571Y-56338723D01*
X53762816Y-56366577D01*
X53915543Y-56407500D01*
X53915545Y-56407500D01*
X54073655Y-56407500D01*
X54073657Y-56407500D01*
X54226384Y-56366577D01*
X54363316Y-56287520D01*
X54475120Y-56175716D01*
X54554177Y-56038784D01*
X54595100Y-55886057D01*
X54595100Y-55727943D01*
X54554177Y-55575216D01*
X54530660Y-55534483D01*
X54475124Y-55438290D01*
X54475118Y-55438282D01*
X54363317Y-55326481D01*
X54363309Y-55326475D01*
X54305922Y-55293343D01*
X57968400Y-55293343D01*
X57968400Y-55451457D01*
X58006931Y-55595255D01*
X58009323Y-55604183D01*
X58009326Y-55604190D01*
X58088375Y-55741109D01*
X58088379Y-55741114D01*
X58088380Y-55741116D01*
X58200184Y-55852920D01*
X58200186Y-55852921D01*
X58200190Y-55852924D01*
X58323848Y-55924317D01*
X58337116Y-55931977D01*
X58489843Y-55972900D01*
X58489845Y-55972900D01*
X58647955Y-55972900D01*
X58647957Y-55972900D01*
X58800684Y-55931977D01*
X58937616Y-55852920D01*
X59049420Y-55741116D01*
X59128477Y-55604184D01*
X59160883Y-55483243D01*
X60836600Y-55483243D01*
X60836600Y-55641357D01*
X60875730Y-55787390D01*
X60877523Y-55794083D01*
X60877526Y-55794090D01*
X60956575Y-55931009D01*
X60956579Y-55931014D01*
X60956580Y-55931016D01*
X61068384Y-56042820D01*
X61068386Y-56042821D01*
X61068390Y-56042824D01*
X61153780Y-56092123D01*
X61205316Y-56121877D01*
X61358043Y-56162800D01*
X61358045Y-56162800D01*
X61516155Y-56162800D01*
X61516157Y-56162800D01*
X61668884Y-56121877D01*
X61805816Y-56042820D01*
X61917620Y-55931016D01*
X61996677Y-55794084D01*
X62037600Y-55641357D01*
X62037600Y-55483243D01*
X62035805Y-55476543D01*
X69143100Y-55476543D01*
X69143100Y-55634657D01*
X69182909Y-55783224D01*
X69184023Y-55787383D01*
X69184026Y-55787390D01*
X69263075Y-55924309D01*
X69263079Y-55924314D01*
X69263080Y-55924316D01*
X69374884Y-56036120D01*
X69374886Y-56036121D01*
X69374890Y-56036124D01*
X69471885Y-56092123D01*
X69511816Y-56115177D01*
X69664543Y-56156100D01*
X69664545Y-56156100D01*
X69822655Y-56156100D01*
X69822657Y-56156100D01*
X69975384Y-56115177D01*
X70112316Y-56036120D01*
X70224120Y-55924316D01*
X70303177Y-55787384D01*
X70344100Y-55634657D01*
X70344100Y-55476543D01*
X70333543Y-55437143D01*
X73713900Y-55437143D01*
X73713900Y-55595257D01*
X73726253Y-55641357D01*
X73754823Y-55747983D01*
X73754826Y-55747990D01*
X73833875Y-55884909D01*
X73833879Y-55884914D01*
X73833880Y-55884916D01*
X73945684Y-55996720D01*
X73945686Y-55996721D01*
X73945690Y-55996724D01*
X74025532Y-56042820D01*
X74082616Y-56075777D01*
X74235343Y-56116700D01*
X74235345Y-56116700D01*
X74393455Y-56116700D01*
X74393457Y-56116700D01*
X74546184Y-56075777D01*
X74683116Y-55996720D01*
X74794920Y-55884916D01*
X74873977Y-55747984D01*
X74914900Y-55595257D01*
X74914900Y-55437143D01*
X74873977Y-55284416D01*
X74838890Y-55223643D01*
X76681200Y-55223643D01*
X76681200Y-55381757D01*
X76719234Y-55523700D01*
X76722123Y-55534483D01*
X76722126Y-55534490D01*
X76801175Y-55671409D01*
X76801179Y-55671414D01*
X76801180Y-55671416D01*
X76912984Y-55783220D01*
X76912986Y-55783221D01*
X76912990Y-55783224D01*
X77033709Y-55852920D01*
X77049916Y-55862277D01*
X77202643Y-55903200D01*
X77202645Y-55903200D01*
X77360755Y-55903200D01*
X77360757Y-55903200D01*
X77513484Y-55862277D01*
X77650416Y-55783220D01*
X77762220Y-55671416D01*
X77841277Y-55534484D01*
X77882200Y-55381757D01*
X77882200Y-55223643D01*
X77841277Y-55070916D01*
X77820931Y-55035675D01*
X77762224Y-54933990D01*
X77762218Y-54933982D01*
X77672379Y-54844143D01*
X85971000Y-54844143D01*
X85971000Y-55002257D01*
X86009914Y-55147484D01*
X86011923Y-55154983D01*
X86011926Y-55154990D01*
X86090975Y-55291909D01*
X86090979Y-55291914D01*
X86090980Y-55291916D01*
X86202784Y-55403720D01*
X86202786Y-55403721D01*
X86202790Y-55403724D01*
X86302187Y-55461110D01*
X86339716Y-55482777D01*
X86492443Y-55523700D01*
X86492445Y-55523700D01*
X86650555Y-55523700D01*
X86650557Y-55523700D01*
X86803284Y-55482777D01*
X86940216Y-55403720D01*
X87052020Y-55291916D01*
X87131077Y-55154984D01*
X87172000Y-55002257D01*
X87172000Y-54844143D01*
X87131077Y-54691416D01*
X87131073Y-54691409D01*
X87052024Y-54554490D01*
X87052018Y-54554482D01*
X86940217Y-54442681D01*
X86940209Y-54442675D01*
X86803290Y-54363626D01*
X86803286Y-54363624D01*
X86803284Y-54363623D01*
X86650557Y-54322700D01*
X86492443Y-54322700D01*
X86339716Y-54363623D01*
X86339709Y-54363626D01*
X86202790Y-54442675D01*
X86202782Y-54442681D01*
X86090981Y-54554482D01*
X86090975Y-54554490D01*
X86011926Y-54691409D01*
X86011923Y-54691416D01*
X85971000Y-54844143D01*
X77672379Y-54844143D01*
X77650417Y-54822181D01*
X77650409Y-54822175D01*
X77513490Y-54743126D01*
X77513486Y-54743124D01*
X77513484Y-54743123D01*
X77360757Y-54702200D01*
X77202643Y-54702200D01*
X77049916Y-54743123D01*
X77049909Y-54743126D01*
X76912990Y-54822175D01*
X76912982Y-54822181D01*
X76801181Y-54933982D01*
X76801175Y-54933990D01*
X76722126Y-55070909D01*
X76722123Y-55070916D01*
X76681200Y-55223643D01*
X74838890Y-55223643D01*
X74794920Y-55147484D01*
X74683116Y-55035680D01*
X74683114Y-55035679D01*
X74683109Y-55035675D01*
X74546190Y-54956626D01*
X74546186Y-54956624D01*
X74546184Y-54956623D01*
X74393457Y-54915700D01*
X74235343Y-54915700D01*
X74082616Y-54956623D01*
X74082609Y-54956626D01*
X73945690Y-55035675D01*
X73945682Y-55035681D01*
X73833881Y-55147482D01*
X73833875Y-55147490D01*
X73754826Y-55284409D01*
X73754823Y-55284416D01*
X73713900Y-55437143D01*
X70333543Y-55437143D01*
X70303177Y-55323816D01*
X70276446Y-55277516D01*
X70224124Y-55186890D01*
X70224118Y-55186882D01*
X70112317Y-55075081D01*
X70112309Y-55075075D01*
X69975390Y-54996026D01*
X69975386Y-54996024D01*
X69975384Y-54996023D01*
X69822657Y-54955100D01*
X69664543Y-54955100D01*
X69511816Y-54996023D01*
X69511809Y-54996026D01*
X69374890Y-55075075D01*
X69374882Y-55075081D01*
X69263081Y-55186882D01*
X69263075Y-55186890D01*
X69184026Y-55323809D01*
X69184023Y-55323816D01*
X69143100Y-55476543D01*
X62035805Y-55476543D01*
X61996677Y-55330516D01*
X61975217Y-55293345D01*
X61917624Y-55193590D01*
X61917618Y-55193582D01*
X61805817Y-55081781D01*
X61805809Y-55081775D01*
X61668890Y-55002726D01*
X61668886Y-55002724D01*
X61668884Y-55002723D01*
X61516157Y-54961800D01*
X61358043Y-54961800D01*
X61205316Y-55002723D01*
X61205309Y-55002726D01*
X61068390Y-55081775D01*
X61068382Y-55081781D01*
X60956581Y-55193582D01*
X60956575Y-55193590D01*
X60877526Y-55330509D01*
X60877523Y-55330516D01*
X60836600Y-55483243D01*
X59160883Y-55483243D01*
X59169400Y-55451457D01*
X59169400Y-55293343D01*
X59128477Y-55140616D01*
X59094509Y-55081781D01*
X59049424Y-55003690D01*
X59049418Y-55003682D01*
X58937617Y-54891881D01*
X58937609Y-54891875D01*
X58800690Y-54812826D01*
X58800686Y-54812824D01*
X58800684Y-54812823D01*
X58647957Y-54771900D01*
X58489843Y-54771900D01*
X58337116Y-54812823D01*
X58337109Y-54812826D01*
X58200190Y-54891875D01*
X58200182Y-54891881D01*
X58088381Y-55003682D01*
X58088375Y-55003690D01*
X58009326Y-55140609D01*
X58009323Y-55140616D01*
X57968400Y-55293343D01*
X54305922Y-55293343D01*
X54226390Y-55247426D01*
X54226386Y-55247424D01*
X54226384Y-55247423D01*
X54073657Y-55206500D01*
X53915543Y-55206500D01*
X53762816Y-55247423D01*
X53762809Y-55247426D01*
X53625890Y-55326475D01*
X53625882Y-55326481D01*
X53514081Y-55438282D01*
X53514075Y-55438290D01*
X53435026Y-55575209D01*
X53435023Y-55575216D01*
X53394100Y-55727943D01*
X40300500Y-55727943D01*
X40300500Y-52866643D01*
X65937300Y-52866643D01*
X65937300Y-53024757D01*
X65960773Y-53112357D01*
X65978223Y-53177483D01*
X65978226Y-53177490D01*
X66057275Y-53314409D01*
X66057279Y-53314414D01*
X66057280Y-53314416D01*
X66169084Y-53426220D01*
X66169086Y-53426221D01*
X66169090Y-53426224D01*
X66306009Y-53505273D01*
X66306016Y-53505277D01*
X66458743Y-53546200D01*
X66458745Y-53546200D01*
X66616855Y-53546200D01*
X66616857Y-53546200D01*
X66769584Y-53505277D01*
X66906516Y-53426220D01*
X67018320Y-53314416D01*
X67097377Y-53177484D01*
X67109687Y-53131543D01*
X72653100Y-53131543D01*
X72653100Y-53289657D01*
X72689692Y-53426218D01*
X72694023Y-53442383D01*
X72694026Y-53442390D01*
X72773075Y-53579309D01*
X72773079Y-53579314D01*
X72773080Y-53579316D01*
X72884884Y-53691120D01*
X72884886Y-53691121D01*
X72884890Y-53691124D01*
X73021809Y-53770173D01*
X73021816Y-53770177D01*
X73174543Y-53811100D01*
X73174545Y-53811100D01*
X73332655Y-53811100D01*
X73332657Y-53811100D01*
X73485384Y-53770177D01*
X73622316Y-53691120D01*
X73734120Y-53579316D01*
X73813177Y-53442384D01*
X73854100Y-53289657D01*
X73854100Y-53131543D01*
X73813177Y-52978816D01*
X73798990Y-52954243D01*
X75256000Y-52954243D01*
X75256000Y-53112357D01*
X75273453Y-53177490D01*
X75296923Y-53265083D01*
X75296926Y-53265090D01*
X75375975Y-53402009D01*
X75375979Y-53402014D01*
X75375980Y-53402016D01*
X75487784Y-53513820D01*
X75487786Y-53513821D01*
X75487790Y-53513824D01*
X75543868Y-53546200D01*
X75624716Y-53592877D01*
X75777443Y-53633800D01*
X75777445Y-53633800D01*
X75935555Y-53633800D01*
X75935557Y-53633800D01*
X76088284Y-53592877D01*
X76225216Y-53513820D01*
X76337020Y-53402016D01*
X76416077Y-53265084D01*
X76457000Y-53112357D01*
X76457000Y-52954243D01*
X76788100Y-52954243D01*
X76788100Y-53112357D01*
X76805553Y-53177490D01*
X76829023Y-53265083D01*
X76829026Y-53265090D01*
X76908075Y-53402009D01*
X76908079Y-53402014D01*
X76908080Y-53402016D01*
X77019884Y-53513820D01*
X77019886Y-53513821D01*
X77019890Y-53513824D01*
X77075968Y-53546200D01*
X77156816Y-53592877D01*
X77309543Y-53633800D01*
X77309545Y-53633800D01*
X77467655Y-53633800D01*
X77467657Y-53633800D01*
X77620384Y-53592877D01*
X77757316Y-53513820D01*
X77784193Y-53486943D01*
X83861600Y-53486943D01*
X83861600Y-53645057D01*
X83895126Y-53770176D01*
X83902523Y-53797783D01*
X83902526Y-53797790D01*
X83981575Y-53934709D01*
X83981579Y-53934714D01*
X83981580Y-53934716D01*
X84093384Y-54046520D01*
X84093386Y-54046521D01*
X84093390Y-54046524D01*
X84230309Y-54125573D01*
X84230316Y-54125577D01*
X84383043Y-54166500D01*
X84383045Y-54166500D01*
X84541155Y-54166500D01*
X84541157Y-54166500D01*
X84693884Y-54125577D01*
X84830816Y-54046520D01*
X84942620Y-53934716D01*
X85021677Y-53797784D01*
X85062600Y-53645057D01*
X85062600Y-53486943D01*
X85021677Y-53334216D01*
X84995950Y-53289655D01*
X84942624Y-53197290D01*
X84942618Y-53197282D01*
X84830817Y-53085481D01*
X84830809Y-53085475D01*
X84693890Y-53006426D01*
X84693886Y-53006424D01*
X84693884Y-53006423D01*
X84541157Y-52965500D01*
X84383043Y-52965500D01*
X84230316Y-53006423D01*
X84230309Y-53006426D01*
X84093390Y-53085475D01*
X84093382Y-53085481D01*
X83981581Y-53197282D01*
X83981575Y-53197290D01*
X83902526Y-53334209D01*
X83902523Y-53334216D01*
X83861600Y-53486943D01*
X77784193Y-53486943D01*
X77869120Y-53402016D01*
X77948177Y-53265084D01*
X77989100Y-53112357D01*
X77989100Y-52954243D01*
X77948177Y-52801516D01*
X77948173Y-52801509D01*
X77869124Y-52664590D01*
X77869118Y-52664582D01*
X77757317Y-52552781D01*
X77757309Y-52552775D01*
X77620390Y-52473726D01*
X77620386Y-52473724D01*
X77620384Y-52473723D01*
X77467657Y-52432800D01*
X77309543Y-52432800D01*
X77156816Y-52473723D01*
X77156809Y-52473726D01*
X77019890Y-52552775D01*
X77019882Y-52552781D01*
X76908081Y-52664582D01*
X76908075Y-52664590D01*
X76829026Y-52801509D01*
X76829023Y-52801516D01*
X76788100Y-52954243D01*
X76457000Y-52954243D01*
X76416077Y-52801516D01*
X76416073Y-52801509D01*
X76337024Y-52664590D01*
X76337018Y-52664582D01*
X76225217Y-52552781D01*
X76225209Y-52552775D01*
X76088290Y-52473726D01*
X76088286Y-52473724D01*
X76088284Y-52473723D01*
X75935557Y-52432800D01*
X75777443Y-52432800D01*
X75624716Y-52473723D01*
X75624709Y-52473726D01*
X75487790Y-52552775D01*
X75487782Y-52552781D01*
X75375981Y-52664582D01*
X75375975Y-52664590D01*
X75296926Y-52801509D01*
X75296923Y-52801516D01*
X75256000Y-52954243D01*
X73798990Y-52954243D01*
X73748416Y-52866645D01*
X73734124Y-52841890D01*
X73734118Y-52841882D01*
X73622317Y-52730081D01*
X73622309Y-52730075D01*
X73485390Y-52651026D01*
X73485386Y-52651024D01*
X73485384Y-52651023D01*
X73332657Y-52610100D01*
X73174543Y-52610100D01*
X73021816Y-52651023D01*
X73021809Y-52651026D01*
X72884890Y-52730075D01*
X72884882Y-52730081D01*
X72773081Y-52841882D01*
X72773075Y-52841890D01*
X72694026Y-52978809D01*
X72694023Y-52978816D01*
X72653100Y-53131543D01*
X67109687Y-53131543D01*
X67138300Y-53024757D01*
X67138300Y-52866643D01*
X67097377Y-52713916D01*
X67068899Y-52664590D01*
X67018324Y-52576990D01*
X67018318Y-52576982D01*
X66906517Y-52465181D01*
X66906509Y-52465175D01*
X66769590Y-52386126D01*
X66769586Y-52386124D01*
X66769584Y-52386123D01*
X66616857Y-52345200D01*
X66458743Y-52345200D01*
X66306016Y-52386123D01*
X66306009Y-52386126D01*
X66169090Y-52465175D01*
X66169082Y-52465181D01*
X66057281Y-52576982D01*
X66057275Y-52576990D01*
X65978226Y-52713909D01*
X65978223Y-52713916D01*
X65937300Y-52866643D01*
X40300500Y-52866643D01*
X40300500Y-51315043D01*
X82826000Y-51315043D01*
X82826000Y-51473157D01*
X82852865Y-51573416D01*
X82866923Y-51625883D01*
X82866926Y-51625890D01*
X82945975Y-51762809D01*
X82945979Y-51762814D01*
X82945980Y-51762816D01*
X83057784Y-51874620D01*
X83057786Y-51874621D01*
X83057790Y-51874624D01*
X83194709Y-51953673D01*
X83194716Y-51953677D01*
X83347443Y-51994600D01*
X83347445Y-51994600D01*
X83505555Y-51994600D01*
X83505557Y-51994600D01*
X83658284Y-51953677D01*
X83795216Y-51874620D01*
X83907020Y-51762816D01*
X83928192Y-51726143D01*
X96846000Y-51726143D01*
X96846000Y-51884257D01*
X96875567Y-51994600D01*
X96886923Y-52036983D01*
X96886926Y-52036990D01*
X96965975Y-52173909D01*
X96965979Y-52173914D01*
X96965980Y-52173916D01*
X97077784Y-52285720D01*
X97077786Y-52285721D01*
X97077790Y-52285724D01*
X97180807Y-52345200D01*
X97214716Y-52364777D01*
X97367443Y-52405700D01*
X97367445Y-52405700D01*
X97525555Y-52405700D01*
X97525557Y-52405700D01*
X97678284Y-52364777D01*
X97815216Y-52285720D01*
X97927020Y-52173916D01*
X98006077Y-52036984D01*
X98047000Y-51884257D01*
X98047000Y-51726143D01*
X98006077Y-51573416D01*
X97948193Y-51473157D01*
X97927024Y-51436490D01*
X97927018Y-51436482D01*
X97815217Y-51324681D01*
X97815209Y-51324675D01*
X97678290Y-51245626D01*
X97678286Y-51245624D01*
X97678284Y-51245623D01*
X97525557Y-51204700D01*
X97367443Y-51204700D01*
X97214716Y-51245623D01*
X97214709Y-51245626D01*
X97077790Y-51324675D01*
X97077782Y-51324681D01*
X96965981Y-51436482D01*
X96965975Y-51436490D01*
X96886926Y-51573409D01*
X96886923Y-51573416D01*
X96846000Y-51726143D01*
X83928192Y-51726143D01*
X83929006Y-51724733D01*
X83968681Y-51656016D01*
X83974913Y-51645220D01*
X83986077Y-51625884D01*
X84027000Y-51473157D01*
X84027000Y-51315043D01*
X83986077Y-51162316D01*
X83986073Y-51162309D01*
X83907024Y-51025390D01*
X83907018Y-51025382D01*
X83795217Y-50913581D01*
X83795209Y-50913575D01*
X83658290Y-50834526D01*
X83658286Y-50834524D01*
X83658284Y-50834523D01*
X83505557Y-50793600D01*
X83347443Y-50793600D01*
X83194716Y-50834523D01*
X83194709Y-50834526D01*
X83057790Y-50913575D01*
X83057782Y-50913581D01*
X82945981Y-51025382D01*
X82945975Y-51025390D01*
X82866926Y-51162309D01*
X82866923Y-51162316D01*
X82826000Y-51315043D01*
X40300500Y-51315043D01*
X40300500Y-49152543D01*
X72310100Y-49152543D01*
X72310100Y-49310656D01*
X72351023Y-49463383D01*
X72351026Y-49463390D01*
X72430075Y-49600309D01*
X72430079Y-49600314D01*
X72430080Y-49600316D01*
X72541884Y-49712120D01*
X72541886Y-49712121D01*
X72541890Y-49712124D01*
X72678809Y-49791173D01*
X72678816Y-49791177D01*
X72831543Y-49832100D01*
X72831545Y-49832100D01*
X72989655Y-49832100D01*
X72989657Y-49832100D01*
X73142384Y-49791177D01*
X73279316Y-49712120D01*
X73391120Y-49600316D01*
X73470177Y-49463384D01*
X73511100Y-49310657D01*
X73511100Y-49152543D01*
X73470177Y-48999816D01*
X73470173Y-48999809D01*
X73391124Y-48862890D01*
X73391118Y-48862882D01*
X73279317Y-48751081D01*
X73279309Y-48751075D01*
X73142390Y-48672026D01*
X73142386Y-48672024D01*
X73142384Y-48672023D01*
X72989657Y-48631100D01*
X72831543Y-48631100D01*
X72678816Y-48672023D01*
X72678809Y-48672026D01*
X72541890Y-48751075D01*
X72541882Y-48751081D01*
X72430081Y-48862882D01*
X72430075Y-48862890D01*
X72351026Y-48999809D01*
X72351023Y-48999816D01*
X72310100Y-49152543D01*
X40300500Y-49152543D01*
X40300500Y-46486304D01*
X57599500Y-46486304D01*
X57599500Y-47213695D01*
X57634103Y-47387658D01*
X57634106Y-47387667D01*
X57701983Y-47551540D01*
X57701990Y-47551553D01*
X57800535Y-47699034D01*
X57800538Y-47699038D01*
X57925961Y-47824461D01*
X57925965Y-47824464D01*
X58073446Y-47923009D01*
X58073459Y-47923016D01*
X58196363Y-47973923D01*
X58237334Y-47990894D01*
X58237336Y-47990894D01*
X58237341Y-47990896D01*
X58411304Y-48025499D01*
X58411307Y-48025500D01*
X58411309Y-48025500D01*
X58588693Y-48025500D01*
X58588694Y-48025499D01*
X58633214Y-48016643D01*
X82861500Y-48016643D01*
X82861500Y-48174756D01*
X82902423Y-48327483D01*
X82902426Y-48327490D01*
X82981475Y-48464409D01*
X82981479Y-48464414D01*
X82981480Y-48464416D01*
X83093284Y-48576220D01*
X83093286Y-48576221D01*
X83093290Y-48576224D01*
X83230209Y-48655273D01*
X83230216Y-48655277D01*
X83382943Y-48696200D01*
X83382945Y-48696200D01*
X83541055Y-48696200D01*
X83541057Y-48696200D01*
X83693784Y-48655277D01*
X83830716Y-48576220D01*
X83942520Y-48464416D01*
X84021577Y-48327484D01*
X84062500Y-48174757D01*
X84062500Y-48016643D01*
X84021577Y-47863916D01*
X83998798Y-47824461D01*
X83942524Y-47726990D01*
X83942518Y-47726982D01*
X83830717Y-47615181D01*
X83830709Y-47615175D01*
X83693790Y-47536126D01*
X83693786Y-47536124D01*
X83693784Y-47536123D01*
X83541057Y-47495200D01*
X83382943Y-47495200D01*
X83230216Y-47536123D01*
X83230209Y-47536126D01*
X83093290Y-47615175D01*
X83093282Y-47615181D01*
X82981481Y-47726982D01*
X82981475Y-47726990D01*
X82902426Y-47863909D01*
X82902423Y-47863916D01*
X82861500Y-48016643D01*
X58633214Y-48016643D01*
X58646682Y-48013964D01*
X58762658Y-47990896D01*
X58762661Y-47990894D01*
X58762666Y-47990894D01*
X58926547Y-47923013D01*
X58926552Y-47923009D01*
X58926555Y-47923008D01*
X58952885Y-47905415D01*
X58952886Y-47905414D01*
X59014991Y-47863916D01*
X59074035Y-47824464D01*
X59199464Y-47699035D01*
X59298013Y-47551547D01*
X59365894Y-47387666D01*
X59400500Y-47213691D01*
X59400500Y-46486309D01*
X59400500Y-46486306D01*
X59400499Y-46486304D01*
X59365896Y-46312341D01*
X59365893Y-46312332D01*
X59363518Y-46306599D01*
X59313822Y-46186620D01*
X59298016Y-46148459D01*
X59298009Y-46148446D01*
X59199464Y-46000965D01*
X59199461Y-46000961D01*
X59074038Y-45875538D01*
X59074034Y-45875535D01*
X58926553Y-45776990D01*
X58926540Y-45776983D01*
X58762667Y-45709106D01*
X58762658Y-45709103D01*
X58588694Y-45674500D01*
X58588691Y-45674500D01*
X58411309Y-45674500D01*
X58411306Y-45674500D01*
X58237341Y-45709103D01*
X58237332Y-45709106D01*
X58073459Y-45776983D01*
X58073446Y-45776990D01*
X57925965Y-45875535D01*
X57925961Y-45875538D01*
X57800538Y-46000961D01*
X57800535Y-46000965D01*
X57701990Y-46148446D01*
X57701983Y-46148459D01*
X57634106Y-46312332D01*
X57634103Y-46312341D01*
X57599500Y-46486304D01*
X40300500Y-46486304D01*
X40300500Y-45320943D01*
X60254300Y-45320943D01*
X60254300Y-45479057D01*
X60293952Y-45627038D01*
X60295223Y-45631783D01*
X60295226Y-45631790D01*
X60374275Y-45768709D01*
X60374279Y-45768714D01*
X60374280Y-45768716D01*
X60486084Y-45880520D01*
X60486086Y-45880521D01*
X60486090Y-45880524D01*
X60623009Y-45959573D01*
X60623016Y-45959577D01*
X60775743Y-46000500D01*
X60775745Y-46000500D01*
X60933855Y-46000500D01*
X60933857Y-46000500D01*
X61086584Y-45959577D01*
X61223516Y-45880520D01*
X61335320Y-45768716D01*
X61414377Y-45631784D01*
X61455300Y-45479057D01*
X61455300Y-45374234D01*
X77546500Y-45374234D01*
X77546500Y-45525765D01*
X77585719Y-45672136D01*
X77607064Y-45709106D01*
X77661485Y-45803365D01*
X77768635Y-45910515D01*
X77899865Y-45986281D01*
X78046234Y-46025500D01*
X78046236Y-46025500D01*
X78197764Y-46025500D01*
X78197766Y-46025500D01*
X78344135Y-45986281D01*
X78475365Y-45910515D01*
X78496790Y-45889089D01*
X78558109Y-45855606D01*
X78627800Y-45860589D01*
X78683735Y-45902460D01*
X78697635Y-45931072D01*
X78699314Y-45930377D01*
X78702422Y-45937880D01*
X78702423Y-45937884D01*
X78702424Y-45937887D01*
X78702426Y-45937890D01*
X78781475Y-46074809D01*
X78781479Y-46074814D01*
X78781480Y-46074816D01*
X78893284Y-46186620D01*
X78893286Y-46186621D01*
X78893290Y-46186624D01*
X78986914Y-46240677D01*
X79030216Y-46265677D01*
X79182943Y-46306600D01*
X79182945Y-46306600D01*
X79341055Y-46306600D01*
X79341057Y-46306600D01*
X79493784Y-46265677D01*
X79630716Y-46186620D01*
X79742520Y-46074816D01*
X79821577Y-45937884D01*
X79862500Y-45785157D01*
X79862500Y-45627043D01*
X79855801Y-45602043D01*
X81661500Y-45602043D01*
X81661500Y-45760157D01*
X81701788Y-45910512D01*
X81702423Y-45912883D01*
X81702426Y-45912890D01*
X81781475Y-46049809D01*
X81781479Y-46049814D01*
X81781480Y-46049816D01*
X81893284Y-46161620D01*
X81893286Y-46161621D01*
X81893290Y-46161624D01*
X82030209Y-46240673D01*
X82030216Y-46240677D01*
X82182943Y-46281600D01*
X82182945Y-46281600D01*
X82341055Y-46281600D01*
X82341057Y-46281600D01*
X82493784Y-46240677D01*
X82630716Y-46161620D01*
X82742520Y-46049816D01*
X82821577Y-45912884D01*
X82862500Y-45760157D01*
X82862500Y-45602043D01*
X82821577Y-45449316D01*
X82778229Y-45374234D01*
X83326500Y-45374234D01*
X83326500Y-45525765D01*
X83365719Y-45672136D01*
X83387064Y-45709106D01*
X83441485Y-45803365D01*
X83548635Y-45910515D01*
X83679865Y-45986281D01*
X83826234Y-46025500D01*
X83826236Y-46025500D01*
X83977764Y-46025500D01*
X83977766Y-46025500D01*
X84124135Y-45986281D01*
X84255365Y-45910515D01*
X84362515Y-45803365D01*
X84438281Y-45672135D01*
X84477500Y-45525766D01*
X84477500Y-45374234D01*
X84438281Y-45227865D01*
X84362515Y-45096635D01*
X84255365Y-44989485D01*
X84189750Y-44951602D01*
X84124136Y-44913719D01*
X84038946Y-44890893D01*
X83977766Y-44874500D01*
X83826234Y-44874500D01*
X83679863Y-44913719D01*
X83548635Y-44989485D01*
X83548632Y-44989487D01*
X83441487Y-45096632D01*
X83441485Y-45096635D01*
X83365719Y-45227863D01*
X83326500Y-45374234D01*
X82778229Y-45374234D01*
X82742520Y-45312384D01*
X82630716Y-45200580D01*
X82630714Y-45200579D01*
X82630709Y-45200575D01*
X82493790Y-45121526D01*
X82493786Y-45121524D01*
X82493784Y-45121523D01*
X82341057Y-45080600D01*
X82182943Y-45080600D01*
X82030216Y-45121523D01*
X82030209Y-45121526D01*
X81893290Y-45200575D01*
X81893282Y-45200581D01*
X81781481Y-45312382D01*
X81781475Y-45312390D01*
X81702426Y-45449309D01*
X81702423Y-45449316D01*
X81661500Y-45602043D01*
X79855801Y-45602043D01*
X79821577Y-45474316D01*
X79821573Y-45474309D01*
X79742524Y-45337390D01*
X79742518Y-45337382D01*
X79630717Y-45225581D01*
X79630709Y-45225575D01*
X79493790Y-45146526D01*
X79493786Y-45146524D01*
X79493784Y-45146523D01*
X79341057Y-45105600D01*
X79182943Y-45105600D01*
X79030216Y-45146523D01*
X79030209Y-45146526D01*
X78893290Y-45225575D01*
X78893282Y-45225581D01*
X78857665Y-45261198D01*
X78796342Y-45294683D01*
X78726650Y-45289697D01*
X78670717Y-45247825D01*
X78663116Y-45234458D01*
X78662345Y-45234904D01*
X78656959Y-45225575D01*
X78582515Y-45096635D01*
X78475365Y-44989485D01*
X78409750Y-44951602D01*
X78344136Y-44913719D01*
X78258946Y-44890893D01*
X78197766Y-44874500D01*
X78046234Y-44874500D01*
X77899863Y-44913719D01*
X77768635Y-44989485D01*
X77768632Y-44989487D01*
X77661487Y-45096632D01*
X77661485Y-45096635D01*
X77585719Y-45227863D01*
X77546500Y-45374234D01*
X61455300Y-45374234D01*
X61455300Y-45320943D01*
X61414377Y-45168216D01*
X61414373Y-45168209D01*
X61335324Y-45031290D01*
X61335318Y-45031282D01*
X61223517Y-44919481D01*
X61223509Y-44919475D01*
X61086590Y-44840426D01*
X61086586Y-44840424D01*
X61086584Y-44840423D01*
X60933857Y-44799500D01*
X60775743Y-44799500D01*
X60623016Y-44840423D01*
X60623009Y-44840426D01*
X60486090Y-44919475D01*
X60486082Y-44919481D01*
X60374281Y-45031282D01*
X60374275Y-45031290D01*
X60295226Y-45168209D01*
X60295223Y-45168216D01*
X60254300Y-45320943D01*
X40300500Y-45320943D01*
X40300500Y-43299713D01*
X41483500Y-43299713D01*
X41483500Y-43512287D01*
X41516754Y-43722243D01*
X41558427Y-43850500D01*
X41582444Y-43924414D01*
X41678951Y-44113820D01*
X41803890Y-44285786D01*
X41954213Y-44436109D01*
X42126179Y-44561048D01*
X42126181Y-44561049D01*
X42126184Y-44561051D01*
X42315588Y-44657557D01*
X42517757Y-44723246D01*
X42727713Y-44756500D01*
X42727714Y-44756500D01*
X42940286Y-44756500D01*
X42940287Y-44756500D01*
X43150243Y-44723246D01*
X43352412Y-44657557D01*
X43541816Y-44561051D01*
X43563789Y-44545086D01*
X43713786Y-44436109D01*
X43713788Y-44436106D01*
X43713792Y-44436104D01*
X43864104Y-44285792D01*
X43864106Y-44285788D01*
X43864109Y-44285786D01*
X43989048Y-44113820D01*
X43989047Y-44113820D01*
X43989051Y-44113816D01*
X44085557Y-43924412D01*
X44151246Y-43722243D01*
X44184500Y-43512287D01*
X44184500Y-43299713D01*
X44170662Y-43212341D01*
X44152487Y-43097590D01*
X44151246Y-43089758D01*
X44148692Y-43081898D01*
X99599500Y-43081898D01*
X99599500Y-44418102D01*
X99603516Y-44451547D01*
X99610122Y-44506561D01*
X99665639Y-44647343D01*
X99757077Y-44767922D01*
X99877656Y-44859360D01*
X99877657Y-44859360D01*
X99877658Y-44859361D01*
X100018436Y-44914877D01*
X100106898Y-44925500D01*
X100106903Y-44925500D01*
X100893097Y-44925500D01*
X100893102Y-44925500D01*
X100981564Y-44914877D01*
X101122342Y-44859361D01*
X101242922Y-44767922D01*
X101334361Y-44647342D01*
X101389877Y-44506564D01*
X101400500Y-44418102D01*
X101400500Y-43386304D01*
X103599500Y-43386304D01*
X103599500Y-44113695D01*
X103634103Y-44287658D01*
X103634106Y-44287667D01*
X103701983Y-44451540D01*
X103701990Y-44451553D01*
X103800535Y-44599034D01*
X103800538Y-44599038D01*
X103925961Y-44724461D01*
X103925965Y-44724464D01*
X104073446Y-44823009D01*
X104073459Y-44823016D01*
X104196363Y-44873923D01*
X104237334Y-44890894D01*
X104237336Y-44890894D01*
X104237341Y-44890896D01*
X104411304Y-44925499D01*
X104411307Y-44925500D01*
X104411309Y-44925500D01*
X104588693Y-44925500D01*
X104588694Y-44925499D01*
X104647918Y-44913719D01*
X104762658Y-44890896D01*
X104762661Y-44890894D01*
X104762666Y-44890894D01*
X104926547Y-44823013D01*
X105074035Y-44724464D01*
X105199464Y-44599035D01*
X105298013Y-44451547D01*
X105365894Y-44287666D01*
X105400500Y-44113691D01*
X105400500Y-43386309D01*
X105400500Y-43386306D01*
X105400499Y-43386304D01*
X105365896Y-43212341D01*
X105365893Y-43212332D01*
X105364022Y-43207816D01*
X105315122Y-43089758D01*
X105298016Y-43048459D01*
X105298009Y-43048446D01*
X105199464Y-42900965D01*
X105199461Y-42900961D01*
X105074038Y-42775538D01*
X105074034Y-42775535D01*
X104926553Y-42676990D01*
X104926540Y-42676983D01*
X104762667Y-42609106D01*
X104762658Y-42609103D01*
X104588694Y-42574500D01*
X104588691Y-42574500D01*
X104411309Y-42574500D01*
X104411306Y-42574500D01*
X104237341Y-42609103D01*
X104237332Y-42609106D01*
X104073459Y-42676983D01*
X104073446Y-42676990D01*
X103925965Y-42775535D01*
X103925961Y-42775538D01*
X103800538Y-42900961D01*
X103800535Y-42900965D01*
X103701990Y-43048446D01*
X103701983Y-43048459D01*
X103634106Y-43212332D01*
X103634103Y-43212341D01*
X103599500Y-43386304D01*
X101400500Y-43386304D01*
X101400500Y-43081898D01*
X101389877Y-42993436D01*
X101334361Y-42852658D01*
X101334360Y-42852657D01*
X101334360Y-42852656D01*
X101242922Y-42732077D01*
X101122343Y-42640639D01*
X100981561Y-42585122D01*
X100935926Y-42579642D01*
X100893102Y-42574500D01*
X100106898Y-42574500D01*
X100067853Y-42579188D01*
X100018438Y-42585122D01*
X99877656Y-42640639D01*
X99757077Y-42732077D01*
X99665639Y-42852656D01*
X99610122Y-42993438D01*
X99604188Y-43042853D01*
X99599500Y-43081898D01*
X44148692Y-43081898D01*
X44128064Y-43018412D01*
X44085557Y-42887588D01*
X43989051Y-42698184D01*
X43989049Y-42698181D01*
X43989048Y-42698179D01*
X43864109Y-42526213D01*
X43731609Y-42393713D01*
X118003500Y-42393713D01*
X118003500Y-42606287D01*
X118008941Y-42640639D01*
X118030306Y-42775536D01*
X118036754Y-42816243D01*
X118094328Y-42993438D01*
X118102444Y-43018414D01*
X118198951Y-43207820D01*
X118323890Y-43379786D01*
X118474213Y-43530109D01*
X118646179Y-43655048D01*
X118646181Y-43655049D01*
X118646184Y-43655051D01*
X118835588Y-43751557D01*
X119037757Y-43817246D01*
X119247713Y-43850500D01*
X119247714Y-43850500D01*
X119460286Y-43850500D01*
X119460287Y-43850500D01*
X119670243Y-43817246D01*
X119872412Y-43751557D01*
X120061816Y-43655051D01*
X120083789Y-43639086D01*
X120233786Y-43530109D01*
X120233788Y-43530106D01*
X120233792Y-43530104D01*
X120384104Y-43379792D01*
X120384106Y-43379788D01*
X120384109Y-43379786D01*
X120505763Y-43212341D01*
X120509051Y-43207816D01*
X120605557Y-43018412D01*
X120671246Y-42816243D01*
X120704500Y-42606287D01*
X120704500Y-42393713D01*
X120671246Y-42183757D01*
X120605557Y-41981588D01*
X120509051Y-41792184D01*
X120509049Y-41792181D01*
X120509048Y-41792179D01*
X120384109Y-41620213D01*
X120233786Y-41469890D01*
X120061820Y-41344951D01*
X119872414Y-41248444D01*
X119872413Y-41248443D01*
X119872412Y-41248443D01*
X119670243Y-41182754D01*
X119670241Y-41182753D01*
X119670240Y-41182753D01*
X119508957Y-41157208D01*
X119460287Y-41149500D01*
X119247713Y-41149500D01*
X119199042Y-41157208D01*
X119037760Y-41182753D01*
X118835585Y-41248444D01*
X118646179Y-41344951D01*
X118474213Y-41469890D01*
X118323890Y-41620213D01*
X118198951Y-41792179D01*
X118102444Y-41981585D01*
X118036753Y-42183760D01*
X118026111Y-42250951D01*
X118003500Y-42393713D01*
X43731609Y-42393713D01*
X43713786Y-42375890D01*
X43541820Y-42250951D01*
X43352414Y-42154444D01*
X43352413Y-42154443D01*
X43352412Y-42154443D01*
X43150243Y-42088754D01*
X43150241Y-42088753D01*
X43150240Y-42088753D01*
X42988957Y-42063208D01*
X42940287Y-42055500D01*
X42727713Y-42055500D01*
X42679042Y-42063208D01*
X42517760Y-42088753D01*
X42315585Y-42154444D01*
X42126179Y-42250951D01*
X41954213Y-42375890D01*
X41803890Y-42526213D01*
X41678951Y-42698179D01*
X41582444Y-42887585D01*
X41516753Y-43089760D01*
X41497338Y-43212341D01*
X41483500Y-43299713D01*
X40300500Y-43299713D01*
X40300500Y-40724500D01*
X40320185Y-40657461D01*
X40372989Y-40611706D01*
X40424500Y-40600500D01*
X41733560Y-40600500D01*
X41733562Y-40600500D01*
X41809989Y-40580021D01*
X41878511Y-40540460D01*
X41934460Y-40484511D01*
X41974021Y-40415989D01*
X41980341Y-40392404D01*
X42016707Y-40332745D01*
X42079554Y-40302217D01*
X42100115Y-40300500D01*
X121599500Y-40300500D01*
X121666539Y-40320185D01*
G37*
%TD.AperFunction*%
%TD*%
M02*
