%TF.GenerationSoftware,KiCad,Pcbnew,10.0.6*%
%TF.CreationDate,2026-09-17T01:27:09+09:00*%
%TF.ProjectId,katanori61,6b617461-6e6f-4726-9936-312e6b696361,rev?*%
%TF.SameCoordinates,Original*%
%TF.FileFunction,Paste,Top*%
%TF.FilePolarity,Positive*%
%FSLAX46Y46*%
G04 Gerber Fmt 4.6, Leading zero omitted, Abs format (unit mm)*
G04 Created by KiCad (PCBNEW 10.0.6) date 2026-09-17 01:27:09*
%MOMM*%
%LPD*%
G01*
G04 APERTURE LIST*
G04 Aperture macros list*
%AMRoundRect*
0 Rectangle with rounded corners*
0 $1 Rounding radius*
0 $2 $3 $4 $5 $6 $7 $8 $9 X,Y pos of 4 corners*
0 Add a 4 corners polygon primitive as box body*
4,1,4,$2,$3,$4,$5,$6,$7,$8,$9,$2,$3,0*
0 Add four circle primitives for the rounded corners*
1,1,$1+$1,$2,$3*
1,1,$1+$1,$4,$5*
1,1,$1+$1,$6,$7*
1,1,$1+$1,$8,$9*
0 Add four rect primitives between the rounded corners*
20,1,$1+$1,$2,$3,$4,$5,0*
20,1,$1+$1,$4,$5,$6,$7,0*
20,1,$1+$1,$6,$7,$8,$9,0*
20,1,$1+$1,$8,$9,$2,$3,0*%
G04 Aperture macros list end*
%ADD10RoundRect,0.250000X-0.475000X0.250000X-0.475000X-0.250000X0.475000X-0.250000X0.475000X0.250000X0*%
%ADD11RoundRect,0.250000X-0.450000X0.262500X-0.450000X-0.262500X0.450000X-0.262500X0.450000X0.262500X0*%
%ADD12RoundRect,0.225000X-0.375000X0.225000X-0.375000X-0.225000X0.375000X-0.225000X0.375000X0.225000X0*%
%ADD13RoundRect,0.150000X-0.150000X0.587500X-0.150000X-0.587500X0.150000X-0.587500X0.150000X0.587500X0*%
%ADD14RoundRect,0.150000X-0.825000X-0.150000X0.825000X-0.150000X0.825000X0.150000X-0.825000X0.150000X0*%
%ADD15RoundRect,0.250000X-0.250000X-0.475000X0.250000X-0.475000X0.250000X0.475000X-0.250000X0.475000X0*%
%ADD16RoundRect,0.182500X0.182500X0.182500X-0.182500X0.182500X-0.182500X-0.182500X0.182500X-0.182500X0*%
%ADD17RoundRect,0.087500X0.325000X0.087500X-0.325000X0.087500X-0.325000X-0.087500X0.325000X-0.087500X0*%
%ADD18RoundRect,0.087500X0.087500X0.325000X-0.087500X0.325000X-0.087500X-0.325000X0.087500X-0.325000X0*%
%ADD19RoundRect,0.250000X-0.300000X-1.600000X0.300000X-1.600000X0.300000X1.600000X-0.300000X1.600000X0*%
%ADD20RoundRect,0.250000X-0.255000X-0.255000X0.255000X-0.255000X0.255000X0.255000X-0.255000X0.255000X0*%
%ADD21RoundRect,0.062500X-0.350000X-0.062500X0.350000X-0.062500X0.350000X0.062500X-0.350000X0.062500X0*%
%ADD22RoundRect,0.062500X-0.062500X-0.350000X0.062500X-0.350000X0.062500X0.350000X-0.062500X0.350000X0*%
%ADD23RoundRect,0.250000X0.312500X0.625000X-0.312500X0.625000X-0.312500X-0.625000X0.312500X-0.625000X0*%
%ADD24RoundRect,0.150000X-0.587500X-0.150000X0.587500X-0.150000X0.587500X0.150000X-0.587500X0.150000X0*%
%ADD25RoundRect,0.250000X-0.262500X-0.450000X0.262500X-0.450000X0.262500X0.450000X-0.262500X0.450000X0*%
%ADD26RoundRect,0.243750X-0.243750X-0.456250X0.243750X-0.456250X0.243750X0.456250X-0.243750X0.456250X0*%
%ADD27RoundRect,0.075000X-0.075000X0.650000X-0.075000X-0.650000X0.075000X-0.650000X0.075000X0.650000X0*%
%ADD28RoundRect,0.250000X-0.325000X-0.650000X0.325000X-0.650000X0.325000X0.650000X-0.325000X0.650000X0*%
%ADD29RoundRect,0.150000X-0.150000X-0.575000X0.150000X-0.575000X0.150000X0.575000X-0.150000X0.575000X0*%
%ADD30RoundRect,0.075000X-0.075000X-0.650000X0.075000X-0.650000X0.075000X0.650000X-0.075000X0.650000X0*%
%ADD31R,1.000000X2.200000*%
G04 APERTURE END LIST*
D10*
%TO.C,C31*%
X62080000Y-45400000D03*
X62080000Y-47300000D03*
%TD*%
D11*
%TO.C,R32*%
X57590000Y-50971500D03*
X57590000Y-52796500D03*
%TD*%
%TO.C,R31*%
X57231000Y-54480500D03*
X57231000Y-56305500D03*
%TD*%
D12*
%TO.C,D31*%
X55100000Y-55776000D03*
X55100000Y-59076000D03*
%TD*%
D13*
%TO.C,Q31*%
X56600000Y-60918500D03*
X54700000Y-60918500D03*
X55650000Y-62793500D03*
%TD*%
D10*
%TO.C,C32*%
X82909000Y-54900000D03*
X82909000Y-56800000D03*
%TD*%
D14*
%TO.C,U4*%
X103225000Y-61695000D03*
X103225000Y-62965000D03*
X103225000Y-64235000D03*
X103225000Y-65505000D03*
X108175000Y-65505000D03*
X108175000Y-64235000D03*
X108175000Y-62965000D03*
X108175000Y-61695000D03*
%TD*%
D15*
%TO.C,C42*%
X96550000Y-63600000D03*
X98450000Y-63600000D03*
%TD*%
D16*
%TO.C,U1*%
X62900000Y-65115000D03*
X62900000Y-64215000D03*
X62900000Y-63315000D03*
X62000000Y-65115000D03*
X62000000Y-64215000D03*
X62000000Y-63315000D03*
X61100000Y-65115000D03*
X61100000Y-64215000D03*
X61100000Y-63315000D03*
D17*
X63962500Y-65190000D03*
X63962500Y-64540000D03*
X63962500Y-63890000D03*
X63962500Y-63240000D03*
D18*
X62975000Y-62252500D03*
X62325000Y-62252500D03*
X61675000Y-62252500D03*
X61025000Y-62252500D03*
D17*
X60037500Y-63240000D03*
X60037500Y-63890000D03*
X60037500Y-64540000D03*
X60037500Y-65190000D03*
D18*
X61025000Y-66177500D03*
X61675000Y-66177500D03*
X62325000Y-66177500D03*
X62975000Y-66177500D03*
%TD*%
D19*
%TO.C,L1*%
X65557000Y-64025000D03*
X68557000Y-64025000D03*
%TD*%
D20*
%TO.C,U2*%
X71349000Y-61898000D03*
X71349000Y-63148000D03*
X72599000Y-61898000D03*
X72599000Y-63148000D03*
D21*
X70036500Y-61523000D03*
X70036500Y-62023000D03*
X70036500Y-62523000D03*
X70036500Y-63023000D03*
X70036500Y-63523000D03*
D22*
X70974000Y-64460500D03*
X71474000Y-64460500D03*
X71974000Y-64460500D03*
X72474000Y-64460500D03*
X72974000Y-64460500D03*
D21*
X73911500Y-63523000D03*
X73911500Y-63023000D03*
X73911500Y-62523000D03*
X73911500Y-62023000D03*
X73911500Y-61523000D03*
D22*
X72974000Y-60585500D03*
X72474000Y-60585500D03*
X71974000Y-60585500D03*
X71474000Y-60585500D03*
X70974000Y-60585500D03*
%TD*%
D23*
%TO.C,R41*%
X80282500Y-63900000D03*
X77357500Y-63900000D03*
%TD*%
D24*
%TO.C,Q2*%
X82242500Y-62950000D03*
X82242500Y-64850000D03*
X84117500Y-63900000D03*
%TD*%
D25*
%TO.C,R44*%
X56263500Y-68465000D03*
X58088500Y-68465000D03*
%TD*%
%TO.C,R45*%
X63096500Y-68100000D03*
X64921500Y-68100000D03*
%TD*%
D15*
%TO.C,C2*%
X59650000Y-68100000D03*
X61550000Y-68100000D03*
%TD*%
D26*
%TO.C,LED3*%
X66581500Y-68200000D03*
X68456500Y-68200000D03*
%TD*%
D25*
%TO.C,R14*%
X69997500Y-68200000D03*
X71822500Y-68200000D03*
%TD*%
%TO.C,R15*%
X73379500Y-68325000D03*
X75204500Y-68325000D03*
%TD*%
D26*
%TO.C,LED4*%
X76718500Y-68200000D03*
X78593500Y-68200000D03*
%TD*%
D25*
%TO.C,R8*%
X80112500Y-68200000D03*
X81937500Y-68200000D03*
%TD*%
%TO.C,R46*%
X83500500Y-68200000D03*
X85325500Y-68200000D03*
%TD*%
%TO.C,R16*%
X74087500Y-66275000D03*
X75912500Y-66275000D03*
%TD*%
%TO.C,R17*%
X75372500Y-60731000D03*
X77197500Y-60731000D03*
%TD*%
%TO.C,R1*%
X63182500Y-60485000D03*
X65007500Y-60485000D03*
%TD*%
%TO.C,R2*%
X66692500Y-60675000D03*
X68517500Y-60675000D03*
%TD*%
D15*
%TO.C,C1*%
X61967000Y-57800000D03*
X63867000Y-57800000D03*
%TD*%
%TO.C,C4*%
X65390000Y-57800000D03*
X67290000Y-57800000D03*
%TD*%
%TO.C,C7*%
X68806000Y-58685000D03*
X70706000Y-58685000D03*
%TD*%
%TO.C,C8*%
X72215000Y-58651000D03*
X74115000Y-58651000D03*
%TD*%
%TO.C,C41*%
X75768000Y-58510000D03*
X77668000Y-58510000D03*
%TD*%
D27*
%TO.C,U3*%
X81175000Y-56715000D03*
X80675000Y-56715000D03*
X80175000Y-56715000D03*
X79675000Y-56715000D03*
X79175000Y-56715000D03*
X79175000Y-61015000D03*
X79675000Y-61015000D03*
X80175000Y-61015000D03*
X80675000Y-61015000D03*
X81175000Y-61015000D03*
%TD*%
D25*
%TO.C,R42*%
X82725500Y-58900000D03*
X84550500Y-58900000D03*
%TD*%
%TO.C,R43*%
X86120500Y-58900000D03*
X87945500Y-58900000D03*
%TD*%
%TO.C,R3*%
X59011500Y-54900000D03*
X60836500Y-54900000D03*
%TD*%
%TO.C,R4*%
X62522500Y-54900000D03*
X64347500Y-54900000D03*
%TD*%
%TO.C,R13*%
X70641500Y-54900000D03*
X72466500Y-54900000D03*
%TD*%
%TO.C,R6*%
X74054500Y-54900000D03*
X75879500Y-54900000D03*
%TD*%
%TO.C,R7*%
X77566500Y-54635000D03*
X79391500Y-54635000D03*
%TD*%
D28*
%TO.C,C6*%
X84720000Y-54900000D03*
X87670000Y-54900000D03*
%TD*%
%TO.C,C9*%
X89337000Y-54900000D03*
X92287000Y-54900000D03*
%TD*%
D26*
%TO.C,LED1*%
X70553500Y-50400000D03*
X72428500Y-50400000D03*
%TD*%
D25*
%TO.C,R20*%
X73961500Y-50400000D03*
X75786500Y-50400000D03*
%TD*%
D24*
%TO.C,Q1*%
X77697500Y-49450000D03*
X77697500Y-51350000D03*
X79572500Y-50400000D03*
%TD*%
D26*
%TO.C,LED2*%
X60807500Y-51250000D03*
X62682500Y-51250000D03*
%TD*%
D25*
%TO.C,R5*%
X64342500Y-50400000D03*
X66167500Y-50400000D03*
%TD*%
D29*
%TO.C,J13*%
X63570000Y-71235000D03*
X64370000Y-71235000D03*
D30*
X65570000Y-71235000D03*
X66570000Y-71235000D03*
X67070000Y-71235000D03*
X68070000Y-71235000D03*
D29*
X69270000Y-71235000D03*
X70070000Y-71235000D03*
X70070000Y-71235000D03*
X69270000Y-71235000D03*
D30*
X68570000Y-71235000D03*
X67570000Y-71235000D03*
X66070000Y-71235000D03*
X65070000Y-71235000D03*
D29*
X64370000Y-71235000D03*
X63570000Y-71235000D03*
%TD*%
D31*
%TO.C,K31*%
X97650000Y-58250000D03*
X102730000Y-58250000D03*
X105270000Y-58250000D03*
X107810000Y-58250000D03*
X107810000Y-50250000D03*
X105270000Y-50250000D03*
X102730000Y-50250000D03*
X97650000Y-50250000D03*
%TD*%
M02*
