%TF.GenerationSoftware,KiCad,Pcbnew,10.0.6*%
%TF.CreationDate,2026-09-14T12:49:21+09:00*%
%TF.ProjectId,katanori61,6b617461-6e6f-4726-9936-312e6b696361,rev?*%
%TF.SameCoordinates,Original*%
%TF.FileFunction,Legend,Bot*%
%TF.FilePolarity,Positive*%
%FSLAX46Y46*%
G04 Gerber Fmt 4.6, Leading zero omitted, Abs format (unit mm)*
G04 Created by KiCad (PCBNEW 10.0.6) date 2026-09-14 12:49:21*
%MOMM*%
%LPD*%
G01*
G04 APERTURE LIST*
%ADD10C,0.120000*%
G04 APERTURE END LIST*
D10*
X46697619Y-50413855D02*
X46697619Y-50985283D01*
X46697619Y-50985283D02*
X46735714Y-51099569D01*
X46735714Y-51099569D02*
X46811905Y-51175760D01*
X46811905Y-51175760D02*
X46926190Y-51213855D01*
X46926190Y-51213855D02*
X47002381Y-51213855D01*
X45897619Y-51213855D02*
X46354762Y-51213855D01*
X46126190Y-51213855D02*
X46126190Y-50413855D01*
X46126190Y-50413855D02*
X46202381Y-50528140D01*
X46202381Y-50528140D02*
X46278571Y-50604331D01*
X46278571Y-50604331D02*
X46354762Y-50642426D01*
X45402380Y-50413855D02*
X45326190Y-50413855D01*
X45326190Y-50413855D02*
X45249999Y-50451950D01*
X45249999Y-50451950D02*
X45211904Y-50490045D01*
X45211904Y-50490045D02*
X45173809Y-50566236D01*
X45173809Y-50566236D02*
X45135714Y-50718617D01*
X45135714Y-50718617D02*
X45135714Y-50909093D01*
X45135714Y-50909093D02*
X45173809Y-51061474D01*
X45173809Y-51061474D02*
X45211904Y-51137664D01*
X45211904Y-51137664D02*
X45249999Y-51175760D01*
X45249999Y-51175760D02*
X45326190Y-51213855D01*
X45326190Y-51213855D02*
X45402380Y-51213855D01*
X45402380Y-51213855D02*
X45478571Y-51175760D01*
X45478571Y-51175760D02*
X45516666Y-51137664D01*
X45516666Y-51137664D02*
X45554761Y-51061474D01*
X45554761Y-51061474D02*
X45592857Y-50909093D01*
X45592857Y-50909093D02*
X45592857Y-50718617D01*
X45592857Y-50718617D02*
X45554761Y-50566236D01*
X45554761Y-50566236D02*
X45516666Y-50490045D01*
X45516666Y-50490045D02*
X45478571Y-50451950D01*
X45478571Y-50451950D02*
X45402380Y-50413855D01*
%TO.C,J10*%
X42090000Y-48790000D02*
X49910000Y-48790000D01*
X43690000Y-48790000D02*
X43690000Y-49710000D01*
X49910000Y-48790000D02*
X49910000Y-54910000D01*
X42090000Y-49710000D02*
X42090000Y-48790000D01*
X43690000Y-49710000D02*
X42090000Y-49710000D01*
X43690000Y-49990000D02*
X43690000Y-49710000D01*
X43690000Y-49990000D02*
X42475000Y-49990000D01*
X47650000Y-50050000D02*
X49910000Y-50050000D01*
X47650000Y-50550000D02*
X49910000Y-50550000D01*
X45550000Y-51350000D02*
X45550000Y-52350000D01*
X49910000Y-51350000D02*
X45550000Y-51350000D01*
X45550000Y-52350000D02*
X49910000Y-52350000D01*
X42090000Y-53990000D02*
X43690000Y-53990000D01*
X43690000Y-53990000D02*
X43690000Y-53710000D01*
X42090000Y-54910000D02*
X42090000Y-53990000D01*
X43690000Y-54910000D02*
X43690000Y-53990000D01*
X49910000Y-54910000D02*
X42090000Y-54910000D01*
X46050000Y-49550000D02*
X47650000Y-49550000D01*
X47650000Y-50550000D01*
X46050000Y-50550000D01*
X46050000Y-49550000D01*
X46050000Y-53150000D02*
X47650000Y-53150000D01*
X47650000Y-54150000D01*
X46050000Y-54150000D01*
X46050000Y-53150000D01*
%TD*%
M02*
