M48
; DRILL file KiCad 10.0.6 date 2026-09-17T04:31:56
; FORMAT={-:-/ absolute / metric / decimal}
; #@! TF.CreationDate,2026-09-17T04:31:56+09:00
; #@! TF.GenerationSoftware,Kicad,Pcbnew,10.0.6
; #@! TF.FileFunction,Plated,1,4,PTH
FMAT,2
METRIC
; #@! TA.AperFunction,Plated,PTH,ViaDrill
T1C0.300
; #@! TA.AperFunction,Plated,PTH,ComponentDrill
T2C0.600
; #@! TA.AperFunction,Plated,PTH,ComponentDrill
T3C0.750
; #@! TA.AperFunction,Plated,PTH,ComponentDrill
T4C1.000
%
G90
G05
T1
X41.0Y-44.4
X41.0Y-47.6
X41.0Y-50.8
X41.0Y-54.0
X41.0Y-57.2
X41.0Y-60.4
X41.0Y-63.6
X41.0Y-70.0
X41.0Y-73.2
X41.0Y-76.4
X44.2Y-41.2
X44.2Y-47.6
X44.2Y-50.8
X44.2Y-54.0
X44.2Y-57.2
X44.2Y-60.4
X44.2Y-70.0
X44.2Y-76.4
X47.4Y-41.2
X47.4Y-44.4
X47.4Y-47.6
X47.4Y-50.8
X47.4Y-54.0
X47.4Y-57.2
X47.4Y-70.0
X47.4Y-73.2
X47.4Y-76.4
X50.6Y-41.2
X50.6Y-44.4
X50.6Y-47.6
X50.6Y-50.8
X50.6Y-54.0
X50.6Y-63.6
X50.6Y-70.0
X50.6Y-73.2
X50.6Y-76.4
X53.198Y-62.165
X53.8Y-41.2
X53.8Y-44.4
X53.8Y-73.2
X53.8Y-76.4
X53.995Y-55.807
X56.305Y-59.329
X57.0Y-41.2
X57.0Y-76.4
X58.569Y-55.372
X59.042Y-71.454
X59.151Y-63.454
X59.157Y-64.375
X59.161Y-62.425
X60.014Y-70.692
X60.2Y-41.2
X60.2Y-47.6
X60.2Y-76.4
X60.435Y-66.027
X61.325Y-62.725
X61.325Y-64.075
X61.526Y-55.565
X62.235Y-44.393
X62.675Y-62.725
X62.675Y-64.075
X63.37Y-60.123
X63.4Y-41.2
X63.4Y-76.4
X64.856Y-64.246
X66.021Y-71.411
X66.472Y-52.547
X66.6Y-41.2
X66.6Y-44.4
X66.6Y-47.6
X66.6Y-76.4
X68.234Y-55.555
X69.255Y-61.041
X69.8Y-41.2
X69.8Y-44.4
X69.8Y-70.0
X69.8Y-76.4
X70.074Y-63.225
X70.679Y-62.067
X70.898Y-63.551
X71.286Y-59.847
X72.875Y-61.39
X72.875Y-62.64
X72.911Y-49.232
X72.942Y-56.096
X73.0Y-41.2
X73.0Y-44.4
X73.0Y-76.4
X73.6Y-52.99
X74.056Y-65.115
X74.125Y-61.39
X74.125Y-62.64
X74.507Y-55.784
X74.609Y-73.163
X75.539Y-71.375
X75.808Y-53.223
X75.952Y-60.315
X76.2Y-76.4
X76.303Y-65.382
X76.439Y-55.367
X76.857Y-58.4
X77.05Y-62.015
X77.895Y-55.909
X78.665Y-57.537
X79.262Y-45.216
X79.4Y-41.2
X79.4Y-76.4
X79.467Y-57.559
X79.475Y-59.39
X81.841Y-55.775
X82.047Y-45.203
X82.1Y-69.411
X82.6Y-41.2
X82.6Y-50.8
X82.6Y-76.4
X82.832Y-59.703
X83.237Y-47.598
X84.273Y-62.45
X84.451Y-53.8
X84.906Y-59.687
X84.939Y-64.152
X85.8Y-50.8
X85.8Y-54.0
X85.8Y-76.4
X89.0Y-44.4
X89.0Y-47.6
X89.0Y-50.8
X89.0Y-54.0
X89.0Y-63.6
X89.0Y-66.8
X89.0Y-73.2
X89.0Y-76.4
X89.156Y-58.402
X92.2Y-44.4
X92.2Y-47.6
X92.2Y-50.8
X92.2Y-54.0
X92.2Y-63.6
X92.2Y-70.0
X92.2Y-73.2
X92.2Y-76.4
X95.4Y-47.6
X95.4Y-50.8
X95.4Y-66.8
X95.4Y-70.0
X95.4Y-73.2
X95.4Y-76.4
X96.818Y-59.702
X97.445Y-51.807
X98.6Y-47.6
X98.6Y-54.0
X98.6Y-66.8
X98.6Y-70.0
X98.6Y-73.2
X98.6Y-76.4
X101.8Y-41.2
X101.8Y-47.6
X101.8Y-54.0
X101.8Y-66.8
X101.8Y-70.0
X101.8Y-73.2
X101.8Y-76.4
X105.0Y-41.2
X105.0Y-47.6
X105.0Y-54.0
X105.0Y-66.8
X105.0Y-70.0
X105.0Y-73.2
X105.0Y-76.4
X105.486Y-59.818
X106.724Y-62.965
X106.734Y-64.059
X106.923Y-56.898
X108.2Y-41.2
X108.2Y-47.6
X108.2Y-54.0
X108.2Y-66.8
X108.2Y-70.0
X108.2Y-73.2
X108.2Y-76.4
X111.4Y-41.2
X111.4Y-44.4
X111.4Y-50.8
X111.4Y-54.0
X111.4Y-57.2
X111.4Y-70.0
X111.4Y-73.2
X111.4Y-76.4
X114.6Y-41.2
X114.6Y-44.4
X114.6Y-47.6
X114.6Y-54.0
X114.6Y-57.2
X114.6Y-70.0
X114.6Y-73.2
X114.6Y-76.4
X117.8Y-41.2
X117.8Y-44.4
X117.8Y-47.6
X117.8Y-50.8
X117.8Y-54.0
X117.8Y-57.2
X117.8Y-60.4
X117.8Y-63.6
X117.8Y-66.8
X117.8Y-70.0
X117.8Y-76.4
X121.0Y-41.2
X121.0Y-44.4
X121.0Y-47.6
X121.0Y-50.8
X121.0Y-54.0
X121.0Y-57.2
X121.0Y-60.4
X121.0Y-63.6
X121.0Y-66.8
X121.0Y-70.0
X121.0Y-76.4
T3
X51.95Y-59.3
X51.95Y-61.3
X56.5Y-46.85
X58.5Y-46.85
X100.5Y-43.75
X102.5Y-43.75
X104.5Y-43.75
X106.5Y-43.75
X114.3Y-67.85
X115.7Y-60.45
X115.7Y-62.45
X116.3Y-67.85
T4
X41.77Y-65.595
X44.31Y-65.595
X46.85Y-65.595
X49.39Y-65.595
X51.93Y-65.595
X54.47Y-65.595
X57.01Y-65.595
X77.24Y-72.63
X79.78Y-72.63
X82.32Y-72.63
X84.86Y-72.63
T2
X76.692Y-41.6G85X76.692Y-41.0
G05
X76.692Y-46.03G85X76.692Y-44.93
G05
X85.332Y-41.6G85X85.332Y-41.0
G05
X85.332Y-46.03G85X85.332Y-44.93
G05
M30
