%TF.GenerationSoftware,KiCad,Pcbnew,10.0.6*%
%TF.CreationDate,2026-09-14T12:49:21+09:00*%
%TF.ProjectId,katanori61,6b617461-6e6f-4726-9936-312e6b696361,rev?*%
%TF.SameCoordinates,Original*%
%TF.FileFunction,Copper,L2,Bot*%
%TF.FilePolarity,Positive*%
%FSLAX46Y46*%
G04 Gerber Fmt 4.6, Leading zero omitted, Abs format (unit mm)*
G04 Created by KiCad (PCBNEW 10.0.6) date 2026-09-14 12:49:21*
%MOMM*%
%LPD*%
G01*
G04 APERTURE LIST*
G04 Aperture macros list*
%AMRoundRect*
0 Rectangle with rounded corners*
0 $1 Rounding radius*
0 $2 $3 $4 $5 $6 $7 $8 $9 X,Y pos of 4 corners*
0 Add a 4 corners polygon primitive as box body*
4,1,4,$2,$3,$4,$5,$6,$7,$8,$9,$2,$3,0*
0 Add four circle primitives for the rounded corners*
1,1,$1+$1,$2,$3*
1,1,$1+$1,$4,$5*
1,1,$1+$1,$6,$7*
1,1,$1+$1,$8,$9*
0 Add four rect primitives between the rounded corners*
20,1,$1+$1,$2,$3,$4,$5,0*
20,1,$1+$1,$4,$5,$6,$7,0*
20,1,$1+$1,$6,$7,$8,$9,0*
20,1,$1+$1,$8,$9,$2,$3,0*%
G04 Aperture macros list end*
%TA.AperFunction,ComponentPad*%
%ADD10RoundRect,0.250000X0.350000X0.625000X-0.350000X0.625000X-0.350000X-0.625000X0.350000X-0.625000X0*%
%TD*%
%TA.AperFunction,ComponentPad*%
%ADD11O,1.200000X1.750000*%
%TD*%
%TA.AperFunction,ComponentPad*%
%ADD12RoundRect,0.250000X-0.625000X0.350000X-0.625000X-0.350000X0.625000X-0.350000X0.625000X0.350000X0*%
%TD*%
%TA.AperFunction,ComponentPad*%
%ADD13O,1.750000X1.200000*%
%TD*%
%TA.AperFunction,ComponentPad*%
%ADD14RoundRect,0.250000X-0.350000X-0.625000X0.350000X-0.625000X0.350000X0.625000X-0.350000X0.625000X0*%
%TD*%
%TA.AperFunction,ComponentPad*%
%ADD15R,1.700000X1.700000*%
%TD*%
%TA.AperFunction,ComponentPad*%
%ADD16C,1.700000*%
%TD*%
%TA.AperFunction,ComponentPad*%
%ADD17O,2.100000X1.000000*%
%TD*%
%TA.AperFunction,ViaPad*%
%ADD18C,0.800000*%
%TD*%
%TA.AperFunction,ViaPad*%
%ADD19C,0.600000*%
%TD*%
%TA.AperFunction,Conductor*%
%ADD20C,0.200000*%
%TD*%
G04 APERTURE END LIST*
D10*
%TO.P,J4,1*%
%TO.N,SPKP*%
X116300000Y-69350000D03*
D11*
%TO.P,J4,2*%
%TO.N,SPKM*%
X114300000Y-69350000D03*
%TD*%
D12*
%TO.P,J5,1*%
%TO.N,SPKM*%
X51950000Y-59300000D03*
D13*
%TO.P,J5,2*%
%TO.N,SPKO*%
X51950000Y-61300000D03*
%TD*%
D14*
%TO.P,J6,1*%
%TO.N,GND*%
X56500000Y-47950000D03*
D11*
%TO.P,J6,2*%
%TO.N,BTN*%
X58500000Y-47950000D03*
%TD*%
D14*
%TO.P,J7,1*%
%TO.N,EN*%
X100500000Y-43750000D03*
D11*
%TO.P,J7,2*%
%TO.N,GND*%
X102500000Y-43750000D03*
%TO.P,J7,3*%
%TO.N,EN*%
X104500000Y-43750000D03*
%TO.P,J7,4*%
%TO.N,GND*%
X106500000Y-43750000D03*
%TD*%
D12*
%TO.P,J10,1*%
%TO.N,GND*%
X43550000Y-50850000D03*
D13*
%TO.P,J10,2*%
%TO.N,BATP*%
X43550000Y-52850000D03*
%TD*%
D15*
%TO.P,J1,1*%
%TO.N,V5*%
X41770000Y-65595000D03*
D16*
%TO.P,J1,2*%
%TO.N,GND*%
X44310000Y-65595000D03*
%TO.P,J1,3*%
%TO.N,V33*%
X46850000Y-65595000D03*
%TO.P,J1,4*%
%TO.N,SDA*%
X49390000Y-65595000D03*
%TO.P,J1,5*%
%TO.N,SCL*%
X51930000Y-65595000D03*
%TO.P,J1,6*%
%TO.N,BTN*%
X54470000Y-65595000D03*
%TO.P,J1,7*%
%TO.N,IN*%
X57010000Y-65595000D03*
%TD*%
D15*
%TO.P,J2,1*%
%TO.N,GND*%
X77240000Y-72630000D03*
D16*
%TO.P,J2,2*%
%TO.N,V33*%
X79780000Y-72630000D03*
%TO.P,J2,3*%
%TO.N,SCL*%
X82320000Y-72630000D03*
%TO.P,J2,4*%
%TO.N,SDA*%
X84860000Y-72630000D03*
%TD*%
D17*
%TO.P,J13,SH*%
%TO.N,GND*%
X116774000Y-55720000D03*
X116774000Y-47080000D03*
%TD*%
D18*
%TO.N,BATP*%
X74640600Y-47217600D03*
X54073000Y-71860000D03*
%TO.N,CC1*%
X94011900Y-65308400D03*
X117382000Y-52749800D03*
%TO.N,CC2*%
X93868500Y-61090000D03*
X113775100Y-49901700D03*
%TO.N,COL*%
X58875300Y-62682500D03*
X96619800Y-48898300D03*
%TO.N,EN*%
X84325400Y-56845700D03*
X94250400Y-59650000D03*
X88945200Y-49013500D03*
%TO.N,FB*%
X88316500Y-60664400D03*
X87348900Y-54643000D03*
X86633600Y-46177600D03*
%TO.N,GND*%
X67853600Y-60252300D03*
%TO.N,IN*%
X60827800Y-52327500D03*
%TO.N,LBI*%
X79449300Y-59833000D03*
X88625100Y-50836300D03*
%TO.N,LBO*%
X82434500Y-60296300D03*
X89147500Y-47925300D03*
%TO.N,N_LED4*%
X69841500Y-57275000D03*
X69904100Y-63272600D03*
%TO.N,PROG1*%
X71790900Y-51712600D03*
X77268600Y-64246400D03*
%TO.N,PROG3*%
X71522700Y-52688200D03*
X72254700Y-58804400D03*
%TO.N,SCL*%
X73805900Y-51620600D03*
X93745200Y-71860000D03*
X106591200Y-62965000D03*
%TO.N,SDA*%
X72828100Y-50561600D03*
X106630000Y-64235000D03*
X80748900Y-50272300D03*
%TO.N,SPKO*%
X92994500Y-69695600D03*
X105901300Y-59914200D03*
%TO.N,SPKP*%
X104296000Y-59699600D03*
%TO.N,STAT1*%
X67816100Y-54907100D03*
X69119600Y-55212800D03*
%TO.N,STAT2*%
X66864300Y-54713600D03*
X79590300Y-56610900D03*
%TO.N,THERM*%
X73314200Y-59650600D03*
X65938100Y-53484200D03*
%TO.N,V33*%
X72899600Y-48314600D03*
X89732600Y-72519200D03*
X101681900Y-62942500D03*
%TO.N,V5*%
X55023400Y-57688300D03*
X58846400Y-44051700D03*
X89938600Y-56790000D03*
X83064700Y-48139500D03*
%TO.N,VBUS*%
X66098700Y-55791300D03*
X69078700Y-48035200D03*
X76924200Y-51417600D03*
X72052700Y-63021700D03*
%TO.N,VLIPO*%
X64187800Y-51673600D03*
X72963000Y-72194700D03*
%TO.N,VPCC*%
X62224300Y-64127200D03*
X61433500Y-57712400D03*
%TO.N,VSYS*%
X75668500Y-46142600D03*
X66148500Y-50071100D03*
X75627500Y-57085700D03*
X80074700Y-54359900D03*
X80076100Y-61430500D03*
X88097900Y-57674400D03*
X87286600Y-52054400D03*
D19*
%TO.N,GND*%
X41000000Y-76400000D03*
X41000000Y-73200000D03*
X41000000Y-70000000D03*
X41000000Y-63600000D03*
X41000000Y-60400000D03*
X41000000Y-57200000D03*
X41000000Y-54000000D03*
X41000000Y-50800000D03*
X41000000Y-47600000D03*
X44200000Y-76400000D03*
X44200000Y-70000000D03*
X44200000Y-60400000D03*
X44200000Y-57200000D03*
X44200000Y-47600000D03*
X47400000Y-76400000D03*
X47400000Y-73200000D03*
X47400000Y-70000000D03*
X47400000Y-63600000D03*
X47400000Y-54000000D03*
X47400000Y-47600000D03*
X47400000Y-44400000D03*
X47400000Y-41200000D03*
X50600000Y-76400000D03*
X50600000Y-73200000D03*
X50600000Y-57200000D03*
X50600000Y-54000000D03*
X50600000Y-47600000D03*
X50600000Y-41200000D03*
X53800000Y-76400000D03*
X53800000Y-73200000D03*
X53800000Y-57200000D03*
X53800000Y-54000000D03*
X53800000Y-47600000D03*
X53800000Y-44400000D03*
X53800000Y-41200000D03*
X57000000Y-76400000D03*
X57000000Y-73200000D03*
X57000000Y-41200000D03*
X60200000Y-76400000D03*
X60200000Y-73200000D03*
X60200000Y-47600000D03*
X60200000Y-41200000D03*
X63400000Y-76400000D03*
X63400000Y-73200000D03*
X63400000Y-66800000D03*
X63400000Y-47600000D03*
X63400000Y-41200000D03*
X66600000Y-76400000D03*
X66600000Y-73200000D03*
X66600000Y-57200000D03*
X66600000Y-41200000D03*
X69800000Y-76400000D03*
X69800000Y-41200000D03*
X73000000Y-76400000D03*
X73000000Y-41200000D03*
X76200000Y-76400000D03*
X76200000Y-66800000D03*
X76200000Y-41200000D03*
X79400000Y-76400000D03*
X79400000Y-66800000D03*
X79400000Y-41200000D03*
X82600000Y-76400000D03*
X82600000Y-50800000D03*
X82600000Y-41200000D03*
X85800000Y-76400000D03*
X85800000Y-44400000D03*
X85800000Y-41200000D03*
X89000000Y-76400000D03*
X89000000Y-66800000D03*
X89000000Y-44400000D03*
X89000000Y-41200000D03*
X92200000Y-76400000D03*
X92200000Y-44400000D03*
X92200000Y-41200000D03*
X95400000Y-76400000D03*
X95400000Y-44400000D03*
X95400000Y-41200000D03*
X98600000Y-76400000D03*
X98600000Y-70000000D03*
X98600000Y-44400000D03*
X98600000Y-41200000D03*
X101800000Y-76400000D03*
X101800000Y-73200000D03*
X101800000Y-66800000D03*
X101800000Y-47600000D03*
X101800000Y-41200000D03*
X105000000Y-76400000D03*
X105000000Y-73200000D03*
X105000000Y-70000000D03*
X105000000Y-47600000D03*
X105000000Y-41200000D03*
X108200000Y-76400000D03*
X108200000Y-73200000D03*
X108200000Y-70000000D03*
X108200000Y-66800000D03*
X108200000Y-47600000D03*
X108200000Y-41200000D03*
X111400000Y-76400000D03*
X111400000Y-70000000D03*
X111400000Y-66800000D03*
X111400000Y-57200000D03*
X111400000Y-41200000D03*
X114600000Y-76400000D03*
X114600000Y-73200000D03*
X114600000Y-63600000D03*
X114600000Y-60400000D03*
X114600000Y-44400000D03*
X114600000Y-41200000D03*
X117800000Y-76400000D03*
X117800000Y-73200000D03*
X117800000Y-70000000D03*
X117800000Y-66800000D03*
X117800000Y-63600000D03*
X117800000Y-60400000D03*
X117800000Y-50800000D03*
X121000000Y-76400000D03*
X121000000Y-73200000D03*
X121000000Y-70000000D03*
X121000000Y-66800000D03*
X121000000Y-63600000D03*
X121000000Y-60400000D03*
X121000000Y-57200000D03*
X121000000Y-54000000D03*
X121000000Y-50800000D03*
X121000000Y-47600000D03*
%TD*%
%TO.N,BATP*%
D20*
X74640600Y-47217600D02*
X74030800Y-46607800D01*
X74030800Y-46607800D02*
X68332100Y-46607800D01*
X68332100Y-46607800D02*
X59879900Y-55060000D01*
X59879900Y-55060000D02*
X59879900Y-66053100D01*
X59879900Y-66053100D02*
X54073000Y-71860000D01*
X43550000Y-53701700D02*
X50660000Y-60811700D01*
X50660000Y-60811700D02*
X50660000Y-68447000D01*
X50660000Y-68447000D02*
X54073000Y-71860000D01*
X43550000Y-52850000D02*
X43550000Y-53701700D01*
%TO.N,BTN*%
X54470000Y-65595000D02*
X56497900Y-63567100D01*
X56497900Y-63567100D02*
X56497900Y-49952100D01*
X56497900Y-49952100D02*
X57648300Y-48801700D01*
X57648300Y-48801700D02*
X57648300Y-47950000D01*
X58500000Y-47950000D02*
X57648300Y-47950000D01*
%TO.N,CC1*%
X117382000Y-52749800D02*
X118212000Y-53579800D01*
X118212000Y-53579800D02*
X118212000Y-56246900D01*
X118212000Y-56246900D02*
X115910500Y-58548400D01*
X115910500Y-58548400D02*
X100771900Y-58548400D01*
X100771900Y-58548400D02*
X94011900Y-65308400D01*
%TO.N,CC2*%
X113775100Y-49901700D02*
X105056800Y-49901700D01*
X105056800Y-49901700D02*
X93868500Y-61090000D01*
%TO.N,COL*%
X96619800Y-48898300D02*
X93199600Y-45478100D01*
X93199600Y-45478100D02*
X68964500Y-45478100D01*
X68964500Y-45478100D02*
X58875300Y-55567300D01*
X58875300Y-55567300D02*
X58875300Y-62682500D01*
%TO.N,EN*%
X94377300Y-52232600D02*
X89406400Y-47261800D01*
X89406400Y-47261800D02*
X88889100Y-47261800D01*
X88889100Y-47261800D02*
X88492400Y-47658500D01*
X88492400Y-47658500D02*
X88492400Y-48560700D01*
X88492400Y-48560700D02*
X88945200Y-49013500D01*
X94250400Y-59650000D02*
X94377300Y-59523100D01*
X94377300Y-59523100D02*
X94377300Y-52232700D01*
X94377300Y-52232700D02*
X94377300Y-52232600D01*
X101733200Y-44876700D02*
X94377300Y-52232600D01*
X101733200Y-44876700D02*
X101351700Y-44495200D01*
X101351700Y-44495200D02*
X101351700Y-43750000D01*
X104500000Y-43750000D02*
X103373300Y-44876700D01*
X103373300Y-44876700D02*
X101733200Y-44876700D01*
X94250400Y-59650000D02*
X92196500Y-61703900D01*
X92196500Y-61703900D02*
X87932600Y-61703900D01*
X87932600Y-61703900D02*
X84325400Y-58096700D01*
X84325400Y-58096700D02*
X84325400Y-56845700D01*
X100500000Y-43750000D02*
X101351700Y-43750000D01*
%TO.N,FB*%
X88316500Y-60664400D02*
X86471600Y-58819500D01*
X86471600Y-58819500D02*
X86471600Y-55520300D01*
X86471600Y-55520300D02*
X87348900Y-54643000D01*
X86633600Y-46177600D02*
X86633600Y-47726500D01*
X86633600Y-47726500D02*
X90619800Y-51712700D01*
X90619800Y-51712700D02*
X90619800Y-58361100D01*
X90619800Y-58361100D02*
X88316500Y-60664400D01*
%TO.N,GND*%
X67853600Y-60252300D02*
X71272400Y-63671100D01*
X71272400Y-63671100D02*
X71272400Y-65560700D01*
X71272400Y-65560700D02*
X77240000Y-71528300D01*
X77240000Y-72630000D02*
X77240000Y-71528300D01*
X102500000Y-43750000D02*
X103351700Y-43750000D01*
X106500000Y-43750000D02*
X105648300Y-43750000D01*
X105648300Y-43750000D02*
X105648300Y-43004800D01*
X105648300Y-43004800D02*
X105266800Y-42623300D01*
X105266800Y-42623300D02*
X103733200Y-42623300D01*
X103733200Y-42623300D02*
X103351700Y-43004800D01*
X103351700Y-43004800D02*
X103351700Y-43750000D01*
X43550000Y-50850000D02*
X43550000Y-51701700D01*
X44310000Y-65595000D02*
X42423300Y-63708300D01*
X42423300Y-63708300D02*
X42423300Y-52083200D01*
X42423300Y-52083200D02*
X42804800Y-51701700D01*
X42804800Y-51701700D02*
X43550000Y-51701700D01*
X115472300Y-47080000D02*
X110681700Y-47080000D01*
X110681700Y-47080000D02*
X107351700Y-43750000D01*
X106500000Y-43750000D02*
X107351700Y-43750000D01*
X115472300Y-47080000D02*
X115472300Y-55720000D01*
X116774000Y-55720000D02*
X115472300Y-55720000D01*
X116774000Y-47080000D02*
X115472300Y-47080000D01*
%TO.N,IN*%
X57010000Y-65595000D02*
X57010000Y-56145300D01*
X57010000Y-56145300D02*
X60827800Y-52327500D01*
%TO.N,LBI*%
X79449300Y-59833000D02*
X80247800Y-59034500D01*
X80247800Y-59034500D02*
X80247800Y-55672300D01*
X80247800Y-55672300D02*
X79393400Y-54817900D01*
X79393400Y-54817900D02*
X79393400Y-50198000D01*
X79393400Y-50198000D02*
X82110500Y-47480900D01*
X82110500Y-47480900D02*
X85269700Y-47480900D01*
X85269700Y-47480900D02*
X88625100Y-50836300D01*
%TO.N,LBO*%
X82434500Y-60296300D02*
X82434500Y-57812900D01*
X82434500Y-57812900D02*
X84075300Y-56172100D01*
X84075300Y-56172100D02*
X84574800Y-56172100D01*
X84574800Y-56172100D02*
X85909500Y-57506800D01*
X85909500Y-57506800D02*
X85909500Y-59183500D01*
X85909500Y-59183500D02*
X88078200Y-61352200D01*
X88078200Y-61352200D02*
X88556500Y-61352200D01*
X88556500Y-61352200D02*
X91017800Y-58890900D01*
X91017800Y-58890900D02*
X91017800Y-49795600D01*
X91017800Y-49795600D02*
X89147500Y-47925300D01*
%TO.N,N_LED4*%
X69904100Y-63272600D02*
X67163000Y-60531500D01*
X67163000Y-60531500D02*
X67163000Y-59953500D01*
X67163000Y-59953500D02*
X69841500Y-57275000D01*
%TO.N,PROG1*%
X71790900Y-51712600D02*
X72264400Y-52186100D01*
X72264400Y-52186100D02*
X72264400Y-55975400D01*
X72264400Y-55975400D02*
X77268600Y-60979600D01*
X77268600Y-60979600D02*
X77268600Y-64246400D01*
%TO.N,PROG3*%
X72254700Y-58804400D02*
X72254700Y-56887200D01*
X72254700Y-56887200D02*
X71522700Y-56155200D01*
X71522700Y-56155200D02*
X71522700Y-52688200D01*
%TO.N,SCL*%
X82320000Y-72630000D02*
X82320000Y-65197400D01*
X82320000Y-65197400D02*
X72616100Y-55493500D01*
X72616100Y-55493500D02*
X72616100Y-51616200D01*
X72616100Y-51616200D02*
X72176400Y-51176500D01*
X72176400Y-51176500D02*
X72176400Y-50250200D01*
X72176400Y-50250200D02*
X72520900Y-49905700D01*
X72520900Y-49905700D02*
X73094000Y-49905700D01*
X73094000Y-49905700D02*
X73805900Y-50617600D01*
X73805900Y-50617600D02*
X73805900Y-51620600D01*
X93745200Y-71860000D02*
X102640200Y-62965000D01*
X102640200Y-62965000D02*
X106591200Y-62965000D01*
%TO.N,SDA*%
X80381900Y-62110700D02*
X79730600Y-62110700D01*
X79730600Y-62110700D02*
X72967800Y-55347900D01*
X72967800Y-55347900D02*
X72967800Y-50701300D01*
X72967800Y-50701300D02*
X72828100Y-50561600D01*
X80381900Y-62110700D02*
X81031500Y-61461100D01*
X81031500Y-61461100D02*
X81031500Y-50554900D01*
X81031500Y-50554900D02*
X80748900Y-50272300D01*
X84860000Y-72630000D02*
X84860000Y-66588800D01*
X84860000Y-66588800D02*
X80381900Y-62110700D01*
X84860000Y-72630000D02*
X85441400Y-73211400D01*
X85441400Y-73211400D02*
X97653600Y-73211400D01*
X97653600Y-73211400D02*
X106630000Y-64235000D01*
%TO.N,SPKO*%
X105901300Y-59914200D02*
X105031400Y-59044300D01*
X105031400Y-59044300D02*
X103645800Y-59044300D01*
X103645800Y-59044300D02*
X92994500Y-69695600D01*
%TO.N,SPKP*%
X115448300Y-69350000D02*
X115448300Y-68604800D01*
X115448300Y-68604800D02*
X109659200Y-62815700D01*
X109659200Y-62815700D02*
X107412100Y-62815700D01*
X107412100Y-62815700D02*
X104296000Y-59699600D01*
X116300000Y-69350000D02*
X115448300Y-69350000D01*
%TO.N,STAT1*%
X69119600Y-55212800D02*
X68121800Y-55212800D01*
X68121800Y-55212800D02*
X67816100Y-54907100D01*
%TO.N,STAT2*%
X79590300Y-56610900D02*
X79590300Y-55904700D01*
X79590300Y-55904700D02*
X73239600Y-49554000D01*
X73239600Y-49554000D02*
X72023900Y-49554000D01*
X72023900Y-49554000D02*
X66864300Y-54713600D01*
%TO.N,THERM*%
X65938100Y-53484200D02*
X66212600Y-53758700D01*
X66212600Y-53758700D02*
X66212600Y-54983400D01*
X66212600Y-54983400D02*
X66594500Y-55365300D01*
X66594500Y-55365300D02*
X66652400Y-55365300D01*
X66652400Y-55365300D02*
X67151700Y-55864600D01*
X67151700Y-55864600D02*
X69889200Y-55864600D01*
X69889200Y-55864600D02*
X71498900Y-57474300D01*
X71498900Y-57474300D02*
X71498900Y-58973800D01*
X71498900Y-58973800D02*
X72175700Y-59650600D01*
X72175700Y-59650600D02*
X73314200Y-59650600D01*
%TO.N,V33*%
X72899600Y-48314600D02*
X76674100Y-52089100D01*
X76674100Y-52089100D02*
X77265900Y-52089100D01*
X77265900Y-52089100D02*
X77649700Y-51705300D01*
X77649700Y-51705300D02*
X77649700Y-51154400D01*
X77649700Y-51154400D02*
X74769600Y-48274300D01*
X74769600Y-48274300D02*
X74278200Y-48274300D01*
X74278200Y-48274300D02*
X73315100Y-47311200D01*
X73315100Y-47311200D02*
X68813000Y-47311200D01*
X68813000Y-47311200D02*
X67063900Y-49060300D01*
X67063900Y-49060300D02*
X67063900Y-50077300D01*
X67063900Y-50077300D02*
X64864800Y-52276400D01*
X64864800Y-52276400D02*
X64864800Y-62379200D01*
X64864800Y-62379200D02*
X76217300Y-73731700D01*
X76217300Y-73731700D02*
X78678300Y-73731700D01*
X78678300Y-73731700D02*
X79780000Y-72630000D01*
X101681900Y-62942500D02*
X92105200Y-72519200D01*
X92105200Y-72519200D02*
X89732600Y-72519200D01*
%TO.N,V5*%
X89938600Y-56790000D02*
X89938600Y-53758800D01*
X89938600Y-53758800D02*
X84319400Y-48139600D01*
X84319400Y-48139600D02*
X83064700Y-48139600D01*
X83064700Y-48139600D02*
X83064700Y-48139500D01*
X58846400Y-44051700D02*
X58053800Y-44051700D01*
X58053800Y-44051700D02*
X55023400Y-47082100D01*
X55023400Y-47082100D02*
X55023400Y-57688300D01*
%TO.N,VBUS*%
X76924200Y-51417600D02*
X73169500Y-47662900D01*
X73169500Y-47662900D02*
X69451000Y-47662900D01*
X69451000Y-47662900D02*
X69078700Y-48035200D01*
X66311000Y-55579100D02*
X65860900Y-55129000D01*
X65860900Y-55129000D02*
X65860900Y-55072500D01*
X65860900Y-55072500D02*
X65267200Y-54478800D01*
X65267200Y-54478800D02*
X65267200Y-52643100D01*
X65267200Y-52643100D02*
X65615900Y-52294400D01*
X65615900Y-52294400D02*
X65615900Y-52022600D01*
X65615900Y-52022600D02*
X67539400Y-50099100D01*
X67539400Y-50099100D02*
X67539400Y-49603800D01*
X67539400Y-49603800D02*
X67849300Y-49293900D01*
X67849300Y-49293900D02*
X67849300Y-49291900D01*
X67849300Y-49291900D02*
X69078700Y-48062500D01*
X69078700Y-48062500D02*
X69078700Y-48035200D01*
X66311000Y-55579100D02*
X66448900Y-55717000D01*
X66448900Y-55717000D02*
X66505400Y-55717000D01*
X66505400Y-55717000D02*
X67004700Y-56216300D01*
X67004700Y-56216300D02*
X69584100Y-56216300D01*
X69584100Y-56216300D02*
X69846600Y-56478800D01*
X69846600Y-56478800D02*
X69983600Y-56478800D01*
X69983600Y-56478800D02*
X71147200Y-57642400D01*
X71147200Y-57642400D02*
X71147200Y-59119400D01*
X71147200Y-59119400D02*
X71498900Y-59471100D01*
X71498900Y-59471100D02*
X71498900Y-62467900D01*
X71498900Y-62467900D02*
X72052700Y-63021700D01*
X66311000Y-55579100D02*
X66098700Y-55791300D01*
%TO.N,VLIPO*%
X64187800Y-51673600D02*
X64187800Y-63419500D01*
X64187800Y-63419500D02*
X72963000Y-72194700D01*
%TO.N,VPCC*%
X62224300Y-64127200D02*
X62224300Y-58503200D01*
X62224300Y-58503200D02*
X61433500Y-57712400D01*
%TO.N,VSYS*%
X75668500Y-46142600D02*
X75668500Y-47111500D01*
X75668500Y-47111500D02*
X74908200Y-47871800D01*
X74908200Y-47871800D02*
X74373100Y-47871800D01*
X74373100Y-47871800D02*
X73460800Y-46959500D01*
X73460800Y-46959500D02*
X68667400Y-46959500D01*
X68667400Y-46959500D02*
X66148500Y-49478400D01*
X66148500Y-49478400D02*
X66148500Y-50071100D01*
X80076100Y-61266100D02*
X79807900Y-61266100D01*
X79807900Y-61266100D02*
X75627500Y-57085700D01*
X80076100Y-61266100D02*
X80610700Y-60731500D01*
X80610700Y-60731500D02*
X80610700Y-54895900D01*
X80610700Y-54895900D02*
X80074700Y-54359900D01*
X80074700Y-54359900D02*
X80074700Y-50014000D01*
X80074700Y-50014000D02*
X80493600Y-49595100D01*
X80493600Y-49595100D02*
X84827300Y-49595100D01*
X84827300Y-49595100D02*
X87286600Y-52054400D01*
X88097900Y-57674400D02*
X88097900Y-52865700D01*
X88097900Y-52865700D02*
X87286600Y-52054400D01*
X80076100Y-61266100D02*
X80076100Y-61430500D01*
%TD*%
M02*
