%TF.GenerationSoftware,KiCad,Pcbnew,10.0.6*%
%TF.CreationDate,2026-09-17T11:58:28+09:00*%
%TF.ProjectId,katanori61,6b617461-6e6f-4726-9936-312e6b696361,rev?*%
%TF.SameCoordinates,Original*%
%TF.FileFunction,Copper,L4,Bot*%
%TF.FilePolarity,Positive*%
%FSLAX46Y46*%
G04 Gerber Fmt 4.6, Leading zero omitted, Abs format (unit mm)*
G04 Created by KiCad (PCBNEW 10.0.6) date 2026-09-17 11:58:28*
%MOMM*%
%LPD*%
G01*
G04 APERTURE LIST*
G04 Aperture macros list*
%AMRoundRect*
0 Rectangle with rounded corners*
0 $1 Rounding radius*
0 $2 $3 $4 $5 $6 $7 $8 $9 X,Y pos of 4 corners*
0 Add a 4 corners polygon primitive as box body*
4,1,4,$2,$3,$4,$5,$6,$7,$8,$9,$2,$3,0*
0 Add four circle primitives for the rounded corners*
1,1,$1+$1,$2,$3*
1,1,$1+$1,$4,$5*
1,1,$1+$1,$6,$7*
1,1,$1+$1,$8,$9*
0 Add four rect primitives between the rounded corners*
20,1,$1+$1,$2,$3,$4,$5,0*
20,1,$1+$1,$4,$5,$6,$7,0*
20,1,$1+$1,$6,$7,$8,$9,0*
20,1,$1+$1,$8,$9,$2,$3,0*%
G04 Aperture macros list end*
%TA.AperFunction,ComponentPad*%
%ADD10RoundRect,0.250000X-0.350000X-0.625000X0.350000X-0.625000X0.350000X0.625000X-0.350000X0.625000X0*%
%TD*%
%TA.AperFunction,ComponentPad*%
%ADD11O,1.200000X1.750000*%
%TD*%
%TA.AperFunction,ComponentPad*%
%ADD12RoundRect,0.250000X-0.625000X0.350000X-0.625000X-0.350000X0.625000X-0.350000X0.625000X0.350000X0*%
%TD*%
%TA.AperFunction,ComponentPad*%
%ADD13O,1.750000X1.200000*%
%TD*%
%TA.AperFunction,ComponentPad*%
%ADD14R,1.700000X1.700000*%
%TD*%
%TA.AperFunction,ComponentPad*%
%ADD15C,1.700000*%
%TD*%
%TA.AperFunction,ComponentPad*%
%ADD16O,1.000000X2.100000*%
%TD*%
%TA.AperFunction,ComponentPad*%
%ADD17O,1.000000X1.600000*%
%TD*%
%TA.AperFunction,ViaPad*%
%ADD18C,0.600000*%
%TD*%
%TA.AperFunction,Conductor*%
%ADD19C,0.200000*%
%TD*%
%TA.AperFunction,Conductor*%
%ADD20C,0.800000*%
%TD*%
%TA.AperFunction,Conductor*%
%ADD21C,0.600000*%
%TD*%
G04 APERTURE END LIST*
D10*
%TO.P,J4,1*%
%TO.N,SPKP*%
X114300000Y-67850000D03*
D11*
%TO.P,J4,2*%
%TO.N,SPKM*%
X116300000Y-67850000D03*
%TD*%
D12*
%TO.P,J5,1*%
%TO.N,SPKM*%
X51950000Y-59300000D03*
D13*
%TO.P,J5,2*%
%TO.N,SPKO*%
X51950000Y-61300000D03*
%TD*%
D10*
%TO.P,J6,1*%
%TO.N,GND*%
X56500000Y-46850000D03*
D11*
%TO.P,J6,2*%
%TO.N,BTN*%
X58500000Y-46850000D03*
%TD*%
D10*
%TO.P,J7,1*%
%TO.N,EN*%
X100500000Y-43750000D03*
D11*
%TO.P,J7,2*%
%TO.N,GND*%
X102500000Y-43750000D03*
%TO.P,J7,3*%
%TO.N,EN*%
X104500000Y-43750000D03*
%TO.P,J7,4*%
%TO.N,GND*%
X106500000Y-43750000D03*
%TD*%
D12*
%TO.P,J10,1*%
%TO.N,GND*%
X115700000Y-60450000D03*
D13*
%TO.P,J10,2*%
%TO.N,BATRAW*%
X115700000Y-62450000D03*
%TD*%
D14*
%TO.P,J1,1*%
%TO.N,V5*%
X41770000Y-65595000D03*
D15*
%TO.P,J1,2*%
%TO.N,GND*%
X44310000Y-65595000D03*
%TO.P,J1,3*%
%TO.N,V33*%
X46850000Y-65595000D03*
%TO.P,J1,4*%
%TO.N,SDA*%
X49390000Y-65595000D03*
%TO.P,J1,5*%
%TO.N,SCL*%
X51930000Y-65595000D03*
%TO.P,J1,6*%
%TO.N,BTN*%
X54470000Y-65595000D03*
%TO.P,J1,7*%
%TO.N,IN*%
X57010000Y-65595000D03*
%TD*%
D14*
%TO.P,J2,1*%
%TO.N,GND*%
X77240000Y-72630000D03*
D15*
%TO.P,J2,2*%
%TO.N,V33*%
X79780000Y-72630000D03*
%TO.P,J2,3*%
%TO.N,SCL*%
X82320000Y-72630000D03*
%TO.P,J2,4*%
%TO.N,SDA*%
X84860000Y-72630000D03*
%TD*%
D16*
%TO.P,J13,SH*%
%TO.N,GND*%
X85332000Y-45480000D03*
D17*
X85332000Y-41300000D03*
D16*
X76692000Y-45480000D03*
D17*
X76692000Y-41300000D03*
%TD*%
D18*
%TO.N,GND*%
X61325000Y-62725000D03*
X61325000Y-64075000D03*
X62675000Y-62725000D03*
X62675000Y-64075000D03*
X72875000Y-61390000D03*
X72875000Y-62640000D03*
X74125000Y-61390000D03*
X74125000Y-62640000D03*
%TO.N,BASE*%
X56572200Y-51807800D03*
X57393100Y-60918900D03*
%TO.N,BATG*%
X82101500Y-69760000D03*
X84270000Y-62008100D03*
%TO.N,BATRAW*%
X84937500Y-64151700D03*
%TO.N,CC1*%
X59124400Y-71032800D03*
X82047200Y-45203500D03*
%TO.N,CC2*%
X62022500Y-70610900D03*
X79262000Y-45216000D03*
%TO.N,COL*%
X56994400Y-62530800D03*
X75800100Y-51699800D03*
%TO.N,EN*%
X76155200Y-53338600D03*
X83284700Y-53815400D03*
X59151400Y-63399800D03*
%TO.N,FB*%
X61675000Y-66244400D03*
X67680700Y-55518100D03*
%TO.N,GND*%
X65136400Y-53092600D03*
X79577100Y-57390900D03*
X85900100Y-69536600D03*
X53200100Y-62163900D03*
X81028900Y-59474400D03*
%TO.N,IN*%
X56433600Y-54481200D03*
%TO.N,LBI*%
X62027600Y-55553200D03*
X59161200Y-62425000D03*
%TO.N,LBO*%
X72910600Y-49231600D03*
X59157000Y-64375000D03*
%TO.N,PROG1*%
X76393300Y-67490100D03*
X77050000Y-62013400D03*
%TO.N,SCL*%
X77868500Y-56814200D03*
X89156200Y-58400000D03*
X106725900Y-62965000D03*
%TO.N,SDA*%
X77034100Y-57059400D03*
X81656100Y-60225400D03*
X93531200Y-63114500D03*
X101860500Y-63684800D03*
%TO.N,SPKO*%
X81864200Y-55371600D03*
%TO.N,SPKP*%
X105486500Y-59818200D03*
%TO.N,STAT2*%
X70261600Y-71241900D03*
X72851800Y-64844500D03*
%TO.N,THERM*%
X74624500Y-73154700D03*
X71562500Y-63626000D03*
%TO.N,V33*%
X104673000Y-61591800D03*
%TO.N,V5*%
X64417600Y-51427800D03*
X66589100Y-55651700D03*
X55100000Y-54809900D03*
X96646800Y-57763200D03*
%TO.N,VBUS*%
X71020900Y-64645800D03*
X71247700Y-59480800D03*
X77547800Y-53465300D03*
X73052800Y-66001200D03*
X75539800Y-71375000D03*
X66020600Y-71410900D03*
X83236100Y-47595400D03*
%TO.N,VLIPO*%
X67957700Y-57443700D03*
X75951700Y-60314800D03*
%TO.N,VPCC*%
X70669100Y-61710600D03*
X78744000Y-53290800D03*
%TO.N,VSYS*%
X73462600Y-53152100D03*
X70255900Y-60899500D03*
%TO.N,GND*%
X41000000Y-76400000D03*
X41000000Y-73200000D03*
X41000000Y-70000000D03*
X41000000Y-63600000D03*
X41000000Y-60400000D03*
X41000000Y-57200000D03*
X41000000Y-54000000D03*
X41000000Y-50800000D03*
X41000000Y-47600000D03*
X41000000Y-44400000D03*
X44200000Y-76400000D03*
X44200000Y-70000000D03*
X44200000Y-60400000D03*
X44200000Y-57200000D03*
X44200000Y-54000000D03*
X44200000Y-50800000D03*
X44200000Y-47600000D03*
X44200000Y-41200000D03*
X47400000Y-76400000D03*
X47400000Y-73200000D03*
X47400000Y-70000000D03*
X47400000Y-57200000D03*
X47400000Y-54000000D03*
X47400000Y-50800000D03*
X47400000Y-47600000D03*
X47400000Y-44400000D03*
X47400000Y-41200000D03*
X50600000Y-76400000D03*
X50600000Y-73200000D03*
X50600000Y-63600000D03*
X50600000Y-54000000D03*
X50600000Y-50800000D03*
X50600000Y-47600000D03*
X50600000Y-44400000D03*
X50600000Y-41200000D03*
X53800000Y-76400000D03*
X53800000Y-70000000D03*
X53800000Y-57200000D03*
X53800000Y-50800000D03*
X53800000Y-47600000D03*
X53800000Y-44400000D03*
X53800000Y-41200000D03*
X57000000Y-44400000D03*
X57000000Y-41200000D03*
X60200000Y-47600000D03*
X60200000Y-44400000D03*
X60200000Y-41200000D03*
X63400000Y-41200000D03*
X66600000Y-47600000D03*
X66600000Y-44400000D03*
X66600000Y-41200000D03*
X69800000Y-44400000D03*
X69800000Y-41200000D03*
X73000000Y-44400000D03*
X73000000Y-41200000D03*
X79400000Y-41200000D03*
X82600000Y-76400000D03*
X82600000Y-41200000D03*
X85800000Y-76400000D03*
X89000000Y-76400000D03*
X89000000Y-73200000D03*
X89000000Y-70000000D03*
X89000000Y-47600000D03*
X89000000Y-44400000D03*
X89000000Y-41200000D03*
X92200000Y-76400000D03*
X92200000Y-73200000D03*
X92200000Y-70000000D03*
X92200000Y-54000000D03*
X92200000Y-47600000D03*
X92200000Y-44400000D03*
X92200000Y-41200000D03*
X95400000Y-76400000D03*
X95400000Y-73200000D03*
X95400000Y-70000000D03*
X95400000Y-60400000D03*
X95400000Y-54000000D03*
X95400000Y-44400000D03*
X95400000Y-41200000D03*
X98600000Y-76400000D03*
X98600000Y-73200000D03*
X98600000Y-70000000D03*
X98600000Y-60400000D03*
X98600000Y-54000000D03*
X98600000Y-47600000D03*
X98600000Y-41200000D03*
X101800000Y-76400000D03*
X101800000Y-73200000D03*
X101800000Y-70000000D03*
X101800000Y-60400000D03*
X101800000Y-54000000D03*
X101800000Y-47600000D03*
X101800000Y-41200000D03*
X105000000Y-76400000D03*
X105000000Y-73200000D03*
X105000000Y-70000000D03*
X105000000Y-54000000D03*
X105000000Y-47600000D03*
X105000000Y-41200000D03*
X108200000Y-76400000D03*
X108200000Y-73200000D03*
X108200000Y-70000000D03*
X108200000Y-54000000D03*
X108200000Y-47600000D03*
X108200000Y-41200000D03*
X111400000Y-76400000D03*
X111400000Y-73200000D03*
X111400000Y-70000000D03*
X111400000Y-57200000D03*
X111400000Y-54000000D03*
X111400000Y-50800000D03*
X111400000Y-44400000D03*
X111400000Y-41200000D03*
X114600000Y-76400000D03*
X114600000Y-73200000D03*
X114600000Y-70000000D03*
X114600000Y-57200000D03*
X114600000Y-54000000D03*
X114600000Y-47600000D03*
X114600000Y-44400000D03*
X114600000Y-41200000D03*
X117800000Y-76400000D03*
X117800000Y-70000000D03*
X117800000Y-66800000D03*
X117800000Y-63600000D03*
X117800000Y-60400000D03*
X117800000Y-57200000D03*
X117800000Y-54000000D03*
X117800000Y-50800000D03*
X117800000Y-47600000D03*
X117800000Y-44400000D03*
X117800000Y-41200000D03*
X121000000Y-76400000D03*
X121000000Y-70000000D03*
X121000000Y-66800000D03*
X121000000Y-63600000D03*
X121000000Y-60400000D03*
X121000000Y-57200000D03*
X121000000Y-54000000D03*
X121000000Y-50800000D03*
X121000000Y-47600000D03*
X121000000Y-44400000D03*
X121000000Y-41200000D03*
%TD*%
%TO.N,EN*%
D19*
X83284700Y-53815400D02*
X83058900Y-54041200D01*
X83058900Y-54041200D02*
X76857800Y-54041200D01*
X76857800Y-54041200D02*
X76155200Y-53338600D01*
%TO.N,GND*%
X61325000Y-62725000D02*
X60448700Y-61848700D01*
X60448700Y-61848700D02*
X53515300Y-61848700D01*
X53515300Y-61848700D02*
X53200100Y-62163900D01*
X77240000Y-72630000D02*
X78341700Y-72630000D01*
X85900100Y-69536600D02*
X83908400Y-71528300D01*
X83908400Y-71528300D02*
X79305600Y-71528300D01*
X79305600Y-71528300D02*
X78341700Y-72492200D01*
X78341700Y-72492200D02*
X78341700Y-72630000D01*
%TO.N,SCL*%
X106725900Y-62965000D02*
X94161900Y-62965000D01*
X94161900Y-62965000D02*
X89596900Y-58400000D01*
X89596900Y-58400000D02*
X89156200Y-58400000D01*
%TO.N,SPKM*%
X51950000Y-59300000D02*
X64895000Y-59300000D01*
X64895000Y-59300000D02*
X72199800Y-66604800D01*
X72199800Y-66604800D02*
X114948300Y-66604800D01*
X114948300Y-66604800D02*
X115448300Y-67104800D01*
X115448300Y-67104800D02*
X115448300Y-67850000D01*
X116300000Y-67850000D02*
X115448300Y-67850000D01*
%TO.N,V5*%
D20*
X66456100Y-55518700D02*
X67353000Y-54621800D01*
X67353000Y-54621800D02*
X73147600Y-54621800D01*
X73147600Y-54621800D02*
X76801900Y-58276100D01*
X76801900Y-58276100D02*
X83408600Y-58276100D01*
X83408600Y-58276100D02*
X84144600Y-57540100D01*
X84144600Y-57540100D02*
X96423700Y-57540100D01*
X96423700Y-57540100D02*
X96646800Y-57763200D01*
X64796900Y-54037600D02*
X66278100Y-55518700D01*
X66278100Y-55518700D02*
X66456100Y-55518700D01*
X66589100Y-55651700D02*
X66456100Y-55518700D01*
X64796900Y-54037600D02*
X64243700Y-53484300D01*
X64243700Y-53484300D02*
X64243700Y-51601700D01*
X64243700Y-51601700D02*
X64417600Y-51427800D01*
X64796900Y-54037600D02*
X62424100Y-56410400D01*
X62424100Y-56410400D02*
X56700500Y-56410400D01*
X56700500Y-56410400D02*
X55100000Y-54809900D01*
%TO.N,VBUS*%
D19*
X71970500Y-64918900D02*
X71697400Y-64645800D01*
X71697400Y-64645800D02*
X71020900Y-64645800D01*
X73052800Y-66001200D02*
X71970500Y-64918900D01*
X71970500Y-64918900D02*
X73650800Y-63238600D01*
X73650800Y-63238600D02*
X74353100Y-63238600D01*
X74353100Y-63238600D02*
X76511500Y-61080200D01*
X76511500Y-61080200D02*
X76511500Y-60090300D01*
X76511500Y-60090300D02*
X75902000Y-59480800D01*
X75902000Y-59480800D02*
X71247700Y-59480800D01*
X66020600Y-71410900D02*
X66441000Y-71831300D01*
X66441000Y-71831300D02*
X75083500Y-71831300D01*
X75083500Y-71831300D02*
X75539800Y-71375000D01*
%TO.N,VLIPO*%
D21*
X67957700Y-57443700D02*
X70828800Y-60314800D01*
X70828800Y-60314800D02*
X75951700Y-60314800D01*
%TD*%
%TA.AperFunction,Conductor*%
%TO.N,GND*%
G36*
X121666539Y-40320185D02*
G01*
X121712294Y-40372989D01*
X121723500Y-40424500D01*
X121723500Y-76975500D01*
X121703815Y-77042539D01*
X121651011Y-77088294D01*
X121599500Y-77099500D01*
X40424500Y-77099500D01*
X40357461Y-77079815D01*
X40311706Y-77027011D01*
X40300500Y-76975500D01*
X40300500Y-73793713D01*
X42649500Y-73793713D01*
X42649500Y-74006286D01*
X42682753Y-74216239D01*
X42748444Y-74418414D01*
X42844951Y-74607820D01*
X42969890Y-74779786D01*
X43120213Y-74930109D01*
X43292179Y-75055048D01*
X43292181Y-75055049D01*
X43292184Y-75055051D01*
X43481588Y-75151557D01*
X43683757Y-75217246D01*
X43893713Y-75250500D01*
X43893714Y-75250500D01*
X44106286Y-75250500D01*
X44106287Y-75250500D01*
X44316243Y-75217246D01*
X44518412Y-75151557D01*
X44707816Y-75055051D01*
X44729789Y-75039086D01*
X44879786Y-74930109D01*
X44879788Y-74930106D01*
X44879792Y-74930104D01*
X45030104Y-74779792D01*
X45030106Y-74779788D01*
X45030109Y-74779786D01*
X45155048Y-74607820D01*
X45155047Y-74607820D01*
X45155051Y-74607816D01*
X45251557Y-74418412D01*
X45317246Y-74216243D01*
X45350500Y-74006287D01*
X45350500Y-73793713D01*
X118003500Y-73793713D01*
X118003500Y-74006286D01*
X118036753Y-74216239D01*
X118102444Y-74418414D01*
X118198951Y-74607820D01*
X118323890Y-74779786D01*
X118474213Y-74930109D01*
X118646179Y-75055048D01*
X118646181Y-75055049D01*
X118646184Y-75055051D01*
X118835588Y-75151557D01*
X119037757Y-75217246D01*
X119247713Y-75250500D01*
X119247714Y-75250500D01*
X119460286Y-75250500D01*
X119460287Y-75250500D01*
X119670243Y-75217246D01*
X119872412Y-75151557D01*
X120061816Y-75055051D01*
X120083789Y-75039086D01*
X120233786Y-74930109D01*
X120233788Y-74930106D01*
X120233792Y-74930104D01*
X120384104Y-74779792D01*
X120384106Y-74779788D01*
X120384109Y-74779786D01*
X120509048Y-74607820D01*
X120509047Y-74607820D01*
X120509051Y-74607816D01*
X120605557Y-74418412D01*
X120671246Y-74216243D01*
X120704500Y-74006287D01*
X120704500Y-73793713D01*
X120671246Y-73583757D01*
X120605557Y-73381588D01*
X120509051Y-73192184D01*
X120509049Y-73192181D01*
X120509048Y-73192179D01*
X120384109Y-73020213D01*
X120233786Y-72869890D01*
X120061820Y-72744951D01*
X119872414Y-72648444D01*
X119872413Y-72648443D01*
X119872412Y-72648443D01*
X119670243Y-72582754D01*
X119670241Y-72582753D01*
X119670240Y-72582753D01*
X119489961Y-72554200D01*
X119460287Y-72549500D01*
X119247713Y-72549500D01*
X119218039Y-72554200D01*
X119037760Y-72582753D01*
X118835585Y-72648444D01*
X118646179Y-72744951D01*
X118474213Y-72869890D01*
X118323890Y-73020213D01*
X118198951Y-73192179D01*
X118102444Y-73381585D01*
X118036753Y-73583760D01*
X118003500Y-73793713D01*
X45350500Y-73793713D01*
X45317246Y-73583757D01*
X45251557Y-73381588D01*
X45155051Y-73192184D01*
X45155049Y-73192181D01*
X45117429Y-73140400D01*
X45117428Y-73140399D01*
X45070380Y-73075643D01*
X74024000Y-73075643D01*
X74024000Y-73233757D01*
X74063611Y-73381585D01*
X74064923Y-73386483D01*
X74064926Y-73386490D01*
X74143975Y-73523409D01*
X74143979Y-73523414D01*
X74143980Y-73523416D01*
X74255784Y-73635220D01*
X74255786Y-73635221D01*
X74255790Y-73635224D01*
X74330498Y-73678356D01*
X74392716Y-73714277D01*
X74545443Y-73755200D01*
X74545445Y-73755200D01*
X74703555Y-73755200D01*
X74703557Y-73755200D01*
X74856284Y-73714277D01*
X74993216Y-73635220D01*
X75105020Y-73523416D01*
X75184077Y-73386484D01*
X75225000Y-73233757D01*
X75225000Y-73075643D01*
X75184077Y-72922916D01*
X75105023Y-72785990D01*
X75105022Y-72785987D01*
X75105018Y-72785982D01*
X74993217Y-72674181D01*
X74993212Y-72674177D01*
X74937427Y-72641970D01*
X74937426Y-72641970D01*
X74932723Y-72639255D01*
X74856284Y-72595123D01*
X74703557Y-72554200D01*
X74545443Y-72554200D01*
X74392716Y-72595123D01*
X74392709Y-72595126D01*
X74255790Y-72674175D01*
X74255782Y-72674181D01*
X74143981Y-72785982D01*
X74143975Y-72785990D01*
X74064926Y-72922909D01*
X74064923Y-72922916D01*
X74024000Y-73075643D01*
X45070380Y-73075643D01*
X45030109Y-73020214D01*
X45030105Y-73020209D01*
X44879786Y-72869890D01*
X44707820Y-72744951D01*
X44518414Y-72648444D01*
X44518413Y-72648443D01*
X44518412Y-72648443D01*
X44316243Y-72582754D01*
X44316241Y-72582753D01*
X44316240Y-72582753D01*
X44135961Y-72554200D01*
X44106287Y-72549500D01*
X43893713Y-72549500D01*
X43864039Y-72554200D01*
X43683760Y-72582753D01*
X43481585Y-72648444D01*
X43292179Y-72744951D01*
X43120213Y-72869890D01*
X42969890Y-73020213D01*
X42844951Y-73192179D01*
X42748444Y-73381585D01*
X42682753Y-73583760D01*
X42649500Y-73793713D01*
X40300500Y-73793713D01*
X40300500Y-70953743D01*
X58523900Y-70953743D01*
X58523900Y-71111857D01*
X58550573Y-71211400D01*
X58564823Y-71264583D01*
X58564826Y-71264590D01*
X58643875Y-71401509D01*
X58643879Y-71401514D01*
X58643880Y-71401516D01*
X58755684Y-71513320D01*
X58755686Y-71513321D01*
X58755690Y-71513324D01*
X58851680Y-71568743D01*
X58892616Y-71592377D01*
X59045343Y-71633300D01*
X59045345Y-71633300D01*
X59203455Y-71633300D01*
X59203457Y-71633300D01*
X59356184Y-71592377D01*
X59493116Y-71513320D01*
X59604920Y-71401516D01*
X59645145Y-71331843D01*
X65420100Y-71331843D01*
X65420100Y-71489957D01*
X65458509Y-71633299D01*
X65461023Y-71642683D01*
X65461026Y-71642690D01*
X65540075Y-71779609D01*
X65540079Y-71779614D01*
X65540080Y-71779616D01*
X65651884Y-71891420D01*
X65651886Y-71891421D01*
X65651890Y-71891424D01*
X65788809Y-71970473D01*
X65788816Y-71970477D01*
X65941543Y-72011400D01*
X66003345Y-72011400D01*
X66070384Y-72031085D01*
X66091026Y-72047719D01*
X66120519Y-72077212D01*
X66120520Y-72077213D01*
X66195087Y-72151780D01*
X66286413Y-72204507D01*
X66388273Y-72231800D01*
X66388275Y-72231800D01*
X75136225Y-72231800D01*
X75136227Y-72231800D01*
X75238088Y-72204507D01*
X75329413Y-72151780D01*
X75469374Y-72011819D01*
X75530697Y-71978334D01*
X75557055Y-71975500D01*
X75618855Y-71975500D01*
X75618857Y-71975500D01*
X75771584Y-71934577D01*
X75908516Y-71855520D01*
X75978319Y-71785717D01*
X76039642Y-71752232D01*
X76109334Y-71757216D01*
X76165267Y-71799088D01*
X76189684Y-71864552D01*
X76190000Y-71873398D01*
X76190000Y-72380000D01*
X76806988Y-72380000D01*
X76774075Y-72437007D01*
X76740000Y-72564174D01*
X76740000Y-72695826D01*
X76774075Y-72822993D01*
X76806988Y-72880000D01*
X76190000Y-72880000D01*
X76190000Y-73499702D01*
X76201602Y-73558033D01*
X76201603Y-73558034D01*
X76245808Y-73624191D01*
X76311965Y-73668396D01*
X76311966Y-73668397D01*
X76370297Y-73679999D01*
X76370301Y-73680000D01*
X76990000Y-73680000D01*
X76990000Y-73063012D01*
X77047007Y-73095925D01*
X77174174Y-73130000D01*
X77305826Y-73130000D01*
X77432993Y-73095925D01*
X77490000Y-73063012D01*
X77490000Y-73680000D01*
X78109699Y-73680000D01*
X78109702Y-73679999D01*
X78168033Y-73668397D01*
X78168034Y-73668396D01*
X78234191Y-73624191D01*
X78278396Y-73558034D01*
X78278397Y-73558033D01*
X78289999Y-73499702D01*
X78290000Y-73499699D01*
X78290000Y-72880000D01*
X77673012Y-72880000D01*
X77705925Y-72822993D01*
X77740000Y-72695826D01*
X77740000Y-72564174D01*
X77733375Y-72539448D01*
X78629500Y-72539448D01*
X78629500Y-72720551D01*
X78657829Y-72899410D01*
X78713787Y-73071636D01*
X78713788Y-73071639D01*
X78796006Y-73232997D01*
X78902441Y-73379494D01*
X78902445Y-73379499D01*
X79030500Y-73507554D01*
X79030505Y-73507558D01*
X79135385Y-73583757D01*
X79177006Y-73613996D01*
X79282484Y-73667740D01*
X79338360Y-73696211D01*
X79338363Y-73696212D01*
X79393951Y-73714273D01*
X79510591Y-73752171D01*
X79593429Y-73765291D01*
X79689449Y-73780500D01*
X79689454Y-73780500D01*
X79870551Y-73780500D01*
X79957259Y-73766765D01*
X80049409Y-73752171D01*
X80221639Y-73696211D01*
X80382994Y-73613996D01*
X80529501Y-73507553D01*
X80657553Y-73379501D01*
X80763996Y-73232994D01*
X80846211Y-73071639D01*
X80902171Y-72899409D01*
X80926635Y-72744951D01*
X80927527Y-72739321D01*
X80957456Y-72676186D01*
X81016768Y-72639255D01*
X81086630Y-72640253D01*
X81144863Y-72678863D01*
X81172473Y-72739321D01*
X81197829Y-72899410D01*
X81253787Y-73071636D01*
X81253788Y-73071639D01*
X81336006Y-73232997D01*
X81442441Y-73379494D01*
X81442445Y-73379499D01*
X81570500Y-73507554D01*
X81570505Y-73507558D01*
X81675385Y-73583757D01*
X81717006Y-73613996D01*
X81822484Y-73667740D01*
X81878360Y-73696211D01*
X81878363Y-73696212D01*
X81933951Y-73714273D01*
X82050591Y-73752171D01*
X82133429Y-73765291D01*
X82229449Y-73780500D01*
X82229454Y-73780500D01*
X82410551Y-73780500D01*
X82497259Y-73766765D01*
X82589409Y-73752171D01*
X82761639Y-73696211D01*
X82922994Y-73613996D01*
X83069501Y-73507553D01*
X83197553Y-73379501D01*
X83303996Y-73232994D01*
X83386211Y-73071639D01*
X83442171Y-72899409D01*
X83466635Y-72744951D01*
X83467527Y-72739321D01*
X83497456Y-72676186D01*
X83556768Y-72639255D01*
X83626630Y-72640253D01*
X83684863Y-72678863D01*
X83712473Y-72739321D01*
X83737829Y-72899410D01*
X83793787Y-73071636D01*
X83793788Y-73071639D01*
X83876006Y-73232997D01*
X83982441Y-73379494D01*
X83982445Y-73379499D01*
X84110500Y-73507554D01*
X84110505Y-73507558D01*
X84215385Y-73583757D01*
X84257006Y-73613996D01*
X84362484Y-73667740D01*
X84418360Y-73696211D01*
X84418363Y-73696212D01*
X84473951Y-73714273D01*
X84590591Y-73752171D01*
X84673429Y-73765291D01*
X84769449Y-73780500D01*
X84769454Y-73780500D01*
X84950551Y-73780500D01*
X85037259Y-73766765D01*
X85129409Y-73752171D01*
X85301639Y-73696211D01*
X85301639Y-73696210D01*
X85301644Y-73696209D01*
X85336680Y-73678357D01*
X85336681Y-73678356D01*
X85462994Y-73613996D01*
X85609501Y-73507553D01*
X85737553Y-73379501D01*
X85843996Y-73232994D01*
X85926211Y-73071639D01*
X85982171Y-72899409D01*
X86006635Y-72744951D01*
X86010500Y-72720551D01*
X86010500Y-72539448D01*
X85985245Y-72380000D01*
X85982171Y-72360591D01*
X85931457Y-72204506D01*
X85926212Y-72188363D01*
X85926211Y-72188360D01*
X85896474Y-72130000D01*
X85843996Y-72027006D01*
X85806574Y-71975499D01*
X85737558Y-71880505D01*
X85737554Y-71880500D01*
X85609499Y-71752445D01*
X85609494Y-71752441D01*
X85462997Y-71646006D01*
X85462996Y-71646005D01*
X85462994Y-71646004D01*
X85386021Y-71606784D01*
X85301639Y-71563788D01*
X85301636Y-71563787D01*
X85129410Y-71507829D01*
X84950551Y-71479500D01*
X84950546Y-71479500D01*
X84769454Y-71479500D01*
X84769449Y-71479500D01*
X84590589Y-71507829D01*
X84418363Y-71563787D01*
X84418360Y-71563788D01*
X84257002Y-71646006D01*
X84110505Y-71752441D01*
X84110500Y-71752445D01*
X83982445Y-71880500D01*
X83982441Y-71880505D01*
X83876006Y-72027002D01*
X83793788Y-72188360D01*
X83793787Y-72188363D01*
X83737829Y-72360589D01*
X83712473Y-72520678D01*
X83682544Y-72583813D01*
X83623232Y-72620744D01*
X83553369Y-72619746D01*
X83495137Y-72581136D01*
X83467527Y-72520678D01*
X83445245Y-72380000D01*
X83442171Y-72360591D01*
X83391457Y-72204506D01*
X83386212Y-72188363D01*
X83386211Y-72188360D01*
X83356474Y-72130000D01*
X83303996Y-72027006D01*
X83266574Y-71975499D01*
X83197558Y-71880505D01*
X83197554Y-71880500D01*
X83069499Y-71752445D01*
X83069494Y-71752441D01*
X82922997Y-71646006D01*
X82922996Y-71646005D01*
X82922994Y-71646004D01*
X82846021Y-71606784D01*
X82761639Y-71563788D01*
X82761636Y-71563787D01*
X82589410Y-71507829D01*
X82410551Y-71479500D01*
X82410546Y-71479500D01*
X82229454Y-71479500D01*
X82229449Y-71479500D01*
X82050589Y-71507829D01*
X81878363Y-71563787D01*
X81878360Y-71563788D01*
X81717002Y-71646006D01*
X81570505Y-71752441D01*
X81570500Y-71752445D01*
X81442445Y-71880500D01*
X81442441Y-71880505D01*
X81336006Y-72027002D01*
X81253788Y-72188360D01*
X81253787Y-72188363D01*
X81197829Y-72360589D01*
X81172473Y-72520678D01*
X81142544Y-72583813D01*
X81083232Y-72620744D01*
X81013369Y-72619746D01*
X80955137Y-72581136D01*
X80927527Y-72520678D01*
X80905245Y-72380000D01*
X80902171Y-72360591D01*
X80851457Y-72204506D01*
X80846212Y-72188363D01*
X80846211Y-72188360D01*
X80816474Y-72130000D01*
X80763996Y-72027006D01*
X80726574Y-71975499D01*
X80657558Y-71880505D01*
X80657554Y-71880500D01*
X80529499Y-71752445D01*
X80529494Y-71752441D01*
X80382997Y-71646006D01*
X80382996Y-71646005D01*
X80382994Y-71646004D01*
X80306021Y-71606784D01*
X80221639Y-71563788D01*
X80221636Y-71563787D01*
X80049410Y-71507829D01*
X79870551Y-71479500D01*
X79870546Y-71479500D01*
X79689454Y-71479500D01*
X79689449Y-71479500D01*
X79510589Y-71507829D01*
X79338363Y-71563787D01*
X79338360Y-71563788D01*
X79177002Y-71646006D01*
X79030505Y-71752441D01*
X79030500Y-71752445D01*
X78902445Y-71880500D01*
X78902441Y-71880505D01*
X78796006Y-72027002D01*
X78713788Y-72188360D01*
X78713787Y-72188363D01*
X78657829Y-72360589D01*
X78629500Y-72539448D01*
X77733375Y-72539448D01*
X77705925Y-72437007D01*
X77673012Y-72380000D01*
X78290000Y-72380000D01*
X78290000Y-71760301D01*
X78289999Y-71760297D01*
X78278397Y-71701966D01*
X78278396Y-71701965D01*
X78234191Y-71635808D01*
X78168034Y-71591603D01*
X78168033Y-71591602D01*
X78109702Y-71580000D01*
X77490000Y-71580000D01*
X77490000Y-72196988D01*
X77432993Y-72164075D01*
X77305826Y-72130000D01*
X77174174Y-72130000D01*
X77047007Y-72164075D01*
X76990000Y-72196988D01*
X76990000Y-71580000D01*
X76370297Y-71580000D01*
X76311961Y-71591604D01*
X76309665Y-71592555D01*
X76304259Y-71593135D01*
X76299986Y-71593986D01*
X76299909Y-71593603D01*
X76240195Y-71600021D01*
X76177718Y-71568743D01*
X76142068Y-71508652D01*
X76139280Y-71461800D01*
X76140300Y-71454055D01*
X76140300Y-71295945D01*
X76140300Y-71295943D01*
X76099377Y-71143216D01*
X76081272Y-71111857D01*
X76020324Y-71006290D01*
X76020318Y-71006282D01*
X75908517Y-70894481D01*
X75908509Y-70894475D01*
X75771590Y-70815426D01*
X75771586Y-70815424D01*
X75771584Y-70815423D01*
X75618857Y-70774500D01*
X75460743Y-70774500D01*
X75308016Y-70815423D01*
X75308009Y-70815426D01*
X75171090Y-70894475D01*
X75171082Y-70894481D01*
X75059281Y-71006282D01*
X75059275Y-71006290D01*
X74980226Y-71143209D01*
X74980223Y-71143216D01*
X74939300Y-71295943D01*
X74939300Y-71306800D01*
X74919615Y-71373839D01*
X74866811Y-71419594D01*
X74815300Y-71430800D01*
X70986100Y-71430800D01*
X70919061Y-71411115D01*
X70873306Y-71358311D01*
X70862100Y-71306800D01*
X70862100Y-71162845D01*
X70862100Y-71162843D01*
X70821177Y-71010116D01*
X70818965Y-71006284D01*
X70742124Y-70873190D01*
X70742118Y-70873182D01*
X70630317Y-70761381D01*
X70630309Y-70761375D01*
X70493390Y-70682326D01*
X70493386Y-70682324D01*
X70493384Y-70682323D01*
X70340657Y-70641400D01*
X70182543Y-70641400D01*
X70029816Y-70682323D01*
X70029809Y-70682326D01*
X69892890Y-70761375D01*
X69892882Y-70761381D01*
X69781081Y-70873182D01*
X69781075Y-70873190D01*
X69702026Y-71010109D01*
X69702023Y-71010116D01*
X69661100Y-71162843D01*
X69661100Y-71306800D01*
X69641415Y-71373839D01*
X69588611Y-71419594D01*
X69537100Y-71430800D01*
X66742764Y-71430800D01*
X66675725Y-71411115D01*
X66629970Y-71358311D01*
X66622989Y-71338894D01*
X66618183Y-71320957D01*
X66580177Y-71179116D01*
X66559446Y-71143209D01*
X66501124Y-71042190D01*
X66501118Y-71042182D01*
X66389317Y-70930381D01*
X66389309Y-70930375D01*
X66252390Y-70851326D01*
X66252386Y-70851324D01*
X66252384Y-70851323D01*
X66099657Y-70810400D01*
X65941543Y-70810400D01*
X65788816Y-70851323D01*
X65788809Y-70851326D01*
X65651890Y-70930375D01*
X65651882Y-70930381D01*
X65540081Y-71042182D01*
X65540075Y-71042190D01*
X65461026Y-71179109D01*
X65461024Y-71179114D01*
X65461023Y-71179116D01*
X65420100Y-71331843D01*
X59645145Y-71331843D01*
X59683977Y-71264584D01*
X59724900Y-71111857D01*
X59724900Y-70953743D01*
X59683977Y-70801016D01*
X59661094Y-70761381D01*
X59604924Y-70664090D01*
X59604918Y-70664082D01*
X59493117Y-70552281D01*
X59493109Y-70552275D01*
X59457719Y-70531843D01*
X61422000Y-70531843D01*
X61422000Y-70689957D01*
X61455620Y-70815426D01*
X61462923Y-70842683D01*
X61462926Y-70842690D01*
X61541975Y-70979609D01*
X61541979Y-70979614D01*
X61541980Y-70979616D01*
X61653784Y-71091420D01*
X61653786Y-71091421D01*
X61653790Y-71091424D01*
X61689182Y-71111857D01*
X61790716Y-71170477D01*
X61943443Y-71211400D01*
X61943445Y-71211400D01*
X62101555Y-71211400D01*
X62101557Y-71211400D01*
X62254284Y-71170477D01*
X62391216Y-71091420D01*
X62503020Y-70979616D01*
X62582077Y-70842684D01*
X62623000Y-70689957D01*
X62623000Y-70531843D01*
X62582077Y-70379116D01*
X62571329Y-70360499D01*
X62503024Y-70242190D01*
X62503018Y-70242182D01*
X62391217Y-70130381D01*
X62391209Y-70130375D01*
X62254290Y-70051326D01*
X62254286Y-70051324D01*
X62254284Y-70051323D01*
X62101557Y-70010400D01*
X61943443Y-70010400D01*
X61790716Y-70051323D01*
X61790709Y-70051326D01*
X61653790Y-70130375D01*
X61653782Y-70130381D01*
X61541981Y-70242182D01*
X61541975Y-70242190D01*
X61462926Y-70379109D01*
X61462923Y-70379116D01*
X61422000Y-70531843D01*
X59457719Y-70531843D01*
X59356190Y-70473226D01*
X59356186Y-70473224D01*
X59356184Y-70473223D01*
X59203457Y-70432300D01*
X59045343Y-70432300D01*
X58892616Y-70473223D01*
X58892609Y-70473226D01*
X58755690Y-70552275D01*
X58755682Y-70552281D01*
X58643881Y-70664082D01*
X58643875Y-70664090D01*
X58564826Y-70801009D01*
X58564823Y-70801016D01*
X58523900Y-70953743D01*
X40300500Y-70953743D01*
X40300500Y-69680943D01*
X81501000Y-69680943D01*
X81501000Y-69839056D01*
X81541923Y-69991783D01*
X81541926Y-69991790D01*
X81620975Y-70128709D01*
X81620979Y-70128714D01*
X81620980Y-70128716D01*
X81732784Y-70240520D01*
X81732786Y-70240521D01*
X81732790Y-70240524D01*
X81869709Y-70319573D01*
X81869716Y-70319577D01*
X82022443Y-70360500D01*
X82022445Y-70360500D01*
X82180555Y-70360500D01*
X82180557Y-70360500D01*
X82333284Y-70319577D01*
X82470216Y-70240520D01*
X82582020Y-70128716D01*
X82661077Y-69991784D01*
X82702000Y-69839057D01*
X82702000Y-69680943D01*
X82661077Y-69528216D01*
X82661073Y-69528209D01*
X82582024Y-69391290D01*
X82582018Y-69391282D01*
X82470217Y-69279481D01*
X82470209Y-69279475D01*
X82333290Y-69200426D01*
X82333286Y-69200424D01*
X82333284Y-69200423D01*
X82180557Y-69159500D01*
X82022443Y-69159500D01*
X81869716Y-69200423D01*
X81869709Y-69200426D01*
X81732790Y-69279475D01*
X81732782Y-69279481D01*
X81620981Y-69391282D01*
X81620975Y-69391290D01*
X81541926Y-69528209D01*
X81541923Y-69528216D01*
X81501000Y-69680943D01*
X40300500Y-69680943D01*
X40300500Y-64700131D01*
X40619500Y-64700131D01*
X40619500Y-66489856D01*
X40619502Y-66489882D01*
X40622413Y-66514987D01*
X40622415Y-66514991D01*
X40667793Y-66617764D01*
X40667794Y-66617765D01*
X40747235Y-66697206D01*
X40850009Y-66742585D01*
X40875135Y-66745500D01*
X42664864Y-66745499D01*
X42664879Y-66745497D01*
X42664882Y-66745497D01*
X42689987Y-66742586D01*
X42689988Y-66742585D01*
X42689991Y-66742585D01*
X42792765Y-66697206D01*
X42872206Y-66617765D01*
X42917585Y-66514991D01*
X42920500Y-66489865D01*
X42920499Y-65491579D01*
X43260000Y-65491579D01*
X43260000Y-65698420D01*
X43300348Y-65901266D01*
X43300350Y-65901274D01*
X43379500Y-66092359D01*
X43411377Y-66140067D01*
X43411378Y-66140067D01*
X43827037Y-65724408D01*
X43844075Y-65787993D01*
X43909901Y-65902007D01*
X44002993Y-65995099D01*
X44117007Y-66060925D01*
X44180590Y-66077962D01*
X43764931Y-66493620D01*
X43764932Y-66493621D01*
X43812633Y-66525495D01*
X43812639Y-66525498D01*
X44003725Y-66604649D01*
X44003733Y-66604651D01*
X44206579Y-66644999D01*
X44206583Y-66645000D01*
X44413417Y-66645000D01*
X44413420Y-66644999D01*
X44616266Y-66604651D01*
X44616274Y-66604649D01*
X44807366Y-66525495D01*
X44855066Y-66493621D01*
X44855067Y-66493620D01*
X44439409Y-66077962D01*
X44502993Y-66060925D01*
X44617007Y-65995099D01*
X44710099Y-65902007D01*
X44775925Y-65787993D01*
X44792962Y-65724409D01*
X45208620Y-66140067D01*
X45208621Y-66140066D01*
X45240495Y-66092366D01*
X45319649Y-65901274D01*
X45319651Y-65901266D01*
X45359999Y-65698420D01*
X45360000Y-65698417D01*
X45360000Y-65504448D01*
X45699500Y-65504448D01*
X45699500Y-65685551D01*
X45727829Y-65864410D01*
X45783787Y-66036636D01*
X45783788Y-66036639D01*
X45839664Y-66146300D01*
X45849368Y-66165345D01*
X45866006Y-66197997D01*
X45972441Y-66344494D01*
X45972445Y-66344499D01*
X46100500Y-66472554D01*
X46100505Y-66472558D01*
X46173372Y-66525498D01*
X46247006Y-66578996D01*
X46323094Y-66617765D01*
X46408360Y-66661211D01*
X46408363Y-66661212D01*
X46494476Y-66689191D01*
X46580591Y-66717171D01*
X46663429Y-66730291D01*
X46759449Y-66745500D01*
X46759454Y-66745500D01*
X46940551Y-66745500D01*
X47027259Y-66731765D01*
X47119409Y-66717171D01*
X47291639Y-66661211D01*
X47452994Y-66578996D01*
X47599501Y-66472553D01*
X47727553Y-66344501D01*
X47833996Y-66197994D01*
X47916211Y-66036639D01*
X47972171Y-65864409D01*
X47987216Y-65769416D01*
X47997527Y-65704321D01*
X48027456Y-65641186D01*
X48086768Y-65604255D01*
X48156630Y-65605253D01*
X48214863Y-65643863D01*
X48242473Y-65704321D01*
X48267829Y-65864410D01*
X48323787Y-66036636D01*
X48323788Y-66036639D01*
X48379664Y-66146300D01*
X48389368Y-66165345D01*
X48406006Y-66197997D01*
X48512441Y-66344494D01*
X48512445Y-66344499D01*
X48640500Y-66472554D01*
X48640505Y-66472558D01*
X48713372Y-66525498D01*
X48787006Y-66578996D01*
X48863094Y-66617765D01*
X48948360Y-66661211D01*
X48948363Y-66661212D01*
X49034476Y-66689191D01*
X49120591Y-66717171D01*
X49203429Y-66730291D01*
X49299449Y-66745500D01*
X49299454Y-66745500D01*
X49480551Y-66745500D01*
X49567259Y-66731765D01*
X49659409Y-66717171D01*
X49831639Y-66661211D01*
X49992994Y-66578996D01*
X50139501Y-66472553D01*
X50267553Y-66344501D01*
X50373996Y-66197994D01*
X50456211Y-66036639D01*
X50512171Y-65864409D01*
X50527216Y-65769416D01*
X50537527Y-65704321D01*
X50567456Y-65641186D01*
X50626768Y-65604255D01*
X50696630Y-65605253D01*
X50754863Y-65643863D01*
X50782473Y-65704321D01*
X50807829Y-65864410D01*
X50863787Y-66036636D01*
X50863788Y-66036639D01*
X50919664Y-66146300D01*
X50929368Y-66165345D01*
X50946006Y-66197997D01*
X51052441Y-66344494D01*
X51052445Y-66344499D01*
X51180500Y-66472554D01*
X51180505Y-66472558D01*
X51253372Y-66525498D01*
X51327006Y-66578996D01*
X51403094Y-66617765D01*
X51488360Y-66661211D01*
X51488363Y-66661212D01*
X51574476Y-66689191D01*
X51660591Y-66717171D01*
X51743429Y-66730291D01*
X51839449Y-66745500D01*
X51839454Y-66745500D01*
X52020551Y-66745500D01*
X52107259Y-66731765D01*
X52199409Y-66717171D01*
X52371639Y-66661211D01*
X52532994Y-66578996D01*
X52679501Y-66472553D01*
X52807553Y-66344501D01*
X52913996Y-66197994D01*
X52996211Y-66036639D01*
X53052171Y-65864409D01*
X53067216Y-65769416D01*
X53077527Y-65704321D01*
X53107456Y-65641186D01*
X53166768Y-65604255D01*
X53236630Y-65605253D01*
X53294863Y-65643863D01*
X53322473Y-65704321D01*
X53347829Y-65864410D01*
X53403787Y-66036636D01*
X53403788Y-66036639D01*
X53459664Y-66146300D01*
X53469368Y-66165345D01*
X53486006Y-66197997D01*
X53592441Y-66344494D01*
X53592445Y-66344499D01*
X53720500Y-66472554D01*
X53720505Y-66472558D01*
X53793372Y-66525498D01*
X53867006Y-66578996D01*
X53943094Y-66617765D01*
X54028360Y-66661211D01*
X54028363Y-66661212D01*
X54114476Y-66689191D01*
X54200591Y-66717171D01*
X54283429Y-66730291D01*
X54379449Y-66745500D01*
X54379454Y-66745500D01*
X54560551Y-66745500D01*
X54647259Y-66731765D01*
X54739409Y-66717171D01*
X54911639Y-66661211D01*
X55072994Y-66578996D01*
X55219501Y-66472553D01*
X55347553Y-66344501D01*
X55453996Y-66197994D01*
X55536211Y-66036639D01*
X55592171Y-65864409D01*
X55607216Y-65769416D01*
X55617527Y-65704321D01*
X55647456Y-65641186D01*
X55706768Y-65604255D01*
X55776630Y-65605253D01*
X55834863Y-65643863D01*
X55862473Y-65704321D01*
X55887829Y-65864410D01*
X55943787Y-66036636D01*
X55943788Y-66036639D01*
X55999664Y-66146300D01*
X56009368Y-66165345D01*
X56026006Y-66197997D01*
X56132441Y-66344494D01*
X56132445Y-66344499D01*
X56260500Y-66472554D01*
X56260505Y-66472558D01*
X56333372Y-66525498D01*
X56407006Y-66578996D01*
X56483094Y-66617765D01*
X56568360Y-66661211D01*
X56568363Y-66661212D01*
X56654476Y-66689191D01*
X56740591Y-66717171D01*
X56823429Y-66730291D01*
X56919449Y-66745500D01*
X56919454Y-66745500D01*
X57100551Y-66745500D01*
X57187259Y-66731765D01*
X57279409Y-66717171D01*
X57451639Y-66661211D01*
X57612994Y-66578996D01*
X57759501Y-66472553D01*
X57887553Y-66344501D01*
X57993996Y-66197994D01*
X58010633Y-66165343D01*
X61074500Y-66165343D01*
X61074500Y-66323457D01*
X61114452Y-66472558D01*
X61115423Y-66476183D01*
X61115426Y-66476190D01*
X61194475Y-66613109D01*
X61194479Y-66613114D01*
X61194480Y-66613116D01*
X61306284Y-66724920D01*
X61306286Y-66724921D01*
X61306290Y-66724924D01*
X61427982Y-66795182D01*
X61443216Y-66803977D01*
X61595943Y-66844900D01*
X61595945Y-66844900D01*
X61754055Y-66844900D01*
X61754057Y-66844900D01*
X61906784Y-66803977D01*
X62043716Y-66724920D01*
X62155520Y-66613116D01*
X62234577Y-66476184D01*
X62275500Y-66323457D01*
X62275500Y-66165343D01*
X62234577Y-66012616D01*
X62182343Y-65922143D01*
X62155524Y-65875690D01*
X62155518Y-65875682D01*
X62043717Y-65763881D01*
X62043709Y-65763875D01*
X61906790Y-65684826D01*
X61906786Y-65684824D01*
X61906784Y-65684823D01*
X61754057Y-65643900D01*
X61595943Y-65643900D01*
X61443216Y-65684823D01*
X61443209Y-65684826D01*
X61306290Y-65763875D01*
X61306282Y-65763881D01*
X61194481Y-65875682D01*
X61194475Y-65875690D01*
X61115426Y-66012609D01*
X61115423Y-66012616D01*
X61074500Y-66165343D01*
X58010633Y-66165343D01*
X58043459Y-66100920D01*
X58059940Y-66068571D01*
X58076211Y-66036639D01*
X58132171Y-65864409D01*
X58148094Y-65763875D01*
X58160500Y-65685551D01*
X58160500Y-65504448D01*
X58144019Y-65400397D01*
X58132171Y-65325591D01*
X58095659Y-65213216D01*
X58076212Y-65153363D01*
X58076211Y-65153360D01*
X58036938Y-65076284D01*
X57993996Y-64992006D01*
X57944265Y-64923557D01*
X57887558Y-64845505D01*
X57887554Y-64845500D01*
X57759499Y-64717445D01*
X57759494Y-64717441D01*
X57612997Y-64611006D01*
X57612996Y-64611005D01*
X57612994Y-64611004D01*
X57536906Y-64572235D01*
X57451639Y-64528788D01*
X57451636Y-64528787D01*
X57279410Y-64472829D01*
X57100551Y-64444500D01*
X57100546Y-64444500D01*
X56919454Y-64444500D01*
X56919449Y-64444500D01*
X56740589Y-64472829D01*
X56568363Y-64528787D01*
X56568360Y-64528788D01*
X56407002Y-64611006D01*
X56260505Y-64717441D01*
X56260500Y-64717445D01*
X56132445Y-64845500D01*
X56132441Y-64845505D01*
X56026006Y-64992002D01*
X55943788Y-65153360D01*
X55943787Y-65153363D01*
X55887829Y-65325589D01*
X55862473Y-65485678D01*
X55832544Y-65548813D01*
X55773232Y-65585744D01*
X55703369Y-65584746D01*
X55645137Y-65546136D01*
X55617527Y-65485678D01*
X55603740Y-65398639D01*
X55592171Y-65325591D01*
X55555659Y-65213216D01*
X55536212Y-65153363D01*
X55536211Y-65153360D01*
X55496938Y-65076284D01*
X55453996Y-64992006D01*
X55404265Y-64923557D01*
X55347558Y-64845505D01*
X55347554Y-64845500D01*
X55219499Y-64717445D01*
X55219494Y-64717441D01*
X55072997Y-64611006D01*
X55072996Y-64611005D01*
X55072994Y-64611004D01*
X54996906Y-64572235D01*
X54911639Y-64528788D01*
X54911636Y-64528787D01*
X54739410Y-64472829D01*
X54560551Y-64444500D01*
X54560546Y-64444500D01*
X54379454Y-64444500D01*
X54379449Y-64444500D01*
X54200589Y-64472829D01*
X54028363Y-64528787D01*
X54028360Y-64528788D01*
X53867002Y-64611006D01*
X53720505Y-64717441D01*
X53720500Y-64717445D01*
X53592445Y-64845500D01*
X53592441Y-64845505D01*
X53486006Y-64992002D01*
X53403788Y-65153360D01*
X53403787Y-65153363D01*
X53347829Y-65325589D01*
X53322473Y-65485678D01*
X53292544Y-65548813D01*
X53233232Y-65585744D01*
X53163369Y-65584746D01*
X53105137Y-65546136D01*
X53077527Y-65485678D01*
X53063740Y-65398639D01*
X53052171Y-65325591D01*
X53015659Y-65213216D01*
X52996212Y-65153363D01*
X52996211Y-65153360D01*
X52956938Y-65076284D01*
X52913996Y-64992006D01*
X52864265Y-64923557D01*
X52807558Y-64845505D01*
X52807554Y-64845500D01*
X52679499Y-64717445D01*
X52679494Y-64717441D01*
X52532997Y-64611006D01*
X52532996Y-64611005D01*
X52532994Y-64611004D01*
X52456906Y-64572235D01*
X52371639Y-64528788D01*
X52371636Y-64528787D01*
X52199410Y-64472829D01*
X52020551Y-64444500D01*
X52020546Y-64444500D01*
X51839454Y-64444500D01*
X51839449Y-64444500D01*
X51660589Y-64472829D01*
X51488363Y-64528787D01*
X51488360Y-64528788D01*
X51327002Y-64611006D01*
X51180505Y-64717441D01*
X51180500Y-64717445D01*
X51052445Y-64845500D01*
X51052441Y-64845505D01*
X50946006Y-64992002D01*
X50863788Y-65153360D01*
X50863787Y-65153363D01*
X50807829Y-65325589D01*
X50782473Y-65485678D01*
X50752544Y-65548813D01*
X50693232Y-65585744D01*
X50623369Y-65584746D01*
X50565137Y-65546136D01*
X50537527Y-65485678D01*
X50523740Y-65398639D01*
X50512171Y-65325591D01*
X50475659Y-65213216D01*
X50456212Y-65153363D01*
X50456211Y-65153360D01*
X50416938Y-65076284D01*
X50373996Y-64992006D01*
X50324265Y-64923557D01*
X50267558Y-64845505D01*
X50267554Y-64845500D01*
X50139499Y-64717445D01*
X50139494Y-64717441D01*
X49992997Y-64611006D01*
X49992996Y-64611005D01*
X49992994Y-64611004D01*
X49916906Y-64572235D01*
X49831639Y-64528788D01*
X49831636Y-64528787D01*
X49659410Y-64472829D01*
X49480551Y-64444500D01*
X49480546Y-64444500D01*
X49299454Y-64444500D01*
X49299449Y-64444500D01*
X49120589Y-64472829D01*
X48948363Y-64528787D01*
X48948360Y-64528788D01*
X48787002Y-64611006D01*
X48640505Y-64717441D01*
X48640500Y-64717445D01*
X48512445Y-64845500D01*
X48512441Y-64845505D01*
X48406006Y-64992002D01*
X48323788Y-65153360D01*
X48323787Y-65153363D01*
X48267829Y-65325589D01*
X48242473Y-65485678D01*
X48212544Y-65548813D01*
X48153232Y-65585744D01*
X48083369Y-65584746D01*
X48025137Y-65546136D01*
X47997527Y-65485678D01*
X47983740Y-65398639D01*
X47972171Y-65325591D01*
X47935659Y-65213216D01*
X47916212Y-65153363D01*
X47916211Y-65153360D01*
X47876938Y-65076284D01*
X47833996Y-64992006D01*
X47784265Y-64923557D01*
X47727558Y-64845505D01*
X47727554Y-64845500D01*
X47599499Y-64717445D01*
X47599494Y-64717441D01*
X47452997Y-64611006D01*
X47452996Y-64611005D01*
X47452994Y-64611004D01*
X47376906Y-64572235D01*
X47291639Y-64528788D01*
X47291636Y-64528787D01*
X47119410Y-64472829D01*
X46940551Y-64444500D01*
X46940546Y-64444500D01*
X46759454Y-64444500D01*
X46759449Y-64444500D01*
X46580589Y-64472829D01*
X46408363Y-64528787D01*
X46408360Y-64528788D01*
X46247002Y-64611006D01*
X46100505Y-64717441D01*
X46100500Y-64717445D01*
X45972445Y-64845500D01*
X45972441Y-64845505D01*
X45866006Y-64992002D01*
X45783788Y-65153360D01*
X45783787Y-65153363D01*
X45727829Y-65325589D01*
X45699500Y-65504448D01*
X45360000Y-65504448D01*
X45360000Y-65491583D01*
X45359999Y-65491579D01*
X45319651Y-65288733D01*
X45319649Y-65288725D01*
X45240498Y-65097639D01*
X45240495Y-65097633D01*
X45208621Y-65049932D01*
X45208620Y-65049931D01*
X44792962Y-65465590D01*
X44775925Y-65402007D01*
X44710099Y-65287993D01*
X44617007Y-65194901D01*
X44502993Y-65129075D01*
X44439409Y-65112037D01*
X44855067Y-64696378D01*
X44855067Y-64696377D01*
X44807359Y-64664500D01*
X44616274Y-64585350D01*
X44616266Y-64585348D01*
X44413420Y-64545000D01*
X44206579Y-64545000D01*
X44003733Y-64585348D01*
X44003725Y-64585350D01*
X43812641Y-64664500D01*
X43812631Y-64664505D01*
X43764932Y-64696377D01*
X43764932Y-64696378D01*
X44180591Y-65112037D01*
X44117007Y-65129075D01*
X44002993Y-65194901D01*
X43909901Y-65287993D01*
X43844075Y-65402007D01*
X43827037Y-65465591D01*
X43411378Y-65049932D01*
X43411377Y-65049932D01*
X43379505Y-65097631D01*
X43379500Y-65097641D01*
X43300350Y-65288725D01*
X43300348Y-65288733D01*
X43260000Y-65491579D01*
X42920499Y-65491579D01*
X42920499Y-64700136D01*
X42920063Y-64696377D01*
X42917586Y-64675012D01*
X42917585Y-64675010D01*
X42917585Y-64675009D01*
X42872206Y-64572235D01*
X42792765Y-64492794D01*
X42792763Y-64492793D01*
X42689992Y-64447415D01*
X42664865Y-64444500D01*
X40875143Y-64444500D01*
X40875117Y-64444502D01*
X40850012Y-64447413D01*
X40850008Y-64447415D01*
X40747235Y-64492793D01*
X40667794Y-64572234D01*
X40622415Y-64675006D01*
X40622415Y-64675008D01*
X40619500Y-64700131D01*
X40300500Y-64700131D01*
X40300500Y-63320743D01*
X58550900Y-63320743D01*
X58550900Y-63478857D01*
X58584900Y-63605745D01*
X58591823Y-63631583D01*
X58591826Y-63631590D01*
X58670875Y-63768509D01*
X58670881Y-63768517D01*
X58704883Y-63802520D01*
X58738368Y-63863843D01*
X58733382Y-63933535D01*
X58704884Y-63977880D01*
X58676478Y-64006286D01*
X58676475Y-64006290D01*
X58597426Y-64143209D01*
X58597423Y-64143216D01*
X58556500Y-64295943D01*
X58556500Y-64454057D01*
X58591680Y-64585348D01*
X58597423Y-64606783D01*
X58597426Y-64606790D01*
X58676475Y-64743709D01*
X58676479Y-64743714D01*
X58676480Y-64743716D01*
X58788284Y-64855520D01*
X58788286Y-64855521D01*
X58788290Y-64855524D01*
X58925209Y-64934573D01*
X58925216Y-64934577D01*
X59077943Y-64975500D01*
X59077945Y-64975500D01*
X59236055Y-64975500D01*
X59236057Y-64975500D01*
X59388784Y-64934577D01*
X59525716Y-64855520D01*
X59637520Y-64743716D01*
X59716577Y-64606784D01*
X59757500Y-64454057D01*
X59757500Y-64295943D01*
X59716577Y-64143216D01*
X59683674Y-64086226D01*
X59637524Y-64006290D01*
X59637518Y-64006282D01*
X59603517Y-63972281D01*
X59570032Y-63910958D01*
X59575016Y-63841266D01*
X59603517Y-63796919D01*
X59617454Y-63782982D01*
X59631920Y-63768516D01*
X59710977Y-63631584D01*
X59751900Y-63478857D01*
X59751900Y-63320743D01*
X59710977Y-63168016D01*
X59666152Y-63090376D01*
X59631924Y-63031090D01*
X59631918Y-63031082D01*
X59605817Y-63004981D01*
X59572332Y-62943658D01*
X59577316Y-62873966D01*
X59605817Y-62829619D01*
X59615618Y-62819818D01*
X59641720Y-62793716D01*
X59720777Y-62656784D01*
X59761700Y-62504057D01*
X59761700Y-62345943D01*
X59720777Y-62193216D01*
X59702802Y-62162082D01*
X59641724Y-62056290D01*
X59641718Y-62056282D01*
X59529917Y-61944481D01*
X59529909Y-61944475D01*
X59392990Y-61865426D01*
X59392986Y-61865424D01*
X59392984Y-61865423D01*
X59240257Y-61824500D01*
X59082143Y-61824500D01*
X58929416Y-61865423D01*
X58929409Y-61865426D01*
X58792490Y-61944475D01*
X58792482Y-61944481D01*
X58680681Y-62056282D01*
X58680675Y-62056290D01*
X58601626Y-62193209D01*
X58601623Y-62193216D01*
X58560700Y-62345943D01*
X58560700Y-62504057D01*
X58590133Y-62613900D01*
X58601623Y-62656783D01*
X58601626Y-62656790D01*
X58680675Y-62793709D01*
X58680681Y-62793717D01*
X58706782Y-62819818D01*
X58740267Y-62881141D01*
X58735283Y-62950833D01*
X58706784Y-62995178D01*
X58670882Y-63031081D01*
X58670875Y-63031090D01*
X58591826Y-63168009D01*
X58591823Y-63168016D01*
X58550900Y-63320743D01*
X40300500Y-63320743D01*
X40300500Y-62451743D01*
X56393900Y-62451743D01*
X56393900Y-62609857D01*
X56430322Y-62745784D01*
X56434823Y-62762583D01*
X56434826Y-62762590D01*
X56513875Y-62899509D01*
X56513879Y-62899514D01*
X56513880Y-62899516D01*
X56625684Y-63011320D01*
X56625686Y-63011321D01*
X56625690Y-63011324D01*
X56721126Y-63066423D01*
X56762616Y-63090377D01*
X56915343Y-63131300D01*
X56915345Y-63131300D01*
X57073455Y-63131300D01*
X57073457Y-63131300D01*
X57226184Y-63090377D01*
X57363116Y-63011320D01*
X57474920Y-62899516D01*
X57553977Y-62762584D01*
X57594900Y-62609857D01*
X57594900Y-62451743D01*
X57553977Y-62299016D01*
X57537327Y-62270177D01*
X57474924Y-62162090D01*
X57474918Y-62162082D01*
X57363117Y-62050281D01*
X57363109Y-62050275D01*
X57226190Y-61971226D01*
X57226186Y-61971224D01*
X57226184Y-61971223D01*
X57073457Y-61930300D01*
X56915343Y-61930300D01*
X56762616Y-61971223D01*
X56762609Y-61971226D01*
X56625690Y-62050275D01*
X56625682Y-62050281D01*
X56513881Y-62162082D01*
X56513875Y-62162090D01*
X56434826Y-62299009D01*
X56434823Y-62299016D01*
X56393900Y-62451743D01*
X40300500Y-62451743D01*
X40300500Y-58906898D01*
X50774500Y-58906898D01*
X50774500Y-59693102D01*
X50779750Y-59736819D01*
X50785122Y-59781561D01*
X50840639Y-59922343D01*
X50932077Y-60042922D01*
X51052656Y-60134360D01*
X51052657Y-60134360D01*
X51052658Y-60134361D01*
X51193436Y-60189877D01*
X51281898Y-60200500D01*
X51281903Y-60200500D01*
X51352920Y-60200500D01*
X51419959Y-60220185D01*
X51465714Y-60272989D01*
X51475658Y-60342147D01*
X51446633Y-60405703D01*
X51400372Y-60439060D01*
X51384134Y-60445786D01*
X51248458Y-60501983D01*
X51248446Y-60501990D01*
X51100965Y-60600535D01*
X51100961Y-60600538D01*
X50975538Y-60725961D01*
X50975535Y-60725965D01*
X50876990Y-60873446D01*
X50876983Y-60873459D01*
X50809106Y-61037332D01*
X50809103Y-61037341D01*
X50774500Y-61211304D01*
X50774500Y-61388695D01*
X50809103Y-61562658D01*
X50809106Y-61562667D01*
X50876983Y-61726540D01*
X50876990Y-61726553D01*
X50975535Y-61874034D01*
X50975538Y-61874038D01*
X51100961Y-61999461D01*
X51100965Y-61999464D01*
X51248446Y-62098009D01*
X51248459Y-62098016D01*
X51371363Y-62148923D01*
X51412334Y-62165894D01*
X51412336Y-62165894D01*
X51412341Y-62165896D01*
X51586304Y-62200499D01*
X51586307Y-62200500D01*
X51586309Y-62200500D01*
X52313693Y-62200500D01*
X52313694Y-62200499D01*
X52379891Y-62187332D01*
X52487658Y-62165896D01*
X52487661Y-62165894D01*
X52487666Y-62165894D01*
X52651547Y-62098013D01*
X52799035Y-61999464D01*
X52924464Y-61874035D01*
X53023013Y-61726547D01*
X53090894Y-61562666D01*
X53099501Y-61519399D01*
X53125499Y-61388695D01*
X53125500Y-61388693D01*
X53125500Y-61211306D01*
X53125499Y-61211304D01*
X53090896Y-61037341D01*
X53090893Y-61037332D01*
X53025381Y-60879168D01*
X53025380Y-60879167D01*
X53023017Y-60873461D01*
X53023009Y-60873446D01*
X53000556Y-60839843D01*
X56792600Y-60839843D01*
X56792600Y-60997957D01*
X56828765Y-61132925D01*
X56833523Y-61150683D01*
X56833526Y-61150690D01*
X56912575Y-61287609D01*
X56912579Y-61287614D01*
X56912580Y-61287616D01*
X57024384Y-61399420D01*
X57024386Y-61399421D01*
X57024390Y-61399424D01*
X57123855Y-61456849D01*
X57161316Y-61478477D01*
X57314043Y-61519400D01*
X57314045Y-61519400D01*
X57472155Y-61519400D01*
X57472157Y-61519400D01*
X57624884Y-61478477D01*
X57761816Y-61399420D01*
X57873620Y-61287616D01*
X57952677Y-61150684D01*
X57993600Y-60997957D01*
X57993600Y-60839843D01*
X57952677Y-60687116D01*
X57941477Y-60667716D01*
X57873624Y-60550190D01*
X57873618Y-60550182D01*
X57761817Y-60438381D01*
X57761809Y-60438375D01*
X57624890Y-60359326D01*
X57624886Y-60359324D01*
X57624884Y-60359323D01*
X57472157Y-60318400D01*
X57314043Y-60318400D01*
X57161316Y-60359323D01*
X57161309Y-60359326D01*
X57024390Y-60438375D01*
X57024382Y-60438381D01*
X56912581Y-60550182D01*
X56912575Y-60550190D01*
X56833526Y-60687109D01*
X56833523Y-60687116D01*
X56792600Y-60839843D01*
X53000556Y-60839843D01*
X52924464Y-60725965D01*
X52924461Y-60725961D01*
X52799038Y-60600538D01*
X52799034Y-60600535D01*
X52651553Y-60501990D01*
X52651541Y-60501983D01*
X52519718Y-60447382D01*
X52499627Y-60439060D01*
X52445224Y-60395221D01*
X52423159Y-60328927D01*
X52440438Y-60261227D01*
X52491575Y-60213617D01*
X52547080Y-60200500D01*
X52618097Y-60200500D01*
X52618102Y-60200500D01*
X52706564Y-60189877D01*
X52847342Y-60134361D01*
X52967922Y-60042922D01*
X53059361Y-59922342D01*
X53085251Y-59856690D01*
X53115885Y-59779010D01*
X53158791Y-59723866D01*
X53224698Y-59700673D01*
X53231239Y-59700500D01*
X64677745Y-59700500D01*
X64744784Y-59720185D01*
X64765426Y-59736819D01*
X71953887Y-66925280D01*
X72045212Y-66978007D01*
X72147073Y-67005300D01*
X75765027Y-67005300D01*
X75832066Y-67024985D01*
X75877821Y-67077789D01*
X75887765Y-67146947D01*
X75872415Y-67191299D01*
X75833723Y-67258315D01*
X75833723Y-67258316D01*
X75792800Y-67411043D01*
X75792800Y-67569156D01*
X75833723Y-67721883D01*
X75833726Y-67721890D01*
X75912775Y-67858809D01*
X75912779Y-67858814D01*
X75912780Y-67858816D01*
X76024584Y-67970620D01*
X76024586Y-67970621D01*
X76024590Y-67970624D01*
X76161509Y-68049673D01*
X76161516Y-68049677D01*
X76314243Y-68090600D01*
X76314245Y-68090600D01*
X76472355Y-68090600D01*
X76472357Y-68090600D01*
X76625084Y-68049677D01*
X76762016Y-67970620D01*
X76873820Y-67858816D01*
X76952877Y-67721884D01*
X76993800Y-67569157D01*
X76993800Y-67411043D01*
X76952877Y-67258316D01*
X76914184Y-67191298D01*
X76897713Y-67123399D01*
X76920566Y-67057372D01*
X76975488Y-67014182D01*
X77021573Y-67005300D01*
X113280925Y-67005300D01*
X113347964Y-67024985D01*
X113393719Y-67077789D01*
X113404041Y-67144082D01*
X113402950Y-67153162D01*
X113399500Y-67181898D01*
X113399500Y-68518102D01*
X113403516Y-68551541D01*
X113410122Y-68606561D01*
X113465639Y-68747343D01*
X113557077Y-68867922D01*
X113677656Y-68959360D01*
X113677657Y-68959360D01*
X113677658Y-68959361D01*
X113818436Y-69014877D01*
X113906898Y-69025500D01*
X113906903Y-69025500D01*
X114693097Y-69025500D01*
X114693102Y-69025500D01*
X114781564Y-69014877D01*
X114922342Y-68959361D01*
X115042922Y-68867922D01*
X115134361Y-68747342D01*
X115189877Y-68606564D01*
X115200500Y-68518102D01*
X115200500Y-68447080D01*
X115220185Y-68380041D01*
X115272989Y-68334286D01*
X115342147Y-68324342D01*
X115405703Y-68353367D01*
X115439061Y-68399628D01*
X115501983Y-68551541D01*
X115501990Y-68551553D01*
X115600535Y-68699034D01*
X115600538Y-68699038D01*
X115725961Y-68824461D01*
X115725965Y-68824464D01*
X115873446Y-68923009D01*
X115873459Y-68923016D01*
X115996363Y-68973923D01*
X116037334Y-68990894D01*
X116037336Y-68990894D01*
X116037341Y-68990896D01*
X116211304Y-69025499D01*
X116211307Y-69025500D01*
X116211309Y-69025500D01*
X116388693Y-69025500D01*
X116388694Y-69025499D01*
X116446682Y-69013964D01*
X116562658Y-68990896D01*
X116562661Y-68990894D01*
X116562666Y-68990894D01*
X116726547Y-68923013D01*
X116874035Y-68824464D01*
X116999464Y-68699035D01*
X117098013Y-68551547D01*
X117165894Y-68387666D01*
X117200500Y-68213691D01*
X117200500Y-67486309D01*
X117200500Y-67486306D01*
X117200499Y-67486304D01*
X117165896Y-67312341D01*
X117165893Y-67312332D01*
X117098016Y-67148459D01*
X117098009Y-67148446D01*
X116999464Y-67000965D01*
X116999461Y-67000961D01*
X116874038Y-66875538D01*
X116874034Y-66875535D01*
X116726553Y-66776990D01*
X116726540Y-66776983D01*
X116562667Y-66709106D01*
X116562658Y-66709103D01*
X116388694Y-66674500D01*
X116388691Y-66674500D01*
X116211309Y-66674500D01*
X116211306Y-66674500D01*
X116037341Y-66709103D01*
X116037332Y-66709106D01*
X115873460Y-66776983D01*
X115873440Y-66776994D01*
X115846219Y-66795182D01*
X115779541Y-66816058D01*
X115712162Y-66797571D01*
X115689651Y-66779759D01*
X115194215Y-66284322D01*
X115194214Y-66284321D01*
X115194213Y-66284320D01*
X115148550Y-66257956D01*
X115102889Y-66231593D01*
X115051957Y-66217946D01*
X115001027Y-66204300D01*
X115001026Y-66204300D01*
X73777300Y-66204300D01*
X73710261Y-66184615D01*
X73664506Y-66131811D01*
X73653300Y-66080300D01*
X73653300Y-65922145D01*
X73653300Y-65922143D01*
X73612377Y-65769416D01*
X73563955Y-65685546D01*
X73533324Y-65632490D01*
X73533318Y-65632482D01*
X73421517Y-65520681D01*
X73421509Y-65520675D01*
X73309993Y-65456292D01*
X73261777Y-65405726D01*
X73248553Y-65337119D01*
X73274521Y-65272254D01*
X73284304Y-65261231D01*
X73332320Y-65213216D01*
X73411377Y-65076284D01*
X73452300Y-64923557D01*
X73452300Y-64765443D01*
X73411377Y-64612716D01*
X73407952Y-64606783D01*
X73332324Y-64475790D01*
X73332318Y-64475782D01*
X73243845Y-64387309D01*
X73210360Y-64325986D01*
X73215344Y-64256294D01*
X73243845Y-64211947D01*
X73383149Y-64072643D01*
X84337000Y-64072643D01*
X84337000Y-64230757D01*
X84362517Y-64325986D01*
X84377923Y-64383483D01*
X84377926Y-64383490D01*
X84456975Y-64520409D01*
X84456979Y-64520414D01*
X84456980Y-64520416D01*
X84568784Y-64632220D01*
X84568786Y-64632221D01*
X84568790Y-64632224D01*
X84679908Y-64696377D01*
X84705716Y-64711277D01*
X84858443Y-64752200D01*
X84858445Y-64752200D01*
X85016555Y-64752200D01*
X85016557Y-64752200D01*
X85169284Y-64711277D01*
X85306216Y-64632220D01*
X85418020Y-64520416D01*
X85497077Y-64383484D01*
X85538000Y-64230757D01*
X85538000Y-64072643D01*
X85497077Y-63919916D01*
X85479237Y-63889016D01*
X85418024Y-63782990D01*
X85418018Y-63782982D01*
X85306217Y-63671181D01*
X85306209Y-63671175D01*
X85169290Y-63592126D01*
X85169286Y-63592124D01*
X85169284Y-63592123D01*
X85016557Y-63551200D01*
X84858443Y-63551200D01*
X84705716Y-63592123D01*
X84705709Y-63592126D01*
X84568790Y-63671175D01*
X84568782Y-63671181D01*
X84456981Y-63782982D01*
X84456975Y-63782990D01*
X84377926Y-63919909D01*
X84377923Y-63919916D01*
X84337000Y-64072643D01*
X73383149Y-64072643D01*
X73465493Y-63990299D01*
X73780374Y-63675419D01*
X73841697Y-63641934D01*
X73868055Y-63639100D01*
X74405825Y-63639100D01*
X74405827Y-63639100D01*
X74507688Y-63611807D01*
X74599013Y-63559080D01*
X76237820Y-61920271D01*
X76299142Y-61886787D01*
X76368833Y-61891771D01*
X76424767Y-61933643D01*
X76449184Y-61999107D01*
X76449500Y-62007953D01*
X76449500Y-62092457D01*
X76489005Y-62239890D01*
X76490423Y-62245183D01*
X76490426Y-62245190D01*
X76569475Y-62382109D01*
X76569479Y-62382114D01*
X76569480Y-62382116D01*
X76681284Y-62493920D01*
X76681286Y-62493921D01*
X76681290Y-62493924D01*
X76803533Y-62564500D01*
X76818216Y-62572977D01*
X76970943Y-62613900D01*
X76970945Y-62613900D01*
X77129055Y-62613900D01*
X77129057Y-62613900D01*
X77281784Y-62572977D01*
X77418716Y-62493920D01*
X77530520Y-62382116D01*
X77609577Y-62245184D01*
X77650500Y-62092457D01*
X77650500Y-61934343D01*
X77649080Y-61929043D01*
X83669500Y-61929043D01*
X83669500Y-62087157D01*
X83697919Y-62193216D01*
X83710423Y-62239883D01*
X83710426Y-62239890D01*
X83789475Y-62376809D01*
X83789479Y-62376814D01*
X83789480Y-62376816D01*
X83901284Y-62488620D01*
X83901286Y-62488621D01*
X83901290Y-62488624D01*
X84032713Y-62564500D01*
X84038216Y-62567677D01*
X84190943Y-62608600D01*
X84190945Y-62608600D01*
X84349055Y-62608600D01*
X84349057Y-62608600D01*
X84501784Y-62567677D01*
X84638716Y-62488620D01*
X84750520Y-62376816D01*
X84829577Y-62239884D01*
X84870500Y-62087157D01*
X84870500Y-61929043D01*
X84829577Y-61776316D01*
X84814693Y-61750536D01*
X84750524Y-61639390D01*
X84750518Y-61639382D01*
X84638717Y-61527581D01*
X84638709Y-61527575D01*
X84501790Y-61448526D01*
X84501786Y-61448524D01*
X84501784Y-61448523D01*
X84349057Y-61407600D01*
X84190943Y-61407600D01*
X84038216Y-61448523D01*
X84038209Y-61448526D01*
X83901290Y-61527575D01*
X83901282Y-61527581D01*
X83789481Y-61639382D01*
X83789475Y-61639390D01*
X83710426Y-61776309D01*
X83710423Y-61776316D01*
X83669500Y-61929043D01*
X77649080Y-61929043D01*
X77609577Y-61781616D01*
X77545631Y-61670857D01*
X77530524Y-61644690D01*
X77530518Y-61644682D01*
X77418717Y-61532881D01*
X77418709Y-61532875D01*
X77281790Y-61453826D01*
X77281786Y-61453824D01*
X77281784Y-61453823D01*
X77129057Y-61412900D01*
X76996510Y-61412900D01*
X76929471Y-61393215D01*
X76883716Y-61340411D01*
X76873772Y-61271253D01*
X76881946Y-61241454D01*
X76884703Y-61234793D01*
X76884707Y-61234787D01*
X76890998Y-61211309D01*
X76891000Y-61211304D01*
X76907243Y-61150683D01*
X76912001Y-61132927D01*
X76912001Y-61027473D01*
X76912001Y-61019878D01*
X76912000Y-61019860D01*
X76912000Y-60146343D01*
X81055600Y-60146343D01*
X81055600Y-60304457D01*
X81091485Y-60438380D01*
X81096523Y-60457183D01*
X81096526Y-60457190D01*
X81175575Y-60594109D01*
X81175579Y-60594114D01*
X81175580Y-60594116D01*
X81287384Y-60705920D01*
X81287386Y-60705921D01*
X81287390Y-60705924D01*
X81322096Y-60725961D01*
X81424316Y-60784977D01*
X81577043Y-60825900D01*
X81577045Y-60825900D01*
X81735155Y-60825900D01*
X81735157Y-60825900D01*
X81887884Y-60784977D01*
X82024816Y-60705920D01*
X82136620Y-60594116D01*
X82215677Y-60457184D01*
X82256600Y-60304457D01*
X82256600Y-60146343D01*
X82215677Y-59993616D01*
X82182247Y-59935713D01*
X82136624Y-59856690D01*
X82136618Y-59856682D01*
X82024817Y-59744881D01*
X82024809Y-59744875D01*
X81887890Y-59665826D01*
X81887886Y-59665824D01*
X81887884Y-59665823D01*
X81735157Y-59624900D01*
X81577043Y-59624900D01*
X81424316Y-59665823D01*
X81424309Y-59665826D01*
X81287390Y-59744875D01*
X81287382Y-59744881D01*
X81175581Y-59856682D01*
X81175575Y-59856690D01*
X81096526Y-59993609D01*
X81096523Y-59993616D01*
X81055600Y-60146343D01*
X76912000Y-60146343D01*
X76912000Y-60037575D01*
X76912000Y-60037573D01*
X76884707Y-59935713D01*
X76884707Y-59935712D01*
X76831980Y-59844387D01*
X76147913Y-59160320D01*
X76064367Y-59112084D01*
X76056589Y-59107593D01*
X76005657Y-59093946D01*
X75954727Y-59080300D01*
X75954726Y-59080300D01*
X71747798Y-59080300D01*
X71680759Y-59060615D01*
X71660117Y-59043981D01*
X71616417Y-59000281D01*
X71616409Y-59000275D01*
X71479490Y-58921226D01*
X71479486Y-58921224D01*
X71479484Y-58921223D01*
X71326757Y-58880300D01*
X71168643Y-58880300D01*
X71015916Y-58921223D01*
X71015909Y-58921226D01*
X70878990Y-59000275D01*
X70878982Y-59000281D01*
X70767179Y-59112084D01*
X70741151Y-59157167D01*
X70690583Y-59205382D01*
X70621976Y-59218604D01*
X70557112Y-59192636D01*
X70546083Y-59182847D01*
X68445290Y-57082055D01*
X68445288Y-57082052D01*
X68326417Y-56963181D01*
X68326409Y-56963175D01*
X68205306Y-56893257D01*
X68205303Y-56893256D01*
X68205301Y-56893255D01*
X68189485Y-56884123D01*
X68036757Y-56843199D01*
X67878643Y-56843199D01*
X67791606Y-56866521D01*
X67725914Y-56884123D01*
X67713440Y-56891325D01*
X67710099Y-56893255D01*
X67710097Y-56893256D01*
X67710094Y-56893257D01*
X67588990Y-56963175D01*
X67588982Y-56963181D01*
X67477181Y-57074982D01*
X67477177Y-57074987D01*
X67456444Y-57110900D01*
X67451936Y-57118709D01*
X67398123Y-57211915D01*
X67357199Y-57364643D01*
X67357199Y-57364645D01*
X67357199Y-57522754D01*
X67357198Y-57522754D01*
X67398122Y-57675483D01*
X67424004Y-57720311D01*
X67424006Y-57720314D01*
X67477179Y-57812414D01*
X67477181Y-57812417D01*
X67596049Y-57931285D01*
X67596055Y-57931290D01*
X69898421Y-60233657D01*
X69931906Y-60294980D01*
X69926922Y-60364672D01*
X69891834Y-60412136D01*
X69892931Y-60413233D01*
X69775381Y-60530782D01*
X69775375Y-60530790D01*
X69696326Y-60667709D01*
X69696323Y-60667716D01*
X69655400Y-60820443D01*
X69655400Y-60978557D01*
X69693435Y-61120503D01*
X69696323Y-61131283D01*
X69696326Y-61131290D01*
X69775375Y-61268209D01*
X69775379Y-61268214D01*
X69775380Y-61268216D01*
X69887184Y-61380020D01*
X70020261Y-61456851D01*
X70068475Y-61507416D01*
X70081699Y-61576023D01*
X70078035Y-61596329D01*
X70068600Y-61631541D01*
X70068600Y-61631543D01*
X70068600Y-61789657D01*
X70107369Y-61934343D01*
X70109523Y-61942383D01*
X70109526Y-61942390D01*
X70188575Y-62079309D01*
X70188579Y-62079314D01*
X70188580Y-62079316D01*
X70300384Y-62191120D01*
X70300386Y-62191121D01*
X70300390Y-62191124D01*
X70394026Y-62245184D01*
X70437316Y-62270177D01*
X70590043Y-62311100D01*
X70590045Y-62311100D01*
X70748155Y-62311100D01*
X70748157Y-62311100D01*
X70900884Y-62270177D01*
X71037816Y-62191120D01*
X71149620Y-62079316D01*
X71228677Y-61942384D01*
X71269600Y-61789657D01*
X71269600Y-61631543D01*
X71228677Y-61478816D01*
X71217281Y-61459077D01*
X71149624Y-61341890D01*
X71149618Y-61341882D01*
X71037817Y-61230081D01*
X71037812Y-61230077D01*
X70904739Y-61153248D01*
X70856524Y-61102681D01*
X70843300Y-61034074D01*
X70846967Y-61013759D01*
X70848728Y-61007190D01*
X70885101Y-60947534D01*
X70947952Y-60917014D01*
X70968498Y-60915300D01*
X75810645Y-60915300D01*
X75877684Y-60934985D01*
X75923439Y-60987789D01*
X75933383Y-61056947D01*
X75904358Y-61120503D01*
X75898326Y-61126981D01*
X74223526Y-62801781D01*
X74162203Y-62835266D01*
X74135845Y-62838100D01*
X73598073Y-62838100D01*
X73496210Y-62865393D01*
X73404887Y-62918120D01*
X73404884Y-62918122D01*
X72319335Y-64003670D01*
X72258012Y-64037155D01*
X72188320Y-64032171D01*
X72132387Y-63990299D01*
X72107970Y-63924835D01*
X72120760Y-63866037D01*
X72118966Y-63865294D01*
X72122072Y-63857792D01*
X72122077Y-63857784D01*
X72163000Y-63705057D01*
X72163000Y-63546943D01*
X72122077Y-63394216D01*
X72079658Y-63320743D01*
X72043024Y-63257290D01*
X72043018Y-63257282D01*
X71931217Y-63145481D01*
X71931209Y-63145475D01*
X71794290Y-63066426D01*
X71794286Y-63066424D01*
X71794284Y-63066423D01*
X71641557Y-63025500D01*
X71483443Y-63025500D01*
X71330716Y-63066423D01*
X71330709Y-63066426D01*
X71193790Y-63145475D01*
X71193782Y-63145481D01*
X71081981Y-63257282D01*
X71081975Y-63257290D01*
X71002926Y-63394209D01*
X71002923Y-63394216D01*
X70962000Y-63546943D01*
X70962000Y-63705057D01*
X70986615Y-63796919D01*
X71002923Y-63857783D01*
X71002924Y-63857786D01*
X71007699Y-63866057D01*
X71024169Y-63933958D01*
X71001315Y-63999984D01*
X70946392Y-64043173D01*
X70932404Y-64047829D01*
X70789114Y-64086223D01*
X70789109Y-64086226D01*
X70652190Y-64165275D01*
X70652186Y-64165278D01*
X70577109Y-64240355D01*
X70515785Y-64273839D01*
X70446094Y-64268854D01*
X70401747Y-64240354D01*
X65140915Y-58979522D01*
X65140913Y-58979520D01*
X65089226Y-58949678D01*
X65049589Y-58926793D01*
X64998657Y-58913146D01*
X64947727Y-58899500D01*
X64947726Y-58899500D01*
X53231239Y-58899500D01*
X53164200Y-58879815D01*
X53118445Y-58827011D01*
X53115885Y-58820990D01*
X53059362Y-58677660D01*
X53059361Y-58677658D01*
X52967922Y-58557077D01*
X52847343Y-58465639D01*
X52706561Y-58410122D01*
X52660926Y-58404642D01*
X52618102Y-58399500D01*
X51281898Y-58399500D01*
X51242853Y-58404188D01*
X51193438Y-58410122D01*
X51052656Y-58465639D01*
X50932077Y-58557077D01*
X50840639Y-58677656D01*
X50785122Y-58818438D01*
X50784909Y-58820214D01*
X50774500Y-58906898D01*
X40300500Y-58906898D01*
X40300500Y-54878896D01*
X54399499Y-54878896D01*
X54426418Y-55014222D01*
X54426421Y-55014232D01*
X54479222Y-55141707D01*
X54555887Y-55256445D01*
X56253954Y-56954512D01*
X56368692Y-57031177D01*
X56496167Y-57083978D01*
X56496172Y-57083980D01*
X56496176Y-57083980D01*
X56496177Y-57083981D01*
X56631503Y-57110900D01*
X56631506Y-57110900D01*
X62493096Y-57110900D01*
X62584140Y-57092789D01*
X62628428Y-57083980D01*
X62692169Y-57057577D01*
X62755907Y-57031177D01*
X62755908Y-57031176D01*
X62755911Y-57031175D01*
X62870643Y-56954514D01*
X64709238Y-55115917D01*
X64770561Y-55082433D01*
X64840252Y-55087417D01*
X64884597Y-55115915D01*
X65780933Y-56012189D01*
X65780937Y-56012193D01*
X65831551Y-56062808D01*
X65831572Y-56062825D01*
X65831575Y-56062828D01*
X65884581Y-56098243D01*
X65946289Y-56139475D01*
X65946298Y-56139478D01*
X65946309Y-56139486D01*
X66018013Y-56169184D01*
X66073772Y-56192280D01*
X66073781Y-56192281D01*
X66073794Y-56192287D01*
X66080716Y-56193663D01*
X66080717Y-56193664D01*
X66111225Y-56199731D01*
X66139987Y-56205451D01*
X66184692Y-56223967D01*
X66257288Y-56272474D01*
X66384771Y-56325280D01*
X66520106Y-56352199D01*
X66520108Y-56352199D01*
X66658095Y-56352199D01*
X66658096Y-56352198D01*
X66793428Y-56325280D01*
X66920911Y-56272474D01*
X67035643Y-56195813D01*
X67133213Y-56098243D01*
X67166492Y-56048435D01*
X67220101Y-56003633D01*
X67289425Y-55994924D01*
X67331592Y-56009940D01*
X67448916Y-56077677D01*
X67601643Y-56118600D01*
X67601645Y-56118600D01*
X67759755Y-56118600D01*
X67759757Y-56118600D01*
X67912484Y-56077677D01*
X68049416Y-55998620D01*
X68161220Y-55886816D01*
X68240277Y-55749884D01*
X68281200Y-55597157D01*
X68281200Y-55446300D01*
X68300885Y-55379261D01*
X68353689Y-55333506D01*
X68405200Y-55322300D01*
X72806081Y-55322300D01*
X72873120Y-55341985D01*
X72893762Y-55358619D01*
X76355353Y-58820211D01*
X76355354Y-58820212D01*
X76470092Y-58896877D01*
X76573128Y-58939555D01*
X76597572Y-58949680D01*
X76597576Y-58949680D01*
X76597577Y-58949681D01*
X76732903Y-58976600D01*
X76732906Y-58976600D01*
X83477596Y-58976600D01*
X83568640Y-58958489D01*
X83612928Y-58949680D01*
X83681630Y-58921223D01*
X83740407Y-58896877D01*
X83740408Y-58896876D01*
X83740411Y-58896875D01*
X83855143Y-58820214D01*
X84398438Y-58276919D01*
X84459761Y-58243434D01*
X84486119Y-58240600D01*
X88431700Y-58240600D01*
X88498739Y-58260285D01*
X88544494Y-58313089D01*
X88555700Y-58364600D01*
X88555700Y-58479057D01*
X88576606Y-58557077D01*
X88596623Y-58631783D01*
X88596626Y-58631790D01*
X88675675Y-58768709D01*
X88675679Y-58768714D01*
X88675680Y-58768716D01*
X88787484Y-58880520D01*
X88787486Y-58880521D01*
X88787490Y-58880524D01*
X88924409Y-58959573D01*
X88924416Y-58959577D01*
X89077143Y-59000500D01*
X89077145Y-59000500D01*
X89235255Y-59000500D01*
X89235257Y-59000500D01*
X89387984Y-58959577D01*
X89433708Y-58933177D01*
X89501607Y-58916704D01*
X89567634Y-58939555D01*
X89583390Y-58952883D01*
X93125804Y-62495297D01*
X93159289Y-62556620D01*
X93154305Y-62626312D01*
X93125805Y-62670659D01*
X93050678Y-62745786D01*
X93050675Y-62745790D01*
X92971626Y-62882709D01*
X92971623Y-62882716D01*
X92930700Y-63035443D01*
X92930700Y-63193557D01*
X92968256Y-63333716D01*
X92971623Y-63346283D01*
X92971626Y-63346290D01*
X93050675Y-63483209D01*
X93050679Y-63483214D01*
X93050680Y-63483216D01*
X93162484Y-63595020D01*
X93162486Y-63595021D01*
X93162490Y-63595024D01*
X93294398Y-63671180D01*
X93299416Y-63674077D01*
X93452143Y-63715000D01*
X93452145Y-63715000D01*
X93610255Y-63715000D01*
X93610257Y-63715000D01*
X93762984Y-63674077D01*
X93899916Y-63595020D01*
X94011720Y-63483216D01*
X94043886Y-63427500D01*
X94094453Y-63379285D01*
X94151274Y-63365500D01*
X94214627Y-63365500D01*
X101162773Y-63365500D01*
X101229812Y-63385185D01*
X101275567Y-63437989D01*
X101285511Y-63507147D01*
X101282548Y-63521591D01*
X101260000Y-63605743D01*
X101260000Y-63763857D01*
X101295001Y-63894480D01*
X101300923Y-63916583D01*
X101300926Y-63916590D01*
X101379975Y-64053509D01*
X101379979Y-64053514D01*
X101379980Y-64053516D01*
X101491784Y-64165320D01*
X101491786Y-64165321D01*
X101491790Y-64165324D01*
X101605125Y-64230757D01*
X101628716Y-64244377D01*
X101781443Y-64285300D01*
X101781445Y-64285300D01*
X101939555Y-64285300D01*
X101939557Y-64285300D01*
X102092284Y-64244377D01*
X102229216Y-64165320D01*
X102341020Y-64053516D01*
X102420077Y-63916584D01*
X102461000Y-63763857D01*
X102461000Y-63605743D01*
X102438452Y-63521592D01*
X102440115Y-63451743D01*
X102479278Y-63393881D01*
X102543506Y-63366377D01*
X102558227Y-63365500D01*
X106225802Y-63365500D01*
X106292841Y-63385185D01*
X106313483Y-63401819D01*
X106357184Y-63445520D01*
X106357186Y-63445521D01*
X106357190Y-63445524D01*
X106494109Y-63524573D01*
X106494116Y-63524577D01*
X106646843Y-63565500D01*
X106646845Y-63565500D01*
X106804955Y-63565500D01*
X106804957Y-63565500D01*
X106957684Y-63524577D01*
X107094616Y-63445520D01*
X107206420Y-63333716D01*
X107285477Y-63196784D01*
X107326400Y-63044057D01*
X107326400Y-62885943D01*
X107285477Y-62733216D01*
X107241353Y-62656790D01*
X107206424Y-62596290D01*
X107206418Y-62596282D01*
X107094617Y-62484481D01*
X107094612Y-62484477D01*
X107056728Y-62462605D01*
X107056727Y-62462605D01*
X106957684Y-62405423D01*
X106804957Y-62364500D01*
X106646843Y-62364500D01*
X106494116Y-62405423D01*
X106494109Y-62405426D01*
X106357190Y-62484475D01*
X106357182Y-62484481D01*
X106313483Y-62528181D01*
X106252160Y-62561666D01*
X106225802Y-62564500D01*
X94379155Y-62564500D01*
X94312116Y-62544815D01*
X94291474Y-62528181D01*
X94124597Y-62361304D01*
X114524500Y-62361304D01*
X114524500Y-62538695D01*
X114559103Y-62712658D01*
X114559106Y-62712667D01*
X114626983Y-62876540D01*
X114626990Y-62876553D01*
X114725535Y-63024034D01*
X114725538Y-63024038D01*
X114850961Y-63149461D01*
X114850965Y-63149464D01*
X114998446Y-63248009D01*
X114998459Y-63248016D01*
X115121363Y-63298923D01*
X115162334Y-63315894D01*
X115162336Y-63315894D01*
X115162341Y-63315896D01*
X115336304Y-63350499D01*
X115336307Y-63350500D01*
X115336309Y-63350500D01*
X116063693Y-63350500D01*
X116063694Y-63350499D01*
X116121682Y-63338964D01*
X116237658Y-63315896D01*
X116237661Y-63315894D01*
X116237666Y-63315894D01*
X116401547Y-63248013D01*
X116549035Y-63149464D01*
X116674464Y-63024035D01*
X116773013Y-62876547D01*
X116840894Y-62712666D01*
X116852009Y-62656790D01*
X116875499Y-62538695D01*
X116875500Y-62538693D01*
X116875500Y-62361306D01*
X116875499Y-62361304D01*
X116840896Y-62187341D01*
X116840893Y-62187332D01*
X116773016Y-62023459D01*
X116773009Y-62023446D01*
X116674464Y-61875965D01*
X116674461Y-61875961D01*
X116549038Y-61750538D01*
X116549034Y-61750535D01*
X116401553Y-61651990D01*
X116401540Y-61651983D01*
X116237667Y-61584106D01*
X116237658Y-61584103D01*
X116063694Y-61549500D01*
X116063691Y-61549500D01*
X115336309Y-61549500D01*
X115336306Y-61549500D01*
X115162341Y-61584103D01*
X115162332Y-61584106D01*
X114998459Y-61651983D01*
X114998446Y-61651990D01*
X114850965Y-61750535D01*
X114850961Y-61750538D01*
X114725538Y-61875961D01*
X114725535Y-61875965D01*
X114626990Y-62023446D01*
X114626983Y-62023459D01*
X114559106Y-62187332D01*
X114559103Y-62187341D01*
X114524500Y-62361304D01*
X94124597Y-62361304D01*
X93276036Y-61512743D01*
X104072500Y-61512743D01*
X104072500Y-61670857D01*
X104104333Y-61789657D01*
X104113423Y-61823583D01*
X104113426Y-61823590D01*
X104192475Y-61960509D01*
X104192479Y-61960514D01*
X104192480Y-61960516D01*
X104304284Y-62072320D01*
X104304286Y-62072321D01*
X104304290Y-62072324D01*
X104348791Y-62098016D01*
X104441216Y-62151377D01*
X104593943Y-62192300D01*
X104593945Y-62192300D01*
X104752055Y-62192300D01*
X104752057Y-62192300D01*
X104904784Y-62151377D01*
X105041716Y-62072320D01*
X105153520Y-61960516D01*
X105232577Y-61823584D01*
X105273500Y-61670857D01*
X105273500Y-61512743D01*
X105232577Y-61360016D01*
X105222109Y-61341884D01*
X105153524Y-61223090D01*
X105153518Y-61223082D01*
X105041717Y-61111281D01*
X105041709Y-61111275D01*
X104904790Y-61032226D01*
X104904786Y-61032224D01*
X104904784Y-61032223D01*
X104752057Y-60991300D01*
X104593943Y-60991300D01*
X104441216Y-61032223D01*
X104441209Y-61032226D01*
X104304290Y-61111275D01*
X104304282Y-61111281D01*
X104192481Y-61223082D01*
X104192475Y-61223090D01*
X104113426Y-61360009D01*
X104113423Y-61360016D01*
X104072500Y-61512743D01*
X93276036Y-61512743D01*
X91502436Y-59739143D01*
X104886000Y-59739143D01*
X104886000Y-59897257D01*
X104923598Y-60037573D01*
X104926923Y-60049983D01*
X104926926Y-60049990D01*
X105005975Y-60186909D01*
X105005979Y-60186914D01*
X105005980Y-60186916D01*
X105117784Y-60298720D01*
X105117786Y-60298721D01*
X105117790Y-60298724D01*
X105232017Y-60364672D01*
X105254716Y-60377777D01*
X105407443Y-60418700D01*
X105407445Y-60418700D01*
X105565555Y-60418700D01*
X105565557Y-60418700D01*
X105718284Y-60377777D01*
X105855216Y-60298720D01*
X105967020Y-60186916D01*
X106046077Y-60049984D01*
X106047200Y-60045793D01*
X114625000Y-60045793D01*
X114625000Y-60200000D01*
X115419670Y-60200000D01*
X115399925Y-60219745D01*
X115350556Y-60305255D01*
X115325000Y-60400630D01*
X115325000Y-60499370D01*
X115350556Y-60594745D01*
X115399925Y-60680255D01*
X115419670Y-60700000D01*
X114625001Y-60700000D01*
X114625001Y-60854196D01*
X114627851Y-60884606D01*
X114672653Y-61012645D01*
X114753207Y-61121792D01*
X114862354Y-61202346D01*
X114990397Y-61247149D01*
X115020792Y-61249999D01*
X115449999Y-61249999D01*
X115450000Y-61249998D01*
X115450000Y-60730330D01*
X115469745Y-60750075D01*
X115555255Y-60799444D01*
X115650630Y-60825000D01*
X115749370Y-60825000D01*
X115844745Y-60799444D01*
X115930255Y-60750075D01*
X115950000Y-60730330D01*
X115950000Y-61249999D01*
X116379196Y-61249999D01*
X116409606Y-61247148D01*
X116537645Y-61202346D01*
X116646792Y-61121792D01*
X116727346Y-61012645D01*
X116772149Y-60884604D01*
X116772149Y-60884600D01*
X116775000Y-60854206D01*
X116775000Y-60700000D01*
X115980330Y-60700000D01*
X116000075Y-60680255D01*
X116049444Y-60594745D01*
X116075000Y-60499370D01*
X116075000Y-60400630D01*
X116049444Y-60305255D01*
X116000075Y-60219745D01*
X115980330Y-60200000D01*
X116774999Y-60200000D01*
X116774999Y-60045803D01*
X116772148Y-60015393D01*
X116727346Y-59887354D01*
X116646792Y-59778207D01*
X116537645Y-59697653D01*
X116409602Y-59652850D01*
X116379207Y-59650000D01*
X115950000Y-59650000D01*
X115950000Y-60169670D01*
X115930255Y-60149925D01*
X115844745Y-60100556D01*
X115749370Y-60075000D01*
X115650630Y-60075000D01*
X115555255Y-60100556D01*
X115469745Y-60149925D01*
X115450000Y-60169670D01*
X115450000Y-59650000D01*
X115020803Y-59650000D01*
X114990393Y-59652851D01*
X114862354Y-59697653D01*
X114753207Y-59778207D01*
X114672653Y-59887354D01*
X114627850Y-60015395D01*
X114627850Y-60015399D01*
X114625000Y-60045793D01*
X106047200Y-60045793D01*
X106087000Y-59897257D01*
X106087000Y-59739143D01*
X106046077Y-59586416D01*
X106046073Y-59586409D01*
X105967024Y-59449490D01*
X105967018Y-59449482D01*
X105855217Y-59337681D01*
X105855209Y-59337675D01*
X105718290Y-59258626D01*
X105718286Y-59258624D01*
X105718284Y-59258623D01*
X105565557Y-59217700D01*
X105407443Y-59217700D01*
X105254716Y-59258623D01*
X105254709Y-59258626D01*
X105117790Y-59337675D01*
X105117782Y-59337681D01*
X105005981Y-59449482D01*
X105005975Y-59449490D01*
X104926926Y-59586409D01*
X104926923Y-59586416D01*
X104886000Y-59739143D01*
X91502436Y-59739143D01*
X90215574Y-58452281D01*
X90182089Y-58390958D01*
X90187073Y-58321266D01*
X90228945Y-58265333D01*
X90294409Y-58240916D01*
X90303255Y-58240600D01*
X96082180Y-58240600D01*
X96149219Y-58260285D01*
X96169861Y-58276919D01*
X96200254Y-58307312D01*
X96314992Y-58383977D01*
X96442467Y-58436778D01*
X96442472Y-58436780D01*
X96442476Y-58436780D01*
X96442477Y-58436781D01*
X96577803Y-58463700D01*
X96577806Y-58463700D01*
X96715796Y-58463700D01*
X96806840Y-58445589D01*
X96851128Y-58436780D01*
X96915486Y-58410122D01*
X96978607Y-58383977D01*
X96978608Y-58383976D01*
X96978611Y-58383975D01*
X97093343Y-58307314D01*
X97190914Y-58209743D01*
X97267575Y-58095011D01*
X97320380Y-57967528D01*
X97347300Y-57832194D01*
X97347300Y-57694206D01*
X97347300Y-57694203D01*
X97320381Y-57558877D01*
X97320380Y-57558876D01*
X97320380Y-57558872D01*
X97305421Y-57522757D01*
X97267577Y-57431392D01*
X97190912Y-57316654D01*
X96870245Y-56995987D01*
X96755507Y-56919322D01*
X96628032Y-56866521D01*
X96628022Y-56866518D01*
X96492696Y-56839600D01*
X96492694Y-56839600D01*
X96492693Y-56839600D01*
X84075607Y-56839600D01*
X84075603Y-56839600D01*
X83967190Y-56861165D01*
X83967189Y-56861165D01*
X83940281Y-56866518D01*
X83940271Y-56866520D01*
X83812790Y-56919324D01*
X83698054Y-56995987D01*
X83698053Y-56995988D01*
X83154762Y-57539281D01*
X83093439Y-57572766D01*
X83067081Y-57575600D01*
X78213491Y-57575600D01*
X78146452Y-57555915D01*
X78100697Y-57503111D01*
X78090753Y-57433953D01*
X78119778Y-57370397D01*
X78151490Y-57344213D01*
X78237216Y-57294720D01*
X78349020Y-57182916D01*
X78428077Y-57045984D01*
X78469000Y-56893257D01*
X78469000Y-56735143D01*
X78428077Y-56582416D01*
X78380394Y-56499826D01*
X78349024Y-56445490D01*
X78349018Y-56445482D01*
X78237217Y-56333681D01*
X78237209Y-56333675D01*
X78100290Y-56254626D01*
X78100286Y-56254624D01*
X78100284Y-56254623D01*
X77947557Y-56213700D01*
X77789443Y-56213700D01*
X77636716Y-56254623D01*
X77636709Y-56254626D01*
X77499790Y-56333675D01*
X77499782Y-56333681D01*
X77387981Y-56445482D01*
X77383030Y-56451935D01*
X77380546Y-56450028D01*
X77339015Y-56487916D01*
X77270133Y-56499623D01*
X77252546Y-56496249D01*
X77214570Y-56486073D01*
X77113157Y-56458900D01*
X76955043Y-56458900D01*
X76802316Y-56499823D01*
X76802309Y-56499826D01*
X76665390Y-56578875D01*
X76665382Y-56578881D01*
X76553581Y-56690682D01*
X76553577Y-56690687D01*
X76507574Y-56770368D01*
X76457007Y-56818584D01*
X76388400Y-56831807D01*
X76323535Y-56805839D01*
X76312506Y-56796049D01*
X74888555Y-55372097D01*
X74809001Y-55292543D01*
X81263700Y-55292543D01*
X81263700Y-55450657D01*
X81302955Y-55597157D01*
X81304623Y-55603383D01*
X81304626Y-55603390D01*
X81383675Y-55740309D01*
X81383679Y-55740314D01*
X81383680Y-55740316D01*
X81495484Y-55852120D01*
X81495486Y-55852121D01*
X81495490Y-55852124D01*
X81616507Y-55921992D01*
X81632416Y-55931177D01*
X81785143Y-55972100D01*
X81785145Y-55972100D01*
X81943255Y-55972100D01*
X81943257Y-55972100D01*
X82095984Y-55931177D01*
X82232916Y-55852120D01*
X82344720Y-55740316D01*
X82423777Y-55603384D01*
X82464700Y-55450657D01*
X82464700Y-55292543D01*
X82423777Y-55139816D01*
X82390224Y-55081700D01*
X82344724Y-55002890D01*
X82344718Y-55002882D01*
X82232917Y-54891081D01*
X82232909Y-54891075D01*
X82095990Y-54812026D01*
X82095986Y-54812024D01*
X82095984Y-54812023D01*
X81943257Y-54771100D01*
X81785143Y-54771100D01*
X81632416Y-54812023D01*
X81632409Y-54812026D01*
X81495490Y-54891075D01*
X81495482Y-54891081D01*
X81383681Y-55002882D01*
X81383675Y-55002890D01*
X81304626Y-55139809D01*
X81304623Y-55139816D01*
X81263700Y-55292543D01*
X74809001Y-55292543D01*
X73594145Y-54077687D01*
X73534082Y-54037555D01*
X73479411Y-54001025D01*
X73479408Y-54001023D01*
X73479407Y-54001023D01*
X73455598Y-53991161D01*
X73401194Y-53947321D01*
X73379129Y-53881027D01*
X73396408Y-53813327D01*
X73447545Y-53765717D01*
X73503050Y-53752600D01*
X73541655Y-53752600D01*
X73541657Y-53752600D01*
X73694384Y-53711677D01*
X73831316Y-53632620D01*
X73943120Y-53520816D01*
X74022177Y-53383884D01*
X74055494Y-53259543D01*
X75554700Y-53259543D01*
X75554700Y-53417657D01*
X75591044Y-53553293D01*
X75595623Y-53570383D01*
X75595626Y-53570390D01*
X75674675Y-53707309D01*
X75674679Y-53707314D01*
X75674680Y-53707316D01*
X75786484Y-53819120D01*
X75786486Y-53819121D01*
X75786490Y-53819124D01*
X75893711Y-53881027D01*
X75923416Y-53898177D01*
X76076143Y-53939100D01*
X76137945Y-53939100D01*
X76204984Y-53958785D01*
X76225626Y-53975419D01*
X76537319Y-54287112D01*
X76537320Y-54287113D01*
X76611887Y-54361680D01*
X76703213Y-54414407D01*
X76805073Y-54441700D01*
X76805075Y-54441700D01*
X83111625Y-54441700D01*
X83111627Y-54441700D01*
X83166779Y-54426922D01*
X83192149Y-54420125D01*
X83224241Y-54415900D01*
X83363755Y-54415900D01*
X83363757Y-54415900D01*
X83516484Y-54374977D01*
X83653416Y-54295920D01*
X83765220Y-54184116D01*
X83844277Y-54047184D01*
X83885200Y-53894457D01*
X83885200Y-53736343D01*
X83844277Y-53583616D01*
X83826736Y-53553233D01*
X83765224Y-53446690D01*
X83765218Y-53446682D01*
X83653417Y-53334881D01*
X83653409Y-53334875D01*
X83516490Y-53255826D01*
X83516486Y-53255824D01*
X83516484Y-53255823D01*
X83363757Y-53214900D01*
X83205643Y-53214900D01*
X83052916Y-53255823D01*
X83052909Y-53255826D01*
X82915990Y-53334875D01*
X82915982Y-53334881D01*
X82804181Y-53446682D01*
X82804175Y-53446690D01*
X82727961Y-53578699D01*
X82677395Y-53626915D01*
X82620574Y-53640700D01*
X79433528Y-53640700D01*
X79366489Y-53621015D01*
X79320734Y-53568211D01*
X79310790Y-53499053D01*
X79313753Y-53484607D01*
X79316258Y-53475255D01*
X79344500Y-53369857D01*
X79344500Y-53211743D01*
X79303577Y-53059016D01*
X79260718Y-52984781D01*
X79224524Y-52922090D01*
X79224518Y-52922082D01*
X79112717Y-52810281D01*
X79112709Y-52810275D01*
X78975790Y-52731226D01*
X78975786Y-52731224D01*
X78975784Y-52731223D01*
X78823057Y-52690300D01*
X78664943Y-52690300D01*
X78512216Y-52731223D01*
X78512209Y-52731226D01*
X78375290Y-52810275D01*
X78375282Y-52810281D01*
X78263481Y-52922082D01*
X78263477Y-52922087D01*
X78194334Y-53041849D01*
X78143768Y-53090064D01*
X78075161Y-53103288D01*
X78010296Y-53077320D01*
X77999266Y-53067530D01*
X77916517Y-52984781D01*
X77916509Y-52984775D01*
X77779590Y-52905726D01*
X77779586Y-52905724D01*
X77779584Y-52905723D01*
X77626857Y-52864800D01*
X77468743Y-52864800D01*
X77316016Y-52905723D01*
X77316009Y-52905726D01*
X77179090Y-52984775D01*
X77179082Y-52984781D01*
X77067281Y-53096582D01*
X77067275Y-53096590D01*
X76988226Y-53233509D01*
X76985114Y-53241023D01*
X76983918Y-53240527D01*
X76951877Y-53293085D01*
X76889028Y-53323610D01*
X76819653Y-53315310D01*
X76765779Y-53270821D01*
X76748701Y-53233422D01*
X76714777Y-53106816D01*
X76708870Y-53096584D01*
X76635724Y-52969890D01*
X76635718Y-52969882D01*
X76523917Y-52858081D01*
X76523909Y-52858075D01*
X76386990Y-52779026D01*
X76386986Y-52779024D01*
X76386984Y-52779023D01*
X76234257Y-52738100D01*
X76076143Y-52738100D01*
X75923416Y-52779023D01*
X75923409Y-52779026D01*
X75786490Y-52858075D01*
X75786482Y-52858081D01*
X75674681Y-52969882D01*
X75674675Y-52969890D01*
X75595626Y-53106809D01*
X75595623Y-53106816D01*
X75554700Y-53259543D01*
X74055494Y-53259543D01*
X74063100Y-53231157D01*
X74063100Y-53073043D01*
X74022177Y-52920316D01*
X73986246Y-52858081D01*
X73943124Y-52783390D01*
X73943118Y-52783382D01*
X73831317Y-52671581D01*
X73831309Y-52671575D01*
X73694390Y-52592526D01*
X73694386Y-52592524D01*
X73694384Y-52592523D01*
X73541657Y-52551600D01*
X73383543Y-52551600D01*
X73230816Y-52592523D01*
X73230809Y-52592526D01*
X73093890Y-52671575D01*
X73093882Y-52671581D01*
X72982081Y-52783382D01*
X72982075Y-52783390D01*
X72903026Y-52920309D01*
X72903023Y-52920316D01*
X72862100Y-53073043D01*
X72862100Y-53231157D01*
X72899265Y-53369857D01*
X72903023Y-53383883D01*
X72903026Y-53383890D01*
X72982075Y-53520809D01*
X72982079Y-53520814D01*
X72982080Y-53520816D01*
X73093884Y-53632620D01*
X73093886Y-53632621D01*
X73093890Y-53632624D01*
X73193118Y-53689913D01*
X73241334Y-53740479D01*
X73254558Y-53809086D01*
X73228590Y-53873951D01*
X73171676Y-53914480D01*
X73131119Y-53921300D01*
X67284003Y-53921300D01*
X67175590Y-53942865D01*
X67175589Y-53942865D01*
X67148671Y-53948220D01*
X67021190Y-54001024D01*
X66906454Y-54077687D01*
X66454764Y-54529377D01*
X66393441Y-54562862D01*
X66323749Y-54557878D01*
X66279405Y-54529380D01*
X65288107Y-53538150D01*
X65285896Y-53535939D01*
X64980511Y-53230498D01*
X64947031Y-53169172D01*
X64944200Y-53142825D01*
X64944200Y-51938169D01*
X64963885Y-51871130D01*
X64965098Y-51869278D01*
X65038375Y-51759611D01*
X65091180Y-51632128D01*
X65093445Y-51620743D01*
X75199600Y-51620743D01*
X75199600Y-51778857D01*
X75228539Y-51886857D01*
X75240523Y-51931583D01*
X75240526Y-51931590D01*
X75319575Y-52068509D01*
X75319579Y-52068514D01*
X75319580Y-52068516D01*
X75431384Y-52180320D01*
X75431386Y-52180321D01*
X75431390Y-52180324D01*
X75568309Y-52259373D01*
X75568316Y-52259377D01*
X75721043Y-52300300D01*
X75721045Y-52300300D01*
X75879155Y-52300300D01*
X75879157Y-52300300D01*
X76031884Y-52259377D01*
X76168816Y-52180320D01*
X76280620Y-52068516D01*
X76359677Y-51931584D01*
X76400600Y-51778857D01*
X76400600Y-51620743D01*
X76359677Y-51468016D01*
X76318888Y-51397367D01*
X76280624Y-51331090D01*
X76280618Y-51331082D01*
X76168817Y-51219281D01*
X76168809Y-51219275D01*
X76031890Y-51140226D01*
X76031886Y-51140224D01*
X76031884Y-51140223D01*
X75879157Y-51099300D01*
X75721043Y-51099300D01*
X75568316Y-51140223D01*
X75568309Y-51140226D01*
X75431390Y-51219275D01*
X75431382Y-51219281D01*
X75319581Y-51331082D01*
X75319575Y-51331090D01*
X75240526Y-51468009D01*
X75240523Y-51468016D01*
X75199600Y-51620743D01*
X65093445Y-51620743D01*
X65099874Y-51588424D01*
X65099874Y-51588423D01*
X65118100Y-51496795D01*
X65118100Y-51358803D01*
X65091181Y-51223476D01*
X65091180Y-51223475D01*
X65091180Y-51223471D01*
X65038375Y-51095989D01*
X64961714Y-50981257D01*
X64961712Y-50981254D01*
X64864145Y-50883687D01*
X64806777Y-50845355D01*
X64749411Y-50807025D01*
X64621929Y-50754220D01*
X64621923Y-50754218D01*
X64486596Y-50727300D01*
X64486594Y-50727300D01*
X64348606Y-50727300D01*
X64348604Y-50727300D01*
X64213277Y-50754218D01*
X64213267Y-50754221D01*
X64085792Y-50807022D01*
X63971054Y-50883687D01*
X63699587Y-51155154D01*
X63622922Y-51269892D01*
X63570121Y-51397367D01*
X63570118Y-51397379D01*
X63550344Y-51496792D01*
X63550344Y-51496795D01*
X63543200Y-51532706D01*
X63543200Y-53489556D01*
X63543193Y-53553233D01*
X63543199Y-53553289D01*
X63555517Y-53615212D01*
X63555519Y-53615224D01*
X63570107Y-53688598D01*
X63596588Y-53752528D01*
X63596590Y-53752538D01*
X63596592Y-53752538D01*
X63622907Y-53816084D01*
X63659948Y-53871520D01*
X63659954Y-53871529D01*
X63699546Y-53930794D01*
X63699583Y-53930839D01*
X63718612Y-53949868D01*
X63752097Y-54011191D01*
X63747113Y-54080883D01*
X63718612Y-54125230D01*
X62671420Y-55172422D01*
X62610097Y-55205907D01*
X62540405Y-55200923D01*
X62496058Y-55172422D01*
X62396317Y-55072681D01*
X62396309Y-55072675D01*
X62259390Y-54993626D01*
X62259386Y-54993624D01*
X62259384Y-54993623D01*
X62106657Y-54952700D01*
X61948543Y-54952700D01*
X61795816Y-54993623D01*
X61795809Y-54993626D01*
X61658890Y-55072675D01*
X61658882Y-55072681D01*
X61547081Y-55184482D01*
X61547075Y-55184490D01*
X61468026Y-55321409D01*
X61468023Y-55321416D01*
X61427100Y-55474143D01*
X61427100Y-55585900D01*
X61407415Y-55652939D01*
X61354611Y-55698694D01*
X61303100Y-55709900D01*
X57042019Y-55709900D01*
X56974980Y-55690215D01*
X56954338Y-55673581D01*
X56546066Y-55265309D01*
X56512581Y-55203986D01*
X56517565Y-55134294D01*
X56559437Y-55078361D01*
X56601652Y-55057853D01*
X56665384Y-55040777D01*
X56802316Y-54961720D01*
X56914120Y-54849916D01*
X56993177Y-54712984D01*
X57034100Y-54560257D01*
X57034100Y-54402143D01*
X56993177Y-54249416D01*
X56993173Y-54249409D01*
X56914124Y-54112490D01*
X56914118Y-54112482D01*
X56802317Y-54000681D01*
X56802309Y-54000675D01*
X56665390Y-53921626D01*
X56665386Y-53921624D01*
X56665384Y-53921623D01*
X56512657Y-53880700D01*
X56354543Y-53880700D01*
X56201816Y-53921623D01*
X56201809Y-53921626D01*
X56064890Y-54000675D01*
X56064882Y-54000681D01*
X55953081Y-54112482D01*
X55953075Y-54112490D01*
X55874026Y-54249409D01*
X55874023Y-54249414D01*
X55856947Y-54313146D01*
X55820582Y-54372806D01*
X55757735Y-54403335D01*
X55688359Y-54395040D01*
X55649491Y-54368733D01*
X55546545Y-54265787D01*
X55431807Y-54189122D01*
X55304332Y-54136321D01*
X55304322Y-54136318D01*
X55168996Y-54109400D01*
X55168994Y-54109400D01*
X55031006Y-54109400D01*
X55031004Y-54109400D01*
X54895677Y-54136318D01*
X54895667Y-54136321D01*
X54768192Y-54189122D01*
X54653454Y-54265787D01*
X54555887Y-54363354D01*
X54479222Y-54478092D01*
X54426421Y-54605567D01*
X54426418Y-54605577D01*
X54399500Y-54740903D01*
X54399500Y-54740906D01*
X54399500Y-54878894D01*
X54399500Y-54878896D01*
X54399499Y-54878896D01*
X40300500Y-54878896D01*
X40300500Y-51728743D01*
X55971700Y-51728743D01*
X55971700Y-51886857D01*
X55983685Y-51931583D01*
X56012623Y-52039583D01*
X56012626Y-52039590D01*
X56091675Y-52176509D01*
X56091679Y-52176514D01*
X56091680Y-52176516D01*
X56203484Y-52288320D01*
X56203486Y-52288321D01*
X56203490Y-52288324D01*
X56340409Y-52367373D01*
X56340416Y-52367377D01*
X56493143Y-52408300D01*
X56493145Y-52408300D01*
X56651255Y-52408300D01*
X56651257Y-52408300D01*
X56803984Y-52367377D01*
X56940916Y-52288320D01*
X57052720Y-52176516D01*
X57131777Y-52039584D01*
X57172700Y-51886857D01*
X57172700Y-51728743D01*
X57131777Y-51576016D01*
X57086039Y-51496794D01*
X57052724Y-51439090D01*
X57052718Y-51439082D01*
X56940917Y-51327281D01*
X56940909Y-51327275D01*
X56803990Y-51248226D01*
X56803986Y-51248224D01*
X56803984Y-51248223D01*
X56651257Y-51207300D01*
X56493143Y-51207300D01*
X56340416Y-51248223D01*
X56340409Y-51248226D01*
X56203490Y-51327275D01*
X56203482Y-51327281D01*
X56091681Y-51439082D01*
X56091675Y-51439090D01*
X56012626Y-51576009D01*
X56012623Y-51576016D01*
X55971700Y-51728743D01*
X40300500Y-51728743D01*
X40300500Y-49152543D01*
X72310100Y-49152543D01*
X72310100Y-49310656D01*
X72351023Y-49463383D01*
X72351026Y-49463390D01*
X72430075Y-49600309D01*
X72430079Y-49600314D01*
X72430080Y-49600316D01*
X72541884Y-49712120D01*
X72541886Y-49712121D01*
X72541890Y-49712124D01*
X72678809Y-49791173D01*
X72678816Y-49791177D01*
X72831543Y-49832100D01*
X72831545Y-49832100D01*
X72989655Y-49832100D01*
X72989657Y-49832100D01*
X73142384Y-49791177D01*
X73279316Y-49712120D01*
X73391120Y-49600316D01*
X73470177Y-49463384D01*
X73511100Y-49310657D01*
X73511100Y-49152543D01*
X73470177Y-48999816D01*
X73470173Y-48999809D01*
X73391124Y-48862890D01*
X73391118Y-48862882D01*
X73279317Y-48751081D01*
X73279309Y-48751075D01*
X73142390Y-48672026D01*
X73142386Y-48672024D01*
X73142384Y-48672023D01*
X72989657Y-48631100D01*
X72831543Y-48631100D01*
X72678816Y-48672023D01*
X72678809Y-48672026D01*
X72541890Y-48751075D01*
X72541882Y-48751081D01*
X72430081Y-48862882D01*
X72430075Y-48862890D01*
X72351026Y-48999809D01*
X72351023Y-48999816D01*
X72310100Y-49152543D01*
X40300500Y-49152543D01*
X40300500Y-46170793D01*
X55700000Y-46170793D01*
X55700000Y-46600000D01*
X56219670Y-46600000D01*
X56199925Y-46619745D01*
X56150556Y-46705255D01*
X56125000Y-46800630D01*
X56125000Y-46899370D01*
X56150556Y-46994745D01*
X56199925Y-47080255D01*
X56219670Y-47100000D01*
X55700001Y-47100000D01*
X55700001Y-47529196D01*
X55702851Y-47559606D01*
X55747653Y-47687645D01*
X55828207Y-47796792D01*
X55937354Y-47877346D01*
X56065397Y-47922149D01*
X56095792Y-47924999D01*
X56249999Y-47924999D01*
X56250000Y-47924998D01*
X56250000Y-47130330D01*
X56269745Y-47150075D01*
X56355255Y-47199444D01*
X56450630Y-47225000D01*
X56549370Y-47225000D01*
X56644745Y-47199444D01*
X56730255Y-47150075D01*
X56750000Y-47130330D01*
X56750000Y-47924999D01*
X56904196Y-47924999D01*
X56934606Y-47922148D01*
X57062645Y-47877346D01*
X57171792Y-47796792D01*
X57252346Y-47687645D01*
X57297149Y-47559604D01*
X57297149Y-47559600D01*
X57300000Y-47529206D01*
X57300000Y-47100000D01*
X56780330Y-47100000D01*
X56800075Y-47080255D01*
X56849444Y-46994745D01*
X56875000Y-46899370D01*
X56875000Y-46800630D01*
X56849444Y-46705255D01*
X56800075Y-46619745D01*
X56780330Y-46600000D01*
X57299999Y-46600000D01*
X57299999Y-46486304D01*
X57599500Y-46486304D01*
X57599500Y-47213695D01*
X57634103Y-47387658D01*
X57634106Y-47387667D01*
X57701983Y-47551540D01*
X57701990Y-47551553D01*
X57800535Y-47699034D01*
X57800538Y-47699038D01*
X57925961Y-47824461D01*
X57925965Y-47824464D01*
X58073446Y-47923009D01*
X58073459Y-47923016D01*
X58172685Y-47964116D01*
X58237334Y-47990894D01*
X58237336Y-47990894D01*
X58237341Y-47990896D01*
X58411304Y-48025499D01*
X58411307Y-48025500D01*
X58411309Y-48025500D01*
X58588693Y-48025500D01*
X58588694Y-48025499D01*
X58646682Y-48013964D01*
X58762658Y-47990896D01*
X58762661Y-47990894D01*
X58762666Y-47990894D01*
X58902535Y-47932958D01*
X58926540Y-47923016D01*
X58926540Y-47923015D01*
X58926547Y-47923013D01*
X59074035Y-47824464D01*
X59199464Y-47699035D01*
X59298013Y-47551547D01*
X59312595Y-47516343D01*
X82635600Y-47516343D01*
X82635600Y-47674457D01*
X82675794Y-47824461D01*
X82676523Y-47827183D01*
X82676526Y-47827190D01*
X82755575Y-47964109D01*
X82755579Y-47964114D01*
X82755580Y-47964116D01*
X82867384Y-48075920D01*
X82867386Y-48075921D01*
X82867390Y-48075924D01*
X83004309Y-48154973D01*
X83004316Y-48154977D01*
X83157043Y-48195900D01*
X83157045Y-48195900D01*
X83315155Y-48195900D01*
X83315157Y-48195900D01*
X83467884Y-48154977D01*
X83604816Y-48075920D01*
X83716620Y-47964116D01*
X83795677Y-47827184D01*
X83836600Y-47674457D01*
X83836600Y-47516343D01*
X83795677Y-47363616D01*
X83795673Y-47363609D01*
X83716624Y-47226690D01*
X83716618Y-47226682D01*
X83604817Y-47114881D01*
X83604809Y-47114875D01*
X83467890Y-47035826D01*
X83467886Y-47035824D01*
X83467884Y-47035823D01*
X83315157Y-46994900D01*
X83157043Y-46994900D01*
X83004316Y-47035823D01*
X83004309Y-47035826D01*
X82867390Y-47114875D01*
X82867382Y-47114881D01*
X82755581Y-47226682D01*
X82755575Y-47226690D01*
X82676526Y-47363609D01*
X82676523Y-47363616D01*
X82635600Y-47516343D01*
X59312595Y-47516343D01*
X59365894Y-47387666D01*
X59370680Y-47363609D01*
X59397914Y-47226690D01*
X59400500Y-47213691D01*
X59400500Y-46486309D01*
X59400500Y-46486306D01*
X59400499Y-46486304D01*
X59365896Y-46312341D01*
X59365893Y-46312332D01*
X59298016Y-46148459D01*
X59298009Y-46148446D01*
X59199464Y-46000965D01*
X59199461Y-46000961D01*
X59074038Y-45875538D01*
X59074034Y-45875535D01*
X58926553Y-45776990D01*
X58926540Y-45776983D01*
X58762667Y-45709106D01*
X58762658Y-45709103D01*
X58588694Y-45674500D01*
X58588691Y-45674500D01*
X58411309Y-45674500D01*
X58411306Y-45674500D01*
X58237341Y-45709103D01*
X58237332Y-45709106D01*
X58073459Y-45776983D01*
X58073446Y-45776990D01*
X57925965Y-45875535D01*
X57925961Y-45875538D01*
X57800538Y-46000961D01*
X57800535Y-46000965D01*
X57701990Y-46148446D01*
X57701983Y-46148459D01*
X57634106Y-46312332D01*
X57634103Y-46312341D01*
X57599500Y-46486304D01*
X57299999Y-46486304D01*
X57299999Y-46170803D01*
X57297148Y-46140393D01*
X57252346Y-46012354D01*
X57171792Y-45903207D01*
X57062645Y-45822653D01*
X56934602Y-45777850D01*
X56904207Y-45775000D01*
X56750000Y-45775000D01*
X56750000Y-46569670D01*
X56730255Y-46549925D01*
X56644745Y-46500556D01*
X56549370Y-46475000D01*
X56450630Y-46475000D01*
X56355255Y-46500556D01*
X56269745Y-46549925D01*
X56250000Y-46569670D01*
X56250000Y-45775000D01*
X56095804Y-45775000D01*
X56065393Y-45777851D01*
X55937354Y-45822653D01*
X55828207Y-45903207D01*
X55747653Y-46012354D01*
X55702850Y-46140395D01*
X55702850Y-46140399D01*
X55700000Y-46170793D01*
X40300500Y-46170793D01*
X40300500Y-44874234D01*
X77546500Y-44874234D01*
X77546500Y-45025765D01*
X77585719Y-45172136D01*
X77623602Y-45237750D01*
X77661485Y-45303365D01*
X77768635Y-45410515D01*
X77899865Y-45486281D01*
X78046234Y-45525500D01*
X78046236Y-45525500D01*
X78197764Y-45525500D01*
X78197766Y-45525500D01*
X78344135Y-45486281D01*
X78475365Y-45410515D01*
X78494696Y-45391183D01*
X78556016Y-45357698D01*
X78625708Y-45362681D01*
X78681643Y-45404552D01*
X78699050Y-45440386D01*
X78699314Y-45440277D01*
X78701148Y-45444706D01*
X78702152Y-45446772D01*
X78702422Y-45447782D01*
X78702426Y-45447790D01*
X78781475Y-45584709D01*
X78781479Y-45584714D01*
X78781480Y-45584716D01*
X78893284Y-45696520D01*
X78893286Y-45696521D01*
X78893290Y-45696524D01*
X79008558Y-45763073D01*
X79030216Y-45775577D01*
X79182943Y-45816500D01*
X79182945Y-45816500D01*
X79341055Y-45816500D01*
X79341057Y-45816500D01*
X79493784Y-45775577D01*
X79630716Y-45696520D01*
X79742520Y-45584716D01*
X79821577Y-45447784D01*
X79862500Y-45295057D01*
X79862500Y-45136943D01*
X79859151Y-45124443D01*
X81446700Y-45124443D01*
X81446700Y-45282557D01*
X81480986Y-45410512D01*
X81487623Y-45435283D01*
X81487626Y-45435290D01*
X81566675Y-45572209D01*
X81566679Y-45572214D01*
X81566680Y-45572216D01*
X81678484Y-45684020D01*
X81678486Y-45684021D01*
X81678490Y-45684024D01*
X81815409Y-45763073D01*
X81815416Y-45763077D01*
X81968143Y-45804000D01*
X81968145Y-45804000D01*
X82126255Y-45804000D01*
X82126257Y-45804000D01*
X82278984Y-45763077D01*
X82415916Y-45684020D01*
X82527720Y-45572216D01*
X82606777Y-45435284D01*
X82647700Y-45282557D01*
X82647700Y-45124443D01*
X82606777Y-44971716D01*
X82581598Y-44928104D01*
X82550496Y-44874234D01*
X83326500Y-44874234D01*
X83326500Y-45025765D01*
X83365719Y-45172136D01*
X83403602Y-45237750D01*
X83441485Y-45303365D01*
X83548635Y-45410515D01*
X83679865Y-45486281D01*
X83826234Y-45525500D01*
X83826236Y-45525500D01*
X83977764Y-45525500D01*
X83977766Y-45525500D01*
X84124135Y-45486281D01*
X84255365Y-45410515D01*
X84362515Y-45303365D01*
X84438281Y-45172135D01*
X84477500Y-45025766D01*
X84477500Y-44874234D01*
X84438281Y-44727865D01*
X84436317Y-44724464D01*
X84397035Y-44656426D01*
X84362515Y-44596635D01*
X84255365Y-44489485D01*
X84189643Y-44451540D01*
X84124136Y-44413719D01*
X84050950Y-44394109D01*
X83977766Y-44374500D01*
X83826234Y-44374500D01*
X83679863Y-44413719D01*
X83548635Y-44489485D01*
X83548632Y-44489487D01*
X83441487Y-44596632D01*
X83441485Y-44596635D01*
X83365719Y-44727863D01*
X83326500Y-44874234D01*
X82550496Y-44874234D01*
X82527722Y-44834787D01*
X82527718Y-44834782D01*
X82415917Y-44722981D01*
X82415909Y-44722975D01*
X82278990Y-44643926D01*
X82278986Y-44643924D01*
X82278984Y-44643923D01*
X82126257Y-44603000D01*
X81968143Y-44603000D01*
X81815416Y-44643923D01*
X81815409Y-44643926D01*
X81678490Y-44722975D01*
X81678482Y-44722981D01*
X81566681Y-44834782D01*
X81566675Y-44834790D01*
X81487626Y-44971709D01*
X81487623Y-44971716D01*
X81446700Y-45124443D01*
X79859151Y-45124443D01*
X79821577Y-44984216D01*
X79787677Y-44925499D01*
X79742524Y-44847290D01*
X79742518Y-44847282D01*
X79630717Y-44735481D01*
X79630709Y-44735475D01*
X79493790Y-44656426D01*
X79493786Y-44656424D01*
X79493784Y-44656423D01*
X79341057Y-44615500D01*
X79182943Y-44615500D01*
X79030216Y-44656423D01*
X79030209Y-44656426D01*
X78893290Y-44735475D01*
X78893282Y-44735481D01*
X78860565Y-44768198D01*
X78799242Y-44801683D01*
X78729550Y-44796697D01*
X78673617Y-44754825D01*
X78658322Y-44727964D01*
X78658281Y-44727865D01*
X78617035Y-44656426D01*
X78582515Y-44596635D01*
X78475365Y-44489485D01*
X78409643Y-44451540D01*
X78344136Y-44413719D01*
X78270950Y-44394109D01*
X78197766Y-44374500D01*
X78046234Y-44374500D01*
X77899863Y-44413719D01*
X77768635Y-44489485D01*
X77768632Y-44489487D01*
X77661487Y-44596632D01*
X77661485Y-44596635D01*
X77585719Y-44727863D01*
X77546500Y-44874234D01*
X40300500Y-44874234D01*
X40300500Y-43299713D01*
X41483500Y-43299713D01*
X41483500Y-43512287D01*
X41516754Y-43722243D01*
X41558427Y-43850500D01*
X41582444Y-43924414D01*
X41678951Y-44113820D01*
X41803890Y-44285786D01*
X41954213Y-44436109D01*
X42126179Y-44561048D01*
X42126181Y-44561049D01*
X42126184Y-44561051D01*
X42315588Y-44657557D01*
X42517757Y-44723246D01*
X42727713Y-44756500D01*
X42727714Y-44756500D01*
X42940286Y-44756500D01*
X42940287Y-44756500D01*
X43150243Y-44723246D01*
X43352412Y-44657557D01*
X43541816Y-44561051D01*
X43577715Y-44534969D01*
X43713786Y-44436109D01*
X43713788Y-44436106D01*
X43713792Y-44436104D01*
X43864104Y-44285792D01*
X43864106Y-44285788D01*
X43864109Y-44285786D01*
X43989048Y-44113820D01*
X43989047Y-44113820D01*
X43989051Y-44113816D01*
X44085557Y-43924412D01*
X44151246Y-43722243D01*
X44184500Y-43512287D01*
X44184500Y-43299713D01*
X44170662Y-43212341D01*
X44152487Y-43097590D01*
X44151246Y-43089758D01*
X44148692Y-43081898D01*
X99599500Y-43081898D01*
X99599500Y-44418102D01*
X99603516Y-44451547D01*
X99610122Y-44506561D01*
X99665639Y-44647343D01*
X99757077Y-44767922D01*
X99877656Y-44859360D01*
X99877657Y-44859360D01*
X99877658Y-44859361D01*
X100018436Y-44914877D01*
X100106898Y-44925500D01*
X100106903Y-44925500D01*
X100893097Y-44925500D01*
X100893102Y-44925500D01*
X100981564Y-44914877D01*
X101122342Y-44859361D01*
X101242922Y-44767922D01*
X101334361Y-44647342D01*
X101389877Y-44506564D01*
X101400500Y-44418102D01*
X101400500Y-43396202D01*
X101700000Y-43396202D01*
X101700000Y-43500000D01*
X102219670Y-43500000D01*
X102199925Y-43519745D01*
X102150556Y-43605255D01*
X102125000Y-43700630D01*
X102125000Y-43799370D01*
X102150556Y-43894745D01*
X102199925Y-43980255D01*
X102219670Y-44000000D01*
X101700000Y-44000000D01*
X101700000Y-44103797D01*
X101730741Y-44258343D01*
X101730743Y-44258351D01*
X101791047Y-44403939D01*
X101791052Y-44403948D01*
X101878598Y-44534969D01*
X101878601Y-44534973D01*
X101990026Y-44646398D01*
X101990034Y-44646404D01*
X102121047Y-44733944D01*
X102121065Y-44733954D01*
X102249999Y-44787360D01*
X102250000Y-44787360D01*
X102250000Y-44030330D01*
X102269745Y-44050075D01*
X102355255Y-44099444D01*
X102450630Y-44125000D01*
X102549370Y-44125000D01*
X102644745Y-44099444D01*
X102730255Y-44050075D01*
X102750000Y-44030330D01*
X102750000Y-44787360D01*
X102878934Y-44733954D01*
X102878952Y-44733944D01*
X103009965Y-44646404D01*
X103009973Y-44646398D01*
X103121398Y-44534973D01*
X103121401Y-44534969D01*
X103208947Y-44403948D01*
X103208952Y-44403939D01*
X103269256Y-44258351D01*
X103269258Y-44258343D01*
X103299999Y-44103797D01*
X103300000Y-44103794D01*
X103300000Y-44000000D01*
X102780330Y-44000000D01*
X102800075Y-43980255D01*
X102849444Y-43894745D01*
X102875000Y-43799370D01*
X102875000Y-43700630D01*
X102849444Y-43605255D01*
X102800075Y-43519745D01*
X102780330Y-43500000D01*
X103300000Y-43500000D01*
X103300000Y-43396210D01*
X103299998Y-43396198D01*
X103298030Y-43386304D01*
X103599500Y-43386304D01*
X103599500Y-44113695D01*
X103634103Y-44287658D01*
X103634106Y-44287667D01*
X103701983Y-44451540D01*
X103701990Y-44451553D01*
X103800535Y-44599034D01*
X103800538Y-44599038D01*
X103925961Y-44724461D01*
X103925965Y-44724464D01*
X104073446Y-44823009D01*
X104073459Y-44823016D01*
X104196363Y-44873923D01*
X104237334Y-44890894D01*
X104237336Y-44890894D01*
X104237341Y-44890896D01*
X104411304Y-44925499D01*
X104411307Y-44925500D01*
X104411309Y-44925500D01*
X104588693Y-44925500D01*
X104588694Y-44925499D01*
X104646682Y-44913964D01*
X104762658Y-44890896D01*
X104762661Y-44890894D01*
X104762666Y-44890894D01*
X104926547Y-44823013D01*
X105074035Y-44724464D01*
X105199464Y-44599035D01*
X105298013Y-44451547D01*
X105365894Y-44287666D01*
X105400500Y-44113691D01*
X105400500Y-43396202D01*
X105700000Y-43396202D01*
X105700000Y-43500000D01*
X106219670Y-43500000D01*
X106199925Y-43519745D01*
X106150556Y-43605255D01*
X106125000Y-43700630D01*
X106125000Y-43799370D01*
X106150556Y-43894745D01*
X106199925Y-43980255D01*
X106219670Y-44000000D01*
X105700000Y-44000000D01*
X105700000Y-44103797D01*
X105730741Y-44258343D01*
X105730743Y-44258351D01*
X105791047Y-44403939D01*
X105791052Y-44403948D01*
X105878598Y-44534969D01*
X105878601Y-44534973D01*
X105990026Y-44646398D01*
X105990034Y-44646404D01*
X106121047Y-44733944D01*
X106121065Y-44733954D01*
X106249999Y-44787360D01*
X106250000Y-44787360D01*
X106250000Y-44030330D01*
X106269745Y-44050075D01*
X106355255Y-44099444D01*
X106450630Y-44125000D01*
X106549370Y-44125000D01*
X106644745Y-44099444D01*
X106730255Y-44050075D01*
X106750000Y-44030330D01*
X106750000Y-44787360D01*
X106878934Y-44733954D01*
X106878952Y-44733944D01*
X107009965Y-44646404D01*
X107009973Y-44646398D01*
X107121398Y-44534973D01*
X107121401Y-44534969D01*
X107208947Y-44403948D01*
X107208952Y-44403939D01*
X107269256Y-44258351D01*
X107269258Y-44258343D01*
X107299999Y-44103797D01*
X107300000Y-44103794D01*
X107300000Y-44000000D01*
X106780330Y-44000000D01*
X106800075Y-43980255D01*
X106849444Y-43894745D01*
X106875000Y-43799370D01*
X106875000Y-43700630D01*
X106849444Y-43605255D01*
X106800075Y-43519745D01*
X106780330Y-43500000D01*
X107300000Y-43500000D01*
X107300000Y-43396206D01*
X107299999Y-43396202D01*
X107269258Y-43241656D01*
X107269256Y-43241648D01*
X107208952Y-43096060D01*
X107208947Y-43096051D01*
X107121401Y-42965030D01*
X107121398Y-42965026D01*
X107009973Y-42853601D01*
X107009969Y-42853598D01*
X106878948Y-42766052D01*
X106878938Y-42766047D01*
X106750000Y-42712639D01*
X106750000Y-43469670D01*
X106730255Y-43449925D01*
X106644745Y-43400556D01*
X106549370Y-43375000D01*
X106450630Y-43375000D01*
X106355255Y-43400556D01*
X106269745Y-43449925D01*
X106250000Y-43469670D01*
X106250000Y-42712639D01*
X106249999Y-42712639D01*
X106121061Y-42766047D01*
X106121051Y-42766052D01*
X105990030Y-42853598D01*
X105990026Y-42853601D01*
X105878601Y-42965026D01*
X105878598Y-42965030D01*
X105791052Y-43096051D01*
X105791047Y-43096060D01*
X105730743Y-43241648D01*
X105730741Y-43241656D01*
X105700000Y-43396202D01*
X105400500Y-43396202D01*
X105400500Y-43386309D01*
X105400500Y-43386306D01*
X105400499Y-43386304D01*
X105365896Y-43212341D01*
X105365893Y-43212332D01*
X105364022Y-43207816D01*
X105318366Y-43097590D01*
X105298016Y-43048459D01*
X105298009Y-43048446D01*
X105199464Y-42900965D01*
X105199461Y-42900961D01*
X105074038Y-42775538D01*
X105074034Y-42775535D01*
X104926553Y-42676990D01*
X104926540Y-42676983D01*
X104762667Y-42609106D01*
X104762658Y-42609103D01*
X104588694Y-42574500D01*
X104588691Y-42574500D01*
X104411309Y-42574500D01*
X104411306Y-42574500D01*
X104237341Y-42609103D01*
X104237332Y-42609106D01*
X104073459Y-42676983D01*
X104073446Y-42676990D01*
X103925965Y-42775535D01*
X103925961Y-42775538D01*
X103800538Y-42900961D01*
X103800535Y-42900965D01*
X103701990Y-43048446D01*
X103701983Y-43048459D01*
X103634106Y-43212332D01*
X103634103Y-43212341D01*
X103599500Y-43386304D01*
X103298030Y-43386304D01*
X103269258Y-43241656D01*
X103269256Y-43241648D01*
X103208952Y-43096060D01*
X103208947Y-43096051D01*
X103121401Y-42965030D01*
X103121398Y-42965026D01*
X103009973Y-42853601D01*
X103009969Y-42853598D01*
X102878948Y-42766052D01*
X102878938Y-42766047D01*
X102750000Y-42712639D01*
X102750000Y-43469670D01*
X102730255Y-43449925D01*
X102644745Y-43400556D01*
X102549370Y-43375000D01*
X102450630Y-43375000D01*
X102355255Y-43400556D01*
X102269745Y-43449925D01*
X102250000Y-43469670D01*
X102250000Y-42712639D01*
X102249999Y-42712639D01*
X102121061Y-42766047D01*
X102121051Y-42766052D01*
X101990030Y-42853598D01*
X101990026Y-42853601D01*
X101878601Y-42965026D01*
X101878598Y-42965030D01*
X101791052Y-43096051D01*
X101791047Y-43096060D01*
X101730743Y-43241648D01*
X101730741Y-43241656D01*
X101700000Y-43396202D01*
X101400500Y-43396202D01*
X101400500Y-43081898D01*
X101389877Y-42993436D01*
X101334361Y-42852658D01*
X101334360Y-42852657D01*
X101334360Y-42852656D01*
X101242922Y-42732077D01*
X101122343Y-42640639D01*
X100981561Y-42585122D01*
X100935926Y-42579642D01*
X100893102Y-42574500D01*
X100106898Y-42574500D01*
X100067853Y-42579188D01*
X100018438Y-42585122D01*
X99877656Y-42640639D01*
X99757077Y-42732077D01*
X99665639Y-42852656D01*
X99610122Y-42993438D01*
X99604188Y-43042853D01*
X99599500Y-43081898D01*
X44148692Y-43081898D01*
X44128064Y-43018412D01*
X44085557Y-42887588D01*
X43989051Y-42698184D01*
X43989049Y-42698181D01*
X43989048Y-42698179D01*
X43864109Y-42526213D01*
X43731609Y-42393713D01*
X118003500Y-42393713D01*
X118003500Y-42606287D01*
X118008941Y-42640639D01*
X118030306Y-42775536D01*
X118036754Y-42816243D01*
X118094328Y-42993438D01*
X118102444Y-43018414D01*
X118198951Y-43207820D01*
X118323890Y-43379786D01*
X118474213Y-43530109D01*
X118646179Y-43655048D01*
X118646181Y-43655049D01*
X118646184Y-43655051D01*
X118835588Y-43751557D01*
X119037757Y-43817246D01*
X119247713Y-43850500D01*
X119247714Y-43850500D01*
X119460286Y-43850500D01*
X119460287Y-43850500D01*
X119670243Y-43817246D01*
X119872412Y-43751557D01*
X120061816Y-43655051D01*
X120130355Y-43605255D01*
X120233786Y-43530109D01*
X120233788Y-43530106D01*
X120233792Y-43530104D01*
X120384104Y-43379792D01*
X120384106Y-43379788D01*
X120384109Y-43379786D01*
X120505763Y-43212341D01*
X120509051Y-43207816D01*
X120605557Y-43018412D01*
X120671246Y-42816243D01*
X120704500Y-42606287D01*
X120704500Y-42393713D01*
X120671246Y-42183757D01*
X120605557Y-41981588D01*
X120509051Y-41792184D01*
X120509049Y-41792181D01*
X120509048Y-41792179D01*
X120384109Y-41620213D01*
X120233786Y-41469890D01*
X120061820Y-41344951D01*
X119872414Y-41248444D01*
X119872413Y-41248443D01*
X119872412Y-41248443D01*
X119670243Y-41182754D01*
X119670241Y-41182753D01*
X119670240Y-41182753D01*
X119508957Y-41157208D01*
X119460287Y-41149500D01*
X119247713Y-41149500D01*
X119199042Y-41157208D01*
X119037760Y-41182753D01*
X118835585Y-41248444D01*
X118646179Y-41344951D01*
X118474213Y-41469890D01*
X118323890Y-41620213D01*
X118198951Y-41792179D01*
X118102444Y-41981585D01*
X118036753Y-42183760D01*
X118026111Y-42250951D01*
X118003500Y-42393713D01*
X43731609Y-42393713D01*
X43713786Y-42375890D01*
X43541820Y-42250951D01*
X43352414Y-42154444D01*
X43352413Y-42154443D01*
X43352412Y-42154443D01*
X43150243Y-42088754D01*
X43150241Y-42088753D01*
X43150240Y-42088753D01*
X42988957Y-42063208D01*
X42940287Y-42055500D01*
X42727713Y-42055500D01*
X42679042Y-42063208D01*
X42517760Y-42088753D01*
X42315585Y-42154444D01*
X42126179Y-42250951D01*
X41954213Y-42375890D01*
X41803890Y-42526213D01*
X41678951Y-42698179D01*
X41582444Y-42887585D01*
X41516753Y-43089760D01*
X41497338Y-43212341D01*
X41483500Y-43299713D01*
X40300500Y-43299713D01*
X40300500Y-40724500D01*
X40320185Y-40657461D01*
X40372989Y-40611706D01*
X40424500Y-40600500D01*
X41733560Y-40600500D01*
X41733562Y-40600500D01*
X41809989Y-40580021D01*
X41878511Y-40540460D01*
X41934460Y-40484511D01*
X41974021Y-40415989D01*
X41980341Y-40392404D01*
X42016707Y-40332745D01*
X42079554Y-40302217D01*
X42100115Y-40300500D01*
X121599500Y-40300500D01*
X121666539Y-40320185D01*
G37*
%TD.AperFunction*%
%TD*%
M02*
