%TF.GenerationSoftware,KiCad,Pcbnew,10.0.6*%
%TF.CreationDate,2026-09-17T02:37:16+09:00*%
%TF.ProjectId,katanori61,6b617461-6e6f-4726-9936-312e6b696361,rev?*%
%TF.SameCoordinates,Original*%
%TF.FileFunction,Copper,L3,Inr*%
%TF.FilePolarity,Positive*%
%FSLAX46Y46*%
G04 Gerber Fmt 4.6, Leading zero omitted, Abs format (unit mm)*
G04 Created by KiCad (PCBNEW 10.0.6) date 2026-09-17 02:37:16*
%MOMM*%
%LPD*%
G01*
G04 APERTURE LIST*
G04 Aperture macros list*
%AMRoundRect*
0 Rectangle with rounded corners*
0 $1 Rounding radius*
0 $2 $3 $4 $5 $6 $7 $8 $9 X,Y pos of 4 corners*
0 Add a 4 corners polygon primitive as box body*
4,1,4,$2,$3,$4,$5,$6,$7,$8,$9,$2,$3,0*
0 Add four circle primitives for the rounded corners*
1,1,$1+$1,$2,$3*
1,1,$1+$1,$4,$5*
1,1,$1+$1,$6,$7*
1,1,$1+$1,$8,$9*
0 Add four rect primitives between the rounded corners*
20,1,$1+$1,$2,$3,$4,$5,0*
20,1,$1+$1,$4,$5,$6,$7,0*
20,1,$1+$1,$6,$7,$8,$9,0*
20,1,$1+$1,$8,$9,$2,$3,0*%
G04 Aperture macros list end*
%TA.AperFunction,ComponentPad*%
%ADD10RoundRect,0.250000X-0.350000X-0.625000X0.350000X-0.625000X0.350000X0.625000X-0.350000X0.625000X0*%
%TD*%
%TA.AperFunction,ComponentPad*%
%ADD11O,1.200000X1.750000*%
%TD*%
%TA.AperFunction,ComponentPad*%
%ADD12RoundRect,0.250000X-0.625000X0.350000X-0.625000X-0.350000X0.625000X-0.350000X0.625000X0.350000X0*%
%TD*%
%TA.AperFunction,ComponentPad*%
%ADD13O,1.750000X1.200000*%
%TD*%
%TA.AperFunction,ComponentPad*%
%ADD14R,1.700000X1.700000*%
%TD*%
%TA.AperFunction,ComponentPad*%
%ADD15C,1.700000*%
%TD*%
%TA.AperFunction,ComponentPad*%
%ADD16O,1.000000X2.100000*%
%TD*%
%TA.AperFunction,ViaPad*%
%ADD17C,0.600000*%
%TD*%
%TA.AperFunction,Conductor*%
%ADD18C,0.200000*%
%TD*%
%TA.AperFunction,Conductor*%
%ADD19C,0.600000*%
%TD*%
%TA.AperFunction,Conductor*%
%ADD20C,0.400000*%
%TD*%
G04 APERTURE END LIST*
D10*
%TO.N,SPKP*%
%TO.C,J4*%
X114300000Y-67850000D03*
D11*
%TO.N,SPKM*%
X116300000Y-67850000D03*
%TD*%
D12*
%TO.N,SPKM*%
%TO.C,J5*%
X51950000Y-59300000D03*
D13*
%TO.N,SPKO*%
X51950000Y-61300000D03*
%TD*%
D10*
%TO.N,GND*%
%TO.C,J6*%
X56500000Y-46850000D03*
D11*
%TO.N,BTN*%
X58500000Y-46850000D03*
%TD*%
D10*
%TO.N,EN*%
%TO.C,J7*%
X100500000Y-43750000D03*
D11*
%TO.N,GND*%
X102500000Y-43750000D03*
%TO.N,EN*%
X104500000Y-43750000D03*
%TO.N,GND*%
X106500000Y-43750000D03*
%TD*%
D12*
%TO.N,GND*%
%TO.C,J10*%
X115700000Y-60450000D03*
D13*
%TO.N,BATRAW*%
X115700000Y-62450000D03*
%TD*%
D14*
%TO.N,V5*%
%TO.C,J1*%
X41770000Y-65595000D03*
D15*
%TO.N,GND*%
X44310000Y-65595000D03*
%TO.N,V33*%
X46850000Y-65595000D03*
%TO.N,SDA*%
X49390000Y-65595000D03*
%TO.N,SCL*%
X51930000Y-65595000D03*
%TO.N,BTN*%
X54470000Y-65595000D03*
%TO.N,IN*%
X57010000Y-65595000D03*
%TD*%
D14*
%TO.N,GND*%
%TO.C,J2*%
X77240000Y-72630000D03*
D15*
%TO.N,V33*%
X79780000Y-72630000D03*
%TO.N,SCL*%
X82320000Y-72630000D03*
%TO.N,SDA*%
X84860000Y-72630000D03*
%TD*%
D16*
%TO.N,GND*%
%TO.C,J13*%
X75640000Y-45750000D03*
X67000000Y-45750000D03*
%TD*%
D17*
%TO.N,GND*%
X61325000Y-63540000D03*
X61325000Y-64890000D03*
X62675000Y-63540000D03*
X62675000Y-64890000D03*
X71349000Y-61898000D03*
X71349000Y-63148000D03*
X72599000Y-61898000D03*
X72599000Y-63148000D03*
%TO.N,BATG*%
X82851700Y-68665700D03*
X83450800Y-62950000D03*
%TO.N,BATRAW*%
X85322600Y-63900000D03*
%TO.N,CC1*%
X58851700Y-71312700D03*
X72446700Y-45486000D03*
%TO.N,CC2*%
X63313900Y-71302700D03*
X69570000Y-45480700D03*
%TO.N,COL*%
X54606300Y-57864900D03*
X96752000Y-48898300D03*
%TO.N,EN*%
X71706000Y-53768400D03*
X82699700Y-53937600D03*
X59161700Y-64303400D03*
%TO.N,FB*%
X60923700Y-56062800D03*
X63552200Y-66841700D03*
%TO.N,GND*%
X70344500Y-57485900D03*
X60897500Y-47521900D03*
X77791100Y-55812500D03*
X74959500Y-61899900D03*
X61473800Y-73195500D03*
X53200100Y-62165500D03*
X80039800Y-59673300D03*
%TO.N,IN*%
X58570500Y-56053600D03*
%TO.N,LBI*%
X63809200Y-62287600D03*
X65850000Y-59466200D03*
X59373300Y-62654000D03*
%TO.N,LBO*%
X72455000Y-49029400D03*
X59157900Y-65190000D03*
%TO.N,N_Q1C*%
X75130300Y-49231600D03*
X80773600Y-50187500D03*
%TO.N,PROG3*%
X76543300Y-65170900D03*
X74661300Y-63984900D03*
%TO.N,SCL*%
X88910300Y-58900000D03*
X106727500Y-62965000D03*
X79363500Y-57919800D03*
%TO.N,SDA*%
X84551200Y-60060700D03*
X80142100Y-57918000D03*
%TO.N,SPKO*%
X83962400Y-61588100D03*
%TO.N,SPKP*%
X105486500Y-59818200D03*
%TO.N,STAT1*%
X72251000Y-66067500D03*
X80519100Y-68571700D03*
%TO.N,THERM*%
X74674600Y-71247600D03*
X70036800Y-64114400D03*
%TO.N,V33*%
X82672800Y-60062300D03*
%TO.N,V5*%
X64310600Y-49100500D03*
X63962500Y-65915200D03*
X85295600Y-53530400D03*
X59876100Y-55934200D03*
X60636400Y-68100000D03*
X53994600Y-55807000D03*
X97650000Y-56651700D03*
%TO.N,VBUS*%
X69425600Y-66219200D03*
X68959800Y-73565100D03*
X71912000Y-57448800D03*
X76294900Y-68643900D03*
X73556900Y-47854800D03*
%TO.N,VLIPO*%
X78512800Y-60477200D03*
X73557400Y-59945700D03*
X68693000Y-57508300D03*
%TO.N,VPCC*%
X66792000Y-61911100D03*
X70336200Y-53213000D03*
%TO.N,VSYS*%
X70102900Y-60119000D03*
X67456900Y-65877200D03*
X67707800Y-55590500D03*
X76508600Y-52335600D03*
%TO.N,GND*%
X41000000Y-76400000D03*
X41000000Y-73200000D03*
X41000000Y-70000000D03*
X41000000Y-63600000D03*
X41000000Y-60400000D03*
X41000000Y-57200000D03*
X41000000Y-54000000D03*
X41000000Y-50800000D03*
X41000000Y-47600000D03*
X41000000Y-44400000D03*
X44200000Y-76400000D03*
X44200000Y-70000000D03*
X44200000Y-60400000D03*
X44200000Y-57200000D03*
X44200000Y-54000000D03*
X44200000Y-50800000D03*
X44200000Y-47600000D03*
X44200000Y-41200000D03*
X47400000Y-76400000D03*
X47400000Y-73200000D03*
X47400000Y-70000000D03*
X47400000Y-57200000D03*
X47400000Y-54000000D03*
X47400000Y-50800000D03*
X47400000Y-47600000D03*
X47400000Y-44400000D03*
X47400000Y-41200000D03*
X50600000Y-76400000D03*
X50600000Y-73200000D03*
X50600000Y-70000000D03*
X50600000Y-63600000D03*
X50600000Y-54000000D03*
X50600000Y-50800000D03*
X50600000Y-47600000D03*
X50600000Y-44400000D03*
X50600000Y-41200000D03*
X53800000Y-76400000D03*
X53800000Y-73200000D03*
X53800000Y-44400000D03*
X53800000Y-41200000D03*
X57000000Y-76400000D03*
X57000000Y-41200000D03*
X60200000Y-76400000D03*
X60200000Y-41200000D03*
X63400000Y-76400000D03*
X63400000Y-41200000D03*
X66600000Y-76400000D03*
X66600000Y-54000000D03*
X66600000Y-41200000D03*
X69800000Y-76400000D03*
X69800000Y-41200000D03*
X73000000Y-76400000D03*
X73000000Y-41200000D03*
X76200000Y-76400000D03*
X76200000Y-41200000D03*
X79400000Y-76400000D03*
X79400000Y-47600000D03*
X79400000Y-44400000D03*
X79400000Y-41200000D03*
X82600000Y-76400000D03*
X82600000Y-47600000D03*
X82600000Y-44400000D03*
X82600000Y-41200000D03*
X85800000Y-76400000D03*
X85800000Y-47600000D03*
X85800000Y-44400000D03*
X85800000Y-41200000D03*
X89000000Y-76400000D03*
X89000000Y-70000000D03*
X89000000Y-66800000D03*
X89000000Y-50800000D03*
X89000000Y-44400000D03*
X89000000Y-41200000D03*
X92200000Y-76400000D03*
X92200000Y-70000000D03*
X92200000Y-66800000D03*
X92200000Y-50800000D03*
X92200000Y-47600000D03*
X92200000Y-41200000D03*
X95400000Y-76400000D03*
X95400000Y-70000000D03*
X95400000Y-66800000D03*
X95400000Y-54000000D03*
X95400000Y-47600000D03*
X95400000Y-41200000D03*
X98600000Y-76400000D03*
X98600000Y-70000000D03*
X98600000Y-66800000D03*
X98600000Y-54000000D03*
X98600000Y-47600000D03*
X98600000Y-41200000D03*
X101800000Y-76400000D03*
X101800000Y-73200000D03*
X101800000Y-66800000D03*
X101800000Y-54000000D03*
X101800000Y-47600000D03*
X101800000Y-41200000D03*
X105000000Y-76400000D03*
X105000000Y-73200000D03*
X105000000Y-70000000D03*
X105000000Y-54000000D03*
X105000000Y-47600000D03*
X105000000Y-41200000D03*
X108200000Y-76400000D03*
X108200000Y-73200000D03*
X108200000Y-70000000D03*
X108200000Y-66800000D03*
X108200000Y-54000000D03*
X108200000Y-47600000D03*
X108200000Y-41200000D03*
X111400000Y-76400000D03*
X111400000Y-73200000D03*
X111400000Y-70000000D03*
X111400000Y-57200000D03*
X111400000Y-54000000D03*
X111400000Y-50800000D03*
X111400000Y-44400000D03*
X111400000Y-41200000D03*
X114600000Y-76400000D03*
X114600000Y-73200000D03*
X114600000Y-70000000D03*
X114600000Y-57200000D03*
X114600000Y-54000000D03*
X114600000Y-47600000D03*
X114600000Y-44400000D03*
X114600000Y-41200000D03*
X117800000Y-76400000D03*
X117800000Y-70000000D03*
X117800000Y-66800000D03*
X117800000Y-63600000D03*
X117800000Y-60400000D03*
X117800000Y-57200000D03*
X117800000Y-54000000D03*
X117800000Y-50800000D03*
X117800000Y-47600000D03*
X117800000Y-44400000D03*
X117800000Y-41200000D03*
X121000000Y-76400000D03*
X121000000Y-70000000D03*
X121000000Y-66800000D03*
X121000000Y-63600000D03*
X121000000Y-60400000D03*
X121000000Y-57200000D03*
X121000000Y-54000000D03*
X121000000Y-50800000D03*
X121000000Y-47600000D03*
X121000000Y-44400000D03*
X121000000Y-41200000D03*
%TD*%
%TO.N,BATG*%
D18*
X82851700Y-68665700D02*
X82851700Y-63549100D01*
X82851700Y-63549100D02*
X83450800Y-62950000D01*
%TO.N,BATRAW*%
D19*
X115700000Y-62450000D02*
X113249800Y-62450000D01*
X113249800Y-62450000D02*
X109855500Y-59055700D01*
X109855500Y-59055700D02*
X90166900Y-59055700D01*
X90166900Y-59055700D02*
X85322600Y-63900000D01*
%TO.N,BTN*%
D18*
X54470000Y-65595000D02*
X55158000Y-64907000D01*
X55158000Y-64907000D02*
X55158000Y-50192000D01*
X55158000Y-50192000D02*
X58500000Y-46850000D01*
%TO.N,CC1*%
X72446700Y-45486000D02*
X72639000Y-45678300D01*
X72639000Y-45678300D02*
X72639000Y-48433300D01*
X72639000Y-48433300D02*
X72639100Y-48433300D01*
X72639100Y-48433300D02*
X73006700Y-48800900D01*
X73006700Y-48800900D02*
X73006700Y-55113300D01*
X73006700Y-55113300D02*
X71360100Y-56759900D01*
X71360100Y-56759900D02*
X71360100Y-60307400D01*
X71360100Y-60307400D02*
X68873900Y-62793600D01*
X68873900Y-62793600D02*
X68873900Y-67106600D01*
X68873900Y-67106600D02*
X61869500Y-74111000D01*
X61869500Y-74111000D02*
X61065600Y-74111000D01*
X61065600Y-74111000D02*
X58851800Y-71897200D01*
X58851800Y-71897200D02*
X58851800Y-71312700D01*
X58851800Y-71312700D02*
X58851700Y-71312700D01*
%TO.N,CC2*%
X69570000Y-45480700D02*
X69570000Y-46924500D01*
X69570000Y-46924500D02*
X72265000Y-49619500D01*
X72265000Y-49619500D02*
X72265000Y-54714400D01*
X72265000Y-54714400D02*
X69374400Y-57605000D01*
X69374400Y-57605000D02*
X69374400Y-61298500D01*
X69374400Y-61298500D02*
X68054200Y-62618700D01*
X68054200Y-62618700D02*
X68054200Y-66562400D01*
X68054200Y-66562400D02*
X63313900Y-71302700D01*
%TO.N,COL*%
X96752000Y-48898300D02*
X91160900Y-54489400D01*
X91160900Y-54489400D02*
X82454100Y-54489400D01*
X82454100Y-54489400D02*
X76706800Y-48742100D01*
X76706800Y-48742100D02*
X76706800Y-44853000D01*
X76706800Y-44853000D02*
X76129800Y-44276000D01*
X76129800Y-44276000D02*
X57196500Y-44276000D01*
X57196500Y-44276000D02*
X54606300Y-46866200D01*
X54606300Y-46866200D02*
X54606300Y-57864900D01*
%TO.N,EN*%
X100500000Y-43750000D02*
X92887300Y-43750000D01*
X92887300Y-43750000D02*
X82699700Y-53937600D01*
X59161700Y-64303400D02*
X58798900Y-63940600D01*
X58798900Y-63940600D02*
X58798900Y-62227200D01*
X58798900Y-62227200D02*
X59122300Y-61903800D01*
X59122300Y-61903800D02*
X59122300Y-53475700D01*
X59122300Y-53475700D02*
X64061000Y-48537000D01*
X64061000Y-48537000D02*
X66474600Y-48537000D01*
X66474600Y-48537000D02*
X71706000Y-53768400D01*
X100500000Y-43750000D02*
X101351700Y-43750000D01*
X104500000Y-43750000D02*
X103373300Y-44876700D01*
X103373300Y-44876700D02*
X101733200Y-44876700D01*
X101733200Y-44876700D02*
X101351700Y-44495200D01*
X101351700Y-44495200D02*
X101351700Y-43750000D01*
%TO.N,FB*%
X60923700Y-56062800D02*
X63241600Y-58380700D01*
X63241600Y-58380700D02*
X63241600Y-66531100D01*
X63241600Y-66531100D02*
X63552200Y-66841700D01*
%TO.N,GND*%
X77240000Y-72630000D02*
X77240000Y-64180400D01*
X77240000Y-64180400D02*
X74959500Y-61899900D01*
X77791100Y-55812500D02*
X77791100Y-59068300D01*
X77791100Y-59068300D02*
X74959500Y-61899900D01*
X57351700Y-46850000D02*
X57351700Y-46104800D01*
X57351700Y-46104800D02*
X57733200Y-45723300D01*
X57733200Y-45723300D02*
X59223800Y-45723300D01*
X59223800Y-45723300D02*
X60897500Y-47397000D01*
X60897500Y-47397000D02*
X60897500Y-47521900D01*
X61325000Y-64890000D02*
X61325000Y-73046700D01*
X61325000Y-73046700D02*
X61473800Y-73195500D01*
X72599000Y-61899900D02*
X74959500Y-61899900D01*
X72599000Y-61898000D02*
X71349000Y-61898000D01*
X75640000Y-47051700D02*
X75956900Y-47368600D01*
X75956900Y-47368600D02*
X75956900Y-52564000D01*
X75956900Y-52564000D02*
X76391600Y-52998700D01*
X76391600Y-52998700D02*
X76391700Y-52998700D01*
X76391700Y-52998700D02*
X76391700Y-54413100D01*
X76391700Y-54413100D02*
X77791100Y-55812500D01*
X56500000Y-46850000D02*
X57351700Y-46850000D01*
X102500000Y-43750000D02*
X103351700Y-43750000D01*
X106500000Y-43750000D02*
X105648300Y-43750000D01*
X105648300Y-43750000D02*
X105648300Y-43004800D01*
X105648300Y-43004800D02*
X105266800Y-42623300D01*
X105266800Y-42623300D02*
X103733200Y-42623300D01*
X103733200Y-42623300D02*
X103351700Y-43004800D01*
X103351700Y-43004800D02*
X103351700Y-43750000D01*
X106500000Y-43750000D02*
X107351700Y-43750000D01*
X115700000Y-60450000D02*
X115700000Y-52098300D01*
X115700000Y-52098300D02*
X107351700Y-43750000D01*
X44310000Y-65595000D02*
X47739500Y-62165500D01*
X47739500Y-62165500D02*
X53200100Y-62165500D01*
X75640000Y-45750000D02*
X75640000Y-47051700D01*
X67000000Y-45750000D02*
X67000000Y-47051700D01*
X67000000Y-47051700D02*
X61367700Y-47051700D01*
X61367700Y-47051700D02*
X60897500Y-47521900D01*
X61325000Y-64890000D02*
X61325000Y-63540000D01*
X62675000Y-63540000D02*
X61325000Y-63540000D01*
X62675000Y-64890000D02*
X62675000Y-63540000D01*
X72599000Y-61899900D02*
X72599000Y-61898000D01*
X72599000Y-63148000D02*
X72599000Y-61899900D01*
X71349000Y-63148000D02*
X71349000Y-61898000D01*
%TO.N,IN*%
X57010000Y-65595000D02*
X58426400Y-64178600D01*
X58426400Y-64178600D02*
X58426400Y-56197700D01*
X58426400Y-56197700D02*
X58570500Y-56053600D01*
%TO.N,LBI*%
X63809200Y-62287600D02*
X63809200Y-61507000D01*
X63809200Y-61507000D02*
X65850000Y-59466200D01*
%TO.N,LBO*%
X72455000Y-49029400D02*
X72639000Y-49213400D01*
X72639000Y-49213400D02*
X72639000Y-54983600D01*
X72639000Y-54983600D02*
X70946600Y-56676000D01*
X70946600Y-56676000D02*
X70946600Y-60223600D01*
X70946600Y-60223600D02*
X68495100Y-62675100D01*
X68495100Y-62675100D02*
X68495100Y-66988100D01*
X68495100Y-66988100D02*
X61723900Y-73759300D01*
X61723900Y-73759300D02*
X61211200Y-73759300D01*
X61211200Y-73759300D02*
X60868400Y-73416500D01*
X60868400Y-73416500D02*
X60868400Y-70510900D01*
X60868400Y-70510900D02*
X59157900Y-68800400D01*
X59157900Y-68800400D02*
X59157900Y-65190000D01*
%TO.N,PROG3*%
X74661300Y-63984900D02*
X75847300Y-65170900D01*
X75847300Y-65170900D02*
X76543300Y-65170900D01*
%TO.N,SCL*%
X51930000Y-65595000D02*
X60456600Y-74121600D01*
X60456600Y-74121600D02*
X60578900Y-74121600D01*
X60578900Y-74121600D02*
X60920000Y-74462700D01*
X60920000Y-74462700D02*
X62015100Y-74462700D01*
X62015100Y-74462700D02*
X62356200Y-74121600D01*
X62356200Y-74121600D02*
X77824000Y-74121600D01*
X77824000Y-74121600D02*
X78386100Y-73559500D01*
X78386100Y-73559500D02*
X78386100Y-72452200D01*
X78386100Y-72452200D02*
X80264200Y-70574200D01*
X79475100Y-58900000D02*
X79475100Y-58031400D01*
X79475100Y-58031400D02*
X79363500Y-57919800D01*
X85132300Y-58900000D02*
X85132300Y-61870700D01*
X85132300Y-61870700D02*
X84715800Y-62287200D01*
X84715800Y-62287200D02*
X84715800Y-64111000D01*
X84715800Y-64111000D02*
X85082700Y-64477900D01*
X85082700Y-64477900D02*
X105214600Y-64477900D01*
X105214600Y-64477900D02*
X106727500Y-62965000D01*
X80264200Y-70574200D02*
X79475100Y-69785100D01*
X79475100Y-69785100D02*
X79475100Y-58900000D01*
X79475100Y-58900000D02*
X85132300Y-58900000D01*
X85132300Y-58900000D02*
X88910300Y-58900000D01*
X82320000Y-72630000D02*
X80264200Y-70574200D01*
%TO.N,SDA*%
X49390000Y-65595000D02*
X58961100Y-75166100D01*
X58961100Y-75166100D02*
X82323900Y-75166100D01*
X82323900Y-75166100D02*
X84860000Y-72630000D01*
X84551200Y-60060700D02*
X84551200Y-61779600D01*
X84551200Y-61779600D02*
X84364100Y-61966700D01*
X84364100Y-61966700D02*
X84364100Y-64420800D01*
X84364100Y-64420800D02*
X84860000Y-64916700D01*
X84860000Y-64916700D02*
X84860000Y-72630000D01*
%TO.N,SPKP*%
X114300000Y-67850000D02*
X113448300Y-67850000D01*
X105486500Y-59818200D02*
X113448300Y-67780000D01*
X113448300Y-67780000D02*
X113448300Y-67850000D01*
%TO.N,THERM*%
X70036800Y-64114400D02*
X70036800Y-66609800D01*
X70036800Y-66609800D02*
X74674600Y-71247600D01*
%TO.N,V33*%
X46850000Y-65595000D02*
X47985100Y-64459900D01*
X47985100Y-64459900D02*
X49825600Y-64459900D01*
X49825600Y-64459900D02*
X50660000Y-65294300D01*
X50660000Y-65294300D02*
X50660000Y-65923200D01*
X50660000Y-65923200D02*
X59551200Y-74814400D01*
X59551200Y-74814400D02*
X77667500Y-74814400D01*
X77667500Y-74814400D02*
X79780000Y-72701900D01*
X79780000Y-72701900D02*
X79780000Y-72630000D01*
X79780000Y-72701900D02*
X80809800Y-73731700D01*
X80809800Y-73731700D02*
X82798100Y-73731700D01*
X82798100Y-73731700D02*
X83495200Y-73034600D01*
X83495200Y-73034600D02*
X83495200Y-66134200D01*
X83495200Y-66134200D02*
X84012400Y-65617000D01*
X84012400Y-65617000D02*
X84012400Y-62430000D01*
X84012400Y-62430000D02*
X82672800Y-61090400D01*
X82672800Y-61090400D02*
X82672800Y-60062300D01*
%TO.N,V5*%
D20*
X59876100Y-55934200D02*
X59876100Y-59635400D01*
X59876100Y-59635400D02*
X60636400Y-60395700D01*
X60636400Y-60395700D02*
X60636400Y-68100000D01*
X64310600Y-49100500D02*
X59876100Y-53535000D01*
X59876100Y-53535000D02*
X59876100Y-55934200D01*
X41770000Y-65595000D02*
X42971700Y-65595000D01*
X42971700Y-65595000D02*
X42971700Y-65219500D01*
X42971700Y-65219500D02*
X52384200Y-55807000D01*
X52384200Y-55807000D02*
X53994600Y-55807000D01*
%TO.N,VBUS*%
D18*
X69425600Y-71904000D02*
X74829200Y-71904000D01*
X74829200Y-71904000D02*
X76294900Y-70438300D01*
X76294900Y-70438300D02*
X76294900Y-68643900D01*
X68959800Y-73565100D02*
X69425600Y-73099300D01*
X69425600Y-73099300D02*
X69425600Y-71904000D01*
X69425600Y-71904000D02*
X69425600Y-66219200D01*
X69425600Y-66219200D02*
X69425600Y-62739200D01*
X69425600Y-62739200D02*
X71912000Y-60252800D01*
X71912000Y-60252800D02*
X71912000Y-57448800D01*
X71912000Y-57448800D02*
X73556900Y-55803900D01*
X73556900Y-55803900D02*
X73556900Y-47854800D01*
%TO.N,VPCC*%
X66792000Y-61911100D02*
X66792000Y-55717800D01*
X66792000Y-55717800D02*
X69296800Y-53213000D01*
X69296800Y-53213000D02*
X70336200Y-53213000D01*
%TO.N,VSYS*%
D20*
X67707800Y-55590500D02*
X67456900Y-55841400D01*
X67456900Y-55841400D02*
X67456900Y-65877200D01*
%TD*%
M02*
