%TF.GenerationSoftware,KiCad,Pcbnew,10.0.6*%
%TF.CreationDate,2026-09-16T21:24:21+09:00*%
%TF.ProjectId,katanori61,6b617461-6e6f-4726-9936-312e6b696361,rev?*%
%TF.SameCoordinates,Original*%
%TF.FileFunction,Legend,Bot*%
%TF.FilePolarity,Positive*%
%FSLAX46Y46*%
G04 Gerber Fmt 4.6, Leading zero omitted, Abs format (unit mm)*
G04 Created by KiCad (PCBNEW 10.0.6) date 2026-09-16 21:24:21*
%MOMM*%
%LPD*%
G01*
G04 APERTURE LIST*
%ADD10C,0.150000*%
G04 APERTURE END LIST*
D10*
X117983332Y-64231533D02*
X116916666Y-64231533D01*
X115983332Y-64231533D02*
X114916666Y-64231533D01*
X115449999Y-64764866D02*
X115449999Y-63698200D01*
X111877506Y-59629819D02*
X111877506Y-60344104D01*
X111877506Y-60344104D02*
X111925125Y-60486961D01*
X111925125Y-60486961D02*
X112020363Y-60582200D01*
X112020363Y-60582200D02*
X112163220Y-60629819D01*
X112163220Y-60629819D02*
X112258458Y-60629819D01*
X110877506Y-60629819D02*
X111448934Y-60629819D01*
X111163220Y-60629819D02*
X111163220Y-59629819D01*
X111163220Y-59629819D02*
X111258458Y-59772676D01*
X111258458Y-59772676D02*
X111353696Y-59867914D01*
X111353696Y-59867914D02*
X111448934Y-59915533D01*
X110258458Y-59629819D02*
X110163220Y-59629819D01*
X110163220Y-59629819D02*
X110067982Y-59677438D01*
X110067982Y-59677438D02*
X110020363Y-59725057D01*
X110020363Y-59725057D02*
X109972744Y-59820295D01*
X109972744Y-59820295D02*
X109925125Y-60010771D01*
X109925125Y-60010771D02*
X109925125Y-60248866D01*
X109925125Y-60248866D02*
X109972744Y-60439342D01*
X109972744Y-60439342D02*
X110020363Y-60534580D01*
X110020363Y-60534580D02*
X110067982Y-60582200D01*
X110067982Y-60582200D02*
X110163220Y-60629819D01*
X110163220Y-60629819D02*
X110258458Y-60629819D01*
X110258458Y-60629819D02*
X110353696Y-60582200D01*
X110353696Y-60582200D02*
X110401315Y-60534580D01*
X110401315Y-60534580D02*
X110448934Y-60439342D01*
X110448934Y-60439342D02*
X110496553Y-60248866D01*
X110496553Y-60248866D02*
X110496553Y-60010771D01*
X110496553Y-60010771D02*
X110448934Y-59820295D01*
X110448934Y-59820295D02*
X110401315Y-59725057D01*
X110401315Y-59725057D02*
X110353696Y-59677438D01*
X110353696Y-59677438D02*
X110258458Y-59629819D01*
X108401315Y-60106009D02*
X108258458Y-60153628D01*
X108258458Y-60153628D02*
X108210839Y-60201247D01*
X108210839Y-60201247D02*
X108163220Y-60296485D01*
X108163220Y-60296485D02*
X108163220Y-60439342D01*
X108163220Y-60439342D02*
X108210839Y-60534580D01*
X108210839Y-60534580D02*
X108258458Y-60582200D01*
X108258458Y-60582200D02*
X108353696Y-60629819D01*
X108353696Y-60629819D02*
X108734648Y-60629819D01*
X108734648Y-60629819D02*
X108734648Y-59629819D01*
X108734648Y-59629819D02*
X108401315Y-59629819D01*
X108401315Y-59629819D02*
X108306077Y-59677438D01*
X108306077Y-59677438D02*
X108258458Y-59725057D01*
X108258458Y-59725057D02*
X108210839Y-59820295D01*
X108210839Y-59820295D02*
X108210839Y-59915533D01*
X108210839Y-59915533D02*
X108258458Y-60010771D01*
X108258458Y-60010771D02*
X108306077Y-60058390D01*
X108306077Y-60058390D02*
X108401315Y-60106009D01*
X108401315Y-60106009D02*
X108734648Y-60106009D01*
X107782267Y-60344104D02*
X107306077Y-60344104D01*
X107877505Y-60629819D02*
X107544172Y-59629819D01*
X107544172Y-59629819D02*
X107210839Y-60629819D01*
X107020362Y-59629819D02*
X106448934Y-59629819D01*
X106734648Y-60629819D02*
X106734648Y-59629819D01*
%TO.C,J10*%
X119810000Y-57515000D02*
X119810000Y-58765000D01*
X119510000Y-59125000D02*
X118900000Y-59125000D01*
X119510000Y-60425000D02*
X118900000Y-60425000D01*
X118900000Y-58425000D02*
X118900000Y-61925000D01*
X118900000Y-61925000D02*
X114000000Y-61925000D01*
X118560000Y-57515000D02*
X119810000Y-57515000D01*
X118050000Y-57615000D02*
X118050000Y-57815000D01*
X117750000Y-57615000D02*
X118050000Y-57615000D01*
X117750000Y-57715000D02*
X118050000Y-57715000D01*
X117750000Y-57815000D02*
X117750000Y-57615000D01*
X116950000Y-57815000D02*
X116950000Y-58425000D01*
X116950000Y-58425000D02*
X118900000Y-58425000D01*
X116550000Y-61425000D02*
X116350000Y-61425000D01*
X116550000Y-61925000D02*
X116550000Y-61425000D01*
X116450000Y-61925000D02*
X116450000Y-61425000D01*
X116350000Y-61425000D02*
X116350000Y-61925000D01*
X115950000Y-58425000D02*
X115950000Y-57815000D01*
X114000000Y-58425000D02*
X115950000Y-58425000D01*
X114000000Y-61925000D02*
X114000000Y-58425000D01*
X113390000Y-59125000D02*
X114000000Y-59125000D01*
X113390000Y-60425000D02*
X114000000Y-60425000D01*
X113390000Y-57815000D02*
X119510000Y-57815000D01*
X119510000Y-62535000D01*
X113390000Y-62535000D01*
X113390000Y-57815000D01*
%TD*%
M02*
