M48
; DRILL file KiCad 10.0.6 date 2026-09-19T22:53:03
; FORMAT={-:-/ absolute / metric / decimal}
; #@! TF.CreationDate,2026-09-19T22:53:03+09:00
; #@! TF.GenerationSoftware,Kicad,Pcbnew,10.0.6
; #@! TF.FileFunction,Plated,1,4,PTH
FMAT,2
METRIC
; #@! TA.AperFunction,Plated,PTH,ViaDrill
T1C0.300
; #@! TA.AperFunction,Plated,PTH,ComponentDrill
T2C0.600
; #@! TA.AperFunction,Plated,PTH,ComponentDrill
T3C0.750
; #@! TA.AperFunction,Plated,PTH,ComponentDrill
T4C1.000
%
G90
G05
T1
X41.0Y-44.4
X41.0Y-47.6
X41.0Y-50.8
X41.0Y-54.0
X41.0Y-57.2
X41.0Y-60.4
X41.0Y-70.0
X41.0Y-73.2
X44.2Y-41.2
X44.2Y-47.6
X44.2Y-50.8
X44.2Y-76.4
X47.4Y-41.2
X47.4Y-44.4
X47.4Y-47.6
X47.4Y-54.0
X47.4Y-57.2
X47.4Y-60.4
X47.4Y-73.2
X47.4Y-76.4
X50.6Y-41.2
X50.6Y-44.4
X50.6Y-73.2
X50.6Y-76.4
X53.8Y-41.2
X53.8Y-50.8
X53.8Y-54.0
X53.8Y-63.6
X53.8Y-73.2
X53.8Y-76.4
X55.121Y-61.901
X57.0Y-41.2
X57.0Y-47.6
X57.0Y-50.8
X57.0Y-73.2
X57.0Y-76.4
X57.001Y-58.85
X57.148Y-62.996
X59.159Y-63.664
X59.373Y-61.559
X60.2Y-41.2
X60.2Y-44.4
X60.2Y-47.6
X60.2Y-73.2
X60.2Y-76.4
X61.325Y-62.425
X61.325Y-63.775
X62.069Y-55.565
X62.675Y-62.425
X62.675Y-63.775
X62.75Y-57.175
X63.4Y-41.2
X63.4Y-76.4
X64.325Y-70.39
X66.25Y-55.65
X66.6Y-41.2
X66.6Y-76.4
X67.275Y-70.4
X69.0Y-61.095
X69.8Y-41.2
X69.8Y-76.4
X70.681Y-62.1
X70.962Y-54.939
X71.152Y-59.44
X71.644Y-53.9
X72.225Y-58.65
X72.875Y-61.475
X72.875Y-62.725
X72.95Y-69.0
X73.0Y-41.2
X73.0Y-76.4
X73.5Y-55.75
X74.0Y-65.001
X74.125Y-61.475
X74.125Y-62.725
X75.882Y-53.9
X76.2Y-76.4
X77.05Y-62.1
X77.162Y-67.875
X77.35Y-57.075
X78.562Y-48.095
X78.789Y-69.099
X79.341Y-58.484
X79.4Y-41.2
X79.4Y-44.4
X79.4Y-76.4
X79.85Y-52.675
X79.9Y-51.525
X80.445Y-58.801
X82.0Y-51.525
X82.6Y-41.2
X82.6Y-44.4
X82.6Y-76.4
X83.462Y-47.583
X83.969Y-68.825
X84.052Y-61.021
X85.255Y-62.45
X85.8Y-76.4
X85.882Y-69.8
X87.317Y-54.388
X87.495Y-63.4
X89.0Y-41.2
X89.0Y-70.0
X89.0Y-76.4
X89.609Y-60.027
X92.2Y-41.2
X92.2Y-50.8
X92.2Y-54.0
X92.2Y-70.0
X92.2Y-76.4
X93.448Y-58.6
X94.278Y-45.59
X95.4Y-41.2
X95.4Y-54.0
X95.4Y-76.4
X97.465Y-48.13
X97.736Y-61.592
X97.742Y-66.545
X98.6Y-41.2
X98.6Y-50.8
X98.6Y-54.0
X98.6Y-76.4
X101.8Y-41.2
X101.8Y-47.6
X101.8Y-54.0
X101.8Y-57.2
X101.8Y-66.8
X101.8Y-76.4
X105.0Y-41.2
X105.0Y-47.6
X105.0Y-50.8
X105.0Y-57.2
X105.0Y-60.4
X105.0Y-66.8
X105.0Y-76.4
X108.2Y-41.2
X108.2Y-50.8
X108.2Y-60.4
X108.2Y-66.8
X108.2Y-76.4
X109.657Y-62.306
X109.681Y-64.331
X111.4Y-41.2
X111.4Y-44.4
X111.4Y-57.2
X111.4Y-63.6
X111.4Y-70.0
X111.4Y-76.4
X114.6Y-41.2
X114.6Y-44.4
X114.6Y-47.6
X114.6Y-57.2
X114.6Y-70.0
X114.6Y-73.2
X114.6Y-76.4
X117.8Y-41.2
X117.8Y-44.4
X117.8Y-47.6
X117.8Y-50.8
X117.8Y-66.8
X117.8Y-70.0
X117.8Y-76.4
X121.0Y-44.4
X121.0Y-47.6
X121.0Y-50.8
X121.0Y-54.0
X121.0Y-57.2
X121.0Y-60.4
X121.0Y-63.6
X121.0Y-66.8
X121.0Y-70.0
T3
X51.95Y-59.0
X51.95Y-61.0
X56.5Y-43.75
X58.5Y-43.75
X102.7Y-43.75
X104.7Y-43.75
X114.3Y-67.85
X115.7Y-60.45
X115.7Y-62.45
X116.3Y-67.85
T4
X41.77Y-65.295
X44.31Y-65.295
X46.85Y-65.295
X49.39Y-65.295
X51.93Y-65.295
X54.47Y-65.295
X57.01Y-65.295
X62.45Y-45.0
X62.45Y-47.0
X64.5Y-48.0
X66.5Y-48.0
X68.55Y-45.0
X68.55Y-47.0
X77.24Y-72.63
X79.78Y-72.63
X82.32Y-72.63
X84.86Y-72.63
T2
X76.692Y-41.6G85X76.692Y-41.0
G05
X76.692Y-46.03G85X76.692Y-44.93
G05
X85.332Y-41.6G85X85.332Y-41.0
G05
X85.332Y-46.03G85X85.332Y-44.93
G05
M30
