%TF.GenerationSoftware,KiCad,Pcbnew,10.0.6*%
%TF.CreationDate,2026-09-20T15:51:54+09:00*%
%TF.ProjectId,katanori61,6b617461-6e6f-4726-9936-312e6b696361,rev?*%
%TF.SameCoordinates,Original*%
%TF.FileFunction,Copper,L2,Inr*%
%TF.FilePolarity,Positive*%
%FSLAX46Y46*%
G04 Gerber Fmt 4.6, Leading zero omitted, Abs format (unit mm)*
G04 Created by KiCad (PCBNEW 10.0.6) date 2026-09-20 15:51:54*
%MOMM*%
%LPD*%
G01*
G04 APERTURE LIST*
G04 Aperture macros list*
%AMRoundRect*
0 Rectangle with rounded corners*
0 $1 Rounding radius*
0 $2 $3 $4 $5 $6 $7 $8 $9 X,Y pos of 4 corners*
0 Add a 4 corners polygon primitive as box body*
4,1,4,$2,$3,$4,$5,$6,$7,$8,$9,$2,$3,0*
0 Add four circle primitives for the rounded corners*
1,1,$1+$1,$2,$3*
1,1,$1+$1,$4,$5*
1,1,$1+$1,$6,$7*
1,1,$1+$1,$8,$9*
0 Add four rect primitives between the rounded corners*
20,1,$1+$1,$2,$3,$4,$5,0*
20,1,$1+$1,$4,$5,$6,$7,0*
20,1,$1+$1,$6,$7,$8,$9,0*
20,1,$1+$1,$8,$9,$2,$3,0*%
G04 Aperture macros list end*
%TA.AperFunction,ComponentPad*%
%ADD10C,1.600000*%
%TD*%
%TA.AperFunction,ComponentPad*%
%ADD11RoundRect,0.250000X-0.350000X-0.625000X0.350000X-0.625000X0.350000X0.625000X-0.350000X0.625000X0*%
%TD*%
%TA.AperFunction,ComponentPad*%
%ADD12O,1.200000X1.750000*%
%TD*%
%TA.AperFunction,ComponentPad*%
%ADD13RoundRect,0.250000X-0.625000X0.350000X-0.625000X-0.350000X0.625000X-0.350000X0.625000X0.350000X0*%
%TD*%
%TA.AperFunction,ComponentPad*%
%ADD14O,1.750000X1.200000*%
%TD*%
%TA.AperFunction,ComponentPad*%
%ADD15R,1.700000X1.700000*%
%TD*%
%TA.AperFunction,ComponentPad*%
%ADD16C,1.700000*%
%TD*%
%TA.AperFunction,ComponentPad*%
%ADD17O,1.000000X2.100000*%
%TD*%
%TA.AperFunction,ComponentPad*%
%ADD18O,1.000000X1.600000*%
%TD*%
%TA.AperFunction,ViaPad*%
%ADD19C,0.600000*%
%TD*%
G04 APERTURE END LIST*
D10*
%TO.N,GND*%
%TO.C,SW2*%
X62450000Y-45000000D03*
%TO.N,unconnected-(SW2-COM_A-Pad2)*%
X62450000Y-47000000D03*
%TO.N,EN*%
X68550000Y-45000000D03*
%TO.N,unconnected-(SW2-B4-Pad4)*%
X68550000Y-47000000D03*
%TO.N,unconnected-(SW2-B5-Pad5)*%
X64500000Y-48000000D03*
%TO.N,unconnected-(SW2-B6-Pad6)*%
X66500000Y-48000000D03*
%TD*%
D11*
%TO.N,SPKP*%
%TO.C,J4*%
X114300000Y-67850000D03*
D12*
%TO.N,SPKM*%
X116300000Y-67850000D03*
%TD*%
D13*
%TO.N,SPKM*%
%TO.C,J5*%
X51950000Y-59000000D03*
D14*
%TO.N,SPKO*%
X51950000Y-61000000D03*
%TD*%
D11*
%TO.N,GND*%
%TO.C,J6*%
X56500000Y-43750000D03*
D12*
%TO.N,BTN*%
X58500000Y-43750000D03*
%TD*%
D11*
%TO.N,EN*%
%TO.C,J7*%
X102700000Y-43750000D03*
D12*
%TO.N,GND*%
X104700000Y-43750000D03*
%TD*%
D13*
%TO.N,GND*%
%TO.C,J10*%
X115700000Y-60450000D03*
D14*
%TO.N,BATRAW*%
X115700000Y-62450000D03*
%TD*%
D15*
%TO.N,V5*%
%TO.C,J1*%
X41770000Y-65295000D03*
D16*
%TO.N,GND*%
X44310000Y-65295000D03*
%TO.N,V33*%
X46850000Y-65295000D03*
%TO.N,SDA*%
X49390000Y-65295000D03*
%TO.N,SCL*%
X51930000Y-65295000D03*
%TO.N,BTN*%
X54470000Y-65295000D03*
%TO.N,IN*%
X57010000Y-65295000D03*
%TD*%
D15*
%TO.N,GND*%
%TO.C,J2*%
X77240000Y-72630000D03*
D16*
%TO.N,V33*%
X79780000Y-72630000D03*
%TO.N,SCL*%
X82320000Y-72630000D03*
%TO.N,SDA*%
X84860000Y-72630000D03*
%TD*%
D17*
%TO.N,GND*%
%TO.C,J13*%
X85332000Y-45480000D03*
D18*
X85332000Y-41300000D03*
D17*
X76692000Y-45480000D03*
D18*
X76692000Y-41300000D03*
%TD*%
D19*
%TO.N,GND*%
X61325000Y-62425000D03*
X61325000Y-63775000D03*
X62675000Y-62425000D03*
X62675000Y-63775000D03*
X72875000Y-61475000D03*
X72875000Y-62725000D03*
X74125000Y-61475000D03*
X74125000Y-62725000D03*
%TO.N,V5*%
X64325000Y-70390000D03*
%TO.N,BATRAW*%
X87495000Y-63400000D03*
%TO.N,VBUS*%
X78562000Y-48095000D03*
X72225000Y-58650000D03*
%TO.N,GND*%
X73500000Y-55750000D03*
X67275000Y-70400000D03*
X72950000Y-69000000D03*
X62750000Y-57175000D03*
X77350000Y-57075000D03*
X79850000Y-52675000D03*
X82750000Y-51525000D03*
X79900000Y-51525000D03*
%TO.N,EN*%
X75883500Y-53900000D03*
X59157200Y-63666100D03*
%TO.N,GND*%
X97098300Y-59735200D03*
X85888700Y-69300000D03*
X97742200Y-66544600D03*
X89611100Y-60027500D03*
X109656700Y-62306500D03*
%TO.N,IN*%
X85210700Y-61899800D03*
%TO.N,PROG1*%
X77162500Y-67875400D03*
X77050000Y-62100000D03*
%TO.N,SCL*%
X58889100Y-59500000D03*
X79681900Y-57447800D03*
%TO.N,SDA*%
X80271300Y-57999800D03*
X57148300Y-63318400D03*
%TO.N,SPKO*%
X94278300Y-45590000D03*
%TO.N,SPKP*%
X97464900Y-48130000D03*
%TO.N,V33*%
X76207100Y-60183600D03*
X81962500Y-58974900D03*
X55108900Y-62194000D03*
X97736200Y-61591800D03*
%TO.N,V5*%
X93448300Y-58600000D03*
%TO.N,VBUS*%
X83462000Y-47595000D03*
X73928800Y-64929500D03*
X70680800Y-62100000D03*
%TO.N,VSYS*%
X71038800Y-59012500D03*
X71645900Y-53900000D03*
X68691300Y-61096700D03*
%TO.N,GND*%
X41000000Y-73200000D03*
X41000000Y-70000000D03*
X41000000Y-60400000D03*
X41000000Y-57200000D03*
X41000000Y-54000000D03*
X41000000Y-50800000D03*
X41000000Y-47600000D03*
X41000000Y-44400000D03*
X44200000Y-76400000D03*
X44200000Y-60400000D03*
X44200000Y-57200000D03*
X44200000Y-54000000D03*
X44200000Y-50800000D03*
X44200000Y-47600000D03*
X44200000Y-41200000D03*
X47400000Y-76400000D03*
X47400000Y-73200000D03*
X47400000Y-60400000D03*
X47400000Y-57200000D03*
X47400000Y-54000000D03*
X47400000Y-50800000D03*
X47400000Y-47600000D03*
X47400000Y-44400000D03*
X47400000Y-41200000D03*
X50600000Y-76400000D03*
X50600000Y-73200000D03*
X50600000Y-47600000D03*
X50600000Y-44400000D03*
X50600000Y-41200000D03*
X53800000Y-76400000D03*
X53800000Y-73200000D03*
X53800000Y-54000000D03*
X53800000Y-50800000D03*
X53800000Y-44400000D03*
X53800000Y-41200000D03*
X57000000Y-76400000D03*
X57000000Y-73200000D03*
X57000000Y-50800000D03*
X57000000Y-47600000D03*
X57000000Y-41200000D03*
X60200000Y-76400000D03*
X60200000Y-73200000D03*
X60200000Y-47600000D03*
X60200000Y-44400000D03*
X60200000Y-41200000D03*
X63400000Y-76400000D03*
X63400000Y-73200000D03*
X63400000Y-54000000D03*
X63400000Y-41200000D03*
X66600000Y-76400000D03*
X66600000Y-41200000D03*
X69800000Y-76400000D03*
X69800000Y-41200000D03*
X73000000Y-76400000D03*
X73000000Y-41200000D03*
X76200000Y-76400000D03*
X76200000Y-70000000D03*
X79400000Y-76400000D03*
X79400000Y-44400000D03*
X79400000Y-41200000D03*
X82600000Y-76400000D03*
X82600000Y-44400000D03*
X82600000Y-41200000D03*
X85800000Y-76400000D03*
X89000000Y-76400000D03*
X89000000Y-54000000D03*
X89000000Y-41200000D03*
X92200000Y-76400000D03*
X92200000Y-70000000D03*
X92200000Y-54000000D03*
X92200000Y-44400000D03*
X92200000Y-41200000D03*
X95400000Y-76400000D03*
X95400000Y-66800000D03*
X95400000Y-63600000D03*
X95400000Y-54000000D03*
X95400000Y-41200000D03*
X98600000Y-76400000D03*
X98600000Y-73200000D03*
X98600000Y-54000000D03*
X98600000Y-50800000D03*
X98600000Y-41200000D03*
X101800000Y-76400000D03*
X101800000Y-73200000D03*
X101800000Y-57200000D03*
X101800000Y-54000000D03*
X101800000Y-47600000D03*
X101800000Y-41200000D03*
X105000000Y-76400000D03*
X105000000Y-73200000D03*
X105000000Y-66800000D03*
X105000000Y-60400000D03*
X105000000Y-57200000D03*
X105000000Y-50800000D03*
X105000000Y-47600000D03*
X105000000Y-41200000D03*
X108200000Y-76400000D03*
X108200000Y-66800000D03*
X108200000Y-63600000D03*
X108200000Y-60400000D03*
X108200000Y-50800000D03*
X108200000Y-41200000D03*
X111400000Y-76400000D03*
X111400000Y-70000000D03*
X111400000Y-63600000D03*
X111400000Y-57200000D03*
X111400000Y-44400000D03*
X111400000Y-41200000D03*
X114600000Y-76400000D03*
X114600000Y-73200000D03*
X114600000Y-70000000D03*
X114600000Y-57200000D03*
X114600000Y-47600000D03*
X114600000Y-44400000D03*
X114600000Y-41200000D03*
X117800000Y-76400000D03*
X117800000Y-70000000D03*
X117800000Y-66800000D03*
X117800000Y-50800000D03*
X117800000Y-47600000D03*
X117800000Y-44400000D03*
X117800000Y-41200000D03*
X121000000Y-70000000D03*
X121000000Y-66800000D03*
X121000000Y-63600000D03*
X121000000Y-60400000D03*
X121000000Y-57200000D03*
X121000000Y-54000000D03*
X121000000Y-50800000D03*
X121000000Y-47600000D03*
X121000000Y-44400000D03*
%TD*%
%TA.AperFunction,Conductor*%
%TO.N,GND*%
G36*
X118466501Y-40300506D02*
G01*
X118476438Y-40300504D01*
X118476442Y-40300506D01*
X118520800Y-40300500D01*
X118527261Y-40300668D01*
X118852010Y-40317650D01*
X118864895Y-40319003D01*
X119173683Y-40367879D01*
X119182853Y-40369331D01*
X119195552Y-40372029D01*
X119506495Y-40455319D01*
X119518832Y-40459326D01*
X119819386Y-40574674D01*
X119831228Y-40579946D01*
X119911891Y-40621041D01*
X120118064Y-40726080D01*
X120129306Y-40732570D01*
X120399283Y-40907882D01*
X120409785Y-40915512D01*
X120659954Y-41118089D01*
X120669601Y-41126775D01*
X120897224Y-41354398D01*
X120905910Y-41364045D01*
X121108487Y-41614214D01*
X121116117Y-41624716D01*
X121291429Y-41894693D01*
X121297919Y-41905935D01*
X121444050Y-42192766D01*
X121449330Y-42204626D01*
X121564671Y-42505162D01*
X121568681Y-42517508D01*
X121651970Y-42828448D01*
X121654668Y-42841146D01*
X121704994Y-43159091D01*
X121706350Y-43172002D01*
X121723330Y-43496723D01*
X121723499Y-43503212D01*
X121723493Y-43557498D01*
X121723500Y-43557585D01*
X121723500Y-73842905D01*
X121723493Y-73842997D01*
X121723499Y-73896782D01*
X121723330Y-73903272D01*
X121706347Y-74227993D01*
X121704991Y-74240904D01*
X121654663Y-74558851D01*
X121651965Y-74571548D01*
X121568676Y-74882482D01*
X121564666Y-74894829D01*
X121449319Y-75195373D01*
X121444039Y-75207232D01*
X121297913Y-75494053D01*
X121291423Y-75505295D01*
X121116107Y-75775275D01*
X121108477Y-75785777D01*
X120905901Y-76035946D01*
X120897215Y-76045593D01*
X120669593Y-76273215D01*
X120659946Y-76281901D01*
X120409777Y-76484477D01*
X120399275Y-76492107D01*
X120129295Y-76667423D01*
X120118053Y-76673913D01*
X119831232Y-76820039D01*
X119819373Y-76825319D01*
X119518829Y-76940666D01*
X119506482Y-76944676D01*
X119195548Y-77027965D01*
X119182851Y-77030663D01*
X118864904Y-77080991D01*
X118851993Y-77082347D01*
X118527272Y-77099330D01*
X118520782Y-77099499D01*
X118482799Y-77099494D01*
X118476440Y-77099494D01*
X118476439Y-77099494D01*
X118466499Y-77099493D01*
X118466413Y-77099500D01*
X43557585Y-77099500D01*
X43557498Y-77099493D01*
X43547558Y-77099494D01*
X43541210Y-77099494D01*
X43503212Y-77099499D01*
X43496723Y-77099330D01*
X43172002Y-77082350D01*
X43159091Y-77080994D01*
X42841146Y-77030668D01*
X42828448Y-77027970D01*
X42517508Y-76944681D01*
X42505162Y-76940671D01*
X42204626Y-76825330D01*
X42192766Y-76820050D01*
X41905935Y-76673919D01*
X41894693Y-76667429D01*
X41624716Y-76492117D01*
X41614214Y-76484487D01*
X41364045Y-76281910D01*
X41354398Y-76273224D01*
X41126775Y-76045601D01*
X41118089Y-76035954D01*
X40915512Y-75785785D01*
X40907882Y-75775283D01*
X40732570Y-75505306D01*
X40726080Y-75494064D01*
X40598454Y-75243555D01*
X40579946Y-75207228D01*
X40574674Y-75195386D01*
X40459325Y-74894829D01*
X40455318Y-74882491D01*
X40372029Y-74571551D01*
X40369331Y-74558853D01*
X40347102Y-74418414D01*
X40319003Y-74240895D01*
X40317650Y-74228010D01*
X40300668Y-73903261D01*
X40300500Y-73896801D01*
X40300500Y-73896782D01*
X40300506Y-73852442D01*
X40300500Y-73852423D01*
X40300500Y-73793713D01*
X42649500Y-73793713D01*
X42649500Y-74006287D01*
X42682754Y-74216243D01*
X42712645Y-74308239D01*
X42748444Y-74418414D01*
X42844951Y-74607820D01*
X42969890Y-74779786D01*
X43120213Y-74930109D01*
X43292179Y-75055048D01*
X43292181Y-75055049D01*
X43292184Y-75055051D01*
X43481588Y-75151557D01*
X43683757Y-75217246D01*
X43893713Y-75250500D01*
X43893714Y-75250500D01*
X44106286Y-75250500D01*
X44106287Y-75250500D01*
X44316243Y-75217246D01*
X44518412Y-75151557D01*
X44707816Y-75055051D01*
X44753164Y-75022104D01*
X44879786Y-74930109D01*
X44879788Y-74930106D01*
X44879792Y-74930104D01*
X45030104Y-74779792D01*
X45030106Y-74779788D01*
X45030109Y-74779786D01*
X45155048Y-74607820D01*
X45155047Y-74607820D01*
X45155051Y-74607816D01*
X45251557Y-74418412D01*
X45317246Y-74216243D01*
X45350500Y-74006287D01*
X45350500Y-73885713D01*
X108349500Y-73885713D01*
X108349500Y-74098286D01*
X108370043Y-74227993D01*
X108382754Y-74308243D01*
X108418550Y-74418412D01*
X108448444Y-74510414D01*
X108544951Y-74699820D01*
X108669890Y-74871786D01*
X108820213Y-75022109D01*
X108992179Y-75147048D01*
X108992181Y-75147049D01*
X108992184Y-75147051D01*
X109181588Y-75243557D01*
X109383757Y-75309246D01*
X109593713Y-75342500D01*
X109593714Y-75342500D01*
X109806286Y-75342500D01*
X109806287Y-75342500D01*
X110016243Y-75309246D01*
X110218412Y-75243557D01*
X110407816Y-75147051D01*
X110429789Y-75131086D01*
X110579786Y-75022109D01*
X110579788Y-75022106D01*
X110579792Y-75022104D01*
X110730104Y-74871792D01*
X110730106Y-74871788D01*
X110730109Y-74871786D01*
X110855048Y-74699820D01*
X110855047Y-74699820D01*
X110855051Y-74699816D01*
X110951557Y-74510412D01*
X111017246Y-74308243D01*
X111050500Y-74098287D01*
X111050500Y-73885713D01*
X111035929Y-73793713D01*
X118003500Y-73793713D01*
X118003500Y-74006287D01*
X118036754Y-74216243D01*
X118066645Y-74308239D01*
X118102444Y-74418414D01*
X118198951Y-74607820D01*
X118323890Y-74779786D01*
X118474213Y-74930109D01*
X118646179Y-75055048D01*
X118646181Y-75055049D01*
X118646184Y-75055051D01*
X118835588Y-75151557D01*
X119037757Y-75217246D01*
X119247713Y-75250500D01*
X119247714Y-75250500D01*
X119460286Y-75250500D01*
X119460287Y-75250500D01*
X119670243Y-75217246D01*
X119872412Y-75151557D01*
X120061816Y-75055051D01*
X120107164Y-75022104D01*
X120233786Y-74930109D01*
X120233788Y-74930106D01*
X120233792Y-74930104D01*
X120384104Y-74779792D01*
X120384106Y-74779788D01*
X120384109Y-74779786D01*
X120509048Y-74607820D01*
X120509047Y-74607820D01*
X120509051Y-74607816D01*
X120605557Y-74418412D01*
X120671246Y-74216243D01*
X120704500Y-74006287D01*
X120704500Y-73793713D01*
X120671246Y-73583757D01*
X120605557Y-73381588D01*
X120509051Y-73192184D01*
X120509049Y-73192181D01*
X120509048Y-73192179D01*
X120384109Y-73020213D01*
X120233786Y-72869890D01*
X120061820Y-72744951D01*
X119872414Y-72648444D01*
X119872413Y-72648443D01*
X119872412Y-72648443D01*
X119670243Y-72582754D01*
X119670241Y-72582753D01*
X119670240Y-72582753D01*
X119508957Y-72557208D01*
X119460287Y-72549500D01*
X119247713Y-72549500D01*
X119199042Y-72557208D01*
X119037760Y-72582753D01*
X118835585Y-72648444D01*
X118646179Y-72744951D01*
X118474213Y-72869890D01*
X118323890Y-73020213D01*
X118198951Y-73192179D01*
X118102444Y-73381585D01*
X118036753Y-73583760D01*
X118021510Y-73680000D01*
X118003500Y-73793713D01*
X111035929Y-73793713D01*
X111017246Y-73675757D01*
X110951557Y-73473588D01*
X110855051Y-73284184D01*
X110855049Y-73284181D01*
X110855048Y-73284179D01*
X110730109Y-73112213D01*
X110579786Y-72961890D01*
X110407820Y-72836951D01*
X110218414Y-72740444D01*
X110218413Y-72740443D01*
X110218412Y-72740443D01*
X110016243Y-72674754D01*
X110016241Y-72674753D01*
X110016240Y-72674753D01*
X109850123Y-72648443D01*
X109806287Y-72641500D01*
X109593713Y-72641500D01*
X109549877Y-72648443D01*
X109383760Y-72674753D01*
X109181585Y-72740444D01*
X108992179Y-72836951D01*
X108820213Y-72961890D01*
X108669890Y-73112213D01*
X108544951Y-73284179D01*
X108448444Y-73473585D01*
X108382753Y-73675760D01*
X108349500Y-73885713D01*
X45350500Y-73885713D01*
X45350500Y-73793713D01*
X45317246Y-73583757D01*
X45251557Y-73381588D01*
X45155051Y-73192184D01*
X45155049Y-73192181D01*
X45155048Y-73192179D01*
X45030109Y-73020213D01*
X44879786Y-72869890D01*
X44707820Y-72744951D01*
X44518415Y-72648444D01*
X44518413Y-72648443D01*
X44413241Y-72614270D01*
X44316243Y-72582754D01*
X44316241Y-72582753D01*
X44316240Y-72582753D01*
X44154957Y-72557208D01*
X44106287Y-72549500D01*
X43893713Y-72549500D01*
X43845042Y-72557208D01*
X43683760Y-72582753D01*
X43481585Y-72648444D01*
X43292179Y-72744951D01*
X43120213Y-72869890D01*
X42969890Y-73020213D01*
X42844951Y-73192179D01*
X42748444Y-73381585D01*
X42682753Y-73583760D01*
X42667510Y-73680000D01*
X42649500Y-73793713D01*
X40300500Y-73793713D01*
X40300500Y-71760297D01*
X76190000Y-71760297D01*
X76190000Y-72380000D01*
X76806988Y-72380000D01*
X76774075Y-72437007D01*
X76740000Y-72564174D01*
X76740000Y-72695826D01*
X76774075Y-72822993D01*
X76806988Y-72880000D01*
X76190000Y-72880000D01*
X76190000Y-73499702D01*
X76201602Y-73558033D01*
X76201603Y-73558034D01*
X76245808Y-73624191D01*
X76311965Y-73668396D01*
X76311966Y-73668397D01*
X76370297Y-73679999D01*
X76370301Y-73680000D01*
X76990000Y-73680000D01*
X76990000Y-73063012D01*
X77047007Y-73095925D01*
X77174174Y-73130000D01*
X77305826Y-73130000D01*
X77432993Y-73095925D01*
X77490000Y-73063012D01*
X77490000Y-73680000D01*
X78109699Y-73680000D01*
X78109702Y-73679999D01*
X78168033Y-73668397D01*
X78168034Y-73668396D01*
X78234191Y-73624191D01*
X78278396Y-73558034D01*
X78278397Y-73558033D01*
X78289999Y-73499702D01*
X78290000Y-73499699D01*
X78290000Y-72880000D01*
X77673012Y-72880000D01*
X77705925Y-72822993D01*
X77740000Y-72695826D01*
X77740000Y-72564174D01*
X77733375Y-72539448D01*
X78629500Y-72539448D01*
X78629500Y-72720551D01*
X78657829Y-72899410D01*
X78713787Y-73071636D01*
X78713788Y-73071639D01*
X78796006Y-73232997D01*
X78902441Y-73379494D01*
X78902445Y-73379499D01*
X79030500Y-73507554D01*
X79030505Y-73507558D01*
X79135385Y-73583757D01*
X79177006Y-73613996D01*
X79282484Y-73667740D01*
X79338360Y-73696211D01*
X79338363Y-73696212D01*
X79424476Y-73724191D01*
X79510591Y-73752171D01*
X79593429Y-73765291D01*
X79689449Y-73780500D01*
X79689454Y-73780500D01*
X79870551Y-73780500D01*
X79957259Y-73766765D01*
X80049409Y-73752171D01*
X80221639Y-73696211D01*
X80382994Y-73613996D01*
X80529501Y-73507553D01*
X80657553Y-73379501D01*
X80763996Y-73232994D01*
X80846211Y-73071639D01*
X80902171Y-72899409D01*
X80926635Y-72744951D01*
X80927527Y-72739321D01*
X80957456Y-72676186D01*
X81016768Y-72639255D01*
X81086630Y-72640253D01*
X81144863Y-72678863D01*
X81172473Y-72739321D01*
X81197829Y-72899410D01*
X81253787Y-73071636D01*
X81253788Y-73071639D01*
X81336006Y-73232997D01*
X81442441Y-73379494D01*
X81442445Y-73379499D01*
X81570500Y-73507554D01*
X81570505Y-73507558D01*
X81675385Y-73583757D01*
X81717006Y-73613996D01*
X81822484Y-73667740D01*
X81878360Y-73696211D01*
X81878363Y-73696212D01*
X81964476Y-73724191D01*
X82050591Y-73752171D01*
X82133429Y-73765291D01*
X82229449Y-73780500D01*
X82229454Y-73780500D01*
X82410551Y-73780500D01*
X82497259Y-73766765D01*
X82589409Y-73752171D01*
X82761639Y-73696211D01*
X82922994Y-73613996D01*
X83069501Y-73507553D01*
X83197553Y-73379501D01*
X83303996Y-73232994D01*
X83386211Y-73071639D01*
X83442171Y-72899409D01*
X83466635Y-72744951D01*
X83467527Y-72739321D01*
X83497456Y-72676186D01*
X83556768Y-72639255D01*
X83626630Y-72640253D01*
X83684863Y-72678863D01*
X83712473Y-72739321D01*
X83737829Y-72899410D01*
X83793787Y-73071636D01*
X83793788Y-73071639D01*
X83876006Y-73232997D01*
X83982441Y-73379494D01*
X83982445Y-73379499D01*
X84110500Y-73507554D01*
X84110505Y-73507558D01*
X84215385Y-73583757D01*
X84257006Y-73613996D01*
X84362484Y-73667740D01*
X84418360Y-73696211D01*
X84418363Y-73696212D01*
X84504476Y-73724191D01*
X84590591Y-73752171D01*
X84673429Y-73765291D01*
X84769449Y-73780500D01*
X84769454Y-73780500D01*
X84950551Y-73780500D01*
X85090284Y-73758368D01*
X85098800Y-73757018D01*
X85129409Y-73752171D01*
X85301639Y-73696211D01*
X85462994Y-73613996D01*
X85609501Y-73507553D01*
X85737553Y-73379501D01*
X85843996Y-73232994D01*
X85926211Y-73071639D01*
X85982171Y-72899409D01*
X86006635Y-72744951D01*
X86010500Y-72720551D01*
X86010500Y-72539448D01*
X85985245Y-72380000D01*
X85982171Y-72360591D01*
X85926211Y-72188361D01*
X85926211Y-72188360D01*
X85896474Y-72130000D01*
X85843996Y-72027006D01*
X85830396Y-72008287D01*
X85737558Y-71880505D01*
X85737554Y-71880500D01*
X85609499Y-71752445D01*
X85609494Y-71752441D01*
X85462997Y-71646006D01*
X85462996Y-71646005D01*
X85462994Y-71646004D01*
X85411300Y-71619664D01*
X85301639Y-71563788D01*
X85301636Y-71563787D01*
X85129410Y-71507829D01*
X84950551Y-71479500D01*
X84950546Y-71479500D01*
X84769454Y-71479500D01*
X84769449Y-71479500D01*
X84590589Y-71507829D01*
X84418363Y-71563787D01*
X84418360Y-71563788D01*
X84257002Y-71646006D01*
X84110505Y-71752441D01*
X84110500Y-71752445D01*
X83982445Y-71880500D01*
X83982441Y-71880505D01*
X83876006Y-72027002D01*
X83793788Y-72188360D01*
X83793787Y-72188363D01*
X83737829Y-72360589D01*
X83712473Y-72520678D01*
X83682544Y-72583813D01*
X83623232Y-72620744D01*
X83553369Y-72619746D01*
X83495137Y-72581136D01*
X83467527Y-72520678D01*
X83445245Y-72380000D01*
X83442171Y-72360591D01*
X83386211Y-72188361D01*
X83386211Y-72188360D01*
X83356474Y-72130000D01*
X83303996Y-72027006D01*
X83290396Y-72008287D01*
X83197558Y-71880505D01*
X83197554Y-71880500D01*
X83069499Y-71752445D01*
X83069494Y-71752441D01*
X82922997Y-71646006D01*
X82922996Y-71646005D01*
X82922994Y-71646004D01*
X82871300Y-71619664D01*
X82761639Y-71563788D01*
X82761636Y-71563787D01*
X82589410Y-71507829D01*
X82410551Y-71479500D01*
X82410546Y-71479500D01*
X82229454Y-71479500D01*
X82229449Y-71479500D01*
X82050589Y-71507829D01*
X81878363Y-71563787D01*
X81878360Y-71563788D01*
X81717002Y-71646006D01*
X81570505Y-71752441D01*
X81570500Y-71752445D01*
X81442445Y-71880500D01*
X81442441Y-71880505D01*
X81336006Y-72027002D01*
X81253788Y-72188360D01*
X81253787Y-72188363D01*
X81197829Y-72360589D01*
X81172473Y-72520678D01*
X81142544Y-72583813D01*
X81083232Y-72620744D01*
X81013369Y-72619746D01*
X80955137Y-72581136D01*
X80927527Y-72520678D01*
X80905245Y-72380000D01*
X80902171Y-72360591D01*
X80846211Y-72188361D01*
X80846211Y-72188360D01*
X80816474Y-72130000D01*
X80763996Y-72027006D01*
X80750396Y-72008287D01*
X80657558Y-71880505D01*
X80657554Y-71880500D01*
X80529499Y-71752445D01*
X80529494Y-71752441D01*
X80382997Y-71646006D01*
X80382996Y-71646005D01*
X80382994Y-71646004D01*
X80331300Y-71619664D01*
X80221639Y-71563788D01*
X80221636Y-71563787D01*
X80049410Y-71507829D01*
X79870551Y-71479500D01*
X79870546Y-71479500D01*
X79689454Y-71479500D01*
X79689449Y-71479500D01*
X79510589Y-71507829D01*
X79338363Y-71563787D01*
X79338360Y-71563788D01*
X79177002Y-71646006D01*
X79030505Y-71752441D01*
X79030500Y-71752445D01*
X78902445Y-71880500D01*
X78902441Y-71880505D01*
X78796006Y-72027002D01*
X78713788Y-72188360D01*
X78713787Y-72188363D01*
X78657829Y-72360589D01*
X78629500Y-72539448D01*
X77733375Y-72539448D01*
X77705925Y-72437007D01*
X77673012Y-72380000D01*
X78290000Y-72380000D01*
X78290000Y-71760301D01*
X78289999Y-71760297D01*
X78278397Y-71701966D01*
X78278396Y-71701965D01*
X78234191Y-71635808D01*
X78168034Y-71591603D01*
X78168033Y-71591602D01*
X78109702Y-71580000D01*
X77490000Y-71580000D01*
X77490000Y-72196988D01*
X77432993Y-72164075D01*
X77305826Y-72130000D01*
X77174174Y-72130000D01*
X77047007Y-72164075D01*
X76990000Y-72196988D01*
X76990000Y-71580000D01*
X76370297Y-71580000D01*
X76311966Y-71591602D01*
X76311965Y-71591603D01*
X76245808Y-71635808D01*
X76201603Y-71701965D01*
X76201602Y-71701966D01*
X76190000Y-71760297D01*
X40300500Y-71760297D01*
X40300500Y-70310943D01*
X63724500Y-70310943D01*
X63724500Y-70469056D01*
X63765423Y-70621783D01*
X63765426Y-70621790D01*
X63844475Y-70758709D01*
X63844479Y-70758714D01*
X63844480Y-70758716D01*
X63956284Y-70870520D01*
X63956286Y-70870521D01*
X63956290Y-70870524D01*
X64093209Y-70949573D01*
X64093216Y-70949577D01*
X64245943Y-70990500D01*
X64245945Y-70990500D01*
X64404055Y-70990500D01*
X64404057Y-70990500D01*
X64556784Y-70949577D01*
X64693716Y-70870520D01*
X64805520Y-70758716D01*
X64884577Y-70621784D01*
X64925500Y-70469057D01*
X64925500Y-70310943D01*
X64884577Y-70158216D01*
X64884573Y-70158209D01*
X64805524Y-70021290D01*
X64805518Y-70021282D01*
X64693717Y-69909481D01*
X64693709Y-69909475D01*
X64556790Y-69830426D01*
X64556786Y-69830424D01*
X64556784Y-69830423D01*
X64404057Y-69789500D01*
X64245943Y-69789500D01*
X64093216Y-69830423D01*
X64093209Y-69830426D01*
X63956290Y-69909475D01*
X63956282Y-69909481D01*
X63844481Y-70021282D01*
X63844475Y-70021290D01*
X63765426Y-70158209D01*
X63765423Y-70158216D01*
X63724500Y-70310943D01*
X40300500Y-70310943D01*
X40300500Y-67796343D01*
X76562000Y-67796343D01*
X76562000Y-67954456D01*
X76602923Y-68107183D01*
X76602926Y-68107190D01*
X76681975Y-68244109D01*
X76681979Y-68244114D01*
X76681980Y-68244116D01*
X76793784Y-68355920D01*
X76793786Y-68355921D01*
X76793790Y-68355924D01*
X76869489Y-68399628D01*
X76930716Y-68434977D01*
X77083443Y-68475900D01*
X77083445Y-68475900D01*
X77241555Y-68475900D01*
X77241557Y-68475900D01*
X77394284Y-68434977D01*
X77531216Y-68355920D01*
X77643020Y-68244116D01*
X77722077Y-68107184D01*
X77763000Y-67954457D01*
X77763000Y-67796343D01*
X77722077Y-67643616D01*
X77722073Y-67643609D01*
X77643024Y-67506690D01*
X77643018Y-67506682D01*
X77531217Y-67394881D01*
X77531209Y-67394875D01*
X77394290Y-67315826D01*
X77394286Y-67315824D01*
X77394284Y-67315823D01*
X77241557Y-67274900D01*
X77083443Y-67274900D01*
X76930716Y-67315823D01*
X76930709Y-67315826D01*
X76793790Y-67394875D01*
X76793782Y-67394881D01*
X76681981Y-67506682D01*
X76681975Y-67506690D01*
X76602926Y-67643609D01*
X76602923Y-67643616D01*
X76562000Y-67796343D01*
X40300500Y-67796343D01*
X40300500Y-67181898D01*
X113399500Y-67181898D01*
X113399500Y-68518102D01*
X113403516Y-68551541D01*
X113410122Y-68606561D01*
X113465639Y-68747343D01*
X113557077Y-68867922D01*
X113677656Y-68959360D01*
X113677657Y-68959360D01*
X113677658Y-68959361D01*
X113818436Y-69014877D01*
X113906898Y-69025500D01*
X113906903Y-69025500D01*
X114693097Y-69025500D01*
X114693102Y-69025500D01*
X114781564Y-69014877D01*
X114922342Y-68959361D01*
X115042922Y-68867922D01*
X115134361Y-68747342D01*
X115189877Y-68606564D01*
X115200500Y-68518102D01*
X115200500Y-68447080D01*
X115220185Y-68380041D01*
X115272989Y-68334286D01*
X115342147Y-68324342D01*
X115405703Y-68353367D01*
X115439061Y-68399628D01*
X115501983Y-68551541D01*
X115501990Y-68551553D01*
X115600535Y-68699034D01*
X115600538Y-68699038D01*
X115725961Y-68824461D01*
X115725965Y-68824464D01*
X115873446Y-68923009D01*
X115873459Y-68923016D01*
X115996363Y-68973923D01*
X116037334Y-68990894D01*
X116037336Y-68990894D01*
X116037341Y-68990896D01*
X116211304Y-69025499D01*
X116211307Y-69025500D01*
X116211309Y-69025500D01*
X116388693Y-69025500D01*
X116388694Y-69025499D01*
X116446682Y-69013964D01*
X116562658Y-68990896D01*
X116562661Y-68990894D01*
X116562666Y-68990894D01*
X116726547Y-68923013D01*
X116874035Y-68824464D01*
X116999464Y-68699035D01*
X117098013Y-68551547D01*
X117165894Y-68387666D01*
X117200500Y-68213691D01*
X117200500Y-67486309D01*
X117200500Y-67486306D01*
X117200499Y-67486304D01*
X117165896Y-67312341D01*
X117165893Y-67312332D01*
X117098016Y-67148459D01*
X117098009Y-67148446D01*
X116999464Y-67000965D01*
X116999461Y-67000961D01*
X116874038Y-66875538D01*
X116874034Y-66875535D01*
X116726553Y-66776990D01*
X116726540Y-66776983D01*
X116562667Y-66709106D01*
X116562658Y-66709103D01*
X116388694Y-66674500D01*
X116388691Y-66674500D01*
X116211309Y-66674500D01*
X116211306Y-66674500D01*
X116037341Y-66709103D01*
X116037332Y-66709106D01*
X115873459Y-66776983D01*
X115873446Y-66776990D01*
X115725965Y-66875535D01*
X115725961Y-66875538D01*
X115600538Y-67000961D01*
X115600535Y-67000965D01*
X115501990Y-67148446D01*
X115501983Y-67148459D01*
X115439061Y-67300371D01*
X115395221Y-67354775D01*
X115328927Y-67376840D01*
X115261227Y-67359561D01*
X115213616Y-67308424D01*
X115200500Y-67252919D01*
X115200500Y-67181903D01*
X115200500Y-67181898D01*
X115189877Y-67093436D01*
X115134361Y-66952658D01*
X115134360Y-66952657D01*
X115134360Y-66952656D01*
X115042922Y-66832077D01*
X114922343Y-66740639D01*
X114781561Y-66685122D01*
X114735926Y-66679642D01*
X114693102Y-66674500D01*
X113906898Y-66674500D01*
X113867853Y-66679188D01*
X113818438Y-66685122D01*
X113677656Y-66740639D01*
X113557077Y-66832077D01*
X113465639Y-66952656D01*
X113410122Y-67093438D01*
X113404188Y-67142853D01*
X113399500Y-67181898D01*
X40300500Y-67181898D01*
X40300500Y-64400131D01*
X40619500Y-64400131D01*
X40619500Y-66189856D01*
X40619502Y-66189882D01*
X40622413Y-66214987D01*
X40622415Y-66214991D01*
X40667793Y-66317764D01*
X40667794Y-66317765D01*
X40747235Y-66397206D01*
X40850009Y-66442585D01*
X40875135Y-66445500D01*
X42664864Y-66445499D01*
X42664879Y-66445497D01*
X42664882Y-66445497D01*
X42689987Y-66442586D01*
X42689988Y-66442585D01*
X42689991Y-66442585D01*
X42792765Y-66397206D01*
X42872206Y-66317765D01*
X42917585Y-66214991D01*
X42920500Y-66189865D01*
X42920499Y-65191579D01*
X43260000Y-65191579D01*
X43260000Y-65398420D01*
X43300348Y-65601266D01*
X43300350Y-65601274D01*
X43379500Y-65792359D01*
X43411377Y-65840067D01*
X43411378Y-65840067D01*
X43827037Y-65424408D01*
X43844075Y-65487993D01*
X43909901Y-65602007D01*
X44002993Y-65695099D01*
X44117007Y-65760925D01*
X44180590Y-65777962D01*
X43764931Y-66193620D01*
X43764932Y-66193621D01*
X43812633Y-66225495D01*
X43812639Y-66225498D01*
X44003725Y-66304649D01*
X44003733Y-66304651D01*
X44206579Y-66344999D01*
X44206583Y-66345000D01*
X44413417Y-66345000D01*
X44413420Y-66344999D01*
X44616266Y-66304651D01*
X44616274Y-66304649D01*
X44807366Y-66225495D01*
X44855066Y-66193621D01*
X44855067Y-66193620D01*
X44439409Y-65777962D01*
X44502993Y-65760925D01*
X44617007Y-65695099D01*
X44710099Y-65602007D01*
X44775925Y-65487993D01*
X44792962Y-65424409D01*
X45208620Y-65840067D01*
X45208621Y-65840066D01*
X45240495Y-65792366D01*
X45319649Y-65601274D01*
X45319651Y-65601266D01*
X45359999Y-65398420D01*
X45360000Y-65398417D01*
X45360000Y-65204448D01*
X45699500Y-65204448D01*
X45699500Y-65385551D01*
X45727829Y-65564410D01*
X45783787Y-65736636D01*
X45783788Y-65736639D01*
X45866006Y-65897997D01*
X45972441Y-66044494D01*
X45972445Y-66044499D01*
X46100500Y-66172554D01*
X46100505Y-66172558D01*
X46173372Y-66225498D01*
X46247006Y-66278996D01*
X46323094Y-66317765D01*
X46408360Y-66361211D01*
X46408363Y-66361212D01*
X46494476Y-66389191D01*
X46580591Y-66417171D01*
X46663429Y-66430291D01*
X46759449Y-66445500D01*
X46759454Y-66445500D01*
X46940551Y-66445500D01*
X47027259Y-66431765D01*
X47119409Y-66417171D01*
X47291639Y-66361211D01*
X47452994Y-66278996D01*
X47599501Y-66172553D01*
X47727553Y-66044501D01*
X47833996Y-65897994D01*
X47916211Y-65736639D01*
X47972171Y-65564409D01*
X47986422Y-65474425D01*
X47997527Y-65404321D01*
X48027456Y-65341186D01*
X48086768Y-65304255D01*
X48156630Y-65305253D01*
X48214863Y-65343863D01*
X48242473Y-65404321D01*
X48267829Y-65564410D01*
X48323787Y-65736636D01*
X48323788Y-65736639D01*
X48406006Y-65897997D01*
X48512441Y-66044494D01*
X48512445Y-66044499D01*
X48640500Y-66172554D01*
X48640505Y-66172558D01*
X48713372Y-66225498D01*
X48787006Y-66278996D01*
X48863094Y-66317765D01*
X48948360Y-66361211D01*
X48948363Y-66361212D01*
X49034476Y-66389191D01*
X49120591Y-66417171D01*
X49203429Y-66430291D01*
X49299449Y-66445500D01*
X49299454Y-66445500D01*
X49480551Y-66445500D01*
X49567259Y-66431765D01*
X49659409Y-66417171D01*
X49831639Y-66361211D01*
X49992994Y-66278996D01*
X50139501Y-66172553D01*
X50267553Y-66044501D01*
X50373996Y-65897994D01*
X50456211Y-65736639D01*
X50512171Y-65564409D01*
X50526422Y-65474425D01*
X50537527Y-65404321D01*
X50567456Y-65341186D01*
X50626768Y-65304255D01*
X50696630Y-65305253D01*
X50754863Y-65343863D01*
X50782473Y-65404321D01*
X50807829Y-65564410D01*
X50863787Y-65736636D01*
X50863788Y-65736639D01*
X50946006Y-65897997D01*
X51052441Y-66044494D01*
X51052445Y-66044499D01*
X51180500Y-66172554D01*
X51180505Y-66172558D01*
X51253372Y-66225498D01*
X51327006Y-66278996D01*
X51403094Y-66317765D01*
X51488360Y-66361211D01*
X51488363Y-66361212D01*
X51574476Y-66389191D01*
X51660591Y-66417171D01*
X51743429Y-66430291D01*
X51839449Y-66445500D01*
X51839454Y-66445500D01*
X52020551Y-66445500D01*
X52107259Y-66431765D01*
X52199409Y-66417171D01*
X52371639Y-66361211D01*
X52532994Y-66278996D01*
X52679501Y-66172553D01*
X52807553Y-66044501D01*
X52913996Y-65897994D01*
X52996211Y-65736639D01*
X53052171Y-65564409D01*
X53066422Y-65474425D01*
X53077527Y-65404321D01*
X53107456Y-65341186D01*
X53166768Y-65304255D01*
X53236630Y-65305253D01*
X53294863Y-65343863D01*
X53322473Y-65404321D01*
X53347829Y-65564410D01*
X53403787Y-65736636D01*
X53403788Y-65736639D01*
X53486006Y-65897997D01*
X53592441Y-66044494D01*
X53592445Y-66044499D01*
X53720500Y-66172554D01*
X53720505Y-66172558D01*
X53793372Y-66225498D01*
X53867006Y-66278996D01*
X53943094Y-66317765D01*
X54028360Y-66361211D01*
X54028363Y-66361212D01*
X54114476Y-66389191D01*
X54200591Y-66417171D01*
X54283429Y-66430291D01*
X54379449Y-66445500D01*
X54379454Y-66445500D01*
X54560551Y-66445500D01*
X54647259Y-66431765D01*
X54739409Y-66417171D01*
X54911639Y-66361211D01*
X55072994Y-66278996D01*
X55219501Y-66172553D01*
X55347553Y-66044501D01*
X55453996Y-65897994D01*
X55536211Y-65736639D01*
X55592171Y-65564409D01*
X55606422Y-65474425D01*
X55617527Y-65404321D01*
X55647456Y-65341186D01*
X55706768Y-65304255D01*
X55776630Y-65305253D01*
X55834863Y-65343863D01*
X55862473Y-65404321D01*
X55887829Y-65564410D01*
X55943787Y-65736636D01*
X55943788Y-65736639D01*
X56026006Y-65897997D01*
X56132441Y-66044494D01*
X56132445Y-66044499D01*
X56260500Y-66172554D01*
X56260505Y-66172558D01*
X56333372Y-66225498D01*
X56407006Y-66278996D01*
X56483094Y-66317765D01*
X56568360Y-66361211D01*
X56568363Y-66361212D01*
X56654476Y-66389191D01*
X56740591Y-66417171D01*
X56823429Y-66430291D01*
X56919449Y-66445500D01*
X56919454Y-66445500D01*
X57100551Y-66445500D01*
X57187259Y-66431765D01*
X57279409Y-66417171D01*
X57451639Y-66361211D01*
X57612994Y-66278996D01*
X57759501Y-66172553D01*
X57887553Y-66044501D01*
X57993996Y-65897994D01*
X58076211Y-65736639D01*
X58132171Y-65564409D01*
X58146765Y-65472259D01*
X58160500Y-65385551D01*
X58160500Y-65204448D01*
X58132170Y-65025587D01*
X58085073Y-64880633D01*
X58076212Y-64853363D01*
X58076211Y-64853360D01*
X58074725Y-64850443D01*
X73328300Y-64850443D01*
X73328300Y-65008557D01*
X73332865Y-65025591D01*
X73369223Y-65161283D01*
X73369226Y-65161290D01*
X73448275Y-65298209D01*
X73448279Y-65298214D01*
X73448280Y-65298216D01*
X73560084Y-65410020D01*
X73560086Y-65410021D01*
X73560090Y-65410024D01*
X73695138Y-65487993D01*
X73697016Y-65489077D01*
X73849743Y-65530000D01*
X73849745Y-65530000D01*
X74007855Y-65530000D01*
X74007857Y-65530000D01*
X74160584Y-65489077D01*
X74297516Y-65410020D01*
X74409320Y-65298216D01*
X74488377Y-65161284D01*
X74529300Y-65008557D01*
X74529300Y-64850443D01*
X74488377Y-64697716D01*
X74485078Y-64692002D01*
X74409324Y-64560790D01*
X74409318Y-64560782D01*
X74297517Y-64448981D01*
X74297509Y-64448975D01*
X74160590Y-64369926D01*
X74160586Y-64369924D01*
X74160584Y-64369923D01*
X74007857Y-64329000D01*
X73849743Y-64329000D01*
X73697016Y-64369923D01*
X73697009Y-64369926D01*
X73560090Y-64448975D01*
X73560082Y-64448981D01*
X73448281Y-64560782D01*
X73448275Y-64560790D01*
X73369226Y-64697709D01*
X73369223Y-64697716D01*
X73328300Y-64850443D01*
X58074725Y-64850443D01*
X58026119Y-64755051D01*
X57993996Y-64692006D01*
X57980396Y-64673287D01*
X57887558Y-64545505D01*
X57887554Y-64545500D01*
X57759499Y-64417445D01*
X57759494Y-64417441D01*
X57612997Y-64311006D01*
X57612996Y-64311005D01*
X57612994Y-64311004D01*
X57536906Y-64272235D01*
X57451639Y-64228788D01*
X57451636Y-64228787D01*
X57279411Y-64172829D01*
X57224957Y-64164204D01*
X57161823Y-64134274D01*
X57124893Y-64074962D01*
X57125891Y-64005099D01*
X57164502Y-63946867D01*
X57219893Y-63922445D01*
X57219507Y-63921003D01*
X57227355Y-63918900D01*
X57227357Y-63918900D01*
X57380084Y-63877977D01*
X57517016Y-63798920D01*
X57628820Y-63687116D01*
X57686597Y-63587043D01*
X58556700Y-63587043D01*
X58556700Y-63745157D01*
X58592972Y-63880524D01*
X58597623Y-63897883D01*
X58597626Y-63897890D01*
X58676675Y-64034809D01*
X58676679Y-64034814D01*
X58676680Y-64034816D01*
X58788484Y-64146620D01*
X58788486Y-64146621D01*
X58788490Y-64146624D01*
X58868460Y-64192794D01*
X58925416Y-64225677D01*
X59078143Y-64266600D01*
X59078145Y-64266600D01*
X59236255Y-64266600D01*
X59236257Y-64266600D01*
X59388984Y-64225677D01*
X59525916Y-64146620D01*
X59637720Y-64034816D01*
X59716777Y-63897884D01*
X59757700Y-63745157D01*
X59757700Y-63587043D01*
X59716777Y-63434316D01*
X59651322Y-63320943D01*
X86894500Y-63320943D01*
X86894500Y-63479057D01*
X86923436Y-63587045D01*
X86935423Y-63631783D01*
X86935426Y-63631790D01*
X87014475Y-63768709D01*
X87014479Y-63768714D01*
X87014480Y-63768716D01*
X87126284Y-63880520D01*
X87126286Y-63880521D01*
X87126290Y-63880524D01*
X87224267Y-63937090D01*
X87263216Y-63959577D01*
X87415943Y-64000500D01*
X87415945Y-64000500D01*
X87574055Y-64000500D01*
X87574057Y-64000500D01*
X87726784Y-63959577D01*
X87863716Y-63880520D01*
X87975520Y-63768716D01*
X88054577Y-63631784D01*
X88091573Y-63493713D01*
X90349500Y-63493713D01*
X90349500Y-63706287D01*
X90359387Y-63768709D01*
X90377096Y-63880524D01*
X90382754Y-63916243D01*
X90434325Y-64074962D01*
X90448444Y-64118414D01*
X90544951Y-64307820D01*
X90669890Y-64479786D01*
X90820213Y-64630109D01*
X90992179Y-64755048D01*
X90992181Y-64755049D01*
X90992184Y-64755051D01*
X91181588Y-64851557D01*
X91383757Y-64917246D01*
X91593713Y-64950500D01*
X91593714Y-64950500D01*
X91806286Y-64950500D01*
X91806287Y-64950500D01*
X92016243Y-64917246D01*
X92218412Y-64851557D01*
X92407816Y-64755051D01*
X92429789Y-64739086D01*
X92579786Y-64630109D01*
X92579788Y-64630106D01*
X92579792Y-64630104D01*
X92730104Y-64479792D01*
X92730106Y-64479788D01*
X92730109Y-64479786D01*
X92855048Y-64307820D01*
X92855047Y-64307820D01*
X92855051Y-64307816D01*
X92951557Y-64118412D01*
X93017246Y-63916243D01*
X93050500Y-63706287D01*
X93050500Y-63493713D01*
X93017246Y-63283757D01*
X92951557Y-63081588D01*
X92855051Y-62892184D01*
X92855049Y-62892181D01*
X92855048Y-62892179D01*
X92730109Y-62720213D01*
X92579790Y-62569894D01*
X92579785Y-62569890D01*
X92422388Y-62455535D01*
X92407819Y-62444950D01*
X92243653Y-62361304D01*
X114524500Y-62361304D01*
X114524500Y-62538695D01*
X114559103Y-62712658D01*
X114559106Y-62712667D01*
X114626983Y-62876540D01*
X114626990Y-62876553D01*
X114725535Y-63024034D01*
X114725538Y-63024038D01*
X114850961Y-63149461D01*
X114850965Y-63149464D01*
X114998446Y-63248009D01*
X114998459Y-63248016D01*
X115117642Y-63297382D01*
X115162334Y-63315894D01*
X115162336Y-63315894D01*
X115162341Y-63315896D01*
X115336304Y-63350499D01*
X115336307Y-63350500D01*
X115336309Y-63350500D01*
X116063693Y-63350500D01*
X116063694Y-63350499D01*
X116121682Y-63338964D01*
X116237658Y-63315896D01*
X116237661Y-63315894D01*
X116237666Y-63315894D01*
X116401547Y-63248013D01*
X116549035Y-63149464D01*
X116674464Y-63024035D01*
X116773013Y-62876547D01*
X116840894Y-62712666D01*
X116843315Y-62700499D01*
X116875499Y-62538695D01*
X116875500Y-62538693D01*
X116875500Y-62361306D01*
X116875499Y-62361304D01*
X116840896Y-62187341D01*
X116840893Y-62187332D01*
X116837465Y-62179057D01*
X116793254Y-62072320D01*
X116773016Y-62023459D01*
X116773009Y-62023446D01*
X116674464Y-61875965D01*
X116674461Y-61875961D01*
X116549038Y-61750538D01*
X116549034Y-61750535D01*
X116401553Y-61651990D01*
X116401540Y-61651983D01*
X116237667Y-61584106D01*
X116237658Y-61584103D01*
X116063694Y-61549500D01*
X116063691Y-61549500D01*
X115336309Y-61549500D01*
X115336306Y-61549500D01*
X115162341Y-61584103D01*
X115162332Y-61584106D01*
X114998459Y-61651983D01*
X114998446Y-61651990D01*
X114850965Y-61750535D01*
X114850961Y-61750538D01*
X114725538Y-61875961D01*
X114725535Y-61875965D01*
X114626990Y-62023446D01*
X114626983Y-62023459D01*
X114559106Y-62187332D01*
X114559103Y-62187341D01*
X114524500Y-62361304D01*
X92243653Y-62361304D01*
X92218414Y-62348444D01*
X92218413Y-62348443D01*
X92218412Y-62348443D01*
X92016243Y-62282754D01*
X92016241Y-62282753D01*
X92016240Y-62282753D01*
X91854957Y-62257208D01*
X91806287Y-62249500D01*
X91593713Y-62249500D01*
X91545042Y-62257208D01*
X91383760Y-62282753D01*
X91181585Y-62348444D01*
X90992179Y-62444951D01*
X90820213Y-62569890D01*
X90669890Y-62720213D01*
X90544951Y-62892179D01*
X90448444Y-63081585D01*
X90382753Y-63283760D01*
X90351822Y-63479053D01*
X90349500Y-63493713D01*
X88091573Y-63493713D01*
X88095500Y-63479057D01*
X88095500Y-63320943D01*
X88054577Y-63168216D01*
X88004561Y-63081585D01*
X87975524Y-63031290D01*
X87975518Y-63031282D01*
X87863717Y-62919481D01*
X87863709Y-62919475D01*
X87726790Y-62840426D01*
X87726786Y-62840424D01*
X87726784Y-62840423D01*
X87574057Y-62799500D01*
X87415943Y-62799500D01*
X87263216Y-62840423D01*
X87263209Y-62840426D01*
X87126290Y-62919475D01*
X87126282Y-62919481D01*
X87014481Y-63031282D01*
X87014475Y-63031290D01*
X86935426Y-63168209D01*
X86935423Y-63168216D01*
X86894500Y-63320943D01*
X59651322Y-63320943D01*
X59637720Y-63297384D01*
X59525916Y-63185580D01*
X59525914Y-63185579D01*
X59525909Y-63185575D01*
X59388990Y-63106526D01*
X59388986Y-63106524D01*
X59388984Y-63106523D01*
X59236257Y-63065600D01*
X59078143Y-63065600D01*
X58925416Y-63106523D01*
X58925409Y-63106526D01*
X58788490Y-63185575D01*
X58788482Y-63185581D01*
X58676681Y-63297382D01*
X58676675Y-63297390D01*
X58597626Y-63434309D01*
X58597623Y-63434316D01*
X58556700Y-63587043D01*
X57686597Y-63587043D01*
X57707877Y-63550184D01*
X57748800Y-63397457D01*
X57748800Y-63239343D01*
X57707877Y-63086616D01*
X57675935Y-63031290D01*
X57628824Y-62949690D01*
X57628818Y-62949682D01*
X57517017Y-62837881D01*
X57517009Y-62837875D01*
X57380090Y-62758826D01*
X57380086Y-62758824D01*
X57380084Y-62758823D01*
X57227357Y-62717900D01*
X57069243Y-62717900D01*
X56916516Y-62758823D01*
X56916509Y-62758826D01*
X56779590Y-62837875D01*
X56779582Y-62837881D01*
X56667781Y-62949682D01*
X56667775Y-62949690D01*
X56588726Y-63086609D01*
X56588723Y-63086616D01*
X56547800Y-63239343D01*
X56547800Y-63397457D01*
X56587826Y-63546834D01*
X56588723Y-63550183D01*
X56588726Y-63550190D01*
X56667775Y-63687109D01*
X56667779Y-63687114D01*
X56667780Y-63687116D01*
X56779584Y-63798920D01*
X56779586Y-63798921D01*
X56779590Y-63798924D01*
X56916509Y-63877973D01*
X56916516Y-63877977D01*
X57001416Y-63900726D01*
X57061075Y-63937090D01*
X57091604Y-63999937D01*
X57083309Y-64069313D01*
X57038824Y-64123190D01*
X56972272Y-64144465D01*
X56969321Y-64144500D01*
X56919449Y-64144500D01*
X56740589Y-64172829D01*
X56568363Y-64228787D01*
X56568360Y-64228788D01*
X56407002Y-64311006D01*
X56260505Y-64417441D01*
X56260500Y-64417445D01*
X56132445Y-64545500D01*
X56132441Y-64545505D01*
X56026006Y-64692002D01*
X55943788Y-64853360D01*
X55943787Y-64853363D01*
X55887829Y-65025589D01*
X55862473Y-65185678D01*
X55832544Y-65248813D01*
X55773232Y-65285744D01*
X55703369Y-65284746D01*
X55645137Y-65246136D01*
X55617527Y-65185678D01*
X55603740Y-65098639D01*
X55592171Y-65025591D01*
X55536211Y-64853361D01*
X55536211Y-64853360D01*
X55486119Y-64755051D01*
X55453996Y-64692006D01*
X55440396Y-64673287D01*
X55347558Y-64545505D01*
X55347554Y-64545500D01*
X55219499Y-64417445D01*
X55219494Y-64417441D01*
X55072997Y-64311006D01*
X55072996Y-64311005D01*
X55072994Y-64311004D01*
X54996906Y-64272235D01*
X54911639Y-64228788D01*
X54911636Y-64228787D01*
X54739410Y-64172829D01*
X54560551Y-64144500D01*
X54560546Y-64144500D01*
X54379454Y-64144500D01*
X54379449Y-64144500D01*
X54200589Y-64172829D01*
X54028363Y-64228787D01*
X54028360Y-64228788D01*
X53867002Y-64311006D01*
X53720505Y-64417441D01*
X53720500Y-64417445D01*
X53592445Y-64545500D01*
X53592441Y-64545505D01*
X53486006Y-64692002D01*
X53403788Y-64853360D01*
X53403787Y-64853363D01*
X53347829Y-65025589D01*
X53322473Y-65185678D01*
X53292544Y-65248813D01*
X53233232Y-65285744D01*
X53163369Y-65284746D01*
X53105137Y-65246136D01*
X53077527Y-65185678D01*
X53063740Y-65098639D01*
X53052171Y-65025591D01*
X52996211Y-64853361D01*
X52996211Y-64853360D01*
X52946119Y-64755051D01*
X52913996Y-64692006D01*
X52900396Y-64673287D01*
X52807558Y-64545505D01*
X52807554Y-64545500D01*
X52679499Y-64417445D01*
X52679494Y-64417441D01*
X52532997Y-64311006D01*
X52532996Y-64311005D01*
X52532994Y-64311004D01*
X52456906Y-64272235D01*
X52371639Y-64228788D01*
X52371636Y-64228787D01*
X52199410Y-64172829D01*
X52020551Y-64144500D01*
X52020546Y-64144500D01*
X51839454Y-64144500D01*
X51839449Y-64144500D01*
X51660589Y-64172829D01*
X51488363Y-64228787D01*
X51488360Y-64228788D01*
X51327002Y-64311006D01*
X51180505Y-64417441D01*
X51180500Y-64417445D01*
X51052445Y-64545500D01*
X51052441Y-64545505D01*
X50946006Y-64692002D01*
X50863788Y-64853360D01*
X50863787Y-64853363D01*
X50807829Y-65025589D01*
X50782473Y-65185678D01*
X50752544Y-65248813D01*
X50693232Y-65285744D01*
X50623369Y-65284746D01*
X50565137Y-65246136D01*
X50537527Y-65185678D01*
X50523740Y-65098639D01*
X50512171Y-65025591D01*
X50456211Y-64853361D01*
X50456211Y-64853360D01*
X50406119Y-64755051D01*
X50373996Y-64692006D01*
X50360396Y-64673287D01*
X50267558Y-64545505D01*
X50267554Y-64545500D01*
X50139499Y-64417445D01*
X50139494Y-64417441D01*
X49992997Y-64311006D01*
X49992996Y-64311005D01*
X49992994Y-64311004D01*
X49916906Y-64272235D01*
X49831639Y-64228788D01*
X49831636Y-64228787D01*
X49659410Y-64172829D01*
X49480551Y-64144500D01*
X49480546Y-64144500D01*
X49299454Y-64144500D01*
X49299449Y-64144500D01*
X49120589Y-64172829D01*
X48948363Y-64228787D01*
X48948360Y-64228788D01*
X48787002Y-64311006D01*
X48640505Y-64417441D01*
X48640500Y-64417445D01*
X48512445Y-64545500D01*
X48512441Y-64545505D01*
X48406006Y-64692002D01*
X48323788Y-64853360D01*
X48323787Y-64853363D01*
X48267829Y-65025589D01*
X48242473Y-65185678D01*
X48212544Y-65248813D01*
X48153232Y-65285744D01*
X48083369Y-65284746D01*
X48025137Y-65246136D01*
X47997527Y-65185678D01*
X47983740Y-65098639D01*
X47972171Y-65025591D01*
X47916211Y-64853361D01*
X47916211Y-64853360D01*
X47866119Y-64755051D01*
X47833996Y-64692006D01*
X47820396Y-64673287D01*
X47727558Y-64545505D01*
X47727554Y-64545500D01*
X47599499Y-64417445D01*
X47599494Y-64417441D01*
X47452997Y-64311006D01*
X47452996Y-64311005D01*
X47452994Y-64311004D01*
X47376906Y-64272235D01*
X47291639Y-64228788D01*
X47291636Y-64228787D01*
X47119410Y-64172829D01*
X46940551Y-64144500D01*
X46940546Y-64144500D01*
X46759454Y-64144500D01*
X46759449Y-64144500D01*
X46580589Y-64172829D01*
X46408363Y-64228787D01*
X46408360Y-64228788D01*
X46247002Y-64311006D01*
X46100505Y-64417441D01*
X46100500Y-64417445D01*
X45972445Y-64545500D01*
X45972441Y-64545505D01*
X45866006Y-64692002D01*
X45783788Y-64853360D01*
X45783787Y-64853363D01*
X45727829Y-65025589D01*
X45699500Y-65204448D01*
X45360000Y-65204448D01*
X45360000Y-65191583D01*
X45359999Y-65191579D01*
X45319651Y-64988733D01*
X45319649Y-64988725D01*
X45240498Y-64797639D01*
X45240495Y-64797633D01*
X45208621Y-64749932D01*
X45208620Y-64749931D01*
X44792962Y-65165590D01*
X44775925Y-65102007D01*
X44710099Y-64987993D01*
X44617007Y-64894901D01*
X44502993Y-64829075D01*
X44439409Y-64812037D01*
X44855067Y-64396378D01*
X44855067Y-64396377D01*
X44807359Y-64364500D01*
X44616274Y-64285350D01*
X44616266Y-64285348D01*
X44413420Y-64245000D01*
X44206579Y-64245000D01*
X44003733Y-64285348D01*
X44003725Y-64285350D01*
X43812641Y-64364500D01*
X43812631Y-64364505D01*
X43764932Y-64396377D01*
X43764932Y-64396378D01*
X44180591Y-64812037D01*
X44117007Y-64829075D01*
X44002993Y-64894901D01*
X43909901Y-64987993D01*
X43844075Y-65102007D01*
X43827037Y-65165591D01*
X43411378Y-64749932D01*
X43411377Y-64749932D01*
X43379505Y-64797631D01*
X43379500Y-64797641D01*
X43300350Y-64988725D01*
X43300348Y-64988733D01*
X43260000Y-65191579D01*
X42920499Y-65191579D01*
X42920499Y-64400136D01*
X42920063Y-64396377D01*
X42917586Y-64375012D01*
X42917585Y-64375010D01*
X42917585Y-64375009D01*
X42872206Y-64272235D01*
X42792765Y-64192794D01*
X42792763Y-64192793D01*
X42689992Y-64147415D01*
X42664865Y-64144500D01*
X40875143Y-64144500D01*
X40875117Y-64144502D01*
X40850012Y-64147413D01*
X40850008Y-64147415D01*
X40747235Y-64192793D01*
X40667794Y-64272234D01*
X40622415Y-64375006D01*
X40622415Y-64375008D01*
X40619500Y-64400131D01*
X40300500Y-64400131D01*
X40300500Y-62114943D01*
X54508400Y-62114943D01*
X54508400Y-62273057D01*
X54537141Y-62380318D01*
X54549323Y-62425783D01*
X54549326Y-62425790D01*
X54628375Y-62562709D01*
X54628379Y-62562714D01*
X54628380Y-62562716D01*
X54740184Y-62674520D01*
X54740186Y-62674521D01*
X54740190Y-62674524D01*
X54819327Y-62720213D01*
X54877116Y-62753577D01*
X55029843Y-62794500D01*
X55029845Y-62794500D01*
X55187955Y-62794500D01*
X55187957Y-62794500D01*
X55340684Y-62753577D01*
X55477616Y-62674520D01*
X55589420Y-62562716D01*
X55668477Y-62425784D01*
X55709400Y-62273057D01*
X55709400Y-62114943D01*
X55684213Y-62020943D01*
X70080300Y-62020943D01*
X70080300Y-62179057D01*
X70108086Y-62282754D01*
X70121223Y-62331783D01*
X70121226Y-62331790D01*
X70200275Y-62468709D01*
X70200279Y-62468714D01*
X70200280Y-62468716D01*
X70312084Y-62580520D01*
X70312086Y-62580521D01*
X70312090Y-62580524D01*
X70449009Y-62659573D01*
X70449016Y-62659577D01*
X70601743Y-62700500D01*
X70601745Y-62700500D01*
X70759855Y-62700500D01*
X70759857Y-62700500D01*
X70912584Y-62659577D01*
X71049516Y-62580520D01*
X71161320Y-62468716D01*
X71240377Y-62331784D01*
X71281300Y-62179057D01*
X71281300Y-62020943D01*
X76449500Y-62020943D01*
X76449500Y-62179057D01*
X76477286Y-62282754D01*
X76490423Y-62331783D01*
X76490426Y-62331790D01*
X76569475Y-62468709D01*
X76569479Y-62468714D01*
X76569480Y-62468716D01*
X76681284Y-62580520D01*
X76681286Y-62580521D01*
X76681290Y-62580524D01*
X76818209Y-62659573D01*
X76818216Y-62659577D01*
X76970943Y-62700500D01*
X76970945Y-62700500D01*
X77129055Y-62700500D01*
X77129057Y-62700500D01*
X77281784Y-62659577D01*
X77418716Y-62580520D01*
X77530520Y-62468716D01*
X77609577Y-62331784D01*
X77650500Y-62179057D01*
X77650500Y-62020943D01*
X77609577Y-61868216D01*
X77582169Y-61820743D01*
X84610200Y-61820743D01*
X84610200Y-61978857D01*
X84635245Y-62072324D01*
X84651123Y-62131583D01*
X84651126Y-62131590D01*
X84730175Y-62268509D01*
X84730179Y-62268514D01*
X84730180Y-62268516D01*
X84841984Y-62380320D01*
X84841986Y-62380321D01*
X84841990Y-62380324D01*
X84920741Y-62425790D01*
X84978916Y-62459377D01*
X85131643Y-62500300D01*
X85131645Y-62500300D01*
X85289755Y-62500300D01*
X85289757Y-62500300D01*
X85442484Y-62459377D01*
X85579416Y-62380320D01*
X85691220Y-62268516D01*
X85770277Y-62131584D01*
X85811200Y-61978857D01*
X85811200Y-61820743D01*
X85770277Y-61668016D01*
X85696612Y-61540423D01*
X85691222Y-61531087D01*
X85691218Y-61531082D01*
X85672879Y-61512743D01*
X97135700Y-61512743D01*
X97135700Y-61670857D01*
X97175863Y-61820745D01*
X97176623Y-61823583D01*
X97176626Y-61823590D01*
X97255675Y-61960509D01*
X97255679Y-61960514D01*
X97255680Y-61960516D01*
X97367484Y-62072320D01*
X97367486Y-62072321D01*
X97367490Y-62072324D01*
X97504409Y-62151373D01*
X97504416Y-62151377D01*
X97657143Y-62192300D01*
X97657145Y-62192300D01*
X97815255Y-62192300D01*
X97815257Y-62192300D01*
X97967984Y-62151377D01*
X98104916Y-62072320D01*
X98216720Y-61960516D01*
X98295777Y-61823584D01*
X98336700Y-61670857D01*
X98336700Y-61512743D01*
X98295777Y-61360016D01*
X98239573Y-61262667D01*
X98216724Y-61223090D01*
X98216718Y-61223082D01*
X98104917Y-61111281D01*
X98104909Y-61111275D01*
X97967990Y-61032226D01*
X97967986Y-61032224D01*
X97967984Y-61032223D01*
X97815257Y-60991300D01*
X97657143Y-60991300D01*
X97504416Y-61032223D01*
X97504409Y-61032226D01*
X97367490Y-61111275D01*
X97367482Y-61111281D01*
X97255681Y-61223082D01*
X97255675Y-61223090D01*
X97176626Y-61360009D01*
X97176623Y-61360016D01*
X97135700Y-61512743D01*
X85672879Y-61512743D01*
X85579417Y-61419281D01*
X85579409Y-61419275D01*
X85442490Y-61340226D01*
X85442486Y-61340224D01*
X85442484Y-61340223D01*
X85289757Y-61299300D01*
X85131643Y-61299300D01*
X84978916Y-61340223D01*
X84978909Y-61340226D01*
X84841990Y-61419275D01*
X84841982Y-61419281D01*
X84730181Y-61531082D01*
X84730175Y-61531090D01*
X84651126Y-61668009D01*
X84651123Y-61668016D01*
X84610200Y-61820743D01*
X77582169Y-61820743D01*
X77530520Y-61731284D01*
X77418716Y-61619480D01*
X77418714Y-61619479D01*
X77418709Y-61619475D01*
X77281790Y-61540426D01*
X77281786Y-61540424D01*
X77281784Y-61540423D01*
X77129057Y-61499500D01*
X76970943Y-61499500D01*
X76818216Y-61540423D01*
X76818209Y-61540426D01*
X76681290Y-61619475D01*
X76681282Y-61619481D01*
X76569481Y-61731282D01*
X76569475Y-61731290D01*
X76490426Y-61868209D01*
X76490423Y-61868216D01*
X76449500Y-62020943D01*
X71281300Y-62020943D01*
X71240377Y-61868216D01*
X71215594Y-61825290D01*
X71161324Y-61731290D01*
X71161321Y-61731286D01*
X71161320Y-61731284D01*
X71049516Y-61619480D01*
X71049514Y-61619479D01*
X71049509Y-61619475D01*
X70912590Y-61540426D01*
X70912586Y-61540424D01*
X70912584Y-61540423D01*
X70759857Y-61499500D01*
X70601743Y-61499500D01*
X70449016Y-61540423D01*
X70449009Y-61540426D01*
X70312090Y-61619475D01*
X70312082Y-61619481D01*
X70200281Y-61731282D01*
X70200275Y-61731290D01*
X70121226Y-61868209D01*
X70121223Y-61868216D01*
X70080300Y-62020943D01*
X55684213Y-62020943D01*
X55668477Y-61962216D01*
X55667496Y-61960516D01*
X55589424Y-61825290D01*
X55589418Y-61825282D01*
X55477617Y-61713481D01*
X55477609Y-61713475D01*
X55340690Y-61634426D01*
X55340686Y-61634424D01*
X55340684Y-61634423D01*
X55187957Y-61593500D01*
X55029843Y-61593500D01*
X54877116Y-61634423D01*
X54877109Y-61634426D01*
X54740190Y-61713475D01*
X54740182Y-61713481D01*
X54628381Y-61825282D01*
X54628375Y-61825290D01*
X54549326Y-61962209D01*
X54549323Y-61962216D01*
X54508400Y-62114943D01*
X40300500Y-62114943D01*
X40300500Y-58606898D01*
X50774500Y-58606898D01*
X50774500Y-59393102D01*
X50777844Y-59420945D01*
X50785122Y-59481561D01*
X50840639Y-59622343D01*
X50932077Y-59742922D01*
X51052656Y-59834360D01*
X51052657Y-59834360D01*
X51052658Y-59834361D01*
X51193436Y-59889877D01*
X51281898Y-59900500D01*
X51281903Y-59900500D01*
X51352920Y-59900500D01*
X51419959Y-59920185D01*
X51465714Y-59972989D01*
X51475658Y-60042147D01*
X51446633Y-60105703D01*
X51400372Y-60139060D01*
X51384134Y-60145786D01*
X51248458Y-60201983D01*
X51248446Y-60201990D01*
X51100965Y-60300535D01*
X51100961Y-60300538D01*
X50975538Y-60425961D01*
X50975535Y-60425965D01*
X50876990Y-60573446D01*
X50876983Y-60573459D01*
X50809106Y-60737332D01*
X50809103Y-60737341D01*
X50774500Y-60911304D01*
X50774500Y-61088695D01*
X50809103Y-61262658D01*
X50809106Y-61262667D01*
X50876983Y-61426540D01*
X50876990Y-61426553D01*
X50975535Y-61574034D01*
X50975538Y-61574038D01*
X51100961Y-61699461D01*
X51100965Y-61699464D01*
X51248446Y-61798009D01*
X51248459Y-61798016D01*
X51314306Y-61825290D01*
X51412334Y-61865894D01*
X51412336Y-61865894D01*
X51412341Y-61865896D01*
X51586304Y-61900499D01*
X51586307Y-61900500D01*
X51586309Y-61900500D01*
X52313693Y-61900500D01*
X52313694Y-61900499D01*
X52371682Y-61888964D01*
X52487658Y-61865896D01*
X52487661Y-61865894D01*
X52487666Y-61865894D01*
X52651547Y-61798013D01*
X52799035Y-61699464D01*
X52924464Y-61574035D01*
X53023013Y-61426547D01*
X53090894Y-61262666D01*
X53098768Y-61223084D01*
X53118916Y-61121792D01*
X53125500Y-61088691D01*
X53125500Y-61017643D01*
X68090800Y-61017643D01*
X68090800Y-61175757D01*
X68114088Y-61262667D01*
X68131723Y-61328483D01*
X68131726Y-61328490D01*
X68210775Y-61465409D01*
X68210779Y-61465414D01*
X68210780Y-61465416D01*
X68322584Y-61577220D01*
X68322586Y-61577221D01*
X68322590Y-61577224D01*
X68452085Y-61651987D01*
X68459516Y-61656277D01*
X68612243Y-61697200D01*
X68612245Y-61697200D01*
X68770355Y-61697200D01*
X68770357Y-61697200D01*
X68923084Y-61656277D01*
X69060016Y-61577220D01*
X69171820Y-61465416D01*
X69250877Y-61328484D01*
X69291800Y-61175757D01*
X69291800Y-61017643D01*
X69250877Y-60864916D01*
X69213077Y-60799444D01*
X69171824Y-60727990D01*
X69171818Y-60727982D01*
X69060017Y-60616181D01*
X69060009Y-60616175D01*
X68923090Y-60537126D01*
X68923086Y-60537124D01*
X68923084Y-60537123D01*
X68770357Y-60496200D01*
X68612243Y-60496200D01*
X68459516Y-60537123D01*
X68459509Y-60537126D01*
X68322590Y-60616175D01*
X68322582Y-60616181D01*
X68210781Y-60727982D01*
X68210775Y-60727990D01*
X68131726Y-60864909D01*
X68131723Y-60864916D01*
X68090800Y-61017643D01*
X53125500Y-61017643D01*
X53125500Y-60911309D01*
X53125500Y-60911306D01*
X53125499Y-60911304D01*
X53090896Y-60737341D01*
X53090893Y-60737332D01*
X53087023Y-60727990D01*
X53060567Y-60664118D01*
X53023016Y-60573459D01*
X53023009Y-60573446D01*
X52924464Y-60425965D01*
X52924461Y-60425961D01*
X52799038Y-60300538D01*
X52799034Y-60300535D01*
X52651553Y-60201990D01*
X52651541Y-60201983D01*
X52519718Y-60147382D01*
X52499627Y-60139060D01*
X52456792Y-60104543D01*
X75606600Y-60104543D01*
X75606600Y-60262657D01*
X75616750Y-60300535D01*
X75647523Y-60415383D01*
X75647526Y-60415390D01*
X75726575Y-60552309D01*
X75726579Y-60552314D01*
X75726580Y-60552316D01*
X75838384Y-60664120D01*
X75838386Y-60664121D01*
X75838390Y-60664124D01*
X75965208Y-60737341D01*
X75975316Y-60743177D01*
X76128043Y-60784100D01*
X76128045Y-60784100D01*
X76286155Y-60784100D01*
X76286157Y-60784100D01*
X76438884Y-60743177D01*
X76575816Y-60664120D01*
X76687620Y-60552316D01*
X76766677Y-60415384D01*
X76807600Y-60262657D01*
X76807600Y-60104543D01*
X76791858Y-60045793D01*
X114625000Y-60045793D01*
X114625000Y-60200000D01*
X115419670Y-60200000D01*
X115399925Y-60219745D01*
X115350556Y-60305255D01*
X115325000Y-60400630D01*
X115325000Y-60499370D01*
X115350556Y-60594745D01*
X115399925Y-60680255D01*
X115419670Y-60700000D01*
X114625001Y-60700000D01*
X114625001Y-60854196D01*
X114627851Y-60884606D01*
X114672653Y-61012645D01*
X114753207Y-61121792D01*
X114862354Y-61202346D01*
X114990397Y-61247149D01*
X115020792Y-61249999D01*
X115449999Y-61249999D01*
X115450000Y-61249998D01*
X115450000Y-60730330D01*
X115469745Y-60750075D01*
X115555255Y-60799444D01*
X115650630Y-60825000D01*
X115749370Y-60825000D01*
X115844745Y-60799444D01*
X115930255Y-60750075D01*
X115950000Y-60730330D01*
X115950000Y-61249999D01*
X116379196Y-61249999D01*
X116409606Y-61247148D01*
X116537645Y-61202346D01*
X116646792Y-61121792D01*
X116727346Y-61012645D01*
X116772149Y-60884604D01*
X116772149Y-60884600D01*
X116775000Y-60854206D01*
X116775000Y-60700000D01*
X115980330Y-60700000D01*
X116000075Y-60680255D01*
X116049444Y-60594745D01*
X116075000Y-60499370D01*
X116075000Y-60400630D01*
X116049444Y-60305255D01*
X116000075Y-60219745D01*
X115980330Y-60200000D01*
X116774999Y-60200000D01*
X116774999Y-60045803D01*
X116772148Y-60015393D01*
X116727346Y-59887354D01*
X116646792Y-59778207D01*
X116537645Y-59697653D01*
X116409602Y-59652850D01*
X116379207Y-59650000D01*
X115950000Y-59650000D01*
X115950000Y-60169670D01*
X115930255Y-60149925D01*
X115844745Y-60100556D01*
X115749370Y-60075000D01*
X115650630Y-60075000D01*
X115555255Y-60100556D01*
X115469745Y-60149925D01*
X115450000Y-60169670D01*
X115450000Y-59650000D01*
X115020803Y-59650000D01*
X114990393Y-59652851D01*
X114862354Y-59697653D01*
X114753207Y-59778207D01*
X114672653Y-59887354D01*
X114627850Y-60015395D01*
X114627850Y-60015399D01*
X114625000Y-60045793D01*
X76791858Y-60045793D01*
X76766677Y-59951816D01*
X76729460Y-59887354D01*
X76687624Y-59814890D01*
X76687618Y-59814882D01*
X76575817Y-59703081D01*
X76575809Y-59703075D01*
X76438890Y-59624026D01*
X76438886Y-59624024D01*
X76438884Y-59624023D01*
X76286157Y-59583100D01*
X76128043Y-59583100D01*
X75975316Y-59624023D01*
X75975309Y-59624026D01*
X75838390Y-59703075D01*
X75838382Y-59703081D01*
X75726581Y-59814882D01*
X75726575Y-59814890D01*
X75647526Y-59951809D01*
X75647523Y-59951816D01*
X75606600Y-60104543D01*
X52456792Y-60104543D01*
X52445224Y-60095221D01*
X52423159Y-60028927D01*
X52440438Y-59961227D01*
X52491575Y-59913617D01*
X52547080Y-59900500D01*
X52618097Y-59900500D01*
X52618102Y-59900500D01*
X52706564Y-59889877D01*
X52847342Y-59834361D01*
X52967922Y-59742922D01*
X53059361Y-59622342D01*
X53114877Y-59481564D01*
X53122157Y-59420943D01*
X58288600Y-59420943D01*
X58288600Y-59579057D01*
X58321831Y-59703075D01*
X58329523Y-59731783D01*
X58329526Y-59731790D01*
X58408575Y-59868709D01*
X58408579Y-59868714D01*
X58408580Y-59868716D01*
X58520384Y-59980520D01*
X58520386Y-59980521D01*
X58520390Y-59980524D01*
X58657309Y-60059573D01*
X58657316Y-60059577D01*
X58810043Y-60100500D01*
X58810045Y-60100500D01*
X58968155Y-60100500D01*
X58968157Y-60100500D01*
X59120884Y-60059577D01*
X59257816Y-59980520D01*
X59369620Y-59868716D01*
X59448677Y-59731784D01*
X59489600Y-59579057D01*
X59489600Y-59420943D01*
X59448677Y-59268216D01*
X59438448Y-59250499D01*
X59369624Y-59131290D01*
X59369618Y-59131282D01*
X59257817Y-59019481D01*
X59257809Y-59019475D01*
X59120890Y-58940426D01*
X59120886Y-58940424D01*
X59120884Y-58940423D01*
X59094834Y-58933443D01*
X70438300Y-58933443D01*
X70438300Y-59091557D01*
X70469924Y-59209577D01*
X70479223Y-59244283D01*
X70479226Y-59244290D01*
X70558275Y-59381209D01*
X70558279Y-59381214D01*
X70558280Y-59381216D01*
X70670084Y-59493020D01*
X70670086Y-59493021D01*
X70670090Y-59493024D01*
X70741890Y-59534477D01*
X70807016Y-59572077D01*
X70959743Y-59613000D01*
X70959745Y-59613000D01*
X71117855Y-59613000D01*
X71117857Y-59613000D01*
X71270584Y-59572077D01*
X71407516Y-59493020D01*
X71519320Y-59381216D01*
X71598377Y-59244284D01*
X71621333Y-59158609D01*
X71657697Y-59098951D01*
X71720544Y-59068422D01*
X71789919Y-59076717D01*
X71828788Y-59103024D01*
X71856284Y-59130520D01*
X71856286Y-59130521D01*
X71856290Y-59130524D01*
X71993209Y-59209573D01*
X71993216Y-59209577D01*
X72145943Y-59250500D01*
X72145945Y-59250500D01*
X72304055Y-59250500D01*
X72304057Y-59250500D01*
X72456784Y-59209577D01*
X72593716Y-59130520D01*
X72705520Y-59018716D01*
X72776460Y-58895843D01*
X81362000Y-58895843D01*
X81362000Y-59053957D01*
X81390301Y-59159576D01*
X81402923Y-59206683D01*
X81402926Y-59206690D01*
X81481975Y-59343609D01*
X81481979Y-59343614D01*
X81481980Y-59343616D01*
X81593784Y-59455420D01*
X81593786Y-59455421D01*
X81593790Y-59455424D01*
X81730709Y-59534473D01*
X81730716Y-59534477D01*
X81883443Y-59575400D01*
X81883445Y-59575400D01*
X82041555Y-59575400D01*
X82041557Y-59575400D01*
X82194284Y-59534477D01*
X82331216Y-59455420D01*
X82443020Y-59343616D01*
X82522077Y-59206684D01*
X82563000Y-59053957D01*
X82563000Y-58895843D01*
X82522077Y-58743116D01*
X82485093Y-58679057D01*
X82443024Y-58606190D01*
X82443018Y-58606182D01*
X82357779Y-58520943D01*
X92847800Y-58520943D01*
X92847800Y-58679057D01*
X92875040Y-58780716D01*
X92888723Y-58831783D01*
X92888726Y-58831790D01*
X92967775Y-58968709D01*
X92967779Y-58968714D01*
X92967780Y-58968716D01*
X93079584Y-59080520D01*
X93079586Y-59080521D01*
X93079590Y-59080524D01*
X93216509Y-59159573D01*
X93216516Y-59159577D01*
X93369243Y-59200500D01*
X93369245Y-59200500D01*
X93527355Y-59200500D01*
X93527357Y-59200500D01*
X93680084Y-59159577D01*
X93817016Y-59080520D01*
X93928820Y-58968716D01*
X94007877Y-58831784D01*
X94048800Y-58679057D01*
X94048800Y-58520943D01*
X94007877Y-58368216D01*
X93957691Y-58281290D01*
X93928824Y-58231290D01*
X93928818Y-58231282D01*
X93817017Y-58119481D01*
X93817009Y-58119475D01*
X93680090Y-58040426D01*
X93680086Y-58040424D01*
X93680084Y-58040423D01*
X93527357Y-57999500D01*
X93369243Y-57999500D01*
X93216516Y-58040423D01*
X93216509Y-58040426D01*
X93079590Y-58119475D01*
X93079582Y-58119481D01*
X92967781Y-58231282D01*
X92967775Y-58231290D01*
X92888726Y-58368209D01*
X92888723Y-58368216D01*
X92847800Y-58520943D01*
X82357779Y-58520943D01*
X82331217Y-58494381D01*
X82331209Y-58494375D01*
X82194290Y-58415326D01*
X82194286Y-58415324D01*
X82194284Y-58415323D01*
X82041557Y-58374400D01*
X81883443Y-58374400D01*
X81730716Y-58415323D01*
X81730709Y-58415326D01*
X81593790Y-58494375D01*
X81593782Y-58494381D01*
X81481981Y-58606182D01*
X81481975Y-58606190D01*
X81402926Y-58743109D01*
X81402923Y-58743116D01*
X81362000Y-58895843D01*
X72776460Y-58895843D01*
X72784577Y-58881784D01*
X72825500Y-58729057D01*
X72825500Y-58570943D01*
X72784577Y-58418216D01*
X72784573Y-58418209D01*
X72705524Y-58281290D01*
X72705518Y-58281282D01*
X72593717Y-58169481D01*
X72593709Y-58169475D01*
X72456790Y-58090426D01*
X72456786Y-58090424D01*
X72456784Y-58090423D01*
X72304057Y-58049500D01*
X72145943Y-58049500D01*
X71993216Y-58090423D01*
X71993209Y-58090426D01*
X71856290Y-58169475D01*
X71856282Y-58169481D01*
X71744481Y-58281282D01*
X71744475Y-58281290D01*
X71665426Y-58418209D01*
X71665424Y-58418213D01*
X71642467Y-58503889D01*
X71606101Y-58563549D01*
X71543254Y-58594077D01*
X71473878Y-58585782D01*
X71435011Y-58559475D01*
X71407517Y-58531981D01*
X71407509Y-58531975D01*
X71270590Y-58452926D01*
X71270586Y-58452924D01*
X71270584Y-58452923D01*
X71117857Y-58412000D01*
X70959743Y-58412000D01*
X70807016Y-58452923D01*
X70807009Y-58452926D01*
X70670090Y-58531975D01*
X70670082Y-58531981D01*
X70558281Y-58643782D01*
X70558275Y-58643790D01*
X70479226Y-58780709D01*
X70479223Y-58780716D01*
X70438300Y-58933443D01*
X59094834Y-58933443D01*
X58968157Y-58899500D01*
X58810043Y-58899500D01*
X58657316Y-58940423D01*
X58657309Y-58940426D01*
X58520390Y-59019475D01*
X58520382Y-59019481D01*
X58408581Y-59131282D01*
X58408575Y-59131290D01*
X58329526Y-59268209D01*
X58329523Y-59268216D01*
X58288600Y-59420943D01*
X53122157Y-59420943D01*
X53125500Y-59393102D01*
X53125500Y-58606898D01*
X53114877Y-58518436D01*
X53059361Y-58377658D01*
X53059360Y-58377657D01*
X53059360Y-58377656D01*
X52967922Y-58257077D01*
X52847343Y-58165639D01*
X52730294Y-58119481D01*
X52706564Y-58110123D01*
X52706563Y-58110122D01*
X52706561Y-58110122D01*
X52660926Y-58104642D01*
X52618102Y-58099500D01*
X51281898Y-58099500D01*
X51242853Y-58104188D01*
X51193438Y-58110122D01*
X51052656Y-58165639D01*
X50932077Y-58257077D01*
X50840639Y-58377656D01*
X50785122Y-58518438D01*
X50780195Y-58559475D01*
X50774500Y-58606898D01*
X40300500Y-58606898D01*
X40300500Y-57368743D01*
X79081400Y-57368743D01*
X79081400Y-57526857D01*
X79109328Y-57631084D01*
X79122323Y-57679583D01*
X79122326Y-57679590D01*
X79201375Y-57816509D01*
X79201379Y-57816514D01*
X79201380Y-57816516D01*
X79313184Y-57928320D01*
X79313186Y-57928321D01*
X79313190Y-57928324D01*
X79450109Y-58007373D01*
X79450116Y-58007377D01*
X79598084Y-58047025D01*
X79657744Y-58083389D01*
X79685763Y-58134702D01*
X79711723Y-58231584D01*
X79711724Y-58231585D01*
X79711726Y-58231590D01*
X79790775Y-58368509D01*
X79790779Y-58368514D01*
X79790780Y-58368516D01*
X79902584Y-58480320D01*
X79902586Y-58480321D01*
X79902590Y-58480324D01*
X79992064Y-58531981D01*
X80039516Y-58559377D01*
X80192243Y-58600300D01*
X80192245Y-58600300D01*
X80350355Y-58600300D01*
X80350357Y-58600300D01*
X80503084Y-58559377D01*
X80640016Y-58480320D01*
X80751820Y-58368516D01*
X80830877Y-58231584D01*
X80871800Y-58078857D01*
X80871800Y-57920743D01*
X80830877Y-57768016D01*
X80779825Y-57679590D01*
X80751824Y-57631090D01*
X80751818Y-57631082D01*
X80640017Y-57519281D01*
X80640009Y-57519275D01*
X80503090Y-57440226D01*
X80503085Y-57440223D01*
X80355115Y-57400575D01*
X80295455Y-57364210D01*
X80267436Y-57312896D01*
X80241477Y-57216016D01*
X80241473Y-57216009D01*
X80162424Y-57079090D01*
X80162418Y-57079082D01*
X80050617Y-56967281D01*
X80050609Y-56967275D01*
X79913690Y-56888226D01*
X79913686Y-56888224D01*
X79913684Y-56888223D01*
X79760957Y-56847300D01*
X79602843Y-56847300D01*
X79450116Y-56888223D01*
X79450109Y-56888226D01*
X79313190Y-56967275D01*
X79313182Y-56967281D01*
X79201381Y-57079082D01*
X79201375Y-57079090D01*
X79122326Y-57216009D01*
X79122323Y-57216016D01*
X79081400Y-57368743D01*
X40300500Y-57368743D01*
X40300500Y-53820943D01*
X71045400Y-53820943D01*
X71045400Y-53979057D01*
X71074536Y-54087792D01*
X71086323Y-54131783D01*
X71086326Y-54131790D01*
X71165375Y-54268709D01*
X71165379Y-54268714D01*
X71165380Y-54268716D01*
X71277184Y-54380520D01*
X71277186Y-54380521D01*
X71277190Y-54380524D01*
X71414078Y-54459555D01*
X71414116Y-54459577D01*
X71566843Y-54500500D01*
X71566845Y-54500500D01*
X71724955Y-54500500D01*
X71724957Y-54500500D01*
X71877684Y-54459577D01*
X72014616Y-54380520D01*
X72126420Y-54268716D01*
X72205477Y-54131784D01*
X72246400Y-53979057D01*
X72246400Y-53820943D01*
X75283000Y-53820943D01*
X75283000Y-53979057D01*
X75312136Y-54087792D01*
X75323923Y-54131783D01*
X75323926Y-54131790D01*
X75402975Y-54268709D01*
X75402979Y-54268714D01*
X75402980Y-54268716D01*
X75514784Y-54380520D01*
X75514786Y-54380521D01*
X75514790Y-54380524D01*
X75651678Y-54459555D01*
X75651716Y-54459577D01*
X75804443Y-54500500D01*
X75804445Y-54500500D01*
X75962555Y-54500500D01*
X75962557Y-54500500D01*
X76115284Y-54459577D01*
X76252216Y-54380520D01*
X76364020Y-54268716D01*
X76443077Y-54131784D01*
X76484000Y-53979057D01*
X76484000Y-53820943D01*
X76443077Y-53668216D01*
X76443073Y-53668209D01*
X76364024Y-53531290D01*
X76364018Y-53531282D01*
X76252217Y-53419481D01*
X76252209Y-53419475D01*
X76115290Y-53340426D01*
X76115286Y-53340424D01*
X76115284Y-53340423D01*
X75962557Y-53299500D01*
X75804443Y-53299500D01*
X75651716Y-53340423D01*
X75651709Y-53340426D01*
X75514790Y-53419475D01*
X75514782Y-53419481D01*
X75402981Y-53531282D01*
X75402975Y-53531290D01*
X75323926Y-53668209D01*
X75323923Y-53668216D01*
X75283000Y-53820943D01*
X72246400Y-53820943D01*
X72205477Y-53668216D01*
X72205473Y-53668209D01*
X72126424Y-53531290D01*
X72126418Y-53531282D01*
X72014617Y-53419481D01*
X72014609Y-53419475D01*
X71877690Y-53340426D01*
X71877686Y-53340424D01*
X71877684Y-53340423D01*
X71724957Y-53299500D01*
X71566843Y-53299500D01*
X71414116Y-53340423D01*
X71414109Y-53340426D01*
X71277190Y-53419475D01*
X71277182Y-53419481D01*
X71165381Y-53531282D01*
X71165375Y-53531290D01*
X71086326Y-53668209D01*
X71086323Y-53668216D01*
X71045400Y-53820943D01*
X40300500Y-53820943D01*
X40300500Y-53101713D01*
X108349500Y-53101713D01*
X108349500Y-53314286D01*
X108382753Y-53524239D01*
X108448444Y-53726414D01*
X108544951Y-53915820D01*
X108669890Y-54087786D01*
X108820213Y-54238109D01*
X108992179Y-54363048D01*
X108992181Y-54363049D01*
X108992184Y-54363051D01*
X109181588Y-54459557D01*
X109383757Y-54525246D01*
X109593713Y-54558500D01*
X109593714Y-54558500D01*
X109806286Y-54558500D01*
X109806287Y-54558500D01*
X110016243Y-54525246D01*
X110218412Y-54459557D01*
X110407816Y-54363051D01*
X110537657Y-54268717D01*
X110579786Y-54238109D01*
X110579788Y-54238106D01*
X110579792Y-54238104D01*
X110730104Y-54087792D01*
X110730106Y-54087788D01*
X110730109Y-54087786D01*
X110855048Y-53915820D01*
X110855047Y-53915820D01*
X110855051Y-53915816D01*
X110951557Y-53726412D01*
X111017246Y-53524243D01*
X111050500Y-53314287D01*
X111050500Y-53101713D01*
X111017246Y-52891757D01*
X110951557Y-52689588D01*
X110855051Y-52500184D01*
X110855049Y-52500181D01*
X110855048Y-52500179D01*
X110730109Y-52328213D01*
X110579786Y-52177890D01*
X110407820Y-52052951D01*
X110218414Y-51956444D01*
X110218413Y-51956443D01*
X110218412Y-51956443D01*
X110016243Y-51890754D01*
X110016241Y-51890753D01*
X110016240Y-51890753D01*
X109854957Y-51865208D01*
X109806287Y-51857500D01*
X109593713Y-51857500D01*
X109545042Y-51865208D01*
X109383760Y-51890753D01*
X109181585Y-51956444D01*
X108992179Y-52052951D01*
X108820213Y-52177890D01*
X108669890Y-52328213D01*
X108544951Y-52500179D01*
X108448444Y-52689585D01*
X108382753Y-52891760D01*
X108349500Y-53101713D01*
X40300500Y-53101713D01*
X40300500Y-46913389D01*
X61349500Y-46913389D01*
X61349500Y-47086610D01*
X61371621Y-47226282D01*
X61376598Y-47257701D01*
X61430127Y-47422445D01*
X61508768Y-47576788D01*
X61610586Y-47716928D01*
X61733072Y-47839414D01*
X61873212Y-47941232D01*
X62027555Y-48019873D01*
X62192299Y-48073402D01*
X62363389Y-48100500D01*
X62363390Y-48100500D01*
X62536610Y-48100500D01*
X62536611Y-48100500D01*
X62707701Y-48073402D01*
X62872445Y-48019873D01*
X63026788Y-47941232D01*
X63166928Y-47839414D01*
X63188016Y-47818325D01*
X63249336Y-47784840D01*
X63319028Y-47789823D01*
X63374963Y-47831694D01*
X63399381Y-47897157D01*
X63399342Y-47908517D01*
X63399500Y-47908517D01*
X63399500Y-48086610D01*
X63418893Y-48209057D01*
X63426598Y-48257701D01*
X63480127Y-48422445D01*
X63558768Y-48576788D01*
X63660586Y-48716928D01*
X63783072Y-48839414D01*
X63923212Y-48941232D01*
X64077555Y-49019873D01*
X64242299Y-49073402D01*
X64413389Y-49100500D01*
X64413390Y-49100500D01*
X64586610Y-49100500D01*
X64586611Y-49100500D01*
X64757701Y-49073402D01*
X64922445Y-49019873D01*
X65076788Y-48941232D01*
X65216928Y-48839414D01*
X65339414Y-48716928D01*
X65399682Y-48633975D01*
X65455012Y-48591311D01*
X65524626Y-48585332D01*
X65586421Y-48617938D01*
X65600315Y-48633973D01*
X65660586Y-48716928D01*
X65783072Y-48839414D01*
X65923212Y-48941232D01*
X66077555Y-49019873D01*
X66242299Y-49073402D01*
X66413389Y-49100500D01*
X66413390Y-49100500D01*
X66586610Y-49100500D01*
X66586611Y-49100500D01*
X66757701Y-49073402D01*
X66922445Y-49019873D01*
X67076788Y-48941232D01*
X67216928Y-48839414D01*
X67339414Y-48716928D01*
X67441232Y-48576788D01*
X67519873Y-48422445D01*
X67573402Y-48257701D01*
X67600500Y-48086611D01*
X67600500Y-47913389D01*
X67600500Y-47908517D01*
X67602205Y-47908517D01*
X67615039Y-47847374D01*
X67664083Y-47797610D01*
X67732246Y-47782261D01*
X67797887Y-47806200D01*
X67811983Y-47818325D01*
X67833072Y-47839414D01*
X67973212Y-47941232D01*
X68127555Y-48019873D01*
X68292299Y-48073402D01*
X68463389Y-48100500D01*
X68463390Y-48100500D01*
X68636610Y-48100500D01*
X68636611Y-48100500D01*
X68807701Y-48073402D01*
X68972445Y-48019873D01*
X68980158Y-48015943D01*
X77961500Y-48015943D01*
X77961500Y-48174057D01*
X77983913Y-48257701D01*
X78002423Y-48326783D01*
X78002426Y-48326790D01*
X78081475Y-48463709D01*
X78081479Y-48463714D01*
X78081480Y-48463716D01*
X78193284Y-48575520D01*
X78193286Y-48575521D01*
X78193290Y-48575524D01*
X78330209Y-48654573D01*
X78330216Y-48654577D01*
X78482943Y-48695500D01*
X78482945Y-48695500D01*
X78641055Y-48695500D01*
X78641057Y-48695500D01*
X78793784Y-48654577D01*
X78930716Y-48575520D01*
X79042520Y-48463716D01*
X79121577Y-48326784D01*
X79162500Y-48174057D01*
X79162500Y-48015943D01*
X79121577Y-47863216D01*
X79095661Y-47818327D01*
X79042524Y-47726290D01*
X79042518Y-47726282D01*
X78930717Y-47614481D01*
X78930716Y-47614480D01*
X78793784Y-47535423D01*
X78721084Y-47515943D01*
X82861500Y-47515943D01*
X82861500Y-47674057D01*
X82900157Y-47818325D01*
X82902423Y-47826783D01*
X82902426Y-47826790D01*
X82981475Y-47963709D01*
X82981478Y-47963713D01*
X82981480Y-47963716D01*
X83093284Y-48075520D01*
X83093286Y-48075521D01*
X83093290Y-48075524D01*
X83230209Y-48154573D01*
X83230216Y-48154577D01*
X83382943Y-48195500D01*
X83382945Y-48195500D01*
X83541055Y-48195500D01*
X83541057Y-48195500D01*
X83693784Y-48154577D01*
X83830716Y-48075520D01*
X83855293Y-48050943D01*
X96864400Y-48050943D01*
X96864400Y-48209057D01*
X96895947Y-48326790D01*
X96905323Y-48361783D01*
X96905326Y-48361790D01*
X96984375Y-48498709D01*
X96984379Y-48498714D01*
X96984380Y-48498716D01*
X97096184Y-48610520D01*
X97096186Y-48610521D01*
X97096190Y-48610524D01*
X97233109Y-48689573D01*
X97233116Y-48689577D01*
X97385843Y-48730500D01*
X97385845Y-48730500D01*
X97543955Y-48730500D01*
X97543957Y-48730500D01*
X97696684Y-48689577D01*
X97833616Y-48610520D01*
X97945420Y-48498716D01*
X98024477Y-48361784D01*
X98065400Y-48209057D01*
X98065400Y-48050943D01*
X98024477Y-47898216D01*
X97983236Y-47826783D01*
X97945424Y-47761290D01*
X97945418Y-47761282D01*
X97833617Y-47649481D01*
X97833609Y-47649475D01*
X97696690Y-47570426D01*
X97696686Y-47570424D01*
X97696684Y-47570423D01*
X97543957Y-47529500D01*
X97385843Y-47529500D01*
X97233116Y-47570423D01*
X97233109Y-47570426D01*
X97096190Y-47649475D01*
X97096182Y-47649481D01*
X96984381Y-47761282D01*
X96984375Y-47761290D01*
X96905326Y-47898209D01*
X96905323Y-47898216D01*
X96864400Y-48050943D01*
X83855293Y-48050943D01*
X83942520Y-47963716D01*
X84021577Y-47826784D01*
X84062500Y-47674057D01*
X84062500Y-47515943D01*
X84021577Y-47363216D01*
X83975310Y-47283078D01*
X83942524Y-47226290D01*
X83942518Y-47226282D01*
X83830717Y-47114481D01*
X83830709Y-47114475D01*
X83693790Y-47035426D01*
X83693786Y-47035424D01*
X83693784Y-47035423D01*
X83541057Y-46994500D01*
X83382943Y-46994500D01*
X83230216Y-47035423D01*
X83230209Y-47035426D01*
X83093290Y-47114475D01*
X83093282Y-47114481D01*
X82981481Y-47226282D01*
X82981475Y-47226290D01*
X82902426Y-47363209D01*
X82902423Y-47363216D01*
X82861500Y-47515943D01*
X78721084Y-47515943D01*
X78641057Y-47494500D01*
X78482943Y-47494500D01*
X78330216Y-47535423D01*
X78330209Y-47535426D01*
X78193290Y-47614475D01*
X78193282Y-47614481D01*
X78081481Y-47726282D01*
X78081475Y-47726290D01*
X78002426Y-47863209D01*
X78002423Y-47863216D01*
X77961500Y-48015943D01*
X68980158Y-48015943D01*
X69126788Y-47941232D01*
X69266928Y-47839414D01*
X69389414Y-47716928D01*
X69491232Y-47576788D01*
X69569873Y-47422445D01*
X69623402Y-47257701D01*
X69650500Y-47086611D01*
X69650500Y-46913389D01*
X69623402Y-46742299D01*
X69569873Y-46577555D01*
X69491232Y-46423212D01*
X69389414Y-46283072D01*
X69266928Y-46160586D01*
X69183975Y-46100317D01*
X69141311Y-46044988D01*
X69135332Y-45975374D01*
X69167938Y-45913579D01*
X69183976Y-45899682D01*
X69266928Y-45839414D01*
X69389414Y-45716928D01*
X69491232Y-45576788D01*
X69569873Y-45422445D01*
X69623402Y-45257701D01*
X69650500Y-45086611D01*
X69650500Y-44913389D01*
X69644298Y-44874234D01*
X77546500Y-44874234D01*
X77546500Y-45025765D01*
X77585719Y-45172136D01*
X77597761Y-45192993D01*
X77661485Y-45303365D01*
X77768635Y-45410515D01*
X77899865Y-45486281D01*
X78046234Y-45525500D01*
X78046236Y-45525500D01*
X78197764Y-45525500D01*
X78197766Y-45525500D01*
X78344135Y-45486281D01*
X78475365Y-45410515D01*
X78582515Y-45303365D01*
X78658281Y-45172135D01*
X78697500Y-45025766D01*
X78697500Y-44874234D01*
X83326500Y-44874234D01*
X83326500Y-45025765D01*
X83365719Y-45172136D01*
X83377761Y-45192993D01*
X83441485Y-45303365D01*
X83548635Y-45410515D01*
X83679865Y-45486281D01*
X83826234Y-45525500D01*
X83826236Y-45525500D01*
X83977764Y-45525500D01*
X83977766Y-45525500D01*
X84032094Y-45510943D01*
X93677800Y-45510943D01*
X93677800Y-45669057D01*
X93690628Y-45716929D01*
X93718723Y-45821783D01*
X93718726Y-45821790D01*
X93797775Y-45958709D01*
X93797779Y-45958714D01*
X93797780Y-45958716D01*
X93909584Y-46070520D01*
X93909586Y-46070521D01*
X93909590Y-46070524D01*
X93961194Y-46100317D01*
X94046516Y-46149577D01*
X94199243Y-46190500D01*
X94199245Y-46190500D01*
X94357355Y-46190500D01*
X94357357Y-46190500D01*
X94510084Y-46149577D01*
X94647016Y-46070520D01*
X94758820Y-45958716D01*
X94837877Y-45821784D01*
X94878800Y-45669057D01*
X94878800Y-45510943D01*
X94837877Y-45358216D01*
X94806209Y-45303365D01*
X94758824Y-45221290D01*
X94758818Y-45221282D01*
X94647017Y-45109481D01*
X94647009Y-45109475D01*
X94510090Y-45030426D01*
X94510086Y-45030424D01*
X94510084Y-45030423D01*
X94357357Y-44989500D01*
X94199243Y-44989500D01*
X94046516Y-45030423D01*
X94046509Y-45030426D01*
X93909590Y-45109475D01*
X93909582Y-45109481D01*
X93797781Y-45221282D01*
X93797775Y-45221290D01*
X93718726Y-45358209D01*
X93718723Y-45358216D01*
X93677800Y-45510943D01*
X84032094Y-45510943D01*
X84124135Y-45486281D01*
X84255365Y-45410515D01*
X84362515Y-45303365D01*
X84438281Y-45172135D01*
X84477500Y-45025766D01*
X84477500Y-44874234D01*
X84438281Y-44727865D01*
X84436317Y-44724464D01*
X84420341Y-44696792D01*
X84362515Y-44596635D01*
X84255365Y-44489485D01*
X84189643Y-44451540D01*
X84124136Y-44413719D01*
X84050950Y-44394109D01*
X83977766Y-44374500D01*
X83826234Y-44374500D01*
X83679863Y-44413719D01*
X83548635Y-44489485D01*
X83548632Y-44489487D01*
X83441487Y-44596632D01*
X83441485Y-44596635D01*
X83365719Y-44727863D01*
X83326500Y-44874234D01*
X78697500Y-44874234D01*
X78658281Y-44727865D01*
X78656317Y-44724464D01*
X78640341Y-44696792D01*
X78582515Y-44596635D01*
X78475365Y-44489485D01*
X78409643Y-44451540D01*
X78344136Y-44413719D01*
X78270950Y-44394109D01*
X78197766Y-44374500D01*
X78046234Y-44374500D01*
X77899863Y-44413719D01*
X77768635Y-44489485D01*
X77768632Y-44489487D01*
X77661487Y-44596632D01*
X77661485Y-44596635D01*
X77585719Y-44727863D01*
X77546500Y-44874234D01*
X69644298Y-44874234D01*
X69623402Y-44742302D01*
X69623402Y-44742299D01*
X69569873Y-44577555D01*
X69491232Y-44423212D01*
X69389414Y-44283072D01*
X69266928Y-44160586D01*
X69126788Y-44058768D01*
X68972445Y-43980127D01*
X68807701Y-43926598D01*
X68807699Y-43926597D01*
X68807698Y-43926597D01*
X68676271Y-43905781D01*
X68636611Y-43899500D01*
X68463389Y-43899500D01*
X68423728Y-43905781D01*
X68292302Y-43926597D01*
X68127552Y-43980128D01*
X67973211Y-44058768D01*
X67917226Y-44099444D01*
X67833072Y-44160586D01*
X67833070Y-44160588D01*
X67833069Y-44160588D01*
X67710588Y-44283069D01*
X67710588Y-44283070D01*
X67710586Y-44283072D01*
X67707248Y-44287667D01*
X67608768Y-44423211D01*
X67530128Y-44577552D01*
X67530127Y-44577554D01*
X67530127Y-44577555D01*
X67523148Y-44599034D01*
X67476597Y-44742302D01*
X67451382Y-44901504D01*
X67449500Y-44913389D01*
X67449500Y-45086611D01*
X67476598Y-45257701D01*
X67530127Y-45422445D01*
X67608768Y-45576788D01*
X67710586Y-45716928D01*
X67833072Y-45839414D01*
X67833078Y-45839418D01*
X67916023Y-45899683D01*
X67958689Y-45955013D01*
X67964667Y-46024626D01*
X67932061Y-46086421D01*
X67916023Y-46100317D01*
X67833078Y-46160581D01*
X67833069Y-46160588D01*
X67710588Y-46283069D01*
X67710588Y-46283070D01*
X67710586Y-46283072D01*
X67666859Y-46343256D01*
X67608768Y-46423211D01*
X67530128Y-46577552D01*
X67476597Y-46742302D01*
X67449500Y-46913389D01*
X67449500Y-47091483D01*
X67447805Y-47091483D01*
X67434938Y-47152665D01*
X67385876Y-47202411D01*
X67317708Y-47217735D01*
X67252076Y-47193772D01*
X67238016Y-47181674D01*
X67216930Y-47160588D01*
X67216928Y-47160586D01*
X67076788Y-47058768D01*
X66922445Y-46980127D01*
X66757701Y-46926598D01*
X66757699Y-46926597D01*
X66757698Y-46926597D01*
X66626271Y-46905781D01*
X66586611Y-46899500D01*
X66413389Y-46899500D01*
X66373728Y-46905781D01*
X66242302Y-46926597D01*
X66077552Y-46980128D01*
X65923211Y-47058768D01*
X65862556Y-47102837D01*
X65783072Y-47160586D01*
X65783070Y-47160588D01*
X65783069Y-47160588D01*
X65660588Y-47283069D01*
X65660581Y-47283078D01*
X65600317Y-47366023D01*
X65544987Y-47408689D01*
X65475374Y-47414667D01*
X65413579Y-47382061D01*
X65399683Y-47366023D01*
X65339418Y-47283078D01*
X65339414Y-47283072D01*
X65216928Y-47160586D01*
X65076788Y-47058768D01*
X64922445Y-46980127D01*
X64757701Y-46926598D01*
X64757699Y-46926597D01*
X64757698Y-46926597D01*
X64626271Y-46905781D01*
X64586611Y-46899500D01*
X64413389Y-46899500D01*
X64373728Y-46905781D01*
X64242302Y-46926597D01*
X64077552Y-46980128D01*
X63923211Y-47058768D01*
X63862556Y-47102837D01*
X63783072Y-47160586D01*
X63783070Y-47160588D01*
X63783068Y-47160589D01*
X63761981Y-47181676D01*
X63700658Y-47215160D01*
X63630966Y-47210174D01*
X63575033Y-47168301D01*
X63550618Y-47102837D01*
X63550660Y-47091483D01*
X63550500Y-47091483D01*
X63550500Y-46913389D01*
X63523402Y-46742302D01*
X63523402Y-46742299D01*
X63469873Y-46577555D01*
X63391232Y-46423212D01*
X63289414Y-46283072D01*
X63166928Y-46160586D01*
X63042969Y-46070524D01*
X63026783Y-46058764D01*
X63010250Y-46050340D01*
X62959455Y-46002365D01*
X62942661Y-45934543D01*
X62955699Y-45896284D01*
X62959020Y-45862572D01*
X62579410Y-45482962D01*
X62642993Y-45465925D01*
X62757007Y-45400099D01*
X62850099Y-45307007D01*
X62915925Y-45192993D01*
X62932962Y-45129410D01*
X63312572Y-45509020D01*
X63312573Y-45509019D01*
X63336187Y-45473680D01*
X63336190Y-45473676D01*
X63411569Y-45291693D01*
X63411572Y-45291681D01*
X63449999Y-45098495D01*
X63450000Y-45098492D01*
X63450000Y-44901508D01*
X63449999Y-44901504D01*
X63411572Y-44708318D01*
X63411569Y-44708306D01*
X63336192Y-44526328D01*
X63312572Y-44490979D01*
X62932962Y-44870589D01*
X62915925Y-44807007D01*
X62850099Y-44692993D01*
X62757007Y-44599901D01*
X62642993Y-44534075D01*
X62579409Y-44517037D01*
X62959020Y-44137426D01*
X62923675Y-44113809D01*
X62923673Y-44113808D01*
X62741693Y-44038430D01*
X62741681Y-44038427D01*
X62548495Y-44000000D01*
X62351504Y-44000000D01*
X62158318Y-44038427D01*
X62158310Y-44038429D01*
X61976325Y-44113809D01*
X61976318Y-44113813D01*
X61940979Y-44137426D01*
X61940978Y-44137426D01*
X62320590Y-44517037D01*
X62257007Y-44534075D01*
X62142993Y-44599901D01*
X62049901Y-44692993D01*
X61984075Y-44807007D01*
X61967037Y-44870590D01*
X61587426Y-44490978D01*
X61587426Y-44490979D01*
X61563813Y-44526318D01*
X61563809Y-44526325D01*
X61488429Y-44708310D01*
X61488427Y-44708318D01*
X61450000Y-44901504D01*
X61450000Y-45098495D01*
X61488427Y-45291681D01*
X61488430Y-45291693D01*
X61563808Y-45473673D01*
X61563809Y-45473675D01*
X61587425Y-45509019D01*
X61967037Y-45129408D01*
X61984075Y-45192993D01*
X62049901Y-45307007D01*
X62142993Y-45400099D01*
X62257007Y-45465925D01*
X62320590Y-45482962D01*
X61940978Y-45862573D01*
X61943258Y-45885716D01*
X61947148Y-45890371D01*
X61955854Y-45959696D01*
X61925698Y-46022723D01*
X61889749Y-46050341D01*
X61873214Y-46058766D01*
X61803142Y-46109677D01*
X61733072Y-46160586D01*
X61733070Y-46160588D01*
X61733069Y-46160588D01*
X61610588Y-46283069D01*
X61610588Y-46283070D01*
X61610586Y-46283072D01*
X61566859Y-46343256D01*
X61508768Y-46423211D01*
X61430128Y-46577552D01*
X61376597Y-46742302D01*
X61349500Y-46913389D01*
X40300500Y-46913389D01*
X40300500Y-43557585D01*
X40300506Y-43557500D01*
X40300504Y-43547563D01*
X40300506Y-43547560D01*
X40300500Y-43503203D01*
X40300669Y-43496727D01*
X40310973Y-43299713D01*
X41483500Y-43299713D01*
X41483500Y-43512287D01*
X41516754Y-43722243D01*
X41558427Y-43850500D01*
X41582444Y-43924414D01*
X41678951Y-44113820D01*
X41803890Y-44285786D01*
X41954213Y-44436109D01*
X42126179Y-44561048D01*
X42126181Y-44561049D01*
X42126184Y-44561051D01*
X42315588Y-44657557D01*
X42517757Y-44723246D01*
X42727713Y-44756500D01*
X42727714Y-44756500D01*
X42940286Y-44756500D01*
X42940287Y-44756500D01*
X43150243Y-44723246D01*
X43352412Y-44657557D01*
X43541816Y-44561051D01*
X43578946Y-44534075D01*
X43713786Y-44436109D01*
X43713788Y-44436106D01*
X43713792Y-44436104D01*
X43864104Y-44285792D01*
X43864106Y-44285788D01*
X43864109Y-44285786D01*
X43989048Y-44113820D01*
X43989047Y-44113820D01*
X43989051Y-44113816D01*
X44085557Y-43924412D01*
X44151246Y-43722243D01*
X44184500Y-43512287D01*
X44184500Y-43299713D01*
X44151246Y-43089757D01*
X44145084Y-43070793D01*
X55700000Y-43070793D01*
X55700000Y-43500000D01*
X56219670Y-43500000D01*
X56199925Y-43519745D01*
X56150556Y-43605255D01*
X56125000Y-43700630D01*
X56125000Y-43799370D01*
X56150556Y-43894745D01*
X56199925Y-43980255D01*
X56219670Y-44000000D01*
X55700001Y-44000000D01*
X55700001Y-44429196D01*
X55702851Y-44459606D01*
X55747653Y-44587645D01*
X55828207Y-44696792D01*
X55937354Y-44777346D01*
X56065397Y-44822149D01*
X56095792Y-44824999D01*
X56249999Y-44824999D01*
X56250000Y-44824998D01*
X56250000Y-44030330D01*
X56269745Y-44050075D01*
X56355255Y-44099444D01*
X56450630Y-44125000D01*
X56549370Y-44125000D01*
X56644745Y-44099444D01*
X56730255Y-44050075D01*
X56750000Y-44030330D01*
X56750000Y-44824999D01*
X56904196Y-44824999D01*
X56934606Y-44822148D01*
X57062645Y-44777346D01*
X57171792Y-44696792D01*
X57252346Y-44587645D01*
X57297149Y-44459604D01*
X57297149Y-44459600D01*
X57300000Y-44429206D01*
X57300000Y-44000000D01*
X56780330Y-44000000D01*
X56800075Y-43980255D01*
X56849444Y-43894745D01*
X56875000Y-43799370D01*
X56875000Y-43700630D01*
X56849444Y-43605255D01*
X56800075Y-43519745D01*
X56780330Y-43500000D01*
X57299999Y-43500000D01*
X57299999Y-43386304D01*
X57599500Y-43386304D01*
X57599500Y-44113695D01*
X57634103Y-44287658D01*
X57634106Y-44287667D01*
X57701983Y-44451540D01*
X57701990Y-44451553D01*
X57800535Y-44599034D01*
X57800538Y-44599038D01*
X57925961Y-44724461D01*
X57925965Y-44724464D01*
X58073446Y-44823009D01*
X58073459Y-44823016D01*
X58196363Y-44873923D01*
X58237334Y-44890894D01*
X58237336Y-44890894D01*
X58237341Y-44890896D01*
X58411304Y-44925499D01*
X58411307Y-44925500D01*
X58411309Y-44925500D01*
X58588693Y-44925500D01*
X58588694Y-44925499D01*
X58649577Y-44913389D01*
X58762658Y-44890896D01*
X58762661Y-44890894D01*
X58762666Y-44890894D01*
X58902535Y-44832958D01*
X58926540Y-44823016D01*
X58926540Y-44823015D01*
X58926547Y-44823013D01*
X58956869Y-44802751D01*
X58972490Y-44792315D01*
X59026090Y-44756500D01*
X59074035Y-44724464D01*
X59199464Y-44599035D01*
X59298013Y-44451547D01*
X59365894Y-44287666D01*
X59366809Y-44283070D01*
X59391399Y-44159446D01*
X59391399Y-44159445D01*
X59400500Y-44113693D01*
X59400500Y-43386306D01*
X59400499Y-43386304D01*
X59365896Y-43212341D01*
X59365893Y-43212332D01*
X59364024Y-43207820D01*
X59311866Y-43081898D01*
X101799500Y-43081898D01*
X101799500Y-44418102D01*
X101803516Y-44451547D01*
X101810122Y-44506561D01*
X101865639Y-44647343D01*
X101957077Y-44767922D01*
X102077656Y-44859360D01*
X102077657Y-44859360D01*
X102077658Y-44859361D01*
X102218436Y-44914877D01*
X102306898Y-44925500D01*
X102306903Y-44925500D01*
X103093097Y-44925500D01*
X103093102Y-44925500D01*
X103181564Y-44914877D01*
X103322342Y-44859361D01*
X103442922Y-44767922D01*
X103534361Y-44647342D01*
X103589877Y-44506564D01*
X103600500Y-44418102D01*
X103600500Y-43396202D01*
X103900000Y-43396202D01*
X103900000Y-43500000D01*
X104419670Y-43500000D01*
X104399925Y-43519745D01*
X104350556Y-43605255D01*
X104325000Y-43700630D01*
X104325000Y-43799370D01*
X104350556Y-43894745D01*
X104399925Y-43980255D01*
X104419670Y-44000000D01*
X103900000Y-44000000D01*
X103900000Y-44103797D01*
X103930741Y-44258343D01*
X103930743Y-44258351D01*
X103991047Y-44403939D01*
X103991052Y-44403948D01*
X104078598Y-44534969D01*
X104078601Y-44534973D01*
X104190026Y-44646398D01*
X104190034Y-44646404D01*
X104321047Y-44733944D01*
X104321065Y-44733954D01*
X104449999Y-44787360D01*
X104450000Y-44787360D01*
X104450000Y-44030330D01*
X104469745Y-44050075D01*
X104555255Y-44099444D01*
X104650630Y-44125000D01*
X104749370Y-44125000D01*
X104844745Y-44099444D01*
X104930255Y-44050075D01*
X104950000Y-44030330D01*
X104950000Y-44787360D01*
X105078934Y-44733954D01*
X105078952Y-44733944D01*
X105209965Y-44646404D01*
X105209973Y-44646398D01*
X105321398Y-44534973D01*
X105321401Y-44534969D01*
X105408947Y-44403948D01*
X105408952Y-44403939D01*
X105469256Y-44258351D01*
X105469258Y-44258343D01*
X105499999Y-44103797D01*
X105500000Y-44103794D01*
X105500000Y-44000000D01*
X104980330Y-44000000D01*
X105000075Y-43980255D01*
X105049444Y-43894745D01*
X105075000Y-43799370D01*
X105075000Y-43700630D01*
X105049444Y-43605255D01*
X105000075Y-43519745D01*
X104980330Y-43500000D01*
X105500000Y-43500000D01*
X105500000Y-43396206D01*
X105499999Y-43396202D01*
X105469258Y-43241656D01*
X105469256Y-43241648D01*
X105408952Y-43096060D01*
X105408947Y-43096051D01*
X105321401Y-42965030D01*
X105321398Y-42965026D01*
X105209973Y-42853601D01*
X105209969Y-42853598D01*
X105078948Y-42766052D01*
X105078938Y-42766047D01*
X104950000Y-42712639D01*
X104950000Y-43469670D01*
X104930255Y-43449925D01*
X104844745Y-43400556D01*
X104749370Y-43375000D01*
X104650630Y-43375000D01*
X104555255Y-43400556D01*
X104469745Y-43449925D01*
X104450000Y-43469670D01*
X104450000Y-42712639D01*
X104449999Y-42712639D01*
X104321061Y-42766047D01*
X104321051Y-42766052D01*
X104190030Y-42853598D01*
X104190026Y-42853601D01*
X104078601Y-42965026D01*
X104078598Y-42965030D01*
X103991052Y-43096051D01*
X103991047Y-43096060D01*
X103930743Y-43241648D01*
X103930741Y-43241656D01*
X103900000Y-43396202D01*
X103600500Y-43396202D01*
X103600500Y-43081898D01*
X103589877Y-42993436D01*
X103534361Y-42852658D01*
X103534360Y-42852657D01*
X103534360Y-42852656D01*
X103442922Y-42732077D01*
X103322343Y-42640639D01*
X103181561Y-42585122D01*
X103135926Y-42579642D01*
X103093102Y-42574500D01*
X102306898Y-42574500D01*
X102267853Y-42579188D01*
X102218438Y-42585122D01*
X102077656Y-42640639D01*
X101957077Y-42732077D01*
X101865639Y-42852656D01*
X101810122Y-42993438D01*
X101804484Y-43040393D01*
X101799500Y-43081898D01*
X59311866Y-43081898D01*
X59298013Y-43048453D01*
X59298009Y-43048446D01*
X59199464Y-42900965D01*
X59199461Y-42900961D01*
X59074038Y-42775538D01*
X59074034Y-42775535D01*
X58926553Y-42676990D01*
X58926540Y-42676983D01*
X58762667Y-42609106D01*
X58762658Y-42609103D01*
X58588694Y-42574500D01*
X58588691Y-42574500D01*
X58411309Y-42574500D01*
X58411306Y-42574500D01*
X58237341Y-42609103D01*
X58237332Y-42609106D01*
X58073459Y-42676983D01*
X58073446Y-42676990D01*
X57925965Y-42775535D01*
X57925961Y-42775538D01*
X57800538Y-42900961D01*
X57800535Y-42900965D01*
X57701990Y-43048446D01*
X57701983Y-43048459D01*
X57634106Y-43212332D01*
X57634103Y-43212341D01*
X57599500Y-43386304D01*
X57299999Y-43386304D01*
X57299999Y-43070803D01*
X57297148Y-43040393D01*
X57252346Y-42912354D01*
X57171792Y-42803207D01*
X57062645Y-42722653D01*
X56934602Y-42677850D01*
X56904207Y-42675000D01*
X56750000Y-42675000D01*
X56750000Y-43469670D01*
X56730255Y-43449925D01*
X56644745Y-43400556D01*
X56549370Y-43375000D01*
X56450630Y-43375000D01*
X56355255Y-43400556D01*
X56269745Y-43449925D01*
X56250000Y-43469670D01*
X56250000Y-42675000D01*
X56095804Y-42675000D01*
X56065393Y-42677851D01*
X55937354Y-42722653D01*
X55828207Y-42803207D01*
X55747653Y-42912354D01*
X55702850Y-43040395D01*
X55702850Y-43040399D01*
X55700000Y-43070793D01*
X44145084Y-43070793D01*
X44085557Y-42887588D01*
X43989051Y-42698184D01*
X43989049Y-42698181D01*
X43989048Y-42698179D01*
X43864109Y-42526213D01*
X43731609Y-42393713D01*
X118003500Y-42393713D01*
X118003500Y-42606287D01*
X118008941Y-42640639D01*
X118030306Y-42775536D01*
X118036754Y-42816243D01*
X118094328Y-42993438D01*
X118102444Y-43018414D01*
X118198951Y-43207820D01*
X118323890Y-43379786D01*
X118474213Y-43530109D01*
X118646179Y-43655048D01*
X118646181Y-43655049D01*
X118646184Y-43655051D01*
X118835588Y-43751557D01*
X119037757Y-43817246D01*
X119247713Y-43850500D01*
X119247714Y-43850500D01*
X119460286Y-43850500D01*
X119460287Y-43850500D01*
X119670243Y-43817246D01*
X119872412Y-43751557D01*
X120061816Y-43655051D01*
X120195965Y-43557587D01*
X120233786Y-43530109D01*
X120233788Y-43530106D01*
X120233792Y-43530104D01*
X120384104Y-43379792D01*
X120384106Y-43379788D01*
X120384109Y-43379786D01*
X120505763Y-43212341D01*
X120509051Y-43207816D01*
X120605557Y-43018412D01*
X120671246Y-42816243D01*
X120704500Y-42606287D01*
X120704500Y-42393713D01*
X120671246Y-42183757D01*
X120605557Y-41981588D01*
X120509051Y-41792184D01*
X120509049Y-41792181D01*
X120509048Y-41792179D01*
X120384109Y-41620213D01*
X120233786Y-41469890D01*
X120061820Y-41344951D01*
X119872414Y-41248444D01*
X119872413Y-41248443D01*
X119872412Y-41248443D01*
X119670243Y-41182754D01*
X119670241Y-41182753D01*
X119670240Y-41182753D01*
X119508957Y-41157208D01*
X119460287Y-41149500D01*
X119247713Y-41149500D01*
X119199042Y-41157208D01*
X119037760Y-41182753D01*
X118835585Y-41248444D01*
X118646179Y-41344951D01*
X118474213Y-41469890D01*
X118323890Y-41620213D01*
X118198951Y-41792179D01*
X118102444Y-41981585D01*
X118036753Y-42183760D01*
X118026111Y-42250951D01*
X118003500Y-42393713D01*
X43731609Y-42393713D01*
X43713786Y-42375890D01*
X43541820Y-42250951D01*
X43352414Y-42154444D01*
X43352413Y-42154443D01*
X43352412Y-42154443D01*
X43150243Y-42088754D01*
X43150241Y-42088753D01*
X43150240Y-42088753D01*
X42988957Y-42063208D01*
X42940287Y-42055500D01*
X42727713Y-42055500D01*
X42679042Y-42063208D01*
X42517760Y-42088753D01*
X42315585Y-42154444D01*
X42126179Y-42250951D01*
X41954213Y-42375890D01*
X41803890Y-42526213D01*
X41678951Y-42698179D01*
X41582444Y-42887585D01*
X41516753Y-43089760D01*
X41485297Y-43288365D01*
X41483500Y-43299713D01*
X40310973Y-43299713D01*
X40317653Y-43171991D01*
X40319006Y-43159108D01*
X40369337Y-42841140D01*
X40372034Y-42828451D01*
X40375305Y-42816243D01*
X40455325Y-42517508D01*
X40459329Y-42505179D01*
X40574685Y-42204612D01*
X40579953Y-42192780D01*
X40726092Y-41905935D01*
X40732570Y-41894713D01*
X40907897Y-41624716D01*
X40915515Y-41614230D01*
X41118107Y-41364042D01*
X41126774Y-41354416D01*
X41354416Y-41126774D01*
X41364042Y-41118107D01*
X41614230Y-40915515D01*
X41624716Y-40907897D01*
X41894713Y-40732570D01*
X41905936Y-40726091D01*
X42192780Y-40579953D01*
X42204612Y-40574685D01*
X42505179Y-40459329D01*
X42517508Y-40455325D01*
X42828459Y-40372032D01*
X42841140Y-40369337D01*
X43159108Y-40319006D01*
X43171993Y-40317653D01*
X43496742Y-40300668D01*
X43503203Y-40300500D01*
X43547560Y-40300506D01*
X43547563Y-40300504D01*
X43557500Y-40300506D01*
X43557587Y-40300500D01*
X118466415Y-40300500D01*
X118466501Y-40300506D01*
G37*
%TD.AperFunction*%
%TD*%
M02*
