%TF.GenerationSoftware,KiCad,Pcbnew,10.0.6*%
%TF.CreationDate,2026-09-14T19:03:00+09:00*%
%TF.ProjectId,katanori61,6b617461-6e6f-4726-9936-312e6b696361,rev?*%
%TF.SameCoordinates,Original*%
%TF.FileFunction,Copper,L1,Top*%
%TF.FilePolarity,Positive*%
%FSLAX46Y46*%
G04 Gerber Fmt 4.6, Leading zero omitted, Abs format (unit mm)*
G04 Created by KiCad (PCBNEW 10.0.6) date 2026-09-14 19:03:00*
%MOMM*%
%LPD*%
G01*
G04 APERTURE LIST*
G04 Aperture macros list*
%AMRoundRect*
0 Rectangle with rounded corners*
0 $1 Rounding radius*
0 $2 $3 $4 $5 $6 $7 $8 $9 X,Y pos of 4 corners*
0 Add a 4 corners polygon primitive as box body*
4,1,4,$2,$3,$4,$5,$6,$7,$8,$9,$2,$3,0*
0 Add four circle primitives for the rounded corners*
1,1,$1+$1,$2,$3*
1,1,$1+$1,$4,$5*
1,1,$1+$1,$6,$7*
1,1,$1+$1,$8,$9*
0 Add four rect primitives between the rounded corners*
20,1,$1+$1,$2,$3,$4,$5,0*
20,1,$1+$1,$4,$5,$6,$7,0*
20,1,$1+$1,$6,$7,$8,$9,0*
20,1,$1+$1,$8,$9,$2,$3,0*%
G04 Aperture macros list end*
%TA.AperFunction,SMDPad,CuDef*%
%ADD10RoundRect,0.250000X-0.450000X0.262500X-0.450000X-0.262500X0.450000X-0.262500X0.450000X0.262500X0*%
%TD*%
%TA.AperFunction,SMDPad,CuDef*%
%ADD11RoundRect,0.250000X-0.250000X-0.475000X0.250000X-0.475000X0.250000X0.475000X-0.250000X0.475000X0*%
%TD*%
%TA.AperFunction,SMDPad,CuDef*%
%ADD12RoundRect,0.062500X-0.350000X-0.062500X0.350000X-0.062500X0.350000X0.062500X-0.350000X0.062500X0*%
%TD*%
%TA.AperFunction,SMDPad,CuDef*%
%ADD13RoundRect,0.062500X-0.062500X-0.350000X0.062500X-0.350000X0.062500X0.350000X-0.062500X0.350000X0*%
%TD*%
%TA.AperFunction,HeatsinkPad*%
%ADD14R,2.500000X2.500000*%
%TD*%
%TA.AperFunction,SMDPad,CuDef*%
%ADD15RoundRect,0.250000X0.450000X-0.262500X0.450000X0.262500X-0.450000X0.262500X-0.450000X-0.262500X0*%
%TD*%
%TA.AperFunction,SMDPad,CuDef*%
%ADD16RoundRect,0.250000X-0.262500X-0.450000X0.262500X-0.450000X0.262500X0.450000X-0.262500X0.450000X0*%
%TD*%
%TA.AperFunction,SMDPad,CuDef*%
%ADD17RoundRect,0.243750X-0.243750X-0.456250X0.243750X-0.456250X0.243750X0.456250X-0.243750X0.456250X0*%
%TD*%
%TA.AperFunction,SMDPad,CuDef*%
%ADD18RoundRect,0.250000X-0.312500X-0.625000X0.312500X-0.625000X0.312500X0.625000X-0.312500X0.625000X0*%
%TD*%
%TA.AperFunction,SMDPad,CuDef*%
%ADD19RoundRect,0.075000X-0.650000X-0.075000X0.650000X-0.075000X0.650000X0.075000X-0.650000X0.075000X0*%
%TD*%
%TA.AperFunction,SMDPad,CuDef*%
%ADD20RoundRect,0.087500X-0.325000X-0.087500X0.325000X-0.087500X0.325000X0.087500X-0.325000X0.087500X0*%
%TD*%
%TA.AperFunction,SMDPad,CuDef*%
%ADD21RoundRect,0.087500X-0.087500X-0.325000X0.087500X-0.325000X0.087500X0.325000X-0.087500X0.325000X0*%
%TD*%
%TA.AperFunction,HeatsinkPad*%
%ADD22R,2.700000X2.700000*%
%TD*%
%TA.AperFunction,SMDPad,CuDef*%
%ADD23RoundRect,0.250000X-0.300000X-1.600000X0.300000X-1.600000X0.300000X1.600000X-0.300000X1.600000X0*%
%TD*%
%TA.AperFunction,SMDPad,CuDef*%
%ADD24RoundRect,0.250000X0.475000X-0.250000X0.475000X0.250000X-0.475000X0.250000X-0.475000X-0.250000X0*%
%TD*%
%TA.AperFunction,SMDPad,CuDef*%
%ADD25RoundRect,0.250000X0.650000X-0.325000X0.650000X0.325000X-0.650000X0.325000X-0.650000X-0.325000X0*%
%TD*%
%TA.AperFunction,SMDPad,CuDef*%
%ADD26RoundRect,0.150000X-0.587500X-0.150000X0.587500X-0.150000X0.587500X0.150000X-0.587500X0.150000X0*%
%TD*%
%TA.AperFunction,SMDPad,CuDef*%
%ADD27RoundRect,0.250000X-0.475000X0.250000X-0.475000X-0.250000X0.475000X-0.250000X0.475000X0.250000X0*%
%TD*%
%TA.AperFunction,SMDPad,CuDef*%
%ADD28RoundRect,0.225000X-0.375000X0.225000X-0.375000X-0.225000X0.375000X-0.225000X0.375000X0.225000X0*%
%TD*%
%TA.AperFunction,SMDPad,CuDef*%
%ADD29RoundRect,0.150000X-0.150000X0.587500X-0.150000X-0.587500X0.150000X-0.587500X0.150000X0.587500X0*%
%TD*%
%TA.AperFunction,SMDPad,CuDef*%
%ADD30RoundRect,0.150000X-0.825000X-0.150000X0.825000X-0.150000X0.825000X0.150000X-0.825000X0.150000X0*%
%TD*%
%TA.AperFunction,ComponentPad*%
%ADD31RoundRect,0.250000X0.350000X0.625000X-0.350000X0.625000X-0.350000X-0.625000X0.350000X-0.625000X0*%
%TD*%
%TA.AperFunction,ComponentPad*%
%ADD32O,1.200000X1.750000*%
%TD*%
%TA.AperFunction,ComponentPad*%
%ADD33RoundRect,0.250000X-0.625000X0.350000X-0.625000X-0.350000X0.625000X-0.350000X0.625000X0.350000X0*%
%TD*%
%TA.AperFunction,ComponentPad*%
%ADD34O,1.750000X1.200000*%
%TD*%
%TA.AperFunction,ComponentPad*%
%ADD35RoundRect,0.250000X-0.350000X-0.625000X0.350000X-0.625000X0.350000X0.625000X-0.350000X0.625000X0*%
%TD*%
%TA.AperFunction,ComponentPad*%
%ADD36R,1.700000X1.700000*%
%TD*%
%TA.AperFunction,ComponentPad*%
%ADD37C,1.700000*%
%TD*%
%TA.AperFunction,SMDPad,CuDef*%
%ADD38RoundRect,0.150000X0.575000X-0.150000X0.575000X0.150000X-0.575000X0.150000X-0.575000X-0.150000X0*%
%TD*%
%TA.AperFunction,SMDPad,CuDef*%
%ADD39RoundRect,0.075000X0.650000X-0.075000X0.650000X0.075000X-0.650000X0.075000X-0.650000X-0.075000X0*%
%TD*%
%TA.AperFunction,ComponentPad*%
%ADD40O,2.100000X1.000000*%
%TD*%
%TA.AperFunction,SMDPad,CuDef*%
%ADD41R,1.000000X2.200000*%
%TD*%
%TA.AperFunction,ViaPad*%
%ADD42C,0.800000*%
%TD*%
%TA.AperFunction,ViaPad*%
%ADD43C,0.600000*%
%TD*%
%TA.AperFunction,Conductor*%
%ADD44C,0.200000*%
%TD*%
%TA.AperFunction,Conductor*%
%ADD45C,0.150000*%
%TD*%
G04 APERTURE END LIST*
D10*
%TO.P,R44,1*%
%TO.N,CC1*%
X92745000Y-65479500D03*
%TO.P,R44,2*%
%TO.N,GND*%
X92745000Y-67304500D03*
%TD*%
%TO.P,R45,1*%
%TO.N,CC2*%
X92745000Y-61969500D03*
%TO.P,R45,2*%
%TO.N,GND*%
X92745000Y-63794500D03*
%TD*%
D11*
%TO.P,C8,1*%
%TO.N,VBUS*%
X68364000Y-45894000D03*
%TO.P,C8,2*%
%TO.N,GND*%
X70264000Y-45894000D03*
%TD*%
%TO.P,C7,1*%
%TO.N,VLIPO*%
X72535000Y-45894000D03*
%TO.P,C7,2*%
%TO.N,GND*%
X74435000Y-45894000D03*
%TD*%
D12*
%TO.P,U2,1*%
%TO.N,VSYS*%
X65938500Y-50798000D03*
%TO.P,U2,2*%
%TO.N,VPCC*%
X65938500Y-51298000D03*
%TO.P,U2,3*%
%TO.N,VBUS*%
X65938500Y-51798000D03*
%TO.P,U2,4*%
X65938500Y-52298000D03*
%TO.P,U2,5*%
%TO.N,THERM*%
X65938500Y-52798000D03*
D13*
%TO.P,U2,6*%
%TO.N,unconnected-(U2-~{PG}-Pad6)*%
X66876000Y-53735500D03*
%TO.P,U2,7*%
%TO.N,STAT2*%
X67376000Y-53735500D03*
%TO.P,U2,8*%
%TO.N,STAT1*%
X67876000Y-53735500D03*
%TO.P,U2,9*%
%TO.N,VBUS*%
X68376000Y-53735500D03*
%TO.P,U2,10*%
%TO.N,GND*%
X68876000Y-53735500D03*
D12*
%TO.P,U2,11*%
X69813500Y-52798000D03*
%TO.P,U2,12*%
%TO.N,PROG3*%
X69813500Y-52298000D03*
%TO.P,U2,13*%
%TO.N,PROG1*%
X69813500Y-51798000D03*
%TO.P,U2,14*%
%TO.N,VLIPO*%
X69813500Y-51298000D03*
%TO.P,U2,15*%
X69813500Y-50798000D03*
D13*
%TO.P,U2,16*%
X68876000Y-49860500D03*
%TO.P,U2,17*%
%TO.N,VBUS*%
X68376000Y-49860500D03*
%TO.P,U2,18*%
X67876000Y-49860500D03*
%TO.P,U2,19*%
X67376000Y-49860500D03*
%TO.P,U2,20*%
%TO.N,VSYS*%
X66876000Y-49860500D03*
D14*
%TO.P,U2,21*%
%TO.N,GND*%
X67876000Y-51798000D03*
%TD*%
D15*
%TO.P,R6,1*%
%TO.N,VBUS*%
X60971000Y-60616500D03*
%TO.P,R6,2*%
%TO.N,VPCC*%
X60971000Y-58791500D03*
%TD*%
%TO.P,R7,1*%
%TO.N,VPCC*%
X60971000Y-64127500D03*
%TO.P,R7,2*%
%TO.N,GND*%
X60971000Y-62302500D03*
%TD*%
D16*
%TO.P,R16,1*%
%TO.N,GND*%
X65272500Y-62641000D03*
%TO.P,R16,2*%
%TO.N,PROG1*%
X67097500Y-62641000D03*
%TD*%
%TO.P,R17,1*%
%TO.N,GND*%
X68922500Y-59974000D03*
%TO.P,R17,2*%
%TO.N,PROG3*%
X70747500Y-59974000D03*
%TD*%
%TO.P,R15,1*%
%TO.N,GND*%
X72700500Y-60923000D03*
%TO.P,R15,2*%
%TO.N,THERM*%
X74525500Y-60923000D03*
%TD*%
D17*
%TO.P,LED4,1*%
%TO.N,N_LED4*%
X69164500Y-62024000D03*
%TO.P,LED4,2*%
%TO.N,VBUS*%
X71039500Y-62024000D03*
%TD*%
D16*
%TO.P,R8,1*%
%TO.N,N_LED4*%
X72350500Y-57275000D03*
%TO.P,R8,2*%
%TO.N,STAT1*%
X74175500Y-57275000D03*
%TD*%
D17*
%TO.P,LED3,1*%
%TO.N,N_LED3*%
X76557500Y-52670000D03*
%TO.P,LED3,2*%
%TO.N,VBUS*%
X78432500Y-52670000D03*
%TD*%
D16*
%TO.P,R14,1*%
%TO.N,N_LED3*%
X76696500Y-56611000D03*
%TO.P,R14,2*%
%TO.N,STAT2*%
X78521500Y-56611000D03*
%TD*%
D18*
%TO.P,R41,1*%
%TO.N,BATP*%
X68893500Y-72195000D03*
%TO.P,R41,2*%
%TO.N,VLIPO*%
X71818500Y-72195000D03*
%TD*%
D19*
%TO.P,U3,1*%
%TO.N,V33*%
X71518000Y-48200000D03*
%TO.P,U3,2*%
%TO.N,GND*%
X71518000Y-48700000D03*
%TO.P,U3,3*%
%TO.N,unconnected-(U3-~{Alert}-Pad3)*%
X71518000Y-49200000D03*
%TO.P,U3,4*%
%TO.N,SDA*%
X71518000Y-49700000D03*
%TO.P,U3,5*%
%TO.N,SCL*%
X71518000Y-50200000D03*
%TO.P,U3,6*%
%TO.N,V33*%
X75818000Y-50200000D03*
%TO.P,U3,7*%
%TO.N,GND*%
X75818000Y-49700000D03*
%TO.P,U3,8*%
%TO.N,VLIPO*%
X75818000Y-49200000D03*
%TO.P,U3,9*%
X75818000Y-48700000D03*
%TO.P,U3,10*%
%TO.N,BATP*%
X75818000Y-48200000D03*
%TD*%
D11*
%TO.P,C41,1*%
%TO.N,V33*%
X72735000Y-53475000D03*
%TO.P,C41,2*%
%TO.N,GND*%
X74635000Y-53475000D03*
%TD*%
D16*
%TO.P,R42,1*%
%TO.N,V33*%
X77829500Y-50225000D03*
%TO.P,R42,2*%
%TO.N,SDA*%
X79654500Y-50225000D03*
%TD*%
%TO.P,R43,1*%
%TO.N,V33*%
X90821500Y-72195000D03*
%TO.P,R43,2*%
%TO.N,SCL*%
X92646500Y-72195000D03*
%TD*%
D20*
%TO.P,U1,1*%
%TO.N,V5*%
X84035500Y-48139000D03*
%TO.P,U1,2*%
%TO.N,unconnected-(U1-NC-Pad2)*%
X84035500Y-48789000D03*
%TO.P,U1,3*%
%TO.N,SW*%
X84035500Y-49439000D03*
%TO.P,U1,4*%
X84035500Y-50089000D03*
D21*
%TO.P,U1,5*%
%TO.N,GND*%
X85023000Y-51076500D03*
%TO.P,U1,6*%
X85673000Y-51076500D03*
%TO.P,U1,7*%
X86323000Y-51076500D03*
%TO.P,U1,8*%
%TO.N,VSYS*%
X86973000Y-51076500D03*
D20*
%TO.P,U1,9*%
%TO.N,LBI*%
X87960500Y-50089000D03*
%TO.P,U1,10*%
%TO.N,GND*%
X87960500Y-49439000D03*
%TO.P,U1,11*%
%TO.N,EN*%
X87960500Y-48789000D03*
%TO.P,U1,12*%
%TO.N,LBO*%
X87960500Y-48139000D03*
D21*
%TO.P,U1,13*%
%TO.N,GND*%
X86973000Y-47151500D03*
%TO.P,U1,14*%
%TO.N,FB*%
X86323000Y-47151500D03*
%TO.P,U1,15*%
%TO.N,V5*%
X85673000Y-47151500D03*
%TO.P,U1,16*%
X85023000Y-47151500D03*
D22*
%TO.P,U1,17*%
%TO.N,GND*%
X85998000Y-49114000D03*
%TD*%
D23*
%TO.P,L1,1*%
%TO.N,VSYS*%
X77747000Y-47016000D03*
%TO.P,L1,2*%
%TO.N,SW*%
X80747000Y-47016000D03*
%TD*%
D11*
%TO.P,C1,1*%
%TO.N,VSYS*%
X76285000Y-54647000D03*
%TO.P,C1,2*%
%TO.N,GND*%
X78185000Y-54647000D03*
%TD*%
%TO.P,C4,1*%
%TO.N,VSYS*%
X80074000Y-53062000D03*
%TO.P,C4,2*%
%TO.N,GND*%
X81974000Y-53062000D03*
%TD*%
D24*
%TO.P,C2,1*%
%TO.N,V5*%
X84509000Y-55432000D03*
%TO.P,C2,2*%
%TO.N,GND*%
X84509000Y-53532000D03*
%TD*%
D25*
%TO.P,C6,1*%
%TO.N,V5*%
X91734000Y-57030000D03*
%TO.P,C6,2*%
%TO.N,GND*%
X91734000Y-54080000D03*
%TD*%
%TO.P,C9,1*%
%TO.N,V5*%
X94862000Y-57030000D03*
%TO.P,C9,2*%
%TO.N,GND*%
X94862000Y-54080000D03*
%TD*%
D15*
%TO.P,R3,1*%
%TO.N,V5*%
X88605000Y-56467500D03*
%TO.P,R3,2*%
%TO.N,FB*%
X88605000Y-54642500D03*
%TD*%
%TO.P,R4,1*%
%TO.N,FB*%
X89603000Y-60761500D03*
%TO.P,R4,2*%
%TO.N,GND*%
X89603000Y-58936500D03*
%TD*%
D16*
%TO.P,R1,1*%
%TO.N,VSYS*%
X75748500Y-58782000D03*
%TO.P,R1,2*%
%TO.N,LBI*%
X77573500Y-58782000D03*
%TD*%
%TO.P,R2,1*%
%TO.N,LBI*%
X79260500Y-58552000D03*
%TO.P,R2,2*%
%TO.N,GND*%
X81085500Y-58552000D03*
%TD*%
%TO.P,R13,1*%
%TO.N,VSYS*%
X91341500Y-59650000D03*
%TO.P,R13,2*%
%TO.N,EN*%
X93166500Y-59650000D03*
%TD*%
D26*
%TO.P,Q1,1*%
%TO.N,LBO*%
X81142500Y-60296000D03*
%TO.P,Q1,2*%
%TO.N,VSYS*%
X81142500Y-62196000D03*
%TO.P,Q1,3*%
%TO.N,N_Q1C*%
X83017500Y-61246000D03*
%TD*%
D16*
%TO.P,R20,1*%
%TO.N,N_Q1C*%
X83000500Y-64047000D03*
%TO.P,R20,2*%
%TO.N,N_LED1*%
X84825500Y-64047000D03*
%TD*%
D17*
%TO.P,LED1,1*%
%TO.N,GND*%
X86625500Y-63070000D03*
%TO.P,LED1,2*%
%TO.N,N_LED1*%
X88500500Y-63070000D03*
%TD*%
D16*
%TO.P,R5,1*%
%TO.N,V5*%
X82656500Y-58568000D03*
%TO.P,R5,2*%
%TO.N,N_LED2*%
X84481500Y-58568000D03*
%TD*%
D17*
%TO.P,LED2,1*%
%TO.N,GND*%
X86033500Y-59313000D03*
%TO.P,LED2,2*%
%TO.N,N_LED2*%
X87908500Y-59313000D03*
%TD*%
D27*
%TO.P,C31,1*%
%TO.N,V5*%
X57590000Y-45400000D03*
%TO.P,C31,2*%
%TO.N,GND*%
X57590000Y-47300000D03*
%TD*%
D10*
%TO.P,R32,1*%
%TO.N,BASE*%
X57590000Y-49237500D03*
%TO.P,R32,2*%
%TO.N,GND*%
X57590000Y-51062500D03*
%TD*%
%TO.P,R31,1*%
%TO.N,IN*%
X57590000Y-53037500D03*
%TO.P,R31,2*%
%TO.N,BASE*%
X57590000Y-54862500D03*
%TD*%
D28*
%TO.P,D31,1*%
%TO.N,V5*%
X55100000Y-55776000D03*
%TO.P,D31,2*%
%TO.N,COL*%
X55100000Y-59076000D03*
%TD*%
D29*
%TO.P,Q31,1*%
%TO.N,BASE*%
X56600000Y-60918500D03*
%TO.P,Q31,2*%
%TO.N,GND*%
X54700000Y-60918500D03*
%TO.P,Q31,3*%
%TO.N,COL*%
X55650000Y-62793500D03*
%TD*%
D27*
%TO.P,C32,1*%
%TO.N,EN*%
X82400000Y-54817000D03*
%TO.P,C32,2*%
%TO.N,GND*%
X82400000Y-56717000D03*
%TD*%
D30*
%TO.P,U4,1*%
%TO.N,V33*%
X103225000Y-61695000D03*
%TO.P,U4,2*%
X103225000Y-62965000D03*
%TO.P,U4,3*%
%TO.N,unconnected-(U4-OUT-Pad3)*%
X103225000Y-64235000D03*
%TO.P,U4,4*%
%TO.N,GND*%
X103225000Y-65505000D03*
%TO.P,U4,5*%
%TO.N,unconnected-(U4-PGO-Pad5)*%
X108175000Y-65505000D03*
%TO.P,U4,6*%
%TO.N,SDA*%
X108175000Y-64235000D03*
%TO.P,U4,7*%
%TO.N,SCL*%
X108175000Y-62965000D03*
%TO.P,U4,8*%
%TO.N,GND*%
X108175000Y-61695000D03*
%TD*%
D11*
%TO.P,C42,1*%
%TO.N,V33*%
X96550000Y-63600000D03*
%TO.P,C42,2*%
%TO.N,GND*%
X98450000Y-63600000D03*
%TD*%
D31*
%TO.P,J4,1*%
%TO.N,SPKP*%
X116300000Y-69350000D03*
D32*
%TO.P,J4,2*%
%TO.N,SPKM*%
X114300000Y-69350000D03*
%TD*%
D33*
%TO.P,J5,1*%
%TO.N,SPKM*%
X51950000Y-59300000D03*
D34*
%TO.P,J5,2*%
%TO.N,SPKO*%
X51950000Y-61300000D03*
%TD*%
D35*
%TO.P,J7,1*%
%TO.N,EN*%
X100500000Y-43750000D03*
D32*
%TO.P,J7,2*%
%TO.N,GND*%
X102500000Y-43750000D03*
%TO.P,J7,3*%
%TO.N,EN*%
X104500000Y-43750000D03*
%TO.P,J7,4*%
%TO.N,GND*%
X106500000Y-43750000D03*
%TD*%
D33*
%TO.P,J10,1*%
%TO.N,GND*%
X43550000Y-50850000D03*
D34*
%TO.P,J10,2*%
%TO.N,BATP*%
X43550000Y-52850000D03*
%TD*%
D36*
%TO.P,J1,1*%
%TO.N,V5*%
X41770000Y-65595000D03*
D37*
%TO.P,J1,2*%
%TO.N,GND*%
X44310000Y-65595000D03*
%TO.P,J1,3*%
%TO.N,V33*%
X46850000Y-65595000D03*
%TO.P,J1,4*%
%TO.N,SDA*%
X49390000Y-65595000D03*
%TO.P,J1,5*%
%TO.N,SCL*%
X51930000Y-65595000D03*
%TO.P,J1,6*%
%TO.N,BTN*%
X54470000Y-65595000D03*
%TO.P,J1,7*%
%TO.N,IN*%
X57010000Y-65595000D03*
%TD*%
D36*
%TO.P,J2,1*%
%TO.N,GND*%
X77240000Y-72630000D03*
D37*
%TO.P,J2,2*%
%TO.N,V33*%
X79780000Y-72630000D03*
%TO.P,J2,3*%
%TO.N,SCL*%
X82320000Y-72630000D03*
%TO.P,J2,4*%
%TO.N,SDA*%
X84860000Y-72630000D03*
%TD*%
D38*
%TO.P,J13,A1*%
%TO.N,GND*%
X115859000Y-54650000D03*
%TO.P,J13,A4*%
%TO.N,VBUS*%
X115859000Y-53850000D03*
D39*
%TO.P,J13,A5*%
%TO.N,CC1*%
X115859000Y-52650000D03*
%TO.P,J13,A6*%
%TO.N,unconnected-(J13-D+-PadA6)*%
X115859000Y-51650000D03*
%TO.P,J13,A7*%
%TO.N,unconnected-(J13-D--PadA7)*%
X115859000Y-51150000D03*
%TO.P,J13,A8*%
%TO.N,unconnected-(J13-SBU1-PadA8)*%
X115859000Y-50150000D03*
D38*
%TO.P,J13,A9*%
%TO.N,VBUS*%
X115859000Y-48950000D03*
%TO.P,J13,A12*%
%TO.N,GND*%
X115859000Y-48150000D03*
%TO.P,J13,B1*%
X115859000Y-48150000D03*
%TO.P,J13,B4*%
%TO.N,VBUS*%
X115859000Y-48950000D03*
D39*
%TO.P,J13,B5*%
%TO.N,CC2*%
X115859000Y-49650000D03*
%TO.P,J13,B6*%
%TO.N,unconnected-(J13-D+-PadB6)*%
X115859000Y-50650000D03*
%TO.P,J13,B7*%
%TO.N,unconnected-(J13-D--PadB7)*%
X115859000Y-52150000D03*
%TO.P,J13,B8*%
%TO.N,unconnected-(J13-SBU2-PadB8)*%
X115859000Y-53150000D03*
D38*
%TO.P,J13,B9*%
%TO.N,VBUS*%
X115859000Y-53850000D03*
%TO.P,J13,B12*%
%TO.N,GND*%
X115859000Y-54650000D03*
D40*
%TO.P,J13,SH*%
X116774000Y-55720000D03*
X116774000Y-47080000D03*
%TD*%
D41*
%TO.P,K31,1*%
%TO.N,V5*%
X97650000Y-58250000D03*
%TO.P,K31,3*%
%TO.N,unconnected-(K31-Pad3)*%
X102730000Y-58250000D03*
%TO.P,K31,4*%
%TO.N,SPKP*%
X105270000Y-58250000D03*
%TO.P,K31,5*%
%TO.N,SPKO*%
X107810000Y-58250000D03*
%TO.P,K31,8*%
%TO.N,unconnected-(K31-Pad8)*%
X107810000Y-50250000D03*
%TO.P,K31,9*%
%TO.N,unconnected-(K31-Pad9)*%
X105270000Y-50250000D03*
%TO.P,K31,10*%
%TO.N,unconnected-(K31-Pad10)*%
X102730000Y-50250000D03*
%TO.P,K31,12*%
%TO.N,COL*%
X97650000Y-50250000D03*
%TD*%
D42*
%TO.N,BASE*%
X56332000Y-49300000D03*
X56600000Y-59627400D03*
%TO.N,BATP*%
X74544400Y-47474900D03*
X51496900Y-71860000D03*
%TO.N,CC1*%
X94289500Y-65308400D03*
X117382000Y-52749800D03*
%TO.N,CC2*%
X99922600Y-61090000D03*
X114149200Y-49901700D03*
%TO.N,COL*%
X56508000Y-62793900D03*
X96619800Y-48898300D03*
%TO.N,EN*%
X83695100Y-56529100D03*
X94250400Y-59330700D03*
X95658700Y-49013100D03*
%TO.N,FB*%
X88331100Y-60864900D03*
X87350100Y-54339400D03*
X86654600Y-46156600D03*
%TO.N,GND*%
X96762100Y-53253800D03*
X70194900Y-53738200D03*
%TO.N,IN*%
X56333500Y-53060000D03*
%TO.N,LBI*%
X77574200Y-60047700D03*
X88625100Y-50803300D03*
%TO.N,LBO*%
X79836500Y-60296300D03*
X89144800Y-47924200D03*
%TO.N,N_LED4*%
X74146200Y-58986400D03*
X70084700Y-63076700D03*
%TO.N,PROG1*%
X70942800Y-51766500D03*
X68170700Y-63242800D03*
%TO.N,SCL*%
X73578800Y-50663900D03*
X93745200Y-71860000D03*
X106635900Y-62965000D03*
%TO.N,SDA*%
X73579800Y-49700000D03*
X80747000Y-50107800D03*
X101638500Y-64662500D03*
%TO.N,SPKM*%
X58809800Y-65441400D03*
%TO.N,SPKO*%
X91481400Y-64999100D03*
X105881800Y-59914200D03*
%TO.N,SPKP*%
X104296400Y-59700000D03*
%TO.N,STAT1*%
X67875600Y-54822400D03*
X73410900Y-56023200D03*
%TO.N,STAT2*%
X66530900Y-55057700D03*
X79668100Y-56610900D03*
%TO.N,THERM*%
X65938100Y-53514700D03*
X73592600Y-59815600D03*
%TO.N,V33*%
X76634100Y-47012200D03*
X71682100Y-53475000D03*
X70237600Y-49424400D03*
X89732600Y-72519200D03*
X101681900Y-62944100D03*
%TO.N,V5*%
X54795600Y-56782500D03*
X58877200Y-45538400D03*
X89878700Y-56789500D03*
X83063100Y-48242300D03*
%TO.N,VBUS*%
X86012800Y-55833000D03*
X82089600Y-51773700D03*
X64508000Y-53708200D03*
X62234800Y-60617200D03*
X72052700Y-63021700D03*
%TO.N,VLIPO*%
X72596300Y-50896900D03*
X72963000Y-72194700D03*
%TO.N,VPCC*%
X59700000Y-64127200D03*
X61432300Y-57709600D03*
%TO.N,VSYS*%
X66081900Y-49854900D03*
X75376000Y-44808800D03*
X83157500Y-46134400D03*
X85947200Y-54803700D03*
X91186300Y-58394600D03*
D43*
%TO.N,GND*%
X41000000Y-76400000D03*
X41000000Y-73200000D03*
X41000000Y-70000000D03*
X41000000Y-63600000D03*
X41000000Y-60400000D03*
X41000000Y-57200000D03*
X41000000Y-54000000D03*
X41000000Y-50800000D03*
X41000000Y-47600000D03*
X44200000Y-76400000D03*
X44200000Y-70000000D03*
X44200000Y-60400000D03*
X44200000Y-57200000D03*
X44200000Y-47600000D03*
X47400000Y-76400000D03*
X47400000Y-73200000D03*
X47400000Y-70000000D03*
X47400000Y-54000000D03*
X47400000Y-47600000D03*
X47400000Y-44400000D03*
X47400000Y-41200000D03*
X50600000Y-76400000D03*
X50600000Y-73200000D03*
X50600000Y-63600000D03*
X50600000Y-54000000D03*
X50600000Y-47600000D03*
X50600000Y-41200000D03*
X53800000Y-76400000D03*
X53800000Y-73200000D03*
X53800000Y-54000000D03*
X53800000Y-47600000D03*
X53800000Y-44400000D03*
X53800000Y-41200000D03*
X57000000Y-76400000D03*
X57000000Y-73200000D03*
X57000000Y-41200000D03*
X60200000Y-76400000D03*
X60200000Y-73200000D03*
X60200000Y-50800000D03*
X60200000Y-41200000D03*
X63400000Y-76400000D03*
X63400000Y-73200000D03*
X63400000Y-66800000D03*
X63400000Y-63600000D03*
X63400000Y-41200000D03*
X66600000Y-76400000D03*
X66600000Y-73200000D03*
X66600000Y-66800000D03*
X66600000Y-41200000D03*
X69800000Y-76400000D03*
X69800000Y-66800000D03*
X69800000Y-41200000D03*
X73000000Y-76400000D03*
X73000000Y-66800000D03*
X73000000Y-41200000D03*
X76200000Y-76400000D03*
X76200000Y-41200000D03*
X79400000Y-76400000D03*
X79400000Y-66800000D03*
X79400000Y-63600000D03*
X79400000Y-41200000D03*
X82600000Y-76400000D03*
X82600000Y-66800000D03*
X82600000Y-41200000D03*
X85800000Y-76400000D03*
X85800000Y-44400000D03*
X85800000Y-41200000D03*
X89000000Y-76400000D03*
X89000000Y-66800000D03*
X89000000Y-44400000D03*
X89000000Y-41200000D03*
X92200000Y-76400000D03*
X92200000Y-47600000D03*
X92200000Y-44400000D03*
X92200000Y-41200000D03*
X95400000Y-76400000D03*
X95400000Y-50800000D03*
X95400000Y-47600000D03*
X95400000Y-44400000D03*
X95400000Y-41200000D03*
X98600000Y-76400000D03*
X98600000Y-73200000D03*
X98600000Y-54000000D03*
X98600000Y-47600000D03*
X98600000Y-41200000D03*
X101800000Y-76400000D03*
X101800000Y-73200000D03*
X101800000Y-54000000D03*
X101800000Y-41200000D03*
X105000000Y-76400000D03*
X105000000Y-73200000D03*
X105000000Y-66800000D03*
X105000000Y-54000000D03*
X105000000Y-47600000D03*
X105000000Y-41200000D03*
X108200000Y-76400000D03*
X108200000Y-73200000D03*
X108200000Y-66800000D03*
X108200000Y-47600000D03*
X108200000Y-41200000D03*
X111400000Y-76400000D03*
X111400000Y-66800000D03*
X111400000Y-57200000D03*
X111400000Y-54000000D03*
X111400000Y-41200000D03*
X114600000Y-76400000D03*
X114600000Y-73200000D03*
X114600000Y-63600000D03*
X114600000Y-60400000D03*
X114600000Y-44400000D03*
X114600000Y-41200000D03*
X117800000Y-76400000D03*
X117800000Y-73200000D03*
X117800000Y-70000000D03*
X117800000Y-66800000D03*
X117800000Y-63600000D03*
X117800000Y-60400000D03*
X117800000Y-50800000D03*
X121000000Y-76400000D03*
X121000000Y-73200000D03*
X121000000Y-70000000D03*
X121000000Y-66800000D03*
X121000000Y-63600000D03*
X121000000Y-60400000D03*
X121000000Y-57200000D03*
X121000000Y-54000000D03*
X121000000Y-50800000D03*
X121000000Y-47600000D03*
%TD*%
%TO.N,BASE*%
D44*
X57590000Y-54862500D02*
X57590000Y-55626700D01*
X56600000Y-59627400D02*
X56600000Y-56616700D01*
X56600000Y-56616700D02*
X57590000Y-55626700D01*
X56332000Y-49300000D02*
X56575800Y-49300000D01*
X56575800Y-49300000D02*
X56638300Y-49237500D01*
X57590000Y-49237500D02*
X56638300Y-49237500D01*
X56600000Y-59627400D02*
X56600000Y-60918900D01*
%TO.N,BATP*%
X74544400Y-47474900D02*
X74698900Y-47474900D01*
X74698900Y-47474900D02*
X75050600Y-47826600D01*
X75050600Y-47826600D02*
X76029700Y-47826600D01*
X76029700Y-47826600D02*
X76218700Y-48015600D01*
X76218700Y-48015600D02*
X76609800Y-48015600D01*
X76609800Y-48015600D02*
X76617300Y-48023100D01*
X76617300Y-48023100D02*
X76617300Y-48023200D01*
X76617300Y-48023200D02*
X76794000Y-48199900D01*
X76794000Y-48199900D02*
X76794000Y-48200000D01*
X75817300Y-48200000D02*
X76794000Y-48200000D01*
X68079700Y-72194700D02*
X67745000Y-71860000D01*
X67745000Y-71860000D02*
X51496900Y-71860000D01*
X68893900Y-72194700D02*
X68079700Y-72194700D01*
%TO.N,CC1*%
X93696700Y-65480000D02*
X93868300Y-65308400D01*
X93868300Y-65308400D02*
X94289500Y-65308400D01*
D45*
X116810700Y-52650000D02*
X116910500Y-52749800D01*
X116910500Y-52749800D02*
X117382000Y-52749800D01*
D44*
X92745000Y-65480000D02*
X93696700Y-65480000D01*
D45*
X115859000Y-52650000D02*
X116810700Y-52650000D01*
%TO.N,CC2*%
D44*
X114567400Y-49749800D02*
X114415500Y-49901700D01*
X114415500Y-49901700D02*
X114149200Y-49901700D01*
X93696700Y-61970000D02*
X94576700Y-61090000D01*
X94576700Y-61090000D02*
X99922600Y-61090000D01*
X92745000Y-61970000D02*
X93696700Y-61970000D01*
D45*
X115859000Y-49650000D02*
X114907300Y-49650000D01*
X114567400Y-49749800D02*
X114807500Y-49749800D01*
X114807500Y-49749800D02*
X114907300Y-49650000D01*
%TO.N,COL*%
D44*
X56508000Y-62793900D02*
X56201700Y-62793900D01*
X55650000Y-62793900D02*
X56201700Y-62793900D01*
X55250200Y-61906600D02*
X55650000Y-62306400D01*
X55650000Y-62306400D02*
X55650000Y-62793900D01*
D45*
X55250200Y-59076400D02*
X55250200Y-61906600D01*
D44*
X55100000Y-59076400D02*
X55250200Y-59076400D01*
X96619800Y-48898300D02*
X97650000Y-48898300D01*
X97650000Y-50250000D02*
X97650000Y-48898300D01*
%TO.N,EN*%
X82399600Y-54817400D02*
X82399600Y-55569100D01*
X82399600Y-55569100D02*
X82839100Y-55569100D01*
X82839100Y-55569100D02*
X83695100Y-56425100D01*
X83695100Y-56425100D02*
X83695100Y-56529100D01*
D45*
X88600100Y-48789500D02*
X88823700Y-49013100D01*
X88823700Y-49013100D02*
X95658700Y-49013100D01*
D44*
X104500000Y-43750000D02*
X103648300Y-43750000D01*
X100500000Y-43750000D02*
X101351700Y-43750000D01*
X101351700Y-43750000D02*
X101351700Y-43004800D01*
X101351700Y-43004800D02*
X101733200Y-42623300D01*
X101733200Y-42623300D02*
X103266800Y-42623300D01*
X103266800Y-42623300D02*
X103648300Y-43004800D01*
X103648300Y-43004800D02*
X103648300Y-43750000D01*
X94250400Y-59330700D02*
X93931100Y-59650000D01*
X93166900Y-59650000D02*
X93931100Y-59650000D01*
D45*
X87960900Y-48789500D02*
X88600100Y-48789500D01*
%TO.N,FB*%
D44*
X86323400Y-46487800D02*
X86654600Y-46156600D01*
X88652600Y-60762000D02*
X88549700Y-60864900D01*
X88549700Y-60864900D02*
X88331100Y-60864900D01*
X87350100Y-54339400D02*
X87653700Y-54643000D01*
X89604300Y-60762000D02*
X88652600Y-60762000D01*
X88605400Y-54643000D02*
X87653700Y-54643000D01*
X86323400Y-47152000D02*
X86323400Y-46487800D01*
%TO.N,GND*%
X71015300Y-44883400D02*
X73142300Y-44883400D01*
X73142300Y-44883400D02*
X73683100Y-45424200D01*
X73683100Y-45424200D02*
X73683100Y-45894000D01*
X57590000Y-47300000D02*
X64478100Y-47300000D01*
X64478100Y-47300000D02*
X66894700Y-44883400D01*
X66894700Y-44883400D02*
X71015300Y-44883400D01*
X71015300Y-44883400D02*
X71015300Y-45894000D01*
X74434800Y-45894000D02*
X73683100Y-45894000D01*
X77325700Y-51895100D02*
X77937000Y-51283800D01*
X77937000Y-51283800D02*
X81236300Y-51283800D01*
X81236300Y-51283800D02*
X81411600Y-51108500D01*
X81411600Y-51108500D02*
X84722800Y-51108500D01*
X84722800Y-51108500D02*
X85023400Y-51409100D01*
X74824700Y-49700000D02*
X75817300Y-49700000D01*
X71517300Y-48700000D02*
X73824700Y-48700000D01*
X73824700Y-48700000D02*
X74824700Y-49700000D01*
X76011700Y-51668700D02*
X74824700Y-50481700D01*
X74824700Y-50481700D02*
X74824700Y-49700000D01*
X77325700Y-51895100D02*
X77099300Y-51668700D01*
X77099300Y-51668700D02*
X76011700Y-51668700D01*
X75386500Y-53475000D02*
X75386500Y-52293900D01*
X75386500Y-52293900D02*
X76011700Y-51668700D01*
X77325700Y-51895100D02*
X77325700Y-53116300D01*
X77325700Y-53116300D02*
X77879800Y-53670400D01*
X77879800Y-53670400D02*
X78184800Y-53670400D01*
X85023400Y-51409100D02*
X85023400Y-51741200D01*
X85023400Y-51077000D02*
X85023400Y-51409100D01*
X54700000Y-60918900D02*
X54148300Y-60918900D01*
X54148300Y-60918900D02*
X53610800Y-60381400D01*
X53610800Y-60381400D02*
X49523600Y-60381400D01*
X49523600Y-60381400D02*
X44310000Y-65595000D01*
X74634800Y-53475000D02*
X75386500Y-53475000D01*
X116123200Y-55720000D02*
X110148200Y-61695000D01*
X110148200Y-61695000D02*
X108175000Y-61695000D01*
X116123200Y-55720000D02*
X115472300Y-55720000D01*
X116774000Y-55720000D02*
X116123200Y-55720000D01*
X90582100Y-54080500D02*
X90582100Y-53698200D01*
X90582100Y-53698200D02*
X87296700Y-50412800D01*
X87296700Y-50412800D02*
X86323400Y-50412800D01*
X95310400Y-65401600D02*
X93696700Y-67015300D01*
X93696700Y-67015300D02*
X93696700Y-67305000D01*
X98131100Y-64785200D02*
X95926800Y-64785200D01*
X95926800Y-64785200D02*
X95310400Y-65401600D01*
X95310400Y-65401600D02*
X93703800Y-63795000D01*
X93703800Y-63795000D02*
X92745000Y-63795000D01*
D45*
X71585900Y-60924200D02*
X70302200Y-60924200D01*
X70302200Y-60924200D02*
X70173400Y-61053000D01*
X72699900Y-60924200D02*
X71585900Y-60924200D01*
D44*
X71585900Y-60924200D02*
X71585900Y-56430600D01*
X71585900Y-56430600D02*
X73883100Y-54133400D01*
X73883100Y-54133400D02*
X73883100Y-53475000D01*
X74634800Y-53475000D02*
X73883100Y-53475000D01*
X91733800Y-54080500D02*
X90582100Y-54080500D01*
X86323400Y-49439500D02*
X86323400Y-50412800D01*
X68875600Y-53735700D02*
X68875600Y-54399900D01*
X68922500Y-59022300D02*
X68922500Y-54446800D01*
X68922500Y-54446800D02*
X68875600Y-54399900D01*
X70039500Y-53582800D02*
X70194900Y-53738200D01*
X70477300Y-52798200D02*
X70477300Y-53145000D01*
X70477300Y-53145000D02*
X70039500Y-53582800D01*
X70039500Y-53582800D02*
X69028500Y-53582800D01*
X69028500Y-53582800D02*
X68875600Y-53735700D01*
X78184800Y-54647100D02*
X78184800Y-53670400D01*
X94862200Y-53253800D02*
X96762100Y-53253800D01*
X92745000Y-63795000D02*
X92745000Y-63030800D01*
X92745000Y-63030800D02*
X91980800Y-63030800D01*
X91980800Y-63030800D02*
X91068300Y-62118300D01*
X91068300Y-62118300D02*
X86625100Y-62118300D01*
X86400900Y-59312700D02*
X86400900Y-61894100D01*
X86400900Y-61894100D02*
X86625100Y-62118300D01*
X60971200Y-62302200D02*
X58011800Y-62302200D01*
X58011800Y-62302200D02*
X56532400Y-63781600D01*
X56532400Y-63781600D02*
X56085000Y-63781600D01*
X84509600Y-53532000D02*
X84509600Y-53062100D01*
X94862200Y-54080500D02*
X94862200Y-53253800D01*
X57590000Y-50850000D02*
X57590000Y-50298300D01*
X57590000Y-51062500D02*
X57590000Y-50850000D01*
X43550000Y-50850000D02*
X57590000Y-50850000D01*
X57590000Y-47300000D02*
X57590000Y-48051700D01*
X58540200Y-48474800D02*
X58117100Y-48051700D01*
X58117100Y-48051700D02*
X57590000Y-48051700D01*
D45*
X58540200Y-50112300D02*
X58540200Y-48474800D01*
D44*
X57590000Y-50298300D02*
X58354200Y-50298300D01*
X58354200Y-50298300D02*
X58540200Y-50112300D01*
X86031300Y-59312700D02*
X85292100Y-59312700D01*
X81848400Y-58551900D02*
X81848400Y-59335500D01*
X81848400Y-59335500D02*
X82049700Y-59536800D01*
X82049700Y-59536800D02*
X85180100Y-59536800D01*
X85180100Y-59536800D02*
X85292100Y-59424800D01*
X85292100Y-59424800D02*
X85292100Y-59312700D01*
X82399600Y-57469100D02*
X82167000Y-57469100D01*
X82167000Y-57469100D02*
X81848400Y-57787700D01*
X81848400Y-57787700D02*
X81848400Y-58551900D01*
X86770500Y-59312700D02*
X86770500Y-58850700D01*
X86770500Y-58850700D02*
X87302900Y-58318300D01*
X87302900Y-58318300D02*
X88509700Y-58318300D01*
X88509700Y-58318300D02*
X88652600Y-58461200D01*
X88652600Y-58461200D02*
X88652600Y-58937000D01*
X86625100Y-63070000D02*
X86625100Y-62118300D01*
X86400900Y-59312700D02*
X86770500Y-59312700D01*
X86031300Y-59312700D02*
X86400900Y-59312700D01*
X81084200Y-58551900D02*
X81848400Y-58551900D01*
X82399600Y-56717400D02*
X82399600Y-57469100D01*
X89604300Y-58937000D02*
X88652600Y-58937000D01*
X94862200Y-54080500D02*
X91733800Y-54080500D01*
X84509600Y-53062100D02*
X84509600Y-52255000D01*
X84509600Y-52255000D02*
X85023400Y-51741200D01*
X84509600Y-53062100D02*
X82726400Y-53062100D01*
X81974700Y-53062100D02*
X82726400Y-53062100D01*
X69813100Y-52798200D02*
X70477300Y-52798200D01*
X68922500Y-59974000D02*
X68922500Y-59022300D01*
X68922500Y-59974000D02*
X69686700Y-59974000D01*
X70173400Y-61053000D02*
X69686700Y-60566300D01*
X69686700Y-60566300D02*
X69686700Y-59974000D01*
X72699900Y-60923000D02*
X72699900Y-60924200D01*
X65272700Y-62640600D02*
X66036900Y-62640600D01*
X68922500Y-59974000D02*
X68130300Y-59974000D01*
X68130300Y-59974000D02*
X66036900Y-62067400D01*
X66036900Y-62067400D02*
X66036900Y-62640600D01*
X60971200Y-62302200D02*
X61922900Y-62302200D01*
X65272700Y-62640600D02*
X62261300Y-62640600D01*
X62261300Y-62640600D02*
X61922900Y-62302200D01*
X70263600Y-45894000D02*
X71015300Y-45894000D01*
X92745000Y-67305000D02*
X93696700Y-67305000D01*
D45*
X98131100Y-64785200D02*
X98450000Y-64785200D01*
D44*
X54992000Y-63352300D02*
X54700000Y-63060300D01*
X54700000Y-63060300D02*
X54700000Y-60918900D01*
D45*
X56085000Y-63781600D02*
X55260500Y-63781600D01*
X55260500Y-63781600D02*
X54992000Y-63513100D01*
X54992000Y-63513100D02*
X54992000Y-63352300D01*
X98450000Y-64785200D02*
X99169800Y-65505000D01*
X99169800Y-65505000D02*
X102023300Y-65505000D01*
D44*
X98450000Y-64576700D02*
X98450000Y-64785200D01*
D45*
X108175000Y-61695000D02*
X106973300Y-61695000D01*
X105875900Y-62414800D02*
X106253500Y-62414800D01*
X106253500Y-62414800D02*
X106973300Y-61695000D01*
D44*
X104399600Y-63500000D02*
X104790700Y-63500000D01*
X104790700Y-63500000D02*
X105875900Y-62414800D01*
D45*
X104039600Y-63624600D02*
X104164200Y-63500000D01*
X104164200Y-63500000D02*
X104399600Y-63500000D01*
D44*
X98450000Y-63600000D02*
X104015000Y-63600000D01*
X104015000Y-63600000D02*
X104039600Y-63624600D01*
X98450000Y-63600000D02*
X98450000Y-64576700D01*
D45*
X103225000Y-65505000D02*
X102023300Y-65505000D01*
D44*
X115859000Y-48150000D02*
X114882300Y-48150000D01*
X116774000Y-47080000D02*
X115472300Y-47080000D01*
X115472300Y-47080000D02*
X114882300Y-47670000D01*
X114882300Y-47670000D02*
X114882300Y-48150000D01*
X115859000Y-54650000D02*
X114882300Y-54650000D01*
X115472300Y-55720000D02*
X114882300Y-55130000D01*
X114882300Y-55130000D02*
X114882300Y-54650000D01*
X86323400Y-49439500D02*
X87960900Y-49439500D01*
X85998400Y-49114500D02*
X86323400Y-49439500D01*
X86323400Y-51077000D02*
X86323400Y-50412800D01*
X86323400Y-50412800D02*
X85673400Y-50412800D01*
X85998400Y-49114500D02*
X86973400Y-48139500D01*
X86973400Y-48139500D02*
X86973400Y-47152000D01*
X85023400Y-51077000D02*
X85023400Y-50412800D01*
X85673400Y-51077000D02*
X85673400Y-50412800D01*
X85673400Y-50412800D02*
X85023400Y-50412800D01*
D45*
X69813100Y-52798200D02*
X69173900Y-52798200D01*
X68750800Y-52673400D02*
X69049100Y-52673400D01*
X69049100Y-52673400D02*
X69173900Y-52798200D01*
D44*
X67875600Y-51798200D02*
X68750800Y-52673400D01*
%TO.N,IN*%
X56333500Y-53060000D02*
X56615800Y-53060000D01*
X56615800Y-53060000D02*
X56638300Y-53037500D01*
X57590000Y-53037500D02*
X56638300Y-53037500D01*
%TO.N,LBI*%
X77574200Y-58782100D02*
X77574200Y-60047700D01*
X88625100Y-50089500D02*
X88625100Y-50803300D01*
X87960900Y-50089500D02*
X88625100Y-50089500D01*
X79259200Y-58551900D02*
X78495000Y-58551900D01*
X77574200Y-58782100D02*
X78338400Y-58782100D01*
X78495000Y-58551900D02*
X78495000Y-58625500D01*
X78495000Y-58625500D02*
X78338400Y-58782100D01*
%TO.N,LBO*%
X88625100Y-48139500D02*
X88840400Y-47924200D01*
X88840400Y-47924200D02*
X89144800Y-47924200D01*
X81142500Y-60296300D02*
X79836500Y-60296300D01*
X87960900Y-48139500D02*
X88625100Y-48139500D01*
%TO.N,N_LED1*%
X88500100Y-63070000D02*
X87760900Y-63070000D01*
X87760900Y-63070000D02*
X87760900Y-63532000D01*
X87760900Y-63532000D02*
X87246600Y-64046300D01*
X87246600Y-64046300D02*
X84825300Y-64046300D01*
%TO.N,N_LED2*%
D45*
X90554500Y-57918300D02*
X90554500Y-59591900D01*
X90554500Y-59591900D02*
X90446700Y-59699700D01*
X90446700Y-59699700D02*
X88654100Y-59699700D01*
X90554500Y-57666600D02*
X90554500Y-57918300D01*
D44*
X85247600Y-58567400D02*
X85247600Y-58471900D01*
X85247600Y-58471900D02*
X85801200Y-57918300D01*
X85801200Y-57918300D02*
X90554500Y-57918300D01*
X87906300Y-59312700D02*
X88645500Y-59312700D01*
X88654100Y-59699700D02*
X88645500Y-59691100D01*
X88645500Y-59691100D02*
X88645500Y-59312700D01*
X84483400Y-58567400D02*
X85247600Y-58567400D01*
%TO.N,N_LED3*%
X76557200Y-52670100D02*
X76557200Y-53621800D01*
X76696500Y-56610900D02*
X76696500Y-55659200D01*
X76696500Y-55659200D02*
X76875000Y-55659200D01*
X76875000Y-55659200D02*
X77053300Y-55480900D01*
X77053300Y-55480900D02*
X77053300Y-53745800D01*
X77053300Y-53745800D02*
X76929300Y-53621800D01*
X76929300Y-53621800D02*
X76557200Y-53621800D01*
%TO.N,N_LED4*%
X72350100Y-57275000D02*
X74061500Y-58986400D01*
X74061500Y-58986400D02*
X74146200Y-58986400D01*
X69904100Y-62024000D02*
X69904100Y-62896100D01*
X69904100Y-62896100D02*
X70084700Y-63076700D01*
X69164900Y-62024000D02*
X69904100Y-62024000D01*
%TO.N,N_Q1C*%
X83017500Y-61246300D02*
X83017500Y-61798000D01*
X83000300Y-64046300D02*
X83000300Y-61815200D01*
X83000300Y-61815200D02*
X83017500Y-61798000D01*
%TO.N,PROG1*%
X67861900Y-62640600D02*
X67861900Y-62934000D01*
X67861900Y-62934000D02*
X68170700Y-63242800D01*
X70477300Y-51798200D02*
X70509000Y-51766500D01*
X70509000Y-51766500D02*
X70942800Y-51766500D01*
X69813100Y-51798200D02*
X70477300Y-51798200D01*
X67097700Y-62640600D02*
X67861900Y-62640600D01*
%TO.N,PROG3*%
X69813100Y-52298200D02*
X70477300Y-52298200D01*
X70747500Y-59022300D02*
X70867200Y-58902600D01*
X70867200Y-58902600D02*
X70867200Y-52688100D01*
X70867200Y-52688100D02*
X70477300Y-52298200D01*
X70747500Y-59974000D02*
X70747500Y-59022300D01*
%TO.N,SCL*%
X73578800Y-50663900D02*
X73114900Y-50200000D01*
X73114900Y-50200000D02*
X72494000Y-50200000D01*
X82320000Y-72630000D02*
X79898800Y-70208800D01*
X79898800Y-70208800D02*
X56543800Y-70208800D01*
X56543800Y-70208800D02*
X51930000Y-65595000D01*
D45*
X106973300Y-62965000D02*
X106635900Y-62965000D01*
D44*
X82320000Y-72630000D02*
X83737500Y-71212500D01*
X83737500Y-71212500D02*
X93097700Y-71212500D01*
X93097700Y-71212500D02*
X93745200Y-71860000D01*
X71517300Y-50200000D02*
X72494000Y-50200000D01*
X93745200Y-71860000D02*
X93410500Y-72194700D01*
X92646300Y-72194700D02*
X93410500Y-72194700D01*
D45*
X108175000Y-62965000D02*
X106973300Y-62965000D01*
%TO.N,SDA*%
D44*
X80419000Y-50225000D02*
X80629800Y-50225000D01*
X80629800Y-50225000D02*
X80747000Y-50107800D01*
X71517300Y-49700000D02*
X73579800Y-49700000D01*
X84860000Y-72630000D02*
X83756800Y-73733200D01*
X83756800Y-73733200D02*
X81817000Y-73733200D01*
X81817000Y-73733200D02*
X81050000Y-72966200D01*
X81050000Y-72966200D02*
X81050000Y-72315100D01*
X81050000Y-72315100D02*
X79295400Y-70560500D01*
X79295400Y-70560500D02*
X54355500Y-70560500D01*
X54355500Y-70560500D02*
X49390000Y-65595000D01*
X101763400Y-64785200D02*
X101640700Y-64662500D01*
X101640700Y-64662500D02*
X101638500Y-64662500D01*
X79654800Y-50225000D02*
X80419000Y-50225000D01*
X108175000Y-64235000D02*
X106948300Y-64235000D01*
X104450200Y-64785200D02*
X106398100Y-64785200D01*
X106398100Y-64785200D02*
X106948300Y-64235000D01*
D45*
X101763400Y-64785200D02*
X104450200Y-64785200D01*
%TO.N,SPKM*%
D44*
X114300000Y-69350000D02*
X62718400Y-69350000D01*
X62718400Y-69350000D02*
X58809800Y-65441400D01*
%TO.N,SPKO*%
X91481400Y-64999100D02*
X59317900Y-64999100D01*
X59317900Y-64999100D02*
X58737500Y-64418700D01*
X58737500Y-64418700D02*
X54217000Y-64418700D01*
X54217000Y-64418700D02*
X51950000Y-62151700D01*
X51950000Y-61300000D02*
X51950000Y-62151700D01*
X107810000Y-59601700D02*
X107497500Y-59914200D01*
X107497500Y-59914200D02*
X105881800Y-59914200D01*
X107810000Y-58250000D02*
X107810000Y-59601700D01*
%TO.N,SPKP*%
X105270000Y-59601700D02*
X104394700Y-59601700D01*
X104394700Y-59601700D02*
X104296400Y-59700000D01*
X105270000Y-58250000D02*
X105270000Y-59601700D01*
%TO.N,STAT1*%
X67875600Y-53735700D02*
X67875600Y-54822400D01*
X73410900Y-57275000D02*
X73410900Y-56023200D01*
X74175100Y-57275000D02*
X73410900Y-57275000D01*
%TO.N,STAT2*%
X78521500Y-56610900D02*
X79668100Y-56610900D01*
X67375600Y-54399900D02*
X66717800Y-55057700D01*
X66717800Y-55057700D02*
X66530900Y-55057700D01*
X67375600Y-53735700D02*
X67375600Y-54399900D01*
%TO.N,SW*%
D45*
X84035900Y-49439500D02*
X83396700Y-49439500D01*
X80747300Y-49214700D02*
X83171900Y-49214700D01*
X83171900Y-49214700D02*
X83396700Y-49439500D01*
D44*
X80747300Y-47016000D02*
X80747300Y-49214700D01*
X84035900Y-49439500D02*
X84035900Y-50089500D01*
%TO.N,THERM*%
X65938100Y-53514700D02*
X65938100Y-52798200D01*
X74524900Y-59971300D02*
X73748300Y-59971300D01*
X73748300Y-59971300D02*
X73592600Y-59815600D01*
X74524900Y-60923000D02*
X74524900Y-59971300D01*
%TO.N,V33*%
X78594000Y-50225000D02*
X78594000Y-45054100D01*
X78594000Y-45054100D02*
X78454200Y-44914300D01*
X78454200Y-44914300D02*
X77077700Y-44914300D01*
X77077700Y-44914300D02*
X76634100Y-45357900D01*
X76634100Y-45357900D02*
X76634100Y-47012200D01*
X70540600Y-48200000D02*
X70237600Y-48503000D01*
X70237600Y-48503000D02*
X70237600Y-49424400D01*
X77829800Y-50225000D02*
X78594000Y-50225000D01*
X46850000Y-65595000D02*
X52167100Y-70912100D01*
X52167100Y-70912100D02*
X52167100Y-70912200D01*
X52167100Y-70912200D02*
X78062200Y-70912200D01*
X78062200Y-70912200D02*
X79780000Y-72630000D01*
X71983100Y-53475000D02*
X71682100Y-53475000D01*
X79780000Y-72630000D02*
X81286000Y-74136000D01*
X81286000Y-74136000D02*
X88115800Y-74136000D01*
X88115800Y-74136000D02*
X89732600Y-72519200D01*
X101681900Y-62944100D02*
X101977400Y-62944100D01*
X101977400Y-62944100D02*
X101998300Y-62965000D01*
X101681900Y-62624800D02*
X101681900Y-62944100D01*
X72734800Y-53475000D02*
X71983100Y-53475000D01*
X71517300Y-48200000D02*
X70540600Y-48200000D01*
X96550000Y-63600000D02*
X97301700Y-63600000D01*
X97699800Y-62624800D02*
X97301700Y-63022900D01*
X97301700Y-63022900D02*
X97301700Y-63600000D01*
D45*
X101681900Y-62624800D02*
X97699800Y-62624800D01*
D44*
X89732600Y-72519200D02*
X90057100Y-72194700D01*
X90821300Y-72194700D02*
X90057100Y-72194700D01*
X103225000Y-62965000D02*
X101998300Y-62965000D01*
X103225000Y-61695000D02*
X104451700Y-61695000D01*
X103225000Y-62965000D02*
X104451700Y-62965000D01*
X104451700Y-62965000D02*
X104451700Y-61695000D01*
X75817300Y-50200000D02*
X76794000Y-50200000D01*
X77829800Y-50225000D02*
X76819000Y-50225000D01*
X76819000Y-50225000D02*
X76794000Y-50200000D01*
%TO.N,V5*%
X88605400Y-56468000D02*
X87653700Y-56468000D01*
X85023400Y-46487800D02*
X82642700Y-44107100D01*
X82642700Y-44107100D02*
X60308500Y-44107100D01*
X60308500Y-44107100D02*
X58877200Y-45538400D01*
X84509600Y-56183700D02*
X84843700Y-56517800D01*
X84843700Y-56517800D02*
X87603900Y-56517800D01*
X87603900Y-56517800D02*
X87653700Y-56468000D01*
X88605400Y-56468000D02*
X89557200Y-56468000D01*
X89557200Y-56468000D02*
X89878700Y-56789500D01*
X90582100Y-57030500D02*
X90341100Y-56789500D01*
X90341100Y-56789500D02*
X89878700Y-56789500D01*
X58566700Y-45400000D02*
X58705100Y-45538400D01*
X58705100Y-45538400D02*
X58877200Y-45538400D01*
X41770000Y-65595000D02*
X42871700Y-65595000D01*
X42871700Y-65595000D02*
X42871700Y-65457300D01*
X42871700Y-65457300D02*
X51546500Y-56782500D01*
X51546500Y-56782500D02*
X54795600Y-56782500D01*
X85673400Y-46487800D02*
X85023400Y-46487800D01*
X90582100Y-57030500D02*
X90670000Y-56942600D01*
X90670000Y-56942600D02*
X93622600Y-56942600D01*
X93622600Y-56942600D02*
X93710500Y-57030500D01*
X94862200Y-57030500D02*
X93710500Y-57030500D01*
X54795600Y-56782500D02*
X55100000Y-56478100D01*
X55100000Y-55776400D02*
X55100000Y-56478100D01*
X57590000Y-45400000D02*
X58566700Y-45400000D01*
X90582100Y-57030500D02*
X84386300Y-57030500D01*
X84386300Y-57030500D02*
X83422600Y-57994200D01*
X83422600Y-57994200D02*
X83422600Y-58567400D01*
X82658400Y-58567400D02*
X83422600Y-58567400D01*
X91733800Y-57030500D02*
X90582100Y-57030500D01*
X84509600Y-55432000D02*
X84509600Y-56183700D01*
X94862200Y-57030500D02*
X96013900Y-57030500D01*
X97650000Y-58250000D02*
X97650000Y-56898300D01*
X96013900Y-57030500D02*
X96146100Y-56898300D01*
X96146100Y-56898300D02*
X97650000Y-56898300D01*
X83063100Y-48242300D02*
X83268900Y-48242300D01*
X83268900Y-48242300D02*
X83371700Y-48139500D01*
X84035900Y-48139500D02*
X83371700Y-48139500D01*
X85023400Y-47152000D02*
X85023400Y-46487800D01*
X85673400Y-47152000D02*
X85673400Y-46487800D01*
X85023400Y-47152000D02*
X84867100Y-47152000D01*
X84867100Y-47152000D02*
X84035900Y-47983200D01*
X84035900Y-47983200D02*
X84035900Y-48139500D01*
%TO.N,VBUS*%
X67000000Y-48820900D02*
X66180300Y-48820900D01*
X66180300Y-48820900D02*
X60019500Y-54981700D01*
X60019500Y-54981700D02*
X60019500Y-59474500D01*
X60019500Y-59474500D02*
X60398000Y-59853000D01*
X60398000Y-59853000D02*
X60971200Y-59853000D01*
X113472200Y-53499700D02*
X113472200Y-49249800D01*
X113573200Y-53550200D02*
X113522700Y-53550200D01*
X113522700Y-53550200D02*
X113472200Y-53499700D01*
X113472200Y-53499700D02*
X111370300Y-55601600D01*
X111370300Y-55601600D02*
X86244200Y-55601600D01*
X86244200Y-55601600D02*
X86012800Y-55833000D01*
X79171400Y-52670100D02*
X79171400Y-52300500D01*
X79171400Y-52300500D02*
X79698200Y-51773700D01*
X79698200Y-51773700D02*
X82089600Y-51773700D01*
X67000000Y-48820900D02*
X67000000Y-46505900D01*
X67000000Y-46505900D02*
X67611900Y-45894000D01*
X67375600Y-49196500D02*
X67000000Y-48820900D01*
X67875600Y-49196500D02*
X67375600Y-49196500D01*
X68363600Y-45894000D02*
X67611900Y-45894000D01*
X60971200Y-60617200D02*
X60971200Y-59853000D01*
X78432200Y-52670100D02*
X79171400Y-52670100D01*
D45*
X113573200Y-53550200D02*
X114607500Y-53550200D01*
X114607500Y-53550200D02*
X114907300Y-53850000D01*
D44*
X64508000Y-53708200D02*
X64508000Y-53958800D01*
X64508000Y-53958800D02*
X66291700Y-55742500D01*
X66291700Y-55742500D02*
X67883500Y-55742500D01*
X67883500Y-55742500D02*
X68530500Y-55095500D01*
X68530500Y-55095500D02*
X68530500Y-54554800D01*
X68530500Y-54554800D02*
X68375600Y-54399900D01*
X68375600Y-49196500D02*
X67875600Y-49196500D01*
X64508000Y-53708200D02*
X64508000Y-53064100D01*
X64508000Y-53064100D02*
X65273900Y-52298200D01*
X68375600Y-53735700D02*
X68375600Y-54399900D01*
X61922900Y-60617200D02*
X62234800Y-60617200D01*
X65938100Y-52298200D02*
X65273900Y-52298200D01*
X65938100Y-51798200D02*
X65938100Y-52298200D01*
X60971200Y-60617200D02*
X61922900Y-60617200D01*
X72052700Y-63021700D02*
X71779100Y-62748100D01*
X71779100Y-62748100D02*
X71779100Y-62024000D01*
X71039900Y-62024000D02*
X71779100Y-62024000D01*
X67375600Y-49860700D02*
X67375600Y-49196500D01*
D45*
X115859000Y-48950000D02*
X114907300Y-48950000D01*
X113472200Y-49249800D02*
X114607500Y-49249800D01*
X114607500Y-49249800D02*
X114907300Y-48950000D01*
X115859000Y-53850000D02*
X114907300Y-53850000D01*
D44*
X68375600Y-49860700D02*
X68375600Y-49196500D01*
X67875600Y-49860700D02*
X67875600Y-49196500D01*
%TO.N,VLIPO*%
X72596300Y-50896900D02*
X70576000Y-50896900D01*
X70576000Y-50896900D02*
X70477300Y-50798200D01*
X72534800Y-47793500D02*
X73934100Y-47793500D01*
X73934100Y-47793500D02*
X74840600Y-48700000D01*
X69207700Y-49860700D02*
X69207700Y-49024700D01*
X69207700Y-49024700D02*
X70438900Y-47793500D01*
X70438900Y-47793500D02*
X72534800Y-47793500D01*
X72534800Y-47793500D02*
X72534800Y-45894000D01*
X74840600Y-49200000D02*
X74840600Y-48700000D01*
X72633100Y-72194700D02*
X72963000Y-72194700D01*
X70477300Y-51298200D02*
X70477300Y-50798200D01*
X69207700Y-49860700D02*
X68875600Y-49860700D01*
X70145200Y-50798200D02*
X69207700Y-49860700D01*
X71818900Y-72194700D02*
X72633100Y-72194700D01*
X75817300Y-48700000D02*
X74840600Y-48700000D01*
X75817300Y-49200000D02*
X74840600Y-49200000D01*
X70145200Y-50798200D02*
X70477300Y-50798200D01*
X69813100Y-50798200D02*
X70145200Y-50798200D01*
X69813100Y-51298200D02*
X70477300Y-51298200D01*
%TO.N,VPCC*%
X60019500Y-64127200D02*
X59700000Y-64127200D01*
X60971200Y-64127200D02*
X60019500Y-64127200D01*
D45*
X65938100Y-51298200D02*
X65298900Y-51298200D01*
X65273900Y-51598000D02*
X65298900Y-51573000D01*
X65298900Y-51573000D02*
X65298900Y-51298200D01*
D44*
X61432300Y-57709600D02*
X61432300Y-55439600D01*
X61432300Y-55439600D02*
X65273900Y-51598000D01*
X61432300Y-57709600D02*
X61113900Y-58028000D01*
X61113900Y-58028000D02*
X60971200Y-58028000D01*
X60971200Y-58792200D02*
X60971200Y-58028000D01*
%TO.N,VSYS*%
X66875600Y-49860700D02*
X66875600Y-49196500D01*
X75965700Y-44858800D02*
X75915700Y-44808800D01*
X75915700Y-44808800D02*
X75376000Y-44808800D01*
X75965700Y-44858800D02*
X75965700Y-47265300D01*
X75965700Y-47265300D02*
X76364300Y-47663900D01*
X76364300Y-47663900D02*
X77099400Y-47663900D01*
X77099400Y-47663900D02*
X77747300Y-47016000D01*
X83157500Y-46134400D02*
X81546500Y-44523400D01*
X81546500Y-44523400D02*
X76301100Y-44523400D01*
X76301100Y-44523400D02*
X75965700Y-44858800D01*
X66081900Y-49854900D02*
X66081900Y-49734200D01*
X66081900Y-49734200D02*
X66619600Y-49196500D01*
X66619600Y-49196500D02*
X66875600Y-49196500D01*
X85947200Y-54283700D02*
X85947200Y-54803700D01*
X65938100Y-50798200D02*
X66875600Y-49860700D01*
X86973400Y-51077000D02*
X86973400Y-53257500D01*
X86973400Y-53257500D02*
X85947200Y-54283700D01*
X85947200Y-54283700D02*
X83563600Y-54283700D01*
X83563600Y-54283700D02*
X83345600Y-54065700D01*
X83345600Y-54065700D02*
X81374700Y-54065700D01*
X81374700Y-54065700D02*
X80826400Y-53517400D01*
X80826400Y-53517400D02*
X80826400Y-53062100D01*
X79859900Y-57581400D02*
X81374700Y-56066600D01*
X81374700Y-56066600D02*
X81374700Y-54065700D01*
X79859900Y-57581400D02*
X80073400Y-57794900D01*
X80073400Y-57794900D02*
X80073400Y-59356000D01*
X80073400Y-59356000D02*
X79890700Y-59538700D01*
X79890700Y-59538700D02*
X79668900Y-59538700D01*
X79668900Y-59538700D02*
X79138200Y-60069400D01*
X79138200Y-60069400D02*
X79138200Y-60574700D01*
X79138200Y-60574700D02*
X80208100Y-61644600D01*
X80208100Y-61644600D02*
X81142500Y-61644600D01*
X75883000Y-57581400D02*
X79859900Y-57581400D01*
X76284800Y-54647100D02*
X76284800Y-55623800D01*
X80074700Y-53062100D02*
X80826400Y-53062100D01*
X75883000Y-57581400D02*
X75883000Y-55849600D01*
X75883000Y-55849600D02*
X76108800Y-55623800D01*
X76108800Y-55623800D02*
X76284800Y-55623800D01*
X92106100Y-59650000D02*
X92106100Y-58812000D01*
X92106100Y-58812000D02*
X91688700Y-58394600D01*
X91688700Y-58394600D02*
X91186300Y-58394600D01*
X91341900Y-59650000D02*
X92106100Y-59650000D01*
X75883000Y-57581400D02*
X75749200Y-57715200D01*
X75749200Y-57715200D02*
X75749200Y-58782100D01*
X81142500Y-62196300D02*
X81142500Y-61644600D01*
%TD*%
M02*
