%TF.GenerationSoftware,KiCad,Pcbnew,10.0.6*%
%TF.CreationDate,2026-09-17T04:06:12+09:00*%
%TF.ProjectId,katanori61,6b617461-6e6f-4726-9936-312e6b696361,rev?*%
%TF.SameCoordinates,Original*%
%TF.FileFunction,Copper,L3,Inr*%
%TF.FilePolarity,Positive*%
%FSLAX46Y46*%
G04 Gerber Fmt 4.6, Leading zero omitted, Abs format (unit mm)*
G04 Created by KiCad (PCBNEW 10.0.6) date 2026-09-17 04:06:12*
%MOMM*%
%LPD*%
G01*
G04 APERTURE LIST*
G04 Aperture macros list*
%AMRoundRect*
0 Rectangle with rounded corners*
0 $1 Rounding radius*
0 $2 $3 $4 $5 $6 $7 $8 $9 X,Y pos of 4 corners*
0 Add a 4 corners polygon primitive as box body*
4,1,4,$2,$3,$4,$5,$6,$7,$8,$9,$2,$3,0*
0 Add four circle primitives for the rounded corners*
1,1,$1+$1,$2,$3*
1,1,$1+$1,$4,$5*
1,1,$1+$1,$6,$7*
1,1,$1+$1,$8,$9*
0 Add four rect primitives between the rounded corners*
20,1,$1+$1,$2,$3,$4,$5,0*
20,1,$1+$1,$4,$5,$6,$7,0*
20,1,$1+$1,$6,$7,$8,$9,0*
20,1,$1+$1,$8,$9,$2,$3,0*%
G04 Aperture macros list end*
%TA.AperFunction,ComponentPad*%
%ADD10RoundRect,0.250000X-0.350000X-0.625000X0.350000X-0.625000X0.350000X0.625000X-0.350000X0.625000X0*%
%TD*%
%TA.AperFunction,ComponentPad*%
%ADD11O,1.200000X1.750000*%
%TD*%
%TA.AperFunction,ComponentPad*%
%ADD12RoundRect,0.250000X-0.625000X0.350000X-0.625000X-0.350000X0.625000X-0.350000X0.625000X0.350000X0*%
%TD*%
%TA.AperFunction,ComponentPad*%
%ADD13O,1.750000X1.200000*%
%TD*%
%TA.AperFunction,ComponentPad*%
%ADD14R,1.700000X1.700000*%
%TD*%
%TA.AperFunction,ComponentPad*%
%ADD15C,1.700000*%
%TD*%
%TA.AperFunction,ComponentPad*%
%ADD16O,1.000000X2.100000*%
%TD*%
%TA.AperFunction,ViaPad*%
%ADD17C,0.600000*%
%TD*%
%TA.AperFunction,Conductor*%
%ADD18C,0.200000*%
%TD*%
%TA.AperFunction,Conductor*%
%ADD19C,0.400000*%
%TD*%
%TA.AperFunction,Conductor*%
%ADD20C,0.600000*%
%TD*%
G04 APERTURE END LIST*
D10*
%TO.N,SPKP*%
%TO.C,J4*%
X114300000Y-67850000D03*
D11*
%TO.N,SPKM*%
X116300000Y-67850000D03*
%TD*%
D12*
%TO.N,SPKM*%
%TO.C,J5*%
X51950000Y-59300000D03*
D13*
%TO.N,SPKO*%
X51950000Y-61300000D03*
%TD*%
D10*
%TO.N,GND*%
%TO.C,J6*%
X56500000Y-46850000D03*
D11*
%TO.N,BTN*%
X58500000Y-46850000D03*
%TD*%
D10*
%TO.N,EN*%
%TO.C,J7*%
X100500000Y-43750000D03*
D11*
%TO.N,GND*%
X102500000Y-43750000D03*
%TO.N,EN*%
X104500000Y-43750000D03*
%TO.N,GND*%
X106500000Y-43750000D03*
%TD*%
D12*
%TO.N,GND*%
%TO.C,J10*%
X115700000Y-60450000D03*
D13*
%TO.N,BATRAW*%
X115700000Y-62450000D03*
%TD*%
D14*
%TO.N,V5*%
%TO.C,J1*%
X41770000Y-65595000D03*
D15*
%TO.N,GND*%
X44310000Y-65595000D03*
%TO.N,V33*%
X46850000Y-65595000D03*
%TO.N,SDA*%
X49390000Y-65595000D03*
%TO.N,SCL*%
X51930000Y-65595000D03*
%TO.N,BTN*%
X54470000Y-65595000D03*
%TO.N,IN*%
X57010000Y-65595000D03*
%TD*%
D14*
%TO.N,GND*%
%TO.C,J2*%
X77240000Y-72630000D03*
D15*
%TO.N,V33*%
X79780000Y-72630000D03*
%TO.N,SCL*%
X82320000Y-72630000D03*
%TO.N,SDA*%
X84860000Y-72630000D03*
%TD*%
D16*
%TO.N,GND*%
%TO.C,J13*%
X85332000Y-44280000D03*
X76692000Y-44280000D03*
%TD*%
D17*
%TO.N,GND*%
X61325000Y-62725000D03*
X61325000Y-64075000D03*
X62675000Y-62725000D03*
X62675000Y-64075000D03*
X72875000Y-61390000D03*
X72875000Y-62640000D03*
X74125000Y-61390000D03*
X74125000Y-62640000D03*
%TO.N,BATG*%
X82100300Y-69760000D03*
X83268000Y-61692800D03*
%TO.N,BATRAW*%
X84937500Y-64151700D03*
%TO.N,CC1*%
X58895700Y-71299100D03*
X82051500Y-46382200D03*
%TO.N,CC2*%
X62694200Y-73565100D03*
X79181400Y-46645400D03*
%TO.N,COL*%
X55816500Y-54806100D03*
X97444900Y-51806800D03*
%TO.N,EN*%
X74314400Y-55816000D03*
X84462100Y-53566000D03*
X59151400Y-63177900D03*
%TO.N,FB*%
X67715600Y-55787000D03*
X60443200Y-66026700D03*
%TO.N,GND*%
X101382000Y-64785200D03*
X81021700Y-59632100D03*
X85281800Y-52849800D03*
X62159400Y-69615600D03*
X53200100Y-62165500D03*
%TO.N,IN*%
X58568900Y-55372400D03*
%TO.N,LBI*%
X61437100Y-55562300D03*
X59161200Y-62212900D03*
%TO.N,LBO*%
X72910600Y-49231600D03*
X59157000Y-64376600D03*
%TO.N,PROG1*%
X77050000Y-62015000D03*
X76303100Y-65381800D03*
%TO.N,SCL*%
X77877600Y-56514600D03*
X89156200Y-58400000D03*
X106724800Y-62966100D03*
%TO.N,SDA*%
X106722700Y-64235000D03*
X78003200Y-57405000D03*
X85858300Y-59559600D03*
%TO.N,SPKM*%
X82279400Y-56340300D03*
%TO.N,SPKO*%
X107608800Y-56697100D03*
%TO.N,SPKP*%
X105486500Y-59818200D03*
%TO.N,STAT1*%
X73375200Y-66113400D03*
X78650300Y-68665700D03*
%TO.N,THERM*%
X71562500Y-63629600D03*
X72451600Y-74605600D03*
%TO.N,V33*%
X83253300Y-60360600D03*
%TO.N,V5*%
X66372900Y-52546700D03*
X86571500Y-54923200D03*
X82361900Y-52813300D03*
X63952900Y-65277700D03*
X53994600Y-55807000D03*
X60902300Y-45400000D03*
X97650000Y-56651700D03*
%TO.N,VBUS*%
X71178900Y-59512400D03*
X74001900Y-65565300D03*
X70687500Y-62725800D03*
X67091400Y-73554000D03*
X77388600Y-53034900D03*
X75539800Y-71375000D03*
X78360500Y-46373200D03*
X83253200Y-46380500D03*
%TO.N,VLIPO*%
X67956000Y-59354600D03*
X75951700Y-60314800D03*
%TO.N,VPCC*%
X70608900Y-61721600D03*
X76192900Y-56595600D03*
%TO.N,VSYS*%
X73486500Y-53097600D03*
X69928100Y-61230300D03*
%TO.N,GND*%
X41000000Y-76400000D03*
X41000000Y-73200000D03*
X41000000Y-70000000D03*
X41000000Y-63600000D03*
X41000000Y-60400000D03*
X41000000Y-57200000D03*
X41000000Y-54000000D03*
X41000000Y-50800000D03*
X41000000Y-47600000D03*
X41000000Y-44400000D03*
X44200000Y-76400000D03*
X44200000Y-70000000D03*
X44200000Y-60400000D03*
X44200000Y-57200000D03*
X44200000Y-54000000D03*
X44200000Y-50800000D03*
X44200000Y-47600000D03*
X44200000Y-41200000D03*
X47400000Y-76400000D03*
X47400000Y-73200000D03*
X47400000Y-70000000D03*
X47400000Y-57200000D03*
X47400000Y-54000000D03*
X47400000Y-50800000D03*
X47400000Y-47600000D03*
X47400000Y-44400000D03*
X47400000Y-41200000D03*
X50600000Y-76400000D03*
X50600000Y-73200000D03*
X50600000Y-70000000D03*
X50600000Y-54000000D03*
X50600000Y-50800000D03*
X50600000Y-47600000D03*
X50600000Y-44400000D03*
X50600000Y-41200000D03*
X53800000Y-76400000D03*
X53800000Y-73200000D03*
X53800000Y-44400000D03*
X53800000Y-41200000D03*
X57000000Y-76400000D03*
X57000000Y-41200000D03*
X60200000Y-41200000D03*
X63400000Y-41200000D03*
X66600000Y-47600000D03*
X66600000Y-44400000D03*
X66600000Y-41200000D03*
X69800000Y-47600000D03*
X69800000Y-44400000D03*
X69800000Y-41200000D03*
X73000000Y-47600000D03*
X73000000Y-44400000D03*
X73000000Y-41200000D03*
X76200000Y-41200000D03*
X79400000Y-41200000D03*
X82600000Y-76400000D03*
X82600000Y-41200000D03*
X85800000Y-76400000D03*
X85800000Y-66800000D03*
X85800000Y-41200000D03*
X89000000Y-76400000D03*
X89000000Y-73200000D03*
X89000000Y-70000000D03*
X89000000Y-63600000D03*
X89000000Y-47600000D03*
X89000000Y-44400000D03*
X89000000Y-41200000D03*
X92200000Y-76400000D03*
X92200000Y-73200000D03*
X92200000Y-70000000D03*
X92200000Y-63600000D03*
X92200000Y-54000000D03*
X92200000Y-47600000D03*
X92200000Y-44400000D03*
X92200000Y-41200000D03*
X95400000Y-76400000D03*
X95400000Y-73200000D03*
X95400000Y-70000000D03*
X95400000Y-54000000D03*
X95400000Y-44400000D03*
X95400000Y-41200000D03*
X98600000Y-76400000D03*
X98600000Y-73200000D03*
X98600000Y-70000000D03*
X98600000Y-54000000D03*
X98600000Y-47600000D03*
X98600000Y-41200000D03*
X101800000Y-76400000D03*
X101800000Y-73200000D03*
X101800000Y-70000000D03*
X101800000Y-54000000D03*
X101800000Y-47600000D03*
X101800000Y-41200000D03*
X105000000Y-76400000D03*
X105000000Y-73200000D03*
X105000000Y-70000000D03*
X105000000Y-54000000D03*
X105000000Y-47600000D03*
X105000000Y-41200000D03*
X108200000Y-76400000D03*
X108200000Y-73200000D03*
X108200000Y-70000000D03*
X108200000Y-66800000D03*
X108200000Y-54000000D03*
X108200000Y-47600000D03*
X108200000Y-44400000D03*
X108200000Y-41200000D03*
X111400000Y-76400000D03*
X111400000Y-73200000D03*
X111400000Y-70000000D03*
X111400000Y-63600000D03*
X111400000Y-57200000D03*
X111400000Y-54000000D03*
X111400000Y-50800000D03*
X111400000Y-47600000D03*
X111400000Y-44400000D03*
X111400000Y-41200000D03*
X114600000Y-76400000D03*
X114600000Y-73200000D03*
X114600000Y-70000000D03*
X114600000Y-57200000D03*
X114600000Y-54000000D03*
X114600000Y-50800000D03*
X114600000Y-47600000D03*
X114600000Y-44400000D03*
X114600000Y-41200000D03*
X117800000Y-76400000D03*
X117800000Y-70000000D03*
X117800000Y-66800000D03*
X117800000Y-63600000D03*
X117800000Y-60400000D03*
X117800000Y-57200000D03*
X117800000Y-54000000D03*
X117800000Y-50800000D03*
X117800000Y-47600000D03*
X117800000Y-44400000D03*
X117800000Y-41200000D03*
X121000000Y-76400000D03*
X121000000Y-70000000D03*
X121000000Y-66800000D03*
X121000000Y-63600000D03*
X121000000Y-60400000D03*
X121000000Y-57200000D03*
X121000000Y-54000000D03*
X121000000Y-50800000D03*
X121000000Y-47600000D03*
X121000000Y-44400000D03*
X121000000Y-41200000D03*
%TD*%
%TO.N,BATG*%
D18*
X83268000Y-61692800D02*
X83268000Y-68592300D01*
X83268000Y-68592300D02*
X82100300Y-69760000D01*
%TO.N,BTN*%
X54470000Y-65595000D02*
X54470000Y-57702400D01*
X54470000Y-57702400D02*
X58500000Y-53672400D01*
X58500000Y-53672400D02*
X58500000Y-46850000D01*
%TO.N,CC1*%
X82051500Y-46382200D02*
X80944000Y-46382200D01*
X80944000Y-46382200D02*
X80296700Y-45734900D01*
X80296700Y-45734900D02*
X78218500Y-45734900D01*
X78218500Y-45734900D02*
X73794200Y-50159200D01*
X73794200Y-50159200D02*
X73794200Y-51196700D01*
X73794200Y-51196700D02*
X65208100Y-59782800D01*
X65208100Y-59782800D02*
X65208100Y-68451300D01*
X65208100Y-68451300D02*
X62360300Y-71299100D01*
X62360300Y-71299100D02*
X58895700Y-71299100D01*
%TO.N,CC2*%
X62694200Y-73565100D02*
X65672100Y-70587200D01*
X65672100Y-70587200D02*
X65672100Y-60038400D01*
X65672100Y-60038400D02*
X79065100Y-46645400D01*
X79065100Y-46645400D02*
X79181400Y-46645400D01*
%TO.N,EN*%
X84462100Y-53566000D02*
X82265000Y-55763100D01*
X82265000Y-55763100D02*
X74367300Y-55763100D01*
X74367300Y-55763100D02*
X74314400Y-55816000D01*
X100500000Y-43750000D02*
X99648300Y-43750000D01*
X84462100Y-53566000D02*
X89832300Y-53566000D01*
X89832300Y-53566000D02*
X99648300Y-43750000D01*
%TO.N,FB*%
X60443200Y-66026700D02*
X60443200Y-68749600D01*
X60443200Y-68749600D02*
X61861000Y-70167400D01*
X61861000Y-70167400D02*
X62408100Y-70167400D01*
X62408100Y-70167400D02*
X64504700Y-68070800D01*
X64504700Y-68070800D02*
X64504700Y-58997900D01*
X64504700Y-58997900D02*
X67715600Y-55787000D01*
%TO.N,GND*%
X62675000Y-64075000D02*
X62159500Y-64590500D01*
X62159500Y-64590500D02*
X62159500Y-69615600D01*
X62159500Y-69615600D02*
X62159400Y-69615600D01*
X85281800Y-45581700D02*
X80815700Y-45581700D01*
X80815700Y-45581700D02*
X80567000Y-45333000D01*
X80567000Y-45333000D02*
X76795100Y-45333000D01*
X76795100Y-45333000D02*
X76692000Y-45436100D01*
X102500000Y-43750000D02*
X101648300Y-43750000D01*
X85332000Y-44280000D02*
X85332000Y-42978300D01*
X85332000Y-42978300D02*
X85687000Y-42623300D01*
X85687000Y-42623300D02*
X101266800Y-42623300D01*
X101266800Y-42623300D02*
X101648300Y-43004800D01*
X101648300Y-43004800D02*
X101648300Y-43750000D01*
X56500000Y-46850000D02*
X55648300Y-46850000D01*
X53200100Y-62165500D02*
X53200100Y-58103500D01*
X53200100Y-58103500D02*
X54927000Y-56376600D01*
X54927000Y-56376600D02*
X54927000Y-47571300D01*
X54927000Y-47571300D02*
X55648300Y-46850000D01*
X76692000Y-44280000D02*
X76692000Y-45436100D01*
X102925900Y-43750000D02*
X102925900Y-63241300D01*
X102925900Y-63241300D02*
X101382000Y-64785200D01*
X102925900Y-43750000D02*
X103351700Y-43750000D01*
X102500000Y-43750000D02*
X102925900Y-43750000D01*
X106500000Y-43750000D02*
X105648300Y-43750000D01*
X105648300Y-43750000D02*
X105648300Y-43004800D01*
X105648300Y-43004800D02*
X105266800Y-42623300D01*
X105266800Y-42623300D02*
X103733200Y-42623300D01*
X103733200Y-42623300D02*
X103351700Y-43004800D01*
X103351700Y-43004800D02*
X103351700Y-43750000D01*
X44310000Y-65595000D02*
X47739500Y-62165500D01*
X47739500Y-62165500D02*
X53200100Y-62165500D01*
X77240000Y-72630000D02*
X77240000Y-67957300D01*
X77240000Y-67957300D02*
X74125000Y-64842300D01*
X74125000Y-64842300D02*
X74125000Y-62640000D01*
X85281800Y-45581700D02*
X85332000Y-45581700D01*
X85281800Y-45581700D02*
X85281800Y-52849800D01*
X85332000Y-44280000D02*
X85332000Y-45581700D01*
X61325000Y-64075000D02*
X61325000Y-62725000D01*
X62675000Y-62725000D02*
X61325000Y-62725000D01*
X62675000Y-64075000D02*
X62675000Y-62725000D01*
X74125000Y-61390000D02*
X79263800Y-61390000D01*
X79263800Y-61390000D02*
X81021700Y-59632100D01*
X72875000Y-62640000D02*
X72875000Y-61390000D01*
X74125000Y-61390000D02*
X72875000Y-61390000D01*
X74125000Y-62640000D02*
X74125000Y-61390000D01*
%TO.N,IN*%
X57010000Y-65595000D02*
X58568900Y-64036100D01*
X58568900Y-64036100D02*
X58568900Y-55372400D01*
%TO.N,LBI*%
X61437100Y-55562300D02*
X59161200Y-57838200D01*
X59161200Y-57838200D02*
X59161200Y-62212900D01*
%TO.N,LBO*%
X72910600Y-49231600D02*
X72910600Y-51580700D01*
X72910600Y-51580700D02*
X64856400Y-59634900D01*
X64856400Y-59634900D02*
X64856400Y-68305700D01*
X64856400Y-68305700D02*
X62642900Y-70519200D01*
X62642900Y-70519200D02*
X61637300Y-70519200D01*
X61637300Y-70519200D02*
X59157000Y-68038900D01*
X59157000Y-68038900D02*
X59157000Y-64376600D01*
%TO.N,PROG1*%
X77050000Y-62015000D02*
X76303100Y-62761900D01*
X76303100Y-62761900D02*
X76303100Y-65381800D01*
%TO.N,SCL*%
X51930000Y-65595000D02*
X51930000Y-65698100D01*
X51930000Y-65698100D02*
X61750700Y-75518800D01*
X61750700Y-75518800D02*
X79431200Y-75518800D01*
X79431200Y-75518800D02*
X82320000Y-72630000D01*
X89156200Y-58400000D02*
X96489200Y-65733000D01*
X96489200Y-65733000D02*
X103957900Y-65733000D01*
X103957900Y-65733000D02*
X106724800Y-62966100D01*
X77877600Y-56853300D02*
X82012300Y-56853300D01*
X82012300Y-56853300D02*
X82089400Y-56930400D01*
X82089400Y-56930400D02*
X87686600Y-56930400D01*
X87686600Y-56930400D02*
X89156200Y-58400000D01*
X77877600Y-56853300D02*
X77698300Y-56853300D01*
X77698300Y-56853300D02*
X77421500Y-57130100D01*
X77421500Y-57130100D02*
X77421500Y-57649000D01*
X77421500Y-57649000D02*
X78088400Y-58315900D01*
X78088400Y-58315900D02*
X82015700Y-58315900D01*
X82015700Y-58315900D02*
X83885400Y-60185600D01*
X83885400Y-60185600D02*
X83885400Y-71064600D01*
X83885400Y-71064600D02*
X82320000Y-72630000D01*
X77877600Y-56514600D02*
X77877600Y-56853300D01*
%TO.N,SDA*%
X49390000Y-65595000D02*
X59665500Y-75870500D01*
X59665500Y-75870500D02*
X81619500Y-75870500D01*
X81619500Y-75870500D02*
X84860000Y-72630000D01*
X87923200Y-66084700D02*
X104873000Y-66084700D01*
X104873000Y-66084700D02*
X106722700Y-64235000D01*
X85858300Y-59559600D02*
X85858300Y-64019800D01*
X85858300Y-64019800D02*
X87923200Y-66084700D01*
X84860000Y-72630000D02*
X84860000Y-69147900D01*
X84860000Y-69147900D02*
X87923200Y-66084700D01*
X85858300Y-59559600D02*
X83703700Y-57405000D01*
X83703700Y-57405000D02*
X78003200Y-57405000D01*
%TO.N,SPKM*%
X116300000Y-67850000D02*
X115448300Y-67850000D01*
X82279400Y-56340300D02*
X91129800Y-56340300D01*
X91129800Y-56340300D02*
X100170800Y-65381300D01*
X100170800Y-65381300D02*
X101582000Y-65381300D01*
X101582000Y-65381300D02*
X104550500Y-62412800D01*
X104550500Y-62412800D02*
X106951800Y-62412800D01*
X106951800Y-62412800D02*
X113546400Y-69007400D01*
X113546400Y-69007400D02*
X115036100Y-69007400D01*
X115036100Y-69007400D02*
X115448300Y-68595200D01*
X115448300Y-68595200D02*
X115448300Y-67850000D01*
%TO.N,SPKP*%
X114300000Y-67850000D02*
X113448300Y-67850000D01*
X105486500Y-59818200D02*
X113448300Y-67780000D01*
X113448300Y-67780000D02*
X113448300Y-67850000D01*
%TO.N,THERM*%
X72451600Y-74605600D02*
X71562500Y-73716500D01*
X71562500Y-73716500D02*
X71562500Y-63629600D01*
%TO.N,V33*%
X79780000Y-72630000D02*
X77242900Y-75167100D01*
X77242900Y-75167100D02*
X61948100Y-75167100D01*
X61948100Y-75167100D02*
X53200000Y-66419000D01*
X53200000Y-66419000D02*
X53200000Y-65291600D01*
X53200000Y-65291600D02*
X52365100Y-64456700D01*
X52365100Y-64456700D02*
X47988300Y-64456700D01*
X47988300Y-64456700D02*
X46850000Y-65595000D01*
X79780000Y-72630000D02*
X79780000Y-67076900D01*
X79780000Y-67076900D02*
X82444700Y-64412200D01*
X82444700Y-64412200D02*
X82444700Y-61169200D01*
X82444700Y-61169200D02*
X83253300Y-60360600D01*
%TO.N,V5*%
D19*
X66372900Y-52546700D02*
X63952900Y-54966700D01*
X63952900Y-54966700D02*
X63952900Y-65277700D01*
X53994600Y-55807000D02*
X53994600Y-47308200D01*
X53994600Y-47308200D02*
X55902800Y-45400000D01*
X55902800Y-45400000D02*
X60902300Y-45400000D01*
X42971700Y-65595000D02*
X42971700Y-65219500D01*
X42971700Y-65219500D02*
X52384200Y-55807000D01*
X52384200Y-55807000D02*
X53994600Y-55807000D01*
X66372900Y-52546700D02*
X60902300Y-47076100D01*
X60902300Y-47076100D02*
X60902300Y-45400000D01*
X41770000Y-65595000D02*
X42971700Y-65595000D01*
%TO.N,VBUS*%
D18*
X77388600Y-53034900D02*
X76306600Y-53034900D01*
X76306600Y-53034900D02*
X71178900Y-58162600D01*
X71178900Y-58162600D02*
X71178900Y-59512400D01*
X79735100Y-46983800D02*
X79735100Y-50688400D01*
X79735100Y-50688400D02*
X77388600Y-53034900D01*
X78360500Y-46373200D02*
X78645500Y-46088200D01*
X78645500Y-46088200D02*
X79411700Y-46088200D01*
X79411700Y-46088200D02*
X79735100Y-46411600D01*
X79735100Y-46411600D02*
X79735100Y-46983800D01*
X79735100Y-46983800D02*
X82649900Y-46983800D01*
X82649900Y-46983800D02*
X83253200Y-46380500D01*
X67091400Y-73554000D02*
X70687500Y-69957900D01*
X70687500Y-69957900D02*
X70687500Y-62725800D01*
X75539800Y-71375000D02*
X74001900Y-69837100D01*
X74001900Y-69837100D02*
X74001900Y-65565300D01*
X70687500Y-62725800D02*
X71511200Y-62725800D01*
X71511200Y-62725800D02*
X74001900Y-65216500D01*
X74001900Y-65216500D02*
X74001900Y-65565300D01*
%TO.N,VLIPO*%
D20*
X75951700Y-60314800D02*
X68916200Y-60314800D01*
X68916200Y-60314800D02*
X67956000Y-59354600D01*
%TO.N,VSYS*%
D19*
X69928100Y-61230300D02*
X68852200Y-61230300D01*
X68852200Y-61230300D02*
X67280100Y-59658200D01*
X67280100Y-59658200D02*
X67280100Y-59082200D01*
X67280100Y-59082200D02*
X73264700Y-53097600D01*
X73264700Y-53097600D02*
X73486500Y-53097600D01*
%TD*%
M02*
