%TF.GenerationSoftware,KiCad,Pcbnew,10.0.6*%
%TF.CreationDate,2026-09-18T22:55:35+09:00*%
%TF.ProjectId,katanori61,6b617461-6e6f-4726-9936-312e6b696361,rev?*%
%TF.SameCoordinates,Original*%
%TF.FileFunction,Soldermask,Top*%
%TF.FilePolarity,Negative*%
%FSLAX46Y46*%
G04 Gerber Fmt 4.6, Leading zero omitted, Abs format (unit mm)*
G04 Created by KiCad (PCBNEW 10.0.6) date 2026-09-18 22:55:35*
%MOMM*%
%LPD*%
G01*
G04 APERTURE LIST*
G04 Aperture macros list*
%AMRoundRect*
0 Rectangle with rounded corners*
0 $1 Rounding radius*
0 $2 $3 $4 $5 $6 $7 $8 $9 X,Y pos of 4 corners*
0 Add a 4 corners polygon primitive as box body*
4,1,4,$2,$3,$4,$5,$6,$7,$8,$9,$2,$3,0*
0 Add four circle primitives for the rounded corners*
1,1,$1+$1,$2,$3*
1,1,$1+$1,$4,$5*
1,1,$1+$1,$6,$7*
1,1,$1+$1,$8,$9*
0 Add four rect primitives between the rounded corners*
20,1,$1+$1,$2,$3,$4,$5,0*
20,1,$1+$1,$4,$5,$6,$7,0*
20,1,$1+$1,$6,$7,$8,$9,0*
20,1,$1+$1,$8,$9,$2,$3,0*%
G04 Aperture macros list end*
%ADD10C,2.200000*%
%ADD11RoundRect,0.250000X-0.475000X0.250000X-0.475000X-0.250000X0.475000X-0.250000X0.475000X0.250000X0*%
%ADD12RoundRect,0.250000X-0.450000X0.262500X-0.450000X-0.262500X0.450000X-0.262500X0.450000X0.262500X0*%
%ADD13RoundRect,0.225000X-0.375000X0.225000X-0.375000X-0.225000X0.375000X-0.225000X0.375000X0.225000X0*%
%ADD14RoundRect,0.150000X-0.150000X0.587500X-0.150000X-0.587500X0.150000X-0.587500X0.150000X0.587500X0*%
%ADD15RoundRect,0.150000X-0.825000X-0.150000X0.825000X-0.150000X0.825000X0.150000X-0.825000X0.150000X0*%
%ADD16RoundRect,0.250000X-0.250000X-0.475000X0.250000X-0.475000X0.250000X0.475000X-0.250000X0.475000X0*%
%ADD17RoundRect,0.087500X0.325000X0.087500X-0.325000X0.087500X-0.325000X-0.087500X0.325000X-0.087500X0*%
%ADD18RoundRect,0.087500X0.087500X0.325000X-0.087500X0.325000X-0.087500X-0.325000X0.087500X-0.325000X0*%
%ADD19R,2.700000X2.700000*%
%ADD20RoundRect,0.250000X0.300000X1.600000X-0.300000X1.600000X-0.300000X-1.600000X0.300000X-1.600000X0*%
%ADD21RoundRect,0.062500X-0.350000X-0.062500X0.350000X-0.062500X0.350000X0.062500X-0.350000X0.062500X0*%
%ADD22RoundRect,0.062500X-0.062500X-0.350000X0.062500X-0.350000X0.062500X0.350000X-0.062500X0.350000X0*%
%ADD23R,2.500000X2.500000*%
%ADD24RoundRect,0.250000X0.312500X0.625000X-0.312500X0.625000X-0.312500X-0.625000X0.312500X-0.625000X0*%
%ADD25RoundRect,0.150000X-0.587500X-0.150000X0.587500X-0.150000X0.587500X0.150000X-0.587500X0.150000X0*%
%ADD26RoundRect,0.075000X-0.075000X0.650000X-0.075000X-0.650000X0.075000X-0.650000X0.075000X0.650000X0*%
%ADD27RoundRect,0.250000X-0.262500X-0.450000X0.262500X-0.450000X0.262500X0.450000X-0.262500X0.450000X0*%
%ADD28RoundRect,0.243750X-0.243750X-0.456250X0.243750X-0.456250X0.243750X0.456250X-0.243750X0.456250X0*%
%ADD29RoundRect,0.250000X-0.325000X-0.650000X0.325000X-0.650000X0.325000X0.650000X-0.325000X0.650000X0*%
%ADD30RoundRect,0.250000X0.262500X0.450000X-0.262500X0.450000X-0.262500X-0.450000X0.262500X-0.450000X0*%
%ADD31RoundRect,0.250000X0.475000X-0.250000X0.475000X0.250000X-0.475000X0.250000X-0.475000X-0.250000X0*%
%ADD32RoundRect,0.200000X-0.200000X-0.275000X0.200000X-0.275000X0.200000X0.275000X-0.200000X0.275000X0*%
%ADD33RoundRect,0.250000X-0.350000X-0.625000X0.350000X-0.625000X0.350000X0.625000X-0.350000X0.625000X0*%
%ADD34O,1.200000X1.750000*%
%ADD35RoundRect,0.250000X-0.625000X0.350000X-0.625000X-0.350000X0.625000X-0.350000X0.625000X0.350000X0*%
%ADD36O,1.750000X1.200000*%
%ADD37R,1.700000X1.700000*%
%ADD38C,1.700000*%
%ADD39C,0.650000*%
%ADD40RoundRect,0.150000X0.150000X0.575000X-0.150000X0.575000X-0.150000X-0.575000X0.150000X-0.575000X0*%
%ADD41RoundRect,0.075000X0.075000X0.650000X-0.075000X0.650000X-0.075000X-0.650000X0.075000X-0.650000X0*%
%ADD42O,1.000000X2.100000*%
%ADD43O,1.000000X1.600000*%
%ADD44R,2.200000X1.000000*%
G04 APERTURE END LIST*
D10*
%TO.C,*%
X44000000Y-73900000D03*
%TD*%
%TO.C,*%
X119354000Y-73900000D03*
%TD*%
%TO.C,*%
X42834000Y-43406000D03*
%TD*%
%TO.C,*%
X119354000Y-42500000D03*
%TD*%
D11*
%TO.C,C31*%
X62080000Y-45400000D03*
X62080000Y-47300000D03*
%TD*%
D12*
%TO.C,R32*%
X57590000Y-50971500D03*
X57590000Y-52796500D03*
%TD*%
%TO.C,R31*%
X57590000Y-54480500D03*
X57590000Y-56305500D03*
%TD*%
D13*
%TO.C,D31*%
X55100000Y-55776000D03*
X55100000Y-59076000D03*
%TD*%
D14*
%TO.C,Q31*%
X56600000Y-60918500D03*
X54700000Y-60918500D03*
X55650000Y-62793500D03*
%TD*%
D11*
%TO.C,C32*%
X82927000Y-54775000D03*
X82927000Y-56675000D03*
%TD*%
D15*
%TO.C,U4*%
X103225000Y-61695000D03*
X103225000Y-62965000D03*
X103225000Y-64235000D03*
X103225000Y-65505000D03*
X108175000Y-65505000D03*
X108175000Y-64235000D03*
X108175000Y-62965000D03*
X108175000Y-61695000D03*
%TD*%
D16*
%TO.C,C42*%
X96550000Y-63600000D03*
X98450000Y-63600000D03*
%TD*%
D17*
%TO.C,U1*%
X63962500Y-64090000D03*
X63962500Y-63440000D03*
X63962500Y-62790000D03*
X63962500Y-62140000D03*
D18*
X62975000Y-61152500D03*
X62325000Y-61152500D03*
X61675000Y-61152500D03*
X61025000Y-61152500D03*
D17*
X60037500Y-62140000D03*
X60037500Y-62790000D03*
X60037500Y-63440000D03*
X60037500Y-64090000D03*
D18*
X61025000Y-65077500D03*
X61675000Y-65077500D03*
X62325000Y-65077500D03*
X62975000Y-65077500D03*
D19*
X62000000Y-63115000D03*
%TD*%
D20*
%TO.C,L1*%
X69000000Y-63400000D03*
X66000000Y-63400000D03*
%TD*%
D21*
%TO.C,U2*%
X71562500Y-61075000D03*
X71562500Y-61575000D03*
X71562500Y-62075000D03*
X71562500Y-62575000D03*
X71562500Y-63075000D03*
D22*
X72500000Y-64012500D03*
X73000000Y-64012500D03*
X73500000Y-64012500D03*
X74000000Y-64012500D03*
X74500000Y-64012500D03*
D21*
X75437500Y-63075000D03*
X75437500Y-62575000D03*
X75437500Y-62075000D03*
X75437500Y-61575000D03*
X75437500Y-61075000D03*
D22*
X74500000Y-60137500D03*
X74000000Y-60137500D03*
X73500000Y-60137500D03*
X73000000Y-60137500D03*
X72500000Y-60137500D03*
D23*
X73500000Y-62075000D03*
%TD*%
D24*
%TO.C,R41*%
X81962500Y-63400000D03*
X79037500Y-63400000D03*
%TD*%
D25*
%TO.C,Q2*%
X84062500Y-62450000D03*
X84062500Y-64350000D03*
X85937500Y-63400000D03*
%TD*%
D26*
%TO.C,U3*%
X81047000Y-56183000D03*
X80547000Y-56183000D03*
X80047000Y-56183000D03*
X79547000Y-56183000D03*
X79047000Y-56183000D03*
X79047000Y-60483000D03*
X79547000Y-60483000D03*
X80047000Y-60483000D03*
X80547000Y-60483000D03*
X81047000Y-60483000D03*
%TD*%
D27*
%TO.C,R44*%
X58132500Y-72400000D03*
X59957500Y-72400000D03*
%TD*%
%TO.C,R45*%
X61527500Y-72400000D03*
X63352500Y-72400000D03*
%TD*%
D28*
%TO.C,LED3*%
X65015500Y-72400000D03*
X66890500Y-72400000D03*
%TD*%
D27*
%TO.C,R14*%
X68436500Y-72400000D03*
X70261500Y-72400000D03*
%TD*%
%TO.C,R15*%
X71806500Y-73425000D03*
X73631500Y-73425000D03*
%TD*%
D28*
%TO.C,LED4*%
X72702500Y-71375000D03*
X74577500Y-71375000D03*
%TD*%
D27*
%TO.C,R8*%
X77589500Y-69760000D03*
X79414500Y-69760000D03*
%TD*%
%TO.C,R46*%
X83087500Y-69760000D03*
X84912500Y-69760000D03*
%TD*%
D16*
%TO.C,C2*%
X60233000Y-68910000D03*
X62133000Y-68910000D03*
%TD*%
D29*
%TO.C,C6*%
X63858000Y-68948000D03*
X66808000Y-68948000D03*
%TD*%
%TO.C,C9*%
X68509000Y-68800000D03*
X71459000Y-68800000D03*
%TD*%
D30*
%TO.C,R4*%
X61532500Y-66830000D03*
X59707500Y-66830000D03*
%TD*%
%TO.C,R3*%
X65612500Y-66697000D03*
X63787500Y-66697000D03*
%TD*%
D27*
%TO.C,R16*%
X75332500Y-66400000D03*
X77157500Y-66400000D03*
%TD*%
%TO.C,R17*%
X78842500Y-66400000D03*
X80667500Y-66400000D03*
%TD*%
D16*
%TO.C,C1*%
X60569000Y-58400000D03*
X62469000Y-58400000D03*
%TD*%
%TO.C,C4*%
X64015000Y-58400000D03*
X65915000Y-58400000D03*
%TD*%
%TO.C,C7*%
X67566000Y-58400000D03*
X69466000Y-58400000D03*
%TD*%
D31*
%TO.C,C8*%
X73500000Y-58575000D03*
X73500000Y-56675000D03*
%TD*%
D16*
%TO.C,C41*%
X75450000Y-58400000D03*
X77350000Y-58400000D03*
%TD*%
D27*
%TO.C,R42*%
X82832500Y-58525000D03*
X84657500Y-58525000D03*
%TD*%
%TO.C,R43*%
X86342500Y-58400000D03*
X88167500Y-58400000D03*
%TD*%
%TO.C,R1*%
X60932500Y-54400000D03*
X62757500Y-54400000D03*
%TD*%
D32*
%TO.C,R2*%
X64330000Y-54400000D03*
X65980000Y-54400000D03*
%TD*%
D27*
%TO.C,R13*%
X72932500Y-53900000D03*
X74757500Y-53900000D03*
%TD*%
D32*
%TO.C,R6*%
X76197000Y-54245000D03*
X77847000Y-54245000D03*
%TD*%
%TO.C,R7*%
X79308000Y-54322000D03*
X80958000Y-54322000D03*
%TD*%
D28*
%TO.C,LED2*%
X60196500Y-51250000D03*
X62071500Y-51250000D03*
%TD*%
D27*
%TO.C,R5*%
X63588500Y-50400000D03*
X65413500Y-50400000D03*
%TD*%
D28*
%TO.C,LED1*%
X66962500Y-50400000D03*
X68837500Y-50400000D03*
%TD*%
D27*
%TO.C,R20*%
X70497500Y-50400000D03*
X72322500Y-50400000D03*
%TD*%
D25*
%TO.C,Q1*%
X74117500Y-49450000D03*
X74117500Y-51350000D03*
X75992500Y-50400000D03*
%TD*%
D33*
%TO.C,J4*%
X114300000Y-67850000D03*
D34*
X116300000Y-67850000D03*
%TD*%
D35*
%TO.C,J5*%
X51950000Y-59300000D03*
D36*
X51950000Y-61300000D03*
%TD*%
D33*
%TO.C,J6*%
X56500000Y-46850000D03*
D34*
X58500000Y-46850000D03*
%TD*%
D33*
%TO.C,J7*%
X100500000Y-43750000D03*
D34*
X102500000Y-43750000D03*
X104500000Y-43750000D03*
X106500000Y-43750000D03*
%TD*%
D35*
%TO.C,J10*%
X115700000Y-60450000D03*
D36*
X115700000Y-62450000D03*
%TD*%
D37*
%TO.C,J1*%
X41770000Y-65595000D03*
D38*
X44310000Y-65595000D03*
X46850000Y-65595000D03*
X49390000Y-65595000D03*
X51930000Y-65595000D03*
X54470000Y-65595000D03*
X57010000Y-65595000D03*
%TD*%
D37*
%TO.C,J2*%
X77240000Y-72630000D03*
D38*
X79780000Y-72630000D03*
X82320000Y-72630000D03*
X84860000Y-72630000D03*
%TD*%
D39*
%TO.C,J13*%
X83902000Y-44950000D03*
X78122000Y-44950000D03*
D40*
X84262000Y-46395000D03*
X83462000Y-46395000D03*
D41*
X82262000Y-46395000D03*
X81262000Y-46395000D03*
X80762000Y-46395000D03*
X79762000Y-46395000D03*
D40*
X78562000Y-46395000D03*
X77762000Y-46395000D03*
X77762000Y-46395000D03*
X78562000Y-46395000D03*
D41*
X79262000Y-46395000D03*
X80262000Y-46395000D03*
X81762000Y-46395000D03*
X82762000Y-46395000D03*
D40*
X83462000Y-46395000D03*
X84262000Y-46395000D03*
D42*
X85332000Y-45480000D03*
D43*
X85332000Y-41300000D03*
D42*
X76692000Y-45480000D03*
D43*
X76692000Y-41300000D03*
%TD*%
D44*
%TO.C,K31*%
X95832000Y-55750000D03*
X95832000Y-50670000D03*
X95832000Y-48130000D03*
X95832000Y-45590000D03*
X87832000Y-45590000D03*
X87832000Y-48130000D03*
X87832000Y-50670000D03*
X87832000Y-55750000D03*
%TD*%
M02*
