M48
; DRILL file KiCad 10.0.6 date 2026-09-17T15:51:16
; FORMAT={-:-/ absolute / metric / decimal}
; #@! TF.CreationDate,2026-09-17T15:51:16+09:00
; #@! TF.GenerationSoftware,Kicad,Pcbnew,10.0.6
; #@! TF.FileFunction,Plated,1,4,PTH
FMAT,2
METRIC
; #@! TA.AperFunction,Plated,PTH,ViaDrill
T1C0.300
; #@! TA.AperFunction,Plated,PTH,ComponentDrill
T2C0.600
; #@! TA.AperFunction,Plated,PTH,ComponentDrill
T3C0.750
; #@! TA.AperFunction,Plated,PTH,ComponentDrill
T4C1.000
%
G90
G05
T1
X41.0Y-44.4
X41.0Y-47.6
X41.0Y-50.8
X41.0Y-54.0
X41.0Y-57.2
X41.0Y-60.4
X41.0Y-63.6
X41.0Y-70.0
X41.0Y-73.2
X41.0Y-76.4
X44.2Y-41.2
X44.2Y-47.6
X44.2Y-50.8
X44.2Y-54.0
X44.2Y-57.2
X44.2Y-60.4
X44.2Y-76.4
X47.4Y-41.2
X47.4Y-44.4
X47.4Y-47.6
X47.4Y-50.8
X47.4Y-54.0
X47.4Y-57.2
X47.4Y-73.2
X47.4Y-76.4
X50.6Y-41.2
X50.6Y-44.4
X50.6Y-47.6
X50.6Y-50.8
X50.6Y-54.0
X50.6Y-73.2
X50.6Y-76.4
X53.8Y-41.2
X53.8Y-44.4
X53.8Y-47.6
X53.8Y-50.8
X53.8Y-54.0
X53.8Y-73.2
X53.8Y-76.4
X53.948Y-55.776
X56.436Y-50.971
X56.459Y-53.731
X56.643Y-63.762
X57.0Y-41.2
X57.0Y-44.4
X57.0Y-76.4
X57.302Y-59.93
X59.091Y-64.023
X59.161Y-62.13
X59.172Y-63.127
X59.181Y-68.91
X59.394Y-71.238
X60.2Y-41.2
X60.2Y-44.4
X60.2Y-76.4
X60.897Y-47.621
X61.201Y-73.563
X61.325Y-62.44
X61.325Y-63.79
X62.675Y-62.44
X62.675Y-63.79
X62.758Y-55.585
X63.4Y-41.2
X63.4Y-76.4
X63.59Y-51.575
X63.858Y-70.338
X65.46Y-59.587
X66.15Y-73.499
X66.6Y-41.2
X66.6Y-44.4
X66.6Y-76.4
X67.938Y-59.336
X68.784Y-53.36
X69.0Y-61.094
X69.8Y-41.2
X69.8Y-44.4
X69.8Y-66.8
X69.8Y-76.4
X70.346Y-62.002
X70.481Y-59.834
X70.517Y-55.007
X70.552Y-56.585
X70.591Y-62.822
X71.562Y-63.613
X72.875Y-61.39
X72.875Y-62.64
X72.912Y-49.233
X73.0Y-41.2
X73.0Y-44.4
X73.0Y-76.4
X73.375Y-65.801
X74.001Y-64.905
X74.125Y-61.39
X74.125Y-62.64
X74.603Y-73.161
X75.495Y-60.356
X75.54Y-71.375
X76.2Y-76.4
X76.393Y-67.509
X77.05Y-62.015
X77.558Y-55.173
X78.562Y-48.095
X78.65Y-68.666
X78.846Y-57.361
X79.262Y-48.538
X79.4Y-41.2
X79.4Y-44.4
X79.4Y-76.4
X80.051Y-59.295
X81.898Y-57.517
X82.262Y-47.58
X82.439Y-48.393
X82.6Y-41.2
X82.6Y-44.4
X82.6Y-66.8
X82.6Y-76.4
X83.135Y-53.815
X83.628Y-47.985
X84.081Y-59.692
X84.179Y-55.093
X85.8Y-54.0
X85.8Y-76.4
X87.495Y-63.4
X87.761Y-70.774
X89.0Y-41.2
X89.0Y-66.8
X89.0Y-73.2
X89.0Y-76.4
X89.156Y-58.4
X89.401Y-55.807
X92.2Y-41.2
X92.2Y-44.4
X92.2Y-57.2
X92.2Y-63.6
X92.2Y-73.2
X92.2Y-76.4
X94.28Y-45.59
X95.4Y-41.2
X95.4Y-54.0
X95.4Y-57.2
X95.4Y-66.8
X95.4Y-73.2
X95.4Y-76.4
X97.466Y-48.13
X98.6Y-41.2
X98.6Y-50.8
X98.6Y-54.0
X98.6Y-57.2
X98.6Y-60.4
X98.6Y-66.8
X98.6Y-73.2
X98.6Y-76.4
X99.727Y-63.685
X101.8Y-41.2
X101.8Y-50.8
X101.8Y-54.0
X101.8Y-57.2
X101.8Y-60.4
X101.8Y-66.8
X101.8Y-73.2
X101.8Y-76.4
X105.0Y-41.2
X105.0Y-47.6
X105.0Y-54.0
X105.0Y-57.2
X105.0Y-66.8
X105.0Y-73.2
X105.0Y-76.4
X108.2Y-41.2
X108.2Y-57.2
X108.2Y-60.4
X108.2Y-66.8
X108.2Y-73.2
X108.2Y-76.4
X111.4Y-41.2
X111.4Y-44.4
X111.4Y-47.6
X111.4Y-50.8
X111.4Y-60.4
X111.4Y-73.2
X111.4Y-76.4
X114.6Y-41.2
X114.6Y-44.4
X114.6Y-47.6
X114.6Y-50.8
X114.6Y-54.0
X114.6Y-73.2
X114.6Y-76.4
X117.8Y-41.2
X117.8Y-44.4
X117.8Y-47.6
X117.8Y-50.8
X117.8Y-54.0
X117.8Y-57.2
X117.8Y-60.4
X117.8Y-63.6
X117.8Y-66.8
X117.8Y-70.0
X117.8Y-76.4
X121.0Y-41.2
X121.0Y-44.4
X121.0Y-47.6
X121.0Y-50.8
X121.0Y-54.0
X121.0Y-57.2
X121.0Y-60.4
X121.0Y-63.6
X121.0Y-66.8
X121.0Y-70.0
X121.0Y-76.4
T3
X51.95Y-59.3
X51.95Y-61.3
X56.5Y-46.85
X58.5Y-46.85
X100.5Y-43.75
X102.5Y-43.75
X104.5Y-43.75
X106.5Y-43.75
X114.3Y-67.85
X115.7Y-60.45
X115.7Y-62.45
X116.3Y-67.85
T4
X41.77Y-65.595
X44.31Y-65.595
X46.85Y-65.595
X49.39Y-65.595
X51.93Y-65.595
X54.47Y-65.595
X57.01Y-65.595
X77.24Y-72.63
X79.78Y-72.63
X82.32Y-72.63
X84.86Y-72.63
T2
X76.692Y-41.6G85X76.692Y-41.0
G05
X76.692Y-46.03G85X76.692Y-44.93
G05
X85.332Y-41.6G85X85.332Y-41.0
G05
X85.332Y-46.03G85X85.332Y-44.93
G05
M30
