%TF.GenerationSoftware,KiCad,Pcbnew,10.0.6*%
%TF.CreationDate,2026-09-17T15:51:15+09:00*%
%TF.ProjectId,katanori61,6b617461-6e6f-4726-9936-312e6b696361,rev?*%
%TF.SameCoordinates,Original*%
%TF.FileFunction,Copper,L3,Inr*%
%TF.FilePolarity,Positive*%
%FSLAX46Y46*%
G04 Gerber Fmt 4.6, Leading zero omitted, Abs format (unit mm)*
G04 Created by KiCad (PCBNEW 10.0.6) date 2026-09-17 15:51:15*
%MOMM*%
%LPD*%
G01*
G04 APERTURE LIST*
G04 Aperture macros list*
%AMRoundRect*
0 Rectangle with rounded corners*
0 $1 Rounding radius*
0 $2 $3 $4 $5 $6 $7 $8 $9 X,Y pos of 4 corners*
0 Add a 4 corners polygon primitive as box body*
4,1,4,$2,$3,$4,$5,$6,$7,$8,$9,$2,$3,0*
0 Add four circle primitives for the rounded corners*
1,1,$1+$1,$2,$3*
1,1,$1+$1,$4,$5*
1,1,$1+$1,$6,$7*
1,1,$1+$1,$8,$9*
0 Add four rect primitives between the rounded corners*
20,1,$1+$1,$2,$3,$4,$5,0*
20,1,$1+$1,$4,$5,$6,$7,0*
20,1,$1+$1,$6,$7,$8,$9,0*
20,1,$1+$1,$8,$9,$2,$3,0*%
G04 Aperture macros list end*
%TA.AperFunction,ComponentPad*%
%ADD10RoundRect,0.250000X-0.350000X-0.625000X0.350000X-0.625000X0.350000X0.625000X-0.350000X0.625000X0*%
%TD*%
%TA.AperFunction,ComponentPad*%
%ADD11O,1.200000X1.750000*%
%TD*%
%TA.AperFunction,ComponentPad*%
%ADD12RoundRect,0.250000X-0.625000X0.350000X-0.625000X-0.350000X0.625000X-0.350000X0.625000X0.350000X0*%
%TD*%
%TA.AperFunction,ComponentPad*%
%ADD13O,1.750000X1.200000*%
%TD*%
%TA.AperFunction,ComponentPad*%
%ADD14R,1.700000X1.700000*%
%TD*%
%TA.AperFunction,ComponentPad*%
%ADD15C,1.700000*%
%TD*%
%TA.AperFunction,ComponentPad*%
%ADD16O,1.000000X2.100000*%
%TD*%
%TA.AperFunction,ComponentPad*%
%ADD17O,1.000000X1.600000*%
%TD*%
%TA.AperFunction,ViaPad*%
%ADD18C,0.600000*%
%TD*%
%TA.AperFunction,Conductor*%
%ADD19C,0.200000*%
%TD*%
%TA.AperFunction,Conductor*%
%ADD20C,0.600000*%
%TD*%
%TA.AperFunction,Conductor*%
%ADD21C,0.800000*%
%TD*%
G04 APERTURE END LIST*
D10*
%TO.N,SPKP*%
%TO.C,J4*%
X114300000Y-67850000D03*
D11*
%TO.N,SPKM*%
X116300000Y-67850000D03*
%TD*%
D12*
%TO.N,SPKM*%
%TO.C,J5*%
X51950000Y-59300000D03*
D13*
%TO.N,SPKO*%
X51950000Y-61300000D03*
%TD*%
D10*
%TO.N,GND*%
%TO.C,J6*%
X56500000Y-46850000D03*
D11*
%TO.N,BTN*%
X58500000Y-46850000D03*
%TD*%
D10*
%TO.N,EN*%
%TO.C,J7*%
X100500000Y-43750000D03*
D11*
%TO.N,GND*%
X102500000Y-43750000D03*
%TO.N,EN*%
X104500000Y-43750000D03*
%TO.N,GND*%
X106500000Y-43750000D03*
%TD*%
D12*
%TO.N,GND*%
%TO.C,J10*%
X115700000Y-60450000D03*
D13*
%TO.N,BATRAW*%
X115700000Y-62450000D03*
%TD*%
D14*
%TO.N,V5*%
%TO.C,J1*%
X41770000Y-65595000D03*
D15*
%TO.N,GND*%
X44310000Y-65595000D03*
%TO.N,V33*%
X46850000Y-65595000D03*
%TO.N,SDA*%
X49390000Y-65595000D03*
%TO.N,SCL*%
X51930000Y-65595000D03*
%TO.N,BTN*%
X54470000Y-65595000D03*
%TO.N,IN*%
X57010000Y-65595000D03*
%TD*%
D14*
%TO.N,GND*%
%TO.C,J2*%
X77240000Y-72630000D03*
D15*
%TO.N,V33*%
X79780000Y-72630000D03*
%TO.N,SCL*%
X82320000Y-72630000D03*
%TO.N,SDA*%
X84860000Y-72630000D03*
%TD*%
D16*
%TO.N,GND*%
%TO.C,J13*%
X85332000Y-45480000D03*
D17*
X85332000Y-41300000D03*
D16*
X76692000Y-45480000D03*
D17*
X76692000Y-41300000D03*
%TD*%
D18*
%TO.N,GND*%
X61325000Y-62440000D03*
X61325000Y-63790000D03*
X62675000Y-62440000D03*
X62675000Y-63790000D03*
X72875000Y-61390000D03*
X72875000Y-62640000D03*
X74125000Y-61390000D03*
X74125000Y-62640000D03*
%TO.N,V5*%
X63858000Y-70338000D03*
%TO.N,BATRAW*%
X87495000Y-63400000D03*
%TO.N,VBUS*%
X78562000Y-48095000D03*
X70552000Y-56585000D03*
%TO.N,BASE*%
X56435600Y-50971200D03*
X57302200Y-59929700D03*
%TO.N,CC1*%
X59393700Y-71237700D03*
X82262000Y-47580000D03*
%TO.N,CC2*%
X61201500Y-73563500D03*
X79262000Y-48538000D03*
%TO.N,COL*%
X59091100Y-64023100D03*
X89400800Y-55807000D03*
%TO.N,EN*%
X83135400Y-53815400D03*
X59172500Y-63127100D03*
%TO.N,GND*%
X65460200Y-59586900D03*
X60897500Y-47621100D03*
X84179400Y-55093200D03*
X80051200Y-59294600D03*
%TO.N,IN*%
X56458500Y-53731100D03*
%TO.N,LBI*%
X62757500Y-55585000D03*
X59161200Y-62130400D03*
%TO.N,LBO*%
X56642900Y-63761700D03*
X68784500Y-53360100D03*
X72911800Y-49232800D03*
%TO.N,PROG1*%
X76393300Y-67508600D03*
X77050000Y-62015000D03*
%TO.N,SCL*%
X78845700Y-57361000D03*
X89155800Y-58400000D03*
%TO.N,SDA*%
X81898200Y-57517400D03*
X99727400Y-63684800D03*
%TO.N,SPKM*%
X87760900Y-70773800D03*
%TO.N,SPKO*%
X83627700Y-47984800D03*
X94280300Y-45590000D03*
%TO.N,SPKP*%
X97465600Y-48130000D03*
%TO.N,STAT1*%
X73375200Y-65801400D03*
X78650300Y-68665700D03*
%TO.N,THERM*%
X74602900Y-73160600D03*
X71562500Y-63613500D03*
%TO.N,V33*%
X84080500Y-59691800D03*
%TO.N,V5*%
X63590300Y-51575100D03*
X59181100Y-68910000D03*
X53948300Y-55776400D03*
%TO.N,VBUS*%
X70480600Y-59833900D03*
X82439400Y-48392700D03*
X74001100Y-64905200D03*
X75539800Y-71375000D03*
X66149900Y-73498900D03*
X70591000Y-62822300D03*
%TO.N,VLIPO*%
X75495000Y-60356500D03*
X67937500Y-59336100D03*
%TO.N,VPCC*%
X77558400Y-55172800D03*
X70346000Y-62002500D03*
%TO.N,VSYS*%
X70517100Y-55006600D03*
X69000000Y-61094000D03*
%TO.N,GND*%
X41000000Y-76400000D03*
X41000000Y-73200000D03*
X41000000Y-70000000D03*
X41000000Y-63600000D03*
X41000000Y-60400000D03*
X41000000Y-57200000D03*
X41000000Y-54000000D03*
X41000000Y-50800000D03*
X41000000Y-47600000D03*
X41000000Y-44400000D03*
X44200000Y-76400000D03*
X44200000Y-60400000D03*
X44200000Y-57200000D03*
X44200000Y-54000000D03*
X44200000Y-50800000D03*
X44200000Y-47600000D03*
X44200000Y-41200000D03*
X47400000Y-76400000D03*
X47400000Y-73200000D03*
X47400000Y-57200000D03*
X47400000Y-54000000D03*
X47400000Y-50800000D03*
X47400000Y-47600000D03*
X47400000Y-44400000D03*
X47400000Y-41200000D03*
X50600000Y-76400000D03*
X50600000Y-73200000D03*
X50600000Y-54000000D03*
X50600000Y-50800000D03*
X50600000Y-47600000D03*
X50600000Y-44400000D03*
X50600000Y-41200000D03*
X53800000Y-76400000D03*
X53800000Y-73200000D03*
X53800000Y-54000000D03*
X53800000Y-50800000D03*
X53800000Y-47600000D03*
X53800000Y-44400000D03*
X53800000Y-41200000D03*
X57000000Y-76400000D03*
X57000000Y-44400000D03*
X57000000Y-41200000D03*
X60200000Y-76400000D03*
X60200000Y-44400000D03*
X60200000Y-41200000D03*
X63400000Y-76400000D03*
X63400000Y-41200000D03*
X66600000Y-76400000D03*
X66600000Y-44400000D03*
X66600000Y-41200000D03*
X69800000Y-76400000D03*
X69800000Y-66800000D03*
X69800000Y-44400000D03*
X69800000Y-41200000D03*
X73000000Y-76400000D03*
X73000000Y-44400000D03*
X73000000Y-41200000D03*
X76200000Y-76400000D03*
X79400000Y-76400000D03*
X79400000Y-44400000D03*
X79400000Y-41200000D03*
X82600000Y-76400000D03*
X82600000Y-66800000D03*
X82600000Y-44400000D03*
X82600000Y-41200000D03*
X85800000Y-76400000D03*
X85800000Y-54000000D03*
X89000000Y-76400000D03*
X89000000Y-73200000D03*
X89000000Y-66800000D03*
X89000000Y-41200000D03*
X92200000Y-76400000D03*
X92200000Y-73200000D03*
X92200000Y-63600000D03*
X92200000Y-57200000D03*
X92200000Y-44400000D03*
X92200000Y-41200000D03*
X95400000Y-76400000D03*
X95400000Y-73200000D03*
X95400000Y-66800000D03*
X95400000Y-57200000D03*
X95400000Y-54000000D03*
X95400000Y-41200000D03*
X98600000Y-76400000D03*
X98600000Y-73200000D03*
X98600000Y-66800000D03*
X98600000Y-60400000D03*
X98600000Y-57200000D03*
X98600000Y-54000000D03*
X98600000Y-50800000D03*
X98600000Y-41200000D03*
X101800000Y-76400000D03*
X101800000Y-73200000D03*
X101800000Y-66800000D03*
X101800000Y-60400000D03*
X101800000Y-57200000D03*
X101800000Y-54000000D03*
X101800000Y-50800000D03*
X101800000Y-41200000D03*
X105000000Y-76400000D03*
X105000000Y-73200000D03*
X105000000Y-66800000D03*
X105000000Y-57200000D03*
X105000000Y-54000000D03*
X105000000Y-47600000D03*
X105000000Y-41200000D03*
X108200000Y-76400000D03*
X108200000Y-73200000D03*
X108200000Y-66800000D03*
X108200000Y-60400000D03*
X108200000Y-57200000D03*
X108200000Y-41200000D03*
X111400000Y-76400000D03*
X111400000Y-73200000D03*
X111400000Y-60400000D03*
X111400000Y-50800000D03*
X111400000Y-47600000D03*
X111400000Y-44400000D03*
X111400000Y-41200000D03*
X114600000Y-76400000D03*
X114600000Y-73200000D03*
X114600000Y-54000000D03*
X114600000Y-50800000D03*
X114600000Y-47600000D03*
X114600000Y-44400000D03*
X114600000Y-41200000D03*
X117800000Y-76400000D03*
X117800000Y-70000000D03*
X117800000Y-66800000D03*
X117800000Y-63600000D03*
X117800000Y-60400000D03*
X117800000Y-57200000D03*
X117800000Y-54000000D03*
X117800000Y-50800000D03*
X117800000Y-47600000D03*
X117800000Y-44400000D03*
X117800000Y-41200000D03*
X121000000Y-76400000D03*
X121000000Y-70000000D03*
X121000000Y-66800000D03*
X121000000Y-63600000D03*
X121000000Y-60400000D03*
X121000000Y-57200000D03*
X121000000Y-54000000D03*
X121000000Y-50800000D03*
X121000000Y-47600000D03*
X121000000Y-44400000D03*
X121000000Y-41200000D03*
%TD*%
%TO.N,BASE*%
D19*
X57302200Y-59929700D02*
X57302200Y-51837800D01*
X57302200Y-51837800D02*
X56435600Y-50971200D01*
%TO.N,BTN*%
X58500000Y-46850000D02*
X57648300Y-46850000D01*
X57648300Y-46850000D02*
X57648300Y-47701700D01*
X57648300Y-47701700D02*
X54957300Y-50392700D01*
X54957300Y-50392700D02*
X54957300Y-55700600D01*
X54957300Y-55700600D02*
X52235300Y-58422600D01*
X52235300Y-58422600D02*
X50992400Y-58422600D01*
X50992400Y-58422600D02*
X50467600Y-58947400D01*
X50467600Y-58947400D02*
X50467600Y-62198200D01*
X50467600Y-62198200D02*
X52376600Y-64107200D01*
X52376600Y-64107200D02*
X52982200Y-64107200D01*
X52982200Y-64107200D02*
X54470000Y-65595000D01*
%TO.N,CC1*%
X59393700Y-71237700D02*
X58523600Y-70367600D01*
X58523600Y-70367600D02*
X58523600Y-61987300D01*
X58523600Y-61987300D02*
X66247400Y-54263500D01*
X66247400Y-54263500D02*
X75578500Y-54263500D01*
X75578500Y-54263500D02*
X82262000Y-47580000D01*
%TO.N,CC2*%
X61201500Y-73563500D02*
X60871700Y-73563500D01*
X60871700Y-73563500D02*
X58121700Y-70813500D01*
X58121700Y-70813500D02*
X58121700Y-61847400D01*
X58121700Y-61847400D02*
X66057300Y-53911800D01*
X66057300Y-53911800D02*
X73888200Y-53911800D01*
X73888200Y-53911800D02*
X79262000Y-48538000D01*
%TO.N,COL*%
X89400800Y-55807000D02*
X88486500Y-56721300D01*
X88486500Y-56721300D02*
X78703200Y-56721300D01*
X78703200Y-56721300D02*
X77863700Y-57560800D01*
X77863700Y-57560800D02*
X65419400Y-57560800D01*
X65419400Y-57560800D02*
X60124800Y-62855400D01*
X60124800Y-62855400D02*
X60124800Y-62989400D01*
X60124800Y-62989400D02*
X59091100Y-64023100D01*
%TO.N,EN*%
X59172500Y-63127100D02*
X66455400Y-55844200D01*
X66455400Y-55844200D02*
X82615900Y-55844200D01*
X82615900Y-55844200D02*
X83135400Y-55324700D01*
X99648300Y-43750000D02*
X87720900Y-55677400D01*
X87720900Y-55677400D02*
X83488100Y-55677400D01*
X83488100Y-55677400D02*
X83135400Y-55324700D01*
X83135400Y-55324700D02*
X83135400Y-53815400D01*
X100500000Y-43750000D02*
X99648300Y-43750000D01*
X100500000Y-43750000D02*
X101351700Y-43750000D01*
X104500000Y-43750000D02*
X103373300Y-44876700D01*
X103373300Y-44876700D02*
X101733200Y-44876700D01*
X101733200Y-44876700D02*
X101351700Y-44495200D01*
X101351700Y-44495200D02*
X101351700Y-43750000D01*
%TO.N,GND*%
X65460200Y-60128600D02*
X65717200Y-60385600D01*
X65717200Y-60385600D02*
X71870600Y-60385600D01*
X71870600Y-60385600D02*
X72875000Y-61390000D01*
X65460200Y-60128600D02*
X65460200Y-59586900D01*
X85332000Y-46781700D02*
X84179400Y-47934300D01*
X84179400Y-47934300D02*
X84179400Y-55093200D01*
X77240000Y-72630000D02*
X77240000Y-70366200D01*
X77240000Y-70366200D02*
X75794400Y-68920600D01*
X75794400Y-68920600D02*
X75794400Y-64309400D01*
X75794400Y-64309400D02*
X74125000Y-62640000D01*
X102500000Y-43750000D02*
X101101700Y-42351700D01*
X101101700Y-42351700D02*
X85332000Y-42351700D01*
X74125000Y-61390000D02*
X77955800Y-61390000D01*
X77955800Y-61390000D02*
X80051200Y-59294600D01*
X74125000Y-62640000D02*
X74125000Y-61390000D01*
X85332000Y-45480000D02*
X85332000Y-46781700D01*
X62675000Y-62440000D02*
X64986400Y-60128600D01*
X64986400Y-60128600D02*
X65460200Y-60128600D01*
X115700000Y-60450000D02*
X115700000Y-59598300D01*
X56500000Y-46850000D02*
X57626700Y-45723300D01*
X57626700Y-45723300D02*
X59261400Y-45723300D01*
X59261400Y-45723300D02*
X60897500Y-47359400D01*
X60897500Y-47359400D02*
X60897500Y-47621100D01*
X106500000Y-43750000D02*
X107351700Y-43750000D01*
X115700000Y-59598300D02*
X107351700Y-51250000D01*
X107351700Y-51250000D02*
X107351700Y-43750000D01*
X102500000Y-43750000D02*
X103351700Y-43750000D01*
X106500000Y-43750000D02*
X105648300Y-43750000D01*
X105648300Y-43750000D02*
X105648300Y-43004800D01*
X105648300Y-43004800D02*
X105266800Y-42623300D01*
X105266800Y-42623300D02*
X103733200Y-42623300D01*
X103733200Y-42623300D02*
X103351700Y-43004800D01*
X103351700Y-43004800D02*
X103351700Y-43750000D01*
X76692000Y-45480000D02*
X76692000Y-46781700D01*
X76692000Y-46781700D02*
X61736900Y-46781700D01*
X61736900Y-46781700D02*
X60897500Y-47621100D01*
X76692000Y-42351700D02*
X76692000Y-45480000D01*
X85332000Y-42351700D02*
X85332000Y-45480000D01*
X76692000Y-42351700D02*
X85332000Y-42351700D01*
X85332000Y-41300000D02*
X85332000Y-42351700D01*
X76692000Y-41300000D02*
X76692000Y-42351700D01*
X61325000Y-63790000D02*
X61325000Y-62440000D01*
X62675000Y-62440000D02*
X61325000Y-62440000D01*
X62675000Y-63790000D02*
X62675000Y-62440000D01*
X72875000Y-62640000D02*
X72875000Y-61390000D01*
X74125000Y-61390000D02*
X72875000Y-61390000D01*
%TO.N,IN*%
X57010000Y-65595000D02*
X55037800Y-63622800D01*
X55037800Y-63622800D02*
X52434500Y-63622800D01*
X52434500Y-63622800D02*
X50823300Y-62011600D01*
X50823300Y-62011600D02*
X50823300Y-60578400D01*
X50823300Y-60578400D02*
X51250000Y-60151700D01*
X51250000Y-60151700D02*
X52929300Y-60151700D01*
X52929300Y-60151700D02*
X56458500Y-56622500D01*
X56458500Y-56622500D02*
X56458500Y-53731100D01*
%TO.N,LBO*%
X56642900Y-63761700D02*
X56642900Y-62796300D01*
X56642900Y-62796300D02*
X66079100Y-53360100D01*
X66079100Y-53360100D02*
X68784500Y-53360100D01*
%TO.N,PROG1*%
X77050000Y-62015000D02*
X76393300Y-62671700D01*
X76393300Y-62671700D02*
X76393300Y-67508600D01*
%TO.N,SCL*%
X51930000Y-65595000D02*
X51930000Y-65616400D01*
X51930000Y-65616400D02*
X60805200Y-74491600D01*
X60805200Y-74491600D02*
X71237700Y-74491600D01*
X71237700Y-74491600D02*
X71565100Y-74164200D01*
X71565100Y-74164200D02*
X80785800Y-74164200D01*
X80785800Y-74164200D02*
X82320000Y-72630000D01*
X84634600Y-58612300D02*
X80097000Y-58612300D01*
X80097000Y-58612300D02*
X78845700Y-57361000D01*
X84634600Y-58612300D02*
X88943500Y-58612300D01*
X88943500Y-58612300D02*
X89155800Y-58400000D01*
X82320000Y-72630000D02*
X84634600Y-70315400D01*
X84634600Y-70315400D02*
X84634600Y-58612300D01*
%TO.N,SDA*%
X93805200Y-63684800D02*
X93805200Y-62223600D01*
X93805200Y-62223600D02*
X89099000Y-57517400D01*
X89099000Y-57517400D02*
X81898200Y-57517400D01*
X93805200Y-63684800D02*
X99727400Y-63684800D01*
X84860000Y-72630000D02*
X93805200Y-63684800D01*
X49390000Y-65595000D02*
X59062700Y-75267700D01*
X59062700Y-75267700D02*
X82222300Y-75267700D01*
X82222300Y-75267700D02*
X84860000Y-72630000D01*
%TO.N,SPKM*%
D20*
X116300000Y-69176700D02*
X114702900Y-70773800D01*
X114702900Y-70773800D02*
X87760900Y-70773800D01*
X116300000Y-67850000D02*
X116300000Y-69176700D01*
%TO.N,SPKO*%
X83627700Y-47984800D02*
X83627700Y-47847000D01*
X83627700Y-47847000D02*
X82582700Y-46802000D01*
X82582700Y-46802000D02*
X78337500Y-46802000D01*
X78337500Y-46802000D02*
X72531100Y-52608400D01*
X72531100Y-52608400D02*
X64623300Y-52608400D01*
X64623300Y-52608400D02*
X58054600Y-59177100D01*
X58054600Y-59177100D02*
X58054600Y-60304700D01*
X58054600Y-60304700D02*
X57059300Y-61300000D01*
X57059300Y-61300000D02*
X53276700Y-61300000D01*
X51950000Y-61300000D02*
X53276700Y-61300000D01*
%TO.N,SPKP*%
X114300000Y-67850000D02*
X114300000Y-60013700D01*
X114300000Y-60013700D02*
X102416300Y-48130000D01*
X102416300Y-48130000D02*
X97465600Y-48130000D01*
%TO.N,THERM*%
D19*
X74602900Y-73160600D02*
X76136800Y-71626700D01*
X76136800Y-71626700D02*
X76136800Y-70007800D01*
X76136800Y-70007800D02*
X74617000Y-68488000D01*
X74617000Y-68488000D02*
X74617000Y-64736700D01*
X74617000Y-64736700D02*
X73493800Y-63613500D01*
X73493800Y-63613500D02*
X71562500Y-63613500D01*
%TO.N,V33*%
X46850000Y-65595000D02*
X47952800Y-64492200D01*
X47952800Y-64492200D02*
X52395600Y-64492200D01*
X52395600Y-64492200D02*
X53200000Y-65296600D01*
X53200000Y-65296600D02*
X53200000Y-66389100D01*
X53200000Y-66389100D02*
X60950800Y-74139900D01*
X60950800Y-74139900D02*
X67733500Y-74139900D01*
X67733500Y-74139900D02*
X68060900Y-73812500D01*
X68060900Y-73812500D02*
X78597500Y-73812500D01*
X78597500Y-73812500D02*
X79780000Y-72630000D01*
X79780000Y-72630000D02*
X79780000Y-63992300D01*
X79780000Y-63992300D02*
X84080500Y-59691800D01*
%TO.N,V5*%
D21*
X53948300Y-55776400D02*
X51588600Y-55776400D01*
X51588600Y-55776400D02*
X41770000Y-65595000D01*
X59181100Y-68910000D02*
X62430000Y-68910000D01*
X62430000Y-68910000D02*
X63858000Y-70338000D01*
%TO.N,VBUS*%
D19*
X74001100Y-64905200D02*
X74001100Y-69836300D01*
X74001100Y-69836300D02*
X75539800Y-71375000D01*
X72126100Y-64990900D02*
X72211800Y-64905200D01*
X72211800Y-64905200D02*
X74001100Y-64905200D01*
X66149900Y-73498900D02*
X72126100Y-67522700D01*
X72126100Y-67522700D02*
X72126100Y-64990900D01*
X70591000Y-62822300D02*
X70591000Y-63455800D01*
X70591000Y-63455800D02*
X72126100Y-64990900D01*
%TO.N,VLIPO*%
D20*
X67937500Y-59336100D02*
X68193000Y-59080600D01*
X68193000Y-59080600D02*
X74219100Y-59080600D01*
X74219100Y-59080600D02*
X75495000Y-60356500D01*
%TD*%
M02*
