M48
; DRILL file KiCad 10.0.6 date 2026-09-16T20:44:58
; FORMAT={-:-/ absolute / metric / decimal}
; #@! TF.CreationDate,2026-09-16T20:44:58+09:00
; #@! TF.GenerationSoftware,Kicad,Pcbnew,10.0.6
; #@! TF.FileFunction,Plated,1,2,PTH
FMAT,2
METRIC
; #@! TA.AperFunction,Plated,PTH,ViaDrill
T1C0.300
; #@! TA.AperFunction,Plated,PTH,ViaDrill
T2C0.400
; #@! TA.AperFunction,Plated,PTH,ComponentDrill
T3C0.600
; #@! TA.AperFunction,Plated,PTH,ComponentDrill
T4C0.750
; #@! TA.AperFunction,Plated,PTH,ComponentDrill
T5C1.000
%
G90
G05
T1
X41.0Y-44.4
X41.0Y-47.6
X41.0Y-50.8
X41.0Y-54.0
X41.0Y-57.2
X41.0Y-60.4
X41.0Y-63.6
X41.0Y-70.0
X41.0Y-73.2
X41.0Y-76.4
X44.2Y-41.2
X44.2Y-47.6
X44.2Y-50.8
X44.2Y-54.0
X44.2Y-57.2
X44.2Y-70.0
X44.2Y-76.4
X47.4Y-41.2
X47.4Y-44.4
X47.4Y-47.6
X47.4Y-50.8
X47.4Y-54.0
X47.4Y-73.2
X47.4Y-76.4
X50.6Y-41.2
X50.6Y-44.4
X50.6Y-47.6
X50.6Y-50.8
X50.6Y-57.2
X50.6Y-76.4
X53.8Y-41.2
X53.8Y-44.4
X53.8Y-70.0
X53.8Y-76.4
X57.0Y-41.2
X57.0Y-50.8
X57.0Y-76.4
X60.2Y-41.2
X60.2Y-44.4
X60.2Y-47.6
X60.2Y-66.8
X60.2Y-70.0
X60.2Y-76.4
X63.4Y-41.2
X63.4Y-44.4
X63.4Y-63.6
X63.4Y-66.8
X63.4Y-70.0
X63.4Y-76.4
X66.6Y-41.2
X66.6Y-76.4
X69.8Y-76.4
X73.0Y-76.4
X76.2Y-76.4
X79.4Y-66.8
X79.4Y-76.4
X82.6Y-76.4
X85.8Y-66.8
X85.8Y-76.4
X89.0Y-66.8
X89.0Y-76.4
X92.2Y-41.2
X92.2Y-76.4
X95.4Y-41.2
X95.4Y-44.4
X95.4Y-66.8
X95.4Y-76.4
X98.6Y-41.2
X98.6Y-44.4
X98.6Y-47.6
X98.6Y-66.8
X98.6Y-76.4
X101.8Y-41.2
X101.8Y-47.6
X101.8Y-54.0
X101.8Y-66.8
X101.8Y-76.4
X105.0Y-41.2
X105.0Y-47.6
X105.0Y-54.0
X105.0Y-76.4
X108.2Y-41.2
X108.2Y-47.6
X108.2Y-70.0
X108.2Y-76.4
X111.4Y-41.2
X111.4Y-44.4
X111.4Y-54.0
X111.4Y-57.2
X111.4Y-66.8
X111.4Y-76.4
X114.6Y-41.2
X114.6Y-44.4
X114.6Y-63.6
X114.6Y-73.2
X114.6Y-76.4
X117.8Y-41.2
X117.8Y-44.4
X117.8Y-50.8
X117.8Y-63.6
X117.8Y-66.8
X117.8Y-70.0
X117.8Y-73.2
X117.8Y-76.4
X121.0Y-41.2
X121.0Y-44.4
X121.0Y-47.6
X121.0Y-50.8
X121.0Y-54.0
X121.0Y-57.2
X121.0Y-60.4
X121.0Y-63.6
X121.0Y-66.8
X121.0Y-70.0
X121.0Y-73.2
X121.0Y-76.4
T2
X57.453Y-52.993
X59.447Y-62.345
X62.223Y-58.792
X62.223Y-64.127
X64.838Y-67.972
X65.868Y-57.476
X67.376Y-54.871
X67.995Y-58.805
X68.27Y-56.337
X68.327Y-63.171
X69.266Y-41.78
X69.648Y-49.414
X70.115Y-63.094
X70.302Y-53.756
X70.336Y-56.929
X70.467Y-58.29
X71.142Y-52.752
X71.236Y-51.8
X71.412Y-54.857
X71.412Y-66.626
X71.84Y-70.759
X72.098Y-51.229
X72.447Y-62.63
X72.952Y-50.425
X74.189Y-48.047
X76.317Y-44.905
X79.608Y-56.611
X80.035Y-67.908
X80.172Y-57.431
X80.352Y-54.524
X80.829Y-50.21
X81.545Y-61.339
X81.919Y-50.438
X82.474Y-60.296
X84.478Y-45.001
X84.928Y-68.56
X85.085Y-60.672
X85.582Y-61.554
X86.342Y-57.069
X87.342Y-54.643
X87.743Y-47.337
X88.56Y-72.218
X88.927Y-49.118
X88.929Y-48.046
X93.167Y-58.377
X94.118Y-63.431
X95.319Y-51.439
X97.791Y-65.48
X99.465Y-61.206
X108.626Y-59.819
X113.854Y-52.65
X114.126Y-49.65
T4
X51.95Y-59.3
X51.95Y-61.3
X56.5Y-47.95
X58.5Y-47.95
X100.5Y-43.75
X102.5Y-43.75
X104.5Y-43.75
X106.5Y-43.75
X114.3Y-69.35
X115.45Y-59.625
X116.3Y-69.35
X117.45Y-59.625
T5
X41.77Y-65.595
X44.31Y-65.595
X46.85Y-65.595
X49.39Y-65.595
X51.93Y-65.595
X54.47Y-65.595
X57.01Y-65.595
X77.24Y-72.63
X79.78Y-72.63
X82.32Y-72.63
X84.86Y-72.63
T3
X116.224Y-47.08G85X117.324Y-47.08
G05
X116.224Y-55.72G85X117.324Y-55.72
G05
M30
