%TF.GenerationSoftware,KiCad,Pcbnew,10.0.6*%
%TF.CreationDate,2026-09-16T19:27:12+09:00*%
%TF.ProjectId,katanori61,6b617461-6e6f-4726-9936-312e6b696361,rev?*%
%TF.SameCoordinates,Original*%
%TF.FileFunction,Copper,L2,Bot*%
%TF.FilePolarity,Positive*%
%FSLAX46Y46*%
G04 Gerber Fmt 4.6, Leading zero omitted, Abs format (unit mm)*
G04 Created by KiCad (PCBNEW 10.0.6) date 2026-09-16 19:27:12*
%MOMM*%
%LPD*%
G01*
G04 APERTURE LIST*
G04 Aperture macros list*
%AMRoundRect*
0 Rectangle with rounded corners*
0 $1 Rounding radius*
0 $2 $3 $4 $5 $6 $7 $8 $9 X,Y pos of 4 corners*
0 Add a 4 corners polygon primitive as box body*
4,1,4,$2,$3,$4,$5,$6,$7,$8,$9,$2,$3,0*
0 Add four circle primitives for the rounded corners*
1,1,$1+$1,$2,$3*
1,1,$1+$1,$4,$5*
1,1,$1+$1,$6,$7*
1,1,$1+$1,$8,$9*
0 Add four rect primitives between the rounded corners*
20,1,$1+$1,$2,$3,$4,$5,0*
20,1,$1+$1,$4,$5,$6,$7,0*
20,1,$1+$1,$6,$7,$8,$9,0*
20,1,$1+$1,$8,$9,$2,$3,0*%
G04 Aperture macros list end*
%TA.AperFunction,ComponentPad*%
%ADD10RoundRect,0.250000X0.350000X0.625000X-0.350000X0.625000X-0.350000X-0.625000X0.350000X-0.625000X0*%
%TD*%
%TA.AperFunction,ComponentPad*%
%ADD11O,1.200000X1.750000*%
%TD*%
%TA.AperFunction,ComponentPad*%
%ADD12RoundRect,0.250000X-0.625000X0.350000X-0.625000X-0.350000X0.625000X-0.350000X0.625000X0.350000X0*%
%TD*%
%TA.AperFunction,ComponentPad*%
%ADD13O,1.750000X1.200000*%
%TD*%
%TA.AperFunction,ComponentPad*%
%ADD14RoundRect,0.250000X-0.350000X-0.625000X0.350000X-0.625000X0.350000X0.625000X-0.350000X0.625000X0*%
%TD*%
%TA.AperFunction,ComponentPad*%
%ADD15R,1.700000X1.700000*%
%TD*%
%TA.AperFunction,ComponentPad*%
%ADD16C,1.700000*%
%TD*%
%TA.AperFunction,ComponentPad*%
%ADD17O,2.100000X1.000000*%
%TD*%
%TA.AperFunction,ViaPad*%
%ADD18C,0.800000*%
%TD*%
%TA.AperFunction,ViaPad*%
%ADD19C,0.600000*%
%TD*%
%TA.AperFunction,Conductor*%
%ADD20C,0.200000*%
%TD*%
G04 APERTURE END LIST*
D10*
%TO.P,J4,1*%
%TO.N,SPKP*%
X116300000Y-69350000D03*
D11*
%TO.P,J4,2*%
%TO.N,SPKM*%
X114300000Y-69350000D03*
%TD*%
D12*
%TO.P,J5,1*%
%TO.N,SPKM*%
X51950000Y-59300000D03*
D13*
%TO.P,J5,2*%
%TO.N,SPKO*%
X51950000Y-61300000D03*
%TD*%
D14*
%TO.P,J6,1*%
%TO.N,GND*%
X56500000Y-47950000D03*
D11*
%TO.P,J6,2*%
%TO.N,BTN*%
X58500000Y-47950000D03*
%TD*%
D14*
%TO.P,J7,1*%
%TO.N,EN*%
X100500000Y-43750000D03*
D11*
%TO.P,J7,2*%
%TO.N,GND*%
X102500000Y-43750000D03*
%TO.P,J7,3*%
%TO.N,EN*%
X104500000Y-43750000D03*
%TO.P,J7,4*%
%TO.N,GND*%
X106500000Y-43750000D03*
%TD*%
D10*
%TO.P,J10,1*%
%TO.N,GND*%
X117450000Y-59625000D03*
D11*
%TO.P,J10,2*%
%TO.N,BATRAW*%
X115450000Y-59625000D03*
%TD*%
D15*
%TO.P,J1,1*%
%TO.N,V5*%
X41770000Y-65595000D03*
D16*
%TO.P,J1,2*%
%TO.N,GND*%
X44310000Y-65595000D03*
%TO.P,J1,3*%
%TO.N,V33*%
X46850000Y-65595000D03*
%TO.P,J1,4*%
%TO.N,SDA*%
X49390000Y-65595000D03*
%TO.P,J1,5*%
%TO.N,SCL*%
X51930000Y-65595000D03*
%TO.P,J1,6*%
%TO.N,BTN*%
X54470000Y-65595000D03*
%TO.P,J1,7*%
%TO.N,IN*%
X57010000Y-65595000D03*
%TD*%
D15*
%TO.P,J2,1*%
%TO.N,GND*%
X77240000Y-72630000D03*
D16*
%TO.P,J2,2*%
%TO.N,V33*%
X79780000Y-72630000D03*
%TO.P,J2,3*%
%TO.N,SCL*%
X82320000Y-72630000D03*
%TO.P,J2,4*%
%TO.N,SDA*%
X84860000Y-72630000D03*
%TD*%
D17*
%TO.P,J13,SH*%
%TO.N,GND*%
X116774000Y-55720000D03*
X116774000Y-47080000D03*
%TD*%
D18*
%TO.N,BATP*%
X74188600Y-48046800D03*
X64838500Y-67972300D03*
%TO.N,CC1*%
X113854000Y-52650000D03*
X97791500Y-65480000D03*
%TO.N,CC2*%
X114125700Y-49650000D03*
X99465500Y-61205800D03*
%TO.N,COL*%
X69266300Y-41780000D03*
X59447200Y-62344800D03*
%TO.N,EN*%
X86341600Y-57069400D03*
X88927400Y-49117800D03*
X93166900Y-58377500D03*
%TO.N,FB*%
X85084700Y-60671800D03*
X87341900Y-54643000D03*
%TO.N,GND*%
X71412500Y-66626200D03*
X68270100Y-56336900D03*
%TO.N,IN*%
X57452900Y-52993200D03*
%TO.N,LBI*%
X87742600Y-47337400D03*
X80171700Y-57431400D03*
%TO.N,LBO*%
X82474400Y-60296300D03*
X88928700Y-48046100D03*
%TO.N,N_LED4*%
X70335600Y-56928800D03*
X70114800Y-63093800D03*
%TO.N,PROG1*%
X68327300Y-63170700D03*
X71235500Y-51800500D03*
%TO.N,PROG3*%
X67995000Y-58805500D03*
X71141600Y-52752300D03*
%TO.N,SCL*%
X69648200Y-49413700D03*
X80035400Y-67908000D03*
%TO.N,SDA*%
X72952000Y-50424700D03*
X80828800Y-50210400D03*
X84928300Y-68559700D03*
%TO.N,SPKO*%
X95318800Y-51438800D03*
%TO.N,SPKP*%
X108626300Y-59818500D03*
%TO.N,STAT2*%
X79607500Y-56610900D03*
X67375600Y-54870900D03*
%TO.N,V33*%
X70301700Y-53755700D03*
X88559900Y-72218100D03*
X94118500Y-63430800D03*
%TO.N,VBUS*%
X70467100Y-58289800D03*
X71412100Y-54857200D03*
X72447500Y-62629500D03*
X76317300Y-44905000D03*
X65867900Y-57476400D03*
X84478000Y-45000800D03*
%TO.N,VLIPO*%
X71840200Y-70758700D03*
X72098300Y-51228600D03*
%TO.N,VPCC*%
X62223000Y-64127200D03*
X62223000Y-58792200D03*
%TO.N,VSYS*%
X80352200Y-54524300D03*
X81918900Y-50437800D03*
X81544700Y-61339100D03*
X85581700Y-61554100D03*
D19*
%TO.N,GND*%
X41000000Y-76400000D03*
X41000000Y-73200000D03*
X41000000Y-70000000D03*
X41000000Y-63600000D03*
X41000000Y-60400000D03*
X41000000Y-57200000D03*
X41000000Y-54000000D03*
X41000000Y-50800000D03*
X41000000Y-47600000D03*
X41000000Y-44400000D03*
X44200000Y-76400000D03*
X44200000Y-70000000D03*
X44200000Y-57200000D03*
X44200000Y-54000000D03*
X44200000Y-50800000D03*
X44200000Y-47600000D03*
X44200000Y-41200000D03*
X47400000Y-76400000D03*
X47400000Y-73200000D03*
X47400000Y-54000000D03*
X47400000Y-50800000D03*
X47400000Y-47600000D03*
X47400000Y-44400000D03*
X47400000Y-41200000D03*
X50600000Y-76400000D03*
X50600000Y-57200000D03*
X50600000Y-50800000D03*
X50600000Y-47600000D03*
X50600000Y-44400000D03*
X50600000Y-41200000D03*
X53800000Y-76400000D03*
X53800000Y-70000000D03*
X53800000Y-44400000D03*
X53800000Y-41200000D03*
X57000000Y-76400000D03*
X57000000Y-50800000D03*
X57000000Y-41200000D03*
X60200000Y-76400000D03*
X60200000Y-70000000D03*
X60200000Y-66800000D03*
X60200000Y-47600000D03*
X60200000Y-44400000D03*
X60200000Y-41200000D03*
X63400000Y-76400000D03*
X63400000Y-70000000D03*
X63400000Y-66800000D03*
X63400000Y-63600000D03*
X63400000Y-44400000D03*
X63400000Y-41200000D03*
X66600000Y-76400000D03*
X66600000Y-41200000D03*
X69800000Y-76400000D03*
X73000000Y-76400000D03*
X76200000Y-76400000D03*
X79400000Y-76400000D03*
X79400000Y-66800000D03*
X82600000Y-76400000D03*
X85800000Y-76400000D03*
X85800000Y-66800000D03*
X89000000Y-76400000D03*
X89000000Y-66800000D03*
X92200000Y-76400000D03*
X92200000Y-41200000D03*
X95400000Y-76400000D03*
X95400000Y-66800000D03*
X95400000Y-44400000D03*
X95400000Y-41200000D03*
X98600000Y-76400000D03*
X98600000Y-66800000D03*
X98600000Y-47600000D03*
X98600000Y-44400000D03*
X98600000Y-41200000D03*
X101800000Y-76400000D03*
X101800000Y-66800000D03*
X101800000Y-54000000D03*
X101800000Y-47600000D03*
X101800000Y-41200000D03*
X105000000Y-76400000D03*
X105000000Y-54000000D03*
X105000000Y-47600000D03*
X105000000Y-41200000D03*
X108200000Y-76400000D03*
X108200000Y-70000000D03*
X108200000Y-47600000D03*
X108200000Y-41200000D03*
X111400000Y-76400000D03*
X111400000Y-66800000D03*
X111400000Y-57200000D03*
X111400000Y-54000000D03*
X111400000Y-44400000D03*
X111400000Y-41200000D03*
X114600000Y-76400000D03*
X114600000Y-73200000D03*
X114600000Y-63600000D03*
X114600000Y-44400000D03*
X114600000Y-41200000D03*
X117800000Y-76400000D03*
X117800000Y-73200000D03*
X117800000Y-70000000D03*
X117800000Y-66800000D03*
X117800000Y-63600000D03*
X117800000Y-50800000D03*
X117800000Y-44400000D03*
X117800000Y-41200000D03*
X121000000Y-76400000D03*
X121000000Y-73200000D03*
X121000000Y-70000000D03*
X121000000Y-66800000D03*
X121000000Y-63600000D03*
X121000000Y-60400000D03*
X121000000Y-57200000D03*
X121000000Y-54000000D03*
X121000000Y-50800000D03*
X121000000Y-47600000D03*
X121000000Y-44400000D03*
X121000000Y-41200000D03*
%TD*%
%TO.N,BATP*%
D20*
X64838500Y-55252800D02*
X64838500Y-67972300D01*
X72044500Y-48046800D02*
X64838500Y-55252800D01*
X74188600Y-48046800D02*
X72044500Y-48046800D01*
%TO.N,BTN*%
X57648300Y-48801700D02*
X57648300Y-47950000D01*
X54470000Y-51980000D02*
X57648300Y-48801700D01*
X54470000Y-65595000D02*
X54470000Y-51980000D01*
X58500000Y-47950000D02*
X57648300Y-47950000D01*
%TO.N,CC1*%
X110621500Y-52650000D02*
X113854000Y-52650000D01*
X97791500Y-65480000D02*
X110621500Y-52650000D01*
%TO.N,CC2*%
X111021300Y-49650000D02*
X114125700Y-49650000D01*
X99465500Y-61205800D02*
X111021300Y-49650000D01*
%TO.N,COL*%
X59447200Y-51599100D02*
X59447200Y-62344800D01*
X69266300Y-41780000D02*
X59447200Y-51599100D01*
%TO.N,EN*%
X88927400Y-54483600D02*
X88927400Y-52144100D01*
X86341600Y-57069400D02*
X88927400Y-54483600D01*
X88927400Y-52144100D02*
X88927400Y-49117800D01*
X93166900Y-52144100D02*
X93166900Y-58377500D01*
X95605000Y-52144100D02*
X93166900Y-52144100D01*
X100500000Y-47249100D02*
X95605000Y-52144100D01*
X100500000Y-43750000D02*
X100500000Y-47249100D01*
X93166900Y-52144100D02*
X88927400Y-52144100D01*
X101351700Y-44495200D02*
X101351700Y-43750000D01*
X101733200Y-44876700D02*
X101351700Y-44495200D01*
X103266800Y-44876700D02*
X101733200Y-44876700D01*
X103648300Y-44495200D02*
X103266800Y-44876700D01*
X103648300Y-43750000D02*
X103648300Y-44495200D01*
X100500000Y-43750000D02*
X101351700Y-43750000D01*
X104500000Y-43750000D02*
X103648300Y-43750000D01*
%TO.N,FB*%
X85084700Y-56900200D02*
X85084700Y-60671800D01*
X87341900Y-54643000D02*
X85084700Y-56900200D01*
%TO.N,GND*%
X77240000Y-72630000D02*
X77240000Y-71528300D01*
X44310000Y-59288300D02*
X55648300Y-47950000D01*
X44310000Y-65595000D02*
X44310000Y-59288300D01*
X56500000Y-47950000D02*
X55648300Y-47950000D01*
X72337900Y-66626200D02*
X71412500Y-66626200D01*
X77240000Y-71528300D02*
X72337900Y-66626200D01*
X67265600Y-57341400D02*
X68270100Y-56336900D01*
X67265600Y-63561000D02*
X67265600Y-57341400D01*
X70330800Y-66626200D02*
X67265600Y-63561000D01*
X71412500Y-66626200D02*
X70330800Y-66626200D01*
X103626700Y-42623300D02*
X102500000Y-43750000D01*
X105266800Y-42623300D02*
X103626700Y-42623300D01*
X105648300Y-43004800D02*
X105266800Y-42623300D01*
X105648300Y-43750000D02*
X105648300Y-43004800D01*
X106500000Y-43750000D02*
X105648300Y-43750000D01*
X115472300Y-47080000D02*
X115472300Y-55720000D01*
X116774000Y-47080000D02*
X115472300Y-47080000D01*
X116774000Y-55720000D02*
X115472300Y-55720000D01*
X118075700Y-57872600D02*
X117450000Y-58498300D01*
X118075700Y-55720000D02*
X118075700Y-57872600D01*
X116774000Y-55720000D02*
X118075700Y-55720000D01*
X117450000Y-59625000D02*
X117450000Y-58498300D01*
%TO.N,IN*%
X57010000Y-53436100D02*
X57452900Y-52993200D01*
X57010000Y-65595000D02*
X57010000Y-53436100D01*
%TO.N,LBI*%
X82246700Y-47337400D02*
X87742600Y-47337400D01*
X79694900Y-49889200D02*
X82246700Y-47337400D01*
X79694900Y-54911700D02*
X79694900Y-49889200D01*
X80294500Y-55511300D02*
X79694900Y-54911700D01*
X80294500Y-57308600D02*
X80294500Y-55511300D01*
X80171700Y-57431400D02*
X80294500Y-57308600D01*
%TO.N,LBO*%
X82474400Y-54500400D02*
X82474400Y-60296300D01*
X88928700Y-48046100D02*
X82474400Y-54500400D01*
%TO.N,N_LED4*%
X69815400Y-62794400D02*
X70114800Y-63093800D01*
X69815400Y-57449000D02*
X69815400Y-62794400D01*
X70335600Y-56928800D02*
X69815400Y-57449000D01*
%TO.N,PROG1*%
X70811000Y-51800500D02*
X71235500Y-51800500D01*
X69098100Y-53513400D02*
X70811000Y-51800500D01*
X69098100Y-62399900D02*
X69098100Y-53513400D01*
X68327300Y-63170700D02*
X69098100Y-62399900D01*
%TO.N,PROG3*%
X70356500Y-52752300D02*
X71141600Y-52752300D01*
X69449800Y-53659000D02*
X70356500Y-52752300D01*
X69449800Y-63030800D02*
X69449800Y-53659000D01*
X68627700Y-63852900D02*
X69449800Y-63030800D01*
X68088000Y-63852900D02*
X68627700Y-63852900D01*
X67658100Y-63423000D02*
X68088000Y-63852900D01*
X67658100Y-59142400D02*
X67658100Y-63423000D01*
X67995000Y-58805500D02*
X67658100Y-59142400D01*
%TO.N,SCL*%
X61443900Y-57618000D02*
X69648200Y-49413700D01*
X61443900Y-63221200D02*
X61443900Y-57618000D01*
X57607200Y-67057900D02*
X61443900Y-63221200D01*
X53392900Y-67057900D02*
X57607200Y-67057900D01*
X51930000Y-65595000D02*
X53392900Y-67057900D01*
X80035400Y-70345400D02*
X80035400Y-67908000D01*
X82320000Y-72630000D02*
X80035400Y-70345400D01*
%TO.N,SDA*%
X52447700Y-68652700D02*
X49390000Y-65595000D01*
X65092200Y-68652700D02*
X52447700Y-68652700D01*
X66550600Y-67194300D02*
X65092200Y-68652700D01*
X66550600Y-56625700D02*
X66550600Y-67194300D01*
X68134800Y-55041500D02*
X66550600Y-56625700D01*
X68134800Y-53482100D02*
X68134800Y-55041500D01*
X71040100Y-50576800D02*
X68134800Y-53482100D01*
X72952000Y-50576800D02*
X71040100Y-50576800D01*
X72952000Y-50576800D02*
X72952000Y-50424700D01*
X72952000Y-51184000D02*
X80154100Y-58386100D01*
X72952000Y-50576800D02*
X72952000Y-51184000D01*
X81048700Y-50430300D02*
X80828800Y-50210400D01*
X81048700Y-57491500D02*
X81048700Y-50430300D01*
X80154100Y-58386100D02*
X81048700Y-57491500D01*
X84860000Y-68559700D02*
X84928300Y-68559700D01*
X84860000Y-72630000D02*
X84860000Y-68559700D01*
X80154100Y-63853800D02*
X80154100Y-58386100D01*
X84860000Y-68559700D02*
X80154100Y-63853800D01*
%TO.N,SPKO*%
X53200000Y-63401700D02*
X51950000Y-62151700D01*
X53200000Y-65883100D02*
X53200000Y-63401700D01*
X54017600Y-66700700D02*
X53200000Y-65883100D01*
X57463800Y-66700700D02*
X54017600Y-66700700D01*
X60973800Y-63190700D02*
X57463800Y-66700700D01*
X60973800Y-57157900D02*
X60973800Y-63190700D01*
X73882000Y-44249700D02*
X60973800Y-57157900D01*
X88129700Y-44249700D02*
X73882000Y-44249700D01*
X95318800Y-51438800D02*
X88129700Y-44249700D01*
X51950000Y-61300000D02*
X51950000Y-62151700D01*
%TO.N,SPKP*%
X115448300Y-66640500D02*
X108626300Y-59818500D01*
X115448300Y-69350000D02*
X115448300Y-66640500D01*
X116300000Y-69350000D02*
X115448300Y-69350000D01*
%TO.N,STAT2*%
X79607500Y-56151900D02*
X79607500Y-56610900D01*
X73211200Y-49755600D02*
X79607500Y-56151900D01*
X71364000Y-49755600D02*
X73211200Y-49755600D01*
X67375600Y-53744000D02*
X71364000Y-49755600D01*
X67375600Y-54870900D02*
X67375600Y-53744000D01*
%TO.N,V33*%
X54989700Y-73734700D02*
X46850000Y-65595000D01*
X78675300Y-73734700D02*
X54989700Y-73734700D01*
X79780000Y-72630000D02*
X78675300Y-73734700D01*
X76279100Y-69129100D02*
X79780000Y-72630000D01*
X76279100Y-58749200D02*
X76279100Y-69129100D01*
X71285600Y-53755700D02*
X76279100Y-58749200D01*
X70301700Y-53755700D02*
X71285600Y-53755700D01*
X94118500Y-66659500D02*
X88559900Y-72218100D01*
X94118500Y-63430800D02*
X94118500Y-66659500D01*
%TO.N,VBUS*%
X71412100Y-57346400D02*
X71412100Y-54857200D01*
X70468700Y-58289800D02*
X71412100Y-57346400D01*
X72447500Y-60268600D02*
X72447500Y-62629500D01*
X70468700Y-58289800D02*
X72447500Y-60268600D01*
X70468700Y-58289800D02*
X70467100Y-58289800D01*
X84478000Y-45000800D02*
X76384500Y-45000800D01*
X76384500Y-46812000D02*
X76384500Y-45000800D01*
X74376300Y-48820200D02*
X76384500Y-46812000D01*
X71768400Y-48820200D02*
X74376300Y-48820200D01*
X65867900Y-54720700D02*
X71768400Y-48820200D01*
X65867900Y-57476400D02*
X65867900Y-54720700D01*
X76384500Y-44972200D02*
X76317300Y-44905000D01*
X76384500Y-45000800D02*
X76384500Y-44972200D01*
%TO.N,VLIPO*%
X72014200Y-51144500D02*
X72098300Y-51228600D01*
X70969700Y-51144500D02*
X72014200Y-51144500D01*
X68661500Y-53452700D02*
X70969700Y-51144500D01*
X68661500Y-55022300D02*
X68661500Y-53452700D01*
X66902300Y-56781500D02*
X68661500Y-55022300D01*
X66902300Y-65820800D02*
X66902300Y-56781500D01*
X71840200Y-70758700D02*
X66902300Y-65820800D01*
%TO.N,VPCC*%
X62223000Y-58792200D02*
X62223000Y-64127200D01*
%TO.N,VSYS*%
X81918900Y-50437800D02*
X81915400Y-50437800D01*
X80177100Y-54349200D02*
X80352200Y-54524300D01*
X80177100Y-49940600D02*
X80177100Y-54349200D01*
X80559000Y-49558700D02*
X80177100Y-49940600D01*
X81098700Y-49558700D02*
X80559000Y-49558700D01*
X81915400Y-50375400D02*
X81098700Y-49558700D01*
X81915400Y-50437800D02*
X81915400Y-50375400D01*
X81803200Y-50550000D02*
X81803200Y-61246300D01*
X81915400Y-50437800D02*
X81803200Y-50550000D01*
X81637500Y-61246300D02*
X81803200Y-61246300D01*
X81544700Y-61339100D02*
X81637500Y-61246300D01*
X82111000Y-61554100D02*
X85581700Y-61554100D01*
X81803200Y-61246300D02*
X82111000Y-61554100D01*
%TD*%
%TA.AperFunction,Conductor*%
%TO.N,GND*%
G36*
X72182818Y-55219562D02*
G01*
X72187637Y-55224130D01*
X75842281Y-58878774D01*
X75875766Y-58940097D01*
X75878600Y-58966455D01*
X75878600Y-69181826D01*
X75905893Y-69283689D01*
X75932256Y-69329350D01*
X75958620Y-69375013D01*
X75958622Y-69375015D01*
X78674325Y-72090718D01*
X78707810Y-72152041D01*
X78704575Y-72216716D01*
X78657829Y-72360587D01*
X78629500Y-72539448D01*
X78629500Y-72720551D01*
X78657829Y-72899412D01*
X78704575Y-73043283D01*
X78706570Y-73113124D01*
X78674326Y-73169279D01*
X78545724Y-73297882D01*
X78484404Y-73331366D01*
X78458045Y-73334200D01*
X55206955Y-73334200D01*
X55139916Y-73314515D01*
X55119274Y-73297881D01*
X47955674Y-66134281D01*
X47922189Y-66072958D01*
X47925423Y-66008284D01*
X47972171Y-65864409D01*
X47980503Y-65811804D01*
X47997527Y-65704321D01*
X48027456Y-65641186D01*
X48086768Y-65604255D01*
X48156630Y-65605253D01*
X48214863Y-65643863D01*
X48242473Y-65704321D01*
X48267829Y-65864410D01*
X48323787Y-66036636D01*
X48323788Y-66036639D01*
X48366215Y-66119905D01*
X48401204Y-66188574D01*
X48406006Y-66197997D01*
X48501361Y-66329244D01*
X48501365Y-66329248D01*
X48512447Y-66344501D01*
X48640499Y-66472553D01*
X48655751Y-66483634D01*
X48655755Y-66483638D01*
X48774926Y-66570219D01*
X48787006Y-66578996D01*
X48863094Y-66617765D01*
X48948360Y-66661211D01*
X48948363Y-66661212D01*
X49034476Y-66689191D01*
X49120591Y-66717171D01*
X49203429Y-66730291D01*
X49299449Y-66745500D01*
X49299454Y-66745500D01*
X49480551Y-66745500D01*
X49659409Y-66717171D01*
X49674628Y-66712226D01*
X49803284Y-66670423D01*
X49873123Y-66668429D01*
X49929281Y-66700674D01*
X52201787Y-68973180D01*
X52293112Y-69025907D01*
X52394973Y-69053200D01*
X52394975Y-69053200D01*
X65144925Y-69053200D01*
X65144927Y-69053200D01*
X65246788Y-69025907D01*
X65338113Y-68973180D01*
X66871080Y-67440213D01*
X66923807Y-67348888D01*
X66951100Y-67247027D01*
X66951100Y-67141573D01*
X66951100Y-66735355D01*
X66970785Y-66668316D01*
X67023589Y-66622561D01*
X67092747Y-66612617D01*
X67156303Y-66641642D01*
X67162781Y-66647674D01*
X71104067Y-70588960D01*
X71137552Y-70650283D01*
X71139490Y-70683615D01*
X71139700Y-70683615D01*
X71139700Y-70687231D01*
X71139790Y-70688780D01*
X71139700Y-70689694D01*
X71139700Y-70689707D01*
X71139700Y-70827693D01*
X71139700Y-70827695D01*
X71139699Y-70827695D01*
X71166618Y-70963022D01*
X71166621Y-70963032D01*
X71219421Y-71090504D01*
X71219428Y-71090517D01*
X71296085Y-71205241D01*
X71296088Y-71205245D01*
X71393654Y-71302811D01*
X71393658Y-71302814D01*
X71508382Y-71379471D01*
X71508395Y-71379478D01*
X71635867Y-71432278D01*
X71635872Y-71432280D01*
X71635876Y-71432280D01*
X71635877Y-71432281D01*
X71771204Y-71459200D01*
X71771207Y-71459200D01*
X71909195Y-71459200D01*
X72000241Y-71441089D01*
X72044528Y-71432280D01*
X72172011Y-71379475D01*
X72286742Y-71302814D01*
X72384314Y-71205242D01*
X72460975Y-71090511D01*
X72513780Y-70963028D01*
X72540700Y-70827693D01*
X72540700Y-70689707D01*
X72540700Y-70689704D01*
X72513781Y-70554377D01*
X72513780Y-70554376D01*
X72513780Y-70554372D01*
X72501821Y-70525500D01*
X72460978Y-70426895D01*
X72460971Y-70426882D01*
X72384314Y-70312158D01*
X72384311Y-70312154D01*
X72286745Y-70214588D01*
X72286741Y-70214585D01*
X72172017Y-70137928D01*
X72172004Y-70137921D01*
X72044532Y-70085121D01*
X72044522Y-70085118D01*
X71909195Y-70058200D01*
X71909193Y-70058200D01*
X71771207Y-70058200D01*
X71771195Y-70058200D01*
X71770280Y-70058290D01*
X71769806Y-70058200D01*
X71765115Y-70058200D01*
X71765115Y-70057309D01*
X71701635Y-70045263D01*
X71670460Y-70022567D01*
X67339119Y-65691226D01*
X67305634Y-65629903D01*
X67302800Y-65603545D01*
X67302800Y-63933455D01*
X67322485Y-63866416D01*
X67375289Y-63820661D01*
X67444447Y-63810717D01*
X67508003Y-63839742D01*
X67514481Y-63845774D01*
X67767519Y-64098812D01*
X67767520Y-64098813D01*
X67842087Y-64173380D01*
X67933413Y-64226107D01*
X68035273Y-64253400D01*
X68035275Y-64253400D01*
X68680425Y-64253400D01*
X68680427Y-64253400D01*
X68782288Y-64226107D01*
X68873613Y-64173380D01*
X69450988Y-63596003D01*
X69512309Y-63562520D01*
X69582000Y-63567504D01*
X69626348Y-63596005D01*
X69668254Y-63637911D01*
X69668258Y-63637914D01*
X69782982Y-63714571D01*
X69782995Y-63714578D01*
X69898973Y-63762617D01*
X69910472Y-63767380D01*
X69910476Y-63767380D01*
X69910477Y-63767381D01*
X70045804Y-63794300D01*
X70045807Y-63794300D01*
X70183795Y-63794300D01*
X70274841Y-63776189D01*
X70319128Y-63767380D01*
X70446611Y-63714575D01*
X70561342Y-63637914D01*
X70658914Y-63540342D01*
X70735575Y-63425611D01*
X70788380Y-63298128D01*
X70813148Y-63173614D01*
X70815300Y-63162795D01*
X70815300Y-63024804D01*
X70788381Y-62889477D01*
X70788380Y-62889476D01*
X70788380Y-62889472D01*
X70787226Y-62886685D01*
X70735578Y-62761995D01*
X70735571Y-62761982D01*
X70658914Y-62647258D01*
X70658911Y-62647254D01*
X70561345Y-62549688D01*
X70561341Y-62549685D01*
X70446617Y-62473028D01*
X70446604Y-62473021D01*
X70319132Y-62420221D01*
X70319118Y-62420217D01*
X70315704Y-62419538D01*
X70314081Y-62418689D01*
X70313296Y-62418451D01*
X70313341Y-62418301D01*
X70253794Y-62387151D01*
X70219222Y-62326433D01*
X70215900Y-62297922D01*
X70215900Y-59105151D01*
X70235585Y-59038112D01*
X70288389Y-58992357D01*
X70357547Y-58982413D01*
X70364087Y-58983533D01*
X70378478Y-58986395D01*
X70398106Y-58990300D01*
X70398107Y-58990300D01*
X70536085Y-58990300D01*
X70536093Y-58990300D01*
X70536100Y-58990298D01*
X70538448Y-58990067D01*
X70539677Y-58990300D01*
X70542185Y-58990300D01*
X70542185Y-58990775D01*
X70607095Y-59003079D01*
X70638295Y-59025788D01*
X72010681Y-60398174D01*
X72044166Y-60459497D01*
X72047000Y-60485855D01*
X72047000Y-61988952D01*
X72027315Y-62055991D01*
X72005116Y-62080929D01*
X72005265Y-62081078D01*
X72002704Y-62083638D01*
X72001667Y-62084804D01*
X72000953Y-62085389D01*
X71903388Y-62182954D01*
X71903385Y-62182958D01*
X71826728Y-62297682D01*
X71826721Y-62297695D01*
X71773921Y-62425167D01*
X71773918Y-62425177D01*
X71747000Y-62560504D01*
X71747000Y-62560507D01*
X71747000Y-62698493D01*
X71747000Y-62698495D01*
X71746999Y-62698495D01*
X71773918Y-62833822D01*
X71773921Y-62833832D01*
X71826721Y-62961304D01*
X71826728Y-62961317D01*
X71903385Y-63076041D01*
X71903388Y-63076045D01*
X72000954Y-63173611D01*
X72000958Y-63173614D01*
X72115682Y-63250271D01*
X72115695Y-63250278D01*
X72231202Y-63298122D01*
X72243172Y-63303080D01*
X72243176Y-63303080D01*
X72243177Y-63303081D01*
X72378504Y-63330000D01*
X72378507Y-63330000D01*
X72516495Y-63330000D01*
X72607541Y-63311889D01*
X72651828Y-63303080D01*
X72779311Y-63250275D01*
X72894042Y-63173614D01*
X72991614Y-63076042D01*
X73068275Y-62961311D01*
X73121080Y-62833828D01*
X73136318Y-62757221D01*
X73148000Y-62698495D01*
X73148000Y-62560504D01*
X73121081Y-62425177D01*
X73121080Y-62425176D01*
X73121080Y-62425172D01*
X73116367Y-62413793D01*
X73068278Y-62297695D01*
X73068271Y-62297682D01*
X72991614Y-62182958D01*
X72991611Y-62182954D01*
X72894046Y-62085389D01*
X72893333Y-62084804D01*
X72893059Y-62084402D01*
X72889735Y-62081078D01*
X72890365Y-62080447D01*
X72854000Y-62027057D01*
X72848000Y-61988952D01*
X72848000Y-60215873D01*
X72843881Y-60200500D01*
X72820707Y-60114012D01*
X72767980Y-60022687D01*
X71203375Y-58458082D01*
X71169890Y-58396759D01*
X71168041Y-58364885D01*
X71167600Y-58364885D01*
X71167600Y-58214715D01*
X71168914Y-58214715D01*
X71180667Y-58152715D01*
X71203372Y-58121519D01*
X71732580Y-57592313D01*
X71785307Y-57500988D01*
X71812600Y-57399127D01*
X71812600Y-57293673D01*
X71812600Y-55497747D01*
X71832285Y-55430708D01*
X71854485Y-55405772D01*
X71854335Y-55405622D01*
X71856921Y-55403035D01*
X71857944Y-55401887D01*
X71858637Y-55401317D01*
X71858642Y-55401314D01*
X71956214Y-55303742D01*
X71981842Y-55265387D01*
X71996854Y-55242921D01*
X72050466Y-55198115D01*
X72119791Y-55189408D01*
X72182818Y-55219562D01*
G37*
%TD.AperFunction*%
%TA.AperFunction,Conductor*%
G36*
X72838294Y-51636938D02*
G01*
X72843115Y-51641508D01*
X79717281Y-58515674D01*
X79750766Y-58576997D01*
X79753600Y-58603355D01*
X79753600Y-63801073D01*
X79753600Y-63906527D01*
X79757978Y-63922867D01*
X79780893Y-64008389D01*
X79795235Y-64033229D01*
X79833620Y-64099713D01*
X82027479Y-66293572D01*
X84191481Y-68457573D01*
X84224966Y-68518896D01*
X84227800Y-68545254D01*
X84227800Y-68628693D01*
X84227800Y-68628695D01*
X84227799Y-68628695D01*
X84254718Y-68764022D01*
X84254721Y-68764032D01*
X84307521Y-68891504D01*
X84307528Y-68891517D01*
X84384185Y-69006241D01*
X84384188Y-69006245D01*
X84423180Y-69045236D01*
X84456666Y-69106559D01*
X84459500Y-69132918D01*
X84459500Y-71466840D01*
X84439815Y-71533879D01*
X84391795Y-71577325D01*
X84257002Y-71646006D01*
X84110505Y-71752441D01*
X84110500Y-71752445D01*
X83982445Y-71880500D01*
X83982441Y-71880505D01*
X83876006Y-72027002D01*
X83793788Y-72188360D01*
X83793787Y-72188363D01*
X83737829Y-72360589D01*
X83712473Y-72520678D01*
X83682544Y-72583813D01*
X83623232Y-72620744D01*
X83553369Y-72619746D01*
X83495137Y-72581136D01*
X83467527Y-72520678D01*
X83451964Y-72422422D01*
X83442171Y-72360591D01*
X83386211Y-72188361D01*
X83386211Y-72188360D01*
X83336459Y-72090718D01*
X83303996Y-72027006D01*
X83290396Y-72008287D01*
X83197558Y-71880505D01*
X83197554Y-71880500D01*
X83069499Y-71752445D01*
X83069494Y-71752441D01*
X82922997Y-71646006D01*
X82922996Y-71646005D01*
X82922994Y-71646004D01*
X82827457Y-71597325D01*
X82761639Y-71563788D01*
X82761636Y-71563787D01*
X82589410Y-71507829D01*
X82410551Y-71479500D01*
X82410546Y-71479500D01*
X82229454Y-71479500D01*
X82229449Y-71479500D01*
X82050587Y-71507829D01*
X81906716Y-71554575D01*
X81836875Y-71556570D01*
X81780718Y-71524325D01*
X80472219Y-70215826D01*
X80438734Y-70154503D01*
X80435900Y-70128145D01*
X80435900Y-68548547D01*
X80455585Y-68481508D01*
X80477785Y-68456572D01*
X80477635Y-68456422D01*
X80480221Y-68453835D01*
X80481244Y-68452687D01*
X80481937Y-68452117D01*
X80481942Y-68452114D01*
X80579514Y-68354542D01*
X80656175Y-68239811D01*
X80708980Y-68112328D01*
X80717789Y-68068041D01*
X80735900Y-67976995D01*
X80735900Y-67839004D01*
X80708981Y-67703677D01*
X80708980Y-67703676D01*
X80708980Y-67703672D01*
X80705872Y-67696168D01*
X80656178Y-67576195D01*
X80656171Y-67576182D01*
X80579514Y-67461458D01*
X80579511Y-67461454D01*
X80481945Y-67363888D01*
X80481941Y-67363885D01*
X80367217Y-67287228D01*
X80367204Y-67287221D01*
X80239732Y-67234421D01*
X80239722Y-67234418D01*
X80104395Y-67207500D01*
X80104393Y-67207500D01*
X79966407Y-67207500D01*
X79966405Y-67207500D01*
X79831077Y-67234418D01*
X79831067Y-67234421D01*
X79703595Y-67287221D01*
X79703582Y-67287228D01*
X79588858Y-67363885D01*
X79588854Y-67363888D01*
X79491288Y-67461454D01*
X79491285Y-67461458D01*
X79414628Y-67576182D01*
X79414621Y-67576195D01*
X79361821Y-67703667D01*
X79361818Y-67703677D01*
X79334900Y-67839004D01*
X79334900Y-67839007D01*
X79334900Y-67976993D01*
X79334900Y-67976995D01*
X79334899Y-67976995D01*
X79361818Y-68112322D01*
X79361821Y-68112332D01*
X79414621Y-68239804D01*
X79414628Y-68239817D01*
X79491285Y-68354541D01*
X79491288Y-68354545D01*
X79588853Y-68452110D01*
X79589556Y-68452687D01*
X79589825Y-68453082D01*
X79593165Y-68456422D01*
X79592531Y-68457055D01*
X79628896Y-68510429D01*
X79634900Y-68548547D01*
X79634900Y-70398126D01*
X79662193Y-70499989D01*
X79670789Y-70514877D01*
X79714920Y-70591313D01*
X79714922Y-70591315D01*
X81214325Y-72090718D01*
X81247810Y-72152041D01*
X81244575Y-72216716D01*
X81197829Y-72360587D01*
X81172473Y-72520678D01*
X81142544Y-72583813D01*
X81083232Y-72620744D01*
X81013369Y-72619746D01*
X80955137Y-72581136D01*
X80927527Y-72520678D01*
X80911964Y-72422422D01*
X80902171Y-72360591D01*
X80846211Y-72188361D01*
X80846211Y-72188360D01*
X80796459Y-72090718D01*
X80763996Y-72027006D01*
X80754377Y-72013767D01*
X80668638Y-71895755D01*
X80668634Y-71895751D01*
X80657553Y-71880499D01*
X80529501Y-71752447D01*
X80514248Y-71741365D01*
X80514244Y-71741361D01*
X80382997Y-71646006D01*
X80382996Y-71646005D01*
X80382994Y-71646004D01*
X80287457Y-71597325D01*
X80221639Y-71563788D01*
X80221636Y-71563787D01*
X80049410Y-71507829D01*
X79870551Y-71479500D01*
X79870546Y-71479500D01*
X79689454Y-71479500D01*
X79689449Y-71479500D01*
X79510587Y-71507829D01*
X79366716Y-71554575D01*
X79296875Y-71556570D01*
X79240718Y-71524325D01*
X76715919Y-68999526D01*
X76682434Y-68938203D01*
X76679600Y-68911845D01*
X76679600Y-58696475D01*
X76679600Y-58696473D01*
X76652307Y-58594613D01*
X76599580Y-58503287D01*
X76525013Y-58428720D01*
X74138437Y-56042144D01*
X71577542Y-53481248D01*
X71544057Y-53419925D01*
X71549041Y-53350233D01*
X71584171Y-53301058D01*
X71583835Y-53300722D01*
X71585852Y-53298704D01*
X71586563Y-53297710D01*
X71588137Y-53296417D01*
X71588142Y-53296414D01*
X71685714Y-53198842D01*
X71762375Y-53084111D01*
X71815180Y-52956628D01*
X71842100Y-52821293D01*
X71842100Y-52683307D01*
X71842100Y-52683304D01*
X71815181Y-52547977D01*
X71815180Y-52547976D01*
X71815180Y-52547972D01*
X71774221Y-52449088D01*
X71762377Y-52420493D01*
X71762376Y-52420491D01*
X71762375Y-52420489D01*
X71756344Y-52411463D01*
X71735465Y-52344790D01*
X71753947Y-52277409D01*
X71771759Y-52254896D01*
X71779614Y-52247042D01*
X71856275Y-52132311D01*
X71908740Y-52005647D01*
X71952580Y-51951244D01*
X72018874Y-51929179D01*
X72023301Y-51929100D01*
X72167295Y-51929100D01*
X72268457Y-51908977D01*
X72302628Y-51902180D01*
X72430111Y-51849375D01*
X72544842Y-51772714D01*
X72642414Y-51675142D01*
X72652331Y-51660300D01*
X72705941Y-51615494D01*
X72775266Y-51606785D01*
X72838294Y-51636938D01*
G37*
%TD.AperFunction*%
%TA.AperFunction,Conductor*%
G36*
X64357334Y-55373472D02*
G01*
X64413267Y-55415344D01*
X64437684Y-55480808D01*
X64438000Y-55489654D01*
X64438000Y-67331752D01*
X64418315Y-67398791D01*
X64396116Y-67423729D01*
X64396265Y-67423878D01*
X64393704Y-67426438D01*
X64392667Y-67427604D01*
X64391953Y-67428189D01*
X64294388Y-67525754D01*
X64294385Y-67525758D01*
X64217728Y-67640482D01*
X64217721Y-67640495D01*
X64164921Y-67767967D01*
X64164918Y-67767977D01*
X64138000Y-67903304D01*
X64138000Y-68041297D01*
X64150474Y-68104009D01*
X64144247Y-68173601D01*
X64101383Y-68228778D01*
X64035494Y-68252022D01*
X64028857Y-68252200D01*
X52664955Y-68252200D01*
X52597916Y-68232515D01*
X52577274Y-68215881D01*
X50495674Y-66134281D01*
X50462189Y-66072958D01*
X50465423Y-66008284D01*
X50512171Y-65864409D01*
X50520503Y-65811804D01*
X50537527Y-65704321D01*
X50567456Y-65641186D01*
X50626768Y-65604255D01*
X50696630Y-65605253D01*
X50754863Y-65643863D01*
X50782473Y-65704321D01*
X50807829Y-65864410D01*
X50863787Y-66036636D01*
X50863788Y-66036639D01*
X50906215Y-66119905D01*
X50941204Y-66188574D01*
X50946006Y-66197997D01*
X51041361Y-66329244D01*
X51041365Y-66329248D01*
X51052447Y-66344501D01*
X51180499Y-66472553D01*
X51195751Y-66483634D01*
X51195755Y-66483638D01*
X51314926Y-66570219D01*
X51327006Y-66578996D01*
X51403094Y-66617765D01*
X51488360Y-66661211D01*
X51488363Y-66661212D01*
X51574476Y-66689191D01*
X51660591Y-66717171D01*
X51743429Y-66730291D01*
X51839449Y-66745500D01*
X51839454Y-66745500D01*
X52020551Y-66745500D01*
X52199409Y-66717171D01*
X52214628Y-66712226D01*
X52343284Y-66670423D01*
X52413123Y-66668429D01*
X52469281Y-66700674D01*
X53146987Y-67378380D01*
X53238312Y-67431107D01*
X53340173Y-67458400D01*
X53340175Y-67458400D01*
X57659925Y-67458400D01*
X57659927Y-67458400D01*
X57761788Y-67431107D01*
X57853113Y-67378380D01*
X61320166Y-63911326D01*
X61381487Y-63877843D01*
X61451179Y-63882827D01*
X61507112Y-63924699D01*
X61531529Y-63990163D01*
X61529463Y-64023198D01*
X61522500Y-64058206D01*
X61522500Y-64058207D01*
X61522500Y-64196193D01*
X61522500Y-64196195D01*
X61522499Y-64196195D01*
X61549418Y-64331522D01*
X61549421Y-64331532D01*
X61602221Y-64459004D01*
X61602228Y-64459017D01*
X61678885Y-64573741D01*
X61678888Y-64573745D01*
X61776454Y-64671311D01*
X61776458Y-64671314D01*
X61891182Y-64747971D01*
X61891195Y-64747978D01*
X61993378Y-64790303D01*
X62018672Y-64800780D01*
X62018676Y-64800780D01*
X62018677Y-64800781D01*
X62154004Y-64827700D01*
X62154007Y-64827700D01*
X62291995Y-64827700D01*
X62398984Y-64806418D01*
X62427328Y-64800780D01*
X62554811Y-64747975D01*
X62669542Y-64671314D01*
X62767114Y-64573742D01*
X62843775Y-64459011D01*
X62896580Y-64331528D01*
X62923500Y-64196193D01*
X62923500Y-64058207D01*
X62923500Y-64058206D01*
X62923500Y-64058204D01*
X62896581Y-63922877D01*
X62896580Y-63922876D01*
X62896580Y-63922872D01*
X62879993Y-63882827D01*
X62843778Y-63795395D01*
X62843771Y-63795382D01*
X62767114Y-63680658D01*
X62767111Y-63680654D01*
X62669546Y-63583089D01*
X62668833Y-63582504D01*
X62668559Y-63582102D01*
X62665235Y-63578778D01*
X62665865Y-63578147D01*
X62629500Y-63524757D01*
X62623500Y-63486652D01*
X62623500Y-59432747D01*
X62643185Y-59365708D01*
X62665385Y-59340772D01*
X62665235Y-59340622D01*
X62667821Y-59338035D01*
X62668844Y-59336887D01*
X62669537Y-59336317D01*
X62669542Y-59336314D01*
X62767114Y-59238742D01*
X62843775Y-59124011D01*
X62896580Y-58996528D01*
X62907805Y-58940097D01*
X62923500Y-58861195D01*
X62923500Y-58723204D01*
X62896581Y-58587877D01*
X62896580Y-58587876D01*
X62896580Y-58587872D01*
X62894074Y-58581822D01*
X62843778Y-58460395D01*
X62843771Y-58460382D01*
X62767114Y-58345658D01*
X62767111Y-58345654D01*
X62669545Y-58248088D01*
X62669541Y-58248085D01*
X62554817Y-58171428D01*
X62554804Y-58171421D01*
X62427332Y-58118621D01*
X62427322Y-58118618D01*
X62291995Y-58091700D01*
X62291993Y-58091700D01*
X62154007Y-58091700D01*
X62154005Y-58091700D01*
X62018677Y-58118618D01*
X62018664Y-58118622D01*
X62015843Y-58119791D01*
X62014248Y-58119962D01*
X62012845Y-58120388D01*
X62012764Y-58120121D01*
X61946373Y-58127254D01*
X61883896Y-58095974D01*
X61848249Y-58035882D01*
X61844400Y-58005226D01*
X61844400Y-57835254D01*
X61864085Y-57768215D01*
X61880714Y-57747578D01*
X64226319Y-55401972D01*
X64287642Y-55368488D01*
X64357334Y-55373472D01*
G37*
%TD.AperFunction*%
%TA.AperFunction,Conductor*%
G36*
X68616934Y-55735773D02*
G01*
X68672867Y-55777645D01*
X68697284Y-55843109D01*
X68697600Y-55851955D01*
X68697600Y-58218081D01*
X68677915Y-58285120D01*
X68625111Y-58330875D01*
X68555953Y-58340819D01*
X68492397Y-58311794D01*
X68485919Y-58305762D01*
X68441545Y-58261388D01*
X68441541Y-58261385D01*
X68326817Y-58184728D01*
X68326804Y-58184721D01*
X68199332Y-58131921D01*
X68199322Y-58131918D01*
X68063995Y-58105000D01*
X68063993Y-58105000D01*
X67926007Y-58105000D01*
X67926005Y-58105000D01*
X67790677Y-58131918D01*
X67790667Y-58131921D01*
X67663195Y-58184721D01*
X67663182Y-58184728D01*
X67548458Y-58261385D01*
X67548454Y-58261388D01*
X67514481Y-58295362D01*
X67453158Y-58328847D01*
X67383466Y-58323863D01*
X67327533Y-58281991D01*
X67303116Y-58216527D01*
X67302800Y-58207681D01*
X67302800Y-56998755D01*
X67322485Y-56931716D01*
X67339119Y-56911074D01*
X68485919Y-55764274D01*
X68547242Y-55730789D01*
X68616934Y-55735773D01*
G37*
%TD.AperFunction*%
%TA.AperFunction,Conductor*%
G36*
X121666539Y-40320185D02*
G01*
X121712294Y-40372989D01*
X121723500Y-40424500D01*
X121723500Y-76975500D01*
X121703815Y-77042539D01*
X121651011Y-77088294D01*
X121599500Y-77099500D01*
X40424500Y-77099500D01*
X40357461Y-77079815D01*
X40311706Y-77027011D01*
X40300500Y-76975500D01*
X40300500Y-73793713D01*
X42649500Y-73793713D01*
X42649500Y-74006287D01*
X42657244Y-74055179D01*
X42682753Y-74216239D01*
X42748444Y-74418414D01*
X42844951Y-74607820D01*
X42969890Y-74779786D01*
X43120213Y-74930109D01*
X43292179Y-75055048D01*
X43292181Y-75055049D01*
X43292184Y-75055051D01*
X43481588Y-75151557D01*
X43683757Y-75217246D01*
X43893713Y-75250500D01*
X43893714Y-75250500D01*
X44106286Y-75250500D01*
X44106287Y-75250500D01*
X44316243Y-75217246D01*
X44518412Y-75151557D01*
X44707816Y-75055051D01*
X44729789Y-75039086D01*
X44879786Y-74930109D01*
X44879788Y-74930106D01*
X44879792Y-74930104D01*
X45030104Y-74779792D01*
X45030106Y-74779788D01*
X45030109Y-74779786D01*
X45155048Y-74607820D01*
X45155047Y-74607820D01*
X45155051Y-74607816D01*
X45251557Y-74418412D01*
X45317246Y-74216243D01*
X45350500Y-74006287D01*
X45350500Y-73793713D01*
X45317246Y-73583757D01*
X45251557Y-73381588D01*
X45155051Y-73192184D01*
X45155049Y-73192181D01*
X45155048Y-73192179D01*
X45030109Y-73020213D01*
X44879786Y-72869890D01*
X44707820Y-72744951D01*
X44518414Y-72648444D01*
X44518413Y-72648443D01*
X44518412Y-72648443D01*
X44316243Y-72582754D01*
X44316241Y-72582753D01*
X44316240Y-72582753D01*
X44154957Y-72557208D01*
X44106287Y-72549500D01*
X43893713Y-72549500D01*
X43845042Y-72557208D01*
X43683760Y-72582753D01*
X43481585Y-72648444D01*
X43292179Y-72744951D01*
X43120213Y-72869890D01*
X42969890Y-73020213D01*
X42844951Y-73192179D01*
X42748444Y-73381585D01*
X42682753Y-73583760D01*
X42656080Y-73752170D01*
X42649500Y-73793713D01*
X40300500Y-73793713D01*
X40300500Y-64700131D01*
X40619500Y-64700131D01*
X40619500Y-66489856D01*
X40619502Y-66489882D01*
X40622413Y-66514987D01*
X40622415Y-66514991D01*
X40667793Y-66617764D01*
X40667794Y-66617765D01*
X40747235Y-66697206D01*
X40850009Y-66742585D01*
X40875135Y-66745500D01*
X42664864Y-66745499D01*
X42664879Y-66745497D01*
X42664882Y-66745497D01*
X42689987Y-66742586D01*
X42689988Y-66742585D01*
X42689991Y-66742585D01*
X42792765Y-66697206D01*
X42872206Y-66617765D01*
X42917585Y-66514991D01*
X42920500Y-66489865D01*
X42920499Y-65504448D01*
X45699500Y-65504448D01*
X45699500Y-65685551D01*
X45727829Y-65864410D01*
X45783787Y-66036636D01*
X45783788Y-66036639D01*
X45826215Y-66119905D01*
X45861204Y-66188574D01*
X45866006Y-66197997D01*
X45972441Y-66344494D01*
X45972445Y-66344499D01*
X46100500Y-66472554D01*
X46100505Y-66472558D01*
X46179465Y-66529925D01*
X46247006Y-66578996D01*
X46323094Y-66617765D01*
X46408360Y-66661211D01*
X46408363Y-66661212D01*
X46494476Y-66689191D01*
X46580591Y-66717171D01*
X46663429Y-66730291D01*
X46759449Y-66745500D01*
X46759454Y-66745500D01*
X46940551Y-66745500D01*
X47119409Y-66717171D01*
X47134628Y-66712226D01*
X47263284Y-66670423D01*
X47333123Y-66668429D01*
X47389281Y-66700674D01*
X54743787Y-74055180D01*
X54835112Y-74107907D01*
X54936973Y-74135200D01*
X54936975Y-74135200D01*
X78728025Y-74135200D01*
X78728027Y-74135200D01*
X78829888Y-74107907D01*
X78921213Y-74055180D01*
X79182678Y-73793713D01*
X111149500Y-73793713D01*
X111149500Y-74006287D01*
X111157244Y-74055179D01*
X111182753Y-74216239D01*
X111248444Y-74418414D01*
X111344951Y-74607820D01*
X111469890Y-74779786D01*
X111620213Y-74930109D01*
X111792179Y-75055048D01*
X111792181Y-75055049D01*
X111792184Y-75055051D01*
X111981588Y-75151557D01*
X112183757Y-75217246D01*
X112393713Y-75250500D01*
X112393714Y-75250500D01*
X112606286Y-75250500D01*
X112606287Y-75250500D01*
X112816243Y-75217246D01*
X113018412Y-75151557D01*
X113207816Y-75055051D01*
X113229789Y-75039086D01*
X113379786Y-74930109D01*
X113379788Y-74930106D01*
X113379792Y-74930104D01*
X113530104Y-74779792D01*
X113530106Y-74779788D01*
X113530109Y-74779786D01*
X113655048Y-74607820D01*
X113655047Y-74607820D01*
X113655051Y-74607816D01*
X113751557Y-74418412D01*
X113817246Y-74216243D01*
X113850500Y-74006287D01*
X113850500Y-73793713D01*
X113817246Y-73583757D01*
X113751557Y-73381588D01*
X113655051Y-73192184D01*
X113655049Y-73192181D01*
X113655048Y-73192179D01*
X113530109Y-73020213D01*
X113379786Y-72869890D01*
X113207820Y-72744951D01*
X113018414Y-72648444D01*
X113018413Y-72648443D01*
X113018412Y-72648443D01*
X112816243Y-72582754D01*
X112816241Y-72582753D01*
X112816240Y-72582753D01*
X112654957Y-72557208D01*
X112606287Y-72549500D01*
X112393713Y-72549500D01*
X112345042Y-72557208D01*
X112183760Y-72582753D01*
X111981585Y-72648444D01*
X111792179Y-72744951D01*
X111620213Y-72869890D01*
X111469890Y-73020213D01*
X111344951Y-73192179D01*
X111248444Y-73381585D01*
X111182753Y-73583760D01*
X111156080Y-73752170D01*
X111149500Y-73793713D01*
X79182678Y-73793713D01*
X79240720Y-73735671D01*
X79302040Y-73702189D01*
X79366716Y-73705424D01*
X79510591Y-73752171D01*
X79593429Y-73765291D01*
X79689449Y-73780500D01*
X79689454Y-73780500D01*
X79870551Y-73780500D01*
X79957259Y-73766765D01*
X80049409Y-73752171D01*
X80221639Y-73696211D01*
X80382994Y-73613996D01*
X80529501Y-73507553D01*
X80657553Y-73379501D01*
X80763996Y-73232994D01*
X80846211Y-73071639D01*
X80902171Y-72899409D01*
X80916422Y-72809425D01*
X80927527Y-72739321D01*
X80957456Y-72676186D01*
X81016768Y-72639255D01*
X81086630Y-72640253D01*
X81144863Y-72678863D01*
X81172473Y-72739321D01*
X81197829Y-72899410D01*
X81253787Y-73071636D01*
X81253788Y-73071639D01*
X81336006Y-73232997D01*
X81442441Y-73379494D01*
X81442445Y-73379499D01*
X81570500Y-73507554D01*
X81570505Y-73507558D01*
X81675385Y-73583757D01*
X81717006Y-73613996D01*
X81822484Y-73667740D01*
X81878360Y-73696211D01*
X81878363Y-73696212D01*
X81964476Y-73724191D01*
X82050591Y-73752171D01*
X82133429Y-73765291D01*
X82229449Y-73780500D01*
X82229454Y-73780500D01*
X82410551Y-73780500D01*
X82497259Y-73766765D01*
X82589409Y-73752171D01*
X82761639Y-73696211D01*
X82922994Y-73613996D01*
X83069501Y-73507553D01*
X83197553Y-73379501D01*
X83303996Y-73232994D01*
X83386211Y-73071639D01*
X83442171Y-72899409D01*
X83456422Y-72809425D01*
X83467527Y-72739321D01*
X83497456Y-72676186D01*
X83556768Y-72639255D01*
X83626630Y-72640253D01*
X83684863Y-72678863D01*
X83712473Y-72739321D01*
X83737829Y-72899410D01*
X83793787Y-73071636D01*
X83793788Y-73071639D01*
X83876006Y-73232997D01*
X83982441Y-73379494D01*
X83982445Y-73379499D01*
X84110500Y-73507554D01*
X84110505Y-73507558D01*
X84215385Y-73583757D01*
X84257006Y-73613996D01*
X84362484Y-73667740D01*
X84418360Y-73696211D01*
X84418363Y-73696212D01*
X84504476Y-73724191D01*
X84590591Y-73752171D01*
X84673429Y-73765291D01*
X84769449Y-73780500D01*
X84769454Y-73780500D01*
X84950551Y-73780500D01*
X85037259Y-73766765D01*
X85129409Y-73752171D01*
X85301639Y-73696211D01*
X85301639Y-73696210D01*
X85301644Y-73696209D01*
X85336680Y-73678357D01*
X85336681Y-73678356D01*
X85462994Y-73613996D01*
X85609501Y-73507553D01*
X85737553Y-73379501D01*
X85843996Y-73232994D01*
X85926211Y-73071639D01*
X85982171Y-72899409D01*
X85996765Y-72807259D01*
X86010500Y-72720551D01*
X86010500Y-72539448D01*
X85994019Y-72435397D01*
X85982171Y-72360591D01*
X85958291Y-72287095D01*
X87859399Y-72287095D01*
X87886318Y-72422422D01*
X87886321Y-72422432D01*
X87939121Y-72549904D01*
X87939128Y-72549917D01*
X88015785Y-72664641D01*
X88015788Y-72664645D01*
X88113354Y-72762211D01*
X88113358Y-72762214D01*
X88228082Y-72838871D01*
X88228095Y-72838878D01*
X88355567Y-72891678D01*
X88355572Y-72891680D01*
X88355576Y-72891680D01*
X88355577Y-72891681D01*
X88490904Y-72918600D01*
X88490907Y-72918600D01*
X88628895Y-72918600D01*
X88725372Y-72899409D01*
X88764228Y-72891680D01*
X88891711Y-72838875D01*
X89006442Y-72762214D01*
X89104014Y-72664642D01*
X89180675Y-72549911D01*
X89233480Y-72422428D01*
X89260400Y-72287093D01*
X89260400Y-72149107D01*
X89260399Y-72149106D01*
X89260310Y-72148195D01*
X89260400Y-72147720D01*
X89260400Y-72143015D01*
X89261292Y-72143015D01*
X89273329Y-72079548D01*
X89296029Y-72048362D01*
X94354203Y-66990187D01*
X94354208Y-66990184D01*
X94364411Y-66979980D01*
X94364413Y-66979980D01*
X94438980Y-66905413D01*
X94491707Y-66814087D01*
X94512250Y-66737420D01*
X94519001Y-66712226D01*
X94519001Y-66606773D01*
X94519001Y-66599178D01*
X94519000Y-66599160D01*
X94519000Y-65548995D01*
X97090999Y-65548995D01*
X97117918Y-65684322D01*
X97117921Y-65684332D01*
X97170721Y-65811804D01*
X97170728Y-65811817D01*
X97247385Y-65926541D01*
X97247388Y-65926545D01*
X97344954Y-66024111D01*
X97344958Y-66024114D01*
X97459682Y-66100771D01*
X97459695Y-66100778D01*
X97587167Y-66153578D01*
X97587172Y-66153580D01*
X97587176Y-66153580D01*
X97587177Y-66153581D01*
X97722504Y-66180500D01*
X97722507Y-66180500D01*
X97860495Y-66180500D01*
X97970827Y-66158553D01*
X97995828Y-66153580D01*
X98123311Y-66100775D01*
X98238042Y-66024114D01*
X98335614Y-65926542D01*
X98412275Y-65811811D01*
X98465080Y-65684328D01*
X98492000Y-65548993D01*
X98492000Y-65411007D01*
X98491999Y-65411006D01*
X98491910Y-65410095D01*
X98492000Y-65409620D01*
X98492000Y-65404915D01*
X98492892Y-65404915D01*
X98504929Y-65341448D01*
X98527629Y-65310262D01*
X103950397Y-59887495D01*
X107925799Y-59887495D01*
X107952718Y-60022822D01*
X107952721Y-60022832D01*
X108005521Y-60150304D01*
X108005528Y-60150317D01*
X108082185Y-60265041D01*
X108082188Y-60265045D01*
X108179754Y-60362611D01*
X108179758Y-60362614D01*
X108294482Y-60439271D01*
X108294495Y-60439278D01*
X108406943Y-60485855D01*
X108421972Y-60492080D01*
X108421976Y-60492080D01*
X108421977Y-60492081D01*
X108557304Y-60519000D01*
X108557307Y-60519000D01*
X108695287Y-60519000D01*
X108695293Y-60519000D01*
X108695298Y-60518998D01*
X108696200Y-60518910D01*
X108696675Y-60519000D01*
X108701385Y-60519000D01*
X108701385Y-60519893D01*
X108764847Y-60531927D01*
X108796039Y-60554632D01*
X115011481Y-66770074D01*
X115044966Y-66831397D01*
X115047800Y-66857755D01*
X115047800Y-68259653D01*
X115028115Y-68326692D01*
X114975311Y-68372447D01*
X114906153Y-68382391D01*
X114854909Y-68362755D01*
X114726553Y-68276990D01*
X114726540Y-68276983D01*
X114562667Y-68209106D01*
X114562658Y-68209103D01*
X114388694Y-68174500D01*
X114388691Y-68174500D01*
X114211309Y-68174500D01*
X114211306Y-68174500D01*
X114037341Y-68209103D01*
X114037332Y-68209106D01*
X113873459Y-68276983D01*
X113873446Y-68276990D01*
X113725965Y-68375535D01*
X113725961Y-68375538D01*
X113600538Y-68500961D01*
X113600535Y-68500965D01*
X113501990Y-68648446D01*
X113501983Y-68648459D01*
X113434106Y-68812332D01*
X113434103Y-68812341D01*
X113399500Y-68986304D01*
X113399500Y-69713695D01*
X113434103Y-69887658D01*
X113434106Y-69887667D01*
X113501983Y-70051540D01*
X113501990Y-70051553D01*
X113600535Y-70199034D01*
X113600538Y-70199038D01*
X113725961Y-70324461D01*
X113725965Y-70324464D01*
X113873446Y-70423009D01*
X113873459Y-70423016D01*
X113996363Y-70473923D01*
X114037334Y-70490894D01*
X114037336Y-70490894D01*
X114037341Y-70490896D01*
X114211304Y-70525499D01*
X114211307Y-70525500D01*
X114211309Y-70525500D01*
X114388693Y-70525500D01*
X114388694Y-70525499D01*
X114446682Y-70513964D01*
X114562658Y-70490896D01*
X114562661Y-70490894D01*
X114562666Y-70490894D01*
X114717175Y-70426895D01*
X114726540Y-70423016D01*
X114726540Y-70423015D01*
X114726547Y-70423013D01*
X114874035Y-70324464D01*
X114999464Y-70199035D01*
X115098013Y-70051547D01*
X115098014Y-70051544D01*
X115098016Y-70051541D01*
X115160939Y-69899628D01*
X115204779Y-69845224D01*
X115271073Y-69823159D01*
X115338773Y-69840438D01*
X115386383Y-69891575D01*
X115399500Y-69947080D01*
X115399500Y-70018102D01*
X115403516Y-70051541D01*
X115410122Y-70106561D01*
X115410122Y-70106563D01*
X115410123Y-70106564D01*
X115422489Y-70137921D01*
X115465639Y-70247343D01*
X115557077Y-70367922D01*
X115677656Y-70459360D01*
X115677657Y-70459360D01*
X115677658Y-70459361D01*
X115818436Y-70514877D01*
X115906898Y-70525500D01*
X115906903Y-70525500D01*
X116693097Y-70525500D01*
X116693102Y-70525500D01*
X116781564Y-70514877D01*
X116922342Y-70459361D01*
X117042922Y-70367922D01*
X117134361Y-70247342D01*
X117189877Y-70106564D01*
X117200500Y-70018102D01*
X117200500Y-68681898D01*
X117189877Y-68593436D01*
X117134361Y-68452658D01*
X117134360Y-68452657D01*
X117134360Y-68452656D01*
X117042922Y-68332077D01*
X116922343Y-68240639D01*
X116781561Y-68185122D01*
X116735926Y-68179642D01*
X116693102Y-68174500D01*
X115972800Y-68174500D01*
X115905761Y-68154815D01*
X115860006Y-68102011D01*
X115848800Y-68050500D01*
X115848800Y-66587775D01*
X115848800Y-66587773D01*
X115837637Y-66546112D01*
X115829299Y-66514993D01*
X115821508Y-66485913D01*
X115792686Y-66435993D01*
X115768780Y-66394587D01*
X109362432Y-59988239D01*
X109328947Y-59926916D01*
X109327011Y-59893585D01*
X109326800Y-59893585D01*
X109326800Y-59889949D01*
X109326710Y-59888400D01*
X109326798Y-59887499D01*
X109326800Y-59887493D01*
X109326800Y-59749507D01*
X109326800Y-59749504D01*
X109299881Y-59614177D01*
X109299880Y-59614176D01*
X109299880Y-59614172D01*
X109297670Y-59608836D01*
X109247078Y-59486695D01*
X109247071Y-59486682D01*
X109170414Y-59371958D01*
X109170411Y-59371954D01*
X109072845Y-59274388D01*
X109072841Y-59274385D01*
X109053264Y-59261304D01*
X114549500Y-59261304D01*
X114549500Y-59988695D01*
X114584103Y-60162658D01*
X114584106Y-60162667D01*
X114651983Y-60326540D01*
X114651990Y-60326553D01*
X114750535Y-60474034D01*
X114750538Y-60474038D01*
X114875961Y-60599461D01*
X114875965Y-60599464D01*
X115023446Y-60698009D01*
X115023459Y-60698016D01*
X115131681Y-60742842D01*
X115187334Y-60765894D01*
X115187336Y-60765894D01*
X115187341Y-60765896D01*
X115361304Y-60800499D01*
X115361307Y-60800500D01*
X115361309Y-60800500D01*
X115538693Y-60800500D01*
X115538694Y-60800499D01*
X115596682Y-60788964D01*
X115712658Y-60765896D01*
X115712661Y-60765894D01*
X115712666Y-60765894D01*
X115876547Y-60698013D01*
X116024035Y-60599464D01*
X116149464Y-60474035D01*
X116248013Y-60326547D01*
X116315894Y-60162666D01*
X116318351Y-60150317D01*
X116350499Y-59988695D01*
X116350500Y-59988693D01*
X116350500Y-59261306D01*
X116350499Y-59261304D01*
X116315896Y-59087341D01*
X116315893Y-59087332D01*
X116248016Y-58923459D01*
X116248009Y-58923446D01*
X116149464Y-58775965D01*
X116149461Y-58775961D01*
X116024038Y-58650538D01*
X116024034Y-58650535D01*
X115876553Y-58551990D01*
X115876540Y-58551983D01*
X115712667Y-58484106D01*
X115712658Y-58484103D01*
X115538694Y-58449500D01*
X115538691Y-58449500D01*
X115361309Y-58449500D01*
X115361306Y-58449500D01*
X115187341Y-58484103D01*
X115187332Y-58484106D01*
X115023459Y-58551983D01*
X115023446Y-58551990D01*
X114875965Y-58650535D01*
X114875961Y-58650538D01*
X114750538Y-58775961D01*
X114750535Y-58775965D01*
X114651990Y-58923446D01*
X114651983Y-58923459D01*
X114584106Y-59087332D01*
X114584103Y-59087341D01*
X114549500Y-59261304D01*
X109053264Y-59261304D01*
X108958117Y-59197728D01*
X108958104Y-59197721D01*
X108830632Y-59144921D01*
X108830622Y-59144918D01*
X108695295Y-59118000D01*
X108695293Y-59118000D01*
X108557307Y-59118000D01*
X108557305Y-59118000D01*
X108421977Y-59144918D01*
X108421967Y-59144921D01*
X108294495Y-59197721D01*
X108294482Y-59197728D01*
X108179758Y-59274385D01*
X108179754Y-59274388D01*
X108082188Y-59371954D01*
X108082185Y-59371958D01*
X108005528Y-59486682D01*
X108005521Y-59486695D01*
X107952721Y-59614167D01*
X107952718Y-59614177D01*
X107925800Y-59749504D01*
X107925800Y-59749507D01*
X107925800Y-59887493D01*
X107925800Y-59887495D01*
X107925799Y-59887495D01*
X103950397Y-59887495D01*
X109623659Y-54214234D01*
X116728500Y-54214234D01*
X116728500Y-54365766D01*
X116745518Y-54429279D01*
X116767719Y-54512136D01*
X116781686Y-54536327D01*
X116843485Y-54643365D01*
X116950635Y-54750515D01*
X117058408Y-54812738D01*
X117078965Y-54824607D01*
X117081865Y-54826281D01*
X117228234Y-54865500D01*
X117228236Y-54865500D01*
X117379764Y-54865500D01*
X117379766Y-54865500D01*
X117526135Y-54826281D01*
X117657365Y-54750515D01*
X117764515Y-54643365D01*
X117840281Y-54512135D01*
X117879500Y-54365766D01*
X117879500Y-54214234D01*
X117840281Y-54067865D01*
X117764515Y-53936635D01*
X117657365Y-53829485D01*
X117591750Y-53791602D01*
X117526136Y-53753719D01*
X117452950Y-53734109D01*
X117379766Y-53714500D01*
X117228234Y-53714500D01*
X117081863Y-53753719D01*
X116950635Y-53829485D01*
X116950632Y-53829487D01*
X116843487Y-53936632D01*
X116843485Y-53936635D01*
X116767719Y-54067863D01*
X116733264Y-54196454D01*
X116728500Y-54214234D01*
X109623659Y-54214234D01*
X110751074Y-53086819D01*
X110812397Y-53053334D01*
X110838755Y-53050500D01*
X113213453Y-53050500D01*
X113280492Y-53070185D01*
X113305427Y-53092385D01*
X113305578Y-53092235D01*
X113308164Y-53094821D01*
X113309313Y-53095844D01*
X113309889Y-53096546D01*
X113407454Y-53194111D01*
X113407458Y-53194114D01*
X113522182Y-53270771D01*
X113522195Y-53270778D01*
X113649667Y-53323578D01*
X113649672Y-53323580D01*
X113649676Y-53323580D01*
X113649677Y-53323581D01*
X113785004Y-53350500D01*
X113785007Y-53350500D01*
X113922995Y-53350500D01*
X114014041Y-53332389D01*
X114058328Y-53323580D01*
X114156924Y-53282740D01*
X114185804Y-53270778D01*
X114185804Y-53270777D01*
X114185811Y-53270775D01*
X114300542Y-53194114D01*
X114398114Y-53096542D01*
X114474775Y-52981811D01*
X114527580Y-52854328D01*
X114554500Y-52718993D01*
X114554500Y-52581007D01*
X114554500Y-52581004D01*
X114527581Y-52445677D01*
X114527580Y-52445676D01*
X114527580Y-52445672D01*
X114517149Y-52420489D01*
X114474778Y-52318195D01*
X114474771Y-52318182D01*
X114398114Y-52203458D01*
X114398111Y-52203454D01*
X114300545Y-52105888D01*
X114300541Y-52105885D01*
X114185817Y-52029228D01*
X114185804Y-52029221D01*
X114058332Y-51976421D01*
X114058322Y-51976418D01*
X113922995Y-51949500D01*
X113922993Y-51949500D01*
X113785007Y-51949500D01*
X113785005Y-51949500D01*
X113649677Y-51976418D01*
X113649667Y-51976421D01*
X113522195Y-52029221D01*
X113522182Y-52029228D01*
X113407458Y-52105885D01*
X113407454Y-52105888D01*
X113309889Y-52203453D01*
X113309313Y-52204156D01*
X113308917Y-52204425D01*
X113305578Y-52207765D01*
X113304944Y-52207131D01*
X113251571Y-52243496D01*
X113213453Y-52249500D01*
X110568773Y-52249500D01*
X110466910Y-52276793D01*
X110375587Y-52329520D01*
X110375584Y-52329522D01*
X97961238Y-64743867D01*
X97899915Y-64777352D01*
X97866585Y-64779289D01*
X97866585Y-64779500D01*
X97862963Y-64779500D01*
X97861415Y-64779590D01*
X97860500Y-64779500D01*
X97860493Y-64779500D01*
X97722507Y-64779500D01*
X97722505Y-64779500D01*
X97587177Y-64806418D01*
X97587167Y-64806421D01*
X97459695Y-64859221D01*
X97459682Y-64859228D01*
X97344958Y-64935885D01*
X97344954Y-64935888D01*
X97247388Y-65033454D01*
X97247385Y-65033458D01*
X97170728Y-65148182D01*
X97170721Y-65148195D01*
X97117921Y-65275667D01*
X97117918Y-65275677D01*
X97091000Y-65411004D01*
X97091000Y-65411007D01*
X97091000Y-65548993D01*
X97091000Y-65548995D01*
X97090999Y-65548995D01*
X94519000Y-65548995D01*
X94519000Y-64071347D01*
X94538685Y-64004308D01*
X94560885Y-63979372D01*
X94560735Y-63979222D01*
X94563321Y-63976635D01*
X94564344Y-63975487D01*
X94565037Y-63974917D01*
X94565042Y-63974914D01*
X94662614Y-63877342D01*
X94739275Y-63762611D01*
X94792080Y-63635128D01*
X94806523Y-63562520D01*
X94819000Y-63499795D01*
X94819000Y-63361804D01*
X94792081Y-63226477D01*
X94792080Y-63226476D01*
X94792080Y-63226472D01*
X94770186Y-63173614D01*
X94739278Y-63098995D01*
X94739271Y-63098982D01*
X94662614Y-62984258D01*
X94662611Y-62984254D01*
X94565045Y-62886688D01*
X94565041Y-62886685D01*
X94450317Y-62810028D01*
X94450304Y-62810021D01*
X94322832Y-62757221D01*
X94322822Y-62757218D01*
X94187495Y-62730300D01*
X94187493Y-62730300D01*
X94049507Y-62730300D01*
X94049505Y-62730300D01*
X93914177Y-62757218D01*
X93914167Y-62757221D01*
X93786695Y-62810021D01*
X93786682Y-62810028D01*
X93671958Y-62886685D01*
X93671954Y-62886688D01*
X93574388Y-62984254D01*
X93574385Y-62984258D01*
X93497728Y-63098982D01*
X93497721Y-63098995D01*
X93444921Y-63226467D01*
X93444918Y-63226477D01*
X93418000Y-63361804D01*
X93418000Y-63361807D01*
X93418000Y-63499793D01*
X93418000Y-63499795D01*
X93417999Y-63499795D01*
X93444918Y-63635122D01*
X93444921Y-63635132D01*
X93497721Y-63762604D01*
X93497728Y-63762617D01*
X93574385Y-63877341D01*
X93574388Y-63877345D01*
X93671953Y-63974910D01*
X93672656Y-63975487D01*
X93672925Y-63975882D01*
X93676265Y-63979222D01*
X93675631Y-63979855D01*
X93711996Y-64033229D01*
X93718000Y-64071347D01*
X93718000Y-66442244D01*
X93698315Y-66509283D01*
X93681681Y-66529925D01*
X88729638Y-71481967D01*
X88668315Y-71515452D01*
X88634985Y-71517389D01*
X88634985Y-71517600D01*
X88631363Y-71517600D01*
X88629815Y-71517690D01*
X88628900Y-71517600D01*
X88628893Y-71517600D01*
X88490907Y-71517600D01*
X88490905Y-71517600D01*
X88355577Y-71544518D01*
X88355567Y-71544521D01*
X88228095Y-71597321D01*
X88228082Y-71597328D01*
X88113358Y-71673985D01*
X88113354Y-71673988D01*
X88015788Y-71771554D01*
X88015785Y-71771558D01*
X87939128Y-71886282D01*
X87939121Y-71886295D01*
X87886321Y-72013767D01*
X87886318Y-72013777D01*
X87859400Y-72149104D01*
X87859400Y-72149107D01*
X87859400Y-72287093D01*
X87859400Y-72287095D01*
X87859399Y-72287095D01*
X85958291Y-72287095D01*
X85926211Y-72188361D01*
X85926211Y-72188360D01*
X85876459Y-72090718D01*
X85843996Y-72027006D01*
X85830396Y-72008287D01*
X85737558Y-71880505D01*
X85737554Y-71880500D01*
X85609499Y-71752445D01*
X85609494Y-71752441D01*
X85462997Y-71646006D01*
X85462996Y-71646005D01*
X85462994Y-71646004D01*
X85328205Y-71577325D01*
X85277409Y-71529350D01*
X85260500Y-71466840D01*
X85260500Y-69246494D01*
X85280185Y-69179455D01*
X85315608Y-69143392D01*
X85374842Y-69103814D01*
X85472414Y-69006242D01*
X85549075Y-68891511D01*
X85601880Y-68764028D01*
X85618217Y-68681898D01*
X85628800Y-68628695D01*
X85628800Y-68490704D01*
X85601881Y-68355377D01*
X85601880Y-68355376D01*
X85601880Y-68355372D01*
X85601878Y-68355367D01*
X85549078Y-68227895D01*
X85549071Y-68227882D01*
X85472414Y-68113158D01*
X85472411Y-68113154D01*
X85374845Y-68015588D01*
X85374841Y-68015585D01*
X85260117Y-67938928D01*
X85260104Y-67938921D01*
X85132632Y-67886121D01*
X85132622Y-67886118D01*
X84997295Y-67859200D01*
X84997293Y-67859200D01*
X84859307Y-67859200D01*
X84859304Y-67859200D01*
X84813032Y-67868404D01*
X84743441Y-67862177D01*
X84701160Y-67834468D01*
X80590919Y-63724226D01*
X80557434Y-63662903D01*
X80554600Y-63636545D01*
X80554600Y-58603355D01*
X80574285Y-58536316D01*
X80590919Y-58515674D01*
X81191019Y-57915574D01*
X81252342Y-57882089D01*
X81322034Y-57887073D01*
X81377967Y-57928945D01*
X81402384Y-57994409D01*
X81402700Y-58003255D01*
X81402700Y-60556848D01*
X81383015Y-60623887D01*
X81330211Y-60669642D01*
X81326153Y-60671409D01*
X81212892Y-60718323D01*
X81212882Y-60718328D01*
X81098158Y-60794985D01*
X81098154Y-60794988D01*
X81000588Y-60892554D01*
X81000585Y-60892558D01*
X80923928Y-61007282D01*
X80923921Y-61007295D01*
X80871121Y-61134767D01*
X80871118Y-61134777D01*
X80844200Y-61270104D01*
X80844200Y-61270107D01*
X80844200Y-61408093D01*
X80844200Y-61408095D01*
X80844199Y-61408095D01*
X80871118Y-61543422D01*
X80871121Y-61543432D01*
X80923921Y-61670904D01*
X80923928Y-61670917D01*
X81000585Y-61785641D01*
X81000588Y-61785645D01*
X81098154Y-61883211D01*
X81098158Y-61883214D01*
X81212882Y-61959871D01*
X81212895Y-61959878D01*
X81311319Y-62000646D01*
X81340372Y-62012680D01*
X81340376Y-62012680D01*
X81340377Y-62012681D01*
X81475704Y-62039600D01*
X81475707Y-62039600D01*
X81613695Y-62039600D01*
X81704741Y-62021489D01*
X81749028Y-62012680D01*
X81876511Y-61959875D01*
X81887453Y-61952563D01*
X81954128Y-61931683D01*
X81988435Y-61935887D01*
X82058273Y-61954600D01*
X82163727Y-61954600D01*
X84941153Y-61954600D01*
X85008192Y-61974285D01*
X85033127Y-61996485D01*
X85033278Y-61996335D01*
X85035864Y-61998921D01*
X85037013Y-61999944D01*
X85037589Y-62000646D01*
X85135154Y-62098211D01*
X85135158Y-62098214D01*
X85249882Y-62174871D01*
X85249895Y-62174878D01*
X85377367Y-62227678D01*
X85377372Y-62227680D01*
X85377376Y-62227680D01*
X85377377Y-62227681D01*
X85512704Y-62254600D01*
X85512707Y-62254600D01*
X85650695Y-62254600D01*
X85754220Y-62234007D01*
X85786028Y-62227680D01*
X85893997Y-62182958D01*
X85913504Y-62174878D01*
X85913504Y-62174877D01*
X85913511Y-62174875D01*
X86028242Y-62098214D01*
X86125814Y-62000642D01*
X86202475Y-61885911D01*
X86255280Y-61758428D01*
X86272687Y-61670917D01*
X86282200Y-61623095D01*
X86282200Y-61485104D01*
X86255281Y-61349777D01*
X86255280Y-61349776D01*
X86255280Y-61349772D01*
X86224224Y-61274795D01*
X98764999Y-61274795D01*
X98791918Y-61410122D01*
X98791921Y-61410132D01*
X98844721Y-61537604D01*
X98844728Y-61537617D01*
X98921385Y-61652341D01*
X98921388Y-61652345D01*
X99018954Y-61749911D01*
X99018958Y-61749914D01*
X99133682Y-61826571D01*
X99133695Y-61826578D01*
X99248268Y-61874035D01*
X99261172Y-61879380D01*
X99261176Y-61879380D01*
X99261177Y-61879381D01*
X99396504Y-61906300D01*
X99396507Y-61906300D01*
X99534495Y-61906300D01*
X99625541Y-61888189D01*
X99669828Y-61879380D01*
X99797311Y-61826575D01*
X99912042Y-61749914D01*
X100009614Y-61652342D01*
X100086275Y-61537611D01*
X100139080Y-61410128D01*
X100166000Y-61274793D01*
X100166000Y-61136807D01*
X100165999Y-61136806D01*
X100165910Y-61135895D01*
X100166000Y-61135420D01*
X100166000Y-61130715D01*
X100166892Y-61130715D01*
X100178929Y-61067248D01*
X100201629Y-61036062D01*
X111150874Y-50086819D01*
X111212197Y-50053334D01*
X111238555Y-50050500D01*
X113485153Y-50050500D01*
X113552192Y-50070185D01*
X113577127Y-50092385D01*
X113577278Y-50092235D01*
X113579864Y-50094821D01*
X113581013Y-50095844D01*
X113581589Y-50096546D01*
X113679154Y-50194111D01*
X113679158Y-50194114D01*
X113793882Y-50270771D01*
X113793895Y-50270778D01*
X113921367Y-50323578D01*
X113921372Y-50323580D01*
X113921376Y-50323580D01*
X113921377Y-50323581D01*
X114056704Y-50350500D01*
X114056707Y-50350500D01*
X114194695Y-50350500D01*
X114285741Y-50332389D01*
X114330028Y-50323580D01*
X114457511Y-50270775D01*
X114572242Y-50194114D01*
X114669814Y-50096542D01*
X114746475Y-49981811D01*
X114799280Y-49854328D01*
X114822354Y-49738330D01*
X114826200Y-49718995D01*
X114826200Y-49581004D01*
X114799281Y-49445677D01*
X114799280Y-49445676D01*
X114799280Y-49445672D01*
X114791770Y-49427541D01*
X114746478Y-49318195D01*
X114746471Y-49318182D01*
X114669814Y-49203458D01*
X114669811Y-49203454D01*
X114572245Y-49105888D01*
X114572241Y-49105885D01*
X114457517Y-49029228D01*
X114457504Y-49029221D01*
X114330032Y-48976421D01*
X114330022Y-48976418D01*
X114194695Y-48949500D01*
X114194693Y-48949500D01*
X114056707Y-48949500D01*
X114056705Y-48949500D01*
X113921377Y-48976418D01*
X113921367Y-48976421D01*
X113793895Y-49029221D01*
X113793882Y-49029228D01*
X113679158Y-49105885D01*
X113679154Y-49105888D01*
X113581589Y-49203453D01*
X113581013Y-49204156D01*
X113580617Y-49204425D01*
X113577278Y-49207765D01*
X113576644Y-49207131D01*
X113523271Y-49243496D01*
X113485153Y-49249500D01*
X110968573Y-49249500D01*
X110866710Y-49276793D01*
X110775387Y-49329520D01*
X110775384Y-49329522D01*
X99635238Y-60469667D01*
X99573915Y-60503152D01*
X99540585Y-60505089D01*
X99540585Y-60505300D01*
X99536963Y-60505300D01*
X99535415Y-60505390D01*
X99534500Y-60505300D01*
X99534493Y-60505300D01*
X99396507Y-60505300D01*
X99396505Y-60505300D01*
X99261177Y-60532218D01*
X99261167Y-60532221D01*
X99133695Y-60585021D01*
X99133682Y-60585028D01*
X99018958Y-60661685D01*
X99018954Y-60661688D01*
X98921388Y-60759254D01*
X98921385Y-60759258D01*
X98844728Y-60873982D01*
X98844721Y-60873995D01*
X98791921Y-61001467D01*
X98791918Y-61001477D01*
X98765000Y-61136804D01*
X98765000Y-61136807D01*
X98765000Y-61274793D01*
X98765000Y-61274795D01*
X98764999Y-61274795D01*
X86224224Y-61274795D01*
X86222281Y-61270104D01*
X86202478Y-61222295D01*
X86202474Y-61222288D01*
X86187319Y-61199607D01*
X86187318Y-61199605D01*
X86125814Y-61107558D01*
X86125811Y-61107554D01*
X86028245Y-61009988D01*
X86028241Y-61009985D01*
X85913517Y-60933328D01*
X85913504Y-60933321D01*
X85853603Y-60908510D01*
X85799199Y-60864669D01*
X85777134Y-60798375D01*
X85779437Y-60769763D01*
X85785200Y-60740793D01*
X85785200Y-60602807D01*
X85785200Y-60602804D01*
X85758281Y-60467477D01*
X85758280Y-60467476D01*
X85758280Y-60467472D01*
X85746602Y-60439278D01*
X85705478Y-60339995D01*
X85705471Y-60339982D01*
X85628814Y-60225258D01*
X85628811Y-60225254D01*
X85531246Y-60127689D01*
X85530533Y-60127104D01*
X85530259Y-60126702D01*
X85526935Y-60123378D01*
X85527565Y-60122747D01*
X85491200Y-60069357D01*
X85485200Y-60031252D01*
X85485200Y-57455423D01*
X85504885Y-57388384D01*
X85557689Y-57342629D01*
X85626847Y-57332685D01*
X85690403Y-57361710D01*
X85718562Y-57396977D01*
X85720826Y-57401214D01*
X85797485Y-57515941D01*
X85797488Y-57515945D01*
X85895054Y-57613511D01*
X85895058Y-57613514D01*
X86009782Y-57690171D01*
X86009795Y-57690178D01*
X86122719Y-57736952D01*
X86137272Y-57742980D01*
X86137276Y-57742980D01*
X86137277Y-57742981D01*
X86272604Y-57769900D01*
X86272607Y-57769900D01*
X86410595Y-57769900D01*
X86501641Y-57751789D01*
X86545928Y-57742980D01*
X86673411Y-57690175D01*
X86788142Y-57613514D01*
X86885714Y-57515942D01*
X86962375Y-57401211D01*
X87015180Y-57273728D01*
X87042100Y-57138393D01*
X87042100Y-57000407D01*
X87042099Y-57000406D01*
X87042010Y-56999495D01*
X87042100Y-56999020D01*
X87042100Y-56994315D01*
X87042992Y-56994315D01*
X87055029Y-56930848D01*
X87077729Y-56899662D01*
X89247880Y-54729513D01*
X89257995Y-54711993D01*
X89300607Y-54638187D01*
X89327900Y-54536327D01*
X89327900Y-52668600D01*
X89347585Y-52601561D01*
X89400389Y-52555806D01*
X89451900Y-52544600D01*
X92642400Y-52544600D01*
X92709439Y-52564285D01*
X92755194Y-52617089D01*
X92766400Y-52668600D01*
X92766400Y-57736952D01*
X92746715Y-57803991D01*
X92724516Y-57828929D01*
X92724665Y-57829078D01*
X92722104Y-57831638D01*
X92721067Y-57832804D01*
X92720353Y-57833389D01*
X92622788Y-57930954D01*
X92622785Y-57930958D01*
X92546128Y-58045682D01*
X92546121Y-58045695D01*
X92493321Y-58173167D01*
X92493318Y-58173177D01*
X92466400Y-58308504D01*
X92466400Y-58308507D01*
X92466400Y-58446493D01*
X92466400Y-58446495D01*
X92466399Y-58446495D01*
X92493318Y-58581822D01*
X92493321Y-58581832D01*
X92546121Y-58709304D01*
X92546128Y-58709317D01*
X92622785Y-58824041D01*
X92622788Y-58824045D01*
X92720354Y-58921611D01*
X92720358Y-58921614D01*
X92835082Y-58998271D01*
X92835095Y-58998278D01*
X92901511Y-59025788D01*
X92962572Y-59051080D01*
X92962576Y-59051080D01*
X92962577Y-59051081D01*
X93097904Y-59078000D01*
X93097907Y-59078000D01*
X93235895Y-59078000D01*
X93326941Y-59059889D01*
X93371228Y-59051080D01*
X93469824Y-59010240D01*
X93498704Y-58998278D01*
X93498704Y-58998277D01*
X93498711Y-58998275D01*
X93613442Y-58921614D01*
X93711014Y-58824042D01*
X93787675Y-58709311D01*
X93840480Y-58581828D01*
X93859919Y-58484103D01*
X93867400Y-58446495D01*
X93867400Y-58308504D01*
X93840481Y-58173177D01*
X93840480Y-58173176D01*
X93840480Y-58173172D01*
X93836668Y-58163968D01*
X93787678Y-58045695D01*
X93787671Y-58045682D01*
X93711014Y-57930958D01*
X93711011Y-57930954D01*
X93613446Y-57833389D01*
X93612733Y-57832804D01*
X93612459Y-57832402D01*
X93609135Y-57829078D01*
X93609765Y-57828447D01*
X93573400Y-57775057D01*
X93567400Y-57736952D01*
X93567400Y-52668600D01*
X93587085Y-52601561D01*
X93639889Y-52555806D01*
X93691400Y-52544600D01*
X95657725Y-52544600D01*
X95657727Y-52544600D01*
X95759588Y-52517307D01*
X95850913Y-52464580D01*
X99881259Y-48434234D01*
X116728500Y-48434234D01*
X116728500Y-48585765D01*
X116767719Y-48732136D01*
X116805602Y-48797750D01*
X116843485Y-48863365D01*
X116950635Y-48970515D01*
X117081865Y-49046281D01*
X117228234Y-49085500D01*
X117228236Y-49085500D01*
X117379764Y-49085500D01*
X117379766Y-49085500D01*
X117526135Y-49046281D01*
X117657365Y-48970515D01*
X117764515Y-48863365D01*
X117840281Y-48732135D01*
X117879500Y-48585766D01*
X117879500Y-48434234D01*
X117840281Y-48287865D01*
X117764515Y-48156635D01*
X117657365Y-48049485D01*
X117553117Y-47989297D01*
X117526136Y-47973719D01*
X117452950Y-47954109D01*
X117379766Y-47934500D01*
X117228234Y-47934500D01*
X117081863Y-47973719D01*
X116950635Y-48049485D01*
X116950632Y-48049487D01*
X116843487Y-48156632D01*
X116843485Y-48156635D01*
X116767719Y-48287863D01*
X116728500Y-48434234D01*
X99881259Y-48434234D01*
X100820480Y-47495013D01*
X100860726Y-47425305D01*
X100873207Y-47403687D01*
X100900500Y-47301827D01*
X100900500Y-45031238D01*
X100920185Y-44964199D01*
X100972989Y-44918444D01*
X100979010Y-44915884D01*
X101042380Y-44890894D01*
X101066136Y-44881525D01*
X101135721Y-44875244D01*
X101197658Y-44907581D01*
X101199306Y-44909199D01*
X101412719Y-45122612D01*
X101412720Y-45122613D01*
X101487287Y-45197180D01*
X101578613Y-45249907D01*
X101680473Y-45277200D01*
X101680475Y-45277200D01*
X103319525Y-45277200D01*
X103319527Y-45277200D01*
X103421388Y-45249907D01*
X103512713Y-45197180D01*
X103889653Y-44820238D01*
X103950974Y-44786755D01*
X104020665Y-44791739D01*
X104046222Y-44804818D01*
X104073453Y-44823013D01*
X104237334Y-44890894D01*
X104237336Y-44890894D01*
X104237341Y-44890896D01*
X104411304Y-44925499D01*
X104411307Y-44925500D01*
X104411309Y-44925500D01*
X104588693Y-44925500D01*
X104588694Y-44925499D01*
X104646682Y-44913964D01*
X104762658Y-44890896D01*
X104762661Y-44890894D01*
X104762666Y-44890894D01*
X104926547Y-44823013D01*
X105074035Y-44724464D01*
X105199464Y-44599035D01*
X105298013Y-44451547D01*
X105365894Y-44287666D01*
X105400500Y-44113691D01*
X105400500Y-43386309D01*
X105400500Y-43386306D01*
X105400499Y-43386304D01*
X105365896Y-43212341D01*
X105365893Y-43212332D01*
X105364022Y-43207816D01*
X105315123Y-43089760D01*
X105298016Y-43048459D01*
X105298009Y-43048446D01*
X105199464Y-42900965D01*
X105199461Y-42900961D01*
X105074038Y-42775538D01*
X105074034Y-42775535D01*
X104926553Y-42676990D01*
X104926540Y-42676983D01*
X104762667Y-42609106D01*
X104762658Y-42609103D01*
X104588694Y-42574500D01*
X104588691Y-42574500D01*
X104411309Y-42574500D01*
X104411306Y-42574500D01*
X104237341Y-42609103D01*
X104237332Y-42609106D01*
X104073459Y-42676983D01*
X104073446Y-42676990D01*
X103925965Y-42775535D01*
X103925961Y-42775538D01*
X103800538Y-42900961D01*
X103800535Y-42900965D01*
X103701990Y-43048446D01*
X103701983Y-43048459D01*
X103634106Y-43212332D01*
X103634103Y-43212341D01*
X103622498Y-43270689D01*
X103590113Y-43332600D01*
X103532975Y-43366273D01*
X103493711Y-43376793D01*
X103493710Y-43376794D01*
X103402385Y-43429521D01*
X103327821Y-43504085D01*
X103275094Y-43595410D01*
X103275093Y-43595413D01*
X103247800Y-43697273D01*
X103247800Y-44277945D01*
X103228115Y-44344984D01*
X103211481Y-44365626D01*
X103137226Y-44439881D01*
X103075903Y-44473366D01*
X103049545Y-44476200D01*
X101950455Y-44476200D01*
X101883416Y-44456515D01*
X101862774Y-44439881D01*
X101788519Y-44365626D01*
X101755034Y-44304303D01*
X101752200Y-44277945D01*
X101752200Y-43697275D01*
X101752200Y-43697273D01*
X101724907Y-43595413D01*
X101672180Y-43504087D01*
X101597613Y-43429520D01*
X101522761Y-43386304D01*
X101506289Y-43376794D01*
X101506288Y-43376793D01*
X101506287Y-43376793D01*
X101492403Y-43373072D01*
X101432745Y-43336708D01*
X101402217Y-43273861D01*
X101400500Y-43253299D01*
X101400500Y-43081903D01*
X101400500Y-43081898D01*
X101389877Y-42993436D01*
X101334361Y-42852658D01*
X101334360Y-42852657D01*
X101334360Y-42852656D01*
X101242922Y-42732077D01*
X101122343Y-42640639D01*
X100981561Y-42585122D01*
X100935926Y-42579642D01*
X100893102Y-42574500D01*
X100106898Y-42574500D01*
X100067853Y-42579188D01*
X100018438Y-42585122D01*
X99877656Y-42640639D01*
X99757077Y-42732077D01*
X99665639Y-42852656D01*
X99610122Y-42993438D01*
X99604188Y-43042853D01*
X99599500Y-43081898D01*
X99599500Y-44418102D01*
X99603516Y-44451547D01*
X99610122Y-44506561D01*
X99665639Y-44647343D01*
X99757077Y-44767922D01*
X99877656Y-44859360D01*
X99877657Y-44859360D01*
X99877658Y-44859361D01*
X100018436Y-44914877D01*
X100018440Y-44914877D01*
X100020990Y-44915883D01*
X100076134Y-44958789D01*
X100099327Y-45024697D01*
X100099500Y-45031238D01*
X100099500Y-47031844D01*
X100079815Y-47098883D01*
X100063181Y-47119525D01*
X96100945Y-51081760D01*
X96039622Y-51115245D01*
X95969930Y-51110261D01*
X95913997Y-51068389D01*
X95910173Y-51062986D01*
X95862914Y-50992258D01*
X95862912Y-50992255D01*
X95765345Y-50894688D01*
X95765341Y-50894685D01*
X95650617Y-50818028D01*
X95650604Y-50818021D01*
X95523132Y-50765221D01*
X95523122Y-50765218D01*
X95387795Y-50738300D01*
X95387793Y-50738300D01*
X95249807Y-50738300D01*
X95249802Y-50738300D01*
X95248877Y-50738391D01*
X95248398Y-50738300D01*
X95243715Y-50738300D01*
X95243715Y-50737411D01*
X95180233Y-50725362D01*
X95149059Y-50702667D01*
X91780504Y-47334112D01*
X88375613Y-43929220D01*
X88329950Y-43902856D01*
X88284289Y-43876493D01*
X88233357Y-43862846D01*
X88182427Y-43849200D01*
X88182426Y-43849200D01*
X73942339Y-43849200D01*
X73942323Y-43849199D01*
X73934727Y-43849199D01*
X73829274Y-43849199D01*
X73727413Y-43876493D01*
X73644412Y-43924414D01*
X73636084Y-43929222D01*
X60653322Y-56911984D01*
X60653320Y-56911987D01*
X60600593Y-57003311D01*
X60600593Y-57003312D01*
X60594135Y-57027413D01*
X60594135Y-57027414D01*
X60594134Y-57027413D01*
X60573300Y-57105171D01*
X60573300Y-62973445D01*
X60553615Y-63040484D01*
X60536981Y-63061126D01*
X58309672Y-65288434D01*
X58248349Y-65321919D01*
X58178657Y-65316935D01*
X58122724Y-65275063D01*
X58104060Y-65239071D01*
X58076212Y-65153363D01*
X58076211Y-65153360D01*
X58047740Y-65097484D01*
X57993996Y-64992006D01*
X57897528Y-64859228D01*
X57887558Y-64845505D01*
X57887554Y-64845500D01*
X57759499Y-64717445D01*
X57759494Y-64717441D01*
X57612997Y-64611006D01*
X57612996Y-64611005D01*
X57612994Y-64611004D01*
X57478205Y-64542325D01*
X57427409Y-64494350D01*
X57410500Y-64431840D01*
X57410500Y-62413795D01*
X58746699Y-62413795D01*
X58773618Y-62549122D01*
X58773621Y-62549132D01*
X58826421Y-62676604D01*
X58826428Y-62676617D01*
X58903085Y-62791341D01*
X58903088Y-62791345D01*
X59000654Y-62888911D01*
X59000658Y-62888914D01*
X59115382Y-62965571D01*
X59115395Y-62965578D01*
X59242867Y-63018378D01*
X59242872Y-63018380D01*
X59242876Y-63018380D01*
X59242877Y-63018381D01*
X59378204Y-63045300D01*
X59378207Y-63045300D01*
X59516195Y-63045300D01*
X59607241Y-63027189D01*
X59651528Y-63018380D01*
X59779011Y-62965575D01*
X59893742Y-62888914D01*
X59991314Y-62791342D01*
X60067975Y-62676611D01*
X60120780Y-62549128D01*
X60145438Y-62425167D01*
X60147700Y-62413795D01*
X60147700Y-62275804D01*
X60120781Y-62140477D01*
X60120780Y-62140476D01*
X60120780Y-62140472D01*
X60103193Y-62098013D01*
X60067978Y-62012995D01*
X60067971Y-62012982D01*
X59991314Y-61898258D01*
X59991311Y-61898254D01*
X59893746Y-61800689D01*
X59893033Y-61800104D01*
X59892759Y-61799702D01*
X59889435Y-61796378D01*
X59890065Y-61795747D01*
X59853700Y-61742357D01*
X59847700Y-61704252D01*
X59847700Y-51816354D01*
X59867385Y-51749315D01*
X59884014Y-51728678D01*
X69096561Y-42516130D01*
X69157882Y-42482647D01*
X69191215Y-42480710D01*
X69191215Y-42480500D01*
X69194846Y-42480500D01*
X69196395Y-42480410D01*
X69197305Y-42480499D01*
X69197307Y-42480500D01*
X69197309Y-42480500D01*
X69335295Y-42480500D01*
X69426341Y-42462389D01*
X69470628Y-42453580D01*
X69598111Y-42400775D01*
X69608680Y-42393713D01*
X118003500Y-42393713D01*
X118003500Y-42606287D01*
X118008941Y-42640639D01*
X118030306Y-42775536D01*
X118036754Y-42816243D01*
X118094328Y-42993438D01*
X118102444Y-43018414D01*
X118198951Y-43207820D01*
X118323890Y-43379786D01*
X118474213Y-43530109D01*
X118646179Y-43655048D01*
X118646181Y-43655049D01*
X118646184Y-43655051D01*
X118835588Y-43751557D01*
X119037757Y-43817246D01*
X119247713Y-43850500D01*
X119247714Y-43850500D01*
X119460286Y-43850500D01*
X119460287Y-43850500D01*
X119670243Y-43817246D01*
X119872412Y-43751557D01*
X120061816Y-43655051D01*
X120083789Y-43639086D01*
X120233786Y-43530109D01*
X120233788Y-43530106D01*
X120233792Y-43530104D01*
X120384104Y-43379792D01*
X120384106Y-43379788D01*
X120384109Y-43379786D01*
X120505763Y-43212341D01*
X120509051Y-43207816D01*
X120605557Y-43018412D01*
X120671246Y-42816243D01*
X120704500Y-42606287D01*
X120704500Y-42393713D01*
X120671246Y-42183757D01*
X120605557Y-41981588D01*
X120509051Y-41792184D01*
X120509049Y-41792181D01*
X120509048Y-41792179D01*
X120384109Y-41620213D01*
X120233786Y-41469890D01*
X120061820Y-41344951D01*
X119872414Y-41248444D01*
X119872413Y-41248443D01*
X119872412Y-41248443D01*
X119670243Y-41182754D01*
X119670241Y-41182753D01*
X119670240Y-41182753D01*
X119508957Y-41157208D01*
X119460287Y-41149500D01*
X119247713Y-41149500D01*
X119199042Y-41157208D01*
X119037760Y-41182753D01*
X118835585Y-41248444D01*
X118646179Y-41344951D01*
X118474213Y-41469890D01*
X118323890Y-41620213D01*
X118198951Y-41792179D01*
X118102444Y-41981585D01*
X118036753Y-42183760D01*
X118026111Y-42250951D01*
X118003500Y-42393713D01*
X69608680Y-42393713D01*
X69712842Y-42324114D01*
X69712845Y-42324111D01*
X69735797Y-42301160D01*
X69810411Y-42226545D01*
X69810414Y-42226542D01*
X69887075Y-42111811D01*
X69896626Y-42088754D01*
X69939878Y-41984332D01*
X69939880Y-41984328D01*
X69955997Y-41903303D01*
X69966800Y-41848995D01*
X69966800Y-41711004D01*
X69939881Y-41575677D01*
X69939880Y-41575676D01*
X69939880Y-41575672D01*
X69939878Y-41575667D01*
X69887078Y-41448195D01*
X69887071Y-41448182D01*
X69810414Y-41333458D01*
X69810411Y-41333454D01*
X69712845Y-41235888D01*
X69712841Y-41235885D01*
X69598117Y-41159228D01*
X69598104Y-41159221D01*
X69470632Y-41106421D01*
X69470622Y-41106418D01*
X69335295Y-41079500D01*
X69335293Y-41079500D01*
X69197307Y-41079500D01*
X69197305Y-41079500D01*
X69061977Y-41106418D01*
X69061967Y-41106421D01*
X68934495Y-41159221D01*
X68934482Y-41159228D01*
X68819758Y-41235885D01*
X68819754Y-41235888D01*
X68722188Y-41333454D01*
X68722185Y-41333458D01*
X68645528Y-41448182D01*
X68645521Y-41448195D01*
X68592721Y-41575667D01*
X68592718Y-41575677D01*
X68565800Y-41711004D01*
X68565800Y-41849000D01*
X68565890Y-41849915D01*
X68565800Y-41850389D01*
X68565800Y-41855085D01*
X68564909Y-41855085D01*
X68552865Y-41918560D01*
X68530167Y-41949738D01*
X59126722Y-51353184D01*
X59126718Y-51353190D01*
X59073992Y-51444512D01*
X59073993Y-51444513D01*
X59046700Y-51546373D01*
X59046700Y-61704252D01*
X59027015Y-61771291D01*
X59004816Y-61796229D01*
X59004965Y-61796378D01*
X59002404Y-61798938D01*
X59001367Y-61800104D01*
X59000653Y-61800689D01*
X58903088Y-61898254D01*
X58903085Y-61898258D01*
X58826428Y-62012982D01*
X58826421Y-62012995D01*
X58773621Y-62140467D01*
X58773618Y-62140477D01*
X58746700Y-62275804D01*
X58746700Y-62275807D01*
X58746700Y-62413793D01*
X58746700Y-62413795D01*
X58746699Y-62413795D01*
X57410500Y-62413795D01*
X57410500Y-53817058D01*
X57430185Y-53750019D01*
X57482989Y-53704264D01*
X57516012Y-53695364D01*
X57515918Y-53694889D01*
X57617221Y-53674737D01*
X57657228Y-53666780D01*
X57784711Y-53613975D01*
X57899442Y-53537314D01*
X57997014Y-53439742D01*
X58073675Y-53325011D01*
X58126480Y-53197528D01*
X58146568Y-53096541D01*
X58153400Y-53062195D01*
X58153400Y-52924204D01*
X58126481Y-52788877D01*
X58126480Y-52788876D01*
X58126480Y-52788872D01*
X58097536Y-52718995D01*
X58073678Y-52661395D01*
X58073671Y-52661382D01*
X57997014Y-52546658D01*
X57997011Y-52546654D01*
X57899445Y-52449088D01*
X57899441Y-52449085D01*
X57784717Y-52372428D01*
X57784704Y-52372421D01*
X57657232Y-52319621D01*
X57657222Y-52319618D01*
X57521895Y-52292700D01*
X57521893Y-52292700D01*
X57383907Y-52292700D01*
X57383905Y-52292700D01*
X57248577Y-52319618D01*
X57248567Y-52319621D01*
X57121095Y-52372421D01*
X57121082Y-52372428D01*
X57006358Y-52449085D01*
X57006354Y-52449088D01*
X56908788Y-52546654D01*
X56908785Y-52546658D01*
X56832128Y-52661382D01*
X56832121Y-52661395D01*
X56779321Y-52788867D01*
X56779318Y-52788877D01*
X56752400Y-52924204D01*
X56752400Y-53062200D01*
X56752490Y-53063115D01*
X56752400Y-53063589D01*
X56752400Y-53068285D01*
X56751509Y-53068285D01*
X56739465Y-53131760D01*
X56716770Y-53162936D01*
X56689520Y-53190187D01*
X56636793Y-53281512D01*
X56625521Y-53323580D01*
X56625521Y-53323581D01*
X56625520Y-53323580D01*
X56609500Y-53383371D01*
X56609500Y-64431840D01*
X56589815Y-64498879D01*
X56541795Y-64542325D01*
X56407002Y-64611006D01*
X56260505Y-64717441D01*
X56260500Y-64717445D01*
X56132445Y-64845500D01*
X56132441Y-64845505D01*
X56026006Y-64992002D01*
X55943788Y-65153360D01*
X55943787Y-65153363D01*
X55887829Y-65325589D01*
X55862473Y-65485678D01*
X55832544Y-65548813D01*
X55773232Y-65585744D01*
X55703369Y-65584746D01*
X55645137Y-65546136D01*
X55617527Y-65485678D01*
X55603740Y-65398639D01*
X55592171Y-65325591D01*
X55536211Y-65153361D01*
X55536211Y-65153360D01*
X55507740Y-65097484D01*
X55453996Y-64992006D01*
X55357528Y-64859228D01*
X55347558Y-64845505D01*
X55347554Y-64845500D01*
X55219499Y-64717445D01*
X55219494Y-64717441D01*
X55072997Y-64611006D01*
X55072996Y-64611005D01*
X55072994Y-64611004D01*
X54938205Y-64542325D01*
X54887409Y-64494350D01*
X54870500Y-64431840D01*
X54870500Y-52197255D01*
X54890185Y-52130216D01*
X54906819Y-52109574D01*
X56374271Y-50642122D01*
X57958247Y-49058145D01*
X58019568Y-49024662D01*
X58089260Y-49029646D01*
X58093372Y-49031263D01*
X58237334Y-49090894D01*
X58237341Y-49090895D01*
X58237341Y-49090896D01*
X58411304Y-49125499D01*
X58411307Y-49125500D01*
X58411309Y-49125500D01*
X58588693Y-49125500D01*
X58588694Y-49125499D01*
X58652216Y-49112864D01*
X58762658Y-49090896D01*
X58762661Y-49090894D01*
X58762666Y-49090894D01*
X58926547Y-49023013D01*
X59074035Y-48924464D01*
X59199464Y-48799035D01*
X59298013Y-48651547D01*
X59365894Y-48487666D01*
X59376523Y-48434234D01*
X59400499Y-48313695D01*
X59400500Y-48313693D01*
X59400500Y-47586306D01*
X59400499Y-47586304D01*
X59365896Y-47412341D01*
X59365893Y-47412332D01*
X59298016Y-47248459D01*
X59298009Y-47248446D01*
X59199464Y-47100965D01*
X59199461Y-47100961D01*
X59074038Y-46975538D01*
X59074034Y-46975535D01*
X58926553Y-46876990D01*
X58926540Y-46876983D01*
X58762667Y-46809106D01*
X58762658Y-46809103D01*
X58588694Y-46774500D01*
X58588691Y-46774500D01*
X58411309Y-46774500D01*
X58411306Y-46774500D01*
X58237341Y-46809103D01*
X58237332Y-46809106D01*
X58073459Y-46876983D01*
X58073446Y-46876990D01*
X57925965Y-46975535D01*
X57925961Y-46975538D01*
X57800538Y-47100961D01*
X57800535Y-47100965D01*
X57701990Y-47248446D01*
X57701983Y-47248459D01*
X57634106Y-47412332D01*
X57634103Y-47412341D01*
X57622498Y-47470689D01*
X57590113Y-47532600D01*
X57532975Y-47566273D01*
X57493711Y-47576793D01*
X57493710Y-47576794D01*
X57402385Y-47629521D01*
X57327821Y-47704085D01*
X57275094Y-47795410D01*
X57275093Y-47795413D01*
X57247800Y-47897273D01*
X57247800Y-48584445D01*
X57228115Y-48651484D01*
X57211481Y-48672126D01*
X54149522Y-51734084D01*
X54149520Y-51734087D01*
X54096793Y-51825410D01*
X54090373Y-51849371D01*
X54071561Y-51919580D01*
X54069500Y-51927273D01*
X54069500Y-64431840D01*
X54049815Y-64498879D01*
X54001795Y-64542325D01*
X53867006Y-64611003D01*
X53797385Y-64661586D01*
X53731578Y-64685065D01*
X53663524Y-64669239D01*
X53614830Y-64619133D01*
X53600500Y-64561267D01*
X53600500Y-63348975D01*
X53600500Y-63348973D01*
X53578914Y-63268412D01*
X53573207Y-63247112D01*
X53520480Y-63155787D01*
X52645185Y-62280492D01*
X52611700Y-62219169D01*
X52616684Y-62149477D01*
X52658556Y-62093544D01*
X52663975Y-62089709D01*
X52716487Y-62054621D01*
X52799035Y-61999464D01*
X52924464Y-61874035D01*
X53023013Y-61726547D01*
X53090894Y-61562666D01*
X53125500Y-61388691D01*
X53125500Y-61211309D01*
X53125500Y-61211306D01*
X53125499Y-61211304D01*
X53090896Y-61037341D01*
X53090893Y-61037332D01*
X53023016Y-60873459D01*
X53023009Y-60873446D01*
X52924464Y-60725965D01*
X52924461Y-60725961D01*
X52799038Y-60600538D01*
X52799034Y-60600535D01*
X52651553Y-60501990D01*
X52651541Y-60501983D01*
X52500145Y-60439275D01*
X52499627Y-60439060D01*
X52445224Y-60395221D01*
X52423159Y-60328927D01*
X52440438Y-60261227D01*
X52491575Y-60213617D01*
X52547080Y-60200500D01*
X52618097Y-60200500D01*
X52618102Y-60200500D01*
X52706564Y-60189877D01*
X52847342Y-60134361D01*
X52967922Y-60042922D01*
X53059361Y-59922342D01*
X53114877Y-59781564D01*
X53125500Y-59693102D01*
X53125500Y-58906898D01*
X53114877Y-58818436D01*
X53059361Y-58677658D01*
X53059360Y-58677657D01*
X53059360Y-58677656D01*
X52967922Y-58557077D01*
X52847343Y-58465639D01*
X52706561Y-58410122D01*
X52660926Y-58404642D01*
X52618102Y-58399500D01*
X51281898Y-58399500D01*
X51242853Y-58404188D01*
X51193438Y-58410122D01*
X51052656Y-58465639D01*
X50932077Y-58557077D01*
X50840639Y-58677656D01*
X50785122Y-58818438D01*
X50779988Y-58861195D01*
X50774500Y-58906898D01*
X50774500Y-59693102D01*
X50774591Y-59693857D01*
X50785122Y-59781561D01*
X50840639Y-59922343D01*
X50932077Y-60042922D01*
X51052656Y-60134360D01*
X51052657Y-60134360D01*
X51052658Y-60134361D01*
X51193436Y-60189877D01*
X51281898Y-60200500D01*
X51281903Y-60200500D01*
X51352920Y-60200500D01*
X51419959Y-60220185D01*
X51465714Y-60272989D01*
X51475658Y-60342147D01*
X51446633Y-60405703D01*
X51400372Y-60439060D01*
X51399855Y-60439275D01*
X51248458Y-60501983D01*
X51248446Y-60501990D01*
X51100965Y-60600535D01*
X51100961Y-60600538D01*
X50975538Y-60725961D01*
X50975535Y-60725965D01*
X50876990Y-60873446D01*
X50876983Y-60873459D01*
X50809106Y-61037332D01*
X50809103Y-61037341D01*
X50774500Y-61211304D01*
X50774500Y-61388695D01*
X50809103Y-61562658D01*
X50809106Y-61562667D01*
X50876983Y-61726540D01*
X50876990Y-61726553D01*
X50975535Y-61874034D01*
X50975538Y-61874038D01*
X51100961Y-61999461D01*
X51100965Y-61999464D01*
X51248446Y-62098009D01*
X51248459Y-62098016D01*
X51350947Y-62140467D01*
X51412334Y-62165894D01*
X51470690Y-62177501D01*
X51532599Y-62209884D01*
X51566273Y-62267025D01*
X51576793Y-62306289D01*
X51588424Y-62326433D01*
X51629520Y-62397613D01*
X51629522Y-62397615D01*
X52763181Y-63531274D01*
X52796666Y-63592597D01*
X52799500Y-63618955D01*
X52799500Y-64561267D01*
X52779815Y-64628306D01*
X52727011Y-64674061D01*
X52657853Y-64684005D01*
X52602615Y-64661586D01*
X52532993Y-64611003D01*
X52371639Y-64528788D01*
X52371636Y-64528787D01*
X52199410Y-64472829D01*
X52020551Y-64444500D01*
X52020546Y-64444500D01*
X51839454Y-64444500D01*
X51839449Y-64444500D01*
X51660589Y-64472829D01*
X51488363Y-64528787D01*
X51488360Y-64528788D01*
X51327002Y-64611006D01*
X51180505Y-64717441D01*
X51180500Y-64717445D01*
X51052445Y-64845500D01*
X51052441Y-64845505D01*
X50946006Y-64992002D01*
X50863788Y-65153360D01*
X50863787Y-65153363D01*
X50807829Y-65325589D01*
X50782473Y-65485678D01*
X50752544Y-65548813D01*
X50693232Y-65585744D01*
X50623369Y-65584746D01*
X50565137Y-65546136D01*
X50537527Y-65485678D01*
X50523740Y-65398639D01*
X50512171Y-65325591D01*
X50456211Y-65153361D01*
X50456211Y-65153360D01*
X50427740Y-65097484D01*
X50373996Y-64992006D01*
X50277528Y-64859228D01*
X50267558Y-64845505D01*
X50267554Y-64845500D01*
X50139499Y-64717445D01*
X50139494Y-64717441D01*
X49992997Y-64611006D01*
X49992996Y-64611005D01*
X49992994Y-64611004D01*
X49916906Y-64572235D01*
X49831639Y-64528788D01*
X49831636Y-64528787D01*
X49659410Y-64472829D01*
X49480551Y-64444500D01*
X49480546Y-64444500D01*
X49299454Y-64444500D01*
X49299449Y-64444500D01*
X49120589Y-64472829D01*
X48948363Y-64528787D01*
X48948360Y-64528788D01*
X48787002Y-64611006D01*
X48640505Y-64717441D01*
X48640500Y-64717445D01*
X48512445Y-64845500D01*
X48512441Y-64845505D01*
X48406006Y-64992002D01*
X48323788Y-65153360D01*
X48323787Y-65153363D01*
X48267829Y-65325589D01*
X48242473Y-65485678D01*
X48212544Y-65548813D01*
X48153232Y-65585744D01*
X48083369Y-65584746D01*
X48025137Y-65546136D01*
X47997527Y-65485678D01*
X47983740Y-65398639D01*
X47972171Y-65325591D01*
X47916211Y-65153361D01*
X47916211Y-65153360D01*
X47887740Y-65097484D01*
X47833996Y-64992006D01*
X47737528Y-64859228D01*
X47727558Y-64845505D01*
X47727554Y-64845500D01*
X47599499Y-64717445D01*
X47599494Y-64717441D01*
X47452997Y-64611006D01*
X47452996Y-64611005D01*
X47452994Y-64611004D01*
X47376906Y-64572235D01*
X47291639Y-64528788D01*
X47291636Y-64528787D01*
X47119410Y-64472829D01*
X46940551Y-64444500D01*
X46940546Y-64444500D01*
X46759454Y-64444500D01*
X46759449Y-64444500D01*
X46580589Y-64472829D01*
X46408363Y-64528787D01*
X46408360Y-64528788D01*
X46247002Y-64611006D01*
X46100505Y-64717441D01*
X46100500Y-64717445D01*
X45972445Y-64845500D01*
X45972441Y-64845505D01*
X45866006Y-64992002D01*
X45783788Y-65153360D01*
X45783787Y-65153363D01*
X45727829Y-65325589D01*
X45699500Y-65504448D01*
X42920499Y-65504448D01*
X42920499Y-64700136D01*
X42920497Y-64700117D01*
X42917586Y-64675012D01*
X42917585Y-64675010D01*
X42917585Y-64675009D01*
X42872206Y-64572235D01*
X42792765Y-64492794D01*
X42792763Y-64492793D01*
X42689992Y-64447415D01*
X42664865Y-64444500D01*
X40875143Y-64444500D01*
X40875117Y-64444502D01*
X40850012Y-64447413D01*
X40850008Y-64447415D01*
X40747235Y-64492793D01*
X40667794Y-64572234D01*
X40622415Y-64675006D01*
X40622415Y-64675008D01*
X40619500Y-64700131D01*
X40300500Y-64700131D01*
X40300500Y-43299713D01*
X41483500Y-43299713D01*
X41483500Y-43512287D01*
X41516754Y-43722243D01*
X41566873Y-43876494D01*
X41582444Y-43924414D01*
X41678951Y-44113820D01*
X41803890Y-44285786D01*
X41954213Y-44436109D01*
X42126179Y-44561048D01*
X42126181Y-44561049D01*
X42126184Y-44561051D01*
X42315588Y-44657557D01*
X42517757Y-44723246D01*
X42727713Y-44756500D01*
X42727714Y-44756500D01*
X42940286Y-44756500D01*
X42940287Y-44756500D01*
X43150243Y-44723246D01*
X43352412Y-44657557D01*
X43541816Y-44561051D01*
X43563789Y-44545086D01*
X43713786Y-44436109D01*
X43713788Y-44436106D01*
X43713792Y-44436104D01*
X43864104Y-44285792D01*
X43864106Y-44285788D01*
X43864109Y-44285786D01*
X43989048Y-44113820D01*
X43989047Y-44113820D01*
X43989051Y-44113816D01*
X44085557Y-43924412D01*
X44151246Y-43722243D01*
X44184500Y-43512287D01*
X44184500Y-43299713D01*
X44151246Y-43089757D01*
X44085557Y-42887588D01*
X43989051Y-42698184D01*
X43989049Y-42698181D01*
X43989048Y-42698179D01*
X43864109Y-42526213D01*
X43713786Y-42375890D01*
X43541820Y-42250951D01*
X43352414Y-42154444D01*
X43352413Y-42154443D01*
X43352412Y-42154443D01*
X43150243Y-42088754D01*
X43150241Y-42088753D01*
X43150240Y-42088753D01*
X42988957Y-42063208D01*
X42940287Y-42055500D01*
X42727713Y-42055500D01*
X42679042Y-42063208D01*
X42517760Y-42088753D01*
X42315585Y-42154444D01*
X42126179Y-42250951D01*
X41954213Y-42375890D01*
X41803890Y-42526213D01*
X41678951Y-42698179D01*
X41582444Y-42887585D01*
X41516753Y-43089760D01*
X41497338Y-43212341D01*
X41483500Y-43299713D01*
X40300500Y-43299713D01*
X40300500Y-40724500D01*
X40320185Y-40657461D01*
X40372989Y-40611706D01*
X40424500Y-40600500D01*
X41733560Y-40600500D01*
X41733562Y-40600500D01*
X41809989Y-40580021D01*
X41878511Y-40540460D01*
X41934460Y-40484511D01*
X41974021Y-40415989D01*
X41980341Y-40392404D01*
X42016707Y-40332745D01*
X42079554Y-40302217D01*
X42100115Y-40300500D01*
X121599500Y-40300500D01*
X121666539Y-40320185D01*
G37*
%TD.AperFunction*%
%TD*%
M02*
