%TF.GenerationSoftware,KiCad,Pcbnew,10.0.6*%
%TF.CreationDate,2026-09-17T04:31:55+09:00*%
%TF.ProjectId,katanori61,6b617461-6e6f-4726-9936-312e6b696361,rev?*%
%TF.SameCoordinates,Original*%
%TF.FileFunction,Copper,L2,Inr*%
%TF.FilePolarity,Positive*%
%FSLAX46Y46*%
G04 Gerber Fmt 4.6, Leading zero omitted, Abs format (unit mm)*
G04 Created by KiCad (PCBNEW 10.0.6) date 2026-09-17 04:31:55*
%MOMM*%
%LPD*%
G01*
G04 APERTURE LIST*
G04 Aperture macros list*
%AMRoundRect*
0 Rectangle with rounded corners*
0 $1 Rounding radius*
0 $2 $3 $4 $5 $6 $7 $8 $9 X,Y pos of 4 corners*
0 Add a 4 corners polygon primitive as box body*
4,1,4,$2,$3,$4,$5,$6,$7,$8,$9,$2,$3,0*
0 Add four circle primitives for the rounded corners*
1,1,$1+$1,$2,$3*
1,1,$1+$1,$4,$5*
1,1,$1+$1,$6,$7*
1,1,$1+$1,$8,$9*
0 Add four rect primitives between the rounded corners*
20,1,$1+$1,$2,$3,$4,$5,0*
20,1,$1+$1,$4,$5,$6,$7,0*
20,1,$1+$1,$6,$7,$8,$9,0*
20,1,$1+$1,$8,$9,$2,$3,0*%
G04 Aperture macros list end*
%TA.AperFunction,ComponentPad*%
%ADD10RoundRect,0.250000X-0.350000X-0.625000X0.350000X-0.625000X0.350000X0.625000X-0.350000X0.625000X0*%
%TD*%
%TA.AperFunction,ComponentPad*%
%ADD11O,1.200000X1.750000*%
%TD*%
%TA.AperFunction,ComponentPad*%
%ADD12RoundRect,0.250000X-0.625000X0.350000X-0.625000X-0.350000X0.625000X-0.350000X0.625000X0.350000X0*%
%TD*%
%TA.AperFunction,ComponentPad*%
%ADD13O,1.750000X1.200000*%
%TD*%
%TA.AperFunction,ComponentPad*%
%ADD14R,1.700000X1.700000*%
%TD*%
%TA.AperFunction,ComponentPad*%
%ADD15C,1.700000*%
%TD*%
%TA.AperFunction,ComponentPad*%
%ADD16O,1.000000X2.100000*%
%TD*%
%TA.AperFunction,ComponentPad*%
%ADD17O,1.000000X1.600000*%
%TD*%
%TA.AperFunction,ViaPad*%
%ADD18C,0.600000*%
%TD*%
G04 APERTURE END LIST*
D10*
%TO.N,SPKP*%
%TO.C,J4*%
X114300000Y-67850000D03*
D11*
%TO.N,SPKM*%
X116300000Y-67850000D03*
%TD*%
D12*
%TO.N,SPKM*%
%TO.C,J5*%
X51950000Y-59300000D03*
D13*
%TO.N,SPKO*%
X51950000Y-61300000D03*
%TD*%
D10*
%TO.N,GND*%
%TO.C,J6*%
X56500000Y-46850000D03*
D11*
%TO.N,BTN*%
X58500000Y-46850000D03*
%TD*%
D10*
%TO.N,EN*%
%TO.C,J7*%
X100500000Y-43750000D03*
D11*
%TO.N,GND*%
X102500000Y-43750000D03*
%TO.N,EN*%
X104500000Y-43750000D03*
%TO.N,GND*%
X106500000Y-43750000D03*
%TD*%
D12*
%TO.N,GND*%
%TO.C,J10*%
X115700000Y-60450000D03*
D13*
%TO.N,BATRAW*%
X115700000Y-62450000D03*
%TD*%
D14*
%TO.N,V5*%
%TO.C,J1*%
X41770000Y-65595000D03*
D15*
%TO.N,GND*%
X44310000Y-65595000D03*
%TO.N,V33*%
X46850000Y-65595000D03*
%TO.N,SDA*%
X49390000Y-65595000D03*
%TO.N,SCL*%
X51930000Y-65595000D03*
%TO.N,BTN*%
X54470000Y-65595000D03*
%TO.N,IN*%
X57010000Y-65595000D03*
%TD*%
D14*
%TO.N,GND*%
%TO.C,J2*%
X77240000Y-72630000D03*
D15*
%TO.N,V33*%
X79780000Y-72630000D03*
%TO.N,SCL*%
X82320000Y-72630000D03*
%TO.N,SDA*%
X84860000Y-72630000D03*
%TD*%
D16*
%TO.N,GND*%
%TO.C,J13*%
X85332000Y-45480000D03*
D17*
X85332000Y-41300000D03*
D16*
X76692000Y-45480000D03*
D17*
X76692000Y-41300000D03*
%TD*%
D18*
%TO.N,GND*%
X61325000Y-62725000D03*
X61325000Y-64075000D03*
X62675000Y-62725000D03*
X62675000Y-64075000D03*
X72875000Y-61390000D03*
X72875000Y-62640000D03*
X74125000Y-61390000D03*
X74125000Y-62640000D03*
%TO.N,BATG*%
X82100300Y-69411400D03*
X84273200Y-62450000D03*
%TO.N,BATRAW*%
X84939100Y-64151700D03*
%TO.N,CC1*%
X59041700Y-71454300D03*
X82047200Y-45203500D03*
%TO.N,CC2*%
X60014300Y-70692400D03*
X79262000Y-45216000D03*
%TO.N,COL*%
X56305000Y-59328900D03*
X97444900Y-51806800D03*
%TO.N,EN*%
X74507100Y-55784400D03*
X84451200Y-53800300D03*
X59151400Y-63453600D03*
%TO.N,FB*%
X68234400Y-55555100D03*
X60435500Y-66026700D03*
%TO.N,GND*%
X79474800Y-59389800D03*
X76856700Y-58400000D03*
X53198500Y-62165500D03*
%TO.N,IN*%
X58568900Y-55372400D03*
%TO.N,LBI*%
X61526300Y-55564600D03*
X59161200Y-62425000D03*
%TO.N,LBO*%
X72910600Y-49231600D03*
X59157000Y-64375000D03*
%TO.N,PROG1*%
X77050000Y-62015000D03*
X76303100Y-65381800D03*
%TO.N,SCL*%
X89156200Y-58401600D03*
X106724300Y-62965000D03*
X78665500Y-57537200D03*
%TO.N,SDA*%
X106734500Y-64059100D03*
X84906500Y-59687400D03*
X79467300Y-57558800D03*
%TO.N,SPKM*%
X77894600Y-55908600D03*
%TO.N,SPKO*%
X106922900Y-56898300D03*
%TO.N,SPKP*%
X105486500Y-59818200D03*
%TO.N,THERM*%
X70898300Y-63551500D03*
X74609200Y-73163400D03*
%TO.N,V33*%
X82832500Y-59703300D03*
%TO.N,V5*%
X81841100Y-55774800D03*
X66472000Y-52546700D03*
X64855900Y-64245800D03*
X53994600Y-55807000D03*
X62235500Y-44392800D03*
X96817900Y-59701700D03*
%TO.N,VBUS*%
X76439400Y-55367300D03*
X70679000Y-62066800D03*
X74056100Y-65114700D03*
X75807900Y-53222600D03*
X75538700Y-71375000D03*
X66020600Y-71410900D03*
X83237200Y-47598100D03*
%TO.N,VLIPO*%
X71285700Y-59847100D03*
X75951700Y-60314800D03*
%TO.N,VPCC*%
X72941700Y-56096200D03*
X70074200Y-63225000D03*
%TO.N,VSYS*%
X63370400Y-60123200D03*
X69255300Y-61041400D03*
X73600000Y-52990300D03*
%TO.N,GND*%
X41000000Y-76400000D03*
X41000000Y-73200000D03*
X41000000Y-70000000D03*
X41000000Y-63600000D03*
X41000000Y-60400000D03*
X41000000Y-57200000D03*
X41000000Y-54000000D03*
X41000000Y-50800000D03*
X41000000Y-47600000D03*
X41000000Y-44400000D03*
X44200000Y-76400000D03*
X44200000Y-70000000D03*
X44200000Y-60400000D03*
X44200000Y-57200000D03*
X44200000Y-54000000D03*
X44200000Y-50800000D03*
X44200000Y-47600000D03*
X44200000Y-41200000D03*
X47400000Y-76400000D03*
X47400000Y-73200000D03*
X47400000Y-70000000D03*
X47400000Y-57200000D03*
X47400000Y-54000000D03*
X47400000Y-50800000D03*
X47400000Y-47600000D03*
X47400000Y-44400000D03*
X47400000Y-41200000D03*
X50600000Y-76400000D03*
X50600000Y-73200000D03*
X50600000Y-70000000D03*
X50600000Y-63600000D03*
X50600000Y-54000000D03*
X50600000Y-50800000D03*
X50600000Y-47600000D03*
X50600000Y-44400000D03*
X50600000Y-41200000D03*
X53800000Y-76400000D03*
X53800000Y-73200000D03*
X53800000Y-44400000D03*
X53800000Y-41200000D03*
X57000000Y-76400000D03*
X57000000Y-41200000D03*
X60200000Y-76400000D03*
X60200000Y-47600000D03*
X60200000Y-41200000D03*
X63400000Y-76400000D03*
X63400000Y-41200000D03*
X66600000Y-76400000D03*
X66600000Y-47600000D03*
X66600000Y-44400000D03*
X66600000Y-41200000D03*
X69800000Y-76400000D03*
X69800000Y-70000000D03*
X69800000Y-44400000D03*
X69800000Y-41200000D03*
X73000000Y-76400000D03*
X73000000Y-44400000D03*
X73000000Y-41200000D03*
X76200000Y-76400000D03*
X79400000Y-76400000D03*
X79400000Y-41200000D03*
X82600000Y-76400000D03*
X82600000Y-50800000D03*
X82600000Y-41200000D03*
X85800000Y-76400000D03*
X85800000Y-54000000D03*
X85800000Y-50800000D03*
X89000000Y-76400000D03*
X89000000Y-73200000D03*
X89000000Y-66800000D03*
X89000000Y-63600000D03*
X89000000Y-54000000D03*
X89000000Y-50800000D03*
X89000000Y-47600000D03*
X89000000Y-44400000D03*
X92200000Y-76400000D03*
X92200000Y-73200000D03*
X92200000Y-70000000D03*
X92200000Y-63600000D03*
X92200000Y-54000000D03*
X92200000Y-50800000D03*
X92200000Y-47600000D03*
X92200000Y-44400000D03*
X95400000Y-76400000D03*
X95400000Y-73200000D03*
X95400000Y-70000000D03*
X95400000Y-66800000D03*
X95400000Y-50800000D03*
X95400000Y-47600000D03*
X98600000Y-76400000D03*
X98600000Y-73200000D03*
X98600000Y-70000000D03*
X98600000Y-66800000D03*
X98600000Y-54000000D03*
X98600000Y-47600000D03*
X101800000Y-76400000D03*
X101800000Y-73200000D03*
X101800000Y-70000000D03*
X101800000Y-66800000D03*
X101800000Y-54000000D03*
X101800000Y-47600000D03*
X101800000Y-41200000D03*
X105000000Y-76400000D03*
X105000000Y-73200000D03*
X105000000Y-70000000D03*
X105000000Y-66800000D03*
X105000000Y-54000000D03*
X105000000Y-47600000D03*
X105000000Y-41200000D03*
X108200000Y-76400000D03*
X108200000Y-73200000D03*
X108200000Y-70000000D03*
X108200000Y-66800000D03*
X108200000Y-54000000D03*
X108200000Y-47600000D03*
X108200000Y-41200000D03*
X111400000Y-76400000D03*
X111400000Y-73200000D03*
X111400000Y-70000000D03*
X111400000Y-57200000D03*
X111400000Y-54000000D03*
X111400000Y-50800000D03*
X111400000Y-44400000D03*
X111400000Y-41200000D03*
X114600000Y-76400000D03*
X114600000Y-73200000D03*
X114600000Y-70000000D03*
X114600000Y-57200000D03*
X114600000Y-54000000D03*
X114600000Y-47600000D03*
X114600000Y-44400000D03*
X114600000Y-41200000D03*
X117800000Y-76400000D03*
X117800000Y-70000000D03*
X117800000Y-66800000D03*
X117800000Y-63600000D03*
X117800000Y-60400000D03*
X117800000Y-57200000D03*
X117800000Y-54000000D03*
X117800000Y-50800000D03*
X117800000Y-47600000D03*
X117800000Y-44400000D03*
X117800000Y-41200000D03*
X121000000Y-76400000D03*
X121000000Y-70000000D03*
X121000000Y-66800000D03*
X121000000Y-63600000D03*
X121000000Y-60400000D03*
X121000000Y-57200000D03*
X121000000Y-54000000D03*
X121000000Y-50800000D03*
X121000000Y-47600000D03*
X121000000Y-44400000D03*
X121000000Y-41200000D03*
%TD*%
%TA.AperFunction,Conductor*%
%TO.N,GND*%
G36*
X121666539Y-40320185D02*
G01*
X121712294Y-40372989D01*
X121723500Y-40424500D01*
X121723500Y-76975500D01*
X121703815Y-77042539D01*
X121651011Y-77088294D01*
X121599500Y-77099500D01*
X40424500Y-77099500D01*
X40357461Y-77079815D01*
X40311706Y-77027011D01*
X40300500Y-76975500D01*
X40300500Y-73793713D01*
X42649500Y-73793713D01*
X42649500Y-74006286D01*
X42682753Y-74216239D01*
X42748444Y-74418414D01*
X42844951Y-74607820D01*
X42969890Y-74779786D01*
X43120213Y-74930109D01*
X43292179Y-75055048D01*
X43292181Y-75055049D01*
X43292184Y-75055051D01*
X43481588Y-75151557D01*
X43683757Y-75217246D01*
X43893713Y-75250500D01*
X43893714Y-75250500D01*
X44106286Y-75250500D01*
X44106287Y-75250500D01*
X44316243Y-75217246D01*
X44518412Y-75151557D01*
X44707816Y-75055051D01*
X44729789Y-75039086D01*
X44879786Y-74930109D01*
X44879788Y-74930106D01*
X44879792Y-74930104D01*
X45030104Y-74779792D01*
X45030106Y-74779788D01*
X45030109Y-74779786D01*
X45155048Y-74607820D01*
X45155047Y-74607820D01*
X45155051Y-74607816D01*
X45251557Y-74418412D01*
X45317246Y-74216243D01*
X45350500Y-74006287D01*
X45350500Y-73793713D01*
X118003500Y-73793713D01*
X118003500Y-74006286D01*
X118036753Y-74216239D01*
X118102444Y-74418414D01*
X118198951Y-74607820D01*
X118323890Y-74779786D01*
X118474213Y-74930109D01*
X118646179Y-75055048D01*
X118646181Y-75055049D01*
X118646184Y-75055051D01*
X118835588Y-75151557D01*
X119037757Y-75217246D01*
X119247713Y-75250500D01*
X119247714Y-75250500D01*
X119460286Y-75250500D01*
X119460287Y-75250500D01*
X119670243Y-75217246D01*
X119872412Y-75151557D01*
X120061816Y-75055051D01*
X120083789Y-75039086D01*
X120233786Y-74930109D01*
X120233788Y-74930106D01*
X120233792Y-74930104D01*
X120384104Y-74779792D01*
X120384106Y-74779788D01*
X120384109Y-74779786D01*
X120509048Y-74607820D01*
X120509047Y-74607820D01*
X120509051Y-74607816D01*
X120605557Y-74418412D01*
X120671246Y-74216243D01*
X120704500Y-74006287D01*
X120704500Y-73793713D01*
X120671246Y-73583757D01*
X120605557Y-73381588D01*
X120509051Y-73192184D01*
X120509049Y-73192181D01*
X120509048Y-73192179D01*
X120384109Y-73020213D01*
X120233786Y-72869890D01*
X120061820Y-72744951D01*
X119872414Y-72648444D01*
X119872413Y-72648443D01*
X119872412Y-72648443D01*
X119670243Y-72582754D01*
X119670241Y-72582753D01*
X119670240Y-72582753D01*
X119508957Y-72557208D01*
X119460287Y-72549500D01*
X119247713Y-72549500D01*
X119199042Y-72557208D01*
X119037760Y-72582753D01*
X118835585Y-72648444D01*
X118646179Y-72744951D01*
X118474213Y-72869890D01*
X118323890Y-73020213D01*
X118198951Y-73192179D01*
X118102444Y-73381585D01*
X118036753Y-73583760D01*
X118003500Y-73793713D01*
X45350500Y-73793713D01*
X45317246Y-73583757D01*
X45251557Y-73381588D01*
X45155051Y-73192184D01*
X45076700Y-73084343D01*
X74008700Y-73084343D01*
X74008700Y-73242456D01*
X74049623Y-73395183D01*
X74049626Y-73395190D01*
X74128675Y-73532109D01*
X74128679Y-73532114D01*
X74128680Y-73532116D01*
X74240484Y-73643920D01*
X74240486Y-73643921D01*
X74240490Y-73643924D01*
X74331057Y-73696212D01*
X74377416Y-73722977D01*
X74530143Y-73763900D01*
X74530145Y-73763900D01*
X74688255Y-73763900D01*
X74688257Y-73763900D01*
X74840984Y-73722977D01*
X74977916Y-73643920D01*
X75089720Y-73532116D01*
X75168777Y-73395184D01*
X75209700Y-73242457D01*
X75209700Y-73084343D01*
X75168777Y-72931616D01*
X75150183Y-72899410D01*
X75089724Y-72794690D01*
X75089718Y-72794682D01*
X74977917Y-72682881D01*
X74977912Y-72682877D01*
X74907058Y-72641970D01*
X74907057Y-72641970D01*
X74902354Y-72639255D01*
X74840984Y-72603823D01*
X74688257Y-72562900D01*
X74530143Y-72562900D01*
X74377416Y-72603823D01*
X74377409Y-72603826D01*
X74240490Y-72682875D01*
X74240482Y-72682881D01*
X74128681Y-72794682D01*
X74128675Y-72794690D01*
X74049626Y-72931609D01*
X74049623Y-72931616D01*
X74008700Y-73084343D01*
X45076700Y-73084343D01*
X45030104Y-73020208D01*
X44879792Y-72869896D01*
X44879786Y-72869890D01*
X44707820Y-72744951D01*
X44518414Y-72648444D01*
X44518413Y-72648443D01*
X44518412Y-72648443D01*
X44316243Y-72582754D01*
X44316241Y-72582753D01*
X44316240Y-72582753D01*
X44154957Y-72557208D01*
X44106287Y-72549500D01*
X43893713Y-72549500D01*
X43845042Y-72557208D01*
X43683760Y-72582753D01*
X43481585Y-72648444D01*
X43292179Y-72744951D01*
X43120213Y-72869890D01*
X42969890Y-73020213D01*
X42844951Y-73192179D01*
X42748444Y-73381585D01*
X42682753Y-73583760D01*
X42649500Y-73793713D01*
X40300500Y-73793713D01*
X40300500Y-72539448D01*
X78629500Y-72539448D01*
X78629500Y-72720551D01*
X78657829Y-72899410D01*
X78713787Y-73071636D01*
X78713788Y-73071639D01*
X78796006Y-73232997D01*
X78902441Y-73379494D01*
X78902445Y-73379499D01*
X79030500Y-73507554D01*
X79030505Y-73507558D01*
X79135385Y-73583757D01*
X79177006Y-73613996D01*
X79235743Y-73643924D01*
X79338360Y-73696211D01*
X79338363Y-73696212D01*
X79420727Y-73722973D01*
X79510591Y-73752171D01*
X79593429Y-73765291D01*
X79689449Y-73780500D01*
X79689454Y-73780500D01*
X79870551Y-73780500D01*
X79957259Y-73766765D01*
X80049409Y-73752171D01*
X80221639Y-73696211D01*
X80382994Y-73613996D01*
X80529501Y-73507553D01*
X80657553Y-73379501D01*
X80763996Y-73232994D01*
X80846211Y-73071639D01*
X80902171Y-72899409D01*
X80926635Y-72744951D01*
X80927527Y-72739321D01*
X80957456Y-72676186D01*
X81016768Y-72639255D01*
X81086630Y-72640253D01*
X81144863Y-72678863D01*
X81172473Y-72739321D01*
X81197829Y-72899410D01*
X81253787Y-73071636D01*
X81253788Y-73071639D01*
X81336006Y-73232997D01*
X81442441Y-73379494D01*
X81442445Y-73379499D01*
X81570500Y-73507554D01*
X81570505Y-73507558D01*
X81675385Y-73583757D01*
X81717006Y-73613996D01*
X81775743Y-73643924D01*
X81878360Y-73696211D01*
X81878363Y-73696212D01*
X81960727Y-73722973D01*
X82050591Y-73752171D01*
X82133429Y-73765291D01*
X82229449Y-73780500D01*
X82229454Y-73780500D01*
X82410551Y-73780500D01*
X82497259Y-73766765D01*
X82589409Y-73752171D01*
X82761639Y-73696211D01*
X82922994Y-73613996D01*
X83069501Y-73507553D01*
X83197553Y-73379501D01*
X83303996Y-73232994D01*
X83386211Y-73071639D01*
X83442171Y-72899409D01*
X83466635Y-72744951D01*
X83467527Y-72739321D01*
X83497456Y-72676186D01*
X83556768Y-72639255D01*
X83626630Y-72640253D01*
X83684863Y-72678863D01*
X83712473Y-72739321D01*
X83737829Y-72899410D01*
X83793787Y-73071636D01*
X83793788Y-73071639D01*
X83876006Y-73232997D01*
X83982441Y-73379494D01*
X83982445Y-73379499D01*
X84110500Y-73507554D01*
X84110505Y-73507558D01*
X84215385Y-73583757D01*
X84257006Y-73613996D01*
X84315743Y-73643924D01*
X84418360Y-73696211D01*
X84418363Y-73696212D01*
X84500727Y-73722973D01*
X84590591Y-73752171D01*
X84673429Y-73765291D01*
X84769449Y-73780500D01*
X84769454Y-73780500D01*
X84950551Y-73780500D01*
X85037259Y-73766765D01*
X85129409Y-73752171D01*
X85301639Y-73696211D01*
X85301639Y-73696210D01*
X85301644Y-73696209D01*
X85336680Y-73678357D01*
X85336681Y-73678356D01*
X85462994Y-73613996D01*
X85609501Y-73507553D01*
X85737553Y-73379501D01*
X85843996Y-73232994D01*
X85926211Y-73071639D01*
X85982171Y-72899409D01*
X86006635Y-72744951D01*
X86010500Y-72720551D01*
X86010500Y-72539448D01*
X85994019Y-72435397D01*
X85982171Y-72360591D01*
X85926211Y-72188361D01*
X85926211Y-72188360D01*
X85897740Y-72132484D01*
X85843996Y-72027006D01*
X85806574Y-71975499D01*
X85737558Y-71880505D01*
X85737554Y-71880500D01*
X85609499Y-71752445D01*
X85609494Y-71752441D01*
X85462997Y-71646006D01*
X85462996Y-71646005D01*
X85462994Y-71646004D01*
X85386019Y-71606783D01*
X85301639Y-71563788D01*
X85301636Y-71563787D01*
X85129410Y-71507829D01*
X84950551Y-71479500D01*
X84950546Y-71479500D01*
X84769454Y-71479500D01*
X84769449Y-71479500D01*
X84590589Y-71507829D01*
X84418363Y-71563787D01*
X84418360Y-71563788D01*
X84257002Y-71646006D01*
X84110505Y-71752441D01*
X84110500Y-71752445D01*
X83982445Y-71880500D01*
X83982441Y-71880505D01*
X83876006Y-72027002D01*
X83793788Y-72188360D01*
X83793787Y-72188363D01*
X83737829Y-72360589D01*
X83712473Y-72520678D01*
X83682544Y-72583813D01*
X83623232Y-72620744D01*
X83553369Y-72619746D01*
X83495137Y-72581136D01*
X83467527Y-72520678D01*
X83453740Y-72433639D01*
X83442171Y-72360591D01*
X83386211Y-72188361D01*
X83386211Y-72188360D01*
X83357740Y-72132484D01*
X83303996Y-72027006D01*
X83266574Y-71975499D01*
X83197558Y-71880505D01*
X83197554Y-71880500D01*
X83069499Y-71752445D01*
X83069494Y-71752441D01*
X82922997Y-71646006D01*
X82922996Y-71646005D01*
X82922994Y-71646004D01*
X82846019Y-71606783D01*
X82761639Y-71563788D01*
X82761636Y-71563787D01*
X82589410Y-71507829D01*
X82410551Y-71479500D01*
X82410546Y-71479500D01*
X82229454Y-71479500D01*
X82229449Y-71479500D01*
X82050589Y-71507829D01*
X81878363Y-71563787D01*
X81878360Y-71563788D01*
X81717002Y-71646006D01*
X81570505Y-71752441D01*
X81570500Y-71752445D01*
X81442445Y-71880500D01*
X81442441Y-71880505D01*
X81336006Y-72027002D01*
X81253788Y-72188360D01*
X81253787Y-72188363D01*
X81197829Y-72360589D01*
X81172473Y-72520678D01*
X81142544Y-72583813D01*
X81083232Y-72620744D01*
X81013369Y-72619746D01*
X80955137Y-72581136D01*
X80927527Y-72520678D01*
X80913740Y-72433639D01*
X80902171Y-72360591D01*
X80846211Y-72188361D01*
X80846211Y-72188360D01*
X80817740Y-72132484D01*
X80763996Y-72027006D01*
X80726574Y-71975499D01*
X80657558Y-71880505D01*
X80657554Y-71880500D01*
X80529499Y-71752445D01*
X80529494Y-71752441D01*
X80382997Y-71646006D01*
X80382996Y-71646005D01*
X80382994Y-71646004D01*
X80306019Y-71606783D01*
X80221639Y-71563788D01*
X80221636Y-71563787D01*
X80049410Y-71507829D01*
X79870551Y-71479500D01*
X79870546Y-71479500D01*
X79689454Y-71479500D01*
X79689449Y-71479500D01*
X79510589Y-71507829D01*
X79338363Y-71563787D01*
X79338360Y-71563788D01*
X79177002Y-71646006D01*
X79030505Y-71752441D01*
X79030500Y-71752445D01*
X78902445Y-71880500D01*
X78902441Y-71880505D01*
X78796006Y-72027002D01*
X78713788Y-72188360D01*
X78713787Y-72188363D01*
X78657829Y-72360589D01*
X78629500Y-72539448D01*
X40300500Y-72539448D01*
X40300500Y-71375243D01*
X58441200Y-71375243D01*
X58441200Y-71533357D01*
X58460877Y-71606790D01*
X58482123Y-71686083D01*
X58482126Y-71686090D01*
X58561175Y-71823009D01*
X58561179Y-71823014D01*
X58561180Y-71823016D01*
X58672984Y-71934820D01*
X58672986Y-71934821D01*
X58672990Y-71934824D01*
X58743444Y-71975500D01*
X58809916Y-72013877D01*
X58962643Y-72054800D01*
X58962645Y-72054800D01*
X59120755Y-72054800D01*
X59120757Y-72054800D01*
X59273484Y-72013877D01*
X59410416Y-71934820D01*
X59522220Y-71823016D01*
X59601277Y-71686084D01*
X59642200Y-71533357D01*
X59642200Y-71375979D01*
X59655160Y-71331843D01*
X65420100Y-71331843D01*
X65420100Y-71489957D01*
X65451406Y-71606790D01*
X65461023Y-71642683D01*
X65461026Y-71642690D01*
X65540075Y-71779609D01*
X65540079Y-71779614D01*
X65540080Y-71779616D01*
X65651884Y-71891420D01*
X65651886Y-71891421D01*
X65651890Y-71891424D01*
X65788809Y-71970473D01*
X65788816Y-71970477D01*
X65941543Y-72011400D01*
X65941545Y-72011400D01*
X66099655Y-72011400D01*
X66099657Y-72011400D01*
X66252384Y-71970477D01*
X66389316Y-71891420D01*
X66501120Y-71779616D01*
X66580177Y-71642684D01*
X66621100Y-71489957D01*
X66621100Y-71331843D01*
X66611481Y-71295943D01*
X74938200Y-71295943D01*
X74938200Y-71454057D01*
X74967603Y-71563788D01*
X74979123Y-71606783D01*
X74979126Y-71606790D01*
X75058175Y-71743709D01*
X75058179Y-71743714D01*
X75058180Y-71743716D01*
X75169984Y-71855520D01*
X75169986Y-71855521D01*
X75169990Y-71855524D01*
X75232165Y-71891420D01*
X75306916Y-71934577D01*
X75459643Y-71975500D01*
X75459645Y-71975500D01*
X75617755Y-71975500D01*
X75617757Y-71975500D01*
X75770484Y-71934577D01*
X75907416Y-71855520D01*
X76019220Y-71743716D01*
X76098277Y-71606784D01*
X76139200Y-71454057D01*
X76139200Y-71295943D01*
X76098277Y-71143216D01*
X76065007Y-71085590D01*
X76019224Y-71006290D01*
X76019218Y-71006282D01*
X75907417Y-70894481D01*
X75907409Y-70894475D01*
X75770490Y-70815426D01*
X75770486Y-70815424D01*
X75770484Y-70815423D01*
X75617757Y-70774500D01*
X75459643Y-70774500D01*
X75306916Y-70815423D01*
X75306909Y-70815426D01*
X75169990Y-70894475D01*
X75169982Y-70894481D01*
X75058181Y-71006282D01*
X75058175Y-71006290D01*
X74979126Y-71143209D01*
X74979123Y-71143216D01*
X74938200Y-71295943D01*
X66611481Y-71295943D01*
X66580177Y-71179116D01*
X66559446Y-71143209D01*
X66501124Y-71042190D01*
X66501118Y-71042182D01*
X66389317Y-70930381D01*
X66389309Y-70930375D01*
X66252390Y-70851326D01*
X66252386Y-70851324D01*
X66252384Y-70851323D01*
X66099657Y-70810400D01*
X65941543Y-70810400D01*
X65788816Y-70851323D01*
X65788809Y-70851326D01*
X65651890Y-70930375D01*
X65651882Y-70930381D01*
X65540081Y-71042182D01*
X65540075Y-71042190D01*
X65461026Y-71179109D01*
X65461024Y-71179114D01*
X65461023Y-71179116D01*
X65420100Y-71331843D01*
X59655160Y-71331843D01*
X59661885Y-71308940D01*
X59714689Y-71263185D01*
X59783847Y-71253241D01*
X59798282Y-71256201D01*
X59935243Y-71292900D01*
X59935245Y-71292900D01*
X60093355Y-71292900D01*
X60093357Y-71292900D01*
X60246084Y-71251977D01*
X60383016Y-71172920D01*
X60494820Y-71061116D01*
X60573877Y-70924184D01*
X60614800Y-70771457D01*
X60614800Y-70613343D01*
X60573877Y-70460616D01*
X60573873Y-70460609D01*
X60494824Y-70323690D01*
X60494818Y-70323682D01*
X60383017Y-70211881D01*
X60383009Y-70211875D01*
X60246090Y-70132826D01*
X60246086Y-70132824D01*
X60246084Y-70132823D01*
X60093357Y-70091900D01*
X59935243Y-70091900D01*
X59782516Y-70132823D01*
X59782509Y-70132826D01*
X59645590Y-70211875D01*
X59645582Y-70211881D01*
X59533781Y-70323682D01*
X59533775Y-70323690D01*
X59454726Y-70460609D01*
X59454723Y-70460616D01*
X59413800Y-70613343D01*
X59413800Y-70770720D01*
X59394115Y-70837759D01*
X59341311Y-70883514D01*
X59272153Y-70893458D01*
X59257707Y-70890495D01*
X59164367Y-70865485D01*
X59120757Y-70853800D01*
X58962643Y-70853800D01*
X58809916Y-70894723D01*
X58809909Y-70894726D01*
X58672990Y-70973775D01*
X58672982Y-70973781D01*
X58561181Y-71085582D01*
X58561175Y-71085590D01*
X58482126Y-71222509D01*
X58482123Y-71222516D01*
X58441200Y-71375243D01*
X40300500Y-71375243D01*
X40300500Y-69332343D01*
X81499800Y-69332343D01*
X81499800Y-69490456D01*
X81540723Y-69643183D01*
X81540726Y-69643190D01*
X81619775Y-69780109D01*
X81619779Y-69780114D01*
X81619780Y-69780116D01*
X81731584Y-69891920D01*
X81731586Y-69891921D01*
X81731590Y-69891924D01*
X81868509Y-69970973D01*
X81868516Y-69970977D01*
X82021243Y-70011900D01*
X82021245Y-70011900D01*
X82179355Y-70011900D01*
X82179357Y-70011900D01*
X82332084Y-69970977D01*
X82469016Y-69891920D01*
X82580820Y-69780116D01*
X82659877Y-69643184D01*
X82700800Y-69490457D01*
X82700800Y-69332343D01*
X82659877Y-69179616D01*
X82659873Y-69179609D01*
X82580824Y-69042690D01*
X82580818Y-69042682D01*
X82469017Y-68930881D01*
X82469009Y-68930875D01*
X82332090Y-68851826D01*
X82332086Y-68851824D01*
X82332084Y-68851823D01*
X82179357Y-68810900D01*
X82021243Y-68810900D01*
X81868516Y-68851823D01*
X81868509Y-68851826D01*
X81731590Y-68930875D01*
X81731582Y-68930881D01*
X81619781Y-69042682D01*
X81619775Y-69042690D01*
X81540726Y-69179609D01*
X81540723Y-69179616D01*
X81499800Y-69332343D01*
X40300500Y-69332343D01*
X40300500Y-67181898D01*
X113399500Y-67181898D01*
X113399500Y-68518102D01*
X113403516Y-68551541D01*
X113410122Y-68606561D01*
X113465639Y-68747343D01*
X113557077Y-68867922D01*
X113677656Y-68959360D01*
X113677657Y-68959360D01*
X113677658Y-68959361D01*
X113818436Y-69014877D01*
X113906898Y-69025500D01*
X113906903Y-69025500D01*
X114693097Y-69025500D01*
X114693102Y-69025500D01*
X114781564Y-69014877D01*
X114922342Y-68959361D01*
X115042922Y-68867922D01*
X115134361Y-68747342D01*
X115189877Y-68606564D01*
X115200500Y-68518102D01*
X115200500Y-68447080D01*
X115220185Y-68380041D01*
X115272989Y-68334286D01*
X115342147Y-68324342D01*
X115405703Y-68353367D01*
X115439061Y-68399628D01*
X115501983Y-68551541D01*
X115501990Y-68551553D01*
X115600535Y-68699034D01*
X115600538Y-68699038D01*
X115725961Y-68824461D01*
X115725965Y-68824464D01*
X115873446Y-68923009D01*
X115873459Y-68923016D01*
X115996363Y-68973923D01*
X116037334Y-68990894D01*
X116037336Y-68990894D01*
X116037341Y-68990896D01*
X116211304Y-69025499D01*
X116211307Y-69025500D01*
X116211309Y-69025500D01*
X116388693Y-69025500D01*
X116388694Y-69025499D01*
X116446682Y-69013964D01*
X116562658Y-68990896D01*
X116562661Y-68990894D01*
X116562666Y-68990894D01*
X116726547Y-68923013D01*
X116874035Y-68824464D01*
X116999464Y-68699035D01*
X117098013Y-68551547D01*
X117165894Y-68387666D01*
X117200500Y-68213691D01*
X117200500Y-67486309D01*
X117200500Y-67486306D01*
X117200499Y-67486304D01*
X117165896Y-67312341D01*
X117165893Y-67312332D01*
X117098016Y-67148459D01*
X117098009Y-67148446D01*
X116999464Y-67000965D01*
X116999461Y-67000961D01*
X116874038Y-66875538D01*
X116874034Y-66875535D01*
X116726553Y-66776990D01*
X116726540Y-66776983D01*
X116562667Y-66709106D01*
X116562658Y-66709103D01*
X116388694Y-66674500D01*
X116388691Y-66674500D01*
X116211309Y-66674500D01*
X116211306Y-66674500D01*
X116037341Y-66709103D01*
X116037332Y-66709106D01*
X115873459Y-66776983D01*
X115873446Y-66776990D01*
X115725965Y-66875535D01*
X115725961Y-66875538D01*
X115600538Y-67000961D01*
X115600535Y-67000965D01*
X115501990Y-67148446D01*
X115501983Y-67148459D01*
X115439061Y-67300371D01*
X115395221Y-67354775D01*
X115328927Y-67376840D01*
X115261227Y-67359561D01*
X115213616Y-67308424D01*
X115200500Y-67252919D01*
X115200500Y-67181903D01*
X115200500Y-67181898D01*
X115189877Y-67093436D01*
X115134361Y-66952658D01*
X115134360Y-66952657D01*
X115134360Y-66952656D01*
X115042922Y-66832077D01*
X114922343Y-66740639D01*
X114781561Y-66685122D01*
X114735926Y-66679642D01*
X114693102Y-66674500D01*
X113906898Y-66674500D01*
X113867853Y-66679188D01*
X113818438Y-66685122D01*
X113677656Y-66740639D01*
X113557077Y-66832077D01*
X113465639Y-66952656D01*
X113410122Y-67093438D01*
X113404188Y-67142853D01*
X113399500Y-67181898D01*
X40300500Y-67181898D01*
X40300500Y-64700131D01*
X40619500Y-64700131D01*
X40619500Y-66489856D01*
X40619502Y-66489882D01*
X40622413Y-66514987D01*
X40622415Y-66514991D01*
X40667793Y-66617764D01*
X40667794Y-66617765D01*
X40747235Y-66697206D01*
X40850009Y-66742585D01*
X40875135Y-66745500D01*
X42664864Y-66745499D01*
X42664879Y-66745497D01*
X42664882Y-66745497D01*
X42689987Y-66742586D01*
X42689988Y-66742585D01*
X42689991Y-66742585D01*
X42792765Y-66697206D01*
X42872206Y-66617765D01*
X42917585Y-66514991D01*
X42920500Y-66489865D01*
X42920499Y-65504448D01*
X45699500Y-65504448D01*
X45699500Y-65685551D01*
X45727829Y-65864410D01*
X45783787Y-66036636D01*
X45783788Y-66036639D01*
X45866006Y-66197997D01*
X45972441Y-66344494D01*
X45972445Y-66344499D01*
X46100500Y-66472554D01*
X46100505Y-66472558D01*
X46228287Y-66565396D01*
X46247006Y-66578996D01*
X46323094Y-66617765D01*
X46408360Y-66661211D01*
X46408363Y-66661212D01*
X46481953Y-66685122D01*
X46580591Y-66717171D01*
X46663429Y-66730291D01*
X46759449Y-66745500D01*
X46759454Y-66745500D01*
X46940551Y-66745500D01*
X47027259Y-66731765D01*
X47119409Y-66717171D01*
X47291639Y-66661211D01*
X47452994Y-66578996D01*
X47599501Y-66472553D01*
X47727553Y-66344501D01*
X47833996Y-66197994D01*
X47916211Y-66036639D01*
X47972171Y-65864409D01*
X47990211Y-65750509D01*
X47997527Y-65704321D01*
X48027456Y-65641186D01*
X48086768Y-65604255D01*
X48156630Y-65605253D01*
X48214863Y-65643863D01*
X48242473Y-65704321D01*
X48267829Y-65864410D01*
X48323787Y-66036636D01*
X48323788Y-66036639D01*
X48406006Y-66197997D01*
X48512441Y-66344494D01*
X48512445Y-66344499D01*
X48640500Y-66472554D01*
X48640505Y-66472558D01*
X48768287Y-66565396D01*
X48787006Y-66578996D01*
X48863094Y-66617765D01*
X48948360Y-66661211D01*
X48948363Y-66661212D01*
X49021953Y-66685122D01*
X49120591Y-66717171D01*
X49203429Y-66730291D01*
X49299449Y-66745500D01*
X49299454Y-66745500D01*
X49480551Y-66745500D01*
X49567259Y-66731765D01*
X49659409Y-66717171D01*
X49831639Y-66661211D01*
X49992994Y-66578996D01*
X50139501Y-66472553D01*
X50267553Y-66344501D01*
X50373996Y-66197994D01*
X50456211Y-66036639D01*
X50512171Y-65864409D01*
X50530211Y-65750509D01*
X50537527Y-65704321D01*
X50567456Y-65641186D01*
X50626768Y-65604255D01*
X50696630Y-65605253D01*
X50754863Y-65643863D01*
X50782473Y-65704321D01*
X50807829Y-65864410D01*
X50863787Y-66036636D01*
X50863788Y-66036639D01*
X50946006Y-66197997D01*
X51052441Y-66344494D01*
X51052445Y-66344499D01*
X51180500Y-66472554D01*
X51180505Y-66472558D01*
X51308287Y-66565396D01*
X51327006Y-66578996D01*
X51403094Y-66617765D01*
X51488360Y-66661211D01*
X51488363Y-66661212D01*
X51561953Y-66685122D01*
X51660591Y-66717171D01*
X51743429Y-66730291D01*
X51839449Y-66745500D01*
X51839454Y-66745500D01*
X52020551Y-66745500D01*
X52107259Y-66731765D01*
X52199409Y-66717171D01*
X52371639Y-66661211D01*
X52532994Y-66578996D01*
X52679501Y-66472553D01*
X52807553Y-66344501D01*
X52913996Y-66197994D01*
X52996211Y-66036639D01*
X53052171Y-65864409D01*
X53070211Y-65750509D01*
X53077527Y-65704321D01*
X53107456Y-65641186D01*
X53166768Y-65604255D01*
X53236630Y-65605253D01*
X53294863Y-65643863D01*
X53322473Y-65704321D01*
X53347829Y-65864410D01*
X53403787Y-66036636D01*
X53403788Y-66036639D01*
X53486006Y-66197997D01*
X53592441Y-66344494D01*
X53592445Y-66344499D01*
X53720500Y-66472554D01*
X53720505Y-66472558D01*
X53848287Y-66565396D01*
X53867006Y-66578996D01*
X53943094Y-66617765D01*
X54028360Y-66661211D01*
X54028363Y-66661212D01*
X54101953Y-66685122D01*
X54200591Y-66717171D01*
X54283429Y-66730291D01*
X54379449Y-66745500D01*
X54379454Y-66745500D01*
X54560551Y-66745500D01*
X54647259Y-66731765D01*
X54739409Y-66717171D01*
X54911639Y-66661211D01*
X55072994Y-66578996D01*
X55219501Y-66472553D01*
X55347553Y-66344501D01*
X55453996Y-66197994D01*
X55536211Y-66036639D01*
X55592171Y-65864409D01*
X55610211Y-65750509D01*
X55617527Y-65704321D01*
X55647456Y-65641186D01*
X55706768Y-65604255D01*
X55776630Y-65605253D01*
X55834863Y-65643863D01*
X55862473Y-65704321D01*
X55887829Y-65864410D01*
X55943787Y-66036636D01*
X55943788Y-66036639D01*
X56026006Y-66197997D01*
X56132441Y-66344494D01*
X56132445Y-66344499D01*
X56260500Y-66472554D01*
X56260505Y-66472558D01*
X56388287Y-66565396D01*
X56407006Y-66578996D01*
X56483094Y-66617765D01*
X56568360Y-66661211D01*
X56568363Y-66661212D01*
X56641953Y-66685122D01*
X56740591Y-66717171D01*
X56823429Y-66730291D01*
X56919449Y-66745500D01*
X56919454Y-66745500D01*
X57100551Y-66745500D01*
X57187259Y-66731765D01*
X57279409Y-66717171D01*
X57451639Y-66661211D01*
X57612994Y-66578996D01*
X57759501Y-66472553D01*
X57887553Y-66344501D01*
X57993996Y-66197994D01*
X58076211Y-66036639D01*
X58093867Y-65982299D01*
X58105127Y-65947643D01*
X59835000Y-65947643D01*
X59835000Y-66105756D01*
X59875923Y-66258483D01*
X59875926Y-66258490D01*
X59954975Y-66395409D01*
X59954979Y-66395414D01*
X59954980Y-66395416D01*
X60066784Y-66507220D01*
X60066786Y-66507221D01*
X60066790Y-66507224D01*
X60191105Y-66578996D01*
X60203716Y-66586277D01*
X60356443Y-66627200D01*
X60356445Y-66627200D01*
X60514555Y-66627200D01*
X60514557Y-66627200D01*
X60667284Y-66586277D01*
X60804216Y-66507220D01*
X60916020Y-66395416D01*
X60995077Y-66258484D01*
X61036000Y-66105757D01*
X61036000Y-65947643D01*
X60995077Y-65794916D01*
X60995073Y-65794909D01*
X60916024Y-65657990D01*
X60916018Y-65657982D01*
X60804217Y-65546181D01*
X60804209Y-65546175D01*
X60667290Y-65467126D01*
X60667286Y-65467124D01*
X60667284Y-65467123D01*
X60514557Y-65426200D01*
X60356443Y-65426200D01*
X60203716Y-65467123D01*
X60203709Y-65467126D01*
X60066790Y-65546175D01*
X60066782Y-65546181D01*
X59954981Y-65657982D01*
X59954975Y-65657990D01*
X59875926Y-65794909D01*
X59875923Y-65794916D01*
X59835000Y-65947643D01*
X58105127Y-65947643D01*
X58120218Y-65901199D01*
X58120218Y-65901198D01*
X58123671Y-65890567D01*
X58132171Y-65864409D01*
X58150211Y-65750509D01*
X58160500Y-65685551D01*
X58160500Y-65504448D01*
X58135480Y-65346484D01*
X58132171Y-65325591D01*
X58076211Y-65153361D01*
X58076211Y-65153360D01*
X58016230Y-65035643D01*
X73455600Y-65035643D01*
X73455600Y-65193757D01*
X73474026Y-65262522D01*
X73496523Y-65346483D01*
X73496526Y-65346490D01*
X73575575Y-65483409D01*
X73575579Y-65483414D01*
X73575580Y-65483416D01*
X73687384Y-65595220D01*
X73687386Y-65595221D01*
X73687390Y-65595224D01*
X73767000Y-65641186D01*
X73824316Y-65674277D01*
X73977043Y-65715200D01*
X73977045Y-65715200D01*
X74135155Y-65715200D01*
X74135157Y-65715200D01*
X74287884Y-65674277D01*
X74424816Y-65595220D01*
X74536620Y-65483416D01*
X74615677Y-65346484D01*
X74627397Y-65302743D01*
X75702600Y-65302743D01*
X75702600Y-65460857D01*
X75741024Y-65604255D01*
X75743523Y-65613583D01*
X75743526Y-65613590D01*
X75822575Y-65750509D01*
X75822579Y-65750514D01*
X75822580Y-65750516D01*
X75934384Y-65862320D01*
X75934386Y-65862321D01*
X75934390Y-65862324D01*
X76001723Y-65901198D01*
X76071316Y-65941377D01*
X76224043Y-65982300D01*
X76224045Y-65982300D01*
X76382155Y-65982300D01*
X76382157Y-65982300D01*
X76534884Y-65941377D01*
X76671816Y-65862320D01*
X76783620Y-65750516D01*
X76862677Y-65613584D01*
X76903600Y-65460857D01*
X76903600Y-65302743D01*
X76862677Y-65150016D01*
X76862673Y-65150009D01*
X76783624Y-65013090D01*
X76783618Y-65013082D01*
X76671817Y-64901281D01*
X76671809Y-64901275D01*
X76534890Y-64822226D01*
X76534886Y-64822224D01*
X76534884Y-64822223D01*
X76382157Y-64781300D01*
X76224043Y-64781300D01*
X76071316Y-64822223D01*
X76071309Y-64822226D01*
X75934390Y-64901275D01*
X75934382Y-64901281D01*
X75822581Y-65013082D01*
X75822575Y-65013090D01*
X75743526Y-65150009D01*
X75743523Y-65150016D01*
X75702600Y-65302743D01*
X74627397Y-65302743D01*
X74656600Y-65193757D01*
X74656600Y-65035643D01*
X74615677Y-64882916D01*
X74615673Y-64882909D01*
X74536624Y-64745990D01*
X74536618Y-64745982D01*
X74424817Y-64634181D01*
X74424809Y-64634175D01*
X74287890Y-64555126D01*
X74287886Y-64555124D01*
X74287884Y-64555123D01*
X74135157Y-64514200D01*
X73977043Y-64514200D01*
X73824316Y-64555123D01*
X73824309Y-64555126D01*
X73687390Y-64634175D01*
X73687382Y-64634181D01*
X73575581Y-64745982D01*
X73575575Y-64745990D01*
X73496526Y-64882909D01*
X73496523Y-64882916D01*
X73455600Y-65035643D01*
X58016230Y-65035643D01*
X57993996Y-64992006D01*
X57928080Y-64901280D01*
X57887558Y-64845505D01*
X57887554Y-64845500D01*
X57759499Y-64717445D01*
X57759494Y-64717441D01*
X57612997Y-64611006D01*
X57612996Y-64611005D01*
X57612994Y-64611004D01*
X57536906Y-64572235D01*
X57451639Y-64528788D01*
X57451636Y-64528787D01*
X57279410Y-64472829D01*
X57100551Y-64444500D01*
X57100546Y-64444500D01*
X56919454Y-64444500D01*
X56919449Y-64444500D01*
X56740589Y-64472829D01*
X56568363Y-64528787D01*
X56568360Y-64528788D01*
X56407002Y-64611006D01*
X56260505Y-64717441D01*
X56260500Y-64717445D01*
X56132445Y-64845500D01*
X56132441Y-64845505D01*
X56026006Y-64992002D01*
X55943788Y-65153360D01*
X55943787Y-65153363D01*
X55887829Y-65325589D01*
X55862473Y-65485678D01*
X55832544Y-65548813D01*
X55773232Y-65585744D01*
X55703369Y-65584746D01*
X55645137Y-65546136D01*
X55617527Y-65485678D01*
X55595480Y-65346484D01*
X55592171Y-65325591D01*
X55536211Y-65153361D01*
X55536211Y-65153360D01*
X55476230Y-65035643D01*
X55453996Y-64992006D01*
X55388080Y-64901280D01*
X55347558Y-64845505D01*
X55347554Y-64845500D01*
X55219499Y-64717445D01*
X55219494Y-64717441D01*
X55072997Y-64611006D01*
X55072996Y-64611005D01*
X55072994Y-64611004D01*
X54996906Y-64572235D01*
X54911639Y-64528788D01*
X54911636Y-64528787D01*
X54739410Y-64472829D01*
X54560551Y-64444500D01*
X54560546Y-64444500D01*
X54379454Y-64444500D01*
X54379449Y-64444500D01*
X54200589Y-64472829D01*
X54028363Y-64528787D01*
X54028360Y-64528788D01*
X53867002Y-64611006D01*
X53720505Y-64717441D01*
X53720500Y-64717445D01*
X53592445Y-64845500D01*
X53592441Y-64845505D01*
X53486006Y-64992002D01*
X53403788Y-65153360D01*
X53403787Y-65153363D01*
X53347829Y-65325589D01*
X53322473Y-65485678D01*
X53292544Y-65548813D01*
X53233232Y-65585744D01*
X53163369Y-65584746D01*
X53105137Y-65546136D01*
X53077527Y-65485678D01*
X53055480Y-65346484D01*
X53052171Y-65325591D01*
X52996211Y-65153361D01*
X52996211Y-65153360D01*
X52936230Y-65035643D01*
X52913996Y-64992006D01*
X52848080Y-64901280D01*
X52807558Y-64845505D01*
X52807554Y-64845500D01*
X52679499Y-64717445D01*
X52679494Y-64717441D01*
X52532997Y-64611006D01*
X52532996Y-64611005D01*
X52532994Y-64611004D01*
X52456906Y-64572235D01*
X52371639Y-64528788D01*
X52371636Y-64528787D01*
X52199410Y-64472829D01*
X52020551Y-64444500D01*
X52020546Y-64444500D01*
X51839454Y-64444500D01*
X51839449Y-64444500D01*
X51660589Y-64472829D01*
X51488363Y-64528787D01*
X51488360Y-64528788D01*
X51327002Y-64611006D01*
X51180505Y-64717441D01*
X51180500Y-64717445D01*
X51052445Y-64845500D01*
X51052441Y-64845505D01*
X50946006Y-64992002D01*
X50863788Y-65153360D01*
X50863787Y-65153363D01*
X50807829Y-65325589D01*
X50782473Y-65485678D01*
X50752544Y-65548813D01*
X50693232Y-65585744D01*
X50623369Y-65584746D01*
X50565137Y-65546136D01*
X50537527Y-65485678D01*
X50515480Y-65346484D01*
X50512171Y-65325591D01*
X50456211Y-65153361D01*
X50456211Y-65153360D01*
X50396230Y-65035643D01*
X50373996Y-64992006D01*
X50308080Y-64901280D01*
X50267558Y-64845505D01*
X50267554Y-64845500D01*
X50139499Y-64717445D01*
X50139494Y-64717441D01*
X49992997Y-64611006D01*
X49992996Y-64611005D01*
X49992994Y-64611004D01*
X49916906Y-64572235D01*
X49831639Y-64528788D01*
X49831636Y-64528787D01*
X49659410Y-64472829D01*
X49480551Y-64444500D01*
X49480546Y-64444500D01*
X49299454Y-64444500D01*
X49299449Y-64444500D01*
X49120589Y-64472829D01*
X48948363Y-64528787D01*
X48948360Y-64528788D01*
X48787002Y-64611006D01*
X48640505Y-64717441D01*
X48640500Y-64717445D01*
X48512445Y-64845500D01*
X48512441Y-64845505D01*
X48406006Y-64992002D01*
X48323788Y-65153360D01*
X48323787Y-65153363D01*
X48267829Y-65325589D01*
X48242473Y-65485678D01*
X48212544Y-65548813D01*
X48153232Y-65585744D01*
X48083369Y-65584746D01*
X48025137Y-65546136D01*
X47997527Y-65485678D01*
X47975480Y-65346484D01*
X47972171Y-65325591D01*
X47916211Y-65153361D01*
X47916211Y-65153360D01*
X47856230Y-65035643D01*
X47833996Y-64992006D01*
X47768080Y-64901280D01*
X47727558Y-64845505D01*
X47727554Y-64845500D01*
X47599499Y-64717445D01*
X47599494Y-64717441D01*
X47452997Y-64611006D01*
X47452996Y-64611005D01*
X47452994Y-64611004D01*
X47376906Y-64572235D01*
X47291639Y-64528788D01*
X47291636Y-64528787D01*
X47119410Y-64472829D01*
X46940551Y-64444500D01*
X46940546Y-64444500D01*
X46759454Y-64444500D01*
X46759449Y-64444500D01*
X46580589Y-64472829D01*
X46408363Y-64528787D01*
X46408360Y-64528788D01*
X46247002Y-64611006D01*
X46100505Y-64717441D01*
X46100500Y-64717445D01*
X45972445Y-64845500D01*
X45972441Y-64845505D01*
X45866006Y-64992002D01*
X45783788Y-65153360D01*
X45783787Y-65153363D01*
X45727829Y-65325589D01*
X45699500Y-65504448D01*
X42920499Y-65504448D01*
X42920499Y-64700136D01*
X42920497Y-64700117D01*
X42917586Y-64675012D01*
X42917585Y-64675010D01*
X42917585Y-64675009D01*
X42872206Y-64572235D01*
X42792765Y-64492794D01*
X42758318Y-64477584D01*
X42689992Y-64447415D01*
X42664865Y-64444500D01*
X40875143Y-64444500D01*
X40875117Y-64444502D01*
X40850012Y-64447413D01*
X40850008Y-64447415D01*
X40747235Y-64492793D01*
X40667794Y-64572234D01*
X40622415Y-64675006D01*
X40622415Y-64675008D01*
X40619500Y-64700131D01*
X40300500Y-64700131D01*
X40300500Y-63374543D01*
X58550900Y-63374543D01*
X58550900Y-63532657D01*
X58588018Y-63671181D01*
X58591823Y-63685383D01*
X58591826Y-63685390D01*
X58670875Y-63822309D01*
X58670881Y-63822317D01*
X58677983Y-63829419D01*
X58711468Y-63890742D01*
X58706484Y-63960434D01*
X58681247Y-63999701D01*
X58681426Y-63999839D01*
X58679783Y-64001979D01*
X58677983Y-64004781D01*
X58676481Y-64006282D01*
X58676475Y-64006290D01*
X58597426Y-64143209D01*
X58597423Y-64143216D01*
X58556500Y-64295943D01*
X58556500Y-64454057D01*
X58588166Y-64572234D01*
X58597423Y-64606783D01*
X58597426Y-64606790D01*
X58676475Y-64743709D01*
X58676479Y-64743714D01*
X58676480Y-64743716D01*
X58788284Y-64855520D01*
X58788286Y-64855521D01*
X58788290Y-64855524D01*
X58867543Y-64901280D01*
X58925216Y-64934577D01*
X59077943Y-64975500D01*
X59077945Y-64975500D01*
X59236055Y-64975500D01*
X59236057Y-64975500D01*
X59388784Y-64934577D01*
X59525716Y-64855520D01*
X59637520Y-64743716D01*
X59716577Y-64606784D01*
X59757500Y-64454057D01*
X59757500Y-64295943D01*
X59722881Y-64166743D01*
X64255400Y-64166743D01*
X64255400Y-64324857D01*
X64290019Y-64454055D01*
X64296323Y-64477583D01*
X64296326Y-64477590D01*
X64375375Y-64614509D01*
X64375379Y-64614514D01*
X64375380Y-64614516D01*
X64487184Y-64726320D01*
X64487186Y-64726321D01*
X64487190Y-64726324D01*
X64582413Y-64781300D01*
X64624116Y-64805377D01*
X64776843Y-64846300D01*
X64776845Y-64846300D01*
X64934955Y-64846300D01*
X64934957Y-64846300D01*
X65087684Y-64805377D01*
X65224616Y-64726320D01*
X65336420Y-64614516D01*
X65415477Y-64477584D01*
X65456400Y-64324857D01*
X65456400Y-64166743D01*
X65415477Y-64014016D01*
X65415473Y-64014009D01*
X65336424Y-63877090D01*
X65336418Y-63877082D01*
X65224617Y-63765281D01*
X65224609Y-63765275D01*
X65087690Y-63686226D01*
X65087686Y-63686224D01*
X65087684Y-63686223D01*
X64934957Y-63645300D01*
X64776843Y-63645300D01*
X64624116Y-63686223D01*
X64624109Y-63686226D01*
X64487190Y-63765275D01*
X64487182Y-63765281D01*
X64375381Y-63877082D01*
X64375375Y-63877090D01*
X64296326Y-64014009D01*
X64296323Y-64014016D01*
X64255400Y-64166743D01*
X59722881Y-64166743D01*
X59716577Y-64143216D01*
X59698021Y-64111076D01*
X59637524Y-64006290D01*
X59637518Y-64006282D01*
X59630417Y-63999181D01*
X59596932Y-63937858D01*
X59601916Y-63868166D01*
X59627152Y-63828898D01*
X59626974Y-63828761D01*
X59628616Y-63826620D01*
X59630417Y-63823819D01*
X59631920Y-63822316D01*
X59710977Y-63685384D01*
X59751900Y-63532657D01*
X59751900Y-63374543D01*
X59710977Y-63221816D01*
X59667172Y-63145943D01*
X69473700Y-63145943D01*
X69473700Y-63304057D01*
X69486145Y-63350500D01*
X69514623Y-63456783D01*
X69514626Y-63456790D01*
X69593675Y-63593709D01*
X69593679Y-63593714D01*
X69593680Y-63593716D01*
X69705484Y-63705520D01*
X69705486Y-63705521D01*
X69705490Y-63705524D01*
X69808992Y-63765280D01*
X69842416Y-63784577D01*
X69995143Y-63825500D01*
X69995145Y-63825500D01*
X70153254Y-63825500D01*
X70153257Y-63825500D01*
X70243079Y-63801432D01*
X70312926Y-63803095D01*
X70370789Y-63842257D01*
X70382554Y-63859202D01*
X70400763Y-63890742D01*
X70417606Y-63919916D01*
X70417780Y-63920216D01*
X70529584Y-64032020D01*
X70529586Y-64032021D01*
X70529590Y-64032024D01*
X70599949Y-64072645D01*
X70666516Y-64111077D01*
X70819243Y-64152000D01*
X70819245Y-64152000D01*
X70977355Y-64152000D01*
X70977357Y-64152000D01*
X71130084Y-64111077D01*
X71196654Y-64072643D01*
X84338600Y-64072643D01*
X84338600Y-64230757D01*
X84363814Y-64324855D01*
X84379523Y-64383483D01*
X84379526Y-64383490D01*
X84458575Y-64520409D01*
X84458579Y-64520414D01*
X84458580Y-64520416D01*
X84570384Y-64632220D01*
X84570386Y-64632221D01*
X84570390Y-64632224D01*
X84687986Y-64700117D01*
X84707316Y-64711277D01*
X84860043Y-64752200D01*
X84860045Y-64752200D01*
X85018155Y-64752200D01*
X85018157Y-64752200D01*
X85170884Y-64711277D01*
X85307816Y-64632220D01*
X85419620Y-64520416D01*
X85498677Y-64383484D01*
X85539600Y-64230757D01*
X85539600Y-64072643D01*
X85498677Y-63919916D01*
X85473947Y-63877082D01*
X85419624Y-63782990D01*
X85419618Y-63782982D01*
X85307817Y-63671181D01*
X85307809Y-63671175D01*
X85170890Y-63592126D01*
X85170886Y-63592124D01*
X85170884Y-63592123D01*
X85018157Y-63551200D01*
X84860043Y-63551200D01*
X84707316Y-63592123D01*
X84707309Y-63592126D01*
X84570390Y-63671175D01*
X84570382Y-63671181D01*
X84458581Y-63782982D01*
X84458575Y-63782990D01*
X84379526Y-63919909D01*
X84379523Y-63919916D01*
X84338600Y-64072643D01*
X71196654Y-64072643D01*
X71267016Y-64032020D01*
X71378820Y-63920216D01*
X71457877Y-63783284D01*
X71498800Y-63630557D01*
X71498800Y-63472443D01*
X71457877Y-63319716D01*
X71448836Y-63304056D01*
X71378824Y-63182790D01*
X71378818Y-63182782D01*
X71267017Y-63070981D01*
X71267009Y-63070975D01*
X71130090Y-62991926D01*
X71130086Y-62991924D01*
X71130084Y-62991923D01*
X70977357Y-62951000D01*
X70819243Y-62951000D01*
X70729423Y-62975067D01*
X70659573Y-62973404D01*
X70601711Y-62934241D01*
X70589942Y-62917291D01*
X70552997Y-62853299D01*
X70536526Y-62785399D01*
X70559378Y-62719372D01*
X70614300Y-62676182D01*
X70660385Y-62667300D01*
X70758055Y-62667300D01*
X70758057Y-62667300D01*
X70910784Y-62626377D01*
X71047716Y-62547320D01*
X71159520Y-62435516D01*
X71238577Y-62298584D01*
X71279500Y-62145857D01*
X71279500Y-61987743D01*
X71274607Y-61969481D01*
X71272044Y-61959915D01*
X71272042Y-61959910D01*
X71265620Y-61935943D01*
X76449500Y-61935943D01*
X76449500Y-62094057D01*
X76482769Y-62218216D01*
X76490423Y-62246783D01*
X76490426Y-62246790D01*
X76569475Y-62383709D01*
X76569479Y-62383714D01*
X76569480Y-62383716D01*
X76681284Y-62495520D01*
X76681286Y-62495521D01*
X76681290Y-62495524D01*
X76771005Y-62547320D01*
X76818216Y-62574577D01*
X76970943Y-62615500D01*
X76970945Y-62615500D01*
X77129055Y-62615500D01*
X77129057Y-62615500D01*
X77281784Y-62574577D01*
X77418716Y-62495520D01*
X77530520Y-62383716D01*
X77537894Y-62370943D01*
X83672700Y-62370943D01*
X83672700Y-62529057D01*
X83706925Y-62656784D01*
X83713623Y-62681783D01*
X83713626Y-62681790D01*
X83792675Y-62818709D01*
X83792679Y-62818714D01*
X83792680Y-62818716D01*
X83904484Y-62930520D01*
X83904486Y-62930521D01*
X83904490Y-62930524D01*
X84039490Y-63008465D01*
X84041416Y-63009577D01*
X84194143Y-63050500D01*
X84194145Y-63050500D01*
X84352255Y-63050500D01*
X84352257Y-63050500D01*
X84504984Y-63009577D01*
X84641916Y-62930520D01*
X84686493Y-62885943D01*
X106123800Y-62885943D01*
X106123800Y-63044057D01*
X106160974Y-63182790D01*
X106164723Y-63196783D01*
X106164726Y-63196790D01*
X106243775Y-63333709D01*
X106243781Y-63333717D01*
X106339533Y-63429469D01*
X106373018Y-63490792D01*
X106368034Y-63560484D01*
X106339533Y-63604831D01*
X106253981Y-63690382D01*
X106253975Y-63690390D01*
X106174926Y-63827309D01*
X106174923Y-63827316D01*
X106134000Y-63980043D01*
X106134000Y-64138157D01*
X106148082Y-64190709D01*
X106174923Y-64290883D01*
X106174926Y-64290890D01*
X106253975Y-64427809D01*
X106253979Y-64427814D01*
X106253980Y-64427816D01*
X106365784Y-64539620D01*
X106365786Y-64539621D01*
X106365790Y-64539624D01*
X106502709Y-64618673D01*
X106502716Y-64618677D01*
X106655443Y-64659600D01*
X106655445Y-64659600D01*
X106813555Y-64659600D01*
X106813557Y-64659600D01*
X106966284Y-64618677D01*
X107103216Y-64539620D01*
X107215020Y-64427816D01*
X107294077Y-64290884D01*
X107335000Y-64138157D01*
X107335000Y-63980043D01*
X107294077Y-63827316D01*
X107268659Y-63783290D01*
X107215024Y-63690390D01*
X107215018Y-63690382D01*
X107119267Y-63594631D01*
X107085782Y-63533308D01*
X107090766Y-63463616D01*
X107119267Y-63419269D01*
X107204820Y-63333716D01*
X107283877Y-63196784D01*
X107324800Y-63044057D01*
X107324800Y-62885943D01*
X107283877Y-62733216D01*
X107272008Y-62712658D01*
X107204824Y-62596290D01*
X107204818Y-62596282D01*
X107093017Y-62484481D01*
X107093012Y-62484477D01*
X107055128Y-62462605D01*
X107055127Y-62462605D01*
X106956084Y-62405423D01*
X106803357Y-62364500D01*
X106645243Y-62364500D01*
X106492516Y-62405423D01*
X106492509Y-62405426D01*
X106355590Y-62484475D01*
X106355582Y-62484481D01*
X106243781Y-62596282D01*
X106243775Y-62596290D01*
X106164726Y-62733209D01*
X106164723Y-62733216D01*
X106123800Y-62885943D01*
X84686493Y-62885943D01*
X84753720Y-62818716D01*
X84754328Y-62817662D01*
X84755396Y-62815814D01*
X84796580Y-62744480D01*
X84832777Y-62681784D01*
X84873700Y-62529057D01*
X84873700Y-62370943D01*
X84871117Y-62361304D01*
X114524500Y-62361304D01*
X114524500Y-62538695D01*
X114559103Y-62712658D01*
X114559106Y-62712667D01*
X114626983Y-62876540D01*
X114626990Y-62876553D01*
X114725535Y-63024034D01*
X114725538Y-63024038D01*
X114850961Y-63149461D01*
X114850965Y-63149464D01*
X114998446Y-63248009D01*
X114998459Y-63248016D01*
X115121363Y-63298923D01*
X115162334Y-63315894D01*
X115162336Y-63315894D01*
X115162341Y-63315896D01*
X115336304Y-63350499D01*
X115336307Y-63350500D01*
X115336309Y-63350500D01*
X116063693Y-63350500D01*
X116063694Y-63350499D01*
X116121682Y-63338964D01*
X116237658Y-63315896D01*
X116237661Y-63315894D01*
X116237666Y-63315894D01*
X116401547Y-63248013D01*
X116549035Y-63149464D01*
X116674464Y-63024035D01*
X116773013Y-62876547D01*
X116840894Y-62712666D01*
X116850292Y-62665423D01*
X116873783Y-62547324D01*
X116875500Y-62538691D01*
X116875500Y-62361309D01*
X116875500Y-62361306D01*
X116875499Y-62361304D01*
X116840896Y-62187341D01*
X116840893Y-62187332D01*
X116773016Y-62023459D01*
X116773009Y-62023446D01*
X116674464Y-61875965D01*
X116674461Y-61875961D01*
X116549038Y-61750538D01*
X116549034Y-61750535D01*
X116401553Y-61651990D01*
X116401540Y-61651983D01*
X116237667Y-61584106D01*
X116237658Y-61584103D01*
X116063694Y-61549500D01*
X116063691Y-61549500D01*
X115336309Y-61549500D01*
X115336306Y-61549500D01*
X115162341Y-61584103D01*
X115162332Y-61584106D01*
X114998459Y-61651983D01*
X114998446Y-61651990D01*
X114850965Y-61750535D01*
X114850961Y-61750538D01*
X114725538Y-61875961D01*
X114725535Y-61875965D01*
X114626990Y-62023446D01*
X114626983Y-62023459D01*
X114559106Y-62187332D01*
X114559103Y-62187341D01*
X114524500Y-62361304D01*
X84871117Y-62361304D01*
X84832777Y-62218216D01*
X84822548Y-62200499D01*
X84753724Y-62081290D01*
X84753718Y-62081282D01*
X84641917Y-61969481D01*
X84641909Y-61969475D01*
X84504990Y-61890426D01*
X84504986Y-61890424D01*
X84504984Y-61890423D01*
X84352257Y-61849500D01*
X84194143Y-61849500D01*
X84041416Y-61890423D01*
X84041409Y-61890426D01*
X83904490Y-61969475D01*
X83904482Y-61969481D01*
X83792681Y-62081282D01*
X83792675Y-62081290D01*
X83713626Y-62218209D01*
X83713623Y-62218216D01*
X83672700Y-62370943D01*
X77537894Y-62370943D01*
X77609577Y-62246784D01*
X77650500Y-62094057D01*
X77650500Y-61935943D01*
X77609577Y-61783216D01*
X77590711Y-61750538D01*
X77530524Y-61646290D01*
X77530518Y-61646282D01*
X77418717Y-61534481D01*
X77418709Y-61534475D01*
X77281790Y-61455426D01*
X77281786Y-61455424D01*
X77281784Y-61455423D01*
X77129057Y-61414500D01*
X76970943Y-61414500D01*
X76818216Y-61455423D01*
X76818209Y-61455426D01*
X76681290Y-61534475D01*
X76681282Y-61534481D01*
X76569481Y-61646282D01*
X76569475Y-61646290D01*
X76490426Y-61783209D01*
X76490423Y-61783216D01*
X76449500Y-61935943D01*
X71265620Y-61935943D01*
X71249032Y-61874035D01*
X71238577Y-61835016D01*
X71208671Y-61783216D01*
X71159524Y-61698090D01*
X71159518Y-61698082D01*
X71047717Y-61586281D01*
X71047709Y-61586275D01*
X70910790Y-61507226D01*
X70910786Y-61507224D01*
X70910784Y-61507223D01*
X70758057Y-61466300D01*
X70599943Y-61466300D01*
X70447216Y-61507223D01*
X70447209Y-61507226D01*
X70310290Y-61586275D01*
X70310282Y-61586281D01*
X70198481Y-61698082D01*
X70198475Y-61698090D01*
X70119426Y-61835009D01*
X70119424Y-61835014D01*
X70119423Y-61835016D01*
X70078500Y-61987743D01*
X70078500Y-62145857D01*
X70105544Y-62246784D01*
X70119423Y-62298583D01*
X70119423Y-62298584D01*
X70200203Y-62438501D01*
X70216675Y-62506401D01*
X70193822Y-62572428D01*
X70138900Y-62615618D01*
X70092815Y-62624500D01*
X69995143Y-62624500D01*
X69842416Y-62665423D01*
X69842409Y-62665426D01*
X69705490Y-62744475D01*
X69705482Y-62744481D01*
X69593681Y-62856282D01*
X69593675Y-62856290D01*
X69514626Y-62993209D01*
X69514623Y-62993216D01*
X69473700Y-63145943D01*
X59667172Y-63145943D01*
X59631920Y-63084884D01*
X59571772Y-63024736D01*
X59565884Y-63016538D01*
X59557529Y-62992713D01*
X59545432Y-62970558D01*
X59546165Y-62960303D01*
X59542764Y-62950604D01*
X59548615Y-62926048D01*
X59550416Y-62900866D01*
X59557090Y-62890481D01*
X59558959Y-62882638D01*
X59567257Y-62874660D01*
X59578917Y-62856519D01*
X59588717Y-62846719D01*
X59641720Y-62793716D01*
X59720777Y-62656784D01*
X59761700Y-62504057D01*
X59761700Y-62345943D01*
X59720777Y-62193216D01*
X59693434Y-62145856D01*
X59641724Y-62056290D01*
X59641718Y-62056282D01*
X59529917Y-61944481D01*
X59529909Y-61944475D01*
X59392990Y-61865426D01*
X59392986Y-61865424D01*
X59392984Y-61865423D01*
X59240257Y-61824500D01*
X59082143Y-61824500D01*
X58929416Y-61865423D01*
X58929409Y-61865426D01*
X58792490Y-61944475D01*
X58792482Y-61944481D01*
X58680681Y-62056282D01*
X58680675Y-62056290D01*
X58601626Y-62193209D01*
X58601623Y-62193216D01*
X58560700Y-62345943D01*
X58560700Y-62504057D01*
X58593476Y-62626377D01*
X58601623Y-62656783D01*
X58601626Y-62656790D01*
X58680675Y-62793709D01*
X58680681Y-62793717D01*
X58733683Y-62846719D01*
X58767168Y-62908042D01*
X58762184Y-62977734D01*
X58733683Y-63022081D01*
X58670881Y-63084882D01*
X58670875Y-63084890D01*
X58591826Y-63221809D01*
X58591823Y-63221816D01*
X58550900Y-63374543D01*
X40300500Y-63374543D01*
X40300500Y-58906898D01*
X50774500Y-58906898D01*
X50774500Y-59693102D01*
X50777046Y-59714300D01*
X50785122Y-59781561D01*
X50785122Y-59781563D01*
X50785123Y-59781564D01*
X50785436Y-59782357D01*
X50840639Y-59922343D01*
X50932077Y-60042922D01*
X51052656Y-60134360D01*
X51052657Y-60134360D01*
X51052658Y-60134361D01*
X51193436Y-60189877D01*
X51281898Y-60200500D01*
X51281903Y-60200500D01*
X51352920Y-60200500D01*
X51419959Y-60220185D01*
X51465714Y-60272989D01*
X51475658Y-60342147D01*
X51446633Y-60405703D01*
X51400372Y-60439060D01*
X51395932Y-60440900D01*
X51248458Y-60501983D01*
X51248446Y-60501990D01*
X51100965Y-60600535D01*
X51100961Y-60600538D01*
X50975538Y-60725961D01*
X50975535Y-60725965D01*
X50876990Y-60873446D01*
X50876983Y-60873459D01*
X50809106Y-61037332D01*
X50809103Y-61037341D01*
X50774500Y-61211304D01*
X50774500Y-61388695D01*
X50809103Y-61562658D01*
X50809106Y-61562667D01*
X50876983Y-61726540D01*
X50876990Y-61726553D01*
X50975535Y-61874034D01*
X50975538Y-61874038D01*
X51100961Y-61999461D01*
X51100965Y-61999464D01*
X51248446Y-62098009D01*
X51248459Y-62098016D01*
X51363955Y-62145855D01*
X51412334Y-62165894D01*
X51412336Y-62165894D01*
X51412341Y-62165896D01*
X51586304Y-62200499D01*
X51586307Y-62200500D01*
X51586309Y-62200500D01*
X52313693Y-62200500D01*
X52313694Y-62200499D01*
X52379891Y-62187332D01*
X52487658Y-62165896D01*
X52487661Y-62165894D01*
X52487666Y-62165894D01*
X52651547Y-62098013D01*
X52799035Y-61999464D01*
X52924464Y-61874035D01*
X53023013Y-61726547D01*
X53090894Y-61562666D01*
X53096501Y-61534481D01*
X53125499Y-61388695D01*
X53125500Y-61388693D01*
X53125500Y-61211306D01*
X53125499Y-61211304D01*
X53090896Y-61037341D01*
X53090894Y-61037338D01*
X53090894Y-61037334D01*
X53059832Y-60962343D01*
X68654800Y-60962343D01*
X68654800Y-61120457D01*
X68679143Y-61211304D01*
X68695723Y-61273183D01*
X68695726Y-61273190D01*
X68774775Y-61410109D01*
X68774779Y-61410114D01*
X68774780Y-61410116D01*
X68886584Y-61521920D01*
X68886586Y-61521921D01*
X68886590Y-61521924D01*
X69023509Y-61600973D01*
X69023516Y-61600977D01*
X69176243Y-61641900D01*
X69176245Y-61641900D01*
X69334355Y-61641900D01*
X69334357Y-61641900D01*
X69487084Y-61600977D01*
X69624016Y-61521920D01*
X69735820Y-61410116D01*
X69814877Y-61273184D01*
X69855800Y-61120457D01*
X69855800Y-60962343D01*
X69814877Y-60809616D01*
X69766582Y-60725965D01*
X69735824Y-60672690D01*
X69735818Y-60672682D01*
X69624017Y-60560881D01*
X69624009Y-60560875D01*
X69487090Y-60481826D01*
X69487086Y-60481824D01*
X69487084Y-60481823D01*
X69334357Y-60440900D01*
X69176243Y-60440900D01*
X69023516Y-60481823D01*
X69023509Y-60481826D01*
X68886590Y-60560875D01*
X68886582Y-60560881D01*
X68774781Y-60672682D01*
X68774775Y-60672690D01*
X68695726Y-60809609D01*
X68695723Y-60809616D01*
X68654800Y-60962343D01*
X53059832Y-60962343D01*
X53048077Y-60933965D01*
X53023016Y-60873459D01*
X53023009Y-60873446D01*
X52924464Y-60725965D01*
X52924461Y-60725961D01*
X52799038Y-60600538D01*
X52799034Y-60600535D01*
X52651553Y-60501990D01*
X52651541Y-60501983D01*
X52504068Y-60440900D01*
X52499627Y-60439060D01*
X52445224Y-60395221D01*
X52423159Y-60328927D01*
X52440438Y-60261227D01*
X52491575Y-60213617D01*
X52547080Y-60200500D01*
X52618097Y-60200500D01*
X52618102Y-60200500D01*
X52706564Y-60189877D01*
X52847342Y-60134361D01*
X52966312Y-60044143D01*
X62769900Y-60044143D01*
X62769900Y-60202257D01*
X62807384Y-60342147D01*
X62810823Y-60354983D01*
X62810826Y-60354990D01*
X62889875Y-60491909D01*
X62889879Y-60491914D01*
X62889880Y-60491916D01*
X63001684Y-60603720D01*
X63001686Y-60603721D01*
X63001690Y-60603724D01*
X63138609Y-60682773D01*
X63138616Y-60682777D01*
X63291343Y-60723700D01*
X63291345Y-60723700D01*
X63449455Y-60723700D01*
X63449457Y-60723700D01*
X63602184Y-60682777D01*
X63739116Y-60603720D01*
X63850920Y-60491916D01*
X63929977Y-60354984D01*
X63970900Y-60202257D01*
X63970900Y-60044143D01*
X63929977Y-59891416D01*
X63889850Y-59821913D01*
X63858748Y-59768043D01*
X70685200Y-59768043D01*
X70685200Y-59926157D01*
X70723855Y-60070417D01*
X70726123Y-60078883D01*
X70726126Y-60078890D01*
X70805175Y-60215809D01*
X70805179Y-60215814D01*
X70805180Y-60215816D01*
X70916984Y-60327620D01*
X70916986Y-60327621D01*
X70916990Y-60327624D01*
X71003859Y-60377777D01*
X71053916Y-60406677D01*
X71206643Y-60447600D01*
X71206645Y-60447600D01*
X71364755Y-60447600D01*
X71364757Y-60447600D01*
X71517484Y-60406677D01*
X71654416Y-60327620D01*
X71746293Y-60235743D01*
X75351200Y-60235743D01*
X75351200Y-60393857D01*
X75380174Y-60501987D01*
X75392123Y-60546583D01*
X75392126Y-60546590D01*
X75471175Y-60683509D01*
X75471179Y-60683514D01*
X75471180Y-60683516D01*
X75582984Y-60795320D01*
X75582986Y-60795321D01*
X75582990Y-60795324D01*
X75718326Y-60873459D01*
X75719916Y-60874377D01*
X75872643Y-60915300D01*
X75872645Y-60915300D01*
X76030755Y-60915300D01*
X76030757Y-60915300D01*
X76183484Y-60874377D01*
X76320416Y-60795320D01*
X76432220Y-60683516D01*
X76511277Y-60546584D01*
X76552200Y-60393857D01*
X76552200Y-60235743D01*
X76511277Y-60083016D01*
X76504003Y-60070417D01*
X76432224Y-59946090D01*
X76432218Y-59946082D01*
X76320417Y-59834281D01*
X76320409Y-59834275D01*
X76183490Y-59755226D01*
X76183486Y-59755224D01*
X76183484Y-59755223D01*
X76030757Y-59714300D01*
X75872643Y-59714300D01*
X75719916Y-59755223D01*
X75719909Y-59755226D01*
X75582990Y-59834275D01*
X75582982Y-59834281D01*
X75471181Y-59946082D01*
X75471175Y-59946090D01*
X75392126Y-60083009D01*
X75392123Y-60083016D01*
X75351200Y-60235743D01*
X71746293Y-60235743D01*
X71766220Y-60215816D01*
X71782909Y-60186909D01*
X71795200Y-60165621D01*
X71795202Y-60165617D01*
X71845277Y-60078884D01*
X71886200Y-59926157D01*
X71886200Y-59768043D01*
X71847669Y-59624243D01*
X82232000Y-59624243D01*
X82232000Y-59782357D01*
X82272495Y-59933484D01*
X82272923Y-59935083D01*
X82272926Y-59935090D01*
X82351975Y-60072009D01*
X82351979Y-60072014D01*
X82351980Y-60072016D01*
X82463784Y-60183820D01*
X82463786Y-60183821D01*
X82463790Y-60183824D01*
X82573169Y-60246973D01*
X82600716Y-60262877D01*
X82753443Y-60303800D01*
X82753445Y-60303800D01*
X82911555Y-60303800D01*
X82911557Y-60303800D01*
X83064284Y-60262877D01*
X83201216Y-60183820D01*
X83313020Y-60072016D01*
X83392077Y-59935084D01*
X83433000Y-59782357D01*
X83433000Y-59624243D01*
X83428740Y-59608343D01*
X84306000Y-59608343D01*
X84306000Y-59766457D01*
X84346135Y-59916241D01*
X84346923Y-59919183D01*
X84346926Y-59919190D01*
X84425975Y-60056109D01*
X84425979Y-60056114D01*
X84425980Y-60056116D01*
X84537784Y-60167920D01*
X84537786Y-60167921D01*
X84537790Y-60167924D01*
X84628310Y-60220185D01*
X84674716Y-60246977D01*
X84827443Y-60287900D01*
X84827445Y-60287900D01*
X84985555Y-60287900D01*
X84985557Y-60287900D01*
X85138284Y-60246977D01*
X85275216Y-60167920D01*
X85387020Y-60056116D01*
X85466077Y-59919184D01*
X85507000Y-59766457D01*
X85507000Y-59622643D01*
X96217400Y-59622643D01*
X96217400Y-59780757D01*
X96257229Y-59929399D01*
X96258323Y-59933483D01*
X96258326Y-59933490D01*
X96337375Y-60070409D01*
X96337379Y-60070414D01*
X96337380Y-60070416D01*
X96449184Y-60182220D01*
X96449186Y-60182221D01*
X96449190Y-60182224D01*
X96561347Y-60246977D01*
X96586116Y-60261277D01*
X96738843Y-60302200D01*
X96738845Y-60302200D01*
X96896955Y-60302200D01*
X96896957Y-60302200D01*
X97049684Y-60261277D01*
X97186616Y-60182220D01*
X97298420Y-60070416D01*
X97377477Y-59933484D01*
X97418400Y-59780757D01*
X97418400Y-59739143D01*
X104886000Y-59739143D01*
X104886000Y-59897257D01*
X104925359Y-60044145D01*
X104926923Y-60049983D01*
X104926926Y-60049990D01*
X105005975Y-60186909D01*
X105005979Y-60186914D01*
X105005980Y-60186916D01*
X105117784Y-60298720D01*
X105117786Y-60298721D01*
X105117790Y-60298724D01*
X105193002Y-60342147D01*
X105254716Y-60377777D01*
X105407443Y-60418700D01*
X105407445Y-60418700D01*
X105565555Y-60418700D01*
X105565557Y-60418700D01*
X105718284Y-60377777D01*
X105855216Y-60298720D01*
X105967020Y-60186916D01*
X106046077Y-60049984D01*
X106087000Y-59897257D01*
X106087000Y-59739143D01*
X106046077Y-59586416D01*
X105983709Y-59478390D01*
X105967024Y-59449490D01*
X105967018Y-59449482D01*
X105855217Y-59337681D01*
X105855209Y-59337675D01*
X105718290Y-59258626D01*
X105718286Y-59258624D01*
X105718284Y-59258623D01*
X105565557Y-59217700D01*
X105407443Y-59217700D01*
X105254716Y-59258623D01*
X105254709Y-59258626D01*
X105117790Y-59337675D01*
X105117782Y-59337681D01*
X105005981Y-59449482D01*
X105005975Y-59449490D01*
X104926926Y-59586409D01*
X104926923Y-59586416D01*
X104886000Y-59739143D01*
X97418400Y-59739143D01*
X97418400Y-59622643D01*
X97377477Y-59469916D01*
X97365680Y-59449482D01*
X97298424Y-59332990D01*
X97298418Y-59332982D01*
X97186617Y-59221181D01*
X97186609Y-59221175D01*
X97049690Y-59142126D01*
X97049686Y-59142124D01*
X97049684Y-59142123D01*
X96896957Y-59101200D01*
X96738843Y-59101200D01*
X96586116Y-59142123D01*
X96586109Y-59142126D01*
X96449190Y-59221175D01*
X96449182Y-59221181D01*
X96337381Y-59332982D01*
X96337375Y-59332990D01*
X96258326Y-59469909D01*
X96258323Y-59469916D01*
X96217400Y-59622643D01*
X85507000Y-59622643D01*
X85507000Y-59608343D01*
X85466077Y-59455616D01*
X85462536Y-59449482D01*
X85387024Y-59318690D01*
X85387018Y-59318682D01*
X85275217Y-59206881D01*
X85275209Y-59206875D01*
X85138290Y-59127826D01*
X85138286Y-59127824D01*
X85138284Y-59127823D01*
X84985557Y-59086900D01*
X84827443Y-59086900D01*
X84674716Y-59127823D01*
X84674709Y-59127826D01*
X84537790Y-59206875D01*
X84537782Y-59206881D01*
X84425981Y-59318682D01*
X84425975Y-59318690D01*
X84346926Y-59455609D01*
X84346923Y-59455616D01*
X84306000Y-59608343D01*
X83428740Y-59608343D01*
X83392077Y-59471516D01*
X83382893Y-59455609D01*
X83313024Y-59334590D01*
X83313018Y-59334582D01*
X83201217Y-59222781D01*
X83201209Y-59222775D01*
X83064290Y-59143726D01*
X83064286Y-59143724D01*
X83064284Y-59143723D01*
X82911557Y-59102800D01*
X82753443Y-59102800D01*
X82600716Y-59143723D01*
X82600709Y-59143726D01*
X82463790Y-59222775D01*
X82463782Y-59222781D01*
X82351981Y-59334582D01*
X82351975Y-59334590D01*
X82272926Y-59471509D01*
X82272923Y-59471516D01*
X82232000Y-59624243D01*
X71847669Y-59624243D01*
X71845277Y-59615316D01*
X71815434Y-59563626D01*
X71766224Y-59478390D01*
X71766218Y-59478382D01*
X71654417Y-59366581D01*
X71654409Y-59366575D01*
X71517490Y-59287526D01*
X71517486Y-59287524D01*
X71517484Y-59287523D01*
X71364757Y-59246600D01*
X71206643Y-59246600D01*
X71053916Y-59287523D01*
X71053909Y-59287526D01*
X70916990Y-59366575D01*
X70916982Y-59366581D01*
X70805181Y-59478382D01*
X70805175Y-59478390D01*
X70726126Y-59615309D01*
X70726123Y-59615316D01*
X70685200Y-59768043D01*
X63858748Y-59768043D01*
X63850922Y-59754487D01*
X63850918Y-59754482D01*
X63739117Y-59642681D01*
X63739109Y-59642675D01*
X63602190Y-59563626D01*
X63602186Y-59563624D01*
X63602184Y-59563623D01*
X63449457Y-59522700D01*
X63291343Y-59522700D01*
X63138616Y-59563623D01*
X63138609Y-59563626D01*
X63001690Y-59642675D01*
X63001682Y-59642681D01*
X62889881Y-59754482D01*
X62889875Y-59754490D01*
X62810826Y-59891409D01*
X62810823Y-59891416D01*
X62769900Y-60044143D01*
X52966312Y-60044143D01*
X52967922Y-60042922D01*
X53059361Y-59922342D01*
X53114877Y-59781564D01*
X53125500Y-59693102D01*
X53125500Y-59249843D01*
X55704500Y-59249843D01*
X55704500Y-59407957D01*
X55735246Y-59522700D01*
X55745423Y-59560683D01*
X55745426Y-59560690D01*
X55824475Y-59697609D01*
X55824479Y-59697614D01*
X55824480Y-59697616D01*
X55936284Y-59809420D01*
X55936286Y-59809421D01*
X55936290Y-59809424D01*
X56073209Y-59888473D01*
X56073216Y-59888477D01*
X56225943Y-59929400D01*
X56225945Y-59929400D01*
X56384055Y-59929400D01*
X56384057Y-59929400D01*
X56536784Y-59888477D01*
X56673716Y-59809420D01*
X56785520Y-59697616D01*
X56864577Y-59560684D01*
X56905500Y-59407957D01*
X56905500Y-59249843D01*
X56864577Y-59097116D01*
X56809720Y-59002100D01*
X56785524Y-58960190D01*
X56785518Y-58960182D01*
X56673717Y-58848381D01*
X56673709Y-58848375D01*
X56536790Y-58769326D01*
X56536786Y-58769324D01*
X56536784Y-58769323D01*
X56384057Y-58728400D01*
X56225943Y-58728400D01*
X56073216Y-58769323D01*
X56073209Y-58769326D01*
X55936290Y-58848375D01*
X55936282Y-58848381D01*
X55824481Y-58960182D01*
X55824475Y-58960190D01*
X55745426Y-59097109D01*
X55745423Y-59097116D01*
X55704500Y-59249843D01*
X53125500Y-59249843D01*
X53125500Y-58906898D01*
X53114877Y-58818436D01*
X53059361Y-58677658D01*
X53059360Y-58677657D01*
X53059360Y-58677656D01*
X52967922Y-58557077D01*
X52847343Y-58465639D01*
X52812156Y-58451763D01*
X52756384Y-58429769D01*
X52756383Y-58429768D01*
X52706565Y-58410123D01*
X52691820Y-58408352D01*
X52618102Y-58399500D01*
X51281898Y-58399500D01*
X51242853Y-58404188D01*
X51193438Y-58410122D01*
X51052656Y-58465639D01*
X50932077Y-58557077D01*
X50840639Y-58677656D01*
X50785122Y-58818438D01*
X50781527Y-58848380D01*
X50774500Y-58906898D01*
X40300500Y-58906898D01*
X40300500Y-58322543D01*
X88555700Y-58322543D01*
X88555700Y-58480656D01*
X88596623Y-58633383D01*
X88596626Y-58633390D01*
X88675675Y-58770309D01*
X88675679Y-58770314D01*
X88675680Y-58770316D01*
X88787484Y-58882120D01*
X88787486Y-58882121D01*
X88787490Y-58882124D01*
X88922693Y-58960182D01*
X88924416Y-58961177D01*
X89077143Y-59002100D01*
X89077145Y-59002100D01*
X89235255Y-59002100D01*
X89235257Y-59002100D01*
X89387984Y-58961177D01*
X89524916Y-58882120D01*
X89636720Y-58770316D01*
X89715777Y-58633384D01*
X89756700Y-58480657D01*
X89756700Y-58322543D01*
X89715777Y-58169816D01*
X89697235Y-58137700D01*
X89636724Y-58032890D01*
X89636718Y-58032882D01*
X89524917Y-57921081D01*
X89524909Y-57921075D01*
X89387990Y-57842026D01*
X89387986Y-57842024D01*
X89387984Y-57842023D01*
X89235257Y-57801100D01*
X89077143Y-57801100D01*
X88924416Y-57842023D01*
X88924409Y-57842026D01*
X88787490Y-57921075D01*
X88787482Y-57921081D01*
X88675681Y-58032882D01*
X88675675Y-58032890D01*
X88596626Y-58169809D01*
X88596623Y-58169816D01*
X88555700Y-58322543D01*
X40300500Y-58322543D01*
X40300500Y-57458143D01*
X78065000Y-57458143D01*
X78065000Y-57616257D01*
X78070788Y-57637856D01*
X78105923Y-57768983D01*
X78105926Y-57768990D01*
X78184975Y-57905909D01*
X78184979Y-57905914D01*
X78184980Y-57905916D01*
X78296784Y-58017720D01*
X78296786Y-58017721D01*
X78296790Y-58017724D01*
X78433709Y-58096773D01*
X78433716Y-58096777D01*
X78586443Y-58137700D01*
X78586445Y-58137700D01*
X78744555Y-58137700D01*
X78744557Y-58137700D01*
X78897284Y-58096777D01*
X78985694Y-58045733D01*
X79053593Y-58029261D01*
X79109692Y-58045734D01*
X79198103Y-58096777D01*
X79235516Y-58118377D01*
X79388243Y-58159300D01*
X79388245Y-58159300D01*
X79546355Y-58159300D01*
X79546357Y-58159300D01*
X79699084Y-58118377D01*
X79836016Y-58039320D01*
X79947820Y-57927516D01*
X80026877Y-57790584D01*
X80067800Y-57637857D01*
X80067800Y-57479743D01*
X80026877Y-57327016D01*
X79992237Y-57267017D01*
X79947824Y-57190090D01*
X79947818Y-57190082D01*
X79836017Y-57078281D01*
X79836009Y-57078275D01*
X79699090Y-56999226D01*
X79699086Y-56999224D01*
X79699084Y-56999223D01*
X79546357Y-56958300D01*
X79388243Y-56958300D01*
X79235516Y-56999223D01*
X79235515Y-56999223D01*
X79147105Y-57050266D01*
X79079204Y-57066737D01*
X79023107Y-57050266D01*
X78897284Y-56977623D01*
X78825169Y-56958300D01*
X78744557Y-56936700D01*
X78586443Y-56936700D01*
X78433716Y-56977623D01*
X78433709Y-56977626D01*
X78296790Y-57056675D01*
X78296782Y-57056681D01*
X78184981Y-57168482D01*
X78184975Y-57168490D01*
X78105926Y-57305409D01*
X78105923Y-57305416D01*
X78065000Y-57458143D01*
X40300500Y-57458143D01*
X40300500Y-56819243D01*
X106322400Y-56819243D01*
X106322400Y-56977357D01*
X106349443Y-57078281D01*
X106363323Y-57130083D01*
X106363326Y-57130090D01*
X106442375Y-57267009D01*
X106442379Y-57267014D01*
X106442380Y-57267016D01*
X106554184Y-57378820D01*
X106554186Y-57378821D01*
X106554190Y-57378824D01*
X106691109Y-57457873D01*
X106691116Y-57457877D01*
X106843843Y-57498800D01*
X106843845Y-57498800D01*
X107001955Y-57498800D01*
X107001957Y-57498800D01*
X107154684Y-57457877D01*
X107291616Y-57378820D01*
X107403420Y-57267016D01*
X107482477Y-57130084D01*
X107523400Y-56977357D01*
X107523400Y-56819243D01*
X107482477Y-56666516D01*
X107430633Y-56576718D01*
X107403424Y-56529590D01*
X107403418Y-56529582D01*
X107291617Y-56417781D01*
X107291609Y-56417775D01*
X107154690Y-56338726D01*
X107154686Y-56338724D01*
X107154684Y-56338723D01*
X107001957Y-56297800D01*
X106843843Y-56297800D01*
X106691116Y-56338723D01*
X106691109Y-56338726D01*
X106554190Y-56417775D01*
X106554182Y-56417781D01*
X106442381Y-56529582D01*
X106442375Y-56529590D01*
X106363326Y-56666509D01*
X106363323Y-56666516D01*
X106322400Y-56819243D01*
X40300500Y-56819243D01*
X40300500Y-55727943D01*
X53394100Y-55727943D01*
X53394100Y-55886057D01*
X53434177Y-56035624D01*
X53435023Y-56038783D01*
X53435026Y-56038790D01*
X53514075Y-56175709D01*
X53514079Y-56175714D01*
X53514080Y-56175716D01*
X53625884Y-56287520D01*
X53625886Y-56287521D01*
X53625890Y-56287524D01*
X53723671Y-56343977D01*
X53762816Y-56366577D01*
X53915543Y-56407500D01*
X53915545Y-56407500D01*
X54073655Y-56407500D01*
X54073657Y-56407500D01*
X54226384Y-56366577D01*
X54363316Y-56287520D01*
X54475120Y-56175716D01*
X54554177Y-56038784D01*
X54595100Y-55886057D01*
X54595100Y-55727943D01*
X54554177Y-55575216D01*
X54541125Y-55552609D01*
X54475124Y-55438290D01*
X54475118Y-55438282D01*
X54363317Y-55326481D01*
X54363309Y-55326475D01*
X54305922Y-55293343D01*
X57968400Y-55293343D01*
X57968400Y-55451457D01*
X58007957Y-55599084D01*
X58009323Y-55604183D01*
X58009326Y-55604190D01*
X58088375Y-55741109D01*
X58088379Y-55741114D01*
X58088380Y-55741116D01*
X58200184Y-55852920D01*
X58200186Y-55852921D01*
X58200190Y-55852924D01*
X58328281Y-55926876D01*
X58337116Y-55931977D01*
X58489843Y-55972900D01*
X58489845Y-55972900D01*
X58647955Y-55972900D01*
X58647957Y-55972900D01*
X58800684Y-55931977D01*
X58937616Y-55852920D01*
X59049420Y-55741116D01*
X59128477Y-55604184D01*
X59160267Y-55485543D01*
X60925800Y-55485543D01*
X60925800Y-55643657D01*
X60964178Y-55786884D01*
X60966723Y-55796383D01*
X60966726Y-55796390D01*
X61045775Y-55933309D01*
X61045779Y-55933314D01*
X61045780Y-55933316D01*
X61157584Y-56045120D01*
X61157586Y-56045121D01*
X61157590Y-56045124D01*
X61278061Y-56114677D01*
X61294516Y-56124177D01*
X61447243Y-56165100D01*
X61447245Y-56165100D01*
X61605355Y-56165100D01*
X61605357Y-56165100D01*
X61758084Y-56124177D01*
X61895016Y-56045120D01*
X62006820Y-55933316D01*
X62085877Y-55796384D01*
X62126800Y-55643657D01*
X62126800Y-55485543D01*
X62124254Y-55476043D01*
X67633900Y-55476043D01*
X67633900Y-55634157D01*
X67661194Y-55736017D01*
X67674823Y-55786883D01*
X67674826Y-55786890D01*
X67753875Y-55923809D01*
X67753879Y-55923814D01*
X67753880Y-55923816D01*
X67865684Y-56035620D01*
X67865686Y-56035621D01*
X67865690Y-56035624D01*
X68002609Y-56114673D01*
X68002616Y-56114677D01*
X68155343Y-56155600D01*
X68155345Y-56155600D01*
X68313455Y-56155600D01*
X68313457Y-56155600D01*
X68466184Y-56114677D01*
X68603116Y-56035620D01*
X68621593Y-56017143D01*
X72341200Y-56017143D01*
X72341200Y-56175257D01*
X72374036Y-56297800D01*
X72382123Y-56327983D01*
X72382126Y-56327990D01*
X72461175Y-56464909D01*
X72461179Y-56464914D01*
X72461180Y-56464916D01*
X72572984Y-56576720D01*
X72572986Y-56576721D01*
X72572990Y-56576724D01*
X72709909Y-56655773D01*
X72709916Y-56655777D01*
X72862643Y-56696700D01*
X72862645Y-56696700D01*
X73020755Y-56696700D01*
X73020757Y-56696700D01*
X73173484Y-56655777D01*
X73310416Y-56576720D01*
X73422220Y-56464916D01*
X73501277Y-56327984D01*
X73542200Y-56175257D01*
X73542200Y-56017143D01*
X73501277Y-55864416D01*
X73461999Y-55796384D01*
X73440540Y-55759215D01*
X73440539Y-55759213D01*
X73422222Y-55727487D01*
X73422218Y-55727482D01*
X73400079Y-55705343D01*
X73906600Y-55705343D01*
X73906600Y-55863457D01*
X73944953Y-56006590D01*
X73947523Y-56016183D01*
X73947526Y-56016190D01*
X74026575Y-56153109D01*
X74026579Y-56153114D01*
X74026580Y-56153116D01*
X74138384Y-56264920D01*
X74138386Y-56264921D01*
X74138390Y-56264924D01*
X74195334Y-56297800D01*
X74275316Y-56343977D01*
X74428043Y-56384900D01*
X74428045Y-56384900D01*
X74586155Y-56384900D01*
X74586157Y-56384900D01*
X74738884Y-56343977D01*
X74875816Y-56264920D01*
X74987620Y-56153116D01*
X75066677Y-56016184D01*
X75107600Y-55863457D01*
X75107600Y-55705343D01*
X75066677Y-55552616D01*
X75066673Y-55552609D01*
X74987624Y-55415690D01*
X74987618Y-55415682D01*
X74875817Y-55303881D01*
X74875809Y-55303875D01*
X74848733Y-55288243D01*
X75838900Y-55288243D01*
X75838900Y-55446357D01*
X75863961Y-55539884D01*
X75879823Y-55599083D01*
X75879826Y-55599090D01*
X75958875Y-55736009D01*
X75958879Y-55736014D01*
X75958880Y-55736016D01*
X76070684Y-55847820D01*
X76070686Y-55847821D01*
X76070690Y-55847824D01*
X76136911Y-55886056D01*
X76207616Y-55926877D01*
X76360343Y-55967800D01*
X76360345Y-55967800D01*
X76518455Y-55967800D01*
X76518457Y-55967800D01*
X76671184Y-55926877D01*
X76808116Y-55847820D01*
X76826393Y-55829543D01*
X77294100Y-55829543D01*
X77294100Y-55987657D01*
X77330681Y-56124177D01*
X77335023Y-56140383D01*
X77335026Y-56140390D01*
X77414075Y-56277309D01*
X77414079Y-56277314D01*
X77414080Y-56277316D01*
X77525884Y-56389120D01*
X77525886Y-56389121D01*
X77525890Y-56389124D01*
X77657168Y-56464916D01*
X77662816Y-56468177D01*
X77815543Y-56509100D01*
X77815545Y-56509100D01*
X77973655Y-56509100D01*
X77973657Y-56509100D01*
X78126384Y-56468177D01*
X78263316Y-56389120D01*
X78375120Y-56277316D01*
X78454177Y-56140384D01*
X78495100Y-55987657D01*
X78495100Y-55829543D01*
X78459248Y-55695743D01*
X81240600Y-55695743D01*
X81240600Y-55853857D01*
X81276452Y-55987656D01*
X81281523Y-56006583D01*
X81281526Y-56006590D01*
X81360575Y-56143509D01*
X81360579Y-56143514D01*
X81360580Y-56143516D01*
X81472384Y-56255320D01*
X81472386Y-56255321D01*
X81472390Y-56255324D01*
X81528163Y-56287524D01*
X81609316Y-56334377D01*
X81762043Y-56375300D01*
X81762045Y-56375300D01*
X81920155Y-56375300D01*
X81920157Y-56375300D01*
X82072884Y-56334377D01*
X82209816Y-56255320D01*
X82321620Y-56143516D01*
X82400677Y-56006584D01*
X82441600Y-55853857D01*
X82441600Y-55695743D01*
X82400677Y-55543016D01*
X82396986Y-55536623D01*
X82321624Y-55406090D01*
X82321618Y-55406082D01*
X82209817Y-55294281D01*
X82209809Y-55294275D01*
X82072890Y-55215226D01*
X82072886Y-55215224D01*
X82072884Y-55215223D01*
X81920157Y-55174300D01*
X81762043Y-55174300D01*
X81609316Y-55215223D01*
X81609309Y-55215226D01*
X81472390Y-55294275D01*
X81472382Y-55294281D01*
X81360581Y-55406082D01*
X81360575Y-55406090D01*
X81281526Y-55543009D01*
X81281523Y-55543016D01*
X81240600Y-55695743D01*
X78459248Y-55695743D01*
X78454177Y-55676816D01*
X78429548Y-55634157D01*
X78375124Y-55539890D01*
X78375118Y-55539882D01*
X78263317Y-55428081D01*
X78263309Y-55428075D01*
X78126390Y-55349026D01*
X78126386Y-55349024D01*
X78126384Y-55349023D01*
X77973657Y-55308100D01*
X77815543Y-55308100D01*
X77662816Y-55349023D01*
X77662809Y-55349026D01*
X77525890Y-55428075D01*
X77525882Y-55428081D01*
X77414081Y-55539882D01*
X77414075Y-55539890D01*
X77335026Y-55676809D01*
X77335024Y-55676814D01*
X77335023Y-55676816D01*
X77294100Y-55829543D01*
X76826393Y-55829543D01*
X76919920Y-55736016D01*
X76998977Y-55599084D01*
X77039900Y-55446357D01*
X77039900Y-55288243D01*
X76998977Y-55135516D01*
X76969278Y-55084075D01*
X76919924Y-54998590D01*
X76919918Y-54998582D01*
X76808117Y-54886781D01*
X76808109Y-54886775D01*
X76671190Y-54807726D01*
X76671186Y-54807724D01*
X76671184Y-54807723D01*
X76518457Y-54766800D01*
X76360343Y-54766800D01*
X76207616Y-54807723D01*
X76207609Y-54807726D01*
X76070690Y-54886775D01*
X76070682Y-54886781D01*
X75958881Y-54998582D01*
X75958875Y-54998590D01*
X75879826Y-55135509D01*
X75879823Y-55135516D01*
X75838900Y-55288243D01*
X74848733Y-55288243D01*
X74738890Y-55224826D01*
X74738886Y-55224824D01*
X74738884Y-55224823D01*
X74586157Y-55183900D01*
X74428043Y-55183900D01*
X74275316Y-55224823D01*
X74275309Y-55224826D01*
X74138390Y-55303875D01*
X74138382Y-55303881D01*
X74026581Y-55415682D01*
X74026575Y-55415690D01*
X73947526Y-55552609D01*
X73947523Y-55552616D01*
X73906600Y-55705343D01*
X73400079Y-55705343D01*
X73310417Y-55615681D01*
X73310409Y-55615675D01*
X73173490Y-55536626D01*
X73173486Y-55536624D01*
X73173484Y-55536623D01*
X73020757Y-55495700D01*
X72862643Y-55495700D01*
X72709916Y-55536623D01*
X72709909Y-55536626D01*
X72572990Y-55615675D01*
X72572982Y-55615681D01*
X72461181Y-55727482D01*
X72461175Y-55727490D01*
X72382126Y-55864409D01*
X72382123Y-55864416D01*
X72341200Y-56017143D01*
X68621593Y-56017143D01*
X68714920Y-55923816D01*
X68793977Y-55786884D01*
X68834900Y-55634157D01*
X68834900Y-55476043D01*
X68793977Y-55323316D01*
X68777210Y-55294275D01*
X68714924Y-55186390D01*
X68714918Y-55186382D01*
X68603117Y-55074581D01*
X68603109Y-55074575D01*
X68466190Y-54995526D01*
X68466186Y-54995524D01*
X68466184Y-54995523D01*
X68313457Y-54954600D01*
X68155343Y-54954600D01*
X68002616Y-54995523D01*
X68002609Y-54995526D01*
X67865690Y-55074575D01*
X67865682Y-55074581D01*
X67753881Y-55186382D01*
X67753875Y-55186390D01*
X67674826Y-55323309D01*
X67674823Y-55323316D01*
X67633900Y-55476043D01*
X62124254Y-55476043D01*
X62085877Y-55332816D01*
X62063629Y-55294281D01*
X62006824Y-55195890D01*
X62006818Y-55195882D01*
X61895017Y-55084081D01*
X61895009Y-55084075D01*
X61758090Y-55005026D01*
X61758086Y-55005024D01*
X61758084Y-55005023D01*
X61605357Y-54964100D01*
X61447243Y-54964100D01*
X61294516Y-55005023D01*
X61294509Y-55005026D01*
X61157590Y-55084075D01*
X61157582Y-55084081D01*
X61045781Y-55195882D01*
X61045775Y-55195890D01*
X60966726Y-55332809D01*
X60966723Y-55332816D01*
X60925800Y-55485543D01*
X59160267Y-55485543D01*
X59169400Y-55451457D01*
X59169400Y-55293343D01*
X59128477Y-55140616D01*
X59125533Y-55135516D01*
X59049424Y-55003690D01*
X59049418Y-55003682D01*
X58937617Y-54891881D01*
X58937609Y-54891875D01*
X58800690Y-54812826D01*
X58800686Y-54812824D01*
X58800684Y-54812823D01*
X58647957Y-54771900D01*
X58489843Y-54771900D01*
X58337116Y-54812823D01*
X58337109Y-54812826D01*
X58200190Y-54891875D01*
X58200182Y-54891881D01*
X58088381Y-55003682D01*
X58088375Y-55003690D01*
X58009326Y-55140609D01*
X58009323Y-55140616D01*
X57968400Y-55293343D01*
X54305922Y-55293343D01*
X54226390Y-55247426D01*
X54226386Y-55247424D01*
X54226384Y-55247423D01*
X54073657Y-55206500D01*
X53915543Y-55206500D01*
X53762816Y-55247423D01*
X53762809Y-55247426D01*
X53625890Y-55326475D01*
X53625882Y-55326481D01*
X53514081Y-55438282D01*
X53514075Y-55438290D01*
X53435026Y-55575209D01*
X53435023Y-55575216D01*
X53394100Y-55727943D01*
X40300500Y-55727943D01*
X40300500Y-52467643D01*
X65871500Y-52467643D01*
X65871500Y-52625757D01*
X65902668Y-52742075D01*
X65912423Y-52778483D01*
X65912426Y-52778490D01*
X65991475Y-52915409D01*
X65991479Y-52915414D01*
X65991480Y-52915416D01*
X66103284Y-53027220D01*
X66103286Y-53027221D01*
X66103290Y-53027224D01*
X66235096Y-53103321D01*
X66240216Y-53106277D01*
X66392943Y-53147200D01*
X66392945Y-53147200D01*
X66551055Y-53147200D01*
X66551057Y-53147200D01*
X66703784Y-53106277D01*
X66840716Y-53027220D01*
X66952520Y-52915416D01*
X66954929Y-52911243D01*
X72999500Y-52911243D01*
X72999500Y-53069357D01*
X73009393Y-53106276D01*
X73040423Y-53222083D01*
X73040426Y-53222090D01*
X73119475Y-53359009D01*
X73119479Y-53359014D01*
X73119480Y-53359016D01*
X73231284Y-53470820D01*
X73231286Y-53470821D01*
X73231290Y-53470824D01*
X73368209Y-53549873D01*
X73368216Y-53549877D01*
X73520943Y-53590800D01*
X73520945Y-53590800D01*
X73679055Y-53590800D01*
X73679057Y-53590800D01*
X73831784Y-53549877D01*
X73968716Y-53470820D01*
X74080520Y-53359016D01*
X74159577Y-53222084D01*
X74180622Y-53143543D01*
X75207400Y-53143543D01*
X75207400Y-53301657D01*
X75242216Y-53431590D01*
X75248323Y-53454383D01*
X75248326Y-53454390D01*
X75327375Y-53591309D01*
X75327379Y-53591314D01*
X75327380Y-53591316D01*
X75439184Y-53703120D01*
X75439186Y-53703121D01*
X75439190Y-53703124D01*
X75576109Y-53782173D01*
X75576116Y-53782177D01*
X75728843Y-53823100D01*
X75728845Y-53823100D01*
X75886955Y-53823100D01*
X75886957Y-53823100D01*
X76039684Y-53782177D01*
X76145226Y-53721243D01*
X83850700Y-53721243D01*
X83850700Y-53879356D01*
X83891623Y-54032083D01*
X83891626Y-54032090D01*
X83970675Y-54169009D01*
X83970679Y-54169014D01*
X83970680Y-54169016D01*
X84082484Y-54280820D01*
X84082486Y-54280821D01*
X84082490Y-54280824D01*
X84219409Y-54359873D01*
X84219416Y-54359877D01*
X84372143Y-54400800D01*
X84372145Y-54400800D01*
X84530255Y-54400800D01*
X84530257Y-54400800D01*
X84682984Y-54359877D01*
X84819916Y-54280820D01*
X84931720Y-54169016D01*
X85010777Y-54032084D01*
X85051700Y-53879357D01*
X85051700Y-53721243D01*
X85010777Y-53568516D01*
X84944887Y-53454390D01*
X84931724Y-53431590D01*
X84931718Y-53431582D01*
X84819917Y-53319781D01*
X84819909Y-53319775D01*
X84682990Y-53240726D01*
X84682986Y-53240724D01*
X84682984Y-53240723D01*
X84530257Y-53199800D01*
X84372143Y-53199800D01*
X84219416Y-53240723D01*
X84219409Y-53240726D01*
X84082490Y-53319775D01*
X84082482Y-53319781D01*
X83970681Y-53431582D01*
X83970675Y-53431590D01*
X83891626Y-53568509D01*
X83891623Y-53568516D01*
X83850700Y-53721243D01*
X76145226Y-53721243D01*
X76176616Y-53703120D01*
X76288420Y-53591316D01*
X76367477Y-53454384D01*
X76408400Y-53301657D01*
X76408400Y-53143543D01*
X76367477Y-52990816D01*
X76323946Y-52915417D01*
X76288424Y-52853890D01*
X76288418Y-52853882D01*
X76176617Y-52742081D01*
X76176609Y-52742075D01*
X76039690Y-52663026D01*
X76039686Y-52663024D01*
X76039684Y-52663023D01*
X75886957Y-52622100D01*
X75728843Y-52622100D01*
X75576116Y-52663023D01*
X75576109Y-52663026D01*
X75439190Y-52742075D01*
X75439182Y-52742081D01*
X75327381Y-52853882D01*
X75327375Y-52853890D01*
X75248326Y-52990809D01*
X75248323Y-52990816D01*
X75207400Y-53143543D01*
X74180622Y-53143543D01*
X74200500Y-53069357D01*
X74200500Y-52911243D01*
X74159577Y-52758516D01*
X74150085Y-52742075D01*
X74080524Y-52621590D01*
X74080518Y-52621582D01*
X73968717Y-52509781D01*
X73968709Y-52509775D01*
X73831790Y-52430726D01*
X73831786Y-52430724D01*
X73831784Y-52430723D01*
X73679057Y-52389800D01*
X73520943Y-52389800D01*
X73368216Y-52430723D01*
X73368209Y-52430726D01*
X73231290Y-52509775D01*
X73231282Y-52509781D01*
X73119481Y-52621582D01*
X73119475Y-52621590D01*
X73040426Y-52758509D01*
X73040423Y-52758516D01*
X72999500Y-52911243D01*
X66954929Y-52911243D01*
X67031577Y-52778484D01*
X67072500Y-52625757D01*
X67072500Y-52467643D01*
X67031577Y-52314916D01*
X67015645Y-52287320D01*
X66952524Y-52177990D01*
X66952518Y-52177982D01*
X66840717Y-52066181D01*
X66840709Y-52066175D01*
X66703790Y-51987126D01*
X66703786Y-51987124D01*
X66703784Y-51987123D01*
X66551057Y-51946200D01*
X66392943Y-51946200D01*
X66240216Y-51987123D01*
X66240209Y-51987126D01*
X66103290Y-52066175D01*
X66103282Y-52066181D01*
X65991481Y-52177982D01*
X65991475Y-52177990D01*
X65912426Y-52314909D01*
X65912423Y-52314916D01*
X65871500Y-52467643D01*
X40300500Y-52467643D01*
X40300500Y-51727743D01*
X96844400Y-51727743D01*
X96844400Y-51885856D01*
X96885323Y-52038583D01*
X96885326Y-52038590D01*
X96964375Y-52175509D01*
X96964379Y-52175514D01*
X96964380Y-52175516D01*
X97076184Y-52287320D01*
X97076186Y-52287321D01*
X97076190Y-52287324D01*
X97213109Y-52366373D01*
X97213116Y-52366377D01*
X97365843Y-52407300D01*
X97365845Y-52407300D01*
X97523955Y-52407300D01*
X97523957Y-52407300D01*
X97676684Y-52366377D01*
X97813616Y-52287320D01*
X97925420Y-52175516D01*
X98004477Y-52038584D01*
X98045400Y-51885857D01*
X98045400Y-51727743D01*
X98004477Y-51575016D01*
X98004473Y-51575009D01*
X97925424Y-51438090D01*
X97925418Y-51438082D01*
X97813617Y-51326281D01*
X97813609Y-51326275D01*
X97676690Y-51247226D01*
X97676686Y-51247224D01*
X97676684Y-51247223D01*
X97523957Y-51206300D01*
X97365843Y-51206300D01*
X97213116Y-51247223D01*
X97213109Y-51247226D01*
X97076190Y-51326275D01*
X97076182Y-51326281D01*
X96964381Y-51438082D01*
X96964375Y-51438090D01*
X96885326Y-51575009D01*
X96885323Y-51575016D01*
X96844400Y-51727743D01*
X40300500Y-51727743D01*
X40300500Y-49152543D01*
X72310100Y-49152543D01*
X72310100Y-49310656D01*
X72351023Y-49463383D01*
X72351026Y-49463390D01*
X72430075Y-49600309D01*
X72430079Y-49600314D01*
X72430080Y-49600316D01*
X72541884Y-49712120D01*
X72541886Y-49712121D01*
X72541890Y-49712124D01*
X72678809Y-49791173D01*
X72678816Y-49791177D01*
X72831543Y-49832100D01*
X72831545Y-49832100D01*
X72989655Y-49832100D01*
X72989657Y-49832100D01*
X73142384Y-49791177D01*
X73279316Y-49712120D01*
X73391120Y-49600316D01*
X73470177Y-49463384D01*
X73511100Y-49310657D01*
X73511100Y-49152543D01*
X73470177Y-48999816D01*
X73470173Y-48999809D01*
X73391124Y-48862890D01*
X73391118Y-48862882D01*
X73279317Y-48751081D01*
X73279309Y-48751075D01*
X73142390Y-48672026D01*
X73142386Y-48672024D01*
X73142384Y-48672023D01*
X72989657Y-48631100D01*
X72831543Y-48631100D01*
X72678816Y-48672023D01*
X72678809Y-48672026D01*
X72541890Y-48751075D01*
X72541882Y-48751081D01*
X72430081Y-48862882D01*
X72430075Y-48862890D01*
X72351026Y-48999809D01*
X72351023Y-48999816D01*
X72310100Y-49152543D01*
X40300500Y-49152543D01*
X40300500Y-46486304D01*
X57599500Y-46486304D01*
X57599500Y-47213695D01*
X57634103Y-47387658D01*
X57634106Y-47387667D01*
X57701983Y-47551540D01*
X57701990Y-47551553D01*
X57800535Y-47699034D01*
X57800538Y-47699038D01*
X57925961Y-47824461D01*
X57925965Y-47824464D01*
X58073446Y-47923009D01*
X58073459Y-47923016D01*
X58179187Y-47966809D01*
X58237334Y-47990894D01*
X58237336Y-47990894D01*
X58237341Y-47990896D01*
X58411304Y-48025499D01*
X58411307Y-48025500D01*
X58411309Y-48025500D01*
X58588693Y-48025500D01*
X58588694Y-48025499D01*
X58646682Y-48013964D01*
X58762658Y-47990896D01*
X58762661Y-47990894D01*
X58762666Y-47990894D01*
X58926547Y-47923013D01*
X59074035Y-47824464D01*
X59199464Y-47699035D01*
X59298013Y-47551547D01*
X59311476Y-47519045D01*
X59311477Y-47519043D01*
X82636700Y-47519043D01*
X82636700Y-47677156D01*
X82677623Y-47829883D01*
X82677626Y-47829890D01*
X82756675Y-47966809D01*
X82756679Y-47966814D01*
X82756680Y-47966816D01*
X82868484Y-48078620D01*
X82868486Y-48078621D01*
X82868490Y-48078624D01*
X83005409Y-48157673D01*
X83005416Y-48157677D01*
X83158143Y-48198600D01*
X83158145Y-48198600D01*
X83316255Y-48198600D01*
X83316257Y-48198600D01*
X83468984Y-48157677D01*
X83605916Y-48078620D01*
X83717720Y-47966816D01*
X83796777Y-47829884D01*
X83837700Y-47677157D01*
X83837700Y-47519043D01*
X83796777Y-47366316D01*
X83796773Y-47366309D01*
X83717724Y-47229390D01*
X83717718Y-47229382D01*
X83605917Y-47117581D01*
X83605909Y-47117575D01*
X83468990Y-47038526D01*
X83468986Y-47038524D01*
X83468984Y-47038523D01*
X83316257Y-46997600D01*
X83158143Y-46997600D01*
X83005416Y-47038523D01*
X83005409Y-47038526D01*
X82868490Y-47117575D01*
X82868482Y-47117581D01*
X82756681Y-47229382D01*
X82756675Y-47229390D01*
X82677626Y-47366309D01*
X82677623Y-47366316D01*
X82636700Y-47519043D01*
X59311477Y-47519043D01*
X59334498Y-47463464D01*
X59343088Y-47442724D01*
X59365894Y-47387666D01*
X59370143Y-47366309D01*
X59400499Y-47213695D01*
X59400500Y-47213693D01*
X59400500Y-46486306D01*
X59400499Y-46486304D01*
X59365896Y-46312341D01*
X59365893Y-46312332D01*
X59298016Y-46148459D01*
X59298009Y-46148446D01*
X59199464Y-46000965D01*
X59199461Y-46000961D01*
X59074038Y-45875538D01*
X59074034Y-45875535D01*
X58926553Y-45776990D01*
X58926540Y-45776983D01*
X58762667Y-45709106D01*
X58762658Y-45709103D01*
X58588694Y-45674500D01*
X58588691Y-45674500D01*
X58411309Y-45674500D01*
X58411306Y-45674500D01*
X58237341Y-45709103D01*
X58237332Y-45709106D01*
X58073459Y-45776983D01*
X58073446Y-45776990D01*
X57925965Y-45875535D01*
X57925961Y-45875538D01*
X57800538Y-46000961D01*
X57800535Y-46000965D01*
X57701990Y-46148446D01*
X57701983Y-46148459D01*
X57634106Y-46312332D01*
X57634103Y-46312341D01*
X57599500Y-46486304D01*
X40300500Y-46486304D01*
X40300500Y-43299713D01*
X41483500Y-43299713D01*
X41483500Y-43512287D01*
X41516754Y-43722243D01*
X41578501Y-43912281D01*
X41582444Y-43924414D01*
X41678951Y-44113820D01*
X41803890Y-44285786D01*
X41954213Y-44436109D01*
X42126179Y-44561048D01*
X42126181Y-44561049D01*
X42126184Y-44561051D01*
X42315588Y-44657557D01*
X42517757Y-44723246D01*
X42727713Y-44756500D01*
X42727714Y-44756500D01*
X42940286Y-44756500D01*
X42940287Y-44756500D01*
X43150243Y-44723246D01*
X43352412Y-44657557D01*
X43541816Y-44561051D01*
X43563789Y-44545086D01*
X43713786Y-44436109D01*
X43713788Y-44436106D01*
X43713792Y-44436104D01*
X43836153Y-44313743D01*
X61635000Y-44313743D01*
X61635000Y-44471857D01*
X61668434Y-44596632D01*
X61675923Y-44624583D01*
X61675926Y-44624590D01*
X61754975Y-44761509D01*
X61754979Y-44761514D01*
X61754980Y-44761516D01*
X61866784Y-44873320D01*
X61866786Y-44873321D01*
X61866790Y-44873324D01*
X61961677Y-44928106D01*
X62003716Y-44952377D01*
X62156443Y-44993300D01*
X62156445Y-44993300D01*
X62314555Y-44993300D01*
X62314557Y-44993300D01*
X62467284Y-44952377D01*
X62602633Y-44874234D01*
X77546500Y-44874234D01*
X77546500Y-45025765D01*
X77585719Y-45172136D01*
X77623602Y-45237750D01*
X77661485Y-45303365D01*
X77768635Y-45410515D01*
X77899865Y-45486281D01*
X78046234Y-45525500D01*
X78046236Y-45525500D01*
X78197764Y-45525500D01*
X78197766Y-45525500D01*
X78344135Y-45486281D01*
X78475365Y-45410515D01*
X78494696Y-45391183D01*
X78556016Y-45357698D01*
X78625708Y-45362681D01*
X78681643Y-45404552D01*
X78699050Y-45440386D01*
X78699314Y-45440277D01*
X78701148Y-45444706D01*
X78702152Y-45446772D01*
X78702422Y-45447782D01*
X78702426Y-45447790D01*
X78781475Y-45584709D01*
X78781479Y-45584714D01*
X78781480Y-45584716D01*
X78893284Y-45696520D01*
X78893286Y-45696521D01*
X78893290Y-45696524D01*
X79008558Y-45763073D01*
X79030216Y-45775577D01*
X79182943Y-45816500D01*
X79182945Y-45816500D01*
X79341055Y-45816500D01*
X79341057Y-45816500D01*
X79493784Y-45775577D01*
X79630716Y-45696520D01*
X79742520Y-45584716D01*
X79821577Y-45447784D01*
X79862500Y-45295057D01*
X79862500Y-45136943D01*
X79859151Y-45124443D01*
X81446700Y-45124443D01*
X81446700Y-45282557D01*
X81480986Y-45410512D01*
X81487623Y-45435283D01*
X81487626Y-45435290D01*
X81566675Y-45572209D01*
X81566679Y-45572214D01*
X81566680Y-45572216D01*
X81678484Y-45684020D01*
X81678486Y-45684021D01*
X81678490Y-45684024D01*
X81815409Y-45763073D01*
X81815416Y-45763077D01*
X81968143Y-45804000D01*
X81968145Y-45804000D01*
X82126255Y-45804000D01*
X82126257Y-45804000D01*
X82278984Y-45763077D01*
X82415916Y-45684020D01*
X82527720Y-45572216D01*
X82606777Y-45435284D01*
X82647700Y-45282557D01*
X82647700Y-45124443D01*
X82606777Y-44971716D01*
X82581598Y-44928104D01*
X82550496Y-44874234D01*
X83326500Y-44874234D01*
X83326500Y-45025765D01*
X83365719Y-45172136D01*
X83403602Y-45237750D01*
X83441485Y-45303365D01*
X83548635Y-45410515D01*
X83679865Y-45486281D01*
X83826234Y-45525500D01*
X83826236Y-45525500D01*
X83977764Y-45525500D01*
X83977766Y-45525500D01*
X84124135Y-45486281D01*
X84255365Y-45410515D01*
X84362515Y-45303365D01*
X84438281Y-45172135D01*
X84477500Y-45025766D01*
X84477500Y-44874234D01*
X84438281Y-44727865D01*
X84436317Y-44724464D01*
X84397035Y-44656426D01*
X84362515Y-44596635D01*
X84255365Y-44489485D01*
X84189643Y-44451540D01*
X84124136Y-44413719D01*
X84050950Y-44394109D01*
X83977766Y-44374500D01*
X83826234Y-44374500D01*
X83679863Y-44413719D01*
X83548635Y-44489485D01*
X83548632Y-44489487D01*
X83441487Y-44596632D01*
X83441485Y-44596635D01*
X83365719Y-44727863D01*
X83326500Y-44874234D01*
X82550496Y-44874234D01*
X82527722Y-44834787D01*
X82527718Y-44834782D01*
X82415917Y-44722981D01*
X82415909Y-44722975D01*
X82278990Y-44643926D01*
X82278986Y-44643924D01*
X82278984Y-44643923D01*
X82126257Y-44603000D01*
X81968143Y-44603000D01*
X81815416Y-44643923D01*
X81815409Y-44643926D01*
X81678490Y-44722975D01*
X81678482Y-44722981D01*
X81566681Y-44834782D01*
X81566675Y-44834790D01*
X81487626Y-44971709D01*
X81487623Y-44971716D01*
X81446700Y-45124443D01*
X79859151Y-45124443D01*
X79821577Y-44984216D01*
X79787677Y-44925499D01*
X79742524Y-44847290D01*
X79742518Y-44847282D01*
X79630717Y-44735481D01*
X79630709Y-44735475D01*
X79493790Y-44656426D01*
X79493786Y-44656424D01*
X79493784Y-44656423D01*
X79341057Y-44615500D01*
X79182943Y-44615500D01*
X79030216Y-44656423D01*
X79030209Y-44656426D01*
X78893290Y-44735475D01*
X78893282Y-44735481D01*
X78860565Y-44768198D01*
X78799242Y-44801683D01*
X78729550Y-44796697D01*
X78673617Y-44754825D01*
X78658322Y-44727964D01*
X78658281Y-44727865D01*
X78617035Y-44656426D01*
X78582515Y-44596635D01*
X78475365Y-44489485D01*
X78409643Y-44451540D01*
X78344136Y-44413719D01*
X78270950Y-44394109D01*
X78197766Y-44374500D01*
X78046234Y-44374500D01*
X77899863Y-44413719D01*
X77768635Y-44489485D01*
X77768632Y-44489487D01*
X77661487Y-44596632D01*
X77661485Y-44596635D01*
X77585719Y-44727863D01*
X77546500Y-44874234D01*
X62602633Y-44874234D01*
X62604216Y-44873320D01*
X62716020Y-44761516D01*
X62795077Y-44624584D01*
X62836000Y-44471857D01*
X62836000Y-44313743D01*
X62795077Y-44161016D01*
X62767829Y-44113820D01*
X62716024Y-44024090D01*
X62716018Y-44024082D01*
X62604217Y-43912281D01*
X62604209Y-43912275D01*
X62467290Y-43833226D01*
X62467286Y-43833224D01*
X62467284Y-43833223D01*
X62314557Y-43792300D01*
X62156443Y-43792300D01*
X62003716Y-43833223D01*
X62003709Y-43833226D01*
X61866790Y-43912275D01*
X61866782Y-43912281D01*
X61754981Y-44024082D01*
X61754975Y-44024090D01*
X61675926Y-44161009D01*
X61675923Y-44161016D01*
X61635000Y-44313743D01*
X43836153Y-44313743D01*
X43864104Y-44285792D01*
X43989051Y-44113816D01*
X44085557Y-43924412D01*
X44151246Y-43722243D01*
X44184500Y-43512287D01*
X44184500Y-43299713D01*
X44170662Y-43212341D01*
X44152487Y-43097590D01*
X44151246Y-43089758D01*
X44148692Y-43081898D01*
X99599500Y-43081898D01*
X99599500Y-44418102D01*
X99603516Y-44451547D01*
X99610122Y-44506561D01*
X99665639Y-44647343D01*
X99757077Y-44767922D01*
X99877656Y-44859360D01*
X99877657Y-44859360D01*
X99877658Y-44859361D01*
X100018436Y-44914877D01*
X100106898Y-44925500D01*
X100106903Y-44925500D01*
X100893097Y-44925500D01*
X100893102Y-44925500D01*
X100981564Y-44914877D01*
X101122342Y-44859361D01*
X101242922Y-44767922D01*
X101334361Y-44647342D01*
X101389877Y-44506564D01*
X101400500Y-44418102D01*
X101400500Y-43386304D01*
X103599500Y-43386304D01*
X103599500Y-44113695D01*
X103634103Y-44287658D01*
X103634106Y-44287667D01*
X103701983Y-44451540D01*
X103701990Y-44451553D01*
X103800535Y-44599034D01*
X103800538Y-44599038D01*
X103925961Y-44724461D01*
X103925965Y-44724464D01*
X104073446Y-44823009D01*
X104073459Y-44823016D01*
X104194901Y-44873318D01*
X104237334Y-44890894D01*
X104237336Y-44890894D01*
X104237341Y-44890896D01*
X104411304Y-44925499D01*
X104411307Y-44925500D01*
X104411309Y-44925500D01*
X104588693Y-44925500D01*
X104588694Y-44925499D01*
X104646682Y-44913964D01*
X104762658Y-44890896D01*
X104762661Y-44890894D01*
X104762666Y-44890894D01*
X104926547Y-44823013D01*
X105074035Y-44724464D01*
X105199464Y-44599035D01*
X105298013Y-44451547D01*
X105365894Y-44287666D01*
X105366268Y-44285790D01*
X105400499Y-44113695D01*
X105400500Y-44113693D01*
X105400500Y-43386306D01*
X105400499Y-43386304D01*
X105365896Y-43212341D01*
X105365893Y-43212332D01*
X105364022Y-43207816D01*
X105315122Y-43089758D01*
X105298016Y-43048459D01*
X105298009Y-43048446D01*
X105199464Y-42900965D01*
X105199461Y-42900961D01*
X105074038Y-42775538D01*
X105074034Y-42775535D01*
X104926553Y-42676990D01*
X104926540Y-42676983D01*
X104762667Y-42609106D01*
X104762658Y-42609103D01*
X104588694Y-42574500D01*
X104588691Y-42574500D01*
X104411309Y-42574500D01*
X104411306Y-42574500D01*
X104237341Y-42609103D01*
X104237332Y-42609106D01*
X104073459Y-42676983D01*
X104073446Y-42676990D01*
X103925965Y-42775535D01*
X103925961Y-42775538D01*
X103800538Y-42900961D01*
X103800535Y-42900965D01*
X103701990Y-43048446D01*
X103701983Y-43048459D01*
X103634106Y-43212332D01*
X103634103Y-43212341D01*
X103599500Y-43386304D01*
X101400500Y-43386304D01*
X101400500Y-43081898D01*
X101389877Y-42993436D01*
X101334361Y-42852658D01*
X101334360Y-42852657D01*
X101334360Y-42852656D01*
X101242922Y-42732077D01*
X101122343Y-42640639D01*
X100981561Y-42585122D01*
X100935926Y-42579642D01*
X100893102Y-42574500D01*
X100106898Y-42574500D01*
X100067853Y-42579188D01*
X100018438Y-42585122D01*
X99877656Y-42640639D01*
X99757077Y-42732077D01*
X99665639Y-42852656D01*
X99610122Y-42993438D01*
X99604188Y-43042853D01*
X99599500Y-43081898D01*
X44148692Y-43081898D01*
X44128064Y-43018412D01*
X44085557Y-42887588D01*
X43989051Y-42698184D01*
X43989049Y-42698181D01*
X43989048Y-42698179D01*
X43864109Y-42526213D01*
X43731609Y-42393713D01*
X118003500Y-42393713D01*
X118003500Y-42606287D01*
X118008941Y-42640639D01*
X118030306Y-42775536D01*
X118036754Y-42816243D01*
X118094328Y-42993438D01*
X118102444Y-43018414D01*
X118198951Y-43207820D01*
X118323890Y-43379786D01*
X118474213Y-43530109D01*
X118646179Y-43655048D01*
X118646181Y-43655049D01*
X118646184Y-43655051D01*
X118835588Y-43751557D01*
X119037757Y-43817246D01*
X119247713Y-43850500D01*
X119247714Y-43850500D01*
X119460286Y-43850500D01*
X119460287Y-43850500D01*
X119670243Y-43817246D01*
X119872412Y-43751557D01*
X120061816Y-43655051D01*
X120083789Y-43639086D01*
X120233786Y-43530109D01*
X120233788Y-43530106D01*
X120233792Y-43530104D01*
X120384104Y-43379792D01*
X120384106Y-43379788D01*
X120384109Y-43379786D01*
X120505763Y-43212341D01*
X120509051Y-43207816D01*
X120605557Y-43018412D01*
X120671246Y-42816243D01*
X120704500Y-42606287D01*
X120704500Y-42393713D01*
X120671246Y-42183757D01*
X120605557Y-41981588D01*
X120509051Y-41792184D01*
X120509049Y-41792181D01*
X120509048Y-41792179D01*
X120384109Y-41620213D01*
X120233786Y-41469890D01*
X120061820Y-41344951D01*
X119872414Y-41248444D01*
X119872413Y-41248443D01*
X119872412Y-41248443D01*
X119670243Y-41182754D01*
X119670241Y-41182753D01*
X119670240Y-41182753D01*
X119508957Y-41157208D01*
X119460287Y-41149500D01*
X119247713Y-41149500D01*
X119199042Y-41157208D01*
X119037760Y-41182753D01*
X118835585Y-41248444D01*
X118646179Y-41344951D01*
X118474213Y-41469890D01*
X118323890Y-41620213D01*
X118198951Y-41792179D01*
X118102444Y-41981585D01*
X118036753Y-42183760D01*
X118026111Y-42250951D01*
X118003500Y-42393713D01*
X43731609Y-42393713D01*
X43713786Y-42375890D01*
X43541820Y-42250951D01*
X43352414Y-42154444D01*
X43352413Y-42154443D01*
X43352412Y-42154443D01*
X43150243Y-42088754D01*
X43150241Y-42088753D01*
X43150240Y-42088753D01*
X42988957Y-42063208D01*
X42940287Y-42055500D01*
X42727713Y-42055500D01*
X42679042Y-42063208D01*
X42517760Y-42088753D01*
X42315585Y-42154444D01*
X42126179Y-42250951D01*
X41954213Y-42375890D01*
X41803890Y-42526213D01*
X41678951Y-42698179D01*
X41582444Y-42887585D01*
X41516753Y-43089760D01*
X41497338Y-43212341D01*
X41483500Y-43299713D01*
X40300500Y-43299713D01*
X40300500Y-40724500D01*
X40320185Y-40657461D01*
X40372989Y-40611706D01*
X40424500Y-40600500D01*
X41733560Y-40600500D01*
X41733562Y-40600500D01*
X41809989Y-40580021D01*
X41878511Y-40540460D01*
X41934460Y-40484511D01*
X41974021Y-40415989D01*
X41980341Y-40392404D01*
X42016707Y-40332745D01*
X42079554Y-40302217D01*
X42100115Y-40300500D01*
X121599500Y-40300500D01*
X121666539Y-40320185D01*
G37*
%TD.AperFunction*%
%TD*%
M02*
