%TF.GenerationSoftware,KiCad,Pcbnew,10.0.6*%
%TF.CreationDate,2026-09-17T04:31:55+09:00*%
%TF.ProjectId,katanori61,6b617461-6e6f-4726-9936-312e6b696361,rev?*%
%TF.SameCoordinates,Original*%
%TF.FileFunction,Copper,L3,Inr*%
%TF.FilePolarity,Positive*%
%FSLAX46Y46*%
G04 Gerber Fmt 4.6, Leading zero omitted, Abs format (unit mm)*
G04 Created by KiCad (PCBNEW 10.0.6) date 2026-09-17 04:31:55*
%MOMM*%
%LPD*%
G01*
G04 APERTURE LIST*
G04 Aperture macros list*
%AMRoundRect*
0 Rectangle with rounded corners*
0 $1 Rounding radius*
0 $2 $3 $4 $5 $6 $7 $8 $9 X,Y pos of 4 corners*
0 Add a 4 corners polygon primitive as box body*
4,1,4,$2,$3,$4,$5,$6,$7,$8,$9,$2,$3,0*
0 Add four circle primitives for the rounded corners*
1,1,$1+$1,$2,$3*
1,1,$1+$1,$4,$5*
1,1,$1+$1,$6,$7*
1,1,$1+$1,$8,$9*
0 Add four rect primitives between the rounded corners*
20,1,$1+$1,$2,$3,$4,$5,0*
20,1,$1+$1,$4,$5,$6,$7,0*
20,1,$1+$1,$6,$7,$8,$9,0*
20,1,$1+$1,$8,$9,$2,$3,0*%
G04 Aperture macros list end*
%TA.AperFunction,ComponentPad*%
%ADD10RoundRect,0.250000X-0.350000X-0.625000X0.350000X-0.625000X0.350000X0.625000X-0.350000X0.625000X0*%
%TD*%
%TA.AperFunction,ComponentPad*%
%ADD11O,1.200000X1.750000*%
%TD*%
%TA.AperFunction,ComponentPad*%
%ADD12RoundRect,0.250000X-0.625000X0.350000X-0.625000X-0.350000X0.625000X-0.350000X0.625000X0.350000X0*%
%TD*%
%TA.AperFunction,ComponentPad*%
%ADD13O,1.750000X1.200000*%
%TD*%
%TA.AperFunction,ComponentPad*%
%ADD14R,1.700000X1.700000*%
%TD*%
%TA.AperFunction,ComponentPad*%
%ADD15C,1.700000*%
%TD*%
%TA.AperFunction,ComponentPad*%
%ADD16O,1.000000X2.100000*%
%TD*%
%TA.AperFunction,ComponentPad*%
%ADD17O,1.000000X1.600000*%
%TD*%
%TA.AperFunction,ViaPad*%
%ADD18C,0.600000*%
%TD*%
%TA.AperFunction,Conductor*%
%ADD19C,0.200000*%
%TD*%
%TA.AperFunction,Conductor*%
%ADD20C,0.400000*%
%TD*%
%TA.AperFunction,Conductor*%
%ADD21C,0.600000*%
%TD*%
G04 APERTURE END LIST*
D10*
%TO.N,SPKP*%
%TO.C,J4*%
X114300000Y-67850000D03*
D11*
%TO.N,SPKM*%
X116300000Y-67850000D03*
%TD*%
D12*
%TO.N,SPKM*%
%TO.C,J5*%
X51950000Y-59300000D03*
D13*
%TO.N,SPKO*%
X51950000Y-61300000D03*
%TD*%
D10*
%TO.N,GND*%
%TO.C,J6*%
X56500000Y-46850000D03*
D11*
%TO.N,BTN*%
X58500000Y-46850000D03*
%TD*%
D10*
%TO.N,EN*%
%TO.C,J7*%
X100500000Y-43750000D03*
D11*
%TO.N,GND*%
X102500000Y-43750000D03*
%TO.N,EN*%
X104500000Y-43750000D03*
%TO.N,GND*%
X106500000Y-43750000D03*
%TD*%
D12*
%TO.N,GND*%
%TO.C,J10*%
X115700000Y-60450000D03*
D13*
%TO.N,BATRAW*%
X115700000Y-62450000D03*
%TD*%
D14*
%TO.N,V5*%
%TO.C,J1*%
X41770000Y-65595000D03*
D15*
%TO.N,GND*%
X44310000Y-65595000D03*
%TO.N,V33*%
X46850000Y-65595000D03*
%TO.N,SDA*%
X49390000Y-65595000D03*
%TO.N,SCL*%
X51930000Y-65595000D03*
%TO.N,BTN*%
X54470000Y-65595000D03*
%TO.N,IN*%
X57010000Y-65595000D03*
%TD*%
D14*
%TO.N,GND*%
%TO.C,J2*%
X77240000Y-72630000D03*
D15*
%TO.N,V33*%
X79780000Y-72630000D03*
%TO.N,SCL*%
X82320000Y-72630000D03*
%TO.N,SDA*%
X84860000Y-72630000D03*
%TD*%
D16*
%TO.N,GND*%
%TO.C,J13*%
X85332000Y-45480000D03*
D17*
X85332000Y-41300000D03*
D16*
X76692000Y-45480000D03*
D17*
X76692000Y-41300000D03*
%TD*%
D18*
%TO.N,GND*%
X61325000Y-62725000D03*
X61325000Y-64075000D03*
X62675000Y-62725000D03*
X62675000Y-64075000D03*
X72875000Y-61390000D03*
X72875000Y-62640000D03*
X74125000Y-61390000D03*
X74125000Y-62640000D03*
%TO.N,BATG*%
X82100300Y-69411400D03*
X84273200Y-62450000D03*
%TO.N,BATRAW*%
X84939100Y-64151700D03*
%TO.N,CC1*%
X59041700Y-71454300D03*
X82047200Y-45203500D03*
%TO.N,CC2*%
X60014300Y-70692400D03*
X79262000Y-45216000D03*
%TO.N,COL*%
X56305000Y-59328900D03*
X97444900Y-51806800D03*
%TO.N,EN*%
X74507100Y-55784400D03*
X84451200Y-53800300D03*
X59151400Y-63453600D03*
%TO.N,FB*%
X68234400Y-55555100D03*
X60435500Y-66026700D03*
%TO.N,GND*%
X79474800Y-59389800D03*
X76856700Y-58400000D03*
X53198500Y-62165500D03*
%TO.N,IN*%
X58568900Y-55372400D03*
%TO.N,LBI*%
X61526300Y-55564600D03*
X59161200Y-62425000D03*
%TO.N,LBO*%
X72910600Y-49231600D03*
X59157000Y-64375000D03*
%TO.N,PROG1*%
X77050000Y-62015000D03*
X76303100Y-65381800D03*
%TO.N,SCL*%
X89156200Y-58401600D03*
X106724300Y-62965000D03*
X78665500Y-57537200D03*
%TO.N,SDA*%
X106734500Y-64059100D03*
X84906500Y-59687400D03*
X79467300Y-57558800D03*
%TO.N,SPKM*%
X77894600Y-55908600D03*
%TO.N,SPKO*%
X106922900Y-56898300D03*
%TO.N,SPKP*%
X105486500Y-59818200D03*
%TO.N,THERM*%
X70898300Y-63551500D03*
X74609200Y-73163400D03*
%TO.N,V33*%
X82832500Y-59703300D03*
%TO.N,V5*%
X81841100Y-55774800D03*
X66472000Y-52546700D03*
X64855900Y-64245800D03*
X53994600Y-55807000D03*
X62235500Y-44392800D03*
X96817900Y-59701700D03*
%TO.N,VBUS*%
X76439400Y-55367300D03*
X70679000Y-62066800D03*
X74056100Y-65114700D03*
X75807900Y-53222600D03*
X75538700Y-71375000D03*
X66020600Y-71410900D03*
X83237200Y-47598100D03*
%TO.N,VLIPO*%
X71285700Y-59847100D03*
X75951700Y-60314800D03*
%TO.N,VPCC*%
X72941700Y-56096200D03*
X70074200Y-63225000D03*
%TO.N,VSYS*%
X63370400Y-60123200D03*
X69255300Y-61041400D03*
X73600000Y-52990300D03*
%TO.N,GND*%
X41000000Y-76400000D03*
X41000000Y-73200000D03*
X41000000Y-70000000D03*
X41000000Y-63600000D03*
X41000000Y-60400000D03*
X41000000Y-57200000D03*
X41000000Y-54000000D03*
X41000000Y-50800000D03*
X41000000Y-47600000D03*
X41000000Y-44400000D03*
X44200000Y-76400000D03*
X44200000Y-70000000D03*
X44200000Y-60400000D03*
X44200000Y-57200000D03*
X44200000Y-54000000D03*
X44200000Y-50800000D03*
X44200000Y-47600000D03*
X44200000Y-41200000D03*
X47400000Y-76400000D03*
X47400000Y-73200000D03*
X47400000Y-70000000D03*
X47400000Y-57200000D03*
X47400000Y-54000000D03*
X47400000Y-50800000D03*
X47400000Y-47600000D03*
X47400000Y-44400000D03*
X47400000Y-41200000D03*
X50600000Y-76400000D03*
X50600000Y-73200000D03*
X50600000Y-70000000D03*
X50600000Y-63600000D03*
X50600000Y-54000000D03*
X50600000Y-50800000D03*
X50600000Y-47600000D03*
X50600000Y-44400000D03*
X50600000Y-41200000D03*
X53800000Y-76400000D03*
X53800000Y-73200000D03*
X53800000Y-44400000D03*
X53800000Y-41200000D03*
X57000000Y-76400000D03*
X57000000Y-41200000D03*
X60200000Y-76400000D03*
X60200000Y-47600000D03*
X60200000Y-41200000D03*
X63400000Y-76400000D03*
X63400000Y-41200000D03*
X66600000Y-76400000D03*
X66600000Y-47600000D03*
X66600000Y-44400000D03*
X66600000Y-41200000D03*
X69800000Y-76400000D03*
X69800000Y-70000000D03*
X69800000Y-44400000D03*
X69800000Y-41200000D03*
X73000000Y-76400000D03*
X73000000Y-44400000D03*
X73000000Y-41200000D03*
X76200000Y-76400000D03*
X79400000Y-76400000D03*
X79400000Y-41200000D03*
X82600000Y-76400000D03*
X82600000Y-50800000D03*
X82600000Y-41200000D03*
X85800000Y-76400000D03*
X85800000Y-54000000D03*
X85800000Y-50800000D03*
X89000000Y-76400000D03*
X89000000Y-73200000D03*
X89000000Y-66800000D03*
X89000000Y-63600000D03*
X89000000Y-54000000D03*
X89000000Y-50800000D03*
X89000000Y-47600000D03*
X89000000Y-44400000D03*
X92200000Y-76400000D03*
X92200000Y-73200000D03*
X92200000Y-70000000D03*
X92200000Y-63600000D03*
X92200000Y-54000000D03*
X92200000Y-50800000D03*
X92200000Y-47600000D03*
X92200000Y-44400000D03*
X95400000Y-76400000D03*
X95400000Y-73200000D03*
X95400000Y-70000000D03*
X95400000Y-66800000D03*
X95400000Y-50800000D03*
X95400000Y-47600000D03*
X98600000Y-76400000D03*
X98600000Y-73200000D03*
X98600000Y-70000000D03*
X98600000Y-66800000D03*
X98600000Y-54000000D03*
X98600000Y-47600000D03*
X101800000Y-76400000D03*
X101800000Y-73200000D03*
X101800000Y-70000000D03*
X101800000Y-66800000D03*
X101800000Y-54000000D03*
X101800000Y-47600000D03*
X101800000Y-41200000D03*
X105000000Y-76400000D03*
X105000000Y-73200000D03*
X105000000Y-70000000D03*
X105000000Y-66800000D03*
X105000000Y-54000000D03*
X105000000Y-47600000D03*
X105000000Y-41200000D03*
X108200000Y-76400000D03*
X108200000Y-73200000D03*
X108200000Y-70000000D03*
X108200000Y-66800000D03*
X108200000Y-54000000D03*
X108200000Y-47600000D03*
X108200000Y-41200000D03*
X111400000Y-76400000D03*
X111400000Y-73200000D03*
X111400000Y-70000000D03*
X111400000Y-57200000D03*
X111400000Y-54000000D03*
X111400000Y-50800000D03*
X111400000Y-44400000D03*
X111400000Y-41200000D03*
X114600000Y-76400000D03*
X114600000Y-73200000D03*
X114600000Y-70000000D03*
X114600000Y-57200000D03*
X114600000Y-54000000D03*
X114600000Y-47600000D03*
X114600000Y-44400000D03*
X114600000Y-41200000D03*
X117800000Y-76400000D03*
X117800000Y-70000000D03*
X117800000Y-66800000D03*
X117800000Y-63600000D03*
X117800000Y-60400000D03*
X117800000Y-57200000D03*
X117800000Y-54000000D03*
X117800000Y-50800000D03*
X117800000Y-47600000D03*
X117800000Y-44400000D03*
X117800000Y-41200000D03*
X121000000Y-76400000D03*
X121000000Y-70000000D03*
X121000000Y-66800000D03*
X121000000Y-63600000D03*
X121000000Y-60400000D03*
X121000000Y-57200000D03*
X121000000Y-54000000D03*
X121000000Y-50800000D03*
X121000000Y-47600000D03*
X121000000Y-44400000D03*
X121000000Y-41200000D03*
%TD*%
%TO.N,BATG*%
D19*
X82100300Y-69411400D02*
X82100300Y-59602100D01*
X82100300Y-59602100D02*
X82550800Y-59151600D01*
X82550800Y-59151600D02*
X83093100Y-59151600D01*
X83093100Y-59151600D02*
X84273200Y-60331700D01*
X84273200Y-60331700D02*
X84273200Y-62450000D01*
%TO.N,BTN*%
X54470000Y-65595000D02*
X54470000Y-57702400D01*
X54470000Y-57702400D02*
X58500000Y-53672400D01*
X58500000Y-53672400D02*
X58500000Y-46850000D01*
%TO.N,CC1*%
X82047200Y-45203500D02*
X80109100Y-45203500D01*
X80109100Y-45203500D02*
X68000100Y-57312500D01*
X68000100Y-57312500D02*
X68000100Y-63490500D01*
X68000100Y-63490500D02*
X60036300Y-71454300D01*
X60036300Y-71454300D02*
X59041700Y-71454300D01*
%TO.N,CC2*%
X79262000Y-45216000D02*
X79262000Y-45496900D01*
X79262000Y-45496900D02*
X67648400Y-57110500D01*
X67648400Y-57110500D02*
X67648400Y-63273200D01*
X67648400Y-63273200D02*
X60229300Y-70692300D01*
X60229300Y-70692300D02*
X60014300Y-70692300D01*
X60014300Y-70692300D02*
X60014300Y-70692400D01*
%TO.N,EN*%
X100500000Y-43750000D02*
X94501500Y-43750000D01*
X94501500Y-43750000D02*
X84451200Y-53800300D01*
%TO.N,FB*%
X60435500Y-66026700D02*
X64383400Y-66026700D01*
X64383400Y-66026700D02*
X67296700Y-63113400D01*
X67296700Y-63113400D02*
X67296700Y-56492800D01*
X67296700Y-56492800D02*
X68234400Y-55555100D01*
%TO.N,GND*%
X74125000Y-61390000D02*
X76297100Y-61390000D01*
X76297100Y-61390000D02*
X77800000Y-59887100D01*
X77800000Y-59887100D02*
X77800000Y-59389800D01*
X77800000Y-59389800D02*
X77800000Y-59343300D01*
X77800000Y-59343300D02*
X76856700Y-58400000D01*
X77800000Y-59389800D02*
X79474800Y-59389800D01*
X102500000Y-43750000D02*
X101648300Y-43750000D01*
X85332000Y-41399100D02*
X85332000Y-42351700D01*
X85332000Y-41300000D02*
X85332000Y-41399100D01*
X101648300Y-43750000D02*
X101648300Y-43004800D01*
X101648300Y-43004800D02*
X100042600Y-41399100D01*
X100042600Y-41399100D02*
X85332000Y-41399100D01*
X53198500Y-62165500D02*
X53198500Y-57554900D01*
X53198500Y-57554900D02*
X56500000Y-54253400D01*
X56500000Y-54253400D02*
X56500000Y-46850000D01*
X44310000Y-65595000D02*
X47739500Y-62165500D01*
X47739500Y-62165500D02*
X53198500Y-62165500D01*
X102500000Y-43750000D02*
X103351700Y-43750000D01*
X106500000Y-43750000D02*
X105648300Y-43750000D01*
X105648300Y-43750000D02*
X105648300Y-43004800D01*
X105648300Y-43004800D02*
X105266800Y-42623300D01*
X105266800Y-42623300D02*
X103733200Y-42623300D01*
X103733200Y-42623300D02*
X103351700Y-43004800D01*
X103351700Y-43004800D02*
X103351700Y-43750000D01*
X106500000Y-43750000D02*
X107351700Y-43750000D01*
X115700000Y-60450000D02*
X115700000Y-52098300D01*
X115700000Y-52098300D02*
X107351700Y-43750000D01*
X77240000Y-72630000D02*
X77240000Y-67469800D01*
X77240000Y-67469800D02*
X74125000Y-64354800D01*
X74125000Y-64354800D02*
X74125000Y-62640000D01*
X85332000Y-42351700D02*
X85332000Y-45480000D01*
X76692000Y-42351700D02*
X85332000Y-42351700D01*
X76692000Y-42351700D02*
X76692000Y-45480000D01*
X76692000Y-41300000D02*
X76692000Y-42351700D01*
X61325000Y-64075000D02*
X61325000Y-62725000D01*
X62675000Y-62725000D02*
X61325000Y-62725000D01*
X62675000Y-64075000D02*
X62675000Y-62725000D01*
X74125000Y-62640000D02*
X74125000Y-61390000D01*
X72875000Y-62640000D02*
X72875000Y-61390000D01*
X74125000Y-61390000D02*
X72875000Y-61390000D01*
%TO.N,IN*%
X58568900Y-55372400D02*
X57010000Y-56931300D01*
X57010000Y-56931300D02*
X57010000Y-65595000D01*
%TO.N,LBI*%
X61526300Y-55564600D02*
X59161200Y-57929700D01*
X59161200Y-57929700D02*
X59161200Y-62425000D01*
%TO.N,LBO*%
X72910600Y-49231600D02*
X66945000Y-55197200D01*
X66945000Y-55197200D02*
X66945000Y-62960700D01*
X66945000Y-62960700D02*
X65048800Y-64856900D01*
X65048800Y-64856900D02*
X59638900Y-64856900D01*
X59638900Y-64856900D02*
X59157000Y-64375000D01*
%TO.N,PROG1*%
X77050000Y-62015000D02*
X77050000Y-64634900D01*
X77050000Y-64634900D02*
X76303100Y-65381800D01*
%TO.N,SCL*%
X51930000Y-65595000D02*
X58380600Y-72045600D01*
X58380600Y-72045600D02*
X59942300Y-72045600D01*
X59942300Y-72045600D02*
X68351800Y-63636100D01*
X68351800Y-63636100D02*
X68351800Y-57458200D01*
X68351800Y-57458200D02*
X73386700Y-52423300D01*
X73386700Y-52423300D02*
X73844400Y-52423300D01*
X73844400Y-52423300D02*
X76236700Y-54815600D01*
X76236700Y-54815600D02*
X76667900Y-54815600D01*
X76667900Y-54815600D02*
X76991100Y-55138800D01*
X76991100Y-55138800D02*
X76991100Y-55862800D01*
X76991100Y-55862800D02*
X78665500Y-57537200D01*
X93721200Y-62965000D02*
X106724300Y-62965000D01*
X93721200Y-62965000D02*
X89157800Y-58401600D01*
X89157800Y-58401600D02*
X89156200Y-58401600D01*
X93721200Y-62965000D02*
X93721200Y-65332100D01*
X93721200Y-65332100D02*
X85294400Y-73758900D01*
X85294400Y-73758900D02*
X83448900Y-73758900D01*
X83448900Y-73758900D02*
X82320000Y-72630000D01*
%TO.N,SDA*%
X84906500Y-59687400D02*
X82777900Y-57558800D01*
X82777900Y-57558800D02*
X79467300Y-57558800D01*
X86494500Y-60188500D02*
X88904700Y-57778300D01*
X88904700Y-57778300D02*
X91854900Y-57778300D01*
X91854900Y-57778300D02*
X96323800Y-62247200D01*
X96323800Y-62247200D02*
X106792000Y-62247200D01*
X106792000Y-62247200D02*
X107276100Y-62731300D01*
X107276100Y-62731300D02*
X107276100Y-63517500D01*
X107276100Y-63517500D02*
X106734500Y-64059100D01*
X84860000Y-72630000D02*
X86494500Y-70995500D01*
X86494500Y-70995500D02*
X86494500Y-60188500D01*
X84906500Y-59687400D02*
X85407600Y-60188500D01*
X85407600Y-60188500D02*
X86494500Y-60188500D01*
X84860000Y-72630000D02*
X83712700Y-71482700D01*
X83712700Y-71482700D02*
X81901100Y-71482700D01*
X81901100Y-71482700D02*
X81011900Y-72371900D01*
X81011900Y-72371900D02*
X81011900Y-73033700D01*
X81011900Y-73033700D02*
X78951100Y-75094500D01*
X78951100Y-75094500D02*
X58889500Y-75094500D01*
X58889500Y-75094500D02*
X49390000Y-65595000D01*
%TO.N,SPKM*%
X115448300Y-67850000D02*
X115448300Y-67104800D01*
X115448300Y-67104800D02*
X107601600Y-59258100D01*
X107601600Y-59258100D02*
X104892000Y-59258100D01*
X104892000Y-59258100D02*
X103883300Y-60266800D01*
X103883300Y-60266800D02*
X96477800Y-60266800D01*
X96477800Y-60266800D02*
X93125300Y-56914300D01*
X93125300Y-56914300D02*
X78900300Y-56914300D01*
X78900300Y-56914300D02*
X77894600Y-55908600D01*
X116300000Y-67850000D02*
X115448300Y-67850000D01*
%TO.N,SPKP*%
X114300000Y-67850000D02*
X113448300Y-67850000D01*
X105486500Y-59818200D02*
X113448300Y-67780000D01*
X113448300Y-67780000D02*
X113448300Y-67850000D01*
%TO.N,THERM*%
X70898300Y-63551500D02*
X74609200Y-67262400D01*
X74609200Y-67262400D02*
X74609200Y-73163400D01*
%TO.N,V33*%
X79780000Y-72630000D02*
X78673600Y-73736400D01*
X78673600Y-73736400D02*
X58504500Y-73736400D01*
X58504500Y-73736400D02*
X50660000Y-65891900D01*
X50660000Y-65891900D02*
X50660000Y-65294300D01*
X50660000Y-65294300D02*
X49825600Y-64459900D01*
X49825600Y-64459900D02*
X47985100Y-64459900D01*
X47985100Y-64459900D02*
X46850000Y-65595000D01*
X79780000Y-72630000D02*
X82832500Y-69577500D01*
X82832500Y-69577500D02*
X82832500Y-59703300D01*
%TO.N,V5*%
D20*
X96817900Y-59701700D02*
X92891000Y-55774800D01*
X92891000Y-55774800D02*
X81841100Y-55774800D01*
X66472000Y-52546700D02*
X66472000Y-62629700D01*
X66472000Y-62629700D02*
X64855900Y-64245800D01*
X53994600Y-55807000D02*
X53994600Y-47351500D01*
X53994600Y-47351500D02*
X56953300Y-44392800D01*
X56953300Y-44392800D02*
X62235500Y-44392800D01*
X66472000Y-52546700D02*
X62235500Y-48310200D01*
X62235500Y-48310200D02*
X62235500Y-44392800D01*
X41770000Y-65595000D02*
X42971700Y-65595000D01*
X42971700Y-65595000D02*
X42971700Y-65219500D01*
X42971700Y-65219500D02*
X52384200Y-55807000D01*
X52384200Y-55807000D02*
X53994600Y-55807000D01*
%TO.N,VBUS*%
D19*
X71173100Y-62231700D02*
X72575600Y-60829200D01*
X72575600Y-60829200D02*
X75589400Y-60829200D01*
X75589400Y-60829200D02*
X75685900Y-60925700D01*
X75685900Y-60925700D02*
X76140300Y-60925700D01*
X76140300Y-60925700D02*
X76564400Y-60501600D01*
X76564400Y-60501600D02*
X76564400Y-60102300D01*
X76564400Y-60102300D02*
X76294100Y-59832000D01*
X76294100Y-59832000D02*
X76294100Y-55512600D01*
X76294100Y-55512600D02*
X76439400Y-55367300D01*
X71173100Y-62231700D02*
X71008200Y-62066800D01*
X71008200Y-62066800D02*
X70679000Y-62066800D01*
X74056100Y-65114700D02*
X71173100Y-62231700D01*
X75807900Y-53222600D02*
X77612700Y-53222600D01*
X77612700Y-53222600D02*
X83237200Y-47598100D01*
X74056100Y-65114700D02*
X75538700Y-66597300D01*
X75538700Y-66597300D02*
X75538700Y-71375000D01*
%TO.N,VLIPO*%
D21*
X71285700Y-59847100D02*
X75484000Y-59847100D01*
X75484000Y-59847100D02*
X75951700Y-60314800D01*
%TO.N,VPCC*%
D19*
X70074200Y-63225000D02*
X68703500Y-61854300D01*
X68703500Y-61854300D02*
X68703500Y-60334400D01*
X68703500Y-60334400D02*
X72941700Y-56096200D01*
%TO.N,VSYS*%
D20*
X73600000Y-52990300D02*
X73599900Y-52990300D01*
X73599900Y-52990300D02*
X73599900Y-56595100D01*
X73599900Y-56595100D02*
X69255300Y-60939700D01*
X69255300Y-60939700D02*
X69255300Y-61041400D01*
%TD*%
M02*
