M48
; DRILL file KiCad 10.0.6 date 2026-09-17T11:58:28
; FORMAT={-:-/ absolute / metric / decimal}
; #@! TF.CreationDate,2026-09-17T11:58:28+09:00
; #@! TF.GenerationSoftware,Kicad,Pcbnew,10.0.6
; #@! TF.FileFunction,Plated,1,4,PTH
FMAT,2
METRIC
; #@! TA.AperFunction,Plated,PTH,ViaDrill
T1C0.300
; #@! TA.AperFunction,Plated,PTH,ComponentDrill
T2C0.600
; #@! TA.AperFunction,Plated,PTH,ComponentDrill
T3C0.750
; #@! TA.AperFunction,Plated,PTH,ComponentDrill
T4C1.000
%
G90
G05
T1
X41.0Y-44.4
X41.0Y-47.6
X41.0Y-50.8
X41.0Y-54.0
X41.0Y-57.2
X41.0Y-60.4
X41.0Y-63.6
X41.0Y-70.0
X41.0Y-73.2
X41.0Y-76.4
X44.2Y-41.2
X44.2Y-47.6
X44.2Y-50.8
X44.2Y-54.0
X44.2Y-57.2
X44.2Y-60.4
X44.2Y-70.0
X44.2Y-76.4
X47.4Y-41.2
X47.4Y-44.4
X47.4Y-47.6
X47.4Y-50.8
X47.4Y-54.0
X47.4Y-57.2
X47.4Y-70.0
X47.4Y-73.2
X47.4Y-76.4
X50.6Y-41.2
X50.6Y-44.4
X50.6Y-47.6
X50.6Y-50.8
X50.6Y-54.0
X50.6Y-63.6
X50.6Y-73.2
X50.6Y-76.4
X53.2Y-62.164
X53.8Y-41.2
X53.8Y-44.4
X53.8Y-47.6
X53.8Y-50.8
X53.8Y-57.2
X53.8Y-70.0
X53.8Y-76.4
X55.1Y-54.81
X56.434Y-54.481
X56.572Y-51.808
X56.994Y-62.531
X57.0Y-41.2
X57.0Y-44.4
X57.393Y-60.919
X59.124Y-71.033
X59.151Y-63.4
X59.157Y-64.375
X59.161Y-62.425
X60.2Y-41.2
X60.2Y-44.4
X60.2Y-47.6
X61.325Y-62.725
X61.325Y-64.075
X61.675Y-66.244
X62.022Y-70.611
X62.028Y-55.553
X62.675Y-62.725
X62.675Y-64.075
X63.4Y-41.2
X64.418Y-51.428
X65.136Y-53.093
X66.021Y-71.411
X66.589Y-55.652
X66.6Y-41.2
X66.6Y-44.4
X66.6Y-47.6
X67.681Y-55.518
X67.958Y-57.444
X69.8Y-41.2
X69.8Y-44.4
X70.256Y-60.899
X70.262Y-71.242
X70.669Y-61.711
X71.021Y-64.646
X71.248Y-59.481
X71.562Y-63.626
X72.852Y-64.844
X72.875Y-61.39
X72.875Y-62.64
X72.911Y-49.232
X73.0Y-41.2
X73.0Y-44.4
X73.053Y-66.001
X73.463Y-53.152
X74.125Y-61.39
X74.125Y-62.64
X74.624Y-73.155
X75.54Y-71.375
X75.8Y-51.7
X75.952Y-60.315
X76.155Y-53.339
X76.393Y-67.49
X77.034Y-57.059
X77.05Y-62.013
X77.548Y-53.465
X77.868Y-56.814
X78.744Y-53.291
X79.262Y-45.216
X79.4Y-41.2
X79.577Y-57.391
X81.029Y-59.474
X81.656Y-60.225
X81.864Y-55.372
X82.047Y-45.203
X82.102Y-69.76
X82.6Y-41.2
X82.6Y-76.4
X83.236Y-47.595
X83.285Y-53.815
X84.27Y-62.008
X84.938Y-64.152
X85.8Y-76.4
X85.9Y-69.537
X89.0Y-41.2
X89.0Y-44.4
X89.0Y-47.6
X89.0Y-70.0
X89.0Y-73.2
X89.0Y-76.4
X89.156Y-58.4
X92.2Y-41.2
X92.2Y-44.4
X92.2Y-47.6
X92.2Y-54.0
X92.2Y-70.0
X92.2Y-73.2
X92.2Y-76.4
X93.531Y-63.114
X95.4Y-41.2
X95.4Y-44.4
X95.4Y-54.0
X95.4Y-60.4
X95.4Y-70.0
X95.4Y-73.2
X95.4Y-76.4
X96.647Y-57.763
X98.6Y-41.2
X98.6Y-47.6
X98.6Y-54.0
X98.6Y-60.4
X98.6Y-70.0
X98.6Y-73.2
X98.6Y-76.4
X101.8Y-41.2
X101.8Y-47.6
X101.8Y-54.0
X101.8Y-60.4
X101.8Y-70.0
X101.8Y-73.2
X101.8Y-76.4
X101.861Y-63.685
X104.673Y-61.592
X105.0Y-41.2
X105.0Y-47.6
X105.0Y-54.0
X105.0Y-70.0
X105.0Y-73.2
X105.0Y-76.4
X105.486Y-59.818
X106.726Y-62.965
X108.2Y-41.2
X108.2Y-47.6
X108.2Y-54.0
X108.2Y-70.0
X108.2Y-73.2
X108.2Y-76.4
X111.4Y-41.2
X111.4Y-44.4
X111.4Y-50.8
X111.4Y-54.0
X111.4Y-57.2
X111.4Y-70.0
X111.4Y-73.2
X111.4Y-76.4
X114.6Y-41.2
X114.6Y-44.4
X114.6Y-47.6
X114.6Y-54.0
X114.6Y-57.2
X114.6Y-70.0
X114.6Y-73.2
X114.6Y-76.4
X117.8Y-41.2
X117.8Y-44.4
X117.8Y-47.6
X117.8Y-50.8
X117.8Y-54.0
X117.8Y-57.2
X117.8Y-60.4
X117.8Y-63.6
X117.8Y-66.8
X117.8Y-70.0
X117.8Y-76.4
X121.0Y-41.2
X121.0Y-44.4
X121.0Y-47.6
X121.0Y-50.8
X121.0Y-54.0
X121.0Y-57.2
X121.0Y-60.4
X121.0Y-63.6
X121.0Y-66.8
X121.0Y-70.0
X121.0Y-76.4
T3
X51.95Y-59.3
X51.95Y-61.3
X56.5Y-46.85
X58.5Y-46.85
X100.5Y-43.75
X102.5Y-43.75
X104.5Y-43.75
X106.5Y-43.75
X114.3Y-67.85
X115.7Y-60.45
X115.7Y-62.45
X116.3Y-67.85
T4
X41.77Y-65.595
X44.31Y-65.595
X46.85Y-65.595
X49.39Y-65.595
X51.93Y-65.595
X54.47Y-65.595
X57.01Y-65.595
X77.24Y-72.63
X79.78Y-72.63
X82.32Y-72.63
X84.86Y-72.63
T2
X76.692Y-41.6G85X76.692Y-41.0
G05
X76.692Y-46.03G85X76.692Y-44.93
G05
X85.332Y-41.6G85X85.332Y-41.0
G05
X85.332Y-46.03G85X85.332Y-44.93
G05
M30
