M48
; DRILL file KiCad 10.0.6 date 2026-09-14T12:49:21
; FORMAT={-:-/ absolute / metric / decimal}
; #@! TF.CreationDate,2026-09-14T12:49:21+09:00
; #@! TF.GenerationSoftware,Kicad,Pcbnew,10.0.6
; #@! TF.FileFunction,Plated,1,2,PTH
FMAT,2
METRIC
; #@! TA.AperFunction,Plated,PTH,ViaDrill
T1C0.300
; #@! TA.AperFunction,Plated,PTH,ViaDrill
T2C0.400
; #@! TA.AperFunction,Plated,PTH,ComponentDrill
T3C0.600
; #@! TA.AperFunction,Plated,PTH,ComponentDrill
T4C0.750
; #@! TA.AperFunction,Plated,PTH,ComponentDrill
T5C1.000
%
G90
G05
T1
X41.0Y-47.6
X41.0Y-50.8
X41.0Y-54.0
X41.0Y-57.2
X41.0Y-60.4
X41.0Y-63.6
X41.0Y-70.0
X41.0Y-73.2
X41.0Y-76.4
X44.2Y-47.6
X44.2Y-57.2
X44.2Y-60.4
X44.2Y-70.0
X44.2Y-76.4
X47.4Y-41.2
X47.4Y-44.4
X47.4Y-47.6
X47.4Y-54.0
X47.4Y-63.6
X47.4Y-70.0
X47.4Y-73.2
X47.4Y-76.4
X50.6Y-41.2
X50.6Y-47.6
X50.6Y-54.0
X50.6Y-57.2
X50.6Y-73.2
X50.6Y-76.4
X53.8Y-41.2
X53.8Y-44.4
X53.8Y-47.6
X53.8Y-54.0
X53.8Y-57.2
X53.8Y-73.2
X53.8Y-76.4
X57.0Y-41.2
X57.0Y-73.2
X57.0Y-76.4
X60.2Y-41.2
X60.2Y-47.6
X60.2Y-73.2
X60.2Y-76.4
X63.4Y-41.2
X63.4Y-47.6
X63.4Y-66.8
X63.4Y-73.2
X63.4Y-76.4
X66.6Y-41.2
X66.6Y-57.2
X66.6Y-73.2
X66.6Y-76.4
X69.8Y-41.2
X69.8Y-76.4
X73.0Y-41.2
X73.0Y-76.4
X76.2Y-41.2
X76.2Y-66.8
X76.2Y-76.4
X79.4Y-41.2
X79.4Y-66.8
X79.4Y-76.4
X82.6Y-41.2
X82.6Y-50.8
X82.6Y-76.4
X85.8Y-41.2
X85.8Y-44.4
X85.8Y-76.4
X89.0Y-41.2
X89.0Y-44.4
X89.0Y-66.8
X89.0Y-76.4
X92.2Y-41.2
X92.2Y-44.4
X92.2Y-76.4
X95.4Y-41.2
X95.4Y-44.4
X95.4Y-76.4
X98.6Y-41.2
X98.6Y-44.4
X98.6Y-70.0
X98.6Y-76.4
X101.8Y-41.2
X101.8Y-47.6
X101.8Y-66.8
X101.8Y-73.2
X101.8Y-76.4
X105.0Y-41.2
X105.0Y-47.6
X105.0Y-70.0
X105.0Y-73.2
X105.0Y-76.4
X108.2Y-41.2
X108.2Y-47.6
X108.2Y-66.8
X108.2Y-70.0
X108.2Y-73.2
X108.2Y-76.4
X111.4Y-41.2
X111.4Y-57.2
X111.4Y-66.8
X111.4Y-70.0
X111.4Y-76.4
X114.6Y-41.2
X114.6Y-44.4
X114.6Y-60.4
X114.6Y-63.6
X114.6Y-73.2
X114.6Y-76.4
X117.8Y-50.8
X117.8Y-60.4
X117.8Y-63.6
X117.8Y-66.8
X117.8Y-70.0
X117.8Y-73.2
X117.8Y-76.4
X121.0Y-47.6
X121.0Y-50.8
X121.0Y-54.0
X121.0Y-57.2
X121.0Y-60.4
X121.0Y-63.6
X121.0Y-66.8
X121.0Y-70.0
X121.0Y-73.2
X121.0Y-76.4
T2
X54.073Y-71.86
X55.023Y-57.688
X58.846Y-44.052
X58.875Y-62.682
X60.828Y-52.328
X61.433Y-57.712
X62.224Y-64.127
X64.188Y-51.674
X65.938Y-53.484
X66.099Y-55.791
X66.148Y-50.071
X66.864Y-54.714
X67.816Y-54.907
X67.854Y-60.252
X69.079Y-48.035
X69.12Y-55.213
X69.841Y-57.275
X69.904Y-63.273
X71.523Y-52.688
X71.791Y-51.713
X72.053Y-63.022
X72.255Y-58.804
X72.828Y-50.562
X72.9Y-48.315
X72.963Y-72.195
X73.314Y-59.651
X73.806Y-51.621
X74.641Y-47.218
X75.627Y-57.086
X75.668Y-46.143
X76.924Y-51.418
X77.269Y-64.246
X79.449Y-59.833
X79.59Y-56.611
X80.075Y-54.36
X80.076Y-61.43
X80.749Y-50.272
X82.434Y-60.296
X83.065Y-48.139
X84.325Y-56.846
X86.634Y-46.178
X87.287Y-52.054
X87.349Y-54.643
X88.098Y-57.674
X88.316Y-60.664
X88.625Y-50.836
X88.945Y-49.014
X89.147Y-47.925
X89.733Y-72.519
X89.939Y-56.79
X92.995Y-69.696
X93.745Y-71.86
X93.868Y-61.09
X94.012Y-65.308
X94.25Y-59.65
X96.62Y-48.898
X101.682Y-62.942
X104.296Y-59.7
X105.901Y-59.914
X106.591Y-62.965
X106.63Y-64.235
X113.775Y-49.902
X117.382Y-52.75
T4
X43.55Y-50.85
X43.55Y-52.85
X51.95Y-59.3
X51.95Y-61.3
X56.5Y-47.95
X58.5Y-47.95
X100.5Y-43.75
X102.5Y-43.75
X104.5Y-43.75
X106.5Y-43.75
X114.3Y-69.35
X116.3Y-69.35
T5
X41.77Y-65.595
X44.31Y-65.595
X46.85Y-65.595
X49.39Y-65.595
X51.93Y-65.595
X54.47Y-65.595
X57.01Y-65.595
X77.24Y-72.63
X79.78Y-72.63
X82.32Y-72.63
X84.86Y-72.63
T3
X116.224Y-47.08G85X117.324Y-47.08
G05
X116.224Y-55.72G85X117.324Y-55.72
G05
M30
