M48
; DRILL file KiCad 10.0.6 date 2026-09-18T22:55:35
; FORMAT={-:-/ absolute / metric / decimal}
; #@! TF.CreationDate,2026-09-18T22:55:35+09:00
; #@! TF.GenerationSoftware,Kicad,Pcbnew,10.0.6
; #@! TF.FileFunction,Plated,1,4,PTH
FMAT,2
METRIC
; #@! TA.AperFunction,Plated,PTH,ViaDrill
T1C0.300
; #@! TA.AperFunction,Plated,PTH,ComponentDrill
T2C0.600
; #@! TA.AperFunction,Plated,PTH,ComponentDrill
T3C0.750
; #@! TA.AperFunction,Plated,PTH,ComponentDrill
T4C1.000
%
G90
G05
T1
X41.0Y-44.4
X41.0Y-47.6
X41.0Y-50.8
X41.0Y-54.0
X41.0Y-57.2
X41.0Y-60.4
X41.0Y-70.0
X41.0Y-73.2
X44.2Y-41.2
X44.2Y-47.6
X44.2Y-50.8
X44.2Y-54.0
X44.2Y-57.2
X44.2Y-76.4
X47.4Y-41.2
X47.4Y-44.4
X47.4Y-47.6
X47.4Y-50.8
X47.4Y-54.0
X47.4Y-73.2
X47.4Y-76.4
X50.6Y-41.2
X50.6Y-44.4
X50.6Y-47.6
X50.6Y-50.8
X50.6Y-73.2
X50.6Y-76.4
X53.2Y-62.165
X53.8Y-41.2
X53.8Y-44.4
X53.8Y-47.6
X53.8Y-54.0
X53.8Y-73.2
X53.8Y-76.4
X53.948Y-55.776
X56.435Y-62.672
X57.0Y-41.2
X57.0Y-44.4
X57.0Y-76.4
X58.131Y-69.486
X59.162Y-64.09
X59.173Y-63.127
X59.181Y-68.91
X59.373Y-61.574
X60.2Y-41.2
X60.2Y-44.4
X60.2Y-47.6
X61.325Y-62.44
X61.325Y-63.79
X61.632Y-73.564
X62.469Y-57.175
X62.557Y-55.552
X62.675Y-62.44
X62.675Y-63.79
X63.4Y-41.2
X63.858Y-70.338
X64.062Y-51.569
X65.612Y-67.868
X66.15Y-73.499
X66.6Y-41.2
X66.6Y-44.4
X66.6Y-47.6
X66.808Y-70.348
X67.566Y-57.109
X69.57Y-60.217
X69.8Y-41.2
X69.8Y-44.4
X70.325Y-62.129
X70.898Y-64.144
X71.031Y-53.284
X71.562Y-63.667
X71.662Y-53.9
X71.662Y-51.566
X72.45Y-58.575
X72.452Y-74.606
X72.534Y-68.8
X72.875Y-61.45
X72.875Y-62.7
X73.0Y-41.2
X73.0Y-44.4
X73.0Y-47.6
X73.0Y-66.8
X73.375Y-64.885
X73.5Y-55.45
X74.0Y-65.415
X74.125Y-61.45
X74.125Y-62.7
X75.084Y-59.707
X75.538Y-71.375
X75.901Y-53.306
X75.993Y-49.571
X76.393Y-67.495
X77.033Y-54.998
X77.05Y-62.075
X78.562Y-48.095
X78.576Y-55.127
X78.65Y-68.666
X78.699Y-59.299
X79.253Y-57.365
X79.262Y-48.538
X79.4Y-41.2
X79.4Y-44.4
X79.554Y-68.366
X81.558Y-58.015
X81.969Y-53.861
X82.054Y-47.579
X82.6Y-41.2
X82.6Y-44.4
X82.6Y-60.4
X82.6Y-76.4
X83.256Y-47.578
X83.925Y-55.807
X85.8Y-50.8
X85.8Y-76.4
X85.899Y-69.76
X87.495Y-63.4
X89.0Y-41.2
X89.0Y-70.0
X89.0Y-73.2
X89.0Y-76.4
X89.156Y-58.4
X89.401Y-55.807
X92.129Y-62.517
X92.2Y-44.4
X92.2Y-54.0
X92.2Y-60.4
X92.2Y-70.0
X92.2Y-73.2
X92.2Y-76.4
X94.18Y-55.75
X94.28Y-45.59
X95.4Y-54.0
X95.4Y-57.2
X95.4Y-60.4
X95.4Y-66.8
X95.4Y-73.2
X95.4Y-76.4
X97.466Y-48.13
X98.6Y-50.8
X98.6Y-54.0
X98.6Y-57.2
X98.6Y-60.4
X98.6Y-66.8
X98.6Y-73.2
X98.6Y-76.4
X99.726Y-63.683
X99.731Y-61.474
X101.8Y-50.8
X101.8Y-54.0
X101.8Y-57.2
X101.8Y-60.4
X101.8Y-66.8
X101.8Y-73.2
X101.8Y-76.4
X105.0Y-47.6
X105.0Y-54.0
X105.0Y-57.2
X105.0Y-66.8
X105.0Y-73.2
X105.0Y-76.4
X108.2Y-41.2
X108.2Y-57.2
X108.2Y-60.4
X108.2Y-66.8
X108.2Y-73.2
X108.2Y-76.4
X111.4Y-41.2
X111.4Y-44.4
X111.4Y-50.8
X111.4Y-60.4
X111.4Y-73.2
X111.4Y-76.4
X114.6Y-41.2
X114.6Y-44.4
X114.6Y-47.6
X114.6Y-54.0
X114.6Y-70.0
X114.6Y-73.2
X114.6Y-76.4
X117.8Y-41.2
X117.8Y-44.4
X117.8Y-47.6
X117.8Y-50.8
X117.8Y-66.8
X117.8Y-70.0
X117.8Y-76.4
X121.0Y-44.4
X121.0Y-47.6
X121.0Y-50.8
X121.0Y-54.0
X121.0Y-57.2
X121.0Y-60.4
X121.0Y-63.6
X121.0Y-66.8
X121.0Y-70.0
T3
X51.95Y-59.3
X51.95Y-61.3
X56.5Y-46.85
X58.5Y-46.85
X100.5Y-43.75
X102.5Y-43.75
X104.5Y-43.75
X106.5Y-43.75
X114.3Y-67.85
X115.7Y-60.45
X115.7Y-62.45
X116.3Y-67.85
T4
X41.77Y-65.595
X44.31Y-65.595
X46.85Y-65.595
X49.39Y-65.595
X51.93Y-65.595
X54.47Y-65.595
X57.01Y-65.595
X77.24Y-72.63
X79.78Y-72.63
X82.32Y-72.63
X84.86Y-72.63
T2
X76.692Y-41.6G85X76.692Y-41.0
G05
X76.692Y-46.03G85X76.692Y-44.93
G05
X85.332Y-41.6G85X85.332Y-41.0
G05
X85.332Y-46.03G85X85.332Y-44.93
G05
M30
