M48
; DRILL file KiCad 10.0.6 date 2026-09-17T01:27:10
; FORMAT={-:-/ absolute / metric / decimal}
; #@! TF.CreationDate,2026-09-17T01:27:10+09:00
; #@! TF.GenerationSoftware,Kicad,Pcbnew,10.0.6
; #@! TF.FileFunction,Plated,1,2,PTH
FMAT,2
METRIC
; #@! TA.AperFunction,Plated,PTH,ViaDrill
T1C0.300
; #@! TA.AperFunction,Plated,PTH,ViaDrill
T2C0.400
; #@! TA.AperFunction,Plated,PTH,ComponentDrill
T3C0.600
; #@! TA.AperFunction,Plated,PTH,ComponentDrill
T4C0.750
; #@! TA.AperFunction,Plated,PTH,ComponentDrill
T5C1.000
%
G90
G05
T1
X41.0Y-44.4
X41.0Y-47.6
X41.0Y-50.8
X41.0Y-54.0
X41.0Y-57.2
X41.0Y-60.4
X41.0Y-63.6
X41.0Y-70.0
X41.0Y-73.2
X41.0Y-76.4
X44.2Y-41.2
X44.2Y-47.6
X44.2Y-50.8
X44.2Y-54.0
X44.2Y-57.2
X44.2Y-60.4
X44.2Y-70.0
X44.2Y-76.4
X47.4Y-41.2
X47.4Y-44.4
X47.4Y-47.6
X47.4Y-50.8
X47.4Y-54.0
X47.4Y-57.2
X47.4Y-70.0
X47.4Y-73.2
X47.4Y-76.4
X50.6Y-41.2
X50.6Y-44.4
X50.6Y-47.6
X50.6Y-50.8
X50.6Y-54.0
X50.6Y-63.6
X50.6Y-73.2
X50.6Y-76.4
X53.8Y-41.2
X53.8Y-44.4
X53.8Y-47.6
X53.8Y-50.8
X53.8Y-76.4
X57.0Y-41.2
X57.0Y-44.4
X57.0Y-76.4
X60.2Y-41.2
X60.2Y-44.4
X60.2Y-47.6
X60.2Y-76.4
X61.325Y-63.54
X61.325Y-64.89
X62.675Y-63.54
X62.675Y-64.89
X63.4Y-41.2
X63.4Y-76.4
X66.6Y-41.2
X66.6Y-44.4
X66.6Y-76.4
X69.8Y-41.2
X69.8Y-76.4
X71.349Y-61.898
X71.349Y-63.148
X72.599Y-61.898
X72.599Y-63.148
X73.0Y-44.4
X73.0Y-76.4
X76.2Y-44.4
X76.2Y-76.4
X79.4Y-44.4
X79.4Y-70.0
X79.4Y-76.4
X82.6Y-44.4
X82.6Y-47.6
X82.6Y-50.8
X82.6Y-76.4
X85.8Y-44.4
X85.8Y-47.6
X85.8Y-76.4
X89.0Y-44.4
X89.0Y-47.6
X89.0Y-66.8
X89.0Y-76.4
X92.2Y-44.4
X92.2Y-47.6
X92.2Y-63.6
X92.2Y-70.0
X92.2Y-76.4
X95.4Y-44.4
X95.4Y-66.8
X95.4Y-70.0
X95.4Y-76.4
X98.6Y-47.6
X98.6Y-54.0
X98.6Y-66.8
X98.6Y-70.0
X98.6Y-76.4
X101.8Y-54.0
X101.8Y-66.8
X101.8Y-73.2
X101.8Y-76.4
X105.0Y-47.6
X105.0Y-54.0
X105.0Y-70.0
X105.0Y-73.2
X105.0Y-76.4
X108.2Y-41.2
X108.2Y-66.8
X108.2Y-70.0
X108.2Y-73.2
X108.2Y-76.4
X111.4Y-41.2
X111.4Y-44.4
X111.4Y-47.6
X111.4Y-50.8
X111.4Y-54.0
X111.4Y-57.2
X111.4Y-60.4
X111.4Y-63.6
X111.4Y-70.0
X111.4Y-73.2
X111.4Y-76.4
X114.6Y-41.2
X114.6Y-44.4
X114.6Y-47.6
X114.6Y-50.8
X114.6Y-54.0
X114.6Y-57.2
X114.6Y-60.4
X114.6Y-63.6
X114.6Y-70.0
X114.6Y-73.2
X114.6Y-76.4
X117.8Y-41.2
X117.8Y-44.4
X117.8Y-47.6
X117.8Y-50.8
X117.8Y-54.0
X117.8Y-57.2
X117.8Y-60.4
X117.8Y-63.6
X117.8Y-66.8
X117.8Y-70.0
X117.8Y-76.4
X121.0Y-41.2
X121.0Y-44.4
X121.0Y-47.6
X121.0Y-50.8
X121.0Y-54.0
X121.0Y-57.2
X121.0Y-60.4
X121.0Y-63.6
X121.0Y-66.8
X121.0Y-70.0
X121.0Y-76.4
T2
X49.455Y-60.45
X53.216Y-54.975
X55.18Y-68.25
X56.505Y-62.794
X56.825Y-64.189
X59.16Y-56.645
X59.712Y-69.39
X59.912Y-56.05
X60.037Y-65.965
X61.362Y-56.163
X61.685Y-60.737
X61.946Y-70.157
X63.272Y-69.38
X63.962Y-66.091
X64.219Y-62.502
X64.591Y-66.842
X65.57Y-72.514
X65.643Y-69.938
X66.351Y-59.421
X67.116Y-49.351
X67.534Y-61.862
X67.548Y-66.227
X69.594Y-55.874
X70.017Y-60.467
X70.037Y-64.203
X70.238Y-53.624
X70.42Y-57.332
X71.671Y-65.933
X72.883Y-48.588
X72.995Y-65.783
X73.475Y-56.829
X73.632Y-52.246
X73.657Y-60.822
X74.921Y-63.325
X75.347Y-56.153
X75.967Y-64.878
X78.279Y-60.415
X78.458Y-55.738
X80.088Y-59.279
X80.464Y-55.257
X80.675Y-57.997
X80.732Y-66.942
X83.787Y-60.159
X85.246Y-51.602
X86.14Y-56.459
X86.396Y-68.1
X87.025Y-57.811
X92.968Y-53.414
X100.6Y-64.785
X105.58Y-59.911
X106.636Y-64.235
X108.706Y-59.77
T4
X51.95Y-59.3
X51.95Y-61.3
X56.5Y-46.85
X58.5Y-46.85
X88.7Y-62.9
X88.7Y-64.9
X100.5Y-43.75
X102.5Y-43.75
X104.5Y-43.75
X106.5Y-43.75
X114.3Y-67.85
X116.3Y-67.85
T5
X41.77Y-65.595
X44.31Y-65.595
X46.85Y-65.595
X49.39Y-65.595
X51.93Y-65.595
X54.47Y-65.595
X57.01Y-65.595
X77.24Y-72.63
X79.78Y-72.63
X82.32Y-72.63
X84.86Y-72.63
T3
X62.5Y-71.6G85X62.5Y-72.7
G05
X71.14Y-71.6G85X71.14Y-72.7
G05
M30
