M48
; DRILL file KiCad 10.0.6 date 2026-09-17T14:01:54
; FORMAT={-:-/ absolute / metric / decimal}
; #@! TF.CreationDate,2026-09-17T14:01:54+09:00
; #@! TF.GenerationSoftware,Kicad,Pcbnew,10.0.6
; #@! TF.FileFunction,Plated,1,4,PTH
FMAT,2
METRIC
; #@! TA.AperFunction,Plated,PTH,ViaDrill
T1C0.300
; #@! TA.AperFunction,Plated,PTH,ComponentDrill
T2C0.600
; #@! TA.AperFunction,Plated,PTH,ComponentDrill
T3C0.750
; #@! TA.AperFunction,Plated,PTH,ComponentDrill
T4C1.000
%
G90
G05
T1
X41.0Y-44.4
X41.0Y-47.6
X41.0Y-50.8
X41.0Y-54.0
X41.0Y-57.2
X41.0Y-60.4
X41.0Y-63.6
X41.0Y-70.0
X41.0Y-73.2
X41.0Y-76.4
X44.2Y-41.2
X44.2Y-47.6
X44.2Y-50.8
X44.2Y-54.0
X44.2Y-57.2
X44.2Y-60.4
X44.2Y-76.4
X47.4Y-41.2
X47.4Y-44.4
X47.4Y-47.6
X47.4Y-50.8
X47.4Y-54.0
X47.4Y-57.2
X47.4Y-73.2
X47.4Y-76.4
X50.6Y-41.2
X50.6Y-44.4
X50.6Y-47.6
X50.6Y-50.8
X50.6Y-54.0
X50.6Y-63.6
X50.6Y-76.4
X53.2Y-62.165
X53.8Y-41.2
X53.8Y-44.4
X53.8Y-47.6
X53.8Y-50.8
X53.8Y-54.0
X53.8Y-57.2
X53.945Y-55.776
X56.436Y-50.942
X56.459Y-53.731
X57.0Y-41.2
X57.0Y-44.4
X57.077Y-62.385
X57.302Y-59.93
X58.131Y-69.486
X59.158Y-64.09
X59.163Y-61.929
X59.172Y-62.926
X60.2Y-41.2
X60.2Y-44.4
X60.233Y-70.187
X60.897Y-47.3
X61.325Y-62.44
X61.325Y-63.79
X61.431Y-73.565
X62.3Y-55.577
X62.675Y-62.44
X62.675Y-63.79
X63.4Y-41.2
X63.59Y-51.575
X63.858Y-70.338
X66.6Y-41.2
X66.6Y-44.4
X66.6Y-47.6
X67.091Y-73.554
X67.273Y-59.603
X67.798Y-66.878
X68.874Y-60.914
X69.8Y-41.2
X69.8Y-44.4
X69.8Y-54.0
X70.038Y-71.224
X70.21Y-59.465
X70.489Y-64.358
X70.694Y-61.72
X71.562Y-63.613
X71.904Y-54.4
X72.191Y-74.593
X72.772Y-64.844
X72.852Y-65.972
X72.875Y-61.39
X72.875Y-62.64
X72.911Y-49.232
X73.0Y-41.2
X73.0Y-44.4
X74.125Y-61.39
X74.125Y-62.64
X75.54Y-71.375
X75.868Y-55.184
X76.849Y-53.359
X76.952Y-57.89
X77.05Y-62.015
X77.98Y-60.585
X78.326Y-67.569
X78.65Y-68.648
X78.89Y-57.54
X79.262Y-45.216
X79.4Y-41.2
X80.051Y-59.297
X82.047Y-45.203
X82.6Y-41.2
X82.6Y-50.8
X82.914Y-47.59
X83.15Y-53.8
X84.024Y-59.709
X84.132Y-55.493
X87.495Y-63.4
X87.805Y-60.457
X89.0Y-41.2
X89.0Y-70.0
X89.0Y-73.2
X89.156Y-58.624
X89.401Y-55.807
X92.2Y-41.2
X92.2Y-44.4
X92.2Y-54.0
X92.2Y-57.2
X92.2Y-60.4
X92.2Y-70.0
X92.2Y-73.2
X94.18Y-55.75
X94.263Y-45.59
X95.4Y-41.2
X95.4Y-54.0
X95.4Y-57.2
X95.4Y-60.4
X95.4Y-70.0
X95.4Y-73.2
X97.391Y-48.13
X98.6Y-41.2
X98.6Y-47.6
X98.6Y-50.8
X98.6Y-57.2
X98.6Y-60.4
X98.6Y-70.0
X98.6Y-73.2
X101.8Y-41.2
X101.8Y-47.6
X101.8Y-50.8
X101.8Y-54.0
X101.8Y-60.4
X101.8Y-70.0
X101.8Y-73.2
X101.854Y-63.685
X105.0Y-41.2
X105.0Y-57.2
X105.0Y-70.0
X105.0Y-73.2
X106.726Y-62.965
X108.2Y-41.2
X108.2Y-44.4
X108.2Y-47.6
X108.2Y-50.8
X108.2Y-54.0
X108.2Y-60.4
X108.2Y-70.0
X108.2Y-73.2
X109.615Y-61.592
X111.4Y-41.2
X111.4Y-44.4
X111.4Y-47.6
X111.4Y-50.8
X111.4Y-54.0
X111.4Y-57.2
X111.4Y-63.6
X111.4Y-70.0
X111.4Y-76.4
X114.6Y-41.2
X114.6Y-44.4
X114.6Y-47.6
X114.6Y-50.8
X114.6Y-54.0
X114.6Y-57.2
X114.6Y-73.2
X114.6Y-76.4
X117.8Y-41.2
X117.8Y-44.4
X117.8Y-47.6
X117.8Y-50.8
X117.8Y-54.0
X117.8Y-57.2
X117.8Y-60.4
X117.8Y-63.6
X117.8Y-66.8
X117.8Y-70.0
X117.8Y-76.4
X121.0Y-41.2
X121.0Y-44.4
X121.0Y-47.6
X121.0Y-50.8
X121.0Y-54.0
X121.0Y-57.2
X121.0Y-60.4
X121.0Y-63.6
X121.0Y-66.8
X121.0Y-70.0
X121.0Y-76.4
T3
X51.95Y-59.3
X51.95Y-61.3
X56.5Y-46.85
X58.5Y-46.85
X100.5Y-43.75
X102.5Y-43.75
X104.5Y-43.75
X106.5Y-43.75
X114.3Y-67.85
X115.7Y-60.45
X115.7Y-62.45
X116.3Y-67.85
T4
X41.77Y-65.595
X44.31Y-65.595
X46.85Y-65.595
X49.39Y-65.595
X51.93Y-65.595
X54.47Y-65.595
X57.01Y-65.595
X77.24Y-72.63
X79.78Y-72.63
X82.32Y-72.63
X84.86Y-72.63
T2
X76.692Y-41.6G85X76.692Y-41.0
G05
X76.692Y-46.03G85X76.692Y-44.93
G05
X85.332Y-41.6G85X85.332Y-41.0
G05
X85.332Y-46.03G85X85.332Y-44.93
G05
M30
