%TF.GenerationSoftware,KiCad,Pcbnew,10.0.6*%
%TF.CreationDate,2026-09-17T04:15:04+09:00*%
%TF.ProjectId,katanori61,6b617461-6e6f-4726-9936-312e6b696361,rev?*%
%TF.SameCoordinates,Original*%
%TF.FileFunction,Copper,L4,Bot*%
%TF.FilePolarity,Positive*%
%FSLAX46Y46*%
G04 Gerber Fmt 4.6, Leading zero omitted, Abs format (unit mm)*
G04 Created by KiCad (PCBNEW 10.0.6) date 2026-09-17 04:15:04*
%MOMM*%
%LPD*%
G01*
G04 APERTURE LIST*
G04 Aperture macros list*
%AMRoundRect*
0 Rectangle with rounded corners*
0 $1 Rounding radius*
0 $2 $3 $4 $5 $6 $7 $8 $9 X,Y pos of 4 corners*
0 Add a 4 corners polygon primitive as box body*
4,1,4,$2,$3,$4,$5,$6,$7,$8,$9,$2,$3,0*
0 Add four circle primitives for the rounded corners*
1,1,$1+$1,$2,$3*
1,1,$1+$1,$4,$5*
1,1,$1+$1,$6,$7*
1,1,$1+$1,$8,$9*
0 Add four rect primitives between the rounded corners*
20,1,$1+$1,$2,$3,$4,$5,0*
20,1,$1+$1,$4,$5,$6,$7,0*
20,1,$1+$1,$6,$7,$8,$9,0*
20,1,$1+$1,$8,$9,$2,$3,0*%
G04 Aperture macros list end*
%TA.AperFunction,ComponentPad*%
%ADD10RoundRect,0.250000X-0.350000X-0.625000X0.350000X-0.625000X0.350000X0.625000X-0.350000X0.625000X0*%
%TD*%
%TA.AperFunction,ComponentPad*%
%ADD11O,1.200000X1.750000*%
%TD*%
%TA.AperFunction,ComponentPad*%
%ADD12RoundRect,0.250000X-0.625000X0.350000X-0.625000X-0.350000X0.625000X-0.350000X0.625000X0.350000X0*%
%TD*%
%TA.AperFunction,ComponentPad*%
%ADD13O,1.750000X1.200000*%
%TD*%
%TA.AperFunction,ComponentPad*%
%ADD14R,1.700000X1.700000*%
%TD*%
%TA.AperFunction,ComponentPad*%
%ADD15C,1.700000*%
%TD*%
%TA.AperFunction,ComponentPad*%
%ADD16O,1.000000X2.100000*%
%TD*%
%TA.AperFunction,ViaPad*%
%ADD17C,0.600000*%
%TD*%
%TA.AperFunction,Conductor*%
%ADD18C,0.200000*%
%TD*%
%TA.AperFunction,Conductor*%
%ADD19C,0.600000*%
%TD*%
%TA.AperFunction,Conductor*%
%ADD20C,0.400000*%
%TD*%
G04 APERTURE END LIST*
D10*
%TO.P,J4,1*%
%TO.N,SPKP*%
X114300000Y-67850000D03*
D11*
%TO.P,J4,2*%
%TO.N,SPKM*%
X116300000Y-67850000D03*
%TD*%
D12*
%TO.P,J5,1*%
%TO.N,SPKM*%
X51950000Y-59300000D03*
D13*
%TO.P,J5,2*%
%TO.N,SPKO*%
X51950000Y-61300000D03*
%TD*%
D10*
%TO.P,J6,1*%
%TO.N,GND*%
X56500000Y-46850000D03*
D11*
%TO.P,J6,2*%
%TO.N,BTN*%
X58500000Y-46850000D03*
%TD*%
D10*
%TO.P,J7,1*%
%TO.N,EN*%
X100500000Y-43750000D03*
D11*
%TO.P,J7,2*%
%TO.N,GND*%
X102500000Y-43750000D03*
%TO.P,J7,3*%
%TO.N,EN*%
X104500000Y-43750000D03*
%TO.P,J7,4*%
%TO.N,GND*%
X106500000Y-43750000D03*
%TD*%
D12*
%TO.P,J10,1*%
%TO.N,GND*%
X115700000Y-60450000D03*
D13*
%TO.P,J10,2*%
%TO.N,BATRAW*%
X115700000Y-62450000D03*
%TD*%
D14*
%TO.P,J1,1*%
%TO.N,V5*%
X41770000Y-65595000D03*
D15*
%TO.P,J1,2*%
%TO.N,GND*%
X44310000Y-65595000D03*
%TO.P,J1,3*%
%TO.N,V33*%
X46850000Y-65595000D03*
%TO.P,J1,4*%
%TO.N,SDA*%
X49390000Y-65595000D03*
%TO.P,J1,5*%
%TO.N,SCL*%
X51930000Y-65595000D03*
%TO.P,J1,6*%
%TO.N,BTN*%
X54470000Y-65595000D03*
%TO.P,J1,7*%
%TO.N,IN*%
X57010000Y-65595000D03*
%TD*%
D14*
%TO.P,J2,1*%
%TO.N,GND*%
X77240000Y-72630000D03*
D15*
%TO.P,J2,2*%
%TO.N,V33*%
X79780000Y-72630000D03*
%TO.P,J2,3*%
%TO.N,SCL*%
X82320000Y-72630000D03*
%TO.P,J2,4*%
%TO.N,SDA*%
X84860000Y-72630000D03*
%TD*%
D16*
%TO.P,J13,SH*%
%TO.N,GND*%
X85332000Y-44280000D03*
X76692000Y-44280000D03*
%TD*%
D17*
%TO.N,GND*%
X61325000Y-62725000D03*
X61325000Y-64075000D03*
X62675000Y-62725000D03*
X62675000Y-64075000D03*
X72875000Y-61390000D03*
X72875000Y-62640000D03*
X74125000Y-61390000D03*
X74125000Y-62640000D03*
%TO.N,BATG*%
X82083600Y-69520300D03*
X84273200Y-62450000D03*
%TO.N,BATRAW*%
X84939100Y-64151700D03*
%TO.N,CC1*%
X58895700Y-71308300D03*
X82043400Y-43999700D03*
%TO.N,CC2*%
X62293300Y-71308300D03*
X79462200Y-44018100D03*
%TO.N,COL*%
X56071700Y-57902300D03*
X97444900Y-51806800D03*
%TO.N,EN*%
X58635800Y-63725000D03*
X84201200Y-53550300D03*
%TO.N,FB*%
X67938400Y-55554700D03*
X60455700Y-66026700D03*
%TO.N,GND*%
X76851100Y-58546700D03*
X53200100Y-62165500D03*
X79401100Y-59455700D03*
%TO.N,IN*%
X58568900Y-55372400D03*
%TO.N,LBI*%
X61526300Y-55564600D03*
X59161200Y-62425000D03*
%TO.N,LBO*%
X72910600Y-49231600D03*
X59157000Y-64375000D03*
%TO.N,PROG1*%
X77050000Y-62015000D03*
X76303100Y-65381800D03*
%TO.N,SCL*%
X89156200Y-58400000D03*
X106725900Y-62965000D03*
X78498900Y-57537200D03*
%TO.N,SDA*%
X84947100Y-59687400D03*
X101854300Y-63684800D03*
X79321800Y-57579700D03*
%TO.N,SPKM*%
X69665600Y-60302300D03*
%TO.N,SPKO*%
X106922900Y-56898300D03*
%TO.N,SPKP*%
X105486500Y-59818200D03*
%TO.N,THERM*%
X70898300Y-63543800D03*
X74609200Y-73163400D03*
%TO.N,V33*%
X82832500Y-59703300D03*
%TO.N,V5*%
X66472000Y-52546700D03*
X64855400Y-64246300D03*
X53994600Y-55807000D03*
X62235500Y-44392800D03*
X96817900Y-59701700D03*
%TO.N,VBUS*%
X70174200Y-63980000D03*
X74073100Y-65095700D03*
X75806500Y-53224700D03*
X75539800Y-71375000D03*
X66020600Y-71410900D03*
X83253200Y-46380500D03*
%TO.N,VLIPO*%
X66797200Y-59604800D03*
X75951700Y-60314800D03*
%TO.N,VPCC*%
X75474000Y-57191300D03*
X71086000Y-60021400D03*
%TO.N,VSYS*%
X71813200Y-60429600D03*
X63369300Y-60122100D03*
X69000000Y-61039800D03*
X73364800Y-52756700D03*
%TO.N,GND*%
X41000000Y-76400000D03*
X41000000Y-73200000D03*
X41000000Y-70000000D03*
X41000000Y-63600000D03*
X41000000Y-60400000D03*
X41000000Y-57200000D03*
X41000000Y-54000000D03*
X41000000Y-50800000D03*
X41000000Y-47600000D03*
X41000000Y-44400000D03*
X44200000Y-76400000D03*
X44200000Y-70000000D03*
X44200000Y-60400000D03*
X44200000Y-57200000D03*
X44200000Y-54000000D03*
X44200000Y-50800000D03*
X44200000Y-47600000D03*
X44200000Y-41200000D03*
X47400000Y-76400000D03*
X47400000Y-73200000D03*
X47400000Y-70000000D03*
X47400000Y-57200000D03*
X47400000Y-54000000D03*
X47400000Y-50800000D03*
X47400000Y-47600000D03*
X47400000Y-44400000D03*
X47400000Y-41200000D03*
X50600000Y-76400000D03*
X50600000Y-73200000D03*
X50600000Y-70000000D03*
X50600000Y-63600000D03*
X50600000Y-54000000D03*
X50600000Y-50800000D03*
X50600000Y-47600000D03*
X50600000Y-44400000D03*
X50600000Y-41200000D03*
X53800000Y-76400000D03*
X53800000Y-73200000D03*
X53800000Y-44400000D03*
X53800000Y-41200000D03*
X57000000Y-76400000D03*
X57000000Y-41200000D03*
X60200000Y-76400000D03*
X60200000Y-47600000D03*
X60200000Y-41200000D03*
X63400000Y-76400000D03*
X63400000Y-41200000D03*
X66600000Y-76400000D03*
X66600000Y-47600000D03*
X66600000Y-44400000D03*
X66600000Y-41200000D03*
X69800000Y-76400000D03*
X69800000Y-70000000D03*
X69800000Y-44400000D03*
X69800000Y-41200000D03*
X73000000Y-76400000D03*
X73000000Y-41200000D03*
X76200000Y-76400000D03*
X76200000Y-41200000D03*
X79400000Y-76400000D03*
X79400000Y-47600000D03*
X79400000Y-41200000D03*
X82600000Y-76400000D03*
X82600000Y-50800000D03*
X82600000Y-41200000D03*
X85800000Y-76400000D03*
X85800000Y-66800000D03*
X85800000Y-54000000D03*
X85800000Y-47600000D03*
X85800000Y-41200000D03*
X89000000Y-76400000D03*
X89000000Y-73200000D03*
X89000000Y-70000000D03*
X89000000Y-66800000D03*
X89000000Y-54000000D03*
X89000000Y-50800000D03*
X89000000Y-44400000D03*
X89000000Y-41200000D03*
X92200000Y-76400000D03*
X92200000Y-73200000D03*
X92200000Y-70000000D03*
X92200000Y-66800000D03*
X92200000Y-63600000D03*
X92200000Y-54000000D03*
X92200000Y-50800000D03*
X92200000Y-47600000D03*
X92200000Y-41200000D03*
X95400000Y-76400000D03*
X95400000Y-73200000D03*
X95400000Y-70000000D03*
X95400000Y-66800000D03*
X95400000Y-54000000D03*
X95400000Y-50800000D03*
X95400000Y-47600000D03*
X95400000Y-41200000D03*
X98600000Y-76400000D03*
X98600000Y-73200000D03*
X98600000Y-70000000D03*
X98600000Y-66800000D03*
X98600000Y-54000000D03*
X98600000Y-47600000D03*
X98600000Y-41200000D03*
X101800000Y-76400000D03*
X101800000Y-73200000D03*
X101800000Y-70000000D03*
X101800000Y-66800000D03*
X101800000Y-54000000D03*
X101800000Y-47600000D03*
X101800000Y-41200000D03*
X105000000Y-76400000D03*
X105000000Y-73200000D03*
X105000000Y-70000000D03*
X105000000Y-66800000D03*
X105000000Y-54000000D03*
X105000000Y-47600000D03*
X105000000Y-41200000D03*
X108200000Y-76400000D03*
X108200000Y-73200000D03*
X108200000Y-70000000D03*
X108200000Y-66800000D03*
X108200000Y-54000000D03*
X108200000Y-47600000D03*
X108200000Y-41200000D03*
X111400000Y-76400000D03*
X111400000Y-73200000D03*
X111400000Y-70000000D03*
X111400000Y-57200000D03*
X111400000Y-54000000D03*
X111400000Y-50800000D03*
X111400000Y-44400000D03*
X111400000Y-41200000D03*
X114600000Y-76400000D03*
X114600000Y-73200000D03*
X114600000Y-70000000D03*
X114600000Y-57200000D03*
X114600000Y-54000000D03*
X114600000Y-47600000D03*
X114600000Y-44400000D03*
X114600000Y-41200000D03*
X117800000Y-76400000D03*
X117800000Y-70000000D03*
X117800000Y-66800000D03*
X117800000Y-63600000D03*
X117800000Y-60400000D03*
X117800000Y-57200000D03*
X117800000Y-54000000D03*
X117800000Y-50800000D03*
X117800000Y-47600000D03*
X117800000Y-44400000D03*
X117800000Y-41200000D03*
X121000000Y-76400000D03*
X121000000Y-70000000D03*
X121000000Y-66800000D03*
X121000000Y-63600000D03*
X121000000Y-60400000D03*
X121000000Y-57200000D03*
X121000000Y-54000000D03*
X121000000Y-50800000D03*
X121000000Y-47600000D03*
X121000000Y-44400000D03*
X121000000Y-41200000D03*
%TD*%
%TO.N,BATG*%
D18*
X82083600Y-69520300D02*
X84273200Y-67330700D01*
X84273200Y-67330700D02*
X84273200Y-62450000D01*
%TO.N,BATRAW*%
D19*
X84939100Y-64151700D02*
X86893300Y-62197500D01*
X86893300Y-62197500D02*
X114120800Y-62197500D01*
X114120800Y-62197500D02*
X114373300Y-62450000D01*
X115700000Y-62450000D02*
X114373300Y-62450000D01*
%TO.N,COL*%
D18*
X97444900Y-51806800D02*
X97128200Y-52123500D01*
X97128200Y-52123500D02*
X66846000Y-52123500D01*
X66846000Y-52123500D02*
X66683200Y-51960700D01*
X66683200Y-51960700D02*
X65867600Y-51960700D01*
X65867600Y-51960700D02*
X62981600Y-54846700D01*
X62981600Y-54846700D02*
X60908400Y-54846700D01*
X60908400Y-54846700D02*
X57852800Y-57902300D01*
X57852800Y-57902300D02*
X56071700Y-57902300D01*
%TO.N,GND*%
X72875000Y-62640000D02*
X62760000Y-62640000D01*
X62760000Y-62640000D02*
X62675000Y-62725000D01*
%TO.N,SDA*%
X79321800Y-57579700D02*
X82839400Y-57579700D01*
X82839400Y-57579700D02*
X84947100Y-59687400D01*
%TO.N,SPKM*%
X51950000Y-59300000D02*
X64399300Y-59300000D01*
X64399300Y-59300000D02*
X65401600Y-60302300D01*
X65401600Y-60302300D02*
X69665600Y-60302300D01*
%TO.N,SPKO*%
X106922900Y-56898300D02*
X102631000Y-61190200D01*
X102631000Y-61190200D02*
X76239600Y-61190200D01*
X76239600Y-61190200D02*
X75485000Y-61944800D01*
X75485000Y-61944800D02*
X63148600Y-61944800D01*
X63148600Y-61944800D02*
X62503800Y-61300000D01*
X62503800Y-61300000D02*
X51950000Y-61300000D01*
%TO.N,V5*%
D20*
X96817900Y-59701700D02*
X93655800Y-56539600D01*
X93655800Y-56539600D02*
X70464900Y-56539600D01*
X70464900Y-56539600D02*
X66472000Y-52546700D01*
%TO.N,VLIPO*%
D19*
X75951700Y-60314800D02*
X74906600Y-59269700D01*
X74906600Y-59269700D02*
X67132300Y-59269700D01*
X67132300Y-59269700D02*
X66797200Y-59604800D01*
%TO.N,VSYS*%
D20*
X69000000Y-61039800D02*
X64287000Y-61039800D01*
X64287000Y-61039800D02*
X63369300Y-60122100D01*
%TD*%
%TA.AperFunction,Conductor*%
%TO.N,GND*%
G36*
X74673542Y-59889885D02*
G01*
X74694183Y-59906518D01*
X75582984Y-60795320D01*
X75582986Y-60795321D01*
X75582990Y-60795324D01*
X75718326Y-60873459D01*
X75719916Y-60874377D01*
X75724704Y-60875660D01*
X75784362Y-60912022D01*
X75814893Y-60974868D01*
X75806600Y-61044244D01*
X75780291Y-61083115D01*
X75355426Y-61507981D01*
X75294103Y-61541466D01*
X75267745Y-61544300D01*
X69616899Y-61544300D01*
X69549860Y-61524615D01*
X69504105Y-61471811D01*
X69494161Y-61402653D01*
X69509512Y-61358300D01*
X69524339Y-61332619D01*
X69559577Y-61271584D01*
X69600500Y-61118857D01*
X69600500Y-61026800D01*
X69620185Y-60959761D01*
X69672989Y-60914006D01*
X69724500Y-60902800D01*
X69744655Y-60902800D01*
X69744657Y-60902800D01*
X69897384Y-60861877D01*
X70034316Y-60782820D01*
X70146120Y-60671016D01*
X70225177Y-60534084D01*
X70266100Y-60381357D01*
X70266100Y-60223517D01*
X70285785Y-60156478D01*
X70338589Y-60110723D01*
X70407747Y-60100779D01*
X70471303Y-60129804D01*
X70509077Y-60188582D01*
X70509863Y-60191384D01*
X70518474Y-60223517D01*
X70526423Y-60253183D01*
X70526426Y-60253190D01*
X70605475Y-60390109D01*
X70605479Y-60390114D01*
X70605480Y-60390116D01*
X70717284Y-60501920D01*
X70717286Y-60501921D01*
X70717290Y-60501924D01*
X70794652Y-60546588D01*
X70854216Y-60580977D01*
X71006943Y-60621900D01*
X71006945Y-60621900D01*
X71159235Y-60621900D01*
X71226274Y-60641585D01*
X71266622Y-60683900D01*
X71332677Y-60798312D01*
X71332679Y-60798315D01*
X71332680Y-60798316D01*
X71444484Y-60910120D01*
X71444486Y-60910121D01*
X71444490Y-60910124D01*
X71532166Y-60960743D01*
X71581416Y-60989177D01*
X71734143Y-61030100D01*
X71734145Y-61030100D01*
X71892255Y-61030100D01*
X71892257Y-61030100D01*
X72044984Y-60989177D01*
X72181916Y-60910120D01*
X72293720Y-60798316D01*
X72372777Y-60661384D01*
X72413700Y-60508657D01*
X72413700Y-60350543D01*
X72372777Y-60197816D01*
X72369087Y-60191424D01*
X72291016Y-60056199D01*
X72274543Y-59988299D01*
X72297396Y-59922272D01*
X72352317Y-59879082D01*
X72398403Y-59870200D01*
X74606503Y-59870200D01*
X74673542Y-59889885D01*
G37*
%TD.AperFunction*%
%TA.AperFunction,Conductor*%
G36*
X121666539Y-40320185D02*
G01*
X121712294Y-40372989D01*
X121723500Y-40424500D01*
X121723500Y-76975500D01*
X121703815Y-77042539D01*
X121651011Y-77088294D01*
X121599500Y-77099500D01*
X40424500Y-77099500D01*
X40357461Y-77079815D01*
X40311706Y-77027011D01*
X40300500Y-76975500D01*
X40300500Y-73793713D01*
X42649500Y-73793713D01*
X42649500Y-74006286D01*
X42682753Y-74216239D01*
X42748444Y-74418414D01*
X42844951Y-74607820D01*
X42969890Y-74779786D01*
X43120213Y-74930109D01*
X43292179Y-75055048D01*
X43292181Y-75055049D01*
X43292184Y-75055051D01*
X43481588Y-75151557D01*
X43683757Y-75217246D01*
X43893713Y-75250500D01*
X43893714Y-75250500D01*
X44106286Y-75250500D01*
X44106287Y-75250500D01*
X44316243Y-75217246D01*
X44518412Y-75151557D01*
X44707816Y-75055051D01*
X44729789Y-75039086D01*
X44879786Y-74930109D01*
X44879788Y-74930106D01*
X44879792Y-74930104D01*
X45030104Y-74779792D01*
X45030106Y-74779788D01*
X45030109Y-74779786D01*
X45155048Y-74607820D01*
X45155047Y-74607820D01*
X45155051Y-74607816D01*
X45251557Y-74418412D01*
X45317246Y-74216243D01*
X45350500Y-74006287D01*
X45350500Y-73793713D01*
X118003500Y-73793713D01*
X118003500Y-74006286D01*
X118036753Y-74216239D01*
X118102444Y-74418414D01*
X118198951Y-74607820D01*
X118323890Y-74779786D01*
X118474213Y-74930109D01*
X118646179Y-75055048D01*
X118646181Y-75055049D01*
X118646184Y-75055051D01*
X118835588Y-75151557D01*
X119037757Y-75217246D01*
X119247713Y-75250500D01*
X119247714Y-75250500D01*
X119460286Y-75250500D01*
X119460287Y-75250500D01*
X119670243Y-75217246D01*
X119872412Y-75151557D01*
X120061816Y-75055051D01*
X120083789Y-75039086D01*
X120233786Y-74930109D01*
X120233788Y-74930106D01*
X120233792Y-74930104D01*
X120384104Y-74779792D01*
X120384106Y-74779788D01*
X120384109Y-74779786D01*
X120509048Y-74607820D01*
X120509047Y-74607820D01*
X120509051Y-74607816D01*
X120605557Y-74418412D01*
X120671246Y-74216243D01*
X120704500Y-74006287D01*
X120704500Y-73793713D01*
X120671246Y-73583757D01*
X120605557Y-73381588D01*
X120509051Y-73192184D01*
X120509049Y-73192181D01*
X120509048Y-73192179D01*
X120384109Y-73020213D01*
X120233786Y-72869890D01*
X120061820Y-72744951D01*
X119872414Y-72648444D01*
X119872413Y-72648443D01*
X119872412Y-72648443D01*
X119670243Y-72582754D01*
X119670241Y-72582753D01*
X119670240Y-72582753D01*
X119508957Y-72557208D01*
X119460287Y-72549500D01*
X119247713Y-72549500D01*
X119199042Y-72557208D01*
X119037760Y-72582753D01*
X118835585Y-72648444D01*
X118646179Y-72744951D01*
X118474213Y-72869890D01*
X118323890Y-73020213D01*
X118198951Y-73192179D01*
X118102444Y-73381585D01*
X118036753Y-73583760D01*
X118003500Y-73793713D01*
X45350500Y-73793713D01*
X45317246Y-73583757D01*
X45251557Y-73381588D01*
X45155051Y-73192184D01*
X45076700Y-73084343D01*
X74008700Y-73084343D01*
X74008700Y-73242456D01*
X74049623Y-73395183D01*
X74049626Y-73395190D01*
X74128675Y-73532109D01*
X74128679Y-73532114D01*
X74128680Y-73532116D01*
X74240484Y-73643920D01*
X74240486Y-73643921D01*
X74240490Y-73643924D01*
X74331057Y-73696212D01*
X74377416Y-73722977D01*
X74530143Y-73763900D01*
X74530145Y-73763900D01*
X74688255Y-73763900D01*
X74688257Y-73763900D01*
X74840984Y-73722977D01*
X74977916Y-73643920D01*
X75089720Y-73532116D01*
X75168777Y-73395184D01*
X75209700Y-73242457D01*
X75209700Y-73084343D01*
X75168777Y-72931616D01*
X75150183Y-72899410D01*
X75089724Y-72794690D01*
X75089718Y-72794682D01*
X74977917Y-72682881D01*
X74977912Y-72682877D01*
X74907058Y-72641970D01*
X74907057Y-72641970D01*
X74902354Y-72639255D01*
X74840984Y-72603823D01*
X74688257Y-72562900D01*
X74530143Y-72562900D01*
X74377416Y-72603823D01*
X74377409Y-72603826D01*
X74240490Y-72682875D01*
X74240482Y-72682881D01*
X74128681Y-72794682D01*
X74128675Y-72794690D01*
X74049626Y-72931609D01*
X74049623Y-72931616D01*
X74008700Y-73084343D01*
X45076700Y-73084343D01*
X45030104Y-73020208D01*
X44879792Y-72869896D01*
X44879786Y-72869890D01*
X44707820Y-72744951D01*
X44518414Y-72648444D01*
X44518413Y-72648443D01*
X44518412Y-72648443D01*
X44316243Y-72582754D01*
X44316241Y-72582753D01*
X44316240Y-72582753D01*
X44154957Y-72557208D01*
X44106287Y-72549500D01*
X43893713Y-72549500D01*
X43845042Y-72557208D01*
X43683760Y-72582753D01*
X43481585Y-72648444D01*
X43292179Y-72744951D01*
X43120213Y-72869890D01*
X42969890Y-73020213D01*
X42844951Y-73192179D01*
X42748444Y-73381585D01*
X42682753Y-73583760D01*
X42649500Y-73793713D01*
X40300500Y-73793713D01*
X40300500Y-72539448D01*
X78629500Y-72539448D01*
X78629500Y-72720551D01*
X78657829Y-72899410D01*
X78713787Y-73071636D01*
X78713788Y-73071639D01*
X78796006Y-73232997D01*
X78902441Y-73379494D01*
X78902445Y-73379499D01*
X79030500Y-73507554D01*
X79030505Y-73507558D01*
X79135385Y-73583757D01*
X79177006Y-73613996D01*
X79235743Y-73643924D01*
X79338360Y-73696211D01*
X79338363Y-73696212D01*
X79420727Y-73722973D01*
X79510591Y-73752171D01*
X79593429Y-73765291D01*
X79689449Y-73780500D01*
X79689454Y-73780500D01*
X79870551Y-73780500D01*
X79957259Y-73766765D01*
X80049409Y-73752171D01*
X80221639Y-73696211D01*
X80382994Y-73613996D01*
X80529501Y-73507553D01*
X80657553Y-73379501D01*
X80763996Y-73232994D01*
X80846211Y-73071639D01*
X80902171Y-72899409D01*
X80926635Y-72744951D01*
X80927527Y-72739321D01*
X80957456Y-72676186D01*
X81016768Y-72639255D01*
X81086630Y-72640253D01*
X81144863Y-72678863D01*
X81172473Y-72739321D01*
X81197829Y-72899410D01*
X81253787Y-73071636D01*
X81253788Y-73071639D01*
X81336006Y-73232997D01*
X81442441Y-73379494D01*
X81442445Y-73379499D01*
X81570500Y-73507554D01*
X81570505Y-73507558D01*
X81675385Y-73583757D01*
X81717006Y-73613996D01*
X81775743Y-73643924D01*
X81878360Y-73696211D01*
X81878363Y-73696212D01*
X81960727Y-73722973D01*
X82050591Y-73752171D01*
X82133429Y-73765291D01*
X82229449Y-73780500D01*
X82229454Y-73780500D01*
X82410551Y-73780500D01*
X82497259Y-73766765D01*
X82589409Y-73752171D01*
X82761639Y-73696211D01*
X82922994Y-73613996D01*
X83069501Y-73507553D01*
X83197553Y-73379501D01*
X83303996Y-73232994D01*
X83386211Y-73071639D01*
X83442171Y-72899409D01*
X83466635Y-72744951D01*
X83467527Y-72739321D01*
X83497456Y-72676186D01*
X83556768Y-72639255D01*
X83626630Y-72640253D01*
X83684863Y-72678863D01*
X83712473Y-72739321D01*
X83737829Y-72899410D01*
X83793787Y-73071636D01*
X83793788Y-73071639D01*
X83876006Y-73232997D01*
X83982441Y-73379494D01*
X83982445Y-73379499D01*
X84110500Y-73507554D01*
X84110505Y-73507558D01*
X84215385Y-73583757D01*
X84257006Y-73613996D01*
X84315743Y-73643924D01*
X84418360Y-73696211D01*
X84418363Y-73696212D01*
X84500727Y-73722973D01*
X84590591Y-73752171D01*
X84673429Y-73765291D01*
X84769449Y-73780500D01*
X84769454Y-73780500D01*
X84950551Y-73780500D01*
X85037259Y-73766765D01*
X85129409Y-73752171D01*
X85301639Y-73696211D01*
X85301639Y-73696210D01*
X85301644Y-73696209D01*
X85336680Y-73678357D01*
X85336681Y-73678356D01*
X85462994Y-73613996D01*
X85609501Y-73507553D01*
X85737553Y-73379501D01*
X85843996Y-73232994D01*
X85926211Y-73071639D01*
X85982171Y-72899409D01*
X86006635Y-72744951D01*
X86010500Y-72720551D01*
X86010500Y-72539448D01*
X85994019Y-72435397D01*
X85982171Y-72360591D01*
X85926211Y-72188361D01*
X85926211Y-72188360D01*
X85897740Y-72132484D01*
X85843996Y-72027006D01*
X85806574Y-71975499D01*
X85737558Y-71880505D01*
X85737554Y-71880500D01*
X85609499Y-71752445D01*
X85609494Y-71752441D01*
X85462997Y-71646006D01*
X85462996Y-71646005D01*
X85462994Y-71646004D01*
X85386019Y-71606783D01*
X85301639Y-71563788D01*
X85301636Y-71563787D01*
X85129410Y-71507829D01*
X84950551Y-71479500D01*
X84950546Y-71479500D01*
X84769454Y-71479500D01*
X84769449Y-71479500D01*
X84590589Y-71507829D01*
X84418363Y-71563787D01*
X84418360Y-71563788D01*
X84257002Y-71646006D01*
X84110505Y-71752441D01*
X84110500Y-71752445D01*
X83982445Y-71880500D01*
X83982441Y-71880505D01*
X83876006Y-72027002D01*
X83793788Y-72188360D01*
X83793787Y-72188363D01*
X83737829Y-72360589D01*
X83712473Y-72520678D01*
X83682544Y-72583813D01*
X83623232Y-72620744D01*
X83553369Y-72619746D01*
X83495137Y-72581136D01*
X83467527Y-72520678D01*
X83453740Y-72433639D01*
X83442171Y-72360591D01*
X83386211Y-72188361D01*
X83386211Y-72188360D01*
X83357740Y-72132484D01*
X83303996Y-72027006D01*
X83266574Y-71975499D01*
X83197558Y-71880505D01*
X83197554Y-71880500D01*
X83069499Y-71752445D01*
X83069494Y-71752441D01*
X82922997Y-71646006D01*
X82922996Y-71646005D01*
X82922994Y-71646004D01*
X82846019Y-71606783D01*
X82761639Y-71563788D01*
X82761636Y-71563787D01*
X82589410Y-71507829D01*
X82410551Y-71479500D01*
X82410546Y-71479500D01*
X82229454Y-71479500D01*
X82229449Y-71479500D01*
X82050589Y-71507829D01*
X81878363Y-71563787D01*
X81878360Y-71563788D01*
X81717002Y-71646006D01*
X81570505Y-71752441D01*
X81570500Y-71752445D01*
X81442445Y-71880500D01*
X81442441Y-71880505D01*
X81336006Y-72027002D01*
X81253788Y-72188360D01*
X81253787Y-72188363D01*
X81197829Y-72360589D01*
X81172473Y-72520678D01*
X81142544Y-72583813D01*
X81083232Y-72620744D01*
X81013369Y-72619746D01*
X80955137Y-72581136D01*
X80927527Y-72520678D01*
X80913740Y-72433639D01*
X80902171Y-72360591D01*
X80846211Y-72188361D01*
X80846211Y-72188360D01*
X80817740Y-72132484D01*
X80763996Y-72027006D01*
X80726574Y-71975499D01*
X80657558Y-71880505D01*
X80657554Y-71880500D01*
X80529499Y-71752445D01*
X80529494Y-71752441D01*
X80382997Y-71646006D01*
X80382996Y-71646005D01*
X80382994Y-71646004D01*
X80306019Y-71606783D01*
X80221639Y-71563788D01*
X80221636Y-71563787D01*
X80049410Y-71507829D01*
X79870551Y-71479500D01*
X79870546Y-71479500D01*
X79689454Y-71479500D01*
X79689449Y-71479500D01*
X79510589Y-71507829D01*
X79338363Y-71563787D01*
X79338360Y-71563788D01*
X79177002Y-71646006D01*
X79030505Y-71752441D01*
X79030500Y-71752445D01*
X78902445Y-71880500D01*
X78902441Y-71880505D01*
X78796006Y-72027002D01*
X78713788Y-72188360D01*
X78713787Y-72188363D01*
X78657829Y-72360589D01*
X78629500Y-72539448D01*
X40300500Y-72539448D01*
X40300500Y-71229243D01*
X58295200Y-71229243D01*
X58295200Y-71387357D01*
X58327481Y-71507829D01*
X58336123Y-71540083D01*
X58336126Y-71540090D01*
X58415175Y-71677009D01*
X58415179Y-71677014D01*
X58415180Y-71677016D01*
X58526984Y-71788820D01*
X58526986Y-71788821D01*
X58526990Y-71788824D01*
X58642509Y-71855518D01*
X58663916Y-71867877D01*
X58816643Y-71908800D01*
X58816645Y-71908800D01*
X58974755Y-71908800D01*
X58974757Y-71908800D01*
X59127484Y-71867877D01*
X59264416Y-71788820D01*
X59376220Y-71677016D01*
X59455277Y-71540084D01*
X59496200Y-71387357D01*
X59496200Y-71229243D01*
X61692800Y-71229243D01*
X61692800Y-71387357D01*
X61725081Y-71507829D01*
X61733723Y-71540083D01*
X61733726Y-71540090D01*
X61812775Y-71677009D01*
X61812779Y-71677014D01*
X61812780Y-71677016D01*
X61924584Y-71788820D01*
X61924586Y-71788821D01*
X61924590Y-71788824D01*
X62040109Y-71855518D01*
X62061516Y-71867877D01*
X62214243Y-71908800D01*
X62214245Y-71908800D01*
X62372355Y-71908800D01*
X62372357Y-71908800D01*
X62525084Y-71867877D01*
X62662016Y-71788820D01*
X62773820Y-71677016D01*
X62852877Y-71540084D01*
X62893800Y-71387357D01*
X62893800Y-71331843D01*
X65420100Y-71331843D01*
X65420100Y-71489957D01*
X65451406Y-71606790D01*
X65461023Y-71642683D01*
X65461026Y-71642690D01*
X65540075Y-71779609D01*
X65540079Y-71779614D01*
X65540080Y-71779616D01*
X65651884Y-71891420D01*
X65651886Y-71891421D01*
X65651890Y-71891424D01*
X65788809Y-71970473D01*
X65788816Y-71970477D01*
X65941543Y-72011400D01*
X65941545Y-72011400D01*
X66099655Y-72011400D01*
X66099657Y-72011400D01*
X66252384Y-71970477D01*
X66389316Y-71891420D01*
X66501120Y-71779616D01*
X66580177Y-71642684D01*
X66621100Y-71489957D01*
X66621100Y-71331843D01*
X66611481Y-71295943D01*
X74939300Y-71295943D01*
X74939300Y-71454057D01*
X74968703Y-71563788D01*
X74980223Y-71606783D01*
X74980226Y-71606790D01*
X75059275Y-71743709D01*
X75059279Y-71743714D01*
X75059280Y-71743716D01*
X75171084Y-71855520D01*
X75171086Y-71855521D01*
X75171090Y-71855524D01*
X75308009Y-71934573D01*
X75308016Y-71934577D01*
X75460743Y-71975500D01*
X75460745Y-71975500D01*
X75618855Y-71975500D01*
X75618857Y-71975500D01*
X75771584Y-71934577D01*
X75908516Y-71855520D01*
X76020320Y-71743716D01*
X76099377Y-71606784D01*
X76140300Y-71454057D01*
X76140300Y-71295943D01*
X76099377Y-71143216D01*
X76060864Y-71076509D01*
X76020324Y-71006290D01*
X76020318Y-71006282D01*
X75908517Y-70894481D01*
X75908509Y-70894475D01*
X75771590Y-70815426D01*
X75771586Y-70815424D01*
X75771584Y-70815423D01*
X75618857Y-70774500D01*
X75460743Y-70774500D01*
X75308016Y-70815423D01*
X75308009Y-70815426D01*
X75171090Y-70894475D01*
X75171082Y-70894481D01*
X75059281Y-71006282D01*
X75059275Y-71006290D01*
X74980226Y-71143209D01*
X74980223Y-71143216D01*
X74939300Y-71295943D01*
X66611481Y-71295943D01*
X66580177Y-71179116D01*
X66559446Y-71143209D01*
X66501124Y-71042190D01*
X66501118Y-71042182D01*
X66389317Y-70930381D01*
X66389309Y-70930375D01*
X66252390Y-70851326D01*
X66252386Y-70851324D01*
X66252384Y-70851323D01*
X66099657Y-70810400D01*
X65941543Y-70810400D01*
X65788816Y-70851323D01*
X65788809Y-70851326D01*
X65651890Y-70930375D01*
X65651882Y-70930381D01*
X65540081Y-71042182D01*
X65540075Y-71042190D01*
X65461026Y-71179109D01*
X65461024Y-71179114D01*
X65461023Y-71179116D01*
X65420100Y-71331843D01*
X62893800Y-71331843D01*
X62893800Y-71229243D01*
X62852877Y-71076516D01*
X62833056Y-71042184D01*
X62773824Y-70939590D01*
X62773818Y-70939582D01*
X62662017Y-70827781D01*
X62662009Y-70827775D01*
X62525090Y-70748726D01*
X62525086Y-70748724D01*
X62525084Y-70748723D01*
X62372357Y-70707800D01*
X62214243Y-70707800D01*
X62061516Y-70748723D01*
X62061509Y-70748726D01*
X61924590Y-70827775D01*
X61924582Y-70827781D01*
X61812781Y-70939582D01*
X61812775Y-70939590D01*
X61733726Y-71076509D01*
X61733723Y-71076516D01*
X61692800Y-71229243D01*
X59496200Y-71229243D01*
X59455277Y-71076516D01*
X59435456Y-71042184D01*
X59376224Y-70939590D01*
X59376218Y-70939582D01*
X59264417Y-70827781D01*
X59264409Y-70827775D01*
X59127490Y-70748726D01*
X59127486Y-70748724D01*
X59127484Y-70748723D01*
X58974757Y-70707800D01*
X58816643Y-70707800D01*
X58663916Y-70748723D01*
X58663909Y-70748726D01*
X58526990Y-70827775D01*
X58526982Y-70827781D01*
X58415181Y-70939582D01*
X58415175Y-70939590D01*
X58336126Y-71076509D01*
X58336123Y-71076516D01*
X58295200Y-71229243D01*
X40300500Y-71229243D01*
X40300500Y-64700131D01*
X40619500Y-64700131D01*
X40619500Y-66489856D01*
X40619502Y-66489882D01*
X40622413Y-66514987D01*
X40622415Y-66514991D01*
X40667793Y-66617764D01*
X40667794Y-66617765D01*
X40747235Y-66697206D01*
X40850009Y-66742585D01*
X40875135Y-66745500D01*
X42664864Y-66745499D01*
X42664879Y-66745497D01*
X42664882Y-66745497D01*
X42689987Y-66742586D01*
X42689988Y-66742585D01*
X42689991Y-66742585D01*
X42792765Y-66697206D01*
X42872206Y-66617765D01*
X42917585Y-66514991D01*
X42920500Y-66489865D01*
X42920499Y-65504448D01*
X45699500Y-65504448D01*
X45699500Y-65685551D01*
X45727829Y-65864410D01*
X45783787Y-66036636D01*
X45783788Y-66036639D01*
X45866006Y-66197997D01*
X45972441Y-66344494D01*
X45972445Y-66344499D01*
X46100500Y-66472554D01*
X46100505Y-66472558D01*
X46228287Y-66565396D01*
X46247006Y-66578996D01*
X46323094Y-66617765D01*
X46408360Y-66661211D01*
X46408363Y-66661212D01*
X46481953Y-66685122D01*
X46580591Y-66717171D01*
X46663429Y-66730291D01*
X46759449Y-66745500D01*
X46759454Y-66745500D01*
X46940551Y-66745500D01*
X47027259Y-66731765D01*
X47119409Y-66717171D01*
X47291639Y-66661211D01*
X47452994Y-66578996D01*
X47599501Y-66472553D01*
X47727553Y-66344501D01*
X47833996Y-66197994D01*
X47916211Y-66036639D01*
X47972171Y-65864409D01*
X47990211Y-65750509D01*
X47997527Y-65704321D01*
X48027456Y-65641186D01*
X48086768Y-65604255D01*
X48156630Y-65605253D01*
X48214863Y-65643863D01*
X48242473Y-65704321D01*
X48267829Y-65864410D01*
X48323787Y-66036636D01*
X48323788Y-66036639D01*
X48406006Y-66197997D01*
X48512441Y-66344494D01*
X48512445Y-66344499D01*
X48640500Y-66472554D01*
X48640505Y-66472558D01*
X48768287Y-66565396D01*
X48787006Y-66578996D01*
X48863094Y-66617765D01*
X48948360Y-66661211D01*
X48948363Y-66661212D01*
X49021953Y-66685122D01*
X49120591Y-66717171D01*
X49203429Y-66730291D01*
X49299449Y-66745500D01*
X49299454Y-66745500D01*
X49480551Y-66745500D01*
X49567259Y-66731765D01*
X49659409Y-66717171D01*
X49831639Y-66661211D01*
X49992994Y-66578996D01*
X50139501Y-66472553D01*
X50267553Y-66344501D01*
X50373996Y-66197994D01*
X50456211Y-66036639D01*
X50512171Y-65864409D01*
X50530211Y-65750509D01*
X50537527Y-65704321D01*
X50567456Y-65641186D01*
X50626768Y-65604255D01*
X50696630Y-65605253D01*
X50754863Y-65643863D01*
X50782473Y-65704321D01*
X50807829Y-65864410D01*
X50863787Y-66036636D01*
X50863788Y-66036639D01*
X50946006Y-66197997D01*
X51052441Y-66344494D01*
X51052445Y-66344499D01*
X51180500Y-66472554D01*
X51180505Y-66472558D01*
X51308287Y-66565396D01*
X51327006Y-66578996D01*
X51403094Y-66617765D01*
X51488360Y-66661211D01*
X51488363Y-66661212D01*
X51561953Y-66685122D01*
X51660591Y-66717171D01*
X51743429Y-66730291D01*
X51839449Y-66745500D01*
X51839454Y-66745500D01*
X52020551Y-66745500D01*
X52107259Y-66731765D01*
X52199409Y-66717171D01*
X52371639Y-66661211D01*
X52532994Y-66578996D01*
X52679501Y-66472553D01*
X52807553Y-66344501D01*
X52913996Y-66197994D01*
X52996211Y-66036639D01*
X53052171Y-65864409D01*
X53070211Y-65750509D01*
X53077527Y-65704321D01*
X53107456Y-65641186D01*
X53166768Y-65604255D01*
X53236630Y-65605253D01*
X53294863Y-65643863D01*
X53322473Y-65704321D01*
X53347829Y-65864410D01*
X53403787Y-66036636D01*
X53403788Y-66036639D01*
X53486006Y-66197997D01*
X53592441Y-66344494D01*
X53592445Y-66344499D01*
X53720500Y-66472554D01*
X53720505Y-66472558D01*
X53848287Y-66565396D01*
X53867006Y-66578996D01*
X53943094Y-66617765D01*
X54028360Y-66661211D01*
X54028363Y-66661212D01*
X54101953Y-66685122D01*
X54200591Y-66717171D01*
X54283429Y-66730291D01*
X54379449Y-66745500D01*
X54379454Y-66745500D01*
X54560551Y-66745500D01*
X54647259Y-66731765D01*
X54739409Y-66717171D01*
X54911639Y-66661211D01*
X55072994Y-66578996D01*
X55219501Y-66472553D01*
X55347553Y-66344501D01*
X55453996Y-66197994D01*
X55536211Y-66036639D01*
X55592171Y-65864409D01*
X55610211Y-65750509D01*
X55617527Y-65704321D01*
X55647456Y-65641186D01*
X55706768Y-65604255D01*
X55776630Y-65605253D01*
X55834863Y-65643863D01*
X55862473Y-65704321D01*
X55887829Y-65864410D01*
X55943787Y-66036636D01*
X55943788Y-66036639D01*
X56026006Y-66197997D01*
X56132441Y-66344494D01*
X56132445Y-66344499D01*
X56260500Y-66472554D01*
X56260505Y-66472558D01*
X56388287Y-66565396D01*
X56407006Y-66578996D01*
X56483094Y-66617765D01*
X56568360Y-66661211D01*
X56568363Y-66661212D01*
X56641953Y-66685122D01*
X56740591Y-66717171D01*
X56823429Y-66730291D01*
X56919449Y-66745500D01*
X56919454Y-66745500D01*
X57100551Y-66745500D01*
X57187259Y-66731765D01*
X57279409Y-66717171D01*
X57451639Y-66661211D01*
X57612994Y-66578996D01*
X57759501Y-66472553D01*
X57887553Y-66344501D01*
X57993996Y-66197994D01*
X58076211Y-66036639D01*
X58093867Y-65982299D01*
X58105127Y-65947643D01*
X59855200Y-65947643D01*
X59855200Y-66105756D01*
X59896123Y-66258483D01*
X59896126Y-66258490D01*
X59975175Y-66395409D01*
X59975179Y-66395414D01*
X59975180Y-66395416D01*
X60086984Y-66507220D01*
X60086986Y-66507221D01*
X60086990Y-66507224D01*
X60211305Y-66578996D01*
X60223916Y-66586277D01*
X60376643Y-66627200D01*
X60376645Y-66627200D01*
X60534755Y-66627200D01*
X60534757Y-66627200D01*
X60687484Y-66586277D01*
X60824416Y-66507220D01*
X60936220Y-66395416D01*
X61015277Y-66258484D01*
X61056200Y-66105757D01*
X61056200Y-65947643D01*
X61015277Y-65794916D01*
X61015273Y-65794909D01*
X60936224Y-65657990D01*
X60936218Y-65657982D01*
X60824417Y-65546181D01*
X60824409Y-65546175D01*
X60687490Y-65467126D01*
X60687486Y-65467124D01*
X60687484Y-65467123D01*
X60534757Y-65426200D01*
X60376643Y-65426200D01*
X60223916Y-65467123D01*
X60223909Y-65467126D01*
X60086990Y-65546175D01*
X60086982Y-65546181D01*
X59975181Y-65657982D01*
X59975175Y-65657990D01*
X59896126Y-65794909D01*
X59896123Y-65794916D01*
X59855200Y-65947643D01*
X58105127Y-65947643D01*
X58120218Y-65901199D01*
X58120218Y-65901198D01*
X58123671Y-65890567D01*
X58132171Y-65864409D01*
X58150211Y-65750509D01*
X58160500Y-65685551D01*
X58160500Y-65504448D01*
X58144019Y-65400397D01*
X58132171Y-65325591D01*
X58076211Y-65153361D01*
X58076211Y-65153360D01*
X58006549Y-65016643D01*
X73472600Y-65016643D01*
X73472600Y-65174757D01*
X73513016Y-65325589D01*
X73513523Y-65327483D01*
X73513526Y-65327490D01*
X73592575Y-65464409D01*
X73592579Y-65464414D01*
X73592580Y-65464416D01*
X73704384Y-65576220D01*
X73704386Y-65576221D01*
X73704390Y-65576224D01*
X73769111Y-65613590D01*
X73841316Y-65655277D01*
X73994043Y-65696200D01*
X73994045Y-65696200D01*
X74152155Y-65696200D01*
X74152157Y-65696200D01*
X74304884Y-65655277D01*
X74441816Y-65576220D01*
X74553620Y-65464416D01*
X74632677Y-65327484D01*
X74639306Y-65302743D01*
X75702600Y-65302743D01*
X75702600Y-65460857D01*
X75741024Y-65604255D01*
X75743523Y-65613583D01*
X75743526Y-65613590D01*
X75822575Y-65750509D01*
X75822579Y-65750514D01*
X75822580Y-65750516D01*
X75934384Y-65862320D01*
X75934386Y-65862321D01*
X75934390Y-65862324D01*
X76001723Y-65901198D01*
X76071316Y-65941377D01*
X76224043Y-65982300D01*
X76224045Y-65982300D01*
X76382155Y-65982300D01*
X76382157Y-65982300D01*
X76534884Y-65941377D01*
X76671816Y-65862320D01*
X76783620Y-65750516D01*
X76862677Y-65613584D01*
X76903600Y-65460857D01*
X76903600Y-65302743D01*
X76862677Y-65150016D01*
X76785675Y-65016643D01*
X76783624Y-65013090D01*
X76783618Y-65013082D01*
X76671817Y-64901281D01*
X76671809Y-64901275D01*
X76534890Y-64822226D01*
X76534886Y-64822224D01*
X76534884Y-64822223D01*
X76382157Y-64781300D01*
X76224043Y-64781300D01*
X76071316Y-64822223D01*
X76071309Y-64822226D01*
X75934390Y-64901275D01*
X75934382Y-64901281D01*
X75822581Y-65013082D01*
X75822575Y-65013090D01*
X75743526Y-65150009D01*
X75743523Y-65150016D01*
X75702600Y-65302743D01*
X74639306Y-65302743D01*
X74673600Y-65174757D01*
X74673600Y-65016643D01*
X74632677Y-64863916D01*
X74627830Y-64855520D01*
X74553624Y-64726990D01*
X74553618Y-64726982D01*
X74441817Y-64615181D01*
X74441809Y-64615175D01*
X74304890Y-64536126D01*
X74304886Y-64536124D01*
X74304884Y-64536123D01*
X74152157Y-64495200D01*
X73994043Y-64495200D01*
X73841316Y-64536123D01*
X73841309Y-64536126D01*
X73704390Y-64615175D01*
X73704382Y-64615181D01*
X73592581Y-64726982D01*
X73592575Y-64726990D01*
X73513526Y-64863909D01*
X73513523Y-64863916D01*
X73472600Y-65016643D01*
X58006549Y-65016643D01*
X57993996Y-64992006D01*
X57928080Y-64901280D01*
X57887558Y-64845505D01*
X57887554Y-64845500D01*
X57759499Y-64717445D01*
X57759494Y-64717441D01*
X57612997Y-64611006D01*
X57612996Y-64611005D01*
X57612994Y-64611004D01*
X57536906Y-64572235D01*
X57451639Y-64528788D01*
X57451636Y-64528787D01*
X57279410Y-64472829D01*
X57100551Y-64444500D01*
X57100546Y-64444500D01*
X56919454Y-64444500D01*
X56919449Y-64444500D01*
X56740589Y-64472829D01*
X56568363Y-64528787D01*
X56568360Y-64528788D01*
X56407002Y-64611006D01*
X56260505Y-64717441D01*
X56260500Y-64717445D01*
X56132445Y-64845500D01*
X56132441Y-64845505D01*
X56026006Y-64992002D01*
X55943788Y-65153360D01*
X55943787Y-65153363D01*
X55887829Y-65325589D01*
X55862473Y-65485678D01*
X55832544Y-65548813D01*
X55773232Y-65585744D01*
X55703369Y-65584746D01*
X55645137Y-65546136D01*
X55617527Y-65485678D01*
X55603740Y-65398639D01*
X55592171Y-65325591D01*
X55536211Y-65153361D01*
X55536211Y-65153360D01*
X55466549Y-65016643D01*
X55453996Y-64992006D01*
X55388080Y-64901280D01*
X55347558Y-64845505D01*
X55347554Y-64845500D01*
X55219499Y-64717445D01*
X55219494Y-64717441D01*
X55072997Y-64611006D01*
X55072996Y-64611005D01*
X55072994Y-64611004D01*
X54996906Y-64572235D01*
X54911639Y-64528788D01*
X54911636Y-64528787D01*
X54739410Y-64472829D01*
X54560551Y-64444500D01*
X54560546Y-64444500D01*
X54379454Y-64444500D01*
X54379449Y-64444500D01*
X54200589Y-64472829D01*
X54028363Y-64528787D01*
X54028360Y-64528788D01*
X53867002Y-64611006D01*
X53720505Y-64717441D01*
X53720500Y-64717445D01*
X53592445Y-64845500D01*
X53592441Y-64845505D01*
X53486006Y-64992002D01*
X53403788Y-65153360D01*
X53403787Y-65153363D01*
X53347829Y-65325589D01*
X53322473Y-65485678D01*
X53292544Y-65548813D01*
X53233232Y-65585744D01*
X53163369Y-65584746D01*
X53105137Y-65546136D01*
X53077527Y-65485678D01*
X53063740Y-65398639D01*
X53052171Y-65325591D01*
X52996211Y-65153361D01*
X52996211Y-65153360D01*
X52926549Y-65016643D01*
X52913996Y-64992006D01*
X52848080Y-64901280D01*
X52807558Y-64845505D01*
X52807554Y-64845500D01*
X52679499Y-64717445D01*
X52679494Y-64717441D01*
X52532997Y-64611006D01*
X52532996Y-64611005D01*
X52532994Y-64611004D01*
X52456906Y-64572235D01*
X52371639Y-64528788D01*
X52371636Y-64528787D01*
X52199410Y-64472829D01*
X52020551Y-64444500D01*
X52020546Y-64444500D01*
X51839454Y-64444500D01*
X51839449Y-64444500D01*
X51660589Y-64472829D01*
X51488363Y-64528787D01*
X51488360Y-64528788D01*
X51327002Y-64611006D01*
X51180505Y-64717441D01*
X51180500Y-64717445D01*
X51052445Y-64845500D01*
X51052441Y-64845505D01*
X50946006Y-64992002D01*
X50863788Y-65153360D01*
X50863787Y-65153363D01*
X50807829Y-65325589D01*
X50782473Y-65485678D01*
X50752544Y-65548813D01*
X50693232Y-65585744D01*
X50623369Y-65584746D01*
X50565137Y-65546136D01*
X50537527Y-65485678D01*
X50523740Y-65398639D01*
X50512171Y-65325591D01*
X50456211Y-65153361D01*
X50456211Y-65153360D01*
X50386549Y-65016643D01*
X50373996Y-64992006D01*
X50308080Y-64901280D01*
X50267558Y-64845505D01*
X50267554Y-64845500D01*
X50139499Y-64717445D01*
X50139494Y-64717441D01*
X49992997Y-64611006D01*
X49992996Y-64611005D01*
X49992994Y-64611004D01*
X49916906Y-64572235D01*
X49831639Y-64528788D01*
X49831636Y-64528787D01*
X49659410Y-64472829D01*
X49480551Y-64444500D01*
X49480546Y-64444500D01*
X49299454Y-64444500D01*
X49299449Y-64444500D01*
X49120589Y-64472829D01*
X48948363Y-64528787D01*
X48948360Y-64528788D01*
X48787002Y-64611006D01*
X48640505Y-64717441D01*
X48640500Y-64717445D01*
X48512445Y-64845500D01*
X48512441Y-64845505D01*
X48406006Y-64992002D01*
X48323788Y-65153360D01*
X48323787Y-65153363D01*
X48267829Y-65325589D01*
X48242473Y-65485678D01*
X48212544Y-65548813D01*
X48153232Y-65585744D01*
X48083369Y-65584746D01*
X48025137Y-65546136D01*
X47997527Y-65485678D01*
X47983740Y-65398639D01*
X47972171Y-65325591D01*
X47916211Y-65153361D01*
X47916211Y-65153360D01*
X47846549Y-65016643D01*
X47833996Y-64992006D01*
X47768080Y-64901280D01*
X47727558Y-64845505D01*
X47727554Y-64845500D01*
X47599499Y-64717445D01*
X47599494Y-64717441D01*
X47452997Y-64611006D01*
X47452996Y-64611005D01*
X47452994Y-64611004D01*
X47376906Y-64572235D01*
X47291639Y-64528788D01*
X47291636Y-64528787D01*
X47119410Y-64472829D01*
X46940551Y-64444500D01*
X46940546Y-64444500D01*
X46759454Y-64444500D01*
X46759449Y-64444500D01*
X46580589Y-64472829D01*
X46408363Y-64528787D01*
X46408360Y-64528788D01*
X46247002Y-64611006D01*
X46100505Y-64717441D01*
X46100500Y-64717445D01*
X45972445Y-64845500D01*
X45972441Y-64845505D01*
X45866006Y-64992002D01*
X45783788Y-65153360D01*
X45783787Y-65153363D01*
X45727829Y-65325589D01*
X45699500Y-65504448D01*
X42920499Y-65504448D01*
X42920499Y-64700136D01*
X42920497Y-64700117D01*
X42917586Y-64675012D01*
X42917585Y-64675010D01*
X42917585Y-64675009D01*
X42872206Y-64572235D01*
X42792765Y-64492794D01*
X42792763Y-64492793D01*
X42689992Y-64447415D01*
X42664865Y-64444500D01*
X40875143Y-64444500D01*
X40875117Y-64444502D01*
X40850012Y-64447413D01*
X40850008Y-64447415D01*
X40747235Y-64492793D01*
X40667794Y-64572234D01*
X40622415Y-64675006D01*
X40622415Y-64675008D01*
X40619500Y-64700131D01*
X40300500Y-64700131D01*
X40300500Y-58906898D01*
X50774500Y-58906898D01*
X50774500Y-59693102D01*
X50778528Y-59726645D01*
X50785122Y-59781561D01*
X50785122Y-59781563D01*
X50785123Y-59781564D01*
X50790761Y-59795861D01*
X50840639Y-59922343D01*
X50932077Y-60042922D01*
X51052656Y-60134360D01*
X51052657Y-60134360D01*
X51052658Y-60134361D01*
X51193436Y-60189877D01*
X51281898Y-60200500D01*
X51281903Y-60200500D01*
X51352920Y-60200500D01*
X51419959Y-60220185D01*
X51465714Y-60272989D01*
X51475658Y-60342147D01*
X51446633Y-60405703D01*
X51400372Y-60439060D01*
X51384134Y-60445786D01*
X51248458Y-60501983D01*
X51248446Y-60501990D01*
X51100965Y-60600535D01*
X51100961Y-60600538D01*
X50975538Y-60725961D01*
X50975535Y-60725965D01*
X50876990Y-60873446D01*
X50876983Y-60873459D01*
X50809106Y-61037332D01*
X50809103Y-61037341D01*
X50774500Y-61211304D01*
X50774500Y-61388695D01*
X50809103Y-61562658D01*
X50809106Y-61562667D01*
X50876983Y-61726540D01*
X50876990Y-61726553D01*
X50975535Y-61874034D01*
X50975538Y-61874038D01*
X51100961Y-61999461D01*
X51100965Y-61999464D01*
X51248446Y-62098009D01*
X51248459Y-62098016D01*
X51371363Y-62148923D01*
X51412334Y-62165894D01*
X51412336Y-62165894D01*
X51412341Y-62165896D01*
X51586304Y-62200499D01*
X51586307Y-62200500D01*
X51586309Y-62200500D01*
X52313693Y-62200500D01*
X52313694Y-62200499D01*
X52379891Y-62187332D01*
X52487658Y-62165896D01*
X52487661Y-62165894D01*
X52487666Y-62165894D01*
X52651547Y-62098013D01*
X52799035Y-61999464D01*
X52924464Y-61874035D01*
X53003594Y-61755608D01*
X53057206Y-61710804D01*
X53106696Y-61700500D01*
X58752295Y-61700500D01*
X58819334Y-61720185D01*
X58865089Y-61772989D01*
X58875033Y-61842147D01*
X58846008Y-61905703D01*
X58814295Y-61931887D01*
X58792487Y-61944477D01*
X58792482Y-61944481D01*
X58680681Y-62056282D01*
X58680675Y-62056290D01*
X58601626Y-62193209D01*
X58601623Y-62193216D01*
X58560700Y-62345943D01*
X58560700Y-62504057D01*
X58579596Y-62574576D01*
X58601623Y-62656783D01*
X58601626Y-62656790D01*
X58680675Y-62793709D01*
X58680681Y-62793717D01*
X58798231Y-62911267D01*
X58796212Y-62913285D01*
X58829267Y-62958569D01*
X58833412Y-63028316D01*
X58799191Y-63089231D01*
X58737469Y-63121975D01*
X58712572Y-63124500D01*
X58556743Y-63124500D01*
X58404016Y-63165423D01*
X58404009Y-63165426D01*
X58267090Y-63244475D01*
X58267082Y-63244481D01*
X58155281Y-63356282D01*
X58155275Y-63356290D01*
X58076226Y-63493209D01*
X58076223Y-63493216D01*
X58035300Y-63645943D01*
X58035300Y-63804057D01*
X58075696Y-63954815D01*
X58076223Y-63956783D01*
X58076226Y-63956790D01*
X58155275Y-64093709D01*
X58155279Y-64093714D01*
X58155280Y-64093716D01*
X58267084Y-64205520D01*
X58267086Y-64205521D01*
X58267090Y-64205524D01*
X58404009Y-64284574D01*
X58404013Y-64284575D01*
X58404016Y-64284577D01*
X58464594Y-64300808D01*
X58524253Y-64337171D01*
X58554783Y-64400017D01*
X58556500Y-64420582D01*
X58556500Y-64454057D01*
X58590381Y-64580500D01*
X58597423Y-64606783D01*
X58597426Y-64606790D01*
X58676475Y-64743709D01*
X58676479Y-64743714D01*
X58676480Y-64743716D01*
X58788284Y-64855520D01*
X58788286Y-64855521D01*
X58788290Y-64855524D01*
X58867543Y-64901280D01*
X58925216Y-64934577D01*
X59077943Y-64975500D01*
X59077945Y-64975500D01*
X59236055Y-64975500D01*
X59236057Y-64975500D01*
X59388784Y-64934577D01*
X59525716Y-64855520D01*
X59637520Y-64743716D01*
X59716577Y-64606784D01*
X59757500Y-64454057D01*
X59757500Y-64295943D01*
X59723015Y-64167243D01*
X64254900Y-64167243D01*
X64254900Y-64325357D01*
X64289385Y-64454055D01*
X64295823Y-64478083D01*
X64295826Y-64478090D01*
X64374875Y-64615009D01*
X64374879Y-64615014D01*
X64374880Y-64615016D01*
X64486684Y-64726820D01*
X64486686Y-64726821D01*
X64486690Y-64726824D01*
X64581047Y-64781300D01*
X64623616Y-64805877D01*
X64776343Y-64846800D01*
X64776345Y-64846800D01*
X64934455Y-64846800D01*
X64934457Y-64846800D01*
X65087184Y-64805877D01*
X65224116Y-64726820D01*
X65335920Y-64615016D01*
X65414977Y-64478084D01*
X65455900Y-64325357D01*
X65455900Y-64167243D01*
X65414977Y-64014516D01*
X65358440Y-63916590D01*
X65349406Y-63900943D01*
X69573700Y-63900943D01*
X69573700Y-64059057D01*
X69602689Y-64167243D01*
X69614623Y-64211783D01*
X69614626Y-64211790D01*
X69693675Y-64348709D01*
X69693679Y-64348714D01*
X69693680Y-64348716D01*
X69805484Y-64460520D01*
X69805486Y-64460521D01*
X69805490Y-64460524D01*
X69909228Y-64520416D01*
X69942416Y-64539577D01*
X70095143Y-64580500D01*
X70095145Y-64580500D01*
X70253255Y-64580500D01*
X70253257Y-64580500D01*
X70405984Y-64539577D01*
X70542916Y-64460520D01*
X70654720Y-64348716D01*
X70733777Y-64211784D01*
X70733777Y-64211782D01*
X70736942Y-64206301D01*
X70787509Y-64158085D01*
X70844330Y-64144300D01*
X70977355Y-64144300D01*
X70977357Y-64144300D01*
X71130084Y-64103377D01*
X71267016Y-64024320D01*
X71378820Y-63912516D01*
X71457877Y-63775584D01*
X71498800Y-63622857D01*
X71498800Y-63464743D01*
X71457877Y-63312016D01*
X71437862Y-63277348D01*
X71378824Y-63175090D01*
X71378821Y-63175086D01*
X71378820Y-63175084D01*
X71267016Y-63063280D01*
X71267014Y-63063279D01*
X71267009Y-63063275D01*
X71130090Y-62984226D01*
X71130086Y-62984224D01*
X71130084Y-62984223D01*
X70977357Y-62943300D01*
X70819243Y-62943300D01*
X70666516Y-62984223D01*
X70666509Y-62984226D01*
X70529590Y-63063275D01*
X70529582Y-63063281D01*
X70417781Y-63175082D01*
X70417779Y-63175085D01*
X70405248Y-63196790D01*
X70338723Y-63312016D01*
X70338722Y-63312017D01*
X70335558Y-63317499D01*
X70284991Y-63365715D01*
X70228170Y-63379500D01*
X70095143Y-63379500D01*
X69942416Y-63420423D01*
X69942409Y-63420426D01*
X69805490Y-63499475D01*
X69805482Y-63499481D01*
X69693681Y-63611282D01*
X69693675Y-63611290D01*
X69614626Y-63748209D01*
X69614623Y-63748216D01*
X69573700Y-63900943D01*
X65349406Y-63900943D01*
X65335922Y-63877587D01*
X65335918Y-63877582D01*
X65224117Y-63765781D01*
X65224109Y-63765775D01*
X65087190Y-63686726D01*
X65087186Y-63686724D01*
X65087184Y-63686723D01*
X64934457Y-63645800D01*
X64776343Y-63645800D01*
X64623616Y-63686723D01*
X64623609Y-63686726D01*
X64486690Y-63765775D01*
X64486682Y-63765781D01*
X64374881Y-63877582D01*
X64374875Y-63877590D01*
X64295826Y-64014509D01*
X64295823Y-64014516D01*
X64254900Y-64167243D01*
X59723015Y-64167243D01*
X59716577Y-64143216D01*
X59687999Y-64093717D01*
X59637524Y-64006290D01*
X59637518Y-64006282D01*
X59525717Y-63894481D01*
X59525709Y-63894475D01*
X59388790Y-63815426D01*
X59388786Y-63815424D01*
X59388784Y-63815423D01*
X59388782Y-63815422D01*
X59388779Y-63815421D01*
X59328205Y-63799190D01*
X59268545Y-63762825D01*
X59238017Y-63699978D01*
X59236300Y-63679416D01*
X59236300Y-63645945D01*
X59236300Y-63645943D01*
X59195377Y-63493216D01*
X59195373Y-63493209D01*
X59116324Y-63356290D01*
X59116318Y-63356282D01*
X58998769Y-63238733D01*
X59000787Y-63236714D01*
X58967733Y-63191431D01*
X58963588Y-63121684D01*
X58997809Y-63060769D01*
X59059531Y-63028025D01*
X59084428Y-63025500D01*
X59240255Y-63025500D01*
X59240257Y-63025500D01*
X59392984Y-62984577D01*
X59529916Y-62905520D01*
X59641720Y-62793716D01*
X59720777Y-62656784D01*
X59761700Y-62504057D01*
X59761700Y-62345943D01*
X59720777Y-62193216D01*
X59663528Y-62094057D01*
X59641724Y-62056290D01*
X59641718Y-62056282D01*
X59529917Y-61944481D01*
X59529912Y-61944477D01*
X59508105Y-61931887D01*
X59459889Y-61881320D01*
X59446666Y-61812713D01*
X59472634Y-61747848D01*
X59529549Y-61707320D01*
X59570105Y-61700500D01*
X62286545Y-61700500D01*
X62353584Y-61720185D01*
X62374226Y-61736819D01*
X62902687Y-62265280D01*
X62994012Y-62318007D01*
X63095873Y-62345300D01*
X63095875Y-62345300D01*
X75537725Y-62345300D01*
X75537727Y-62345300D01*
X75639588Y-62318007D01*
X75730913Y-62265280D01*
X76264747Y-61731444D01*
X76326068Y-61697961D01*
X76395759Y-61702945D01*
X76451693Y-61744816D01*
X76476110Y-61810281D01*
X76472201Y-61851220D01*
X76466088Y-61874034D01*
X76449500Y-61935943D01*
X76449500Y-62094057D01*
X76482769Y-62218216D01*
X76490423Y-62246783D01*
X76490426Y-62246790D01*
X76569475Y-62383709D01*
X76569479Y-62383714D01*
X76569480Y-62383716D01*
X76681284Y-62495520D01*
X76681286Y-62495521D01*
X76681290Y-62495524D01*
X76756066Y-62538695D01*
X76818216Y-62574577D01*
X76970943Y-62615500D01*
X76970945Y-62615500D01*
X77129055Y-62615500D01*
X77129057Y-62615500D01*
X77281784Y-62574577D01*
X77418716Y-62495520D01*
X77530520Y-62383716D01*
X77609577Y-62246784D01*
X77650500Y-62094057D01*
X77650500Y-61935943D01*
X77609577Y-61783216D01*
X77605814Y-61776699D01*
X77589342Y-61708800D01*
X77612195Y-61642773D01*
X77667116Y-61599582D01*
X77713202Y-61590700D01*
X86351502Y-61590700D01*
X86418541Y-61610385D01*
X86464296Y-61663189D01*
X86474240Y-61732347D01*
X86445215Y-61795903D01*
X86439183Y-61802381D01*
X84885381Y-63356183D01*
X84824058Y-63389668D01*
X84754366Y-63384684D01*
X84698433Y-63342812D01*
X84674016Y-63277348D01*
X84673700Y-63268502D01*
X84673700Y-62950098D01*
X84693385Y-62883059D01*
X84710019Y-62862417D01*
X84717475Y-62854961D01*
X84753720Y-62818716D01*
X84832777Y-62681784D01*
X84873700Y-62529057D01*
X84873700Y-62370943D01*
X84832777Y-62218216D01*
X84822548Y-62200499D01*
X84753724Y-62081290D01*
X84753718Y-62081282D01*
X84641917Y-61969481D01*
X84641909Y-61969475D01*
X84504990Y-61890426D01*
X84504986Y-61890424D01*
X84504984Y-61890423D01*
X84352257Y-61849500D01*
X84194143Y-61849500D01*
X84041416Y-61890423D01*
X84041409Y-61890426D01*
X83904490Y-61969475D01*
X83904482Y-61969481D01*
X83792681Y-62081282D01*
X83792675Y-62081290D01*
X83713626Y-62218209D01*
X83713623Y-62218216D01*
X83672700Y-62370943D01*
X83672700Y-62529057D01*
X83706925Y-62656784D01*
X83713623Y-62681783D01*
X83713626Y-62681790D01*
X83792675Y-62818709D01*
X83792681Y-62818717D01*
X83836381Y-62862417D01*
X83869866Y-62923740D01*
X83872700Y-62950098D01*
X83872700Y-67113445D01*
X83853015Y-67180484D01*
X83836381Y-67201126D01*
X82154026Y-68883481D01*
X82092703Y-68916966D01*
X82066345Y-68919800D01*
X82004543Y-68919800D01*
X81851816Y-68960723D01*
X81851809Y-68960726D01*
X81714890Y-69039775D01*
X81714882Y-69039781D01*
X81603081Y-69151582D01*
X81603075Y-69151590D01*
X81524026Y-69288509D01*
X81524023Y-69288516D01*
X81483100Y-69441243D01*
X81483100Y-69599356D01*
X81524023Y-69752083D01*
X81524026Y-69752090D01*
X81603075Y-69889009D01*
X81603079Y-69889014D01*
X81603080Y-69889016D01*
X81714884Y-70000820D01*
X81714886Y-70000821D01*
X81714890Y-70000824D01*
X81851809Y-70079873D01*
X81851816Y-70079877D01*
X82004543Y-70120800D01*
X82004545Y-70120800D01*
X82162655Y-70120800D01*
X82162657Y-70120800D01*
X82315384Y-70079877D01*
X82452316Y-70000820D01*
X82564120Y-69889016D01*
X82643177Y-69752084D01*
X82684100Y-69599357D01*
X82684100Y-69537555D01*
X82703785Y-69470516D01*
X82720419Y-69449874D01*
X83652197Y-68518096D01*
X84593680Y-67576613D01*
X84646407Y-67485288D01*
X84673700Y-67383427D01*
X84673700Y-67277973D01*
X84673700Y-67181898D01*
X113399500Y-67181898D01*
X113399500Y-68518102D01*
X113403516Y-68551541D01*
X113410122Y-68606561D01*
X113465639Y-68747343D01*
X113557077Y-68867922D01*
X113677656Y-68959360D01*
X113677657Y-68959360D01*
X113677658Y-68959361D01*
X113818436Y-69014877D01*
X113906898Y-69025500D01*
X113906903Y-69025500D01*
X114693097Y-69025500D01*
X114693102Y-69025500D01*
X114781564Y-69014877D01*
X114922342Y-68959361D01*
X115042922Y-68867922D01*
X115134361Y-68747342D01*
X115189877Y-68606564D01*
X115200500Y-68518102D01*
X115200500Y-68447080D01*
X115220185Y-68380041D01*
X115272989Y-68334286D01*
X115342147Y-68324342D01*
X115405703Y-68353367D01*
X115439061Y-68399628D01*
X115501983Y-68551541D01*
X115501990Y-68551553D01*
X115600535Y-68699034D01*
X115600538Y-68699038D01*
X115725961Y-68824461D01*
X115725965Y-68824464D01*
X115873446Y-68923009D01*
X115873459Y-68923016D01*
X115964494Y-68960723D01*
X116037334Y-68990894D01*
X116037336Y-68990894D01*
X116037341Y-68990896D01*
X116211304Y-69025499D01*
X116211307Y-69025500D01*
X116211309Y-69025500D01*
X116388693Y-69025500D01*
X116388694Y-69025499D01*
X116446682Y-69013964D01*
X116562658Y-68990896D01*
X116562661Y-68990894D01*
X116562666Y-68990894D01*
X116726547Y-68923013D01*
X116874035Y-68824464D01*
X116999464Y-68699035D01*
X117098013Y-68551547D01*
X117165894Y-68387666D01*
X117200500Y-68213691D01*
X117200500Y-67486309D01*
X117200500Y-67486306D01*
X117200499Y-67486304D01*
X117165896Y-67312341D01*
X117165893Y-67312332D01*
X117098016Y-67148459D01*
X117098009Y-67148446D01*
X116999464Y-67000965D01*
X116999461Y-67000961D01*
X116874038Y-66875538D01*
X116874034Y-66875535D01*
X116726553Y-66776990D01*
X116726540Y-66776983D01*
X116562667Y-66709106D01*
X116562658Y-66709103D01*
X116388694Y-66674500D01*
X116388691Y-66674500D01*
X116211309Y-66674500D01*
X116211306Y-66674500D01*
X116037341Y-66709103D01*
X116037332Y-66709106D01*
X115873459Y-66776983D01*
X115873446Y-66776990D01*
X115725965Y-66875535D01*
X115725961Y-66875538D01*
X115600538Y-67000961D01*
X115600535Y-67000965D01*
X115501990Y-67148446D01*
X115501983Y-67148459D01*
X115439061Y-67300371D01*
X115395221Y-67354775D01*
X115328927Y-67376840D01*
X115261227Y-67359561D01*
X115213616Y-67308424D01*
X115200500Y-67252919D01*
X115200500Y-67181903D01*
X115200500Y-67181898D01*
X115189877Y-67093436D01*
X115134361Y-66952658D01*
X115134360Y-66952657D01*
X115134360Y-66952656D01*
X115042922Y-66832077D01*
X114922343Y-66740639D01*
X114781561Y-66685122D01*
X114735926Y-66679642D01*
X114693102Y-66674500D01*
X113906898Y-66674500D01*
X113867853Y-66679188D01*
X113818438Y-66685122D01*
X113677656Y-66740639D01*
X113557077Y-66832077D01*
X113465639Y-66952656D01*
X113410122Y-67093438D01*
X113407720Y-67113445D01*
X113399500Y-67181898D01*
X84673700Y-67181898D01*
X84673700Y-64863870D01*
X84693385Y-64796831D01*
X84746189Y-64751076D01*
X84815347Y-64741132D01*
X84829783Y-64744092D01*
X84860043Y-64752201D01*
X84860046Y-64752201D01*
X85018154Y-64752201D01*
X85018157Y-64752201D01*
X85170885Y-64711277D01*
X85221004Y-64682339D01*
X85307816Y-64632220D01*
X85419620Y-64520416D01*
X85419620Y-64520414D01*
X85429828Y-64510207D01*
X85429829Y-64510204D01*
X86334291Y-63605743D01*
X101253800Y-63605743D01*
X101253800Y-63763857D01*
X101293634Y-63912517D01*
X101294723Y-63916583D01*
X101294726Y-63916590D01*
X101373775Y-64053509D01*
X101373779Y-64053514D01*
X101373780Y-64053516D01*
X101485584Y-64165320D01*
X101485586Y-64165321D01*
X101485590Y-64165324D01*
X101566073Y-64211790D01*
X101622516Y-64244377D01*
X101775243Y-64285300D01*
X101775245Y-64285300D01*
X101933355Y-64285300D01*
X101933357Y-64285300D01*
X102086084Y-64244377D01*
X102223016Y-64165320D01*
X102334820Y-64053516D01*
X102413877Y-63916584D01*
X102454800Y-63763857D01*
X102454800Y-63605743D01*
X102413877Y-63453016D01*
X102395060Y-63420423D01*
X102334824Y-63316090D01*
X102334818Y-63316082D01*
X102223017Y-63204281D01*
X102223009Y-63204275D01*
X102086090Y-63125226D01*
X102086086Y-63125224D01*
X102086084Y-63125223D01*
X101933357Y-63084300D01*
X101775243Y-63084300D01*
X101622516Y-63125223D01*
X101622509Y-63125226D01*
X101485590Y-63204275D01*
X101485582Y-63204281D01*
X101373781Y-63316082D01*
X101373775Y-63316090D01*
X101294726Y-63453009D01*
X101294723Y-63453016D01*
X101253800Y-63605743D01*
X86334291Y-63605743D01*
X87105716Y-62834319D01*
X87167039Y-62800834D01*
X87193397Y-62798000D01*
X106001400Y-62798000D01*
X106068439Y-62817685D01*
X106114194Y-62870489D01*
X106125400Y-62922000D01*
X106125400Y-63044057D01*
X106147149Y-63125223D01*
X106166323Y-63196783D01*
X106166326Y-63196790D01*
X106245375Y-63333709D01*
X106245379Y-63333714D01*
X106245380Y-63333716D01*
X106357184Y-63445520D01*
X106357186Y-63445521D01*
X106357190Y-63445524D01*
X106450646Y-63499480D01*
X106494116Y-63524577D01*
X106646843Y-63565500D01*
X106646845Y-63565500D01*
X106804955Y-63565500D01*
X106804957Y-63565500D01*
X106957684Y-63524577D01*
X107094616Y-63445520D01*
X107206420Y-63333716D01*
X107285477Y-63196784D01*
X107326400Y-63044057D01*
X107326400Y-62922000D01*
X107346085Y-62854961D01*
X107398889Y-62809206D01*
X107450400Y-62798000D01*
X113820701Y-62798000D01*
X113887740Y-62817685D01*
X113908382Y-62834318D01*
X114004584Y-62930520D01*
X114081098Y-62974695D01*
X114141515Y-63009577D01*
X114294243Y-63050501D01*
X114294246Y-63050501D01*
X114459953Y-63050501D01*
X114459969Y-63050500D01*
X114700639Y-63050500D01*
X114767678Y-63070185D01*
X114788315Y-63086814D01*
X114823185Y-63121684D01*
X114850966Y-63149465D01*
X114998446Y-63248009D01*
X114998459Y-63248016D01*
X115121363Y-63298923D01*
X115162334Y-63315894D01*
X115162336Y-63315894D01*
X115162341Y-63315896D01*
X115336304Y-63350499D01*
X115336307Y-63350500D01*
X115336309Y-63350500D01*
X116063693Y-63350500D01*
X116063694Y-63350499D01*
X116121682Y-63338964D01*
X116237658Y-63315896D01*
X116237661Y-63315894D01*
X116237666Y-63315894D01*
X116401547Y-63248013D01*
X116549035Y-63149464D01*
X116674464Y-63024035D01*
X116773013Y-62876547D01*
X116840894Y-62712666D01*
X116852009Y-62656790D01*
X116875499Y-62538695D01*
X116875500Y-62538693D01*
X116875500Y-62361306D01*
X116875499Y-62361304D01*
X116840896Y-62187341D01*
X116840893Y-62187332D01*
X116773016Y-62023459D01*
X116773009Y-62023446D01*
X116674464Y-61875965D01*
X116674461Y-61875961D01*
X116549038Y-61750538D01*
X116549034Y-61750535D01*
X116401549Y-61651988D01*
X116401540Y-61651983D01*
X116237667Y-61584106D01*
X116237658Y-61584103D01*
X116063694Y-61549500D01*
X116063691Y-61549500D01*
X115336309Y-61549500D01*
X115336306Y-61549500D01*
X115162341Y-61584103D01*
X115162332Y-61584106D01*
X114998459Y-61651983D01*
X114998451Y-61651988D01*
X114850966Y-61750534D01*
X114828512Y-61772989D01*
X114788318Y-61813182D01*
X114726998Y-61846666D01*
X114700639Y-61849500D01*
X114673398Y-61849500D01*
X114606359Y-61829815D01*
X114585717Y-61813181D01*
X114489517Y-61716981D01*
X114489509Y-61716975D01*
X114376945Y-61651987D01*
X114376944Y-61651986D01*
X114359822Y-61642101D01*
X114352585Y-61637923D01*
X114199857Y-61596999D01*
X114041743Y-61596999D01*
X114034147Y-61596999D01*
X114034131Y-61597000D01*
X103089955Y-61597000D01*
X103022916Y-61577315D01*
X102977161Y-61524511D01*
X102967217Y-61455353D01*
X102996242Y-61391797D01*
X103002274Y-61385319D01*
X104674319Y-59713274D01*
X104735642Y-59679789D01*
X104805334Y-59684773D01*
X104861267Y-59726645D01*
X104885684Y-59792109D01*
X104886000Y-59800955D01*
X104886000Y-59897257D01*
X104914721Y-60004443D01*
X104926923Y-60049983D01*
X104926926Y-60049990D01*
X105005975Y-60186909D01*
X105005979Y-60186914D01*
X105005980Y-60186916D01*
X105117784Y-60298720D01*
X105117786Y-60298721D01*
X105117790Y-60298724D01*
X105213342Y-60353890D01*
X105254716Y-60377777D01*
X105407443Y-60418700D01*
X105407445Y-60418700D01*
X105565555Y-60418700D01*
X105565557Y-60418700D01*
X105718284Y-60377777D01*
X105855216Y-60298720D01*
X105967020Y-60186916D01*
X106046077Y-60049984D01*
X106087000Y-59897257D01*
X106087000Y-59739143D01*
X106046077Y-59586416D01*
X106011048Y-59525743D01*
X105967024Y-59449490D01*
X105967018Y-59449482D01*
X105855217Y-59337681D01*
X105855209Y-59337675D01*
X105718290Y-59258626D01*
X105718286Y-59258624D01*
X105718284Y-59258623D01*
X105565557Y-59217700D01*
X105469255Y-59217700D01*
X105402216Y-59198015D01*
X105356461Y-59145211D01*
X105346517Y-59076053D01*
X105375542Y-59012497D01*
X105381574Y-59006019D01*
X106852474Y-57535119D01*
X106913797Y-57501634D01*
X106940155Y-57498800D01*
X107001955Y-57498800D01*
X107001957Y-57498800D01*
X107154684Y-57457877D01*
X107291616Y-57378820D01*
X107403420Y-57267016D01*
X107482477Y-57130084D01*
X107523400Y-56977357D01*
X107523400Y-56819243D01*
X107482477Y-56666516D01*
X107482473Y-56666509D01*
X107403424Y-56529590D01*
X107403418Y-56529582D01*
X107291617Y-56417781D01*
X107291609Y-56417775D01*
X107154690Y-56338726D01*
X107154686Y-56338724D01*
X107154684Y-56338723D01*
X107001957Y-56297800D01*
X106843843Y-56297800D01*
X106691116Y-56338723D01*
X106691109Y-56338726D01*
X106554190Y-56417775D01*
X106554182Y-56417781D01*
X106442381Y-56529582D01*
X106442375Y-56529590D01*
X106363326Y-56666509D01*
X106363323Y-56666516D01*
X106322400Y-56819243D01*
X106322400Y-56881045D01*
X106302715Y-56948084D01*
X106286081Y-56968726D01*
X102501426Y-60753381D01*
X102440103Y-60786866D01*
X102413745Y-60789700D01*
X76585689Y-60789700D01*
X76518650Y-60770015D01*
X76472895Y-60717211D01*
X76462951Y-60648053D01*
X76478302Y-60603700D01*
X76511275Y-60546588D01*
X76511274Y-60546588D01*
X76511277Y-60546585D01*
X76552201Y-60393858D01*
X76552201Y-60235743D01*
X76511277Y-60083016D01*
X76504003Y-60070417D01*
X76432224Y-59946090D01*
X76432218Y-59946082D01*
X76189933Y-59703797D01*
X76110379Y-59624243D01*
X82232000Y-59624243D01*
X82232000Y-59782357D01*
X82272495Y-59933484D01*
X82272923Y-59935083D01*
X82272926Y-59935090D01*
X82351975Y-60072009D01*
X82351979Y-60072014D01*
X82351980Y-60072016D01*
X82463784Y-60183820D01*
X82463786Y-60183821D01*
X82463790Y-60183824D01*
X82573169Y-60246973D01*
X82600716Y-60262877D01*
X82753443Y-60303800D01*
X82753445Y-60303800D01*
X82911555Y-60303800D01*
X82911557Y-60303800D01*
X83064284Y-60262877D01*
X83201216Y-60183820D01*
X83313020Y-60072016D01*
X83392077Y-59935084D01*
X83433000Y-59782357D01*
X83433000Y-59624243D01*
X83392077Y-59471516D01*
X83382893Y-59455609D01*
X83313024Y-59334590D01*
X83313018Y-59334582D01*
X83201217Y-59222781D01*
X83201209Y-59222775D01*
X83064290Y-59143726D01*
X83064286Y-59143724D01*
X83064284Y-59143723D01*
X82911557Y-59102800D01*
X82753443Y-59102800D01*
X82600716Y-59143723D01*
X82600709Y-59143726D01*
X82463790Y-59222775D01*
X82463782Y-59222781D01*
X82351981Y-59334582D01*
X82351975Y-59334590D01*
X82272926Y-59471509D01*
X82272923Y-59471516D01*
X82232000Y-59624243D01*
X76110379Y-59624243D01*
X75394190Y-58908055D01*
X75394188Y-58908052D01*
X75275317Y-58789181D01*
X75275316Y-58789180D01*
X75188504Y-58739060D01*
X75188504Y-58739059D01*
X75188500Y-58739058D01*
X75138385Y-58710123D01*
X74985657Y-58669199D01*
X74827543Y-58669199D01*
X74819947Y-58669199D01*
X74819931Y-58669200D01*
X67218969Y-58669200D01*
X67218953Y-58669199D01*
X67211357Y-58669199D01*
X67053243Y-58669199D01*
X66945887Y-58697965D01*
X66900510Y-58710124D01*
X66900509Y-58710125D01*
X66850396Y-58739059D01*
X66850395Y-58739060D01*
X66806989Y-58764120D01*
X66763585Y-58789179D01*
X66763582Y-58789181D01*
X66316681Y-59236082D01*
X66316677Y-59236087D01*
X66298485Y-59267599D01*
X66298484Y-59267601D01*
X66237623Y-59373015D01*
X66196699Y-59525743D01*
X66196699Y-59683857D01*
X66205328Y-59716060D01*
X66213272Y-59745707D01*
X66211609Y-59815556D01*
X66172447Y-59873419D01*
X66108218Y-59900923D01*
X66093497Y-59901800D01*
X65618855Y-59901800D01*
X65551816Y-59882115D01*
X65531174Y-59865481D01*
X64645215Y-58979522D01*
X64645213Y-58979520D01*
X64599550Y-58953156D01*
X64553889Y-58926793D01*
X64483944Y-58908052D01*
X64452027Y-58899500D01*
X64452026Y-58899500D01*
X53231239Y-58899500D01*
X53164200Y-58879815D01*
X53118445Y-58827011D01*
X53115885Y-58820990D01*
X53059362Y-58677660D01*
X53059361Y-58677658D01*
X52967922Y-58557077D01*
X52847343Y-58465639D01*
X52706561Y-58410122D01*
X52660926Y-58404642D01*
X52618102Y-58399500D01*
X51281898Y-58399500D01*
X51242853Y-58404188D01*
X51193438Y-58410122D01*
X51052656Y-58465639D01*
X50932077Y-58557077D01*
X50840639Y-58677656D01*
X50785122Y-58818438D01*
X50784816Y-58820990D01*
X50774500Y-58906898D01*
X40300500Y-58906898D01*
X40300500Y-57823243D01*
X55471200Y-57823243D01*
X55471200Y-57981357D01*
X55502127Y-58096776D01*
X55512123Y-58134083D01*
X55512126Y-58134090D01*
X55591175Y-58271009D01*
X55591179Y-58271014D01*
X55591180Y-58271016D01*
X55702984Y-58382820D01*
X55702986Y-58382821D01*
X55702990Y-58382824D01*
X55839909Y-58461873D01*
X55839916Y-58461877D01*
X55992643Y-58502800D01*
X55992645Y-58502800D01*
X56150755Y-58502800D01*
X56150757Y-58502800D01*
X56303484Y-58461877D01*
X56440416Y-58382820D01*
X56484117Y-58339119D01*
X56545440Y-58305634D01*
X56571798Y-58302800D01*
X57905525Y-58302800D01*
X57905527Y-58302800D01*
X58007388Y-58275507D01*
X58098713Y-58222780D01*
X60721532Y-55599959D01*
X60782853Y-55566476D01*
X60852545Y-55571460D01*
X60908478Y-55613332D01*
X60928986Y-55655548D01*
X60966723Y-55796385D01*
X60966726Y-55796390D01*
X61045775Y-55933309D01*
X61045779Y-55933314D01*
X61045780Y-55933316D01*
X61157584Y-56045120D01*
X61157586Y-56045121D01*
X61157590Y-56045124D01*
X61294509Y-56124173D01*
X61294516Y-56124177D01*
X61447243Y-56165100D01*
X61447245Y-56165100D01*
X61605355Y-56165100D01*
X61605357Y-56165100D01*
X61758084Y-56124177D01*
X61895016Y-56045120D01*
X62006820Y-55933316D01*
X62085877Y-55796384D01*
X62126800Y-55643657D01*
X62126800Y-55485543D01*
X62104761Y-55403292D01*
X62106424Y-55333443D01*
X62145587Y-55275581D01*
X62209815Y-55248077D01*
X62224536Y-55247200D01*
X63034325Y-55247200D01*
X63034327Y-55247200D01*
X63136188Y-55219907D01*
X63227513Y-55167180D01*
X65697959Y-52696733D01*
X65759280Y-52663250D01*
X65828972Y-52668234D01*
X65884905Y-52710106D01*
X65905412Y-52752321D01*
X65912421Y-52778479D01*
X65912426Y-52778490D01*
X65991475Y-52915409D01*
X65991479Y-52915414D01*
X65991480Y-52915416D01*
X66103284Y-53027220D01*
X66103286Y-53027221D01*
X66103290Y-53027224D01*
X66177002Y-53069781D01*
X66240216Y-53106277D01*
X66322250Y-53128257D01*
X66377837Y-53160351D01*
X67960005Y-54742519D01*
X67993490Y-54803842D01*
X67988506Y-54873534D01*
X67946634Y-54929467D01*
X67881170Y-54953884D01*
X67872324Y-54954200D01*
X67859343Y-54954200D01*
X67706616Y-54995123D01*
X67706609Y-54995126D01*
X67569690Y-55074175D01*
X67569682Y-55074181D01*
X67457881Y-55185982D01*
X67457875Y-55185990D01*
X67378826Y-55322909D01*
X67378823Y-55322916D01*
X67337900Y-55475643D01*
X67337900Y-55633757D01*
X67340553Y-55643656D01*
X67378823Y-55786483D01*
X67378826Y-55786490D01*
X67457875Y-55923409D01*
X67457879Y-55923414D01*
X67457880Y-55923416D01*
X67569684Y-56035220D01*
X67569686Y-56035221D01*
X67569690Y-56035224D01*
X67706609Y-56114273D01*
X67706616Y-56114277D01*
X67859343Y-56155200D01*
X67859345Y-56155200D01*
X68017455Y-56155200D01*
X68017457Y-56155200D01*
X68170184Y-56114277D01*
X68307116Y-56035220D01*
X68418920Y-55923416D01*
X68497977Y-55786484D01*
X68538900Y-55633757D01*
X68538900Y-55620775D01*
X68558585Y-55553736D01*
X68611389Y-55507981D01*
X68680547Y-55498037D01*
X68744103Y-55527062D01*
X68750569Y-55533083D01*
X69252705Y-56035218D01*
X70060059Y-56842572D01*
X70060069Y-56842583D01*
X70064399Y-56846913D01*
X70064400Y-56846914D01*
X70157586Y-56940100D01*
X70271714Y-57005992D01*
X70399007Y-57040100D01*
X70399008Y-57040100D01*
X74749500Y-57040100D01*
X74816539Y-57059785D01*
X74862294Y-57112589D01*
X74873500Y-57164100D01*
X74873500Y-57270357D01*
X74914073Y-57421775D01*
X74914423Y-57423083D01*
X74914426Y-57423090D01*
X74993475Y-57560009D01*
X74993479Y-57560014D01*
X74993480Y-57560016D01*
X75105284Y-57671820D01*
X75105286Y-57671821D01*
X75105290Y-57671824D01*
X75242209Y-57750873D01*
X75242216Y-57750877D01*
X75394943Y-57791800D01*
X75394945Y-57791800D01*
X75553055Y-57791800D01*
X75553057Y-57791800D01*
X75705784Y-57750877D01*
X75842716Y-57671820D01*
X75954520Y-57560016D01*
X76033577Y-57423084D01*
X76074500Y-57270357D01*
X76074500Y-57164100D01*
X76094185Y-57097061D01*
X76146989Y-57051306D01*
X76198500Y-57040100D01*
X77877728Y-57040100D01*
X77944767Y-57059785D01*
X77990522Y-57112589D01*
X78000466Y-57181747D01*
X77985116Y-57226099D01*
X77939323Y-57305415D01*
X77939323Y-57305416D01*
X77898400Y-57458143D01*
X77898400Y-57616257D01*
X77934472Y-57750877D01*
X77939323Y-57768983D01*
X77939326Y-57768990D01*
X78018375Y-57905909D01*
X78018379Y-57905914D01*
X78018380Y-57905916D01*
X78130184Y-58017720D01*
X78130186Y-58017721D01*
X78130190Y-58017724D01*
X78267109Y-58096773D01*
X78267116Y-58096777D01*
X78419843Y-58137700D01*
X78419845Y-58137700D01*
X78577955Y-58137700D01*
X78577957Y-58137700D01*
X78730684Y-58096777D01*
X78813029Y-58049235D01*
X78880927Y-58032763D01*
X78946954Y-58055615D01*
X78950517Y-58058250D01*
X78953089Y-58060224D01*
X79090009Y-58139273D01*
X79090016Y-58139277D01*
X79242743Y-58180200D01*
X79242745Y-58180200D01*
X79400855Y-58180200D01*
X79400857Y-58180200D01*
X79553584Y-58139277D01*
X79690516Y-58060220D01*
X79734217Y-58016519D01*
X79795540Y-57983034D01*
X79821898Y-57980200D01*
X82622145Y-57980200D01*
X82689184Y-57999885D01*
X82709826Y-58016519D01*
X84310281Y-59616974D01*
X84343766Y-59678297D01*
X84346600Y-59704655D01*
X84346600Y-59766457D01*
X84384130Y-59906519D01*
X84387523Y-59919183D01*
X84387526Y-59919190D01*
X84466575Y-60056109D01*
X84466579Y-60056114D01*
X84466580Y-60056116D01*
X84578384Y-60167920D01*
X84578386Y-60167921D01*
X84578390Y-60167924D01*
X84695858Y-60235743D01*
X84715316Y-60246977D01*
X84868043Y-60287900D01*
X84868045Y-60287900D01*
X85026155Y-60287900D01*
X85026157Y-60287900D01*
X85178884Y-60246977D01*
X85315816Y-60167920D01*
X85427620Y-60056116D01*
X85506677Y-59919184D01*
X85547600Y-59766457D01*
X85547600Y-59608343D01*
X85506677Y-59455616D01*
X85438588Y-59337681D01*
X85427624Y-59318690D01*
X85427618Y-59318682D01*
X85315817Y-59206881D01*
X85315809Y-59206875D01*
X85178890Y-59127826D01*
X85178886Y-59127824D01*
X85178884Y-59127823D01*
X85026157Y-59086900D01*
X85026156Y-59086900D01*
X84964355Y-59086900D01*
X84897316Y-59067215D01*
X84876674Y-59050581D01*
X84147036Y-58320943D01*
X88555700Y-58320943D01*
X88555700Y-58479057D01*
X88576606Y-58557077D01*
X88596623Y-58631783D01*
X88596626Y-58631790D01*
X88675675Y-58768709D01*
X88675679Y-58768714D01*
X88675680Y-58768716D01*
X88787484Y-58880520D01*
X88787486Y-58880521D01*
X88787490Y-58880524D01*
X88924409Y-58959573D01*
X88924416Y-58959577D01*
X89077143Y-59000500D01*
X89077145Y-59000500D01*
X89235255Y-59000500D01*
X89235257Y-59000500D01*
X89387984Y-58959577D01*
X89524916Y-58880520D01*
X89636720Y-58768716D01*
X89715777Y-58631784D01*
X89756700Y-58479057D01*
X89756700Y-58320943D01*
X89715777Y-58168216D01*
X89696071Y-58134084D01*
X89636724Y-58031290D01*
X89636718Y-58031282D01*
X89524917Y-57919481D01*
X89524909Y-57919475D01*
X89387990Y-57840426D01*
X89387986Y-57840424D01*
X89387984Y-57840423D01*
X89235257Y-57799500D01*
X89077143Y-57799500D01*
X88924416Y-57840423D01*
X88924409Y-57840426D01*
X88787490Y-57919475D01*
X88787482Y-57919481D01*
X88675681Y-58031282D01*
X88675675Y-58031290D01*
X88596626Y-58168209D01*
X88596623Y-58168216D01*
X88555700Y-58320943D01*
X84147036Y-58320943D01*
X83079566Y-57253473D01*
X83081539Y-57251499D01*
X83048352Y-57206046D01*
X83044198Y-57136300D01*
X83078411Y-57075380D01*
X83140129Y-57042628D01*
X83165042Y-57040100D01*
X93397124Y-57040100D01*
X93464163Y-57059785D01*
X93484805Y-57076419D01*
X96204247Y-59795861D01*
X96236340Y-59851447D01*
X96258321Y-59933479D01*
X96258326Y-59933490D01*
X96337375Y-60070409D01*
X96337379Y-60070414D01*
X96337380Y-60070416D01*
X96449184Y-60182220D01*
X96449186Y-60182221D01*
X96449190Y-60182224D01*
X96572098Y-60253184D01*
X96586116Y-60261277D01*
X96738843Y-60302200D01*
X96738845Y-60302200D01*
X96896955Y-60302200D01*
X96896957Y-60302200D01*
X97049684Y-60261277D01*
X97186616Y-60182220D01*
X97298420Y-60070416D01*
X97377477Y-59933484D01*
X97418400Y-59780757D01*
X97418400Y-59622643D01*
X97377477Y-59469916D01*
X97301132Y-59337681D01*
X97298424Y-59332990D01*
X97298418Y-59332982D01*
X97186617Y-59221181D01*
X97186609Y-59221175D01*
X97049690Y-59142126D01*
X97049686Y-59142124D01*
X97049684Y-59142123D01*
X97049682Y-59142122D01*
X97049679Y-59142121D01*
X96967647Y-59120140D01*
X96912061Y-59088047D01*
X93963116Y-56139102D01*
X93963114Y-56139100D01*
X93906050Y-56106154D01*
X93848987Y-56073208D01*
X93785339Y-56056154D01*
X93721692Y-56039100D01*
X93721691Y-56039100D01*
X70723575Y-56039100D01*
X70656536Y-56019415D01*
X70635894Y-56002781D01*
X67368795Y-52735681D01*
X67335310Y-52674358D01*
X67340294Y-52604666D01*
X67382166Y-52548733D01*
X67447630Y-52524316D01*
X67456476Y-52524000D01*
X72643869Y-52524000D01*
X72710908Y-52543685D01*
X72756663Y-52596489D01*
X72766607Y-52665647D01*
X72764576Y-52675543D01*
X72764300Y-52677641D01*
X72764300Y-52677643D01*
X72764300Y-52835757D01*
X72769722Y-52855990D01*
X72805223Y-52988483D01*
X72805226Y-52988490D01*
X72884275Y-53125409D01*
X72884279Y-53125414D01*
X72884280Y-53125416D01*
X72996084Y-53237220D01*
X72996086Y-53237221D01*
X72996090Y-53237224D01*
X73133009Y-53316273D01*
X73133016Y-53316277D01*
X73285743Y-53357200D01*
X73285745Y-53357200D01*
X73443855Y-53357200D01*
X73443857Y-53357200D01*
X73596584Y-53316277D01*
X73733516Y-53237220D01*
X73845320Y-53125416D01*
X73924377Y-52988484D01*
X73965300Y-52835757D01*
X73965300Y-52677643D01*
X73965299Y-52677641D01*
X73964239Y-52669587D01*
X73966213Y-52669327D01*
X73967618Y-52610245D01*
X74006780Y-52552382D01*
X74071008Y-52524877D01*
X74085731Y-52524000D01*
X75359436Y-52524000D01*
X75426475Y-52543685D01*
X75472230Y-52596489D01*
X75482174Y-52665647D01*
X75453149Y-52729203D01*
X75443444Y-52738346D01*
X75443531Y-52738433D01*
X75325981Y-52855982D01*
X75325975Y-52855990D01*
X75246926Y-52992909D01*
X75246923Y-52992916D01*
X75206000Y-53145643D01*
X75206000Y-53303757D01*
X75240101Y-53431022D01*
X75246923Y-53456483D01*
X75246926Y-53456490D01*
X75325975Y-53593409D01*
X75325979Y-53593414D01*
X75325980Y-53593416D01*
X75437784Y-53705220D01*
X75437786Y-53705221D01*
X75437790Y-53705224D01*
X75570928Y-53782090D01*
X75574716Y-53784277D01*
X75727443Y-53825200D01*
X75727445Y-53825200D01*
X75885555Y-53825200D01*
X75885557Y-53825200D01*
X76038284Y-53784277D01*
X76175216Y-53705220D01*
X76287020Y-53593416D01*
X76357556Y-53471243D01*
X83600700Y-53471243D01*
X83600700Y-53629357D01*
X83621029Y-53705224D01*
X83641623Y-53782083D01*
X83641626Y-53782090D01*
X83720675Y-53919009D01*
X83720679Y-53919014D01*
X83720680Y-53919016D01*
X83832484Y-54030820D01*
X83832486Y-54030821D01*
X83832490Y-54030824D01*
X83969409Y-54109873D01*
X83969416Y-54109877D01*
X84122143Y-54150800D01*
X84122145Y-54150800D01*
X84280255Y-54150800D01*
X84280257Y-54150800D01*
X84432984Y-54109877D01*
X84569916Y-54030820D01*
X84681720Y-53919016D01*
X84760777Y-53782084D01*
X84801700Y-53629357D01*
X84801700Y-53471243D01*
X84760777Y-53318516D01*
X84752255Y-53303755D01*
X84681724Y-53181590D01*
X84681718Y-53181582D01*
X84569917Y-53069781D01*
X84569909Y-53069775D01*
X84432990Y-52990726D01*
X84432986Y-52990724D01*
X84432984Y-52990723D01*
X84280257Y-52949800D01*
X84122143Y-52949800D01*
X83969416Y-52990723D01*
X83969409Y-52990726D01*
X83832490Y-53069775D01*
X83832482Y-53069781D01*
X83720681Y-53181582D01*
X83720675Y-53181590D01*
X83641626Y-53318509D01*
X83641623Y-53318516D01*
X83600700Y-53471243D01*
X76357556Y-53471243D01*
X76366077Y-53456484D01*
X76407000Y-53303757D01*
X76407000Y-53145643D01*
X76366077Y-52992916D01*
X76341184Y-52949800D01*
X76287024Y-52855990D01*
X76287018Y-52855982D01*
X76169469Y-52738433D01*
X76171091Y-52736810D01*
X76136872Y-52689940D01*
X76132722Y-52620194D01*
X76166938Y-52559276D01*
X76228657Y-52526527D01*
X76253564Y-52524000D01*
X97180925Y-52524000D01*
X97180927Y-52524000D01*
X97282788Y-52496707D01*
X97374113Y-52443980D01*
X97374474Y-52443619D01*
X97374850Y-52443413D01*
X97380559Y-52439033D01*
X97381242Y-52439923D01*
X97435797Y-52410134D01*
X97462155Y-52407300D01*
X97523955Y-52407300D01*
X97523957Y-52407300D01*
X97676684Y-52366377D01*
X97813616Y-52287320D01*
X97925420Y-52175516D01*
X98004477Y-52038584D01*
X98045400Y-51885857D01*
X98045400Y-51727743D01*
X98004477Y-51575016D01*
X97995923Y-51560200D01*
X97925424Y-51438090D01*
X97925418Y-51438082D01*
X97813617Y-51326281D01*
X97813609Y-51326275D01*
X97676690Y-51247226D01*
X97676686Y-51247224D01*
X97676684Y-51247223D01*
X97523957Y-51206300D01*
X97365843Y-51206300D01*
X97213116Y-51247223D01*
X97213109Y-51247226D01*
X97076190Y-51326275D01*
X97076182Y-51326281D01*
X96964381Y-51438082D01*
X96964375Y-51438090D01*
X96885326Y-51575009D01*
X96885324Y-51575013D01*
X96870297Y-51631095D01*
X96833931Y-51690755D01*
X96771084Y-51721283D01*
X96750522Y-51723000D01*
X67063255Y-51723000D01*
X66996216Y-51703315D01*
X66975574Y-51686681D01*
X66929115Y-51640222D01*
X66929113Y-51640220D01*
X66883450Y-51613856D01*
X66837789Y-51587493D01*
X66786857Y-51573846D01*
X66735927Y-51560200D01*
X65814873Y-51560200D01*
X65713013Y-51587493D01*
X65713012Y-51587493D01*
X65634339Y-51632915D01*
X65634338Y-51632914D01*
X65621685Y-51640220D01*
X62852026Y-54409881D01*
X62790703Y-54443366D01*
X62764345Y-54446200D01*
X60855673Y-54446200D01*
X60753810Y-54473493D01*
X60662487Y-54526220D01*
X60662484Y-54526222D01*
X57723226Y-57465481D01*
X57661903Y-57498966D01*
X57635545Y-57501800D01*
X56571798Y-57501800D01*
X56504759Y-57482115D01*
X56484117Y-57465481D01*
X56440417Y-57421781D01*
X56440409Y-57421775D01*
X56303490Y-57342726D01*
X56303486Y-57342724D01*
X56303484Y-57342723D01*
X56150757Y-57301800D01*
X55992643Y-57301800D01*
X55839916Y-57342723D01*
X55839909Y-57342726D01*
X55702990Y-57421775D01*
X55702982Y-57421781D01*
X55591181Y-57533582D01*
X55591175Y-57533590D01*
X55512126Y-57670509D01*
X55512123Y-57670516D01*
X55471200Y-57823243D01*
X40300500Y-57823243D01*
X40300500Y-55727943D01*
X53394100Y-55727943D01*
X53394100Y-55886057D01*
X53434068Y-56035218D01*
X53435023Y-56038783D01*
X53435026Y-56038790D01*
X53514075Y-56175709D01*
X53514079Y-56175714D01*
X53514080Y-56175716D01*
X53625884Y-56287520D01*
X53625886Y-56287521D01*
X53625890Y-56287524D01*
X53714571Y-56338723D01*
X53762816Y-56366577D01*
X53915543Y-56407500D01*
X53915545Y-56407500D01*
X54073655Y-56407500D01*
X54073657Y-56407500D01*
X54226384Y-56366577D01*
X54363316Y-56287520D01*
X54475120Y-56175716D01*
X54554177Y-56038784D01*
X54595100Y-55886057D01*
X54595100Y-55727943D01*
X54554177Y-55575216D01*
X54554173Y-55575209D01*
X54475124Y-55438290D01*
X54475118Y-55438282D01*
X54363317Y-55326481D01*
X54363309Y-55326475D01*
X54305922Y-55293343D01*
X57968400Y-55293343D01*
X57968400Y-55451457D01*
X58008192Y-55599961D01*
X58009323Y-55604183D01*
X58009326Y-55604190D01*
X58088375Y-55741109D01*
X58088379Y-55741114D01*
X58088380Y-55741116D01*
X58200184Y-55852920D01*
X58200186Y-55852921D01*
X58200190Y-55852924D01*
X58337109Y-55931973D01*
X58337116Y-55931977D01*
X58489843Y-55972900D01*
X58489845Y-55972900D01*
X58647955Y-55972900D01*
X58647957Y-55972900D01*
X58800684Y-55931977D01*
X58937616Y-55852920D01*
X59049420Y-55741116D01*
X59128477Y-55604184D01*
X59169400Y-55451457D01*
X59169400Y-55293343D01*
X59128477Y-55140616D01*
X59090118Y-55074175D01*
X59049424Y-55003690D01*
X59049418Y-55003682D01*
X58937617Y-54891881D01*
X58937609Y-54891875D01*
X58800690Y-54812826D01*
X58800686Y-54812824D01*
X58800684Y-54812823D01*
X58647957Y-54771900D01*
X58489843Y-54771900D01*
X58337116Y-54812823D01*
X58337109Y-54812826D01*
X58200190Y-54891875D01*
X58200182Y-54891881D01*
X58088381Y-55003682D01*
X58088375Y-55003690D01*
X58009326Y-55140609D01*
X58009323Y-55140616D01*
X57968400Y-55293343D01*
X54305922Y-55293343D01*
X54226390Y-55247426D01*
X54226386Y-55247424D01*
X54226384Y-55247423D01*
X54073657Y-55206500D01*
X53915543Y-55206500D01*
X53762816Y-55247423D01*
X53762809Y-55247426D01*
X53625890Y-55326475D01*
X53625882Y-55326481D01*
X53514081Y-55438282D01*
X53514075Y-55438290D01*
X53435026Y-55575209D01*
X53435023Y-55575216D01*
X53394100Y-55727943D01*
X40300500Y-55727943D01*
X40300500Y-49152543D01*
X72310100Y-49152543D01*
X72310100Y-49310656D01*
X72351023Y-49463383D01*
X72351026Y-49463390D01*
X72430075Y-49600309D01*
X72430079Y-49600314D01*
X72430080Y-49600316D01*
X72541884Y-49712120D01*
X72541886Y-49712121D01*
X72541890Y-49712124D01*
X72678809Y-49791173D01*
X72678816Y-49791177D01*
X72831543Y-49832100D01*
X72831545Y-49832100D01*
X72989655Y-49832100D01*
X72989657Y-49832100D01*
X73142384Y-49791177D01*
X73279316Y-49712120D01*
X73391120Y-49600316D01*
X73470177Y-49463384D01*
X73511100Y-49310657D01*
X73511100Y-49152543D01*
X73470177Y-48999816D01*
X73470173Y-48999809D01*
X73391124Y-48862890D01*
X73391118Y-48862882D01*
X73279317Y-48751081D01*
X73279309Y-48751075D01*
X73142390Y-48672026D01*
X73142386Y-48672024D01*
X73142384Y-48672023D01*
X72989657Y-48631100D01*
X72831543Y-48631100D01*
X72678816Y-48672023D01*
X72678809Y-48672026D01*
X72541890Y-48751075D01*
X72541882Y-48751081D01*
X72430081Y-48862882D01*
X72430075Y-48862890D01*
X72351026Y-48999809D01*
X72351023Y-48999816D01*
X72310100Y-49152543D01*
X40300500Y-49152543D01*
X40300500Y-46486304D01*
X57599500Y-46486304D01*
X57599500Y-47213695D01*
X57634103Y-47387658D01*
X57634106Y-47387667D01*
X57701983Y-47551540D01*
X57701990Y-47551553D01*
X57800535Y-47699034D01*
X57800538Y-47699038D01*
X57925961Y-47824461D01*
X57925965Y-47824464D01*
X58073446Y-47923009D01*
X58073459Y-47923016D01*
X58196363Y-47973923D01*
X58237334Y-47990894D01*
X58237336Y-47990894D01*
X58237341Y-47990896D01*
X58411304Y-48025499D01*
X58411307Y-48025500D01*
X58411309Y-48025500D01*
X58588693Y-48025500D01*
X58588694Y-48025499D01*
X58646682Y-48013964D01*
X58762658Y-47990896D01*
X58762661Y-47990894D01*
X58762666Y-47990894D01*
X58926547Y-47923013D01*
X59074035Y-47824464D01*
X59199464Y-47699035D01*
X59298013Y-47551547D01*
X59365894Y-47387666D01*
X59400500Y-47213691D01*
X59400500Y-46486309D01*
X59400500Y-46486306D01*
X59400499Y-46486304D01*
X59366924Y-46317507D01*
X59365896Y-46312342D01*
X59365893Y-46312332D01*
X59361383Y-46301443D01*
X82652700Y-46301443D01*
X82652700Y-46459557D01*
X82659868Y-46486306D01*
X82693623Y-46612283D01*
X82693626Y-46612290D01*
X82772675Y-46749209D01*
X82772679Y-46749214D01*
X82772680Y-46749216D01*
X82884484Y-46861020D01*
X82884486Y-46861021D01*
X82884490Y-46861024D01*
X83021409Y-46940073D01*
X83021416Y-46940077D01*
X83174143Y-46981000D01*
X83174145Y-46981000D01*
X83332255Y-46981000D01*
X83332257Y-46981000D01*
X83484984Y-46940077D01*
X83621916Y-46861020D01*
X83733720Y-46749216D01*
X83812777Y-46612284D01*
X83853700Y-46459557D01*
X83853700Y-46301443D01*
X83812777Y-46148716D01*
X83812621Y-46148446D01*
X83733724Y-46011790D01*
X83733718Y-46011782D01*
X83621917Y-45899981D01*
X83621909Y-45899975D01*
X83484990Y-45820926D01*
X83484986Y-45820924D01*
X83484984Y-45820923D01*
X83332257Y-45780000D01*
X83174143Y-45780000D01*
X83021416Y-45820923D01*
X83021409Y-45820926D01*
X82884490Y-45899975D01*
X82884482Y-45899981D01*
X82772681Y-46011782D01*
X82772675Y-46011790D01*
X82693626Y-46148709D01*
X82693623Y-46148716D01*
X82652700Y-46301443D01*
X59361383Y-46301443D01*
X59298016Y-46148459D01*
X59298009Y-46148446D01*
X59199464Y-46000965D01*
X59199461Y-46000961D01*
X59074038Y-45875538D01*
X59074034Y-45875535D01*
X58926553Y-45776990D01*
X58926540Y-45776983D01*
X58762667Y-45709106D01*
X58762658Y-45709103D01*
X58588694Y-45674500D01*
X58588691Y-45674500D01*
X58411309Y-45674500D01*
X58411306Y-45674500D01*
X58237341Y-45709103D01*
X58237332Y-45709106D01*
X58073459Y-45776983D01*
X58073446Y-45776990D01*
X57925965Y-45875535D01*
X57925961Y-45875538D01*
X57800538Y-46000961D01*
X57800535Y-46000965D01*
X57701990Y-46148446D01*
X57701983Y-46148459D01*
X57634106Y-46312332D01*
X57634103Y-46312341D01*
X57599500Y-46486304D01*
X40300500Y-46486304D01*
X40300500Y-43299713D01*
X41483500Y-43299713D01*
X41483500Y-43512286D01*
X41516753Y-43722239D01*
X41516753Y-43722241D01*
X41516754Y-43722243D01*
X41581218Y-43920643D01*
X41582444Y-43924414D01*
X41678951Y-44113820D01*
X41803890Y-44285786D01*
X41954213Y-44436109D01*
X42126179Y-44561048D01*
X42126181Y-44561049D01*
X42126184Y-44561051D01*
X42315588Y-44657557D01*
X42517757Y-44723246D01*
X42727713Y-44756500D01*
X42727714Y-44756500D01*
X42940286Y-44756500D01*
X42940287Y-44756500D01*
X43150243Y-44723246D01*
X43352412Y-44657557D01*
X43541816Y-44561051D01*
X43563789Y-44545086D01*
X43713786Y-44436109D01*
X43713788Y-44436106D01*
X43713792Y-44436104D01*
X43836153Y-44313743D01*
X61635000Y-44313743D01*
X61635000Y-44471857D01*
X61674320Y-44618599D01*
X61675923Y-44624583D01*
X61675926Y-44624590D01*
X61754975Y-44761509D01*
X61754979Y-44761514D01*
X61754980Y-44761516D01*
X61866784Y-44873320D01*
X61866786Y-44873321D01*
X61866790Y-44873324D01*
X61957163Y-44925500D01*
X62003716Y-44952377D01*
X62156443Y-44993300D01*
X62156445Y-44993300D01*
X62314555Y-44993300D01*
X62314557Y-44993300D01*
X62467284Y-44952377D01*
X62604216Y-44873320D01*
X62716020Y-44761516D01*
X62795077Y-44624584D01*
X62836000Y-44471857D01*
X62836000Y-44313743D01*
X62795077Y-44161016D01*
X62767829Y-44113820D01*
X62716024Y-44024090D01*
X62716018Y-44024082D01*
X62604217Y-43912281D01*
X62604209Y-43912275D01*
X62467290Y-43833226D01*
X62467286Y-43833224D01*
X62467284Y-43833223D01*
X62314557Y-43792300D01*
X62156443Y-43792300D01*
X62003716Y-43833223D01*
X62003709Y-43833226D01*
X61866790Y-43912275D01*
X61866782Y-43912281D01*
X61754981Y-44024082D01*
X61754975Y-44024090D01*
X61675926Y-44161009D01*
X61675923Y-44161016D01*
X61635000Y-44313743D01*
X43836153Y-44313743D01*
X43864104Y-44285792D01*
X43903557Y-44231490D01*
X43954758Y-44161016D01*
X43989051Y-44113816D01*
X44085557Y-43924412D01*
X44151246Y-43722243D01*
X44158850Y-43674234D01*
X77546500Y-43674234D01*
X77546500Y-43825766D01*
X77566109Y-43898950D01*
X77585719Y-43972136D01*
X77585849Y-43972361D01*
X77661485Y-44103365D01*
X77768635Y-44210515D01*
X77882281Y-44276129D01*
X77899014Y-44285790D01*
X77899865Y-44286281D01*
X78046234Y-44325500D01*
X78046236Y-44325500D01*
X78197764Y-44325500D01*
X78197766Y-44325500D01*
X78344135Y-44286281D01*
X78475365Y-44210515D01*
X78582515Y-44103365D01*
X78630313Y-44020577D01*
X78680880Y-43972361D01*
X78749487Y-43959139D01*
X78814352Y-43985107D01*
X78854880Y-44042021D01*
X78861700Y-44082577D01*
X78861700Y-44097157D01*
X78897695Y-44231490D01*
X78902623Y-44249883D01*
X78902626Y-44249890D01*
X78981675Y-44386809D01*
X78981679Y-44386814D01*
X78981680Y-44386816D01*
X79093484Y-44498620D01*
X79093486Y-44498621D01*
X79093490Y-44498624D01*
X79230409Y-44577673D01*
X79230416Y-44577677D01*
X79383143Y-44618600D01*
X79383145Y-44618600D01*
X79541255Y-44618600D01*
X79541257Y-44618600D01*
X79693984Y-44577677D01*
X79830916Y-44498620D01*
X79942720Y-44386816D01*
X80021777Y-44249884D01*
X80062700Y-44097157D01*
X80062700Y-43939043D01*
X80057770Y-43920643D01*
X81442900Y-43920643D01*
X81442900Y-44078757D01*
X81478205Y-44210515D01*
X81483823Y-44231483D01*
X81483826Y-44231490D01*
X81562875Y-44368409D01*
X81562879Y-44368414D01*
X81562880Y-44368416D01*
X81674684Y-44480220D01*
X81674686Y-44480221D01*
X81674690Y-44480224D01*
X81811609Y-44559273D01*
X81811616Y-44559277D01*
X81964343Y-44600200D01*
X81964345Y-44600200D01*
X82122455Y-44600200D01*
X82122457Y-44600200D01*
X82275184Y-44559277D01*
X82412116Y-44480220D01*
X82523920Y-44368416D01*
X82602977Y-44231484D01*
X82643900Y-44078757D01*
X82643900Y-43920643D01*
X82602977Y-43767916D01*
X82551540Y-43678824D01*
X82548890Y-43674234D01*
X83326500Y-43674234D01*
X83326500Y-43825766D01*
X83346109Y-43898950D01*
X83365719Y-43972136D01*
X83365849Y-43972361D01*
X83441485Y-44103365D01*
X83548635Y-44210515D01*
X83662281Y-44276129D01*
X83679014Y-44285790D01*
X83679865Y-44286281D01*
X83826234Y-44325500D01*
X83826236Y-44325500D01*
X83977764Y-44325500D01*
X83977766Y-44325500D01*
X84124135Y-44286281D01*
X84255365Y-44210515D01*
X84362515Y-44103365D01*
X84438281Y-43972135D01*
X84477500Y-43825766D01*
X84477500Y-43674234D01*
X84438281Y-43527865D01*
X84362515Y-43396635D01*
X84255365Y-43289485D01*
X84189750Y-43251602D01*
X84124136Y-43213719D01*
X84095501Y-43206046D01*
X83977766Y-43174500D01*
X83826234Y-43174500D01*
X83679863Y-43213719D01*
X83548635Y-43289485D01*
X83548632Y-43289487D01*
X83441487Y-43396632D01*
X83441485Y-43396635D01*
X83365719Y-43527863D01*
X83338089Y-43630982D01*
X83326500Y-43674234D01*
X82548890Y-43674234D01*
X82523922Y-43630987D01*
X82523918Y-43630982D01*
X82412117Y-43519181D01*
X82412109Y-43519175D01*
X82275190Y-43440126D01*
X82275186Y-43440124D01*
X82275184Y-43440123D01*
X82122457Y-43399200D01*
X81964343Y-43399200D01*
X81811616Y-43440123D01*
X81811609Y-43440126D01*
X81674690Y-43519175D01*
X81674682Y-43519181D01*
X81562881Y-43630982D01*
X81562875Y-43630990D01*
X81483826Y-43767909D01*
X81483823Y-43767916D01*
X81442900Y-43920643D01*
X80057770Y-43920643D01*
X80021777Y-43786316D01*
X80021773Y-43786309D01*
X79942724Y-43649390D01*
X79942718Y-43649382D01*
X79830917Y-43537581D01*
X79830909Y-43537575D01*
X79693990Y-43458526D01*
X79693986Y-43458524D01*
X79693984Y-43458523D01*
X79541257Y-43417600D01*
X79383143Y-43417600D01*
X79230416Y-43458523D01*
X79230409Y-43458526D01*
X79093490Y-43537575D01*
X79093482Y-43537581D01*
X78981681Y-43649382D01*
X78981677Y-43649387D01*
X78928887Y-43740824D01*
X78878320Y-43789039D01*
X78809713Y-43802263D01*
X78744849Y-43776295D01*
X78704320Y-43719381D01*
X78697500Y-43678824D01*
X78697500Y-43674236D01*
X78697500Y-43674234D01*
X78658281Y-43527865D01*
X78582515Y-43396635D01*
X78475365Y-43289485D01*
X78409750Y-43251602D01*
X78344136Y-43213719D01*
X78270950Y-43194109D01*
X78197766Y-43174500D01*
X78046234Y-43174500D01*
X77899863Y-43213719D01*
X77768635Y-43289485D01*
X77768632Y-43289487D01*
X77661487Y-43396632D01*
X77661485Y-43396635D01*
X77585719Y-43527863D01*
X77558089Y-43630982D01*
X77546500Y-43674234D01*
X44158850Y-43674234D01*
X44162785Y-43649390D01*
X44163210Y-43646708D01*
X44163210Y-43646706D01*
X44184500Y-43512287D01*
X44184500Y-43299713D01*
X44170880Y-43213719D01*
X44151246Y-43089757D01*
X44148692Y-43081898D01*
X99599500Y-43081898D01*
X99599500Y-44418102D01*
X99603516Y-44451547D01*
X99610122Y-44506561D01*
X99665639Y-44647343D01*
X99757077Y-44767922D01*
X99877656Y-44859360D01*
X99877657Y-44859360D01*
X99877658Y-44859361D01*
X100018436Y-44914877D01*
X100106898Y-44925500D01*
X100106903Y-44925500D01*
X100893097Y-44925500D01*
X100893102Y-44925500D01*
X100981564Y-44914877D01*
X101122342Y-44859361D01*
X101242922Y-44767922D01*
X101334361Y-44647342D01*
X101389877Y-44506564D01*
X101400500Y-44418102D01*
X101400500Y-43386304D01*
X103599500Y-43386304D01*
X103599500Y-44113695D01*
X103634103Y-44287658D01*
X103634106Y-44287667D01*
X103701983Y-44451540D01*
X103701990Y-44451553D01*
X103800535Y-44599034D01*
X103800538Y-44599038D01*
X103925961Y-44724461D01*
X103925965Y-44724464D01*
X104073446Y-44823009D01*
X104073459Y-44823016D01*
X104194901Y-44873318D01*
X104237334Y-44890894D01*
X104237336Y-44890894D01*
X104237341Y-44890896D01*
X104411304Y-44925499D01*
X104411307Y-44925500D01*
X104411309Y-44925500D01*
X104588693Y-44925500D01*
X104588694Y-44925499D01*
X104646682Y-44913964D01*
X104762658Y-44890896D01*
X104762661Y-44890894D01*
X104762666Y-44890894D01*
X104926547Y-44823013D01*
X105074035Y-44724464D01*
X105199464Y-44599035D01*
X105298013Y-44451547D01*
X105365894Y-44287666D01*
X105366170Y-44286281D01*
X105400499Y-44113695D01*
X105400500Y-44113693D01*
X105400500Y-43386306D01*
X105400499Y-43386304D01*
X105365896Y-43212341D01*
X105365893Y-43212332D01*
X105364022Y-43207816D01*
X105315123Y-43089760D01*
X105298016Y-43048459D01*
X105298009Y-43048446D01*
X105199464Y-42900965D01*
X105199461Y-42900961D01*
X105074038Y-42775538D01*
X105074034Y-42775535D01*
X104926553Y-42676990D01*
X104926540Y-42676983D01*
X104762667Y-42609106D01*
X104762658Y-42609103D01*
X104588694Y-42574500D01*
X104588691Y-42574500D01*
X104411309Y-42574500D01*
X104411306Y-42574500D01*
X104237341Y-42609103D01*
X104237332Y-42609106D01*
X104073459Y-42676983D01*
X104073446Y-42676990D01*
X103925965Y-42775535D01*
X103925961Y-42775538D01*
X103800538Y-42900961D01*
X103800535Y-42900965D01*
X103701990Y-43048446D01*
X103701983Y-43048459D01*
X103634106Y-43212332D01*
X103634103Y-43212341D01*
X103599500Y-43386304D01*
X101400500Y-43386304D01*
X101400500Y-43081898D01*
X101389877Y-42993436D01*
X101334361Y-42852658D01*
X101334360Y-42852657D01*
X101334360Y-42852656D01*
X101242922Y-42732077D01*
X101122343Y-42640639D01*
X100981561Y-42585122D01*
X100935926Y-42579642D01*
X100893102Y-42574500D01*
X100106898Y-42574500D01*
X100067853Y-42579188D01*
X100018438Y-42585122D01*
X99877656Y-42640639D01*
X99757077Y-42732077D01*
X99665639Y-42852656D01*
X99610122Y-42993438D01*
X99604188Y-43042853D01*
X99599500Y-43081898D01*
X44148692Y-43081898D01*
X44085557Y-42887588D01*
X43989051Y-42698184D01*
X43989049Y-42698181D01*
X43989048Y-42698179D01*
X43864109Y-42526213D01*
X43731609Y-42393713D01*
X118003500Y-42393713D01*
X118003500Y-42606287D01*
X118008941Y-42640639D01*
X118030306Y-42775536D01*
X118036754Y-42816243D01*
X118094328Y-42993438D01*
X118102444Y-43018414D01*
X118198951Y-43207820D01*
X118323890Y-43379786D01*
X118474213Y-43530109D01*
X118646179Y-43655048D01*
X118646181Y-43655049D01*
X118646184Y-43655051D01*
X118835588Y-43751557D01*
X119037757Y-43817246D01*
X119247713Y-43850500D01*
X119247714Y-43850500D01*
X119460286Y-43850500D01*
X119460287Y-43850500D01*
X119670243Y-43817246D01*
X119872412Y-43751557D01*
X120061816Y-43655051D01*
X120094933Y-43630990D01*
X120233786Y-43530109D01*
X120233788Y-43530106D01*
X120233792Y-43530104D01*
X120384104Y-43379792D01*
X120384106Y-43379788D01*
X120384109Y-43379786D01*
X120505763Y-43212341D01*
X120509051Y-43207816D01*
X120605557Y-43018412D01*
X120671246Y-42816243D01*
X120704500Y-42606287D01*
X120704500Y-42393713D01*
X120671246Y-42183757D01*
X120605557Y-41981588D01*
X120509051Y-41792184D01*
X120509049Y-41792181D01*
X120509048Y-41792179D01*
X120384109Y-41620213D01*
X120233786Y-41469890D01*
X120061820Y-41344951D01*
X119872414Y-41248444D01*
X119872413Y-41248443D01*
X119872412Y-41248443D01*
X119670243Y-41182754D01*
X119670241Y-41182753D01*
X119670240Y-41182753D01*
X119508957Y-41157208D01*
X119460287Y-41149500D01*
X119247713Y-41149500D01*
X119199042Y-41157208D01*
X119037760Y-41182753D01*
X118835585Y-41248444D01*
X118646179Y-41344951D01*
X118474213Y-41469890D01*
X118323890Y-41620213D01*
X118198951Y-41792179D01*
X118102444Y-41981585D01*
X118036753Y-42183760D01*
X118026111Y-42250951D01*
X118003500Y-42393713D01*
X43731609Y-42393713D01*
X43713786Y-42375890D01*
X43541820Y-42250951D01*
X43352414Y-42154444D01*
X43352413Y-42154443D01*
X43352412Y-42154443D01*
X43150243Y-42088754D01*
X43150241Y-42088753D01*
X43150240Y-42088753D01*
X42988957Y-42063208D01*
X42940287Y-42055500D01*
X42727713Y-42055500D01*
X42679042Y-42063208D01*
X42517760Y-42088753D01*
X42315585Y-42154444D01*
X42126179Y-42250951D01*
X41954213Y-42375890D01*
X41803890Y-42526213D01*
X41678951Y-42698179D01*
X41582444Y-42887585D01*
X41516753Y-43089760D01*
X41483500Y-43299713D01*
X40300500Y-43299713D01*
X40300500Y-40724500D01*
X40320185Y-40657461D01*
X40372989Y-40611706D01*
X40424500Y-40600500D01*
X41733560Y-40600500D01*
X41733562Y-40600500D01*
X41809989Y-40580021D01*
X41878511Y-40540460D01*
X41934460Y-40484511D01*
X41974021Y-40415989D01*
X41980341Y-40392404D01*
X42016707Y-40332745D01*
X42079554Y-40302217D01*
X42100115Y-40300500D01*
X121599500Y-40300500D01*
X121666539Y-40320185D01*
G37*
%TD.AperFunction*%
%TD*%
M02*
