%TF.GenerationSoftware,KiCad,Pcbnew,10.0.6*%
%TF.CreationDate,2026-09-19T18:44:27+09:00*%
%TF.ProjectId,riser_xiao,72697365-725f-4786-9961-6f2e6b696361,rev?*%
%TF.SameCoordinates,Original*%
%TF.FileFunction,Legend,Top*%
%TF.FilePolarity,Positive*%
%FSLAX46Y46*%
G04 Gerber Fmt 4.6, Leading zero omitted, Abs format (unit mm)*
G04 Created by KiCad (PCBNEW 10.0.6) date 2026-09-19 18:44:27*
%MOMM*%
%LPD*%
G01*
G04 APERTURE LIST*
%ADD10C,0.150000*%
G04 APERTURE END LIST*
D10*
X64642295Y-70447857D02*
X65442295Y-69914523D01*
X64642295Y-69914523D02*
X65442295Y-70447857D01*
X65442295Y-69609761D02*
X64642295Y-69609761D01*
X65213723Y-69266905D02*
X65213723Y-68885952D01*
X65442295Y-69343095D02*
X64642295Y-69076428D01*
X64642295Y-69076428D02*
X65442295Y-68809762D01*
X64642295Y-68390714D02*
X64642295Y-68238333D01*
X64642295Y-68238333D02*
X64680390Y-68162143D01*
X64680390Y-68162143D02*
X64756580Y-68085952D01*
X64756580Y-68085952D02*
X64908961Y-68047857D01*
X64908961Y-68047857D02*
X65175628Y-68047857D01*
X65175628Y-68047857D02*
X65328009Y-68085952D01*
X65328009Y-68085952D02*
X65404200Y-68162143D01*
X65404200Y-68162143D02*
X65442295Y-68238333D01*
X65442295Y-68238333D02*
X65442295Y-68390714D01*
X65442295Y-68390714D02*
X65404200Y-68466905D01*
X65404200Y-68466905D02*
X65328009Y-68543095D01*
X65328009Y-68543095D02*
X65175628Y-68581191D01*
X65175628Y-68581191D02*
X64908961Y-68581191D01*
X64908961Y-68581191D02*
X64756580Y-68543095D01*
X64756580Y-68543095D02*
X64680390Y-68466905D01*
X64680390Y-68466905D02*
X64642295Y-68390714D01*
X65442295Y-66638333D02*
X65061342Y-66905000D01*
X65442295Y-67095476D02*
X64642295Y-67095476D01*
X64642295Y-67095476D02*
X64642295Y-66790714D01*
X64642295Y-66790714D02*
X64680390Y-66714524D01*
X64680390Y-66714524D02*
X64718485Y-66676429D01*
X64718485Y-66676429D02*
X64794676Y-66638333D01*
X64794676Y-66638333D02*
X64908961Y-66638333D01*
X64908961Y-66638333D02*
X64985152Y-66676429D01*
X64985152Y-66676429D02*
X65023247Y-66714524D01*
X65023247Y-66714524D02*
X65061342Y-66790714D01*
X65061342Y-66790714D02*
X65061342Y-67095476D01*
X65442295Y-66295476D02*
X64642295Y-66295476D01*
X65404200Y-65952620D02*
X65442295Y-65838334D01*
X65442295Y-65838334D02*
X65442295Y-65647858D01*
X65442295Y-65647858D02*
X65404200Y-65571667D01*
X65404200Y-65571667D02*
X65366104Y-65533572D01*
X65366104Y-65533572D02*
X65289914Y-65495477D01*
X65289914Y-65495477D02*
X65213723Y-65495477D01*
X65213723Y-65495477D02*
X65137533Y-65533572D01*
X65137533Y-65533572D02*
X65099438Y-65571667D01*
X65099438Y-65571667D02*
X65061342Y-65647858D01*
X65061342Y-65647858D02*
X65023247Y-65800239D01*
X65023247Y-65800239D02*
X64985152Y-65876429D01*
X64985152Y-65876429D02*
X64947057Y-65914524D01*
X64947057Y-65914524D02*
X64870866Y-65952620D01*
X64870866Y-65952620D02*
X64794676Y-65952620D01*
X64794676Y-65952620D02*
X64718485Y-65914524D01*
X64718485Y-65914524D02*
X64680390Y-65876429D01*
X64680390Y-65876429D02*
X64642295Y-65800239D01*
X64642295Y-65800239D02*
X64642295Y-65609762D01*
X64642295Y-65609762D02*
X64680390Y-65495477D01*
X65023247Y-65152619D02*
X65023247Y-64885953D01*
X65442295Y-64771667D02*
X65442295Y-65152619D01*
X65442295Y-65152619D02*
X64642295Y-65152619D01*
X64642295Y-65152619D02*
X64642295Y-64771667D01*
X65442295Y-63971666D02*
X65061342Y-64238333D01*
X65442295Y-64428809D02*
X64642295Y-64428809D01*
X64642295Y-64428809D02*
X64642295Y-64124047D01*
X64642295Y-64124047D02*
X64680390Y-64047857D01*
X64680390Y-64047857D02*
X64718485Y-64009762D01*
X64718485Y-64009762D02*
X64794676Y-63971666D01*
X64794676Y-63971666D02*
X64908961Y-63971666D01*
X64908961Y-63971666D02*
X64985152Y-64009762D01*
X64985152Y-64009762D02*
X65023247Y-64047857D01*
X65023247Y-64047857D02*
X65061342Y-64124047D01*
X65061342Y-64124047D02*
X65061342Y-64428809D01*
X64908961Y-63133571D02*
X64908961Y-62828809D01*
X64642295Y-63019285D02*
X65328009Y-63019285D01*
X65328009Y-63019285D02*
X65404200Y-62981190D01*
X65404200Y-62981190D02*
X65442295Y-62905000D01*
X65442295Y-62905000D02*
X65442295Y-62828809D01*
X65442295Y-62143095D02*
X65442295Y-62600238D01*
X65442295Y-62371666D02*
X64642295Y-62371666D01*
X64642295Y-62371666D02*
X64756580Y-62447857D01*
X64756580Y-62447857D02*
X64832771Y-62524047D01*
X64832771Y-62524047D02*
X64870866Y-62600238D01*
X65366104Y-61800237D02*
X65404200Y-61762142D01*
X65404200Y-61762142D02*
X65442295Y-61800237D01*
X65442295Y-61800237D02*
X65404200Y-61838333D01*
X65404200Y-61838333D02*
X65366104Y-61800237D01*
X65366104Y-61800237D02*
X65442295Y-61800237D01*
X64718485Y-61457381D02*
X64680390Y-61419285D01*
X64680390Y-61419285D02*
X64642295Y-61343095D01*
X64642295Y-61343095D02*
X64642295Y-61152619D01*
X64642295Y-61152619D02*
X64680390Y-61076428D01*
X64680390Y-61076428D02*
X64718485Y-61038333D01*
X64718485Y-61038333D02*
X64794676Y-61000238D01*
X64794676Y-61000238D02*
X64870866Y-61000238D01*
X64870866Y-61000238D02*
X64985152Y-61038333D01*
X64985152Y-61038333D02*
X65442295Y-61495476D01*
X65442295Y-61495476D02*
X65442295Y-61000238D01*
X51409524Y-51828961D02*
X50800000Y-52057533D01*
X50800000Y-52057533D02*
X51409524Y-52286104D01*
X51790476Y-51562295D02*
X51790476Y-52209914D01*
X51790476Y-52209914D02*
X51828571Y-52286104D01*
X51828571Y-52286104D02*
X51866666Y-52324200D01*
X51866666Y-52324200D02*
X51942857Y-52362295D01*
X51942857Y-52362295D02*
X52095238Y-52362295D01*
X52095238Y-52362295D02*
X52171428Y-52324200D01*
X52171428Y-52324200D02*
X52209523Y-52286104D01*
X52209523Y-52286104D02*
X52247619Y-52209914D01*
X52247619Y-52209914D02*
X52247619Y-51562295D01*
X52590475Y-52324200D02*
X52704761Y-52362295D01*
X52704761Y-52362295D02*
X52895237Y-52362295D01*
X52895237Y-52362295D02*
X52971428Y-52324200D01*
X52971428Y-52324200D02*
X53009523Y-52286104D01*
X53009523Y-52286104D02*
X53047618Y-52209914D01*
X53047618Y-52209914D02*
X53047618Y-52133723D01*
X53047618Y-52133723D02*
X53009523Y-52057533D01*
X53009523Y-52057533D02*
X52971428Y-52019438D01*
X52971428Y-52019438D02*
X52895237Y-51981342D01*
X52895237Y-51981342D02*
X52742856Y-51943247D01*
X52742856Y-51943247D02*
X52666666Y-51905152D01*
X52666666Y-51905152D02*
X52628571Y-51867057D01*
X52628571Y-51867057D02*
X52590475Y-51790866D01*
X52590475Y-51790866D02*
X52590475Y-51714676D01*
X52590475Y-51714676D02*
X52628571Y-51638485D01*
X52628571Y-51638485D02*
X52666666Y-51600390D01*
X52666666Y-51600390D02*
X52742856Y-51562295D01*
X52742856Y-51562295D02*
X52933333Y-51562295D01*
X52933333Y-51562295D02*
X53047618Y-51600390D01*
X53657142Y-51943247D02*
X53771428Y-51981342D01*
X53771428Y-51981342D02*
X53809523Y-52019438D01*
X53809523Y-52019438D02*
X53847619Y-52095628D01*
X53847619Y-52095628D02*
X53847619Y-52209914D01*
X53847619Y-52209914D02*
X53809523Y-52286104D01*
X53809523Y-52286104D02*
X53771428Y-52324200D01*
X53771428Y-52324200D02*
X53695238Y-52362295D01*
X53695238Y-52362295D02*
X53390476Y-52362295D01*
X53390476Y-52362295D02*
X53390476Y-51562295D01*
X53390476Y-51562295D02*
X53657142Y-51562295D01*
X53657142Y-51562295D02*
X53733333Y-51600390D01*
X53733333Y-51600390D02*
X53771428Y-51638485D01*
X53771428Y-51638485D02*
X53809523Y-51714676D01*
X53809523Y-51714676D02*
X53809523Y-51790866D01*
X53809523Y-51790866D02*
X53771428Y-51867057D01*
X53771428Y-51867057D02*
X53733333Y-51905152D01*
X53733333Y-51905152D02*
X53657142Y-51943247D01*
X53657142Y-51943247D02*
X53390476Y-51943247D01*
X54190476Y-52057533D02*
X54800000Y-52057533D01*
X55638095Y-52286104D02*
X55599999Y-52324200D01*
X55599999Y-52324200D02*
X55485714Y-52362295D01*
X55485714Y-52362295D02*
X55409523Y-52362295D01*
X55409523Y-52362295D02*
X55295237Y-52324200D01*
X55295237Y-52324200D02*
X55219047Y-52248009D01*
X55219047Y-52248009D02*
X55180952Y-52171819D01*
X55180952Y-52171819D02*
X55142856Y-52019438D01*
X55142856Y-52019438D02*
X55142856Y-51905152D01*
X55142856Y-51905152D02*
X55180952Y-51752771D01*
X55180952Y-51752771D02*
X55219047Y-51676580D01*
X55219047Y-51676580D02*
X55295237Y-51600390D01*
X55295237Y-51600390D02*
X55409523Y-51562295D01*
X55409523Y-51562295D02*
X55485714Y-51562295D01*
X55485714Y-51562295D02*
X55599999Y-51600390D01*
X55599999Y-51600390D02*
X55638095Y-51638485D01*
M02*
