solid OpenSCAD_Model
  facet normal -1 0 0
    outer loop
      vertex -9.5 -9.5 6.2
      vertex -9.5 9.5 13.9
      vertex -9.5 9.5 6.2
    endloop
  endfacet
  facet normal -1 -0 0
    outer loop
      vertex -9.5 9.5 13.9
      vertex -9.5 -9.5 6.2
      vertex -9.5 -9.5 13.9
    endloop
  endfacet
  facet normal 1 -0 0
    outer loop
      vertex 9.5 -9.5 13.9
      vertex 9.5 9.5 6.2
      vertex 9.5 9.5 13.9
    endloop
  endfacet
  facet normal 1 0 0
    outer loop
      vertex 9.5 9.5 6.2
      vertex 9.5 -9.5 13.9
      vertex 9.5 -9.5 6.2
    endloop
  endfacet
  facet normal 0 0 -1
    outer loop
      vertex 9.5 -9.5 6.2
      vertex 8 -8 6.2
      vertex 9.5 9.5 6.2
    endloop
  endfacet
  facet normal 0 0 -1
    outer loop
      vertex 9.5 -9.5 6.2
      vertex -8 -8 6.2
      vertex 8 -8 6.2
    endloop
  endfacet
  facet normal -0 0 -1
    outer loop
      vertex -8 -8 6.2
      vertex -9.5 -9.5 6.2
      vertex -8 8 6.2
    endloop
  endfacet
  facet normal 0 0 -1
    outer loop
      vertex -9.5 -9.5 6.2
      vertex -8 -8 6.2
      vertex 9.5 -9.5 6.2
    endloop
  endfacet
  facet normal 0 0 -1
    outer loop
      vertex 8 8 6.2
      vertex 9.5 9.5 6.2
      vertex 8 -8 6.2
    endloop
  endfacet
  facet normal 0 0 -1
    outer loop
      vertex -8 8 6.2
      vertex 9.5 9.5 6.2
      vertex 8 8 6.2
    endloop
  endfacet
  facet normal 0 0 -1
    outer loop
      vertex -8 8 6.2
      vertex -9.5 9.5 6.2
      vertex 9.5 9.5 6.2
    endloop
  endfacet
  facet normal 0 0 -1
    outer loop
      vertex -9.5 9.5 6.2
      vertex -8 8 6.2
      vertex -9.5 -9.5 6.2
    endloop
  endfacet
  facet normal 0 -1 0
    outer loop
      vertex -9.5 -9.5 6.2
      vertex 9.5 -9.5 13.9
      vertex -9.5 -9.5 13.9
    endloop
  endfacet
  facet normal 0 -1 -0
    outer loop
      vertex 9.5 -9.5 13.9
      vertex -9.5 -9.5 6.2
      vertex 9.5 -9.5 6.2
    endloop
  endfacet
  facet normal 0 1 -0
    outer loop
      vertex 9.5 9.5 6.2
      vertex -9.5 9.5 13.9
      vertex 9.5 9.5 13.9
    endloop
  endfacet
  facet normal 0 1 0
    outer loop
      vertex -9.5 9.5 13.9
      vertex 9.5 9.5 6.2
      vertex -9.5 9.5 6.2
    endloop
  endfacet
  facet normal -1 0 0
    outer loop
      vertex -8 -2 -7.62939e-07
      vertex -8 -8 -7.62939e-07
      vertex -8 -2 1.2
    endloop
  endfacet
  facet normal -1 0 0
    outer loop
      vertex -8 2 1.2
      vertex -8 8 -7.62939e-07
      vertex -8 2 -7.62939e-07
    endloop
  endfacet
  facet normal -1 0 0
    outer loop
      vertex -8 8 -7.62939e-07
      vertex -8 2 1.2
      vertex -8 8 6.2
    endloop
  endfacet
  facet normal -1 0 0
    outer loop
      vertex -8 -2 1.2
      vertex -8 8 6.2
      vertex -8 2 1.2
    endloop
  endfacet
  facet normal -1 0 0
    outer loop
      vertex -8 -8 6.2
      vertex -8 -2 1.2
      vertex -8 -8 -7.62939e-07
    endloop
  endfacet
  facet normal -1 0 0
    outer loop
      vertex -8 -2 1.2
      vertex -8 -8 6.2
      vertex -8 8 6.2
    endloop
  endfacet
  facet normal 1 0 0
    outer loop
      vertex 8 8 6.2
      vertex 8 2 1.2
      vertex 8 8 -7.62939e-07
    endloop
  endfacet
  facet normal 1 0 0
    outer loop
      vertex 8 8 6.2
      vertex 8 -2 1.2
      vertex 8 2 1.2
    endloop
  endfacet
  facet normal 1 -0 0
    outer loop
      vertex 8 -8 6.2
      vertex 8 -2 1.2
      vertex 8 8 6.2
    endloop
  endfacet
  facet normal 1 0 0
    outer loop
      vertex 8 -8 -7.62939e-07
      vertex 8 -2 1.2
      vertex 8 -8 6.2
    endloop
  endfacet
  facet normal 1 0 0
    outer loop
      vertex 8 -2 1.2
      vertex 8 -8 -7.62939e-07
      vertex 8 -2 -7.62939e-07
    endloop
  endfacet
  facet normal 1 0 0
    outer loop
      vertex 8 8 -7.62939e-07
      vertex 8 2 1.2
      vertex 8 2 -7.62939e-07
    endloop
  endfacet
  facet normal 0 1 -0
    outer loop
      vertex 8 8 -7.62939e-07
      vertex -8 8 6.2
      vertex 8 8 6.2
    endloop
  endfacet
  facet normal 0 1 0
    outer loop
      vertex -8 8 6.2
      vertex 8 8 -7.62939e-07
      vertex -8 8 -7.62939e-07
    endloop
  endfacet
  facet normal 0 0 -1
    outer loop
      vertex -11 -2 -7.62939e-07
      vertex -8 2 -7.62939e-07
      vertex -8 -2 -7.62939e-07
    endloop
  endfacet
  facet normal -0 0 -1
    outer loop
      vertex -8 2 -7.62939e-07
      vertex -11 -2 -7.62939e-07
      vertex -11 2 -7.62939e-07
    endloop
  endfacet
  facet normal 0 0 -1
    outer loop
      vertex -8 -2 -7.62939e-07
      vertex 8 -2 -7.62939e-07
      vertex 8 -8 -7.62939e-07
    endloop
  endfacet
  facet normal 0 0 -1
    outer loop
      vertex 8 -2 -7.62939e-07
      vertex -8 -2 -7.62939e-07
      vertex 8 2 -7.62939e-07
    endloop
  endfacet
  facet normal 0 0 -1
    outer loop
      vertex -8 -2 -7.62939e-07
      vertex 8 -8 -7.62939e-07
      vertex -8 -8 -7.62939e-07
    endloop
  endfacet
  facet normal 0 0 -1
    outer loop
      vertex -8 2 -7.62939e-07
      vertex 8 2 -7.62939e-07
      vertex -8 -2 -7.62939e-07
    endloop
  endfacet
  facet normal 0 0 -1
    outer loop
      vertex 8 2 -7.62939e-07
      vertex -8 2 -7.62939e-07
      vertex 8 8 -7.62939e-07
    endloop
  endfacet
  facet normal -0 0 -1
    outer loop
      vertex 8 8 -7.62939e-07
      vertex -8 2 -7.62939e-07
      vertex -8 8 -7.62939e-07
    endloop
  endfacet
  facet normal 0 0 -1
    outer loop
      vertex 8 -2 -7.62939e-07
      vertex 11 2 -7.62939e-07
      vertex 11 -2 -7.62939e-07
    endloop
  endfacet
  facet normal -0 0 -1
    outer loop
      vertex 11 2 -7.62939e-07
      vertex 8 -2 -7.62939e-07
      vertex 8 2 -7.62939e-07
    endloop
  endfacet
  facet normal 0 -1 0
    outer loop
      vertex -8 -8 -7.62939e-07
      vertex 8 -8 6.2
      vertex -8 -8 6.2
    endloop
  endfacet
  facet normal 0 -1 -0
    outer loop
      vertex 8 -8 6.2
      vertex -8 -8 -7.62939e-07
      vertex 8 -8 -7.62939e-07
    endloop
  endfacet
  facet normal -1 0 0
    outer loop
      vertex -11 -2 -7.62939e-07
      vertex -11 2 1.2
      vertex -11 2 -7.62939e-07
    endloop
  endfacet
  facet normal -1 -0 0
    outer loop
      vertex -11 2 1.2
      vertex -11 -2 -7.62939e-07
      vertex -11 -2 1.2
    endloop
  endfacet
  facet normal -0 0 1
    outer loop
      vertex 8 2 1.2
      vertex 11 -2 1.2
      vertex 11 2 1.2
    endloop
  endfacet
  facet normal 0 0 1
    outer loop
      vertex 11 -2 1.2
      vertex 8 2 1.2
      vertex 8 -2 1.2
    endloop
  endfacet
  facet normal -0 0 1
    outer loop
      vertex -11 2 1.2
      vertex -8 -2 1.2
      vertex -8 2 1.2
    endloop
  endfacet
  facet normal 0 0 1
    outer loop
      vertex -8 -2 1.2
      vertex -11 2 1.2
      vertex -11 -2 1.2
    endloop
  endfacet
  facet normal 1 -0 0
    outer loop
      vertex 11 -2 1.2
      vertex 11 2 -7.62939e-07
      vertex 11 2 1.2
    endloop
  endfacet
  facet normal 1 0 0
    outer loop
      vertex 11 2 -7.62939e-07
      vertex 11 -2 1.2
      vertex 11 -2 -7.62939e-07
    endloop
  endfacet
  facet normal 0 -1 0
    outer loop
      vertex 8 -2 -7.62939e-07
      vertex 11 -2 1.2
      vertex 8 -2 1.2
    endloop
  endfacet
  facet normal 0 -1 -0
    outer loop
      vertex 11 -2 1.2
      vertex 8 -2 -7.62939e-07
      vertex 11 -2 -7.62939e-07
    endloop
  endfacet
  facet normal 0 -1 0
    outer loop
      vertex -11 -2 -7.62939e-07
      vertex -8 -2 1.2
      vertex -11 -2 1.2
    endloop
  endfacet
  facet normal 0 -1 -0
    outer loop
      vertex -8 -2 1.2
      vertex -11 -2 -7.62939e-07
      vertex -8 -2 -7.62939e-07
    endloop
  endfacet
  facet normal 0 1 -0
    outer loop
      vertex 11 2 -7.62939e-07
      vertex 8 2 1.2
      vertex 11 2 1.2
    endloop
  endfacet
  facet normal 0 1 0
    outer loop
      vertex 8 2 1.2
      vertex 11 2 -7.62939e-07
      vertex 8 2 -7.62939e-07
    endloop
  endfacet
  facet normal 0 1 -0
    outer loop
      vertex -8 2 -7.62939e-07
      vertex -11 2 1.2
      vertex -8 2 1.2
    endloop
  endfacet
  facet normal 0 1 0
    outer loop
      vertex -11 2 1.2
      vertex -8 2 -7.62939e-07
      vertex -11 2 -7.62939e-07
    endloop
  endfacet
  facet normal -0.707107 0 0.707107
    outer loop
      vertex -9.5 9.5 13.9
      vertex -8.7 -8.7 14.7
      vertex -8.7 8.7 14.7
    endloop
  endfacet
  facet normal -0.707107 0 0.707107
    outer loop
      vertex -8.7 -8.7 14.7
      vertex -9.5 9.5 13.9
      vertex -9.5 -9.5 13.9
    endloop
  endfacet
  facet normal 0 -0.707107 0.707107
    outer loop
      vertex -8.7 -8.7 14.7
      vertex 9.5 -9.5 13.9
      vertex 8.7 -8.7 14.7
    endloop
  endfacet
  facet normal 0 -0.707107 0.707107
    outer loop
      vertex 9.5 -9.5 13.9
      vertex -8.7 -8.7 14.7
      vertex -9.5 -9.5 13.9
    endloop
  endfacet
  facet normal 0 0.707107 0.707107
    outer loop
      vertex 9.5 9.5 13.9
      vertex -8.7 8.7 14.7
      vertex 8.7 8.7 14.7
    endloop
  endfacet
  facet normal 0 0.707107 0.707107
    outer loop
      vertex -8.7 8.7 14.7
      vertex 9.5 9.5 13.9
      vertex -9.5 9.5 13.9
    endloop
  endfacet
  facet normal -0 0 1
    outer loop
      vertex -8.7 8.7 14.7
      vertex 8.7 -8.7 14.7
      vertex 8.7 8.7 14.7
    endloop
  endfacet
  facet normal 0 0 1
    outer loop
      vertex 8.7 -8.7 14.7
      vertex -8.7 8.7 14.7
      vertex -8.7 -8.7 14.7
    endloop
  endfacet
  facet normal 0.707107 0 0.707107
    outer loop
      vertex 8.7 8.7 14.7
      vertex 9.5 -9.5 13.9
      vertex 9.5 9.5 13.9
    endloop
  endfacet
  facet normal 0.707107 0 0.707107
    outer loop
      vertex 9.5 -9.5 13.9
      vertex 8.7 8.7 14.7
      vertex 8.7 -8.7 14.7
    endloop
  endfacet
endsolid OpenSCAD_Model
