solid OpenSCAD_Model
  facet normal -1 0 0
    outer loop
      vertex -6 -1.25 15.75
      vertex -6 -1.25 20.95
      vertex -6 1.25 20.95
    endloop
  endfacet
  facet normal 0 -1 0
    outer loop
      vertex -6 -1.25 15.75
      vertex 6 -1.25 20.95
      vertex -6 -1.25 20.95
    endloop
  endfacet
  facet normal 0 0 1
    outer loop
      vertex -6 -1.25 20.95
      vertex 6 -1.25 20.95
      vertex -6 1.25 20.95
    endloop
  endfacet
  facet normal -1 0 0
    outer loop
      vertex -6 -1.25 15.75
      vertex -6 1.25 20.95
      vertex -6 1.25 15.75
    endloop
  endfacet
  facet normal 0 1 0
    outer loop
      vertex -6 1.25 15.75
      vertex -6 1.25 20.95
      vertex 6 1.25 15.75
    endloop
  endfacet
  facet normal 0 -1 0
    outer loop
      vertex -6 -1.25 15.75
      vertex 6 -1.25 15.75
      vertex 6 -1.25 20.95
    endloop
  endfacet
  facet normal 1 0 0
    outer loop
      vertex 6 -1.25 15.75
      vertex 6 1.25 15.75
      vertex 6 -1.25 20.95
    endloop
  endfacet
  facet normal 0 0 1
    outer loop
      vertex -6 1.25 20.95
      vertex 6 -1.25 20.95
      vertex 6 1.25 20.95
    endloop
  endfacet
  facet normal 0 1 0
    outer loop
      vertex -6 1.25 20.95
      vertex 6 1.25 20.95
      vertex 6 1.25 15.75
    endloop
  endfacet
  facet normal 1 0 0
    outer loop
      vertex 6 -1.25 20.95
      vertex 6 1.25 15.75
      vertex 6 1.25 20.95
    endloop
  endfacet
  facet normal -1 0 0
    outer loop
      vertex -8 -4 13.75
      vertex -8 -4 15.75
      vertex -8 4 15.75
    endloop
  endfacet
  facet normal 0 0 1
    outer loop
      vertex -8 -4 15.75
      vertex -6 -1.25 15.75
      vertex -8 4 15.75
    endloop
  endfacet
  facet normal 0 -1 0
    outer loop
      vertex -8 -4 13.75
      vertex 8 -4 15.75
      vertex -8 -4 15.75
    endloop
  endfacet
  facet normal 0 0 1
    outer loop
      vertex -8 -4 15.75
      vertex 6 -1.25 15.75
      vertex -6 -1.25 15.75
    endloop
  endfacet
  facet normal -1 0 0
    outer loop
      vertex -8 -4 13.75
      vertex -8 4 15.75
      vertex -8 4 13.75
    endloop
  endfacet
  facet normal 0 0 1
    outer loop
      vertex -6 -1.25 15.75
      vertex -6 1.25 15.75
      vertex -8 4 15.75
    endloop
  endfacet
  facet normal 0 1 0
    outer loop
      vertex -8 4 13.75
      vertex -8 4 15.75
      vertex 8 4 13.75
    endloop
  endfacet
  facet normal 0 0 1
    outer loop
      vertex -6 1.25 15.75
      vertex 8 4 15.75
      vertex -8 4 15.75
    endloop
  endfacet
  facet normal 0 -1 0
    outer loop
      vertex -8 -4 13.75
      vertex 8 -4 13.75
      vertex 8 -4 13.76
    endloop
  endfacet
  facet normal 0 -1 0
    outer loop
      vertex -8 -4 13.75
      vertex 8 -4 13.76
      vertex 8 -4 15.75
    endloop
  endfacet
  facet normal 0 0 1
    outer loop
      vertex -8 -4 15.75
      vertex 8 -4 15.75
      vertex 6 -1.25 15.75
    endloop
  endfacet
  facet normal 1 0 0
    outer loop
      vertex 8 -4 13.76
      vertex 8 4 15.75
      vertex 8 -4 15.75
    endloop
  endfacet
  facet normal 0 0 1
    outer loop
      vertex 8 -4 15.75
      vertex 6 1.25 15.75
      vertex 6 -1.25 15.75
    endloop
  endfacet
  facet normal 0 1 0
    outer loop
      vertex -8 4 15.75
      vertex 8 4 13.76
      vertex 8 4 13.75
    endloop
  endfacet
  facet normal 0 1 0
    outer loop
      vertex -8 4 15.75
      vertex 8 4 15.75
      vertex 8 4 13.76
    endloop
  endfacet
  facet normal 0 0 1
    outer loop
      vertex -6 1.25 15.75
      vertex 6 1.25 15.75
      vertex 8 4 15.75
    endloop
  endfacet
  facet normal 1 0 0
    outer loop
      vertex 8 -4 13.76
      vertex 8 4 13.76
      vertex 8 4 15.75
    endloop
  endfacet
  facet normal 0 0 1
    outer loop
      vertex 8 -4 15.75
      vertex 8 4 15.75
      vertex 6 1.25 15.75
    endloop
  endfacet
  facet normal 0 0 -1
    outer loop
      vertex -8 -4 0
      vertex -8 4 0
      vertex -0.9469301294951057 -0.3214394653031616 0
    endloop
  endfacet
  facet normal -1 0 0
    outer loop
      vertex -8 -4 0
      vertex -8 -4 13.75
      vertex -8 4 13.75
    endloop
  endfacet
  facet normal 0 -1 0
    outer loop
      vertex -8 -4 0
      vertex 8 -4 0
      vertex -8 -4 13.75
    endloop
  endfacet
  facet normal 0 0 -1
    outer loop
      vertex -8 -4 0
      vertex -0.3214394653031616 -0.9469301294951057 0
      vertex 8 -4 0
    endloop
  endfacet
  facet normal 0 0 -1
    outer loop
      vertex -8 -4 0
      vertex -0.5555702330196022 -0.8314696123025452 0
      vertex -0.5 -0.8660254037844386 0
    endloop
  endfacet
  facet normal 0 0 -1
    outer loop
      vertex -8 -4 0
      vertex -0.7518398074789774 -0.6593458151000688 0
      vertex -0.7071067811865476 -0.7071067811865476 0
    endloop
  endfacet
  facet normal 0 0 -1
    outer loop
      vertex -8 -4 0
      vertex -0.7933533402912352 -0.6087614290087207 0
      vertex -0.7518398074789774 -0.6593458151000688 0
    endloop
  endfacet
  facet normal 0 0 -1
    outer loop
      vertex -8 -4 0
      vertex -0.6593458151000688 -0.7518398074789774 0
      vertex -0.6087614290087207 -0.7933533402912352 0
    endloop
  endfacet
  facet normal 0 0 -1
    outer loop
      vertex -8 -4 0
      vertex -0.7071067811865476 -0.7071067811865476 0
      vertex -0.6593458151000688 -0.7518398074789774 0
    endloop
  endfacet
  facet normal 0 0 -1
    outer loop
      vertex -8 -4 0
      vertex -0.6087614290087207 -0.7933533402912352 0
      vertex -0.5555702330196022 -0.8314696123025452 0
    endloop
  endfacet
  facet normal 0 0 -1
    outer loop
      vertex -8 -4 0
      vertex -0.8968727415326883 -0.4422886902190013 0
      vertex -0.8660254037844386 -0.5 0
    endloop
  endfacet
  facet normal 0 0 -1
    outer loop
      vertex -8 -4 0
      vertex -0.9238795325112867 -0.3826834323650898 0
      vertex -0.8968727415326883 -0.4422886902190013 0
    endloop
  endfacet
  facet normal 0 0 -1
    outer loop
      vertex -8 -4 0
      vertex -0.9469301294951057 -0.3214394653031616 0
      vertex -0.9238795325112867 -0.3826834323650898 0
    endloop
  endfacet
  facet normal 0 0 -1
    outer loop
      vertex -8 -4 0
      vertex -0.8314696123025452 -0.5555702330196022 0
      vertex -0.7933533402912352 -0.6087614290087207 0
    endloop
  endfacet
  facet normal 0 0 -1
    outer loop
      vertex -8 -4 0
      vertex -0.8660254037844386 -0.5 0
      vertex -0.8314696123025452 -0.5555702330196022 0
    endloop
  endfacet
  facet normal 0 0 -1
    outer loop
      vertex -8 -4 0
      vertex -0.4422886902190013 -0.8968727415326883 0
      vertex -0.3826834323650898 -0.9238795325112867 0
    endloop
  endfacet
  facet normal 0 0 -1
    outer loop
      vertex -8 -4 0
      vertex -0.3826834323650898 -0.9238795325112867 0
      vertex -0.3214394653031616 -0.9469301294951057 0
    endloop
  endfacet
  facet normal 0 0 -1
    outer loop
      vertex -8 -4 0
      vertex -0.5 -0.8660254037844386 0
      vertex -0.4422886902190013 -0.8968727415326883 0
    endloop
  endfacet
  facet normal -1 0 0
    outer loop
      vertex -8 -4 0
      vertex -8 4 13.75
      vertex -8 4 0
    endloop
  endfacet
  facet normal 0 0 -1
    outer loop
      vertex -8 4 0
      vertex -0.9807852804032304 -0.19509032201612825 0
      vertex -0.9659258262890683 -0.25881904510252074 0
    endloop
  endfacet
  facet normal 0 0 -1
    outer loop
      vertex -8 4 0
      vertex -0.9659258262890683 -0.25881904510252074 0
      vertex -0.9469301294951057 -0.3214394653031616 0
    endloop
  endfacet
  facet normal 0 0 -1
    outer loop
      vertex -8 4 0
      vertex -0.9914448613738104 -0.13052619222005157 0
      vertex -0.9807852804032304 -0.19509032201612825 0
    endloop
  endfacet
  facet normal 0 0 -1
    outer loop
      vertex -8 4 0
      vertex -0.9978589232386035 -0.06540312923014306 0
      vertex -0.9914448613738104 -0.13052619222005157 0
    endloop
  endfacet
  facet normal 0 0 -1
    outer loop
      vertex -8 4 0
      vertex -1 0 0
      vertex -0.9978589232386035 -0.06540312923014306 0
    endloop
  endfacet
  facet normal 0 0 -1
    outer loop
      vertex -8 4 0
      vertex -0.9978589232386035 0.06540312923014306 0
      vertex -1 0 0
    endloop
  endfacet
  facet normal 0 0 -1
    outer loop
      vertex -8 4 0
      vertex -0.9914448613738104 0.13052619222005157 0
      vertex -0.9978589232386035 0.06540312923014306 0
    endloop
  endfacet
  facet normal 0 0 -1
    outer loop
      vertex -8 4 0
      vertex -0.9807852804032304 0.19509032201612825 0
      vertex -0.9914448613738104 0.13052619222005157 0
    endloop
  endfacet
  facet normal 0 0 -1
    outer loop
      vertex -8 4 0
      vertex -0.9659258262890683 0.25881904510252074 0
      vertex -0.9807852804032304 0.19509032201612825 0
    endloop
  endfacet
  facet normal 0 0 -1
    outer loop
      vertex -8 4 0
      vertex -0.9469301294951057 0.3214394653031616 0
      vertex -0.9659258262890683 0.25881904510252074 0
    endloop
  endfacet
  facet normal 0 0 -1
    outer loop
      vertex -8 4 0
      vertex -0.9238795325112867 0.3826834323650898 0
      vertex -0.9469301294951057 0.3214394653031616 0
    endloop
  endfacet
  facet normal 0 0 -1
    outer loop
      vertex -8 4 0
      vertex -0.8968727415326883 0.4422886902190013 0
      vertex -0.9238795325112867 0.3826834323650898 0
    endloop
  endfacet
  facet normal 0 0 -1
    outer loop
      vertex -8 4 0
      vertex -0.8660254037844386 0.5 0
      vertex -0.8968727415326883 0.4422886902190013 0
    endloop
  endfacet
  facet normal 0 0 -1
    outer loop
      vertex -8 4 0
      vertex -0.8314696123025452 0.5555702330196022 0
      vertex -0.8660254037844386 0.5 0
    endloop
  endfacet
  facet normal 0 0 -1
    outer loop
      vertex -8 4 0
      vertex -0.7933533402912352 0.6087614290087207 0
      vertex -0.8314696123025452 0.5555702330196022 0
    endloop
  endfacet
  facet normal 0 0 -1
    outer loop
      vertex -8 4 0
      vertex -0.7518398074789774 0.6593458151000688 0
      vertex -0.7933533402912352 0.6087614290087207 0
    endloop
  endfacet
  facet normal 0 0 -1
    outer loop
      vertex -8 4 0
      vertex -0.7071067811865476 0.7071067811865476 0
      vertex -0.7518398074789774 0.6593458151000688 0
    endloop
  endfacet
  facet normal 0 0 -1
    outer loop
      vertex -8 4 0
      vertex -0.6593458151000688 0.7518398074789774 0
      vertex -0.7071067811865476 0.7071067811865476 0
    endloop
  endfacet
  facet normal 0 0 -1
    outer loop
      vertex -8 4 0
      vertex -0.6087614290087207 0.7933533402912352 0
      vertex -0.6593458151000688 0.7518398074789774 0
    endloop
  endfacet
  facet normal 0 0 -1
    outer loop
      vertex -8 4 0
      vertex -0.5555702330196022 0.8314696123025452 0
      vertex -0.6087614290087207 0.7933533402912352 0
    endloop
  endfacet
  facet normal 0 0 -1
    outer loop
      vertex -8 4 0
      vertex -0.5 0.8660254037844386 0
      vertex -0.5555702330196022 0.8314696123025452 0
    endloop
  endfacet
  facet normal 0 0 -1
    outer loop
      vertex -8 4 0
      vertex -0.4422886902190013 0.8968727415326883 0
      vertex -0.5 0.8660254037844386 0
    endloop
  endfacet
  facet normal 0 0 -1
    outer loop
      vertex -8 4 0
      vertex -0.3826834323650898 0.9238795325112867 0
      vertex -0.4422886902190013 0.8968727415326883 0
    endloop
  endfacet
  facet normal 0 0 -1
    outer loop
      vertex -8 4 0
      vertex -0.3214394653031616 0.9469301294951057 0
      vertex -0.3826834323650898 0.9238795325112867 0
    endloop
  endfacet
  facet normal 0 0 -1
    outer loop
      vertex -8 4 0
      vertex -0.25881904510252074 0.9659258262890683 0
      vertex -0.3214394653031616 0.9469301294951057 0
    endloop
  endfacet
  facet normal 0 0 -1
    outer loop
      vertex -8 4 0
      vertex -0.19509032201612825 0.9807852804032304 0
      vertex -0.25881904510252074 0.9659258262890683 0
    endloop
  endfacet
  facet normal 0 0 -1
    outer loop
      vertex -8 4 0
      vertex -0.13052619222005157 0.9914448613738104 0
      vertex -0.19509032201612825 0.9807852804032304 0
    endloop
  endfacet
  facet normal 0 0 -1
    outer loop
      vertex -8 4 0
      vertex -0.06540312923014306 0.9978589232386035 0
      vertex -0.13052619222005157 0.9914448613738104 0
    endloop
  endfacet
  facet normal 0 0 -1
    outer loop
      vertex -8 4 0
      vertex 0 1 0
      vertex -0.06540312923014306 0.9978589232386035 0
    endloop
  endfacet
  facet normal 0 0 -1
    outer loop
      vertex -8 4 0
      vertex 0.06540312923014306 0.9978589232386035 0
      vertex 0 1 0
    endloop
  endfacet
  facet normal 0 0 -1
    outer loop
      vertex -8 4 0
      vertex 0.13052619222005157 0.9914448613738104 0
      vertex 0.06540312923014306 0.9978589232386035 0
    endloop
  endfacet
  facet normal 0 0 -1
    outer loop
      vertex -8 4 0
      vertex 0.19509032201612825 0.9807852804032304 0
      vertex 0.13052619222005157 0.9914448613738104 0
    endloop
  endfacet
  facet normal 0 0 -1
    outer loop
      vertex -8 4 0
      vertex 0.25881904510252074 0.9659258262890683 0
      vertex 0.19509032201612825 0.9807852804032304 0
    endloop
  endfacet
  facet normal 0 0 -1
    outer loop
      vertex -8 4 0
      vertex 0.3214394653031616 0.9469301294951057 0
      vertex 0.25881904510252074 0.9659258262890683 0
    endloop
  endfacet
  facet normal 0 1 0
    outer loop
      vertex -8 4 0
      vertex -8 4 13.75
      vertex 8 4 13.75
    endloop
  endfacet
  facet normal 0 -1 0
    outer loop
      vertex -8 -4 13.75
      vertex 8 -4 0
      vertex 8 -4 13.75
    endloop
  endfacet
  facet normal 0 0 -1
    outer loop
      vertex 8 -4 0
      vertex -0.3214394653031616 -0.9469301294951057 0
      vertex -0.25881904510252074 -0.9659258262890683 0
    endloop
  endfacet
  facet normal 0 0 -1
    outer loop
      vertex 8 -4 0
      vertex -0.25881904510252074 -0.9659258262890683 0
      vertex -0.19509032201612825 -0.9807852804032304 0
    endloop
  endfacet
  facet normal 0 0 -1
    outer loop
      vertex 8 -4 0
      vertex -0.19509032201612825 -0.9807852804032304 0
      vertex -0.13052619222005157 -0.9914448613738104 0
    endloop
  endfacet
  facet normal 0 0 -1
    outer loop
      vertex 8 -4 0
      vertex -0.13052619222005157 -0.9914448613738104 0
      vertex -0.06540312923014306 -0.9978589232386035 0
    endloop
  endfacet
  facet normal 0 0 -1
    outer loop
      vertex 8 -4 0
      vertex -0.06540312923014306 -0.9978589232386035 0
      vertex 0 -1 0
    endloop
  endfacet
  facet normal 0 0 -1
    outer loop
      vertex 8 -4 0
      vertex 0 -1 0
      vertex 0.06540312923014306 -0.9978589232386035 0
    endloop
  endfacet
  facet normal 0 0 -1
    outer loop
      vertex 8 -4 0
      vertex 0.06540312923014306 -0.9978589232386035 0
      vertex 0.13052619222005157 -0.9914448613738104 0
    endloop
  endfacet
  facet normal 0 0 -1
    outer loop
      vertex 8 -4 0
      vertex 0.13052619222005157 -0.9914448613738104 0
      vertex 0.19509032201612825 -0.9807852804032304 0
    endloop
  endfacet
  facet normal 0 0 -1
    outer loop
      vertex 8 -4 0
      vertex 0.19509032201612825 -0.9807852804032304 0
      vertex 0.25881904510252074 -0.9659258262890683 0
    endloop
  endfacet
  facet normal 0 0 -1
    outer loop
      vertex 8 -4 0
      vertex 0.25881904510252074 -0.9659258262890683 0
      vertex 0.3214394653031616 -0.9469301294951057 0
    endloop
  endfacet
  facet normal 0 0 -1
    outer loop
      vertex 8 -4 0
      vertex 0.3214394653031616 -0.9469301294951057 0
      vertex 0.3826834323650898 -0.9238795325112867 0
    endloop
  endfacet
  facet normal 0 0 -1
    outer loop
      vertex 8 -4 0
      vertex 0.3826834323650898 -0.9238795325112867 0
      vertex 0.4422886902190013 -0.8968727415326883 0
    endloop
  endfacet
  facet normal 0 0 -1
    outer loop
      vertex 8 -4 0
      vertex 0.4422886902190013 -0.8968727415326883 0
      vertex 0.5 -0.8660254037844386 0
    endloop
  endfacet
  facet normal 0 0 -1
    outer loop
      vertex 8 -4 0
      vertex 0.5 -0.8660254037844386 0
      vertex 0.5555702330196022 -0.8314696123025452 0
    endloop
  endfacet
  facet normal 0 0 -1
    outer loop
      vertex 8 -4 0
      vertex 0.5555702330196022 -0.8314696123025452 0
      vertex 0.6087614290087207 -0.7933533402912352 0
    endloop
  endfacet
  facet normal 0 0 -1
    outer loop
      vertex 8 -4 0
      vertex 0.6087614290087207 -0.7933533402912352 0
      vertex 0.6593458151000688 -0.7518398074789774 0
    endloop
  endfacet
  facet normal 0 0 -1
    outer loop
      vertex 8 -4 0
      vertex 0.6593458151000688 -0.7518398074789774 0
      vertex 0.7071067811865476 -0.7071067811865476 0
    endloop
  endfacet
  facet normal 0 0 -1
    outer loop
      vertex 8 -4 0
      vertex 0.7071067811865476 -0.7071067811865476 0
      vertex 0.7518398074789774 -0.6593458151000688 0
    endloop
  endfacet
  facet normal 0 0 -1
    outer loop
      vertex 8 -4 0
      vertex 0.7518398074789774 -0.6593458151000688 0
      vertex 0.7933533402912352 -0.6087614290087207 0
    endloop
  endfacet
  facet normal 0 0 -1
    outer loop
      vertex 8 -4 0
      vertex 0.7933533402912352 -0.6087614290087207 0
      vertex 0.8314696123025452 -0.5555702330196022 0
    endloop
  endfacet
  facet normal 0 0 -1
    outer loop
      vertex 8 -4 0
      vertex 0.8314696123025452 -0.5555702330196022 0
      vertex 0.8660254037844386 -0.5 0
    endloop
  endfacet
  facet normal 0 0 -1
    outer loop
      vertex 8 -4 0
      vertex 0.8660254037844386 -0.5 0
      vertex 0.8968727415326883 -0.4422886902190013 0
    endloop
  endfacet
  facet normal 0 0 -1
    outer loop
      vertex 8 -4 0
      vertex 0.8968727415326883 -0.4422886902190013 0
      vertex 0.9238795325112867 -0.3826834323650898 0
    endloop
  endfacet
  facet normal 0 0 -1
    outer loop
      vertex 8 -4 0
      vertex 0.9238795325112867 -0.3826834323650898 0
      vertex 0.9469301294951057 -0.3214394653031616 0
    endloop
  endfacet
  facet normal 0 0 -1
    outer loop
      vertex 8 -4 0
      vertex 0.9469301294951057 -0.3214394653031616 0
      vertex 0.9659258262890683 -0.25881904510252074 0
    endloop
  endfacet
  facet normal 0 0 -1
    outer loop
      vertex 8 -4 0
      vertex 0.9659258262890683 -0.25881904510252074 0
      vertex 0.9807852804032304 -0.19509032201612825 0
    endloop
  endfacet
  facet normal 0 0 -1
    outer loop
      vertex 8 -4 0
      vertex 0.9807852804032304 -0.19509032201612825 0
      vertex 0.9914448613738104 -0.13052619222005157 0
    endloop
  endfacet
  facet normal 0 0 -1
    outer loop
      vertex 8 -4 0
      vertex 0.9914448613738104 -0.13052619222005157 0
      vertex 0.9978589232386035 -0.06540312923014306 0
    endloop
  endfacet
  facet normal 0 0 -1
    outer loop
      vertex 8 -4 0
      vertex 0.9978589232386035 -0.06540312923014306 0
      vertex 1 0 0
    endloop
  endfacet
  facet normal 0 0 -1
    outer loop
      vertex 8 -4 0
      vertex 1 0 0
      vertex 0.9978589232386035 0.06540312923014306 0
    endloop
  endfacet
  facet normal 0 0 -1
    outer loop
      vertex 8 -4 0
      vertex 0.9978589232386035 0.06540312923014306 0
      vertex 0.9914448613738104 0.13052619222005157 0
    endloop
  endfacet
  facet normal 0 0 -1
    outer loop
      vertex 8 -4 0
      vertex 0.9914448613738104 0.13052619222005157 0
      vertex 0.9807852804032304 0.19509032201612825 0
    endloop
  endfacet
  facet normal 0 0 -1
    outer loop
      vertex 8 -4 0
      vertex 0.9659258262890683 0.25881904510252074 0
      vertex 0.9469301294951057 0.3214394653031616 0
    endloop
  endfacet
  facet normal 0 0 -1
    outer loop
      vertex 8 -4 0
      vertex 0.9807852804032304 0.19509032201612825 0
      vertex 0.9659258262890683 0.25881904510252074 0
    endloop
  endfacet
  facet normal 1 0 0
    outer loop
      vertex 8 -4 0
      vertex 8 4 0
      vertex 8 -4 13.75
    endloop
  endfacet
  facet normal 1 0 0
    outer loop
      vertex 8 -4 13.75
      vertex 8 4 0
      vertex 8 -4 13.76
    endloop
  endfacet
  facet normal 0 0 -1
    outer loop
      vertex 8 4 0
      vertex 0.5 0.8660254037844386 0
      vertex 0.4422886902190013 0.8968727415326883 0
    endloop
  endfacet
  facet normal 0 0 -1
    outer loop
      vertex 8 4 0
      vertex 0.3826834323650898 0.9238795325112867 0
      vertex 0.3214394653031616 0.9469301294951057 0
    endloop
  endfacet
  facet normal 0 0 -1
    outer loop
      vertex 8 4 0
      vertex 0.4422886902190013 0.8968727415326883 0
      vertex 0.3826834323650898 0.9238795325112867 0
    endloop
  endfacet
  facet normal 0 0 -1
    outer loop
      vertex 8 4 0
      vertex 0.8660254037844386 0.5 0
      vertex 0.8314696123025452 0.5555702330196022 0
    endloop
  endfacet
  facet normal 0 0 -1
    outer loop
      vertex 8 4 0
      vertex 0.8314696123025452 0.5555702330196022 0
      vertex 0.7933533402912352 0.6087614290087207 0
    endloop
  endfacet
  facet normal 0 0 -1
    outer loop
      vertex 8 4 0
      vertex 0.9469301294951057 0.3214394653031616 0
      vertex 0.9238795325112867 0.3826834323650898 0
    endloop
  endfacet
  facet normal 0 0 -1
    outer loop
      vertex 8 4 0
      vertex 0.9238795325112867 0.3826834323650898 0
      vertex 0.8968727415326883 0.4422886902190013 0
    endloop
  endfacet
  facet normal 0 0 -1
    outer loop
      vertex 8 4 0
      vertex 0.8968727415326883 0.4422886902190013 0
      vertex 0.8660254037844386 0.5 0
    endloop
  endfacet
  facet normal 0 0 -1
    outer loop
      vertex 8 4 0
      vertex 0.6087614290087207 0.7933533402912352 0
      vertex 0.5555702330196022 0.8314696123025452 0
    endloop
  endfacet
  facet normal 0 0 -1
    outer loop
      vertex 8 4 0
      vertex 0.7071067811865476 0.7071067811865476 0
      vertex 0.6593458151000688 0.7518398074789774 0
    endloop
  endfacet
  facet normal 0 0 -1
    outer loop
      vertex 8 4 0
      vertex 0.6593458151000688 0.7518398074789774 0
      vertex 0.6087614290087207 0.7933533402912352 0
    endloop
  endfacet
  facet normal 0 0 -1
    outer loop
      vertex 8 4 0
      vertex 0.7933533402912352 0.6087614290087207 0
      vertex 0.7518398074789774 0.6593458151000688 0
    endloop
  endfacet
  facet normal 0 0 -1
    outer loop
      vertex 8 4 0
      vertex 0.7518398074789774 0.6593458151000688 0
      vertex 0.7071067811865476 0.7071067811865476 0
    endloop
  endfacet
  facet normal 0 0 -1
    outer loop
      vertex 8 4 0
      vertex 0.5555702330196022 0.8314696123025452 0
      vertex 0.5 0.8660254037844386 0
    endloop
  endfacet
  facet normal 0 0 -1
    outer loop
      vertex -8 4 0
      vertex 8 4 0
      vertex 0.3214394653031616 0.9469301294951057 0
    endloop
  endfacet
  facet normal 0 1 0
    outer loop
      vertex -8 4 0
      vertex 8 4 13.75
      vertex 8 4 0
    endloop
  endfacet
  facet normal 0 0 -1
    outer loop
      vertex 8 -4 0
      vertex 0.9469301294951057 0.3214394653031616 0
      vertex 8 4 0
    endloop
  endfacet
  facet normal 1 0 0
    outer loop
      vertex 8 -4 13.76
      vertex 8 4 0
      vertex 8 4 13.75
    endloop
  endfacet
  facet normal 1 0 0
    outer loop
      vertex 8 -4 13.76
      vertex 8 4 13.75
      vertex 8 4 13.76
    endloop
  endfacet
  facet normal 0.6343932841636459 0.7730104533627365 0
    outer loop
      vertex -0.6593458151000688 -0.7518398074789774 15.75
      vertex -0.6087614290087207 -0.7933533402912352 0
      vertex -0.6593458151000688 -0.7518398074789774 0
    endloop
  endfacet
  facet normal 0.5280678506503678 0.8492021815265791 0
    outer loop
      vertex -0.5555702330196022 -0.8314696123025452 15.75
      vertex -0.5 -0.8660254037844386 0
      vertex -0.5555702330196022 -0.8314696123025452 0
    endloop
  endfacet
  facet normal 0.5824776968678016 0.8128466845916156 0
    outer loop
      vertex -0.6087614290087207 -0.7933533402912352 15.75
      vertex -0.5555702330196022 -0.8314696123025452 0
      vertex -0.6087614290087207 -0.7933533402912352 0
    endloop
  endfacet
  facet normal 0.7730104533627365 0.6343932841636459 0
    outer loop
      vertex -0.7933533402912352 -0.6087614290087207 15.75
      vertex -0.7518398074789774 -0.6593458151000688 0
      vertex -0.7933533402912352 -0.6087614290087207 0
    endloop
  endfacet
  facet normal 0.8128466845916156 0.5824776968678016 0
    outer loop
      vertex -0.8314696123025452 -0.5555702330196022 15.75
      vertex -0.7933533402912352 -0.6087614290087207 0
      vertex -0.8314696123025452 -0.5555702330196022 0
    endloop
  endfacet
  facet normal 0.8492021815265791 0.5280678506503678 0
    outer loop
      vertex -0.8660254037844386 -0.5 15.75
      vertex -0.8314696123025452 -0.5555702330196022 0
      vertex -0.8660254037844386 -0.5 0
    endloop
  endfacet
  facet normal 0.6835923020228702 0.7298640726978366 0
    outer loop
      vertex -0.7071067811865476 -0.7071067811865476 15.75
      vertex -0.6593458151000688 -0.7518398074789774 0
      vertex -0.7071067811865476 -0.7071067811865476 0
    endloop
  endfacet
  facet normal 0.7298640726978366 0.6835923020228702 0
    outer loop
      vertex -0.7518398074789774 -0.6593458151000688 15.75
      vertex -0.7071067811865476 -0.7071067811865476 0
      vertex -0.7518398074789774 -0.6593458151000688 0
    endloop
  endfacet
  facet normal 0.4713967368259978 0.8819212643483549 0
    outer loop
      vertex -0.5 -0.8660254037844386 15.75
      vertex -0.4422886902190013 -0.8968727415326883 0
      vertex -0.5 -0.8660254037844386 0
    endloop
  endfacet
  facet normal 0.41270702980439505 0.9108638249211756 0
    outer loop
      vertex -0.4422886902190013 -0.8968727415326883 15.75
      vertex -0.3826834323650898 -0.9238795325112867 0
      vertex -0.4422886902190013 -0.8968727415326883 0
    endloop
  endfacet
  facet normal 0.2902846772544623 0.9569403357322089 0
    outer loop
      vertex -0.3214394653031616 -0.9469301294951057 15.75
      vertex -0.25881904510252074 -0.9659258262890683 0
      vertex -0.3214394653031616 -0.9469301294951057 0
    endloop
  endfacet
  facet normal 0.35225004792123404 0.9359059267573254 0
    outer loop
      vertex -0.3826834323650898 -0.9238795325112867 15.75
      vertex -0.3214394653031616 -0.9469301294951057 0
      vertex -0.3826834323650898 -0.9238795325112867 0
    endloop
  endfacet
  facet normal 0.2270762630343726 0.9738769792773337 0
    outer loop
      vertex -0.25881904510252074 -0.9659258262890683 15.75
      vertex -0.19509032201612825 -0.9807852804032304 0
      vertex -0.25881904510252074 -0.9659258262890683 0
    endloop
  endfacet
  facet normal 0.16289547339458857 0.986643332084879 0
    outer loop
      vertex -0.19509032201612825 -0.9807852804032304 15.75
      vertex -0.13052619222005157 -0.9914448613738104 0
      vertex -0.19509032201612825 -0.9807852804032304 0
    endloop
  endfacet
  facet normal 0.09801714032956065 0.9951847266721969 0
    outer loop
      vertex -0.13052619222005157 -0.9914448613738104 15.75
      vertex -0.06540312923014306 -0.9978589232386035 0
      vertex -0.13052619222005157 -0.9914448613738104 0
    endloop
  endfacet
  facet normal 0.03271908282177657 0.9994645874763656 0
    outer loop
      vertex -0.06540312923014306 -0.9978589232386035 15.75
      vertex 0 -1 0
      vertex -0.06540312923014306 -0.9978589232386035 0
    endloop
  endfacet
  facet normal 0.8819212643483549 0.4713967368259978 0
    outer loop
      vertex -0.8968727415326883 -0.4422886902190013 15.75
      vertex -0.8660254037844386 -0.5 0
      vertex -0.8968727415326883 -0.4422886902190013 0
    endloop
  endfacet
  facet normal 0.9108638249211756 0.41270702980439505 0
    outer loop
      vertex -0.9238795325112867 -0.3826834323650898 15.75
      vertex -0.8968727415326883 -0.4422886902190013 0
      vertex -0.9238795325112867 -0.3826834323650898 0
    endloop
  endfacet
  facet normal 0.9359059267573254 0.35225004792123404 0
    outer loop
      vertex -0.9469301294951057 -0.3214394653031616 15.75
      vertex -0.9238795325112867 -0.3826834323650898 0
      vertex -0.9469301294951057 -0.3214394653031616 0
    endloop
  endfacet
  facet normal 0.9569403357322089 0.2902846772544623 0
    outer loop
      vertex -0.9659258262890683 -0.25881904510252074 15.75
      vertex -0.9469301294951057 -0.3214394653031616 0
      vertex -0.9659258262890683 -0.25881904510252074 0
    endloop
  endfacet
  facet normal 0.9738769792773337 0.2270762630343726 0
    outer loop
      vertex -0.9807852804032304 -0.19509032201612825 15.75
      vertex -0.9659258262890683 -0.25881904510252074 0
      vertex -0.9807852804032304 -0.19509032201612825 0
    endloop
  endfacet
  facet normal 0.986643332084879 0.16289547339458857 0
    outer loop
      vertex -0.9914448613738104 -0.13052619222005157 15.75
      vertex -0.9807852804032304 -0.19509032201612825 0
      vertex -0.9914448613738104 -0.13052619222005157 0
    endloop
  endfacet
  facet normal 0.9951847266721969 0.09801714032956065 0
    outer loop
      vertex -0.9978589232386035 -0.06540312923014306 15.75
      vertex -0.9914448613738104 -0.13052619222005157 0
      vertex -0.9978589232386035 -0.06540312923014306 0
    endloop
  endfacet
  facet normal 0.9994645874763656 0.03271908282177657 0
    outer loop
      vertex -1 0 15.75
      vertex -0.9978589232386035 -0.06540312923014306 0
      vertex -1 0 0
    endloop
  endfacet
  facet normal 0.6343932841636459 0.7730104533627365 0
    outer loop
      vertex -0.6593458151000688 -0.7518398074789774 15.75
      vertex -0.6087614290087207 -0.7933533402912352 15.75
      vertex -0.6087614290087207 -0.7933533402912352 0
    endloop
  endfacet
  facet normal 0.5824776968678016 0.8128466845916156 0
    outer loop
      vertex -0.6087614290087207 -0.7933533402912352 15.75
      vertex -0.5555702330196022 -0.8314696123025452 15.75
      vertex -0.5555702330196022 -0.8314696123025452 0
    endloop
  endfacet
  facet normal 0.5280678506503678 0.8492021815265791 0
    outer loop
      vertex -0.5555702330196022 -0.8314696123025452 15.75
      vertex -0.5 -0.8660254037844386 15.75
      vertex -0.5 -0.8660254037844386 0
    endloop
  endfacet
  facet normal 0.7730104533627365 0.6343932841636459 0
    outer loop
      vertex -0.7518398074789774 -0.6593458151000688 15.75
      vertex -0.7518398074789774 -0.6593458151000688 0
      vertex -0.7933533402912352 -0.6087614290087207 15.75
    endloop
  endfacet
  facet normal 0.8128466845916156 0.5824776968678016 0
    outer loop
      vertex -0.8314696123025452 -0.5555702330196022 15.75
      vertex -0.7933533402912352 -0.6087614290087207 15.75
      vertex -0.7933533402912352 -0.6087614290087207 0
    endloop
  endfacet
  facet normal 0.8492021815265791 0.5280678506503678 0
    outer loop
      vertex -0.8314696123025452 -0.5555702330196022 15.75
      vertex -0.8314696123025452 -0.5555702330196022 0
      vertex -0.8660254037844386 -0.5 15.75
    endloop
  endfacet
  facet normal 0.7298640726978366 0.6835923020228702 0
    outer loop
      vertex -0.7518398074789774 -0.6593458151000688 15.75
      vertex -0.7071067811865476 -0.7071067811865476 15.75
      vertex -0.7071067811865476 -0.7071067811865476 0
    endloop
  endfacet
  facet normal 0.6835923020228702 0.7298640726978366 0
    outer loop
      vertex -0.6593458151000688 -0.7518398074789774 15.75
      vertex -0.6593458151000688 -0.7518398074789774 0
      vertex -0.7071067811865476 -0.7071067811865476 15.75
    endloop
  endfacet
  facet normal 0.4713967368259978 0.8819212643483549 0
    outer loop
      vertex -0.4422886902190013 -0.8968727415326883 15.75
      vertex -0.4422886902190013 -0.8968727415326883 0
      vertex -0.5 -0.8660254037844386 15.75
    endloop
  endfacet
  facet normal 0.41270702980439505 0.9108638249211756 0
    outer loop
      vertex -0.4422886902190013 -0.8968727415326883 15.75
      vertex -0.3826834323650898 -0.9238795325112867 15.75
      vertex -0.3826834323650898 -0.9238795325112867 0
    endloop
  endfacet
  facet normal 0.35225004792123404 0.9359059267573254 0
    outer loop
      vertex -0.3826834323650898 -0.9238795325112867 15.75
      vertex -0.3214394653031616 -0.9469301294951057 15.75
      vertex -0.3214394653031616 -0.9469301294951057 0
    endloop
  endfacet
  facet normal 0.2902846772544623 0.9569403357322089 0
    outer loop
      vertex -0.3214394653031616 -0.9469301294951057 15.75
      vertex -0.25881904510252074 -0.9659258262890683 15.75
      vertex -0.25881904510252074 -0.9659258262890683 0
    endloop
  endfacet
  facet normal 0.2270762630343726 0.9738769792773337 0
    outer loop
      vertex -0.25881904510252074 -0.9659258262890683 15.75
      vertex -0.19509032201612825 -0.9807852804032304 15.75
      vertex -0.19509032201612825 -0.9807852804032304 0
    endloop
  endfacet
  facet normal 0.16289547339458857 0.986643332084879 0
    outer loop
      vertex -0.19509032201612825 -0.9807852804032304 15.75
      vertex -0.13052619222005157 -0.9914448613738104 15.75
      vertex -0.13052619222005157 -0.9914448613738104 0
    endloop
  endfacet
  facet normal 0.09801714032956065 0.9951847266721969 0
    outer loop
      vertex -0.13052619222005157 -0.9914448613738104 15.75
      vertex -0.06540312923014306 -0.9978589232386035 15.75
      vertex -0.06540312923014306 -0.9978589232386035 0
    endloop
  endfacet
  facet normal 0.03271908282177657 0.9994645874763656 0
    outer loop
      vertex -0.06540312923014306 -0.9978589232386035 15.75
      vertex 0 -1 15.75
      vertex 0 -1 0
    endloop
  endfacet
  facet normal 0.8819212643483549 0.4713967368259978 0
    outer loop
      vertex -0.8968727415326883 -0.4422886902190013 15.75
      vertex -0.8660254037844386 -0.5 15.75
      vertex -0.8660254037844386 -0.5 0
    endloop
  endfacet
  facet normal 0.9108638249211756 0.41270702980439505 0
    outer loop
      vertex -0.8968727415326883 -0.4422886902190013 15.75
      vertex -0.8968727415326883 -0.4422886902190013 0
      vertex -0.9238795325112867 -0.3826834323650898 15.75
    endloop
  endfacet
  facet normal 0.9359059267573254 0.35225004792123404 0
    outer loop
      vertex -0.9238795325112867 -0.3826834323650898 15.75
      vertex -0.9238795325112867 -0.3826834323650898 0
      vertex -0.9469301294951057 -0.3214394653031616 15.75
    endloop
  endfacet
  facet normal 0.9569403357322089 0.2902846772544623 0
    outer loop
      vertex -0.9469301294951057 -0.3214394653031616 15.75
      vertex -0.9469301294951057 -0.3214394653031616 0
      vertex -0.9659258262890683 -0.25881904510252074 15.75
    endloop
  endfacet
  facet normal 0.9738769792773337 0.2270762630343726 0
    outer loop
      vertex -0.9659258262890683 -0.25881904510252074 15.75
      vertex -0.9659258262890683 -0.25881904510252074 0
      vertex -0.9807852804032304 -0.19509032201612825 15.75
    endloop
  endfacet
  facet normal 0.986643332084879 0.16289547339458857 0
    outer loop
      vertex -0.9807852804032304 -0.19509032201612825 15.75
      vertex -0.9807852804032304 -0.19509032201612825 0
      vertex -0.9914448613738104 -0.13052619222005157 15.75
    endloop
  endfacet
  facet normal 0.9951847266721969 0.09801714032956065 0
    outer loop
      vertex -0.9914448613738104 -0.13052619222005157 15.75
      vertex -0.9914448613738104 -0.13052619222005157 0
      vertex -0.9978589232386035 -0.06540312923014306 15.75
    endloop
  endfacet
  facet normal 0.9994645874763656 0.03271908282177657 0
    outer loop
      vertex -0.9978589232386035 -0.06540312923014306 15.75
      vertex -0.9978589232386035 -0.06540312923014306 0
      vertex -1 0 15.75
    endloop
  endfacet
  facet normal 0 0 -1
    outer loop
      vertex -0.6593458151000688 -0.7518398074789774 15.75
      vertex -0.7071067811865476 -0.7071067811865476 15.75
      vertex -0.7071067811865476 0.7071067811865476 15.75
    endloop
  endfacet
  facet normal 0 0 -1
    outer loop
      vertex -0.6593458151000688 -0.7518398074789774 15.75
      vertex -0.6593458151000688 0.7518398074789774 15.75
      vertex -0.6087614290087207 -0.7933533402912352 15.75
    endloop
  endfacet
  facet normal 0 0 -1
    outer loop
      vertex -0.6087614290087207 -0.7933533402912352 15.75
      vertex -0.6087614290087207 0.7933533402912352 15.75
      vertex -0.5555702330196022 -0.8314696123025452 15.75
    endloop
  endfacet
  facet normal 0 0 -1
    outer loop
      vertex -0.5555702330196022 -0.8314696123025452 15.75
      vertex -0.5555702330196022 0.8314696123025452 15.75
      vertex -0.5 -0.8660254037844386 15.75
    endloop
  endfacet
  facet normal 0 0 -1
    outer loop
      vertex -0.9238795325112867 -0.3826834323650898 15.75
      vertex -0.9469301294951057 -0.3214394653031616 15.75
      vertex -0.9469301294951057 0.3214394653031616 15.75
    endloop
  endfacet
  facet normal 0 0 -1
    outer loop
      vertex -0.8968727415326883 -0.4422886902190013 15.75
      vertex -0.8968727415326883 0.4422886902190013 15.75
      vertex -0.8660254037844386 -0.5 15.75
    endloop
  endfacet
  facet normal 0 0 -1
    outer loop
      vertex -0.8968727415326883 -0.4422886902190013 15.75
      vertex -0.9238795325112867 -0.3826834323650898 15.75
      vertex -0.9238795325112867 0.3826834323650898 15.75
    endloop
  endfacet
  facet normal 0 0 -1
    outer loop
      vertex -0.8314696123025452 -0.5555702330196022 15.75
      vertex -0.8314696123025452 0.5555702330196022 15.75
      vertex -0.7933533402912352 -0.6087614290087207 15.75
    endloop
  endfacet
  facet normal 0 0 -1
    outer loop
      vertex -0.7518398074789774 -0.6593458151000688 15.75
      vertex -0.7933533402912352 -0.6087614290087207 15.75
      vertex -0.7933533402912352 0.6087614290087207 15.75
    endloop
  endfacet
  facet normal 0 0 -1
    outer loop
      vertex -0.8314696123025452 -0.5555702330196022 15.75
      vertex -0.8660254037844386 -0.5 15.75
      vertex -0.8660254037844386 0.5 15.75
    endloop
  endfacet
  facet normal 0 0 -1
    outer loop
      vertex -0.9469301294951057 -0.3214394653031616 15.75
      vertex -0.9659258262890683 -0.25881904510252074 15.75
      vertex -0.9659258262890683 0.25881904510252074 15.75
    endloop
  endfacet
  facet normal 0 0 -1
    outer loop
      vertex -0.9659258262890683 -0.25881904510252074 15.75
      vertex -0.9807852804032304 -0.19509032201612825 15.75
      vertex -0.9807852804032304 0.19509032201612825 15.75
    endloop
  endfacet
  facet normal 0 0 -1
    outer loop
      vertex -0.9807852804032304 -0.19509032201612825 15.75
      vertex -0.9914448613738104 -0.13052619222005157 15.75
      vertex -0.9914448613738104 0.13052619222005157 15.75
    endloop
  endfacet
  facet normal 0 0 -1
    outer loop
      vertex -0.9914448613738104 -0.13052619222005157 15.75
      vertex -0.9978589232386035 -0.06540312923014306 15.75
      vertex -0.9978589232386035 0.06540312923014306 15.75
    endloop
  endfacet
  facet normal 0 0 -1
    outer loop
      vertex -0.7518398074789774 -0.6593458151000688 15.75
      vertex -0.7518398074789774 0.6593458151000688 15.75
      vertex -0.7071067811865476 -0.7071067811865476 15.75
    endloop
  endfacet
  facet normal 0 0 -1
    outer loop
      vertex -0.4422886902190013 -0.8968727415326883 15.75
      vertex -0.5 -0.8660254037844386 15.75
      vertex -0.5 0.8660254037844386 15.75
    endloop
  endfacet
  facet normal 0 0 -1
    outer loop
      vertex -0.4422886902190013 -0.8968727415326883 15.75
      vertex -0.4422886902190013 0.8968727415326883 15.75
      vertex -0.3826834323650898 -0.9238795325112867 15.75
    endloop
  endfacet
  facet normal 0 0 -1
    outer loop
      vertex -0.3826834323650898 -0.9238795325112867 15.75
      vertex -0.3826834323650898 0.9238795325112867 15.75
      vertex -0.3214394653031616 -0.9469301294951057 15.75
    endloop
  endfacet
  facet normal 0 0 -1
    outer loop
      vertex -0.3214394653031616 -0.9469301294951057 15.75
      vertex -0.3214394653031616 0.9469301294951057 15.75
      vertex -0.25881904510252074 -0.9659258262890683 15.75
    endloop
  endfacet
  facet normal 0 0 -1
    outer loop
      vertex -0.25881904510252074 -0.9659258262890683 15.75
      vertex -0.25881904510252074 0.9659258262890683 15.75
      vertex -0.19509032201612825 -0.9807852804032304 15.75
    endloop
  endfacet
  facet normal 0 0 -1
    outer loop
      vertex -0.19509032201612825 -0.9807852804032304 15.75
      vertex -0.19509032201612825 0.9807852804032304 15.75
      vertex -0.13052619222005157 -0.9914448613738104 15.75
    endloop
  endfacet
  facet normal 0 0 -1
    outer loop
      vertex -0.13052619222005157 -0.9914448613738104 15.75
      vertex -0.13052619222005157 0.9914448613738104 15.75
      vertex -0.06540312923014306 -0.9978589232386035 15.75
    endloop
  endfacet
  facet normal 0 0 -1
    outer loop
      vertex -0.06540312923014306 -0.9978589232386035 15.75
      vertex -0.06540312923014306 0.9978589232386035 15.75
      vertex 0 -1 15.75
    endloop
  endfacet
  facet normal 0.9994645874763656 -0.03271908282177657 0
    outer loop
      vertex -0.9978589232386035 0.06540312923014306 15.75
      vertex -1 0 0
      vertex -0.9978589232386035 0.06540312923014306 0
    endloop
  endfacet
  facet normal 0.9951847266721969 -0.09801714032956065 0
    outer loop
      vertex -0.9914448613738104 0.13052619222005157 15.75
      vertex -0.9978589232386035 0.06540312923014306 0
      vertex -0.9914448613738104 0.13052619222005157 0
    endloop
  endfacet
  facet normal 0.986643332084879 -0.16289547339458857 0
    outer loop
      vertex -0.9807852804032304 0.19509032201612825 15.75
      vertex -0.9914448613738104 0.13052619222005157 0
      vertex -0.9807852804032304 0.19509032201612825 0
    endloop
  endfacet
  facet normal 0.9738769792773337 -0.2270762630343726 0
    outer loop
      vertex -0.9659258262890683 0.25881904510252074 15.75
      vertex -0.9807852804032304 0.19509032201612825 0
      vertex -0.9659258262890683 0.25881904510252074 0
    endloop
  endfacet
  facet normal 0.9569403357322089 -0.2902846772544623 0
    outer loop
      vertex -0.9469301294951057 0.3214394653031616 15.75
      vertex -0.9659258262890683 0.25881904510252074 0
      vertex -0.9469301294951057 0.3214394653031616 0
    endloop
  endfacet
  facet normal 0.9359059267573254 -0.35225004792123404 0
    outer loop
      vertex -0.9238795325112867 0.3826834323650898 15.75
      vertex -0.9469301294951057 0.3214394653031616 0
      vertex -0.9238795325112867 0.3826834323650898 0
    endloop
  endfacet
  facet normal 0.9108638249211756 -0.41270702980439505 0
    outer loop
      vertex -0.8968727415326883 0.4422886902190013 15.75
      vertex -0.9238795325112867 0.3826834323650898 0
      vertex -0.8968727415326883 0.4422886902190013 0
    endloop
  endfacet
  facet normal 0.8819212643483549 -0.4713967368259978 0
    outer loop
      vertex -0.8660254037844386 0.5 15.75
      vertex -0.8968727415326883 0.4422886902190013 0
      vertex -0.8660254037844386 0.5 0
    endloop
  endfacet
  facet normal 0.8492021815265791 -0.5280678506503678 0
    outer loop
      vertex -0.8314696123025452 0.5555702330196022 15.75
      vertex -0.8660254037844386 0.5 0
      vertex -0.8314696123025452 0.5555702330196022 0
    endloop
  endfacet
  facet normal 0.8128466845916156 -0.5824776968678016 0
    outer loop
      vertex -0.7933533402912352 0.6087614290087207 15.75
      vertex -0.8314696123025452 0.5555702330196022 0
      vertex -0.7933533402912352 0.6087614290087207 0
    endloop
  endfacet
  facet normal 0.7730104533627365 -0.6343932841636459 0
    outer loop
      vertex -0.7518398074789774 0.6593458151000688 15.75
      vertex -0.7933533402912352 0.6087614290087207 0
      vertex -0.7518398074789774 0.6593458151000688 0
    endloop
  endfacet
  facet normal 0.7298640726978366 -0.6835923020228702 0
    outer loop
      vertex -0.7071067811865476 0.7071067811865476 15.75
      vertex -0.7518398074789774 0.6593458151000688 0
      vertex -0.7071067811865476 0.7071067811865476 0
    endloop
  endfacet
  facet normal 0.6835923020228702 -0.7298640726978366 0
    outer loop
      vertex -0.6593458151000688 0.7518398074789774 15.75
      vertex -0.7071067811865476 0.7071067811865476 0
      vertex -0.6593458151000688 0.7518398074789774 0
    endloop
  endfacet
  facet normal 0.6343932841636459 -0.7730104533627365 0
    outer loop
      vertex -0.6087614290087207 0.7933533402912352 15.75
      vertex -0.6593458151000688 0.7518398074789774 0
      vertex -0.6087614290087207 0.7933533402912352 0
    endloop
  endfacet
  facet normal 0.5824776968678016 -0.8128466845916156 0
    outer loop
      vertex -0.5555702330196022 0.8314696123025452 15.75
      vertex -0.6087614290087207 0.7933533402912352 0
      vertex -0.5555702330196022 0.8314696123025452 0
    endloop
  endfacet
  facet normal 0.5280678506503678 -0.8492021815265791 0
    outer loop
      vertex -0.5 0.8660254037844386 15.75
      vertex -0.5555702330196022 0.8314696123025452 0
      vertex -0.5 0.8660254037844386 0
    endloop
  endfacet
  facet normal 0.4713967368259978 -0.8819212643483549 0
    outer loop
      vertex -0.4422886902190013 0.8968727415326883 15.75
      vertex -0.5 0.8660254037844386 0
      vertex -0.4422886902190013 0.8968727415326883 0
    endloop
  endfacet
  facet normal 0.41270702980439505 -0.9108638249211756 0
    outer loop
      vertex -0.3826834323650898 0.9238795325112867 15.75
      vertex -0.4422886902190013 0.8968727415326883 0
      vertex -0.3826834323650898 0.9238795325112867 0
    endloop
  endfacet
  facet normal 0.35225004792123404 -0.9359059267573254 0
    outer loop
      vertex -0.3214394653031616 0.9469301294951057 15.75
      vertex -0.3826834323650898 0.9238795325112867 0
      vertex -0.3214394653031616 0.9469301294951057 0
    endloop
  endfacet
  facet normal 0.2902846772544623 -0.9569403357322089 0
    outer loop
      vertex -0.25881904510252074 0.9659258262890683 15.75
      vertex -0.3214394653031616 0.9469301294951057 0
      vertex -0.25881904510252074 0.9659258262890683 0
    endloop
  endfacet
  facet normal 0.2270762630343726 -0.9738769792773337 0
    outer loop
      vertex -0.19509032201612825 0.9807852804032304 15.75
      vertex -0.25881904510252074 0.9659258262890683 0
      vertex -0.19509032201612825 0.9807852804032304 0
    endloop
  endfacet
  facet normal 0.16289547339458857 -0.986643332084879 0
    outer loop
      vertex -0.13052619222005157 0.9914448613738104 15.75
      vertex -0.19509032201612825 0.9807852804032304 0
      vertex -0.13052619222005157 0.9914448613738104 0
    endloop
  endfacet
  facet normal 0.09801714032956065 -0.9951847266721969 0
    outer loop
      vertex -0.06540312923014306 0.9978589232386035 15.75
      vertex -0.13052619222005157 0.9914448613738104 0
      vertex -0.06540312923014306 0.9978589232386035 0
    endloop
  endfacet
  facet normal 0.03271908282177657 -0.9994645874763656 0
    outer loop
      vertex 0 1 15.75
      vertex -0.06540312923014306 0.9978589232386035 0
      vertex 0 1 0
    endloop
  endfacet
  facet normal 0.9994645874763656 -0.03271908282177657 0
    outer loop
      vertex -1 0 15.75
      vertex -1 0 0
      vertex -0.9978589232386035 0.06540312923014306 15.75
    endloop
  endfacet
  facet normal 0.9951847266721969 -0.09801714032956065 0
    outer loop
      vertex -0.9978589232386035 0.06540312923014306 15.75
      vertex -0.9978589232386035 0.06540312923014306 0
      vertex -0.9914448613738104 0.13052619222005157 15.75
    endloop
  endfacet
  facet normal 0.986643332084879 -0.16289547339458857 0
    outer loop
      vertex -0.9914448613738104 0.13052619222005157 15.75
      vertex -0.9914448613738104 0.13052619222005157 0
      vertex -0.9807852804032304 0.19509032201612825 15.75
    endloop
  endfacet
  facet normal 0.9738769792773337 -0.2270762630343726 0
    outer loop
      vertex -0.9807852804032304 0.19509032201612825 15.75
      vertex -0.9807852804032304 0.19509032201612825 0
      vertex -0.9659258262890683 0.25881904510252074 15.75
    endloop
  endfacet
  facet normal 0.9569403357322089 -0.2902846772544623 0
    outer loop
      vertex -0.9659258262890683 0.25881904510252074 15.75
      vertex -0.9659258262890683 0.25881904510252074 0
      vertex -0.9469301294951057 0.3214394653031616 15.75
    endloop
  endfacet
  facet normal 0.9359059267573254 -0.35225004792123404 0
    outer loop
      vertex -0.9469301294951057 0.3214394653031616 15.75
      vertex -0.9469301294951057 0.3214394653031616 0
      vertex -0.9238795325112867 0.3826834323650898 15.75
    endloop
  endfacet
  facet normal 0.9108638249211756 -0.41270702980439505 0
    outer loop
      vertex -0.9238795325112867 0.3826834323650898 15.75
      vertex -0.9238795325112867 0.3826834323650898 0
      vertex -0.8968727415326883 0.4422886902190013 15.75
    endloop
  endfacet
  facet normal 0.8819212643483549 -0.4713967368259978 0
    outer loop
      vertex -0.8968727415326883 0.4422886902190013 15.75
      vertex -0.8968727415326883 0.4422886902190013 0
      vertex -0.8660254037844386 0.5 15.75
    endloop
  endfacet
  facet normal 0.8492021815265791 -0.5280678506503678 0
    outer loop
      vertex -0.8660254037844386 0.5 15.75
      vertex -0.8660254037844386 0.5 0
      vertex -0.8314696123025452 0.5555702330196022 15.75
    endloop
  endfacet
  facet normal 0.8128466845916156 -0.5824776968678016 0
    outer loop
      vertex -0.8314696123025452 0.5555702330196022 15.75
      vertex -0.8314696123025452 0.5555702330196022 0
      vertex -0.7933533402912352 0.6087614290087207 15.75
    endloop
  endfacet
  facet normal 0.7730104533627365 -0.6343932841636459 0
    outer loop
      vertex -0.7933533402912352 0.6087614290087207 15.75
      vertex -0.7933533402912352 0.6087614290087207 0
      vertex -0.7518398074789774 0.6593458151000688 15.75
    endloop
  endfacet
  facet normal 0.7298640726978366 -0.6835923020228702 0
    outer loop
      vertex -0.7518398074789774 0.6593458151000688 15.75
      vertex -0.7518398074789774 0.6593458151000688 0
      vertex -0.7071067811865476 0.7071067811865476 15.75
    endloop
  endfacet
  facet normal 0.6835923020228702 -0.7298640726978366 0
    outer loop
      vertex -0.7071067811865476 0.7071067811865476 15.75
      vertex -0.7071067811865476 0.7071067811865476 0
      vertex -0.6593458151000688 0.7518398074789774 15.75
    endloop
  endfacet
  facet normal 0.6343932841636459 -0.7730104533627365 0
    outer loop
      vertex -0.6593458151000688 0.7518398074789774 15.75
      vertex -0.6593458151000688 0.7518398074789774 0
      vertex -0.6087614290087207 0.7933533402912352 15.75
    endloop
  endfacet
  facet normal 0.5824776968678016 -0.8128466845916156 0
    outer loop
      vertex -0.6087614290087207 0.7933533402912352 15.75
      vertex -0.6087614290087207 0.7933533402912352 0
      vertex -0.5555702330196022 0.8314696123025452 15.75
    endloop
  endfacet
  facet normal 0.5280678506503678 -0.8492021815265791 0
    outer loop
      vertex -0.5555702330196022 0.8314696123025452 15.75
      vertex -0.5555702330196022 0.8314696123025452 0
      vertex -0.5 0.8660254037844386 15.75
    endloop
  endfacet
  facet normal 0.4713967368259978 -0.8819212643483549 0
    outer loop
      vertex -0.5 0.8660254037844386 15.75
      vertex -0.5 0.8660254037844386 0
      vertex -0.4422886902190013 0.8968727415326883 15.75
    endloop
  endfacet
  facet normal 0.41270702980439505 -0.9108638249211756 0
    outer loop
      vertex -0.4422886902190013 0.8968727415326883 15.75
      vertex -0.4422886902190013 0.8968727415326883 0
      vertex -0.3826834323650898 0.9238795325112867 15.75
    endloop
  endfacet
  facet normal 0.35225004792123404 -0.9359059267573254 0
    outer loop
      vertex -0.3826834323650898 0.9238795325112867 15.75
      vertex -0.3826834323650898 0.9238795325112867 0
      vertex -0.3214394653031616 0.9469301294951057 15.75
    endloop
  endfacet
  facet normal 0.2902846772544623 -0.9569403357322089 0
    outer loop
      vertex -0.3214394653031616 0.9469301294951057 15.75
      vertex -0.3214394653031616 0.9469301294951057 0
      vertex -0.25881904510252074 0.9659258262890683 15.75
    endloop
  endfacet
  facet normal 0.2270762630343726 -0.9738769792773337 0
    outer loop
      vertex -0.25881904510252074 0.9659258262890683 15.75
      vertex -0.25881904510252074 0.9659258262890683 0
      vertex -0.19509032201612825 0.9807852804032304 15.75
    endloop
  endfacet
  facet normal 0.16289547339458857 -0.986643332084879 0
    outer loop
      vertex -0.19509032201612825 0.9807852804032304 15.75
      vertex -0.19509032201612825 0.9807852804032304 0
      vertex -0.13052619222005157 0.9914448613738104 15.75
    endloop
  endfacet
  facet normal 0.09801714032956065 -0.9951847266721969 0
    outer loop
      vertex -0.13052619222005157 0.9914448613738104 15.75
      vertex -0.13052619222005157 0.9914448613738104 0
      vertex -0.06540312923014306 0.9978589232386035 15.75
    endloop
  endfacet
  facet normal 0.03271908282177657 -0.9994645874763656 0
    outer loop
      vertex -0.06540312923014306 0.9978589232386035 15.75
      vertex -0.06540312923014306 0.9978589232386035 0
      vertex 0 1 15.75
    endloop
  endfacet
  facet normal 0 0 -1
    outer loop
      vertex -0.9978589232386035 -0.06540312923014306 15.75
      vertex -1 0 15.75
      vertex -0.9978589232386035 0.06540312923014306 15.75
    endloop
  endfacet
  facet normal 0 0 -1
    outer loop
      vertex -0.9914448613738104 -0.13052619222005157 15.75
      vertex -0.9978589232386035 0.06540312923014306 15.75
      vertex -0.9914448613738104 0.13052619222005157 15.75
    endloop
  endfacet
  facet normal 0 0 -1
    outer loop
      vertex -0.9807852804032304 -0.19509032201612825 15.75
      vertex -0.9914448613738104 0.13052619222005157 15.75
      vertex -0.9807852804032304 0.19509032201612825 15.75
    endloop
  endfacet
  facet normal 0 0 -1
    outer loop
      vertex -0.9659258262890683 -0.25881904510252074 15.75
      vertex -0.9807852804032304 0.19509032201612825 15.75
      vertex -0.9659258262890683 0.25881904510252074 15.75
    endloop
  endfacet
  facet normal 0 0 -1
    outer loop
      vertex -0.9469301294951057 -0.3214394653031616 15.75
      vertex -0.9659258262890683 0.25881904510252074 15.75
      vertex -0.9469301294951057 0.3214394653031616 15.75
    endloop
  endfacet
  facet normal 0 0 -1
    outer loop
      vertex -0.9238795325112867 -0.3826834323650898 15.75
      vertex -0.9469301294951057 0.3214394653031616 15.75
      vertex -0.9238795325112867 0.3826834323650898 15.75
    endloop
  endfacet
  facet normal 0 0 -1
    outer loop
      vertex -0.8968727415326883 -0.4422886902190013 15.75
      vertex -0.9238795325112867 0.3826834323650898 15.75
      vertex -0.8968727415326883 0.4422886902190013 15.75
    endloop
  endfacet
  facet normal 0 0 -1
    outer loop
      vertex -0.8660254037844386 -0.5 15.75
      vertex -0.8968727415326883 0.4422886902190013 15.75
      vertex -0.8660254037844386 0.5 15.75
    endloop
  endfacet
  facet normal 0 0 -1
    outer loop
      vertex -0.8314696123025452 -0.5555702330196022 15.75
      vertex -0.8660254037844386 0.5 15.75
      vertex -0.8314696123025452 0.5555702330196022 15.75
    endloop
  endfacet
  facet normal 0 0 -1
    outer loop
      vertex -0.7933533402912352 -0.6087614290087207 15.75
      vertex -0.8314696123025452 0.5555702330196022 15.75
      vertex -0.7933533402912352 0.6087614290087207 15.75
    endloop
  endfacet
  facet normal 0 0 -1
    outer loop
      vertex -0.7518398074789774 -0.6593458151000688 15.75
      vertex -0.7933533402912352 0.6087614290087207 15.75
      vertex -0.7518398074789774 0.6593458151000688 15.75
    endloop
  endfacet
  facet normal 0 0 -1
    outer loop
      vertex -0.7071067811865476 -0.7071067811865476 15.75
      vertex -0.7518398074789774 0.6593458151000688 15.75
      vertex -0.7071067811865476 0.7071067811865476 15.75
    endloop
  endfacet
  facet normal 0 0 -1
    outer loop
      vertex -0.6593458151000688 -0.7518398074789774 15.75
      vertex -0.7071067811865476 0.7071067811865476 15.75
      vertex -0.6593458151000688 0.7518398074789774 15.75
    endloop
  endfacet
  facet normal 0 0 -1
    outer loop
      vertex -0.6087614290087207 -0.7933533402912352 15.75
      vertex -0.6593458151000688 0.7518398074789774 15.75
      vertex -0.6087614290087207 0.7933533402912352 15.75
    endloop
  endfacet
  facet normal 0 0 -1
    outer loop
      vertex -0.5555702330196022 -0.8314696123025452 15.75
      vertex -0.6087614290087207 0.7933533402912352 15.75
      vertex -0.5555702330196022 0.8314696123025452 15.75
    endloop
  endfacet
  facet normal 0 0 -1
    outer loop
      vertex -0.5 -0.8660254037844386 15.75
      vertex -0.5555702330196022 0.8314696123025452 15.75
      vertex -0.5 0.8660254037844386 15.75
    endloop
  endfacet
  facet normal 0 0 -1
    outer loop
      vertex -0.4422886902190013 -0.8968727415326883 15.75
      vertex -0.5 0.8660254037844386 15.75
      vertex -0.4422886902190013 0.8968727415326883 15.75
    endloop
  endfacet
  facet normal 0 0 -1
    outer loop
      vertex -0.3826834323650898 -0.9238795325112867 15.75
      vertex -0.4422886902190013 0.8968727415326883 15.75
      vertex -0.3826834323650898 0.9238795325112867 15.75
    endloop
  endfacet
  facet normal 0 0 -1
    outer loop
      vertex -0.3214394653031616 -0.9469301294951057 15.75
      vertex -0.3826834323650898 0.9238795325112867 15.75
      vertex -0.3214394653031616 0.9469301294951057 15.75
    endloop
  endfacet
  facet normal 0 0 -1
    outer loop
      vertex -0.25881904510252074 -0.9659258262890683 15.75
      vertex -0.3214394653031616 0.9469301294951057 15.75
      vertex -0.25881904510252074 0.9659258262890683 15.75
    endloop
  endfacet
  facet normal 0 0 -1
    outer loop
      vertex -0.19509032201612825 -0.9807852804032304 15.75
      vertex -0.25881904510252074 0.9659258262890683 15.75
      vertex -0.19509032201612825 0.9807852804032304 15.75
    endloop
  endfacet
  facet normal 0 0 -1
    outer loop
      vertex -0.13052619222005157 -0.9914448613738104 15.75
      vertex -0.19509032201612825 0.9807852804032304 15.75
      vertex -0.13052619222005157 0.9914448613738104 15.75
    endloop
  endfacet
  facet normal 0 0 -1
    outer loop
      vertex -0.06540312923014306 -0.9978589232386035 15.75
      vertex -0.13052619222005157 0.9914448613738104 15.75
      vertex -0.06540312923014306 0.9978589232386035 15.75
    endloop
  endfacet
  facet normal 0 0 -1
    outer loop
      vertex -0.06540312923014306 0.9978589232386035 15.75
      vertex 0 1 15.75
      vertex 0 -1 15.75
    endloop
  endfacet
  facet normal -0.03271908282177657 0.9994645874763656 0
    outer loop
      vertex 0 -1 15.75
      vertex 0.06540312923014306 -0.9978589232386035 0
      vertex 0 -1 0
    endloop
  endfacet
  facet normal -0.09801714032956065 0.9951847266721969 0
    outer loop
      vertex 0.06540312923014306 -0.9978589232386035 15.75
      vertex 0.13052619222005157 -0.9914448613738104 0
      vertex 0.06540312923014306 -0.9978589232386035 0
    endloop
  endfacet
  facet normal -0.16289547339458857 0.986643332084879 0
    outer loop
      vertex 0.13052619222005157 -0.9914448613738104 15.75
      vertex 0.19509032201612825 -0.9807852804032304 0
      vertex 0.13052619222005157 -0.9914448613738104 0
    endloop
  endfacet
  facet normal -0.2270762630343726 0.9738769792773337 0
    outer loop
      vertex 0.19509032201612825 -0.9807852804032304 15.75
      vertex 0.25881904510252074 -0.9659258262890683 0
      vertex 0.19509032201612825 -0.9807852804032304 0
    endloop
  endfacet
  facet normal -0.2902846772544623 0.9569403357322089 0
    outer loop
      vertex 0.25881904510252074 -0.9659258262890683 15.75
      vertex 0.3214394653031616 -0.9469301294951057 0
      vertex 0.25881904510252074 -0.9659258262890683 0
    endloop
  endfacet
  facet normal -0.35225004792123404 0.9359059267573254 0
    outer loop
      vertex 0.3214394653031616 -0.9469301294951057 15.75
      vertex 0.3826834323650898 -0.9238795325112867 0
      vertex 0.3214394653031616 -0.9469301294951057 0
    endloop
  endfacet
  facet normal -0.41270702980439505 0.9108638249211756 0
    outer loop
      vertex 0.3826834323650898 -0.9238795325112867 15.75
      vertex 0.4422886902190013 -0.8968727415326883 0
      vertex 0.3826834323650898 -0.9238795325112867 0
    endloop
  endfacet
  facet normal -0.4713967368259978 0.8819212643483549 0
    outer loop
      vertex 0.4422886902190013 -0.8968727415326883 15.75
      vertex 0.5 -0.8660254037844386 0
      vertex 0.4422886902190013 -0.8968727415326883 0
    endloop
  endfacet
  facet normal -0.5280678506503678 0.8492021815265791 0
    outer loop
      vertex 0.5 -0.8660254037844386 15.75
      vertex 0.5555702330196022 -0.8314696123025452 0
      vertex 0.5 -0.8660254037844386 0
    endloop
  endfacet
  facet normal -0.5824776968678016 0.8128466845916156 0
    outer loop
      vertex 0.5555702330196022 -0.8314696123025452 15.75
      vertex 0.6087614290087207 -0.7933533402912352 0
      vertex 0.5555702330196022 -0.8314696123025452 0
    endloop
  endfacet
  facet normal -0.6343932841636459 0.7730104533627365 0
    outer loop
      vertex 0.6087614290087207 -0.7933533402912352 15.75
      vertex 0.6593458151000688 -0.7518398074789774 0
      vertex 0.6087614290087207 -0.7933533402912352 0
    endloop
  endfacet
  facet normal -0.6835923020228702 0.7298640726978366 0
    outer loop
      vertex 0.6593458151000688 -0.7518398074789774 15.75
      vertex 0.7071067811865476 -0.7071067811865476 0
      vertex 0.6593458151000688 -0.7518398074789774 0
    endloop
  endfacet
  facet normal -0.7298640726978366 0.6835923020228702 0
    outer loop
      vertex 0.7071067811865476 -0.7071067811865476 15.75
      vertex 0.7518398074789774 -0.6593458151000688 0
      vertex 0.7071067811865476 -0.7071067811865476 0
    endloop
  endfacet
  facet normal -0.7730104533627365 0.6343932841636459 0
    outer loop
      vertex 0.7518398074789774 -0.6593458151000688 15.75
      vertex 0.7933533402912352 -0.6087614290087207 0
      vertex 0.7518398074789774 -0.6593458151000688 0
    endloop
  endfacet
  facet normal -0.8128466845916156 0.5824776968678016 0
    outer loop
      vertex 0.7933533402912352 -0.6087614290087207 15.75
      vertex 0.8314696123025452 -0.5555702330196022 0
      vertex 0.7933533402912352 -0.6087614290087207 0
    endloop
  endfacet
  facet normal -0.8492021815265791 0.5280678506503678 0
    outer loop
      vertex 0.8314696123025452 -0.5555702330196022 15.75
      vertex 0.8660254037844386 -0.5 0
      vertex 0.8314696123025452 -0.5555702330196022 0
    endloop
  endfacet
  facet normal -0.8819212643483549 0.4713967368259978 0
    outer loop
      vertex 0.8660254037844386 -0.5 15.75
      vertex 0.8968727415326883 -0.4422886902190013 0
      vertex 0.8660254037844386 -0.5 0
    endloop
  endfacet
  facet normal -0.9108638249211756 0.41270702980439505 0
    outer loop
      vertex 0.8968727415326883 -0.4422886902190013 15.75
      vertex 0.9238795325112867 -0.3826834323650898 0
      vertex 0.8968727415326883 -0.4422886902190013 0
    endloop
  endfacet
  facet normal -0.9359059267573254 0.35225004792123404 0
    outer loop
      vertex 0.9238795325112867 -0.3826834323650898 15.75
      vertex 0.9469301294951057 -0.3214394653031616 0
      vertex 0.9238795325112867 -0.3826834323650898 0
    endloop
  endfacet
  facet normal -0.9569403357322089 0.2902846772544623 0
    outer loop
      vertex 0.9469301294951057 -0.3214394653031616 15.75
      vertex 0.9659258262890683 -0.25881904510252074 0
      vertex 0.9469301294951057 -0.3214394653031616 0
    endloop
  endfacet
  facet normal -0.9738769792773337 0.2270762630343726 0
    outer loop
      vertex 0.9659258262890683 -0.25881904510252074 15.75
      vertex 0.9807852804032304 -0.19509032201612825 0
      vertex 0.9659258262890683 -0.25881904510252074 0
    endloop
  endfacet
  facet normal -0.986643332084879 0.16289547339458857 0
    outer loop
      vertex 0.9807852804032304 -0.19509032201612825 15.75
      vertex 0.9914448613738104 -0.13052619222005157 0
      vertex 0.9807852804032304 -0.19509032201612825 0
    endloop
  endfacet
  facet normal -0.9951847266721969 0.09801714032956065 0
    outer loop
      vertex 0.9914448613738104 -0.13052619222005157 15.75
      vertex 0.9978589232386035 -0.06540312923014306 0
      vertex 0.9914448613738104 -0.13052619222005157 0
    endloop
  endfacet
  facet normal -0.9994645874763656 0.03271908282177657 0
    outer loop
      vertex 0.9978589232386035 -0.06540312923014306 15.75
      vertex 1 0 0
      vertex 0.9978589232386035 -0.06540312923014306 0
    endloop
  endfacet
  facet normal -0.03271908282177657 0.9994645874763656 0
    outer loop
      vertex 0 -1 15.75
      vertex 0.06540312923014306 -0.9978589232386035 15.75
      vertex 0.06540312923014306 -0.9978589232386035 0
    endloop
  endfacet
  facet normal -0.09801714032956065 0.9951847266721969 0
    outer loop
      vertex 0.06540312923014306 -0.9978589232386035 15.75
      vertex 0.13052619222005157 -0.9914448613738104 15.75
      vertex 0.13052619222005157 -0.9914448613738104 0
    endloop
  endfacet
  facet normal -0.16289547339458857 0.986643332084879 0
    outer loop
      vertex 0.13052619222005157 -0.9914448613738104 15.75
      vertex 0.19509032201612825 -0.9807852804032304 15.75
      vertex 0.19509032201612825 -0.9807852804032304 0
    endloop
  endfacet
  facet normal -0.2270762630343726 0.9738769792773337 0
    outer loop
      vertex 0.19509032201612825 -0.9807852804032304 15.75
      vertex 0.25881904510252074 -0.9659258262890683 15.75
      vertex 0.25881904510252074 -0.9659258262890683 0
    endloop
  endfacet
  facet normal -0.2902846772544623 0.9569403357322089 0
    outer loop
      vertex 0.25881904510252074 -0.9659258262890683 15.75
      vertex 0.3214394653031616 -0.9469301294951057 15.75
      vertex 0.3214394653031616 -0.9469301294951057 0
    endloop
  endfacet
  facet normal -0.35225004792123404 0.9359059267573254 0
    outer loop
      vertex 0.3214394653031616 -0.9469301294951057 15.75
      vertex 0.3826834323650898 -0.9238795325112867 15.75
      vertex 0.3826834323650898 -0.9238795325112867 0
    endloop
  endfacet
  facet normal -0.41270702980439505 0.9108638249211756 0
    outer loop
      vertex 0.3826834323650898 -0.9238795325112867 15.75
      vertex 0.4422886902190013 -0.8968727415326883 15.75
      vertex 0.4422886902190013 -0.8968727415326883 0
    endloop
  endfacet
  facet normal -0.4713967368259978 0.8819212643483549 0
    outer loop
      vertex 0.4422886902190013 -0.8968727415326883 15.75
      vertex 0.5 -0.8660254037844386 15.75
      vertex 0.5 -0.8660254037844386 0
    endloop
  endfacet
  facet normal -0.5280678506503678 0.8492021815265791 0
    outer loop
      vertex 0.5 -0.8660254037844386 15.75
      vertex 0.5555702330196022 -0.8314696123025452 15.75
      vertex 0.5555702330196022 -0.8314696123025452 0
    endloop
  endfacet
  facet normal -0.5824776968678016 0.8128466845916156 0
    outer loop
      vertex 0.5555702330196022 -0.8314696123025452 15.75
      vertex 0.6087614290087207 -0.7933533402912352 15.75
      vertex 0.6087614290087207 -0.7933533402912352 0
    endloop
  endfacet
  facet normal -0.6343932841636459 0.7730104533627365 0
    outer loop
      vertex 0.6087614290087207 -0.7933533402912352 15.75
      vertex 0.6593458151000688 -0.7518398074789774 15.75
      vertex 0.6593458151000688 -0.7518398074789774 0
    endloop
  endfacet
  facet normal -0.6835923020228702 0.7298640726978366 0
    outer loop
      vertex 0.6593458151000688 -0.7518398074789774 15.75
      vertex 0.7071067811865476 -0.7071067811865476 15.75
      vertex 0.7071067811865476 -0.7071067811865476 0
    endloop
  endfacet
  facet normal -0.7298640726978366 0.6835923020228702 0
    outer loop
      vertex 0.7071067811865476 -0.7071067811865476 15.75
      vertex 0.7518398074789774 -0.6593458151000688 15.75
      vertex 0.7518398074789774 -0.6593458151000688 0
    endloop
  endfacet
  facet normal -0.7730104533627365 0.6343932841636459 0
    outer loop
      vertex 0.7518398074789774 -0.6593458151000688 15.75
      vertex 0.7933533402912352 -0.6087614290087207 15.75
      vertex 0.7933533402912352 -0.6087614290087207 0
    endloop
  endfacet
  facet normal -0.8128466845916156 0.5824776968678016 0
    outer loop
      vertex 0.7933533402912352 -0.6087614290087207 15.75
      vertex 0.8314696123025452 -0.5555702330196022 15.75
      vertex 0.8314696123025452 -0.5555702330196022 0
    endloop
  endfacet
  facet normal -0.8492021815265791 0.5280678506503678 0
    outer loop
      vertex 0.8314696123025452 -0.5555702330196022 15.75
      vertex 0.8660254037844386 -0.5 15.75
      vertex 0.8660254037844386 -0.5 0
    endloop
  endfacet
  facet normal -0.8819212643483549 0.4713967368259978 0
    outer loop
      vertex 0.8660254037844386 -0.5 15.75
      vertex 0.8968727415326883 -0.4422886902190013 15.75
      vertex 0.8968727415326883 -0.4422886902190013 0
    endloop
  endfacet
  facet normal -0.9108638249211756 0.41270702980439505 0
    outer loop
      vertex 0.8968727415326883 -0.4422886902190013 15.75
      vertex 0.9238795325112867 -0.3826834323650898 15.75
      vertex 0.9238795325112867 -0.3826834323650898 0
    endloop
  endfacet
  facet normal -0.9359059267573254 0.35225004792123404 0
    outer loop
      vertex 0.9238795325112867 -0.3826834323650898 15.75
      vertex 0.9469301294951057 -0.3214394653031616 15.75
      vertex 0.9469301294951057 -0.3214394653031616 0
    endloop
  endfacet
  facet normal -0.9569403357322089 0.2902846772544623 0
    outer loop
      vertex 0.9469301294951057 -0.3214394653031616 15.75
      vertex 0.9659258262890683 -0.25881904510252074 15.75
      vertex 0.9659258262890683 -0.25881904510252074 0
    endloop
  endfacet
  facet normal -0.9738769792773337 0.2270762630343726 0
    outer loop
      vertex 0.9659258262890683 -0.25881904510252074 15.75
      vertex 0.9807852804032304 -0.19509032201612825 15.75
      vertex 0.9807852804032304 -0.19509032201612825 0
    endloop
  endfacet
  facet normal -0.986643332084879 0.16289547339458857 0
    outer loop
      vertex 0.9807852804032304 -0.19509032201612825 15.75
      vertex 0.9914448613738104 -0.13052619222005157 15.75
      vertex 0.9914448613738104 -0.13052619222005157 0
    endloop
  endfacet
  facet normal -0.9951847266721969 0.09801714032956065 0
    outer loop
      vertex 0.9914448613738104 -0.13052619222005157 15.75
      vertex 0.9978589232386035 -0.06540312923014306 15.75
      vertex 0.9978589232386035 -0.06540312923014306 0
    endloop
  endfacet
  facet normal -0.9994645874763656 0.03271908282177657 0
    outer loop
      vertex 0.9978589232386035 -0.06540312923014306 15.75
      vertex 1 0 15.75
      vertex 1 0 0
    endloop
  endfacet
  facet normal 0 0 -1
    outer loop
      vertex 0 -1 15.75
      vertex 0 1 15.75
      vertex 0.06540312923014306 -0.9978589232386035 15.75
    endloop
  endfacet
  facet normal 0 0 -1
    outer loop
      vertex 0.06540312923014306 -0.9978589232386035 15.75
      vertex 0.06540312923014306 0.9978589232386035 15.75
      vertex 0.13052619222005157 -0.9914448613738104 15.75
    endloop
  endfacet
  facet normal 0 0 -1
    outer loop
      vertex 0.13052619222005157 -0.9914448613738104 15.75
      vertex 0.13052619222005157 0.9914448613738104 15.75
      vertex 0.19509032201612825 -0.9807852804032304 15.75
    endloop
  endfacet
  facet normal 0 0 -1
    outer loop
      vertex 0.19509032201612825 -0.9807852804032304 15.75
      vertex 0.19509032201612825 0.9807852804032304 15.75
      vertex 0.25881904510252074 -0.9659258262890683 15.75
    endloop
  endfacet
  facet normal 0 0 -1
    outer loop
      vertex 0.25881904510252074 -0.9659258262890683 15.75
      vertex 0.25881904510252074 0.9659258262890683 15.75
      vertex 0.3214394653031616 -0.9469301294951057 15.75
    endloop
  endfacet
  facet normal 0 0 -1
    outer loop
      vertex 0.3214394653031616 -0.9469301294951057 15.75
      vertex 0.3214394653031616 0.9469301294951057 15.75
      vertex 0.3826834323650898 -0.9238795325112867 15.75
    endloop
  endfacet
  facet normal 0 0 -1
    outer loop
      vertex 0.3826834323650898 -0.9238795325112867 15.75
      vertex 0.3826834323650898 0.9238795325112867 15.75
      vertex 0.4422886902190013 -0.8968727415326883 15.75
    endloop
  endfacet
  facet normal 0 0 -1
    outer loop
      vertex 0.4422886902190013 -0.8968727415326883 15.75
      vertex 0.4422886902190013 0.8968727415326883 15.75
      vertex 0.5 -0.8660254037844386 15.75
    endloop
  endfacet
  facet normal 0 0 -1
    outer loop
      vertex 0.5 -0.8660254037844386 15.75
      vertex 0.5 0.8660254037844386 15.75
      vertex 0.5555702330196022 -0.8314696123025452 15.75
    endloop
  endfacet
  facet normal 0 0 -1
    outer loop
      vertex 0.5555702330196022 -0.8314696123025452 15.75
      vertex 0.5555702330196022 0.8314696123025452 15.75
      vertex 0.6087614290087207 -0.7933533402912352 15.75
    endloop
  endfacet
  facet normal 0 0 -1
    outer loop
      vertex 0.6087614290087207 -0.7933533402912352 15.75
      vertex 0.6087614290087207 0.7933533402912352 15.75
      vertex 0.6593458151000688 -0.7518398074789774 15.75
    endloop
  endfacet
  facet normal 0 0 -1
    outer loop
      vertex 0.6593458151000688 -0.7518398074789774 15.75
      vertex 0.6593458151000688 0.7518398074789774 15.75
      vertex 0.7071067811865476 -0.7071067811865476 15.75
    endloop
  endfacet
  facet normal 0 0 -1
    outer loop
      vertex 0.7071067811865476 -0.7071067811865476 15.75
      vertex 0.7071067811865476 0.7071067811865476 15.75
      vertex 0.7518398074789774 -0.6593458151000688 15.75
    endloop
  endfacet
  facet normal 0 0 -1
    outer loop
      vertex 0.7518398074789774 -0.6593458151000688 15.75
      vertex 0.7518398074789774 0.6593458151000688 15.75
      vertex 0.7933533402912352 -0.6087614290087207 15.75
    endloop
  endfacet
  facet normal 0 0 -1
    outer loop
      vertex 0.7933533402912352 -0.6087614290087207 15.75
      vertex 0.7933533402912352 0.6087614290087207 15.75
      vertex 0.8314696123025452 -0.5555702330196022 15.75
    endloop
  endfacet
  facet normal 0 0 -1
    outer loop
      vertex 0.8314696123025452 -0.5555702330196022 15.75
      vertex 0.8314696123025452 0.5555702330196022 15.75
      vertex 0.8660254037844386 -0.5 15.75
    endloop
  endfacet
  facet normal 0 0 -1
    outer loop
      vertex 0.8660254037844386 -0.5 15.75
      vertex 0.8660254037844386 0.5 15.75
      vertex 0.8968727415326883 -0.4422886902190013 15.75
    endloop
  endfacet
  facet normal 0 0 -1
    outer loop
      vertex 0.8968727415326883 -0.4422886902190013 15.75
      vertex 0.8968727415326883 0.4422886902190013 15.75
      vertex 0.9238795325112867 -0.3826834323650898 15.75
    endloop
  endfacet
  facet normal 0 0 -1
    outer loop
      vertex 0.9238795325112867 -0.3826834323650898 15.75
      vertex 0.9238795325112867 0.3826834323650898 15.75
      vertex 0.9469301294951057 -0.3214394653031616 15.75
    endloop
  endfacet
  facet normal 0 0 -1
    outer loop
      vertex 0.9469301294951057 -0.3214394653031616 15.75
      vertex 0.9469301294951057 0.3214394653031616 15.75
      vertex 0.9659258262890683 -0.25881904510252074 15.75
    endloop
  endfacet
  facet normal 0 0 -1
    outer loop
      vertex 0.9659258262890683 -0.25881904510252074 15.75
      vertex 0.9659258262890683 0.25881904510252074 15.75
      vertex 0.9807852804032304 -0.19509032201612825 15.75
    endloop
  endfacet
  facet normal 0 0 -1
    outer loop
      vertex 0.9807852804032304 -0.19509032201612825 15.75
      vertex 0.9807852804032304 0.19509032201612825 15.75
      vertex 0.9914448613738104 -0.13052619222005157 15.75
    endloop
  endfacet
  facet normal 0 0 -1
    outer loop
      vertex 0.9914448613738104 -0.13052619222005157 15.75
      vertex 0.9914448613738104 0.13052619222005157 15.75
      vertex 0.9978589232386035 -0.06540312923014306 15.75
    endloop
  endfacet
  facet normal -0.9994645874763656 -0.03271908282177657 0
    outer loop
      vertex 1 0 15.75
      vertex 0.9978589232386035 0.06540312923014306 0
      vertex 1 0 0
    endloop
  endfacet
  facet normal -0.9951847266721969 -0.09801714032956065 0
    outer loop
      vertex 0.9978589232386035 0.06540312923014306 15.75
      vertex 0.9914448613738104 0.13052619222005157 0
      vertex 0.9978589232386035 0.06540312923014306 0
    endloop
  endfacet
  facet normal -0.986643332084879 -0.16289547339458857 0
    outer loop
      vertex 0.9914448613738104 0.13052619222005157 15.75
      vertex 0.9807852804032304 0.19509032201612825 0
      vertex 0.9914448613738104 0.13052619222005157 0
    endloop
  endfacet
  facet normal -0.9738769792773337 -0.2270762630343726 0
    outer loop
      vertex 0.9807852804032304 0.19509032201612825 15.75
      vertex 0.9659258262890683 0.25881904510252074 0
      vertex 0.9807852804032304 0.19509032201612825 0
    endloop
  endfacet
  facet normal -0.9569403357322089 -0.2902846772544623 0
    outer loop
      vertex 0.9659258262890683 0.25881904510252074 15.75
      vertex 0.9469301294951057 0.3214394653031616 0
      vertex 0.9659258262890683 0.25881904510252074 0
    endloop
  endfacet
  facet normal -0.9359059267573254 -0.35225004792123404 0
    outer loop
      vertex 0.9469301294951057 0.3214394653031616 15.75
      vertex 0.9238795325112867 0.3826834323650898 0
      vertex 0.9469301294951057 0.3214394653031616 0
    endloop
  endfacet
  facet normal -0.9108638249211756 -0.41270702980439505 0
    outer loop
      vertex 0.9238795325112867 0.3826834323650898 15.75
      vertex 0.8968727415326883 0.4422886902190013 0
      vertex 0.9238795325112867 0.3826834323650898 0
    endloop
  endfacet
  facet normal -0.8819212643483549 -0.4713967368259978 0
    outer loop
      vertex 0.8968727415326883 0.4422886902190013 15.75
      vertex 0.8660254037844386 0.5 0
      vertex 0.8968727415326883 0.4422886902190013 0
    endloop
  endfacet
  facet normal -0.03271908282177657 -0.9994645874763656 0
    outer loop
      vertex 0.06540312923014306 0.9978589232386035 15.75
      vertex 0 1 0
      vertex 0.06540312923014306 0.9978589232386035 0
    endloop
  endfacet
  facet normal -0.09801714032956065 -0.9951847266721969 0
    outer loop
      vertex 0.13052619222005157 0.9914448613738104 15.75
      vertex 0.06540312923014306 0.9978589232386035 0
      vertex 0.13052619222005157 0.9914448613738104 0
    endloop
  endfacet
  facet normal -0.16289547339458857 -0.986643332084879 0
    outer loop
      vertex 0.19509032201612825 0.9807852804032304 15.75
      vertex 0.13052619222005157 0.9914448613738104 0
      vertex 0.19509032201612825 0.9807852804032304 0
    endloop
  endfacet
  facet normal -0.2270762630343726 -0.9738769792773337 0
    outer loop
      vertex 0.25881904510252074 0.9659258262890683 15.75
      vertex 0.19509032201612825 0.9807852804032304 0
      vertex 0.25881904510252074 0.9659258262890683 0
    endloop
  endfacet
  facet normal -0.35225004792123404 -0.9359059267573254 0
    outer loop
      vertex 0.3826834323650898 0.9238795325112867 15.75
      vertex 0.3214394653031616 0.9469301294951057 0
      vertex 0.3826834323650898 0.9238795325112867 0
    endloop
  endfacet
  facet normal -0.2902846772544623 -0.9569403357322089 0
    outer loop
      vertex 0.3214394653031616 0.9469301294951057 15.75
      vertex 0.25881904510252074 0.9659258262890683 0
      vertex 0.3214394653031616 0.9469301294951057 0
    endloop
  endfacet
  facet normal -0.41270702980439505 -0.9108638249211756 0
    outer loop
      vertex 0.4422886902190013 0.8968727415326883 15.75
      vertex 0.3826834323650898 0.9238795325112867 0
      vertex 0.4422886902190013 0.8968727415326883 0
    endloop
  endfacet
  facet normal -0.4713967368259978 -0.8819212643483549 0
    outer loop
      vertex 0.5 0.8660254037844386 15.75
      vertex 0.4422886902190013 0.8968727415326883 0
      vertex 0.5 0.8660254037844386 0
    endloop
  endfacet
  facet normal -0.7298640726978366 -0.6835923020228702 0
    outer loop
      vertex 0.7518398074789774 0.6593458151000688 15.75
      vertex 0.7071067811865476 0.7071067811865476 0
      vertex 0.7518398074789774 0.6593458151000688 0
    endloop
  endfacet
  facet normal -0.6835923020228702 -0.7298640726978366 0
    outer loop
      vertex 0.7071067811865476 0.7071067811865476 15.75
      vertex 0.6593458151000688 0.7518398074789774 0
      vertex 0.7071067811865476 0.7071067811865476 0
    endloop
  endfacet
  facet normal -0.8492021815265791 -0.5280678506503678 0
    outer loop
      vertex 0.8660254037844386 0.5 15.75
      vertex 0.8314696123025452 0.5555702330196022 0
      vertex 0.8660254037844386 0.5 0
    endloop
  endfacet
  facet normal -0.8128466845916156 -0.5824776968678016 0
    outer loop
      vertex 0.8314696123025452 0.5555702330196022 15.75
      vertex 0.7933533402912352 0.6087614290087207 0
      vertex 0.8314696123025452 0.5555702330196022 0
    endloop
  endfacet
  facet normal -0.7730104533627365 -0.6343932841636459 0
    outer loop
      vertex 0.7933533402912352 0.6087614290087207 15.75
      vertex 0.7518398074789774 0.6593458151000688 0
      vertex 0.7933533402912352 0.6087614290087207 0
    endloop
  endfacet
  facet normal -0.5824776968678016 -0.8128466845916156 0
    outer loop
      vertex 0.6087614290087207 0.7933533402912352 15.75
      vertex 0.5555702330196022 0.8314696123025452 0
      vertex 0.6087614290087207 0.7933533402912352 0
    endloop
  endfacet
  facet normal -0.5280678506503678 -0.8492021815265791 0
    outer loop
      vertex 0.5555702330196022 0.8314696123025452 15.75
      vertex 0.5 0.8660254037844386 0
      vertex 0.5555702330196022 0.8314696123025452 0
    endloop
  endfacet
  facet normal -0.6343932841636459 -0.7730104533627365 0
    outer loop
      vertex 0.6593458151000688 0.7518398074789774 15.75
      vertex 0.6087614290087207 0.7933533402912352 0
      vertex 0.6593458151000688 0.7518398074789774 0
    endloop
  endfacet
  facet normal -0.9994645874763656 -0.03271908282177657 0
    outer loop
      vertex 1 0 15.75
      vertex 0.9978589232386035 0.06540312923014306 15.75
      vertex 0.9978589232386035 0.06540312923014306 0
    endloop
  endfacet
  facet normal -0.9951847266721969 -0.09801714032956065 0
    outer loop
      vertex 0.9978589232386035 0.06540312923014306 15.75
      vertex 0.9914448613738104 0.13052619222005157 15.75
      vertex 0.9914448613738104 0.13052619222005157 0
    endloop
  endfacet
  facet normal -0.986643332084879 -0.16289547339458857 0
    outer loop
      vertex 0.9914448613738104 0.13052619222005157 15.75
      vertex 0.9807852804032304 0.19509032201612825 15.75
      vertex 0.9807852804032304 0.19509032201612825 0
    endloop
  endfacet
  facet normal -0.9738769792773337 -0.2270762630343726 0
    outer loop
      vertex 0.9807852804032304 0.19509032201612825 15.75
      vertex 0.9659258262890683 0.25881904510252074 15.75
      vertex 0.9659258262890683 0.25881904510252074 0
    endloop
  endfacet
  facet normal -0.9569403357322089 -0.2902846772544623 0
    outer loop
      vertex 0.9659258262890683 0.25881904510252074 15.75
      vertex 0.9469301294951057 0.3214394653031616 15.75
      vertex 0.9469301294951057 0.3214394653031616 0
    endloop
  endfacet
  facet normal -0.9359059267573254 -0.35225004792123404 0
    outer loop
      vertex 0.9469301294951057 0.3214394653031616 15.75
      vertex 0.9238795325112867 0.3826834323650898 15.75
      vertex 0.9238795325112867 0.3826834323650898 0
    endloop
  endfacet
  facet normal -0.9108638249211756 -0.41270702980439505 0
    outer loop
      vertex 0.9238795325112867 0.3826834323650898 15.75
      vertex 0.8968727415326883 0.4422886902190013 15.75
      vertex 0.8968727415326883 0.4422886902190013 0
    endloop
  endfacet
  facet normal -0.8819212643483549 -0.4713967368259978 0
    outer loop
      vertex 0.8968727415326883 0.4422886902190013 15.75
      vertex 0.8660254037844386 0.5 15.75
      vertex 0.8660254037844386 0.5 0
    endloop
  endfacet
  facet normal -0.03271908282177657 -0.9994645874763656 0
    outer loop
      vertex 0 1 15.75
      vertex 0 1 0
      vertex 0.06540312923014306 0.9978589232386035 15.75
    endloop
  endfacet
  facet normal -0.09801714032956065 -0.9951847266721969 0
    outer loop
      vertex 0.06540312923014306 0.9978589232386035 15.75
      vertex 0.06540312923014306 0.9978589232386035 0
      vertex 0.13052619222005157 0.9914448613738104 15.75
    endloop
  endfacet
  facet normal -0.16289547339458857 -0.986643332084879 0
    outer loop
      vertex 0.13052619222005157 0.9914448613738104 15.75
      vertex 0.13052619222005157 0.9914448613738104 0
      vertex 0.19509032201612825 0.9807852804032304 15.75
    endloop
  endfacet
  facet normal -0.2270762630343726 -0.9738769792773337 0
    outer loop
      vertex 0.19509032201612825 0.9807852804032304 15.75
      vertex 0.19509032201612825 0.9807852804032304 0
      vertex 0.25881904510252074 0.9659258262890683 15.75
    endloop
  endfacet
  facet normal -0.2902846772544623 -0.9569403357322089 0
    outer loop
      vertex 0.25881904510252074 0.9659258262890683 15.75
      vertex 0.25881904510252074 0.9659258262890683 0
      vertex 0.3214394653031616 0.9469301294951057 15.75
    endloop
  endfacet
  facet normal -0.35225004792123404 -0.9359059267573254 0
    outer loop
      vertex 0.3214394653031616 0.9469301294951057 15.75
      vertex 0.3214394653031616 0.9469301294951057 0
      vertex 0.3826834323650898 0.9238795325112867 15.75
    endloop
  endfacet
  facet normal -0.41270702980439505 -0.9108638249211756 0
    outer loop
      vertex 0.3826834323650898 0.9238795325112867 15.75
      vertex 0.3826834323650898 0.9238795325112867 0
      vertex 0.4422886902190013 0.8968727415326883 15.75
    endloop
  endfacet
  facet normal -0.4713967368259978 -0.8819212643483549 0
    outer loop
      vertex 0.4422886902190013 0.8968727415326883 15.75
      vertex 0.4422886902190013 0.8968727415326883 0
      vertex 0.5 0.8660254037844386 15.75
    endloop
  endfacet
  facet normal -0.6835923020228702 -0.7298640726978366 0
    outer loop
      vertex 0.7071067811865476 0.7071067811865476 15.75
      vertex 0.6593458151000688 0.7518398074789774 15.75
      vertex 0.6593458151000688 0.7518398074789774 0
    endloop
  endfacet
  facet normal -0.7298640726978366 -0.6835923020228702 0
    outer loop
      vertex 0.7071067811865476 0.7071067811865476 15.75
      vertex 0.7071067811865476 0.7071067811865476 0
      vertex 0.7518398074789774 0.6593458151000688 15.75
    endloop
  endfacet
  facet normal -0.8492021815265791 -0.5280678506503678 0
    outer loop
      vertex 0.8314696123025452 0.5555702330196022 15.75
      vertex 0.8314696123025452 0.5555702330196022 0
      vertex 0.8660254037844386 0.5 15.75
    endloop
  endfacet
  facet normal -0.8128466845916156 -0.5824776968678016 0
    outer loop
      vertex 0.7933533402912352 0.6087614290087207 15.75
      vertex 0.7933533402912352 0.6087614290087207 0
      vertex 0.8314696123025452 0.5555702330196022 15.75
    endloop
  endfacet
  facet normal -0.7730104533627365 -0.6343932841636459 0
    outer loop
      vertex 0.7933533402912352 0.6087614290087207 15.75
      vertex 0.7518398074789774 0.6593458151000688 15.75
      vertex 0.7518398074789774 0.6593458151000688 0
    endloop
  endfacet
  facet normal -0.5280678506503678 -0.8492021815265791 0
    outer loop
      vertex 0.5 0.8660254037844386 15.75
      vertex 0.5 0.8660254037844386 0
      vertex 0.5555702330196022 0.8314696123025452 15.75
    endloop
  endfacet
  facet normal -0.5824776968678016 -0.8128466845916156 0
    outer loop
      vertex 0.5555702330196022 0.8314696123025452 15.75
      vertex 0.5555702330196022 0.8314696123025452 0
      vertex 0.6087614290087207 0.7933533402912352 15.75
    endloop
  endfacet
  facet normal -0.6343932841636459 -0.7730104533627365 0
    outer loop
      vertex 0.6087614290087207 0.7933533402912352 15.75
      vertex 0.6087614290087207 0.7933533402912352 0
      vertex 0.6593458151000688 0.7518398074789774 15.75
    endloop
  endfacet
  facet normal 0 0 -1
    outer loop
      vertex 0.06540312923014306 -0.9978589232386035 15.75
      vertex 0 1 15.75
      vertex 0.06540312923014306 0.9978589232386035 15.75
    endloop
  endfacet
  facet normal 0 0 -1
    outer loop
      vertex 0.13052619222005157 -0.9914448613738104 15.75
      vertex 0.06540312923014306 0.9978589232386035 15.75
      vertex 0.13052619222005157 0.9914448613738104 15.75
    endloop
  endfacet
  facet normal 0 0 -1
    outer loop
      vertex 0.19509032201612825 -0.9807852804032304 15.75
      vertex 0.13052619222005157 0.9914448613738104 15.75
      vertex 0.19509032201612825 0.9807852804032304 15.75
    endloop
  endfacet
  facet normal 0 0 -1
    outer loop
      vertex 0.25881904510252074 -0.9659258262890683 15.75
      vertex 0.19509032201612825 0.9807852804032304 15.75
      vertex 0.25881904510252074 0.9659258262890683 15.75
    endloop
  endfacet
  facet normal 0 0 -1
    outer loop
      vertex 0.3214394653031616 -0.9469301294951057 15.75
      vertex 0.25881904510252074 0.9659258262890683 15.75
      vertex 0.3214394653031616 0.9469301294951057 15.75
    endloop
  endfacet
  facet normal 0 0 -1
    outer loop
      vertex 0.3826834323650898 -0.9238795325112867 15.75
      vertex 0.3214394653031616 0.9469301294951057 15.75
      vertex 0.3826834323650898 0.9238795325112867 15.75
    endloop
  endfacet
  facet normal 0 0 -1
    outer loop
      vertex 0.4422886902190013 -0.8968727415326883 15.75
      vertex 0.3826834323650898 0.9238795325112867 15.75
      vertex 0.4422886902190013 0.8968727415326883 15.75
    endloop
  endfacet
  facet normal 0 0 -1
    outer loop
      vertex 0.5 -0.8660254037844386 15.75
      vertex 0.4422886902190013 0.8968727415326883 15.75
      vertex 0.5 0.8660254037844386 15.75
    endloop
  endfacet
  facet normal 0 0 -1
    outer loop
      vertex 0.7518398074789774 -0.6593458151000688 15.75
      vertex 0.7071067811865476 0.7071067811865476 15.75
      vertex 0.7518398074789774 0.6593458151000688 15.75
    endloop
  endfacet
  facet normal 0 0 -1
    outer loop
      vertex 0.9978589232386035 -0.06540312923014306 15.75
      vertex 0.9978589232386035 0.06540312923014306 15.75
      vertex 1 0 15.75
    endloop
  endfacet
  facet normal 0 0 -1
    outer loop
      vertex 0.9978589232386035 -0.06540312923014306 15.75
      vertex 0.9914448613738104 0.13052619222005157 15.75
      vertex 0.9978589232386035 0.06540312923014306 15.75
    endloop
  endfacet
  facet normal 0 0 -1
    outer loop
      vertex 0.9914448613738104 -0.13052619222005157 15.75
      vertex 0.9807852804032304 0.19509032201612825 15.75
      vertex 0.9914448613738104 0.13052619222005157 15.75
    endloop
  endfacet
  facet normal 0 0 -1
    outer loop
      vertex 0.9807852804032304 -0.19509032201612825 15.75
      vertex 0.9659258262890683 0.25881904510252074 15.75
      vertex 0.9807852804032304 0.19509032201612825 15.75
    endloop
  endfacet
  facet normal 0 0 -1
    outer loop
      vertex 0.9659258262890683 -0.25881904510252074 15.75
      vertex 0.9469301294951057 0.3214394653031616 15.75
      vertex 0.9659258262890683 0.25881904510252074 15.75
    endloop
  endfacet
  facet normal 0 0 -1
    outer loop
      vertex 0.8660254037844386 -0.5 15.75
      vertex 0.8314696123025452 0.5555702330196022 15.75
      vertex 0.8660254037844386 0.5 15.75
    endloop
  endfacet
  facet normal 0 0 -1
    outer loop
      vertex 0.7933533402912352 -0.6087614290087207 15.75
      vertex 0.7518398074789774 0.6593458151000688 15.75
      vertex 0.7933533402912352 0.6087614290087207 15.75
    endloop
  endfacet
  facet normal 0 0 -1
    outer loop
      vertex 0.8314696123025452 -0.5555702330196022 15.75
      vertex 0.7933533402912352 0.6087614290087207 15.75
      vertex 0.8314696123025452 0.5555702330196022 15.75
    endloop
  endfacet
  facet normal 0 0 -1
    outer loop
      vertex 0.9238795325112867 -0.3826834323650898 15.75
      vertex 0.8968727415326883 0.4422886902190013 15.75
      vertex 0.9238795325112867 0.3826834323650898 15.75
    endloop
  endfacet
  facet normal 0 0 -1
    outer loop
      vertex 0.8968727415326883 -0.4422886902190013 15.75
      vertex 0.8660254037844386 0.5 15.75
      vertex 0.8968727415326883 0.4422886902190013 15.75
    endloop
  endfacet
  facet normal 0 0 -1
    outer loop
      vertex 0.9469301294951057 -0.3214394653031616 15.75
      vertex 0.9238795325112867 0.3826834323650898 15.75
      vertex 0.9469301294951057 0.3214394653031616 15.75
    endloop
  endfacet
  facet normal 0 0 -1
    outer loop
      vertex 0.5555702330196022 -0.8314696123025452 15.75
      vertex 0.5 0.8660254037844386 15.75
      vertex 0.5555702330196022 0.8314696123025452 15.75
    endloop
  endfacet
  facet normal 0 0 -1
    outer loop
      vertex 0.6087614290087207 -0.7933533402912352 15.75
      vertex 0.5555702330196022 0.8314696123025452 15.75
      vertex 0.6087614290087207 0.7933533402912352 15.75
    endloop
  endfacet
  facet normal 0 0 -1
    outer loop
      vertex 0.6593458151000688 -0.7518398074789774 15.75
      vertex 0.6087614290087207 0.7933533402912352 15.75
      vertex 0.6593458151000688 0.7518398074789774 15.75
    endloop
  endfacet
  facet normal 0 0 -1
    outer loop
      vertex 0.7071067811865476 -0.7071067811865476 15.75
      vertex 0.6593458151000688 0.7518398074789774 15.75
      vertex 0.7071067811865476 0.7071067811865476 15.75
    endloop
  endfacet
endsolid OpenSCAD_Model
