%TF.GenerationSoftware,KiCad,Pcbnew,10.0.6*%
%TF.CreationDate,2026-09-19T18:44:31+09:00*%
%TF.ProjectId,riser_oled,72697365-725f-46f6-9c65-642e6b696361,rev?*%
%TF.SameCoordinates,Original*%
%TF.FileFunction,Legend,Top*%
%TF.FilePolarity,Positive*%
%FSLAX46Y46*%
G04 Gerber Fmt 4.6, Leading zero omitted, Abs format (unit mm)*
G04 Created by KiCad (PCBNEW 10.0.6) date 2026-09-19 18:44:31*
%MOMM*%
%LPD*%
G01*
G04 APERTURE LIST*
%ADD10C,0.150000*%
G04 APERTURE END LIST*
D10*
X50870390Y-56479523D02*
X50832295Y-56555713D01*
X50832295Y-56555713D02*
X50832295Y-56669999D01*
X50832295Y-56669999D02*
X50870390Y-56784285D01*
X50870390Y-56784285D02*
X50946580Y-56860475D01*
X50946580Y-56860475D02*
X51022771Y-56898570D01*
X51022771Y-56898570D02*
X51175152Y-56936666D01*
X51175152Y-56936666D02*
X51289438Y-56936666D01*
X51289438Y-56936666D02*
X51441819Y-56898570D01*
X51441819Y-56898570D02*
X51518009Y-56860475D01*
X51518009Y-56860475D02*
X51594200Y-56784285D01*
X51594200Y-56784285D02*
X51632295Y-56669999D01*
X51632295Y-56669999D02*
X51632295Y-56593808D01*
X51632295Y-56593808D02*
X51594200Y-56479523D01*
X51594200Y-56479523D02*
X51556104Y-56441427D01*
X51556104Y-56441427D02*
X51289438Y-56441427D01*
X51289438Y-56441427D02*
X51289438Y-56593808D01*
X51632295Y-56098570D02*
X50832295Y-56098570D01*
X50832295Y-56098570D02*
X51632295Y-55641427D01*
X51632295Y-55641427D02*
X50832295Y-55641427D01*
X51632295Y-55260475D02*
X50832295Y-55260475D01*
X50832295Y-55260475D02*
X50832295Y-55069999D01*
X50832295Y-55069999D02*
X50870390Y-54955713D01*
X50870390Y-54955713D02*
X50946580Y-54879523D01*
X50946580Y-54879523D02*
X51022771Y-54841428D01*
X51022771Y-54841428D02*
X51175152Y-54803332D01*
X51175152Y-54803332D02*
X51289438Y-54803332D01*
X51289438Y-54803332D02*
X51441819Y-54841428D01*
X51441819Y-54841428D02*
X51518009Y-54879523D01*
X51518009Y-54879523D02*
X51594200Y-54955713D01*
X51594200Y-54955713D02*
X51632295Y-55069999D01*
X51632295Y-55069999D02*
X51632295Y-55260475D01*
X53372295Y-56860476D02*
X53372295Y-56365238D01*
X53372295Y-56365238D02*
X53677057Y-56631904D01*
X53677057Y-56631904D02*
X53677057Y-56517619D01*
X53677057Y-56517619D02*
X53715152Y-56441428D01*
X53715152Y-56441428D02*
X53753247Y-56403333D01*
X53753247Y-56403333D02*
X53829438Y-56365238D01*
X53829438Y-56365238D02*
X54019914Y-56365238D01*
X54019914Y-56365238D02*
X54096104Y-56403333D01*
X54096104Y-56403333D02*
X54134200Y-56441428D01*
X54134200Y-56441428D02*
X54172295Y-56517619D01*
X54172295Y-56517619D02*
X54172295Y-56746190D01*
X54172295Y-56746190D02*
X54134200Y-56822381D01*
X54134200Y-56822381D02*
X54096104Y-56860476D01*
X53372295Y-56136666D02*
X54172295Y-55869999D01*
X54172295Y-55869999D02*
X53372295Y-55603333D01*
X53372295Y-55412857D02*
X53372295Y-54917619D01*
X53372295Y-54917619D02*
X53677057Y-55184285D01*
X53677057Y-55184285D02*
X53677057Y-55070000D01*
X53677057Y-55070000D02*
X53715152Y-54993809D01*
X53715152Y-54993809D02*
X53753247Y-54955714D01*
X53753247Y-54955714D02*
X53829438Y-54917619D01*
X53829438Y-54917619D02*
X54019914Y-54917619D01*
X54019914Y-54917619D02*
X54096104Y-54955714D01*
X54096104Y-54955714D02*
X54134200Y-54993809D01*
X54134200Y-54993809D02*
X54172295Y-55070000D01*
X54172295Y-55070000D02*
X54172295Y-55298571D01*
X54172295Y-55298571D02*
X54134200Y-55374762D01*
X54134200Y-55374762D02*
X54096104Y-55412857D01*
X56674200Y-56822381D02*
X56712295Y-56708095D01*
X56712295Y-56708095D02*
X56712295Y-56517619D01*
X56712295Y-56517619D02*
X56674200Y-56441428D01*
X56674200Y-56441428D02*
X56636104Y-56403333D01*
X56636104Y-56403333D02*
X56559914Y-56365238D01*
X56559914Y-56365238D02*
X56483723Y-56365238D01*
X56483723Y-56365238D02*
X56407533Y-56403333D01*
X56407533Y-56403333D02*
X56369438Y-56441428D01*
X56369438Y-56441428D02*
X56331342Y-56517619D01*
X56331342Y-56517619D02*
X56293247Y-56670000D01*
X56293247Y-56670000D02*
X56255152Y-56746190D01*
X56255152Y-56746190D02*
X56217057Y-56784285D01*
X56217057Y-56784285D02*
X56140866Y-56822381D01*
X56140866Y-56822381D02*
X56064676Y-56822381D01*
X56064676Y-56822381D02*
X55988485Y-56784285D01*
X55988485Y-56784285D02*
X55950390Y-56746190D01*
X55950390Y-56746190D02*
X55912295Y-56670000D01*
X55912295Y-56670000D02*
X55912295Y-56479523D01*
X55912295Y-56479523D02*
X55950390Y-56365238D01*
X56636104Y-55565237D02*
X56674200Y-55603333D01*
X56674200Y-55603333D02*
X56712295Y-55717618D01*
X56712295Y-55717618D02*
X56712295Y-55793809D01*
X56712295Y-55793809D02*
X56674200Y-55908095D01*
X56674200Y-55908095D02*
X56598009Y-55984285D01*
X56598009Y-55984285D02*
X56521819Y-56022380D01*
X56521819Y-56022380D02*
X56369438Y-56060476D01*
X56369438Y-56060476D02*
X56255152Y-56060476D01*
X56255152Y-56060476D02*
X56102771Y-56022380D01*
X56102771Y-56022380D02*
X56026580Y-55984285D01*
X56026580Y-55984285D02*
X55950390Y-55908095D01*
X55950390Y-55908095D02*
X55912295Y-55793809D01*
X55912295Y-55793809D02*
X55912295Y-55717618D01*
X55912295Y-55717618D02*
X55950390Y-55603333D01*
X55950390Y-55603333D02*
X55988485Y-55565237D01*
X56712295Y-54841428D02*
X56712295Y-55222380D01*
X56712295Y-55222380D02*
X55912295Y-55222380D01*
X59214200Y-56841428D02*
X59252295Y-56727142D01*
X59252295Y-56727142D02*
X59252295Y-56536666D01*
X59252295Y-56536666D02*
X59214200Y-56460475D01*
X59214200Y-56460475D02*
X59176104Y-56422380D01*
X59176104Y-56422380D02*
X59099914Y-56384285D01*
X59099914Y-56384285D02*
X59023723Y-56384285D01*
X59023723Y-56384285D02*
X58947533Y-56422380D01*
X58947533Y-56422380D02*
X58909438Y-56460475D01*
X58909438Y-56460475D02*
X58871342Y-56536666D01*
X58871342Y-56536666D02*
X58833247Y-56689047D01*
X58833247Y-56689047D02*
X58795152Y-56765237D01*
X58795152Y-56765237D02*
X58757057Y-56803332D01*
X58757057Y-56803332D02*
X58680866Y-56841428D01*
X58680866Y-56841428D02*
X58604676Y-56841428D01*
X58604676Y-56841428D02*
X58528485Y-56803332D01*
X58528485Y-56803332D02*
X58490390Y-56765237D01*
X58490390Y-56765237D02*
X58452295Y-56689047D01*
X58452295Y-56689047D02*
X58452295Y-56498570D01*
X58452295Y-56498570D02*
X58490390Y-56384285D01*
X59252295Y-56041427D02*
X58452295Y-56041427D01*
X58452295Y-56041427D02*
X58452295Y-55850951D01*
X58452295Y-55850951D02*
X58490390Y-55736665D01*
X58490390Y-55736665D02*
X58566580Y-55660475D01*
X58566580Y-55660475D02*
X58642771Y-55622380D01*
X58642771Y-55622380D02*
X58795152Y-55584284D01*
X58795152Y-55584284D02*
X58909438Y-55584284D01*
X58909438Y-55584284D02*
X59061819Y-55622380D01*
X59061819Y-55622380D02*
X59138009Y-55660475D01*
X59138009Y-55660475D02*
X59214200Y-55736665D01*
X59214200Y-55736665D02*
X59252295Y-55850951D01*
X59252295Y-55850951D02*
X59252295Y-56041427D01*
X59023723Y-55279523D02*
X59023723Y-54898570D01*
X59252295Y-55355713D02*
X58452295Y-55089046D01*
X58452295Y-55089046D02*
X59252295Y-54822380D01*
M02*
