%TF.GenerationSoftware,KiCad,Pcbnew,10.0.6*%
%TF.CreationDate,2026-09-19T18:44:31+09:00*%
%TF.ProjectId,riser_oled,72697365-725f-46f6-9c65-642e6b696361,rev?*%
%TF.SameCoordinates,Original*%
%TF.FileFunction,Legend,Bot*%
%TF.FilePolarity,Positive*%
%FSLAX46Y46*%
G04 Gerber Fmt 4.6, Leading zero omitted, Abs format (unit mm)*
G04 Created by KiCad (PCBNEW 10.0.6) date 2026-09-19 18:44:31*
%MOMM*%
%LPD*%
G01*
G04 APERTURE LIST*
%ADD10C,0.150000*%
G04 APERTURE END LIST*
D10*
X54642295Y-57749285D02*
X54642295Y-57901666D01*
X54642295Y-57901666D02*
X54680390Y-57977856D01*
X54680390Y-57977856D02*
X54756580Y-58054047D01*
X54756580Y-58054047D02*
X54908961Y-58092142D01*
X54908961Y-58092142D02*
X55175628Y-58092142D01*
X55175628Y-58092142D02*
X55328009Y-58054047D01*
X55328009Y-58054047D02*
X55404200Y-57977856D01*
X55404200Y-57977856D02*
X55442295Y-57901666D01*
X55442295Y-57901666D02*
X55442295Y-57749285D01*
X55442295Y-57749285D02*
X55404200Y-57673094D01*
X55404200Y-57673094D02*
X55328009Y-57596904D01*
X55328009Y-57596904D02*
X55175628Y-57558808D01*
X55175628Y-57558808D02*
X54908961Y-57558808D01*
X54908961Y-57558808D02*
X54756580Y-57596904D01*
X54756580Y-57596904D02*
X54680390Y-57673094D01*
X54680390Y-57673094D02*
X54642295Y-57749285D01*
X55442295Y-58815951D02*
X55442295Y-58434999D01*
X55442295Y-58434999D02*
X54642295Y-58434999D01*
X55023247Y-59082618D02*
X55023247Y-59349284D01*
X55442295Y-59463570D02*
X55442295Y-59082618D01*
X55442295Y-59082618D02*
X54642295Y-59082618D01*
X54642295Y-59082618D02*
X54642295Y-59463570D01*
X55442295Y-59806428D02*
X54642295Y-59806428D01*
X54642295Y-59806428D02*
X54642295Y-59996904D01*
X54642295Y-59996904D02*
X54680390Y-60111190D01*
X54680390Y-60111190D02*
X54756580Y-60187380D01*
X54756580Y-60187380D02*
X54832771Y-60225475D01*
X54832771Y-60225475D02*
X54985152Y-60263571D01*
X54985152Y-60263571D02*
X55099438Y-60263571D01*
X55099438Y-60263571D02*
X55251819Y-60225475D01*
X55251819Y-60225475D02*
X55328009Y-60187380D01*
X55328009Y-60187380D02*
X55404200Y-60111190D01*
X55404200Y-60111190D02*
X55442295Y-59996904D01*
X55442295Y-59996904D02*
X55442295Y-59806428D01*
X55442295Y-61673095D02*
X55061342Y-61406428D01*
X55442295Y-61215952D02*
X54642295Y-61215952D01*
X54642295Y-61215952D02*
X54642295Y-61520714D01*
X54642295Y-61520714D02*
X54680390Y-61596904D01*
X54680390Y-61596904D02*
X54718485Y-61634999D01*
X54718485Y-61634999D02*
X54794676Y-61673095D01*
X54794676Y-61673095D02*
X54908961Y-61673095D01*
X54908961Y-61673095D02*
X54985152Y-61634999D01*
X54985152Y-61634999D02*
X55023247Y-61596904D01*
X55023247Y-61596904D02*
X55061342Y-61520714D01*
X55061342Y-61520714D02*
X55061342Y-61215952D01*
X55442295Y-62015952D02*
X54642295Y-62015952D01*
X55404200Y-62358808D02*
X55442295Y-62473094D01*
X55442295Y-62473094D02*
X55442295Y-62663570D01*
X55442295Y-62663570D02*
X55404200Y-62739761D01*
X55404200Y-62739761D02*
X55366104Y-62777856D01*
X55366104Y-62777856D02*
X55289914Y-62815951D01*
X55289914Y-62815951D02*
X55213723Y-62815951D01*
X55213723Y-62815951D02*
X55137533Y-62777856D01*
X55137533Y-62777856D02*
X55099438Y-62739761D01*
X55099438Y-62739761D02*
X55061342Y-62663570D01*
X55061342Y-62663570D02*
X55023247Y-62511189D01*
X55023247Y-62511189D02*
X54985152Y-62434999D01*
X54985152Y-62434999D02*
X54947057Y-62396904D01*
X54947057Y-62396904D02*
X54870866Y-62358808D01*
X54870866Y-62358808D02*
X54794676Y-62358808D01*
X54794676Y-62358808D02*
X54718485Y-62396904D01*
X54718485Y-62396904D02*
X54680390Y-62434999D01*
X54680390Y-62434999D02*
X54642295Y-62511189D01*
X54642295Y-62511189D02*
X54642295Y-62701666D01*
X54642295Y-62701666D02*
X54680390Y-62815951D01*
X55023247Y-63158809D02*
X55023247Y-63425475D01*
X55442295Y-63539761D02*
X55442295Y-63158809D01*
X55442295Y-63158809D02*
X54642295Y-63158809D01*
X54642295Y-63158809D02*
X54642295Y-63539761D01*
X55442295Y-64339762D02*
X55061342Y-64073095D01*
X55442295Y-63882619D02*
X54642295Y-63882619D01*
X54642295Y-63882619D02*
X54642295Y-64187381D01*
X54642295Y-64187381D02*
X54680390Y-64263571D01*
X54680390Y-64263571D02*
X54718485Y-64301666D01*
X54718485Y-64301666D02*
X54794676Y-64339762D01*
X54794676Y-64339762D02*
X54908961Y-64339762D01*
X54908961Y-64339762D02*
X54985152Y-64301666D01*
X54985152Y-64301666D02*
X55023247Y-64263571D01*
X55023247Y-64263571D02*
X55061342Y-64187381D01*
X55061342Y-64187381D02*
X55061342Y-63882619D01*
X54908961Y-65177857D02*
X54908961Y-65482619D01*
X54642295Y-65292143D02*
X55328009Y-65292143D01*
X55328009Y-65292143D02*
X55404200Y-65330238D01*
X55404200Y-65330238D02*
X55442295Y-65406428D01*
X55442295Y-65406428D02*
X55442295Y-65482619D01*
X55442295Y-66168333D02*
X55442295Y-65711190D01*
X55442295Y-65939762D02*
X54642295Y-65939762D01*
X54642295Y-65939762D02*
X54756580Y-65863571D01*
X54756580Y-65863571D02*
X54832771Y-65787381D01*
X54832771Y-65787381D02*
X54870866Y-65711190D01*
X55366104Y-66511191D02*
X55404200Y-66549286D01*
X55404200Y-66549286D02*
X55442295Y-66511191D01*
X55442295Y-66511191D02*
X55404200Y-66473095D01*
X55404200Y-66473095D02*
X55366104Y-66511191D01*
X55366104Y-66511191D02*
X55442295Y-66511191D01*
X54642295Y-67235000D02*
X54642295Y-67082619D01*
X54642295Y-67082619D02*
X54680390Y-67006428D01*
X54680390Y-67006428D02*
X54718485Y-66968333D01*
X54718485Y-66968333D02*
X54832771Y-66892143D01*
X54832771Y-66892143D02*
X54985152Y-66854047D01*
X54985152Y-66854047D02*
X55289914Y-66854047D01*
X55289914Y-66854047D02*
X55366104Y-66892143D01*
X55366104Y-66892143D02*
X55404200Y-66930238D01*
X55404200Y-66930238D02*
X55442295Y-67006428D01*
X55442295Y-67006428D02*
X55442295Y-67158809D01*
X55442295Y-67158809D02*
X55404200Y-67235000D01*
X55404200Y-67235000D02*
X55366104Y-67273095D01*
X55366104Y-67273095D02*
X55289914Y-67311190D01*
X55289914Y-67311190D02*
X55099438Y-67311190D01*
X55099438Y-67311190D02*
X55023247Y-67273095D01*
X55023247Y-67273095D02*
X54985152Y-67235000D01*
X54985152Y-67235000D02*
X54947057Y-67158809D01*
X54947057Y-67158809D02*
X54947057Y-67006428D01*
X54947057Y-67006428D02*
X54985152Y-66930238D01*
X54985152Y-66930238D02*
X55023247Y-66892143D01*
X55023247Y-66892143D02*
X55099438Y-66854047D01*
M02*
