%TF.GenerationSoftware,KiCad,Pcbnew,10.0.6*%
%TF.CreationDate,2026-09-13T18:37:29+09:00*%
%TF.ProjectId,hub_power,6875625f-706f-4776-9572-2e6b69636164,rev?*%
%TF.SameCoordinates,Original*%
%TF.FileFunction,Copper,L2,Bot*%
%TF.FilePolarity,Positive*%
%FSLAX46Y46*%
G04 Gerber Fmt 4.6, Leading zero omitted, Abs format (unit mm)*
G04 Created by KiCad (PCBNEW 10.0.6) date 2026-09-13 18:37:29*
%MOMM*%
%LPD*%
G01*
G04 APERTURE LIST*
G04 Aperture macros list*
%AMRoundRect*
0 Rectangle with rounded corners*
0 $1 Rounding radius*
0 $2 $3 $4 $5 $6 $7 $8 $9 X,Y pos of 4 corners*
0 Add a 4 corners polygon primitive as box body*
4,1,4,$2,$3,$4,$5,$6,$7,$8,$9,$2,$3,0*
0 Add four circle primitives for the rounded corners*
1,1,$1+$1,$2,$3*
1,1,$1+$1,$4,$5*
1,1,$1+$1,$6,$7*
1,1,$1+$1,$8,$9*
0 Add four rect primitives between the rounded corners*
20,1,$1+$1,$2,$3,$4,$5,0*
20,1,$1+$1,$4,$5,$6,$7,0*
20,1,$1+$1,$6,$7,$8,$9,0*
20,1,$1+$1,$8,$9,$2,$3,0*%
G04 Aperture macros list end*
%TA.AperFunction,ComponentPad*%
%ADD10R,1.700000X1.700000*%
%TD*%
%TA.AperFunction,ComponentPad*%
%ADD11C,1.700000*%
%TD*%
%TA.AperFunction,ComponentPad*%
%ADD12O,1.000000X2.100000*%
%TD*%
%TA.AperFunction,ComponentPad*%
%ADD13RoundRect,0.250000X-0.350000X-0.625000X0.350000X-0.625000X0.350000X0.625000X-0.350000X0.625000X0*%
%TD*%
%TA.AperFunction,ComponentPad*%
%ADD14O,1.200000X1.750000*%
%TD*%
%TA.AperFunction,ComponentPad*%
%ADD15RoundRect,0.250000X-0.625000X0.350000X-0.625000X-0.350000X0.625000X-0.350000X0.625000X0.350000X0*%
%TD*%
%TA.AperFunction,ComponentPad*%
%ADD16O,1.750000X1.200000*%
%TD*%
%TA.AperFunction,ComponentPad*%
%ADD17RoundRect,0.250000X0.350000X0.625000X-0.350000X0.625000X-0.350000X-0.625000X0.350000X-0.625000X0*%
%TD*%
%TA.AperFunction,ViaPad*%
%ADD18C,0.800000*%
%TD*%
%TA.AperFunction,ViaPad*%
%ADD19C,0.600000*%
%TD*%
%TA.AperFunction,Conductor*%
%ADD20C,0.200000*%
%TD*%
G04 APERTURE END LIST*
D10*
%TO.P,J1,1*%
%TO.N,unconnected-(J1-Pin_1-Pad1)*%
X69400000Y-118300000D03*
D11*
%TO.P,J1,2*%
%TO.N,unconnected-(J1-Pin_2-Pad2)*%
X69400000Y-115760000D03*
%TO.P,J1,3*%
%TO.N,BTN*%
X69400000Y-113220000D03*
%TO.P,J1,4*%
%TO.N,IN*%
X69400000Y-110680000D03*
%TO.P,J1,5*%
%TO.N,SDA*%
X69400000Y-108140000D03*
%TO.P,J1,6*%
%TO.N,SCL*%
X69400000Y-105600000D03*
%TO.P,J1,7*%
%TO.N,unconnected-(J1-Pin_7-Pad7)*%
X69400000Y-103060000D03*
%TD*%
D10*
%TO.P,J14,1*%
%TO.N,V5*%
X84630000Y-118300000D03*
D11*
%TO.P,J14,2*%
%TO.N,GND*%
X84630000Y-115760000D03*
%TO.P,J14,3*%
%TO.N,V33*%
X84630000Y-113220000D03*
%TO.P,J14,4*%
%TO.N,unconnected-(J14-Pin_4-Pad4)*%
X84630000Y-110680000D03*
%TO.P,J14,5*%
%TO.N,unconnected-(J14-Pin_5-Pad5)*%
X84630000Y-108140000D03*
%TO.P,J14,6*%
%TO.N,unconnected-(J14-Pin_6-Pad6)*%
X84630000Y-105600000D03*
%TO.P,J14,7*%
%TO.N,unconnected-(J14-Pin_7-Pad7)*%
X84630000Y-103060000D03*
%TD*%
D12*
%TO.P,J13,SH*%
%TO.N,GND*%
X101820000Y-43780000D03*
X93180000Y-43780000D03*
%TD*%
D13*
%TO.P,J5,1*%
%TO.N,SPKM*%
X63000000Y-107700000D03*
D14*
%TO.P,J5,2*%
%TO.N,SPKO*%
X65000000Y-107700000D03*
%TD*%
D15*
%TO.P,J2,1*%
%TO.N,GND*%
X101750000Y-71900000D03*
D16*
%TO.P,J2,2*%
%TO.N,V33*%
X101750000Y-73900000D03*
%TO.P,J2,3*%
%TO.N,SCL*%
X101750000Y-75900000D03*
%TO.P,J2,4*%
%TO.N,SDA*%
X101750000Y-77900000D03*
%TD*%
D13*
%TO.P,J4,1*%
%TO.N,SPKP*%
X92500000Y-48300000D03*
D14*
%TO.P,J4,2*%
%TO.N,SPKM*%
X94500000Y-48300000D03*
%TD*%
D17*
%TO.P,J10,1*%
%TO.N,GND*%
X101000000Y-95550000D03*
D14*
%TO.P,J10,2*%
%TO.N,BATP*%
X99000000Y-95550000D03*
%TD*%
D17*
%TO.P,J6,1*%
%TO.N,EN*%
X80000000Y-118100000D03*
D14*
%TO.P,J6,2*%
%TO.N,GND*%
X78000000Y-118100000D03*
%TO.P,J6,3*%
X76000000Y-118100000D03*
%TO.P,J6,4*%
%TO.N,BTN*%
X74000000Y-118100000D03*
%TD*%
D18*
%TO.N,BATP*%
X68638800Y-73570100D03*
X90745000Y-87295000D03*
%TO.N,CC1*%
X85398000Y-48763800D03*
X98750000Y-43412800D03*
%TO.N,EN*%
X90279800Y-55394600D03*
X81280500Y-51481000D03*
X74945000Y-59252400D03*
%TO.N,FB*%
X77753500Y-54095400D03*
X74777500Y-56712500D03*
%TO.N,GND*%
X72000000Y-95096200D03*
X73057500Y-49750800D03*
X86425500Y-48829100D03*
X90266000Y-110084100D03*
X73610000Y-62335300D03*
X81525200Y-87544700D03*
X83062500Y-100531600D03*
X97135900Y-112632400D03*
%TO.N,LBI*%
X76663300Y-65058500D03*
X72267800Y-62834400D03*
%TO.N,N_LED4*%
X77833900Y-77822700D03*
X82445000Y-80753200D03*
%TO.N,PROG1*%
X71955800Y-77054300D03*
X80072300Y-82568900D03*
%TO.N,PROG3*%
X70725000Y-73740300D03*
X79136400Y-77980600D03*
%TO.N,SCL*%
X87435500Y-61481200D03*
X99901700Y-111447100D03*
X70000000Y-77535600D03*
%TO.N,SDA*%
X69844500Y-74956800D03*
X71362100Y-69596600D03*
X100214100Y-114497600D03*
%TO.N,SPKM*%
X94500000Y-101205400D03*
%TO.N,SPKO*%
X97428300Y-105548300D03*
%TO.N,STAT1*%
X74755700Y-80007800D03*
X76161300Y-78297200D03*
%TO.N,STAT2*%
X74755100Y-80964000D03*
X88748200Y-74405100D03*
X89324700Y-69079500D03*
X82113600Y-69079500D03*
X82113600Y-66980300D03*
X76982500Y-67009600D03*
%TO.N,THERM*%
X73548300Y-81660900D03*
X80186900Y-74513100D03*
%TO.N,V33*%
X83234400Y-65186100D03*
X91833900Y-64908700D03*
X89090500Y-61132400D03*
X67562800Y-77653900D03*
%TO.N,V5*%
X91182200Y-55844600D03*
X80900200Y-61220400D03*
X67935000Y-61676600D03*
X76591100Y-60667900D03*
X77165000Y-53324500D03*
%TO.N,VBUS*%
X96666400Y-54371900D03*
X71997400Y-67042900D03*
X68117500Y-82011400D03*
X82445000Y-76706700D03*
X81122500Y-89150200D03*
%TO.N,VLIPO*%
X70938600Y-75467100D03*
X90745000Y-75480300D03*
%TO.N,VSYS*%
X81250300Y-65555000D03*
X69323000Y-81665400D03*
X81277600Y-53143900D03*
X72870500Y-65726400D03*
X64342000Y-69715200D03*
D19*
%TO.N,GND*%
X61000000Y-120200000D03*
X61000000Y-117000000D03*
X61000000Y-113800000D03*
X61000000Y-110600000D03*
X61000000Y-107400000D03*
X61000000Y-104200000D03*
X61000000Y-101000000D03*
X61000000Y-97800000D03*
X61000000Y-94600000D03*
X61000000Y-91400000D03*
X61000000Y-88200000D03*
X61000000Y-78600000D03*
X61000000Y-75400000D03*
X61000000Y-72200000D03*
X61000000Y-69000000D03*
X61000000Y-65800000D03*
X61000000Y-56200000D03*
X61000000Y-53000000D03*
X61000000Y-43400000D03*
X64200000Y-120200000D03*
X64200000Y-113800000D03*
X64200000Y-110600000D03*
X64200000Y-104200000D03*
X64200000Y-101000000D03*
X64200000Y-97800000D03*
X64200000Y-91400000D03*
X64200000Y-88200000D03*
X64200000Y-43400000D03*
X67400000Y-120200000D03*
X67400000Y-117000000D03*
X67400000Y-113800000D03*
X67400000Y-91400000D03*
X67400000Y-88200000D03*
X67400000Y-85000000D03*
X67400000Y-53000000D03*
X67400000Y-49800000D03*
X67400000Y-46600000D03*
X67400000Y-43400000D03*
X70600000Y-120200000D03*
X70600000Y-97800000D03*
X70600000Y-91400000D03*
X70600000Y-88200000D03*
X70600000Y-85000000D03*
X70600000Y-49800000D03*
X70600000Y-46600000D03*
X70600000Y-43400000D03*
X73800000Y-113800000D03*
X73800000Y-110600000D03*
X73800000Y-91400000D03*
X73800000Y-88200000D03*
X77000000Y-113800000D03*
X77000000Y-110600000D03*
X77000000Y-91400000D03*
X80200000Y-49800000D03*
X83400000Y-120200000D03*
X83400000Y-94600000D03*
X83400000Y-85000000D03*
X86600000Y-120200000D03*
X86600000Y-117000000D03*
X86600000Y-94600000D03*
X86600000Y-91400000D03*
X86600000Y-88200000D03*
X86600000Y-85000000D03*
X86600000Y-81800000D03*
X86600000Y-75400000D03*
X89800000Y-113800000D03*
X96200000Y-120200000D03*
X96200000Y-117000000D03*
X96200000Y-72200000D03*
X99400000Y-120200000D03*
X99400000Y-104200000D03*
X99400000Y-101000000D03*
X99400000Y-91400000D03*
X99400000Y-65800000D03*
X99400000Y-62600000D03*
X99400000Y-59400000D03*
X102600000Y-120200000D03*
X102600000Y-117000000D03*
X102600000Y-113800000D03*
X102600000Y-88200000D03*
X102600000Y-69000000D03*
X102600000Y-65800000D03*
X102600000Y-62600000D03*
X102600000Y-59400000D03*
X102600000Y-56200000D03*
X102600000Y-53000000D03*
%TD*%
%TO.N,BATP*%
D20*
X68638800Y-73570100D02*
X68489300Y-73719600D01*
X68489300Y-73719600D02*
X68489300Y-77054800D01*
X68489300Y-77054800D02*
X70079800Y-78645300D01*
X70079800Y-78645300D02*
X70079800Y-80108900D01*
X70079800Y-80108900D02*
X73243200Y-83272300D01*
X73243200Y-83272300D02*
X80913100Y-83272300D01*
X80913100Y-83272300D02*
X83132200Y-81053200D01*
X83132200Y-81053200D02*
X83132200Y-80002700D01*
X83132200Y-80002700D02*
X81754200Y-78624700D01*
X81754200Y-78624700D02*
X81754200Y-76455700D01*
X81754200Y-76455700D02*
X82191800Y-76018100D01*
X82191800Y-76018100D02*
X82715600Y-76018100D01*
X82715600Y-76018100D02*
X90745000Y-84047500D01*
X90745000Y-84047500D02*
X90745000Y-87295000D01*
X99000000Y-95550000D02*
X98148300Y-95550000D01*
X98148300Y-95550000D02*
X98148300Y-94698300D01*
X98148300Y-94698300D02*
X90745000Y-87295000D01*
%TO.N,BTN*%
X74000000Y-118100000D02*
X74000000Y-116973300D01*
X74000000Y-116973300D02*
X73153300Y-116973300D01*
X73153300Y-116973300D02*
X69400000Y-113220000D01*
%TO.N,CC1*%
X98750000Y-43412800D02*
X97666200Y-42329000D01*
X97666200Y-42329000D02*
X91832800Y-42329000D01*
X91832800Y-42329000D02*
X85398000Y-48763800D01*
%TO.N,EN*%
X90279800Y-55394600D02*
X85194100Y-55394600D01*
X85194100Y-55394600D02*
X81280500Y-51481000D01*
X81280500Y-51481000D02*
X80267800Y-52493700D01*
X80267800Y-52493700D02*
X80267800Y-53929600D01*
X80267800Y-53929600D02*
X74945000Y-59252400D01*
%TO.N,FB*%
X77753500Y-54095400D02*
X77394600Y-54095400D01*
X77394600Y-54095400D02*
X74777500Y-56712500D01*
%TO.N,GND*%
X73057500Y-49750800D02*
X67238500Y-55569800D01*
X67238500Y-55569800D02*
X67238500Y-61940200D01*
X67238500Y-61940200D02*
X67635200Y-62336900D01*
X67635200Y-62336900D02*
X71667300Y-62336900D01*
X71667300Y-62336900D02*
X71821500Y-62182700D01*
X71821500Y-62182700D02*
X73457400Y-62182700D01*
X73457400Y-62182700D02*
X73610000Y-62335300D01*
X90267600Y-110084100D02*
X90266000Y-110084100D01*
X101000000Y-95550000D02*
X100148300Y-95550000D01*
X83062500Y-100531600D02*
X95911900Y-100531600D01*
X95911900Y-100531600D02*
X100148300Y-96295200D01*
X100148300Y-96295200D02*
X100148300Y-95550000D01*
X77627100Y-95096200D02*
X72000000Y-95096200D01*
X83062500Y-100531600D02*
X77627100Y-95096200D01*
X77627100Y-95096200D02*
X81796600Y-90926700D01*
X81796600Y-90926700D02*
X81796600Y-87816100D01*
X81796600Y-87816100D02*
X81525200Y-87544700D01*
X90267600Y-110084100D02*
X94587600Y-110084100D01*
X94587600Y-110084100D02*
X97135900Y-112632400D01*
X90267600Y-110084100D02*
X84630000Y-115721700D01*
X84630000Y-115721700D02*
X84630000Y-115760000D01*
X93180000Y-45081700D02*
X90172900Y-45081700D01*
X90172900Y-45081700D02*
X86425500Y-48829100D01*
X101820000Y-43780000D02*
X101820000Y-45081700D01*
X93180000Y-45025200D02*
X93180000Y-45081700D01*
X93180000Y-43780000D02*
X93180000Y-45025200D01*
X101820000Y-45081700D02*
X93236500Y-45081700D01*
X93236500Y-45081700D02*
X93180000Y-45025200D01*
X78000000Y-118100000D02*
X78851700Y-118100000D01*
X78851700Y-118100000D02*
X78851700Y-117354800D01*
X78851700Y-117354800D02*
X80446500Y-115760000D01*
X80446500Y-115760000D02*
X84630000Y-115760000D01*
X76000000Y-118100000D02*
X78000000Y-118100000D01*
%TO.N,LBI*%
X72267800Y-62834400D02*
X74491900Y-65058500D01*
X74491900Y-65058500D02*
X76663300Y-65058500D01*
%TO.N,N_LED4*%
X77833900Y-77822700D02*
X80764400Y-80753200D01*
X80764400Y-80753200D02*
X82445000Y-80753200D01*
%TO.N,PROG1*%
X80072300Y-82568900D02*
X79926800Y-82714400D01*
X79926800Y-82714400D02*
X73182600Y-82714400D01*
X73182600Y-82714400D02*
X71955800Y-81487600D01*
X71955800Y-81487600D02*
X71955800Y-77054300D01*
%TO.N,PROG3*%
X79136400Y-77980600D02*
X78286400Y-77130600D01*
X78286400Y-77130600D02*
X77603700Y-77130600D01*
X77603700Y-77130600D02*
X77164900Y-77569400D01*
X77164900Y-77569400D02*
X77164900Y-79501100D01*
X77164900Y-79501100D02*
X74328600Y-82337400D01*
X74328600Y-82337400D02*
X73302900Y-82337400D01*
X73302900Y-82337400D02*
X72641300Y-81675800D01*
X72641300Y-81675800D02*
X72641300Y-76786500D01*
X72641300Y-76786500D02*
X72257300Y-76402500D01*
X72257300Y-76402500D02*
X70286400Y-76402500D01*
X70286400Y-76402500D02*
X69192700Y-75308800D01*
X69192700Y-75308800D02*
X69192700Y-74634200D01*
X69192700Y-74634200D02*
X70086600Y-73740300D01*
X70086600Y-73740300D02*
X70725000Y-73740300D01*
%TO.N,SCL*%
X88248200Y-62838500D02*
X82712800Y-68373900D01*
X82712800Y-68373900D02*
X71663000Y-68373900D01*
X71663000Y-68373900D02*
X69304000Y-70732900D01*
X69304000Y-70732900D02*
X69304000Y-73853400D01*
X69304000Y-73853400D02*
X68841000Y-74316400D01*
X68841000Y-74316400D02*
X68841000Y-76376600D01*
X68841000Y-76376600D02*
X70000000Y-77535600D01*
X87435500Y-61481200D02*
X88248200Y-62293900D01*
X88248200Y-62293900D02*
X88248200Y-62838500D01*
X101750000Y-75048300D02*
X100458000Y-75048300D01*
X100458000Y-75048300D02*
X88248200Y-62838500D01*
X99901700Y-111447100D02*
X95282800Y-106828200D01*
X95282800Y-106828200D02*
X70628200Y-106828200D01*
X70628200Y-106828200D02*
X69400000Y-105600000D01*
X101750000Y-75900000D02*
X101750000Y-75048300D01*
%TO.N,SDA*%
X71376700Y-72405600D02*
X71376700Y-69611200D01*
X71376700Y-69611200D02*
X71362100Y-69596600D01*
X69844500Y-74956800D02*
X70430100Y-74956800D01*
X70430100Y-74956800D02*
X71376700Y-74010200D01*
X71376700Y-74010200D02*
X71376700Y-72405600D01*
X71376700Y-72405600D02*
X92023900Y-72405600D01*
X92023900Y-72405600D02*
X96666600Y-77048300D01*
X96666600Y-77048300D02*
X101750000Y-77048300D01*
X96666600Y-77048300D02*
X96666600Y-86557500D01*
X96666600Y-86557500D02*
X101867900Y-91758800D01*
X101867900Y-91758800D02*
X101867900Y-112843800D01*
X101867900Y-112843800D02*
X100214100Y-114497600D01*
X69400000Y-108140000D02*
X70671600Y-109411600D01*
X70671600Y-109411600D02*
X95128100Y-109411600D01*
X95128100Y-109411600D02*
X100214100Y-114497600D01*
X101750000Y-77900000D02*
X101750000Y-77048300D01*
%TO.N,SPKM*%
X63851700Y-107700000D02*
X63851700Y-106954800D01*
X63851700Y-106954800D02*
X69601100Y-101205400D01*
X69601100Y-101205400D02*
X94500000Y-101205400D01*
X63000000Y-107700000D02*
X63851700Y-107700000D01*
%TO.N,SPKO*%
X65000000Y-107700000D02*
X65851700Y-107700000D01*
X65851700Y-107700000D02*
X65851700Y-107487100D01*
X65851700Y-107487100D02*
X68891800Y-104447000D01*
X68891800Y-104447000D02*
X96327000Y-104447000D01*
X96327000Y-104447000D02*
X97428300Y-105548300D01*
%TO.N,STAT1*%
X74755700Y-80007800D02*
X74755700Y-79702800D01*
X74755700Y-79702800D02*
X76161300Y-78297200D01*
%TO.N,STAT2*%
X88748200Y-74405100D02*
X81675500Y-74405100D01*
X81675500Y-74405100D02*
X79364400Y-76716200D01*
X79364400Y-76716200D02*
X77520800Y-76716200D01*
X77520800Y-76716200D02*
X76813100Y-77423900D01*
X76813100Y-77423900D02*
X76813100Y-78906000D01*
X76813100Y-78906000D02*
X74755100Y-80964000D01*
X82113600Y-69079500D02*
X89324700Y-69079500D01*
X82113600Y-66980300D02*
X77011800Y-66980300D01*
X77011800Y-66980300D02*
X76982500Y-67009600D01*
%TO.N,THERM*%
X80186900Y-74513100D02*
X79023900Y-74513100D01*
X79023900Y-74513100D02*
X73548300Y-79988700D01*
X73548300Y-79988700D02*
X73548300Y-81660900D01*
%TO.N,V33*%
X101750000Y-73048300D02*
X99973500Y-73048300D01*
X99973500Y-73048300D02*
X91833900Y-64908700D01*
X89090500Y-61132400D02*
X91833900Y-63875800D01*
X91833900Y-63875800D02*
X91833900Y-64908700D01*
X67562800Y-77653900D02*
X67562800Y-70486300D01*
X67562800Y-70486300D02*
X71683400Y-66365700D01*
X71683400Y-66365700D02*
X72242000Y-66365700D01*
X72242000Y-66365700D02*
X73546800Y-67670500D01*
X73546800Y-67670500D02*
X82347500Y-67670500D01*
X82347500Y-67670500D02*
X83234300Y-66783700D01*
X83234300Y-66783700D02*
X83234300Y-65186100D01*
X83234300Y-65186100D02*
X83234400Y-65186100D01*
X101750000Y-73900000D02*
X101750000Y-73048300D01*
%TO.N,V5*%
X91182200Y-55844600D02*
X91182200Y-55375400D01*
X91182200Y-55375400D02*
X86607900Y-50801100D01*
X86607900Y-50801100D02*
X79688400Y-50801100D01*
X79688400Y-50801100D02*
X77165000Y-53324500D01*
X73230400Y-58743900D02*
X75154400Y-60667900D01*
X75154400Y-60667900D02*
X76591100Y-60667900D01*
X73230400Y-58743900D02*
X70867700Y-58743900D01*
X70867700Y-58743900D02*
X67935000Y-61676600D01*
X76591100Y-60667900D02*
X77143600Y-61220400D01*
X77143600Y-61220400D02*
X80900200Y-61220400D01*
X73230400Y-58743900D02*
X73230400Y-57259100D01*
X73230400Y-57259100D02*
X77165000Y-53324500D01*
%TO.N,VBUS*%
X71997400Y-67042900D02*
X72976700Y-68022200D01*
X72976700Y-68022200D02*
X82567200Y-68022200D01*
X82567200Y-68022200D02*
X84205100Y-66384300D01*
X84205100Y-66384300D02*
X84205100Y-63770500D01*
X84205100Y-63770500D02*
X93603700Y-54371900D01*
X93603700Y-54371900D02*
X96666400Y-54371900D01*
X71997400Y-67042900D02*
X67987100Y-71053200D01*
X67987100Y-71053200D02*
X67987100Y-77156500D01*
X67987100Y-77156500D02*
X69553200Y-78722600D01*
X69553200Y-78722600D02*
X69553200Y-80158500D01*
X69553200Y-80158500D02*
X69974800Y-80580100D01*
X69974800Y-80580100D02*
X69974800Y-81986900D01*
X80798800Y-85776900D02*
X83483900Y-83091800D01*
X83483900Y-83091800D02*
X83483900Y-77745600D01*
X83483900Y-77745600D02*
X82445000Y-76706700D01*
X69974800Y-81986900D02*
X69621500Y-82340200D01*
X69621500Y-82340200D02*
X68446300Y-82340200D01*
X68446300Y-82340200D02*
X68117500Y-82011400D01*
X80798800Y-85776900D02*
X73764800Y-85776900D01*
X73764800Y-85776900D02*
X69974800Y-81986900D01*
X81122500Y-89150200D02*
X80798800Y-88826500D01*
X80798800Y-88826500D02*
X80798800Y-85776900D01*
%TO.N,VLIPO*%
X90745000Y-75480300D02*
X89018100Y-73753400D01*
X89018100Y-73753400D02*
X72652300Y-73753400D01*
X72652300Y-73753400D02*
X70938600Y-75467100D01*
%TO.N,VSYS*%
X79403500Y-63708200D02*
X77385200Y-65726400D01*
X77385200Y-65726400D02*
X72870500Y-65726400D01*
X81277600Y-53143900D02*
X81596200Y-53462500D01*
X81596200Y-53462500D02*
X81596200Y-61515400D01*
X81596200Y-61515400D02*
X79403500Y-63708200D01*
X79403500Y-63708200D02*
X81250300Y-65555000D01*
X64342000Y-69715200D02*
X64342000Y-75444600D01*
X64342000Y-75444600D02*
X69323000Y-80425600D01*
X69323000Y-80425600D02*
X69323000Y-81665400D01*
X72870500Y-65726400D02*
X68330800Y-65726400D01*
X68330800Y-65726400D02*
X64342000Y-69715200D01*
%TD*%
M02*
