%TF.GenerationSoftware,KiCad,Pcbnew,10.0.6*%
%TF.CreationDate,2026-09-12T18:39:02+09:00*%
%TF.ProjectId,hub_power,6875625f-706f-4776-9572-2e6b69636164,rev?*%
%TF.SameCoordinates,Original*%
%TF.FileFunction,Legend,Top*%
%TF.FilePolarity,Positive*%
%FSLAX46Y46*%
G04 Gerber Fmt 4.6, Leading zero omitted, Abs format (unit mm)*
G04 Created by KiCad (PCBNEW 10.0.6) date 2026-09-12 18:39:02*
%MOMM*%
%LPD*%
G01*
G04 APERTURE LIST*
%ADD10C,0.120000*%
G04 APERTURE END LIST*
D10*
X129753333Y-65523855D02*
X129753333Y-66095283D01*
X129753333Y-66095283D02*
X129715238Y-66209569D01*
X129715238Y-66209569D02*
X129639047Y-66285760D01*
X129639047Y-66285760D02*
X129524762Y-66323855D01*
X129524762Y-66323855D02*
X129448571Y-66323855D01*
X130477143Y-65790521D02*
X130477143Y-66323855D01*
X130286667Y-65485760D02*
X130096190Y-66057188D01*
X130096190Y-66057188D02*
X130591429Y-66057188D01*
X129753333Y-55363855D02*
X129753333Y-55935283D01*
X129753333Y-55935283D02*
X129715238Y-56049569D01*
X129715238Y-56049569D02*
X129639047Y-56125760D01*
X129639047Y-56125760D02*
X129524762Y-56163855D01*
X129524762Y-56163855D02*
X129448571Y-56163855D01*
X130515238Y-55363855D02*
X130134286Y-55363855D01*
X130134286Y-55363855D02*
X130096190Y-55744807D01*
X130096190Y-55744807D02*
X130134286Y-55706712D01*
X130134286Y-55706712D02*
X130210476Y-55668617D01*
X130210476Y-55668617D02*
X130400952Y-55668617D01*
X130400952Y-55668617D02*
X130477143Y-55706712D01*
X130477143Y-55706712D02*
X130515238Y-55744807D01*
X130515238Y-55744807D02*
X130553333Y-55820998D01*
X130553333Y-55820998D02*
X130553333Y-56011474D01*
X130553333Y-56011474D02*
X130515238Y-56087664D01*
X130515238Y-56087664D02*
X130477143Y-56125760D01*
X130477143Y-56125760D02*
X130400952Y-56163855D01*
X130400952Y-56163855D02*
X130210476Y-56163855D01*
X130210476Y-56163855D02*
X130134286Y-56125760D01*
X130134286Y-56125760D02*
X130096190Y-56087664D01*
X78993333Y-88423855D02*
X78993333Y-88995283D01*
X78993333Y-88995283D02*
X78955238Y-89109569D01*
X78955238Y-89109569D02*
X78879047Y-89185760D01*
X78879047Y-89185760D02*
X78764762Y-89223855D01*
X78764762Y-89223855D02*
X78688571Y-89223855D01*
X79793333Y-89223855D02*
X79336190Y-89223855D01*
X79564762Y-89223855D02*
X79564762Y-88423855D01*
X79564762Y-88423855D02*
X79488571Y-88538140D01*
X79488571Y-88538140D02*
X79412381Y-88614331D01*
X79412381Y-88614331D02*
X79336190Y-88652426D01*
X81533333Y-78263855D02*
X81533333Y-78835283D01*
X81533333Y-78835283D02*
X81495238Y-78949569D01*
X81495238Y-78949569D02*
X81419047Y-79025760D01*
X81419047Y-79025760D02*
X81304762Y-79063855D01*
X81304762Y-79063855D02*
X81228571Y-79063855D01*
X81838095Y-78263855D02*
X82333333Y-78263855D01*
X82333333Y-78263855D02*
X82066667Y-78568617D01*
X82066667Y-78568617D02*
X82180952Y-78568617D01*
X82180952Y-78568617D02*
X82257143Y-78606712D01*
X82257143Y-78606712D02*
X82295238Y-78644807D01*
X82295238Y-78644807D02*
X82333333Y-78720998D01*
X82333333Y-78720998D02*
X82333333Y-78911474D01*
X82333333Y-78911474D02*
X82295238Y-78987664D01*
X82295238Y-78987664D02*
X82257143Y-79025760D01*
X82257143Y-79025760D02*
X82180952Y-79063855D01*
X82180952Y-79063855D02*
X81952381Y-79063855D01*
X81952381Y-79063855D02*
X81876190Y-79025760D01*
X81876190Y-79025760D02*
X81838095Y-78987664D01*
X68793333Y-75683855D02*
X68793333Y-76255283D01*
X68793333Y-76255283D02*
X68755238Y-76369569D01*
X68755238Y-76369569D02*
X68679047Y-76445760D01*
X68679047Y-76445760D02*
X68564762Y-76483855D01*
X68564762Y-76483855D02*
X68488571Y-76483855D01*
X69136190Y-75760045D02*
X69174286Y-75721950D01*
X69174286Y-75721950D02*
X69250476Y-75683855D01*
X69250476Y-75683855D02*
X69440952Y-75683855D01*
X69440952Y-75683855D02*
X69517143Y-75721950D01*
X69517143Y-75721950D02*
X69555238Y-75760045D01*
X69555238Y-75760045D02*
X69593333Y-75836236D01*
X69593333Y-75836236D02*
X69593333Y-75912426D01*
X69593333Y-75912426D02*
X69555238Y-76026712D01*
X69555238Y-76026712D02*
X69098095Y-76483855D01*
X69098095Y-76483855D02*
X69593333Y-76483855D01*
X106933333Y-42703855D02*
X106933333Y-43275283D01*
X106933333Y-43275283D02*
X106895238Y-43389569D01*
X106895238Y-43389569D02*
X106819047Y-43465760D01*
X106819047Y-43465760D02*
X106704762Y-43503855D01*
X106704762Y-43503855D02*
X106628571Y-43503855D01*
X107657143Y-42703855D02*
X107504762Y-42703855D01*
X107504762Y-42703855D02*
X107428571Y-42741950D01*
X107428571Y-42741950D02*
X107390476Y-42780045D01*
X107390476Y-42780045D02*
X107314286Y-42894331D01*
X107314286Y-42894331D02*
X107276190Y-43046712D01*
X107276190Y-43046712D02*
X107276190Y-43351474D01*
X107276190Y-43351474D02*
X107314286Y-43427664D01*
X107314286Y-43427664D02*
X107352381Y-43465760D01*
X107352381Y-43465760D02*
X107428571Y-43503855D01*
X107428571Y-43503855D02*
X107580952Y-43503855D01*
X107580952Y-43503855D02*
X107657143Y-43465760D01*
X107657143Y-43465760D02*
X107695238Y-43427664D01*
X107695238Y-43427664D02*
X107733333Y-43351474D01*
X107733333Y-43351474D02*
X107733333Y-43160998D01*
X107733333Y-43160998D02*
X107695238Y-43084807D01*
X107695238Y-43084807D02*
X107657143Y-43046712D01*
X107657143Y-43046712D02*
X107580952Y-43008617D01*
X107580952Y-43008617D02*
X107428571Y-43008617D01*
X107428571Y-43008617D02*
X107352381Y-43046712D01*
X107352381Y-43046712D02*
X107314286Y-43084807D01*
X107314286Y-43084807D02*
X107276190Y-43160998D01*
X99313333Y-42703855D02*
X99313333Y-43275283D01*
X99313333Y-43275283D02*
X99275238Y-43389569D01*
X99275238Y-43389569D02*
X99199047Y-43465760D01*
X99199047Y-43465760D02*
X99084762Y-43503855D01*
X99084762Y-43503855D02*
X99008571Y-43503855D01*
X99618095Y-42703855D02*
X100151429Y-42703855D01*
X100151429Y-42703855D02*
X99808571Y-43503855D01*
X66253333Y-52823855D02*
X66253333Y-53395283D01*
X66253333Y-53395283D02*
X66215238Y-53509569D01*
X66215238Y-53509569D02*
X66139047Y-53585760D01*
X66139047Y-53585760D02*
X66024762Y-53623855D01*
X66024762Y-53623855D02*
X65948571Y-53623855D01*
X66748571Y-53166712D02*
X66672381Y-53128617D01*
X66672381Y-53128617D02*
X66634286Y-53090521D01*
X66634286Y-53090521D02*
X66596190Y-53014331D01*
X66596190Y-53014331D02*
X66596190Y-52976236D01*
X66596190Y-52976236D02*
X66634286Y-52900045D01*
X66634286Y-52900045D02*
X66672381Y-52861950D01*
X66672381Y-52861950D02*
X66748571Y-52823855D01*
X66748571Y-52823855D02*
X66900952Y-52823855D01*
X66900952Y-52823855D02*
X66977143Y-52861950D01*
X66977143Y-52861950D02*
X67015238Y-52900045D01*
X67015238Y-52900045D02*
X67053333Y-52976236D01*
X67053333Y-52976236D02*
X67053333Y-53014331D01*
X67053333Y-53014331D02*
X67015238Y-53090521D01*
X67015238Y-53090521D02*
X66977143Y-53128617D01*
X66977143Y-53128617D02*
X66900952Y-53166712D01*
X66900952Y-53166712D02*
X66748571Y-53166712D01*
X66748571Y-53166712D02*
X66672381Y-53204807D01*
X66672381Y-53204807D02*
X66634286Y-53242902D01*
X66634286Y-53242902D02*
X66596190Y-53319093D01*
X66596190Y-53319093D02*
X66596190Y-53471474D01*
X66596190Y-53471474D02*
X66634286Y-53547664D01*
X66634286Y-53547664D02*
X66672381Y-53585760D01*
X66672381Y-53585760D02*
X66748571Y-53623855D01*
X66748571Y-53623855D02*
X66900952Y-53623855D01*
X66900952Y-53623855D02*
X66977143Y-53585760D01*
X66977143Y-53585760D02*
X67015238Y-53547664D01*
X67015238Y-53547664D02*
X67053333Y-53471474D01*
X67053333Y-53471474D02*
X67053333Y-53319093D01*
X67053333Y-53319093D02*
X67015238Y-53242902D01*
X67015238Y-53242902D02*
X66977143Y-53204807D01*
X66977143Y-53204807D02*
X66900952Y-53166712D01*
X78612380Y-42703855D02*
X78612380Y-43275283D01*
X78612380Y-43275283D02*
X78574285Y-43389569D01*
X78574285Y-43389569D02*
X78498094Y-43465760D01*
X78498094Y-43465760D02*
X78383809Y-43503855D01*
X78383809Y-43503855D02*
X78307618Y-43503855D01*
X79412380Y-43503855D02*
X78955237Y-43503855D01*
X79183809Y-43503855D02*
X79183809Y-42703855D01*
X79183809Y-42703855D02*
X79107618Y-42818140D01*
X79107618Y-42818140D02*
X79031428Y-42894331D01*
X79031428Y-42894331D02*
X78955237Y-42932426D01*
X80174285Y-43503855D02*
X79717142Y-43503855D01*
X79945714Y-43503855D02*
X79945714Y-42703855D01*
X79945714Y-42703855D02*
X79869523Y-42818140D01*
X79869523Y-42818140D02*
X79793333Y-42894331D01*
X79793333Y-42894331D02*
X79717142Y-42932426D01*
X116805714Y-81643855D02*
X116539047Y-81262902D01*
X116348571Y-81643855D02*
X116348571Y-80843855D01*
X116348571Y-80843855D02*
X116653333Y-80843855D01*
X116653333Y-80843855D02*
X116729523Y-80881950D01*
X116729523Y-80881950D02*
X116767618Y-80920045D01*
X116767618Y-80920045D02*
X116805714Y-80996236D01*
X116805714Y-80996236D02*
X116805714Y-81110521D01*
X116805714Y-81110521D02*
X116767618Y-81186712D01*
X116767618Y-81186712D02*
X116729523Y-81224807D01*
X116729523Y-81224807D02*
X116653333Y-81262902D01*
X116653333Y-81262902D02*
X116348571Y-81262902D01*
X117072380Y-80843855D02*
X117567618Y-80843855D01*
X117567618Y-80843855D02*
X117300952Y-81148617D01*
X117300952Y-81148617D02*
X117415237Y-81148617D01*
X117415237Y-81148617D02*
X117491428Y-81186712D01*
X117491428Y-81186712D02*
X117529523Y-81224807D01*
X117529523Y-81224807D02*
X117567618Y-81300998D01*
X117567618Y-81300998D02*
X117567618Y-81491474D01*
X117567618Y-81491474D02*
X117529523Y-81567664D01*
X117529523Y-81567664D02*
X117491428Y-81605760D01*
X117491428Y-81605760D02*
X117415237Y-81643855D01*
X117415237Y-81643855D02*
X117186666Y-81643855D01*
X117186666Y-81643855D02*
X117110475Y-81605760D01*
X117110475Y-81605760D02*
X117072380Y-81567664D01*
X118329523Y-81643855D02*
X117872380Y-81643855D01*
X118100952Y-81643855D02*
X118100952Y-80843855D01*
X118100952Y-80843855D02*
X118024761Y-80958140D01*
X118024761Y-80958140D02*
X117948571Y-81034331D01*
X117948571Y-81034331D02*
X117872380Y-81072426D01*
X116805714Y-79103855D02*
X116539047Y-78722902D01*
X116348571Y-79103855D02*
X116348571Y-78303855D01*
X116348571Y-78303855D02*
X116653333Y-78303855D01*
X116653333Y-78303855D02*
X116729523Y-78341950D01*
X116729523Y-78341950D02*
X116767618Y-78380045D01*
X116767618Y-78380045D02*
X116805714Y-78456236D01*
X116805714Y-78456236D02*
X116805714Y-78570521D01*
X116805714Y-78570521D02*
X116767618Y-78646712D01*
X116767618Y-78646712D02*
X116729523Y-78684807D01*
X116729523Y-78684807D02*
X116653333Y-78722902D01*
X116653333Y-78722902D02*
X116348571Y-78722902D01*
X117072380Y-78303855D02*
X117567618Y-78303855D01*
X117567618Y-78303855D02*
X117300952Y-78608617D01*
X117300952Y-78608617D02*
X117415237Y-78608617D01*
X117415237Y-78608617D02*
X117491428Y-78646712D01*
X117491428Y-78646712D02*
X117529523Y-78684807D01*
X117529523Y-78684807D02*
X117567618Y-78760998D01*
X117567618Y-78760998D02*
X117567618Y-78951474D01*
X117567618Y-78951474D02*
X117529523Y-79027664D01*
X117529523Y-79027664D02*
X117491428Y-79065760D01*
X117491428Y-79065760D02*
X117415237Y-79103855D01*
X117415237Y-79103855D02*
X117186666Y-79103855D01*
X117186666Y-79103855D02*
X117110475Y-79065760D01*
X117110475Y-79065760D02*
X117072380Y-79027664D01*
X117872380Y-78380045D02*
X117910476Y-78341950D01*
X117910476Y-78341950D02*
X117986666Y-78303855D01*
X117986666Y-78303855D02*
X118177142Y-78303855D01*
X118177142Y-78303855D02*
X118253333Y-78341950D01*
X118253333Y-78341950D02*
X118291428Y-78380045D01*
X118291428Y-78380045D02*
X118329523Y-78456236D01*
X118329523Y-78456236D02*
X118329523Y-78532426D01*
X118329523Y-78532426D02*
X118291428Y-78646712D01*
X118291428Y-78646712D02*
X117834285Y-79103855D01*
X117834285Y-79103855D02*
X118329523Y-79103855D01*
X118888571Y-66403855D02*
X118888571Y-65603855D01*
X118888571Y-65603855D02*
X119079047Y-65603855D01*
X119079047Y-65603855D02*
X119193333Y-65641950D01*
X119193333Y-65641950D02*
X119269523Y-65718140D01*
X119269523Y-65718140D02*
X119307618Y-65794331D01*
X119307618Y-65794331D02*
X119345714Y-65946712D01*
X119345714Y-65946712D02*
X119345714Y-66060998D01*
X119345714Y-66060998D02*
X119307618Y-66213379D01*
X119307618Y-66213379D02*
X119269523Y-66289569D01*
X119269523Y-66289569D02*
X119193333Y-66365760D01*
X119193333Y-66365760D02*
X119079047Y-66403855D01*
X119079047Y-66403855D02*
X118888571Y-66403855D01*
X119612380Y-65603855D02*
X120107618Y-65603855D01*
X120107618Y-65603855D02*
X119840952Y-65908617D01*
X119840952Y-65908617D02*
X119955237Y-65908617D01*
X119955237Y-65908617D02*
X120031428Y-65946712D01*
X120031428Y-65946712D02*
X120069523Y-65984807D01*
X120069523Y-65984807D02*
X120107618Y-66060998D01*
X120107618Y-66060998D02*
X120107618Y-66251474D01*
X120107618Y-66251474D02*
X120069523Y-66327664D01*
X120069523Y-66327664D02*
X120031428Y-66365760D01*
X120031428Y-66365760D02*
X119955237Y-66403855D01*
X119955237Y-66403855D02*
X119726666Y-66403855D01*
X119726666Y-66403855D02*
X119650475Y-66365760D01*
X119650475Y-66365760D02*
X119612380Y-66327664D01*
X120869523Y-66403855D02*
X120412380Y-66403855D01*
X120640952Y-66403855D02*
X120640952Y-65603855D01*
X120640952Y-65603855D02*
X120564761Y-65718140D01*
X120564761Y-65718140D02*
X120488571Y-65794331D01*
X120488571Y-65794331D02*
X120412380Y-65832426D01*
X96525714Y-75177664D02*
X96487618Y-75215760D01*
X96487618Y-75215760D02*
X96373333Y-75253855D01*
X96373333Y-75253855D02*
X96297142Y-75253855D01*
X96297142Y-75253855D02*
X96182856Y-75215760D01*
X96182856Y-75215760D02*
X96106666Y-75139569D01*
X96106666Y-75139569D02*
X96068571Y-75063379D01*
X96068571Y-75063379D02*
X96030475Y-74910998D01*
X96030475Y-74910998D02*
X96030475Y-74796712D01*
X96030475Y-74796712D02*
X96068571Y-74644331D01*
X96068571Y-74644331D02*
X96106666Y-74568140D01*
X96106666Y-74568140D02*
X96182856Y-74491950D01*
X96182856Y-74491950D02*
X96297142Y-74453855D01*
X96297142Y-74453855D02*
X96373333Y-74453855D01*
X96373333Y-74453855D02*
X96487618Y-74491950D01*
X96487618Y-74491950D02*
X96525714Y-74530045D01*
X96792380Y-74453855D02*
X97287618Y-74453855D01*
X97287618Y-74453855D02*
X97020952Y-74758617D01*
X97020952Y-74758617D02*
X97135237Y-74758617D01*
X97135237Y-74758617D02*
X97211428Y-74796712D01*
X97211428Y-74796712D02*
X97249523Y-74834807D01*
X97249523Y-74834807D02*
X97287618Y-74910998D01*
X97287618Y-74910998D02*
X97287618Y-75101474D01*
X97287618Y-75101474D02*
X97249523Y-75177664D01*
X97249523Y-75177664D02*
X97211428Y-75215760D01*
X97211428Y-75215760D02*
X97135237Y-75253855D01*
X97135237Y-75253855D02*
X96906666Y-75253855D01*
X96906666Y-75253855D02*
X96830475Y-75215760D01*
X96830475Y-75215760D02*
X96792380Y-75177664D01*
X98049523Y-75253855D02*
X97592380Y-75253855D01*
X97820952Y-75253855D02*
X97820952Y-74453855D01*
X97820952Y-74453855D02*
X97744761Y-74568140D01*
X97744761Y-74568140D02*
X97668571Y-74644331D01*
X97668571Y-74644331D02*
X97592380Y-74682426D01*
X96525714Y-54857664D02*
X96487618Y-54895760D01*
X96487618Y-54895760D02*
X96373333Y-54933855D01*
X96373333Y-54933855D02*
X96297142Y-54933855D01*
X96297142Y-54933855D02*
X96182856Y-54895760D01*
X96182856Y-54895760D02*
X96106666Y-54819569D01*
X96106666Y-54819569D02*
X96068571Y-54743379D01*
X96068571Y-54743379D02*
X96030475Y-54590998D01*
X96030475Y-54590998D02*
X96030475Y-54476712D01*
X96030475Y-54476712D02*
X96068571Y-54324331D01*
X96068571Y-54324331D02*
X96106666Y-54248140D01*
X96106666Y-54248140D02*
X96182856Y-54171950D01*
X96182856Y-54171950D02*
X96297142Y-54133855D01*
X96297142Y-54133855D02*
X96373333Y-54133855D01*
X96373333Y-54133855D02*
X96487618Y-54171950D01*
X96487618Y-54171950D02*
X96525714Y-54210045D01*
X96792380Y-54133855D02*
X97287618Y-54133855D01*
X97287618Y-54133855D02*
X97020952Y-54438617D01*
X97020952Y-54438617D02*
X97135237Y-54438617D01*
X97135237Y-54438617D02*
X97211428Y-54476712D01*
X97211428Y-54476712D02*
X97249523Y-54514807D01*
X97249523Y-54514807D02*
X97287618Y-54590998D01*
X97287618Y-54590998D02*
X97287618Y-54781474D01*
X97287618Y-54781474D02*
X97249523Y-54857664D01*
X97249523Y-54857664D02*
X97211428Y-54895760D01*
X97211428Y-54895760D02*
X97135237Y-54933855D01*
X97135237Y-54933855D02*
X96906666Y-54933855D01*
X96906666Y-54933855D02*
X96830475Y-54895760D01*
X96830475Y-54895760D02*
X96792380Y-54857664D01*
X97592380Y-54210045D02*
X97630476Y-54171950D01*
X97630476Y-54171950D02*
X97706666Y-54133855D01*
X97706666Y-54133855D02*
X97897142Y-54133855D01*
X97897142Y-54133855D02*
X97973333Y-54171950D01*
X97973333Y-54171950D02*
X98011428Y-54210045D01*
X98011428Y-54210045D02*
X98049523Y-54286236D01*
X98049523Y-54286236D02*
X98049523Y-54362426D01*
X98049523Y-54362426D02*
X98011428Y-54476712D01*
X98011428Y-54476712D02*
X97554285Y-54933855D01*
X97554285Y-54933855D02*
X98049523Y-54933855D01*
X116862857Y-71560045D02*
X116786667Y-71521950D01*
X116786667Y-71521950D02*
X116710476Y-71445760D01*
X116710476Y-71445760D02*
X116596190Y-71331474D01*
X116596190Y-71331474D02*
X116520000Y-71293379D01*
X116520000Y-71293379D02*
X116443809Y-71293379D01*
X116481905Y-71483855D02*
X116405714Y-71445760D01*
X116405714Y-71445760D02*
X116329524Y-71369569D01*
X116329524Y-71369569D02*
X116291428Y-71217188D01*
X116291428Y-71217188D02*
X116291428Y-70950521D01*
X116291428Y-70950521D02*
X116329524Y-70798140D01*
X116329524Y-70798140D02*
X116405714Y-70721950D01*
X116405714Y-70721950D02*
X116481905Y-70683855D01*
X116481905Y-70683855D02*
X116634286Y-70683855D01*
X116634286Y-70683855D02*
X116710476Y-70721950D01*
X116710476Y-70721950D02*
X116786667Y-70798140D01*
X116786667Y-70798140D02*
X116824762Y-70950521D01*
X116824762Y-70950521D02*
X116824762Y-71217188D01*
X116824762Y-71217188D02*
X116786667Y-71369569D01*
X116786667Y-71369569D02*
X116710476Y-71445760D01*
X116710476Y-71445760D02*
X116634286Y-71483855D01*
X116634286Y-71483855D02*
X116481905Y-71483855D01*
X117091428Y-70683855D02*
X117586666Y-70683855D01*
X117586666Y-70683855D02*
X117320000Y-70988617D01*
X117320000Y-70988617D02*
X117434285Y-70988617D01*
X117434285Y-70988617D02*
X117510476Y-71026712D01*
X117510476Y-71026712D02*
X117548571Y-71064807D01*
X117548571Y-71064807D02*
X117586666Y-71140998D01*
X117586666Y-71140998D02*
X117586666Y-71331474D01*
X117586666Y-71331474D02*
X117548571Y-71407664D01*
X117548571Y-71407664D02*
X117510476Y-71445760D01*
X117510476Y-71445760D02*
X117434285Y-71483855D01*
X117434285Y-71483855D02*
X117205714Y-71483855D01*
X117205714Y-71483855D02*
X117129523Y-71445760D01*
X117129523Y-71445760D02*
X117091428Y-71407664D01*
X118348571Y-71483855D02*
X117891428Y-71483855D01*
X118120000Y-71483855D02*
X118120000Y-70683855D01*
X118120000Y-70683855D02*
X118043809Y-70798140D01*
X118043809Y-70798140D02*
X117967619Y-70874331D01*
X117967619Y-70874331D02*
X117891428Y-70912426D01*
X116348571Y-56243855D02*
X116348571Y-55443855D01*
X116805714Y-56243855D02*
X116462856Y-55786712D01*
X116805714Y-55443855D02*
X116348571Y-55900998D01*
X117072380Y-55443855D02*
X117567618Y-55443855D01*
X117567618Y-55443855D02*
X117300952Y-55748617D01*
X117300952Y-55748617D02*
X117415237Y-55748617D01*
X117415237Y-55748617D02*
X117491428Y-55786712D01*
X117491428Y-55786712D02*
X117529523Y-55824807D01*
X117529523Y-55824807D02*
X117567618Y-55900998D01*
X117567618Y-55900998D02*
X117567618Y-56091474D01*
X117567618Y-56091474D02*
X117529523Y-56167664D01*
X117529523Y-56167664D02*
X117491428Y-56205760D01*
X117491428Y-56205760D02*
X117415237Y-56243855D01*
X117415237Y-56243855D02*
X117186666Y-56243855D01*
X117186666Y-56243855D02*
X117110475Y-56205760D01*
X117110475Y-56205760D02*
X117072380Y-56167664D01*
X118329523Y-56243855D02*
X117872380Y-56243855D01*
X118100952Y-56243855D02*
X118100952Y-55443855D01*
X118100952Y-55443855D02*
X118024761Y-55558140D01*
X118024761Y-55558140D02*
X117948571Y-55634331D01*
X117948571Y-55634331D02*
X117872380Y-55672426D01*
X67502380Y-103563855D02*
X67502380Y-104135283D01*
X67502380Y-104135283D02*
X67464285Y-104249569D01*
X67464285Y-104249569D02*
X67388094Y-104325760D01*
X67388094Y-104325760D02*
X67273809Y-104363855D01*
X67273809Y-104363855D02*
X67197618Y-104363855D01*
X68302380Y-104363855D02*
X67845237Y-104363855D01*
X68073809Y-104363855D02*
X68073809Y-103563855D01*
X68073809Y-103563855D02*
X67997618Y-103678140D01*
X67997618Y-103678140D02*
X67921428Y-103754331D01*
X67921428Y-103754331D02*
X67845237Y-103792426D01*
X68569047Y-103563855D02*
X69064285Y-103563855D01*
X69064285Y-103563855D02*
X68797619Y-103868617D01*
X68797619Y-103868617D02*
X68911904Y-103868617D01*
X68911904Y-103868617D02*
X68988095Y-103906712D01*
X68988095Y-103906712D02*
X69026190Y-103944807D01*
X69026190Y-103944807D02*
X69064285Y-104020998D01*
X69064285Y-104020998D02*
X69064285Y-104211474D01*
X69064285Y-104211474D02*
X69026190Y-104287664D01*
X69026190Y-104287664D02*
X68988095Y-104325760D01*
X68988095Y-104325760D02*
X68911904Y-104363855D01*
X68911904Y-104363855D02*
X68683333Y-104363855D01*
X68683333Y-104363855D02*
X68607142Y-104325760D01*
X68607142Y-104325760D02*
X68569047Y-104287664D01*
X84485714Y-93563855D02*
X84219047Y-93182902D01*
X84028571Y-93563855D02*
X84028571Y-92763855D01*
X84028571Y-92763855D02*
X84333333Y-92763855D01*
X84333333Y-92763855D02*
X84409523Y-92801950D01*
X84409523Y-92801950D02*
X84447618Y-92840045D01*
X84447618Y-92840045D02*
X84485714Y-92916236D01*
X84485714Y-92916236D02*
X84485714Y-93030521D01*
X84485714Y-93030521D02*
X84447618Y-93106712D01*
X84447618Y-93106712D02*
X84409523Y-93144807D01*
X84409523Y-93144807D02*
X84333333Y-93182902D01*
X84333333Y-93182902D02*
X84028571Y-93182902D01*
X85171428Y-93030521D02*
X85171428Y-93563855D01*
X84980952Y-92725760D02*
X84790475Y-93297188D01*
X84790475Y-93297188D02*
X85285714Y-93297188D01*
X85933333Y-93030521D02*
X85933333Y-93563855D01*
X85742857Y-92725760D02*
X85552380Y-93297188D01*
X85552380Y-93297188D02*
X86047619Y-93297188D01*
X88485714Y-93563855D02*
X88219047Y-93182902D01*
X88028571Y-93563855D02*
X88028571Y-92763855D01*
X88028571Y-92763855D02*
X88333333Y-92763855D01*
X88333333Y-92763855D02*
X88409523Y-92801950D01*
X88409523Y-92801950D02*
X88447618Y-92840045D01*
X88447618Y-92840045D02*
X88485714Y-92916236D01*
X88485714Y-92916236D02*
X88485714Y-93030521D01*
X88485714Y-93030521D02*
X88447618Y-93106712D01*
X88447618Y-93106712D02*
X88409523Y-93144807D01*
X88409523Y-93144807D02*
X88333333Y-93182902D01*
X88333333Y-93182902D02*
X88028571Y-93182902D01*
X89171428Y-93030521D02*
X89171428Y-93563855D01*
X88980952Y-92725760D02*
X88790475Y-93297188D01*
X88790475Y-93297188D02*
X89285714Y-93297188D01*
X89971428Y-92763855D02*
X89590476Y-92763855D01*
X89590476Y-92763855D02*
X89552380Y-93144807D01*
X89552380Y-93144807D02*
X89590476Y-93106712D01*
X89590476Y-93106712D02*
X89666666Y-93068617D01*
X89666666Y-93068617D02*
X89857142Y-93068617D01*
X89857142Y-93068617D02*
X89933333Y-93106712D01*
X89933333Y-93106712D02*
X89971428Y-93144807D01*
X89971428Y-93144807D02*
X90009523Y-93220998D01*
X90009523Y-93220998D02*
X90009523Y-93411474D01*
X90009523Y-93411474D02*
X89971428Y-93487664D01*
X89971428Y-93487664D02*
X89933333Y-93525760D01*
X89933333Y-93525760D02*
X89857142Y-93563855D01*
X89857142Y-93563855D02*
X89666666Y-93563855D01*
X89666666Y-93563855D02*
X89590476Y-93525760D01*
X89590476Y-93525760D02*
X89552380Y-93487664D01*
X76866667Y-95787664D02*
X76828571Y-95825760D01*
X76828571Y-95825760D02*
X76714286Y-95863855D01*
X76714286Y-95863855D02*
X76638095Y-95863855D01*
X76638095Y-95863855D02*
X76523809Y-95825760D01*
X76523809Y-95825760D02*
X76447619Y-95749569D01*
X76447619Y-95749569D02*
X76409524Y-95673379D01*
X76409524Y-95673379D02*
X76371428Y-95520998D01*
X76371428Y-95520998D02*
X76371428Y-95406712D01*
X76371428Y-95406712D02*
X76409524Y-95254331D01*
X76409524Y-95254331D02*
X76447619Y-95178140D01*
X76447619Y-95178140D02*
X76523809Y-95101950D01*
X76523809Y-95101950D02*
X76638095Y-95063855D01*
X76638095Y-95063855D02*
X76714286Y-95063855D01*
X76714286Y-95063855D02*
X76828571Y-95101950D01*
X76828571Y-95101950D02*
X76866667Y-95140045D01*
X77323809Y-95406712D02*
X77247619Y-95368617D01*
X77247619Y-95368617D02*
X77209524Y-95330521D01*
X77209524Y-95330521D02*
X77171428Y-95254331D01*
X77171428Y-95254331D02*
X77171428Y-95216236D01*
X77171428Y-95216236D02*
X77209524Y-95140045D01*
X77209524Y-95140045D02*
X77247619Y-95101950D01*
X77247619Y-95101950D02*
X77323809Y-95063855D01*
X77323809Y-95063855D02*
X77476190Y-95063855D01*
X77476190Y-95063855D02*
X77552381Y-95101950D01*
X77552381Y-95101950D02*
X77590476Y-95140045D01*
X77590476Y-95140045D02*
X77628571Y-95216236D01*
X77628571Y-95216236D02*
X77628571Y-95254331D01*
X77628571Y-95254331D02*
X77590476Y-95330521D01*
X77590476Y-95330521D02*
X77552381Y-95368617D01*
X77552381Y-95368617D02*
X77476190Y-95406712D01*
X77476190Y-95406712D02*
X77323809Y-95406712D01*
X77323809Y-95406712D02*
X77247619Y-95444807D01*
X77247619Y-95444807D02*
X77209524Y-95482902D01*
X77209524Y-95482902D02*
X77171428Y-95559093D01*
X77171428Y-95559093D02*
X77171428Y-95711474D01*
X77171428Y-95711474D02*
X77209524Y-95787664D01*
X77209524Y-95787664D02*
X77247619Y-95825760D01*
X77247619Y-95825760D02*
X77323809Y-95863855D01*
X77323809Y-95863855D02*
X77476190Y-95863855D01*
X77476190Y-95863855D02*
X77552381Y-95825760D01*
X77552381Y-95825760D02*
X77590476Y-95787664D01*
X77590476Y-95787664D02*
X77628571Y-95711474D01*
X77628571Y-95711474D02*
X77628571Y-95559093D01*
X77628571Y-95559093D02*
X77590476Y-95482902D01*
X77590476Y-95482902D02*
X77552381Y-95444807D01*
X77552381Y-95444807D02*
X77476190Y-95406712D01*
X80866667Y-95787664D02*
X80828571Y-95825760D01*
X80828571Y-95825760D02*
X80714286Y-95863855D01*
X80714286Y-95863855D02*
X80638095Y-95863855D01*
X80638095Y-95863855D02*
X80523809Y-95825760D01*
X80523809Y-95825760D02*
X80447619Y-95749569D01*
X80447619Y-95749569D02*
X80409524Y-95673379D01*
X80409524Y-95673379D02*
X80371428Y-95520998D01*
X80371428Y-95520998D02*
X80371428Y-95406712D01*
X80371428Y-95406712D02*
X80409524Y-95254331D01*
X80409524Y-95254331D02*
X80447619Y-95178140D01*
X80447619Y-95178140D02*
X80523809Y-95101950D01*
X80523809Y-95101950D02*
X80638095Y-95063855D01*
X80638095Y-95063855D02*
X80714286Y-95063855D01*
X80714286Y-95063855D02*
X80828571Y-95101950D01*
X80828571Y-95101950D02*
X80866667Y-95140045D01*
X81133333Y-95063855D02*
X81666667Y-95063855D01*
X81666667Y-95063855D02*
X81323809Y-95863855D01*
X76390476Y-100563855D02*
X76390476Y-101211474D01*
X76390476Y-101211474D02*
X76428571Y-101287664D01*
X76428571Y-101287664D02*
X76466666Y-101325760D01*
X76466666Y-101325760D02*
X76542857Y-101363855D01*
X76542857Y-101363855D02*
X76695238Y-101363855D01*
X76695238Y-101363855D02*
X76771428Y-101325760D01*
X76771428Y-101325760D02*
X76809523Y-101287664D01*
X76809523Y-101287664D02*
X76847619Y-101211474D01*
X76847619Y-101211474D02*
X76847619Y-100563855D01*
X77190475Y-100640045D02*
X77228571Y-100601950D01*
X77228571Y-100601950D02*
X77304761Y-100563855D01*
X77304761Y-100563855D02*
X77495237Y-100563855D01*
X77495237Y-100563855D02*
X77571428Y-100601950D01*
X77571428Y-100601950D02*
X77609523Y-100640045D01*
X77609523Y-100640045D02*
X77647618Y-100716236D01*
X77647618Y-100716236D02*
X77647618Y-100792426D01*
X77647618Y-100792426D02*
X77609523Y-100906712D01*
X77609523Y-100906712D02*
X77152380Y-101363855D01*
X77152380Y-101363855D02*
X77647618Y-101363855D01*
X66366667Y-111430855D02*
X66100000Y-111049902D01*
X65909524Y-111430855D02*
X65909524Y-110630855D01*
X65909524Y-110630855D02*
X66214286Y-110630855D01*
X66214286Y-110630855D02*
X66290476Y-110668950D01*
X66290476Y-110668950D02*
X66328571Y-110707045D01*
X66328571Y-110707045D02*
X66366667Y-110783236D01*
X66366667Y-110783236D02*
X66366667Y-110897521D01*
X66366667Y-110897521D02*
X66328571Y-110973712D01*
X66328571Y-110973712D02*
X66290476Y-111011807D01*
X66290476Y-111011807D02*
X66214286Y-111049902D01*
X66214286Y-111049902D02*
X65909524Y-111049902D01*
X67052381Y-110630855D02*
X66900000Y-110630855D01*
X66900000Y-110630855D02*
X66823809Y-110668950D01*
X66823809Y-110668950D02*
X66785714Y-110707045D01*
X66785714Y-110707045D02*
X66709524Y-110821331D01*
X66709524Y-110821331D02*
X66671428Y-110973712D01*
X66671428Y-110973712D02*
X66671428Y-111278474D01*
X66671428Y-111278474D02*
X66709524Y-111354664D01*
X66709524Y-111354664D02*
X66747619Y-111392760D01*
X66747619Y-111392760D02*
X66823809Y-111430855D01*
X66823809Y-111430855D02*
X66976190Y-111430855D01*
X66976190Y-111430855D02*
X67052381Y-111392760D01*
X67052381Y-111392760D02*
X67090476Y-111354664D01*
X67090476Y-111354664D02*
X67128571Y-111278474D01*
X67128571Y-111278474D02*
X67128571Y-111087998D01*
X67128571Y-111087998D02*
X67090476Y-111011807D01*
X67090476Y-111011807D02*
X67052381Y-110973712D01*
X67052381Y-110973712D02*
X66976190Y-110935617D01*
X66976190Y-110935617D02*
X66823809Y-110935617D01*
X66823809Y-110935617D02*
X66747619Y-110973712D01*
X66747619Y-110973712D02*
X66709524Y-111011807D01*
X66709524Y-111011807D02*
X66671428Y-111087998D01*
X66366667Y-114941855D02*
X66100000Y-114560902D01*
X65909524Y-114941855D02*
X65909524Y-114141855D01*
X65909524Y-114141855D02*
X66214286Y-114141855D01*
X66214286Y-114141855D02*
X66290476Y-114179950D01*
X66290476Y-114179950D02*
X66328571Y-114218045D01*
X66328571Y-114218045D02*
X66366667Y-114294236D01*
X66366667Y-114294236D02*
X66366667Y-114408521D01*
X66366667Y-114408521D02*
X66328571Y-114484712D01*
X66328571Y-114484712D02*
X66290476Y-114522807D01*
X66290476Y-114522807D02*
X66214286Y-114560902D01*
X66214286Y-114560902D02*
X65909524Y-114560902D01*
X66633333Y-114141855D02*
X67166667Y-114141855D01*
X67166667Y-114141855D02*
X66823809Y-114941855D01*
X73485714Y-109863855D02*
X73219047Y-109482902D01*
X73028571Y-109863855D02*
X73028571Y-109063855D01*
X73028571Y-109063855D02*
X73333333Y-109063855D01*
X73333333Y-109063855D02*
X73409523Y-109101950D01*
X73409523Y-109101950D02*
X73447618Y-109140045D01*
X73447618Y-109140045D02*
X73485714Y-109216236D01*
X73485714Y-109216236D02*
X73485714Y-109330521D01*
X73485714Y-109330521D02*
X73447618Y-109406712D01*
X73447618Y-109406712D02*
X73409523Y-109444807D01*
X73409523Y-109444807D02*
X73333333Y-109482902D01*
X73333333Y-109482902D02*
X73028571Y-109482902D01*
X74247618Y-109863855D02*
X73790475Y-109863855D01*
X74019047Y-109863855D02*
X74019047Y-109063855D01*
X74019047Y-109063855D02*
X73942856Y-109178140D01*
X73942856Y-109178140D02*
X73866666Y-109254331D01*
X73866666Y-109254331D02*
X73790475Y-109292426D01*
X74933333Y-109063855D02*
X74780952Y-109063855D01*
X74780952Y-109063855D02*
X74704761Y-109101950D01*
X74704761Y-109101950D02*
X74666666Y-109140045D01*
X74666666Y-109140045D02*
X74590476Y-109254331D01*
X74590476Y-109254331D02*
X74552380Y-109406712D01*
X74552380Y-109406712D02*
X74552380Y-109711474D01*
X74552380Y-109711474D02*
X74590476Y-109787664D01*
X74590476Y-109787664D02*
X74628571Y-109825760D01*
X74628571Y-109825760D02*
X74704761Y-109863855D01*
X74704761Y-109863855D02*
X74857142Y-109863855D01*
X74857142Y-109863855D02*
X74933333Y-109825760D01*
X74933333Y-109825760D02*
X74971428Y-109787664D01*
X74971428Y-109787664D02*
X75009523Y-109711474D01*
X75009523Y-109711474D02*
X75009523Y-109520998D01*
X75009523Y-109520998D02*
X74971428Y-109444807D01*
X74971428Y-109444807D02*
X74933333Y-109406712D01*
X74933333Y-109406712D02*
X74857142Y-109368617D01*
X74857142Y-109368617D02*
X74704761Y-109368617D01*
X74704761Y-109368617D02*
X74628571Y-109406712D01*
X74628571Y-109406712D02*
X74590476Y-109444807D01*
X74590476Y-109444807D02*
X74552380Y-109520998D01*
X76985714Y-109863855D02*
X76719047Y-109482902D01*
X76528571Y-109863855D02*
X76528571Y-109063855D01*
X76528571Y-109063855D02*
X76833333Y-109063855D01*
X76833333Y-109063855D02*
X76909523Y-109101950D01*
X76909523Y-109101950D02*
X76947618Y-109140045D01*
X76947618Y-109140045D02*
X76985714Y-109216236D01*
X76985714Y-109216236D02*
X76985714Y-109330521D01*
X76985714Y-109330521D02*
X76947618Y-109406712D01*
X76947618Y-109406712D02*
X76909523Y-109444807D01*
X76909523Y-109444807D02*
X76833333Y-109482902D01*
X76833333Y-109482902D02*
X76528571Y-109482902D01*
X77747618Y-109863855D02*
X77290475Y-109863855D01*
X77519047Y-109863855D02*
X77519047Y-109063855D01*
X77519047Y-109063855D02*
X77442856Y-109178140D01*
X77442856Y-109178140D02*
X77366666Y-109254331D01*
X77366666Y-109254331D02*
X77290475Y-109292426D01*
X78014285Y-109063855D02*
X78547619Y-109063855D01*
X78547619Y-109063855D02*
X78204761Y-109863855D01*
X80485714Y-109863855D02*
X80219047Y-109482902D01*
X80028571Y-109863855D02*
X80028571Y-109063855D01*
X80028571Y-109063855D02*
X80333333Y-109063855D01*
X80333333Y-109063855D02*
X80409523Y-109101950D01*
X80409523Y-109101950D02*
X80447618Y-109140045D01*
X80447618Y-109140045D02*
X80485714Y-109216236D01*
X80485714Y-109216236D02*
X80485714Y-109330521D01*
X80485714Y-109330521D02*
X80447618Y-109406712D01*
X80447618Y-109406712D02*
X80409523Y-109444807D01*
X80409523Y-109444807D02*
X80333333Y-109482902D01*
X80333333Y-109482902D02*
X80028571Y-109482902D01*
X81247618Y-109863855D02*
X80790475Y-109863855D01*
X81019047Y-109863855D02*
X81019047Y-109063855D01*
X81019047Y-109063855D02*
X80942856Y-109178140D01*
X80942856Y-109178140D02*
X80866666Y-109254331D01*
X80866666Y-109254331D02*
X80790475Y-109292426D01*
X81971428Y-109063855D02*
X81590476Y-109063855D01*
X81590476Y-109063855D02*
X81552380Y-109444807D01*
X81552380Y-109444807D02*
X81590476Y-109406712D01*
X81590476Y-109406712D02*
X81666666Y-109368617D01*
X81666666Y-109368617D02*
X81857142Y-109368617D01*
X81857142Y-109368617D02*
X81933333Y-109406712D01*
X81933333Y-109406712D02*
X81971428Y-109444807D01*
X81971428Y-109444807D02*
X82009523Y-109520998D01*
X82009523Y-109520998D02*
X82009523Y-109711474D01*
X82009523Y-109711474D02*
X81971428Y-109787664D01*
X81971428Y-109787664D02*
X81933333Y-109825760D01*
X81933333Y-109825760D02*
X81857142Y-109863855D01*
X81857142Y-109863855D02*
X81666666Y-109863855D01*
X81666666Y-109863855D02*
X81590476Y-109825760D01*
X81590476Y-109825760D02*
X81552380Y-109787664D01*
X76604761Y-115863855D02*
X76223809Y-115863855D01*
X76223809Y-115863855D02*
X76223809Y-115063855D01*
X76871428Y-115444807D02*
X77138094Y-115444807D01*
X77252380Y-115863855D02*
X76871428Y-115863855D01*
X76871428Y-115863855D02*
X76871428Y-115063855D01*
X76871428Y-115063855D02*
X77252380Y-115063855D01*
X77595238Y-115863855D02*
X77595238Y-115063855D01*
X77595238Y-115063855D02*
X77785714Y-115063855D01*
X77785714Y-115063855D02*
X77900000Y-115101950D01*
X77900000Y-115101950D02*
X77976190Y-115178140D01*
X77976190Y-115178140D02*
X78014285Y-115254331D01*
X78014285Y-115254331D02*
X78052381Y-115406712D01*
X78052381Y-115406712D02*
X78052381Y-115520998D01*
X78052381Y-115520998D02*
X78014285Y-115673379D01*
X78014285Y-115673379D02*
X77976190Y-115749569D01*
X77976190Y-115749569D02*
X77900000Y-115825760D01*
X77900000Y-115825760D02*
X77785714Y-115863855D01*
X77785714Y-115863855D02*
X77595238Y-115863855D01*
X78738095Y-115330521D02*
X78738095Y-115863855D01*
X78547619Y-115025760D02*
X78357142Y-115597188D01*
X78357142Y-115597188D02*
X78852381Y-115597188D01*
X80866667Y-115863855D02*
X80600000Y-115482902D01*
X80409524Y-115863855D02*
X80409524Y-115063855D01*
X80409524Y-115063855D02*
X80714286Y-115063855D01*
X80714286Y-115063855D02*
X80790476Y-115101950D01*
X80790476Y-115101950D02*
X80828571Y-115140045D01*
X80828571Y-115140045D02*
X80866667Y-115216236D01*
X80866667Y-115216236D02*
X80866667Y-115330521D01*
X80866667Y-115330521D02*
X80828571Y-115406712D01*
X80828571Y-115406712D02*
X80790476Y-115444807D01*
X80790476Y-115444807D02*
X80714286Y-115482902D01*
X80714286Y-115482902D02*
X80409524Y-115482902D01*
X81323809Y-115406712D02*
X81247619Y-115368617D01*
X81247619Y-115368617D02*
X81209524Y-115330521D01*
X81209524Y-115330521D02*
X81171428Y-115254331D01*
X81171428Y-115254331D02*
X81171428Y-115216236D01*
X81171428Y-115216236D02*
X81209524Y-115140045D01*
X81209524Y-115140045D02*
X81247619Y-115101950D01*
X81247619Y-115101950D02*
X81323809Y-115063855D01*
X81323809Y-115063855D02*
X81476190Y-115063855D01*
X81476190Y-115063855D02*
X81552381Y-115101950D01*
X81552381Y-115101950D02*
X81590476Y-115140045D01*
X81590476Y-115140045D02*
X81628571Y-115216236D01*
X81628571Y-115216236D02*
X81628571Y-115254331D01*
X81628571Y-115254331D02*
X81590476Y-115330521D01*
X81590476Y-115330521D02*
X81552381Y-115368617D01*
X81552381Y-115368617D02*
X81476190Y-115406712D01*
X81476190Y-115406712D02*
X81323809Y-115406712D01*
X81323809Y-115406712D02*
X81247619Y-115444807D01*
X81247619Y-115444807D02*
X81209524Y-115482902D01*
X81209524Y-115482902D02*
X81171428Y-115559093D01*
X81171428Y-115559093D02*
X81171428Y-115711474D01*
X81171428Y-115711474D02*
X81209524Y-115787664D01*
X81209524Y-115787664D02*
X81247619Y-115825760D01*
X81247619Y-115825760D02*
X81323809Y-115863855D01*
X81323809Y-115863855D02*
X81476190Y-115863855D01*
X81476190Y-115863855D02*
X81552381Y-115825760D01*
X81552381Y-115825760D02*
X81590476Y-115787664D01*
X81590476Y-115787664D02*
X81628571Y-115711474D01*
X81628571Y-115711474D02*
X81628571Y-115559093D01*
X81628571Y-115559093D02*
X81590476Y-115482902D01*
X81590476Y-115482902D02*
X81552381Y-115444807D01*
X81552381Y-115444807D02*
X81476190Y-115406712D01*
X83604761Y-115863855D02*
X83223809Y-115863855D01*
X83223809Y-115863855D02*
X83223809Y-115063855D01*
X83871428Y-115444807D02*
X84138094Y-115444807D01*
X84252380Y-115863855D02*
X83871428Y-115863855D01*
X83871428Y-115863855D02*
X83871428Y-115063855D01*
X83871428Y-115063855D02*
X84252380Y-115063855D01*
X84595238Y-115863855D02*
X84595238Y-115063855D01*
X84595238Y-115063855D02*
X84785714Y-115063855D01*
X84785714Y-115063855D02*
X84900000Y-115101950D01*
X84900000Y-115101950D02*
X84976190Y-115178140D01*
X84976190Y-115178140D02*
X85014285Y-115254331D01*
X85014285Y-115254331D02*
X85052381Y-115406712D01*
X85052381Y-115406712D02*
X85052381Y-115520998D01*
X85052381Y-115520998D02*
X85014285Y-115673379D01*
X85014285Y-115673379D02*
X84976190Y-115749569D01*
X84976190Y-115749569D02*
X84900000Y-115825760D01*
X84900000Y-115825760D02*
X84785714Y-115863855D01*
X84785714Y-115863855D02*
X84595238Y-115863855D01*
X85319047Y-115063855D02*
X85814285Y-115063855D01*
X85814285Y-115063855D02*
X85547619Y-115368617D01*
X85547619Y-115368617D02*
X85661904Y-115368617D01*
X85661904Y-115368617D02*
X85738095Y-115406712D01*
X85738095Y-115406712D02*
X85776190Y-115444807D01*
X85776190Y-115444807D02*
X85814285Y-115520998D01*
X85814285Y-115520998D02*
X85814285Y-115711474D01*
X85814285Y-115711474D02*
X85776190Y-115787664D01*
X85776190Y-115787664D02*
X85738095Y-115825760D01*
X85738095Y-115825760D02*
X85661904Y-115863855D01*
X85661904Y-115863855D02*
X85433333Y-115863855D01*
X85433333Y-115863855D02*
X85357142Y-115825760D01*
X85357142Y-115825760D02*
X85319047Y-115787664D01*
X87485714Y-115863855D02*
X87219047Y-115482902D01*
X87028571Y-115863855D02*
X87028571Y-115063855D01*
X87028571Y-115063855D02*
X87333333Y-115063855D01*
X87333333Y-115063855D02*
X87409523Y-115101950D01*
X87409523Y-115101950D02*
X87447618Y-115140045D01*
X87447618Y-115140045D02*
X87485714Y-115216236D01*
X87485714Y-115216236D02*
X87485714Y-115330521D01*
X87485714Y-115330521D02*
X87447618Y-115406712D01*
X87447618Y-115406712D02*
X87409523Y-115444807D01*
X87409523Y-115444807D02*
X87333333Y-115482902D01*
X87333333Y-115482902D02*
X87028571Y-115482902D01*
X88247618Y-115863855D02*
X87790475Y-115863855D01*
X88019047Y-115863855D02*
X88019047Y-115063855D01*
X88019047Y-115063855D02*
X87942856Y-115178140D01*
X87942856Y-115178140D02*
X87866666Y-115254331D01*
X87866666Y-115254331D02*
X87790475Y-115292426D01*
X88933333Y-115330521D02*
X88933333Y-115863855D01*
X88742857Y-115025760D02*
X88552380Y-115597188D01*
X88552380Y-115597188D02*
X89047619Y-115597188D01*
X70352380Y-115813855D02*
X70352380Y-116385283D01*
X70352380Y-116385283D02*
X70314285Y-116499569D01*
X70314285Y-116499569D02*
X70238094Y-116575760D01*
X70238094Y-116575760D02*
X70123809Y-116613855D01*
X70123809Y-116613855D02*
X70047618Y-116613855D01*
X71152380Y-116613855D02*
X70695237Y-116613855D01*
X70923809Y-116613855D02*
X70923809Y-115813855D01*
X70923809Y-115813855D02*
X70847618Y-115928140D01*
X70847618Y-115928140D02*
X70771428Y-116004331D01*
X70771428Y-116004331D02*
X70695237Y-116042426D01*
X71647619Y-115813855D02*
X71723809Y-115813855D01*
X71723809Y-115813855D02*
X71800000Y-115851950D01*
X71800000Y-115851950D02*
X71838095Y-115890045D01*
X71838095Y-115890045D02*
X71876190Y-115966236D01*
X71876190Y-115966236D02*
X71914285Y-116118617D01*
X71914285Y-116118617D02*
X71914285Y-116309093D01*
X71914285Y-116309093D02*
X71876190Y-116461474D01*
X71876190Y-116461474D02*
X71838095Y-116537664D01*
X71838095Y-116537664D02*
X71800000Y-116575760D01*
X71800000Y-116575760D02*
X71723809Y-116613855D01*
X71723809Y-116613855D02*
X71647619Y-116613855D01*
X71647619Y-116613855D02*
X71571428Y-116575760D01*
X71571428Y-116575760D02*
X71533333Y-116537664D01*
X71533333Y-116537664D02*
X71495238Y-116461474D01*
X71495238Y-116461474D02*
X71457142Y-116309093D01*
X71457142Y-116309093D02*
X71457142Y-116118617D01*
X71457142Y-116118617D02*
X71495238Y-115966236D01*
X71495238Y-115966236D02*
X71533333Y-115890045D01*
X71533333Y-115890045D02*
X71571428Y-115851950D01*
X71571428Y-115851950D02*
X71647619Y-115813855D01*
X77485714Y-120363855D02*
X77219047Y-119982902D01*
X77028571Y-120363855D02*
X77028571Y-119563855D01*
X77028571Y-119563855D02*
X77333333Y-119563855D01*
X77333333Y-119563855D02*
X77409523Y-119601950D01*
X77409523Y-119601950D02*
X77447618Y-119640045D01*
X77447618Y-119640045D02*
X77485714Y-119716236D01*
X77485714Y-119716236D02*
X77485714Y-119830521D01*
X77485714Y-119830521D02*
X77447618Y-119906712D01*
X77447618Y-119906712D02*
X77409523Y-119944807D01*
X77409523Y-119944807D02*
X77333333Y-119982902D01*
X77333333Y-119982902D02*
X77028571Y-119982902D01*
X78171428Y-119830521D02*
X78171428Y-120363855D01*
X77980952Y-119525760D02*
X77790475Y-120097188D01*
X77790475Y-120097188D02*
X78285714Y-120097188D01*
X79009523Y-120363855D02*
X78552380Y-120363855D01*
X78780952Y-120363855D02*
X78780952Y-119563855D01*
X78780952Y-119563855D02*
X78704761Y-119678140D01*
X78704761Y-119678140D02*
X78628571Y-119754331D01*
X78628571Y-119754331D02*
X78552380Y-119792426D01*
X84390476Y-119563855D02*
X84390476Y-120211474D01*
X84390476Y-120211474D02*
X84428571Y-120287664D01*
X84428571Y-120287664D02*
X84466666Y-120325760D01*
X84466666Y-120325760D02*
X84542857Y-120363855D01*
X84542857Y-120363855D02*
X84695238Y-120363855D01*
X84695238Y-120363855D02*
X84771428Y-120325760D01*
X84771428Y-120325760D02*
X84809523Y-120287664D01*
X84809523Y-120287664D02*
X84847619Y-120211474D01*
X84847619Y-120211474D02*
X84847619Y-119563855D01*
X85152380Y-119563855D02*
X85647618Y-119563855D01*
X85647618Y-119563855D02*
X85380952Y-119868617D01*
X85380952Y-119868617D02*
X85495237Y-119868617D01*
X85495237Y-119868617D02*
X85571428Y-119906712D01*
X85571428Y-119906712D02*
X85609523Y-119944807D01*
X85609523Y-119944807D02*
X85647618Y-120020998D01*
X85647618Y-120020998D02*
X85647618Y-120211474D01*
X85647618Y-120211474D02*
X85609523Y-120287664D01*
X85609523Y-120287664D02*
X85571428Y-120325760D01*
X85571428Y-120325760D02*
X85495237Y-120363855D01*
X85495237Y-120363855D02*
X85266666Y-120363855D01*
X85266666Y-120363855D02*
X85190475Y-120325760D01*
X85190475Y-120325760D02*
X85152380Y-120287664D01*
X90485714Y-120287664D02*
X90447618Y-120325760D01*
X90447618Y-120325760D02*
X90333333Y-120363855D01*
X90333333Y-120363855D02*
X90257142Y-120363855D01*
X90257142Y-120363855D02*
X90142856Y-120325760D01*
X90142856Y-120325760D02*
X90066666Y-120249569D01*
X90066666Y-120249569D02*
X90028571Y-120173379D01*
X90028571Y-120173379D02*
X89990475Y-120020998D01*
X89990475Y-120020998D02*
X89990475Y-119906712D01*
X89990475Y-119906712D02*
X90028571Y-119754331D01*
X90028571Y-119754331D02*
X90066666Y-119678140D01*
X90066666Y-119678140D02*
X90142856Y-119601950D01*
X90142856Y-119601950D02*
X90257142Y-119563855D01*
X90257142Y-119563855D02*
X90333333Y-119563855D01*
X90333333Y-119563855D02*
X90447618Y-119601950D01*
X90447618Y-119601950D02*
X90485714Y-119640045D01*
X91171428Y-119830521D02*
X91171428Y-120363855D01*
X90980952Y-119525760D02*
X90790475Y-120097188D01*
X90790475Y-120097188D02*
X91285714Y-120097188D01*
X92009523Y-120363855D02*
X91552380Y-120363855D01*
X91780952Y-120363855D02*
X91780952Y-119563855D01*
X91780952Y-119563855D02*
X91704761Y-119678140D01*
X91704761Y-119678140D02*
X91628571Y-119754331D01*
X91628571Y-119754331D02*
X91552380Y-119792426D01*
X94485714Y-120363855D02*
X94219047Y-119982902D01*
X94028571Y-120363855D02*
X94028571Y-119563855D01*
X94028571Y-119563855D02*
X94333333Y-119563855D01*
X94333333Y-119563855D02*
X94409523Y-119601950D01*
X94409523Y-119601950D02*
X94447618Y-119640045D01*
X94447618Y-119640045D02*
X94485714Y-119716236D01*
X94485714Y-119716236D02*
X94485714Y-119830521D01*
X94485714Y-119830521D02*
X94447618Y-119906712D01*
X94447618Y-119906712D02*
X94409523Y-119944807D01*
X94409523Y-119944807D02*
X94333333Y-119982902D01*
X94333333Y-119982902D02*
X94028571Y-119982902D01*
X95171428Y-119830521D02*
X95171428Y-120363855D01*
X94980952Y-119525760D02*
X94790475Y-120097188D01*
X94790475Y-120097188D02*
X95285714Y-120097188D01*
X95552380Y-119640045D02*
X95590476Y-119601950D01*
X95590476Y-119601950D02*
X95666666Y-119563855D01*
X95666666Y-119563855D02*
X95857142Y-119563855D01*
X95857142Y-119563855D02*
X95933333Y-119601950D01*
X95933333Y-119601950D02*
X95971428Y-119640045D01*
X95971428Y-119640045D02*
X96009523Y-119716236D01*
X96009523Y-119716236D02*
X96009523Y-119792426D01*
X96009523Y-119792426D02*
X95971428Y-119906712D01*
X95971428Y-119906712D02*
X95514285Y-120363855D01*
X95514285Y-120363855D02*
X96009523Y-120363855D01*
X97985714Y-120363855D02*
X97719047Y-119982902D01*
X97528571Y-120363855D02*
X97528571Y-119563855D01*
X97528571Y-119563855D02*
X97833333Y-119563855D01*
X97833333Y-119563855D02*
X97909523Y-119601950D01*
X97909523Y-119601950D02*
X97947618Y-119640045D01*
X97947618Y-119640045D02*
X97985714Y-119716236D01*
X97985714Y-119716236D02*
X97985714Y-119830521D01*
X97985714Y-119830521D02*
X97947618Y-119906712D01*
X97947618Y-119906712D02*
X97909523Y-119944807D01*
X97909523Y-119944807D02*
X97833333Y-119982902D01*
X97833333Y-119982902D02*
X97528571Y-119982902D01*
X98671428Y-119830521D02*
X98671428Y-120363855D01*
X98480952Y-119525760D02*
X98290475Y-120097188D01*
X98290475Y-120097188D02*
X98785714Y-120097188D01*
X99014285Y-119563855D02*
X99509523Y-119563855D01*
X99509523Y-119563855D02*
X99242857Y-119868617D01*
X99242857Y-119868617D02*
X99357142Y-119868617D01*
X99357142Y-119868617D02*
X99433333Y-119906712D01*
X99433333Y-119906712D02*
X99471428Y-119944807D01*
X99471428Y-119944807D02*
X99509523Y-120020998D01*
X99509523Y-120020998D02*
X99509523Y-120211474D01*
X99509523Y-120211474D02*
X99471428Y-120287664D01*
X99471428Y-120287664D02*
X99433333Y-120325760D01*
X99433333Y-120325760D02*
X99357142Y-120363855D01*
X99357142Y-120363855D02*
X99128571Y-120363855D01*
X99128571Y-120363855D02*
X99052380Y-120325760D01*
X99052380Y-120325760D02*
X99014285Y-120287664D01*
X100129380Y-94563855D02*
X100129380Y-95135283D01*
X100129380Y-95135283D02*
X100091285Y-95249569D01*
X100091285Y-95249569D02*
X100015094Y-95325760D01*
X100015094Y-95325760D02*
X99900809Y-95363855D01*
X99900809Y-95363855D02*
X99824618Y-95363855D01*
X100929380Y-95363855D02*
X100472237Y-95363855D01*
X100700809Y-95363855D02*
X100700809Y-94563855D01*
X100700809Y-94563855D02*
X100624618Y-94678140D01*
X100624618Y-94678140D02*
X100548428Y-94754331D01*
X100548428Y-94754331D02*
X100472237Y-94792426D01*
X101234142Y-94640045D02*
X101272238Y-94601950D01*
X101272238Y-94601950D02*
X101348428Y-94563855D01*
X101348428Y-94563855D02*
X101538904Y-94563855D01*
X101538904Y-94563855D02*
X101615095Y-94601950D01*
X101615095Y-94601950D02*
X101653190Y-94640045D01*
X101653190Y-94640045D02*
X101691285Y-94716236D01*
X101691285Y-94716236D02*
X101691285Y-94792426D01*
X101691285Y-94792426D02*
X101653190Y-94906712D01*
X101653190Y-94906712D02*
X101196047Y-95363855D01*
X101196047Y-95363855D02*
X101691285Y-95363855D01*
X92390476Y-98063855D02*
X92390476Y-98711474D01*
X92390476Y-98711474D02*
X92428571Y-98787664D01*
X92428571Y-98787664D02*
X92466666Y-98825760D01*
X92466666Y-98825760D02*
X92542857Y-98863855D01*
X92542857Y-98863855D02*
X92695238Y-98863855D01*
X92695238Y-98863855D02*
X92771428Y-98825760D01*
X92771428Y-98825760D02*
X92809523Y-98787664D01*
X92809523Y-98787664D02*
X92847619Y-98711474D01*
X92847619Y-98711474D02*
X92847619Y-98063855D01*
X93647618Y-98863855D02*
X93190475Y-98863855D01*
X93419047Y-98863855D02*
X93419047Y-98063855D01*
X93419047Y-98063855D02*
X93342856Y-98178140D01*
X93342856Y-98178140D02*
X93266666Y-98254331D01*
X93266666Y-98254331D02*
X93190475Y-98292426D01*
X85866666Y-97863855D02*
X85485714Y-97863855D01*
X85485714Y-97863855D02*
X85485714Y-97063855D01*
X86552380Y-97863855D02*
X86095237Y-97863855D01*
X86323809Y-97863855D02*
X86323809Y-97063855D01*
X86323809Y-97063855D02*
X86247618Y-97178140D01*
X86247618Y-97178140D02*
X86171428Y-97254331D01*
X86171428Y-97254331D02*
X86095237Y-97292426D01*
X84366667Y-103287664D02*
X84328571Y-103325760D01*
X84328571Y-103325760D02*
X84214286Y-103363855D01*
X84214286Y-103363855D02*
X84138095Y-103363855D01*
X84138095Y-103363855D02*
X84023809Y-103325760D01*
X84023809Y-103325760D02*
X83947619Y-103249569D01*
X83947619Y-103249569D02*
X83909524Y-103173379D01*
X83909524Y-103173379D02*
X83871428Y-103020998D01*
X83871428Y-103020998D02*
X83871428Y-102906712D01*
X83871428Y-102906712D02*
X83909524Y-102754331D01*
X83909524Y-102754331D02*
X83947619Y-102678140D01*
X83947619Y-102678140D02*
X84023809Y-102601950D01*
X84023809Y-102601950D02*
X84138095Y-102563855D01*
X84138095Y-102563855D02*
X84214286Y-102563855D01*
X84214286Y-102563855D02*
X84328571Y-102601950D01*
X84328571Y-102601950D02*
X84366667Y-102640045D01*
X85128571Y-103363855D02*
X84671428Y-103363855D01*
X84900000Y-103363855D02*
X84900000Y-102563855D01*
X84900000Y-102563855D02*
X84823809Y-102678140D01*
X84823809Y-102678140D02*
X84747619Y-102754331D01*
X84747619Y-102754331D02*
X84671428Y-102792426D01*
X87866667Y-103287664D02*
X87828571Y-103325760D01*
X87828571Y-103325760D02*
X87714286Y-103363855D01*
X87714286Y-103363855D02*
X87638095Y-103363855D01*
X87638095Y-103363855D02*
X87523809Y-103325760D01*
X87523809Y-103325760D02*
X87447619Y-103249569D01*
X87447619Y-103249569D02*
X87409524Y-103173379D01*
X87409524Y-103173379D02*
X87371428Y-103020998D01*
X87371428Y-103020998D02*
X87371428Y-102906712D01*
X87371428Y-102906712D02*
X87409524Y-102754331D01*
X87409524Y-102754331D02*
X87447619Y-102678140D01*
X87447619Y-102678140D02*
X87523809Y-102601950D01*
X87523809Y-102601950D02*
X87638095Y-102563855D01*
X87638095Y-102563855D02*
X87714286Y-102563855D01*
X87714286Y-102563855D02*
X87828571Y-102601950D01*
X87828571Y-102601950D02*
X87866667Y-102640045D01*
X88552381Y-102830521D02*
X88552381Y-103363855D01*
X88361905Y-102525760D02*
X88171428Y-103097188D01*
X88171428Y-103097188D02*
X88666667Y-103097188D01*
X88866667Y-106287664D02*
X88828571Y-106325760D01*
X88828571Y-106325760D02*
X88714286Y-106363855D01*
X88714286Y-106363855D02*
X88638095Y-106363855D01*
X88638095Y-106363855D02*
X88523809Y-106325760D01*
X88523809Y-106325760D02*
X88447619Y-106249569D01*
X88447619Y-106249569D02*
X88409524Y-106173379D01*
X88409524Y-106173379D02*
X88371428Y-106020998D01*
X88371428Y-106020998D02*
X88371428Y-105906712D01*
X88371428Y-105906712D02*
X88409524Y-105754331D01*
X88409524Y-105754331D02*
X88447619Y-105678140D01*
X88447619Y-105678140D02*
X88523809Y-105601950D01*
X88523809Y-105601950D02*
X88638095Y-105563855D01*
X88638095Y-105563855D02*
X88714286Y-105563855D01*
X88714286Y-105563855D02*
X88828571Y-105601950D01*
X88828571Y-105601950D02*
X88866667Y-105640045D01*
X89171428Y-105640045D02*
X89209524Y-105601950D01*
X89209524Y-105601950D02*
X89285714Y-105563855D01*
X89285714Y-105563855D02*
X89476190Y-105563855D01*
X89476190Y-105563855D02*
X89552381Y-105601950D01*
X89552381Y-105601950D02*
X89590476Y-105640045D01*
X89590476Y-105640045D02*
X89628571Y-105716236D01*
X89628571Y-105716236D02*
X89628571Y-105792426D01*
X89628571Y-105792426D02*
X89590476Y-105906712D01*
X89590476Y-105906712D02*
X89133333Y-106363855D01*
X89133333Y-106363855D02*
X89628571Y-106363855D01*
X94751667Y-107287664D02*
X94713571Y-107325760D01*
X94713571Y-107325760D02*
X94599286Y-107363855D01*
X94599286Y-107363855D02*
X94523095Y-107363855D01*
X94523095Y-107363855D02*
X94408809Y-107325760D01*
X94408809Y-107325760D02*
X94332619Y-107249569D01*
X94332619Y-107249569D02*
X94294524Y-107173379D01*
X94294524Y-107173379D02*
X94256428Y-107020998D01*
X94256428Y-107020998D02*
X94256428Y-106906712D01*
X94256428Y-106906712D02*
X94294524Y-106754331D01*
X94294524Y-106754331D02*
X94332619Y-106678140D01*
X94332619Y-106678140D02*
X94408809Y-106601950D01*
X94408809Y-106601950D02*
X94523095Y-106563855D01*
X94523095Y-106563855D02*
X94599286Y-106563855D01*
X94599286Y-106563855D02*
X94713571Y-106601950D01*
X94713571Y-106601950D02*
X94751667Y-106640045D01*
X95437381Y-106563855D02*
X95285000Y-106563855D01*
X95285000Y-106563855D02*
X95208809Y-106601950D01*
X95208809Y-106601950D02*
X95170714Y-106640045D01*
X95170714Y-106640045D02*
X95094524Y-106754331D01*
X95094524Y-106754331D02*
X95056428Y-106906712D01*
X95056428Y-106906712D02*
X95056428Y-107211474D01*
X95056428Y-107211474D02*
X95094524Y-107287664D01*
X95094524Y-107287664D02*
X95132619Y-107325760D01*
X95132619Y-107325760D02*
X95208809Y-107363855D01*
X95208809Y-107363855D02*
X95361190Y-107363855D01*
X95361190Y-107363855D02*
X95437381Y-107325760D01*
X95437381Y-107325760D02*
X95475476Y-107287664D01*
X95475476Y-107287664D02*
X95513571Y-107211474D01*
X95513571Y-107211474D02*
X95513571Y-107020998D01*
X95513571Y-107020998D02*
X95475476Y-106944807D01*
X95475476Y-106944807D02*
X95437381Y-106906712D01*
X95437381Y-106906712D02*
X95361190Y-106868617D01*
X95361190Y-106868617D02*
X95208809Y-106868617D01*
X95208809Y-106868617D02*
X95132619Y-106906712D01*
X95132619Y-106906712D02*
X95094524Y-106944807D01*
X95094524Y-106944807D02*
X95056428Y-107020998D01*
X92050667Y-107363855D02*
X91784000Y-106982902D01*
X91593524Y-107363855D02*
X91593524Y-106563855D01*
X91593524Y-106563855D02*
X91898286Y-106563855D01*
X91898286Y-106563855D02*
X91974476Y-106601950D01*
X91974476Y-106601950D02*
X92012571Y-106640045D01*
X92012571Y-106640045D02*
X92050667Y-106716236D01*
X92050667Y-106716236D02*
X92050667Y-106830521D01*
X92050667Y-106830521D02*
X92012571Y-106906712D01*
X92012571Y-106906712D02*
X91974476Y-106944807D01*
X91974476Y-106944807D02*
X91898286Y-106982902D01*
X91898286Y-106982902D02*
X91593524Y-106982902D01*
X92317333Y-106563855D02*
X92812571Y-106563855D01*
X92812571Y-106563855D02*
X92545905Y-106868617D01*
X92545905Y-106868617D02*
X92660190Y-106868617D01*
X92660190Y-106868617D02*
X92736381Y-106906712D01*
X92736381Y-106906712D02*
X92774476Y-106944807D01*
X92774476Y-106944807D02*
X92812571Y-107020998D01*
X92812571Y-107020998D02*
X92812571Y-107211474D01*
X92812571Y-107211474D02*
X92774476Y-107287664D01*
X92774476Y-107287664D02*
X92736381Y-107325760D01*
X92736381Y-107325760D02*
X92660190Y-107363855D01*
X92660190Y-107363855D02*
X92431619Y-107363855D01*
X92431619Y-107363855D02*
X92355428Y-107325760D01*
X92355428Y-107325760D02*
X92317333Y-107287664D01*
X94343667Y-111363855D02*
X94077000Y-110982902D01*
X93886524Y-111363855D02*
X93886524Y-110563855D01*
X93886524Y-110563855D02*
X94191286Y-110563855D01*
X94191286Y-110563855D02*
X94267476Y-110601950D01*
X94267476Y-110601950D02*
X94305571Y-110640045D01*
X94305571Y-110640045D02*
X94343667Y-110716236D01*
X94343667Y-110716236D02*
X94343667Y-110830521D01*
X94343667Y-110830521D02*
X94305571Y-110906712D01*
X94305571Y-110906712D02*
X94267476Y-110944807D01*
X94267476Y-110944807D02*
X94191286Y-110982902D01*
X94191286Y-110982902D02*
X93886524Y-110982902D01*
X95029381Y-110830521D02*
X95029381Y-111363855D01*
X94838905Y-110525760D02*
X94648428Y-111097188D01*
X94648428Y-111097188D02*
X95143667Y-111097188D01*
X83892667Y-107363855D02*
X83626000Y-106982902D01*
X83435524Y-107363855D02*
X83435524Y-106563855D01*
X83435524Y-106563855D02*
X83740286Y-106563855D01*
X83740286Y-106563855D02*
X83816476Y-106601950D01*
X83816476Y-106601950D02*
X83854571Y-106640045D01*
X83854571Y-106640045D02*
X83892667Y-106716236D01*
X83892667Y-106716236D02*
X83892667Y-106830521D01*
X83892667Y-106830521D02*
X83854571Y-106906712D01*
X83854571Y-106906712D02*
X83816476Y-106944807D01*
X83816476Y-106944807D02*
X83740286Y-106982902D01*
X83740286Y-106982902D02*
X83435524Y-106982902D01*
X84654571Y-107363855D02*
X84197428Y-107363855D01*
X84426000Y-107363855D02*
X84426000Y-106563855D01*
X84426000Y-106563855D02*
X84349809Y-106678140D01*
X84349809Y-106678140D02*
X84273619Y-106754331D01*
X84273619Y-106754331D02*
X84197428Y-106792426D01*
X87293667Y-107363855D02*
X87027000Y-106982902D01*
X86836524Y-107363855D02*
X86836524Y-106563855D01*
X86836524Y-106563855D02*
X87141286Y-106563855D01*
X87141286Y-106563855D02*
X87217476Y-106601950D01*
X87217476Y-106601950D02*
X87255571Y-106640045D01*
X87255571Y-106640045D02*
X87293667Y-106716236D01*
X87293667Y-106716236D02*
X87293667Y-106830521D01*
X87293667Y-106830521D02*
X87255571Y-106906712D01*
X87255571Y-106906712D02*
X87217476Y-106944807D01*
X87217476Y-106944807D02*
X87141286Y-106982902D01*
X87141286Y-106982902D02*
X86836524Y-106982902D01*
X87598428Y-106640045D02*
X87636524Y-106601950D01*
X87636524Y-106601950D02*
X87712714Y-106563855D01*
X87712714Y-106563855D02*
X87903190Y-106563855D01*
X87903190Y-106563855D02*
X87979381Y-106601950D01*
X87979381Y-106601950D02*
X88017476Y-106640045D01*
X88017476Y-106640045D02*
X88055571Y-106716236D01*
X88055571Y-106716236D02*
X88055571Y-106792426D01*
X88055571Y-106792426D02*
X88017476Y-106906712D01*
X88017476Y-106906712D02*
X87560333Y-107363855D01*
X87560333Y-107363855D02*
X88055571Y-107363855D01*
X94638714Y-100363855D02*
X94372047Y-99982902D01*
X94181571Y-100363855D02*
X94181571Y-99563855D01*
X94181571Y-99563855D02*
X94486333Y-99563855D01*
X94486333Y-99563855D02*
X94562523Y-99601950D01*
X94562523Y-99601950D02*
X94600618Y-99640045D01*
X94600618Y-99640045D02*
X94638714Y-99716236D01*
X94638714Y-99716236D02*
X94638714Y-99830521D01*
X94638714Y-99830521D02*
X94600618Y-99906712D01*
X94600618Y-99906712D02*
X94562523Y-99944807D01*
X94562523Y-99944807D02*
X94486333Y-99982902D01*
X94486333Y-99982902D02*
X94181571Y-99982902D01*
X95400618Y-100363855D02*
X94943475Y-100363855D01*
X95172047Y-100363855D02*
X95172047Y-99563855D01*
X95172047Y-99563855D02*
X95095856Y-99678140D01*
X95095856Y-99678140D02*
X95019666Y-99754331D01*
X95019666Y-99754331D02*
X94943475Y-99792426D01*
X95667285Y-99563855D02*
X96162523Y-99563855D01*
X96162523Y-99563855D02*
X95895857Y-99868617D01*
X95895857Y-99868617D02*
X96010142Y-99868617D01*
X96010142Y-99868617D02*
X96086333Y-99906712D01*
X96086333Y-99906712D02*
X96124428Y-99944807D01*
X96124428Y-99944807D02*
X96162523Y-100020998D01*
X96162523Y-100020998D02*
X96162523Y-100211474D01*
X96162523Y-100211474D02*
X96124428Y-100287664D01*
X96124428Y-100287664D02*
X96086333Y-100325760D01*
X96086333Y-100325760D02*
X96010142Y-100363855D01*
X96010142Y-100363855D02*
X95781571Y-100363855D01*
X95781571Y-100363855D02*
X95705380Y-100325760D01*
X95705380Y-100325760D02*
X95667285Y-100287664D01*
X86923809Y-111940045D02*
X86847619Y-111901950D01*
X86847619Y-111901950D02*
X86771428Y-111825760D01*
X86771428Y-111825760D02*
X86657142Y-111711474D01*
X86657142Y-111711474D02*
X86580952Y-111673379D01*
X86580952Y-111673379D02*
X86504761Y-111673379D01*
X86542857Y-111863855D02*
X86466666Y-111825760D01*
X86466666Y-111825760D02*
X86390476Y-111749569D01*
X86390476Y-111749569D02*
X86352380Y-111597188D01*
X86352380Y-111597188D02*
X86352380Y-111330521D01*
X86352380Y-111330521D02*
X86390476Y-111178140D01*
X86390476Y-111178140D02*
X86466666Y-111101950D01*
X86466666Y-111101950D02*
X86542857Y-111063855D01*
X86542857Y-111063855D02*
X86695238Y-111063855D01*
X86695238Y-111063855D02*
X86771428Y-111101950D01*
X86771428Y-111101950D02*
X86847619Y-111178140D01*
X86847619Y-111178140D02*
X86885714Y-111330521D01*
X86885714Y-111330521D02*
X86885714Y-111597188D01*
X86885714Y-111597188D02*
X86847619Y-111749569D01*
X86847619Y-111749569D02*
X86771428Y-111825760D01*
X86771428Y-111825760D02*
X86695238Y-111863855D01*
X86695238Y-111863855D02*
X86542857Y-111863855D01*
X87647618Y-111863855D02*
X87190475Y-111863855D01*
X87419047Y-111863855D02*
X87419047Y-111063855D01*
X87419047Y-111063855D02*
X87342856Y-111178140D01*
X87342856Y-111178140D02*
X87266666Y-111254331D01*
X87266666Y-111254331D02*
X87190475Y-111292426D01*
X90485714Y-111863855D02*
X90219047Y-111482902D01*
X90028571Y-111863855D02*
X90028571Y-111063855D01*
X90028571Y-111063855D02*
X90333333Y-111063855D01*
X90333333Y-111063855D02*
X90409523Y-111101950D01*
X90409523Y-111101950D02*
X90447618Y-111140045D01*
X90447618Y-111140045D02*
X90485714Y-111216236D01*
X90485714Y-111216236D02*
X90485714Y-111330521D01*
X90485714Y-111330521D02*
X90447618Y-111406712D01*
X90447618Y-111406712D02*
X90409523Y-111444807D01*
X90409523Y-111444807D02*
X90333333Y-111482902D01*
X90333333Y-111482902D02*
X90028571Y-111482902D01*
X90790475Y-111140045D02*
X90828571Y-111101950D01*
X90828571Y-111101950D02*
X90904761Y-111063855D01*
X90904761Y-111063855D02*
X91095237Y-111063855D01*
X91095237Y-111063855D02*
X91171428Y-111101950D01*
X91171428Y-111101950D02*
X91209523Y-111140045D01*
X91209523Y-111140045D02*
X91247618Y-111216236D01*
X91247618Y-111216236D02*
X91247618Y-111292426D01*
X91247618Y-111292426D02*
X91209523Y-111406712D01*
X91209523Y-111406712D02*
X90752380Y-111863855D01*
X90752380Y-111863855D02*
X91247618Y-111863855D01*
X91742857Y-111063855D02*
X91819047Y-111063855D01*
X91819047Y-111063855D02*
X91895238Y-111101950D01*
X91895238Y-111101950D02*
X91933333Y-111140045D01*
X91933333Y-111140045D02*
X91971428Y-111216236D01*
X91971428Y-111216236D02*
X92009523Y-111368617D01*
X92009523Y-111368617D02*
X92009523Y-111559093D01*
X92009523Y-111559093D02*
X91971428Y-111711474D01*
X91971428Y-111711474D02*
X91933333Y-111787664D01*
X91933333Y-111787664D02*
X91895238Y-111825760D01*
X91895238Y-111825760D02*
X91819047Y-111863855D01*
X91819047Y-111863855D02*
X91742857Y-111863855D01*
X91742857Y-111863855D02*
X91666666Y-111825760D01*
X91666666Y-111825760D02*
X91628571Y-111787664D01*
X91628571Y-111787664D02*
X91590476Y-111711474D01*
X91590476Y-111711474D02*
X91552380Y-111559093D01*
X91552380Y-111559093D02*
X91552380Y-111368617D01*
X91552380Y-111368617D02*
X91590476Y-111216236D01*
X91590476Y-111216236D02*
X91628571Y-111140045D01*
X91628571Y-111140045D02*
X91666666Y-111101950D01*
X91666666Y-111101950D02*
X91742857Y-111063855D01*
X93604761Y-111863855D02*
X93223809Y-111863855D01*
X93223809Y-111863855D02*
X93223809Y-111063855D01*
X93871428Y-111444807D02*
X94138094Y-111444807D01*
X94252380Y-111863855D02*
X93871428Y-111863855D01*
X93871428Y-111863855D02*
X93871428Y-111063855D01*
X93871428Y-111063855D02*
X94252380Y-111063855D01*
X94595238Y-111863855D02*
X94595238Y-111063855D01*
X94595238Y-111063855D02*
X94785714Y-111063855D01*
X94785714Y-111063855D02*
X94900000Y-111101950D01*
X94900000Y-111101950D02*
X94976190Y-111178140D01*
X94976190Y-111178140D02*
X95014285Y-111254331D01*
X95014285Y-111254331D02*
X95052381Y-111406712D01*
X95052381Y-111406712D02*
X95052381Y-111520998D01*
X95052381Y-111520998D02*
X95014285Y-111673379D01*
X95014285Y-111673379D02*
X94976190Y-111749569D01*
X94976190Y-111749569D02*
X94900000Y-111825760D01*
X94900000Y-111825760D02*
X94785714Y-111863855D01*
X94785714Y-111863855D02*
X94595238Y-111863855D01*
X95814285Y-111863855D02*
X95357142Y-111863855D01*
X95585714Y-111863855D02*
X95585714Y-111063855D01*
X95585714Y-111063855D02*
X95509523Y-111178140D01*
X95509523Y-111178140D02*
X95433333Y-111254331D01*
X95433333Y-111254331D02*
X95357142Y-111292426D01*
X90801667Y-108363855D02*
X90535000Y-107982902D01*
X90344524Y-108363855D02*
X90344524Y-107563855D01*
X90344524Y-107563855D02*
X90649286Y-107563855D01*
X90649286Y-107563855D02*
X90725476Y-107601950D01*
X90725476Y-107601950D02*
X90763571Y-107640045D01*
X90763571Y-107640045D02*
X90801667Y-107716236D01*
X90801667Y-107716236D02*
X90801667Y-107830521D01*
X90801667Y-107830521D02*
X90763571Y-107906712D01*
X90763571Y-107906712D02*
X90725476Y-107944807D01*
X90725476Y-107944807D02*
X90649286Y-107982902D01*
X90649286Y-107982902D02*
X90344524Y-107982902D01*
X91525476Y-107563855D02*
X91144524Y-107563855D01*
X91144524Y-107563855D02*
X91106428Y-107944807D01*
X91106428Y-107944807D02*
X91144524Y-107906712D01*
X91144524Y-107906712D02*
X91220714Y-107868617D01*
X91220714Y-107868617D02*
X91411190Y-107868617D01*
X91411190Y-107868617D02*
X91487381Y-107906712D01*
X91487381Y-107906712D02*
X91525476Y-107944807D01*
X91525476Y-107944807D02*
X91563571Y-108020998D01*
X91563571Y-108020998D02*
X91563571Y-108211474D01*
X91563571Y-108211474D02*
X91525476Y-108287664D01*
X91525476Y-108287664D02*
X91487381Y-108325760D01*
X91487381Y-108325760D02*
X91411190Y-108363855D01*
X91411190Y-108363855D02*
X91220714Y-108363855D01*
X91220714Y-108363855D02*
X91144524Y-108325760D01*
X91144524Y-108325760D02*
X91106428Y-108287664D01*
X93439761Y-108363855D02*
X93058809Y-108363855D01*
X93058809Y-108363855D02*
X93058809Y-107563855D01*
X93706428Y-107944807D02*
X93973094Y-107944807D01*
X94087380Y-108363855D02*
X93706428Y-108363855D01*
X93706428Y-108363855D02*
X93706428Y-107563855D01*
X93706428Y-107563855D02*
X94087380Y-107563855D01*
X94430238Y-108363855D02*
X94430238Y-107563855D01*
X94430238Y-107563855D02*
X94620714Y-107563855D01*
X94620714Y-107563855D02*
X94735000Y-107601950D01*
X94735000Y-107601950D02*
X94811190Y-107678140D01*
X94811190Y-107678140D02*
X94849285Y-107754331D01*
X94849285Y-107754331D02*
X94887381Y-107906712D01*
X94887381Y-107906712D02*
X94887381Y-108020998D01*
X94887381Y-108020998D02*
X94849285Y-108173379D01*
X94849285Y-108173379D02*
X94811190Y-108249569D01*
X94811190Y-108249569D02*
X94735000Y-108325760D01*
X94735000Y-108325760D02*
X94620714Y-108363855D01*
X94620714Y-108363855D02*
X94430238Y-108363855D01*
X95192142Y-107640045D02*
X95230238Y-107601950D01*
X95230238Y-107601950D02*
X95306428Y-107563855D01*
X95306428Y-107563855D02*
X95496904Y-107563855D01*
X95496904Y-107563855D02*
X95573095Y-107601950D01*
X95573095Y-107601950D02*
X95611190Y-107640045D01*
X95611190Y-107640045D02*
X95649285Y-107716236D01*
X95649285Y-107716236D02*
X95649285Y-107792426D01*
X95649285Y-107792426D02*
X95611190Y-107906712D01*
X95611190Y-107906712D02*
X95154047Y-108363855D01*
X95154047Y-108363855D02*
X95649285Y-108363855D01*
%TO.C,J4*%
X132380000Y-65570000D02*
X132380000Y-64320000D01*
X132080000Y-63960000D02*
X131470000Y-63960000D01*
X132080000Y-62660000D02*
X131470000Y-62660000D01*
X131470000Y-64660000D02*
X131470000Y-61160000D01*
X131470000Y-61160000D02*
X126570000Y-61160000D01*
X131130000Y-65570000D02*
X132380000Y-65570000D01*
X130620000Y-65470000D02*
X130620000Y-65270000D01*
X130320000Y-65470000D02*
X130620000Y-65470000D01*
X130320000Y-65370000D02*
X130620000Y-65370000D01*
X130320000Y-65270000D02*
X130320000Y-65470000D01*
X129520000Y-65270000D02*
X129520000Y-64660000D01*
X129520000Y-64660000D02*
X131470000Y-64660000D01*
X129120000Y-61660000D02*
X128920000Y-61660000D01*
X129120000Y-61160000D02*
X129120000Y-61660000D01*
X129020000Y-61160000D02*
X129020000Y-61660000D01*
X128920000Y-61660000D02*
X128920000Y-61160000D01*
X128520000Y-64660000D02*
X128520000Y-65270000D01*
X126570000Y-64660000D02*
X128520000Y-64660000D01*
X126570000Y-61160000D02*
X126570000Y-64660000D01*
X125960000Y-63960000D02*
X126570000Y-63960000D01*
X125960000Y-62660000D02*
X126570000Y-62660000D01*
X125960000Y-60550000D02*
X132080000Y-60550000D01*
X132080000Y-65270000D01*
X125960000Y-65270000D01*
X125960000Y-60550000D01*
%TO.C,J5*%
X132380000Y-55410000D02*
X132380000Y-54160000D01*
X132080000Y-53800000D02*
X131470000Y-53800000D01*
X132080000Y-52500000D02*
X131470000Y-52500000D01*
X131470000Y-54500000D02*
X131470000Y-51000000D01*
X131470000Y-51000000D02*
X126570000Y-51000000D01*
X131130000Y-55410000D02*
X132380000Y-55410000D01*
X130620000Y-55310000D02*
X130620000Y-55110000D01*
X130320000Y-55310000D02*
X130620000Y-55310000D01*
X130320000Y-55210000D02*
X130620000Y-55210000D01*
X130320000Y-55110000D02*
X130320000Y-55310000D01*
X129520000Y-55110000D02*
X129520000Y-54500000D01*
X129520000Y-54500000D02*
X131470000Y-54500000D01*
X129120000Y-51500000D02*
X128920000Y-51500000D01*
X129120000Y-51000000D02*
X129120000Y-51500000D01*
X129020000Y-51000000D02*
X129020000Y-51500000D01*
X128920000Y-51500000D02*
X128920000Y-51000000D01*
X128520000Y-54500000D02*
X128520000Y-55110000D01*
X126570000Y-54500000D02*
X128520000Y-54500000D01*
X126570000Y-51000000D02*
X126570000Y-54500000D01*
X125960000Y-53800000D02*
X126570000Y-53800000D01*
X125960000Y-52500000D02*
X126570000Y-52500000D01*
X125960000Y-50390000D02*
X132080000Y-50390000D01*
X132080000Y-55110000D01*
X125960000Y-55110000D01*
X125960000Y-50390000D01*
%TO.C,J1*%
X80380000Y-90240000D02*
X80380000Y-88860000D01*
X81760000Y-90240000D02*
X80380000Y-90240000D01*
X83030000Y-90240000D02*
X98380000Y-90240000D01*
X83030000Y-90240000D02*
X83030000Y-87480000D01*
X98380000Y-90240000D02*
X98380000Y-87480000D01*
X83030000Y-87480000D02*
X98380000Y-87480000D01*
%TO.C,J3*%
X82920000Y-80080000D02*
X82920000Y-78700000D01*
X84300000Y-80080000D02*
X82920000Y-80080000D01*
X85570000Y-80080000D02*
X93300000Y-80080000D01*
X85570000Y-80080000D02*
X85570000Y-77320000D01*
X93300000Y-80080000D02*
X93300000Y-77320000D01*
X85570000Y-77320000D02*
X93300000Y-77320000D01*
%TO.C,J2*%
X70440000Y-75000000D02*
X69060000Y-75000000D01*
X70440000Y-73620000D02*
X70440000Y-75000000D01*
X70440000Y-72350000D02*
X70440000Y-64620000D01*
X70440000Y-72350000D02*
X67680000Y-72350000D01*
X70440000Y-64620000D02*
X67680000Y-64620000D01*
X67680000Y-72350000D02*
X67680000Y-64620000D01*
%TO.C,J6*%
X108320000Y-44520000D02*
X108320000Y-43140000D01*
X109700000Y-44520000D02*
X108320000Y-44520000D01*
X110970000Y-44520000D02*
X113620000Y-44520000D01*
X110970000Y-44520000D02*
X110970000Y-41760000D01*
X113620000Y-44520000D02*
X113620000Y-41760000D01*
X110970000Y-41760000D02*
X113620000Y-41760000D01*
%TO.C,J7*%
X100700000Y-44520000D02*
X100700000Y-43140000D01*
X102080000Y-44520000D02*
X100700000Y-44520000D01*
X103350000Y-44520000D02*
X106000000Y-44520000D01*
X103350000Y-44520000D02*
X103350000Y-41760000D01*
X106000000Y-44520000D02*
X106000000Y-41760000D01*
X103350000Y-41760000D02*
X106000000Y-41760000D01*
%TO.C,J8*%
X67900000Y-52140000D02*
X66520000Y-52140000D01*
X67900000Y-50760000D02*
X67900000Y-52140000D01*
X67900000Y-49490000D02*
X67900000Y-46840000D01*
X67900000Y-49490000D02*
X65140000Y-49490000D01*
X67900000Y-46840000D02*
X65140000Y-46840000D01*
X65140000Y-49490000D02*
X65140000Y-46840000D01*
%TO.C,J11*%
X80380000Y-44520000D02*
X80380000Y-43140000D01*
X81760000Y-44520000D02*
X80380000Y-44520000D01*
X83030000Y-44520000D02*
X98380000Y-44520000D01*
X83030000Y-44520000D02*
X83030000Y-41760000D01*
X98380000Y-44520000D02*
X98380000Y-41760000D01*
X83030000Y-41760000D02*
X98380000Y-41760000D01*
%TO.C,R31*%
X117092936Y-83045000D02*
X117547064Y-83045000D01*
X117092936Y-84515000D02*
X117547064Y-84515000D01*
%TO.C,R32*%
X117092936Y-80505000D02*
X117547064Y-80505000D01*
X117092936Y-81975000D02*
X117547064Y-81975000D01*
%TO.C,D31*%
X117500000Y-67540000D02*
X117500000Y-69540000D01*
X117500000Y-67540000D02*
X121510000Y-67540000D01*
X117500000Y-69540000D02*
X121510000Y-69540000D01*
%TO.C,C31*%
X98805000Y-75151252D02*
X98805000Y-74628748D01*
X100275000Y-75151252D02*
X100275000Y-74628748D01*
%TO.C,C32*%
X98805000Y-54831252D02*
X98805000Y-54308748D01*
X100275000Y-54831252D02*
X100275000Y-54308748D01*
%TO.C,Q31*%
X116560000Y-72060000D02*
X118080000Y-72060000D01*
X116560000Y-72110000D02*
X116560000Y-72060000D01*
X116560000Y-74010000D02*
X116560000Y-73230000D01*
X116560000Y-75180000D02*
X116560000Y-75130000D01*
X118080000Y-72060000D02*
X118080000Y-73060000D01*
X118080000Y-74180000D02*
X118080000Y-75180000D01*
X118080000Y-75180000D02*
X116560000Y-75180000D01*
X116020000Y-73240000D02*
X116260000Y-73570000D01*
X115780000Y-73570000D01*
X116020000Y-73240000D01*
G36*
X116260000Y-73570000D02*
G01*
X115780000Y-73570000D01*
X116020000Y-73240000D01*
X116260000Y-73570000D01*
G37*
%TO.C,K31*%
X112220000Y-51180000D02*
X113420000Y-51180000D01*
X113420000Y-50780000D02*
X121120000Y-50780000D01*
X113420000Y-51180000D02*
X113420000Y-50780000D01*
X113420000Y-52880000D02*
X112220000Y-52880000D01*
X113420000Y-52880000D02*
X113420000Y-56180000D01*
X113420000Y-57880000D02*
X113420000Y-58880000D01*
X113420000Y-60480000D02*
X113420000Y-61380000D01*
X113420000Y-63080000D02*
X113420000Y-65880000D01*
X113420000Y-65880000D02*
X121120000Y-65880000D01*
X121120000Y-50780000D02*
X121120000Y-51180000D01*
X121120000Y-52880000D02*
X121120000Y-56180000D01*
X121120000Y-58880000D02*
X121120000Y-57880000D01*
X121120000Y-61380000D02*
X121120000Y-60480000D01*
X121120000Y-65880000D02*
X121120000Y-63080000D01*
%TO.C,J13*%
X67550000Y-99300000D02*
X65550000Y-99300000D01*
X63650000Y-99300000D02*
X61750000Y-99300000D01*
X61750000Y-99300000D02*
X61750000Y-108700000D01*
X67550000Y-108700000D02*
X65550000Y-108700000D01*
X63650000Y-108700000D02*
X61750000Y-108700000D01*
%TO.C,R44*%
X84772936Y-94965000D02*
X85227064Y-94965000D01*
X84772936Y-96435000D02*
X85227064Y-96435000D01*
%TO.C,R45*%
X88772936Y-94965000D02*
X89227064Y-94965000D01*
X88772936Y-96435000D02*
X89227064Y-96435000D01*
%TO.C,C8*%
X76738748Y-97265000D02*
X77261252Y-97265000D01*
X76738748Y-98735000D02*
X77261252Y-98735000D01*
%TO.C,C7*%
X80738748Y-97265000D02*
X81261252Y-97265000D01*
X80738748Y-98735000D02*
X81261252Y-98735000D01*
%TO.C,U2*%
X74890000Y-101390000D02*
X75615000Y-101390000D01*
X74890000Y-102115000D02*
X74890000Y-101390000D01*
X74890000Y-105610000D02*
X74890000Y-104885000D01*
X75615000Y-105610000D02*
X74890000Y-105610000D01*
X78385000Y-101390000D02*
X79110000Y-101390000D01*
X79110000Y-101390000D02*
X79110000Y-102115000D01*
X79110000Y-104885000D02*
X79110000Y-105610000D01*
X79110000Y-105610000D02*
X78385000Y-105610000D01*
X74390000Y-102500000D02*
X74060000Y-102740000D01*
X74060000Y-102260000D01*
X74390000Y-102500000D01*
G36*
X74390000Y-102500000D02*
G01*
X74060000Y-102740000D01*
X74060000Y-102260000D01*
X74390000Y-102500000D01*
G37*
%TO.C,R6*%
X68265000Y-111294064D02*
X68265000Y-110839936D01*
X69735000Y-111294064D02*
X69735000Y-110839936D01*
%TO.C,R7*%
X68265000Y-114805064D02*
X68265000Y-114350936D01*
X69735000Y-114805064D02*
X69735000Y-114350936D01*
%TO.C,R16*%
X73772936Y-111265000D02*
X74227064Y-111265000D01*
X73772936Y-112735000D02*
X74227064Y-112735000D01*
%TO.C,R17*%
X77272936Y-111265000D02*
X77727064Y-111265000D01*
X77272936Y-112735000D02*
X77727064Y-112735000D01*
%TO.C,R15*%
X80772936Y-111265000D02*
X81227064Y-111265000D01*
X80772936Y-112735000D02*
X81227064Y-112735000D01*
%TO.C,LED4*%
X75815000Y-117040000D02*
X75815000Y-118960000D01*
X75815000Y-118960000D02*
X78500000Y-118960000D01*
X78500000Y-117040000D02*
X75815000Y-117040000D01*
%TO.C,R8*%
X80772936Y-117265000D02*
X81227064Y-117265000D01*
X80772936Y-118735000D02*
X81227064Y-118735000D01*
%TO.C,LED3*%
X82815000Y-117040000D02*
X82815000Y-118960000D01*
X82815000Y-118960000D02*
X85500000Y-118960000D01*
X85500000Y-117040000D02*
X82815000Y-117040000D01*
%TO.C,R14*%
X87772936Y-117265000D02*
X88227064Y-117265000D01*
X87772936Y-118735000D02*
X88227064Y-118735000D01*
%TO.C,J10*%
X68940000Y-117290000D02*
X68940000Y-125110000D01*
X68940000Y-118890000D02*
X69860000Y-118890000D01*
X68940000Y-125110000D02*
X75060000Y-125110000D01*
X69860000Y-117290000D02*
X68940000Y-117290000D01*
X69860000Y-118890000D02*
X69860000Y-117290000D01*
X70140000Y-118890000D02*
X69860000Y-118890000D01*
X70140000Y-118890000D02*
X70140000Y-117675000D01*
X70200000Y-122850000D02*
X70200000Y-125110000D01*
X70700000Y-122850000D02*
X70700000Y-125110000D01*
X71500000Y-120750000D02*
X72500000Y-120750000D01*
X71500000Y-125110000D02*
X71500000Y-120750000D01*
X72500000Y-120750000D02*
X72500000Y-125110000D01*
X74140000Y-117290000D02*
X74140000Y-118890000D01*
X74140000Y-118890000D02*
X73860000Y-118890000D01*
X75060000Y-117290000D02*
X74140000Y-117290000D01*
X75060000Y-118890000D02*
X74140000Y-118890000D01*
X75060000Y-125110000D02*
X75060000Y-117290000D01*
X69700000Y-121250000D02*
X70700000Y-121250000D01*
X70700000Y-122850000D01*
X69700000Y-122850000D01*
X69700000Y-121250000D01*
X73300000Y-121250000D02*
X74300000Y-121250000D01*
X74300000Y-122850000D01*
X73300000Y-122850000D01*
X73300000Y-121250000D01*
%TO.C,R41*%
X77272936Y-121590000D02*
X78727064Y-121590000D01*
X77272936Y-123410000D02*
X78727064Y-123410000D01*
%TO.C,U3*%
X83390000Y-120890000D02*
X86610000Y-120890000D01*
X83390000Y-121090000D02*
X83390000Y-120890000D01*
X83390000Y-124110000D02*
X83390000Y-123910000D01*
X86610000Y-120890000D02*
X86610000Y-121090000D01*
X86610000Y-123910000D02*
X86610000Y-124110000D01*
X86610000Y-124110000D02*
X83390000Y-124110000D01*
X82840000Y-121090000D02*
X82600000Y-120760000D01*
X83080000Y-120760000D01*
X82840000Y-121090000D01*
G36*
X82840000Y-121090000D02*
G01*
X82600000Y-120760000D01*
X83080000Y-120760000D01*
X82840000Y-121090000D01*
G37*
%TO.C,C41*%
X90738748Y-121765000D02*
X91261252Y-121765000D01*
X90738748Y-123235000D02*
X91261252Y-123235000D01*
%TO.C,R42*%
X94772936Y-121765000D02*
X95227064Y-121765000D01*
X94772936Y-123235000D02*
X95227064Y-123235000D01*
%TO.C,R43*%
X98272936Y-121765000D02*
X98727064Y-121765000D01*
X98272936Y-123235000D02*
X98727064Y-123235000D01*
%TO.C,J12*%
X99397000Y-96120000D02*
X100777000Y-96120000D01*
X99397000Y-97500000D02*
X99397000Y-96120000D01*
X99397000Y-98770000D02*
X99397000Y-114120000D01*
X99397000Y-98770000D02*
X102157000Y-98770000D01*
X99397000Y-114120000D02*
X102157000Y-114120000D01*
X102157000Y-98770000D02*
X102157000Y-114120000D01*
%TO.C,U1*%
X90890000Y-98890000D02*
X91590000Y-98890000D01*
X90890000Y-99590000D02*
X90890000Y-98890000D01*
X90890000Y-103110000D02*
X90890000Y-102410000D01*
X91590000Y-103110000D02*
X90890000Y-103110000D01*
X94410000Y-98890000D02*
X95110000Y-98890000D01*
X95110000Y-98890000D02*
X95110000Y-99590000D01*
X95110000Y-102410000D02*
X95110000Y-103110000D01*
X95110000Y-103110000D02*
X94410000Y-103110000D01*
X90360000Y-100020000D02*
X90030000Y-100260000D01*
X90030000Y-99780000D01*
X90360000Y-100020000D01*
G36*
X90360000Y-100020000D02*
G01*
X90030000Y-100260000D01*
X90030000Y-99780000D01*
X90360000Y-100020000D01*
G37*
%TO.C,L1*%
X83890000Y-97890000D02*
X88110000Y-97890000D01*
X88110000Y-102110000D02*
X83890000Y-102110000D01*
%TO.C,C1*%
X84238748Y-104765000D02*
X84761252Y-104765000D01*
X84238748Y-106235000D02*
X84761252Y-106235000D01*
%TO.C,C4*%
X87738748Y-104765000D02*
X88261252Y-104765000D01*
X87738748Y-106235000D02*
X88261252Y-106235000D01*
%TO.C,C2*%
X90765000Y-106261252D02*
X90765000Y-105738748D01*
X92235000Y-106261252D02*
X92235000Y-105738748D01*
%TO.C,C6*%
X96025000Y-107711252D02*
X96025000Y-106288748D01*
X98745000Y-107711252D02*
X98745000Y-106288748D01*
%TO.C,R3*%
X93949000Y-107227064D02*
X93949000Y-106772936D01*
X95419000Y-107227064D02*
X95419000Y-106772936D01*
%TO.C,R4*%
X96242000Y-111227064D02*
X96242000Y-110772936D01*
X97712000Y-111227064D02*
X97712000Y-110772936D01*
%TO.C,R1*%
X83798936Y-108765000D02*
X84253064Y-108765000D01*
X83798936Y-110235000D02*
X84253064Y-110235000D01*
%TO.C,R2*%
X87199936Y-108765000D02*
X87654064Y-108765000D01*
X87199936Y-110235000D02*
X87654064Y-110235000D01*
%TO.C,R13*%
X96918000Y-100227064D02*
X96918000Y-99772936D01*
X98388000Y-100227064D02*
X98388000Y-99772936D01*
%TO.C,Q1*%
X86240000Y-112440000D02*
X87760000Y-112440000D01*
X86240000Y-112490000D02*
X86240000Y-112440000D01*
X86240000Y-114390000D02*
X86240000Y-113610000D01*
X86240000Y-115560000D02*
X86240000Y-115510000D01*
X87760000Y-112440000D02*
X87760000Y-113440000D01*
X87760000Y-114560000D02*
X87760000Y-115560000D01*
X87760000Y-115560000D02*
X86240000Y-115560000D01*
X85700000Y-113620000D02*
X85940000Y-113950000D01*
X85460000Y-113950000D01*
X85700000Y-113620000D01*
G36*
X85940000Y-113950000D02*
G01*
X85460000Y-113950000D01*
X85700000Y-113620000D01*
X85940000Y-113950000D01*
G37*
%TO.C,R20*%
X90772936Y-113265000D02*
X91227064Y-113265000D01*
X90772936Y-114735000D02*
X91227064Y-114735000D01*
%TO.C,LED1*%
X92815000Y-113040000D02*
X92815000Y-114960000D01*
X92815000Y-114960000D02*
X95500000Y-114960000D01*
X95500000Y-113040000D02*
X92815000Y-113040000D01*
%TO.C,R5*%
X90707936Y-109765000D02*
X91162064Y-109765000D01*
X90707936Y-111235000D02*
X91162064Y-111235000D01*
%TO.C,LED2*%
X92650000Y-109540000D02*
X92650000Y-111460000D01*
X92650000Y-111460000D02*
X95335000Y-111460000D01*
X95335000Y-109540000D02*
X92650000Y-109540000D01*
%TD*%
M02*
