%TF.GenerationSoftware,KiCad,Pcbnew,10.0.6*%
%TF.CreationDate,2026-09-13T18:37:29+09:00*%
%TF.ProjectId,hub_power,6875625f-706f-4776-9572-2e6b69636164,rev?*%
%TF.SameCoordinates,Original*%
%TF.FileFunction,Copper,L1,Top*%
%TF.FilePolarity,Positive*%
%FSLAX46Y46*%
G04 Gerber Fmt 4.6, Leading zero omitted, Abs format (unit mm)*
G04 Created by KiCad (PCBNEW 10.0.6) date 2026-09-13 18:37:29*
%MOMM*%
%LPD*%
G01*
G04 APERTURE LIST*
G04 Aperture macros list*
%AMRoundRect*
0 Rectangle with rounded corners*
0 $1 Rounding radius*
0 $2 $3 $4 $5 $6 $7 $8 $9 X,Y pos of 4 corners*
0 Add a 4 corners polygon primitive as box body*
4,1,4,$2,$3,$4,$5,$6,$7,$8,$9,$2,$3,0*
0 Add four circle primitives for the rounded corners*
1,1,$1+$1,$2,$3*
1,1,$1+$1,$4,$5*
1,1,$1+$1,$6,$7*
1,1,$1+$1,$8,$9*
0 Add four rect primitives between the rounded corners*
20,1,$1+$1,$2,$3,$4,$5,0*
20,1,$1+$1,$4,$5,$6,$7,0*
20,1,$1+$1,$6,$7,$8,$9,0*
20,1,$1+$1,$8,$9,$2,$3,0*%
G04 Aperture macros list end*
%TA.AperFunction,SMDPad,CuDef*%
%ADD10RoundRect,0.250000X-0.262500X-0.450000X0.262500X-0.450000X0.262500X0.450000X-0.262500X0.450000X0*%
%TD*%
%TA.AperFunction,SMDPad,CuDef*%
%ADD11RoundRect,0.250000X0.475000X-0.250000X0.475000X0.250000X-0.475000X0.250000X-0.475000X-0.250000X0*%
%TD*%
%TA.AperFunction,SMDPad,CuDef*%
%ADD12RoundRect,0.062500X0.062500X-0.350000X0.062500X0.350000X-0.062500X0.350000X-0.062500X-0.350000X0*%
%TD*%
%TA.AperFunction,SMDPad,CuDef*%
%ADD13RoundRect,0.062500X0.350000X-0.062500X0.350000X0.062500X-0.350000X0.062500X-0.350000X-0.062500X0*%
%TD*%
%TA.AperFunction,HeatsinkPad*%
%ADD14R,2.500000X2.500000*%
%TD*%
%TA.AperFunction,SMDPad,CuDef*%
%ADD15RoundRect,0.250000X0.262500X0.450000X-0.262500X0.450000X-0.262500X-0.450000X0.262500X-0.450000X0*%
%TD*%
%TA.AperFunction,SMDPad,CuDef*%
%ADD16RoundRect,0.250000X0.450000X-0.262500X0.450000X0.262500X-0.450000X0.262500X-0.450000X-0.262500X0*%
%TD*%
%TA.AperFunction,SMDPad,CuDef*%
%ADD17RoundRect,0.243750X0.456250X-0.243750X0.456250X0.243750X-0.456250X0.243750X-0.456250X-0.243750X0*%
%TD*%
%TA.AperFunction,SMDPad,CuDef*%
%ADD18RoundRect,0.250000X0.625000X-0.312500X0.625000X0.312500X-0.625000X0.312500X-0.625000X-0.312500X0*%
%TD*%
%TA.AperFunction,SMDPad,CuDef*%
%ADD19RoundRect,0.075000X0.075000X-0.650000X0.075000X0.650000X-0.075000X0.650000X-0.075000X-0.650000X0*%
%TD*%
%TA.AperFunction,SMDPad,CuDef*%
%ADD20RoundRect,0.087500X0.087500X-0.325000X0.087500X0.325000X-0.087500X0.325000X-0.087500X-0.325000X0*%
%TD*%
%TA.AperFunction,SMDPad,CuDef*%
%ADD21RoundRect,0.087500X0.325000X-0.087500X0.325000X0.087500X-0.325000X0.087500X-0.325000X-0.087500X0*%
%TD*%
%TA.AperFunction,HeatsinkPad*%
%ADD22R,2.700000X2.700000*%
%TD*%
%TA.AperFunction,SMDPad,CuDef*%
%ADD23RoundRect,0.250000X1.600000X-0.300000X1.600000X0.300000X-1.600000X0.300000X-1.600000X-0.300000X0*%
%TD*%
%TA.AperFunction,SMDPad,CuDef*%
%ADD24RoundRect,0.250000X0.250000X0.475000X-0.250000X0.475000X-0.250000X-0.475000X0.250000X-0.475000X0*%
%TD*%
%TA.AperFunction,SMDPad,CuDef*%
%ADD25RoundRect,0.250000X0.325000X0.650000X-0.325000X0.650000X-0.325000X-0.650000X0.325000X-0.650000X0*%
%TD*%
%TA.AperFunction,SMDPad,CuDef*%
%ADD26RoundRect,0.150000X0.150000X-0.587500X0.150000X0.587500X-0.150000X0.587500X-0.150000X-0.587500X0*%
%TD*%
%TA.AperFunction,SMDPad,CuDef*%
%ADD27RoundRect,0.250000X-0.250000X-0.475000X0.250000X-0.475000X0.250000X0.475000X-0.250000X0.475000X0*%
%TD*%
%TA.AperFunction,SMDPad,CuDef*%
%ADD28RoundRect,0.225000X-0.225000X-0.375000X0.225000X-0.375000X0.225000X0.375000X-0.225000X0.375000X0*%
%TD*%
%TA.AperFunction,SMDPad,CuDef*%
%ADD29RoundRect,0.150000X-0.587500X-0.150000X0.587500X-0.150000X0.587500X0.150000X-0.587500X0.150000X0*%
%TD*%
%TA.AperFunction,ComponentPad*%
%ADD30R,1.700000X1.700000*%
%TD*%
%TA.AperFunction,ComponentPad*%
%ADD31C,1.700000*%
%TD*%
%TA.AperFunction,SMDPad,CuDef*%
%ADD32RoundRect,0.150000X-0.825000X-0.150000X0.825000X-0.150000X0.825000X0.150000X-0.825000X0.150000X0*%
%TD*%
%TA.AperFunction,SMDPad,CuDef*%
%ADD33R,1.000000X2.200000*%
%TD*%
%TA.AperFunction,SMDPad,CuDef*%
%ADD34RoundRect,0.300000X-0.300000X-0.750000X0.300000X-0.750000X0.300000X0.750000X-0.300000X0.750000X0*%
%TD*%
%TA.AperFunction,SMDPad,CuDef*%
%ADD35RoundRect,0.150000X0.150000X0.575000X-0.150000X0.575000X-0.150000X-0.575000X0.150000X-0.575000X0*%
%TD*%
%TA.AperFunction,SMDPad,CuDef*%
%ADD36RoundRect,0.075000X0.075000X0.650000X-0.075000X0.650000X-0.075000X-0.650000X0.075000X-0.650000X0*%
%TD*%
%TA.AperFunction,ComponentPad*%
%ADD37O,1.000000X2.100000*%
%TD*%
%TA.AperFunction,ComponentPad*%
%ADD38RoundRect,0.250000X-0.350000X-0.625000X0.350000X-0.625000X0.350000X0.625000X-0.350000X0.625000X0*%
%TD*%
%TA.AperFunction,ComponentPad*%
%ADD39O,1.200000X1.750000*%
%TD*%
%TA.AperFunction,ComponentPad*%
%ADD40RoundRect,0.250000X-0.625000X0.350000X-0.625000X-0.350000X0.625000X-0.350000X0.625000X0.350000X0*%
%TD*%
%TA.AperFunction,ComponentPad*%
%ADD41O,1.750000X1.200000*%
%TD*%
%TA.AperFunction,ComponentPad*%
%ADD42RoundRect,0.250000X0.350000X0.625000X-0.350000X0.625000X-0.350000X-0.625000X0.350000X-0.625000X0*%
%TD*%
%TA.AperFunction,ViaPad*%
%ADD43C,0.800000*%
%TD*%
%TA.AperFunction,ViaPad*%
%ADD44C,0.600000*%
%TD*%
%TA.AperFunction,Conductor*%
%ADD45C,0.200000*%
%TD*%
%TA.AperFunction,Conductor*%
%ADD46C,0.150000*%
%TD*%
G04 APERTURE END LIST*
D10*
%TO.P,R44,1*%
%TO.N,CC1*%
X85398500Y-50200000D03*
%TO.P,R44,2*%
%TO.N,GND*%
X87223500Y-50200000D03*
%TD*%
%TO.P,R45,1*%
%TO.N,CC2*%
X82027500Y-50200000D03*
%TO.P,R45,2*%
%TO.N,GND*%
X83852500Y-50200000D03*
%TD*%
D11*
%TO.P,C8,1*%
%TO.N,VBUS*%
X68118000Y-80810000D03*
%TO.P,C8,2*%
%TO.N,GND*%
X68118000Y-78910000D03*
%TD*%
%TO.P,C7,1*%
%TO.N,VLIPO*%
X65520000Y-75530000D03*
%TO.P,C7,2*%
%TO.N,GND*%
X65520000Y-73630000D03*
%TD*%
D12*
%TO.P,U2,1*%
%TO.N,VSYS*%
X70847000Y-81907500D03*
%TO.P,U2,2*%
%TO.N,VPCC*%
X71347000Y-81907500D03*
%TO.P,U2,3*%
%TO.N,VBUS*%
X71847000Y-81907500D03*
%TO.P,U2,4*%
X72347000Y-81907500D03*
%TO.P,U2,5*%
%TO.N,THERM*%
X72847000Y-81907500D03*
D13*
%TO.P,U2,6*%
%TO.N,unconnected-(U2-~{PG}-Pad6)*%
X73784500Y-80970000D03*
%TO.P,U2,7*%
%TO.N,STAT2*%
X73784500Y-80470000D03*
%TO.P,U2,8*%
%TO.N,STAT1*%
X73784500Y-79970000D03*
%TO.P,U2,9*%
%TO.N,VBUS*%
X73784500Y-79470000D03*
%TO.P,U2,10*%
%TO.N,GND*%
X73784500Y-78970000D03*
D12*
%TO.P,U2,11*%
X72847000Y-78032500D03*
%TO.P,U2,12*%
%TO.N,PROG3*%
X72347000Y-78032500D03*
%TO.P,U2,13*%
%TO.N,PROG1*%
X71847000Y-78032500D03*
%TO.P,U2,14*%
%TO.N,VLIPO*%
X71347000Y-78032500D03*
%TO.P,U2,15*%
X70847000Y-78032500D03*
D13*
%TO.P,U2,16*%
X69909500Y-78970000D03*
%TO.P,U2,17*%
%TO.N,VBUS*%
X69909500Y-79470000D03*
%TO.P,U2,18*%
X69909500Y-79970000D03*
%TO.P,U2,19*%
X69909500Y-80470000D03*
%TO.P,U2,20*%
%TO.N,VSYS*%
X69909500Y-80970000D03*
D14*
%TO.P,U2,21*%
%TO.N,GND*%
X71847000Y-79970000D03*
%TD*%
D15*
%TO.P,R6,1*%
%TO.N,VBUS*%
X81122500Y-90420000D03*
%TO.P,R6,2*%
%TO.N,VPCC*%
X79297500Y-90420000D03*
%TD*%
%TO.P,R7,1*%
%TO.N,VPCC*%
X84512500Y-90420000D03*
%TO.P,R7,2*%
%TO.N,GND*%
X82687500Y-90420000D03*
%TD*%
D16*
%TO.P,R16,1*%
%TO.N,GND*%
X81340000Y-84732500D03*
%TO.P,R16,2*%
%TO.N,PROG1*%
X81340000Y-82907500D03*
%TD*%
%TO.P,R17,1*%
%TO.N,GND*%
X80395000Y-80112500D03*
%TO.P,R17,2*%
%TO.N,PROG3*%
X80395000Y-78287500D03*
%TD*%
%TO.P,R15,1*%
%TO.N,GND*%
X81340000Y-75492500D03*
%TO.P,R15,2*%
%TO.N,THERM*%
X81340000Y-73667500D03*
%TD*%
D17*
%TO.P,LED4,1*%
%TO.N,N_LED4*%
X82445000Y-79637500D03*
%TO.P,LED4,2*%
%TO.N,VBUS*%
X82445000Y-77762500D03*
%TD*%
D16*
%TO.P,R8,1*%
%TO.N,N_LED4*%
X77500000Y-75112500D03*
%TO.P,R8,2*%
%TO.N,STAT1*%
X77500000Y-73287500D03*
%TD*%
D17*
%TO.P,LED3,1*%
%TO.N,N_LED3*%
X72707000Y-70137500D03*
%TO.P,LED3,2*%
%TO.N,VBUS*%
X72707000Y-68262500D03*
%TD*%
D16*
%TO.P,R14,1*%
%TO.N,N_LED3*%
X76983000Y-70112500D03*
%TO.P,R14,2*%
%TO.N,STAT2*%
X76983000Y-68287500D03*
%TD*%
D18*
%TO.P,R41,1*%
%TO.N,BATP*%
X90745000Y-80002500D03*
%TO.P,R41,2*%
%TO.N,VLIPO*%
X90745000Y-77077500D03*
%TD*%
D19*
%TO.P,U3,1*%
%TO.N,V33*%
X68000000Y-76240000D03*
%TO.P,U3,2*%
%TO.N,GND*%
X68500000Y-76240000D03*
%TO.P,U3,3*%
%TO.N,unconnected-(U3-~{Alert}-Pad3)*%
X69000000Y-76240000D03*
%TO.P,U3,4*%
%TO.N,SDA*%
X69500000Y-76240000D03*
%TO.P,U3,5*%
%TO.N,SCL*%
X70000000Y-76240000D03*
%TO.P,U3,6*%
%TO.N,V33*%
X70000000Y-71940000D03*
%TO.P,U3,7*%
%TO.N,GND*%
X69500000Y-71940000D03*
%TO.P,U3,8*%
%TO.N,VLIPO*%
X69000000Y-71940000D03*
%TO.P,U3,9*%
X68500000Y-71940000D03*
%TO.P,U3,10*%
%TO.N,BATP*%
X68000000Y-71940000D03*
%TD*%
D11*
%TO.P,C41,1*%
%TO.N,V33*%
X73500000Y-75150000D03*
%TO.P,C41,2*%
%TO.N,GND*%
X73500000Y-73250000D03*
%TD*%
D16*
%TO.P,R42,1*%
%TO.N,V33*%
X70025000Y-70112500D03*
%TO.P,R42,2*%
%TO.N,SDA*%
X70025000Y-68287500D03*
%TD*%
%TO.P,R43,1*%
%TO.N,V33*%
X89091000Y-52392500D03*
%TO.P,R43,2*%
%TO.N,SCL*%
X89091000Y-50567500D03*
%TD*%
D20*
%TO.P,U1,1*%
%TO.N,V5*%
X67935000Y-60702500D03*
%TO.P,U1,2*%
%TO.N,unconnected-(U1-NC-Pad2)*%
X68585000Y-60702500D03*
%TO.P,U1,3*%
%TO.N,SW*%
X69235000Y-60702500D03*
%TO.P,U1,4*%
X69885000Y-60702500D03*
D21*
%TO.P,U1,5*%
%TO.N,GND*%
X70872500Y-59715000D03*
%TO.P,U1,6*%
X70872500Y-59065000D03*
%TO.P,U1,7*%
X70872500Y-58415000D03*
%TO.P,U1,8*%
%TO.N,VSYS*%
X70872500Y-57765000D03*
D20*
%TO.P,U1,9*%
%TO.N,LBI*%
X69885000Y-56777500D03*
%TO.P,U1,10*%
%TO.N,GND*%
X69235000Y-56777500D03*
%TO.P,U1,11*%
%TO.N,EN*%
X68585000Y-56777500D03*
%TO.P,U1,12*%
%TO.N,LBO*%
X67935000Y-56777500D03*
D21*
%TO.P,U1,13*%
%TO.N,GND*%
X66947500Y-57765000D03*
%TO.P,U1,14*%
%TO.N,FB*%
X66947500Y-58415000D03*
%TO.P,U1,15*%
%TO.N,V5*%
X66947500Y-59065000D03*
%TO.P,U1,16*%
X66947500Y-59715000D03*
D22*
%TO.P,U1,17*%
%TO.N,GND*%
X68910000Y-58740000D03*
%TD*%
D23*
%TO.P,L1,1*%
%TO.N,VSYS*%
X66755000Y-69480000D03*
%TO.P,L1,2*%
%TO.N,SW*%
X66755000Y-66480000D03*
%TD*%
D11*
%TO.P,C1,1*%
%TO.N,VSYS*%
X74788000Y-70910000D03*
%TO.P,C1,2*%
%TO.N,GND*%
X74788000Y-69010000D03*
%TD*%
%TO.P,C4,1*%
%TO.N,VSYS*%
X73995000Y-66635000D03*
%TO.P,C4,2*%
%TO.N,GND*%
X73995000Y-64735000D03*
%TD*%
D24*
%TO.P,C2,1*%
%TO.N,V5*%
X75510000Y-60720000D03*
%TO.P,C2,2*%
%TO.N,GND*%
X73610000Y-60720000D03*
%TD*%
D25*
%TO.P,C6,1*%
%TO.N,V5*%
X77165000Y-51870000D03*
%TO.P,C6,2*%
%TO.N,GND*%
X74215000Y-51870000D03*
%TD*%
%TO.P,C9,1*%
%TO.N,V5*%
X77165000Y-49420000D03*
%TO.P,C9,2*%
%TO.N,GND*%
X74215000Y-49420000D03*
%TD*%
D15*
%TO.P,R3,1*%
%TO.N,V5*%
X76602500Y-55440000D03*
%TO.P,R3,2*%
%TO.N,FB*%
X74777500Y-55440000D03*
%TD*%
%TO.P,R4,1*%
%TO.N,FB*%
X81122500Y-54885000D03*
%TO.P,R4,2*%
%TO.N,GND*%
X79297500Y-54885000D03*
%TD*%
D16*
%TO.P,R1,1*%
%TO.N,VSYS*%
X79032000Y-70872500D03*
%TO.P,R1,2*%
%TO.N,LBI*%
X79032000Y-69047500D03*
%TD*%
%TO.P,R2,1*%
%TO.N,LBI*%
X78379000Y-65988500D03*
%TO.P,R2,2*%
%TO.N,GND*%
X78379000Y-64163500D03*
%TD*%
%TO.P,R13,1*%
%TO.N,VSYS*%
X80000000Y-53143500D03*
%TO.P,R13,2*%
%TO.N,EN*%
X80000000Y-51318500D03*
%TD*%
D26*
%TO.P,Q1,1*%
%TO.N,LBO*%
X80228000Y-65667500D03*
%TO.P,Q1,2*%
%TO.N,VSYS*%
X82128000Y-65667500D03*
%TO.P,Q1,3*%
%TO.N,N_Q1C*%
X81178000Y-63792500D03*
%TD*%
D16*
%TO.P,R20,1*%
%TO.N,N_Q1C*%
X83879000Y-62292500D03*
%TO.P,R20,2*%
%TO.N,N_LED1*%
X83879000Y-60467500D03*
%TD*%
D17*
%TO.P,LED1,1*%
%TO.N,GND*%
X83600000Y-57697500D03*
%TO.P,LED1,2*%
%TO.N,N_LED1*%
X83600000Y-55822500D03*
%TD*%
D16*
%TO.P,R5,1*%
%TO.N,V5*%
X79645000Y-61984500D03*
%TO.P,R5,2*%
%TO.N,N_LED2*%
X79645000Y-60159500D03*
%TD*%
D17*
%TO.P,LED2,1*%
%TO.N,GND*%
X79645000Y-58499500D03*
%TO.P,LED2,2*%
%TO.N,N_LED2*%
X79645000Y-56624500D03*
%TD*%
D27*
%TO.P,C31,1*%
%TO.N,V5*%
X65050000Y-94700000D03*
%TO.P,C31,2*%
%TO.N,GND*%
X66950000Y-94700000D03*
%TD*%
D10*
%TO.P,R32,1*%
%TO.N,BASE*%
X69087500Y-94700000D03*
%TO.P,R32,2*%
%TO.N,GND*%
X70912500Y-94700000D03*
%TD*%
%TO.P,R31,1*%
%TO.N,IN*%
X73087500Y-94700000D03*
%TO.P,R31,2*%
%TO.N,BASE*%
X74912500Y-94700000D03*
%TD*%
D28*
%TO.P,D31,1*%
%TO.N,V5*%
X77850000Y-98700000D03*
%TO.P,D31,2*%
%TO.N,COL*%
X81150000Y-98700000D03*
%TD*%
D29*
%TO.P,Q31,1*%
%TO.N,BASE*%
X83062500Y-97750000D03*
%TO.P,Q31,2*%
%TO.N,GND*%
X83062500Y-99650000D03*
%TO.P,Q31,3*%
%TO.N,COL*%
X84937500Y-98700000D03*
%TD*%
D27*
%TO.P,C32,1*%
%TO.N,EN*%
X74729000Y-62855000D03*
%TO.P,C32,2*%
%TO.N,GND*%
X76629000Y-62855000D03*
%TD*%
D30*
%TO.P,J1,1*%
%TO.N,unconnected-(J1-Pin_1-Pad1)*%
X69400000Y-118300000D03*
D31*
%TO.P,J1,2*%
%TO.N,unconnected-(J1-Pin_2-Pad2)*%
X69400000Y-115760000D03*
%TO.P,J1,3*%
%TO.N,BTN*%
X69400000Y-113220000D03*
%TO.P,J1,4*%
%TO.N,IN*%
X69400000Y-110680000D03*
%TO.P,J1,5*%
%TO.N,SDA*%
X69400000Y-108140000D03*
%TO.P,J1,6*%
%TO.N,SCL*%
X69400000Y-105600000D03*
%TO.P,J1,7*%
%TO.N,unconnected-(J1-Pin_7-Pad7)*%
X69400000Y-103060000D03*
%TD*%
D30*
%TO.P,J14,1*%
%TO.N,V5*%
X84630000Y-118300000D03*
D31*
%TO.P,J14,2*%
%TO.N,GND*%
X84630000Y-115760000D03*
%TO.P,J14,3*%
%TO.N,V33*%
X84630000Y-113220000D03*
%TO.P,J14,4*%
%TO.N,unconnected-(J14-Pin_4-Pad4)*%
X84630000Y-110680000D03*
%TO.P,J14,5*%
%TO.N,unconnected-(J14-Pin_5-Pad5)*%
X84630000Y-108140000D03*
%TO.P,J14,6*%
%TO.N,unconnected-(J14-Pin_6-Pad6)*%
X84630000Y-105600000D03*
%TO.P,J14,7*%
%TO.N,unconnected-(J14-Pin_7-Pad7)*%
X84630000Y-103060000D03*
%TD*%
D32*
%TO.P,U4,1*%
%TO.N,V33*%
X93725000Y-112295000D03*
%TO.P,U4,2*%
X93725000Y-113565000D03*
%TO.P,U4,3*%
%TO.N,unconnected-(U4-OUT-Pad3)*%
X93725000Y-114835000D03*
%TO.P,U4,4*%
%TO.N,GND*%
X93725000Y-116105000D03*
%TO.P,U4,5*%
%TO.N,unconnected-(U4-PGO-Pad5)*%
X98675000Y-116105000D03*
%TO.P,U4,6*%
%TO.N,SDA*%
X98675000Y-114835000D03*
%TO.P,U4,7*%
%TO.N,SCL*%
X98675000Y-113565000D03*
%TO.P,U4,8*%
%TO.N,GND*%
X98675000Y-112295000D03*
%TD*%
D27*
%TO.P,C42,1*%
%TO.N,V33*%
X87300000Y-110400000D03*
%TO.P,C42,2*%
%TO.N,GND*%
X89200000Y-110400000D03*
%TD*%
D33*
%TO.P,K31,1*%
%TO.N,V5*%
X88300000Y-106900000D03*
%TO.P,K31,3*%
%TO.N,unconnected-(K31-Pad3)*%
X93380000Y-106900000D03*
%TO.P,K31,4*%
%TO.N,SPKP*%
X95920000Y-106900000D03*
%TO.P,K31,5*%
%TO.N,SPKO*%
X98460000Y-106900000D03*
%TO.P,K31,8*%
%TO.N,unconnected-(K31-Pad8)*%
X98460000Y-98900000D03*
%TO.P,K31,9*%
%TO.N,unconnected-(K31-Pad9)*%
X95920000Y-98900000D03*
%TO.P,K31,10*%
%TO.N,unconnected-(K31-Pad10)*%
X93380000Y-98900000D03*
%TO.P,K31,12*%
%TO.N,COL*%
X88300000Y-98900000D03*
%TD*%
D34*
%TO.P,SW1,1*%
%TO.N,GND*%
X84000000Y-45000000D03*
%TO.P,SW1,2*%
%TO.N,EN*%
X86500000Y-45000000D03*
%TO.P,SW1,3*%
%TO.N,unconnected-(SW1-C-Pad3)*%
X89000000Y-45000000D03*
%TD*%
D35*
%TO.P,J13,A1*%
%TO.N,GND*%
X100750000Y-44695000D03*
%TO.P,J13,A4*%
%TO.N,VBUS*%
X99950000Y-44695000D03*
D36*
%TO.P,J13,A5*%
%TO.N,CC1*%
X98750000Y-44695000D03*
%TO.P,J13,A6*%
%TO.N,unconnected-(J13-D+-PadA6)*%
X97750000Y-44695000D03*
%TO.P,J13,A7*%
%TO.N,unconnected-(J13-D--PadA7)*%
X97250000Y-44695000D03*
%TO.P,J13,A8*%
%TO.N,unconnected-(J13-SBU1-PadA8)*%
X96250000Y-44695000D03*
D35*
%TO.P,J13,A9*%
%TO.N,VBUS*%
X95050000Y-44695000D03*
%TO.P,J13,A12*%
%TO.N,GND*%
X94250000Y-44695000D03*
%TO.P,J13,B1*%
X94250000Y-44695000D03*
%TO.P,J13,B4*%
%TO.N,VBUS*%
X95050000Y-44695000D03*
D36*
%TO.P,J13,B5*%
%TO.N,CC2*%
X95750000Y-44695000D03*
%TO.P,J13,B6*%
%TO.N,unconnected-(J13-D+-PadB6)*%
X96750000Y-44695000D03*
%TO.P,J13,B7*%
%TO.N,unconnected-(J13-D--PadB7)*%
X98250000Y-44695000D03*
%TO.P,J13,B8*%
%TO.N,unconnected-(J13-SBU2-PadB8)*%
X99250000Y-44695000D03*
D35*
%TO.P,J13,B9*%
%TO.N,VBUS*%
X99950000Y-44695000D03*
%TO.P,J13,B12*%
%TO.N,GND*%
X100750000Y-44695000D03*
D37*
%TO.P,J13,SH*%
X101820000Y-43780000D03*
X93180000Y-43780000D03*
%TD*%
D38*
%TO.P,J5,1*%
%TO.N,SPKM*%
X63000000Y-107700000D03*
D39*
%TO.P,J5,2*%
%TO.N,SPKO*%
X65000000Y-107700000D03*
%TD*%
D40*
%TO.P,J2,1*%
%TO.N,GND*%
X101750000Y-71900000D03*
D41*
%TO.P,J2,2*%
%TO.N,V33*%
X101750000Y-73900000D03*
%TO.P,J2,3*%
%TO.N,SCL*%
X101750000Y-75900000D03*
%TO.P,J2,4*%
%TO.N,SDA*%
X101750000Y-77900000D03*
%TD*%
D38*
%TO.P,J4,1*%
%TO.N,SPKP*%
X92500000Y-48300000D03*
D39*
%TO.P,J4,2*%
%TO.N,SPKM*%
X94500000Y-48300000D03*
%TD*%
D42*
%TO.P,J10,1*%
%TO.N,GND*%
X101000000Y-95550000D03*
D39*
%TO.P,J10,2*%
%TO.N,BATP*%
X99000000Y-95550000D03*
%TD*%
D42*
%TO.P,J6,1*%
%TO.N,EN*%
X80000000Y-118100000D03*
D39*
%TO.P,J6,2*%
%TO.N,GND*%
X78000000Y-118100000D03*
%TO.P,J6,3*%
X76000000Y-118100000D03*
%TO.P,J6,4*%
%TO.N,BTN*%
X74000000Y-118100000D03*
%TD*%
D43*
%TO.N,BATP*%
X68638800Y-73570100D03*
X90745000Y-87295000D03*
%TO.N,CC1*%
X85398000Y-48763800D03*
X98750000Y-43412800D03*
%TO.N,EN*%
X90279800Y-55394600D03*
X81280500Y-51481000D03*
X74945000Y-59252400D03*
%TO.N,FB*%
X77753500Y-54095400D03*
X74777500Y-56712500D03*
%TO.N,GND*%
X72000000Y-95096200D03*
X73057500Y-49750800D03*
X86425500Y-48829100D03*
X90266000Y-110084100D03*
X73610000Y-62335300D03*
X81525200Y-87544700D03*
X83062500Y-100531600D03*
X97135900Y-112632400D03*
%TO.N,LBI*%
X76663300Y-65058500D03*
X72267800Y-62834400D03*
%TO.N,N_LED4*%
X77833900Y-77822700D03*
X82445000Y-80753200D03*
%TO.N,PROG1*%
X71955800Y-77054300D03*
X80072300Y-82568900D03*
%TO.N,PROG3*%
X70725000Y-73740300D03*
X79136400Y-77980600D03*
%TO.N,SCL*%
X87435500Y-61481200D03*
X99901700Y-111447100D03*
X70000000Y-77535600D03*
%TO.N,SDA*%
X69844500Y-74956800D03*
X71362100Y-69596600D03*
X100214100Y-114497600D03*
%TO.N,SPKM*%
X94500000Y-101205400D03*
%TO.N,SPKO*%
X97428300Y-105548300D03*
%TO.N,STAT1*%
X74755700Y-80007800D03*
X76161300Y-78297200D03*
%TO.N,STAT2*%
X74755100Y-80964000D03*
X88748200Y-74405100D03*
X89324700Y-69079500D03*
X82113600Y-69079500D03*
X82113600Y-66980300D03*
X76982500Y-67009600D03*
%TO.N,THERM*%
X73548300Y-81660900D03*
X80186900Y-74513100D03*
%TO.N,V33*%
X83234400Y-65186100D03*
X91833900Y-64908700D03*
X89090500Y-61132400D03*
X67562800Y-77653900D03*
%TO.N,V5*%
X91182200Y-55844600D03*
X80900200Y-61220400D03*
X67935000Y-61676600D03*
X76591100Y-60667900D03*
X77165000Y-53324500D03*
%TO.N,VBUS*%
X96666400Y-54371900D03*
X71997400Y-67042900D03*
X68117500Y-82011400D03*
X82445000Y-76706700D03*
X81122500Y-89150200D03*
%TO.N,VLIPO*%
X70938600Y-75467100D03*
X90745000Y-75480300D03*
%TO.N,VSYS*%
X81250300Y-65555000D03*
X69323000Y-81665400D03*
X81277600Y-53143900D03*
X72870500Y-65726400D03*
X64342000Y-69715200D03*
D44*
%TO.N,GND*%
X61000000Y-120200000D03*
X61000000Y-117000000D03*
X61000000Y-113800000D03*
X61000000Y-110600000D03*
X61000000Y-107400000D03*
X61000000Y-104200000D03*
X61000000Y-101000000D03*
X61000000Y-97800000D03*
X61000000Y-94600000D03*
X61000000Y-91400000D03*
X61000000Y-88200000D03*
X61000000Y-78600000D03*
X61000000Y-75400000D03*
X61000000Y-72200000D03*
X61000000Y-69000000D03*
X61000000Y-65800000D03*
X61000000Y-56200000D03*
X61000000Y-53000000D03*
X61000000Y-43400000D03*
X64200000Y-120200000D03*
X64200000Y-113800000D03*
X64200000Y-110600000D03*
X64200000Y-104200000D03*
X64200000Y-101000000D03*
X64200000Y-97800000D03*
X64200000Y-91400000D03*
X64200000Y-88200000D03*
X64200000Y-43400000D03*
X67400000Y-120200000D03*
X67400000Y-117000000D03*
X67400000Y-113800000D03*
X67400000Y-91400000D03*
X67400000Y-88200000D03*
X67400000Y-85000000D03*
X67400000Y-53000000D03*
X67400000Y-49800000D03*
X67400000Y-46600000D03*
X67400000Y-43400000D03*
X70600000Y-120200000D03*
X70600000Y-97800000D03*
X70600000Y-91400000D03*
X70600000Y-88200000D03*
X70600000Y-85000000D03*
X70600000Y-49800000D03*
X70600000Y-46600000D03*
X70600000Y-43400000D03*
X73800000Y-113800000D03*
X73800000Y-110600000D03*
X73800000Y-91400000D03*
X73800000Y-88200000D03*
X77000000Y-113800000D03*
X77000000Y-110600000D03*
X77000000Y-91400000D03*
X80200000Y-49800000D03*
X83400000Y-120200000D03*
X83400000Y-94600000D03*
X83400000Y-85000000D03*
X86600000Y-120200000D03*
X86600000Y-117000000D03*
X86600000Y-94600000D03*
X86600000Y-91400000D03*
X86600000Y-88200000D03*
X86600000Y-85000000D03*
X86600000Y-81800000D03*
X86600000Y-75400000D03*
X89800000Y-113800000D03*
X96200000Y-120200000D03*
X96200000Y-117000000D03*
X96200000Y-72200000D03*
X99400000Y-120200000D03*
X99400000Y-104200000D03*
X99400000Y-101000000D03*
X99400000Y-91400000D03*
X99400000Y-65800000D03*
X99400000Y-62600000D03*
X99400000Y-59400000D03*
X102600000Y-120200000D03*
X102600000Y-117000000D03*
X102600000Y-113800000D03*
X102600000Y-88200000D03*
X102600000Y-69000000D03*
X102600000Y-65800000D03*
X102600000Y-62600000D03*
X102600000Y-59400000D03*
X102600000Y-56200000D03*
X102600000Y-53000000D03*
%TD*%
%TO.N,BASE*%
D45*
X69087500Y-94700000D02*
X69087500Y-93409700D01*
X69087500Y-93409700D02*
X69089100Y-93408100D01*
X69089100Y-93408100D02*
X73429600Y-93408100D01*
X73429600Y-93408100D02*
X74148300Y-94126800D01*
X74148300Y-94126800D02*
X74148300Y-94700000D01*
X83062500Y-97198300D02*
X80564200Y-94700000D01*
X80564200Y-94700000D02*
X74912500Y-94700000D01*
X74912500Y-94700000D02*
X74148300Y-94700000D01*
X83062500Y-97750000D02*
X83062500Y-97198300D01*
%TO.N,BATP*%
X68000000Y-71940000D02*
X68000000Y-72931300D01*
X68000000Y-72931300D02*
X68638800Y-73570100D01*
X90745000Y-80002500D02*
X90745000Y-87295000D01*
%TO.N,CC1*%
X85398000Y-50200000D02*
X85398000Y-48763800D01*
X98750000Y-43412800D02*
X98750000Y-44695000D01*
%TO.N,CC2*%
X95750000Y-44695000D02*
X95750000Y-42730600D01*
X95750000Y-42730600D02*
X95351700Y-42332300D01*
X95351700Y-42332300D02*
X92071000Y-42332300D01*
X92071000Y-42332300D02*
X91328100Y-43075200D01*
X91328100Y-43075200D02*
X83877200Y-43075200D01*
X83877200Y-43075200D02*
X82792800Y-44159600D01*
X82792800Y-44159600D02*
X82792800Y-50200000D01*
X82028600Y-50200000D02*
X82792800Y-50200000D01*
%TO.N,COL*%
X81150000Y-98700000D02*
X84937500Y-98700000D01*
X84937500Y-98700000D02*
X84937500Y-98148300D01*
X88300000Y-98900000D02*
X88300000Y-97548300D01*
X84937500Y-98148300D02*
X85537500Y-97548300D01*
X85537500Y-97548300D02*
X88300000Y-97548300D01*
%TO.N,EN*%
X90279800Y-55394600D02*
X90279800Y-73983000D01*
X90279800Y-73983000D02*
X89399500Y-74863300D01*
X89399500Y-74863300D02*
X89399500Y-102388500D01*
X89399500Y-102388500D02*
X84963800Y-106824200D01*
X84963800Y-106824200D02*
X84324000Y-106824200D01*
X84324000Y-106824200D02*
X80000000Y-111148200D01*
X80000000Y-111148200D02*
X80000000Y-118100000D01*
X87351700Y-45000000D02*
X87351700Y-46056200D01*
X87351700Y-46056200D02*
X90446500Y-49151000D01*
X90446500Y-49151000D02*
X90446500Y-55227900D01*
X90446500Y-55227900D02*
X90279800Y-55394600D01*
X74728800Y-59252400D02*
X71208800Y-55732400D01*
X71208800Y-55732400D02*
X69509600Y-55732400D01*
X69509600Y-55732400D02*
X69137600Y-56104400D01*
X69137600Y-56104400D02*
X69137600Y-56104500D01*
X69137600Y-56104500D02*
X68984800Y-56104500D01*
X86500000Y-45000000D02*
X87351700Y-45000000D01*
X74728800Y-59252400D02*
X74945000Y-59252400D01*
X74728800Y-59252400D02*
X74728800Y-61878300D01*
X80000000Y-51318900D02*
X81118400Y-51318900D01*
X81118400Y-51318900D02*
X81280500Y-51481000D01*
X68585000Y-56679500D02*
X68585000Y-56777500D01*
D46*
X68984800Y-56104500D02*
X68585000Y-56504300D01*
X68585000Y-56504300D02*
X68585000Y-56679500D01*
D45*
X74728800Y-62855000D02*
X74728800Y-61878300D01*
%TO.N,FB*%
X74013300Y-55440000D02*
X73561600Y-54988300D01*
X73561600Y-54988300D02*
X68726900Y-54988300D01*
X68726900Y-54988300D02*
X66083500Y-57631700D01*
X66083500Y-57631700D02*
X66083500Y-58190200D01*
X74777500Y-55440000D02*
X74013300Y-55440000D01*
X74777500Y-56712500D02*
X74777500Y-55440000D01*
X77753500Y-54095400D02*
X77753500Y-54061600D01*
X77753500Y-54061600D02*
X77880900Y-53934200D01*
X81122500Y-54884400D02*
X80358300Y-54884400D01*
X80060200Y-53934200D02*
X80358300Y-54232300D01*
X80358300Y-54232300D02*
X80358300Y-54884400D01*
D46*
X77880900Y-53934200D02*
X80060200Y-53934200D01*
X66083500Y-58190200D02*
X66308300Y-58415000D01*
X66947500Y-58415000D02*
X66308300Y-58415000D01*
%TO.N,GND*%
D45*
X72847500Y-78032500D02*
X73038500Y-77841500D01*
X73038500Y-77841500D02*
X73038500Y-76269500D01*
X73038500Y-76269500D02*
X72523300Y-75754300D01*
X72523300Y-75754300D02*
X72523300Y-73250000D01*
X72523300Y-73250000D02*
X72361900Y-73088600D01*
X72361900Y-73088600D02*
X69856700Y-73088600D01*
X69856700Y-73088600D02*
X69599800Y-72831700D01*
X87223000Y-49686900D02*
X89787300Y-49686900D01*
X89787300Y-49686900D02*
X90094800Y-49994400D01*
X90094800Y-49994400D02*
X90094800Y-54658100D01*
X90094800Y-54658100D02*
X89628100Y-55124800D01*
X89628100Y-55124800D02*
X89628100Y-55664400D01*
X89628100Y-55664400D02*
X89744700Y-55781000D01*
X89744700Y-55781000D02*
X89744700Y-67421800D01*
X89744700Y-67421800D02*
X81445000Y-75721500D01*
X73610000Y-60720000D02*
X73610000Y-58696600D01*
X73610000Y-58696600D02*
X71017900Y-56104500D01*
X71017900Y-56104500D02*
X69634800Y-56104500D01*
X70872500Y-59715000D02*
X70872500Y-65339700D01*
X70872500Y-65339700D02*
X68965000Y-67247200D01*
X68965000Y-67247200D02*
X68965000Y-70080400D01*
X68965000Y-70080400D02*
X68508600Y-70536800D01*
X68508600Y-70536800D02*
X67861500Y-70536800D01*
X67861500Y-70536800D02*
X65520000Y-72878300D01*
X74787500Y-69010000D02*
X73810800Y-69010000D01*
X73610000Y-60720000D02*
X73610000Y-62335300D01*
X73995000Y-63983300D02*
X73610000Y-63598300D01*
X73610000Y-63598300D02*
X73610000Y-62335300D01*
X73995000Y-65486700D02*
X74464800Y-65486700D01*
X74464800Y-65486700D02*
X75002700Y-66024600D01*
X75002700Y-66024600D02*
X75002700Y-67299600D01*
X75002700Y-67299600D02*
X74066300Y-68236000D01*
X74066300Y-68236000D02*
X73938500Y-68236000D01*
X73938500Y-68236000D02*
X73810800Y-68363700D01*
X73810800Y-68363700D02*
X73810800Y-69010000D01*
X94250000Y-45671700D02*
X95944200Y-47365900D01*
X95944200Y-47365900D02*
X95944200Y-65242500D01*
X95944200Y-65242500D02*
X101750000Y-71048300D01*
X81445000Y-75721500D02*
X81345200Y-75721500D01*
D46*
X81445000Y-75721500D02*
X81445000Y-78600000D01*
X81345200Y-75492500D02*
X81345200Y-75721500D01*
D45*
X87223000Y-49686900D02*
X87223000Y-49393900D01*
X87223000Y-50200000D02*
X87223000Y-49686900D01*
X89951700Y-110400000D02*
X90266000Y-110085700D01*
X90266000Y-110085700D02*
X90266000Y-110084100D01*
X101750000Y-71900000D02*
X101750000Y-71048300D01*
X68500000Y-75351600D02*
X68411700Y-75263300D01*
X68411700Y-75263300D02*
X67703900Y-75263300D01*
X67703900Y-75263300D02*
X66934800Y-76032400D01*
X66934800Y-76032400D02*
X66934800Y-76280200D01*
X68500000Y-76240000D02*
X68500000Y-75351600D01*
X78378800Y-64163500D02*
X78378800Y-63399300D01*
X83600000Y-57697500D02*
X83124300Y-57697500D01*
X83124200Y-57697500D02*
X82648300Y-57697500D01*
X83124200Y-57697500D02*
X83124300Y-57697500D01*
X78651400Y-56452100D02*
X78651400Y-55997600D01*
X78651400Y-55997600D02*
X78812900Y-55836100D01*
X78812900Y-55836100D02*
X79297500Y-55836100D01*
X79645000Y-57760400D02*
X79148100Y-57760400D01*
X79148100Y-57760400D02*
X78651400Y-57263700D01*
X78651400Y-57263700D02*
X78651400Y-56452100D01*
X75041700Y-51870000D02*
X75825300Y-52653600D01*
X75825300Y-52653600D02*
X75825300Y-56265200D01*
X75825300Y-56265200D02*
X76012200Y-56452100D01*
X76012200Y-56452100D02*
X78651400Y-56452100D01*
X84851700Y-48108200D02*
X84851700Y-45000000D01*
X83853600Y-49248300D02*
X84851700Y-48250200D01*
X84851700Y-48250200D02*
X84851700Y-48108200D01*
X84851700Y-48108200D02*
X85704600Y-48108200D01*
X85704600Y-48108200D02*
X86425500Y-48829100D01*
X83853600Y-50200000D02*
X83853600Y-49248300D01*
X65520000Y-73630000D02*
X65520000Y-72878300D01*
X80395000Y-80112500D02*
X80395000Y-80876700D01*
X81340000Y-84732500D02*
X81340000Y-83968300D01*
X81340000Y-84732500D02*
X81340000Y-87359500D01*
X81340000Y-87359500D02*
X81525200Y-87544700D01*
X80395000Y-80876700D02*
X80896500Y-80876700D01*
X80896500Y-80876700D02*
X82291700Y-82271900D01*
X82291700Y-82271900D02*
X82291700Y-83589800D01*
X82291700Y-83589800D02*
X81913200Y-83968300D01*
X81913200Y-83968300D02*
X81340000Y-83968300D01*
X82648300Y-55846300D02*
X82648300Y-57697500D01*
X83853600Y-50200000D02*
X82648300Y-51405300D01*
X82648300Y-51405300D02*
X82648300Y-55846300D01*
X79297500Y-55447700D02*
X79696100Y-55846300D01*
X79696100Y-55846300D02*
X82648300Y-55846300D01*
X79297500Y-55447700D02*
X79297500Y-55836100D01*
X79297500Y-54884400D02*
X79297500Y-55447700D01*
X74215000Y-51870000D02*
X75041700Y-51870000D01*
D46*
X97473300Y-112295000D02*
X97135900Y-112632400D01*
D45*
X87223000Y-49393900D02*
X86990300Y-49393900D01*
X86990300Y-49393900D02*
X86425500Y-48829100D01*
X101000000Y-95550000D02*
X101000000Y-106501700D01*
X101000000Y-106501700D02*
X98675000Y-108826700D01*
X98675000Y-108826700D02*
X98675000Y-112295000D01*
X69235000Y-56679500D02*
X69235000Y-56777500D01*
D46*
X69634800Y-56104500D02*
X69235000Y-56504300D01*
X69235000Y-56504300D02*
X69235000Y-56679500D01*
D45*
X71536700Y-59065000D02*
X71536700Y-59715000D01*
X80395000Y-79478000D02*
X77446000Y-79478000D01*
X77446000Y-79478000D02*
X76938000Y-78970000D01*
X76938000Y-78970000D02*
X74449200Y-78970000D01*
X70912500Y-94700000D02*
X71676700Y-94700000D01*
X72000000Y-95096200D02*
X71676700Y-94772900D01*
X71676700Y-94772900D02*
X71676700Y-94700000D01*
X73057500Y-49750800D02*
X73388300Y-49420000D01*
X74215000Y-49420000D02*
X73388300Y-49420000D01*
X73500000Y-73250000D02*
X72523300Y-73250000D01*
X72847500Y-78032500D02*
X73785000Y-78970000D01*
X89200000Y-110400000D02*
X89951700Y-110400000D01*
D46*
X70912500Y-95650200D02*
X68324800Y-95650200D01*
D45*
X66950000Y-94700000D02*
X67701700Y-94700000D01*
X68324800Y-95650200D02*
X67701700Y-95027100D01*
X67701700Y-95027100D02*
X67701700Y-94700000D01*
X70912500Y-94700000D02*
X70912500Y-95650200D01*
X76628800Y-63399300D02*
X78378800Y-63399300D01*
X79645000Y-58499600D02*
X79645000Y-57760400D01*
X76628800Y-63399300D02*
X76628800Y-63830200D01*
X76628800Y-62855000D02*
X76628800Y-63399300D01*
X74215000Y-49420000D02*
X74215000Y-51870000D01*
D46*
X76628800Y-63830200D02*
X74148100Y-63830200D01*
X74148100Y-63830200D02*
X73995000Y-63983300D01*
D45*
X71529400Y-58415000D02*
X71536700Y-58422300D01*
X71536700Y-58422300D02*
X71536700Y-59065000D01*
X73995000Y-64735000D02*
X73995000Y-63983300D01*
X73995000Y-64735000D02*
X73995000Y-65486700D01*
D46*
X69599800Y-72831700D02*
X69599800Y-72791100D01*
X69599800Y-72791100D02*
X69500000Y-72691300D01*
D45*
X69500000Y-72691300D02*
X69500000Y-71940000D01*
X80395000Y-79478000D02*
X80395000Y-79348300D01*
X80395000Y-80112500D02*
X80395000Y-79478000D01*
X81445000Y-78600000D02*
X81445000Y-78831200D01*
X81445000Y-78831200D02*
X80927900Y-79348300D01*
X80927900Y-79348300D02*
X80395000Y-79348300D01*
X81340000Y-75492500D02*
X81345200Y-75492500D01*
X81525200Y-87544700D02*
X82687500Y-88707000D01*
X82687500Y-88707000D02*
X82687500Y-90420000D01*
X65520000Y-73630000D02*
X65520000Y-74381700D01*
X64544800Y-74779800D02*
X64942900Y-74381700D01*
X64942900Y-74381700D02*
X65520000Y-74381700D01*
D46*
X66934800Y-76280200D02*
X64710400Y-76280200D01*
X64710400Y-76280200D02*
X64544800Y-76114600D01*
X64544800Y-76114600D02*
X64544800Y-74779800D01*
D45*
X84000000Y-45000000D02*
X84851700Y-45000000D01*
X83062500Y-100531600D02*
X83062500Y-99650000D01*
D46*
X98675000Y-112295000D02*
X97473300Y-112295000D01*
D45*
X68117500Y-78910000D02*
X68117500Y-78158300D01*
X68117500Y-78158300D02*
X68500000Y-77775800D01*
X68500000Y-77775800D02*
X68500000Y-76240000D01*
X94250000Y-44695000D02*
X94250000Y-45671700D01*
X93180000Y-43780000D02*
X93180000Y-45081700D01*
X93180000Y-45081700D02*
X93770000Y-45671700D01*
X93770000Y-45671700D02*
X94250000Y-45671700D01*
X101820000Y-43780000D02*
X101820000Y-45081700D01*
X101820000Y-45081700D02*
X101136700Y-45081700D01*
X101136700Y-45081700D02*
X100750000Y-44695000D01*
X70872500Y-58415000D02*
X71529400Y-58415000D01*
X69235000Y-58415000D02*
X69235000Y-56777500D01*
X68910000Y-58740000D02*
X69235000Y-58415000D01*
X69235000Y-58415000D02*
X70208300Y-58415000D01*
X70872500Y-58415000D02*
X70208300Y-58415000D01*
X68910000Y-58740000D02*
X67935000Y-57765000D01*
X67935000Y-57765000D02*
X66947500Y-57765000D01*
X70872500Y-59715000D02*
X71536700Y-59715000D01*
X70872500Y-59065000D02*
X71536700Y-59065000D01*
X73785000Y-78970000D02*
X74449200Y-78970000D01*
X71847500Y-79970000D02*
X72847500Y-78970000D01*
X72847500Y-78970000D02*
X72847500Y-78032500D01*
%TO.N,IN*%
X69400000Y-110680000D02*
X73087500Y-106992500D01*
X73087500Y-106992500D02*
X73087500Y-94700000D01*
%TO.N,LBI*%
X78378800Y-65988500D02*
X77427100Y-65988500D01*
X77427100Y-65988500D02*
X77427100Y-65822300D01*
X77427100Y-65822300D02*
X76663300Y-65058500D01*
X69885000Y-56777500D02*
X71118100Y-56777500D01*
X71118100Y-56777500D02*
X72267800Y-57927200D01*
X72267800Y-57927200D02*
X72267800Y-62834400D01*
X78378800Y-65988500D02*
X78378800Y-67629600D01*
X78378800Y-67629600D02*
X79032500Y-68283300D01*
X79032500Y-69047500D02*
X79032500Y-68283300D01*
%TO.N,LBO*%
X67935000Y-56777500D02*
X67935000Y-56464200D01*
X67935000Y-56464200D02*
X69020100Y-55379100D01*
X69020100Y-55379100D02*
X72225100Y-55379100D01*
X72225100Y-55379100D02*
X77293000Y-60447000D01*
X77293000Y-60447000D02*
X77293000Y-61472500D01*
X77293000Y-61472500D02*
X80228800Y-64408300D01*
X80228800Y-64408300D02*
X80228800Y-65667300D01*
%TO.N,N_LED1*%
X83600000Y-55822500D02*
X83600000Y-56561700D01*
X84550200Y-58435200D02*
X83878800Y-59106600D01*
X83878800Y-59106600D02*
X83878800Y-60467500D01*
D46*
X84550200Y-56772700D02*
X84550200Y-58435200D01*
D45*
X83600000Y-56561700D02*
X84339200Y-56561700D01*
X84339200Y-56561700D02*
X84550200Y-56772700D01*
%TO.N,N_LED2*%
X79645000Y-56624600D02*
X79645000Y-57363800D01*
X79645000Y-57363800D02*
X80107000Y-57363800D01*
X80107000Y-57363800D02*
X80915000Y-58171800D01*
X80915000Y-58171800D02*
X80915000Y-59778600D01*
X80915000Y-59778600D02*
X80596700Y-60096900D01*
X80596700Y-60096900D02*
X80596700Y-60159600D01*
X79645000Y-60159600D02*
X80596700Y-60159600D01*
%TO.N,N_LED3*%
X72707500Y-70137500D02*
X73659200Y-70137500D01*
X76982500Y-70112500D02*
X73684200Y-70112500D01*
X73684200Y-70112500D02*
X73659200Y-70137500D01*
%TO.N,N_LED4*%
X82445000Y-80376700D02*
X82445000Y-80753200D01*
X77500000Y-75876700D02*
X77833900Y-76210600D01*
X77833900Y-76210600D02*
X77833900Y-77822700D01*
X77500000Y-75112500D02*
X77500000Y-75876700D01*
X82445000Y-79637500D02*
X82445000Y-80376700D01*
%TO.N,N_Q1C*%
X81178800Y-63792300D02*
X81730500Y-63792300D01*
X83878800Y-62292500D02*
X83878800Y-63056700D01*
X83878800Y-63056700D02*
X82466100Y-63056700D01*
X82466100Y-63056700D02*
X81730500Y-63792300D01*
%TO.N,PROG1*%
X71847500Y-77368300D02*
X71955800Y-77260000D01*
X71955800Y-77260000D02*
X71955800Y-77054300D01*
X71847500Y-78032500D02*
X71847500Y-77368300D01*
X80072300Y-82568900D02*
X80388300Y-82884900D01*
X80388300Y-82884900D02*
X80388300Y-82907500D01*
X81340000Y-82907500D02*
X80388300Y-82907500D01*
%TO.N,PROG3*%
X70725000Y-73740300D02*
X71759000Y-74774300D01*
X71759000Y-74774300D02*
X71759000Y-75515700D01*
X71759000Y-75515700D02*
X72660000Y-76416700D01*
X72660000Y-76416700D02*
X72660000Y-77275600D01*
X72660000Y-77275600D02*
X72347500Y-77588100D01*
X72347500Y-77588100D02*
X72347500Y-78032500D01*
X79136400Y-77980600D02*
X79443300Y-78287500D01*
X80395000Y-78287500D02*
X79443300Y-78287500D01*
%TO.N,SCL*%
X70000000Y-77216700D02*
X70000000Y-77535600D01*
X89090500Y-51331700D02*
X88517400Y-51331700D01*
X88517400Y-51331700D02*
X87435500Y-52413600D01*
X87435500Y-52413600D02*
X87435500Y-61481200D01*
X98675000Y-113565000D02*
X97134800Y-113565000D01*
X97134800Y-113565000D02*
X96452300Y-112882500D01*
X96452300Y-112882500D02*
X96452300Y-112200100D01*
X96452300Y-112200100D02*
X96672700Y-111979700D01*
X96672700Y-111979700D02*
X96672700Y-78567000D01*
X96672700Y-78567000D02*
X99339700Y-75900000D01*
X99339700Y-75900000D02*
X101750000Y-75900000D01*
X89090500Y-50567500D02*
X89090500Y-51331700D01*
X99901700Y-111447100D02*
X99901700Y-113565000D01*
X98675000Y-113565000D02*
X99901700Y-113565000D01*
X70000000Y-76240000D02*
X70000000Y-77216700D01*
%TO.N,SDA*%
X69500000Y-75263300D02*
X69538000Y-75263300D01*
X69538000Y-75263300D02*
X69844500Y-74956800D01*
X69500000Y-76240000D02*
X69500000Y-75263300D01*
X70025000Y-69051700D02*
X70817200Y-69051700D01*
X70817200Y-69051700D02*
X71362100Y-69596600D01*
X70025000Y-68287500D02*
X70025000Y-69051700D01*
D46*
X100214100Y-114497600D02*
X99876700Y-114835000D01*
X98675000Y-114835000D02*
X99876700Y-114835000D01*
%TO.N,SPKM*%
D45*
X94500000Y-49426700D02*
X94500000Y-101205400D01*
X94500000Y-48300000D02*
X94500000Y-49426700D01*
%TO.N,SPKO*%
X98460000Y-105548300D02*
X97428300Y-105548300D01*
X98460000Y-106900000D02*
X98460000Y-105548300D01*
%TO.N,SPKP*%
X92500000Y-48300000D02*
X92500000Y-49426700D01*
X95920000Y-105548300D02*
X92599800Y-102228100D01*
X92599800Y-102228100D02*
X92599800Y-49526500D01*
X92599800Y-49526500D02*
X92500000Y-49426700D01*
X95920000Y-106900000D02*
X95920000Y-105548300D01*
%TO.N,STAT1*%
X77500000Y-74051700D02*
X76951400Y-74051700D01*
X76951400Y-74051700D02*
X76161300Y-74841800D01*
X76161300Y-74841800D02*
X76161300Y-78297200D01*
X73785000Y-79970000D02*
X74717900Y-79970000D01*
X74717900Y-79970000D02*
X74755700Y-80007800D01*
X77500000Y-73287500D02*
X77500000Y-74051700D01*
%TO.N,STAT2*%
X73785000Y-80470000D02*
X74261100Y-80470000D01*
X74261100Y-80470000D02*
X74755100Y-80964000D01*
X88748200Y-74405100D02*
X89324700Y-73828600D01*
X89324700Y-73828600D02*
X89324700Y-69079500D01*
X76982500Y-68287500D02*
X76982500Y-67009600D01*
X82113600Y-69079500D02*
X82113600Y-66980300D01*
%TO.N,SW*%
X66755000Y-66480000D02*
X68856700Y-66480000D01*
X68856700Y-66480000D02*
X69235000Y-66101700D01*
X69235000Y-66101700D02*
X69235000Y-60702500D01*
X69235000Y-60702500D02*
X69885000Y-60702500D01*
%TO.N,THERM*%
X72847500Y-81907500D02*
X73301700Y-81907500D01*
X73301700Y-81907500D02*
X73548300Y-81660900D01*
X81340000Y-74431700D02*
X80268300Y-74431700D01*
X80268300Y-74431700D02*
X80186900Y-74513100D01*
X81340000Y-73667500D02*
X81340000Y-74431700D01*
%TO.N,V33*%
X91580000Y-111376700D02*
X92223400Y-110733300D01*
X92223400Y-110733300D02*
X92223400Y-65298200D01*
X92223400Y-65298200D02*
X91833900Y-64908700D01*
X89090500Y-61132400D02*
X85036800Y-65186100D01*
X85036800Y-65186100D02*
X83234400Y-65186100D01*
X75039400Y-72224400D02*
X79890300Y-72224400D01*
X79890300Y-72224400D02*
X83234400Y-68880300D01*
X83234400Y-68880300D02*
X83234400Y-65186100D01*
X68000000Y-77216700D02*
X67562800Y-77653900D01*
X89090500Y-52392500D02*
X89090500Y-61132400D01*
X91580000Y-111376700D02*
X92498300Y-112295000D01*
X87300000Y-111376700D02*
X91580000Y-111376700D01*
X75039400Y-72224400D02*
X75039400Y-73328700D01*
X75039400Y-73328700D02*
X73969800Y-74398300D01*
X73969800Y-74398300D02*
X73500000Y-74398300D01*
X93725000Y-112295000D02*
X94951700Y-112295000D01*
X70025000Y-70112500D02*
X70025000Y-70876700D01*
X93725000Y-112295000D02*
X92498300Y-112295000D01*
X84630000Y-113220000D02*
X86473300Y-111376700D01*
X86473300Y-111376700D02*
X87300000Y-111376700D01*
X68000000Y-76240000D02*
X68000000Y-77216700D01*
X87300000Y-110400000D02*
X87300000Y-111376700D01*
D46*
X72468900Y-71792200D02*
X74607200Y-71792200D01*
X74607200Y-71792200D02*
X75039400Y-72224400D01*
X71204200Y-71660200D02*
X72468900Y-71660200D01*
D45*
X72468900Y-71792200D02*
X72468900Y-71660200D01*
X70025000Y-70889200D02*
X70433200Y-70889200D01*
X70433200Y-70889200D02*
X71204200Y-71660200D01*
X70000000Y-71940000D02*
X70000000Y-70914200D01*
X70000000Y-70914200D02*
X70025000Y-70889200D01*
X70025000Y-70876700D02*
X70025000Y-70889200D01*
X73500000Y-75150000D02*
X73500000Y-74398300D01*
X93725000Y-113565000D02*
X94951700Y-113565000D01*
X94951700Y-113565000D02*
X94951700Y-112295000D01*
%TO.N,V5*%
X83506600Y-116444300D02*
X80700800Y-119250100D01*
X80700800Y-119250100D02*
X73260900Y-119250100D01*
X73260900Y-119250100D02*
X71238600Y-117227800D01*
X71238600Y-117227800D02*
X71238600Y-111812400D01*
X88300000Y-108251700D02*
X87830200Y-108251700D01*
X87830200Y-108251700D02*
X86246500Y-109835400D01*
X86246500Y-109835400D02*
X86246500Y-110647000D01*
X86246500Y-110647000D02*
X84819600Y-112073900D01*
X84819600Y-112073900D02*
X84164900Y-112073900D01*
X84164900Y-112073900D02*
X83506600Y-112732200D01*
X83506600Y-112732200D02*
X83506600Y-116444300D01*
X83506600Y-116444300D02*
X84260600Y-117198300D01*
X84260600Y-117198300D02*
X84630000Y-117198300D01*
X71238600Y-111812400D02*
X77850000Y-105201000D01*
X77850000Y-105201000D02*
X77850000Y-98700000D01*
X71238600Y-111812400D02*
X68903400Y-111812400D01*
X68903400Y-111812400D02*
X67365200Y-110274200D01*
X67365200Y-110274200D02*
X67365200Y-97015200D01*
X67365200Y-97015200D02*
X65801700Y-95451700D01*
X65801700Y-95451700D02*
X65801700Y-94700000D01*
X88300000Y-106900000D02*
X91871700Y-103328300D01*
X91871700Y-103328300D02*
X91871700Y-72082200D01*
X91871700Y-72082200D02*
X91182200Y-71392700D01*
X91182200Y-71392700D02*
X91182200Y-55844600D01*
X67935000Y-60702500D02*
X67935000Y-61676600D01*
X65050000Y-94700000D02*
X65801700Y-94700000D01*
X88300000Y-106900000D02*
X88300000Y-108251700D01*
X84630000Y-118300000D02*
X84630000Y-117198300D01*
X79645000Y-61220400D02*
X80900200Y-61220400D01*
X79645000Y-61984600D02*
X79645000Y-61220400D01*
X76236700Y-60720000D02*
X76261700Y-60720000D01*
X76591100Y-60667900D02*
X76313800Y-60667900D01*
X76313800Y-60667900D02*
X76261700Y-60720000D01*
X77165000Y-53324500D02*
X76602500Y-53887000D01*
X76602500Y-53887000D02*
X76602500Y-55440000D01*
X77165000Y-51870000D02*
X77165000Y-53324500D01*
X77165000Y-49420000D02*
X77165000Y-51870000D01*
D46*
X75510000Y-60720000D02*
X76236700Y-60720000D01*
D45*
X66947500Y-59065000D02*
X66947500Y-59715000D01*
D46*
X66947500Y-60340200D02*
X67572700Y-60340200D01*
X67572700Y-60340200D02*
X67935000Y-60702500D01*
D45*
X66947500Y-59715000D02*
X66947500Y-60340200D01*
%TO.N,VBUS*%
X75439400Y-82571700D02*
X75439400Y-79739100D01*
X75439400Y-79739100D02*
X75045500Y-79345200D01*
X75045500Y-79345200D02*
X74316300Y-79345200D01*
X72707500Y-67523300D02*
X72477800Y-67523300D01*
X72477800Y-67523300D02*
X71997400Y-67042900D01*
X81122500Y-89150200D02*
X75439400Y-83467100D01*
X75439400Y-83467100D02*
X75439400Y-82571700D01*
X75439400Y-82571700D02*
X71847500Y-82571700D01*
X71847500Y-81907500D02*
X71847500Y-82571700D01*
X82445000Y-77023300D02*
X82445000Y-76706700D01*
X95050000Y-44695000D02*
X95050000Y-45832700D01*
X95050000Y-45832700D02*
X96666400Y-47449100D01*
X96666400Y-47449100D02*
X96666400Y-54371900D01*
X72707500Y-68262500D02*
X72707500Y-67523300D01*
X68117500Y-82011400D02*
X68117500Y-80810000D01*
D46*
X74316300Y-79345200D02*
X73909800Y-79345200D01*
X73909800Y-79345200D02*
X73785000Y-79470000D01*
D45*
X71847500Y-81907500D02*
X72347500Y-81907500D01*
X68117500Y-80058300D02*
X69910000Y-80058300D01*
X82445000Y-77762500D02*
X82445000Y-77023300D01*
X81122500Y-90420000D02*
X81122500Y-89150200D01*
X69910000Y-80058300D02*
X69910000Y-80470000D01*
X69910000Y-79970000D02*
X69910000Y-80058300D01*
X68117500Y-80810000D02*
X68117500Y-80058300D01*
X69910000Y-79970000D02*
X69910000Y-79470000D01*
%TO.N,VLIPO*%
X70935800Y-75467100D02*
X70935800Y-75126500D01*
X70935800Y-75126500D02*
X69949900Y-74140600D01*
X69949900Y-74140600D02*
X69304000Y-74140600D01*
X70935800Y-77368300D02*
X70935800Y-75467100D01*
X70935800Y-75467100D02*
X70938600Y-75467100D01*
X90745000Y-77077500D02*
X90745000Y-75480300D01*
X69304000Y-74140600D02*
X69168300Y-74276300D01*
X69168300Y-74276300D02*
X67750300Y-74276300D01*
X67750300Y-74276300D02*
X67750300Y-74276400D01*
X67750300Y-74276400D02*
X66496700Y-75530000D01*
X69304000Y-74140600D02*
X69304000Y-73313700D01*
X69304000Y-73313700D02*
X69000000Y-73009700D01*
X69000000Y-73009700D02*
X69000000Y-71940000D01*
X70935800Y-77368300D02*
X70847500Y-77456600D01*
X71347500Y-77368300D02*
X70935800Y-77368300D01*
X70847500Y-78032500D02*
X70847500Y-77456600D01*
X65520000Y-75530000D02*
X66496700Y-75530000D01*
X68500000Y-71940000D02*
X68500000Y-70963300D01*
X69000000Y-71940000D02*
X69000000Y-70963300D01*
X69000000Y-70963300D02*
X68500000Y-70963300D01*
X70847500Y-78032500D02*
X69910000Y-78970000D01*
X71347500Y-78032500D02*
X71347500Y-77368300D01*
%TO.N,VPCC*%
X78533300Y-90420000D02*
X71347500Y-83234200D01*
X71347500Y-83234200D02*
X71347500Y-81907500D01*
X79297500Y-90420000D02*
X78533300Y-90420000D01*
X79297500Y-90420000D02*
X80061700Y-90420000D01*
X84512500Y-90420000D02*
X83748300Y-90420000D01*
X83748300Y-90420000D02*
X83748300Y-90993200D01*
X83748300Y-90993200D02*
X83325200Y-91416300D01*
X83325200Y-91416300D02*
X80484800Y-91416300D01*
X80484800Y-91416300D02*
X80061700Y-90993200D01*
X80061700Y-90993200D02*
X80061700Y-90420000D01*
%TO.N,VSYS*%
X81250300Y-65555000D02*
X81464800Y-65555000D01*
X81464800Y-65555000D02*
X81577100Y-65667300D01*
X79032500Y-70872500D02*
X79032500Y-70108300D01*
X82128800Y-65667300D02*
X81577100Y-65667300D01*
X81577100Y-65667300D02*
X81577100Y-66219000D01*
X81577100Y-66219000D02*
X80094800Y-67701300D01*
X80094800Y-67701300D02*
X80094800Y-69619100D01*
X80094800Y-69619100D02*
X79605600Y-70108300D01*
X79605600Y-70108300D02*
X79032500Y-70108300D01*
X70872500Y-57765000D02*
X71536700Y-57765000D01*
X72870500Y-65726400D02*
X71580200Y-64436100D01*
X71580200Y-64436100D02*
X71580200Y-61368900D01*
X71580200Y-61368900D02*
X71900600Y-61048500D01*
X71900600Y-61048500D02*
X71900600Y-58128900D01*
X71900600Y-58128900D02*
X71536700Y-57765000D01*
X64653300Y-69480000D02*
X64418100Y-69715200D01*
X64418100Y-69715200D02*
X64342000Y-69715200D01*
X73018300Y-66635000D02*
X73018300Y-65874200D01*
X73018300Y-65874200D02*
X72870500Y-65726400D01*
X69323000Y-81665400D02*
X69245800Y-81588200D01*
X69245800Y-81588200D02*
X69245800Y-80970000D01*
X69910000Y-80970000D02*
X69245800Y-80970000D01*
X80000000Y-53143900D02*
X81277600Y-53143900D01*
X73995000Y-66635000D02*
X73018300Y-66635000D01*
X79032500Y-70872500D02*
X78080800Y-70872500D01*
X78080800Y-70872500D02*
X78043300Y-70910000D01*
X78043300Y-70910000D02*
X74787500Y-70910000D01*
X66755000Y-69480000D02*
X64653300Y-69480000D01*
X69910000Y-80970000D02*
X70847500Y-81907500D01*
%TD*%
M02*
