%TF.GenerationSoftware,KiCad,Pcbnew,10.0.6*%
%TF.CreationDate,2026-09-12T21:31:12+09:00*%
%TF.ProjectId,hub_power,6875625f-706f-4776-9572-2e6b69636164,rev?*%
%TF.SameCoordinates,Original*%
%TF.FileFunction,Copper,L1,Top*%
%TF.FilePolarity,Positive*%
%FSLAX46Y46*%
G04 Gerber Fmt 4.6, Leading zero omitted, Abs format (unit mm)*
G04 Created by KiCad (PCBNEW 10.0.6) date 2026-09-12 21:31:12*
%MOMM*%
%LPD*%
G01*
G04 APERTURE LIST*
G04 Aperture macros list*
%AMRoundRect*
0 Rectangle with rounded corners*
0 $1 Rounding radius*
0 $2 $3 $4 $5 $6 $7 $8 $9 X,Y pos of 4 corners*
0 Add a 4 corners polygon primitive as box body*
4,1,4,$2,$3,$4,$5,$6,$7,$8,$9,$2,$3,0*
0 Add four circle primitives for the rounded corners*
1,1,$1+$1,$2,$3*
1,1,$1+$1,$4,$5*
1,1,$1+$1,$6,$7*
1,1,$1+$1,$8,$9*
0 Add four rect primitives between the rounded corners*
20,1,$1+$1,$2,$3,$4,$5,0*
20,1,$1+$1,$4,$5,$6,$7,0*
20,1,$1+$1,$6,$7,$8,$9,0*
20,1,$1+$1,$8,$9,$2,$3,0*%
G04 Aperture macros list end*
%TA.AperFunction,ComponentPad*%
%ADD10RoundRect,0.250000X0.350000X0.625000X-0.350000X0.625000X-0.350000X-0.625000X0.350000X-0.625000X0*%
%TD*%
%TA.AperFunction,ComponentPad*%
%ADD11O,1.200000X1.750000*%
%TD*%
%TA.AperFunction,ComponentPad*%
%ADD12R,1.700000X1.700000*%
%TD*%
%TA.AperFunction,ComponentPad*%
%ADD13C,1.700000*%
%TD*%
%TA.AperFunction,SMDPad,CuDef*%
%ADD14RoundRect,0.250000X-0.262500X-0.450000X0.262500X-0.450000X0.262500X0.450000X-0.262500X0.450000X0*%
%TD*%
%TA.AperFunction,SMDPad,CuDef*%
%ADD15RoundRect,0.225000X-0.225000X-0.375000X0.225000X-0.375000X0.225000X0.375000X-0.225000X0.375000X0*%
%TD*%
%TA.AperFunction,SMDPad,CuDef*%
%ADD16RoundRect,0.250000X0.475000X-0.250000X0.475000X0.250000X-0.475000X0.250000X-0.475000X-0.250000X0*%
%TD*%
%TA.AperFunction,SMDPad,CuDef*%
%ADD17RoundRect,0.150000X-0.587500X-0.150000X0.587500X-0.150000X0.587500X0.150000X-0.587500X0.150000X0*%
%TD*%
%TA.AperFunction,SMDPad,CuDef*%
%ADD18R,2.200000X1.000000*%
%TD*%
%TA.AperFunction,SMDPad,CuDef*%
%ADD19RoundRect,0.150000X-0.575000X0.150000X-0.575000X-0.150000X0.575000X-0.150000X0.575000X0.150000X0*%
%TD*%
%TA.AperFunction,SMDPad,CuDef*%
%ADD20RoundRect,0.075000X-0.650000X0.075000X-0.650000X-0.075000X0.650000X-0.075000X0.650000X0.075000X0*%
%TD*%
%TA.AperFunction,ComponentPad*%
%ADD21O,2.100000X1.000000*%
%TD*%
%TA.AperFunction,SMDPad,CuDef*%
%ADD22RoundRect,0.250000X-0.250000X-0.475000X0.250000X-0.475000X0.250000X0.475000X-0.250000X0.475000X0*%
%TD*%
%TA.AperFunction,SMDPad,CuDef*%
%ADD23RoundRect,0.062500X-0.350000X-0.062500X0.350000X-0.062500X0.350000X0.062500X-0.350000X0.062500X0*%
%TD*%
%TA.AperFunction,SMDPad,CuDef*%
%ADD24RoundRect,0.062500X-0.062500X-0.350000X0.062500X-0.350000X0.062500X0.350000X-0.062500X0.350000X0*%
%TD*%
%TA.AperFunction,HeatsinkPad*%
%ADD25R,2.500000X2.500000*%
%TD*%
%TA.AperFunction,SMDPad,CuDef*%
%ADD26RoundRect,0.250000X0.450000X-0.262500X0.450000X0.262500X-0.450000X0.262500X-0.450000X-0.262500X0*%
%TD*%
%TA.AperFunction,SMDPad,CuDef*%
%ADD27RoundRect,0.243750X-0.243750X-0.456250X0.243750X-0.456250X0.243750X0.456250X-0.243750X0.456250X0*%
%TD*%
%TA.AperFunction,ComponentPad*%
%ADD28RoundRect,0.250000X-0.350000X-0.625000X0.350000X-0.625000X0.350000X0.625000X-0.350000X0.625000X0*%
%TD*%
%TA.AperFunction,SMDPad,CuDef*%
%ADD29RoundRect,0.250000X-0.312500X-0.625000X0.312500X-0.625000X0.312500X0.625000X-0.312500X0.625000X0*%
%TD*%
%TA.AperFunction,SMDPad,CuDef*%
%ADD30RoundRect,0.075000X-0.650000X-0.075000X0.650000X-0.075000X0.650000X0.075000X-0.650000X0.075000X0*%
%TD*%
%TA.AperFunction,SMDPad,CuDef*%
%ADD31RoundRect,0.087500X-0.325000X-0.087500X0.325000X-0.087500X0.325000X0.087500X-0.325000X0.087500X0*%
%TD*%
%TA.AperFunction,SMDPad,CuDef*%
%ADD32RoundRect,0.087500X-0.087500X-0.325000X0.087500X-0.325000X0.087500X0.325000X-0.087500X0.325000X0*%
%TD*%
%TA.AperFunction,HeatsinkPad*%
%ADD33R,2.700000X2.700000*%
%TD*%
%TA.AperFunction,SMDPad,CuDef*%
%ADD34RoundRect,0.250000X-0.300000X-1.600000X0.300000X-1.600000X0.300000X1.600000X-0.300000X1.600000X0*%
%TD*%
%TA.AperFunction,SMDPad,CuDef*%
%ADD35RoundRect,0.250000X0.650000X-0.325000X0.650000X0.325000X-0.650000X0.325000X-0.650000X-0.325000X0*%
%TD*%
%TA.AperFunction,ViaPad*%
%ADD36C,0.800000*%
%TD*%
%TA.AperFunction,Conductor*%
%ADD37C,0.200000*%
%TD*%
%TA.AperFunction,Conductor*%
%ADD38C,0.150000*%
%TD*%
G04 APERTURE END LIST*
D10*
%TO.P,J4,1*%
%TO.N,SPKP*%
X130020000Y-63460000D03*
D11*
%TO.P,J4,2*%
%TO.N,SPKM*%
X128020000Y-63460000D03*
%TD*%
D10*
%TO.P,J5,1*%
%TO.N,SPKM*%
X130020000Y-53300000D03*
D11*
%TO.P,J5,2*%
%TO.N,SPKO*%
X128020000Y-53300000D03*
%TD*%
D12*
%TO.P,J1,1*%
%TO.N,BTN*%
X81760000Y-88860000D03*
D13*
%TO.P,J1,2*%
%TO.N,SDA*%
X84300000Y-88860000D03*
%TO.P,J1,3*%
%TO.N,SCL*%
X86840000Y-88860000D03*
%TO.P,J1,4*%
%TO.N,V33*%
X89380000Y-88860000D03*
%TO.P,J1,5*%
%TO.N,GND*%
X91920000Y-88860000D03*
%TO.P,J1,6*%
%TO.N,IN*%
X94460000Y-88860000D03*
%TO.P,J1,7*%
%TO.N,V5*%
X97000000Y-88860000D03*
%TD*%
D12*
%TO.P,J3,1*%
%TO.N,SDA*%
X84300000Y-78700000D03*
D13*
%TO.P,J3,2*%
%TO.N,SCL*%
X86840000Y-78700000D03*
%TO.P,J3,3*%
%TO.N,V33*%
X89380000Y-78700000D03*
%TO.P,J3,4*%
%TO.N,GND*%
X91920000Y-78700000D03*
%TD*%
D12*
%TO.P,J2,1*%
%TO.N,GND*%
X69060000Y-73620000D03*
D13*
%TO.P,J2,2*%
%TO.N,V33*%
X69060000Y-71080000D03*
%TO.P,J2,3*%
%TO.N,SCL*%
X69060000Y-68540000D03*
%TO.P,J2,4*%
%TO.N,SDA*%
X69060000Y-66000000D03*
%TD*%
D12*
%TO.P,J6,1*%
%TO.N,GND*%
X109700000Y-43140000D03*
D13*
%TO.P,J6,2*%
%TO.N,EN*%
X112240000Y-43140000D03*
%TD*%
D12*
%TO.P,J7,1*%
%TO.N,EN*%
X102080000Y-43140000D03*
D13*
%TO.P,J7,2*%
%TO.N,GND*%
X104620000Y-43140000D03*
%TD*%
D12*
%TO.P,J8,1*%
%TO.N,GND*%
X66520000Y-50760000D03*
D13*
%TO.P,J8,2*%
%TO.N,BTN*%
X66520000Y-48220000D03*
%TD*%
D12*
%TO.P,J11,1*%
%TO.N,V5*%
X81760000Y-43140000D03*
D13*
%TO.P,J11,2*%
%TO.N,unconnected-(J11-Pin_2-Pad2)*%
X84300000Y-43140000D03*
%TO.P,J11,3*%
%TO.N,GND*%
X86840000Y-43140000D03*
%TO.P,J11,4*%
%TO.N,V33*%
X89380000Y-43140000D03*
%TO.P,J11,5*%
%TO.N,SDA*%
X91920000Y-43140000D03*
%TO.P,J11,6*%
%TO.N,SCL*%
X94460000Y-43140000D03*
%TO.P,J11,7*%
%TO.N,EN*%
X97000000Y-43140000D03*
%TD*%
D14*
%TO.P,R31,1*%
%TO.N,IN*%
X116407500Y-83780000D03*
%TO.P,R31,2*%
%TO.N,BASE*%
X118232500Y-83780000D03*
%TD*%
%TO.P,R32,1*%
%TO.N,BASE*%
X116407500Y-81240000D03*
%TO.P,R32,2*%
%TO.N,GND*%
X118232500Y-81240000D03*
%TD*%
D15*
%TO.P,D31,1*%
%TO.N,V5*%
X118210000Y-68540000D03*
%TO.P,D31,2*%
%TO.N,COL*%
X121510000Y-68540000D03*
%TD*%
D16*
%TO.P,C31,1*%
%TO.N,V5*%
X99540000Y-75840000D03*
%TO.P,C31,2*%
%TO.N,GND*%
X99540000Y-73940000D03*
%TD*%
%TO.P,C32,1*%
%TO.N,EN*%
X99540000Y-55520000D03*
%TO.P,C32,2*%
%TO.N,GND*%
X99540000Y-53620000D03*
%TD*%
D17*
%TO.P,Q31,1*%
%TO.N,BASE*%
X116382500Y-72670000D03*
%TO.P,Q31,2*%
%TO.N,GND*%
X116382500Y-74570000D03*
%TO.P,Q31,3*%
%TO.N,COL*%
X118257500Y-73620000D03*
%TD*%
D18*
%TO.P,K31,1*%
%TO.N,V5*%
X113320000Y-52030000D03*
%TO.P,K31,3*%
%TO.N,unconnected-(K31-Pad3)*%
X113320000Y-57110000D03*
%TO.P,K31,4*%
%TO.N,SPKP*%
X113320000Y-59650000D03*
%TO.P,K31,5*%
%TO.N,SPKO*%
X113320000Y-62190000D03*
%TO.P,K31,8*%
%TO.N,unconnected-(K31-Pad8)*%
X121320000Y-62190000D03*
%TO.P,K31,9*%
%TO.N,unconnected-(K31-Pad9)*%
X121320000Y-59650000D03*
%TO.P,K31,10*%
%TO.N,unconnected-(K31-Pad10)*%
X121320000Y-57110000D03*
%TO.P,K31,12*%
%TO.N,COL*%
X121320000Y-52030000D03*
%TD*%
D19*
%TO.P,J13,A1*%
%TO.N,GNDP*%
X69695000Y-100750000D03*
%TO.P,J13,A4*%
%TO.N,VBUS*%
X69695000Y-101550000D03*
D20*
%TO.P,J13,A5*%
%TO.N,CC1*%
X69695000Y-102750000D03*
%TO.P,J13,A6*%
%TO.N,unconnected-(J13-D+-PadA6)*%
X69695000Y-103750000D03*
%TO.P,J13,A7*%
%TO.N,unconnected-(J13-D--PadA7)*%
X69695000Y-104250000D03*
%TO.P,J13,A8*%
%TO.N,unconnected-(J13-SBU1-PadA8)*%
X69695000Y-105250000D03*
D19*
%TO.P,J13,A9*%
%TO.N,VBUS*%
X69695000Y-106450000D03*
%TO.P,J13,A12*%
%TO.N,GNDP*%
X69695000Y-107250000D03*
%TO.P,J13,B1*%
X69695000Y-107250000D03*
%TO.P,J13,B4*%
%TO.N,VBUS*%
X69695000Y-106450000D03*
D20*
%TO.P,J13,B5*%
%TO.N,CC2*%
X69695000Y-105750000D03*
%TO.P,J13,B6*%
%TO.N,unconnected-(J13-D+-PadB6)*%
X69695000Y-104750000D03*
%TO.P,J13,B7*%
%TO.N,unconnected-(J13-D--PadB7)*%
X69695000Y-103250000D03*
%TO.P,J13,B8*%
%TO.N,unconnected-(J13-SBU2-PadB8)*%
X69695000Y-102250000D03*
D19*
%TO.P,J13,B9*%
%TO.N,VBUS*%
X69695000Y-101550000D03*
%TO.P,J13,B12*%
%TO.N,GNDP*%
X69695000Y-100750000D03*
D21*
%TO.P,J13,SH*%
X68780000Y-99680000D03*
X68780000Y-108320000D03*
%TD*%
D14*
%TO.P,R44,1*%
%TO.N,CC1*%
X84087500Y-95700000D03*
%TO.P,R44,2*%
%TO.N,GNDP*%
X85912500Y-95700000D03*
%TD*%
%TO.P,R45,1*%
%TO.N,CC2*%
X88087500Y-95700000D03*
%TO.P,R45,2*%
%TO.N,GNDP*%
X89912500Y-95700000D03*
%TD*%
D22*
%TO.P,C8,1*%
%TO.N,VBUS*%
X76050000Y-98000000D03*
%TO.P,C8,2*%
%TO.N,GNDP*%
X77950000Y-98000000D03*
%TD*%
%TO.P,C7,1*%
%TO.N,VLIPO*%
X80050000Y-98000000D03*
%TO.P,C7,2*%
%TO.N,GNDP*%
X81950000Y-98000000D03*
%TD*%
D23*
%TO.P,U2,1*%
%TO.N,VSYS*%
X75062500Y-102500000D03*
%TO.P,U2,2*%
%TO.N,VPCC*%
X75062500Y-103000000D03*
%TO.P,U2,3*%
%TO.N,VBUS*%
X75062500Y-103500000D03*
%TO.P,U2,4*%
X75062500Y-104000000D03*
%TO.P,U2,5*%
%TO.N,THERM*%
X75062500Y-104500000D03*
D24*
%TO.P,U2,6*%
%TO.N,unconnected-(U2-~{PG}-Pad6)*%
X76000000Y-105437500D03*
%TO.P,U2,7*%
%TO.N,STAT2*%
X76500000Y-105437500D03*
%TO.P,U2,8*%
%TO.N,STAT1*%
X77000000Y-105437500D03*
%TO.P,U2,9*%
%TO.N,VBUS*%
X77500000Y-105437500D03*
%TO.P,U2,10*%
%TO.N,GNDP*%
X78000000Y-105437500D03*
D23*
%TO.P,U2,11*%
X78937500Y-104500000D03*
%TO.P,U2,12*%
%TO.N,PROG3*%
X78937500Y-104000000D03*
%TO.P,U2,13*%
%TO.N,PROG1*%
X78937500Y-103500000D03*
%TO.P,U2,14*%
%TO.N,VLIPO*%
X78937500Y-103000000D03*
%TO.P,U2,15*%
X78937500Y-102500000D03*
D24*
%TO.P,U2,16*%
X78000000Y-101562500D03*
%TO.P,U2,17*%
%TO.N,VBUS*%
X77500000Y-101562500D03*
%TO.P,U2,18*%
X77000000Y-101562500D03*
%TO.P,U2,19*%
X76500000Y-101562500D03*
%TO.P,U2,20*%
%TO.N,VSYS*%
X76000000Y-101562500D03*
D25*
%TO.P,U2,21*%
%TO.N,GNDP*%
X77000000Y-103500000D03*
%TD*%
D26*
%TO.P,R6,1*%
%TO.N,VBUS*%
X69000000Y-111979500D03*
%TO.P,R6,2*%
%TO.N,VPCC*%
X69000000Y-110154500D03*
%TD*%
%TO.P,R7,1*%
%TO.N,VPCC*%
X69000000Y-115490500D03*
%TO.P,R7,2*%
%TO.N,GNDP*%
X69000000Y-113665500D03*
%TD*%
D14*
%TO.P,R16,1*%
%TO.N,GNDP*%
X73087500Y-112000000D03*
%TO.P,R16,2*%
%TO.N,PROG1*%
X74912500Y-112000000D03*
%TD*%
%TO.P,R17,1*%
%TO.N,GNDP*%
X76587500Y-112000000D03*
%TO.P,R17,2*%
%TO.N,PROG3*%
X78412500Y-112000000D03*
%TD*%
%TO.P,R15,1*%
%TO.N,GNDP*%
X80087500Y-112000000D03*
%TO.P,R15,2*%
%TO.N,THERM*%
X81912500Y-112000000D03*
%TD*%
D27*
%TO.P,LED4,1*%
%TO.N,N_LED4*%
X76562500Y-118000000D03*
%TO.P,LED4,2*%
%TO.N,VBUS*%
X78437500Y-118000000D03*
%TD*%
D14*
%TO.P,R8,1*%
%TO.N,N_LED4*%
X80087500Y-118000000D03*
%TO.P,R8,2*%
%TO.N,STAT1*%
X81912500Y-118000000D03*
%TD*%
D27*
%TO.P,LED3,1*%
%TO.N,N_LED3*%
X83562500Y-118000000D03*
%TO.P,LED3,2*%
%TO.N,VBUS*%
X85437500Y-118000000D03*
%TD*%
D14*
%TO.P,R14,1*%
%TO.N,N_LED3*%
X87087500Y-118000000D03*
%TO.P,R14,2*%
%TO.N,STAT2*%
X88912500Y-118000000D03*
%TD*%
D28*
%TO.P,J10,1*%
%TO.N,GNDP*%
X71000000Y-118750000D03*
D11*
%TO.P,J10,2*%
%TO.N,BATP*%
X73000000Y-118750000D03*
%TD*%
D29*
%TO.P,R41,1*%
%TO.N,BATP*%
X76537500Y-122500000D03*
%TO.P,R41,2*%
%TO.N,VLIPO*%
X79462500Y-122500000D03*
%TD*%
D30*
%TO.P,U3,1*%
%TO.N,V33P*%
X82850000Y-121500000D03*
%TO.P,U3,2*%
%TO.N,GNDP*%
X82850000Y-122000000D03*
%TO.P,U3,3*%
%TO.N,unconnected-(U3-~{Alert}-Pad3)*%
X82850000Y-122500000D03*
%TO.P,U3,4*%
%TO.N,SDAP*%
X82850000Y-123000000D03*
%TO.P,U3,5*%
%TO.N,SCLP*%
X82850000Y-123500000D03*
%TO.P,U3,6*%
%TO.N,V33P*%
X87150000Y-123500000D03*
%TO.P,U3,7*%
%TO.N,GNDP*%
X87150000Y-123000000D03*
%TO.P,U3,8*%
%TO.N,VLIPO*%
X87150000Y-122500000D03*
%TO.P,U3,9*%
X87150000Y-122000000D03*
%TO.P,U3,10*%
%TO.N,BATP*%
X87150000Y-121500000D03*
%TD*%
D22*
%TO.P,C41,1*%
%TO.N,V33P*%
X90050000Y-122500000D03*
%TO.P,C41,2*%
%TO.N,GNDP*%
X91950000Y-122500000D03*
%TD*%
D14*
%TO.P,R42,1*%
%TO.N,V33P*%
X94087500Y-122500000D03*
%TO.P,R42,2*%
%TO.N,SDAP*%
X95912500Y-122500000D03*
%TD*%
%TO.P,R43,1*%
%TO.N,V33P*%
X97587500Y-122500000D03*
%TO.P,R43,2*%
%TO.N,SCLP*%
X99412500Y-122500000D03*
%TD*%
D12*
%TO.P,J12,1*%
%TO.N,V5P*%
X100090000Y-97500000D03*
D13*
%TO.P,J12,2*%
%TO.N,unconnected-(J12-Pin_2-Pad2)*%
X100090000Y-100040000D03*
%TO.P,J12,3*%
%TO.N,GNDP*%
X100090000Y-102580000D03*
%TO.P,J12,4*%
%TO.N,V33P*%
X100090000Y-105120000D03*
%TO.P,J12,5*%
%TO.N,SDAP*%
X100090000Y-107660000D03*
%TO.P,J12,6*%
%TO.N,SCLP*%
X100090000Y-110200000D03*
%TO.P,J12,7*%
%TO.N,ENP*%
X100090000Y-112740000D03*
%TD*%
D31*
%TO.P,U1,1*%
%TO.N,V5P*%
X91037500Y-100025000D03*
%TO.P,U1,2*%
%TO.N,unconnected-(U1-NC-Pad2)*%
X91037500Y-100675000D03*
%TO.P,U1,3*%
%TO.N,SW*%
X91037500Y-101325000D03*
%TO.P,U1,4*%
X91037500Y-101975000D03*
D32*
%TO.P,U1,5*%
%TO.N,GNDP*%
X92025000Y-102962500D03*
%TO.P,U1,6*%
X92675000Y-102962500D03*
%TO.P,U1,7*%
X93325000Y-102962500D03*
%TO.P,U1,8*%
%TO.N,VSYS*%
X93975000Y-102962500D03*
D31*
%TO.P,U1,9*%
%TO.N,LBI*%
X94962500Y-101975000D03*
%TO.P,U1,10*%
%TO.N,GNDP*%
X94962500Y-101325000D03*
%TO.P,U1,11*%
%TO.N,ENP*%
X94962500Y-100675000D03*
%TO.P,U1,12*%
%TO.N,LBO*%
X94962500Y-100025000D03*
D32*
%TO.P,U1,13*%
%TO.N,GNDP*%
X93975000Y-99037500D03*
%TO.P,U1,14*%
%TO.N,FB*%
X93325000Y-99037500D03*
%TO.P,U1,15*%
%TO.N,V5P*%
X92675000Y-99037500D03*
%TO.P,U1,16*%
X92025000Y-99037500D03*
D33*
%TO.P,U1,17*%
%TO.N,GNDP*%
X93000000Y-101000000D03*
%TD*%
D34*
%TO.P,L1,1*%
%TO.N,VSYS*%
X84500000Y-100000000D03*
%TO.P,L1,2*%
%TO.N,SW*%
X87500000Y-100000000D03*
%TD*%
D22*
%TO.P,C1,1*%
%TO.N,VSYS*%
X83550000Y-105500000D03*
%TO.P,C1,2*%
%TO.N,GNDP*%
X85450000Y-105500000D03*
%TD*%
%TO.P,C4,1*%
%TO.N,VSYS*%
X87050000Y-105500000D03*
%TO.P,C4,2*%
%TO.N,GNDP*%
X88950000Y-105500000D03*
%TD*%
D16*
%TO.P,C2,1*%
%TO.N,V5P*%
X91500000Y-106950000D03*
%TO.P,C2,2*%
%TO.N,GNDP*%
X91500000Y-105050000D03*
%TD*%
D35*
%TO.P,C6,1*%
%TO.N,V5P*%
X97022000Y-108475000D03*
%TO.P,C6,2*%
%TO.N,GNDP*%
X97022000Y-105525000D03*
%TD*%
%TO.P,C9,1*%
%TO.N,V5P*%
X103067000Y-108475000D03*
%TO.P,C9,2*%
%TO.N,GNDP*%
X103067000Y-105525000D03*
%TD*%
D26*
%TO.P,R3,1*%
%TO.N,V5P*%
X94865000Y-107912500D03*
%TO.P,R3,2*%
%TO.N,FB*%
X94865000Y-106087500D03*
%TD*%
%TO.P,R4,1*%
%TO.N,FB*%
X96977000Y-111912500D03*
%TO.P,R4,2*%
%TO.N,GNDP*%
X96977000Y-110087500D03*
%TD*%
D14*
%TO.P,R1,1*%
%TO.N,VSYS*%
X83113500Y-109500000D03*
%TO.P,R1,2*%
%TO.N,LBI*%
X84938500Y-109500000D03*
%TD*%
%TO.P,R2,1*%
%TO.N,LBI*%
X86514500Y-109500000D03*
%TO.P,R2,2*%
%TO.N,GNDP*%
X88339500Y-109500000D03*
%TD*%
D26*
%TO.P,R13,1*%
%TO.N,VSYS*%
X96956000Y-100912500D03*
%TO.P,R13,2*%
%TO.N,ENP*%
X96956000Y-99087500D03*
%TD*%
D17*
%TO.P,Q1,1*%
%TO.N,LBO*%
X86062500Y-113050000D03*
%TO.P,Q1,2*%
%TO.N,VSYS*%
X86062500Y-114950000D03*
%TO.P,Q1,3*%
%TO.N,N_Q1C*%
X87937500Y-114000000D03*
%TD*%
D14*
%TO.P,R20,1*%
%TO.N,N_Q1C*%
X90087500Y-114000000D03*
%TO.P,R20,2*%
%TO.N,N_LED1*%
X91912500Y-114000000D03*
%TD*%
D27*
%TO.P,LED1,1*%
%TO.N,GNDP*%
X93562500Y-114000000D03*
%TO.P,LED1,2*%
%TO.N,N_LED1*%
X95437500Y-114000000D03*
%TD*%
D14*
%TO.P,R5,1*%
%TO.N,V5P*%
X90022500Y-110500000D03*
%TO.P,R5,2*%
%TO.N,N_LED2*%
X91847500Y-110500000D03*
%TD*%
D27*
%TO.P,LED2,1*%
%TO.N,GNDP*%
X93397500Y-110500000D03*
%TO.P,LED2,2*%
%TO.N,N_LED2*%
X95272500Y-110500000D03*
%TD*%
D36*
%TO.N,BATP*%
X86016100Y-120933700D03*
%TO.N,CC1*%
X83008200Y-95814600D03*
X68407200Y-102650200D03*
%TO.N,CC2*%
X87088500Y-96699000D03*
X68407200Y-105650200D03*
%TO.N,FB*%
X94481500Y-98173800D03*
X98088500Y-111008400D03*
X95953800Y-107006800D03*
%TO.N,GND*%
X117064400Y-77935900D03*
%TO.N,GNDP*%
X81778400Y-99303300D03*
X88950000Y-104221600D03*
X77753800Y-109568400D03*
%TO.N,IN*%
X116407500Y-85063300D03*
%TO.N,LBI*%
X94707500Y-103092400D03*
X86513300Y-108234700D03*
%TO.N,LBO*%
X97984800Y-98107200D03*
X86366300Y-110771300D03*
%TO.N,PROG1*%
X74912500Y-110730300D03*
X80811300Y-103623200D03*
%TO.N,SCLP*%
X99412500Y-121206200D03*
X84135200Y-123500000D03*
%TO.N,SDAP*%
X95912500Y-121243900D03*
X81572400Y-123099800D03*
%TO.N,SPKO*%
X114981300Y-61880400D03*
%TO.N,SPKP*%
X114994900Y-60316000D03*
%TO.N,STAT1*%
X76637400Y-110359900D03*
X81148300Y-116750300D03*
%TO.N,THERM*%
X81912500Y-110685100D03*
X75062500Y-105181100D03*
%TO.N,V5*%
X99208300Y-76923400D03*
X118210000Y-67376700D03*
X114671700Y-53062400D03*
%TO.N,V5P*%
X93425500Y-107913700D03*
%TO.N,VBUS*%
X77451000Y-106754000D03*
X74095700Y-103804200D03*
X67743600Y-112284700D03*
X78081200Y-119876700D03*
%TO.N,VLIPO*%
X80608600Y-121778200D03*
X79911600Y-102334500D03*
X88125200Y-120816100D03*
%TO.N,VPCC*%
X74276000Y-101965300D03*
X70267000Y-110919200D03*
%TO.N,VSYS*%
X94092400Y-103941800D03*
X82496500Y-105304400D03*
X75912400Y-100134100D03*
%TD*%
%TO.N,BASE*%
D37*
X118232500Y-83780000D02*
X117468300Y-83780000D01*
X116407500Y-81240000D02*
X116407500Y-82191700D01*
X116407500Y-82191700D02*
X117468300Y-83252500D01*
X117468300Y-83252500D02*
X117468300Y-83780000D01*
X115394800Y-76783200D02*
X116407500Y-77795900D01*
X116407500Y-77795900D02*
X116407500Y-81240000D01*
X116382500Y-72670000D02*
X116382500Y-73221700D01*
X115394800Y-74019800D02*
X116192900Y-73221700D01*
X116192900Y-73221700D02*
X116382500Y-73221700D01*
D38*
X115394800Y-76783200D02*
X115394800Y-74019800D01*
%TO.N,BATP*%
D37*
X76537500Y-122500000D02*
X75723300Y-122500000D01*
X73000000Y-118750000D02*
X73851700Y-118750000D01*
X73851700Y-118750000D02*
X73851700Y-120628400D01*
X73851700Y-120628400D02*
X75723300Y-122500000D01*
X86016100Y-120933700D02*
X86173300Y-121090900D01*
X86173300Y-121090900D02*
X86173300Y-121500000D01*
X87150000Y-121500000D02*
X86173300Y-121500000D01*
%TO.N,BTN*%
X66520000Y-48220000D02*
X67621700Y-49321700D01*
X67621700Y-49321700D02*
X67621700Y-71235200D01*
X67621700Y-71235200D02*
X68860400Y-72473900D01*
X68860400Y-72473900D02*
X69971700Y-72473900D01*
X69971700Y-72473900D02*
X81760000Y-84262200D01*
X81760000Y-84262200D02*
X81760000Y-88860000D01*
%TO.N,CC1*%
X83008200Y-95814600D02*
X83208700Y-95814600D01*
X83208700Y-95814600D02*
X83323300Y-95700000D01*
X84087500Y-95700000D02*
X83323300Y-95700000D01*
D38*
X68407200Y-102650200D02*
X68643500Y-102650200D01*
X68643500Y-102650200D02*
X68743300Y-102750000D01*
X69695000Y-102750000D02*
X68743300Y-102750000D01*
%TO.N,CC2*%
D37*
X87088500Y-96699000D02*
X87323300Y-96464200D01*
X87323300Y-96464200D02*
X87323300Y-95700000D01*
X88087500Y-95700000D02*
X87323300Y-95700000D01*
D38*
X68407200Y-105650200D02*
X68643500Y-105650200D01*
X68643500Y-105650200D02*
X68743300Y-105750000D01*
X69695000Y-105750000D02*
X68743300Y-105750000D01*
%TO.N,COL*%
D37*
X121510000Y-68540000D02*
X120808300Y-68540000D01*
X121510000Y-68540000D02*
X122211700Y-68540000D01*
X122671700Y-52030000D02*
X122671700Y-68080000D01*
X122671700Y-68080000D02*
X122211700Y-68540000D01*
X118257500Y-73620000D02*
X118257500Y-71090800D01*
X118257500Y-71090800D02*
X120808300Y-68540000D01*
X121320000Y-52030000D02*
X122671700Y-52030000D01*
%TO.N,EN*%
X99540000Y-55520000D02*
X99540000Y-54768300D01*
X97000000Y-43140000D02*
X97000000Y-52698100D01*
X97000000Y-52698100D02*
X99070200Y-54768300D01*
X99070200Y-54768300D02*
X99540000Y-54768300D01*
%TO.N,ENP*%
X96993700Y-99208800D02*
X96955800Y-99170900D01*
X96955800Y-99170900D02*
X96955800Y-99087500D01*
X100091100Y-112740000D02*
X101915300Y-110915800D01*
X101915300Y-110915800D02*
X101915300Y-107763900D01*
X101915300Y-107763900D02*
X103182600Y-106496600D01*
X103182600Y-106496600D02*
X103959700Y-106496600D01*
X103959700Y-106496600D02*
X104218700Y-106237600D01*
X104218700Y-106237600D02*
X104218700Y-104845800D01*
X104218700Y-104845800D02*
X100682900Y-101310000D01*
X100682900Y-101310000D02*
X99094900Y-101310000D01*
X99094900Y-101310000D02*
X96993700Y-99208800D01*
D38*
X95962800Y-100239700D02*
X96993700Y-99208800D01*
D37*
X94962500Y-100675000D02*
X95626700Y-100675000D01*
X95626700Y-100675000D02*
X95626700Y-100575800D01*
X95626700Y-100575800D02*
X95962800Y-100239700D01*
%TO.N,FB*%
X96976700Y-111148300D02*
X97948600Y-111148300D01*
X97948600Y-111148300D02*
X98088500Y-111008400D01*
X94865100Y-106851700D02*
X95798700Y-106851700D01*
X95798700Y-106851700D02*
X95953800Y-107006800D01*
X94481500Y-98173800D02*
X93524500Y-98173800D01*
X93524500Y-98173800D02*
X93325000Y-98373300D01*
X93325000Y-99037500D02*
X93325000Y-98373300D01*
X96976700Y-111912500D02*
X96976700Y-111148300D01*
X94865100Y-106087500D02*
X94865100Y-106851700D01*
%TO.N,GND*%
X99540000Y-73940000D02*
X99540000Y-73188300D01*
X99540000Y-53620000D02*
X99540000Y-54371700D01*
X99540000Y-54371700D02*
X100009800Y-54371700D01*
X100009800Y-54371700D02*
X100533700Y-54895600D01*
X100533700Y-54895600D02*
X100533700Y-72194600D01*
X100533700Y-72194600D02*
X99540000Y-73188300D01*
X66520000Y-50760000D02*
X66520000Y-71080000D01*
X66520000Y-71080000D02*
X69060000Y-73620000D01*
X91920000Y-78700000D02*
X91920000Y-88860000D01*
X99540000Y-53620000D02*
X99540000Y-48220000D01*
X99540000Y-48220000D02*
X104620000Y-43140000D01*
X91920000Y-78700000D02*
X96680000Y-73940000D01*
X96680000Y-73940000D02*
X99540000Y-73940000D01*
X117064400Y-77935900D02*
X118232500Y-79104000D01*
X118232500Y-79104000D02*
X118232500Y-81240000D01*
X117064400Y-77935900D02*
X116382500Y-77254000D01*
X116382500Y-77254000D02*
X116382500Y-74570000D01*
%TO.N,GNDP*%
X78000000Y-105437500D02*
X78000000Y-106101700D01*
X77753800Y-109568400D02*
X78102700Y-109219500D01*
X78102700Y-109219500D02*
X78102700Y-106204400D01*
X78102700Y-106204400D02*
X78000000Y-106101700D01*
X77351700Y-112000000D02*
X77351700Y-109970500D01*
X77351700Y-109970500D02*
X77753800Y-109568400D01*
X91950000Y-122500000D02*
X91198300Y-122500000D01*
X91198300Y-122500000D02*
X91198300Y-122030200D01*
X91198300Y-122030200D02*
X90634400Y-121466300D01*
X90634400Y-121466300D02*
X89407900Y-121466300D01*
X89407900Y-121466300D02*
X89249800Y-121624400D01*
X89249800Y-121624400D02*
X89249800Y-121892000D01*
X89249800Y-121892000D02*
X88141800Y-123000000D01*
X88141800Y-123000000D02*
X87150000Y-123000000D01*
X79652600Y-112000000D02*
X81778400Y-109874200D01*
X81778400Y-109874200D02*
X81778400Y-99303300D01*
X79652600Y-112000000D02*
X79323300Y-112000000D01*
X80087500Y-112000000D02*
X79652600Y-112000000D01*
X96976700Y-110087500D02*
X97928400Y-110087500D01*
X98172800Y-105525000D02*
X98172800Y-109843100D01*
X98172800Y-109843100D02*
X97928400Y-110087500D01*
X100091100Y-102580000D02*
X98172800Y-104498300D01*
X98172800Y-104498300D02*
X98172800Y-105525000D01*
X92675000Y-103626700D02*
X93043300Y-103626700D01*
X93043300Y-103626700D02*
X93101700Y-103568300D01*
X93101700Y-103568300D02*
X93101700Y-103471700D01*
X93101700Y-103471700D02*
X93142900Y-103430500D01*
X93142900Y-103430500D02*
X93143000Y-103430500D01*
X93143000Y-103430500D02*
X93404300Y-103691800D01*
X93404300Y-103691800D02*
X93404300Y-104248000D01*
X93404300Y-104248000D02*
X93778000Y-104621700D01*
X93778000Y-104621700D02*
X95051800Y-104621700D01*
X95051800Y-104621700D02*
X95869400Y-105439300D01*
X95869400Y-105439300D02*
X95869400Y-105525000D01*
X68780000Y-99680000D02*
X67478300Y-99680000D01*
X68780000Y-108320000D02*
X67478300Y-108320000D01*
X67478300Y-108320000D02*
X67370700Y-108212400D01*
X67370700Y-108212400D02*
X67370700Y-99787600D01*
X67370700Y-99787600D02*
X67478300Y-99680000D01*
X73087500Y-112000000D02*
X72323300Y-112000000D01*
X71000000Y-118750000D02*
X71000000Y-113323300D01*
X71000000Y-113323300D02*
X72323300Y-112000000D01*
X87574100Y-107231600D02*
X87181600Y-107231600D01*
X87181600Y-107231600D02*
X86201700Y-106251700D01*
X86201700Y-106251700D02*
X86201700Y-105500000D01*
X88950000Y-106476700D02*
X88329000Y-106476700D01*
X88329000Y-106476700D02*
X87574100Y-107231600D01*
X87574100Y-109500000D02*
X87574100Y-107231600D01*
X97021100Y-105525000D02*
X95869400Y-105525000D01*
X92675000Y-102962500D02*
X92675000Y-103626700D01*
X87150000Y-123000000D02*
X86173300Y-123000000D01*
X93562500Y-114000000D02*
X94301700Y-114000000D01*
X96025000Y-110087500D02*
X96025000Y-112687000D01*
X96025000Y-112687000D02*
X96176700Y-112838700D01*
X96176700Y-112838700D02*
X96176700Y-114832500D01*
X96176700Y-114832500D02*
X96041000Y-114968200D01*
X96041000Y-114968200D02*
X94807900Y-114968200D01*
X94807900Y-114968200D02*
X94301700Y-114462000D01*
X94301700Y-114462000D02*
X94301700Y-114000000D01*
X97021100Y-105525000D02*
X98172800Y-105525000D01*
X81898300Y-121067100D02*
X84962600Y-121067100D01*
X84962600Y-121067100D02*
X85123900Y-121228400D01*
X92823300Y-114000000D02*
X92823300Y-122378400D01*
X92823300Y-122378400D02*
X92701700Y-122500000D01*
X81778400Y-99303300D02*
X81778400Y-99148300D01*
X81778400Y-99148300D02*
X81950000Y-98976700D01*
X81950000Y-98000000D02*
X81950000Y-98976700D01*
X93562500Y-114000000D02*
X92823300Y-114000000D01*
X88950000Y-104221600D02*
X88950000Y-105500000D01*
X96976700Y-110087500D02*
X96025000Y-110087500D01*
X93397000Y-110500000D02*
X94136200Y-110500000D01*
X94136200Y-110500000D02*
X94136200Y-110038000D01*
X94136200Y-110038000D02*
X94689500Y-109484700D01*
X94689500Y-109484700D02*
X95874300Y-109484700D01*
X95874300Y-109484700D02*
X96025000Y-109635400D01*
X96025000Y-109635400D02*
X96025000Y-110087500D01*
X103067000Y-105525000D02*
X103067000Y-104698300D01*
X100091100Y-102580000D02*
X102209400Y-104698300D01*
X102209400Y-104698300D02*
X103067000Y-104698300D01*
X91500000Y-105050000D02*
X90523300Y-105050000D01*
X88950000Y-105500000D02*
X90073300Y-105500000D01*
X90073300Y-105500000D02*
X90523300Y-105050000D01*
X88950000Y-105500000D02*
X88950000Y-106476700D01*
X85450000Y-105500000D02*
X86201700Y-105500000D01*
X88338300Y-109500000D02*
X87574100Y-109500000D01*
X91950000Y-122500000D02*
X92701700Y-122500000D01*
X79323300Y-112000000D02*
X79323300Y-112668700D01*
X79323300Y-112668700D02*
X79032200Y-112959800D01*
X79032200Y-112959800D02*
X77800200Y-112959800D01*
X77800200Y-112959800D02*
X77351700Y-112511300D01*
X77351700Y-112511300D02*
X77351700Y-112000000D01*
X73087500Y-112000000D02*
X73087500Y-111048300D01*
X70081700Y-108320000D02*
X72810000Y-111048300D01*
X72810000Y-111048300D02*
X73087500Y-111048300D01*
X70671700Y-107250000D02*
X70671700Y-107730000D01*
X70671700Y-107730000D02*
X70081700Y-108320000D01*
X71000000Y-118750000D02*
X70148300Y-118750000D01*
X68049800Y-114727300D02*
X68049800Y-114615200D01*
X68049800Y-114615200D02*
X69000000Y-113665000D01*
D38*
X68049800Y-117775500D02*
X68049800Y-114727300D01*
D37*
X70148300Y-118750000D02*
X69173800Y-117775500D01*
X69173800Y-117775500D02*
X68049800Y-117775500D01*
X85912500Y-96651700D02*
X85058200Y-97506000D01*
X85058200Y-97506000D02*
X83699800Y-97506000D01*
D38*
X83699800Y-97506000D02*
X83205800Y-98000000D01*
X83205800Y-98000000D02*
X82701700Y-98000000D01*
D37*
X81950000Y-98000000D02*
X82701700Y-98000000D01*
X77950000Y-98000000D02*
X78701700Y-98000000D01*
X79299800Y-97024800D02*
X78701700Y-97622900D01*
X78701700Y-97622900D02*
X78701700Y-98000000D01*
D38*
X81906500Y-97024800D02*
X79299800Y-97024800D01*
D37*
X81950000Y-98000000D02*
X81906500Y-97956500D01*
X81906500Y-97956500D02*
X81906500Y-97024800D01*
X85912500Y-95700000D02*
X85912500Y-96651700D01*
X85912500Y-95700000D02*
X86676700Y-95700000D01*
X87324800Y-94749800D02*
X86676700Y-95397900D01*
X86676700Y-95397900D02*
X86676700Y-95700000D01*
D38*
X89912500Y-94749800D02*
X87324800Y-94749800D01*
D37*
X89912500Y-95700000D02*
X89912500Y-94749800D01*
D38*
X81898300Y-121067100D02*
X81898300Y-122000000D01*
X82850000Y-122000000D02*
X81898300Y-122000000D01*
X85985200Y-122089700D02*
X85123900Y-121228400D01*
D37*
X86173300Y-123000000D02*
X86173300Y-122277800D01*
X86173300Y-122277800D02*
X85985200Y-122089700D01*
X69695000Y-107250000D02*
X70671700Y-107250000D01*
X68780000Y-108320000D02*
X70081700Y-108320000D01*
X69695000Y-100750000D02*
X70671700Y-100750000D01*
X68780000Y-99680000D02*
X70081700Y-99680000D01*
X70081700Y-99680000D02*
X70671700Y-100270000D01*
X70671700Y-100270000D02*
X70671700Y-100750000D01*
X91500000Y-105050000D02*
X91500000Y-104298300D01*
X91500000Y-104298300D02*
X92025000Y-103773300D01*
X92025000Y-103773300D02*
X92025000Y-102962500D01*
X93037500Y-101000000D02*
X93037500Y-101100200D01*
X93975000Y-99037500D02*
X93975000Y-100062500D01*
X93975000Y-100062500D02*
X93037500Y-101000000D01*
X93000000Y-101000000D02*
X93037500Y-101000000D01*
D38*
X94962500Y-101325000D02*
X94323300Y-101325000D01*
X93037500Y-101100200D02*
X94098500Y-101100200D01*
X94098500Y-101100200D02*
X94323300Y-101325000D01*
D37*
X93000000Y-102298300D02*
X92675000Y-102298300D01*
X93325000Y-102298300D02*
X93000000Y-102298300D01*
X93000000Y-101000000D02*
X93000000Y-102298300D01*
X93325000Y-102962500D02*
X93325000Y-102298300D01*
X92025000Y-102962500D02*
X92025000Y-102298300D01*
X92675000Y-102962500D02*
X92675000Y-102298300D01*
X92675000Y-102298300D02*
X92025000Y-102298300D01*
X76587500Y-112000000D02*
X77351700Y-112000000D01*
X77000000Y-103500000D02*
X78000000Y-104500000D01*
X78000000Y-104500000D02*
X78000000Y-105437500D01*
X78937500Y-104500000D02*
X78000000Y-105437500D01*
%TO.N,IN*%
X116407500Y-85063300D02*
X116407500Y-83780000D01*
%TO.N,LBI*%
X86513300Y-108548300D02*
X86513300Y-108234700D01*
X94707500Y-103092400D02*
X94707500Y-102230000D01*
X94707500Y-102230000D02*
X94962500Y-101975000D01*
X86513300Y-109500000D02*
X86513300Y-108548300D01*
X86513300Y-109500000D02*
X84939700Y-109500000D01*
%TO.N,LBO*%
X95626700Y-100025000D02*
X95626700Y-98825000D01*
X95626700Y-98825000D02*
X96344500Y-98107200D01*
X96344500Y-98107200D02*
X97984800Y-98107200D01*
X86062500Y-112498300D02*
X86366300Y-112194500D01*
X86366300Y-112194500D02*
X86366300Y-110771300D01*
X94962500Y-100025000D02*
X95626700Y-100025000D01*
X86062500Y-113050000D02*
X86062500Y-112498300D01*
%TO.N,N_LED1*%
X95437500Y-114000000D02*
X94698300Y-114000000D01*
X91912500Y-114000000D02*
X92877800Y-113034700D01*
X92877800Y-113034700D02*
X94195000Y-113034700D01*
X94195000Y-113034700D02*
X94698300Y-113538000D01*
X94698300Y-113538000D02*
X94698300Y-114000000D01*
%TO.N,N_LED2*%
X91848300Y-110500000D02*
X92612500Y-110500000D01*
X95272000Y-110500000D02*
X94532800Y-110500000D01*
X94532800Y-110500000D02*
X94532800Y-110962000D01*
X94532800Y-110962000D02*
X94043100Y-111451700D01*
X94043100Y-111451700D02*
X92800000Y-111451700D01*
X92800000Y-111451700D02*
X92612500Y-111264200D01*
X92612500Y-111264200D02*
X92612500Y-110500000D01*
%TO.N,N_LED3*%
X87087500Y-118000000D02*
X86323300Y-118000000D01*
X83562500Y-118000000D02*
X84301700Y-118000000D01*
X84699800Y-117049800D02*
X84301700Y-117447900D01*
X84301700Y-117447900D02*
X84301700Y-118000000D01*
D38*
X86137300Y-117049800D02*
X84699800Y-117049800D01*
D37*
X86323300Y-118000000D02*
X86323300Y-117235800D01*
X86323300Y-117235800D02*
X86137300Y-117049800D01*
%TO.N,N_LED4*%
X76562500Y-118000000D02*
X77301700Y-118000000D01*
X77699800Y-117049800D02*
X77301700Y-117447900D01*
X77301700Y-117447900D02*
X77301700Y-118000000D01*
D38*
X80087500Y-117049800D02*
X77699800Y-117049800D01*
D37*
X80087500Y-118000000D02*
X80087500Y-117049800D01*
%TO.N,N_Q1C*%
X90087500Y-114000000D02*
X87937500Y-114000000D01*
%TO.N,PROG1*%
X74912500Y-110730300D02*
X74912500Y-112000000D01*
D38*
X79576700Y-103500000D02*
X79699900Y-103623200D01*
X79699900Y-103623200D02*
X80811300Y-103623200D01*
X78937500Y-103500000D02*
X79576700Y-103500000D01*
%TO.N,PROG3*%
D37*
X78412500Y-112000000D02*
X78412500Y-111048300D01*
X78412500Y-111048300D02*
X78550400Y-110910400D01*
X78550400Y-110910400D02*
X78550400Y-105749800D01*
D38*
X80155500Y-104124800D02*
X79701500Y-104124800D01*
X79701500Y-104124800D02*
X79576700Y-104000000D01*
D37*
X80155500Y-104700000D02*
X80155500Y-104124800D01*
D38*
X78937500Y-104000000D02*
X79576700Y-104000000D01*
X78550400Y-105749800D02*
X79600200Y-104700000D01*
X79600200Y-104700000D02*
X80155500Y-104700000D01*
%TO.N,SCL*%
D37*
X86840000Y-78700000D02*
X86840000Y-88860000D01*
X94460000Y-43140000D02*
X94460000Y-71080000D01*
X94460000Y-71080000D02*
X86840000Y-78700000D01*
%TO.N,SCLP*%
X82850000Y-123500000D02*
X84135200Y-123500000D01*
X99412500Y-121206200D02*
X98937600Y-120731300D01*
X98937600Y-120731300D02*
X98937600Y-111850800D01*
X98937600Y-111850800D02*
X100091100Y-110697300D01*
X100091100Y-110697300D02*
X100091100Y-110200000D01*
X99412500Y-121206200D02*
X99412500Y-122500000D01*
%TO.N,SDA*%
X84300000Y-78700000D02*
X84300000Y-88860000D01*
X84300000Y-78700000D02*
X84300000Y-77598300D01*
X91920000Y-43140000D02*
X91920000Y-69978300D01*
X91920000Y-69978300D02*
X84300000Y-77598300D01*
%TO.N,SDAP*%
X95912500Y-121243900D02*
X95912500Y-122500000D01*
D38*
X81572400Y-123099800D02*
X81798500Y-123099800D01*
X81798500Y-123099800D02*
X81898300Y-123000000D01*
X82850000Y-123000000D02*
X81898300Y-123000000D01*
%TO.N,SPKM*%
D37*
X130020000Y-53300000D02*
X129168300Y-53300000D01*
X128020000Y-63460000D02*
X128871700Y-63460000D01*
X129168300Y-53300000D02*
X129168300Y-63163400D01*
X129168300Y-63163400D02*
X128871700Y-63460000D01*
%TO.N,SPKO*%
X114671700Y-62190000D02*
X114981300Y-61880400D01*
X113320000Y-62190000D02*
X114671700Y-62190000D01*
%TO.N,SPKP*%
X113320000Y-59650000D02*
X114671700Y-59650000D01*
X114671700Y-59650000D02*
X114671700Y-59992800D01*
X114671700Y-59992800D02*
X114994900Y-60316000D01*
%TO.N,STAT1*%
X77000000Y-105437500D02*
X77000000Y-106283500D01*
X77000000Y-106283500D02*
X76637400Y-106646100D01*
X76637400Y-106646100D02*
X76637400Y-110359900D01*
X81148300Y-116750300D02*
X81148300Y-118000000D01*
X81912500Y-118000000D02*
X81148300Y-118000000D01*
%TO.N,STAT2*%
X76500000Y-105437500D02*
X76500000Y-106101700D01*
X76500000Y-106101700D02*
X75823300Y-106778400D01*
X75823300Y-106778400D02*
X75823300Y-112845200D01*
X75823300Y-112845200D02*
X78969200Y-115991100D01*
X78969200Y-115991100D02*
X87855300Y-115991100D01*
X87855300Y-115991100D02*
X88912500Y-117048300D01*
X88912500Y-118000000D02*
X88912500Y-117048300D01*
%TO.N,SW*%
X87500000Y-100000000D02*
X87500000Y-102101700D01*
D38*
X91037500Y-101325000D02*
X90398300Y-101325000D01*
X89106200Y-101100200D02*
X90173500Y-101100200D01*
X90173500Y-101100200D02*
X90398300Y-101325000D01*
D37*
X87500000Y-102101700D02*
X88201500Y-102101700D01*
X88201500Y-102101700D02*
X89106100Y-101197100D01*
X89106100Y-101197100D02*
X89106100Y-101100200D01*
X89106100Y-101100200D02*
X89106200Y-101100200D01*
X91037500Y-101325000D02*
X91037500Y-101975000D01*
%TO.N,THERM*%
X81912500Y-112000000D02*
X81912500Y-110685100D01*
X75062500Y-105181100D02*
X75062500Y-104500000D01*
%TO.N,V33*%
X89380000Y-78700000D02*
X89380000Y-88860000D01*
X89380000Y-43140000D02*
X89380000Y-50760000D01*
X89380000Y-50760000D02*
X69060000Y-71080000D01*
%TO.N,V33P*%
D38*
X88101700Y-123500000D02*
X88201500Y-123400200D01*
X88201500Y-123400200D02*
X89662500Y-123400200D01*
D37*
X100091100Y-105120000D02*
X98761100Y-106450000D01*
X98761100Y-106450000D02*
X98761100Y-111483400D01*
X98761100Y-111483400D02*
X98351700Y-111892800D01*
X98351700Y-111892800D02*
X98351700Y-122500000D01*
X97587500Y-122500000D02*
X98351700Y-122500000D01*
X94087500Y-123450200D02*
X94087500Y-123451700D01*
X94087500Y-122500000D02*
X94087500Y-123450200D01*
X95149800Y-123450200D02*
X94087500Y-123450200D01*
D38*
X97587500Y-123450200D02*
X95149800Y-123450200D01*
D37*
X97587500Y-122500000D02*
X97587500Y-123450200D01*
X90599800Y-123049800D02*
X90050000Y-122500000D01*
D38*
X93925000Y-123475200D02*
X91025200Y-123475200D01*
X91025200Y-123475200D02*
X90599800Y-123049800D01*
D37*
X94087500Y-123451700D02*
X93948500Y-123451700D01*
X93948500Y-123451700D02*
X93925000Y-123475200D01*
D38*
X87150000Y-123500000D02*
X88101700Y-123500000D01*
D37*
X90050000Y-122500000D02*
X89662500Y-122887500D01*
X89662500Y-122887500D02*
X89662500Y-123400200D01*
X85000000Y-121599800D02*
X85000000Y-122326700D01*
X85000000Y-122326700D02*
X86173300Y-123500000D01*
X87150000Y-123500000D02*
X86173300Y-123500000D01*
D38*
X82850000Y-121500000D02*
X83801700Y-121500000D01*
X85000000Y-121599800D02*
X83901500Y-121599800D01*
X83901500Y-121599800D02*
X83801700Y-121500000D01*
%TO.N,V5*%
D37*
X99208300Y-76923400D02*
X97000000Y-79131700D01*
X97000000Y-79131700D02*
X97000000Y-88860000D01*
X114671700Y-53062400D02*
X118210000Y-56600700D01*
X118210000Y-56600700D02*
X118210000Y-67376700D01*
X99208300Y-76923400D02*
X99540000Y-76591700D01*
X99540000Y-75840000D02*
X99540000Y-76591700D01*
X118210000Y-67376700D02*
X118210000Y-68540000D01*
X114671700Y-53062400D02*
X114671700Y-52030000D01*
X113320000Y-52030000D02*
X114671700Y-52030000D01*
%TO.N,V5P*%
X93425500Y-107912500D02*
X93913400Y-107912500D01*
X91500000Y-107912500D02*
X93425500Y-107912500D01*
X93425500Y-107912500D02*
X93425500Y-107913700D01*
X100091100Y-97895800D02*
X99650700Y-97455400D01*
X99650700Y-97455400D02*
X93592900Y-97455400D01*
X93592900Y-97455400D02*
X92675000Y-98373300D01*
X97021100Y-108475000D02*
X95869400Y-108475000D01*
X103067000Y-107648300D02*
X103315600Y-107648300D01*
X103315600Y-107648300D02*
X104570400Y-106393500D01*
X104570400Y-106393500D02*
X104570400Y-102943300D01*
X104570400Y-102943300D02*
X100228800Y-98601700D01*
X100228800Y-98601700D02*
X100091100Y-98601700D01*
X92675000Y-98373300D02*
X92025000Y-98373300D01*
X100091100Y-97895800D02*
X100091100Y-98601700D01*
X100091100Y-97500000D02*
X100091100Y-97895800D01*
X103067000Y-108475000D02*
X103067000Y-107648300D01*
X91500000Y-107912500D02*
X91500000Y-107701700D01*
X90023300Y-110500000D02*
X90023300Y-109389200D01*
X90023300Y-109389200D02*
X91500000Y-107912500D01*
X94865100Y-107912500D02*
X93913400Y-107912500D01*
X95869400Y-108475000D02*
X95869400Y-107965100D01*
X95869400Y-107965100D02*
X95816800Y-107912500D01*
X94865100Y-107912500D02*
X95816800Y-107912500D01*
X91500000Y-106950000D02*
X91500000Y-107701700D01*
X92025000Y-99037500D02*
X92025000Y-98373300D01*
X92675000Y-99037500D02*
X92675000Y-98373300D01*
X92025000Y-99037500D02*
X91868700Y-99037500D01*
X91868700Y-99037500D02*
X91037500Y-99868700D01*
X91037500Y-99868700D02*
X91037500Y-100025000D01*
%TO.N,VBUS*%
X77500000Y-105437500D02*
X77500000Y-106101700D01*
X77451000Y-106754000D02*
X77451000Y-106150700D01*
X77451000Y-106150700D02*
X77500000Y-106101700D01*
X78081200Y-119308000D02*
X78081200Y-119876700D01*
X78437500Y-118951700D02*
X78081200Y-119308000D01*
X78081200Y-119308000D02*
X76256300Y-119308000D01*
X76256300Y-119308000D02*
X74095700Y-117147400D01*
X74095700Y-117147400D02*
X74095700Y-103804200D01*
X73616300Y-101550000D02*
X73616300Y-102718000D01*
X73616300Y-102718000D02*
X74398300Y-103500000D01*
X75298300Y-98000000D02*
X73616300Y-99682000D01*
X73616300Y-99682000D02*
X73616300Y-101550000D01*
X73616300Y-101550000D02*
X70715700Y-101550000D01*
X74398300Y-103500000D02*
X74095700Y-103802600D01*
X74095700Y-103802600D02*
X74095700Y-103804200D01*
X71020600Y-105656100D02*
X71020600Y-106113200D01*
X71020600Y-106113200D02*
X70983600Y-106150200D01*
X76500000Y-100898300D02*
X76371300Y-100769600D01*
X76371300Y-100769600D02*
X76401700Y-100739200D01*
X76401700Y-100739200D02*
X76401700Y-100566400D01*
X76401700Y-100566400D02*
X76564100Y-100404000D01*
X76564100Y-100404000D02*
X76564100Y-100170800D01*
X76564100Y-100170800D02*
X76846000Y-99888900D01*
X76846000Y-99888900D02*
X76846000Y-99349100D01*
X76846000Y-99349100D02*
X76464200Y-98967300D01*
X76464200Y-98967300D02*
X76050000Y-98967300D01*
X76050000Y-98967300D02*
X76050000Y-98000000D01*
D38*
X70983600Y-106150200D02*
X70946500Y-106150200D01*
X70946500Y-106150200D02*
X70646700Y-106450000D01*
D37*
X85437500Y-118000000D02*
X84698300Y-118000000D01*
X78437500Y-118950200D02*
X78499400Y-119012100D01*
X78499400Y-119012100D02*
X84148200Y-119012100D01*
X84148200Y-119012100D02*
X84698300Y-118462000D01*
X84698300Y-118462000D02*
X84698300Y-118000000D01*
X78437500Y-118950200D02*
X78437500Y-118951700D01*
X78437500Y-118863300D02*
X78437500Y-118950200D01*
X78437500Y-118000000D02*
X78437500Y-118863300D01*
X67743600Y-112284700D02*
X68048300Y-111980000D01*
X69000000Y-111980000D02*
X68048300Y-111980000D01*
X75062500Y-103500000D02*
X74398300Y-103500000D01*
D38*
X69695000Y-106450000D02*
X70646700Y-106450000D01*
X70670200Y-101708300D02*
X70670200Y-105305700D01*
X70670200Y-105305700D02*
X71020600Y-105656100D01*
D37*
X70715700Y-101550000D02*
X70670200Y-101595500D01*
X70670200Y-101595500D02*
X70670200Y-101708300D01*
X70715700Y-101550000D02*
X70671700Y-101550000D01*
X69695000Y-101550000D02*
X70671700Y-101550000D01*
X77500000Y-101562500D02*
X77500000Y-100898300D01*
X77000000Y-100898300D02*
X77500000Y-100898300D01*
X76500000Y-101562500D02*
X76500000Y-100898300D01*
X77000000Y-101562500D02*
X77000000Y-100898300D01*
X77000000Y-100898300D02*
X76500000Y-100898300D01*
X76050000Y-98000000D02*
X75298300Y-98000000D01*
X75062500Y-103500000D02*
X75062500Y-104000000D01*
%TO.N,VLIPO*%
X80276700Y-122500000D02*
X80608600Y-122168100D01*
X80608600Y-122168100D02*
X80608600Y-121778200D01*
X79462500Y-122500000D02*
X80276700Y-122500000D01*
X79911600Y-102334500D02*
X79839400Y-102262300D01*
X79839400Y-102262300D02*
X79601700Y-102500000D01*
X80050000Y-98000000D02*
X80050000Y-102051700D01*
X80050000Y-102051700D02*
X79839400Y-102262300D01*
D38*
X88125200Y-120816100D02*
X88125200Y-121900200D01*
D37*
X88125200Y-121900200D02*
X88126700Y-121901700D01*
X88126700Y-121901700D02*
X88126700Y-122000000D01*
X87150000Y-122000000D02*
X88126700Y-122000000D01*
X87150000Y-122500000D02*
X88126700Y-122500000D01*
X88126700Y-122500000D02*
X88126700Y-122000000D01*
X79269600Y-102500000D02*
X78332100Y-101562500D01*
X78332100Y-101562500D02*
X78000000Y-101562500D01*
X79269600Y-102500000D02*
X79601700Y-102500000D01*
X78937500Y-102500000D02*
X79269600Y-102500000D01*
X78937500Y-103000000D02*
X79601700Y-103000000D01*
X79601700Y-103000000D02*
X79601700Y-102500000D01*
%TO.N,VPCC*%
X74398300Y-103000000D02*
X74398300Y-102087600D01*
X74398300Y-102087600D02*
X74276000Y-101965300D01*
X75062500Y-103000000D02*
X74398300Y-103000000D01*
X69000000Y-115490000D02*
X69000000Y-114725800D01*
X70267000Y-110919200D02*
X70267000Y-114031900D01*
X70267000Y-114031900D02*
X69573100Y-114725800D01*
X69573100Y-114725800D02*
X69000000Y-114725800D01*
X69000000Y-110919200D02*
X70267000Y-110919200D01*
X69000000Y-110155000D02*
X69000000Y-110919200D01*
%TO.N,VSYS*%
X94092400Y-103941800D02*
X94092400Y-103744100D01*
X94092400Y-103744100D02*
X95056700Y-103744100D01*
X95056700Y-103744100D02*
X96955800Y-101845000D01*
X96955800Y-101845000D02*
X96955800Y-101676700D01*
X93975000Y-103626700D02*
X94092400Y-103744100D01*
X93975000Y-102962500D02*
X93975000Y-103626700D01*
X96955800Y-100912500D02*
X96955800Y-101676700D01*
X82496500Y-105304400D02*
X82602700Y-105304400D01*
X82602700Y-105304400D02*
X82798300Y-105500000D01*
X83550000Y-105500000D02*
X82798300Y-105500000D01*
X76000000Y-101562500D02*
X76000000Y-100898300D01*
X75912400Y-100134100D02*
X75912400Y-100810700D01*
X75912400Y-100810700D02*
X76000000Y-100898300D01*
X83550000Y-106476700D02*
X83114700Y-106912000D01*
X83114700Y-106912000D02*
X83114700Y-109500000D01*
X86062500Y-114398300D02*
X85921100Y-114398300D01*
X85921100Y-114398300D02*
X85074800Y-113552000D01*
X84177000Y-112129700D02*
X83114700Y-111067400D01*
X83114700Y-111067400D02*
X83114700Y-109500000D01*
D38*
X85074800Y-113552000D02*
X85074800Y-113027500D01*
X85074800Y-113027500D02*
X84177000Y-112129700D01*
D37*
X84500000Y-101050800D02*
X87050000Y-103600800D01*
X87050000Y-103600800D02*
X87050000Y-105500000D01*
X84500000Y-101050800D02*
X84500000Y-102101700D01*
X84500000Y-100000000D02*
X84500000Y-101050800D01*
X83550000Y-105500000D02*
X83550000Y-106476700D01*
X83550000Y-105500000D02*
X83550000Y-103051700D01*
X83550000Y-103051700D02*
X84500000Y-102101700D01*
X86062500Y-114950000D02*
X86062500Y-114398300D01*
X76000000Y-101562500D02*
X75062500Y-102500000D01*
%TD*%
M02*
