%TF.GenerationSoftware,KiCad,Pcbnew,10.0.6*%
%TF.CreationDate,2026-09-13T18:37:29+09:00*%
%TF.ProjectId,hub_power,6875625f-706f-4776-9572-2e6b69636164,rev?*%
%TF.SameCoordinates,Original*%
%TF.FileFunction,Soldermask,Top*%
%TF.FilePolarity,Negative*%
%FSLAX46Y46*%
G04 Gerber Fmt 4.6, Leading zero omitted, Abs format (unit mm)*
G04 Created by KiCad (PCBNEW 10.0.6) date 2026-09-13 18:37:29*
%MOMM*%
%LPD*%
G01*
G04 APERTURE LIST*
G04 Aperture macros list*
%AMRoundRect*
0 Rectangle with rounded corners*
0 $1 Rounding radius*
0 $2 $3 $4 $5 $6 $7 $8 $9 X,Y pos of 4 corners*
0 Add a 4 corners polygon primitive as box body*
4,1,4,$2,$3,$4,$5,$6,$7,$8,$9,$2,$3,0*
0 Add four circle primitives for the rounded corners*
1,1,$1+$1,$2,$3*
1,1,$1+$1,$4,$5*
1,1,$1+$1,$6,$7*
1,1,$1+$1,$8,$9*
0 Add four rect primitives between the rounded corners*
20,1,$1+$1,$2,$3,$4,$5,0*
20,1,$1+$1,$4,$5,$6,$7,0*
20,1,$1+$1,$6,$7,$8,$9,0*
20,1,$1+$1,$8,$9,$2,$3,0*%
G04 Aperture macros list end*
%ADD10C,2.200000*%
%ADD11RoundRect,0.250000X-0.262500X-0.450000X0.262500X-0.450000X0.262500X0.450000X-0.262500X0.450000X0*%
%ADD12RoundRect,0.250000X0.475000X-0.250000X0.475000X0.250000X-0.475000X0.250000X-0.475000X-0.250000X0*%
%ADD13RoundRect,0.062500X0.062500X-0.350000X0.062500X0.350000X-0.062500X0.350000X-0.062500X-0.350000X0*%
%ADD14RoundRect,0.062500X0.350000X-0.062500X0.350000X0.062500X-0.350000X0.062500X-0.350000X-0.062500X0*%
%ADD15R,2.500000X2.500000*%
%ADD16RoundRect,0.250000X0.262500X0.450000X-0.262500X0.450000X-0.262500X-0.450000X0.262500X-0.450000X0*%
%ADD17RoundRect,0.250000X0.450000X-0.262500X0.450000X0.262500X-0.450000X0.262500X-0.450000X-0.262500X0*%
%ADD18RoundRect,0.243750X0.456250X-0.243750X0.456250X0.243750X-0.456250X0.243750X-0.456250X-0.243750X0*%
%ADD19RoundRect,0.250000X0.625000X-0.312500X0.625000X0.312500X-0.625000X0.312500X-0.625000X-0.312500X0*%
%ADD20RoundRect,0.075000X0.075000X-0.650000X0.075000X0.650000X-0.075000X0.650000X-0.075000X-0.650000X0*%
%ADD21RoundRect,0.087500X0.087500X-0.325000X0.087500X0.325000X-0.087500X0.325000X-0.087500X-0.325000X0*%
%ADD22RoundRect,0.087500X0.325000X-0.087500X0.325000X0.087500X-0.325000X0.087500X-0.325000X-0.087500X0*%
%ADD23R,2.700000X2.700000*%
%ADD24RoundRect,0.250000X1.600000X-0.300000X1.600000X0.300000X-1.600000X0.300000X-1.600000X-0.300000X0*%
%ADD25RoundRect,0.250000X0.250000X0.475000X-0.250000X0.475000X-0.250000X-0.475000X0.250000X-0.475000X0*%
%ADD26RoundRect,0.250000X0.325000X0.650000X-0.325000X0.650000X-0.325000X-0.650000X0.325000X-0.650000X0*%
%ADD27RoundRect,0.150000X0.150000X-0.587500X0.150000X0.587500X-0.150000X0.587500X-0.150000X-0.587500X0*%
%ADD28RoundRect,0.250000X-0.250000X-0.475000X0.250000X-0.475000X0.250000X0.475000X-0.250000X0.475000X0*%
%ADD29RoundRect,0.225000X-0.225000X-0.375000X0.225000X-0.375000X0.225000X0.375000X-0.225000X0.375000X0*%
%ADD30RoundRect,0.150000X-0.587500X-0.150000X0.587500X-0.150000X0.587500X0.150000X-0.587500X0.150000X0*%
%ADD31R,1.700000X1.700000*%
%ADD32C,1.700000*%
%ADD33RoundRect,0.150000X-0.825000X-0.150000X0.825000X-0.150000X0.825000X0.150000X-0.825000X0.150000X0*%
%ADD34R,1.000000X2.200000*%
%ADD35RoundRect,0.300000X-0.300000X-0.750000X0.300000X-0.750000X0.300000X0.750000X-0.300000X0.750000X0*%
%ADD36C,0.900000*%
%ADD37C,0.650000*%
%ADD38RoundRect,0.150000X0.150000X0.575000X-0.150000X0.575000X-0.150000X-0.575000X0.150000X-0.575000X0*%
%ADD39RoundRect,0.075000X0.075000X0.650000X-0.075000X0.650000X-0.075000X-0.650000X0.075000X-0.650000X0*%
%ADD40O,1.000000X2.100000*%
%ADD41RoundRect,0.250000X-0.350000X-0.625000X0.350000X-0.625000X0.350000X0.625000X-0.350000X0.625000X0*%
%ADD42O,1.200000X1.750000*%
%ADD43RoundRect,0.250000X-0.625000X0.350000X-0.625000X-0.350000X0.625000X-0.350000X0.625000X0.350000X0*%
%ADD44O,1.750000X1.200000*%
%ADD45RoundRect,0.250000X0.350000X0.625000X-0.350000X0.625000X-0.350000X-0.625000X0.350000X-0.625000X0*%
G04 APERTURE END LIST*
D10*
%TO.C,*%
X63500000Y-117700000D03*
%TD*%
%TO.C,*%
X100500000Y-117700000D03*
%TD*%
%TO.C,*%
X63500000Y-55950000D03*
%TD*%
%TO.C,*%
X100500000Y-55950000D03*
%TD*%
D11*
%TO.C,R44*%
X85398500Y-50200000D03*
X87223500Y-50200000D03*
%TD*%
%TO.C,R45*%
X82027500Y-50200000D03*
X83852500Y-50200000D03*
%TD*%
D12*
%TO.C,C8*%
X68118000Y-80810000D03*
X68118000Y-78910000D03*
%TD*%
%TO.C,C7*%
X65520000Y-75530000D03*
X65520000Y-73630000D03*
%TD*%
D13*
%TO.C,U2*%
X70847000Y-81907500D03*
X71347000Y-81907500D03*
X71847000Y-81907500D03*
X72347000Y-81907500D03*
X72847000Y-81907500D03*
D14*
X73784500Y-80970000D03*
X73784500Y-80470000D03*
X73784500Y-79970000D03*
X73784500Y-79470000D03*
X73784500Y-78970000D03*
D13*
X72847000Y-78032500D03*
X72347000Y-78032500D03*
X71847000Y-78032500D03*
X71347000Y-78032500D03*
X70847000Y-78032500D03*
D14*
X69909500Y-78970000D03*
X69909500Y-79470000D03*
X69909500Y-79970000D03*
X69909500Y-80470000D03*
X69909500Y-80970000D03*
D15*
X71847000Y-79970000D03*
%TD*%
D16*
%TO.C,R6*%
X81122500Y-90420000D03*
X79297500Y-90420000D03*
%TD*%
%TO.C,R7*%
X84512500Y-90420000D03*
X82687500Y-90420000D03*
%TD*%
D17*
%TO.C,R16*%
X81340000Y-84732500D03*
X81340000Y-82907500D03*
%TD*%
%TO.C,R17*%
X80395000Y-80112500D03*
X80395000Y-78287500D03*
%TD*%
%TO.C,R15*%
X81340000Y-75492500D03*
X81340000Y-73667500D03*
%TD*%
D18*
%TO.C,LED4*%
X82445000Y-79637500D03*
X82445000Y-77762500D03*
%TD*%
D17*
%TO.C,R8*%
X77500000Y-75112500D03*
X77500000Y-73287500D03*
%TD*%
D18*
%TO.C,LED3*%
X72707000Y-70137500D03*
X72707000Y-68262500D03*
%TD*%
D17*
%TO.C,R14*%
X76983000Y-70112500D03*
X76983000Y-68287500D03*
%TD*%
D19*
%TO.C,R41*%
X90745000Y-80002500D03*
X90745000Y-77077500D03*
%TD*%
D20*
%TO.C,U3*%
X68000000Y-76240000D03*
X68500000Y-76240000D03*
X69000000Y-76240000D03*
X69500000Y-76240000D03*
X70000000Y-76240000D03*
X70000000Y-71940000D03*
X69500000Y-71940000D03*
X69000000Y-71940000D03*
X68500000Y-71940000D03*
X68000000Y-71940000D03*
%TD*%
D12*
%TO.C,C41*%
X73500000Y-75150000D03*
X73500000Y-73250000D03*
%TD*%
D17*
%TO.C,R42*%
X70025000Y-70112500D03*
X70025000Y-68287500D03*
%TD*%
%TO.C,R43*%
X89091000Y-52392500D03*
X89091000Y-50567500D03*
%TD*%
D21*
%TO.C,U1*%
X67935000Y-60702500D03*
X68585000Y-60702500D03*
X69235000Y-60702500D03*
X69885000Y-60702500D03*
D22*
X70872500Y-59715000D03*
X70872500Y-59065000D03*
X70872500Y-58415000D03*
X70872500Y-57765000D03*
D21*
X69885000Y-56777500D03*
X69235000Y-56777500D03*
X68585000Y-56777500D03*
X67935000Y-56777500D03*
D22*
X66947500Y-57765000D03*
X66947500Y-58415000D03*
X66947500Y-59065000D03*
X66947500Y-59715000D03*
D23*
X68910000Y-58740000D03*
%TD*%
D24*
%TO.C,L1*%
X66755000Y-69480000D03*
X66755000Y-66480000D03*
%TD*%
D12*
%TO.C,C1*%
X74788000Y-70910000D03*
X74788000Y-69010000D03*
%TD*%
%TO.C,C4*%
X73995000Y-66635000D03*
X73995000Y-64735000D03*
%TD*%
D25*
%TO.C,C2*%
X75510000Y-60720000D03*
X73610000Y-60720000D03*
%TD*%
D26*
%TO.C,C6*%
X77165000Y-51870000D03*
X74215000Y-51870000D03*
%TD*%
%TO.C,C9*%
X77165000Y-49420000D03*
X74215000Y-49420000D03*
%TD*%
D16*
%TO.C,R3*%
X76602500Y-55440000D03*
X74777500Y-55440000D03*
%TD*%
%TO.C,R4*%
X81122500Y-54885000D03*
X79297500Y-54885000D03*
%TD*%
D17*
%TO.C,R1*%
X79032000Y-70872500D03*
X79032000Y-69047500D03*
%TD*%
%TO.C,R2*%
X78379000Y-65988500D03*
X78379000Y-64163500D03*
%TD*%
%TO.C,R13*%
X80000000Y-53143500D03*
X80000000Y-51318500D03*
%TD*%
D27*
%TO.C,Q1*%
X80228000Y-65667500D03*
X82128000Y-65667500D03*
X81178000Y-63792500D03*
%TD*%
D17*
%TO.C,R20*%
X83879000Y-62292500D03*
X83879000Y-60467500D03*
%TD*%
D18*
%TO.C,LED1*%
X83600000Y-57697500D03*
X83600000Y-55822500D03*
%TD*%
D17*
%TO.C,R5*%
X79645000Y-61984500D03*
X79645000Y-60159500D03*
%TD*%
D18*
%TO.C,LED2*%
X79645000Y-58499500D03*
X79645000Y-56624500D03*
%TD*%
D28*
%TO.C,C31*%
X65050000Y-94700000D03*
X66950000Y-94700000D03*
%TD*%
D11*
%TO.C,R32*%
X69087500Y-94700000D03*
X70912500Y-94700000D03*
%TD*%
%TO.C,R31*%
X73087500Y-94700000D03*
X74912500Y-94700000D03*
%TD*%
D29*
%TO.C,D31*%
X77850000Y-98700000D03*
X81150000Y-98700000D03*
%TD*%
D30*
%TO.C,Q31*%
X83062500Y-97750000D03*
X83062500Y-99650000D03*
X84937500Y-98700000D03*
%TD*%
D28*
%TO.C,C32*%
X74729000Y-62855000D03*
X76629000Y-62855000D03*
%TD*%
D31*
%TO.C,J1*%
X69400000Y-118300000D03*
D32*
X69400000Y-115760000D03*
X69400000Y-113220000D03*
X69400000Y-110680000D03*
X69400000Y-108140000D03*
X69400000Y-105600000D03*
X69400000Y-103060000D03*
%TD*%
D31*
%TO.C,J14*%
X84630000Y-118300000D03*
D32*
X84630000Y-115760000D03*
X84630000Y-113220000D03*
X84630000Y-110680000D03*
X84630000Y-108140000D03*
X84630000Y-105600000D03*
X84630000Y-103060000D03*
%TD*%
D33*
%TO.C,U4*%
X93725000Y-112295000D03*
X93725000Y-113565000D03*
X93725000Y-114835000D03*
X93725000Y-116105000D03*
X98675000Y-116105000D03*
X98675000Y-114835000D03*
X98675000Y-113565000D03*
X98675000Y-112295000D03*
%TD*%
D28*
%TO.C,C42*%
X87300000Y-110400000D03*
X89200000Y-110400000D03*
%TD*%
D34*
%TO.C,K31*%
X88300000Y-106900000D03*
X93380000Y-106900000D03*
X95920000Y-106900000D03*
X98460000Y-106900000D03*
X98460000Y-98900000D03*
X95920000Y-98900000D03*
X93380000Y-98900000D03*
X88300000Y-98900000D03*
%TD*%
D35*
%TO.C,SW1*%
X84000000Y-45000000D03*
X86500000Y-45000000D03*
X89000000Y-45000000D03*
D36*
X83100000Y-41750000D03*
X89900000Y-41750000D03*
%TD*%
D37*
%TO.C,J13*%
X100390000Y-43250000D03*
X94610000Y-43250000D03*
D38*
X100750000Y-44695000D03*
X99950000Y-44695000D03*
D39*
X98750000Y-44695000D03*
X97750000Y-44695000D03*
X97250000Y-44695000D03*
X96250000Y-44695000D03*
D38*
X95050000Y-44695000D03*
X94250000Y-44695000D03*
X94250000Y-44695000D03*
X95050000Y-44695000D03*
D39*
X95750000Y-44695000D03*
X96750000Y-44695000D03*
X98250000Y-44695000D03*
X99250000Y-44695000D03*
D38*
X99950000Y-44695000D03*
X100750000Y-44695000D03*
D40*
X101820000Y-43780000D03*
X93180000Y-43780000D03*
%TD*%
D41*
%TO.C,J5*%
X63000000Y-107700000D03*
D42*
X65000000Y-107700000D03*
%TD*%
D43*
%TO.C,J2*%
X101750000Y-71900000D03*
D44*
X101750000Y-73900000D03*
X101750000Y-75900000D03*
X101750000Y-77900000D03*
%TD*%
D41*
%TO.C,J4*%
X92500000Y-48300000D03*
D42*
X94500000Y-48300000D03*
%TD*%
D45*
%TO.C,J10*%
X101000000Y-95550000D03*
D42*
X99000000Y-95550000D03*
%TD*%
D45*
%TO.C,J6*%
X80000000Y-118100000D03*
D42*
X78000000Y-118100000D03*
X76000000Y-118100000D03*
X74000000Y-118100000D03*
%TD*%
M02*
