M48
; DRILL file KiCad 10.0.6 date 2026-09-12T18:39:02
; FORMAT={-:-/ absolute / metric / decimal}
; #@! TF.CreationDate,2026-09-12T18:39:02+09:00
; #@! TF.GenerationSoftware,Kicad,Pcbnew,10.0.6
; #@! TF.FileFunction,Plated,1,2,PTH
FMAT,2
METRIC
; #@! TA.AperFunction,Plated,PTH,ViaDrill
T1C0.400
; #@! TA.AperFunction,Plated,PTH,ComponentDrill
T2C0.600
; #@! TA.AperFunction,Plated,PTH,ComponentDrill
T3C0.750
; #@! TA.AperFunction,Plated,PTH,ComponentDrill
T4C1.000
%
G90
G05
T1
X67.744Y-112.285
X68.407Y-102.65
X68.407Y-105.65
X70.267Y-110.919
X74.4Y-105.168
X74.724Y-101.248
X75.237Y-110.512
X75.888Y-100.101
X76.001Y-106.574
X76.14Y-109.569
X76.547Y-107.856
X77.5Y-107.801
X77.755Y-109.569
X78.438Y-119.254
X80.609Y-121.63
X80.781Y-110.729
X81.012Y-113.099
X81.148Y-116.751
X81.572Y-123.1
X81.727Y-108.917
X83.008Y-95.815
X84.135Y-123.5
X86.016Y-120.934
X86.062Y-112.155
X86.513Y-108.227
X87.088Y-96.699
X88.125Y-120.816
X88.912Y-116.736
X91.147Y-112.767
X92.788Y-106.638
X93.43Y-105.32
X93.975Y-103.941
X94.027Y-97.951
X94.896Y-105.012
X95.662Y-99.181
X95.912Y-121.244
X98.073Y-110.983
X99.208Y-76.923
X99.606Y-121.237
X114.672Y-53.062
X114.981Y-61.88
X114.995Y-60.316
X116.407Y-85.063
X117.064Y-77.936
X118.21Y-67.377
T3
X71.0Y-118.75
X73.0Y-118.75
X128.02Y-53.3
X128.02Y-63.46
X130.02Y-53.3
X130.02Y-63.46
T4
X66.52Y-48.22
X66.52Y-50.76
X69.06Y-66.0
X69.06Y-68.54
X69.06Y-71.08
X69.06Y-73.62
X81.76Y-43.14
X81.76Y-88.86
X84.3Y-43.14
X84.3Y-78.7
X84.3Y-88.86
X86.84Y-43.14
X86.84Y-78.7
X86.84Y-88.86
X89.38Y-43.14
X89.38Y-78.7
X89.38Y-88.86
X91.92Y-43.14
X91.92Y-78.7
X91.92Y-88.86
X94.46Y-43.14
X94.46Y-88.86
X97.0Y-43.14
X97.0Y-88.86
X100.777Y-97.5
X100.777Y-100.04
X100.777Y-102.58
X100.777Y-105.12
X100.777Y-107.66
X100.777Y-110.2
X100.777Y-112.74
X102.08Y-43.14
X104.62Y-43.14
X109.7Y-43.14
X112.24Y-43.14
T2
X69.33Y-99.68G85X68.23Y-99.68
G05
X69.33Y-108.32G85X68.23Y-108.32
G05
M30
