%TF.GenerationSoftware,KiCad,Pcbnew,10.0.6*%
%TF.CreationDate,2026-09-12T18:39:02+09:00*%
%TF.ProjectId,hub_power,6875625f-706f-4776-9572-2e6b69636164,rev?*%
%TF.SameCoordinates,Original*%
%TF.FileFunction,Copper,L1,Top*%
%TF.FilePolarity,Positive*%
%FSLAX46Y46*%
G04 Gerber Fmt 4.6, Leading zero omitted, Abs format (unit mm)*
G04 Created by KiCad (PCBNEW 10.0.6) date 2026-09-12 18:39:02*
%MOMM*%
%LPD*%
G01*
G04 APERTURE LIST*
G04 Aperture macros list*
%AMRoundRect*
0 Rectangle with rounded corners*
0 $1 Rounding radius*
0 $2 $3 $4 $5 $6 $7 $8 $9 X,Y pos of 4 corners*
0 Add a 4 corners polygon primitive as box body*
4,1,4,$2,$3,$4,$5,$6,$7,$8,$9,$2,$3,0*
0 Add four circle primitives for the rounded corners*
1,1,$1+$1,$2,$3*
1,1,$1+$1,$4,$5*
1,1,$1+$1,$6,$7*
1,1,$1+$1,$8,$9*
0 Add four rect primitives between the rounded corners*
20,1,$1+$1,$2,$3,$4,$5,0*
20,1,$1+$1,$4,$5,$6,$7,0*
20,1,$1+$1,$6,$7,$8,$9,0*
20,1,$1+$1,$8,$9,$2,$3,0*%
G04 Aperture macros list end*
%TA.AperFunction,ComponentPad*%
%ADD10RoundRect,0.250000X0.350000X0.625000X-0.350000X0.625000X-0.350000X-0.625000X0.350000X-0.625000X0*%
%TD*%
%TA.AperFunction,ComponentPad*%
%ADD11O,1.200000X1.750000*%
%TD*%
%TA.AperFunction,ComponentPad*%
%ADD12R,1.700000X1.700000*%
%TD*%
%TA.AperFunction,ComponentPad*%
%ADD13C,1.700000*%
%TD*%
%TA.AperFunction,SMDPad,CuDef*%
%ADD14RoundRect,0.250000X-0.262500X-0.450000X0.262500X-0.450000X0.262500X0.450000X-0.262500X0.450000X0*%
%TD*%
%TA.AperFunction,SMDPad,CuDef*%
%ADD15RoundRect,0.225000X-0.225000X-0.375000X0.225000X-0.375000X0.225000X0.375000X-0.225000X0.375000X0*%
%TD*%
%TA.AperFunction,SMDPad,CuDef*%
%ADD16RoundRect,0.250000X0.475000X-0.250000X0.475000X0.250000X-0.475000X0.250000X-0.475000X-0.250000X0*%
%TD*%
%TA.AperFunction,SMDPad,CuDef*%
%ADD17RoundRect,0.150000X-0.587500X-0.150000X0.587500X-0.150000X0.587500X0.150000X-0.587500X0.150000X0*%
%TD*%
%TA.AperFunction,SMDPad,CuDef*%
%ADD18R,2.200000X1.000000*%
%TD*%
%TA.AperFunction,SMDPad,CuDef*%
%ADD19RoundRect,0.150000X-0.575000X0.150000X-0.575000X-0.150000X0.575000X-0.150000X0.575000X0.150000X0*%
%TD*%
%TA.AperFunction,SMDPad,CuDef*%
%ADD20RoundRect,0.075000X-0.650000X0.075000X-0.650000X-0.075000X0.650000X-0.075000X0.650000X0.075000X0*%
%TD*%
%TA.AperFunction,ComponentPad*%
%ADD21O,2.100000X1.000000*%
%TD*%
%TA.AperFunction,SMDPad,CuDef*%
%ADD22RoundRect,0.250000X-0.250000X-0.475000X0.250000X-0.475000X0.250000X0.475000X-0.250000X0.475000X0*%
%TD*%
%TA.AperFunction,SMDPad,CuDef*%
%ADD23RoundRect,0.062500X-0.350000X-0.062500X0.350000X-0.062500X0.350000X0.062500X-0.350000X0.062500X0*%
%TD*%
%TA.AperFunction,SMDPad,CuDef*%
%ADD24RoundRect,0.062500X-0.062500X-0.350000X0.062500X-0.350000X0.062500X0.350000X-0.062500X0.350000X0*%
%TD*%
%TA.AperFunction,HeatsinkPad*%
%ADD25R,2.500000X2.500000*%
%TD*%
%TA.AperFunction,SMDPad,CuDef*%
%ADD26RoundRect,0.250000X0.450000X-0.262500X0.450000X0.262500X-0.450000X0.262500X-0.450000X-0.262500X0*%
%TD*%
%TA.AperFunction,SMDPad,CuDef*%
%ADD27RoundRect,0.243750X-0.243750X-0.456250X0.243750X-0.456250X0.243750X0.456250X-0.243750X0.456250X0*%
%TD*%
%TA.AperFunction,ComponentPad*%
%ADD28RoundRect,0.250000X-0.350000X-0.625000X0.350000X-0.625000X0.350000X0.625000X-0.350000X0.625000X0*%
%TD*%
%TA.AperFunction,SMDPad,CuDef*%
%ADD29RoundRect,0.250000X-0.312500X-0.625000X0.312500X-0.625000X0.312500X0.625000X-0.312500X0.625000X0*%
%TD*%
%TA.AperFunction,SMDPad,CuDef*%
%ADD30RoundRect,0.075000X-0.650000X-0.075000X0.650000X-0.075000X0.650000X0.075000X-0.650000X0.075000X0*%
%TD*%
%TA.AperFunction,SMDPad,CuDef*%
%ADD31RoundRect,0.087500X-0.325000X-0.087500X0.325000X-0.087500X0.325000X0.087500X-0.325000X0.087500X0*%
%TD*%
%TA.AperFunction,SMDPad,CuDef*%
%ADD32RoundRect,0.087500X-0.087500X-0.325000X0.087500X-0.325000X0.087500X0.325000X-0.087500X0.325000X0*%
%TD*%
%TA.AperFunction,HeatsinkPad*%
%ADD33R,2.700000X2.700000*%
%TD*%
%TA.AperFunction,SMDPad,CuDef*%
%ADD34RoundRect,0.250000X-0.300000X-1.600000X0.300000X-1.600000X0.300000X1.600000X-0.300000X1.600000X0*%
%TD*%
%TA.AperFunction,SMDPad,CuDef*%
%ADD35RoundRect,0.250000X1.100000X-0.325000X1.100000X0.325000X-1.100000X0.325000X-1.100000X-0.325000X0*%
%TD*%
%TA.AperFunction,ViaPad*%
%ADD36C,0.800000*%
%TD*%
%TA.AperFunction,Conductor*%
%ADD37C,0.200000*%
%TD*%
%TA.AperFunction,Conductor*%
%ADD38C,0.150000*%
%TD*%
G04 APERTURE END LIST*
D10*
%TO.P,J4,1*%
%TO.N,SPKP*%
X130020000Y-63460000D03*
D11*
%TO.P,J4,2*%
%TO.N,SPKM*%
X128020000Y-63460000D03*
%TD*%
D10*
%TO.P,J5,1*%
%TO.N,SPKM*%
X130020000Y-53300000D03*
D11*
%TO.P,J5,2*%
%TO.N,SPKO*%
X128020000Y-53300000D03*
%TD*%
D12*
%TO.P,J1,1*%
%TO.N,BTN*%
X81760000Y-88860000D03*
D13*
%TO.P,J1,2*%
%TO.N,SDA*%
X84300000Y-88860000D03*
%TO.P,J1,3*%
%TO.N,SCL*%
X86840000Y-88860000D03*
%TO.P,J1,4*%
%TO.N,V33*%
X89380000Y-88860000D03*
%TO.P,J1,5*%
%TO.N,GND*%
X91920000Y-88860000D03*
%TO.P,J1,6*%
%TO.N,IN*%
X94460000Y-88860000D03*
%TO.P,J1,7*%
%TO.N,V5*%
X97000000Y-88860000D03*
%TD*%
D12*
%TO.P,J3,1*%
%TO.N,SDA*%
X84300000Y-78700000D03*
D13*
%TO.P,J3,2*%
%TO.N,SCL*%
X86840000Y-78700000D03*
%TO.P,J3,3*%
%TO.N,V33*%
X89380000Y-78700000D03*
%TO.P,J3,4*%
%TO.N,GND*%
X91920000Y-78700000D03*
%TD*%
D12*
%TO.P,J2,1*%
%TO.N,SDA*%
X69060000Y-73620000D03*
D13*
%TO.P,J2,2*%
%TO.N,SCL*%
X69060000Y-71080000D03*
%TO.P,J2,3*%
%TO.N,V33*%
X69060000Y-68540000D03*
%TO.P,J2,4*%
%TO.N,GND*%
X69060000Y-66000000D03*
%TD*%
D12*
%TO.P,J6,1*%
%TO.N,GND*%
X109700000Y-43140000D03*
D13*
%TO.P,J6,2*%
%TO.N,EN*%
X112240000Y-43140000D03*
%TD*%
D12*
%TO.P,J7,1*%
%TO.N,EN*%
X102080000Y-43140000D03*
D13*
%TO.P,J7,2*%
%TO.N,GND*%
X104620000Y-43140000D03*
%TD*%
D12*
%TO.P,J8,1*%
%TO.N,GND*%
X66520000Y-50760000D03*
D13*
%TO.P,J8,2*%
%TO.N,BTN*%
X66520000Y-48220000D03*
%TD*%
D12*
%TO.P,J11,1*%
%TO.N,V5*%
X81760000Y-43140000D03*
D13*
%TO.P,J11,2*%
%TO.N,unconnected-(J11-Pin_2-Pad2)*%
X84300000Y-43140000D03*
%TO.P,J11,3*%
%TO.N,GND*%
X86840000Y-43140000D03*
%TO.P,J11,4*%
%TO.N,V33*%
X89380000Y-43140000D03*
%TO.P,J11,5*%
%TO.N,SDA*%
X91920000Y-43140000D03*
%TO.P,J11,6*%
%TO.N,SCL*%
X94460000Y-43140000D03*
%TO.P,J11,7*%
%TO.N,EN*%
X97000000Y-43140000D03*
%TD*%
D14*
%TO.P,R31,1*%
%TO.N,IN*%
X116407500Y-83780000D03*
%TO.P,R31,2*%
%TO.N,BASE*%
X118232500Y-83780000D03*
%TD*%
%TO.P,R32,1*%
%TO.N,BASE*%
X116407500Y-81240000D03*
%TO.P,R32,2*%
%TO.N,GND*%
X118232500Y-81240000D03*
%TD*%
D15*
%TO.P,D31,1*%
%TO.N,V5*%
X118210000Y-68540000D03*
%TO.P,D31,2*%
%TO.N,COL*%
X121510000Y-68540000D03*
%TD*%
D16*
%TO.P,C31,1*%
%TO.N,V5*%
X99540000Y-75840000D03*
%TO.P,C31,2*%
%TO.N,GND*%
X99540000Y-73940000D03*
%TD*%
%TO.P,C32,1*%
%TO.N,EN*%
X99540000Y-55520000D03*
%TO.P,C32,2*%
%TO.N,GND*%
X99540000Y-53620000D03*
%TD*%
D17*
%TO.P,Q31,1*%
%TO.N,BASE*%
X116382500Y-72670000D03*
%TO.P,Q31,2*%
%TO.N,GND*%
X116382500Y-74570000D03*
%TO.P,Q31,3*%
%TO.N,COL*%
X118257500Y-73620000D03*
%TD*%
D18*
%TO.P,K31,1*%
%TO.N,V5*%
X113320000Y-52030000D03*
%TO.P,K31,3*%
%TO.N,unconnected-(K31-Pad3)*%
X113320000Y-57110000D03*
%TO.P,K31,4*%
%TO.N,SPKP*%
X113320000Y-59650000D03*
%TO.P,K31,5*%
%TO.N,SPKO*%
X113320000Y-62190000D03*
%TO.P,K31,8*%
%TO.N,unconnected-(K31-Pad8)*%
X121320000Y-62190000D03*
%TO.P,K31,9*%
%TO.N,unconnected-(K31-Pad9)*%
X121320000Y-59650000D03*
%TO.P,K31,10*%
%TO.N,unconnected-(K31-Pad10)*%
X121320000Y-57110000D03*
%TO.P,K31,12*%
%TO.N,COL*%
X121320000Y-52030000D03*
%TD*%
D19*
%TO.P,J13,A1*%
%TO.N,GNDP*%
X69695000Y-100750000D03*
%TO.P,J13,A4*%
%TO.N,VBUS*%
X69695000Y-101550000D03*
D20*
%TO.P,J13,A5*%
%TO.N,CC1*%
X69695000Y-102750000D03*
%TO.P,J13,A6*%
%TO.N,unconnected-(J13-D+-PadA6)*%
X69695000Y-103750000D03*
%TO.P,J13,A7*%
%TO.N,unconnected-(J13-D--PadA7)*%
X69695000Y-104250000D03*
%TO.P,J13,A8*%
%TO.N,unconnected-(J13-SBU1-PadA8)*%
X69695000Y-105250000D03*
D19*
%TO.P,J13,A9*%
%TO.N,VBUS*%
X69695000Y-106450000D03*
%TO.P,J13,A12*%
%TO.N,GNDP*%
X69695000Y-107250000D03*
%TO.P,J13,B1*%
X69695000Y-107250000D03*
%TO.P,J13,B4*%
%TO.N,VBUS*%
X69695000Y-106450000D03*
D20*
%TO.P,J13,B5*%
%TO.N,CC2*%
X69695000Y-105750000D03*
%TO.P,J13,B6*%
%TO.N,unconnected-(J13-D+-PadB6)*%
X69695000Y-104750000D03*
%TO.P,J13,B7*%
%TO.N,unconnected-(J13-D--PadB7)*%
X69695000Y-103250000D03*
%TO.P,J13,B8*%
%TO.N,unconnected-(J13-SBU2-PadB8)*%
X69695000Y-102250000D03*
D19*
%TO.P,J13,B9*%
%TO.N,VBUS*%
X69695000Y-101550000D03*
%TO.P,J13,B12*%
%TO.N,GNDP*%
X69695000Y-100750000D03*
D21*
%TO.P,J13,SH*%
X68780000Y-99680000D03*
X68780000Y-108320000D03*
%TD*%
D14*
%TO.P,R44,1*%
%TO.N,CC1*%
X84087500Y-95700000D03*
%TO.P,R44,2*%
%TO.N,GNDP*%
X85912500Y-95700000D03*
%TD*%
%TO.P,R45,1*%
%TO.N,CC2*%
X88087500Y-95700000D03*
%TO.P,R45,2*%
%TO.N,GNDP*%
X89912500Y-95700000D03*
%TD*%
D22*
%TO.P,C8,1*%
%TO.N,VBUS*%
X76050000Y-98000000D03*
%TO.P,C8,2*%
%TO.N,GNDP*%
X77950000Y-98000000D03*
%TD*%
%TO.P,C7,1*%
%TO.N,VLIPO*%
X80050000Y-98000000D03*
%TO.P,C7,2*%
%TO.N,GNDP*%
X81950000Y-98000000D03*
%TD*%
D23*
%TO.P,U2,1*%
%TO.N,VSYS*%
X75062500Y-102500000D03*
%TO.P,U2,2*%
%TO.N,VPCC*%
X75062500Y-103000000D03*
%TO.P,U2,3*%
%TO.N,VBUS*%
X75062500Y-103500000D03*
%TO.P,U2,4*%
X75062500Y-104000000D03*
%TO.P,U2,5*%
%TO.N,THERM*%
X75062500Y-104500000D03*
D24*
%TO.P,U2,6*%
%TO.N,unconnected-(U2-~{PG}-Pad6)*%
X76000000Y-105437500D03*
%TO.P,U2,7*%
%TO.N,STAT2*%
X76500000Y-105437500D03*
%TO.P,U2,8*%
%TO.N,STAT1*%
X77000000Y-105437500D03*
%TO.P,U2,9*%
%TO.N,VBUS*%
X77500000Y-105437500D03*
%TO.P,U2,10*%
%TO.N,GNDP*%
X78000000Y-105437500D03*
D23*
%TO.P,U2,11*%
X78937500Y-104500000D03*
%TO.P,U2,12*%
%TO.N,PROG3*%
X78937500Y-104000000D03*
%TO.P,U2,13*%
%TO.N,PROG1*%
X78937500Y-103500000D03*
%TO.P,U2,14*%
%TO.N,VLIPO*%
X78937500Y-103000000D03*
%TO.P,U2,15*%
X78937500Y-102500000D03*
D24*
%TO.P,U2,16*%
X78000000Y-101562500D03*
%TO.P,U2,17*%
%TO.N,VBUS*%
X77500000Y-101562500D03*
%TO.P,U2,18*%
X77000000Y-101562500D03*
%TO.P,U2,19*%
X76500000Y-101562500D03*
%TO.P,U2,20*%
%TO.N,VSYS*%
X76000000Y-101562500D03*
D25*
%TO.P,U2,21*%
%TO.N,GNDP*%
X77000000Y-103500000D03*
%TD*%
D26*
%TO.P,R6,1*%
%TO.N,VBUS*%
X69000000Y-111979500D03*
%TO.P,R6,2*%
%TO.N,VPCC*%
X69000000Y-110154500D03*
%TD*%
%TO.P,R7,1*%
%TO.N,VPCC*%
X69000000Y-115490500D03*
%TO.P,R7,2*%
%TO.N,GNDP*%
X69000000Y-113665500D03*
%TD*%
D14*
%TO.P,R16,1*%
%TO.N,GNDP*%
X73087500Y-112000000D03*
%TO.P,R16,2*%
%TO.N,PROG1*%
X74912500Y-112000000D03*
%TD*%
%TO.P,R17,1*%
%TO.N,GNDP*%
X76587500Y-112000000D03*
%TO.P,R17,2*%
%TO.N,PROG3*%
X78412500Y-112000000D03*
%TD*%
%TO.P,R15,1*%
%TO.N,GNDP*%
X80087500Y-112000000D03*
%TO.P,R15,2*%
%TO.N,THERM*%
X81912500Y-112000000D03*
%TD*%
D27*
%TO.P,LED4,1*%
%TO.N,N_LED4*%
X76562500Y-118000000D03*
%TO.P,LED4,2*%
%TO.N,VBUS*%
X78437500Y-118000000D03*
%TD*%
D14*
%TO.P,R8,1*%
%TO.N,N_LED4*%
X80087500Y-118000000D03*
%TO.P,R8,2*%
%TO.N,STAT1*%
X81912500Y-118000000D03*
%TD*%
D27*
%TO.P,LED3,1*%
%TO.N,N_LED3*%
X83562500Y-118000000D03*
%TO.P,LED3,2*%
%TO.N,VBUS*%
X85437500Y-118000000D03*
%TD*%
D14*
%TO.P,R14,1*%
%TO.N,N_LED3*%
X87087500Y-118000000D03*
%TO.P,R14,2*%
%TO.N,STAT2*%
X88912500Y-118000000D03*
%TD*%
D28*
%TO.P,J10,1*%
%TO.N,GNDP*%
X71000000Y-118750000D03*
D11*
%TO.P,J10,2*%
%TO.N,BATP*%
X73000000Y-118750000D03*
%TD*%
D29*
%TO.P,R41,1*%
%TO.N,BATP*%
X76537500Y-122500000D03*
%TO.P,R41,2*%
%TO.N,VLIPO*%
X79462500Y-122500000D03*
%TD*%
D30*
%TO.P,U3,1*%
%TO.N,V33P*%
X82850000Y-121500000D03*
%TO.P,U3,2*%
%TO.N,GNDP*%
X82850000Y-122000000D03*
%TO.P,U3,3*%
%TO.N,unconnected-(U3-~{Alert}-Pad3)*%
X82850000Y-122500000D03*
%TO.P,U3,4*%
%TO.N,SDAP*%
X82850000Y-123000000D03*
%TO.P,U3,5*%
%TO.N,SCLP*%
X82850000Y-123500000D03*
%TO.P,U3,6*%
%TO.N,V33P*%
X87150000Y-123500000D03*
%TO.P,U3,7*%
%TO.N,GNDP*%
X87150000Y-123000000D03*
%TO.P,U3,8*%
%TO.N,VLIPO*%
X87150000Y-122500000D03*
%TO.P,U3,9*%
X87150000Y-122000000D03*
%TO.P,U3,10*%
%TO.N,BATP*%
X87150000Y-121500000D03*
%TD*%
D22*
%TO.P,C41,1*%
%TO.N,V33P*%
X90050000Y-122500000D03*
%TO.P,C41,2*%
%TO.N,GNDP*%
X91950000Y-122500000D03*
%TD*%
D14*
%TO.P,R42,1*%
%TO.N,V33P*%
X94087500Y-122500000D03*
%TO.P,R42,2*%
%TO.N,SDAP*%
X95912500Y-122500000D03*
%TD*%
%TO.P,R43,1*%
%TO.N,V33P*%
X97587500Y-122500000D03*
%TO.P,R43,2*%
%TO.N,SCLP*%
X99412500Y-122500000D03*
%TD*%
D12*
%TO.P,J12,1*%
%TO.N,V5P*%
X100777000Y-97500000D03*
D13*
%TO.P,J12,2*%
%TO.N,unconnected-(J12-Pin_2-Pad2)*%
X100777000Y-100040000D03*
%TO.P,J12,3*%
%TO.N,GNDP*%
X100777000Y-102580000D03*
%TO.P,J12,4*%
%TO.N,V33P*%
X100777000Y-105120000D03*
%TO.P,J12,5*%
%TO.N,SDAP*%
X100777000Y-107660000D03*
%TO.P,J12,6*%
%TO.N,SCLP*%
X100777000Y-110200000D03*
%TO.P,J12,7*%
%TO.N,ENP*%
X100777000Y-112740000D03*
%TD*%
D31*
%TO.P,U1,1*%
%TO.N,V5P*%
X91037500Y-100025000D03*
%TO.P,U1,2*%
%TO.N,unconnected-(U1-NC-Pad2)*%
X91037500Y-100675000D03*
%TO.P,U1,3*%
%TO.N,SW*%
X91037500Y-101325000D03*
%TO.P,U1,4*%
X91037500Y-101975000D03*
D32*
%TO.P,U1,5*%
%TO.N,GNDP*%
X92025000Y-102962500D03*
%TO.P,U1,6*%
X92675000Y-102962500D03*
%TO.P,U1,7*%
X93325000Y-102962500D03*
%TO.P,U1,8*%
%TO.N,VSYS*%
X93975000Y-102962500D03*
D31*
%TO.P,U1,9*%
%TO.N,LBI*%
X94962500Y-101975000D03*
%TO.P,U1,10*%
%TO.N,GNDP*%
X94962500Y-101325000D03*
%TO.P,U1,11*%
%TO.N,ENP*%
X94962500Y-100675000D03*
%TO.P,U1,12*%
%TO.N,LBO*%
X94962500Y-100025000D03*
D32*
%TO.P,U1,13*%
%TO.N,GNDP*%
X93975000Y-99037500D03*
%TO.P,U1,14*%
%TO.N,FB*%
X93325000Y-99037500D03*
%TO.P,U1,15*%
%TO.N,V5P*%
X92675000Y-99037500D03*
%TO.P,U1,16*%
X92025000Y-99037500D03*
D33*
%TO.P,U1,17*%
%TO.N,GNDP*%
X93000000Y-101000000D03*
%TD*%
D34*
%TO.P,L1,1*%
%TO.N,VSYS*%
X84500000Y-100000000D03*
%TO.P,L1,2*%
%TO.N,SW*%
X87500000Y-100000000D03*
%TD*%
D22*
%TO.P,C1,1*%
%TO.N,VSYS*%
X83550000Y-105500000D03*
%TO.P,C1,2*%
%TO.N,GNDP*%
X85450000Y-105500000D03*
%TD*%
%TO.P,C4,1*%
%TO.N,VSYS*%
X87050000Y-105500000D03*
%TO.P,C4,2*%
%TO.N,GNDP*%
X88950000Y-105500000D03*
%TD*%
D16*
%TO.P,C2,1*%
%TO.N,V5P*%
X91500000Y-106950000D03*
%TO.P,C2,2*%
%TO.N,GNDP*%
X91500000Y-105050000D03*
%TD*%
D35*
%TO.P,C6,1*%
%TO.N,V5P*%
X97385000Y-108475000D03*
%TO.P,C6,2*%
%TO.N,GNDP*%
X97385000Y-105525000D03*
%TD*%
D26*
%TO.P,R3,1*%
%TO.N,V5P*%
X94684000Y-107912500D03*
%TO.P,R3,2*%
%TO.N,FB*%
X94684000Y-106087500D03*
%TD*%
%TO.P,R4,1*%
%TO.N,FB*%
X96977000Y-111912500D03*
%TO.P,R4,2*%
%TO.N,GNDP*%
X96977000Y-110087500D03*
%TD*%
D14*
%TO.P,R1,1*%
%TO.N,VSYS*%
X83113500Y-109500000D03*
%TO.P,R1,2*%
%TO.N,LBI*%
X84938500Y-109500000D03*
%TD*%
%TO.P,R2,1*%
%TO.N,LBI*%
X86514500Y-109500000D03*
%TO.P,R2,2*%
%TO.N,GNDP*%
X88339500Y-109500000D03*
%TD*%
D26*
%TO.P,R13,1*%
%TO.N,VSYS*%
X97653000Y-100912500D03*
%TO.P,R13,2*%
%TO.N,ENP*%
X97653000Y-99087500D03*
%TD*%
D17*
%TO.P,Q1,1*%
%TO.N,LBO*%
X86062500Y-113050000D03*
%TO.P,Q1,2*%
%TO.N,VSYS*%
X86062500Y-114950000D03*
%TO.P,Q1,3*%
%TO.N,N_Q1C*%
X87937500Y-114000000D03*
%TD*%
D14*
%TO.P,R20,1*%
%TO.N,N_Q1C*%
X90087500Y-114000000D03*
%TO.P,R20,2*%
%TO.N,N_LED1*%
X91912500Y-114000000D03*
%TD*%
D27*
%TO.P,LED1,1*%
%TO.N,GNDP*%
X93562500Y-114000000D03*
%TO.P,LED1,2*%
%TO.N,N_LED1*%
X95437500Y-114000000D03*
%TD*%
D14*
%TO.P,R5,1*%
%TO.N,V5P*%
X90022500Y-110500000D03*
%TO.P,R5,2*%
%TO.N,N_LED2*%
X91847500Y-110500000D03*
%TD*%
D27*
%TO.P,LED2,1*%
%TO.N,GNDP*%
X93397500Y-110500000D03*
%TO.P,LED2,2*%
%TO.N,N_LED2*%
X95272500Y-110500000D03*
%TD*%
D36*
%TO.N,BATP*%
X86016100Y-120933700D03*
%TO.N,CC1*%
X83008200Y-95814600D03*
X68407200Y-102650200D03*
%TO.N,CC2*%
X87088500Y-96699000D03*
X68407200Y-105650200D03*
%TO.N,FB*%
X94896000Y-105012300D03*
X98073500Y-110983400D03*
X94027000Y-97950900D03*
%TO.N,GND*%
X117064400Y-77935900D03*
%TO.N,GNDP*%
X91147200Y-112766700D03*
X77754900Y-109568900D03*
%TO.N,IN*%
X116407500Y-85063300D03*
%TO.N,LBI*%
X93429600Y-105319900D03*
X86513300Y-108226500D03*
%TO.N,LBO*%
X95662400Y-99181000D03*
X86062500Y-112154700D03*
%TO.N,PROG1*%
X75237200Y-110512000D03*
X80780700Y-110728700D03*
%TO.N,SCLP*%
X99606000Y-121236800D03*
X84135200Y-123500000D03*
%TO.N,SDAP*%
X95912500Y-121243900D03*
X81572400Y-123099800D03*
%TO.N,SPKO*%
X114981300Y-61880400D03*
%TO.N,SPKP*%
X114994900Y-60316000D03*
%TO.N,STAT1*%
X76547300Y-107856200D03*
X81148300Y-116750700D03*
%TO.N,STAT2*%
X76000500Y-106574300D03*
X88912500Y-116736200D03*
%TO.N,THERM*%
X76139600Y-109569400D03*
X81011700Y-113099500D03*
%TO.N,V5*%
X99208300Y-76923400D03*
X118210000Y-67376700D03*
X114671700Y-53062400D03*
%TO.N,V5P*%
X92788400Y-106638300D03*
%TO.N,VBUS*%
X77500000Y-107800600D03*
X74399800Y-105168000D03*
X67743600Y-112284700D03*
X78437500Y-119254400D03*
%TO.N,VLIPO*%
X81726700Y-108917100D03*
X80608600Y-121630100D03*
X88125200Y-120816100D03*
%TO.N,VPCC*%
X74723600Y-101247600D03*
X70267000Y-110919200D03*
%TO.N,VSYS*%
X93974700Y-103940500D03*
X75888400Y-100101300D03*
%TD*%
%TO.N,BASE*%
D37*
X118232500Y-83780000D02*
X117468300Y-83780000D01*
X116407500Y-81240000D02*
X116407500Y-82191700D01*
X116407500Y-82191700D02*
X117468300Y-83252500D01*
X117468300Y-83252500D02*
X117468300Y-83780000D01*
X115394800Y-76783200D02*
X116407500Y-77795900D01*
X116407500Y-77795900D02*
X116407500Y-81240000D01*
X116382500Y-72670000D02*
X116382500Y-73221700D01*
X115394800Y-74019800D02*
X116192900Y-73221700D01*
X116192900Y-73221700D02*
X116382500Y-73221700D01*
D38*
X115394800Y-76783200D02*
X115394800Y-74019800D01*
%TO.N,BATP*%
D37*
X86173300Y-121500000D02*
X86173300Y-121090900D01*
X86173300Y-121090900D02*
X86016100Y-120933700D01*
X76537500Y-122500000D02*
X75723300Y-122500000D01*
X73000000Y-118750000D02*
X73851700Y-118750000D01*
X73851700Y-118750000D02*
X73851700Y-120628400D01*
X73851700Y-120628400D02*
X75723300Y-122500000D01*
X87150000Y-121500000D02*
X86173300Y-121500000D01*
%TO.N,BTN*%
X81760000Y-88860000D02*
X81760000Y-82149200D01*
X81760000Y-82149200D02*
X69368500Y-69757700D01*
X69368500Y-69757700D02*
X68713000Y-69757700D01*
X68713000Y-69757700D02*
X65418300Y-66463000D01*
X65418300Y-66463000D02*
X65418300Y-49321700D01*
X65418300Y-49321700D02*
X66520000Y-48220000D01*
%TO.N,CC1*%
X83008200Y-95814600D02*
X83208700Y-95814600D01*
X83208700Y-95814600D02*
X83323300Y-95700000D01*
X84087500Y-95700000D02*
X83323300Y-95700000D01*
D38*
X68407200Y-102650200D02*
X68643500Y-102650200D01*
X68643500Y-102650200D02*
X68743300Y-102750000D01*
X69695000Y-102750000D02*
X68743300Y-102750000D01*
%TO.N,CC2*%
D37*
X87088500Y-96699000D02*
X87323300Y-96464200D01*
X87323300Y-96464200D02*
X87323300Y-95700000D01*
X88087500Y-95700000D02*
X87323300Y-95700000D01*
D38*
X68407200Y-105650200D02*
X68643500Y-105650200D01*
X68643500Y-105650200D02*
X68743300Y-105750000D01*
X69695000Y-105750000D02*
X68743300Y-105750000D01*
%TO.N,COL*%
D37*
X121510000Y-68540000D02*
X120808300Y-68540000D01*
X121510000Y-68540000D02*
X122211700Y-68540000D01*
X122671700Y-52030000D02*
X122671700Y-68080000D01*
X122671700Y-68080000D02*
X122211700Y-68540000D01*
X118257500Y-73620000D02*
X118257500Y-71090800D01*
X118257500Y-71090800D02*
X120808300Y-68540000D01*
X121320000Y-52030000D02*
X122671700Y-52030000D01*
%TO.N,EN*%
X99540000Y-55520000D02*
X99540000Y-54768300D01*
X97000000Y-43140000D02*
X97000000Y-52698100D01*
X97000000Y-52698100D02*
X99070200Y-54768300D01*
X99070200Y-54768300D02*
X99540000Y-54768300D01*
%TO.N,ENP*%
X97652500Y-99087500D02*
X97652500Y-99851700D01*
X97652500Y-99851700D02*
X98416700Y-99851700D01*
X98416700Y-99851700D02*
X99875000Y-101310000D01*
X99875000Y-101310000D02*
X101066600Y-101310000D01*
X101066600Y-101310000D02*
X101913700Y-102157100D01*
X101913700Y-102157100D02*
X101913700Y-103048600D01*
X101913700Y-103048600D02*
X101112300Y-103850000D01*
X101112300Y-103850000D02*
X100488300Y-103850000D01*
X100488300Y-103850000D02*
X99673300Y-104665000D01*
X99673300Y-104665000D02*
X99673300Y-105612700D01*
X99673300Y-105612700D02*
X100450600Y-106390000D01*
X100450600Y-106390000D02*
X101120900Y-106390000D01*
X101120900Y-106390000D02*
X101913900Y-107183000D01*
X101913900Y-107183000D02*
X101913900Y-111603600D01*
X101913900Y-111603600D02*
X100777500Y-112740000D01*
X95942400Y-100675000D02*
X95942400Y-100450200D01*
D38*
X95942400Y-100675000D02*
X95601700Y-100675000D01*
X96170000Y-100450200D02*
X95942400Y-100450200D01*
D37*
X97652500Y-99087500D02*
X96700800Y-99087500D01*
D38*
X94962500Y-100675000D02*
X95601700Y-100675000D01*
D37*
X96700800Y-99087500D02*
X96700800Y-99919400D01*
X96700800Y-99919400D02*
X96170000Y-100450200D01*
%TO.N,FB*%
X94685000Y-106087500D02*
X94685000Y-105223300D01*
X94685000Y-105223300D02*
X94896000Y-105012300D01*
X96976700Y-111148300D02*
X97908600Y-111148300D01*
X97908600Y-111148300D02*
X98073500Y-110983400D01*
X94027000Y-97950900D02*
X93747400Y-97950900D01*
X93747400Y-97950900D02*
X93325000Y-98373300D01*
X96976700Y-111912500D02*
X96976700Y-111148300D01*
X93325000Y-99037500D02*
X93325000Y-98373300D01*
%TO.N,GND*%
X69060000Y-66000000D02*
X66520000Y-63460000D01*
X66520000Y-63460000D02*
X66520000Y-50760000D01*
X99540000Y-73940000D02*
X99540000Y-73188300D01*
X99540000Y-53620000D02*
X99540000Y-54371700D01*
X99540000Y-54371700D02*
X100009800Y-54371700D01*
X100009800Y-54371700D02*
X100533700Y-54895600D01*
X100533700Y-54895600D02*
X100533700Y-72194600D01*
X100533700Y-72194600D02*
X99540000Y-73188300D01*
X91920000Y-78700000D02*
X91920000Y-88860000D01*
X99540000Y-53620000D02*
X99540000Y-48220000D01*
X99540000Y-48220000D02*
X104620000Y-43140000D01*
X91920000Y-78700000D02*
X96680000Y-73940000D01*
X96680000Y-73940000D02*
X99540000Y-73940000D01*
X117064400Y-77935900D02*
X118232500Y-79104000D01*
X118232500Y-79104000D02*
X118232500Y-81240000D01*
X117064400Y-77935900D02*
X116382500Y-77254000D01*
X116382500Y-77254000D02*
X116382500Y-74570000D01*
%TO.N,GNDP*%
X70671700Y-100270000D02*
X70671700Y-100750000D01*
X70081700Y-99680000D02*
X70671700Y-100270000D01*
X70671700Y-100270000D02*
X73918400Y-97023300D01*
X73918400Y-97023300D02*
X76691400Y-97023300D01*
X76691400Y-97023300D02*
X77198300Y-97530200D01*
X77198300Y-97530200D02*
X77198300Y-98000000D01*
X77950000Y-98000000D02*
X77198300Y-98000000D01*
X77351700Y-112000000D02*
X77351700Y-109972100D01*
X77351700Y-109972100D02*
X77754900Y-109568900D01*
X78000000Y-106101700D02*
X78151700Y-106253400D01*
X78151700Y-106253400D02*
X78151700Y-109172100D01*
X78151700Y-109172100D02*
X77754900Y-109568900D01*
X97385000Y-105111600D02*
X99916600Y-102580000D01*
X99916600Y-102580000D02*
X100777500Y-102580000D01*
X76587500Y-111048300D02*
X76587500Y-110939100D01*
X76587500Y-110939100D02*
X75507100Y-109858700D01*
X75507100Y-109858700D02*
X74277100Y-109858700D01*
X74277100Y-109858700D02*
X73087500Y-111048300D01*
X97385000Y-105525000D02*
X97385000Y-105111600D01*
X91148300Y-112767800D02*
X91147200Y-112766700D01*
X70081700Y-108320000D02*
X72810000Y-111048300D01*
X72810000Y-111048300D02*
X73087500Y-111048300D01*
X76587500Y-112000000D02*
X76587500Y-111048300D01*
X85518800Y-97506000D02*
X85518800Y-100816500D01*
X85518800Y-100816500D02*
X88950000Y-104247700D01*
X88950000Y-104247700D02*
X88950000Y-105500000D01*
X85912500Y-96651700D02*
X85518800Y-97045400D01*
X85518800Y-97045400D02*
X85518800Y-97506000D01*
X85518800Y-97506000D02*
X83699800Y-97506000D01*
X78000000Y-105437500D02*
X78000000Y-106101700D01*
X68780000Y-99680000D02*
X67478300Y-99680000D01*
X68780000Y-108320000D02*
X67478300Y-108320000D01*
X67478300Y-108320000D02*
X67370700Y-108212400D01*
X67370700Y-108212400D02*
X67370700Y-99787600D01*
X67370700Y-99787600D02*
X67478300Y-99680000D01*
X73087500Y-112000000D02*
X72323300Y-112000000D01*
X71000000Y-118750000D02*
X71000000Y-113323300D01*
X71000000Y-113323300D02*
X72323300Y-112000000D01*
X92025000Y-102962500D02*
X92025000Y-103626700D01*
X91011700Y-105050000D02*
X91011700Y-104640000D01*
X91011700Y-104640000D02*
X92025000Y-103626700D01*
X91011700Y-105050000D02*
X90523300Y-105050000D01*
X91500000Y-105050000D02*
X91011700Y-105050000D01*
X91148300Y-120409400D02*
X91950000Y-121211100D01*
X91950000Y-121211100D02*
X91950000Y-122500000D01*
X91148300Y-112767800D02*
X91148300Y-120409400D01*
X91148300Y-120409400D02*
X90540000Y-120409400D01*
X90540000Y-120409400D02*
X89249800Y-121699600D01*
X89249800Y-121699600D02*
X89249800Y-121892000D01*
X89249800Y-121892000D02*
X88141800Y-123000000D01*
X88141800Y-123000000D02*
X87150000Y-123000000D01*
X87150000Y-123000000D02*
X86173300Y-123000000D01*
X93397000Y-111480600D02*
X93397000Y-112767800D01*
X93397000Y-110500000D02*
X93397000Y-111480600D01*
X93397000Y-111480600D02*
X95837500Y-111480600D01*
X95837500Y-111480600D02*
X96976700Y-110341400D01*
X96976700Y-110341400D02*
X96976700Y-110087500D01*
X87574100Y-107332900D02*
X87282900Y-107332900D01*
X87282900Y-107332900D02*
X86201700Y-106251700D01*
X86201700Y-106251700D02*
X86201700Y-105500000D01*
X88950000Y-106476700D02*
X88430300Y-106476700D01*
X88430300Y-106476700D02*
X87574100Y-107332900D01*
X87574100Y-109500000D02*
X87574100Y-107332900D01*
X81898300Y-121067100D02*
X84962600Y-121067100D01*
X84962600Y-121067100D02*
X85123900Y-121228400D01*
X93397000Y-112767800D02*
X93397000Y-114000000D01*
X91148300Y-112767800D02*
X93397000Y-112767800D01*
X93562500Y-114000000D02*
X93397000Y-114000000D01*
D38*
X99027800Y-109300200D02*
X97024800Y-109300200D01*
X97024800Y-109300200D02*
X96976700Y-109348300D01*
D37*
X97385000Y-106351700D02*
X97591700Y-106351700D01*
X97591700Y-106351700D02*
X99027800Y-107787800D01*
X99027800Y-107787800D02*
X99027800Y-109300200D01*
X97385000Y-105525000D02*
X97385000Y-106351700D01*
D38*
X96976700Y-110087500D02*
X96976700Y-109348300D01*
D37*
X88950000Y-105500000D02*
X90073300Y-105500000D01*
X90073300Y-105500000D02*
X90523300Y-105050000D01*
X88950000Y-105500000D02*
X88950000Y-106476700D01*
X85450000Y-105500000D02*
X86201700Y-105500000D01*
X88338300Y-109500000D02*
X87574100Y-109500000D01*
X80087500Y-112000000D02*
X79323300Y-112000000D01*
X79323300Y-112000000D02*
X79323300Y-112668700D01*
X79323300Y-112668700D02*
X79032200Y-112959800D01*
X79032200Y-112959800D02*
X77800200Y-112959800D01*
X77800200Y-112959800D02*
X77351700Y-112511300D01*
X77351700Y-112511300D02*
X77351700Y-112000000D01*
X73087500Y-112000000D02*
X73087500Y-111048300D01*
X70671700Y-107250000D02*
X70671700Y-107730000D01*
X70671700Y-107730000D02*
X70081700Y-108320000D01*
X71000000Y-118750000D02*
X70148300Y-118750000D01*
X68049800Y-114727300D02*
X68049800Y-114615200D01*
X68049800Y-114615200D02*
X69000000Y-113665000D01*
D38*
X68049800Y-117775500D02*
X68049800Y-114727300D01*
D37*
X70148300Y-118750000D02*
X69173800Y-117775500D01*
X69173800Y-117775500D02*
X68049800Y-117775500D01*
D38*
X83699800Y-97506000D02*
X83205800Y-98000000D01*
X83205800Y-98000000D02*
X82701700Y-98000000D01*
D37*
X81950000Y-98000000D02*
X82701700Y-98000000D01*
X77950000Y-98000000D02*
X78701700Y-98000000D01*
X79299800Y-97024800D02*
X78701700Y-97622900D01*
X78701700Y-97622900D02*
X78701700Y-98000000D01*
D38*
X81906500Y-97024800D02*
X79299800Y-97024800D01*
D37*
X81950000Y-98000000D02*
X81906500Y-97956500D01*
X81906500Y-97956500D02*
X81906500Y-97024800D01*
X85912500Y-95700000D02*
X85912500Y-96651700D01*
X85912500Y-95700000D02*
X86676700Y-95700000D01*
X87324800Y-94749800D02*
X86676700Y-95397900D01*
X86676700Y-95397900D02*
X86676700Y-95700000D01*
D38*
X89912500Y-94749800D02*
X87324800Y-94749800D01*
D37*
X89912500Y-95700000D02*
X89912500Y-94749800D01*
D38*
X81898300Y-121067100D02*
X81898300Y-122000000D01*
X82850000Y-122000000D02*
X81898300Y-122000000D01*
X85985200Y-122089700D02*
X85123900Y-121228400D01*
D37*
X86173300Y-123000000D02*
X86173300Y-122277800D01*
X86173300Y-122277800D02*
X85985200Y-122089700D01*
X69695000Y-107250000D02*
X70671700Y-107250000D01*
X68780000Y-108320000D02*
X70081700Y-108320000D01*
X69695000Y-100750000D02*
X70671700Y-100750000D01*
X68780000Y-99680000D02*
X70081700Y-99680000D01*
X93037500Y-101000000D02*
X93037500Y-101100200D01*
X93975000Y-99037500D02*
X93975000Y-100062500D01*
X93975000Y-100062500D02*
X93037500Y-101000000D01*
X93000000Y-101000000D02*
X93037500Y-101000000D01*
D38*
X94962500Y-101325000D02*
X94323300Y-101325000D01*
X93037500Y-101100200D02*
X94098500Y-101100200D01*
X94098500Y-101100200D02*
X94323300Y-101325000D01*
D37*
X93000000Y-102298300D02*
X92675000Y-102298300D01*
X93325000Y-102298300D02*
X93000000Y-102298300D01*
X93000000Y-101000000D02*
X93000000Y-102298300D01*
X93325000Y-102962500D02*
X93325000Y-102298300D01*
X92025000Y-102962500D02*
X92025000Y-102298300D01*
X92675000Y-102962500D02*
X92675000Y-102298300D01*
X92675000Y-102298300D02*
X92025000Y-102298300D01*
X76587500Y-112000000D02*
X77351700Y-112000000D01*
X77000000Y-103500000D02*
X78000000Y-104500000D01*
X78000000Y-104500000D02*
X78000000Y-105437500D01*
X78937500Y-104500000D02*
X78000000Y-105437500D01*
%TO.N,IN*%
X116407500Y-85063300D02*
X116407500Y-83780000D01*
%TO.N,LBI*%
X94962500Y-101975000D02*
X94962500Y-103907200D01*
X94962500Y-103907200D02*
X93549800Y-105319900D01*
X93549800Y-105319900D02*
X93429600Y-105319900D01*
X86513300Y-109500000D02*
X86513300Y-108226500D01*
X86513300Y-109500000D02*
X84939700Y-109500000D01*
%TO.N,LBO*%
X95626700Y-100025000D02*
X95626700Y-99216700D01*
X95626700Y-99216700D02*
X95662400Y-99181000D01*
X86062500Y-112498300D02*
X86062500Y-112154700D01*
X94962500Y-100025000D02*
X95626700Y-100025000D01*
X86062500Y-113050000D02*
X86062500Y-112498300D01*
%TO.N,N_LED1*%
X91912500Y-114000000D02*
X92676700Y-114000000D01*
X95437500Y-114000000D02*
X94698300Y-114000000D01*
X92676700Y-114000000D02*
X92676700Y-114668700D01*
X92676700Y-114668700D02*
X93005500Y-114997500D01*
X93005500Y-114997500D02*
X94162800Y-114997500D01*
X94162800Y-114997500D02*
X94698300Y-114462000D01*
X94698300Y-114462000D02*
X94698300Y-114000000D01*
%TO.N,N_LED2*%
X95272000Y-110500000D02*
X94532800Y-110500000D01*
X91848300Y-110500000D02*
X91848300Y-109548300D01*
X92659300Y-109549800D02*
X92657800Y-109548300D01*
X92657800Y-109548300D02*
X91848300Y-109548300D01*
D38*
X94519200Y-109549800D02*
X92659300Y-109549800D01*
D37*
X94532800Y-110500000D02*
X94532800Y-109563400D01*
X94532800Y-109563400D02*
X94519200Y-109549800D01*
%TO.N,N_LED3*%
X87087500Y-118000000D02*
X86323300Y-118000000D01*
X83562500Y-118000000D02*
X84301700Y-118000000D01*
X84699800Y-117049800D02*
X84301700Y-117447900D01*
X84301700Y-117447900D02*
X84301700Y-118000000D01*
D38*
X86137300Y-117049800D02*
X84699800Y-117049800D01*
D37*
X86323300Y-118000000D02*
X86323300Y-117235800D01*
X86323300Y-117235800D02*
X86137300Y-117049800D01*
%TO.N,N_LED4*%
X76562500Y-118000000D02*
X77301700Y-118000000D01*
X77699800Y-117049800D02*
X77301700Y-117447900D01*
X77301700Y-117447900D02*
X77301700Y-118000000D01*
D38*
X80087500Y-117049800D02*
X77699800Y-117049800D01*
D37*
X80087500Y-118000000D02*
X80087500Y-117049800D01*
%TO.N,N_Q1C*%
X90087500Y-114000000D02*
X87937500Y-114000000D01*
%TO.N,PROG1*%
X74912500Y-112000000D02*
X74912500Y-110836700D01*
X74912500Y-110836700D02*
X75237200Y-110512000D01*
D38*
X79576700Y-103500000D02*
X79998300Y-103500000D01*
X79998300Y-103500000D02*
X80780700Y-104282400D01*
X80780700Y-104282400D02*
X80780700Y-110728700D01*
X78937500Y-103500000D02*
X79576700Y-103500000D01*
%TO.N,PROG3*%
D37*
X78412500Y-112000000D02*
X78412500Y-111048300D01*
X78412500Y-111048300D02*
X78828100Y-110632700D01*
X78828100Y-110632700D02*
X78828100Y-106027500D01*
D38*
X78828100Y-106027500D02*
X80155500Y-104700000D01*
X80155500Y-104124800D02*
X79701500Y-104124800D01*
X79701500Y-104124800D02*
X79576700Y-104000000D01*
D37*
X80155500Y-104700000D02*
X80155500Y-104124800D01*
D38*
X78937500Y-104000000D02*
X79576700Y-104000000D01*
%TO.N,SCL*%
D37*
X86840000Y-78700000D02*
X86840000Y-88860000D01*
X94460000Y-43140000D02*
X94460000Y-71080000D01*
X94460000Y-71080000D02*
X86840000Y-78700000D01*
%TO.N,SCLP*%
X82850000Y-123500000D02*
X84135200Y-123500000D01*
X99606000Y-121236800D02*
X99607500Y-121235300D01*
X99607500Y-121235300D02*
X99607500Y-111370000D01*
X99607500Y-111370000D02*
X100777500Y-110200000D01*
X99606000Y-121236800D02*
X99606000Y-121354800D01*
X99606000Y-121354800D02*
X99412500Y-121548300D01*
X99412500Y-122500000D02*
X99412500Y-121548300D01*
%TO.N,SDA*%
X84300000Y-78700000D02*
X84300000Y-88860000D01*
X84300000Y-78700000D02*
X84300000Y-77598300D01*
X91920000Y-43140000D02*
X91920000Y-69978300D01*
X91920000Y-69978300D02*
X84300000Y-77598300D01*
%TO.N,SDAP*%
X100777500Y-107660000D02*
X99519200Y-108918300D01*
X99519200Y-108918300D02*
X99519200Y-110457300D01*
X99519200Y-110457300D02*
X99255800Y-110720700D01*
X99255800Y-110720700D02*
X99255800Y-117900600D01*
X99255800Y-117900600D02*
X95912500Y-121243900D01*
X95912500Y-121243900D02*
X95912500Y-122500000D01*
D38*
X81572400Y-123099800D02*
X81798500Y-123099800D01*
X81798500Y-123099800D02*
X81898300Y-123000000D01*
X82850000Y-123000000D02*
X81898300Y-123000000D01*
%TO.N,SPKM*%
D37*
X130020000Y-53300000D02*
X129168300Y-53300000D01*
X128020000Y-63460000D02*
X128871700Y-63460000D01*
X129168300Y-53300000D02*
X129168300Y-63163400D01*
X129168300Y-63163400D02*
X128871700Y-63460000D01*
%TO.N,SPKO*%
X114671700Y-62190000D02*
X114981300Y-61880400D01*
X113320000Y-62190000D02*
X114671700Y-62190000D01*
%TO.N,SPKP*%
X113320000Y-59650000D02*
X114671700Y-59650000D01*
X114671700Y-59650000D02*
X114671700Y-59992800D01*
X114671700Y-59992800D02*
X114994900Y-60316000D01*
%TO.N,STAT1*%
X77000000Y-105437500D02*
X77000000Y-107379100D01*
X77000000Y-107379100D02*
X76547300Y-107831800D01*
X76547300Y-107831800D02*
X76547300Y-107856200D01*
X81148300Y-118000000D02*
X81148300Y-116750700D01*
X81912500Y-118000000D02*
X81148300Y-118000000D01*
%TO.N,STAT2*%
X88912500Y-117048300D02*
X88912500Y-116736200D01*
X76500000Y-105437500D02*
X76500000Y-106101700D01*
X76000500Y-106574300D02*
X76473100Y-106101700D01*
X76473100Y-106101700D02*
X76500000Y-106101700D01*
X88912500Y-118000000D02*
X88912500Y-117048300D01*
%TO.N,SW*%
X87500000Y-100000000D02*
X87500000Y-102101700D01*
D38*
X91037500Y-101325000D02*
X90398300Y-101325000D01*
X89106200Y-101100200D02*
X90173500Y-101100200D01*
X90173500Y-101100200D02*
X90398300Y-101325000D01*
D37*
X87500000Y-102101700D02*
X88201500Y-102101700D01*
X88201500Y-102101700D02*
X89106100Y-101197100D01*
X89106100Y-101197100D02*
X89106100Y-101100200D01*
X89106100Y-101100200D02*
X89106200Y-101100200D01*
X91037500Y-101325000D02*
X91037500Y-101975000D01*
%TO.N,THERM*%
X75062500Y-104500000D02*
X75062500Y-108492300D01*
X75062500Y-108492300D02*
X76139600Y-109569400D01*
X81148300Y-112000000D02*
X81148300Y-112962900D01*
X81148300Y-112962900D02*
X81011700Y-113099500D01*
X81912500Y-112000000D02*
X81148300Y-112000000D01*
%TO.N,V33*%
X89380000Y-78700000D02*
X89380000Y-88860000D01*
X89380000Y-43140000D02*
X89380000Y-48220000D01*
X89380000Y-48220000D02*
X69060000Y-68540000D01*
%TO.N,V33P*%
X98351700Y-122500000D02*
X98351700Y-123070600D01*
X98351700Y-123070600D02*
X98732800Y-123451700D01*
X98732800Y-123451700D02*
X100047000Y-123451700D01*
X100047000Y-123451700D02*
X102265600Y-121233100D01*
X102265600Y-121233100D02*
X102265600Y-106608100D01*
X102265600Y-106608100D02*
X100777500Y-105120000D01*
X97587500Y-122500000D02*
X98351700Y-122500000D01*
X94087500Y-123450200D02*
X94087500Y-123451700D01*
X94087500Y-122500000D02*
X94087500Y-123450200D01*
X95149800Y-123450200D02*
X94087500Y-123450200D01*
D38*
X97587500Y-123450200D02*
X95149800Y-123450200D01*
D37*
X97587500Y-122500000D02*
X97587500Y-123450200D01*
X90599800Y-123049800D02*
X90050000Y-122500000D01*
D38*
X93925000Y-123475200D02*
X91025200Y-123475200D01*
X91025200Y-123475200D02*
X90599800Y-123049800D01*
D37*
X94087500Y-123451700D02*
X93948500Y-123451700D01*
X93948500Y-123451700D02*
X93925000Y-123475200D01*
D38*
X87150000Y-123500000D02*
X88101700Y-123500000D01*
X89662500Y-123400200D02*
X88201500Y-123400200D01*
X88201500Y-123400200D02*
X88101700Y-123500000D01*
D37*
X90050000Y-122500000D02*
X89662500Y-122887500D01*
X89662500Y-122887500D02*
X89662500Y-123400200D01*
X85000000Y-121599800D02*
X85000000Y-122326700D01*
X85000000Y-122326700D02*
X86173300Y-123500000D01*
X87150000Y-123500000D02*
X86173300Y-123500000D01*
D38*
X82850000Y-121500000D02*
X83801700Y-121500000D01*
X85000000Y-121599800D02*
X83901500Y-121599800D01*
X83901500Y-121599800D02*
X83801700Y-121500000D01*
%TO.N,V5*%
D37*
X99208300Y-76923400D02*
X97000000Y-79131700D01*
X97000000Y-79131700D02*
X97000000Y-88860000D01*
X114671700Y-53062400D02*
X118210000Y-56600700D01*
X118210000Y-56600700D02*
X118210000Y-67376700D01*
X99208300Y-76923400D02*
X99540000Y-76591700D01*
X99540000Y-75840000D02*
X99540000Y-76591700D01*
X118210000Y-67376700D02*
X118210000Y-68540000D01*
X114671700Y-53062400D02*
X114671700Y-52030000D01*
X113320000Y-52030000D02*
X114671700Y-52030000D01*
%TO.N,V5P*%
X92476700Y-106950000D02*
X92788400Y-106638300D01*
X100777500Y-97500000D02*
X99675800Y-97500000D01*
X99675800Y-97500000D02*
X99475000Y-97299200D01*
X99475000Y-97299200D02*
X93749100Y-97299200D01*
X93749100Y-97299200D02*
X92675000Y-98373300D01*
X95783300Y-108475000D02*
X95636700Y-108328400D01*
X95636700Y-108328400D02*
X95636700Y-107912500D01*
X91500000Y-106950000D02*
X92476700Y-106950000D01*
X91500000Y-107912500D02*
X91500000Y-107701700D01*
X90023300Y-110500000D02*
X90023300Y-109389200D01*
X90023300Y-109389200D02*
X91500000Y-107912500D01*
X91500000Y-107912500D02*
X93733300Y-107912500D01*
X94685000Y-107912500D02*
X93733300Y-107912500D01*
X94685000Y-107912500D02*
X95636700Y-107912500D01*
X97385000Y-108475000D02*
X95783300Y-108475000D01*
X91500000Y-106950000D02*
X91500000Y-107701700D01*
X92025000Y-99037500D02*
X92025000Y-98373300D01*
X92675000Y-99037500D02*
X92675000Y-98373300D01*
X92675000Y-98373300D02*
X92025000Y-98373300D01*
X92025000Y-99037500D02*
X91868700Y-99037500D01*
X91868700Y-99037500D02*
X91037500Y-99868700D01*
X91037500Y-99868700D02*
X91037500Y-100025000D01*
%TO.N,VBUS*%
X76050000Y-98000000D02*
X76050000Y-98976700D01*
X76500000Y-100898300D02*
X76540100Y-100858200D01*
X76540100Y-100858200D02*
X76540100Y-99466800D01*
X76540100Y-99466800D02*
X76050000Y-98976700D01*
X77500000Y-107800600D02*
X77500000Y-105437500D01*
X78437500Y-118951700D02*
X78437500Y-119254400D01*
D38*
X74399800Y-105168000D02*
X74399800Y-104124800D01*
D37*
X74399800Y-104124800D02*
X74399800Y-103501500D01*
X74399800Y-103501500D02*
X74398300Y-103500000D01*
X71020600Y-105656100D02*
X71020600Y-106113200D01*
X71020600Y-106113200D02*
X70983600Y-106150200D01*
D38*
X70983600Y-106150200D02*
X70946500Y-106150200D01*
X70946500Y-106150200D02*
X70646700Y-106450000D01*
D37*
X85437500Y-118000000D02*
X84698300Y-118000000D01*
X78437500Y-118950200D02*
X78499400Y-119012100D01*
X78499400Y-119012100D02*
X84148200Y-119012100D01*
X84148200Y-119012100D02*
X84698300Y-118462000D01*
X84698300Y-118462000D02*
X84698300Y-118000000D01*
X78437500Y-118950200D02*
X78437500Y-118951700D01*
X78437500Y-118863300D02*
X78437500Y-118950200D01*
X78437500Y-118000000D02*
X78437500Y-118863300D01*
X67743600Y-112284700D02*
X68048300Y-111980000D01*
X69000000Y-111980000D02*
X68048300Y-111980000D01*
X74046600Y-101550000D02*
X74046600Y-103148300D01*
X74046600Y-103148300D02*
X74398300Y-103500000D01*
X75298300Y-98000000D02*
X74046600Y-99251700D01*
X74046600Y-99251700D02*
X74046600Y-101550000D01*
X74046600Y-101550000D02*
X70715700Y-101550000D01*
D38*
X69695000Y-106450000D02*
X70646700Y-106450000D01*
X70670200Y-101708300D02*
X70670200Y-105305700D01*
X70670200Y-105305700D02*
X71020600Y-105656100D01*
D37*
X70715700Y-101550000D02*
X70670200Y-101595500D01*
X70670200Y-101595500D02*
X70670200Y-101708300D01*
X70715700Y-101550000D02*
X70671700Y-101550000D01*
X69695000Y-101550000D02*
X70671700Y-101550000D01*
X77500000Y-101562500D02*
X77500000Y-100898300D01*
X77000000Y-100898300D02*
X77500000Y-100898300D01*
X76500000Y-101562500D02*
X76500000Y-100898300D01*
X77000000Y-101562500D02*
X77000000Y-100898300D01*
X77000000Y-100898300D02*
X76500000Y-100898300D01*
X75062500Y-103500000D02*
X74398300Y-103500000D01*
X76050000Y-98000000D02*
X75298300Y-98000000D01*
X75062500Y-103500000D02*
X75062500Y-104000000D01*
%TO.N,VLIPO*%
X79601700Y-102500000D02*
X81726700Y-104625000D01*
X81726700Y-104625000D02*
X81726700Y-108917100D01*
X80050000Y-98000000D02*
X80050000Y-102051700D01*
X80050000Y-102051700D02*
X79601700Y-102500000D01*
X80276700Y-122500000D02*
X80608600Y-122168100D01*
X80608600Y-122168100D02*
X80608600Y-121630100D01*
X79462500Y-122500000D02*
X80276700Y-122500000D01*
D38*
X88125200Y-120816100D02*
X88125200Y-121900200D01*
D37*
X88125200Y-121900200D02*
X88126700Y-121901700D01*
X88126700Y-121901700D02*
X88126700Y-122000000D01*
X87150000Y-122000000D02*
X88126700Y-122000000D01*
X87150000Y-122500000D02*
X88126700Y-122500000D01*
X88126700Y-122500000D02*
X88126700Y-122000000D01*
X79269600Y-102500000D02*
X78332100Y-101562500D01*
X78332100Y-101562500D02*
X78000000Y-101562500D01*
X79269600Y-102500000D02*
X79601700Y-102500000D01*
X78937500Y-102500000D02*
X79269600Y-102500000D01*
X78937500Y-103000000D02*
X79601700Y-103000000D01*
X79601700Y-103000000D02*
X79601700Y-102500000D01*
%TO.N,VPCC*%
X74398300Y-103000000D02*
X74398300Y-101572900D01*
X74398300Y-101572900D02*
X74723600Y-101247600D01*
X75062500Y-103000000D02*
X74398300Y-103000000D01*
X69000000Y-115490000D02*
X69000000Y-114725800D01*
X70267000Y-110919200D02*
X70267000Y-114031900D01*
X70267000Y-114031900D02*
X69573100Y-114725800D01*
X69573100Y-114725800D02*
X69000000Y-114725800D01*
X69000000Y-110919200D02*
X70267000Y-110919200D01*
X69000000Y-110155000D02*
X69000000Y-110919200D01*
%TO.N,VSYS*%
X97652500Y-100912500D02*
X97652500Y-101676700D01*
X92763800Y-105668600D02*
X92445900Y-105986500D01*
X92445900Y-105986500D02*
X90871500Y-105986500D01*
X90871500Y-105986500D02*
X89241500Y-107616500D01*
X89241500Y-107616500D02*
X89241500Y-110176500D01*
X89241500Y-110176500D02*
X88966300Y-110451700D01*
X88966300Y-110451700D02*
X86842000Y-110451700D01*
X86842000Y-110451700D02*
X84670500Y-112623200D01*
X97652500Y-101676700D02*
X95783300Y-103545900D01*
X95783300Y-103545900D02*
X95783300Y-106626100D01*
X95783300Y-106626100D02*
X95557700Y-106851700D01*
X95557700Y-106851700D02*
X93851900Y-106851700D01*
X93851900Y-106851700D02*
X93733300Y-106733100D01*
X93733300Y-106733100D02*
X93733300Y-106638100D01*
X93733300Y-106638100D02*
X92763800Y-105668600D01*
X92763800Y-105668600D02*
X92763800Y-105034300D01*
X92763800Y-105034300D02*
X93857600Y-103940500D01*
X93857600Y-103940500D02*
X93974700Y-103940500D01*
X93974700Y-103940500D02*
X93975000Y-103940200D01*
X93975000Y-103940200D02*
X93975000Y-102962500D01*
D38*
X84670500Y-112623200D02*
X84177000Y-112129700D01*
X85074800Y-113552000D02*
X85074800Y-113027500D01*
X85074800Y-113027500D02*
X84670500Y-112623200D01*
D37*
X76000000Y-100898300D02*
X75888400Y-100786700D01*
X75888400Y-100786700D02*
X75888400Y-100101300D01*
X84500000Y-101050800D02*
X87050000Y-103600800D01*
X87050000Y-103600800D02*
X87050000Y-105500000D01*
X76000000Y-101562500D02*
X76000000Y-100898300D01*
X86062500Y-114398300D02*
X85921100Y-114398300D01*
X85921100Y-114398300D02*
X85074800Y-113552000D01*
X84177000Y-112129700D02*
X83114700Y-111067400D01*
X83114700Y-111067400D02*
X83114700Y-109500000D01*
X84500000Y-101050800D02*
X84500000Y-102101700D01*
X84500000Y-100000000D02*
X84500000Y-101050800D01*
X83550000Y-105500000D02*
X83550000Y-106476700D01*
X83114700Y-109500000D02*
X83114700Y-106912000D01*
X83114700Y-106912000D02*
X83550000Y-106476700D01*
X83550000Y-105500000D02*
X83550000Y-103051700D01*
X83550000Y-103051700D02*
X84500000Y-102101700D01*
X86062500Y-114950000D02*
X86062500Y-114398300D01*
X76000000Y-101562500D02*
X75062500Y-102500000D01*
%TD*%
M02*
