%TF.GenerationSoftware,KiCad,Pcbnew,10.0.6*%
%TF.CreationDate,2026-09-12T19:15:17+09:00*%
%TF.ProjectId,hub_power,6875625f-706f-4776-9572-2e6b69636164,rev?*%
%TF.SameCoordinates,Original*%
%TF.FileFunction,Soldermask,Top*%
%TF.FilePolarity,Negative*%
%FSLAX46Y46*%
G04 Gerber Fmt 4.6, Leading zero omitted, Abs format (unit mm)*
G04 Created by KiCad (PCBNEW 10.0.6) date 2026-09-12 19:15:17*
%MOMM*%
%LPD*%
G01*
G04 APERTURE LIST*
G04 Aperture macros list*
%AMRoundRect*
0 Rectangle with rounded corners*
0 $1 Rounding radius*
0 $2 $3 $4 $5 $6 $7 $8 $9 X,Y pos of 4 corners*
0 Add a 4 corners polygon primitive as box body*
4,1,4,$2,$3,$4,$5,$6,$7,$8,$9,$2,$3,0*
0 Add four circle primitives for the rounded corners*
1,1,$1+$1,$2,$3*
1,1,$1+$1,$4,$5*
1,1,$1+$1,$6,$7*
1,1,$1+$1,$8,$9*
0 Add four rect primitives between the rounded corners*
20,1,$1+$1,$2,$3,$4,$5,0*
20,1,$1+$1,$4,$5,$6,$7,0*
20,1,$1+$1,$6,$7,$8,$9,0*
20,1,$1+$1,$8,$9,$2,$3,0*%
G04 Aperture macros list end*
%ADD10C,3.200000*%
%ADD11RoundRect,0.250000X0.350000X0.625000X-0.350000X0.625000X-0.350000X-0.625000X0.350000X-0.625000X0*%
%ADD12O,1.200000X1.750000*%
%ADD13R,1.700000X1.700000*%
%ADD14C,1.700000*%
%ADD15RoundRect,0.250000X-0.262500X-0.450000X0.262500X-0.450000X0.262500X0.450000X-0.262500X0.450000X0*%
%ADD16RoundRect,0.225000X-0.225000X-0.375000X0.225000X-0.375000X0.225000X0.375000X-0.225000X0.375000X0*%
%ADD17RoundRect,0.250000X0.475000X-0.250000X0.475000X0.250000X-0.475000X0.250000X-0.475000X-0.250000X0*%
%ADD18RoundRect,0.150000X-0.587500X-0.150000X0.587500X-0.150000X0.587500X0.150000X-0.587500X0.150000X0*%
%ADD19R,2.200000X1.000000*%
%ADD20C,0.650000*%
%ADD21RoundRect,0.150000X-0.575000X0.150000X-0.575000X-0.150000X0.575000X-0.150000X0.575000X0.150000X0*%
%ADD22RoundRect,0.075000X-0.650000X0.075000X-0.650000X-0.075000X0.650000X-0.075000X0.650000X0.075000X0*%
%ADD23O,2.100000X1.000000*%
%ADD24RoundRect,0.250000X-0.250000X-0.475000X0.250000X-0.475000X0.250000X0.475000X-0.250000X0.475000X0*%
%ADD25RoundRect,0.062500X-0.350000X-0.062500X0.350000X-0.062500X0.350000X0.062500X-0.350000X0.062500X0*%
%ADD26RoundRect,0.062500X-0.062500X-0.350000X0.062500X-0.350000X0.062500X0.350000X-0.062500X0.350000X0*%
%ADD27R,2.500000X2.500000*%
%ADD28RoundRect,0.250000X0.450000X-0.262500X0.450000X0.262500X-0.450000X0.262500X-0.450000X-0.262500X0*%
%ADD29RoundRect,0.243750X-0.243750X-0.456250X0.243750X-0.456250X0.243750X0.456250X-0.243750X0.456250X0*%
%ADD30RoundRect,0.250000X-0.350000X-0.625000X0.350000X-0.625000X0.350000X0.625000X-0.350000X0.625000X0*%
%ADD31RoundRect,0.250000X-0.312500X-0.625000X0.312500X-0.625000X0.312500X0.625000X-0.312500X0.625000X0*%
%ADD32RoundRect,0.075000X-0.650000X-0.075000X0.650000X-0.075000X0.650000X0.075000X-0.650000X0.075000X0*%
%ADD33RoundRect,0.087500X-0.325000X-0.087500X0.325000X-0.087500X0.325000X0.087500X-0.325000X0.087500X0*%
%ADD34RoundRect,0.087500X-0.087500X-0.325000X0.087500X-0.325000X0.087500X0.325000X-0.087500X0.325000X0*%
%ADD35R,2.700000X2.700000*%
%ADD36RoundRect,0.250000X-0.300000X-1.600000X0.300000X-1.600000X0.300000X1.600000X-0.300000X1.600000X0*%
%ADD37RoundRect,0.250000X0.650000X-0.325000X0.650000X0.325000X-0.650000X0.325000X-0.650000X-0.325000X0*%
G04 APERTURE END LIST*
D10*
%TO.C,*%
X63000000Y-89000000D03*
%TD*%
%TO.C,*%
X63000000Y-43000000D03*
%TD*%
%TO.C,*%
X131000000Y-89000000D03*
%TD*%
%TO.C,*%
X131000000Y-43000000D03*
%TD*%
D11*
%TO.C,J4*%
X130020000Y-63460000D03*
D12*
X128020000Y-63460000D03*
%TD*%
D11*
%TO.C,J5*%
X130020000Y-53300000D03*
D12*
X128020000Y-53300000D03*
%TD*%
D13*
%TO.C,J1*%
X81760000Y-88860000D03*
D14*
X84300000Y-88860000D03*
X86840000Y-88860000D03*
X89380000Y-88860000D03*
X91920000Y-88860000D03*
X94460000Y-88860000D03*
X97000000Y-88860000D03*
%TD*%
D13*
%TO.C,J3*%
X84300000Y-78700000D03*
D14*
X86840000Y-78700000D03*
X89380000Y-78700000D03*
X91920000Y-78700000D03*
%TD*%
D13*
%TO.C,J2*%
X69060000Y-73620000D03*
D14*
X69060000Y-71080000D03*
X69060000Y-68540000D03*
X69060000Y-66000000D03*
%TD*%
D13*
%TO.C,J6*%
X109700000Y-43140000D03*
D14*
X112240000Y-43140000D03*
%TD*%
D13*
%TO.C,J7*%
X102080000Y-43140000D03*
D14*
X104620000Y-43140000D03*
%TD*%
D13*
%TO.C,J8*%
X66520000Y-50760000D03*
D14*
X66520000Y-48220000D03*
%TD*%
D13*
%TO.C,J11*%
X81760000Y-43140000D03*
D14*
X84300000Y-43140000D03*
X86840000Y-43140000D03*
X89380000Y-43140000D03*
X91920000Y-43140000D03*
X94460000Y-43140000D03*
X97000000Y-43140000D03*
%TD*%
D15*
%TO.C,R31*%
X116407500Y-83780000D03*
X118232500Y-83780000D03*
%TD*%
%TO.C,R32*%
X116407500Y-81240000D03*
X118232500Y-81240000D03*
%TD*%
D16*
%TO.C,D31*%
X118210000Y-68540000D03*
X121510000Y-68540000D03*
%TD*%
D17*
%TO.C,C31*%
X99540000Y-75840000D03*
X99540000Y-73940000D03*
%TD*%
%TO.C,C32*%
X99540000Y-55520000D03*
X99540000Y-53620000D03*
%TD*%
D18*
%TO.C,Q31*%
X116382500Y-72670000D03*
X116382500Y-74570000D03*
X118257500Y-73620000D03*
%TD*%
D19*
%TO.C,K31*%
X113320000Y-52030000D03*
X113320000Y-57110000D03*
X113320000Y-59650000D03*
X113320000Y-62190000D03*
X121320000Y-62190000D03*
X121320000Y-59650000D03*
X121320000Y-57110000D03*
X121320000Y-52030000D03*
%TD*%
D20*
%TO.C,J13*%
X68250000Y-101110000D03*
X68250000Y-106890000D03*
D21*
X69695000Y-100750000D03*
X69695000Y-101550000D03*
D22*
X69695000Y-102750000D03*
X69695000Y-103750000D03*
X69695000Y-104250000D03*
X69695000Y-105250000D03*
D21*
X69695000Y-106450000D03*
X69695000Y-107250000D03*
X69695000Y-107250000D03*
X69695000Y-106450000D03*
D22*
X69695000Y-105750000D03*
X69695000Y-104750000D03*
X69695000Y-103250000D03*
X69695000Y-102250000D03*
D21*
X69695000Y-101550000D03*
X69695000Y-100750000D03*
D23*
X68780000Y-99680000D03*
X68780000Y-108320000D03*
%TD*%
D15*
%TO.C,R44*%
X84087500Y-95700000D03*
X85912500Y-95700000D03*
%TD*%
%TO.C,R45*%
X88087500Y-95700000D03*
X89912500Y-95700000D03*
%TD*%
D24*
%TO.C,C8*%
X76050000Y-98000000D03*
X77950000Y-98000000D03*
%TD*%
%TO.C,C7*%
X80050000Y-98000000D03*
X81950000Y-98000000D03*
%TD*%
D25*
%TO.C,U2*%
X75062500Y-102500000D03*
X75062500Y-103000000D03*
X75062500Y-103500000D03*
X75062500Y-104000000D03*
X75062500Y-104500000D03*
D26*
X76000000Y-105437500D03*
X76500000Y-105437500D03*
X77000000Y-105437500D03*
X77500000Y-105437500D03*
X78000000Y-105437500D03*
D25*
X78937500Y-104500000D03*
X78937500Y-104000000D03*
X78937500Y-103500000D03*
X78937500Y-103000000D03*
X78937500Y-102500000D03*
D26*
X78000000Y-101562500D03*
X77500000Y-101562500D03*
X77000000Y-101562500D03*
X76500000Y-101562500D03*
X76000000Y-101562500D03*
D27*
X77000000Y-103500000D03*
%TD*%
D28*
%TO.C,R6*%
X69000000Y-111979500D03*
X69000000Y-110154500D03*
%TD*%
%TO.C,R7*%
X69000000Y-115490500D03*
X69000000Y-113665500D03*
%TD*%
D15*
%TO.C,R16*%
X73087500Y-112000000D03*
X74912500Y-112000000D03*
%TD*%
%TO.C,R17*%
X76587500Y-112000000D03*
X78412500Y-112000000D03*
%TD*%
%TO.C,R15*%
X80087500Y-112000000D03*
X81912500Y-112000000D03*
%TD*%
D29*
%TO.C,LED4*%
X76562500Y-118000000D03*
X78437500Y-118000000D03*
%TD*%
D15*
%TO.C,R8*%
X80087500Y-118000000D03*
X81912500Y-118000000D03*
%TD*%
D29*
%TO.C,LED3*%
X83562500Y-118000000D03*
X85437500Y-118000000D03*
%TD*%
D15*
%TO.C,R14*%
X87087500Y-118000000D03*
X88912500Y-118000000D03*
%TD*%
D30*
%TO.C,J10*%
X71000000Y-118750000D03*
D12*
X73000000Y-118750000D03*
%TD*%
D31*
%TO.C,R41*%
X76537500Y-122500000D03*
X79462500Y-122500000D03*
%TD*%
D32*
%TO.C,U3*%
X82850000Y-121500000D03*
X82850000Y-122000000D03*
X82850000Y-122500000D03*
X82850000Y-123000000D03*
X82850000Y-123500000D03*
X87150000Y-123500000D03*
X87150000Y-123000000D03*
X87150000Y-122500000D03*
X87150000Y-122000000D03*
X87150000Y-121500000D03*
%TD*%
D24*
%TO.C,C41*%
X90050000Y-122500000D03*
X91950000Y-122500000D03*
%TD*%
D15*
%TO.C,R42*%
X94087500Y-122500000D03*
X95912500Y-122500000D03*
%TD*%
%TO.C,R43*%
X97587500Y-122500000D03*
X99412500Y-122500000D03*
%TD*%
D13*
%TO.C,J12*%
X100090000Y-97500000D03*
D14*
X100090000Y-100040000D03*
X100090000Y-102580000D03*
X100090000Y-105120000D03*
X100090000Y-107660000D03*
X100090000Y-110200000D03*
X100090000Y-112740000D03*
%TD*%
D33*
%TO.C,U1*%
X91037500Y-100025000D03*
X91037500Y-100675000D03*
X91037500Y-101325000D03*
X91037500Y-101975000D03*
D34*
X92025000Y-102962500D03*
X92675000Y-102962500D03*
X93325000Y-102962500D03*
X93975000Y-102962500D03*
D33*
X94962500Y-101975000D03*
X94962500Y-101325000D03*
X94962500Y-100675000D03*
X94962500Y-100025000D03*
D34*
X93975000Y-99037500D03*
X93325000Y-99037500D03*
X92675000Y-99037500D03*
X92025000Y-99037500D03*
D35*
X93000000Y-101000000D03*
%TD*%
D36*
%TO.C,L1*%
X84500000Y-100000000D03*
X87500000Y-100000000D03*
%TD*%
D24*
%TO.C,C1*%
X83550000Y-105500000D03*
X85450000Y-105500000D03*
%TD*%
%TO.C,C4*%
X87050000Y-105500000D03*
X88950000Y-105500000D03*
%TD*%
D17*
%TO.C,C2*%
X91500000Y-106950000D03*
X91500000Y-105050000D03*
%TD*%
D37*
%TO.C,C6*%
X97022000Y-108475000D03*
X97022000Y-105525000D03*
%TD*%
%TO.C,C9*%
X103067000Y-108475000D03*
X103067000Y-105525000D03*
%TD*%
D28*
%TO.C,R3*%
X94865000Y-107912500D03*
X94865000Y-106087500D03*
%TD*%
%TO.C,R4*%
X96977000Y-111912500D03*
X96977000Y-110087500D03*
%TD*%
D15*
%TO.C,R1*%
X83113500Y-109500000D03*
X84938500Y-109500000D03*
%TD*%
%TO.C,R2*%
X86514500Y-109500000D03*
X88339500Y-109500000D03*
%TD*%
D28*
%TO.C,R13*%
X96956000Y-100912500D03*
X96956000Y-99087500D03*
%TD*%
D18*
%TO.C,Q1*%
X86062500Y-113050000D03*
X86062500Y-114950000D03*
X87937500Y-114000000D03*
%TD*%
D15*
%TO.C,R20*%
X90087500Y-114000000D03*
X91912500Y-114000000D03*
%TD*%
D29*
%TO.C,LED1*%
X93562500Y-114000000D03*
X95437500Y-114000000D03*
%TD*%
D15*
%TO.C,R5*%
X90022500Y-110500000D03*
X91847500Y-110500000D03*
%TD*%
D29*
%TO.C,LED2*%
X93397500Y-110500000D03*
X95272500Y-110500000D03*
%TD*%
M02*
