M48
; DRILL file KiCad 10.0.6 date 2026-09-13T18:37:30
; FORMAT={-:-/ absolute / metric / decimal}
; #@! TF.CreationDate,2026-09-13T18:37:30+09:00
; #@! TF.GenerationSoftware,Kicad,Pcbnew,10.0.6
; #@! TF.FileFunction,Plated,1,2,PTH
FMAT,2
METRIC
; #@! TA.AperFunction,Plated,PTH,ViaDrill
T1C0.300
; #@! TA.AperFunction,Plated,PTH,ViaDrill
T2C0.400
; #@! TA.AperFunction,Plated,PTH,ComponentDrill
T3C0.600
; #@! TA.AperFunction,Plated,PTH,ComponentDrill
T4C0.750
; #@! TA.AperFunction,Plated,PTH,ComponentDrill
T5C1.000
%
G90
G05
T1
X61.0Y-43.4
X61.0Y-53.0
X61.0Y-56.2
X61.0Y-65.8
X61.0Y-69.0
X61.0Y-72.2
X61.0Y-75.4
X61.0Y-78.6
X61.0Y-88.2
X61.0Y-91.4
X61.0Y-94.6
X61.0Y-97.8
X61.0Y-101.0
X61.0Y-104.2
X61.0Y-107.4
X61.0Y-110.6
X61.0Y-113.8
X61.0Y-117.0
X61.0Y-120.2
X64.2Y-43.4
X64.2Y-88.2
X64.2Y-91.4
X64.2Y-97.8
X64.2Y-101.0
X64.2Y-104.2
X64.2Y-110.6
X64.2Y-113.8
X64.2Y-120.2
X67.4Y-43.4
X67.4Y-46.6
X67.4Y-49.8
X67.4Y-53.0
X67.4Y-85.0
X67.4Y-88.2
X67.4Y-91.4
X67.4Y-113.8
X67.4Y-117.0
X67.4Y-120.2
X70.6Y-43.4
X70.6Y-46.6
X70.6Y-49.8
X70.6Y-85.0
X70.6Y-88.2
X70.6Y-91.4
X70.6Y-97.8
X70.6Y-120.2
X73.8Y-88.2
X73.8Y-91.4
X73.8Y-110.6
X73.8Y-113.8
X77.0Y-91.4
X77.0Y-110.6
X77.0Y-113.8
X80.2Y-49.8
X83.4Y-85.0
X83.4Y-94.6
X83.4Y-120.2
X86.6Y-75.4
X86.6Y-81.8
X86.6Y-85.0
X86.6Y-88.2
X86.6Y-91.4
X86.6Y-94.6
X86.6Y-117.0
X86.6Y-120.2
X89.8Y-113.8
X96.2Y-72.2
X96.2Y-117.0
X96.2Y-120.2
X99.4Y-59.4
X99.4Y-62.6
X99.4Y-65.8
X99.4Y-91.4
X99.4Y-101.0
X99.4Y-104.2
X99.4Y-120.2
X102.6Y-53.0
X102.6Y-56.2
X102.6Y-59.4
X102.6Y-62.6
X102.6Y-65.8
X102.6Y-69.0
X102.6Y-88.2
X102.6Y-113.8
X102.6Y-117.0
X102.6Y-120.2
T2
X64.342Y-69.715
X67.563Y-77.654
X67.935Y-61.677
X68.117Y-82.011
X68.639Y-73.57
X69.323Y-81.665
X69.844Y-74.957
X70.0Y-77.536
X70.725Y-73.74
X70.939Y-75.467
X71.362Y-69.597
X71.956Y-77.054
X71.997Y-67.043
X72.0Y-95.096
X72.268Y-62.834
X72.87Y-65.726
X73.057Y-49.751
X73.548Y-81.661
X73.61Y-62.335
X74.755Y-80.964
X74.756Y-80.008
X74.778Y-56.712
X74.945Y-59.252
X76.161Y-78.297
X76.591Y-60.668
X76.663Y-65.058
X76.983Y-67.01
X77.165Y-53.325
X77.754Y-54.095
X77.834Y-77.823
X79.136Y-77.981
X80.072Y-82.569
X80.187Y-74.513
X80.9Y-61.22
X81.123Y-89.15
X81.25Y-65.555
X81.278Y-53.144
X81.28Y-51.481
X81.525Y-87.545
X82.114Y-66.98
X82.114Y-69.079
X82.445Y-76.707
X82.445Y-80.753
X83.062Y-100.532
X83.234Y-65.186
X85.398Y-48.764
X86.425Y-48.829
X87.435Y-61.481
X88.748Y-74.405
X89.09Y-61.132
X89.325Y-69.079
X90.266Y-110.084
X90.28Y-55.395
X90.745Y-75.48
X90.745Y-87.295
X91.182Y-55.845
X91.834Y-64.909
X94.5Y-101.205
X96.666Y-54.372
X97.136Y-112.632
X97.428Y-105.548
X98.75Y-43.413
X99.902Y-111.447
X100.214Y-114.498
T4
X63.0Y-107.7
X65.0Y-107.7
X74.0Y-118.1
X76.0Y-118.1
X78.0Y-118.1
X80.0Y-118.1
X92.5Y-48.3
X94.5Y-48.3
X99.0Y-95.55
X101.0Y-95.55
X101.75Y-71.9
X101.75Y-73.9
X101.75Y-75.9
X101.75Y-77.9
T5
X69.4Y-103.06
X69.4Y-105.6
X69.4Y-108.14
X69.4Y-110.68
X69.4Y-113.22
X69.4Y-115.76
X69.4Y-118.3
X84.63Y-103.06
X84.63Y-105.6
X84.63Y-108.14
X84.63Y-110.68
X84.63Y-113.22
X84.63Y-115.76
X84.63Y-118.3
T3
X93.18Y-44.33G85X93.18Y-43.23
G05
X101.82Y-44.33G85X101.82Y-43.23
G05
M30
