M48
; DRILL file KiCad 10.0.6 date 2026-09-12T21:31:12
; FORMAT={-:-/ absolute / metric / decimal}
; #@! TF.CreationDate,2026-09-12T21:31:12+09:00
; #@! TF.GenerationSoftware,Kicad,Pcbnew,10.0.6
; #@! TF.FileFunction,Plated,1,2,PTH
FMAT,2
METRIC
; #@! TA.AperFunction,Plated,PTH,ViaDrill
T1C0.400
; #@! TA.AperFunction,Plated,PTH,ComponentDrill
T2C0.600
; #@! TA.AperFunction,Plated,PTH,ComponentDrill
T3C0.750
; #@! TA.AperFunction,Plated,PTH,ComponentDrill
T4C1.000
%
G90
G05
T1
X67.744Y-112.285
X68.407Y-102.65
X68.407Y-105.65
X70.267Y-110.919
X74.096Y-103.804
X74.276Y-101.965
X74.912Y-110.73
X75.062Y-105.181
X75.912Y-100.134
X76.637Y-110.36
X77.451Y-106.754
X77.754Y-109.568
X78.081Y-119.877
X79.912Y-102.334
X80.609Y-121.778
X80.811Y-103.623
X81.148Y-116.75
X81.572Y-123.1
X81.778Y-99.303
X81.912Y-110.685
X82.496Y-105.304
X83.008Y-95.815
X84.135Y-123.5
X86.016Y-120.934
X86.366Y-110.771
X86.513Y-108.235
X87.088Y-96.699
X88.125Y-120.816
X88.95Y-104.222
X93.425Y-107.914
X94.092Y-103.942
X94.481Y-98.174
X94.707Y-103.092
X95.912Y-121.244
X95.954Y-107.007
X97.985Y-98.107
X98.088Y-111.008
X99.208Y-76.923
X99.412Y-121.206
X114.672Y-53.062
X114.981Y-61.88
X114.995Y-60.316
X116.407Y-85.063
X117.064Y-77.936
X118.21Y-67.377
T3
X71.0Y-118.75
X73.0Y-118.75
X128.02Y-53.3
X128.02Y-63.46
X130.02Y-53.3
X130.02Y-63.46
T4
X66.52Y-48.22
X66.52Y-50.76
X69.06Y-66.0
X69.06Y-68.54
X69.06Y-71.08
X69.06Y-73.62
X81.76Y-43.14
X81.76Y-88.86
X84.3Y-43.14
X84.3Y-78.7
X84.3Y-88.86
X86.84Y-43.14
X86.84Y-78.7
X86.84Y-88.86
X89.38Y-43.14
X89.38Y-78.7
X89.38Y-88.86
X91.92Y-43.14
X91.92Y-78.7
X91.92Y-88.86
X94.46Y-43.14
X94.46Y-88.86
X97.0Y-43.14
X97.0Y-88.86
X100.09Y-97.5
X100.09Y-100.04
X100.09Y-102.58
X100.09Y-105.12
X100.09Y-107.66
X100.09Y-110.2
X100.09Y-112.74
X102.08Y-43.14
X104.62Y-43.14
X109.7Y-43.14
X112.24Y-43.14
T2
X69.33Y-99.68G85X68.23Y-99.68
G05
X69.33Y-108.32G85X68.23Y-108.32
G05
M30
