%TF.GenerationSoftware,KiCad,Pcbnew,10.0.6*%
%TF.CreationDate,2026-09-12T21:31:12+09:00*%
%TF.ProjectId,hub_power,6875625f-706f-4776-9572-2e6b69636164,rev?*%
%TF.SameCoordinates,Original*%
%TF.FileFunction,Copper,L2,Bot*%
%TF.FilePolarity,Positive*%
%FSLAX46Y46*%
G04 Gerber Fmt 4.6, Leading zero omitted, Abs format (unit mm)*
G04 Created by KiCad (PCBNEW 10.0.6) date 2026-09-12 21:31:12*
%MOMM*%
%LPD*%
G01*
G04 APERTURE LIST*
G04 Aperture macros list*
%AMRoundRect*
0 Rectangle with rounded corners*
0 $1 Rounding radius*
0 $2 $3 $4 $5 $6 $7 $8 $9 X,Y pos of 4 corners*
0 Add a 4 corners polygon primitive as box body*
4,1,4,$2,$3,$4,$5,$6,$7,$8,$9,$2,$3,0*
0 Add four circle primitives for the rounded corners*
1,1,$1+$1,$2,$3*
1,1,$1+$1,$4,$5*
1,1,$1+$1,$6,$7*
1,1,$1+$1,$8,$9*
0 Add four rect primitives between the rounded corners*
20,1,$1+$1,$2,$3,$4,$5,0*
20,1,$1+$1,$4,$5,$6,$7,0*
20,1,$1+$1,$6,$7,$8,$9,0*
20,1,$1+$1,$8,$9,$2,$3,0*%
G04 Aperture macros list end*
%TA.AperFunction,ComponentPad*%
%ADD10RoundRect,0.250000X0.350000X0.625000X-0.350000X0.625000X-0.350000X-0.625000X0.350000X-0.625000X0*%
%TD*%
%TA.AperFunction,ComponentPad*%
%ADD11O,1.200000X1.750000*%
%TD*%
%TA.AperFunction,ComponentPad*%
%ADD12R,1.700000X1.700000*%
%TD*%
%TA.AperFunction,ComponentPad*%
%ADD13C,1.700000*%
%TD*%
%TA.AperFunction,ComponentPad*%
%ADD14O,2.100000X1.000000*%
%TD*%
%TA.AperFunction,ComponentPad*%
%ADD15RoundRect,0.250000X-0.350000X-0.625000X0.350000X-0.625000X0.350000X0.625000X-0.350000X0.625000X0*%
%TD*%
%TA.AperFunction,ViaPad*%
%ADD16C,0.800000*%
%TD*%
%TA.AperFunction,Conductor*%
%ADD17C,0.200000*%
%TD*%
G04 APERTURE END LIST*
D10*
%TO.P,J4,1*%
%TO.N,SPKP*%
X130020000Y-63460000D03*
D11*
%TO.P,J4,2*%
%TO.N,SPKM*%
X128020000Y-63460000D03*
%TD*%
D10*
%TO.P,J5,1*%
%TO.N,SPKM*%
X130020000Y-53300000D03*
D11*
%TO.P,J5,2*%
%TO.N,SPKO*%
X128020000Y-53300000D03*
%TD*%
D12*
%TO.P,J1,1*%
%TO.N,BTN*%
X81760000Y-88860000D03*
D13*
%TO.P,J1,2*%
%TO.N,SDA*%
X84300000Y-88860000D03*
%TO.P,J1,3*%
%TO.N,SCL*%
X86840000Y-88860000D03*
%TO.P,J1,4*%
%TO.N,V33*%
X89380000Y-88860000D03*
%TO.P,J1,5*%
%TO.N,GND*%
X91920000Y-88860000D03*
%TO.P,J1,6*%
%TO.N,IN*%
X94460000Y-88860000D03*
%TO.P,J1,7*%
%TO.N,V5*%
X97000000Y-88860000D03*
%TD*%
D12*
%TO.P,J3,1*%
%TO.N,SDA*%
X84300000Y-78700000D03*
D13*
%TO.P,J3,2*%
%TO.N,SCL*%
X86840000Y-78700000D03*
%TO.P,J3,3*%
%TO.N,V33*%
X89380000Y-78700000D03*
%TO.P,J3,4*%
%TO.N,GND*%
X91920000Y-78700000D03*
%TD*%
D12*
%TO.P,J2,1*%
%TO.N,GND*%
X69060000Y-73620000D03*
D13*
%TO.P,J2,2*%
%TO.N,V33*%
X69060000Y-71080000D03*
%TO.P,J2,3*%
%TO.N,SCL*%
X69060000Y-68540000D03*
%TO.P,J2,4*%
%TO.N,SDA*%
X69060000Y-66000000D03*
%TD*%
D12*
%TO.P,J6,1*%
%TO.N,GND*%
X109700000Y-43140000D03*
D13*
%TO.P,J6,2*%
%TO.N,EN*%
X112240000Y-43140000D03*
%TD*%
D12*
%TO.P,J7,1*%
%TO.N,EN*%
X102080000Y-43140000D03*
D13*
%TO.P,J7,2*%
%TO.N,GND*%
X104620000Y-43140000D03*
%TD*%
D12*
%TO.P,J8,1*%
%TO.N,GND*%
X66520000Y-50760000D03*
D13*
%TO.P,J8,2*%
%TO.N,BTN*%
X66520000Y-48220000D03*
%TD*%
D12*
%TO.P,J11,1*%
%TO.N,V5*%
X81760000Y-43140000D03*
D13*
%TO.P,J11,2*%
%TO.N,unconnected-(J11-Pin_2-Pad2)*%
X84300000Y-43140000D03*
%TO.P,J11,3*%
%TO.N,GND*%
X86840000Y-43140000D03*
%TO.P,J11,4*%
%TO.N,V33*%
X89380000Y-43140000D03*
%TO.P,J11,5*%
%TO.N,SDA*%
X91920000Y-43140000D03*
%TO.P,J11,6*%
%TO.N,SCL*%
X94460000Y-43140000D03*
%TO.P,J11,7*%
%TO.N,EN*%
X97000000Y-43140000D03*
%TD*%
D14*
%TO.P,J13,SH*%
%TO.N,GNDP*%
X68780000Y-99680000D03*
X68780000Y-108320000D03*
%TD*%
D15*
%TO.P,J10,1*%
%TO.N,GNDP*%
X71000000Y-118750000D03*
D11*
%TO.P,J10,2*%
%TO.N,BATP*%
X73000000Y-118750000D03*
%TD*%
D12*
%TO.P,J12,1*%
%TO.N,V5P*%
X100090000Y-97500000D03*
D13*
%TO.P,J12,2*%
%TO.N,unconnected-(J12-Pin_2-Pad2)*%
X100090000Y-100040000D03*
%TO.P,J12,3*%
%TO.N,GNDP*%
X100090000Y-102580000D03*
%TO.P,J12,4*%
%TO.N,V33P*%
X100090000Y-105120000D03*
%TO.P,J12,5*%
%TO.N,SDAP*%
X100090000Y-107660000D03*
%TO.P,J12,6*%
%TO.N,SCLP*%
X100090000Y-110200000D03*
%TO.P,J12,7*%
%TO.N,ENP*%
X100090000Y-112740000D03*
%TD*%
D16*
%TO.N,BATP*%
X86016100Y-120933700D03*
%TO.N,CC1*%
X83008200Y-95814600D03*
X68407200Y-102650200D03*
%TO.N,CC2*%
X87088500Y-96699000D03*
X68407200Y-105650200D03*
%TO.N,FB*%
X94481500Y-98173800D03*
X98088500Y-111008400D03*
X95953800Y-107006800D03*
%TO.N,GND*%
X117064400Y-77935900D03*
%TO.N,GNDP*%
X81778400Y-99303300D03*
X88950000Y-104221600D03*
X77753800Y-109568400D03*
%TO.N,IN*%
X116407500Y-85063300D03*
%TO.N,LBI*%
X94707500Y-103092400D03*
X86513300Y-108234700D03*
%TO.N,LBO*%
X97984800Y-98107200D03*
X86366300Y-110771300D03*
%TO.N,PROG1*%
X74912500Y-110730300D03*
X80811300Y-103623200D03*
%TO.N,SCLP*%
X99412500Y-121206200D03*
X84135200Y-123500000D03*
%TO.N,SDAP*%
X95912500Y-121243900D03*
X81572400Y-123099800D03*
%TO.N,SPKO*%
X114981300Y-61880400D03*
%TO.N,SPKP*%
X114994900Y-60316000D03*
%TO.N,STAT1*%
X76637400Y-110359900D03*
X81148300Y-116750300D03*
%TO.N,THERM*%
X81912500Y-110685100D03*
X75062500Y-105181100D03*
%TO.N,V5*%
X99208300Y-76923400D03*
X118210000Y-67376700D03*
X114671700Y-53062400D03*
%TO.N,V5P*%
X93425500Y-107913700D03*
%TO.N,VBUS*%
X77451000Y-106754000D03*
X74095700Y-103804200D03*
X67743600Y-112284700D03*
X78081200Y-119876700D03*
%TO.N,VLIPO*%
X80608600Y-121778200D03*
X79911600Y-102334500D03*
X88125200Y-120816100D03*
%TO.N,VPCC*%
X74276000Y-101965300D03*
X70267000Y-110919200D03*
%TO.N,VSYS*%
X94092400Y-103941800D03*
X82496500Y-105304400D03*
X75912400Y-100134100D03*
%TD*%
%TO.N,BATP*%
D17*
X73000000Y-118750000D02*
X73851700Y-118750000D01*
X86016100Y-120933700D02*
X83832400Y-118750000D01*
X83832400Y-118750000D02*
X73851700Y-118750000D01*
%TO.N,CC1*%
X83008200Y-95814600D02*
X75242800Y-95814600D01*
X75242800Y-95814600D02*
X68407200Y-102650200D01*
%TO.N,CC2*%
X68407200Y-105650200D02*
X77358400Y-96699000D01*
X77358400Y-96699000D02*
X87088500Y-96699000D01*
%TO.N,EN*%
X102080000Y-43140000D02*
X103181700Y-43140000D01*
X103181700Y-43140000D02*
X103181700Y-43002200D01*
X103181700Y-43002200D02*
X104145600Y-42038300D01*
X104145600Y-42038300D02*
X111138300Y-42038300D01*
X111138300Y-42038300D02*
X112240000Y-43140000D01*
X97000000Y-43140000D02*
X102080000Y-43140000D01*
%TO.N,FB*%
X95953800Y-108573600D02*
X95953800Y-108873700D01*
X95953800Y-108873700D02*
X98088500Y-111008400D01*
X95953800Y-107006800D02*
X95953800Y-108573600D01*
X95953800Y-108573600D02*
X93161200Y-108573600D01*
X93161200Y-108573600D02*
X92773600Y-108186000D01*
X92773600Y-108186000D02*
X92773600Y-107643700D01*
X92773600Y-107643700D02*
X98605700Y-101811600D01*
X98605700Y-101811600D02*
X98605700Y-98408000D01*
X98605700Y-98408000D02*
X98689600Y-98324100D01*
X98689600Y-98324100D02*
X98689600Y-97840200D01*
X98689600Y-97840200D02*
X98266100Y-97416700D01*
X98266100Y-97416700D02*
X95238600Y-97416700D01*
X95238600Y-97416700D02*
X94481500Y-98173800D01*
%TO.N,GND*%
X66520000Y-50760000D02*
X67621700Y-50760000D01*
X67621700Y-50760000D02*
X76393900Y-41987800D01*
X76393900Y-41987800D02*
X85687800Y-41987800D01*
X85687800Y-41987800D02*
X86840000Y-43140000D01*
X104620000Y-43140000D02*
X109700000Y-43140000D01*
X86840000Y-43140000D02*
X87941700Y-44241700D01*
X87941700Y-44241700D02*
X103518300Y-44241700D01*
X103518300Y-44241700D02*
X104620000Y-43140000D01*
X117064400Y-77935900D02*
X92684100Y-77935900D01*
X92684100Y-77935900D02*
X91920000Y-78700000D01*
%TO.N,GNDP*%
X68780000Y-108320000D02*
X76505400Y-108320000D01*
X76505400Y-108320000D02*
X77753800Y-109568400D01*
X81778400Y-99303300D02*
X84031700Y-99303300D01*
X84031700Y-99303300D02*
X88950000Y-104221600D01*
%TO.N,IN*%
X116407500Y-85063300D02*
X98256700Y-85063300D01*
X98256700Y-85063300D02*
X94460000Y-88860000D01*
%TO.N,LBI*%
X94707500Y-103092400D02*
X91655600Y-103092400D01*
X91655600Y-103092400D02*
X86513300Y-108234700D01*
%TO.N,LBO*%
X86366300Y-110771300D02*
X88483600Y-110771300D01*
X88483600Y-110771300D02*
X97984800Y-101270100D01*
X97984800Y-101270100D02*
X97984800Y-98107200D01*
%TO.N,PROG1*%
X80811300Y-103623200D02*
X81789800Y-103623200D01*
X81789800Y-103623200D02*
X83153300Y-104986700D01*
X83153300Y-104986700D02*
X83153300Y-110401600D01*
X83153300Y-110401600D02*
X82160300Y-111394600D01*
X82160300Y-111394600D02*
X75576800Y-111394600D01*
X75576800Y-111394600D02*
X74912500Y-110730300D01*
%TO.N,SCL*%
X86840000Y-78700000D02*
X85738300Y-79801700D01*
X85738300Y-79801700D02*
X80321700Y-79801700D01*
X80321700Y-79801700D02*
X69060000Y-68540000D01*
%TO.N,SCLP*%
X99412500Y-121206200D02*
X97118700Y-123500000D01*
X97118700Y-123500000D02*
X84135200Y-123500000D01*
%TO.N,SDA*%
X84300000Y-78700000D02*
X83198300Y-78700000D01*
X69060000Y-66000000D02*
X70498300Y-66000000D01*
X70498300Y-66000000D02*
X83198300Y-78700000D01*
%TO.N,SDAP*%
X95912500Y-121243900D02*
X98740500Y-118415900D01*
X98740500Y-118415900D02*
X98740500Y-109010600D01*
X98740500Y-109010600D02*
X100091100Y-107660000D01*
X81572400Y-123099800D02*
X82361300Y-122310900D01*
X82361300Y-122310900D02*
X94845600Y-122310900D01*
X94845600Y-122310900D02*
X94845600Y-122310800D01*
X94845600Y-122310800D02*
X95912500Y-121243900D01*
%TO.N,SPKO*%
X128020000Y-53300000D02*
X127168300Y-53300000D01*
X114981300Y-61880400D02*
X118587900Y-61880400D01*
X118587900Y-61880400D02*
X127168300Y-53300000D01*
%TO.N,SPKP*%
X129168300Y-63460000D02*
X129168300Y-62714800D01*
X129168300Y-62714800D02*
X128786800Y-62333300D01*
X128786800Y-62333300D02*
X118630300Y-62333300D01*
X118630300Y-62333300D02*
X118386600Y-62577000D01*
X118386600Y-62577000D02*
X114719900Y-62577000D01*
X114719900Y-62577000D02*
X114328900Y-62186000D01*
X114328900Y-62186000D02*
X114328900Y-60982000D01*
X114328900Y-60982000D02*
X114994900Y-60316000D01*
X130020000Y-63460000D02*
X129168300Y-63460000D01*
%TO.N,STAT1*%
X81148300Y-116750300D02*
X80009400Y-116750300D01*
X80009400Y-116750300D02*
X74229800Y-110970700D01*
X74229800Y-110970700D02*
X74229800Y-110445800D01*
X74229800Y-110445800D02*
X74597100Y-110078500D01*
X74597100Y-110078500D02*
X76356000Y-110078500D01*
X76356000Y-110078500D02*
X76637400Y-110359900D01*
%TO.N,THERM*%
X81912500Y-110685100D02*
X81912500Y-110293900D01*
X81912500Y-110293900D02*
X76799700Y-105181100D01*
X76799700Y-105181100D02*
X75062500Y-105181100D01*
%TO.N,V33*%
X69060000Y-71080000D02*
X78146500Y-80166500D01*
X78146500Y-80166500D02*
X87913500Y-80166500D01*
X87913500Y-80166500D02*
X89380000Y-78700000D01*
%TO.N,V5*%
X81760000Y-43140000D02*
X82861700Y-43140000D01*
X82861700Y-43140000D02*
X82861700Y-43277700D01*
X82861700Y-43277700D02*
X87649100Y-48065100D01*
X87649100Y-48065100D02*
X109674400Y-48065100D01*
X109674400Y-48065100D02*
X114671700Y-53062400D01*
X118210000Y-67376700D02*
X108755000Y-67376700D01*
X108755000Y-67376700D02*
X99208300Y-76923400D01*
%TO.N,V5P*%
X100091100Y-98601700D02*
X99953300Y-98601700D01*
X99953300Y-98601700D02*
X98989400Y-99565600D01*
X98989400Y-99565600D02*
X98989400Y-102349800D01*
X98989400Y-102349800D02*
X93425500Y-107913700D01*
X100091100Y-97500000D02*
X100091100Y-98601700D01*
%TO.N,VBUS*%
X74095700Y-103804200D02*
X74095700Y-105187800D01*
X74095700Y-105187800D02*
X75661900Y-106754000D01*
X75661900Y-106754000D02*
X77451000Y-106754000D01*
X67743600Y-112284700D02*
X72148300Y-116689400D01*
X72148300Y-116689400D02*
X72148300Y-119729300D01*
X72148300Y-119729300D02*
X72295700Y-119876700D01*
X72295700Y-119876700D02*
X78081200Y-119876700D01*
%TO.N,VLIPO*%
X88125200Y-120816100D02*
X83505000Y-116195900D01*
X83505000Y-116195900D02*
X83505000Y-104831600D01*
X83505000Y-104831600D02*
X81007900Y-102334500D01*
X81007900Y-102334500D02*
X79911600Y-102334500D01*
X88125200Y-120816100D02*
X87163100Y-121778200D01*
X87163100Y-121778200D02*
X80608600Y-121778200D01*
%TO.N,VPCC*%
X74276000Y-101965300D02*
X73443900Y-102797400D01*
X73443900Y-102797400D02*
X73443900Y-105033300D01*
X73443900Y-105033300D02*
X75531800Y-107121200D01*
X75531800Y-107121200D02*
X76240100Y-107121200D01*
X76240100Y-107121200D02*
X78457200Y-109338300D01*
X78457200Y-109338300D02*
X78457200Y-109792400D01*
X78457200Y-109792400D02*
X78015000Y-110234600D01*
X78015000Y-110234600D02*
X77433700Y-110234600D01*
X77433700Y-110234600D02*
X76907300Y-109708200D01*
X76907300Y-109708200D02*
X71478000Y-109708200D01*
X71478000Y-109708200D02*
X70267000Y-110919200D01*
%TO.N,VSYS*%
X75912400Y-100134100D02*
X77420500Y-98626000D01*
X77420500Y-98626000D02*
X91185700Y-98626000D01*
X91185700Y-98626000D02*
X95387300Y-102827600D01*
X95387300Y-102827600D02*
X95387300Y-103358500D01*
X95387300Y-103358500D02*
X94804000Y-103941800D01*
X94804000Y-103941800D02*
X94092400Y-103941800D01*
X82496500Y-105304400D02*
X81082700Y-105304400D01*
X81082700Y-105304400D02*
X75912400Y-100134100D01*
%TD*%
M02*
