%TF.GenerationSoftware,KiCad,Pcbnew,10.0.6*%
%TF.CreationDate,2026-09-13T18:37:29+09:00*%
%TF.ProjectId,hub_power,6875625f-706f-4776-9572-2e6b69636164,rev?*%
%TF.SameCoordinates,Original*%
%TF.FileFunction,Legend,Top*%
%TF.FilePolarity,Positive*%
%FSLAX46Y46*%
G04 Gerber Fmt 4.6, Leading zero omitted, Abs format (unit mm)*
G04 Created by KiCad (PCBNEW 10.0.6) date 2026-09-13 18:37:29*
%MOMM*%
%LPD*%
G01*
G04 APERTURE LIST*
%ADD10C,0.120000*%
G04 APERTURE END LIST*
D10*
X85796714Y-48063855D02*
X85530047Y-47682902D01*
X85339571Y-48063855D02*
X85339571Y-47263855D01*
X85339571Y-47263855D02*
X85644333Y-47263855D01*
X85644333Y-47263855D02*
X85720523Y-47301950D01*
X85720523Y-47301950D02*
X85758618Y-47340045D01*
X85758618Y-47340045D02*
X85796714Y-47416236D01*
X85796714Y-47416236D02*
X85796714Y-47530521D01*
X85796714Y-47530521D02*
X85758618Y-47606712D01*
X85758618Y-47606712D02*
X85720523Y-47644807D01*
X85720523Y-47644807D02*
X85644333Y-47682902D01*
X85644333Y-47682902D02*
X85339571Y-47682902D01*
X86482428Y-47530521D02*
X86482428Y-48063855D01*
X86291952Y-47225760D02*
X86101475Y-47797188D01*
X86101475Y-47797188D02*
X86596714Y-47797188D01*
X87244333Y-47530521D02*
X87244333Y-48063855D01*
X87053857Y-47225760D02*
X86863380Y-47797188D01*
X86863380Y-47797188D02*
X87358619Y-47797188D01*
X82425714Y-48063855D02*
X82159047Y-47682902D01*
X81968571Y-48063855D02*
X81968571Y-47263855D01*
X81968571Y-47263855D02*
X82273333Y-47263855D01*
X82273333Y-47263855D02*
X82349523Y-47301950D01*
X82349523Y-47301950D02*
X82387618Y-47340045D01*
X82387618Y-47340045D02*
X82425714Y-47416236D01*
X82425714Y-47416236D02*
X82425714Y-47530521D01*
X82425714Y-47530521D02*
X82387618Y-47606712D01*
X82387618Y-47606712D02*
X82349523Y-47644807D01*
X82349523Y-47644807D02*
X82273333Y-47682902D01*
X82273333Y-47682902D02*
X81968571Y-47682902D01*
X83111428Y-47530521D02*
X83111428Y-48063855D01*
X82920952Y-47225760D02*
X82730475Y-47797188D01*
X82730475Y-47797188D02*
X83225714Y-47797188D01*
X83911428Y-47263855D02*
X83530476Y-47263855D01*
X83530476Y-47263855D02*
X83492380Y-47644807D01*
X83492380Y-47644807D02*
X83530476Y-47606712D01*
X83530476Y-47606712D02*
X83606666Y-47568617D01*
X83606666Y-47568617D02*
X83797142Y-47568617D01*
X83797142Y-47568617D02*
X83873333Y-47606712D01*
X83873333Y-47606712D02*
X83911428Y-47644807D01*
X83911428Y-47644807D02*
X83949523Y-47720998D01*
X83949523Y-47720998D02*
X83949523Y-47911474D01*
X83949523Y-47911474D02*
X83911428Y-47987664D01*
X83911428Y-47987664D02*
X83873333Y-48025760D01*
X83873333Y-48025760D02*
X83797142Y-48063855D01*
X83797142Y-48063855D02*
X83606666Y-48063855D01*
X83606666Y-48063855D02*
X83530476Y-48025760D01*
X83530476Y-48025760D02*
X83492380Y-47987664D01*
X65484667Y-80147664D02*
X65446571Y-80185760D01*
X65446571Y-80185760D02*
X65332286Y-80223855D01*
X65332286Y-80223855D02*
X65256095Y-80223855D01*
X65256095Y-80223855D02*
X65141809Y-80185760D01*
X65141809Y-80185760D02*
X65065619Y-80109569D01*
X65065619Y-80109569D02*
X65027524Y-80033379D01*
X65027524Y-80033379D02*
X64989428Y-79880998D01*
X64989428Y-79880998D02*
X64989428Y-79766712D01*
X64989428Y-79766712D02*
X65027524Y-79614331D01*
X65027524Y-79614331D02*
X65065619Y-79538140D01*
X65065619Y-79538140D02*
X65141809Y-79461950D01*
X65141809Y-79461950D02*
X65256095Y-79423855D01*
X65256095Y-79423855D02*
X65332286Y-79423855D01*
X65332286Y-79423855D02*
X65446571Y-79461950D01*
X65446571Y-79461950D02*
X65484667Y-79500045D01*
X65941809Y-79766712D02*
X65865619Y-79728617D01*
X65865619Y-79728617D02*
X65827524Y-79690521D01*
X65827524Y-79690521D02*
X65789428Y-79614331D01*
X65789428Y-79614331D02*
X65789428Y-79576236D01*
X65789428Y-79576236D02*
X65827524Y-79500045D01*
X65827524Y-79500045D02*
X65865619Y-79461950D01*
X65865619Y-79461950D02*
X65941809Y-79423855D01*
X65941809Y-79423855D02*
X66094190Y-79423855D01*
X66094190Y-79423855D02*
X66170381Y-79461950D01*
X66170381Y-79461950D02*
X66208476Y-79500045D01*
X66208476Y-79500045D02*
X66246571Y-79576236D01*
X66246571Y-79576236D02*
X66246571Y-79614331D01*
X66246571Y-79614331D02*
X66208476Y-79690521D01*
X66208476Y-79690521D02*
X66170381Y-79728617D01*
X66170381Y-79728617D02*
X66094190Y-79766712D01*
X66094190Y-79766712D02*
X65941809Y-79766712D01*
X65941809Y-79766712D02*
X65865619Y-79804807D01*
X65865619Y-79804807D02*
X65827524Y-79842902D01*
X65827524Y-79842902D02*
X65789428Y-79919093D01*
X65789428Y-79919093D02*
X65789428Y-80071474D01*
X65789428Y-80071474D02*
X65827524Y-80147664D01*
X65827524Y-80147664D02*
X65865619Y-80185760D01*
X65865619Y-80185760D02*
X65941809Y-80223855D01*
X65941809Y-80223855D02*
X66094190Y-80223855D01*
X66094190Y-80223855D02*
X66170381Y-80185760D01*
X66170381Y-80185760D02*
X66208476Y-80147664D01*
X66208476Y-80147664D02*
X66246571Y-80071474D01*
X66246571Y-80071474D02*
X66246571Y-79919093D01*
X66246571Y-79919093D02*
X66208476Y-79842902D01*
X66208476Y-79842902D02*
X66170381Y-79804807D01*
X66170381Y-79804807D02*
X66094190Y-79766712D01*
X62886667Y-74867664D02*
X62848571Y-74905760D01*
X62848571Y-74905760D02*
X62734286Y-74943855D01*
X62734286Y-74943855D02*
X62658095Y-74943855D01*
X62658095Y-74943855D02*
X62543809Y-74905760D01*
X62543809Y-74905760D02*
X62467619Y-74829569D01*
X62467619Y-74829569D02*
X62429524Y-74753379D01*
X62429524Y-74753379D02*
X62391428Y-74600998D01*
X62391428Y-74600998D02*
X62391428Y-74486712D01*
X62391428Y-74486712D02*
X62429524Y-74334331D01*
X62429524Y-74334331D02*
X62467619Y-74258140D01*
X62467619Y-74258140D02*
X62543809Y-74181950D01*
X62543809Y-74181950D02*
X62658095Y-74143855D01*
X62658095Y-74143855D02*
X62734286Y-74143855D01*
X62734286Y-74143855D02*
X62848571Y-74181950D01*
X62848571Y-74181950D02*
X62886667Y-74220045D01*
X63153333Y-74143855D02*
X63686667Y-74143855D01*
X63686667Y-74143855D02*
X63343809Y-74943855D01*
X68737476Y-79533855D02*
X68737476Y-80181474D01*
X68737476Y-80181474D02*
X68775571Y-80257664D01*
X68775571Y-80257664D02*
X68813666Y-80295760D01*
X68813666Y-80295760D02*
X68889857Y-80333855D01*
X68889857Y-80333855D02*
X69042238Y-80333855D01*
X69042238Y-80333855D02*
X69118428Y-80295760D01*
X69118428Y-80295760D02*
X69156523Y-80257664D01*
X69156523Y-80257664D02*
X69194619Y-80181474D01*
X69194619Y-80181474D02*
X69194619Y-79533855D01*
X69537475Y-79610045D02*
X69575571Y-79571950D01*
X69575571Y-79571950D02*
X69651761Y-79533855D01*
X69651761Y-79533855D02*
X69842237Y-79533855D01*
X69842237Y-79533855D02*
X69918428Y-79571950D01*
X69918428Y-79571950D02*
X69956523Y-79610045D01*
X69956523Y-79610045D02*
X69994618Y-79686236D01*
X69994618Y-79686236D02*
X69994618Y-79762426D01*
X69994618Y-79762426D02*
X69956523Y-79876712D01*
X69956523Y-79876712D02*
X69499380Y-80333855D01*
X69499380Y-80333855D02*
X69994618Y-80333855D01*
X80076667Y-93283855D02*
X79810000Y-92902902D01*
X79619524Y-93283855D02*
X79619524Y-92483855D01*
X79619524Y-92483855D02*
X79924286Y-92483855D01*
X79924286Y-92483855D02*
X80000476Y-92521950D01*
X80000476Y-92521950D02*
X80038571Y-92560045D01*
X80038571Y-92560045D02*
X80076667Y-92636236D01*
X80076667Y-92636236D02*
X80076667Y-92750521D01*
X80076667Y-92750521D02*
X80038571Y-92826712D01*
X80038571Y-92826712D02*
X80000476Y-92864807D01*
X80000476Y-92864807D02*
X79924286Y-92902902D01*
X79924286Y-92902902D02*
X79619524Y-92902902D01*
X80762381Y-92483855D02*
X80610000Y-92483855D01*
X80610000Y-92483855D02*
X80533809Y-92521950D01*
X80533809Y-92521950D02*
X80495714Y-92560045D01*
X80495714Y-92560045D02*
X80419524Y-92674331D01*
X80419524Y-92674331D02*
X80381428Y-92826712D01*
X80381428Y-92826712D02*
X80381428Y-93131474D01*
X80381428Y-93131474D02*
X80419524Y-93207664D01*
X80419524Y-93207664D02*
X80457619Y-93245760D01*
X80457619Y-93245760D02*
X80533809Y-93283855D01*
X80533809Y-93283855D02*
X80686190Y-93283855D01*
X80686190Y-93283855D02*
X80762381Y-93245760D01*
X80762381Y-93245760D02*
X80800476Y-93207664D01*
X80800476Y-93207664D02*
X80838571Y-93131474D01*
X80838571Y-93131474D02*
X80838571Y-92940998D01*
X80838571Y-92940998D02*
X80800476Y-92864807D01*
X80800476Y-92864807D02*
X80762381Y-92826712D01*
X80762381Y-92826712D02*
X80686190Y-92788617D01*
X80686190Y-92788617D02*
X80533809Y-92788617D01*
X80533809Y-92788617D02*
X80457619Y-92826712D01*
X80457619Y-92826712D02*
X80419524Y-92864807D01*
X80419524Y-92864807D02*
X80381428Y-92940998D01*
X83466667Y-93283855D02*
X83200000Y-92902902D01*
X83009524Y-93283855D02*
X83009524Y-92483855D01*
X83009524Y-92483855D02*
X83314286Y-92483855D01*
X83314286Y-92483855D02*
X83390476Y-92521950D01*
X83390476Y-92521950D02*
X83428571Y-92560045D01*
X83428571Y-92560045D02*
X83466667Y-92636236D01*
X83466667Y-92636236D02*
X83466667Y-92750521D01*
X83466667Y-92750521D02*
X83428571Y-92826712D01*
X83428571Y-92826712D02*
X83390476Y-92864807D01*
X83390476Y-92864807D02*
X83314286Y-92902902D01*
X83314286Y-92902902D02*
X83009524Y-92902902D01*
X83733333Y-92483855D02*
X84266667Y-92483855D01*
X84266667Y-92483855D02*
X83923809Y-93283855D01*
X78325714Y-84183855D02*
X78059047Y-83802902D01*
X77868571Y-84183855D02*
X77868571Y-83383855D01*
X77868571Y-83383855D02*
X78173333Y-83383855D01*
X78173333Y-83383855D02*
X78249523Y-83421950D01*
X78249523Y-83421950D02*
X78287618Y-83460045D01*
X78287618Y-83460045D02*
X78325714Y-83536236D01*
X78325714Y-83536236D02*
X78325714Y-83650521D01*
X78325714Y-83650521D02*
X78287618Y-83726712D01*
X78287618Y-83726712D02*
X78249523Y-83764807D01*
X78249523Y-83764807D02*
X78173333Y-83802902D01*
X78173333Y-83802902D02*
X77868571Y-83802902D01*
X79087618Y-84183855D02*
X78630475Y-84183855D01*
X78859047Y-84183855D02*
X78859047Y-83383855D01*
X78859047Y-83383855D02*
X78782856Y-83498140D01*
X78782856Y-83498140D02*
X78706666Y-83574331D01*
X78706666Y-83574331D02*
X78630475Y-83612426D01*
X79773333Y-83383855D02*
X79620952Y-83383855D01*
X79620952Y-83383855D02*
X79544761Y-83421950D01*
X79544761Y-83421950D02*
X79506666Y-83460045D01*
X79506666Y-83460045D02*
X79430476Y-83574331D01*
X79430476Y-83574331D02*
X79392380Y-83726712D01*
X79392380Y-83726712D02*
X79392380Y-84031474D01*
X79392380Y-84031474D02*
X79430476Y-84107664D01*
X79430476Y-84107664D02*
X79468571Y-84145760D01*
X79468571Y-84145760D02*
X79544761Y-84183855D01*
X79544761Y-84183855D02*
X79697142Y-84183855D01*
X79697142Y-84183855D02*
X79773333Y-84145760D01*
X79773333Y-84145760D02*
X79811428Y-84107664D01*
X79811428Y-84107664D02*
X79849523Y-84031474D01*
X79849523Y-84031474D02*
X79849523Y-83840998D01*
X79849523Y-83840998D02*
X79811428Y-83764807D01*
X79811428Y-83764807D02*
X79773333Y-83726712D01*
X79773333Y-83726712D02*
X79697142Y-83688617D01*
X79697142Y-83688617D02*
X79544761Y-83688617D01*
X79544761Y-83688617D02*
X79468571Y-83726712D01*
X79468571Y-83726712D02*
X79430476Y-83764807D01*
X79430476Y-83764807D02*
X79392380Y-83840998D01*
X77380714Y-79563855D02*
X77114047Y-79182902D01*
X76923571Y-79563855D02*
X76923571Y-78763855D01*
X76923571Y-78763855D02*
X77228333Y-78763855D01*
X77228333Y-78763855D02*
X77304523Y-78801950D01*
X77304523Y-78801950D02*
X77342618Y-78840045D01*
X77342618Y-78840045D02*
X77380714Y-78916236D01*
X77380714Y-78916236D02*
X77380714Y-79030521D01*
X77380714Y-79030521D02*
X77342618Y-79106712D01*
X77342618Y-79106712D02*
X77304523Y-79144807D01*
X77304523Y-79144807D02*
X77228333Y-79182902D01*
X77228333Y-79182902D02*
X76923571Y-79182902D01*
X78142618Y-79563855D02*
X77685475Y-79563855D01*
X77914047Y-79563855D02*
X77914047Y-78763855D01*
X77914047Y-78763855D02*
X77837856Y-78878140D01*
X77837856Y-78878140D02*
X77761666Y-78954331D01*
X77761666Y-78954331D02*
X77685475Y-78992426D01*
X78409285Y-78763855D02*
X78942619Y-78763855D01*
X78942619Y-78763855D02*
X78599761Y-79563855D01*
X78325714Y-74943855D02*
X78059047Y-74562902D01*
X77868571Y-74943855D02*
X77868571Y-74143855D01*
X77868571Y-74143855D02*
X78173333Y-74143855D01*
X78173333Y-74143855D02*
X78249523Y-74181950D01*
X78249523Y-74181950D02*
X78287618Y-74220045D01*
X78287618Y-74220045D02*
X78325714Y-74296236D01*
X78325714Y-74296236D02*
X78325714Y-74410521D01*
X78325714Y-74410521D02*
X78287618Y-74486712D01*
X78287618Y-74486712D02*
X78249523Y-74524807D01*
X78249523Y-74524807D02*
X78173333Y-74562902D01*
X78173333Y-74562902D02*
X77868571Y-74562902D01*
X79087618Y-74943855D02*
X78630475Y-74943855D01*
X78859047Y-74943855D02*
X78859047Y-74143855D01*
X78859047Y-74143855D02*
X78782856Y-74258140D01*
X78782856Y-74258140D02*
X78706666Y-74334331D01*
X78706666Y-74334331D02*
X78630475Y-74372426D01*
X79811428Y-74143855D02*
X79430476Y-74143855D01*
X79430476Y-74143855D02*
X79392380Y-74524807D01*
X79392380Y-74524807D02*
X79430476Y-74486712D01*
X79430476Y-74486712D02*
X79506666Y-74448617D01*
X79506666Y-74448617D02*
X79697142Y-74448617D01*
X79697142Y-74448617D02*
X79773333Y-74486712D01*
X79773333Y-74486712D02*
X79811428Y-74524807D01*
X79811428Y-74524807D02*
X79849523Y-74600998D01*
X79849523Y-74600998D02*
X79849523Y-74791474D01*
X79849523Y-74791474D02*
X79811428Y-74867664D01*
X79811428Y-74867664D02*
X79773333Y-74905760D01*
X79773333Y-74905760D02*
X79697142Y-74943855D01*
X79697142Y-74943855D02*
X79506666Y-74943855D01*
X79506666Y-74943855D02*
X79430476Y-74905760D01*
X79430476Y-74905760D02*
X79392380Y-74867664D01*
X79049761Y-79063855D02*
X78668809Y-79063855D01*
X78668809Y-79063855D02*
X78668809Y-78263855D01*
X79316428Y-78644807D02*
X79583094Y-78644807D01*
X79697380Y-79063855D02*
X79316428Y-79063855D01*
X79316428Y-79063855D02*
X79316428Y-78263855D01*
X79316428Y-78263855D02*
X79697380Y-78263855D01*
X80040238Y-79063855D02*
X80040238Y-78263855D01*
X80040238Y-78263855D02*
X80230714Y-78263855D01*
X80230714Y-78263855D02*
X80345000Y-78301950D01*
X80345000Y-78301950D02*
X80421190Y-78378140D01*
X80421190Y-78378140D02*
X80459285Y-78454331D01*
X80459285Y-78454331D02*
X80497381Y-78606712D01*
X80497381Y-78606712D02*
X80497381Y-78720998D01*
X80497381Y-78720998D02*
X80459285Y-78873379D01*
X80459285Y-78873379D02*
X80421190Y-78949569D01*
X80421190Y-78949569D02*
X80345000Y-79025760D01*
X80345000Y-79025760D02*
X80230714Y-79063855D01*
X80230714Y-79063855D02*
X80040238Y-79063855D01*
X81183095Y-78530521D02*
X81183095Y-79063855D01*
X80992619Y-78225760D02*
X80802142Y-78797188D01*
X80802142Y-78797188D02*
X81297381Y-78797188D01*
X74866667Y-74563855D02*
X74600000Y-74182902D01*
X74409524Y-74563855D02*
X74409524Y-73763855D01*
X74409524Y-73763855D02*
X74714286Y-73763855D01*
X74714286Y-73763855D02*
X74790476Y-73801950D01*
X74790476Y-73801950D02*
X74828571Y-73840045D01*
X74828571Y-73840045D02*
X74866667Y-73916236D01*
X74866667Y-73916236D02*
X74866667Y-74030521D01*
X74866667Y-74030521D02*
X74828571Y-74106712D01*
X74828571Y-74106712D02*
X74790476Y-74144807D01*
X74790476Y-74144807D02*
X74714286Y-74182902D01*
X74714286Y-74182902D02*
X74409524Y-74182902D01*
X75323809Y-74106712D02*
X75247619Y-74068617D01*
X75247619Y-74068617D02*
X75209524Y-74030521D01*
X75209524Y-74030521D02*
X75171428Y-73954331D01*
X75171428Y-73954331D02*
X75171428Y-73916236D01*
X75171428Y-73916236D02*
X75209524Y-73840045D01*
X75209524Y-73840045D02*
X75247619Y-73801950D01*
X75247619Y-73801950D02*
X75323809Y-73763855D01*
X75323809Y-73763855D02*
X75476190Y-73763855D01*
X75476190Y-73763855D02*
X75552381Y-73801950D01*
X75552381Y-73801950D02*
X75590476Y-73840045D01*
X75590476Y-73840045D02*
X75628571Y-73916236D01*
X75628571Y-73916236D02*
X75628571Y-73954331D01*
X75628571Y-73954331D02*
X75590476Y-74030521D01*
X75590476Y-74030521D02*
X75552381Y-74068617D01*
X75552381Y-74068617D02*
X75476190Y-74106712D01*
X75476190Y-74106712D02*
X75323809Y-74106712D01*
X75323809Y-74106712D02*
X75247619Y-74144807D01*
X75247619Y-74144807D02*
X75209524Y-74182902D01*
X75209524Y-74182902D02*
X75171428Y-74259093D01*
X75171428Y-74259093D02*
X75171428Y-74411474D01*
X75171428Y-74411474D02*
X75209524Y-74487664D01*
X75209524Y-74487664D02*
X75247619Y-74525760D01*
X75247619Y-74525760D02*
X75323809Y-74563855D01*
X75323809Y-74563855D02*
X75476190Y-74563855D01*
X75476190Y-74563855D02*
X75552381Y-74525760D01*
X75552381Y-74525760D02*
X75590476Y-74487664D01*
X75590476Y-74487664D02*
X75628571Y-74411474D01*
X75628571Y-74411474D02*
X75628571Y-74259093D01*
X75628571Y-74259093D02*
X75590476Y-74182902D01*
X75590476Y-74182902D02*
X75552381Y-74144807D01*
X75552381Y-74144807D02*
X75476190Y-74106712D01*
X69311761Y-69563855D02*
X68930809Y-69563855D01*
X68930809Y-69563855D02*
X68930809Y-68763855D01*
X69578428Y-69144807D02*
X69845094Y-69144807D01*
X69959380Y-69563855D02*
X69578428Y-69563855D01*
X69578428Y-69563855D02*
X69578428Y-68763855D01*
X69578428Y-68763855D02*
X69959380Y-68763855D01*
X70302238Y-69563855D02*
X70302238Y-68763855D01*
X70302238Y-68763855D02*
X70492714Y-68763855D01*
X70492714Y-68763855D02*
X70607000Y-68801950D01*
X70607000Y-68801950D02*
X70683190Y-68878140D01*
X70683190Y-68878140D02*
X70721285Y-68954331D01*
X70721285Y-68954331D02*
X70759381Y-69106712D01*
X70759381Y-69106712D02*
X70759381Y-69220998D01*
X70759381Y-69220998D02*
X70721285Y-69373379D01*
X70721285Y-69373379D02*
X70683190Y-69449569D01*
X70683190Y-69449569D02*
X70607000Y-69525760D01*
X70607000Y-69525760D02*
X70492714Y-69563855D01*
X70492714Y-69563855D02*
X70302238Y-69563855D01*
X71026047Y-68763855D02*
X71521285Y-68763855D01*
X71521285Y-68763855D02*
X71254619Y-69068617D01*
X71254619Y-69068617D02*
X71368904Y-69068617D01*
X71368904Y-69068617D02*
X71445095Y-69106712D01*
X71445095Y-69106712D02*
X71483190Y-69144807D01*
X71483190Y-69144807D02*
X71521285Y-69220998D01*
X71521285Y-69220998D02*
X71521285Y-69411474D01*
X71521285Y-69411474D02*
X71483190Y-69487664D01*
X71483190Y-69487664D02*
X71445095Y-69525760D01*
X71445095Y-69525760D02*
X71368904Y-69563855D01*
X71368904Y-69563855D02*
X71140333Y-69563855D01*
X71140333Y-69563855D02*
X71064142Y-69525760D01*
X71064142Y-69525760D02*
X71026047Y-69487664D01*
X73968714Y-69563855D02*
X73702047Y-69182902D01*
X73511571Y-69563855D02*
X73511571Y-68763855D01*
X73511571Y-68763855D02*
X73816333Y-68763855D01*
X73816333Y-68763855D02*
X73892523Y-68801950D01*
X73892523Y-68801950D02*
X73930618Y-68840045D01*
X73930618Y-68840045D02*
X73968714Y-68916236D01*
X73968714Y-68916236D02*
X73968714Y-69030521D01*
X73968714Y-69030521D02*
X73930618Y-69106712D01*
X73930618Y-69106712D02*
X73892523Y-69144807D01*
X73892523Y-69144807D02*
X73816333Y-69182902D01*
X73816333Y-69182902D02*
X73511571Y-69182902D01*
X74730618Y-69563855D02*
X74273475Y-69563855D01*
X74502047Y-69563855D02*
X74502047Y-68763855D01*
X74502047Y-68763855D02*
X74425856Y-68878140D01*
X74425856Y-68878140D02*
X74349666Y-68954331D01*
X74349666Y-68954331D02*
X74273475Y-68992426D01*
X75416333Y-69030521D02*
X75416333Y-69563855D01*
X75225857Y-68725760D02*
X75035380Y-69297188D01*
X75035380Y-69297188D02*
X75530619Y-69297188D01*
X87730714Y-78903855D02*
X87464047Y-78522902D01*
X87273571Y-78903855D02*
X87273571Y-78103855D01*
X87273571Y-78103855D02*
X87578333Y-78103855D01*
X87578333Y-78103855D02*
X87654523Y-78141950D01*
X87654523Y-78141950D02*
X87692618Y-78180045D01*
X87692618Y-78180045D02*
X87730714Y-78256236D01*
X87730714Y-78256236D02*
X87730714Y-78370521D01*
X87730714Y-78370521D02*
X87692618Y-78446712D01*
X87692618Y-78446712D02*
X87654523Y-78484807D01*
X87654523Y-78484807D02*
X87578333Y-78522902D01*
X87578333Y-78522902D02*
X87273571Y-78522902D01*
X88416428Y-78370521D02*
X88416428Y-78903855D01*
X88225952Y-78065760D02*
X88035475Y-78637188D01*
X88035475Y-78637188D02*
X88530714Y-78637188D01*
X89254523Y-78903855D02*
X88797380Y-78903855D01*
X89025952Y-78903855D02*
X89025952Y-78103855D01*
X89025952Y-78103855D02*
X88949761Y-78218140D01*
X88949761Y-78218140D02*
X88873571Y-78294331D01*
X88873571Y-78294331D02*
X88797380Y-78332426D01*
X65890476Y-73653855D02*
X65890476Y-74301474D01*
X65890476Y-74301474D02*
X65928571Y-74377664D01*
X65928571Y-74377664D02*
X65966666Y-74415760D01*
X65966666Y-74415760D02*
X66042857Y-74453855D01*
X66042857Y-74453855D02*
X66195238Y-74453855D01*
X66195238Y-74453855D02*
X66271428Y-74415760D01*
X66271428Y-74415760D02*
X66309523Y-74377664D01*
X66309523Y-74377664D02*
X66347619Y-74301474D01*
X66347619Y-74301474D02*
X66347619Y-73653855D01*
X66652380Y-73653855D02*
X67147618Y-73653855D01*
X67147618Y-73653855D02*
X66880952Y-73958617D01*
X66880952Y-73958617D02*
X66995237Y-73958617D01*
X66995237Y-73958617D02*
X67071428Y-73996712D01*
X67071428Y-73996712D02*
X67109523Y-74034807D01*
X67109523Y-74034807D02*
X67147618Y-74110998D01*
X67147618Y-74110998D02*
X67147618Y-74301474D01*
X67147618Y-74301474D02*
X67109523Y-74377664D01*
X67109523Y-74377664D02*
X67071428Y-74415760D01*
X67071428Y-74415760D02*
X66995237Y-74453855D01*
X66995237Y-74453855D02*
X66766666Y-74453855D01*
X66766666Y-74453855D02*
X66690475Y-74415760D01*
X66690475Y-74415760D02*
X66652380Y-74377664D01*
X70485714Y-74487664D02*
X70447618Y-74525760D01*
X70447618Y-74525760D02*
X70333333Y-74563855D01*
X70333333Y-74563855D02*
X70257142Y-74563855D01*
X70257142Y-74563855D02*
X70142856Y-74525760D01*
X70142856Y-74525760D02*
X70066666Y-74449569D01*
X70066666Y-74449569D02*
X70028571Y-74373379D01*
X70028571Y-74373379D02*
X69990475Y-74220998D01*
X69990475Y-74220998D02*
X69990475Y-74106712D01*
X69990475Y-74106712D02*
X70028571Y-73954331D01*
X70028571Y-73954331D02*
X70066666Y-73878140D01*
X70066666Y-73878140D02*
X70142856Y-73801950D01*
X70142856Y-73801950D02*
X70257142Y-73763855D01*
X70257142Y-73763855D02*
X70333333Y-73763855D01*
X70333333Y-73763855D02*
X70447618Y-73801950D01*
X70447618Y-73801950D02*
X70485714Y-73840045D01*
X71171428Y-74030521D02*
X71171428Y-74563855D01*
X70980952Y-73725760D02*
X70790475Y-74297188D01*
X70790475Y-74297188D02*
X71285714Y-74297188D01*
X72009523Y-74563855D02*
X71552380Y-74563855D01*
X71780952Y-74563855D02*
X71780952Y-73763855D01*
X71780952Y-73763855D02*
X71704761Y-73878140D01*
X71704761Y-73878140D02*
X71628571Y-73954331D01*
X71628571Y-73954331D02*
X71552380Y-73992426D01*
X67010714Y-69563855D02*
X66744047Y-69182902D01*
X66553571Y-69563855D02*
X66553571Y-68763855D01*
X66553571Y-68763855D02*
X66858333Y-68763855D01*
X66858333Y-68763855D02*
X66934523Y-68801950D01*
X66934523Y-68801950D02*
X66972618Y-68840045D01*
X66972618Y-68840045D02*
X67010714Y-68916236D01*
X67010714Y-68916236D02*
X67010714Y-69030521D01*
X67010714Y-69030521D02*
X66972618Y-69106712D01*
X66972618Y-69106712D02*
X66934523Y-69144807D01*
X66934523Y-69144807D02*
X66858333Y-69182902D01*
X66858333Y-69182902D02*
X66553571Y-69182902D01*
X67696428Y-69030521D02*
X67696428Y-69563855D01*
X67505952Y-68725760D02*
X67315475Y-69297188D01*
X67315475Y-69297188D02*
X67810714Y-69297188D01*
X68077380Y-68840045D02*
X68115476Y-68801950D01*
X68115476Y-68801950D02*
X68191666Y-68763855D01*
X68191666Y-68763855D02*
X68382142Y-68763855D01*
X68382142Y-68763855D02*
X68458333Y-68801950D01*
X68458333Y-68801950D02*
X68496428Y-68840045D01*
X68496428Y-68840045D02*
X68534523Y-68916236D01*
X68534523Y-68916236D02*
X68534523Y-68992426D01*
X68534523Y-68992426D02*
X68496428Y-69106712D01*
X68496428Y-69106712D02*
X68039285Y-69563855D01*
X68039285Y-69563855D02*
X68534523Y-69563855D01*
X86076714Y-51843855D02*
X85810047Y-51462902D01*
X85619571Y-51843855D02*
X85619571Y-51043855D01*
X85619571Y-51043855D02*
X85924333Y-51043855D01*
X85924333Y-51043855D02*
X86000523Y-51081950D01*
X86000523Y-51081950D02*
X86038618Y-51120045D01*
X86038618Y-51120045D02*
X86076714Y-51196236D01*
X86076714Y-51196236D02*
X86076714Y-51310521D01*
X86076714Y-51310521D02*
X86038618Y-51386712D01*
X86038618Y-51386712D02*
X86000523Y-51424807D01*
X86000523Y-51424807D02*
X85924333Y-51462902D01*
X85924333Y-51462902D02*
X85619571Y-51462902D01*
X86762428Y-51310521D02*
X86762428Y-51843855D01*
X86571952Y-51005760D02*
X86381475Y-51577188D01*
X86381475Y-51577188D02*
X86876714Y-51577188D01*
X87105285Y-51043855D02*
X87600523Y-51043855D01*
X87600523Y-51043855D02*
X87333857Y-51348617D01*
X87333857Y-51348617D02*
X87448142Y-51348617D01*
X87448142Y-51348617D02*
X87524333Y-51386712D01*
X87524333Y-51386712D02*
X87562428Y-51424807D01*
X87562428Y-51424807D02*
X87600523Y-51500998D01*
X87600523Y-51500998D02*
X87600523Y-51691474D01*
X87600523Y-51691474D02*
X87562428Y-51767664D01*
X87562428Y-51767664D02*
X87524333Y-51805760D01*
X87524333Y-51805760D02*
X87448142Y-51843855D01*
X87448142Y-51843855D02*
X87219571Y-51843855D01*
X87219571Y-51843855D02*
X87143380Y-51805760D01*
X87143380Y-51805760D02*
X87105285Y-51767664D01*
X65800476Y-58303855D02*
X65800476Y-58951474D01*
X65800476Y-58951474D02*
X65838571Y-59027664D01*
X65838571Y-59027664D02*
X65876666Y-59065760D01*
X65876666Y-59065760D02*
X65952857Y-59103855D01*
X65952857Y-59103855D02*
X66105238Y-59103855D01*
X66105238Y-59103855D02*
X66181428Y-59065760D01*
X66181428Y-59065760D02*
X66219523Y-59027664D01*
X66219523Y-59027664D02*
X66257619Y-58951474D01*
X66257619Y-58951474D02*
X66257619Y-58303855D01*
X67057618Y-59103855D02*
X66600475Y-59103855D01*
X66829047Y-59103855D02*
X66829047Y-58303855D01*
X66829047Y-58303855D02*
X66752856Y-58418140D01*
X66752856Y-58418140D02*
X66676666Y-58494331D01*
X66676666Y-58494331D02*
X66600475Y-58532426D01*
X64121666Y-68343855D02*
X63740714Y-68343855D01*
X63740714Y-68343855D02*
X63740714Y-67543855D01*
X64807380Y-68343855D02*
X64350237Y-68343855D01*
X64578809Y-68343855D02*
X64578809Y-67543855D01*
X64578809Y-67543855D02*
X64502618Y-67658140D01*
X64502618Y-67658140D02*
X64426428Y-67734331D01*
X64426428Y-67734331D02*
X64350237Y-67772426D01*
X72154667Y-70247664D02*
X72116571Y-70285760D01*
X72116571Y-70285760D02*
X72002286Y-70323855D01*
X72002286Y-70323855D02*
X71926095Y-70323855D01*
X71926095Y-70323855D02*
X71811809Y-70285760D01*
X71811809Y-70285760D02*
X71735619Y-70209569D01*
X71735619Y-70209569D02*
X71697524Y-70133379D01*
X71697524Y-70133379D02*
X71659428Y-69980998D01*
X71659428Y-69980998D02*
X71659428Y-69866712D01*
X71659428Y-69866712D02*
X71697524Y-69714331D01*
X71697524Y-69714331D02*
X71735619Y-69638140D01*
X71735619Y-69638140D02*
X71811809Y-69561950D01*
X71811809Y-69561950D02*
X71926095Y-69523855D01*
X71926095Y-69523855D02*
X72002286Y-69523855D01*
X72002286Y-69523855D02*
X72116571Y-69561950D01*
X72116571Y-69561950D02*
X72154667Y-69600045D01*
X72916571Y-70323855D02*
X72459428Y-70323855D01*
X72688000Y-70323855D02*
X72688000Y-69523855D01*
X72688000Y-69523855D02*
X72611809Y-69638140D01*
X72611809Y-69638140D02*
X72535619Y-69714331D01*
X72535619Y-69714331D02*
X72459428Y-69752426D01*
X71361667Y-65972664D02*
X71323571Y-66010760D01*
X71323571Y-66010760D02*
X71209286Y-66048855D01*
X71209286Y-66048855D02*
X71133095Y-66048855D01*
X71133095Y-66048855D02*
X71018809Y-66010760D01*
X71018809Y-66010760D02*
X70942619Y-65934569D01*
X70942619Y-65934569D02*
X70904524Y-65858379D01*
X70904524Y-65858379D02*
X70866428Y-65705998D01*
X70866428Y-65705998D02*
X70866428Y-65591712D01*
X70866428Y-65591712D02*
X70904524Y-65439331D01*
X70904524Y-65439331D02*
X70942619Y-65363140D01*
X70942619Y-65363140D02*
X71018809Y-65286950D01*
X71018809Y-65286950D02*
X71133095Y-65248855D01*
X71133095Y-65248855D02*
X71209286Y-65248855D01*
X71209286Y-65248855D02*
X71323571Y-65286950D01*
X71323571Y-65286950D02*
X71361667Y-65325045D01*
X72047381Y-65515521D02*
X72047381Y-66048855D01*
X71856905Y-65210760D02*
X71666428Y-65782188D01*
X71666428Y-65782188D02*
X72161667Y-65782188D01*
X74426667Y-63507664D02*
X74388571Y-63545760D01*
X74388571Y-63545760D02*
X74274286Y-63583855D01*
X74274286Y-63583855D02*
X74198095Y-63583855D01*
X74198095Y-63583855D02*
X74083809Y-63545760D01*
X74083809Y-63545760D02*
X74007619Y-63469569D01*
X74007619Y-63469569D02*
X73969524Y-63393379D01*
X73969524Y-63393379D02*
X73931428Y-63240998D01*
X73931428Y-63240998D02*
X73931428Y-63126712D01*
X73931428Y-63126712D02*
X73969524Y-62974331D01*
X73969524Y-62974331D02*
X74007619Y-62898140D01*
X74007619Y-62898140D02*
X74083809Y-62821950D01*
X74083809Y-62821950D02*
X74198095Y-62783855D01*
X74198095Y-62783855D02*
X74274286Y-62783855D01*
X74274286Y-62783855D02*
X74388571Y-62821950D01*
X74388571Y-62821950D02*
X74426667Y-62860045D01*
X74731428Y-62860045D02*
X74769524Y-62821950D01*
X74769524Y-62821950D02*
X74845714Y-62783855D01*
X74845714Y-62783855D02*
X75036190Y-62783855D01*
X75036190Y-62783855D02*
X75112381Y-62821950D01*
X75112381Y-62821950D02*
X75150476Y-62860045D01*
X75150476Y-62860045D02*
X75188571Y-62936236D01*
X75188571Y-62936236D02*
X75188571Y-63012426D01*
X75188571Y-63012426D02*
X75150476Y-63126712D01*
X75150476Y-63126712D02*
X74693333Y-63583855D01*
X74693333Y-63583855D02*
X75188571Y-63583855D01*
X75556667Y-54657664D02*
X75518571Y-54695760D01*
X75518571Y-54695760D02*
X75404286Y-54733855D01*
X75404286Y-54733855D02*
X75328095Y-54733855D01*
X75328095Y-54733855D02*
X75213809Y-54695760D01*
X75213809Y-54695760D02*
X75137619Y-54619569D01*
X75137619Y-54619569D02*
X75099524Y-54543379D01*
X75099524Y-54543379D02*
X75061428Y-54390998D01*
X75061428Y-54390998D02*
X75061428Y-54276712D01*
X75061428Y-54276712D02*
X75099524Y-54124331D01*
X75099524Y-54124331D02*
X75137619Y-54048140D01*
X75137619Y-54048140D02*
X75213809Y-53971950D01*
X75213809Y-53971950D02*
X75328095Y-53933855D01*
X75328095Y-53933855D02*
X75404286Y-53933855D01*
X75404286Y-53933855D02*
X75518571Y-53971950D01*
X75518571Y-53971950D02*
X75556667Y-54010045D01*
X76242381Y-53933855D02*
X76090000Y-53933855D01*
X76090000Y-53933855D02*
X76013809Y-53971950D01*
X76013809Y-53971950D02*
X75975714Y-54010045D01*
X75975714Y-54010045D02*
X75899524Y-54124331D01*
X75899524Y-54124331D02*
X75861428Y-54276712D01*
X75861428Y-54276712D02*
X75861428Y-54581474D01*
X75861428Y-54581474D02*
X75899524Y-54657664D01*
X75899524Y-54657664D02*
X75937619Y-54695760D01*
X75937619Y-54695760D02*
X76013809Y-54733855D01*
X76013809Y-54733855D02*
X76166190Y-54733855D01*
X76166190Y-54733855D02*
X76242381Y-54695760D01*
X76242381Y-54695760D02*
X76280476Y-54657664D01*
X76280476Y-54657664D02*
X76318571Y-54581474D01*
X76318571Y-54581474D02*
X76318571Y-54390998D01*
X76318571Y-54390998D02*
X76280476Y-54314807D01*
X76280476Y-54314807D02*
X76242381Y-54276712D01*
X76242381Y-54276712D02*
X76166190Y-54238617D01*
X76166190Y-54238617D02*
X76013809Y-54238617D01*
X76013809Y-54238617D02*
X75937619Y-54276712D01*
X75937619Y-54276712D02*
X75899524Y-54314807D01*
X75899524Y-54314807D02*
X75861428Y-54390998D01*
X75556667Y-52207664D02*
X75518571Y-52245760D01*
X75518571Y-52245760D02*
X75404286Y-52283855D01*
X75404286Y-52283855D02*
X75328095Y-52283855D01*
X75328095Y-52283855D02*
X75213809Y-52245760D01*
X75213809Y-52245760D02*
X75137619Y-52169569D01*
X75137619Y-52169569D02*
X75099524Y-52093379D01*
X75099524Y-52093379D02*
X75061428Y-51940998D01*
X75061428Y-51940998D02*
X75061428Y-51826712D01*
X75061428Y-51826712D02*
X75099524Y-51674331D01*
X75099524Y-51674331D02*
X75137619Y-51598140D01*
X75137619Y-51598140D02*
X75213809Y-51521950D01*
X75213809Y-51521950D02*
X75328095Y-51483855D01*
X75328095Y-51483855D02*
X75404286Y-51483855D01*
X75404286Y-51483855D02*
X75518571Y-51521950D01*
X75518571Y-51521950D02*
X75556667Y-51560045D01*
X75937619Y-52283855D02*
X76090000Y-52283855D01*
X76090000Y-52283855D02*
X76166190Y-52245760D01*
X76166190Y-52245760D02*
X76204286Y-52207664D01*
X76204286Y-52207664D02*
X76280476Y-52093379D01*
X76280476Y-52093379D02*
X76318571Y-51940998D01*
X76318571Y-51940998D02*
X76318571Y-51636236D01*
X76318571Y-51636236D02*
X76280476Y-51560045D01*
X76280476Y-51560045D02*
X76242381Y-51521950D01*
X76242381Y-51521950D02*
X76166190Y-51483855D01*
X76166190Y-51483855D02*
X76013809Y-51483855D01*
X76013809Y-51483855D02*
X75937619Y-51521950D01*
X75937619Y-51521950D02*
X75899524Y-51560045D01*
X75899524Y-51560045D02*
X75861428Y-51636236D01*
X75861428Y-51636236D02*
X75861428Y-51826712D01*
X75861428Y-51826712D02*
X75899524Y-51902902D01*
X75899524Y-51902902D02*
X75937619Y-51940998D01*
X75937619Y-51940998D02*
X76013809Y-51979093D01*
X76013809Y-51979093D02*
X76166190Y-51979093D01*
X76166190Y-51979093D02*
X76242381Y-51940998D01*
X76242381Y-51940998D02*
X76280476Y-51902902D01*
X76280476Y-51902902D02*
X76318571Y-51826712D01*
X75556667Y-58303855D02*
X75290000Y-57922902D01*
X75099524Y-58303855D02*
X75099524Y-57503855D01*
X75099524Y-57503855D02*
X75404286Y-57503855D01*
X75404286Y-57503855D02*
X75480476Y-57541950D01*
X75480476Y-57541950D02*
X75518571Y-57580045D01*
X75518571Y-57580045D02*
X75556667Y-57656236D01*
X75556667Y-57656236D02*
X75556667Y-57770521D01*
X75556667Y-57770521D02*
X75518571Y-57846712D01*
X75518571Y-57846712D02*
X75480476Y-57884807D01*
X75480476Y-57884807D02*
X75404286Y-57922902D01*
X75404286Y-57922902D02*
X75099524Y-57922902D01*
X75823333Y-57503855D02*
X76318571Y-57503855D01*
X76318571Y-57503855D02*
X76051905Y-57808617D01*
X76051905Y-57808617D02*
X76166190Y-57808617D01*
X76166190Y-57808617D02*
X76242381Y-57846712D01*
X76242381Y-57846712D02*
X76280476Y-57884807D01*
X76280476Y-57884807D02*
X76318571Y-57960998D01*
X76318571Y-57960998D02*
X76318571Y-58151474D01*
X76318571Y-58151474D02*
X76280476Y-58227664D01*
X76280476Y-58227664D02*
X76242381Y-58265760D01*
X76242381Y-58265760D02*
X76166190Y-58303855D01*
X76166190Y-58303855D02*
X75937619Y-58303855D01*
X75937619Y-58303855D02*
X75861428Y-58265760D01*
X75861428Y-58265760D02*
X75823333Y-58227664D01*
X80076667Y-57748855D02*
X79810000Y-57367902D01*
X79619524Y-57748855D02*
X79619524Y-56948855D01*
X79619524Y-56948855D02*
X79924286Y-56948855D01*
X79924286Y-56948855D02*
X80000476Y-56986950D01*
X80000476Y-56986950D02*
X80038571Y-57025045D01*
X80038571Y-57025045D02*
X80076667Y-57101236D01*
X80076667Y-57101236D02*
X80076667Y-57215521D01*
X80076667Y-57215521D02*
X80038571Y-57291712D01*
X80038571Y-57291712D02*
X80000476Y-57329807D01*
X80000476Y-57329807D02*
X79924286Y-57367902D01*
X79924286Y-57367902D02*
X79619524Y-57367902D01*
X80762381Y-57215521D02*
X80762381Y-57748855D01*
X80571905Y-56910760D02*
X80381428Y-57482188D01*
X80381428Y-57482188D02*
X80876667Y-57482188D01*
X76398667Y-70323855D02*
X76132000Y-69942902D01*
X75941524Y-70323855D02*
X75941524Y-69523855D01*
X75941524Y-69523855D02*
X76246286Y-69523855D01*
X76246286Y-69523855D02*
X76322476Y-69561950D01*
X76322476Y-69561950D02*
X76360571Y-69600045D01*
X76360571Y-69600045D02*
X76398667Y-69676236D01*
X76398667Y-69676236D02*
X76398667Y-69790521D01*
X76398667Y-69790521D02*
X76360571Y-69866712D01*
X76360571Y-69866712D02*
X76322476Y-69904807D01*
X76322476Y-69904807D02*
X76246286Y-69942902D01*
X76246286Y-69942902D02*
X75941524Y-69942902D01*
X77160571Y-70323855D02*
X76703428Y-70323855D01*
X76932000Y-70323855D02*
X76932000Y-69523855D01*
X76932000Y-69523855D02*
X76855809Y-69638140D01*
X76855809Y-69638140D02*
X76779619Y-69714331D01*
X76779619Y-69714331D02*
X76703428Y-69752426D01*
X75745667Y-65439855D02*
X75479000Y-65058902D01*
X75288524Y-65439855D02*
X75288524Y-64639855D01*
X75288524Y-64639855D02*
X75593286Y-64639855D01*
X75593286Y-64639855D02*
X75669476Y-64677950D01*
X75669476Y-64677950D02*
X75707571Y-64716045D01*
X75707571Y-64716045D02*
X75745667Y-64792236D01*
X75745667Y-64792236D02*
X75745667Y-64906521D01*
X75745667Y-64906521D02*
X75707571Y-64982712D01*
X75707571Y-64982712D02*
X75669476Y-65020807D01*
X75669476Y-65020807D02*
X75593286Y-65058902D01*
X75593286Y-65058902D02*
X75288524Y-65058902D01*
X76050428Y-64716045D02*
X76088524Y-64677950D01*
X76088524Y-64677950D02*
X76164714Y-64639855D01*
X76164714Y-64639855D02*
X76355190Y-64639855D01*
X76355190Y-64639855D02*
X76431381Y-64677950D01*
X76431381Y-64677950D02*
X76469476Y-64716045D01*
X76469476Y-64716045D02*
X76507571Y-64792236D01*
X76507571Y-64792236D02*
X76507571Y-64868426D01*
X76507571Y-64868426D02*
X76469476Y-64982712D01*
X76469476Y-64982712D02*
X76012333Y-65439855D01*
X76012333Y-65439855D02*
X76507571Y-65439855D01*
X76985714Y-52594855D02*
X76719047Y-52213902D01*
X76528571Y-52594855D02*
X76528571Y-51794855D01*
X76528571Y-51794855D02*
X76833333Y-51794855D01*
X76833333Y-51794855D02*
X76909523Y-51832950D01*
X76909523Y-51832950D02*
X76947618Y-51871045D01*
X76947618Y-51871045D02*
X76985714Y-51947236D01*
X76985714Y-51947236D02*
X76985714Y-52061521D01*
X76985714Y-52061521D02*
X76947618Y-52137712D01*
X76947618Y-52137712D02*
X76909523Y-52175807D01*
X76909523Y-52175807D02*
X76833333Y-52213902D01*
X76833333Y-52213902D02*
X76528571Y-52213902D01*
X77747618Y-52594855D02*
X77290475Y-52594855D01*
X77519047Y-52594855D02*
X77519047Y-51794855D01*
X77519047Y-51794855D02*
X77442856Y-51909140D01*
X77442856Y-51909140D02*
X77366666Y-51985331D01*
X77366666Y-51985331D02*
X77290475Y-52023426D01*
X78014285Y-51794855D02*
X78509523Y-51794855D01*
X78509523Y-51794855D02*
X78242857Y-52099617D01*
X78242857Y-52099617D02*
X78357142Y-52099617D01*
X78357142Y-52099617D02*
X78433333Y-52137712D01*
X78433333Y-52137712D02*
X78471428Y-52175807D01*
X78471428Y-52175807D02*
X78509523Y-52251998D01*
X78509523Y-52251998D02*
X78509523Y-52442474D01*
X78509523Y-52442474D02*
X78471428Y-52518664D01*
X78471428Y-52518664D02*
X78433333Y-52556760D01*
X78433333Y-52556760D02*
X78357142Y-52594855D01*
X78357142Y-52594855D02*
X78128571Y-52594855D01*
X78128571Y-52594855D02*
X78052380Y-52556760D01*
X78052380Y-52556760D02*
X78014285Y-52518664D01*
X78601809Y-65170045D02*
X78525619Y-65131950D01*
X78525619Y-65131950D02*
X78449428Y-65055760D01*
X78449428Y-65055760D02*
X78335142Y-64941474D01*
X78335142Y-64941474D02*
X78258952Y-64903379D01*
X78258952Y-64903379D02*
X78182761Y-64903379D01*
X78220857Y-65093855D02*
X78144666Y-65055760D01*
X78144666Y-65055760D02*
X78068476Y-64979569D01*
X78068476Y-64979569D02*
X78030380Y-64827188D01*
X78030380Y-64827188D02*
X78030380Y-64560521D01*
X78030380Y-64560521D02*
X78068476Y-64408140D01*
X78068476Y-64408140D02*
X78144666Y-64331950D01*
X78144666Y-64331950D02*
X78220857Y-64293855D01*
X78220857Y-64293855D02*
X78373238Y-64293855D01*
X78373238Y-64293855D02*
X78449428Y-64331950D01*
X78449428Y-64331950D02*
X78525619Y-64408140D01*
X78525619Y-64408140D02*
X78563714Y-64560521D01*
X78563714Y-64560521D02*
X78563714Y-64827188D01*
X78563714Y-64827188D02*
X78525619Y-64979569D01*
X78525619Y-64979569D02*
X78449428Y-65055760D01*
X78449428Y-65055760D02*
X78373238Y-65093855D01*
X78373238Y-65093855D02*
X78220857Y-65093855D01*
X79325618Y-65093855D02*
X78868475Y-65093855D01*
X79097047Y-65093855D02*
X79097047Y-64293855D01*
X79097047Y-64293855D02*
X79020856Y-64408140D01*
X79020856Y-64408140D02*
X78944666Y-64484331D01*
X78944666Y-64484331D02*
X78868475Y-64522426D01*
X80864714Y-61743855D02*
X80598047Y-61362902D01*
X80407571Y-61743855D02*
X80407571Y-60943855D01*
X80407571Y-60943855D02*
X80712333Y-60943855D01*
X80712333Y-60943855D02*
X80788523Y-60981950D01*
X80788523Y-60981950D02*
X80826618Y-61020045D01*
X80826618Y-61020045D02*
X80864714Y-61096236D01*
X80864714Y-61096236D02*
X80864714Y-61210521D01*
X80864714Y-61210521D02*
X80826618Y-61286712D01*
X80826618Y-61286712D02*
X80788523Y-61324807D01*
X80788523Y-61324807D02*
X80712333Y-61362902D01*
X80712333Y-61362902D02*
X80407571Y-61362902D01*
X81169475Y-61020045D02*
X81207571Y-60981950D01*
X81207571Y-60981950D02*
X81283761Y-60943855D01*
X81283761Y-60943855D02*
X81474237Y-60943855D01*
X81474237Y-60943855D02*
X81550428Y-60981950D01*
X81550428Y-60981950D02*
X81588523Y-61020045D01*
X81588523Y-61020045D02*
X81626618Y-61096236D01*
X81626618Y-61096236D02*
X81626618Y-61172426D01*
X81626618Y-61172426D02*
X81588523Y-61286712D01*
X81588523Y-61286712D02*
X81131380Y-61743855D01*
X81131380Y-61743855D02*
X81626618Y-61743855D01*
X82121857Y-60943855D02*
X82198047Y-60943855D01*
X82198047Y-60943855D02*
X82274238Y-60981950D01*
X82274238Y-60981950D02*
X82312333Y-61020045D01*
X82312333Y-61020045D02*
X82350428Y-61096236D01*
X82350428Y-61096236D02*
X82388523Y-61248617D01*
X82388523Y-61248617D02*
X82388523Y-61439093D01*
X82388523Y-61439093D02*
X82350428Y-61591474D01*
X82350428Y-61591474D02*
X82312333Y-61667664D01*
X82312333Y-61667664D02*
X82274238Y-61705760D01*
X82274238Y-61705760D02*
X82198047Y-61743855D01*
X82198047Y-61743855D02*
X82121857Y-61743855D01*
X82121857Y-61743855D02*
X82045666Y-61705760D01*
X82045666Y-61705760D02*
X82007571Y-61667664D01*
X82007571Y-61667664D02*
X81969476Y-61591474D01*
X81969476Y-61591474D02*
X81931380Y-61439093D01*
X81931380Y-61439093D02*
X81931380Y-61248617D01*
X81931380Y-61248617D02*
X81969476Y-61096236D01*
X81969476Y-61096236D02*
X82007571Y-61020045D01*
X82007571Y-61020045D02*
X82045666Y-60981950D01*
X82045666Y-60981950D02*
X82121857Y-60943855D01*
X80204761Y-57123855D02*
X79823809Y-57123855D01*
X79823809Y-57123855D02*
X79823809Y-56323855D01*
X80471428Y-56704807D02*
X80738094Y-56704807D01*
X80852380Y-57123855D02*
X80471428Y-57123855D01*
X80471428Y-57123855D02*
X80471428Y-56323855D01*
X80471428Y-56323855D02*
X80852380Y-56323855D01*
X81195238Y-57123855D02*
X81195238Y-56323855D01*
X81195238Y-56323855D02*
X81385714Y-56323855D01*
X81385714Y-56323855D02*
X81500000Y-56361950D01*
X81500000Y-56361950D02*
X81576190Y-56438140D01*
X81576190Y-56438140D02*
X81614285Y-56514331D01*
X81614285Y-56514331D02*
X81652381Y-56666712D01*
X81652381Y-56666712D02*
X81652381Y-56780998D01*
X81652381Y-56780998D02*
X81614285Y-56933379D01*
X81614285Y-56933379D02*
X81576190Y-57009569D01*
X81576190Y-57009569D02*
X81500000Y-57085760D01*
X81500000Y-57085760D02*
X81385714Y-57123855D01*
X81385714Y-57123855D02*
X81195238Y-57123855D01*
X82414285Y-57123855D02*
X81957142Y-57123855D01*
X82185714Y-57123855D02*
X82185714Y-56323855D01*
X82185714Y-56323855D02*
X82109523Y-56438140D01*
X82109523Y-56438140D02*
X82033333Y-56514331D01*
X82033333Y-56514331D02*
X81957142Y-56552426D01*
X77011667Y-61435855D02*
X76745000Y-61054902D01*
X76554524Y-61435855D02*
X76554524Y-60635855D01*
X76554524Y-60635855D02*
X76859286Y-60635855D01*
X76859286Y-60635855D02*
X76935476Y-60673950D01*
X76935476Y-60673950D02*
X76973571Y-60712045D01*
X76973571Y-60712045D02*
X77011667Y-60788236D01*
X77011667Y-60788236D02*
X77011667Y-60902521D01*
X77011667Y-60902521D02*
X76973571Y-60978712D01*
X76973571Y-60978712D02*
X76935476Y-61016807D01*
X76935476Y-61016807D02*
X76859286Y-61054902D01*
X76859286Y-61054902D02*
X76554524Y-61054902D01*
X77735476Y-60635855D02*
X77354524Y-60635855D01*
X77354524Y-60635855D02*
X77316428Y-61016807D01*
X77316428Y-61016807D02*
X77354524Y-60978712D01*
X77354524Y-60978712D02*
X77430714Y-60940617D01*
X77430714Y-60940617D02*
X77621190Y-60940617D01*
X77621190Y-60940617D02*
X77697381Y-60978712D01*
X77697381Y-60978712D02*
X77735476Y-61016807D01*
X77735476Y-61016807D02*
X77773571Y-61092998D01*
X77773571Y-61092998D02*
X77773571Y-61283474D01*
X77773571Y-61283474D02*
X77735476Y-61359664D01*
X77735476Y-61359664D02*
X77697381Y-61397760D01*
X77697381Y-61397760D02*
X77621190Y-61435855D01*
X77621190Y-61435855D02*
X77430714Y-61435855D01*
X77430714Y-61435855D02*
X77354524Y-61397760D01*
X77354524Y-61397760D02*
X77316428Y-61359664D01*
X76249761Y-57925855D02*
X75868809Y-57925855D01*
X75868809Y-57925855D02*
X75868809Y-57125855D01*
X76516428Y-57506807D02*
X76783094Y-57506807D01*
X76897380Y-57925855D02*
X76516428Y-57925855D01*
X76516428Y-57925855D02*
X76516428Y-57125855D01*
X76516428Y-57125855D02*
X76897380Y-57125855D01*
X77240238Y-57925855D02*
X77240238Y-57125855D01*
X77240238Y-57125855D02*
X77430714Y-57125855D01*
X77430714Y-57125855D02*
X77545000Y-57163950D01*
X77545000Y-57163950D02*
X77621190Y-57240140D01*
X77621190Y-57240140D02*
X77659285Y-57316331D01*
X77659285Y-57316331D02*
X77697381Y-57468712D01*
X77697381Y-57468712D02*
X77697381Y-57582998D01*
X77697381Y-57582998D02*
X77659285Y-57735379D01*
X77659285Y-57735379D02*
X77621190Y-57811569D01*
X77621190Y-57811569D02*
X77545000Y-57887760D01*
X77545000Y-57887760D02*
X77430714Y-57925855D01*
X77430714Y-57925855D02*
X77240238Y-57925855D01*
X78002142Y-57202045D02*
X78040238Y-57163950D01*
X78040238Y-57163950D02*
X78116428Y-57125855D01*
X78116428Y-57125855D02*
X78306904Y-57125855D01*
X78306904Y-57125855D02*
X78383095Y-57163950D01*
X78383095Y-57163950D02*
X78421190Y-57202045D01*
X78421190Y-57202045D02*
X78459285Y-57278236D01*
X78459285Y-57278236D02*
X78459285Y-57354426D01*
X78459285Y-57354426D02*
X78421190Y-57468712D01*
X78421190Y-57468712D02*
X77964047Y-57925855D01*
X77964047Y-57925855D02*
X78459285Y-57925855D01*
X65485714Y-92487664D02*
X65447618Y-92525760D01*
X65447618Y-92525760D02*
X65333333Y-92563855D01*
X65333333Y-92563855D02*
X65257142Y-92563855D01*
X65257142Y-92563855D02*
X65142856Y-92525760D01*
X65142856Y-92525760D02*
X65066666Y-92449569D01*
X65066666Y-92449569D02*
X65028571Y-92373379D01*
X65028571Y-92373379D02*
X64990475Y-92220998D01*
X64990475Y-92220998D02*
X64990475Y-92106712D01*
X64990475Y-92106712D02*
X65028571Y-91954331D01*
X65028571Y-91954331D02*
X65066666Y-91878140D01*
X65066666Y-91878140D02*
X65142856Y-91801950D01*
X65142856Y-91801950D02*
X65257142Y-91763855D01*
X65257142Y-91763855D02*
X65333333Y-91763855D01*
X65333333Y-91763855D02*
X65447618Y-91801950D01*
X65447618Y-91801950D02*
X65485714Y-91840045D01*
X65752380Y-91763855D02*
X66247618Y-91763855D01*
X66247618Y-91763855D02*
X65980952Y-92068617D01*
X65980952Y-92068617D02*
X66095237Y-92068617D01*
X66095237Y-92068617D02*
X66171428Y-92106712D01*
X66171428Y-92106712D02*
X66209523Y-92144807D01*
X66209523Y-92144807D02*
X66247618Y-92220998D01*
X66247618Y-92220998D02*
X66247618Y-92411474D01*
X66247618Y-92411474D02*
X66209523Y-92487664D01*
X66209523Y-92487664D02*
X66171428Y-92525760D01*
X66171428Y-92525760D02*
X66095237Y-92563855D01*
X66095237Y-92563855D02*
X65866666Y-92563855D01*
X65866666Y-92563855D02*
X65790475Y-92525760D01*
X65790475Y-92525760D02*
X65752380Y-92487664D01*
X67009523Y-92563855D02*
X66552380Y-92563855D01*
X66780952Y-92563855D02*
X66780952Y-91763855D01*
X66780952Y-91763855D02*
X66704761Y-91878140D01*
X66704761Y-91878140D02*
X66628571Y-91954331D01*
X66628571Y-91954331D02*
X66552380Y-91992426D01*
X69485714Y-92563855D02*
X69219047Y-92182902D01*
X69028571Y-92563855D02*
X69028571Y-91763855D01*
X69028571Y-91763855D02*
X69333333Y-91763855D01*
X69333333Y-91763855D02*
X69409523Y-91801950D01*
X69409523Y-91801950D02*
X69447618Y-91840045D01*
X69447618Y-91840045D02*
X69485714Y-91916236D01*
X69485714Y-91916236D02*
X69485714Y-92030521D01*
X69485714Y-92030521D02*
X69447618Y-92106712D01*
X69447618Y-92106712D02*
X69409523Y-92144807D01*
X69409523Y-92144807D02*
X69333333Y-92182902D01*
X69333333Y-92182902D02*
X69028571Y-92182902D01*
X69752380Y-91763855D02*
X70247618Y-91763855D01*
X70247618Y-91763855D02*
X69980952Y-92068617D01*
X69980952Y-92068617D02*
X70095237Y-92068617D01*
X70095237Y-92068617D02*
X70171428Y-92106712D01*
X70171428Y-92106712D02*
X70209523Y-92144807D01*
X70209523Y-92144807D02*
X70247618Y-92220998D01*
X70247618Y-92220998D02*
X70247618Y-92411474D01*
X70247618Y-92411474D02*
X70209523Y-92487664D01*
X70209523Y-92487664D02*
X70171428Y-92525760D01*
X70171428Y-92525760D02*
X70095237Y-92563855D01*
X70095237Y-92563855D02*
X69866666Y-92563855D01*
X69866666Y-92563855D02*
X69790475Y-92525760D01*
X69790475Y-92525760D02*
X69752380Y-92487664D01*
X70552380Y-91840045D02*
X70590476Y-91801950D01*
X70590476Y-91801950D02*
X70666666Y-91763855D01*
X70666666Y-91763855D02*
X70857142Y-91763855D01*
X70857142Y-91763855D02*
X70933333Y-91801950D01*
X70933333Y-91801950D02*
X70971428Y-91840045D01*
X70971428Y-91840045D02*
X71009523Y-91916236D01*
X71009523Y-91916236D02*
X71009523Y-91992426D01*
X71009523Y-91992426D02*
X70971428Y-92106712D01*
X70971428Y-92106712D02*
X70514285Y-92563855D01*
X70514285Y-92563855D02*
X71009523Y-92563855D01*
X73485714Y-92563855D02*
X73219047Y-92182902D01*
X73028571Y-92563855D02*
X73028571Y-91763855D01*
X73028571Y-91763855D02*
X73333333Y-91763855D01*
X73333333Y-91763855D02*
X73409523Y-91801950D01*
X73409523Y-91801950D02*
X73447618Y-91840045D01*
X73447618Y-91840045D02*
X73485714Y-91916236D01*
X73485714Y-91916236D02*
X73485714Y-92030521D01*
X73485714Y-92030521D02*
X73447618Y-92106712D01*
X73447618Y-92106712D02*
X73409523Y-92144807D01*
X73409523Y-92144807D02*
X73333333Y-92182902D01*
X73333333Y-92182902D02*
X73028571Y-92182902D01*
X73752380Y-91763855D02*
X74247618Y-91763855D01*
X74247618Y-91763855D02*
X73980952Y-92068617D01*
X73980952Y-92068617D02*
X74095237Y-92068617D01*
X74095237Y-92068617D02*
X74171428Y-92106712D01*
X74171428Y-92106712D02*
X74209523Y-92144807D01*
X74209523Y-92144807D02*
X74247618Y-92220998D01*
X74247618Y-92220998D02*
X74247618Y-92411474D01*
X74247618Y-92411474D02*
X74209523Y-92487664D01*
X74209523Y-92487664D02*
X74171428Y-92525760D01*
X74171428Y-92525760D02*
X74095237Y-92563855D01*
X74095237Y-92563855D02*
X73866666Y-92563855D01*
X73866666Y-92563855D02*
X73790475Y-92525760D01*
X73790475Y-92525760D02*
X73752380Y-92487664D01*
X75009523Y-92563855D02*
X74552380Y-92563855D01*
X74780952Y-92563855D02*
X74780952Y-91763855D01*
X74780952Y-91763855D02*
X74704761Y-91878140D01*
X74704761Y-91878140D02*
X74628571Y-91954331D01*
X74628571Y-91954331D02*
X74552380Y-91992426D01*
X78528571Y-96563855D02*
X78528571Y-95763855D01*
X78528571Y-95763855D02*
X78719047Y-95763855D01*
X78719047Y-95763855D02*
X78833333Y-95801950D01*
X78833333Y-95801950D02*
X78909523Y-95878140D01*
X78909523Y-95878140D02*
X78947618Y-95954331D01*
X78947618Y-95954331D02*
X78985714Y-96106712D01*
X78985714Y-96106712D02*
X78985714Y-96220998D01*
X78985714Y-96220998D02*
X78947618Y-96373379D01*
X78947618Y-96373379D02*
X78909523Y-96449569D01*
X78909523Y-96449569D02*
X78833333Y-96525760D01*
X78833333Y-96525760D02*
X78719047Y-96563855D01*
X78719047Y-96563855D02*
X78528571Y-96563855D01*
X79252380Y-95763855D02*
X79747618Y-95763855D01*
X79747618Y-95763855D02*
X79480952Y-96068617D01*
X79480952Y-96068617D02*
X79595237Y-96068617D01*
X79595237Y-96068617D02*
X79671428Y-96106712D01*
X79671428Y-96106712D02*
X79709523Y-96144807D01*
X79709523Y-96144807D02*
X79747618Y-96220998D01*
X79747618Y-96220998D02*
X79747618Y-96411474D01*
X79747618Y-96411474D02*
X79709523Y-96487664D01*
X79709523Y-96487664D02*
X79671428Y-96525760D01*
X79671428Y-96525760D02*
X79595237Y-96563855D01*
X79595237Y-96563855D02*
X79366666Y-96563855D01*
X79366666Y-96563855D02*
X79290475Y-96525760D01*
X79290475Y-96525760D02*
X79252380Y-96487664D01*
X80509523Y-96563855D02*
X80052380Y-96563855D01*
X80280952Y-96563855D02*
X80280952Y-95763855D01*
X80280952Y-95763855D02*
X80204761Y-95878140D01*
X80204761Y-95878140D02*
X80128571Y-95954331D01*
X80128571Y-95954331D02*
X80052380Y-95992426D01*
X83542857Y-96640045D02*
X83466667Y-96601950D01*
X83466667Y-96601950D02*
X83390476Y-96525760D01*
X83390476Y-96525760D02*
X83276190Y-96411474D01*
X83276190Y-96411474D02*
X83200000Y-96373379D01*
X83200000Y-96373379D02*
X83123809Y-96373379D01*
X83161905Y-96563855D02*
X83085714Y-96525760D01*
X83085714Y-96525760D02*
X83009524Y-96449569D01*
X83009524Y-96449569D02*
X82971428Y-96297188D01*
X82971428Y-96297188D02*
X82971428Y-96030521D01*
X82971428Y-96030521D02*
X83009524Y-95878140D01*
X83009524Y-95878140D02*
X83085714Y-95801950D01*
X83085714Y-95801950D02*
X83161905Y-95763855D01*
X83161905Y-95763855D02*
X83314286Y-95763855D01*
X83314286Y-95763855D02*
X83390476Y-95801950D01*
X83390476Y-95801950D02*
X83466667Y-95878140D01*
X83466667Y-95878140D02*
X83504762Y-96030521D01*
X83504762Y-96030521D02*
X83504762Y-96297188D01*
X83504762Y-96297188D02*
X83466667Y-96449569D01*
X83466667Y-96449569D02*
X83390476Y-96525760D01*
X83390476Y-96525760D02*
X83314286Y-96563855D01*
X83314286Y-96563855D02*
X83161905Y-96563855D01*
X83771428Y-95763855D02*
X84266666Y-95763855D01*
X84266666Y-95763855D02*
X84000000Y-96068617D01*
X84000000Y-96068617D02*
X84114285Y-96068617D01*
X84114285Y-96068617D02*
X84190476Y-96106712D01*
X84190476Y-96106712D02*
X84228571Y-96144807D01*
X84228571Y-96144807D02*
X84266666Y-96220998D01*
X84266666Y-96220998D02*
X84266666Y-96411474D01*
X84266666Y-96411474D02*
X84228571Y-96487664D01*
X84228571Y-96487664D02*
X84190476Y-96525760D01*
X84190476Y-96525760D02*
X84114285Y-96563855D01*
X84114285Y-96563855D02*
X83885714Y-96563855D01*
X83885714Y-96563855D02*
X83809523Y-96525760D01*
X83809523Y-96525760D02*
X83771428Y-96487664D01*
X85028571Y-96563855D02*
X84571428Y-96563855D01*
X84800000Y-96563855D02*
X84800000Y-95763855D01*
X84800000Y-95763855D02*
X84723809Y-95878140D01*
X84723809Y-95878140D02*
X84647619Y-95954331D01*
X84647619Y-95954331D02*
X84571428Y-95992426D01*
X75164714Y-60642664D02*
X75126618Y-60680760D01*
X75126618Y-60680760D02*
X75012333Y-60718855D01*
X75012333Y-60718855D02*
X74936142Y-60718855D01*
X74936142Y-60718855D02*
X74821856Y-60680760D01*
X74821856Y-60680760D02*
X74745666Y-60604569D01*
X74745666Y-60604569D02*
X74707571Y-60528379D01*
X74707571Y-60528379D02*
X74669475Y-60375998D01*
X74669475Y-60375998D02*
X74669475Y-60261712D01*
X74669475Y-60261712D02*
X74707571Y-60109331D01*
X74707571Y-60109331D02*
X74745666Y-60033140D01*
X74745666Y-60033140D02*
X74821856Y-59956950D01*
X74821856Y-59956950D02*
X74936142Y-59918855D01*
X74936142Y-59918855D02*
X75012333Y-59918855D01*
X75012333Y-59918855D02*
X75126618Y-59956950D01*
X75126618Y-59956950D02*
X75164714Y-59995045D01*
X75431380Y-59918855D02*
X75926618Y-59918855D01*
X75926618Y-59918855D02*
X75659952Y-60223617D01*
X75659952Y-60223617D02*
X75774237Y-60223617D01*
X75774237Y-60223617D02*
X75850428Y-60261712D01*
X75850428Y-60261712D02*
X75888523Y-60299807D01*
X75888523Y-60299807D02*
X75926618Y-60375998D01*
X75926618Y-60375998D02*
X75926618Y-60566474D01*
X75926618Y-60566474D02*
X75888523Y-60642664D01*
X75888523Y-60642664D02*
X75850428Y-60680760D01*
X75850428Y-60680760D02*
X75774237Y-60718855D01*
X75774237Y-60718855D02*
X75545666Y-60718855D01*
X75545666Y-60718855D02*
X75469475Y-60680760D01*
X75469475Y-60680760D02*
X75431380Y-60642664D01*
X76231380Y-59995045D02*
X76269476Y-59956950D01*
X76269476Y-59956950D02*
X76345666Y-59918855D01*
X76345666Y-59918855D02*
X76536142Y-59918855D01*
X76536142Y-59918855D02*
X76612333Y-59956950D01*
X76612333Y-59956950D02*
X76650428Y-59995045D01*
X76650428Y-59995045D02*
X76688523Y-60071236D01*
X76688523Y-60071236D02*
X76688523Y-60147426D01*
X76688523Y-60147426D02*
X76650428Y-60261712D01*
X76650428Y-60261712D02*
X76193285Y-60718855D01*
X76193285Y-60718855D02*
X76688523Y-60718855D01*
X69133333Y-120363855D02*
X69133333Y-120935283D01*
X69133333Y-120935283D02*
X69095238Y-121049569D01*
X69095238Y-121049569D02*
X69019047Y-121125760D01*
X69019047Y-121125760D02*
X68904762Y-121163855D01*
X68904762Y-121163855D02*
X68828571Y-121163855D01*
X69933333Y-121163855D02*
X69476190Y-121163855D01*
X69704762Y-121163855D02*
X69704762Y-120363855D01*
X69704762Y-120363855D02*
X69628571Y-120478140D01*
X69628571Y-120478140D02*
X69552381Y-120554331D01*
X69552381Y-120554331D02*
X69476190Y-120592426D01*
X83982380Y-120363855D02*
X83982380Y-120935283D01*
X83982380Y-120935283D02*
X83944285Y-121049569D01*
X83944285Y-121049569D02*
X83868094Y-121125760D01*
X83868094Y-121125760D02*
X83753809Y-121163855D01*
X83753809Y-121163855D02*
X83677618Y-121163855D01*
X84782380Y-121163855D02*
X84325237Y-121163855D01*
X84553809Y-121163855D02*
X84553809Y-120363855D01*
X84553809Y-120363855D02*
X84477618Y-120478140D01*
X84477618Y-120478140D02*
X84401428Y-120554331D01*
X84401428Y-120554331D02*
X84325237Y-120592426D01*
X85468095Y-120630521D02*
X85468095Y-121163855D01*
X85277619Y-120325760D02*
X85087142Y-120897188D01*
X85087142Y-120897188D02*
X85582381Y-120897188D01*
X95590476Y-111263855D02*
X95590476Y-111911474D01*
X95590476Y-111911474D02*
X95628571Y-111987664D01*
X95628571Y-111987664D02*
X95666666Y-112025760D01*
X95666666Y-112025760D02*
X95742857Y-112063855D01*
X95742857Y-112063855D02*
X95895238Y-112063855D01*
X95895238Y-112063855D02*
X95971428Y-112025760D01*
X95971428Y-112025760D02*
X96009523Y-111987664D01*
X96009523Y-111987664D02*
X96047619Y-111911474D01*
X96047619Y-111911474D02*
X96047619Y-111263855D01*
X96771428Y-111530521D02*
X96771428Y-112063855D01*
X96580952Y-111225760D02*
X96390475Y-111797188D01*
X96390475Y-111797188D02*
X96885714Y-111797188D01*
X87735714Y-108187664D02*
X87697618Y-108225760D01*
X87697618Y-108225760D02*
X87583333Y-108263855D01*
X87583333Y-108263855D02*
X87507142Y-108263855D01*
X87507142Y-108263855D02*
X87392856Y-108225760D01*
X87392856Y-108225760D02*
X87316666Y-108149569D01*
X87316666Y-108149569D02*
X87278571Y-108073379D01*
X87278571Y-108073379D02*
X87240475Y-107920998D01*
X87240475Y-107920998D02*
X87240475Y-107806712D01*
X87240475Y-107806712D02*
X87278571Y-107654331D01*
X87278571Y-107654331D02*
X87316666Y-107578140D01*
X87316666Y-107578140D02*
X87392856Y-107501950D01*
X87392856Y-107501950D02*
X87507142Y-107463855D01*
X87507142Y-107463855D02*
X87583333Y-107463855D01*
X87583333Y-107463855D02*
X87697618Y-107501950D01*
X87697618Y-107501950D02*
X87735714Y-107540045D01*
X88421428Y-107730521D02*
X88421428Y-108263855D01*
X88230952Y-107425760D02*
X88040475Y-107997188D01*
X88040475Y-107997188D02*
X88535714Y-107997188D01*
X88802380Y-107540045D02*
X88840476Y-107501950D01*
X88840476Y-107501950D02*
X88916666Y-107463855D01*
X88916666Y-107463855D02*
X89107142Y-107463855D01*
X89107142Y-107463855D02*
X89183333Y-107501950D01*
X89183333Y-107501950D02*
X89221428Y-107540045D01*
X89221428Y-107540045D02*
X89259523Y-107616236D01*
X89259523Y-107616236D02*
X89259523Y-107692426D01*
X89259523Y-107692426D02*
X89221428Y-107806712D01*
X89221428Y-107806712D02*
X88764285Y-108263855D01*
X88764285Y-108263855D02*
X89259523Y-108263855D01*
X91178571Y-103263855D02*
X91178571Y-102463855D01*
X91635714Y-103263855D02*
X91292856Y-102806712D01*
X91635714Y-102463855D02*
X91178571Y-102920998D01*
X91902380Y-102463855D02*
X92397618Y-102463855D01*
X92397618Y-102463855D02*
X92130952Y-102768617D01*
X92130952Y-102768617D02*
X92245237Y-102768617D01*
X92245237Y-102768617D02*
X92321428Y-102806712D01*
X92321428Y-102806712D02*
X92359523Y-102844807D01*
X92359523Y-102844807D02*
X92397618Y-102920998D01*
X92397618Y-102920998D02*
X92397618Y-103111474D01*
X92397618Y-103111474D02*
X92359523Y-103187664D01*
X92359523Y-103187664D02*
X92321428Y-103225760D01*
X92321428Y-103225760D02*
X92245237Y-103263855D01*
X92245237Y-103263855D02*
X92016666Y-103263855D01*
X92016666Y-103263855D02*
X91940475Y-103225760D01*
X91940475Y-103225760D02*
X91902380Y-103187664D01*
X93159523Y-103263855D02*
X92702380Y-103263855D01*
X92930952Y-103263855D02*
X92930952Y-102463855D01*
X92930952Y-102463855D02*
X92854761Y-102578140D01*
X92854761Y-102578140D02*
X92778571Y-102654331D01*
X92778571Y-102654331D02*
X92702380Y-102692426D01*
X85433332Y-42825760D02*
X85547618Y-42863855D01*
X85547618Y-42863855D02*
X85738094Y-42863855D01*
X85738094Y-42863855D02*
X85814285Y-42825760D01*
X85814285Y-42825760D02*
X85852380Y-42787664D01*
X85852380Y-42787664D02*
X85890475Y-42711474D01*
X85890475Y-42711474D02*
X85890475Y-42635283D01*
X85890475Y-42635283D02*
X85852380Y-42559093D01*
X85852380Y-42559093D02*
X85814285Y-42520998D01*
X85814285Y-42520998D02*
X85738094Y-42482902D01*
X85738094Y-42482902D02*
X85585713Y-42444807D01*
X85585713Y-42444807D02*
X85509523Y-42406712D01*
X85509523Y-42406712D02*
X85471428Y-42368617D01*
X85471428Y-42368617D02*
X85433332Y-42292426D01*
X85433332Y-42292426D02*
X85433332Y-42216236D01*
X85433332Y-42216236D02*
X85471428Y-42140045D01*
X85471428Y-42140045D02*
X85509523Y-42101950D01*
X85509523Y-42101950D02*
X85585713Y-42063855D01*
X85585713Y-42063855D02*
X85776190Y-42063855D01*
X85776190Y-42063855D02*
X85890475Y-42101950D01*
X86157142Y-42063855D02*
X86347618Y-42863855D01*
X86347618Y-42863855D02*
X86499999Y-42292426D01*
X86499999Y-42292426D02*
X86652380Y-42863855D01*
X86652380Y-42863855D02*
X86842857Y-42063855D01*
X87566666Y-42863855D02*
X87109523Y-42863855D01*
X87338095Y-42863855D02*
X87338095Y-42063855D01*
X87338095Y-42063855D02*
X87261904Y-42178140D01*
X87261904Y-42178140D02*
X87185714Y-42254331D01*
X87185714Y-42254331D02*
X87109523Y-42292426D01*
X96852380Y-42713855D02*
X96852380Y-43285283D01*
X96852380Y-43285283D02*
X96814285Y-43399569D01*
X96814285Y-43399569D02*
X96738094Y-43475760D01*
X96738094Y-43475760D02*
X96623809Y-43513855D01*
X96623809Y-43513855D02*
X96547618Y-43513855D01*
X97652380Y-43513855D02*
X97195237Y-43513855D01*
X97423809Y-43513855D02*
X97423809Y-42713855D01*
X97423809Y-42713855D02*
X97347618Y-42828140D01*
X97347618Y-42828140D02*
X97271428Y-42904331D01*
X97271428Y-42904331D02*
X97195237Y-42942426D01*
X97919047Y-42713855D02*
X98414285Y-42713855D01*
X98414285Y-42713855D02*
X98147619Y-43018617D01*
X98147619Y-43018617D02*
X98261904Y-43018617D01*
X98261904Y-43018617D02*
X98338095Y-43056712D01*
X98338095Y-43056712D02*
X98376190Y-43094807D01*
X98376190Y-43094807D02*
X98414285Y-43170998D01*
X98414285Y-43170998D02*
X98414285Y-43361474D01*
X98414285Y-43361474D02*
X98376190Y-43437664D01*
X98376190Y-43437664D02*
X98338095Y-43475760D01*
X98338095Y-43475760D02*
X98261904Y-43513855D01*
X98261904Y-43513855D02*
X98033333Y-43513855D01*
X98033333Y-43513855D02*
X97957142Y-43475760D01*
X97957142Y-43475760D02*
X97919047Y-43437664D01*
X62733333Y-104763855D02*
X62733333Y-105335283D01*
X62733333Y-105335283D02*
X62695238Y-105449569D01*
X62695238Y-105449569D02*
X62619047Y-105525760D01*
X62619047Y-105525760D02*
X62504762Y-105563855D01*
X62504762Y-105563855D02*
X62428571Y-105563855D01*
X63495238Y-104763855D02*
X63114286Y-104763855D01*
X63114286Y-104763855D02*
X63076190Y-105144807D01*
X63076190Y-105144807D02*
X63114286Y-105106712D01*
X63114286Y-105106712D02*
X63190476Y-105068617D01*
X63190476Y-105068617D02*
X63380952Y-105068617D01*
X63380952Y-105068617D02*
X63457143Y-105106712D01*
X63457143Y-105106712D02*
X63495238Y-105144807D01*
X63495238Y-105144807D02*
X63533333Y-105220998D01*
X63533333Y-105220998D02*
X63533333Y-105411474D01*
X63533333Y-105411474D02*
X63495238Y-105487664D01*
X63495238Y-105487664D02*
X63457143Y-105525760D01*
X63457143Y-105525760D02*
X63380952Y-105563855D01*
X63380952Y-105563855D02*
X63190476Y-105563855D01*
X63190476Y-105563855D02*
X63114286Y-105525760D01*
X63114286Y-105525760D02*
X63076190Y-105487664D01*
X103983333Y-71463855D02*
X103983333Y-72035283D01*
X103983333Y-72035283D02*
X103945238Y-72149569D01*
X103945238Y-72149569D02*
X103869047Y-72225760D01*
X103869047Y-72225760D02*
X103754762Y-72263855D01*
X103754762Y-72263855D02*
X103678571Y-72263855D01*
X104326190Y-71540045D02*
X104364286Y-71501950D01*
X104364286Y-71501950D02*
X104440476Y-71463855D01*
X104440476Y-71463855D02*
X104630952Y-71463855D01*
X104630952Y-71463855D02*
X104707143Y-71501950D01*
X104707143Y-71501950D02*
X104745238Y-71540045D01*
X104745238Y-71540045D02*
X104783333Y-71616236D01*
X104783333Y-71616236D02*
X104783333Y-71692426D01*
X104783333Y-71692426D02*
X104745238Y-71806712D01*
X104745238Y-71806712D02*
X104288095Y-72263855D01*
X104288095Y-72263855D02*
X104783333Y-72263855D01*
X92233333Y-45363855D02*
X92233333Y-45935283D01*
X92233333Y-45935283D02*
X92195238Y-46049569D01*
X92195238Y-46049569D02*
X92119047Y-46125760D01*
X92119047Y-46125760D02*
X92004762Y-46163855D01*
X92004762Y-46163855D02*
X91928571Y-46163855D01*
X92957143Y-45630521D02*
X92957143Y-46163855D01*
X92766667Y-45325760D02*
X92576190Y-45897188D01*
X92576190Y-45897188D02*
X93071429Y-45897188D01*
X100352380Y-97613855D02*
X100352380Y-98185283D01*
X100352380Y-98185283D02*
X100314285Y-98299569D01*
X100314285Y-98299569D02*
X100238094Y-98375760D01*
X100238094Y-98375760D02*
X100123809Y-98413855D01*
X100123809Y-98413855D02*
X100047618Y-98413855D01*
X101152380Y-98413855D02*
X100695237Y-98413855D01*
X100923809Y-98413855D02*
X100923809Y-97613855D01*
X100923809Y-97613855D02*
X100847618Y-97728140D01*
X100847618Y-97728140D02*
X100771428Y-97804331D01*
X100771428Y-97804331D02*
X100695237Y-97842426D01*
X101647619Y-97613855D02*
X101723809Y-97613855D01*
X101723809Y-97613855D02*
X101800000Y-97651950D01*
X101800000Y-97651950D02*
X101838095Y-97690045D01*
X101838095Y-97690045D02*
X101876190Y-97766236D01*
X101876190Y-97766236D02*
X101914285Y-97918617D01*
X101914285Y-97918617D02*
X101914285Y-98109093D01*
X101914285Y-98109093D02*
X101876190Y-98261474D01*
X101876190Y-98261474D02*
X101838095Y-98337664D01*
X101838095Y-98337664D02*
X101800000Y-98375760D01*
X101800000Y-98375760D02*
X101723809Y-98413855D01*
X101723809Y-98413855D02*
X101647619Y-98413855D01*
X101647619Y-98413855D02*
X101571428Y-98375760D01*
X101571428Y-98375760D02*
X101533333Y-98337664D01*
X101533333Y-98337664D02*
X101495238Y-98261474D01*
X101495238Y-98261474D02*
X101457142Y-98109093D01*
X101457142Y-98109093D02*
X101457142Y-97918617D01*
X101457142Y-97918617D02*
X101495238Y-97766236D01*
X101495238Y-97766236D02*
X101533333Y-97690045D01*
X101533333Y-97690045D02*
X101571428Y-97651950D01*
X101571428Y-97651950D02*
X101647619Y-97613855D01*
X79733333Y-120163855D02*
X79733333Y-120735283D01*
X79733333Y-120735283D02*
X79695238Y-120849569D01*
X79695238Y-120849569D02*
X79619047Y-120925760D01*
X79619047Y-120925760D02*
X79504762Y-120963855D01*
X79504762Y-120963855D02*
X79428571Y-120963855D01*
X80457143Y-120163855D02*
X80304762Y-120163855D01*
X80304762Y-120163855D02*
X80228571Y-120201950D01*
X80228571Y-120201950D02*
X80190476Y-120240045D01*
X80190476Y-120240045D02*
X80114286Y-120354331D01*
X80114286Y-120354331D02*
X80076190Y-120506712D01*
X80076190Y-120506712D02*
X80076190Y-120811474D01*
X80076190Y-120811474D02*
X80114286Y-120887664D01*
X80114286Y-120887664D02*
X80152381Y-120925760D01*
X80152381Y-120925760D02*
X80228571Y-120963855D01*
X80228571Y-120963855D02*
X80380952Y-120963855D01*
X80380952Y-120963855D02*
X80457143Y-120925760D01*
X80457143Y-120925760D02*
X80495238Y-120887664D01*
X80495238Y-120887664D02*
X80533333Y-120811474D01*
X80533333Y-120811474D02*
X80533333Y-120620998D01*
X80533333Y-120620998D02*
X80495238Y-120544807D01*
X80495238Y-120544807D02*
X80457143Y-120506712D01*
X80457143Y-120506712D02*
X80380952Y-120468617D01*
X80380952Y-120468617D02*
X80228571Y-120468617D01*
X80228571Y-120468617D02*
X80152381Y-120506712D01*
X80152381Y-120506712D02*
X80114286Y-120544807D01*
X80114286Y-120544807D02*
X80076190Y-120620998D01*
%TO.C,R44*%
X86083936Y-49465000D02*
X86538064Y-49465000D01*
X86083936Y-50935000D02*
X86538064Y-50935000D01*
%TO.C,R45*%
X82712936Y-49465000D02*
X83167064Y-49465000D01*
X82712936Y-50935000D02*
X83167064Y-50935000D01*
%TO.C,C8*%
X67383000Y-80121252D02*
X67383000Y-79598748D01*
X68853000Y-80121252D02*
X68853000Y-79598748D01*
%TO.C,C7*%
X64785000Y-74841252D02*
X64785000Y-74318748D01*
X66255000Y-74841252D02*
X66255000Y-74318748D01*
%TO.C,U2*%
X69737000Y-82080000D02*
X69737000Y-81355000D01*
X70462000Y-82080000D02*
X69737000Y-82080000D01*
X73957000Y-82080000D02*
X73232000Y-82080000D01*
X73957000Y-81355000D02*
X73957000Y-82080000D01*
X69737000Y-78585000D02*
X69737000Y-77860000D01*
X69737000Y-77860000D02*
X70462000Y-77860000D01*
X73232000Y-77860000D02*
X73957000Y-77860000D01*
X73957000Y-77860000D02*
X73957000Y-78585000D01*
X70847000Y-82580000D02*
X71087000Y-82910000D01*
X70607000Y-82910000D01*
X70847000Y-82580000D01*
G36*
X71087000Y-82910000D02*
G01*
X70607000Y-82910000D01*
X70847000Y-82580000D01*
X71087000Y-82910000D01*
G37*
%TO.C,R6*%
X80437064Y-91155000D02*
X79982936Y-91155000D01*
X80437064Y-89685000D02*
X79982936Y-89685000D01*
%TO.C,R7*%
X83827064Y-91155000D02*
X83372936Y-91155000D01*
X83827064Y-89685000D02*
X83372936Y-89685000D01*
%TO.C,R16*%
X80605000Y-84047064D02*
X80605000Y-83592936D01*
X82075000Y-84047064D02*
X82075000Y-83592936D01*
%TO.C,R17*%
X79660000Y-79427064D02*
X79660000Y-78972936D01*
X81130000Y-79427064D02*
X81130000Y-78972936D01*
%TO.C,R15*%
X80605000Y-74807064D02*
X80605000Y-74352936D01*
X82075000Y-74807064D02*
X82075000Y-74352936D01*
%TO.C,LED4*%
X81485000Y-80385000D02*
X83405000Y-80385000D01*
X83405000Y-80385000D02*
X83405000Y-77700000D01*
X81485000Y-77700000D02*
X81485000Y-80385000D01*
%TO.C,R8*%
X76765000Y-74427064D02*
X76765000Y-73972936D01*
X78235000Y-74427064D02*
X78235000Y-73972936D01*
%TO.C,LED3*%
X71747000Y-70885000D02*
X73667000Y-70885000D01*
X73667000Y-70885000D02*
X73667000Y-68200000D01*
X71747000Y-68200000D02*
X71747000Y-70885000D01*
%TO.C,R14*%
X76248000Y-69427064D02*
X76248000Y-68972936D01*
X77718000Y-69427064D02*
X77718000Y-68972936D01*
%TO.C,R41*%
X89835000Y-79267064D02*
X89835000Y-77812936D01*
X91655000Y-79267064D02*
X91655000Y-77812936D01*
%TO.C,U3*%
X67390000Y-75700000D02*
X67390000Y-72480000D01*
X67590000Y-75700000D02*
X67390000Y-75700000D01*
X70610000Y-75700000D02*
X70410000Y-75700000D01*
X67390000Y-72480000D02*
X67590000Y-72480000D01*
X70410000Y-72480000D02*
X70610000Y-72480000D01*
X70610000Y-72480000D02*
X70610000Y-75700000D01*
X67590000Y-76250000D02*
X67260000Y-76490000D01*
X67260000Y-76010000D01*
X67590000Y-76250000D01*
G36*
X67590000Y-76250000D02*
G01*
X67260000Y-76490000D01*
X67260000Y-76010000D01*
X67590000Y-76250000D01*
G37*
%TO.C,C41*%
X72765000Y-74461252D02*
X72765000Y-73938748D01*
X74235000Y-74461252D02*
X74235000Y-73938748D01*
%TO.C,R42*%
X69290000Y-69427064D02*
X69290000Y-68972936D01*
X70760000Y-69427064D02*
X70760000Y-68972936D01*
%TO.C,R43*%
X88356000Y-51707064D02*
X88356000Y-51252936D01*
X89826000Y-51707064D02*
X89826000Y-51252936D01*
%TO.C,U1*%
X66800000Y-60850000D02*
X66800000Y-60150000D01*
X67500000Y-60850000D02*
X66800000Y-60850000D01*
X71020000Y-60850000D02*
X70320000Y-60850000D01*
X71020000Y-60150000D02*
X71020000Y-60850000D01*
X66800000Y-57330000D02*
X66800000Y-56630000D01*
X66800000Y-56630000D02*
X67500000Y-56630000D01*
X70320000Y-56630000D02*
X71020000Y-56630000D01*
X71020000Y-56630000D02*
X71020000Y-57330000D01*
X67930000Y-61380000D02*
X68170000Y-61710000D01*
X67690000Y-61710000D01*
X67930000Y-61380000D01*
G36*
X68170000Y-61710000D02*
G01*
X67690000Y-61710000D01*
X67930000Y-61380000D01*
X68170000Y-61710000D01*
G37*
%TO.C,L1*%
X64645000Y-70090000D02*
X64645000Y-65870000D01*
X68865000Y-65870000D02*
X68865000Y-70090000D01*
%TO.C,C1*%
X74053000Y-70221252D02*
X74053000Y-69698748D01*
X75523000Y-70221252D02*
X75523000Y-69698748D01*
%TO.C,C4*%
X73260000Y-65946252D02*
X73260000Y-65423748D01*
X74730000Y-65946252D02*
X74730000Y-65423748D01*
%TO.C,C2*%
X74821252Y-61455000D02*
X74298748Y-61455000D01*
X74821252Y-59985000D02*
X74298748Y-59985000D01*
%TO.C,C6*%
X76401252Y-52780000D02*
X74978748Y-52780000D01*
X76401252Y-50960000D02*
X74978748Y-50960000D01*
%TO.C,C9*%
X76401252Y-50330000D02*
X74978748Y-50330000D01*
X76401252Y-48510000D02*
X74978748Y-48510000D01*
%TO.C,R3*%
X75917064Y-56175000D02*
X75462936Y-56175000D01*
X75917064Y-54705000D02*
X75462936Y-54705000D01*
%TO.C,R4*%
X80437064Y-55620000D02*
X79982936Y-55620000D01*
X80437064Y-54150000D02*
X79982936Y-54150000D01*
%TO.C,R1*%
X78297000Y-70187064D02*
X78297000Y-69732936D01*
X79767000Y-70187064D02*
X79767000Y-69732936D01*
%TO.C,R2*%
X77644000Y-65303064D02*
X77644000Y-64848936D01*
X79114000Y-65303064D02*
X79114000Y-64848936D01*
%TO.C,R13*%
X79265000Y-52458064D02*
X79265000Y-52003936D01*
X80735000Y-52458064D02*
X80735000Y-52003936D01*
%TO.C,Q1*%
X79618000Y-65490000D02*
X79618000Y-63970000D01*
X79668000Y-65490000D02*
X79618000Y-65490000D01*
X81568000Y-65490000D02*
X80788000Y-65490000D01*
X82738000Y-65490000D02*
X82688000Y-65490000D01*
X79618000Y-63970000D02*
X80618000Y-63970000D01*
X81738000Y-63970000D02*
X82738000Y-63970000D01*
X82738000Y-63970000D02*
X82738000Y-65490000D01*
X80798000Y-66030000D02*
X81128000Y-65790000D01*
X81128000Y-66270000D01*
X80798000Y-66030000D01*
G36*
X81128000Y-66270000D02*
G01*
X80798000Y-66030000D01*
X81128000Y-65790000D01*
X81128000Y-66270000D01*
G37*
%TO.C,R20*%
X83144000Y-61607064D02*
X83144000Y-61152936D01*
X84614000Y-61607064D02*
X84614000Y-61152936D01*
%TO.C,LED1*%
X82640000Y-58445000D02*
X84560000Y-58445000D01*
X84560000Y-58445000D02*
X84560000Y-55760000D01*
X82640000Y-55760000D02*
X82640000Y-58445000D01*
%TO.C,R5*%
X78910000Y-61299064D02*
X78910000Y-60844936D01*
X80380000Y-61299064D02*
X80380000Y-60844936D01*
%TO.C,LED2*%
X78685000Y-59247000D02*
X80605000Y-59247000D01*
X80605000Y-59247000D02*
X80605000Y-56562000D01*
X78685000Y-56562000D02*
X78685000Y-59247000D01*
%TO.C,C31*%
X65738748Y-93965000D02*
X66261252Y-93965000D01*
X65738748Y-95435000D02*
X66261252Y-95435000D01*
%TO.C,R32*%
X69772936Y-93965000D02*
X70227064Y-93965000D01*
X69772936Y-95435000D02*
X70227064Y-95435000D01*
%TO.C,R31*%
X73772936Y-93965000D02*
X74227064Y-93965000D01*
X73772936Y-95435000D02*
X74227064Y-95435000D01*
%TO.C,D31*%
X77140000Y-97700000D02*
X77140000Y-99700000D01*
X77140000Y-97700000D02*
X81150000Y-97700000D01*
X77140000Y-99700000D02*
X81150000Y-99700000D01*
%TO.C,Q31*%
X83240000Y-97140000D02*
X84760000Y-97140000D01*
X83240000Y-97190000D02*
X83240000Y-97140000D01*
X83240000Y-99090000D02*
X83240000Y-98310000D01*
X83240000Y-100260000D02*
X83240000Y-100210000D01*
X84760000Y-97140000D02*
X84760000Y-98140000D01*
X84760000Y-99260000D02*
X84760000Y-100260000D01*
X84760000Y-100260000D02*
X83240000Y-100260000D01*
X82700000Y-98320000D02*
X82940000Y-98650000D01*
X82460000Y-98650000D01*
X82700000Y-98320000D01*
G36*
X82940000Y-98650000D02*
G01*
X82460000Y-98650000D01*
X82700000Y-98320000D01*
X82940000Y-98650000D01*
G37*
%TO.C,C32*%
X75417748Y-62120000D02*
X75940252Y-62120000D01*
X75417748Y-63590000D02*
X75940252Y-63590000D01*
%TO.C,J1*%
X70730000Y-117030000D02*
X70730000Y-101730000D01*
X70730000Y-117030000D02*
X68070000Y-117030000D01*
X70730000Y-101730000D02*
X68070000Y-101730000D01*
X69400000Y-119630000D02*
X68070000Y-119630000D01*
X68070000Y-119630000D02*
X68070000Y-118300000D01*
X68070000Y-117030000D02*
X68070000Y-101730000D01*
%TO.C,J14*%
X85960000Y-117030000D02*
X85960000Y-101730000D01*
X85960000Y-117030000D02*
X83300000Y-117030000D01*
X85960000Y-101730000D02*
X83300000Y-101730000D01*
X84630000Y-119630000D02*
X83300000Y-119630000D01*
X83300000Y-119630000D02*
X83300000Y-118300000D01*
X83300000Y-117030000D02*
X83300000Y-101730000D01*
%TO.C,U4*%
X94140000Y-111640000D02*
X98260000Y-111640000D01*
X94140000Y-111735000D02*
X94140000Y-111640000D01*
X94140000Y-116760000D02*
X94140000Y-116665000D01*
X98260000Y-111640000D02*
X98260000Y-111735000D01*
X98260000Y-116665000D02*
X98260000Y-116760000D01*
X98260000Y-116760000D02*
X94140000Y-116760000D01*
X93600000Y-111730000D02*
X93360000Y-111400000D01*
X93840000Y-111400000D01*
X93600000Y-111730000D01*
G36*
X93600000Y-111730000D02*
G01*
X93360000Y-111400000D01*
X93840000Y-111400000D01*
X93600000Y-111730000D01*
G37*
%TO.C,C42*%
X87988748Y-109665000D02*
X88511252Y-109665000D01*
X87988748Y-111135000D02*
X88511252Y-111135000D01*
%TO.C,K31*%
X87450000Y-108000000D02*
X87450000Y-106800000D01*
X87050000Y-106800000D02*
X87050000Y-99100000D01*
X87450000Y-106800000D02*
X87050000Y-106800000D01*
X89150000Y-106800000D02*
X89150000Y-108000000D01*
X89150000Y-106800000D02*
X92450000Y-106800000D01*
X94150000Y-106800000D02*
X95150000Y-106800000D01*
X96750000Y-106800000D02*
X97650000Y-106800000D01*
X99350000Y-106800000D02*
X102150000Y-106800000D01*
X102150000Y-106800000D02*
X102150000Y-99100000D01*
X87050000Y-99100000D02*
X87450000Y-99100000D01*
X89150000Y-99100000D02*
X92450000Y-99100000D01*
X95150000Y-99100000D02*
X94150000Y-99100000D01*
X97650000Y-99100000D02*
X96750000Y-99100000D01*
X102150000Y-99100000D02*
X99350000Y-99100000D01*
%TO.C,SW1*%
X81700000Y-39750000D02*
X91300000Y-39750000D01*
X81700000Y-39750000D02*
X81700000Y-43750000D01*
X91300000Y-39750000D02*
X91300000Y-43750000D01*
X81700000Y-43750000D02*
X82700000Y-43750000D01*
X90300000Y-43750000D02*
X91300000Y-43750000D01*
%TO.C,J13*%
X102200000Y-42550000D02*
X102200000Y-40550000D01*
X102200000Y-38650000D02*
X102200000Y-36750000D01*
X102200000Y-36750000D02*
X92800000Y-36750000D01*
X92800000Y-42550000D02*
X92800000Y-40550000D01*
X92800000Y-38650000D02*
X92800000Y-36750000D01*
%TO.C,J5*%
X60940000Y-106240000D02*
X60940000Y-114060000D01*
X60940000Y-107840000D02*
X61860000Y-107840000D01*
X60940000Y-114060000D02*
X67060000Y-114060000D01*
X61860000Y-106240000D02*
X60940000Y-106240000D01*
X61860000Y-107840000D02*
X61860000Y-106240000D01*
X62140000Y-107840000D02*
X61860000Y-107840000D01*
X62140000Y-107840000D02*
X62140000Y-106625000D01*
X62200000Y-111800000D02*
X62200000Y-114060000D01*
X62700000Y-111800000D02*
X62700000Y-114060000D01*
X63500000Y-109700000D02*
X64500000Y-109700000D01*
X63500000Y-114060000D02*
X63500000Y-109700000D01*
X64500000Y-109700000D02*
X64500000Y-114060000D01*
X66140000Y-106240000D02*
X66140000Y-107840000D01*
X66140000Y-107840000D02*
X65860000Y-107840000D01*
X67060000Y-106240000D02*
X66140000Y-106240000D01*
X67060000Y-107840000D02*
X66140000Y-107840000D01*
X67060000Y-114060000D02*
X67060000Y-106240000D01*
X61700000Y-110200000D02*
X62700000Y-110200000D01*
X62700000Y-111800000D01*
X61700000Y-111800000D01*
X61700000Y-110200000D01*
X65300000Y-110200000D02*
X66300000Y-110200000D01*
X66300000Y-111800000D01*
X65300000Y-111800000D01*
X65300000Y-110200000D01*
%TO.C,J2*%
X103210000Y-69840000D02*
X95390000Y-69840000D01*
X101610000Y-69840000D02*
X101610000Y-70760000D01*
X95390000Y-69840000D02*
X95390000Y-79960000D01*
X103210000Y-70760000D02*
X103210000Y-69840000D01*
X101610000Y-70760000D02*
X103210000Y-70760000D01*
X101610000Y-71040000D02*
X101610000Y-70760000D01*
X101610000Y-71040000D02*
X102825000Y-71040000D01*
X97650000Y-71100000D02*
X95390000Y-71100000D01*
X97650000Y-71600000D02*
X95390000Y-71600000D01*
X99750000Y-72400000D02*
X99750000Y-77400000D01*
X95390000Y-72400000D02*
X99750000Y-72400000D01*
X99750000Y-77400000D02*
X95390000Y-77400000D01*
X103210000Y-79040000D02*
X101610000Y-79040000D01*
X101610000Y-79040000D02*
X101610000Y-78760000D01*
X103210000Y-79960000D02*
X103210000Y-79040000D01*
X101610000Y-79960000D02*
X101610000Y-79040000D01*
X95390000Y-79960000D02*
X103210000Y-79960000D01*
X97650000Y-70600000D02*
X99250000Y-70600000D01*
X99250000Y-71600000D01*
X97650000Y-71600000D01*
X97650000Y-70600000D01*
X97650000Y-78200000D02*
X99250000Y-78200000D01*
X99250000Y-79200000D01*
X97650000Y-79200000D01*
X97650000Y-78200000D01*
%TO.C,J4*%
X90440000Y-46840000D02*
X90440000Y-54660000D01*
X90440000Y-48440000D02*
X91360000Y-48440000D01*
X90440000Y-54660000D02*
X96560000Y-54660000D01*
X91360000Y-46840000D02*
X90440000Y-46840000D01*
X91360000Y-48440000D02*
X91360000Y-46840000D01*
X91640000Y-48440000D02*
X91360000Y-48440000D01*
X91640000Y-48440000D02*
X91640000Y-47225000D01*
X91700000Y-52400000D02*
X91700000Y-54660000D01*
X92200000Y-52400000D02*
X92200000Y-54660000D01*
X93000000Y-50300000D02*
X94000000Y-50300000D01*
X93000000Y-54660000D02*
X93000000Y-50300000D01*
X94000000Y-50300000D02*
X94000000Y-54660000D01*
X95640000Y-46840000D02*
X95640000Y-48440000D01*
X95640000Y-48440000D02*
X95360000Y-48440000D01*
X96560000Y-46840000D02*
X95640000Y-46840000D01*
X96560000Y-48440000D02*
X95640000Y-48440000D01*
X96560000Y-54660000D02*
X96560000Y-46840000D01*
X91200000Y-50800000D02*
X92200000Y-50800000D01*
X92200000Y-52400000D01*
X91200000Y-52400000D01*
X91200000Y-50800000D01*
X94800000Y-50800000D02*
X95800000Y-50800000D01*
X95800000Y-52400000D01*
X94800000Y-52400000D01*
X94800000Y-50800000D01*
%TO.C,J10*%
X103060000Y-97010000D02*
X103060000Y-89190000D01*
X103060000Y-95410000D02*
X102140000Y-95410000D01*
X103060000Y-89190000D02*
X96940000Y-89190000D01*
X102140000Y-97010000D02*
X103060000Y-97010000D01*
X102140000Y-95410000D02*
X102140000Y-97010000D01*
X101860000Y-95410000D02*
X102140000Y-95410000D01*
X101860000Y-95410000D02*
X101860000Y-96625000D01*
X101800000Y-91450000D02*
X101800000Y-89190000D01*
X101300000Y-91450000D02*
X101300000Y-89190000D01*
X100500000Y-93550000D02*
X99500000Y-93550000D01*
X100500000Y-89190000D02*
X100500000Y-93550000D01*
X99500000Y-93550000D02*
X99500000Y-89190000D01*
X97860000Y-97010000D02*
X97860000Y-95410000D01*
X97860000Y-95410000D02*
X98140000Y-95410000D01*
X96940000Y-97010000D02*
X97860000Y-97010000D01*
X96940000Y-95410000D02*
X97860000Y-95410000D01*
X96940000Y-89190000D02*
X96940000Y-97010000D01*
X101300000Y-91450000D02*
X102300000Y-91450000D01*
X102300000Y-93050000D01*
X101300000Y-93050000D01*
X101300000Y-91450000D01*
X97700000Y-91450000D02*
X98700000Y-91450000D01*
X98700000Y-93050000D01*
X97700000Y-93050000D01*
X97700000Y-91450000D01*
%TO.C,J6*%
X82060000Y-119560000D02*
X82060000Y-111740000D01*
X82060000Y-117960000D02*
X81140000Y-117960000D01*
X82060000Y-111740000D02*
X71940000Y-111740000D01*
X81140000Y-119560000D02*
X82060000Y-119560000D01*
X81140000Y-117960000D02*
X81140000Y-119560000D01*
X80860000Y-117960000D02*
X81140000Y-117960000D01*
X80860000Y-117960000D02*
X80860000Y-119175000D01*
X80800000Y-114000000D02*
X80800000Y-111740000D01*
X80300000Y-114000000D02*
X80300000Y-111740000D01*
X79500000Y-116100000D02*
X74500000Y-116100000D01*
X79500000Y-111740000D02*
X79500000Y-116100000D01*
X74500000Y-116100000D02*
X74500000Y-111740000D01*
X72860000Y-119560000D02*
X72860000Y-117960000D01*
X72860000Y-117960000D02*
X73140000Y-117960000D01*
X71940000Y-119560000D02*
X72860000Y-119560000D01*
X71940000Y-117960000D02*
X72860000Y-117960000D01*
X71940000Y-111740000D02*
X71940000Y-119560000D01*
X80300000Y-114000000D02*
X81300000Y-114000000D01*
X81300000Y-115600000D01*
X80300000Y-115600000D01*
X80300000Y-114000000D01*
X72700000Y-114000000D02*
X73700000Y-114000000D01*
X73700000Y-115600000D01*
X72700000Y-115600000D01*
X72700000Y-114000000D01*
%TD*%
M02*
