%TF.GenerationSoftware,KiCad,Pcbnew,10.0.6*%
%TF.CreationDate,2026-09-12T18:39:02+09:00*%
%TF.ProjectId,hub_power,6875625f-706f-4776-9572-2e6b69636164,rev?*%
%TF.SameCoordinates,Original*%
%TF.FileFunction,Profile,NP*%
%FSLAX46Y46*%
G04 Gerber Fmt 4.6, Leading zero omitted, Abs format (unit mm)*
G04 Created by KiCad (PCBNEW 10.0.6) date 2026-09-12 18:39:02*
%MOMM*%
%LPD*%
G01*
G04 APERTURE LIST*
%TA.AperFunction,Profile*%
%ADD10C,0.100000*%
%TD*%
G04 APERTURE END LIST*
D10*
X60000000Y-40000000D02*
X134000000Y-40000000D01*
X134000000Y-40000000D02*
X134000000Y-92000000D01*
X60000000Y-92000000D02*
X60000000Y-40000000D01*
X60000000Y-92000000D02*
X68000000Y-92000000D01*
X72000000Y-92000000D02*
X86000000Y-92000000D01*
X90000000Y-92000000D02*
X134000000Y-92000000D01*
X105000000Y-94000000D02*
X105000000Y-126000000D01*
X105000000Y-126000000D02*
X65000000Y-126000000D01*
X65000000Y-126000000D02*
X65000000Y-94000000D01*
X65000000Y-94000000D02*
X68000000Y-94000000D01*
X72000000Y-94000000D02*
X86000000Y-94000000D01*
X90000000Y-94000000D02*
X105000000Y-94000000D01*
X68000000Y-92000000D02*
X68000000Y-94000000D01*
X72000000Y-92000000D02*
X72000000Y-94000000D01*
X68800000Y-93000000D02*
G75*
G02*
X68200000Y-93000000I-300000J0D01*
G01*
X68200000Y-93000000D02*
G75*
G02*
X68800000Y-93000000I300000J0D01*
G01*
X69550000Y-93000000D02*
G75*
G02*
X68950000Y-93000000I-300000J0D01*
G01*
X68950000Y-93000000D02*
G75*
G02*
X69550000Y-93000000I300000J0D01*
G01*
X70300000Y-93000000D02*
G75*
G02*
X69700000Y-93000000I-300000J0D01*
G01*
X69700000Y-93000000D02*
G75*
G02*
X70300000Y-93000000I300000J0D01*
G01*
X71050000Y-93000000D02*
G75*
G02*
X70450000Y-93000000I-300000J0D01*
G01*
X70450000Y-93000000D02*
G75*
G02*
X71050000Y-93000000I300000J0D01*
G01*
X71800000Y-93000000D02*
G75*
G02*
X71200000Y-93000000I-300000J0D01*
G01*
X71200000Y-93000000D02*
G75*
G02*
X71800000Y-93000000I300000J0D01*
G01*
X86000000Y-92000000D02*
X86000000Y-94000000D01*
X90000000Y-92000000D02*
X90000000Y-94000000D01*
X86800000Y-93000000D02*
G75*
G02*
X86200000Y-93000000I-300000J0D01*
G01*
X86200000Y-93000000D02*
G75*
G02*
X86800000Y-93000000I300000J0D01*
G01*
X87550000Y-93000000D02*
G75*
G02*
X86950000Y-93000000I-300000J0D01*
G01*
X86950000Y-93000000D02*
G75*
G02*
X87550000Y-93000000I300000J0D01*
G01*
X88300000Y-93000000D02*
G75*
G02*
X87700000Y-93000000I-300000J0D01*
G01*
X87700000Y-93000000D02*
G75*
G02*
X88300000Y-93000000I300000J0D01*
G01*
X89050000Y-93000000D02*
G75*
G02*
X88450000Y-93000000I-300000J0D01*
G01*
X88450000Y-93000000D02*
G75*
G02*
X89050000Y-93000000I300000J0D01*
G01*
X89800000Y-93000000D02*
G75*
G02*
X89200000Y-93000000I-300000J0D01*
G01*
X89200000Y-93000000D02*
G75*
G02*
X89800000Y-93000000I300000J0D01*
G01*
M02*
