solid OpenSCAD_Model
  facet normal -1 0 0
    outer loop
      vertex 8 2.8000000000000007 42.354
      vertex 8 2.8000000000000007 43.954
      vertex 8 4.4 42.354
    endloop
  endfacet
  facet normal 0 1 0
    outer loop
      vertex 13.199999999999996 4.4 42.354
      vertex 13.199999999999996 4.4 43.954
      vertex 43.034 4.4 42.354
    endloop
  endfacet
  facet normal -1 0 0
    outer loop
      vertex 8 4.4 43.954
      vertex 8 4.4 42.354
      vertex 8 2.8000000000000007 43.954
    endloop
  endfacet
  facet normal 0 -1 0
    outer loop
      vertex 8 2.8000000000000007 43.954
      vertex 8 2.8000000000000007 42.354
      vertex 43.034 2.8000000000000007 43.954
    endloop
  endfacet
  facet normal 0 -1 0
    outer loop
      vertex 43.034 2.8000000000000007 42.354
      vertex 43.034 2.8000000000000007 43.954
      vertex 8 2.8000000000000007 42.354
    endloop
  endfacet
  facet normal 0 1 0
    outer loop
      vertex 43.034 4.4 42.354
      vertex 13.199999999999996 4.4 43.954
      vertex 43.034 4.4 43.954
    endloop
  endfacet
  facet normal -1 0 0
    outer loop
      vertex 12.5 0 42.354
      vertex 12.5 0 43.954
      vertex 12.5 2.8 42.354
    endloop
  endfacet
  facet normal 0 1 0
    outer loop
      vertex 12.5 2.8 42.354
      vertex 12.5 2.8 43.954
      vertex 43.034 2.8 42.354
    endloop
  endfacet
  facet normal -1 0 0
    outer loop
      vertex 12.5 2.8 43.954
      vertex 12.5 2.8 42.354
      vertex 12.5 0 43.954
    endloop
  endfacet
  facet normal 0 -1 0
    outer loop
      vertex 12.5 0 43.954
      vertex 12.5 0 42.354
      vertex 43.034 0 43.954
    endloop
  endfacet
  facet normal 0 -1 0
    outer loop
      vertex 43.034 0 42.354
      vertex 43.034 0 43.954
      vertex 12.5 0 42.354
    endloop
  endfacet
  facet normal 0 1 0
    outer loop
      vertex 43.034 2.8 42.354
      vertex 12.5 2.8 43.954
      vertex 43.034 2.8 43.954
    endloop
  endfacet
  facet normal -0.5555702346486368 -0.8314696112140592 0
    outer loop
      vertex 10.349999994039536 9.245963740348817 42.754000000000005
      vertex 10.349999994039536 9.245963740348817 43.954
      vertex 9.33851870894432 9.92181393057108 42.754000000000005
    endloop
  endfacet
  facet normal -0.8314696112140593 -0.5555702346486365 0
    outer loop
      vertex 7.621813930571079 11.638518708944321 42.754000000000005
      vertex 6.966000000000001 12.620013612510492 43.954
      vertex 6.966000000000001 12.620013612510492 42.754000000000005
    endloop
  endfacet
  facet normal 0 0 -1
    outer loop
      vertex 15 7.999999995529652 42.754000000000005
      vertex 22.417475729354848 25.24563106766129 42.754000000000005
      vertex 23 7.999999995529652 42.754000000000005
    endloop
  endfacet
  facet normal -0.4422886872022405 -0.89687274302039 0
    outer loop
      vertex 10.349999994039536 9.245963740348817 42.754000000000005
      vertex 11.441044077277184 8.707920345664025 42.754000000000005
      vertex 11.441044077277184 8.707920345664025 43.954
    endloop
  endfacet
  facet normal -0.6593458133001829 -0.7518398090574351 0
    outer loop
      vertex 8.423906929790974 10.723906929790974 42.754000000000005
      vertex 9.33851870894432 9.92181393057108 42.754000000000005
      vertex 9.33851870894432 9.92181393057108 43.954
    endloop
  endfacet
  facet normal -0.7518398090574351 -0.6593458133001829 0
    outer loop
      vertex 7.621813930571079 11.638518708944321 42.754000000000005
      vertex 8.423906929790974 10.723906929790974 42.754000000000005
      vertex 8.423906929790974 10.723906929790974 43.954
    endloop
  endfacet
  facet normal -0.321439467002817 -0.9469301289181504 0
    outer loop
      vertex 11.441044077277184 8.707920345664025 42.754000000000005
      vertex 12.59298288077116 8.316889810562134 42.754000000000005
      vertex 12.59298288077116 8.316889810562134 43.954
    endloop
  endfacet
  facet normal -0.19509032125251483 -0.9807852805551226 0
    outer loop
      vertex 12.59298288077116 8.316889810562134 42.754000000000005
      vertex 13.786106407642365 8.079562786221505 42.754000000000005
      vertex 13.786106407642365 8.079562786221505 43.954
    endloop
  endfacet
  facet normal -0.06540313017921481 -0.9978589231763981 0
    outer loop
      vertex 13.786106407642365 8.079562786221505 42.754000000000005
      vertex 15 7.999999995529652 42.754000000000005
      vertex 15 7.999999995529652 43.954
    endloop
  endfacet
  facet normal -0.5555702346486368 -0.8314696112140592 0
    outer loop
      vertex 9.33851870894432 9.92181393057108 42.754000000000005
      vertex 10.349999994039536 9.245963740348817 43.954
      vertex 9.33851870894432 9.92181393057108 43.954
    endloop
  endfacet
  facet normal -0.4422886872022405 -0.89687274302039 0
    outer loop
      vertex 10.349999994039536 9.245963740348817 42.754000000000005
      vertex 11.441044077277184 8.707920345664025 43.954
      vertex 10.349999994039536 9.245963740348817 43.954
    endloop
  endfacet
  facet normal -0.7518398090574351 -0.6593458133001829 0
    outer loop
      vertex 7.621813930571079 11.638518708944321 42.754000000000005
      vertex 8.423906929790974 10.723906929790974 43.954
      vertex 7.621813930571079 11.638518708944321 43.954
    endloop
  endfacet
  facet normal -0.6593458133001829 -0.7518398090574351 0
    outer loop
      vertex 8.423906929790974 10.723906929790974 42.754000000000005
      vertex 9.33851870894432 9.92181393057108 43.954
      vertex 8.423906929790974 10.723906929790974 43.954
    endloop
  endfacet
  facet normal -0.8314696112140593 -0.5555702346486365 0
    outer loop
      vertex 7.621813930571079 11.638518708944321 42.754000000000005
      vertex 7.621813930571079 11.638518708944321 43.954
      vertex 6.966000000000001 12.620013612510492 43.954
    endloop
  endfacet
  facet normal -0.321439467002817 -0.9469301289181504 0
    outer loop
      vertex 11.441044077277184 8.707920345664025 42.754000000000005
      vertex 12.59298288077116 8.316889810562134 43.954
      vertex 11.441044077277184 8.707920345664025 43.954
    endloop
  endfacet
  facet normal -0.19509032125251483 -0.9807852805551226 0
    outer loop
      vertex 12.59298288077116 8.316889810562134 42.754000000000005
      vertex 13.786106407642365 8.079562786221505 43.954
      vertex 12.59298288077116 8.316889810562134 43.954
    endloop
  endfacet
  facet normal -0.06540313017921481 -0.9978589231763981 0
    outer loop
      vertex 13.786106407642365 8.079562786221505 42.754000000000005
      vertex 15 7.999999995529652 43.954
      vertex 13.786106407642365 8.079562786221505 43.954
    endloop
  endfacet
  facet normal 0 -1 0
    outer loop
      vertex 15 7.999999995529652 42.754000000000005
      vertex 23 7.999999995529652 42.754000000000005
      vertex 23 7.999999995529652 43.954
    endloop
  endfacet
  facet normal 0.06540313057892602 -0.9978589231501998 0
    outer loop
      vertex 23 7.999999995529652 42.754000000000005
      vertex 24.213893584907055 8.079562786221505 42.754000000000005
      vertex 24.213893584907055 8.079562786221505 43.954
    endloop
  endfacet
  facet normal 0.19509032206514013 -0.9807852803934813 5.23244565266171e-16
    outer loop
      vertex 24.213893584907055 8.079562786221505 42.754000000000005
      vertex 25.080991618335247 8.252039308845998 42.754000000000005
      vertex 25.080991618164013 8.252039308811938 43.954
    endloop
  endfacet
  facet normal 0 -1 0
    outer loop
      vertex 15 7.999999995529652 42.754000000000005
      vertex 23 7.999999995529652 43.954
      vertex 15 7.999999995529652 43.954
    endloop
  endfacet
  facet normal 0.06540313057892602 -0.9978589231501998 0
    outer loop
      vertex 23 7.999999995529652 42.754000000000005
      vertex 24.213893584907055 8.079562786221505 43.954
      vertex 23 7.999999995529652 43.954
    endloop
  endfacet
  facet normal 0.19509032206514082 -0.9807852803934812 0
    outer loop
      vertex 24.213893584907055 8.079562786221505 42.754000000000005
      vertex 25.080991618164013 8.252039308811938 43.954
      vertex 24.213893584907055 8.079562786221505 43.954
    endloop
  endfacet
  facet normal 0 0 -1
    outer loop
      vertex 7.621813930571079 11.638518708944321 42.754000000000005
      vertex 6.966000000000001 12.620013612510492 42.754000000000005
      vertex 12.919008389115334 26.347960683703423 42.754000000000005
    endloop
  endfacet
  facet normal 0 0 -1
    outer loop
      vertex 8.423906929790974 10.723906929790974 42.754000000000005
      vertex 12.919008389115334 26.347960683703423 42.754000000000005
      vertex 9.33851870894432 9.92181393057108 42.754000000000005
    endloop
  endfacet
  facet normal 0 0 -1
    outer loop
      vertex 10.349999994039536 9.245963740348817 42.754000000000005
      vertex 9.33851870894432 9.92181393057108 42.754000000000005
      vertex 12.919008389115334 26.347960683703423 42.754000000000005
    endloop
  endfacet
  facet normal 0 0 -1
    outer loop
      vertex 7.621813930571079 11.638518708944321 42.754000000000005
      vertex 12.919008389115334 26.347960683703423 42.754000000000005
      vertex 8.423906929790974 10.723906929790974 42.754000000000005
    endloop
  endfacet
  facet normal 0 0 -1
    outer loop
      vertex 7.574526906013489 22.890711243450642 42.754000000000005
      vertex 6.966000000000001 12.620013612510492 42.754000000000005
      vertex 6.966000000000001 21.979986379815717 42.754000000000005
    endloop
  endfacet
  facet normal 0 0 -1
    outer loop
      vertex 7.574526906013489 22.890711243450642 42.754000000000005
      vertex 12.919008389115334 26.347960683703423 42.754000000000005
      vertex 6.966000000000001 12.620013612510492 42.754000000000005
    endloop
  endfacet
  facet normal 0 0 -1
    outer loop
      vertex 11.441044077277184 8.707920345664025 42.754000000000005
      vertex 12.919008389115334 26.347960683703423 42.754000000000005
      vertex 12.59298288077116 8.316889810562134 42.754000000000005
    endloop
  endfacet
  facet normal 0 0 -1
    outer loop
      vertex 10.349999994039536 9.245963740348817 42.754000000000005
      vertex 12.919008389115334 26.347960683703423 42.754000000000005
      vertex 11.441044077277184 8.707920345664025 42.754000000000005
    endloop
  endfacet
  facet normal 0 0 -1
    outer loop
      vertex 12.59298288077116 8.316889810562134 42.754000000000005
      vertex 12.919008389115334 26.347960683703423 42.754000000000005
      vertex 13.786106407642365 8.079562786221505 42.754000000000005
    endloop
  endfacet
  facet normal 0 0 -1
    outer loop
      vertex 13.786106407642365 8.079562786221505 42.754000000000005
      vertex 12.919008389115334 26.347960683703423 42.754000000000005
      vertex 15 7.999999995529652 42.754000000000005
    endloop
  endfacet
  facet normal 0 0 -1
    outer loop
      vertex 15 7.999999995529652 42.754000000000005
      vertex 12.919008389115334 26.347960683703423 42.754000000000005
      vertex 13.786106407642365 26.520437206327916 42.754000000000005
    endloop
  endfacet
  facet normal 0 0 -1
    outer loop
      vertex 15 7.999999995529652 42.754000000000005
      vertex 13.786106407642365 26.520437206327916 42.754000000000005
      vertex 15 26.59999999701977 42.754000000000005
    endloop
  endfacet
  facet normal 0 0 -1
    outer loop
      vertex 15 7.999999995529652 42.754000000000005
      vertex 15 26.59999999701977 42.754000000000005
      vertex 17 26.59999999701977 42.754000000000005
    endloop
  endfacet
  facet normal 0 0 -1
    outer loop
      vertex 7.574526906013489 22.890711243450642 42.754000000000005
      vertex 6.966000000000001 23.82776050835695 42.754000000000005
      vertex 6.966000000000001 26.748727898765342 42.754000000000005
    endloop
  endfacet
  facet normal 0 0 -1
    outer loop
      vertex 7.574526906013489 22.890711243450642 42.754000000000005
      vertex 6.966000000000001 26.748727898765342 42.754000000000005
      vertex 10.970097981393337 29.349019530415536 42.754000000000005
    endloop
  endfacet
  facet normal 0 0 -1
    outer loop
      vertex 7.574526906013489 22.890711243450642 42.754000000000005
      vertex 10.970097981393337 29.349019530415536 42.754000000000005
      vertex 12.919008389115334 26.347960683703423 42.754000000000005
    endloop
  endfacet
  facet normal -0.8386705686881686 -0.5446390338713007 -8.004288334105786e-12
    outer loop
      vertex 7.574526906013489 22.890711243450642 42.754000000000005
      vertex 6.966000000000001 23.827760508339313 43.954
      vertex 6.966000000000001 23.82776050835695 42.754000000000005
    endloop
  endfacet
  facet normal -0.19509032529018325 0.9807852797519806 0
    outer loop
      vertex 12.919008389115334 26.347960683703423 42.754000000000005
      vertex 12.919008389115334 26.347960683703423 43.954
      vertex 13.786106407642365 26.520437206327916 42.754000000000005
    endloop
  endfacet
  facet normal -0.06540313017921481 0.9978589231763981 0
    outer loop
      vertex 13.786106407642365 26.520437206327916 42.754000000000005
      vertex 13.786106407642365 26.520437206327916 43.954
      vertex 15 26.59999999701977 42.754000000000005
    endloop
  endfacet
  facet normal 0 1 0
    outer loop
      vertex 15 26.59999999701977 42.754000000000005
      vertex 15 26.59999999701977 43.954
      vertex 17 26.59999999701977 42.754000000000005
    endloop
  endfacet
  facet normal 0 0 -1
    outer loop
      vertex 15 7.999999995529652 42.754000000000005
      vertex 17 26.59999999701977 42.754000000000005
      vertex 22.417475729354848 25.24563106766129 42.754000000000005
    endloop
  endfacet
  facet normal 0 0 -1
    outer loop
      vertex 23 7.999999995529652 42.754000000000005
      vertex 24.15300757095335 25.591496142246307 42.754000000000005
      vertex 24.213893584907055 8.079562786221505 42.754000000000005
    endloop
  endfacet
  facet normal 0 0 -1
    outer loop
      vertex 24.213893584907055 8.079562786221505 42.754000000000005
      vertex 24.262532188443952 25.49569798615359 42.754000000000005
      vertex 25.080991618335247 8.252039308845998 42.754000000000005
    endloop
  endfacet
  facet normal 0 0 -1
    outer loop
      vertex 23 7.999999995529652 42.754000000000005
      vertex 22.417475729354848 25.24563106766129 42.754000000000005
      vertex 23 25.1 42.754000000000005
    endloop
  endfacet
  facet normal 0 0 -1
    outer loop
      vertex 23 7.999999995529652 42.754000000000005
      vertex 23 25.1 42.754000000000005
      vertex 24.15300757095335 25.591496142246307 42.754000000000005
    endloop
  endfacet
  facet normal 0 0 -1
    outer loop
      vertex 25.080991618335247 8.252039308845998 42.754000000000005
      vertex 24.262532188443952 25.49569798615359 42.754000000000005
      vertex 25.379448284623702 24.7583962890781 42.754000000000005
    endloop
  endfacet
  facet normal 0 0 -1
    outer loop
      vertex 24.213893584907055 8.079562786221505 42.754000000000005
      vertex 24.15300757095335 25.591496142246307 42.754000000000005
      vertex 24.262532188443952 25.49569798615359 42.754000000000005
    endloop
  endfacet
  facet normal 0 0 -1
    outer loop
      vertex 17 26.6 42.754000000000005
      vertex 22.417475729354848 25.24563106766129 42.754000000000005
      vertex 17 26.59999999701977 42.754000000000005
    endloop
  endfacet
  facet normal 0 0 -1
    outer loop
      vertex 24.15300757095335 25.591496142246307 42.754000000000005
      vertex 25.379448284623702 24.7583962890781 42.754000000000005
      vertex 24.262532188443952 25.49569798615359 42.754000000000005
    endloop
  endfacet
  facet normal 0 0 -1
    outer loop
      vertex 17 26.6 42.754000000000005
      vertex 23 26.59999999701977 42.754000000000005
      vertex 22.417475729354848 25.24563106766129 42.754000000000005
    endloop
  endfacet
  facet normal 0 0 -1
    outer loop
      vertex 17 26.6 42.754000000000005
      vertex 23 26.6 42.754000000000005
      vertex 23 26.59999999701977 42.754000000000005
    endloop
  endfacet
  facet normal 0 0 -1
    outer loop
      vertex 22.417475729354848 25.24563106766129 42.754000000000005
      vertex 23 26.59999999701977 42.754000000000005
      vertex 23 25.1 42.754000000000005
    endloop
  endfacet
  facet normal 0 0 -1
    outer loop
      vertex 23 25.1 42.754000000000005
      vertex 23 26.59999999701977 42.754000000000005
      vertex 23.00000000202279 26.59999999688719 42.754000000000005
    endloop
  endfacet
  facet normal 0 0 -1
    outer loop
      vertex 23 25.1 42.754000000000005
      vertex 23.00000000202279 26.59999999688719 42.754000000000005
      vertex 24.15300757095335 25.591496142246307 42.754000000000005
    endloop
  endfacet
  facet normal 0 0 -1
    outer loop
      vertex 23 26.6 42.754000000000005
      vertex 24.15300757095335 25.591496142246307 42.754000000000005
      vertex 23.00000000202279 26.59999999688719 42.754000000000005
    endloop
  endfacet
  facet normal 0 0 -1
    outer loop
      vertex 23 26.6 42.754000000000005
      vertex 23.00000000202279 26.59999999688719 42.754000000000005
      vertex 23 26.59999999701977 42.754000000000005
    endloop
  endfacet
  facet normal 0 0 -1
    outer loop
      vertex 23 26.6 42.754000000000005
      vertex 25.379448284623702 24.7583962890781 42.754000000000005
      vertex 24.15300757095335 25.591496142246307 42.754000000000005
    endloop
  endfacet
  facet normal 0 0 -1
    outer loop
      vertex 23 26.6 42.754000000000005
      vertex 25.407017119453442 26.283110184488336 42.754000000000005
      vertex 26.558955920995334 25.892079652354965 42.754000000000005
    endloop
  endfacet
  facet normal 0 0 -1
    outer loop
      vertex 23 26.6 42.754000000000005
      vertex 24.21389358764648 26.520437210776436 42.754000000000005
      vertex 25.407017119453442 26.283110184488336 42.754000000000005
    endloop
  endfacet
  facet normal 0 1 0
    outer loop
      vertex 17 26.6 42.754000000000005
      vertex 17 26.6 43.954
      vertex 23 26.6 42.754000000000005
    endloop
  endfacet
  facet normal 0.06540312923014509 0.9978589232386034 0
    outer loop
      vertex 23 26.6 42.754000000000005
      vertex 23 26.6 43.954
      vertex 24.21389358764648 26.520437210776436 42.754000000000005
    endloop
  endfacet
  facet normal 0.19509032201612667 0.9807852804032307 0
    outer loop
      vertex 24.21389358764648 26.520437210776436 42.754000000000005
      vertex 24.21389358764648 26.520437210776436 43.954
      vertex 25.407017119453442 26.283110184488336 42.754000000000005
    endloop
  endfacet
  facet normal -0.8314696093036956 0.5555702375076979 0
    outer loop
      vertex 7.574526906013489 22.890711243450642 42.754000000000005
      vertex 6.966000000000001 21.979986379815717 42.754000000000005
      vertex 6.966000000000001 21.979986379815717 43.954
    endloop
  endfacet
  facet normal -0.5446390348126848 0.8386705680768265 -2.480422484714123e-15
    outer loop
      vertex 10.970097981393337 29.349019530415536 42.754000000000005
      vertex 6.966000000000001 26.748727898765342 42.754000000000005
      vertex 6.966000000000001 26.748727898765345 43.954
    endloop
  endfacet
  facet normal 0.8386705673027646 0.5446390360046358 0
    outer loop
      vertex 12.919008389115334 26.347960683703423 42.754000000000005
      vertex 10.970097981393337 29.349019530415536 42.754000000000005
      vertex 10.970097981393337 29.349019530415536 43.954
    endloop
  endfacet
  facet normal -0.8314696093036956 0.5555702375076979 0
    outer loop
      vertex 7.574526906013489 22.890711243450642 42.754000000000005
      vertex 6.966000000000001 21.979986379815717 43.954
      vertex 7.574526906013489 22.890711243450642 43.954
    endloop
  endfacet
  facet normal -0.8386705686834866 -0.5446390338785105 0
    outer loop
      vertex 7.574526906013489 22.890711243450642 42.754000000000005
      vertex 7.574526906013489 22.890711243450642 43.954
      vertex 6.966000000000001 23.827760508339313 43.954
    endloop
  endfacet
  facet normal -0.5446390348126844 0.8386705680768269 0
    outer loop
      vertex 10.970097981393337 29.349019530415536 42.754000000000005
      vertex 6.966000000000001 26.748727898765345 43.954
      vertex 10.970097981393337 29.349019530415536 43.954
    endloop
  endfacet
  facet normal 0.8386705673027646 0.5446390360046358 0
    outer loop
      vertex 12.919008389115334 26.347960683703423 42.754000000000005
      vertex 10.970097981393337 29.349019530415536 43.954
      vertex 12.919008389115334 26.347960683703423 43.954
    endloop
  endfacet
  facet normal -0.19509032529018325 0.9807852797519806 0
    outer loop
      vertex 13.786106407642365 26.520437206327916 42.754000000000005
      vertex 12.919008389115334 26.347960683703423 43.954
      vertex 13.786106407642365 26.520437206327916 43.954
    endloop
  endfacet
  facet normal -0.06540313017921481 0.9978589231763981 0
    outer loop
      vertex 15 26.59999999701977 42.754000000000005
      vertex 13.786106407642365 26.520437206327916 43.954
      vertex 15 26.59999999701977 43.954
    endloop
  endfacet
  facet normal -1 0 0
    outer loop
      vertex 17 26.6 42.754000000000005
      vertex 17 26.59999999701977 42.754000000000005
      vertex 17 26.59999999701977 43.954
    endloop
  endfacet
  facet normal 0 1 0
    outer loop
      vertex 17 26.59999999701977 42.754000000000005
      vertex 15 26.59999999701977 43.954
      vertex 17 26.59999999701977 43.954
    endloop
  endfacet
  facet normal -1 0 0
    outer loop
      vertex 17 26.6 42.754000000000005
      vertex 17 26.59999999701977 43.954
      vertex 17 26.6 43.954
    endloop
  endfacet
  facet normal 0 1 0
    outer loop
      vertex 23 26.6 42.754000000000005
      vertex 17 26.6 43.954
      vertex 23 26.6 43.954
    endloop
  endfacet
  facet normal 0.06540312923014509 0.9978589232386034 0
    outer loop
      vertex 24.21389358764648 26.520437210776436 42.754000000000005
      vertex 23 26.6 43.954
      vertex 24.21389358764648 26.520437210776436 43.954
    endloop
  endfacet
  facet normal 0 0 -1
    outer loop
      vertex 25.080991618335247 8.252039308845998 42.754000000000005
      vertex 30.42547308653593 11.709288756549359 42.754000000000005
      vertex 27.029902018606663 5.250980469584466 42.754000000000005
    endloop
  endfacet
  facet normal 0 0 -1
    outer loop
      vertex 25.080991618335247 8.252039308845998 42.754000000000005
      vertex 31.054036252200603 12.649999994039536 42.754000000000005
      vertex 30.42547308653593 11.709288756549359 42.754000000000005
    endloop
  endfacet
  facet normal 0 0 -1
    outer loop
      vertex 25.080991618335247 8.252039308845998 42.754000000000005
      vertex 31.592079646885395 13.741044077277184 42.754000000000005
      vertex 31.054036252200603 12.649999994039536 42.754000000000005
    endloop
  endfacet
  facet normal 0 0 -1
    outer loop
      vertex 27.029902018606663 5.250980469584466 42.754000000000005
      vertex 30.42547308653593 11.709288756549359 42.754000000000005
      vertex 32.3682182431221 8.717723558843137 42.754000000000005
    endloop
  endfacet
  facet normal 0 0 -1
    outer loop
      vertex 25.080991618335247 8.252039308845998 42.754000000000005
      vertex 31.983110181987286 14.89298288077116 42.754000000000005
      vertex 31.592079646885395 13.741044077277184 42.754000000000005
    endloop
  endfacet
  facet normal 0 0 -1
    outer loop
      vertex 25.080991618335247 8.252039308845998 42.754000000000005
      vertex 32.220437206327915 16.086106407642365 42.754000000000005
      vertex 31.983110181987286 14.89298288077116 42.754000000000005
    endloop
  endfacet
  facet normal 0.8386705677340918 0.5446390353404502 0
    outer loop
      vertex 30.42547308653593 11.709288756549359 42.754000000000005
      vertex 30.42547308653593 11.709288756549359 43.954
      vertex 32.3682182431221 8.717723558843137 42.754000000000005
    endloop
  endfacet
  facet normal -0.8386705676361985 -0.5446390354911926 0
    outer loop
      vertex 25.080991618335247 8.252039308845998 42.754000000000005
      vertex 27.029902018606663 5.250980469584466 42.754000000000005
      vertex 27.029902018606663 5.250980469584466 43.954
    endloop
  endfacet
  facet normal 0.5446390348126846 -0.8386705680768268 0
    outer loop
      vertex 27.029902018606663 5.250980469584466 42.754000000000005
      vertex 32.3682182431221 8.717723558843137 42.754000000000005
      vertex 32.3682182431221 8.717723558843137 43.954
    endloop
  endfacet
  facet normal 0.8314696072710662 -0.5555702405497426 0
    outer loop
      vertex 30.42547308653593 11.709288756549359 42.754000000000005
      vertex 31.054036252200603 12.649999994039536 42.754000000000005
      vertex 31.054036252200603 12.649999994039536 43.954
    endloop
  endfacet
  facet normal 0.89687274302039 -0.4422886872022405 0
    outer loop
      vertex 31.054036252200603 12.649999994039536 42.754000000000005
      vertex 31.592079646885395 13.741044077277184 42.754000000000005
      vertex 31.592079646885395 13.741044077277184 43.954
    endloop
  endfacet
  facet normal -0.8386705676115173 -0.5446390355291985 -1.3513249319932213e-10
    outer loop
      vertex 25.080991618335247 8.252039308845998 42.754000000000005
      vertex 27.029902018606663 5.250980469584466 43.954
      vertex 25.080991618164013 8.252039308811938 43.954
    endloop
  endfacet
  facet normal 0.5446390348126846 -0.8386705680768268 0
    outer loop
      vertex 27.029902018606663 5.250980469584466 42.754000000000005
      vertex 32.3682182431221 8.717723558843137 43.954
      vertex 27.029902018606663 5.250980469584466 43.954
    endloop
  endfacet
  facet normal 0.8386705677340918 0.5446390353404502 0
    outer loop
      vertex 32.3682182431221 8.717723558843137 42.754000000000005
      vertex 30.42547308653593 11.709288756549359 43.954
      vertex 32.3682182431221 8.717723558843137 43.954
    endloop
  endfacet
  facet normal 0.8314696072710662 -0.5555702405497426 0
    outer loop
      vertex 30.42547308653593 11.709288756549359 42.754000000000005
      vertex 31.054036252200603 12.649999994039536 43.954
      vertex 30.42547308653593 11.709288756549359 43.954
    endloop
  endfacet
  facet normal 0.89687274302039 -0.4422886872022405 0
    outer loop
      vertex 31.054036252200603 12.649999994039536 42.754000000000005
      vertex 31.592079646885395 13.741044077277184 43.954
      vertex 31.054036252200603 12.649999994039536 43.954
    endloop
  endfacet
  facet normal 0 0 -1
    outer loop
      vertex 25.080991618335247 8.252039308845998 42.754000000000005
      vertex 30.773783902381087 17.69998035643639 42.754000000000005
      vertex 31.375899078430834 17.3 42.754000000000005
    endloop
  endfacet
  facet normal 0 0 -1
    outer loop
      vertex 25.080991618335247 8.252039308845998 42.754000000000005
      vertex 30.699209402004946 19.130160256511395 42.754000000000005
      vertex 30.773783902381087 17.69998035643639 42.754000000000005
    endloop
  endfacet
  facet normal 0 0 -1
    outer loop
      vertex 25.080991618335247 8.252039308845998 42.754000000000005
      vertex 29.74774627910468 21.210853191051612 42.754000000000005
      vertex 30.25953794817881 20.127980039912586 42.754000000000005
    endloop
  endfacet
  facet normal 0 0 -1
    outer loop
      vertex 25.080991618335247 8.252039308845998 42.754000000000005
      vertex 29.084309396009196 22.166753565177345 42.754000000000005
      vertex 29.74774627910468 21.210853191051612 42.754000000000005
    endloop
  endfacet
  facet normal 0 0 -1
    outer loop
      vertex 25.080991618335247 8.252039308845998 42.754000000000005
      vertex 30.25953794817881 20.127980039912586 42.754000000000005
      vertex 30.699209402004946 19.130160256511395 42.754000000000005
    endloop
  endfacet
  facet normal 0 0 -1
    outer loop
      vertex 25.080991618335247 8.252039308845998 42.754000000000005
      vertex 25.379448284623702 24.7583962890781 42.754000000000005
      vertex 26.43621070349088 24.427070991661694 42.754000000000005
    endloop
  endfacet
  facet normal 0 0 -1
    outer loop
      vertex 25.080991618335247 8.252039308845998 42.754000000000005
      vertex 27.44934578237207 24.01827268772876 42.754000000000005
      vertex 28.433797005308506 23.633643075314247 42.754000000000005
    endloop
  endfacet
  facet normal 0 0 -1
    outer loop
      vertex 25.080991618335247 8.252039308845998 42.754000000000005
      vertex 26.43621070349088 24.427070991661694 42.754000000000005
      vertex 27.44934578237207 24.01827268772876 42.754000000000005
    endloop
  endfacet
  facet normal 0 0 -1
    outer loop
      vertex 25.080991618335247 8.252039308845998 42.754000000000005
      vertex 28.433797005308506 23.633643075314247 42.754000000000005
      vertex 29.084309396009196 22.166753565177345 42.754000000000005
    endloop
  endfacet
  facet normal 0 0 -1
    outer loop
      vertex 25.080991618335247 8.252039308845998 42.754000000000005
      vertex 32.29999999701977 17.3 42.754000000000005
      vertex 32.220437206327915 16.086106407642365 42.754000000000005
    endloop
  endfacet
  facet normal 0 0 -1
    outer loop
      vertex 25.080991618335247 8.252039308845998 42.754000000000005
      vertex 31.375899078430834 17.3 42.754000000000005
      vertex 32.29999999701977 17.3 42.754000000000005
    endloop
  endfacet
  facet normal 0 0 -1
    outer loop
      vertex 31.375899078430834 17.3 42.754000000000005
      vertex 31.030032953113604 18.12525951717563 42.754000000000005
      vertex 32.29999999701977 17.3 42.754000000000005
    endloop
  endfacet
  facet normal 0 0 -1
    outer loop
      vertex 31.030032953113604 18.12525951717563 42.754000000000005
      vertex 32.3 17.3 42.754000000000005
      vertex 32.29999999701977 17.3 42.754000000000005
    endloop
  endfacet
  facet normal 0 0 -1
    outer loop
      vertex 30.773783902381087 17.69998035643639 42.754000000000005
      vertex 31.030032953113604 18.12525951717563 42.754000000000005
      vertex 31.375899078430834 17.3 42.754000000000005
    endloop
  endfacet
  facet normal 0 0 -1
    outer loop
      vertex 30.773783902381087 17.69998035643639 42.754000000000005
      vertex 30.699209402004946 19.130160256511395 42.754000000000005
      vertex 31.030032953113604 18.12525951717563 42.754000000000005
    endloop
  endfacet
  facet normal 0 0 -1
    outer loop
      vertex 31.030032953113604 18.12525951717563 42.754000000000005
      vertex 30.699209402004946 19.130160256511395 42.754000000000005
      vertex 32.3 17.3 42.754000000000005
    endloop
  endfacet
  facet normal 0 0 -1
    outer loop
      vertex 30.699209402004946 19.130160256511395 42.754000000000005
      vertex 30.281317197771003 20.177926310709356 42.754000000000005
      vertex 32.3 17.3 42.754000000000005
    endloop
  endfacet
  facet normal 0 0 -1
    outer loop
      vertex 30.699209402004946 19.130160256511395 42.754000000000005
      vertex 30.25953794817881 20.127980039912586 42.754000000000005
      vertex 30.281317197771003 20.177926310709356 42.754000000000005
    endloop
  endfacet
  facet normal 0 0 -1
    outer loop
      vertex 29.74774627910468 21.210853191051612 42.754000000000005
      vertex 30.281317197771003 20.177926310709356 42.754000000000005
      vertex 30.25953794817881 20.127980039912586 42.754000000000005
    endloop
  endfacet
  facet normal 0 0 -1
    outer loop
      vertex 29.74774627910468 21.210853191051612 42.754000000000005
      vertex 29.946792473546964 21.763571894998556 42.754000000000005
      vertex 30.281317197771003 20.177926310709356 42.754000000000005
    endloop
  endfacet
  facet normal 0 0 -1
    outer loop
      vertex 30.281317197771003 20.177926310709356 42.754000000000005
      vertex 29.576093065034893 23.876093065034894 42.754000000000005
      vertex 32.3 17.3 42.754000000000005
    endloop
  endfacet
  facet normal 0 0 -1
    outer loop
      vertex 31.59207965235497 20.858955920995335 42.754000000000005
      vertex 32.3 17.3 42.754000000000005
      vertex 29.576093065034893 23.876093065034894 42.754000000000005
    endloop
  endfacet
  facet normal 0 0 -1
    outer loop
      vertex 31.983110184488336 19.707017119453443 42.754000000000005
      vertex 32.22043721077644 18.51389358764648 42.754000000000005
      vertex 32.3 17.3 42.754000000000005
    endloop
  endfacet
  facet normal 0 0 -1
    outer loop
      vertex 31.983110184488336 19.707017119453443 42.754000000000005
      vertex 32.3 17.3 42.754000000000005
      vertex 31.59207965235497 20.858955920995335 42.754000000000005
    endloop
  endfacet
  facet normal 0 -1 0
    outer loop
      vertex 32.3 17.3 42.754000000000005
      vertex 32.29999999701977 17.3 43.954
      vertex 32.29999999701977 17.3 42.754000000000005
    endloop
  endfacet
  facet normal 0.9807852804032303 0.19509032201612894 0
    outer loop
      vertex 31.983110184488336 19.707017119453443 42.754000000000005
      vertex 31.983110184488336 19.707017119453443 43.954
      vertex 32.22043721077644 18.51389358764648 42.754000000000005
    endloop
  endfacet
  facet normal 0 0 -1
    outer loop
      vertex 23 26.6 42.754000000000005
      vertex 29.576093065034893 23.876093065034894 42.754000000000005
      vertex 25.379448284623702 24.7583962890781 42.754000000000005
    endloop
  endfacet
  facet normal 0 0 -1
    outer loop
      vertex 25.379448284623702 24.7583962890781 42.754000000000005
      vertex 29.576093065034893 23.876093065034894 42.754000000000005
      vertex 26.43621070349088 24.427070991661694 42.754000000000005
    endloop
  endfacet
  facet normal 0 0 -1
    outer loop
      vertex 29.74774627910468 21.210853191051612 42.754000000000005
      vertex 29.084309396009196 22.166753565177345 42.754000000000005
      vertex 29.576093064202283 23.876093061112066 42.754000000000005
    endloop
  endfacet
  facet normal 0 0 -1
    outer loop
      vertex 29.084309396009196 22.166753565177345 42.754000000000005
      vertex 28.433797005308506 23.633643075314247 42.754000000000005
      vertex 29.576093062758446 23.876093062758446 42.754000000000005
    endloop
  endfacet
  facet normal 0 0 -1
    outer loop
      vertex 29.084309396009196 22.166753565177345 42.754000000000005
      vertex 29.576093062758446 23.876093062758446 42.754000000000005
      vertex 29.576093064202283 23.876093061112066 42.754000000000005
    endloop
  endfacet
  facet normal 0 0 -1
    outer loop
      vertex 26.43621070349088 24.427070991661694 42.754000000000005
      vertex 29.576093065034893 23.876093065034894 42.754000000000005
      vertex 27.44934578237207 24.01827268772876 42.754000000000005
    endloop
  endfacet
  facet normal 0 0 -1
    outer loop
      vertex 26.558955920995334 25.892079652354965 42.754000000000005
      vertex 27.65 25.354036255195282 42.754000000000005
      vertex 29.576093065034893 23.876093065034894 42.754000000000005
    endloop
  endfacet
  facet normal 0 0 -1
    outer loop
      vertex 27.44934578237207 24.01827268772876 42.754000000000005
      vertex 29.576093065034893 23.876093065034894 42.754000000000005
      vertex 28.433797005308506 23.633643075314247 42.754000000000005
    endloop
  endfacet
  facet normal 0 0 -1
    outer loop
      vertex 28.433797005308506 23.633643075314247 42.754000000000005
      vertex 29.576093065034893 23.876093065034894 42.754000000000005
      vertex 29.576093062758446 23.876093062758446 42.754000000000005
    endloop
  endfacet
  facet normal 0 0 -1
    outer loop
      vertex 27.65 25.354036255195282 42.754000000000005
      vertex 28.6614812897811 24.678186064708488 42.754000000000005
      vertex 29.576093065034893 23.876093065034894 42.754000000000005
    endloop
  endfacet
  facet normal 0 0 -1
    outer loop
      vertex 23 26.6 42.754000000000005
      vertex 26.558955920995334 25.892079652354965 42.754000000000005
      vertex 29.576093065034893 23.876093065034894 42.754000000000005
    endloop
  endfacet
  facet normal 0 0 -1
    outer loop
      vertex 30.281317197771003 20.177926310709356 42.754000000000005
      vertex 29.946792473546964 21.763571894998556 42.754000000000005
      vertex 29.576093065034893 23.876093065034894 42.754000000000005
    endloop
  endfacet
  facet normal 0 0 -1
    outer loop
      vertex 29.74774627910468 21.210853191051612 42.754000000000005
      vertex 29.576093064202283 23.876093061112066 42.754000000000005
      vertex 29.946792473546964 21.763571894998556 42.754000000000005
    endloop
  endfacet
  facet normal 0 0 -1
    outer loop
      vertex 29.946792473546964 21.763571894998556 42.754000000000005
      vertex 29.576093064202283 23.876093061112066 42.754000000000005
      vertex 29.576093065034893 23.876093065034894 42.754000000000005
    endloop
  endfacet
  facet normal 0 0 -1
    outer loop
      vertex 29.576093065034893 23.876093065034894 42.754000000000005
      vertex 30.378186064708487 22.961481289781105 42.754000000000005
      vertex 31.054036255195278 21.950000000000003 42.754000000000005
    endloop
  endfacet
  facet normal 0 0 -1
    outer loop
      vertex 31.59207965235497 20.858955920995335 42.754000000000005
      vertex 29.576093065034893 23.876093065034894 42.754000000000005
      vertex 31.054036255195278 21.950000000000003 42.754000000000005
    endloop
  endfacet
  facet normal 0 0 -1
    outer loop
      vertex 29.576093065034893 23.876093065034894 42.754000000000005
      vertex 29.576093064202283 23.876093061112066 42.754000000000005
      vertex 29.576093062758446 23.876093062758446 42.754000000000005
    endloop
  endfacet
  facet normal 0.5555702330196035 0.8314696123025443 0
    outer loop
      vertex 27.65 25.354036255195282 42.754000000000005
      vertex 27.65 25.354036255195282 43.954
      vertex 28.6614812897811 24.678186064708488 42.754000000000005
    endloop
  endfacet
  facet normal 0.6593458151000672 0.7518398074789788 0
    outer loop
      vertex 28.6614812897811 24.678186064708488 42.754000000000005
      vertex 28.6614812897811 24.678186064708488 43.954
      vertex 29.576093065034893 23.876093065034894 42.754000000000005
    endloop
  endfacet
  facet normal 0.32143946530316353 0.946930129495105 0
    outer loop
      vertex 25.407017119453442 26.283110184488336 42.754000000000005
      vertex 25.407017119453442 26.283110184488336 43.954
      vertex 26.558955920995334 25.892079652354965 42.754000000000005
    endloop
  endfacet
  facet normal 0.4422886902189987 0.8968727415326897 0
    outer loop
      vertex 26.558955920995334 25.892079652354965 42.754000000000005
      vertex 26.558955920995334 25.892079652354965 43.954
      vertex 27.65 25.354036255195282 42.754000000000005
    endloop
  endfacet
  facet normal 0.8314696123025458 0.5555702330196016 0
    outer loop
      vertex 30.378186064708487 22.961481289781105 42.754000000000005
      vertex 30.378186064708487 22.961481289781105 43.954
      vertex 31.054036255195278 21.950000000000003 42.754000000000005
    endloop
  endfacet
  facet normal 0.7518398074789776 0.6593458151000686 0
    outer loop
      vertex 29.576093065034893 23.876093065034894 42.754000000000005
      vertex 29.576093065034893 23.876093065034894 43.954
      vertex 30.378186064708487 22.961481289781105 42.754000000000005
    endloop
  endfacet
  facet normal 0.9469301289181504 -0.321439467002817 0
    outer loop
      vertex 31.592079646885395 13.741044077277184 42.754000000000005
      vertex 31.983110181987286 14.89298288077116 42.754000000000005
      vertex 31.983110181987286 14.89298288077116 43.954
    endloop
  endfacet
  facet normal 0.9807852805551226 -0.19509032125251483 0
    outer loop
      vertex 31.983110181987286 14.89298288077116 42.754000000000005
      vertex 32.220437206327915 16.086106407642365 42.754000000000005
      vertex 32.220437206327915 16.086106407642365 43.954
    endloop
  endfacet
  facet normal 0.9978589231763981 -0.06540313017921481 0
    outer loop
      vertex 32.220437206327915 16.086106407642365 42.754000000000005
      vertex 32.29999999701977 17.3 42.754000000000005
      vertex 32.29999999701977 17.3 43.954
    endloop
  endfacet
  facet normal 0.9469301294951059 0.3214394653031609 0
    outer loop
      vertex 31.983110184488336 19.707017119453443 42.754000000000005
      vertex 31.59207965235497 20.858955920995335 42.754000000000005
      vertex 31.59207965235497 20.858955920995335 43.954
    endloop
  endfacet
  facet normal 0.9978589232386037 0.06540312923013945 0
    outer loop
      vertex 32.3 17.3 42.754000000000005
      vertex 32.22043721077644 18.51389358764648 42.754000000000005
      vertex 32.22043721077644 18.51389358764648 43.954
    endloop
  endfacet
  facet normal 0.9469301289181504 -0.321439467002817 0
    outer loop
      vertex 31.592079646885395 13.741044077277184 42.754000000000005
      vertex 31.983110181987286 14.89298288077116 43.954
      vertex 31.592079646885395 13.741044077277184 43.954
    endloop
  endfacet
  facet normal 0.9807852805551226 -0.19509032125251483 0
    outer loop
      vertex 31.983110181987286 14.89298288077116 42.754000000000005
      vertex 32.220437206327915 16.086106407642365 43.954
      vertex 31.983110181987286 14.89298288077116 43.954
    endloop
  endfacet
  facet normal 0.9978589231763981 -0.06540313017921481 0
    outer loop
      vertex 32.220437206327915 16.086106407642365 42.754000000000005
      vertex 32.29999999701977 17.3 43.954
      vertex 32.220437206327915 16.086106407642365 43.954
    endloop
  endfacet
  facet normal 0 -1 0
    outer loop
      vertex 32.3 17.3 42.754000000000005
      vertex 32.3 17.3 43.954
      vertex 32.29999999701977 17.3 43.954
    endloop
  endfacet
  facet normal 0.8968727415326878 0.44228869021900213 0
    outer loop
      vertex 31.59207965235497 20.858955920995335 42.754000000000005
      vertex 31.054036255195278 21.950000000000003 43.954
      vertex 31.59207965235497 20.858955920995335 43.954
    endloop
  endfacet
  facet normal 0.9978589232386037 0.06540312923013945 0
    outer loop
      vertex 32.3 17.3 42.754000000000005
      vertex 32.22043721077644 18.51389358764648 43.954
      vertex 32.3 17.3 43.954
    endloop
  endfacet
  facet normal 0.9807852804032303 0.19509032201612894 0
    outer loop
      vertex 32.22043721077644 18.51389358764648 42.754000000000005
      vertex 31.983110184488336 19.707017119453443 43.954
      vertex 32.22043721077644 18.51389358764648 43.954
    endloop
  endfacet
  facet normal 0.9469301294951059 0.3214394653031609 0
    outer loop
      vertex 31.983110184488336 19.707017119453443 42.754000000000005
      vertex 31.59207965235497 20.858955920995335 43.954
      vertex 31.983110184488336 19.707017119453443 43.954
    endloop
  endfacet
  facet normal 0.8968727415326878 0.44228869021900213 0
    outer loop
      vertex 31.59207965235497 20.858955920995335 42.754000000000005
      vertex 31.054036255195278 21.950000000000003 42.754000000000005
      vertex 31.054036255195278 21.950000000000003 43.954
    endloop
  endfacet
  facet normal 0.5555702330196035 0.8314696123025443 0
    outer loop
      vertex 28.6614812897811 24.678186064708488 42.754000000000005
      vertex 27.65 25.354036255195282 43.954
      vertex 28.6614812897811 24.678186064708488 43.954
    endloop
  endfacet
  facet normal 0.6593458151000672 0.7518398074789788 0
    outer loop
      vertex 29.576093065034893 23.876093065034894 42.754000000000005
      vertex 28.6614812897811 24.678186064708488 43.954
      vertex 29.576093065034893 23.876093065034894 43.954
    endloop
  endfacet
  facet normal 0.19509032201612667 0.9807852804032307 0
    outer loop
      vertex 25.407017119453442 26.283110184488336 42.754000000000005
      vertex 24.21389358764648 26.520437210776436 43.954
      vertex 25.407017119453442 26.283110184488336 43.954
    endloop
  endfacet
  facet normal 0.32143946530316353 0.946930129495105 0
    outer loop
      vertex 26.558955920995334 25.892079652354965 42.754000000000005
      vertex 25.407017119453442 26.283110184488336 43.954
      vertex 26.558955920995334 25.892079652354965 43.954
    endloop
  endfacet
  facet normal 0.4422886902189987 0.8968727415326897 0
    outer loop
      vertex 27.65 25.354036255195282 42.754000000000005
      vertex 26.558955920995334 25.892079652354965 43.954
      vertex 27.65 25.354036255195282 43.954
    endloop
  endfacet
  facet normal 0.7518398074789776 0.6593458151000686 0
    outer loop
      vertex 30.378186064708487 22.961481289781105 42.754000000000005
      vertex 29.576093065034893 23.876093065034894 43.954
      vertex 30.378186064708487 22.961481289781105 43.954
    endloop
  endfacet
  facet normal 0.8314696123025458 0.5555702330196016 0
    outer loop
      vertex 31.054036255195278 21.950000000000003 42.754000000000005
      vertex 30.378186064708487 22.961481289781105 43.954
      vertex 31.054036255195278 21.950000000000003 43.954
    endloop
  endfacet
  facet normal 0 -1 0
    outer loop
      vertex 6.966000000000001 -1.7999999999999998 42.354
      vertex 10.5 -1.7999999999999998 42.354
      vertex 10.5 -1.7999999999999998 43.954
    endloop
  endfacet
  facet normal 0 -1 0
    outer loop
      vertex 6.966000000000001 -1.7999999999999998 43.954
      vertex 6.966000000000001 -1.7999999999999998 42.354
      vertex 10.5 -1.7999999999999998 43.954
    endloop
  endfacet
  facet normal 0 -1 0
    outer loop
      vertex 8 4.4 42.354
      vertex 8 4.4 43.954
      vertex 7.199999999999996 4.4 42.354
    endloop
  endfacet
  facet normal -1 0 0
    outer loop
      vertex 7.199999999999996 8 42.354
      vertex 7.199999999999996 4.4 42.354
      vertex 7.199999999999996 4.4 43.954
    endloop
  endfacet
  facet normal 0 1 0
    outer loop
      vertex 7.199999999999996 8 42.354
      vertex 7.199999999999996 8 43.954
      vertex 13.199999999999996 8 42.354
    endloop
  endfacet
  facet normal 1 0 0
    outer loop
      vertex 13.199999999999996 4.4 42.354
      vertex 13.199999999999996 8 42.354
      vertex 13.199999999999996 8 43.954
    endloop
  endfacet
  facet normal 0 -1 0
    outer loop
      vertex 8 4.4 43.954
      vertex 7.199999999999996 4.4 43.954
      vertex 7.199999999999996 4.4 42.354
    endloop
  endfacet
  facet normal 1 0 0
    outer loop
      vertex 13.199999999999996 8 43.954
      vertex 13.199999999999996 4.4 43.954
      vertex 13.199999999999996 4.4 42.354
    endloop
  endfacet
  facet normal -1 0 0
    outer loop
      vertex 7.199999999999996 4.4 43.954
      vertex 7.199999999999996 8 43.954
      vertex 7.199999999999996 8 42.354
    endloop
  endfacet
  facet normal 0 1 0
    outer loop
      vertex 13.199999999999996 8 43.954
      vertex 13.199999999999996 8 42.354
      vertex 7.199999999999996 8 43.954
    endloop
  endfacet
  facet normal -1 0 0
    outer loop
      vertex 32.5 10.035 42.354
      vertex 32.5 7.6850000000000005 42.354
      vertex 32.5 7.6850000000000005 43.954
    endloop
  endfacet
  facet normal 0 -1 0
    outer loop
      vertex 37.8 7.6850000000000005 43.954
      vertex 32.5 7.6850000000000005 42.354
      vertex 37.8 7.6850000000000005 42.354
    endloop
  endfacet
  facet normal 1 0 0
    outer loop
      vertex 37.8 10.035 42.354
      vertex 37.8 10.035 43.954
      vertex 37.8 7.6850000000000005 42.354
    endloop
  endfacet
  facet normal 0 1 0
    outer loop
      vertex 32.5 10.035 42.354
      vertex 32.5 10.035 43.954
      vertex 37.8 10.035 42.354
    endloop
  endfacet
  facet normal -1 0 0
    outer loop
      vertex 32.5 7.6850000000000005 43.954
      vertex 32.5 10.035 43.954
      vertex 32.5 10.035 42.354
    endloop
  endfacet
  facet normal 0 -1 0
    outer loop
      vertex 37.8 7.6850000000000005 43.954
      vertex 32.5 7.6850000000000005 43.954
      vertex 32.5 7.6850000000000005 42.354
    endloop
  endfacet
  facet normal 1 0 0
    outer loop
      vertex 37.8 10.035 43.954
      vertex 37.8 7.6850000000000005 43.954
      vertex 37.8 7.6850000000000005 42.354
    endloop
  endfacet
  facet normal 0 1 0
    outer loop
      vertex 32.5 10.035 43.954
      vertex 37.8 10.035 43.954
      vertex 37.8 10.035 42.354
    endloop
  endfacet
  facet normal 0 1 0
    outer loop
      vertex 6.966000000000001 1 42.354
      vertex 6.966000000000001 1 43.954
      vertex 11.5 1 42.354
    endloop
  endfacet
  facet normal 0 1 0
    outer loop
      vertex 6.966000000000001 1 43.954
      vertex 11.5 1 43.954
      vertex 11.5 1 42.354
    endloop
  endfacet
  facet normal 0.7071067811865472 -0.7071067811865479 0
    outer loop
      vertex 11.5 -0.8000000000000007 42.354
      vertex 11.5 -0.8000000000000007 43.954
      vertex 10.5 -1.7999999999999998 42.354
    endloop
  endfacet
  facet normal 0.7071067811865472 -0.7071067811865479 0
    outer loop
      vertex 10.5 -1.7999999999999998 43.954
      vertex 10.5 -1.7999999999999998 42.354
      vertex 11.5 -0.8000000000000007 43.954
    endloop
  endfacet
  facet normal 1 0 0
    outer loop
      vertex 11.5 -0.8000000000000007 42.354
      vertex 11.5 1 42.354
      vertex 11.5 1 43.954
    endloop
  endfacet
  facet normal 1 0 0
    outer loop
      vertex 11.5 1 43.954
      vertex 11.5 -0.8000000000000007 43.954
      vertex 11.5 -0.8000000000000007 42.354
    endloop
  endfacet
  facet normal 0 0 -1
    outer loop
      vertex 6.966000000000001 1 42.354
      vertex 11.5 1 42.354
      vertex 6.966000000000001 -1.7999999999999998 42.354
    endloop
  endfacet
  facet normal 0 0 -1
    outer loop
      vertex 11.5 1 42.354
      vertex 10.5 -1.7999999999999998 42.354
      vertex 6.966000000000001 -1.7999999999999998 42.354
    endloop
  endfacet
  facet normal 0 0 -1
    outer loop
      vertex 11.5 1 42.354
      vertex 11.5 -0.8000000000000007 42.354
      vertex 10.5 -1.7999999999999998 42.354
    endloop
  endfacet
  facet normal 0 0 -1
    outer loop
      vertex 8 4.4 42.354
      vertex 7.199999999999996 4.4 42.354
      vertex 7.199999999999996 8 42.354
    endloop
  endfacet
  facet normal 0 0 -1
    outer loop
      vertex 13.199999999999996 4.4 42.354
      vertex 8 2.8000000000000007 42.354
      vertex 8 4.4 42.354
    endloop
  endfacet
  facet normal 0 0 -1
    outer loop
      vertex 8 4.4 42.354
      vertex 13.199999999999996 8 42.354
      vertex 13.199999999999996 4.4 42.354
    endloop
  endfacet
  facet normal -1 0 0
    outer loop
      vertex 6.966000000000001 -1.7999999999999998 43.954
      vertex 6.966000000000001 1 42.354
      vertex 6.966000000000001 -1.7999999999999998 42.354
    endloop
  endfacet
  facet normal 0 0 -1
    outer loop
      vertex 8 4.4 42.354
      vertex 7.199999999999996 8 42.354
      vertex 13.199999999999996 8 42.354
    endloop
  endfacet
  facet normal 0 0 -1
    outer loop
      vertex 12.5 0 42.354
      vertex 12.5 2.8 42.354
      vertex 43.034 2.8 42.354
    endloop
  endfacet
  facet normal 0 0 -1
    outer loop
      vertex 13.199999999999996 4.4 42.354
      vertex 43.034 4.4 42.354
      vertex 8 2.8000000000000007 42.354
    endloop
  endfacet
  facet normal -1 0 0
    outer loop
      vertex 6.966000000000001 1 43.954
      vertex 6.966000000000001 1 42.354
      vertex 6.966000000000001 -1.7999999999999998 43.954
    endloop
  endfacet
  facet normal 0 0 1
    outer loop
      vertex 6.966000000000001 -1.7999999999999998 43.954
      vertex 10.5 -1.7999999999999998 43.954
      vertex 6.966000000000001 1 43.954
    endloop
  endfacet
  facet normal 0 0 1
    outer loop
      vertex 6.966000000000001 1 43.954
      vertex 10.5 -1.7999999999999998 43.954
      vertex 11.5 -0.8000000000000007 43.954
    endloop
  endfacet
  facet normal 0 0 1
    outer loop
      vertex 11.5 1 43.954
      vertex 6.966000000000001 1 43.954
      vertex 11.5 -0.8000000000000007 43.954
    endloop
  endfacet
  facet normal 0 0 1
    outer loop
      vertex 7.199999999999996 4.4 43.954
      vertex 8 4.4 43.954
      vertex 7.199999999999996 8 43.954
    endloop
  endfacet
  facet normal 0 0 1
    outer loop
      vertex 8 4.4 43.954
      vertex 8 2.8000000000000007 43.954
      vertex 13.199999999999996 8 43.954
    endloop
  endfacet
  facet normal 0 0 1
    outer loop
      vertex 13.199999999999996 8 43.954
      vertex 8 2.8000000000000007 43.954
      vertex 13.199999999999996 4.4 43.954
    endloop
  endfacet
  facet normal 0 0 1
    outer loop
      vertex 8 4.4 43.954
      vertex 13.199999999999996 8 43.954
      vertex 7.199999999999996 8 43.954
    endloop
  endfacet
  facet normal 0 0 1
    outer loop
      vertex 6.966000000000001 21.979986379815717 43.954
      vertex 9.33851870894432 9.92181393057108 43.954
      vertex 10.349999994039536 9.245963740348817 43.954
    endloop
  endfacet
  facet normal 0 0 1
    outer loop
      vertex 6.966000000000001 21.979986379815717 43.954
      vertex 10.349999994039536 9.245963740348817 43.954
      vertex 11.441044077277184 8.707920345664025 43.954
    endloop
  endfacet
  facet normal 0 0 1
    outer loop
      vertex 6.966000000000001 21.979986379815717 43.954
      vertex 11.441044077277184 8.707920345664025 43.954
      vertex 12.59298288077116 8.316889810562134 43.954
    endloop
  endfacet
  facet normal 0 0 1
    outer loop
      vertex 6.966000000000001 21.979986379815717 43.954
      vertex 12.59298288077116 8.316889810562134 43.954
      vertex 13.786106407642365 8.079562786221505 43.954
    endloop
  endfacet
  facet normal 0 0 1
    outer loop
      vertex 6.966000000000001 21.979986379815717 43.954
      vertex 13.786106407642365 8.079562786221505 43.954
      vertex 15 7.999999995529652 43.954
    endloop
  endfacet
  facet normal 0 0 1
    outer loop
      vertex 6.966000000000001 21.979986379815717 43.954
      vertex 15 7.999999995529652 43.954
      vertex 23 7.999999995529652 43.954
    endloop
  endfacet
  facet normal 0 0 1
    outer loop
      vertex 43.034 0 43.954
      vertex 12.5 2.8 43.954
      vertex 12.5 0 43.954
    endloop
  endfacet
  facet normal 0 0 1
    outer loop
      vertex 13.199999999999996 4.4 43.954
      vertex 8 2.8000000000000007 43.954
      vertex 43.034 2.8000000000000007 43.954
    endloop
  endfacet
  facet normal 0 0 1
    outer loop
      vertex 6.966000000000001 21.979986379815717 43.954
      vertex 23 7.999999995529652 43.954
      vertex 24.213893584907055 8.079562786221505 43.954
    endloop
  endfacet
  facet normal 0 0 1
    outer loop
      vertex 6.966000000000001 21.979986379815717 43.954
      vertex 24.213893584907055 8.079562786221505 43.954
      vertex 25.080991618164013 8.252039308811938 43.954
    endloop
  endfacet
  facet normal -1 0 0
    outer loop
      vertex 6.966000000000001 12.620013612510492 43.954
      vertex 6.966000000000001 21.979986379815717 42.754000000000005
      vertex 6.966000000000001 12.620013612510492 42.754000000000005
    endloop
  endfacet
  facet normal -1 0 0
    outer loop
      vertex 6.966000000000001 23.827760508339313 43.954
      vertex 6.966000000000001 26.748727898765342 42.754000000000005
      vertex 6.966000000000001 23.82776050835695 42.754000000000005
    endloop
  endfacet
  facet normal 0 0 1
    outer loop
      vertex 6.966000000000001 12.620013612510492 43.954
      vertex 7.621813930571079 11.638518708944321 43.954
      vertex 6.966000000000001 21.979986379815717 43.954
    endloop
  endfacet
  facet normal 0 0 1
    outer loop
      vertex 6.966000000000001 21.979986379815717 43.954
      vertex 7.621813930571079 11.638518708944321 43.954
      vertex 8.423906929790974 10.723906929790974 43.954
    endloop
  endfacet
  facet normal 0 0 1
    outer loop
      vertex 6.966000000000001 21.979986379815717 43.954
      vertex 8.423906929790974 10.723906929790974 43.954
      vertex 9.33851870894432 9.92181393057108 43.954
    endloop
  endfacet
  facet normal -1 0 0
    outer loop
      vertex 6.966000000000001 12.620013612510492 43.954
      vertex 6.966000000000001 21.979986379815717 43.954
      vertex 6.966000000000001 21.979986379815717 42.754000000000005
    endloop
  endfacet
  facet normal 0 0 1
    outer loop
      vertex 6.966000000000001 21.979986379815717 43.954
      vertex 30.42547308653593 11.709288756549359 43.954
      vertex 7.574526906013489 22.890711243450642 43.954
    endloop
  endfacet
  facet normal 0 0 1
    outer loop
      vertex 6.966000000000001 23.827760508339313 43.954
      vertex 7.574526906013489 22.890711243450642 43.954
      vertex 12.919008389115334 26.347960683703423 43.954
    endloop
  endfacet
  facet normal -1 0 0
    outer loop
      vertex 6.966000000000001 26.748727898765345 43.954
      vertex 6.966000000000001 26.748727898765342 42.754000000000005
      vertex 6.966000000000001 23.827760508339313 43.954
    endloop
  endfacet
  facet normal 0 0 1
    outer loop
      vertex 6.966000000000001 23.827760508339313 43.954
      vertex 12.919008389115334 26.347960683703423 43.954
      vertex 6.966000000000001 26.748727898765345 43.954
    endloop
  endfacet
  facet normal 0 0 1
    outer loop
      vertex 6.966000000000001 26.748727898765345 43.954
      vertex 12.919008389115334 26.347960683703423 43.954
      vertex 10.970097981393337 29.349019530415536 43.954
    endloop
  endfacet
  facet normal 0 0 1
    outer loop
      vertex 7.574526906013489 22.890711243450642 43.954
      vertex 30.42547308653593 11.709288756549359 43.954
      vertex 12.919008389115334 26.347960683703423 43.954
    endloop
  endfacet
  facet normal 0 0 1
    outer loop
      vertex 12.919008389115334 26.347960683703423 43.954
      vertex 30.42547308653593 11.709288756549359 43.954
      vertex 13.786106407642365 26.520437206327916 43.954
    endloop
  endfacet
  facet normal 0 0 1
    outer loop
      vertex 6.966000000000001 21.979986379815717 43.954
      vertex 25.080991618164013 8.252039308811938 43.954
      vertex 30.42547308653593 11.709288756549359 43.954
    endloop
  endfacet
  facet normal 0 0 1
    outer loop
      vertex 13.786106407642365 26.520437206327916 43.954
      vertex 30.42547308653593 11.709288756549359 43.954
      vertex 15 26.59999999701977 43.954
    endloop
  endfacet
  facet normal 0 0 1
    outer loop
      vertex 15 26.59999999701977 43.954
      vertex 30.42547308653593 11.709288756549359 43.954
      vertex 17 26.59999999701977 43.954
    endloop
  endfacet
  facet normal 0 0 1
    outer loop
      vertex 17 26.59999999701977 43.954
      vertex 30.42547308653593 11.709288756549359 43.954
      vertex 17 26.6 43.954
    endloop
  endfacet
  facet normal 0 0 1
    outer loop
      vertex 32.220437206327915 16.086106407642365 43.954
      vertex 23 26.6 43.954
      vertex 17 26.6 43.954
    endloop
  endfacet
  facet normal 0 0 -1
    outer loop
      vertex 43.034 0 42.354
      vertex 12.5 0 42.354
      vertex 43.034 2.8 42.354
    endloop
  endfacet
  facet normal 0 0 -1
    outer loop
      vertex 43.034 4.4 42.354
      vertex 43.034 2.8000000000000007 42.354
      vertex 8 2.8000000000000007 42.354
    endloop
  endfacet
  facet normal 1 0 0
    outer loop
      vertex 43.034 0 42.354
      vertex 43.034 2.8 42.354
      vertex 43.034 2.8 43.954
    endloop
  endfacet
  facet normal 1 0 0
    outer loop
      vertex 43.034 4.4 42.354
      vertex 43.034 4.4 43.954
      vertex 43.034 2.8000000000000007 42.354
    endloop
  endfacet
  facet normal 0 0 -1
    outer loop
      vertex 32.5 10.035 42.354
      vertex 37.8 10.035 42.354
      vertex 32.5 7.6850000000000005 42.354
    endloop
  endfacet
  facet normal 0 0 -1
    outer loop
      vertex 32.5 7.6850000000000005 42.354
      vertex 37.8 10.035 42.354
      vertex 37.8 7.6850000000000005 42.354
    endloop
  endfacet
  facet normal 0 0 1
    outer loop
      vertex 43.034 0 43.954
      vertex 43.034 2.8 43.954
      vertex 12.5 2.8 43.954
    endloop
  endfacet
  facet normal 0 0 1
    outer loop
      vertex 13.199999999999996 4.4 43.954
      vertex 43.034 2.8000000000000007 43.954
      vertex 43.034 4.4 43.954
    endloop
  endfacet
  facet normal 0 0 1
    outer loop
      vertex 25.080991618164013 8.252039308811938 43.954
      vertex 27.029902018606663 5.250980469584466 43.954
      vertex 32.3682182431221 8.717723558843137 43.954
    endloop
  endfacet
  facet normal 0 0 1
    outer loop
      vertex 25.080991618164013 8.252039308811938 43.954
      vertex 32.3682182431221 8.717723558843137 43.954
      vertex 30.42547308653593 11.709288756549359 43.954
    endloop
  endfacet
  facet normal 1 0 0
    outer loop
      vertex 43.034 0 43.954
      vertex 43.034 0 42.354
      vertex 43.034 2.8 43.954
    endloop
  endfacet
  facet normal 1 0 0
    outer loop
      vertex 43.034 4.4 43.954
      vertex 43.034 2.8000000000000007 43.954
      vertex 43.034 2.8000000000000007 42.354
    endloop
  endfacet
  facet normal 0 0 1
    outer loop
      vertex 32.5 7.6850000000000005 43.954
      vertex 37.8 7.6850000000000005 43.954
      vertex 32.5 10.035 43.954
    endloop
  endfacet
  facet normal 0 0 1
    outer loop
      vertex 37.8 7.6850000000000005 43.954
      vertex 37.8 10.035 43.954
      vertex 32.5 10.035 43.954
    endloop
  endfacet
  facet normal 0 0 1
    outer loop
      vertex 17 26.6 43.954
      vertex 30.42547308653593 11.709288756549359 43.954
      vertex 31.054036252200603 12.649999994039536 43.954
    endloop
  endfacet
  facet normal 0 0 1
    outer loop
      vertex 17 26.6 43.954
      vertex 31.054036252200603 12.649999994039536 43.954
      vertex 31.592079646885395 13.741044077277184 43.954
    endloop
  endfacet
  facet normal 0 0 1
    outer loop
      vertex 17 26.6 43.954
      vertex 31.592079646885395 13.741044077277184 43.954
      vertex 31.983110181987286 14.89298288077116 43.954
    endloop
  endfacet
  facet normal 0 0 1
    outer loop
      vertex 32.220437206327915 16.086106407642365 43.954
      vertex 17 26.6 43.954
      vertex 31.983110181987286 14.89298288077116 43.954
    endloop
  endfacet
  facet normal 0 0 1
    outer loop
      vertex 32.220437206327915 16.086106407642365 43.954
      vertex 32.29999999701977 17.3 43.954
      vertex 25.407017119453442 26.283110184488336 43.954
    endloop
  endfacet
  facet normal 0 0 1
    outer loop
      vertex 32.29999999701977 17.3 43.954
      vertex 32.22043721077644 18.51389358764648 43.954
      vertex 25.407017119453442 26.283110184488336 43.954
    endloop
  endfacet
  facet normal 0 0 1
    outer loop
      vertex 31.983110184488336 19.707017119453443 43.954
      vertex 27.65 25.354036255195282 43.954
      vertex 32.22043721077644 18.51389358764648 43.954
    endloop
  endfacet
  facet normal 0 0 1
    outer loop
      vertex 32.29999999701977 17.3 43.954
      vertex 32.3 17.3 43.954
      vertex 32.22043721077644 18.51389358764648 43.954
    endloop
  endfacet
  facet normal 0 0 1
    outer loop
      vertex 32.220437206327915 16.086106407642365 43.954
      vertex 24.21389358764648 26.520437210776436 43.954
      vertex 23 26.6 43.954
    endloop
  endfacet
  facet normal 0 0 1
    outer loop
      vertex 32.220437206327915 16.086106407642365 43.954
      vertex 25.407017119453442 26.283110184488336 43.954
      vertex 24.21389358764648 26.520437210776436 43.954
    endloop
  endfacet
  facet normal 0 0 1
    outer loop
      vertex 32.22043721077644 18.51389358764648 43.954
      vertex 27.65 25.354036255195282 43.954
      vertex 26.558955920995334 25.892079652354965 43.954
    endloop
  endfacet
  facet normal 0 0 1
    outer loop
      vertex 31.983110184488336 19.707017119453443 43.954
      vertex 28.6614812897811 24.678186064708488 43.954
      vertex 27.65 25.354036255195282 43.954
    endloop
  endfacet
  facet normal 0 0 1
    outer loop
      vertex 32.22043721077644 18.51389358764648 43.954
      vertex 26.558955920995334 25.892079652354965 43.954
      vertex 25.407017119453442 26.283110184488336 43.954
    endloop
  endfacet
  facet normal 0 0 1
    outer loop
      vertex 31.59207965235497 20.858955920995335 43.954
      vertex 29.576093065034893 23.876093065034894 43.954
      vertex 28.6614812897811 24.678186064708488 43.954
    endloop
  endfacet
  facet normal 0 0 1
    outer loop
      vertex 30.378186064708487 22.961481289781105 43.954
      vertex 29.576093065034893 23.876093065034894 43.954
      vertex 31.054036255195278 21.950000000000003 43.954
    endloop
  endfacet
  facet normal 0 0 1
    outer loop
      vertex 31.59207965235497 20.858955920995335 43.954
      vertex 28.6614812897811 24.678186064708488 43.954
      vertex 31.983110184488336 19.707017119453443 43.954
    endloop
  endfacet
  facet normal 0 0 1
    outer loop
      vertex 31.59207965235497 20.858955920995335 43.954
      vertex 31.054036255195278 21.950000000000003 43.954
      vertex 29.576093065034893 23.876093065034894 43.954
    endloop
  endfacet
endsolid OpenSCAD_Model
