solid OpenSCAD_Model
  facet normal -1 0 0
    outer loop
      vertex -0.30600000000000005 33.77 42.354
      vertex -0.30600000000000005 33.77 43.954
      vertex -0.30600000000000005 65.77000000000001 42.354
    endloop
  endfacet
  facet normal -1 0 0
    outer loop
      vertex -0.30600000000000005 33.77 43.954
      vertex -0.30600000000000005 65.77000000000001 43.954
      vertex -0.30600000000000005 65.77000000000001 42.354
    endloop
  endfacet
  facet normal 1 0 0
    outer loop
      vertex 1.694 33.77 43.954
      vertex 1.694 33.77 42.354
      vertex 1.694 65.77000000000001 43.954
    endloop
  endfacet
  facet normal 1 0 0
    outer loop
      vertex 1.694 65.77000000000001 42.354
      vertex 1.694 65.77000000000001 43.954
      vertex 1.694 33.77 42.354
    endloop
  endfacet
  facet normal 0 0 -1
    outer loop
      vertex -0.30600000000000005 33.77 42.354
      vertex -0.30600000000000005 65.77000000000001 42.354
      vertex 1.694 33.77 42.354
    endloop
  endfacet
  facet normal 0 -1 0
    outer loop
      vertex -0.30600000000000005 33.77 42.354
      vertex 1.694 33.77 43.954
      vertex -0.30600000000000005 33.77 43.954
    endloop
  endfacet
  facet normal 0 1 0
    outer loop
      vertex -0.30600000000000005 65.77000000000001 42.354
      vertex -0.30600000000000005 65.77000000000001 43.954
      vertex 1.694 65.77000000000001 42.354
    endloop
  endfacet
  facet normal 0 0 1
    outer loop
      vertex -0.30600000000000005 33.77 43.954
      vertex 1.694 65.77000000000001 43.954
      vertex -0.30600000000000005 65.77000000000001 43.954
    endloop
  endfacet
  facet normal 0 -1 0
    outer loop
      vertex -0.30600000000000005 33.77 42.354
      vertex 1.694 33.77 42.354
      vertex 1.694 33.77 43.954
    endloop
  endfacet
  facet normal 0 0 1
    outer loop
      vertex -0.30600000000000005 33.77 43.954
      vertex 1.694 33.77 43.954
      vertex 1.694 65.77000000000001 43.954
    endloop
  endfacet
  facet normal 0 0 -1
    outer loop
      vertex 1.694 65.77000000000001 42.354
      vertex 1.694 33.77 42.354
      vertex -0.30600000000000005 65.77000000000001 42.354
    endloop
  endfacet
  facet normal 0 1 0
    outer loop
      vertex -0.30600000000000005 65.77000000000001 43.954
      vertex 1.694 65.77000000000001 43.954
      vertex 1.694 65.77000000000001 42.354
    endloop
  endfacet
endsolid OpenSCAD_Model
