solid OpenSCAD_Model
  facet normal -0.5446390348126847 0.8386705680768266 0
    outer loop
      vertex 10.970097981393337 29.349019530415536 42.754000000000005
      vertex 9.862904997623229 28.630000000000003 42.754000000000005
      vertex 9.862904997623229 28.630000000000003 43.954
    endloop
  endfacet
  facet normal -0.5446390348126847 0.8386705680768266 0
    outer loop
      vertex 10.970097981393337 29.349019530415536 42.754000000000005
      vertex 9.862904997623229 28.630000000000003 43.954
      vertex 10.970097981393337 29.349019530415536 43.954
    endloop
  endfacet
  facet normal 0 0 -1
    outer loop
      vertex 10.970097981393337 29.349019530415536 42.754000000000005
      vertex 11.437034725308722 28.630000000000003 42.754000000000005
      vertex 9.862904997623229 28.630000000000003 42.754000000000005
    endloop
  endfacet
  facet normal 0.8386705673027648 0.5446390360046355 -1.241016452131234e-15
    outer loop
      vertex 10.970097981393337 29.349019530415536 42.754000000000005
      vertex 11.437034725308724 28.630000000000003 43.954
      vertex 11.437034725308722 28.630000000000003 42.754000000000005
    endloop
  endfacet
  facet normal 0.8386705673027639 0.5446390360046369 0
    outer loop
      vertex 10.970097981393337 29.349019530415536 42.754000000000005
      vertex 10.970097981393337 29.349019530415536 43.954
      vertex 11.437034725308724 28.630000000000003 43.954
    endloop
  endfacet
  facet normal 0 -1 0
    outer loop
      vertex 9.862904997623229 28.630000000000003 43.954
      vertex 9.862904997623229 28.630000000000003 42.754000000000005
      vertex 11.437034725308722 28.630000000000003 42.754000000000005
    endloop
  endfacet
  facet normal 0 -1 0
    outer loop
      vertex 9.862904997623229 28.630000000000003 43.954
      vertex 11.437034725308722 28.630000000000003 42.754000000000005
      vertex 11.437034725308724 28.630000000000003 43.954
    endloop
  endfacet
  facet normal 0 0 1
    outer loop
      vertex 9.862904997623229 28.630000000000003 43.954
      vertex 11.437034725308724 28.630000000000003 43.954
      vertex 10.970097981393337 29.349019530415536 43.954
    endloop
  endfacet
endsolid OpenSCAD_Model
